<svg width="320" height="134" viewBox="0 0 320 134" fill="none" xmlns="http://www.w3.org/2000/svg">
<g clip-path="url(#clip0_7408_14310)">
<path d="M79.8851 54.9805C81.9495 55.0233 83.9852 55.4756 85.8733 56.3115C87.7616 57.1475 89.4656 58.3508 90.8851 59.8506C94.008 63.0196 95.9404 67.1707 96.3548 71.6006C96.607 73.8299 96.3999 76.0882 95.7464 78.2344C95.0928 80.3805 94.0068 82.3708 92.555 84.0811V84.1309C91.3792 85.4626 89.9424 86.5389 88.3343 87.294C86.7262 88.049 84.9801 88.4665 83.2044 88.5205C81.1175 88.5402 79.0479 88.1365 77.1214 87.334C75.3151 86.5815 73.669 85.4925 72.2708 84.127L71.6956 83.5518C68.6394 80.4305 66.7354 76.3565 66.305 72.001C66.0269 69.7466 66.22 67.458 66.8724 65.2822C67.5248 63.1066 68.6225 61.0898 70.095 59.3604C71.274 58.0281 72.7139 56.9516 74.3255 56.1983C75.9371 55.4449 77.6868 55.0305 79.4651 54.9805H79.8851Z" fill="#B3B2BC"/>
<path fill-rule="evenodd" clip-rule="evenodd" d="M83.0452 30.2002C85.9649 29.4705 87.1751 32.3204 86.1653 34.7402C85.3053 36.7402 83.2449 37.8203 81.7249 39.2803C79.3878 41.5333 78.4027 45.0943 77.6722 48.3164C82.3408 49.4069 86.6861 51.6723 90.2757 54.9365C95.1721 59.3893 98.3536 65.4176 99.2659 71.9727C100.178 78.5277 98.7642 85.1959 95.2698 90.8164C91.7753 96.4368 86.4211 100.654 80.139 102.736C73.8567 104.818 67.0427 104.633 60.8831 102.212C54.7238 99.7908 49.6073 95.2867 46.4241 89.4844C43.2412 83.682 42.1924 76.9467 43.4603 70.4512C44.7283 63.9557 48.2331 58.1101 53.3646 53.9307C53.7176 53.6458 54.0773 53.3692 54.4427 53.1006C53.7884 51.7612 53.1779 50.4001 52.6146 49.0195C51.6653 46.8793 50.9741 44.6336 50.555 42.3301C50.4883 41.9168 50.4317 41.5 50.3851 41.0801C50.3384 40.6601 50.3117 40.2795 50.305 39.9395C50.2785 38.9415 50.4269 37.9465 50.7444 37C50.9724 36.2253 51.4168 35.5315 52.0247 35C52.5907 34.5407 53.3147 34.3215 54.0403 34.3906C54.7661 34.4598 55.4355 34.812 55.9046 35.3701C58.2146 38.1301 56.4653 42.37 56.3753 45.54C56.4063 47.4787 56.7476 49.3944 57.3802 51.2168C58.7961 50.5037 60.1501 49.6735 61.4251 48.7305C62.355 47.9105 62.9249 46.2305 64.0247 45.8203C65.1247 45.4103 66.2951 46.3103 67.1751 46.8203C68.0985 47.3087 69.1306 47.5562 70.1751 47.54C70.945 47.57 71.7252 47.5406 72.4651 47.6006C73.168 47.6312 73.8673 47.6883 74.5618 47.7705C75.0348 45.1061 75.4895 42.4365 76.1048 39.8008C76.5732 37.4414 77.5047 35.1976 78.845 33.2002C79.8588 31.7474 81.3422 30.688 83.0452 30.2002ZM78.6946 53.0606C69.2347 53.0706 62.3845 61.5906 63.2845 72.0606C64.1847 82.5304 72.545 91.0606 81.9749 91.1406C91.4045 91.2204 98.3943 82.6804 97.4847 72.1309C96.5747 61.5809 88.1546 53.0507 78.6946 53.0606Z" fill="#B3B2BC"/>
<path d="M200.305 66.12C201.355 67.87 204.205 71.37 210.635 72.6L211.175 69.79C208.413 69.3742 205.856 68.0886 203.875 66.12H211.265V63.33H198.835V61.89H210.325V59.23H199.325V58H209.535V55.41H199.365V54H209.575V51.41H199.365V50H210.365V47.34H199.765C200.402 46.9471 200.948 46.4219 201.365 45.8C201.695 45.28 201.875 44.96 201.885 44.93L199.255 43.5C198.953 44.0362 198.619 44.5538 198.255 45.05C197.783 45.8352 197.096 46.469 196.276 46.8766C195.456 47.2841 194.536 47.4484 193.625 47.35H190.315C190.884 46.596 191.411 45.8115 191.895 45L189.265 43.57C187.285 46.8515 184.771 49.7786 181.825 52.23L183.745 54.52C184.245 54.1 184.745 53.68 185.165 53.26V59.1C185.165 61.02 186.075 61.93 187.995 61.93H195.835V63.37H183.405V66.16H190.795C188.814 68.1286 186.257 69.4142 183.495 69.83L184.035 72.64C190.465 71.41 193.315 67.92 194.365 66.16H195.835V72.93H198.835V66.16L200.305 66.12ZM196.365 55.36H188.095V54H196.365V55.36ZM196.365 50.03V51.37H188.095V50.2L188.235 50.03H196.365ZM188.095 58.66V58H196.365V59.27H188.655C188.175 59.22 188.105 59.15 188.105 58.66H188.095Z" fill="#B3B2BC"/>
<path d="M144.855 68.1599C145.485 66.4399 145.575 62.5699 145.575 58.9599V57.6599H141.575L142.385 45.3599H129.325V48.1499H139.185L138.565 57.6599H133.455L134.025 49.6599H131.155L130.375 60.4499H142.565C142.565 64.0199 142.355 66.1299 142.035 66.9899C141.585 68.2099 140.805 69.5799 137.805 69.5799H133.125V72.4399H137.995C141.595 72.4499 143.785 71.0899 144.855 68.1599Z" fill="#B3B2BC"/>
<path d="M128.995 70.0002V66.4402H139.335V63.4402H128.995V66.3903H125.995V69.3102H123.615V64.3102H124.995C125.45 64.3396 125.907 64.2716 126.334 64.1106C126.761 63.9496 127.149 63.6994 127.471 63.3767C127.794 63.054 128.044 62.6662 128.205 62.2392C128.366 61.8121 128.434 61.3557 128.405 60.9002V48.2603H123.625V44.2603H120.625V48.2603H115.995V64.2603H120.645V69.2603H115.935V72.3903H126.575C126.896 72.4153 127.22 72.3709 127.523 72.2601C127.826 72.1492 128.101 71.9746 128.331 71.7479C128.56 71.5213 128.738 71.2479 128.853 70.9464C128.967 70.6448 129.016 70.3221 128.995 70.0002ZM125.405 51.1703V61.0002C125.405 61.1116 125.361 61.2185 125.282 61.2972C125.203 61.376 125.096 61.4203 124.985 61.4203H123.615V51.1802L125.405 51.1703ZM118.995 61.3802V51.1802H120.645V61.3702L118.995 61.3802Z" fill="#B3B2BC"/>
<path d="M243.995 67.55V45H216.895V72.9H238.645C242.155 72.9 243.995 71 243.995 67.55ZM240.995 67.55C241.024 67.8672 240.983 68.187 240.875 68.4866C240.767 68.7862 240.594 69.0583 240.369 69.2836C240.143 69.5088 239.871 69.6817 239.572 69.79C239.272 69.8982 238.952 69.9392 238.635 69.91H219.915V48H240.995V67.55Z" fill="#B3B2BC"/>
<path d="M221.605 62.7799L222.605 65.5899C226.978 63.9398 230.812 61.1164 233.685 57.4299V63.0999C233.662 63.6799 233.41 64.2272 232.985 64.6224C232.559 65.0177 231.995 65.2288 231.415 65.2099H228.725V68.0699H231.725C232.377 68.1044 233.029 68.0041 233.641 67.7751C234.253 67.5462 234.81 67.1936 235.28 66.7394C235.749 66.2852 236.119 65.7391 236.368 65.1353C236.617 64.5314 236.738 63.8828 236.725 63.2299V55.7899H238.895V52.9299H236.725V49.8599H233.725V52.9299H222.125V55.7899H231.385C228.775 58.9167 225.408 61.3231 221.605 62.7799Z" fill="#B3B2BC"/>
<path d="M179.865 70.6902C177.334 68.6309 174.963 66.381 172.775 63.9602C173.799 62.6099 174.705 61.1747 175.485 59.6703C177.485 55.7303 177.685 51.5202 177.685 47.5502H174.555C174.555 51.1402 174.415 54.9302 172.705 58.2402C172.135 59.345 171.486 60.4077 170.765 61.4203C170.044 60.4076 169.395 59.3449 168.825 58.2402C167.115 54.9302 166.975 51.1402 166.975 47.5502H163.845C163.845 51.3502 164.015 55.7403 166.045 59.6703C166.825 61.1747 167.731 62.6099 168.755 63.9602C166.868 66.0632 164.833 68.0283 162.665 69.8403V66.4002H159.665V69.3203H157.285V64.3203H158.655C159.11 64.3496 159.567 64.2816 159.994 64.1206C160.421 63.9596 160.809 63.7094 161.131 63.3867C161.454 63.064 161.704 62.6762 161.865 62.2492C162.026 61.8221 162.094 61.3657 162.065 60.9102V48.2603H157.285V44.2603H154.285V48.2603H149.635V64.2603H154.285V69.2603H149.575V72.3903H160.215C160.617 72.4198 161.021 72.3429 161.384 72.1674C161.747 71.9919 162.058 71.7239 162.285 71.3903L163.665 73.0303C166.185 70.9729 168.558 68.7407 170.765 66.3503C172.972 68.7408 175.344 70.973 177.865 73.0303L179.865 70.6902ZM159.065 51.1802V61.0002C159.065 61.1116 159.021 61.2185 158.942 61.2972C158.863 61.376 158.756 61.4203 158.645 61.4203H157.275V51.1802H159.065ZM152.635 61.3702V51.1802H154.285V61.3702H152.635Z" fill="#B3B2BC"/>
<path d="M169.705 53.1001L172.165 52.7901C172.124 49.8696 171.907 46.9543 171.515 44.0601L168.515 44.4901V44.8201C169.07 47.555 169.467 50.3196 169.705 53.1001Z" fill="#B3B2BC"/>
<path d="M270.175 79.1099H261.595V98.3399C262.151 98.4571 262.717 98.5141 263.285 98.5099C263.853 98.5128 264.419 98.4558 264.975 98.3399V92.1199H270.295C274.295 92.1199 276.985 89.5399 276.985 85.5399C276.985 81.5399 274.325 79.1099 270.175 79.1099ZM269.615 89.1099H264.995V82.1099H269.635C272.535 82.1099 273.785 83.1099 273.785 85.6299C273.785 88.1499 272.205 89.1099 269.615 89.1099Z" fill="#B3B2BC"/>
<path d="M212.375 91.6301C211.375 90.8301 210.475 90.63 210.495 90.48C210.515 90.33 210.995 90.3901 211.835 90.1301C213.029 89.8577 214.094 89.1839 214.851 88.2211C215.608 87.2583 216.012 86.0648 215.995 84.8401C215.995 80.3101 212.865 79.0801 208.335 79.0801H199.995V98.3401C200.547 98.4574 201.11 98.5144 201.675 98.5101C202.239 98.5128 202.802 98.4559 203.355 98.3401V91.0001H205.515C206.75 90.8873 207.989 91.1786 209.045 91.8301C210.063 92.6923 210.919 93.7284 211.575 94.8901C212.125 95.7401 213.485 98.3101 213.485 98.3101C214.145 98.429 214.814 98.4859 215.485 98.48C216.134 98.4893 216.781 98.4017 217.405 98.22C217.405 98.22 215.405 94.97 214.515 93.86C213.891 93.0355 213.173 92.2871 212.375 91.6301ZM207.805 88.17H203.395V81.92H208.395C211.295 81.92 212.645 82.49 212.645 84.85C212.645 87.21 210.705 88.17 207.805 88.17Z" fill="#B3B2BC"/>
<path d="M254.315 79.1102V90.5401C254.315 93.6401 252.485 95.6001 249.455 95.6001C246.425 95.6001 244.595 93.6001 244.595 90.5401V79.1102C244.039 78.9928 243.473 78.9359 242.905 78.9402C242.337 78.9372 241.771 78.9942 241.215 79.1102V90.6502C241.215 96.2802 244.825 98.7402 249.445 98.7402C254.065 98.7402 257.675 96.2802 257.675 90.6502V79.1102C257.119 78.9928 256.553 78.9359 255.985 78.9402C255.424 78.9386 254.864 78.9956 254.315 79.1102Z" fill="#B3B2BC"/>
<path d="M187.355 81.8202C188.622 81.7719 189.88 82.0523 191.007 82.6341C192.134 83.2158 193.091 84.0792 193.785 85.1402L196.265 83.3102C194.035 80.2402 191.615 78.7402 187.085 78.7402C185.777 78.7275 184.481 78.979 183.273 79.4796C182.065 79.9802 180.971 80.7196 180.056 81.6535C179.14 82.5873 178.423 83.6964 177.947 84.9142C177.471 86.1319 177.246 87.4333 177.285 88.7402C177.285 94.5502 181.385 98.7402 186.465 98.7402C187.777 98.7405 189.076 98.4787 190.285 97.9702C191.061 97.6739 191.799 97.288 192.485 96.8202C192.755 96.6402 193.065 96.4202 193.265 96.5002C193.465 96.5802 193.445 96.7502 193.445 96.9602C193.445 97.5702 193.445 98.3002 193.445 98.3002C193.862 98.4165 194.292 98.4737 194.725 98.4702C195.164 98.4744 195.6 98.4034 196.015 98.2602V88.0002H187.385V90.7402H193.055C193.055 92.8002 191.175 95.6702 186.925 95.6702C182.925 95.6702 180.565 92.4802 180.565 88.7902C180.546 87.8849 180.708 86.985 181.04 86.1427C181.373 85.3005 181.869 84.5327 182.501 83.8841C183.133 83.2355 183.888 82.7191 184.721 82.3648C185.554 82.0104 186.449 81.8253 187.355 81.8202Z" fill="#B3B2BC"/>
<path d="M228.375 78.7402C226.397 78.7402 224.464 79.3267 222.819 80.4255C221.175 81.5244 219.893 83.0861 219.136 84.9134C218.379 86.7407 218.181 88.7514 218.567 90.6912C218.953 92.631 219.905 94.4128 221.304 95.8113C222.703 97.2099 224.484 98.1622 226.424 98.5481C228.364 98.9339 230.375 98.7359 232.202 97.9791C234.029 97.2222 235.591 95.9405 236.69 94.296C237.789 92.6515 238.375 90.718 238.375 88.7402C238.375 86.0881 237.321 83.5446 235.446 81.6692C233.571 79.7938 231.027 78.7402 228.375 78.7402ZM228.375 95.4003C227.058 95.4003 225.77 95.0096 224.675 94.2778C223.58 93.546 222.726 92.5059 222.222 91.2889C221.718 90.072 221.586 88.7328 221.843 87.4409C222.1 86.149 222.734 84.9623 223.666 84.0309C224.597 83.0995 225.784 82.4652 227.076 82.2082C228.368 81.9512 229.707 82.0831 230.924 82.5872C232.141 83.0913 233.181 83.9449 233.913 85.0402C234.644 86.1354 235.035 87.423 235.035 88.7402C235.035 90.5048 234.335 92.1973 233.088 93.446C231.841 94.6947 230.15 95.3976 228.385 95.4003H228.375Z" fill="#B3B2BC"/>
<path d="M154.235 82.1798H161.235V98.3298C161.824 98.4473 162.424 98.5042 163.025 98.4998C163.626 98.503 164.225 98.4461 164.815 98.3298V82.1798H171.815V79.0698H154.235V82.1798Z" fill="#B3B2BC"/>
<path d="M148.075 79.0599V93.0599C145.126 88.1693 141.837 83.4912 138.235 79.0599C137.689 78.9426 137.133 78.8856 136.575 78.8899C136.017 78.8867 135.46 78.9437 134.915 79.0599V98.3299C135.457 98.4472 136.01 98.5042 136.565 98.4999C137.119 98.5029 137.673 98.4459 138.215 98.3299V83.3999C141.735 88.2499 145.045 93.2499 148.015 98.3299C148.564 98.4469 149.124 98.5039 149.685 98.4999C150.246 98.5025 150.806 98.4456 151.355 98.3299V79.0599C150.813 78.9425 150.259 78.8855 149.705 78.8899C149.157 78.8883 148.61 78.9452 148.075 79.0599Z" fill="#B3B2BC"/>
<path d="M132.445 98.19L132.325 97.77L132.205 97.36L131.705 95.71L131.455 94.88L131.185 94.06L130.645 92.42C130.465 91.87 130.265 91.33 130.075 90.79L129.795 89.98C129.705 89.71 129.595 89.44 129.495 89.17L128.895 87.55C128.065 85.4 127.185 83.27 126.235 81.17C125.995 80.64 125.755 80.12 125.505 79.6L125.225 79.02H120.695L120.405 79.63C120.155 80.15 119.925 80.63 119.685 81.2C118.745 83.3 117.865 85.43 117.045 87.58L116.445 89.2C116.345 89.47 116.245 89.74 116.145 90.01L115.855 90.82C115.665 91.36 115.475 91.9 115.285 92.45L114.745 94.09L114.475 94.91L114.215 95.73L113.705 97.38C113.615 97.65 113.535 97.93 113.455 98.21V98.35C114.017 98.4665 114.59 98.5235 115.165 98.52C115.742 98.5224 116.319 98.4654 116.885 98.35L117.365 96.73L117.605 95.92L117.865 95.12L118.535 93.12C120.009 92.9137 121.5 92.8601 122.985 92.96C124.413 93.0792 125.819 93.3886 127.165 93.88C127.595 94.08 127.795 94.19 127.935 94.52L128.125 95.11L128.375 95.91L128.615 96.72L129.085 98.34V98.39C129.647 98.5111 130.22 98.5682 130.795 98.56C131.366 98.5613 131.935 98.5043 132.495 98.39L132.445 98.19ZM122.995 90.45C121.722 90.4708 120.457 90.6625 119.235 91.02C119.295 90.86 119.415 90.43 119.465 90.28L120.035 88.7C120.825 86.6 121.645 84.51 122.545 82.46L122.695 82.11C122.785 81.89 122.885 81.83 122.985 81.83C123.085 81.83 123.175 81.89 123.255 82.07L123.425 82.44C124.325 84.44 125.155 86.57 125.945 88.68L126.515 90.26L126.695 90.76C125.475 90.5333 124.235 90.4294 122.995 90.45Z" fill="#B3B2BC"/>
</g>
<defs>
<clipPath id="clip0_7408_14310">
<rect width="233.97" height="73.92" fill="white" transform="translate(43.0149 30.04)"/>
</clipPath>
</defs>
</svg>
