<svg preserveAspectRatio="none" width="100%" height="100%" overflow="visible" style="display: block;" viewBox="0 0 186 86" fill="none" xmlns="http://www.w3.org/2000/svg">
<g id="Bridge + Stripe - light - SVG 1" clip-path="url(#clip0_7475_5570)">
<path id="Vector" d="M4.61097 80.7024C2.05549 80.7024 0 79.1654 0 76.6677C0 74.1151 2.05549 72.9076 4.44431 72.5507L7.30534 72.1113C8.33307 71.9468 8.6664 71.5899 8.6664 70.7939C8.6664 69.3394 7.52753 68.4885 5.97202 68.4885C3.91656 68.4885 2.86101 69.5587 2.80545 71.2059H0.416654C0.499984 68.7903 2.41659 66.6221 5.7776 66.6221C9.11083 66.6221 10.9997 68.5708 10.9997 71.6173V80.2907H8.72192V79.632V78.5067C8.0553 79.879 6.6109 80.7024 4.61097 80.7024ZM4.94429 78.8636C7.08313 78.8636 8.6664 77.4363 8.6664 75.2954V73.3465C8.49973 73.5937 7.99972 73.7856 7.19421 73.9229L5.24982 74.2798C3.66655 74.5816 2.47215 75.268 2.47215 76.6677C2.47215 78.0399 3.58321 78.8636 4.94429 78.8636Z" fill="var(--fill-0, #B3B2BC)"/>
<path id="Vector_2" d="M88.246 80.7024C84.6072 80.7024 81.6074 78.342 81.6074 73.6485C81.6074 69.4767 84.5517 66.6221 88.357 66.6221C91.5237 66.6221 93.9124 68.5157 94.1903 71.5077H91.7182C91.4958 69.7785 90.3013 68.4885 88.3015 68.4885C85.7462 68.4885 84.0793 70.7119 84.0793 73.6485C84.0793 76.805 85.7738 78.8636 88.357 78.8636C90.3292 78.8636 91.6624 77.7381 91.9126 75.8442H94.2735C94.0237 78.726 91.9126 80.7024 88.246 80.7024ZM101.944 80.7024C98.0832 80.7024 95.361 77.8752 95.361 73.6485C95.361 69.5313 98.0832 66.6221 101.944 66.6221C105.778 66.6221 108.527 69.5313 108.527 73.6485C108.527 77.8752 105.778 80.7024 101.944 80.7024ZM101.944 78.8636C104.5 78.8636 106.055 76.7499 106.055 73.6485C106.055 70.5469 104.444 68.4885 101.944 68.4885C99.4443 68.4885 97.8335 70.5469 97.8335 73.6485C97.8335 76.7499 99.3888 78.8636 101.944 78.8636ZM110.654 80.2907V67.0612H113.043V68.1042V68.8452C113.849 67.5552 115.21 66.6221 116.96 66.6221C118.71 66.6221 120.21 67.4729 120.987 69.2295C121.904 67.6925 123.431 66.6221 125.348 66.6221C128.043 66.6221 130.043 68.2964 130.043 71.9191V80.2907H127.654V72.386C127.654 69.8882 126.904 68.4885 124.848 68.4885C122.737 68.4885 121.543 70.2999 121.543 72.4136V80.2907H119.154V72.4682C119.154 69.943 118.376 68.4885 116.404 68.4885C114.321 68.4885 113.043 70.3276 113.043 72.5233V80.2907H110.654ZM132.871 85.9998V67.0612H135.26V68.0217V68.8726C136.01 67.6925 137.677 66.6221 139.677 66.6221C143.538 66.6221 145.843 69.6138 145.843 73.6485C145.843 77.848 143.315 80.7024 139.621 80.7024C137.705 80.7024 136.121 79.7967 135.26 78.4516V79.5498V85.9998H132.871ZM139.26 78.8636C141.732 78.8636 143.343 76.7225 143.343 73.6485C143.343 70.6017 141.732 68.4885 139.26 68.4885C136.844 68.4885 135.121 70.4921 135.121 73.6485C135.121 76.7499 136.816 78.8636 139.26 78.8636ZM151.787 80.7024C149.232 80.7024 147.176 79.1654 147.176 76.6677C147.176 74.1151 149.232 72.9076 151.62 72.5507L154.481 72.1113C155.509 71.9468 155.842 71.5899 155.842 70.7939C155.842 69.3394 154.704 68.4885 153.148 68.4885C151.093 68.4885 150.037 69.5587 149.982 71.2059H147.593C147.676 68.7903 149.593 66.6221 152.954 66.6221C156.287 66.6221 158.176 68.5708 158.176 71.6173V80.2907H155.898V79.632V78.5067C155.231 79.879 153.787 80.7024 151.787 80.7024ZM152.121 78.8636C154.259 78.8636 155.842 77.4363 155.842 75.2954V73.3465C155.676 73.5937 155.176 73.7856 154.37 73.9229L152.426 74.2798C150.843 74.5816 149.648 75.268 149.648 76.6677C149.648 78.0399 150.759 78.8636 152.121 78.8636ZM161.003 80.2907V67.0612H163.364V67.9672V68.8452C164.086 67.6925 165.697 66.6221 167.503 66.6221C170.586 66.6221 172.447 68.5434 172.447 71.9468V80.2907H170.058V72.2486C170.058 69.7509 169.225 68.4885 167.114 68.4885C164.781 68.4885 163.392 70.2451 163.392 72.3311V80.2907H161.003ZM176.278 85.9998L178.723 79.8241L173.362 67.0612H176.001L179.334 75.5147L179.973 77.1342L180.556 75.5147L183.5 67.0612H186L178.806 85.9998H176.278Z" fill="var(--fill-0, #B3B2BC)"/>
<path id="Vector_3" fill-rule="evenodd" clip-rule="evenodd" d="M75.124 73.6047C75.124 69.6837 73.1483 66.5898 69.3712 66.5898C65.5787 66.5898 63.284 69.6836 63.284 73.5741C63.284 78.1845 65.9931 80.5127 69.8813 80.5127C71.7777 80.5127 73.2118 80.0991 74.2955 79.5172V76.4537C73.2118 76.9743 71.9689 77.296 70.3912 77.296C68.8454 77.296 67.4751 76.7754 67.2997 74.9678H75.092C75.092 74.7687 75.124 73.9724 75.124 73.6047ZM67.2519 72.1497C67.2519 70.4189 68.3514 69.699 69.3556 69.699C70.3274 69.699 71.3633 70.4189 71.3633 72.1497H67.2519Z" fill="var(--fill-0, #B3B2BC)"/>
<path id="Vector_4" fill-rule="evenodd" clip-rule="evenodd" d="M57.1335 66.5898C55.5716 66.5898 54.5678 67.2942 54.01 67.7844L53.803 66.8346H50.2971V84.6941L54.2811 83.8822L54.2967 79.5478C54.8706 79.9459 55.7152 80.5127 57.1173 80.5127C59.9697 80.5127 62.5674 78.307 62.5674 73.4515C62.5515 69.0096 59.9221 66.5898 57.1335 66.5898ZM56.1772 77.1431C55.2371 77.1431 54.6791 76.8214 54.2967 76.4228L54.2811 70.7406C54.6952 70.2964 55.2688 69.99 56.1772 69.99C57.6275 69.99 58.6313 71.5523 58.6313 73.5588C58.6313 75.6112 57.6433 77.1431 56.1772 77.1431Z" fill="var(--fill-0, #B3B2BC)"/>
<path id="Vector_5" fill-rule="evenodd" clip-rule="evenodd" d="M44.8159 65.6855L48.8154 64.8582V61.7491L44.8159 62.5607V65.6855Z" fill="var(--fill-0, #B3B2BC)"/>
<path id="Vector_6" d="M48.8154 66.8454H44.8159V80.2474H48.8154V66.8454Z" fill="var(--fill-0, #B3B2BC)"/>
<path id="Vector_7" fill-rule="evenodd" clip-rule="evenodd" d="M40.5283 67.9739L40.2734 66.8405H36.8313V80.2428H40.8152V71.1599C41.7554 69.9806 43.3489 70.1951 43.8429 70.3633V66.8405C43.3331 66.6567 41.4684 66.3197 40.5283 67.9739Z" fill="var(--fill-0, #B3B2BC)"/>
<path id="Vector_8" fill-rule="evenodd" clip-rule="evenodd" d="M32.5577 63.5255L28.6692 64.3221L28.6536 76.5908C28.6536 78.858 30.4222 80.5274 32.7806 80.5274C34.0875 80.5274 35.0435 80.2977 35.5695 80.0219V76.9125C35.0594 77.1116 32.5415 77.8163 32.5415 75.5494V70.1118H35.5695V66.8494H32.5415L32.5577 63.5255Z" fill="var(--fill-0, #B3B2BC)"/>
<path id="Vector_9" fill-rule="evenodd" clip-rule="evenodd" d="M21.7874 70.7406C21.7874 70.1432 22.2973 69.9134 23.1419 69.9134C24.353 69.9134 25.8827 70.2655 27.0939 70.8936V67.2942C25.7712 66.7889 24.4645 66.5898 23.1419 66.5898C19.907 66.5898 17.7557 68.2133 17.7557 70.9242C17.7557 75.1519 23.8112 74.4779 23.8112 76.3005C23.8112 77.0052 23.1738 77.235 22.2814 77.235C20.9587 77.235 19.2696 76.7142 17.931 76.0095V79.6551C19.413 80.2676 20.9109 80.528 22.2814 80.528C25.596 80.528 27.8748 78.9502 27.8748 76.2086C27.8587 71.6442 21.7874 72.4558 21.7874 70.7406Z" fill="var(--fill-0, #B3B2BC)"/>
<path id="Vector_10" d="M175.486 40.7202C173.251 40.7202 171.307 40.2665 169.653 39.3587C168 38.4208 166.714 37.0746 165.795 35.3197C164.876 33.5647 164.417 31.4319 164.417 28.9205C164.417 26.6817 164.876 24.6848 165.795 22.93C166.744 21.1449 168.046 19.7531 169.699 18.7547C171.353 17.7562 173.205 17.257 175.256 17.257C177.461 17.257 179.344 17.7411 180.906 18.7093C182.498 19.6775 183.707 21.0541 184.534 22.8392C185.361 24.594 185.774 26.6514 185.774 29.0113V30.0097H169.24C169.24 31.4319 169.515 32.6722 170.066 33.7314C170.618 34.7902 171.353 35.6072 172.271 36.1821C173.22 36.7569 174.292 37.0442 175.486 37.0442C176.894 37.0442 178.073 36.7115 179.023 36.0458C180.002 35.3801 180.599 34.3667 180.814 33.0052H185.591C185.437 34.4572 184.947 35.7736 184.121 36.9534C183.294 38.1031 182.13 39.026 180.63 39.7218C179.16 40.3875 177.446 40.7202 175.486 40.7202ZM180.814 26.6514C180.783 24.8966 180.278 23.4897 179.298 22.4307C178.318 21.3718 176.971 20.8423 175.256 20.8423C173.603 20.8423 172.225 21.4021 171.123 22.5215C170.051 23.6107 169.439 24.9874 169.286 26.6514H180.814Z" fill="var(--fill-0, #B3B2BC)"/>
<path id="Vector_11" d="M151.098 50.1146C149.047 50.1146 147.271 49.7669 145.771 49.0708C144.27 48.375 143.107 47.4067 142.28 46.1664C141.484 44.9259 141.086 43.4735 141.086 41.8094H145.863C145.893 43.2314 146.368 44.351 147.287 45.168C148.236 45.9847 149.537 46.3932 151.19 46.3932C153.028 46.3932 154.497 45.8939 155.6 44.8955C156.702 43.8971 157.253 42.4147 157.253 40.4479V37.9067C157.253 37.1501 157.284 36.4543 157.345 35.819C156.671 36.9383 155.722 37.8309 154.497 38.4966C153.272 39.1622 151.849 39.495 150.226 39.495C148.236 39.495 146.475 39.0564 144.944 38.1789C143.444 37.2711 142.265 35.9854 141.408 34.3213C140.581 32.6268 140.167 30.6603 140.167 28.4214C140.167 26.2127 140.611 24.2612 141.499 22.5669C142.418 20.8726 143.628 19.5716 145.128 18.6639C146.659 17.726 148.328 17.257 150.134 17.257C151.91 17.257 153.38 17.605 154.543 18.3009C155.707 18.9967 156.641 19.9195 157.345 21.0692C157.284 20.4036 157.253 19.738 157.253 19.0724V17.9832H161.984V39.0865C161.984 42.7474 161.034 45.5007 159.136 47.3462C157.268 49.192 154.589 50.1146 151.098 50.1146ZM151.282 35.7736C152.507 35.7736 153.594 35.471 154.543 34.8657C155.492 34.2304 156.227 33.353 156.748 32.2336C157.268 31.114 157.529 29.8433 157.529 28.4214C157.529 26.9994 157.253 25.7286 156.702 24.6092C156.181 23.4594 155.446 22.5669 154.497 21.9315C153.579 21.2962 152.507 20.9785 151.282 20.9785C150.057 20.9785 148.97 21.2962 148.021 21.9315C147.072 22.5367 146.337 23.4141 145.817 24.5638C145.296 25.6832 145.036 26.9691 145.036 28.4214C145.036 29.8433 145.296 31.114 145.817 32.2336C146.337 33.353 147.072 34.2304 148.021 34.8657C148.97 35.471 150.057 35.7736 151.282 35.7736Z" fill="var(--fill-0, #B3B2BC)"/>
<path id="Vector_12" d="M125.933 40.7207C123.943 40.7207 122.183 40.2821 120.652 39.4047C119.121 38.4971 117.911 37.1657 117.023 35.4108C116.135 33.6257 115.691 31.508 115.691 29.0573C115.691 26.667 116.135 24.5945 117.023 22.8397C117.942 21.0546 119.182 19.6779 120.744 18.7098C122.305 17.7416 124.066 17.2575 126.025 17.2575C127.679 17.2575 129.103 17.6205 130.297 18.3467C131.491 19.0728 132.41 19.9805 133.053 21.0697C132.991 20.4646 132.961 19.7989 132.961 19.0728V8.22617H137.691V39.9946H132.961V38.9053C132.961 38.1491 132.991 37.4984 133.053 36.9539C132.471 38.0128 131.552 38.9053 130.297 39.6315C129.072 40.3577 127.618 40.7207 125.933 40.7207ZM126.898 37.0448C128.123 37.0448 129.21 36.7118 130.159 36.0464C131.139 35.3807 131.889 34.4427 132.41 33.2325C132.961 31.992 133.236 30.5851 133.236 29.0118C133.236 26.5914 132.654 24.655 131.491 23.2027C130.327 21.7202 128.797 20.9789 126.898 20.9789C125.704 20.9789 124.617 21.3269 123.637 22.0227C122.688 22.6884 121.938 23.6263 121.387 24.8365C120.835 26.0468 120.56 27.4386 120.56 29.0118C120.56 30.6155 120.82 32.0224 121.341 33.2325C121.892 34.4427 122.642 35.3807 123.591 36.0464C124.571 36.7118 125.673 37.0448 126.898 37.0448Z" fill="var(--fill-0, #B3B2BC)"/>
<path id="Vector_13" d="M108.516 17.9835H113.247V39.9946H108.516V17.9835ZM108.516 36.1823H113.247V39.9946H108.516V36.1823ZM108.516 17.9835H110.859V21.7958H108.516V17.9835ZM108.287 8.99761H113.477V14.2167H108.287V8.99761Z" fill="var(--fill-0, #B3B2BC)"/>
<path id="Vector_14" d="M94.4024 17.9832H99.1331V19.2993C99.1331 20.1464 99.1024 20.9785 99.0412 21.7954C99.6842 20.4339 100.572 19.3447 101.705 18.5278C102.838 17.6806 104.2 17.257 105.793 17.257C106.221 17.257 106.589 17.2873 106.895 17.3478V21.9315C106.436 21.8408 105.961 21.7954 105.471 21.7954C104.155 21.7954 103.022 22.0374 102.072 22.5215C101.154 23.0056 100.434 23.762 99.9137 24.7907C99.3932 25.8194 99.1331 27.1204 99.1331 28.6936V39.9943H94.4024V17.9832Z" fill="var(--fill-0, #B3B2BC)"/>
<path id="Vector_15" d="M67.2973 8.22617H80.3411C83.5561 8.22617 86.1281 8.89178 88.057 10.223C89.986 11.524 90.9507 13.5209 90.9507 16.2137C90.9507 17.9685 90.3996 19.451 89.2972 20.6613C88.1949 21.8715 86.8015 22.7186 85.1177 23.2027C87.1998 23.7473 88.838 24.6853 90.0319 26.0165C91.2262 27.3477 91.8233 28.9968 91.8233 30.9632C91.8233 33.1721 91.2568 34.9418 90.1238 36.2732C88.9909 37.6043 87.4906 38.5576 85.6229 39.1324C83.7856 39.7073 81.7188 39.9946 79.4225 39.9946H67.2973V8.22617ZM79.8818 35.7287C82.1781 35.7287 83.8622 35.3049 84.9339 34.4578C86.0362 33.6107 86.5874 32.34 86.5874 30.6456C86.5874 28.9514 86.0515 27.6804 84.9798 26.8334C83.9388 25.956 82.2087 25.5173 79.7899 25.5173H72.3493V35.7287H79.8818ZM79.698 21.342C81.0148 21.342 82.1168 21.1605 83.005 20.7974C83.9235 20.4343 84.5972 19.92 85.0258 19.2544C85.485 18.5585 85.7148 17.7265 85.7148 16.7583C85.7148 15.3968 85.24 14.3378 84.2908 13.5814C83.3723 12.825 81.9026 12.4468 79.8818 12.4468H72.3493V21.342H79.698Z" fill="var(--fill-0, #B3B2BC)"/>
<path id="Vector_16" d="M24.5432 48.2288C25.4115 48.2288 26.2692 48.1845 27.1141 48.0982L26.3468 40.936C25.7541 40.9967 25.1525 41.0279 24.5435 41.0279C23.9371 41.0279 23.3381 40.997 22.7479 40.9368L21.971 48.0979C22.8164 48.1845 23.6745 48.2288 24.5432 48.2288Z" fill="var(--fill-0, #B3B2BC)"/>
<path id="Vector_17" d="M15.9185 38.7548C16.9552 39.3458 18.0604 39.8333 19.2195 40.2034L16.9561 47.0546C15.3061 46.5281 13.7328 45.8345 12.2568 44.9944L15.9185 38.7548Z" fill="var(--fill-0, #B3B2BC)"/>
<path id="Vector_18" d="M10.6051 34.0412C11.3135 34.9998 12.1217 35.8824 13.0149 36.6744L8.10443 42.0209C6.8326 40.893 5.68151 39.6363 4.67251 38.2716L10.6051 34.0412Z" fill="var(--fill-0, #B3B2BC)"/>
<path id="Vector_19" d="M7.69621 27.6009C7.94655 28.7751 8.32079 29.9041 8.80488 30.9748L2.1047 33.8996C1.41544 32.376 0.88219 30.7695 0.524889 29.0989L7.69621 27.6009Z" fill="var(--fill-0, #B3B2BC)"/>
<path id="Vector_20" d="M7.33026 24.1055H0C0 24.0493 0.000196626 23.9932 0.000589237 23.937C0.00949038 22.7231 0.109695 21.5304 0.294794 20.3653C1.52854 12.614 6.53407 6.07429 13.4023 2.62182C16.7457 0.945414 20.5321 0 24.5432 0C28.5663 0 32.3632 0.951023 35.7139 2.63673C42.4717 6.04515 47.421 12.4446 48.7383 20.044C48.9667 21.3644 49.0859 22.7213 49.0865 24.1055H41.7567C41.7513 14.7695 34.0468 7.2029 24.5435 7.2029C15.0402 7.2029 7.33568 14.7695 7.33026 24.1055Z" fill="var(--fill-0, #B3B2BC)"/>
<path id="Vector_21" d="M40.2835 30.9716C40.766 29.9041 41.1391 28.7783 41.3891 27.6082L48.5616 29.0984C48.2038 30.7716 47.6693 32.3809 46.9787 33.9066L40.2835 30.9716Z" fill="var(--fill-0, #B3B2BC)"/>
<path id="Vector_22" d="M36.0742 36.6726C36.9686 35.8792 37.7777 34.995 38.4867 34.0348L44.4157 38.2692C43.4056 39.6358 42.2529 40.8943 40.9794 42.0234L36.0742 36.6726Z" fill="var(--fill-0, #B3B2BC)"/>
<path id="Vector_23" d="M29.8719 40.2018C31.03 39.832 32.134 39.3445 33.1695 38.7543L36.831 44.9936C35.3578 45.8324 33.7872 46.5252 32.1405 47.0514L29.8719 40.2018Z" fill="var(--fill-0, #B3B2BC)"/>
</g>
<defs>
<clipPath id="clip0_7475_5570">
<rect width="186" height="86" fill="white"/>
</clipPath>
</defs>
</svg>
