<svg width="1000" height="500" viewBox="0 0 1000 500" fill="none" xmlns="http://www.w3.org/2000/svg">
<path d="M887.297 175.088H770.747V325.707H806.003V206.04H887.297V175.088Z" fill="white"/>
<path d="M871.538 236.531H822.911V265.011H871.538V236.531Z" fill="white"/>
<path d="M944.523 222.939H911.539V325.708H944.523V222.939Z" fill="white"/>
<path d="M944.523 175.088H911.539V206.068H944.523V175.088Z" fill="white"/>
<path d="M440.076 248.17C448.156 243.4 451.578 227.651 451.578 221.357V221.098C451.578 208.903 446.731 197.208 438.102 188.584C429.474 179.961 417.771 175.117 405.568 175.117H340.434V206.729H402.577C406.391 206.729 410.048 208.243 412.744 210.938C415.441 213.633 416.955 217.287 416.955 221.098C416.955 224.909 415.441 228.564 412.744 231.259C410.048 233.954 406.391 235.468 402.577 235.468H340.434V325.851H412.584C424.36 325.851 435.653 321.176 443.98 312.854C452.307 304.533 456.985 293.247 456.985 281.478C456.985 273.029 456.984 256.619 440.076 248.17ZM423.512 281.248C423.512 285.532 421.809 289.64 418.778 292.669C415.748 295.698 411.637 297.4 407.351 297.4H373.907V265.069H407.351C409.476 265.069 411.579 265.487 413.542 266.301C415.505 267.114 417.288 268.307 418.789 269.809C420.29 271.312 421.479 273.096 422.29 275.059C423.1 277.022 423.516 279.125 423.512 281.248Z" fill="white"/>
<path d="M556.828 175.088H593.291L544.405 255.183V325.707H510.559V255.183L556.828 175.088Z" fill="white"/>
<path d="M617.532 175.058V325.706H670.243C690.469 325.706 709.867 317.676 724.169 303.383C738.471 289.09 746.505 269.704 746.505 249.491V247.163C746.505 228.014 738.896 209.649 725.35 196.106C711.804 182.563 693.43 174.95 674.269 174.943H666.764V203.107H666.965C672.972 203.107 678.92 204.29 684.469 206.588C690.018 208.886 695.06 212.254 699.306 216.5C703.552 220.747 706.92 225.787 709.216 231.335C711.512 236.882 712.692 242.827 712.688 248.83C712.688 255.112 711.449 261.333 709.043 267.137C706.636 272.941 703.109 278.214 698.662 282.655C694.216 287.096 688.938 290.618 683.129 293.019C677.32 295.421 671.094 296.655 664.808 296.651H649.855V175.058H617.532Z" fill="white"/>
<path d="M500.81 238.256L537.302 175.088H464.318L500.81 238.256Z" fill="white"/>
<g clip-path="url(#clip0_6248_75)">
<path d="M55.4976 147.133H118.835L166.384 229.411L134.715 284.262L55.4976 147.133Z" fill="white"/>
<path d="M150.575 174.56H213.891L245.559 229.411L174.3 352.824L142.634 297.976L182.218 229.411L150.575 174.56Z" fill="white"/>
<path d="M221.809 160.847L229.728 147.133H293.063L253.475 215.698L221.809 160.847Z" fill="white"/>
</g>
<defs>
<clipPath id="clip0_6248_75">
<rect width="237.565" height="205.691" fill="white" transform="translate(55.4976 147.133)"/>
</clipPath>
</defs>
</svg>
