<svg preserveAspectRatio="none" width="100%" height="100%" overflow="visible" style="display: block;" viewBox="0 0 240 38" fill="none" xmlns="http://www.w3.org/2000/svg">
<g id="Layer_1-2">
<path id="Vector" d="M20.6215 8.88542H0V0H26.8663C34.9382 0 42.0367 1.56976 48.1767 4.67966C54.3018 7.80436 59.0341 12.2471 62.3886 18.0226C65.7132 23.7685 67.3755 30.4326 67.4055 38H51.7259C51.711 32.2097 50.4231 27.1005 47.8772 22.7171C45.3164 18.2892 41.6773 14.8831 36.9749 12.484C32.2726 10.085 26.8214 8.88542 20.6215 8.88542ZM20.0824 24.1684C22.6432 25.4715 24.605 27.3227 25.9978 29.7217C27.3755 32.106 28.0644 34.8605 28.0794 38H39.8952C39.8802 33.5277 38.8918 29.6033 36.93 26.212C34.9532 22.7911 32.1528 20.1699 28.5137 18.3188C24.8896 16.4677 20.6814 15.5495 15.9042 15.5495H0V22.2136H11.2018C14.5713 22.2136 17.5215 22.8652 20.0824 24.1684ZM16.2636 38C16.2636 36.1933 15.8443 34.5939 15.0505 33.2167C14.2419 31.8246 13.1037 30.7584 11.6211 30.0031C10.1385 29.2479 8.4313 28.8776 6.48446 28.8776H0V38H16.2636ZM92.6694 2.14731H80.1498V37.5557H92.6694C96.4283 37.5557 99.7379 36.8301 102.598 35.3788C105.459 33.9275 107.66 31.8691 109.218 29.2182C110.775 26.5674 111.554 23.4575 111.554 19.9182C111.554 16.3788 110.775 13.2541 109.218 10.5588C107.66 7.8636 105.459 5.80514 102.598 4.33905C99.7379 2.88776 96.4283 2.16212 92.6694 2.16212V2.14731ZM92.4148 31.5136H87.3381V8.13016H92.4148C96.1737 8.13016 99.079 9.1668 101.131 11.2549C103.182 13.3429 104.201 16.2159 104.201 19.9033C104.201 23.5908 103.182 26.4489 101.131 28.4778C99.079 30.5066 96.1737 31.5284 92.4148 31.5284V31.5136ZM113.74 23.3835C113.74 26.2564 114.309 28.8036 115.462 31.0249C116.616 33.2463 118.158 34.9641 120.135 36.1785C122.097 37.3928 124.283 38 126.679 38C129.075 38 130.678 37.5705 132.295 36.7116C133.912 35.8527 135.185 34.7568 136.114 33.4388V37.5557H143.347V9.43336H136.114V13.4466C135.155 12.1582 133.882 11.092 132.295 10.2479C130.708 9.40374 128.851 8.97428 126.724 8.97428C124.598 8.97428 122.097 9.56664 120.135 10.7514C118.173 11.9361 116.616 13.6243 115.462 15.8161C114.309 18.0078 113.74 20.5401 113.74 23.3687V23.3835ZM136.099 23.4871C136.099 25.205 135.754 26.6859 135.081 27.9299C134.392 29.159 133.478 30.1068 132.31 30.7732C131.142 31.4248 129.899 31.7654 128.566 31.7654C127.233 31.7654 126.05 31.4248 124.897 30.7436C123.744 30.0624 122.83 29.0998 122.127 27.8262C121.423 26.5526 121.078 25.0717 121.078 23.3835C121.078 21.6952 121.423 20.2292 122.127 19C122.83 17.7708 123.744 16.8231 124.867 16.1863C125.99 15.5495 127.233 15.2237 128.566 15.2237C129.899 15.2237 131.142 15.5495 132.31 16.2159C133.478 16.8823 134.392 17.8153 135.081 19.0592C135.769 20.2884 136.099 21.7693 136.099 23.5019V23.4871ZM153.501 13.5503V0H146.312V37.5409H153.501V33.5277C154.459 34.8457 155.732 35.9267 157.319 36.756C158.907 37.5853 160.764 38 162.89 38C165.017 38 167.518 37.3928 169.48 36.1785C171.441 34.9641 172.999 33.2463 174.152 31.0249C175.305 28.8184 175.874 26.2712 175.874 23.3835C175.874 20.4957 175.305 17.9782 174.152 15.8012C172.999 13.6243 171.456 11.9361 169.48 10.7514C167.518 9.56664 165.316 8.97428 162.89 8.97428C160.464 8.97428 158.952 9.40374 157.319 10.2479C155.702 11.092 154.429 12.1878 153.501 13.5503ZM168.536 23.3835C168.536 25.1013 168.192 26.597 167.488 27.841C166.784 29.085 165.87 30.0624 164.717 30.7288C163.564 31.41 162.336 31.7506 161.003 31.7506C159.671 31.7506 158.487 31.4248 157.334 30.7584C156.181 30.092 155.268 29.1442 154.564 27.8854C153.86 26.6415 153.516 25.1606 153.516 23.4723C153.516 21.7841 153.86 20.3032 154.564 19.0592C155.268 17.8153 156.181 16.8527 157.334 16.2011C158.487 15.5495 159.7 15.2089 161.003 15.2089C162.306 15.2089 163.579 15.5347 164.717 16.1715C165.87 16.8083 166.784 17.756 167.488 18.9852C168.192 20.2143 168.536 21.6804 168.536 23.3687V23.3835ZM185.848 13.5355V0H178.675V37.5409H185.848V33.5277C186.806 34.8457 188.079 35.9267 189.667 36.756C191.254 37.5853 193.111 38 195.238 38C197.364 38 199.865 37.3928 201.827 36.1785C203.789 34.9641 205.346 33.2463 206.499 31.0249C207.653 28.8184 208.222 26.2712 208.222 23.3835C208.222 20.4957 207.653 17.9782 206.499 15.8012C205.346 13.6243 203.804 11.9361 201.827 10.7514C199.865 9.56664 197.664 8.97428 195.238 8.97428C192.812 8.97428 191.299 9.40374 189.667 10.2479C188.049 11.092 186.777 12.1878 185.848 13.5503V13.5355ZM200.869 23.3835C200.869 25.1013 200.524 26.597 199.82 27.841C199.116 29.085 198.203 30.0624 197.05 30.7288C195.897 31.41 194.669 31.7506 193.336 31.7506C192.003 31.7506 190.82 31.4248 189.667 30.7584C188.514 30.092 187.6 29.1442 186.896 27.8854C186.192 26.6415 185.848 25.1606 185.848 23.4723C185.848 21.7841 186.192 20.3032 186.896 19.0592C187.6 17.8153 188.514 16.8527 189.667 16.2011C190.82 15.5495 192.033 15.2089 193.336 15.2089C194.639 15.2089 195.912 15.5347 197.05 16.1715C198.203 16.8083 199.116 17.756 199.82 18.9852C200.524 20.2143 200.869 21.6804 200.869 23.3687V23.3835ZM210.393 23.3835C210.393 26.2564 210.962 28.8036 212.115 31.0249C213.268 33.2463 214.811 34.9641 216.788 36.1785C218.75 37.3928 220.936 38 223.332 38C225.728 38 227.331 37.5705 228.948 36.7116C230.565 35.8527 231.838 34.7568 232.767 33.4388V37.5557H240V9.43336H232.767V13.4466C231.808 12.1582 230.535 11.092 228.948 10.2479C227.361 9.40374 225.504 8.97428 223.377 8.97428C221.25 8.97428 218.75 9.56664 216.788 10.7514C214.826 11.9361 213.268 13.6243 212.115 15.8161C210.962 18.0078 210.393 20.5401 210.393 23.3687V23.3835ZM232.767 23.4871C232.767 25.205 232.422 26.6859 231.748 27.9299C231.06 29.159 230.146 30.1068 228.978 30.7732C227.81 31.4396 226.567 31.7654 225.234 31.7654C223.901 31.7654 222.718 31.4248 221.565 30.7436C220.412 30.0624 219.498 29.0998 218.794 27.8262C218.091 26.5526 217.746 25.0717 217.746 23.3835C217.746 21.6952 218.091 20.2292 218.794 19C219.498 17.7708 220.412 16.8231 221.535 16.1863C222.658 15.5495 223.901 15.2237 225.234 15.2237C226.567 15.2237 227.81 15.5495 228.978 16.2159C230.146 16.8823 231.06 17.8153 231.748 19.0592C232.437 20.2884 232.767 21.7693 232.767 23.5019V23.4871Z" fill="var(--fill-0, #B3B2BC)"/>
</g>
</svg>
