<svg width="320" height="134" viewBox="0 0 320 134" fill="none" xmlns="http://www.w3.org/2000/svg">
<g clip-path="url(#clip0_7408_14328)">
<path d="M60.6215 56.8854H40V48H66.8663C74.9382 48 82.0367 49.5698 88.1767 52.6797C94.3018 55.8044 99.0341 60.2471 102.389 66.0226C105.713 71.7685 107.376 78.4326 107.405 86H91.7259C91.711 80.2097 90.4231 75.1005 87.8772 70.7171C85.3164 66.2892 81.6773 62.8831 76.9749 60.484C72.2726 58.085 66.8214 56.8854 60.6215 56.8854ZM60.0824 72.1684C62.6432 73.4715 64.605 75.3227 65.9978 77.7217C67.3755 80.106 68.0644 82.8605 68.0794 86H79.8952C79.8802 81.5277 78.8918 77.6033 76.93 74.212C74.9532 70.7911 72.1528 68.1699 68.5137 66.3188C64.8896 64.4677 60.6814 63.5495 55.9042 63.5495H40V70.2136H51.2018C54.5713 70.2136 57.5215 70.8652 60.0824 72.1684ZM56.2636 86C56.2636 84.1933 55.8443 82.5939 55.0505 81.2167C54.2419 79.8246 53.1037 78.7584 51.6211 78.0031C50.1385 77.2479 48.4313 76.8776 46.4845 76.8776H40V86H56.2636ZM132.669 50.1473H120.15V85.5557H132.669C136.428 85.5557 139.738 84.8301 142.598 83.3788C145.459 81.9275 147.66 79.8691 149.218 77.2182C150.775 74.5674 151.554 71.4575 151.554 67.9182C151.554 64.3788 150.775 61.2541 149.218 58.5588C147.66 55.8636 145.459 53.8051 142.598 52.339C139.738 50.8878 136.428 50.1621 132.669 50.1621V50.1473ZM132.415 79.5136H127.338V56.1302H132.415C136.174 56.1302 139.079 57.1668 141.131 59.2549C143.182 61.3429 144.201 64.2159 144.201 67.9033C144.201 71.5908 143.182 74.4489 141.131 76.4778C139.079 78.5066 136.174 79.5284 132.415 79.5284V79.5136ZM153.74 71.3835C153.74 74.2564 154.309 76.8036 155.462 79.0249C156.616 81.2463 158.158 82.9641 160.135 84.1785C162.097 85.3928 164.283 86 166.679 86C169.075 86 170.678 85.5705 172.295 84.7116C173.912 83.8527 175.185 82.7568 176.114 81.4388V85.5557H183.347V57.4334H176.114V61.4466C175.155 60.1582 173.882 59.092 172.295 58.2479C170.708 57.4037 168.851 56.9743 166.724 56.9743C164.598 56.9743 162.097 57.5666 160.135 58.7514C158.173 59.9361 156.616 61.6243 155.462 63.8161C154.309 66.0078 153.74 68.5401 153.74 71.3687V71.3835ZM176.099 71.4871C176.099 73.205 175.754 74.6859 175.081 75.9299C174.392 77.159 173.478 78.1068 172.31 78.7732C171.142 79.4248 169.899 79.7654 168.566 79.7654C167.233 79.7654 166.05 79.4248 164.897 78.7436C163.744 78.0624 162.83 77.0998 162.127 75.8262C161.423 74.5526 161.078 73.0717 161.078 71.3835C161.078 69.6952 161.423 68.2292 162.127 67C162.83 65.7708 163.744 64.8231 164.867 64.1863C165.99 63.5495 167.233 63.2237 168.566 63.2237C169.899 63.2237 171.142 63.5495 172.31 64.2159C173.478 64.8823 174.392 65.8153 175.081 67.0592C175.769 68.2884 176.099 69.7693 176.099 71.5019V71.4871ZM193.501 61.5503V48H186.312V85.5409H193.501V81.5277C194.459 82.8457 195.732 83.9267 197.319 84.756C198.907 85.5853 200.764 86 202.89 86C205.017 86 207.518 85.3928 209.48 84.1785C211.441 82.9641 212.999 81.2463 214.152 79.0249C215.305 76.8184 215.874 74.2712 215.874 71.3835C215.874 68.4957 215.305 65.9782 214.152 63.8012C212.999 61.6243 211.456 59.9361 209.48 58.7514C207.518 57.5666 205.316 56.9743 202.89 56.9743C200.464 56.9743 198.952 57.4037 197.319 58.2479C195.702 59.092 194.429 60.1878 193.501 61.5503ZM208.536 71.3835C208.536 73.1013 208.192 74.597 207.488 75.841C206.784 77.085 205.87 78.0624 204.717 78.7288C203.564 79.41 202.336 79.7506 201.003 79.7506C199.671 79.7506 198.487 79.4248 197.334 78.7584C196.181 78.092 195.268 77.1442 194.564 75.8854C193.86 74.6415 193.516 73.1606 193.516 71.4723C193.516 69.7841 193.86 68.3032 194.564 67.0592C195.268 65.8153 196.181 64.8527 197.334 64.2011C198.487 63.5495 199.701 63.2089 201.003 63.2089C202.306 63.2089 203.579 63.5347 204.717 64.1715C205.87 64.8083 206.784 65.756 207.488 66.9852C208.192 68.2143 208.536 69.6804 208.536 71.3687V71.3835ZM225.848 61.5355V48H218.675V85.5409H225.848V81.5277C226.806 82.8457 228.079 83.9267 229.667 84.756C231.254 85.5853 233.111 86 235.238 86C237.364 86 239.865 85.3928 241.827 84.1785C243.789 82.9641 245.346 81.2463 246.499 79.0249C247.653 76.8184 248.222 74.2712 248.222 71.3835C248.222 68.4957 247.653 65.9782 246.499 63.8012C245.346 61.6243 243.804 59.9361 241.827 58.7514C239.865 57.5666 237.664 56.9743 235.238 56.9743C232.812 56.9743 231.299 57.4037 229.667 58.2479C228.049 59.092 226.777 60.1878 225.848 61.5503V61.5355ZM240.869 71.3835C240.869 73.1013 240.524 74.597 239.82 75.841C239.116 77.085 238.203 78.0624 237.05 78.7288C235.897 79.41 234.669 79.7506 233.336 79.7506C232.003 79.7506 230.82 79.4248 229.667 78.7584C228.514 78.092 227.6 77.1442 226.896 75.8854C226.192 74.6415 225.848 73.1606 225.848 71.4723C225.848 69.7841 226.192 68.3032 226.896 67.0592C227.6 65.8153 228.514 64.8527 229.667 64.2011C230.82 63.5495 232.033 63.2089 233.336 63.2089C234.639 63.2089 235.912 63.5347 237.05 64.1715C238.203 64.8083 239.116 65.756 239.82 66.9852C240.524 68.2143 240.869 69.6804 240.869 71.3687V71.3835ZM250.393 71.3835C250.393 74.2564 250.962 76.8036 252.115 79.0249C253.268 81.2463 254.811 82.9641 256.788 84.1785C258.75 85.3928 260.936 86 263.332 86C265.728 86 267.331 85.5705 268.948 84.7116C270.565 83.8527 271.838 82.7568 272.767 81.4388V85.5557H280V57.4334H272.767V61.4466C271.808 60.1582 270.535 59.092 268.948 58.2479C267.361 57.4037 265.504 56.9743 263.377 56.9743C261.25 56.9743 258.75 57.5666 256.788 58.7514C254.826 59.9361 253.268 61.6243 252.115 63.8161C250.962 66.0078 250.393 68.5401 250.393 71.3687V71.3835ZM272.767 71.4871C272.767 73.205 272.422 74.6859 271.748 75.9299C271.06 77.159 270.146 78.1068 268.978 78.7732C267.81 79.4396 266.567 79.7654 265.234 79.7654C263.901 79.7654 262.718 79.4248 261.565 78.7436C260.412 78.0624 259.498 77.0998 258.794 75.8262C258.091 74.5526 257.746 73.0717 257.746 71.3835C257.746 69.6952 258.091 68.2292 258.794 67C259.498 65.7708 260.412 64.8231 261.535 64.1863C262.658 63.5495 263.901 63.2237 265.234 63.2237C266.567 63.2237 267.81 63.5495 268.978 64.2159C270.146 64.8823 271.06 65.8153 271.748 67.0592C272.437 68.2884 272.767 69.7693 272.767 71.5019V71.4871Z" fill="#B3B2BC"/>
</g>
<defs>
<clipPath id="clip0_7408_14328">
<rect width="240" height="38" fill="white" transform="translate(40 48)"/>
</clipPath>
</defs>
</svg>
