<svg preserveAspectRatio="none" width="100%" height="100%" overflow="visible" style="display: block;" viewBox="0 0 253.25 39.9998" fill="none" xmlns="http://www.w3.org/2000/svg">
<g id="DoubleZero">
<path id="Vector" d="M83.9186 39.8063C83.0322 39.8063 81.7653 39.5924 80.7764 38.5784C79.8298 37.6055 79.349 36.1226 79.349 34.1728V33.3357C79.349 33.3357 76.5558 39.8063 70.3689 39.8063C66.5431 39.8063 63.8717 36.9988 63.8717 32.9779V18.7718C63.8717 16.3285 63.2547 14.1812 62.2035 12.908C64.7043 12.7435 67.3664 11.9784 69.6243 10.7752V31.8549C69.6243 33.2062 70.0543 34.3518 70.8726 35.1683C71.6136 35.9087 72.6146 36.318 73.6888 36.318C75.3075 36.318 76.7901 35.4501 77.7546 33.9384C78.7664 32.3608 79.3468 30.0285 79.3468 27.5398V18.776C79.3468 16.2647 78.7664 14.1606 77.7424 12.906C80.2454 12.7414 82.9089 11.9763 85.1676 10.7731V32.7845C85.1676 36.1946 86.7369 37.0708 87.8476 37.2621C87.298 38.4776 86.1794 39.8083 83.9186 39.8083V39.8063Z" fill="var(--fill-0, #B3B2BC)"/>
<path id="Vector_2" d="M102.453 39.8045C101.231 39.8045 99.3682 39.2759 97.9222 38.521C97.116 38.1076 95.9745 37.7436 94.6847 37.7436C92.5994 37.7436 91.0961 38.7308 89.7037 39.5001V8.50272C89.7052 5.98525 89.109 3.88117 88.0578 2.63275C90.5816 2.47023 93.1834 1.71955 95.4643 0.497828V16.1909C95.4643 16.1909 98.5105 10.4484 104.452 10.4484C106.702 10.4484 108.591 11.1744 110.224 12.6677C112.719 14.9959 114.208 19.3068 114.208 24.1957C114.274 28.5294 112.99 32.8053 110.773 35.6395C108.681 38.3626 105.806 39.8024 102.457 39.8024L102.453 39.8045ZM101.38 13.2764C101.32 13.2764 101.26 13.2764 101.198 13.2785C98.3027 13.3525 95.46 16.9375 95.46 20.3969V31.197C95.46 35.0143 98.4202 39.0825 103.06 39.0825C103.317 39.0825 103.58 39.062 103.837 39.0208C105.908 38.702 107.395 37.1677 108.259 34.459C108.99 32.0566 109.197 28.4985 108.829 24.6976C108.492 22.0835 107.751 18.4759 106.135 16.0942C104.927 14.2493 103.282 13.2723 101.38 13.2723V13.2764Z" fill="var(--fill-0, #B3B2BC)"/>
<path id="Vector_3" d="M238.584 39.8167C236.017 39.8167 233.485 39.1297 231.258 37.8319C227.856 35.8986 225.423 32.7538 224.407 28.9755C223.387 25.1891 223.915 21.238 225.89 17.8526C228.51 13.3175 233.372 10.4997 238.58 10.4997C241.144 10.4997 243.689 11.1867 245.937 12.4865C252.918 16.4951 255.324 25.4585 251.303 32.4679C248.685 37.003 243.812 39.8188 238.586 39.8188L238.584 39.8167ZM234.257 12.1966C233.245 12.1966 232.321 12.433 231.511 12.902C227.529 15.2035 227.461 22.5832 231.359 29.3519C234.378 34.5946 239.03 38.1199 242.936 38.1199C243.948 38.1199 244.871 37.8834 245.682 37.4144C249.659 35.1088 249.727 27.7312 245.834 20.9645C242.813 15.7197 238.161 12.1966 234.257 12.1966Z" fill="var(--fill-0, #B3B2BC)"/>
<path id="Vector_4" d="M0 39.8002C1.06333 38.4921 1.66396 36.3983 1.66597 33.9631V6.04268C1.66597 3.60338 1.0654 1.50955 0.00207747 0.201477C4.93212 0.201477 10.8227 0.201476 15.545 0.207646C20.3331 0.207646 24.2514 2.13483 26.8776 5.77941C29.3706 9.23882 30.6869 14.1586 30.6869 20.0039C30.6869 25.8492 29.3684 30.769 26.8755 34.2284C24.2492 37.873 20.331 39.7981 15.545 39.7981H0V39.8002ZM7.82601 39.2881H12.425C16.3611 39.2881 19.393 37.6591 21.4352 34.4464C23.4904 31.2132 24.533 26.3531 24.533 20.0019C24.533 13.6486 23.4925 8.78845 21.4374 5.55727C19.3951 2.34465 16.3633 0.713606 12.425 0.713606H7.82601L7.82386 39.2901L7.82601 39.2881Z" fill="var(--fill-0, #B3B2BC)"/>
<path id="Vector_5" d="M46.7404 39.8044C44.1736 39.8044 41.642 39.1174 39.4141 37.8196C36.0125 35.8842 33.5791 32.7395 32.5629 28.9612C31.5447 25.1747 32.0714 21.2258 34.0463 17.8403C36.6661 13.3052 41.5287 10.4874 46.7361 10.4874C49.3007 10.4874 51.8431 11.1743 54.0932 12.4742C61.0741 16.4829 63.4803 25.4462 59.4596 32.4556C56.8412 36.9908 51.9685 39.8065 46.7425 39.8065L46.7404 39.8044ZM42.413 12.1842C41.4012 12.1842 40.4775 12.4208 39.6671 12.8897C35.6872 15.1913 35.6177 22.5708 39.5152 29.3396C42.5319 34.5823 47.1868 38.1076 51.0922 38.1076C52.1047 38.1076 53.0276 37.871 53.8381 37.4021C57.8158 35.0965 57.8839 27.7189 53.9907 20.9522C50.9689 15.7075 46.3169 12.1842 42.413 12.1842Z" fill="var(--fill-0, #B3B2BC)"/>
<path id="Vector_6" d="M121.411 39.8048C120.121 39.8048 119.037 39.3812 118.276 38.579C117.365 37.6165 116.902 36.1335 116.902 34.1673V8.71904L116.906 8.51746C116.906 6.06993 116.287 3.92063 115.234 2.64548C117.765 2.48504 120.376 1.73636 122.662 0.508488V32.7748C122.661 34.1981 122.953 35.317 123.529 36.1006C123.992 36.73 124.637 37.127 125.406 37.2565C124.853 38.472 123.72 39.8048 121.406 39.8048H121.411Z" fill="var(--fill-0, #B3B2BC)"/>
<path id="Vector_7" d="M206.057 39.8084C207.021 38.5908 207.595 36.6533 207.657 34.3827L207.661 34.1791V33.9734L207.665 18.7493C207.665 16.24 207.085 14.136 206.059 12.8793C208.564 12.7148 211.232 11.9476 213.492 10.7423V17.3631L214.259 16.0426C216.341 12.4597 218.988 10.5264 221.343 10.5264C222.428 10.5264 223.416 10.8945 224.117 11.5629C224.763 12.1779 225.133 13.0171 225.133 13.8645C225.133 16.0323 223.335 17.7148 221.789 17.7148C220.923 17.7148 220.345 17.1039 219.588 16.3121C218.784 15.4729 217.881 14.679 216.923 14.679C215.892 14.679 214.699 16.8221 213.609 18.4572L213.494 18.628V33.9713C213.494 36.425 214.072 38.5167 215.096 39.8084H206.057Z" fill="var(--fill-0, #B3B2BC)"/>
<path id="Vector_8" d="M179.866 0H152.044L150.925 7.13487C154.006 1.65364 157.398 0.915254 163.379 0.91731H172.289L149.504 39.9998H177.326L178.434 33.0747C175.365 38.3461 171.959 39.0907 165.98 39.0886H157.073L179.866 0Z" fill="var(--fill-0, #B3B2BC)"/>
<path id="Vector_9" d="M140.087 39.8148C136.153 39.8148 132.463 38.2845 129.694 35.5058C126.932 32.7354 125.41 29.0517 125.41 25.1357C125.41 17.0423 131.994 10.4587 140.087 10.4587C142.58 10.4587 145.264 11.3184 147.269 12.7499C148.841 13.8729 150.727 15.8495 150.776 18.8935V19.0189C150.776 21.1785 149.781 22.4249 147.555 23.0666C147.286 23.1448 146.99 23.2167 146.677 23.2805C145.926 23.4327 145.118 23.5355 144.338 23.6363L144.283 23.6425C143.75 23.7104 143.199 23.7782 142.679 23.8646C141.5 24.0785 140.324 24.3068 139.186 24.531L139.016 24.5639C138.088 24.7449 137.214 24.9156 136.425 25.0596C136.12 25.1234 135.851 25.1912 135.595 25.2714C134.398 25.5923 133.308 26.0859 132.453 26.6968C132.049 26.9868 131.712 27.2871 131.447 27.5915L131.358 27.6922L131.414 27.8136C131.51 28.0234 131.616 28.2332 131.722 28.4409C131.833 28.6548 131.945 28.8666 132.062 29.0744C132.726 30.2735 133.489 31.382 134.332 32.3672L134.378 32.4187L134.429 32.431C134.627 32.6799 134.837 32.9288 135.057 33.1694C135.156 33.2784 135.256 33.3854 135.359 33.4903C135.704 33.844 136.066 34.1792 136.435 34.4857C138.74 36.3944 141.344 37.4022 143.969 37.4022C145.756 37.4022 147.535 36.9374 149.256 36.018C149.275 36.0077 149.296 36.0036 149.322 36.0036C149.37 36.0036 149.419 36.0262 149.452 36.0653C149.476 36.0962 149.488 36.1393 149.485 36.1867C149.481 36.2257 149.458 36.2648 149.423 36.2957C146.788 38.4634 143.209 39.8127 140.087 39.8127V39.8148ZM133.942 13.1489C133.545 13.2703 133.162 13.4286 132.807 13.6179C131.692 14.2431 130.836 15.1913 130.254 16.4335C129.672 17.6779 129.406 19.1423 129.466 20.7836C129.466 20.8165 129.466 20.8597 129.47 20.9029C129.487 21.269 129.52 21.6495 129.569 22.0259C129.74 23.264 129.993 24.1793 130.334 25.2612C130.482 25.7404 130.653 26.2175 130.85 26.7153L130.99 27.069C130.99 27.069 132.301 25.4215 135.157 24.2924C135.186 24.2801 135.997 23.9839 135.997 23.9839C136.749 23.7309 139.909 23.0769 139.909 23.0769C142.45 22.5792 144.036 21.415 144.374 19.8025C144.464 19.3747 144.462 18.9243 144.369 18.4677C144.088 17.0362 142.922 15.5533 141.171 14.3995C139.643 13.4183 137.853 12.8692 136.132 12.8527H136.05C135.317 12.8527 134.618 12.9494 133.97 13.1407L133.952 13.1448L133.939 13.151L133.942 13.1489Z" fill="var(--fill-0, #B3B2BC)"/>
<path id="Vector_10" d="M193.514 39.8148C189.579 39.8148 185.89 38.2845 183.121 35.5058C180.359 32.7354 178.837 29.0517 178.837 25.1357C178.837 17.0423 185.421 10.4587 193.514 10.4587C196.007 10.4587 198.691 11.3184 200.696 12.7499C202.268 13.8729 204.154 15.8495 204.203 18.8935V19.0189C204.203 21.1785 203.208 22.4249 200.982 23.0666C200.713 23.1448 200.417 23.2167 200.104 23.2805C199.353 23.4327 198.545 23.5355 197.765 23.6363L197.71 23.6425C197.177 23.7104 196.626 23.7782 196.106 23.8646C194.927 24.0785 193.75 24.3068 192.613 24.531L192.443 24.5639C191.515 24.7449 190.641 24.9156 189.851 25.0596C189.546 25.1234 189.277 25.1912 189.022 25.2714C187.825 25.5923 186.735 26.0859 185.88 26.6968C185.476 26.9868 185.139 27.2871 184.874 27.5915L184.785 27.6922L184.841 27.8136C184.937 28.0234 185.042 28.2332 185.149 28.4409C185.26 28.6548 185.372 28.8666 185.488 29.0744C186.153 30.2735 186.916 31.382 187.759 32.3672L187.804 32.4187L187.856 32.431C188.054 32.6799 188.263 32.9288 188.483 33.1694C188.582 33.2784 188.683 33.3854 188.785 33.4903C189.131 33.844 189.493 34.1792 189.861 34.4857C192.167 36.3944 194.771 37.4022 197.395 37.4022C199.182 37.4022 200.961 36.9374 202.683 36.018C202.701 36.0077 202.722 36.0036 202.748 36.0036C202.796 36.0036 202.845 36.0262 202.878 36.0653C202.903 36.0962 202.915 36.1393 202.911 36.1867C202.907 36.2257 202.885 36.2648 202.85 36.2957C200.215 38.4634 196.636 39.8127 193.514 39.8127V39.8148ZM187.369 12.6532C186.972 12.7787 186.589 12.9432 186.233 13.1387C185.119 13.7865 184.263 14.7676 183.68 16.0551C183.099 17.3447 182.833 18.8605 182.893 20.5594C182.893 20.5923 182.893 20.6396 182.897 20.6828C182.914 21.0613 182.947 21.4562 182.996 21.8449C183.167 23.1283 183.42 24.0744 183.761 25.1953C183.909 25.6931 184.08 26.1846 184.277 26.7029L184.417 27.069C184.417 27.069 185.727 25.364 188.584 24.1937C188.613 24.1814 189.423 23.8749 189.423 23.8749C190.176 23.6116 193.335 22.935 193.335 22.935C195.877 22.4187 197.463 21.2135 197.801 19.5434C197.891 19.1012 197.889 18.6343 197.796 18.1592C197.515 16.6762 196.348 15.1398 194.598 13.9469C193.07 12.9309 191.28 12.3632 189.559 12.3448H189.477C188.744 12.3448 188.045 12.4455 187.397 12.643L187.379 12.6471L187.366 12.6532H187.369Z" fill="var(--fill-0, #B3B2BC)"/>
</g>
</svg>
