<svg width="320" height="134" viewBox="0 0 320 134" fill="none" xmlns="http://www.w3.org/2000/svg">
<path d="M117.293 86.8061C116.407 86.8061 115.14 86.5922 114.151 85.5782C113.204 84.6053 112.724 83.1225 112.724 81.1727V80.3356C112.724 80.3356 109.93 86.8061 103.744 86.8061C99.9177 86.8061 97.2463 83.9986 97.2463 79.9777V65.7717C97.2463 63.3283 96.6293 61.181 95.5781 59.9078C98.079 59.7433 100.741 58.9782 102.999 57.775V78.8547C102.999 80.206 103.429 81.3516 104.247 82.1681C104.988 82.9086 105.989 83.3179 107.063 83.3179C108.682 83.3179 110.165 82.4499 111.129 80.9382C112.141 79.3606 112.721 77.0283 112.721 74.5396V65.7758C112.721 63.2645 112.141 61.1604 111.117 59.9058C113.62 59.7412 116.284 58.9762 118.542 57.7729V79.7844C118.542 83.1944 120.112 84.0706 121.222 84.2619C120.673 85.4774 119.554 86.8082 117.293 86.8082V86.8061Z" fill="#B3B2BC"/>
<path d="M135.828 86.8047C134.606 86.8047 132.743 86.2761 131.297 85.5212C130.491 85.1078 129.349 84.7438 128.059 84.7438C125.974 84.7438 124.471 85.731 123.078 86.5003V55.5029C123.08 52.9855 122.484 50.8814 121.432 49.633C123.956 49.4705 126.558 48.7198 128.839 47.498V63.1911C128.839 63.1911 131.885 57.4486 137.827 57.4486C140.077 57.4486 141.965 58.1746 143.598 59.6679C146.093 61.9961 147.582 66.307 147.582 71.1959C147.648 75.5296 146.365 79.8055 144.147 82.6397C142.056 85.3629 139.181 86.8026 135.832 86.8026L135.828 86.8047ZM134.754 60.2766C134.695 60.2766 134.635 60.2766 134.573 60.2787C131.677 60.3527 128.835 63.9377 128.835 67.3972V78.1972C128.835 82.0145 131.795 86.0827 136.435 86.0827C136.692 86.0827 136.955 86.0622 137.212 86.021C139.283 85.7022 140.77 84.1679 141.634 81.4592C142.364 79.0569 142.572 75.4987 142.204 71.6978C141.866 69.0837 141.126 65.4761 139.51 63.0944C138.302 61.2495 136.657 60.2725 134.754 60.2725V60.2766Z" fill="#B3B2BC"/>
<path d="M271.959 86.8165C269.392 86.8165 266.859 86.1295 264.632 84.8317C261.231 82.8984 258.797 79.7536 257.781 75.9753C256.761 72.1889 257.29 68.2378 259.264 64.8524C261.884 60.3173 266.747 57.4995 271.954 57.4995C274.519 57.4995 277.064 58.1865 279.311 59.4864C286.292 63.495 288.699 72.4583 284.677 79.4677C282.059 84.0029 277.187 86.8186 271.961 86.8186L271.959 86.8165ZM267.631 59.1964C266.619 59.1964 265.696 59.4328 264.885 59.9018C260.903 62.2033 260.836 69.583 264.733 76.3518C267.752 81.5944 272.405 85.1197 276.31 85.1197C277.322 85.1197 278.246 84.8832 279.056 84.4142C283.034 82.1086 283.102 74.731 279.208 67.9643C276.187 62.7196 271.535 59.1964 267.631 59.1964Z" fill="#B3B2BC"/>
<path d="M33.3746 86.8004C34.438 85.4923 35.0386 83.3985 35.0406 80.9633V53.0429C35.0406 50.6036 34.44 48.5097 33.3767 47.2017C38.3068 47.2017 44.1974 47.2017 48.9196 47.2078C53.7078 47.2078 57.626 49.135 60.2522 52.7796C62.7452 56.239 64.0616 61.1588 64.0616 67.0041C64.0616 72.8494 62.7431 77.7692 60.2501 81.2286C57.6238 84.8732 53.7056 86.7983 48.9196 86.7983H33.3746V86.8004ZM41.2006 86.2882H45.7996C49.7358 86.2882 52.7676 84.6593 54.8098 81.4466C56.865 78.2134 57.9076 73.3533 57.9076 67.002C57.9076 60.6487 56.8671 55.7886 54.812 52.5575C52.7698 49.3448 49.7379 47.7138 45.7996 47.7138H41.2006L41.1985 86.2902L41.2006 86.2882Z" fill="#B3B2BC"/>
<path d="M80.1151 86.8043C77.5483 86.8043 75.0167 86.1173 72.7888 84.8195C69.3872 82.8841 66.9537 79.7393 65.9376 75.9611C64.9194 72.1746 65.4461 68.2256 67.421 64.8402C70.0408 60.305 74.9034 57.4873 80.1108 57.4873C82.6754 57.4873 85.2178 58.1742 87.4679 59.4741C94.4488 63.4828 96.855 72.446 92.8343 79.4555C90.2159 83.9906 85.3432 86.8064 80.1172 86.8064L80.1151 86.8043ZM75.7877 59.1841C74.7759 59.1841 73.8522 59.4206 73.0418 59.8896C69.0619 62.1911 68.9924 69.5707 72.8899 76.3395C75.9066 81.5822 80.5615 85.1074 84.4669 85.1074C85.4794 85.1074 86.4023 84.8709 87.2128 84.402C91.1905 82.0964 91.2586 74.7188 87.3654 67.952C84.3436 62.7073 79.6916 59.1841 75.7877 59.1841Z" fill="#B3B2BC"/>
<path d="M154.785 86.8046C153.495 86.8046 152.411 86.381 151.65 85.5788C150.739 84.6163 150.276 83.1333 150.276 81.1671V55.7188L150.281 55.5173C150.281 53.0697 149.662 50.9204 148.608 49.6453C151.14 49.4849 153.75 48.7362 156.037 47.5083V79.7747C156.036 81.1979 156.327 82.3168 156.903 83.1004C157.366 83.7298 158.012 84.1268 158.781 84.2563C158.228 85.4719 157.095 86.8046 154.781 86.8046H154.785Z" fill="#B3B2BC"/>
<path d="M239.431 86.8084C240.396 85.5908 240.97 83.6534 241.032 81.3827L241.036 81.1791V80.9734L241.04 65.7493C241.04 63.2401 240.46 61.136 239.434 59.8793C241.939 59.7148 244.607 58.9476 246.867 57.7423V64.3631L247.634 63.0426C249.716 59.4598 252.363 57.5264 254.717 57.5264C255.803 57.5264 256.79 57.8945 257.492 58.563C258.138 59.1779 258.508 60.0171 258.508 60.8645C258.508 63.0323 256.71 64.7148 255.164 64.7148C254.297 64.7148 253.72 64.1039 252.963 63.3121C252.158 62.4729 251.256 61.679 250.298 61.679C249.267 61.679 248.074 63.8221 246.984 65.4572L246.869 65.628V80.9714C246.869 83.4251 247.447 85.5167 248.471 86.8084H239.431Z" fill="#B3B2BC"/>
<path d="M213.241 47H185.419L184.3 54.1349C187.381 48.6536 190.773 47.9153 196.754 47.9173H205.664L182.879 86.9998H210.701L211.809 80.0747C208.74 85.3461 205.334 86.0907 199.355 86.0886H190.447L213.241 47Z" fill="#B3B2BC"/>
<path d="M173.462 86.8146C169.528 86.8146 165.837 85.2843 163.069 82.5057C160.307 79.7353 158.785 76.0516 158.785 72.1355C158.785 64.0422 165.369 57.4585 173.462 57.4585C175.955 57.4585 178.639 58.3182 180.644 59.7497C182.215 60.8728 184.101 62.8493 184.151 65.8933V66.0187C184.151 68.1783 183.156 69.4247 180.93 70.0664C180.66 70.1446 180.364 70.2166 180.052 70.2803C179.301 70.4325 178.493 70.5354 177.713 70.6362L177.658 70.6423C177.125 70.7102 176.574 70.7781 176.054 70.8645C174.875 71.0784 173.699 71.3067 172.561 71.5308L172.39 71.5637C171.463 71.7447 170.589 71.9155 169.799 72.0594C169.495 72.1232 169.225 72.1911 168.97 72.2713C167.773 72.5921 166.683 73.0857 165.827 73.6966C165.424 73.9866 165.087 74.2869 164.822 74.5913L164.733 74.6921L164.789 74.8135C164.885 75.0232 164.99 75.233 165.097 75.4408C165.208 75.6546 165.319 75.8665 165.437 76.0742C166.101 77.2733 166.864 78.3819 167.707 79.3671L167.753 79.4185L167.804 79.4309C168.001 79.6797 168.211 79.9286 168.431 80.1692C168.53 80.2782 168.631 80.3852 168.734 80.4901C169.079 80.8438 169.441 81.1791 169.809 81.4856C172.115 83.3942 174.719 84.402 177.343 84.402C179.131 84.402 180.91 83.9372 182.631 83.0178C182.65 83.0075 182.67 83.0034 182.697 83.0034C182.744 83.0034 182.794 83.0261 182.827 83.0651C182.851 83.096 182.863 83.1391 182.86 83.1865C182.855 83.2256 182.832 83.2646 182.798 83.2955C180.163 85.4633 176.584 86.8125 173.462 86.8125V86.8146ZM167.316 60.1487C166.919 60.2701 166.537 60.4285 166.181 60.6177C165.066 61.2429 164.211 62.1911 163.629 63.4334C163.046 64.6777 162.781 66.1422 162.841 67.7834C162.841 67.8163 162.841 67.8595 162.845 67.9027C162.861 68.2688 162.894 68.6493 162.944 69.0257C163.114 70.2638 163.367 71.1791 163.709 72.261C163.857 72.7402 164.028 73.2174 164.225 73.7151L164.365 74.0689C164.365 74.0689 165.675 72.4214 168.532 71.2923C168.561 71.28 169.371 70.9837 169.371 70.9837C170.124 70.7308 173.283 70.0767 173.283 70.0767C175.825 69.579 177.411 68.4149 177.748 66.8024C177.839 66.3746 177.836 65.9241 177.744 65.4675C177.462 64.036 176.296 62.5531 174.546 61.3993C173.017 60.4182 171.228 59.8691 169.507 59.8526H169.425C168.692 59.8526 167.993 59.9492 167.345 60.1406L167.326 60.1447L167.314 60.1508L167.316 60.1487Z" fill="#B3B2BC"/>
<path d="M226.889 86.8146C222.954 86.8146 219.264 85.2843 216.496 82.5057C213.734 79.7353 212.212 76.0516 212.212 72.1355C212.212 64.0422 218.796 57.4585 226.889 57.4585C229.382 57.4585 232.065 58.3182 234.071 59.7497C235.642 60.8728 237.528 62.8493 237.578 65.8933V66.0187C237.578 68.1783 236.582 69.4247 234.357 70.0664C234.087 70.1446 233.791 70.2166 233.478 70.2803C232.728 70.4325 231.92 70.5354 231.14 70.6362L231.084 70.6423C230.552 70.7102 230.001 70.7781 229.48 70.8645C228.302 71.0784 227.125 71.3067 225.988 71.5308L225.817 71.5637C224.889 71.7447 224.015 71.9155 223.225 72.0594C222.921 72.1232 222.651 72.1911 222.396 72.2713C221.2 72.5921 220.11 73.0857 219.254 73.6966C218.851 73.9866 218.513 74.2869 218.248 74.5913L218.16 74.6921L218.215 74.8135C218.312 75.0232 218.416 75.233 218.524 75.4408C218.635 75.6546 218.746 75.8665 218.863 76.0742C219.527 77.2733 220.29 78.3819 221.134 79.3671L221.179 79.4185L221.23 79.4309C221.428 79.6797 221.638 79.9286 221.857 80.1692C221.956 80.2782 222.057 80.3852 222.16 80.4901C222.506 80.8438 222.868 81.1791 223.235 81.4856C225.541 83.3942 228.145 84.402 230.77 84.402C232.557 84.402 234.336 83.9372 236.058 83.0178C236.076 83.0075 236.097 83.0034 236.123 83.0034C236.171 83.0034 236.22 83.0261 236.253 83.0651C236.278 83.096 236.29 83.1391 236.286 83.1865C236.281 83.2256 236.259 83.2646 236.224 83.2955C233.589 85.4633 230.011 86.8125 226.889 86.8125V86.8146ZM220.743 59.6531C220.346 59.7786 219.964 59.9431 219.607 60.1385C218.493 60.7863 217.638 61.7674 217.055 63.055C216.473 64.3446 216.208 65.8603 216.267 67.5593C216.267 67.5922 216.267 67.6395 216.272 67.6827C216.288 68.0611 216.321 68.456 216.371 68.8447C216.541 70.1281 216.794 71.0742 217.135 72.1952C217.284 72.6929 217.454 73.1845 217.652 73.7028L217.792 74.0689C217.792 74.0689 219.102 72.3638 221.959 71.1935C221.987 71.1812 222.798 70.8747 222.798 70.8747C223.551 70.6115 226.709 69.9348 226.709 69.9348C229.252 69.4186 230.838 68.2133 231.175 66.5432C231.265 66.101 231.263 65.6341 231.171 65.159C230.889 63.6761 229.723 62.1397 227.973 60.9468C226.444 59.9308 224.655 59.3631 222.934 59.3446H222.851C222.119 59.3446 221.42 59.4453 220.772 59.6428L220.753 59.6469L220.741 59.6531H220.743Z" fill="#B3B2BC"/>
</svg>
