<svg width="1392" height="300" viewBox="0 0 1392 300" fill="none" xmlns="http://www.w3.org/2000/svg">
<path d="M96 59.3844C96 52.3845 101.4 47 108.42 47H191.58C198.6 47 204 52.3845 204 59.3844V89.5378C204 96.5377 209.4 101.922 216.42 101.922H245.58C252.6 101.922 258 107.307 258 114.307V144.46C258 151.46 252.6 156.844 245.58 156.844H216.42C209.4 156.844 204 151.46 204 144.46V114.307C204 107.307 198.6 101.922 191.58 101.922H108.42C101.4 101.922 96 107.307 96 114.307V184.693C96 191.693 101.4 197.078 108.42 197.078H155.18C182.143 197.078 204 218.935 204 245.898C204 249.268 201.268 252 197.897 252H108.42C101.4 252 96 246.615 96 239.615V209.462C96 202.462 90.6 197.078 83.58 197.078H54.42C47.4 197.078 42 191.693 42 184.693V114.307C42 107.307 47.4 101.922 54.42 101.922H83.58C90.6 101.922 96 96.5377 96 89.5378V59.3844Z" fill="#FEFEFE"/>
<path d="M409.003 239.54C416.8 239.54 424.008 237.908 430.627 234.644C437.245 231.289 442.549 226.484 446.539 220.228C450.528 213.972 452.523 206.356 452.523 197.38C452.523 188.404 450.528 180.924 446.539 174.94C442.549 168.865 437.245 164.287 430.627 161.204C424.008 158.121 416.8 156.58 409.003 156.58H362.627C359.725 156.58 357.867 157.033 357.051 157.94C356.325 158.847 355.963 160.841 355.963 163.924V234.372C355.963 236.639 356.416 238.089 357.323 238.724C358.229 239.268 359.861 239.54 362.219 239.54H409.003ZM362.627 141.62H406.283C413.173 141.62 419.701 140.305 425.867 137.676C432.123 135.047 437.2 130.967 441.099 125.436C445.088 119.815 447.083 112.516 447.083 103.54C447.083 94.5638 445.088 87.2648 441.099 81.6438C437.2 76.0228 432.123 71.9428 425.867 69.4038C419.701 66.7748 413.173 65.4598 406.283 65.4598H360.723C358.547 65.4598 357.187 65.9128 356.643 66.8198C356.189 67.7268 355.963 69.3128 355.963 71.5798V136.18C355.963 138.809 356.371 140.396 357.187 140.94C358.093 141.393 359.907 141.62 362.627 141.62ZM411.723 254.5H305.779C303.693 254.5 302.243 254.319 301.427 253.956C300.611 253.503 300.203 252.233 300.203 250.148V244.164C300.203 242.079 300.565 240.809 301.291 240.356C302.016 239.812 303.331 239.54 305.235 239.54H324.683C326.587 239.54 327.947 239.313 328.763 238.86C329.669 238.407 330.123 237.273 330.123 235.46V70.6278C330.123 68.1798 329.715 66.7288 328.899 66.2758C328.173 65.7318 326.541 65.4598 324.003 65.4598H305.779C303.512 65.4598 302.016 65.2328 301.291 64.7798C300.565 64.2358 300.203 62.8308 300.203 60.5638V54.8518C300.203 53.0388 300.52 51.8598 301.155 51.3158C301.789 50.7718 302.968 50.4998 304.691 50.4998H406.283C419.973 50.4998 431.896 52.4948 442.051 56.4838C452.296 60.3828 460.229 66.2758 465.851 74.1638C471.472 81.9608 474.283 91.7528 474.283 103.54C474.283 115.327 471.653 124.756 466.395 131.828C461.227 138.809 453.565 143.751 443.411 146.652C441.416 147.196 440.464 147.831 440.555 148.556C440.645 149.281 441.507 149.871 443.139 150.324C455.56 153.588 465.216 159.028 472.107 166.644C478.997 174.169 482.443 184.415 482.443 197.38C482.443 210.98 479.587 221.996 473.875 230.428C468.163 238.769 460.003 244.889 449.395 248.788C438.877 252.596 426.32 254.5 411.723 254.5ZM507.486 64.0998C507.486 59.5668 509.073 55.7128 512.246 52.5398C515.51 49.3668 519.363 47.7798 523.806 47.7798C528.339 47.7798 532.193 49.3668 535.366 52.5398C538.539 55.7128 540.126 59.5668 540.126 64.0998C540.126 68.5428 538.539 72.3958 535.366 75.6598C532.193 78.8328 528.339 80.4198 523.806 80.4198C519.363 80.4198 515.51 78.8328 512.246 75.6598C509.073 72.3958 507.486 68.5428 507.486 64.0998ZM509.662 128.02H491.302C489.942 128.02 489.126 127.839 488.854 127.476C488.582 127.023 488.446 126.116 488.446 124.756V116.596C488.446 114.239 489.534 113.06 491.71 113.06H534.822C535.91 113.06 536.59 113.241 536.862 113.604C537.225 113.967 537.406 114.737 537.406 115.916V236.276C537.406 237.455 537.587 238.316 537.95 238.86C538.403 239.313 539.174 239.54 540.262 239.54H558.622C559.891 239.54 560.753 239.676 561.206 239.948C561.659 240.22 561.886 240.991 561.886 242.26V251.236C561.886 252.505 561.75 253.367 561.478 253.82C561.297 254.273 560.571 254.5 559.302 254.5H492.662C491.121 254.5 490.033 254.319 489.398 253.956C488.763 253.593 488.446 252.687 488.446 251.236V243.62C488.446 241.807 488.763 240.673 489.398 240.22C490.123 239.767 491.302 239.54 492.934 239.54H509.798C511.339 239.54 512.246 239.268 512.518 238.724C512.79 238.18 512.926 237.183 512.926 235.732V131.284C512.926 129.108 511.838 128.02 509.662 128.02ZM641.926 227.98C640.113 233.42 637.484 238.407 634.038 242.94C630.684 247.473 626.422 251.1 621.254 253.82C616.177 256.449 610.102 257.764 603.03 257.764C593.238 257.764 586.212 255.18 581.95 250.012C577.689 244.844 575.558 238.543 575.558 231.108V132.644C575.558 131.012 575.241 129.833 574.606 129.108C573.972 128.383 572.838 128.02 571.206 128.02H555.022C553.118 128.02 551.849 127.793 551.214 127.34C550.58 126.887 550.262 125.753 550.262 123.94V116.596C550.262 114.873 550.489 113.876 550.942 113.604C551.486 113.241 552.62 113.06 554.342 113.06C559.238 113.06 563.228 112.743 566.31 112.108C569.393 111.473 571.932 110.068 573.926 107.892C575.921 105.716 577.689 102.316 579.23 97.6918C580.772 93.0678 582.449 86.8118 584.262 78.9238C584.625 77.3828 585.033 76.3398 585.486 75.7958C585.94 75.2518 587.164 74.9798 589.158 74.9798H596.502C598.86 74.9798 600.038 76.2948 600.038 78.9238V108.844C600.038 110.748 600.492 111.927 601.398 112.38C602.305 112.833 603.62 113.06 605.342 113.06H651.534C653.348 113.06 654.526 113.332 655.07 113.876C655.705 114.42 656.022 115.644 656.022 117.548V124.62C656.022 126.252 655.66 127.249 654.934 127.612C654.3 127.884 653.166 128.02 651.534 128.02H605.614C603.71 128.02 602.305 128.247 601.398 128.7C600.492 129.153 600.038 130.423 600.038 132.508V225.396C600.038 230.836 601.126 234.78 603.302 237.228C605.478 239.676 608.38 240.9 612.006 240.9C615.905 240.9 619.396 239.54 622.478 236.82C625.652 234.009 628.417 230.02 630.774 224.852C631.409 223.492 631.953 222.676 632.406 222.404C632.95 222.132 633.948 222.268 635.398 222.812L639.75 224.308C640.838 224.671 641.564 225.079 641.926 225.532C642.38 225.985 642.38 226.801 641.926 227.98ZM856.83 228.66C854.382 236.911 850.075 243.756 843.91 249.196C837.835 254.545 829.222 257.22 818.07 257.22C809.003 257.22 802.203 255.497 797.67 252.052C793.136 248.516 790.054 243.892 788.422 238.18C786.79 232.377 785.838 226.076 785.566 219.276C785.294 212.385 784.931 205.54 784.478 198.74C784.115 191.849 782.891 185.548 780.806 179.836C778.811 174.033 775.23 169.409 770.062 165.964C764.894 162.428 757.323 160.66 747.35 160.66H712.806C709.814 160.66 708 161.113 707.366 162.02C706.822 162.836 706.55 164.74 706.55 167.732V234.916C706.55 237.001 706.912 238.316 707.638 238.86C708.363 239.313 709.814 239.54 711.99 239.54H732.254C734.158 239.54 735.336 239.857 735.79 240.492C736.243 241.127 736.47 242.441 736.47 244.436V250.556C736.47 252.279 736.152 253.367 735.518 253.82C734.974 254.273 733.795 254.5 731.982 254.5H655.006C653.283 254.5 652.15 254.228 651.606 253.684C651.062 253.049 650.79 251.871 650.79 250.148V244.3C650.79 242.215 651.107 240.9 651.742 240.356C652.467 239.812 653.782 239.54 655.686 239.54H674.182C676.992 239.54 678.76 239.268 679.486 238.724C680.302 238.089 680.71 236.412 680.71 233.692V71.9878C680.71 69.0868 680.302 67.2728 679.486 66.5478C678.76 65.8228 676.947 65.4598 674.046 65.4598H655.686C653.328 65.4598 651.923 65.0518 651.47 64.2358C651.016 63.4198 650.79 61.7878 650.79 59.3398V55.1238C650.79 53.3108 650.971 52.0868 651.334 51.4518C651.787 50.8168 652.875 50.4998 654.598 50.4998H758.23C774.64 50.4998 787.832 52.9478 797.806 57.8438C807.779 62.7398 814.987 69.3128 819.43 77.5638C823.963 85.8148 826.23 94.9268 826.23 104.9C826.23 116.052 823.646 125.663 818.478 133.732C813.31 141.711 804.243 147.695 791.278 151.684C788.739 152.5 787.424 153.361 787.334 154.268C787.334 155.175 788.83 156.399 791.822 157.94C798.531 161.476 803.382 165.919 806.374 171.268C809.456 176.617 811.451 182.375 812.358 188.54C813.264 194.705 813.672 200.78 813.582 206.764C813.582 212.748 813.718 218.233 813.99 223.22C814.352 228.116 815.486 232.06 817.39 235.052C819.384 238.044 822.875 239.54 827.862 239.54C830.4 239.54 832.939 238.407 835.478 236.14C838.107 233.873 840.419 230.383 842.414 225.668C842.867 224.58 843.316 222.715 843.77 222.08C844.314 221.355 845.27 222.223 846.63 222.676L853.43 224.852C854.79 225.305 855.787 225.759 856.422 226.212C857.056 226.665 857.192 227.481 856.83 228.66ZM712.942 144.34H758.23C765.12 144.34 771.648 142.935 777.814 140.124C784.07 137.223 789.147 132.871 793.046 127.068C797.035 121.265 799.03 113.876 799.03 104.9C799.03 95.9238 797.035 88.5348 793.046 82.7318C789.147 76.8388 784.07 72.4868 777.814 69.6758C771.648 66.8648 765.12 65.4598 758.23 65.4598H712.942C709.768 65.4598 707.91 65.7318 707.366 66.2758C706.822 66.8198 706.55 68.6788 706.55 71.8518V137.812C706.55 140.623 706.867 142.436 707.502 143.252C708.227 143.977 710.04 144.34 712.942 144.34ZM860.945 181.06C860.945 192.303 861.897 202.775 863.801 212.476C865.795 222.177 869.422 230.02 874.681 236.004C879.939 241.988 887.51 244.98 897.393 244.98C904.827 244.98 910.902 243.303 915.617 239.948C920.422 236.503 924.139 231.969 926.769 226.348C929.398 220.727 931.211 214.471 932.209 207.58C933.297 200.599 933.841 193.572 933.841 186.5C933.841 175.257 932.843 164.785 930.849 155.084C928.945 145.383 925.363 137.54 920.105 131.556C914.846 125.572 907.275 122.58 897.393 122.58C889.958 122.58 883.838 124.303 879.033 127.748C874.318 131.103 870.646 135.591 868.017 141.212C865.387 146.833 863.529 153.135 862.441 160.116C861.443 167.007 860.945 173.988 860.945 181.06ZM832.385 186.5C832.385 171.993 834.742 159.028 839.457 147.604C844.262 136.089 851.47 127.023 861.081 120.404C870.691 113.695 882.795 110.34 897.393 110.34C911.99 110.34 924.094 113.604 933.705 120.132C943.315 126.569 950.478 135.183 955.193 145.972C959.998 156.671 962.401 168.367 962.401 181.06C962.401 195.567 959.998 208.577 955.193 220.092C950.478 231.516 943.315 240.583 933.705 247.292C924.094 253.911 911.99 257.22 897.393 257.22C882.795 257.22 870.691 254.001 861.081 247.564C851.47 241.036 844.262 232.423 839.457 221.724C834.742 210.935 832.385 199.193 832.385 186.5ZM1006.19 183.78C1006.19 194.116 1007.83 203.817 1011.09 212.884C1014.35 221.86 1018.98 229.159 1024.96 234.78C1031.04 240.311 1038.2 243.076 1046.45 243.076C1054.07 243.076 1060.73 240.311 1066.44 234.78C1072.15 229.159 1076.6 221.86 1079.77 212.884C1082.94 203.817 1084.53 194.116 1084.53 183.78C1084.53 173.444 1082.94 163.788 1079.77 154.812C1076.6 145.745 1072.15 138.447 1066.44 132.916C1060.73 127.295 1054.07 124.484 1046.45 124.484C1038.2 124.484 1031.04 127.295 1024.96 132.916C1018.98 138.447 1014.35 145.745 1011.09 154.812C1007.83 163.788 1006.19 173.444 1006.19 183.78ZM959.546 57.2998C958.639 57.2998 958.005 57.0728 957.642 56.6198C957.37 56.1668 957.234 55.4868 957.234 54.5798V44.3798C957.234 43.6548 957.325 43.1558 957.506 42.8838C957.687 42.5208 958.095 42.3398 958.73 42.3398H1004.02C1004.74 42.3398 1005.29 42.4758 1005.65 42.7478C1006.01 42.9288 1006.19 43.3828 1006.19 44.1078V136.588C1006.19 138.583 1006.29 139.761 1006.47 140.124C1006.65 140.396 1007.01 139.988 1007.55 138.9C1012.09 130.015 1018.07 123.079 1025.51 118.092C1032.94 113.105 1041.55 110.612 1051.35 110.612C1062.14 110.612 1072.11 113.513 1081.27 119.316C1090.42 125.028 1097.77 133.369 1103.3 144.34C1108.92 155.22 1111.73 168.367 1111.73 183.78C1111.73 199.193 1108.92 212.385 1103.3 223.356C1097.77 234.327 1090.42 242.713 1081.27 248.516C1072.11 254.319 1062.14 257.22 1051.35 257.22C1041.83 257.22 1033.39 254.908 1026.05 250.284C1018.8 245.569 1012.9 238.951 1008.37 230.428C1007.46 228.796 1006.87 228.161 1006.6 228.524C1006.33 228.796 1006.19 230.564 1006.19 233.828V249.604C1006.19 250.964 1005.97 252.143 1005.51 253.14C1005.15 254.047 1004.25 254.5 1002.79 254.5H959.818C958.73 254.5 958.005 254.409 957.642 254.228C957.37 253.956 957.234 253.276 957.234 252.188V241.716C957.234 240.809 957.415 240.22 957.778 239.948C958.231 239.676 958.911 239.54 959.818 239.54H979.402C980.399 239.54 981.034 239.404 981.306 239.132C981.578 238.769 981.714 238.089 981.714 237.092V60.0198C981.714 58.2068 980.989 57.2998 979.538 57.2998H959.546ZM1149.16 181.06C1149.16 192.303 1150.12 202.775 1152.02 212.476C1154.01 222.177 1157.64 230.02 1162.9 236.004C1168.16 241.988 1175.73 244.98 1185.61 244.98C1193.05 244.98 1199.12 243.303 1203.84 239.948C1208.64 236.503 1212.36 231.969 1214.99 226.348C1217.62 220.727 1219.43 214.471 1220.43 207.58C1221.52 200.599 1222.06 193.572 1222.06 186.5C1222.06 175.257 1221.06 164.785 1219.07 155.084C1217.16 145.383 1213.58 137.54 1208.32 131.556C1203.07 125.572 1195.49 122.58 1185.61 122.58C1178.18 122.58 1172.06 124.303 1167.25 127.748C1162.54 131.103 1158.87 135.591 1156.24 141.212C1153.61 146.833 1151.75 153.135 1150.66 160.116C1149.66 167.007 1149.16 173.988 1149.16 181.06ZM1120.6 186.5C1120.6 171.993 1122.96 159.028 1127.68 147.604C1132.48 136.089 1139.69 127.023 1149.3 120.404C1158.91 113.695 1171.01 110.34 1185.61 110.34C1200.21 110.34 1212.31 113.604 1221.92 120.132C1231.53 126.569 1238.7 135.183 1243.41 145.972C1248.22 156.671 1250.62 168.367 1250.62 181.06C1250.62 195.567 1248.22 208.577 1243.41 220.092C1238.7 231.516 1231.53 240.583 1221.92 247.292C1212.31 253.911 1200.21 257.22 1185.61 257.22C1171.01 257.22 1158.91 254.001 1149.3 247.564C1139.69 241.036 1132.48 232.423 1127.68 221.724C1122.96 210.935 1120.6 199.193 1120.6 186.5ZM1339.01 227.98C1337.2 233.42 1334.57 238.407 1331.13 242.94C1327.77 247.473 1323.51 251.1 1318.34 253.82C1313.26 256.449 1307.19 257.764 1300.12 257.764C1290.33 257.764 1283.3 255.18 1279.04 250.012C1274.78 244.844 1272.65 238.543 1272.65 231.108V132.644C1272.65 131.012 1272.33 129.833 1271.69 129.108C1271.06 128.383 1269.93 128.02 1268.29 128.02H1252.11C1250.21 128.02 1248.94 127.793 1248.3 127.34C1247.67 126.887 1247.35 125.753 1247.35 123.94V116.596C1247.35 114.873 1247.58 113.876 1248.03 113.604C1248.57 113.241 1249.71 113.06 1251.43 113.06C1256.33 113.06 1260.32 112.743 1263.4 112.108C1266.48 111.473 1269.02 110.068 1271.01 107.892C1273.01 105.716 1274.78 102.316 1276.32 97.6918C1277.86 93.0678 1279.54 86.8118 1281.35 78.9238C1281.71 77.3828 1282.12 76.3398 1282.57 75.7958C1283.03 75.2518 1284.25 74.9798 1286.25 74.9798H1293.59C1295.95 74.9798 1297.13 76.2948 1297.13 78.9238V108.844C1297.13 110.748 1297.58 111.927 1298.49 112.38C1299.39 112.833 1300.71 113.06 1302.43 113.06H1332.62C1334.44 113.06 1335.61 113.332 1336.16 113.876C1336.79 114.42 1337.11 115.644 1337.11 117.548V124.62C1337.11 126.252 1336.75 127.249 1336.02 127.612C1335.39 127.884 1334.25 128.02 1332.62 128.02H1302.7C1300.8 128.02 1299.39 128.247 1298.49 128.7C1297.58 129.153 1297.13 130.423 1297.13 132.508V225.396C1297.13 230.836 1298.21 234.78 1300.39 237.228C1302.57 239.676 1305.47 240.9 1309.09 240.9C1312.99 240.9 1316.48 239.54 1319.57 236.82C1322.74 234.009 1325.5 230.02 1327.86 224.852C1328.5 223.492 1329.04 222.676 1329.49 222.404C1330.04 222.132 1331.04 222.268 1332.49 222.812L1336.84 224.308C1337.93 224.671 1338.65 225.079 1339.01 225.532C1339.47 225.985 1339.47 226.801 1339.01 227.98Z" fill="#FEFEFE"/>
</svg>
