<svg width="320" height="134" viewBox="0 0 320 134" fill="none" xmlns="http://www.w3.org/2000/svg">
<g clip-path="url(#clip0_7408_14306)">
<path d="M87.1637 86.1058C86.0058 86.8794 84.8721 87.3869 83.7626 87.6287C82.7014 87.8706 81.3506 87.9913 79.71 87.9913H72.4735V45.4503H76.8153V44H58V45.4503H61.6183V87.9913H58V89.4416H92.0118V75.6639H90.5647C90.5647 81.1267 89.431 84.607 87.1637 86.1058ZM261.956 86.8837C261.863 87.098 261.622 87.5153 261.13 87.6365C259.881 87.8818 259.014 87.7601 258.528 87.2725C258.006 86.7073 257.746 85.3554 257.746 83.2168V72.3213C257.746 68.1246 256.843 65.1988 255.036 63.5439C253.27 61.8896 250.28 61.0622 246.065 61.0622C241.85 61.0622 239.552 61.8086 237.424 63.3021C235.337 64.7548 234.294 66.5104 234.294 68.5686C234.294 69.8196 234.735 70.8889 235.618 71.7769C236.501 72.6242 237.545 73.0479 238.749 73.0479C239.953 73.0479 241.037 72.6242 241.88 71.7769C242.763 70.8889 243.205 69.8196 243.205 68.5686C243.205 68.0441 243.064 67.3379 242.783 66.4498C242.502 65.5618 242.302 64.8556 242.181 64.3311C242.061 63.7659 242.221 63.2817 242.663 62.8784C242.676 62.8648 242.69 62.8508 242.703 62.8377C243.117 62.4208 243.323 62.2124 244.801 62.2124C246.366 62.2124 247.409 62.8178 247.931 64.0282C248.453 65.239 248.714 67.5996 248.714 71.1104V74.0764L246.306 74.3789C241.088 74.9843 236.803 76.0333 234.716 77.5267C232.628 78.9794 231.585 81.0579 231.585 83.7616C231.585 85.7795 232.287 87.3127 233.692 88.3621C235.138 89.3708 237.596 89.8754 239.803 89.8754C243.938 89.8754 247.008 88.826 249.016 86.7276C249.859 88.7048 251.926 89.6937 255.217 89.6937C256.702 89.6937 258.007 89.5526 259.131 89.27C260.21 88.9598 260.957 88.6127 261.37 88.2279C261.371 88.2269 261.373 88.2254 261.374 88.224C261.588 88.0277 261.951 87.5085 262 86.8925C262.002 86.8702 261.966 86.8624 261.957 86.8832L261.956 86.8837ZM248.714 85.5173C247.791 86.7281 246.707 87.3331 245.463 87.3331C244.219 87.3331 243.195 86.9293 242.272 86.1222C241.349 85.2749 240.787 84.0845 240.586 82.5508C240.425 80.4525 240.907 78.818 242.031 77.6479C243.195 76.4777 244.701 75.7715 246.547 75.5291L248.715 75.2267V85.5173H248.714ZM107.204 63.3961H96.4833V64.5284H98.7405V88.3093H95.9193V89.4416H110.026V88.3093H107.205V63.3961H107.204ZM102.746 60.8484C104.138 60.8484 105.304 60.3768 106.244 59.433C107.222 58.4515 107.711 57.2813 107.711 55.9227C107.711 54.564 107.222 53.3372 106.244 52.3556C105.304 51.3741 104.138 50.8835 102.746 50.8835C101.354 50.8835 100.226 51.3741 99.2479 52.3556C98.2699 53.3372 97.7809 54.5262 97.7809 55.9227C97.7809 57.3192 98.2699 58.452 99.2479 59.433C100.226 60.3768 101.392 60.8484 102.746 60.8484ZM130.864 62.1509C129.359 62.1509 127.911 62.4528 126.519 63.0568C125.165 63.6229 124.187 64.4155 123.585 65.4348V51.5059H112.3V52.6382H115.121V89.4421H116.193C116.193 88.3098 116.438 87.366 116.927 86.6108C117.454 85.8561 118.055 85.4785 118.733 85.4785C119.41 85.4785 120.125 85.7238 120.877 86.2148C121.629 86.6675 122.306 87.1775 122.908 87.7436C123.547 88.272 124.394 88.7819 125.447 89.2724C126.501 89.7252 127.648 89.952 128.889 89.952C130.13 89.952 131.466 89.7635 132.782 89.3859C134.099 89.0083 135.453 88.3665 136.845 87.4605C138.237 86.5168 139.365 85.1014 140.231 83.2139C141.096 81.3264 141.528 79.0618 141.528 76.4196C141.528 71.9277 140.456 68.4362 138.312 65.9448C136.206 63.4155 133.723 62.1513 130.864 62.1513L130.864 62.1509ZM131.372 85.5352C130.281 87.6491 129.02 88.7058 127.591 88.7058C126.162 88.7058 125.184 88.0829 124.544 86.8372C123.905 85.5537 123.585 83.4776 123.585 80.609V67.1333C124.488 65.3592 125.71 64.4722 127.253 64.4722C128.795 64.4722 130.13 65.5105 131.259 67.5865C132.425 69.6626 133.008 72.6446 133.008 76.5325C133.008 80.4205 132.463 83.3836 131.372 85.5352H131.372ZM226.96 63.7504C226.072 63.3801 225.129 63.1949 224.13 63.1949C223.132 63.1949 222.152 63.3801 221.079 63.7504C220.044 64.1208 219.082 64.8803 218.194 66.0281C217.343 67.1764 216.752 68.6577 216.419 70.473V63.8614H205.322V64.9724H208.097V88.3069H205.322V89.4179H219.193V88.3069H216.419V77.6954C216.419 74.9916 216.844 72.4357 217.694 70.0285C218.545 67.5841 219.322 66.3616 220.025 66.3616C220.653 66.3616 221.153 67.047 221.523 68.4173C221.671 68.936 221.929 69.4915 222.299 70.0843C222.669 70.6398 223.28 71.0843 224.13 71.4177C224.98 71.7512 225.906 71.6955 226.904 71.251C227.94 70.8065 228.661 70.0659 229.068 69.0286C229.475 67.9544 229.457 66.8987 229.013 65.8619C228.569 64.7877 227.885 64.0839 226.96 63.7504ZM167.072 66.7659C164.731 64.383 161.777 63.1915 158.209 63.1915C154.642 63.1915 151.669 64.2899 149.18 66.4867C146.69 68.6461 145.445 71.9786 145.445 76.484C145.445 79.1277 145.854 81.3802 146.672 83.242C147.526 85.1038 148.697 86.4998 150.183 87.431C151.669 88.3616 153.193 89.032 154.754 89.4416C156.314 89.8139 158.061 90 159.993 90C161.925 90 163.932 89.5531 165.901 88.6597C167.871 87.7664 169.264 86.6307 170.082 85.2526L169.301 84.6942C168.558 85.7742 167.369 86.6118 165.734 87.2075C164.136 87.8032 162.705 88.1013 161.442 88.1013C156.723 88.1013 154.177 84.8246 153.806 78.2717H170.639C170.639 72.9844 169.449 69.1493 167.071 66.7664L167.072 66.7659ZM153.75 77.1539V76.5398C153.75 73.3377 154.103 70.5079 154.81 68.0504C155.516 65.5555 156.667 64.3083 158.265 64.3083C159.863 64.3083 161.015 65.5929 161.721 68.1619C162.464 70.7309 162.836 73.7284 162.836 77.1539H153.75ZM199.046 87.4867C198.563 86.9656 198.321 85.718 198.321 83.7447V73.6916C198.321 69.8191 197.485 67.1197 195.813 65.5933C194.178 64.067 191.41 63.3035 187.508 63.3035C183.607 63.3035 180.727 63.9923 178.757 65.3699C176.825 66.7101 175.859 68.3301 175.859 70.2287C175.859 71.3828 176.268 72.3697 177.085 73.1889C177.902 73.9708 178.869 74.3619 179.984 74.3619C181.098 74.3619 182.102 73.9708 182.882 73.1889C183.7 72.3697 184.108 71.3828 184.108 70.2287C184.108 69.7445 183.978 69.093 183.718 68.2738C183.458 67.4547 183.272 66.8032 183.161 66.319C183.049 65.7979 183.198 65.351 183.607 64.9787C184.015 64.5691 184.926 64.3646 186.338 64.3646C187.75 64.3646 188.753 64.923 189.236 66.0403C189.72 67.1571 189.961 69.3354 189.961 72.5748V75.3115L187.731 75.5907C182.901 76.1491 179.519 77.1171 177.587 78.4952C175.655 79.8354 174.688 81.753 174.688 84.2478C174.688 86.1096 175.339 87.5245 176.639 88.4925C177.977 89.4232 179.668 89.889 181.711 89.889C185.538 89.889 188.381 88.921 190.239 86.9846C191.019 88.809 192.933 89.7213 195.98 89.7213C197.355 89.7213 198.563 89.5909 199.603 89.3301C200.644 89.032 201.35 88.6971 201.721 88.3248V87.7664C200.421 88.0645 199.529 87.971 199.046 87.4872L199.046 87.4867ZM189.961 85.8668C189.106 86.9836 188.103 87.5425 186.951 87.5425C185.799 87.5425 184.852 87.1702 183.997 86.4257C183.142 85.6438 182.622 84.5454 182.436 83.1305C182.288 81.1946 182.734 79.6866 183.774 78.6066C184.852 77.5267 186.245 76.8752 187.954 76.6518L189.961 76.3726V85.8673V85.8668Z" fill="#B3B2BC"/>
</g>
<defs>
<clipPath id="clip0_7408_14306">
<rect width="204" height="46" fill="white" transform="translate(58 44)"/>
</clipPath>
</defs>
</svg>
