<svg preserveAspectRatio="none" width="100%" height="100%" overflow="visible" style="display: block;" viewBox="0 0 204 46" fill="none" xmlns="http://www.w3.org/2000/svg">
<g id="Layer_1" clip-path="url(#clip0_7475_5567)">
<path id="Vector" d="M29.1637 42.1058C28.0058 42.8794 26.8721 43.3869 25.7626 43.6287C24.7014 43.8706 23.3506 43.9913 21.71 43.9913H14.4735V1.45028H18.8153V0H0V1.45028H3.61825V43.9913H0V45.4416H34.0118V31.6639H32.5647C32.5647 37.1267 31.431 40.607 29.1637 42.1058ZM203.956 42.8837C203.863 43.098 203.622 43.5153 203.13 43.6365C201.881 43.8818 201.014 43.7601 200.528 43.2725C200.006 42.7073 199.746 41.3554 199.746 39.2168V28.3213C199.746 24.1246 198.843 21.1988 197.036 19.5439C195.27 17.8896 192.28 17.0622 188.065 17.0622C183.85 17.0622 181.552 17.8086 179.424 19.3021C177.337 20.7548 176.294 22.5104 176.294 24.5686C176.294 25.8196 176.735 26.8889 177.618 27.7769C178.502 28.6242 179.545 29.0479 180.749 29.0479C181.953 29.0479 183.037 28.6242 183.88 27.7769C184.763 26.8889 185.205 25.8196 185.205 24.5686C185.205 24.0441 185.064 23.3379 184.783 22.4498C184.502 21.5618 184.302 20.8556 184.181 20.3311C184.061 19.7659 184.221 19.2817 184.663 18.8784C184.676 18.8648 184.69 18.8508 184.703 18.8377C185.117 18.4208 185.323 18.2124 186.801 18.2124C188.366 18.2124 189.409 18.8178 189.931 20.0282C190.453 21.239 190.714 23.5996 190.714 27.1104V30.0764L188.306 30.3789C183.088 30.9843 178.803 32.0333 176.716 33.5267C174.628 34.9794 173.585 37.0579 173.585 39.7616C173.585 41.7795 174.287 43.3127 175.692 44.3621C177.138 45.3708 179.596 45.8754 181.803 45.8754C185.938 45.8754 189.009 44.826 191.016 42.7277C191.859 44.7048 193.926 45.6937 197.217 45.6937C198.702 45.6937 200.007 45.5526 201.131 45.27C202.21 44.9598 202.957 44.6127 203.37 44.2279C203.371 44.2269 203.373 44.2254 203.374 44.224C203.588 44.0277 203.951 43.5085 204 42.8925C204.002 42.8702 203.966 42.8624 203.957 42.8832L203.956 42.8837ZM190.714 41.5173C189.791 42.7281 188.707 43.3331 187.463 43.3331C186.219 43.3331 185.195 42.9293 184.272 42.1222C183.349 41.2749 182.787 40.0845 182.586 38.5508C182.425 36.4525 182.907 34.818 184.031 33.6479C185.195 32.4777 186.7 31.7715 188.547 31.5291L190.715 31.2267V41.5173H190.714ZM49.2041 19.3961H38.4833V20.5284H40.7405V44.3093H37.9193V45.4416H52.0257V44.3093H49.2045V19.3961H49.2041ZM44.7462 16.8484C46.1381 16.8484 47.3042 16.3768 48.2445 15.433C49.2224 14.4515 49.7114 13.2813 49.7114 11.9227C49.7114 10.564 49.2224 9.33718 48.2445 8.35562C47.3042 7.37406 46.1381 6.88352 44.7462 6.88352C43.3542 6.88352 42.2258 7.37406 41.2479 8.35562C40.2699 9.33718 39.7809 10.5262 39.7809 11.9227C39.7809 13.3192 40.2699 14.452 41.2479 15.433C42.2258 16.3768 43.3919 16.8484 44.7462 16.8484ZM72.8637 18.1509C71.359 18.1509 69.9109 18.4528 68.519 19.0568C67.1647 19.623 66.1868 20.4155 65.5851 21.4348V7.5059H54.2999V8.63821H57.1211V45.4421H58.1933C58.1933 44.3098 58.4381 43.366 58.927 42.6108C59.4537 41.8561 60.0554 41.4785 60.7325 41.4785C61.4097 41.4785 62.1245 41.7238 62.8766 42.2148C63.6292 42.6675 64.3058 43.1775 64.908 43.7436C65.5474 44.272 66.3938 44.7819 67.4472 45.2724C68.5006 45.7252 69.6478 45.952 70.8889 45.952C72.13 45.952 73.4658 45.7635 74.7823 45.3859C76.0989 45.0083 77.4531 44.3665 78.8451 43.4605C80.2371 42.5168 81.3654 41.1014 82.2307 39.2139C83.096 37.3264 83.5283 35.0618 83.5283 32.4196C83.5283 27.9277 82.4561 24.4362 80.312 21.9448C78.2057 19.4155 75.7226 18.1513 72.8642 18.1513L72.8637 18.1509ZM73.3715 41.5352C72.2809 43.6491 71.0204 44.7058 69.5912 44.7058C68.162 44.7058 67.1836 44.0829 66.5442 42.8372C65.9048 41.5537 65.5851 39.4776 65.5851 36.609V23.1333C66.4881 21.3592 67.7103 20.4722 69.2527 20.4722C70.7951 20.4722 72.1304 21.5105 73.2588 23.5865C74.4249 25.6626 75.0082 28.6446 75.0082 32.5325C75.0082 36.4205 74.4626 39.3836 73.372 41.5352H73.3715ZM168.96 19.7504C168.072 19.3801 167.129 19.1949 166.13 19.1949C165.132 19.1949 164.152 19.3801 163.079 19.7504C162.044 20.1208 161.082 20.8803 160.194 22.0281C159.343 23.1764 158.752 24.6577 158.419 26.473V19.8614H147.322V20.9724H150.097V44.3069H147.322V45.4179H161.193V44.3069H158.419V33.6954C158.419 30.9916 158.844 28.4357 159.694 26.0285C160.545 23.5841 161.322 22.3616 162.025 22.3616C162.653 22.3616 163.153 23.047 163.523 24.4173C163.671 24.936 163.929 25.4915 164.299 26.0843C164.669 26.6398 165.28 27.0843 166.13 27.4177C166.98 27.7512 167.906 27.6955 168.904 27.251C169.94 26.8065 170.661 26.0659 171.068 25.0286C171.475 23.9544 171.457 22.8987 171.013 21.8619C170.569 20.7877 169.885 20.0839 168.96 19.7504ZM109.072 22.7659C106.731 20.383 103.777 19.1915 100.209 19.1915C96.6418 19.1915 93.6692 20.2899 91.1798 22.4867C88.6899 24.6461 87.4455 27.9786 87.4455 32.484C87.4455 35.1277 87.8542 37.3802 88.6716 39.242C89.5262 41.1038 90.6966 42.4998 92.1829 43.431C93.6692 44.3616 95.1927 45.032 96.7535 45.4416C98.3143 45.8139 100.061 46 101.993 46C103.925 46 105.932 45.5531 107.901 44.6597C109.871 43.7664 111.264 42.6307 112.082 41.2526L111.301 40.6942C110.558 41.7742 109.369 42.6118 107.734 43.2075C106.136 43.8032 104.705 44.1014 103.442 44.1014C98.723 44.1014 96.1775 40.8246 95.806 34.2717H112.639C112.639 28.9844 111.449 25.1493 109.071 22.7664L109.072 22.7659ZM95.7504 33.1539V32.5398C95.7504 29.3377 96.1035 26.5079 96.8096 24.0504C97.5158 21.5555 98.6673 20.3083 100.265 20.3083C101.863 20.3083 103.015 21.5929 103.721 24.1619C104.464 26.7309 104.836 29.7284 104.836 33.1539H95.7504ZM141.046 43.4867C140.563 42.9656 140.321 41.718 140.321 39.7447V29.6916C140.321 25.8191 139.485 23.1197 137.813 21.5933C136.178 20.067 133.41 19.3035 129.508 19.3035C125.607 19.3035 122.727 19.9923 120.757 21.3699C118.825 22.7101 117.859 24.3301 117.859 26.2287C117.859 27.3828 118.268 28.3697 119.085 29.1889C119.902 29.9708 120.869 30.3619 121.984 30.3619C123.098 30.3619 124.102 29.9708 124.882 29.1889C125.7 28.3697 126.108 27.3828 126.108 26.2287C126.108 25.7445 125.978 25.093 125.718 24.2738C125.458 23.4547 125.272 22.8032 125.161 22.319C125.049 21.7979 125.198 21.351 125.607 20.9787C126.015 20.5691 126.926 20.3646 128.338 20.3646C129.75 20.3646 130.753 20.923 131.236 22.0403C131.72 23.1571 131.961 25.3354 131.961 28.5748V31.3115L129.731 31.5907C124.901 32.1491 121.519 33.1171 119.587 34.4952C117.655 35.8354 116.688 37.753 116.688 40.2478C116.688 42.1096 117.339 43.5245 118.639 44.4925C119.977 45.4232 121.668 45.889 123.711 45.889C127.538 45.889 130.381 44.921 132.239 42.9846C133.019 44.809 134.933 45.7213 137.98 45.7213C139.355 45.7213 140.563 45.5909 141.603 45.3301C142.644 45.032 143.35 44.6971 143.721 44.3248V43.7664C142.421 44.0645 141.529 43.971 141.046 43.4872L141.046 43.4867ZM131.961 41.8668C131.106 42.9836 130.103 43.5425 128.951 43.5425C127.799 43.5425 126.852 43.1702 125.997 42.4257C125.142 41.6438 124.622 40.5454 124.436 39.1305C124.288 37.1946 124.734 35.6866 125.774 34.6066C126.852 33.5267 128.245 32.8752 129.954 32.6518L131.961 32.3726V41.8673V41.8668Z" fill="var(--fill-0, #B3B2BC)"/>
</g>
<defs>
<clipPath id="clip0_7475_5567">
<rect width="204" height="46" fill="white"/>
</clipPath>
</defs>
</svg>
