<?xml version="1.0" encoding="UTF-8"?>
<svg id="_Layer_" data-name="&amp;lt;Layer&amp;gt;" xmlns="http://www.w3.org/2000/svg" width="500" height="311.541900029389581" viewBox="-100 -62 700 436">
  <defs>
    <style>
      .cls-1 {
        fill: #fff;
        stroke-width: 0px;
      }
    </style>
  </defs>
  <path class="cls-1" d="M77.406264430510419,311.541900029389581h-.742815719189821C34.391218766129896,311.541900029389581,0,277.150682838640932,0,234.878454829849943V76.663445199539638C0,34.391217190750467,34.391218766129896,0,76.663448711320598,0h.742815719189821c42.272229945189792,0,76.663448711309684,34.391217190750467,76.663448711309684,76.663445199539638v158.215009630310306c0,42.272228008790989-34.391218766119891,76.663445199539638-76.663448711309684,76.663445199539638ZM76.663448711320598,43.690269234890366c-18.181749632660285,0-32.973177475080774,14.79142716485967-32.973177475080774,32.973175964649272v158.215009630310306c0,18.181748799790512,14.791427842420489,32.973175964649272,32.973177475080774,32.973175964649272h.742815719189821c18.181749632659375,0,32.973177475068951-14.79142716485876,32.973177475068951-32.973175964649272V76.663445199539638c0-18.181748799789602-14.791427842409576-32.973175964649272-32.973177475068951-32.973175964649272h-.742815719189821Z"/>
  <path class="cls-1" d="M500,308.936299969049287h-49.284031829549349c-42.550025450730573,0-77.1669953089513-34.616968272499435-77.1669953089513-77.166991774109192V2.185189363190148h43.690271236250737v229.584118831749947c0,18.458868391160649,15.017854835979961,33.476722539220646,33.476724072700563,33.476722539220646h49.284031829549349v43.690269234888547Z"/>
  <path class="cls-1" d="M263.682006875180377,311.541900029389581c-42.477028091610919,0-77.034518620180279-34.605477947980035-77.034518620180279-77.141983420739052v-12.834016587750739h43.690271236239823v12.834016587750739c0,18.445350362319004,14.958375506330412,33.451714185848687,33.344247383940456,33.451714185848687,18.386547779069588,0,33.3449232854-15.006363823529682,33.3449232854-33.451714185848687,0-15.267261780280023-6.104742107139828-28.065455591589853-19.204388561810447-40.244523681680221l-63.283979046690547-54.220137805599734c-17.725516138149032-16.004670253911172-27.891074297079285-38.892044895490471-27.891074297079285-62.793271700630612C186.647488255000098,34.605477947980035,221.204978783569459,0,263.682006875180377,0c42.477028091600005,0,77.035194521639824,34.605477947980035,77.035194521639824,77.141983420739962v4.814445974009686h-43.690271236239823v-4.814445974009686c0-18.445350362319914-14.958375506330412-33.451714185849596-33.3449232854-33.451714185849596-18.385871877610043,0-33.344247383940456,15.006363823529682-33.344247383940456,33.451714185849596,0,11.477482392910133,4.841482253479626,22.468315747310044,13.292954276040291,30.195221036500698l63.531358985929728,54.441833478698754c22.265546334529972,20.531182213469947,33.55512864361026,44.964343453750189,33.55512864361026,72.620878672711115,0,42.536505472759018-34.558166430039819,77.141983420739052-77.035194521639824,77.141983420739052Z"/>
</svg>