<svg width="320" height="134" viewBox="0 0 320 134" fill="none" xmlns="http://www.w3.org/2000/svg">
<path d="M38.9668 64.4849H24.7344V59.578H38.9668V55H20V79H24.7344V69.289H38.9668V69.2919H43.7838V59.5774H38.9668V64.4844V64.4849ZM53.2082 55H48.4738V79H72.1835V74.1152H53.2082V55ZM195.575 55H190.84V79H214.55V74.1152H195.575V55ZM124.335 64.4803H119.688V64.4722H114.9V64.4803H110.19V55H105.402V69.2919H114.9V79H119.688V69.2919H129.123V55H124.335V64.4803ZM133.881 55H133.879V69.2919H152.857V74.1163H133.881V79H157.679V64.4722H152.858V64.4803H138.667V59.5908H157.679V55H133.881ZM81.7344 55H76.9464V79H81.7344V69.2919H95.9047V79H100.693V55H81.7344ZM95.9041 64.4803H81.7338V59.8116H95.9041V64.4803ZM167.147 55H162.33V79H186.109V55H167.147ZM181.315 74.1146H167.147V59.8116H181.315V74.1152V74.1146ZM266.783 69.3012H262.017V74.1808H266.783V79H271.571V55H266.783V69.3012ZM224.07 55H219.282V79H224.07V69.2919H238.24V79H243.028V55H224.07ZM238.24 64.4803H224.07V59.8116H238.24V64.4803ZM295.212 55H276.254V79H281.042V69.2919H295.212V79H300V55H295.212ZM295.212 64.4803H281.042V59.8116H295.212V64.4803ZM252.556 59.5641V55H247.768V79H252.556V64.4646H257.286V59.5641H252.556ZM257.286 64.4646V69.3012H262.017V64.4646H257.286Z" fill="#B3B2BC"/>
</svg>
