<svg width="400" height="168" viewBox="0 0 400 168" fill="none" xmlns="http://www.w3.org/2000/svg">
<mask id="mask0_7408_14251" style="mask-type:luminance" maskUnits="userSpaceOnUse" x="145" y="62" width="234" height="43">
<path d="M379 62.4443H145.446V104.105H379V62.4443Z" fill="white"/>
</mask>
<g mask="url(#mask0_7408_14251)">
<path d="M378.1 63.499V67.4253H357.721V80.0681H373.138V83.9943H357.721V99.0713H378.471V102.998H353.022V63.499H378.1Z" fill="#B3B2BC"/>
<path d="M342.846 72.1894L338.147 73.5767C336.792 68.9175 333.976 66.5879 329.699 66.5879C327.06 66.5879 325.018 67.2423 323.575 68.5511C322.326 69.6853 321.7 71.1599 321.7 72.9747C321.7 75.1734 322.387 76.8312 323.76 77.9481C324.974 78.9427 327.051 79.8065 329.99 80.5394L331.706 81.0367C336.563 82.2582 339.854 83.8811 341.578 85.9054C342.934 87.5108 343.611 89.7095 343.611 92.5016C343.611 96.166 342.274 99.0106 339.599 101.035C337.171 102.85 333.932 103.757 329.885 103.757C325.924 103.757 322.686 102.806 320.169 100.904C317.952 99.2286 316.395 96.8729 315.497 93.8364L320.143 92.2135C320.812 94.9009 322.114 96.9251 324.051 98.2862C325.67 99.403 327.579 99.9616 329.778 99.9616C332.964 99.9616 335.34 99.2286 336.906 97.7627C338.174 96.5763 338.807 94.9969 338.807 93.025C338.807 90.774 338.147 89.0986 336.827 87.9993C335.542 86.9 333.229 85.9141 329.885 85.0414L328.3 84.5704C323.812 83.3664 320.733 81.7871 319.061 79.8326C317.688 78.2098 317.002 75.9936 317.002 73.1841C317.002 70.0605 318.217 67.5215 320.645 65.5671C322.932 63.7173 325.915 62.7925 329.594 62.7925C336.387 62.7925 340.805 65.9248 342.846 72.1894Z" fill="#B3B2BC"/>
<path d="M306.641 63.499V102.998H301.943V63.499H306.641Z" fill="#B3B2BC"/>
<path d="M265.131 63.499H278.542C287.658 63.499 292.215 66.9455 292.215 73.8383C292.215 76.5082 291.415 78.7244 289.813 80.4869C288.353 82.1097 286.338 83.2091 283.768 83.7849L293.298 102.998H288.098L279.333 84.544H269.725V102.998H265.131V63.499ZM269.725 67.2421V80.9057H277.934C284.252 80.9057 287.411 78.5673 287.411 73.8906C287.411 71.5174 286.619 69.7986 285.036 68.7341C283.557 67.7394 281.304 67.2421 278.278 67.2421H269.725Z" fill="#B3B2BC"/>
<path d="M253.24 63.499V102.998H247.247L234.761 79.0996C234.567 78.7331 232.675 74.8941 229.085 67.5824H228.267C228.267 68.4898 228.311 70.7496 228.399 74.3618C228.452 76.7002 228.478 78.6721 228.478 80.2775V102.998H224.096V63.499H231.408L242.812 85.6434C243.763 87.4583 244.81 89.6132 245.954 92.1088C247.309 95.0753 248.136 96.8639 248.435 97.4746H249.28C248.998 89.9536 248.857 85.6347 248.857 84.5179V63.499H253.24Z" fill="#B3B2BC"/>
<path d="M212.309 63.499V89.8053C212.309 94.6914 210.769 98.3559 207.689 100.799C205.19 102.771 201.935 103.757 197.922 103.757C193.241 103.757 189.624 102.474 187.072 99.9089C184.679 97.5009 183.482 94.133 183.482 89.8053V63.499H188.181V89.6483C188.181 96.4713 191.463 99.8828 198.028 99.8828C204.592 99.8828 207.874 96.4713 207.874 89.6483V63.499H212.309Z" fill="#B3B2BC"/>
<path d="M173.412 72.1894L168.713 73.5767C167.358 68.9175 164.542 66.5879 160.266 66.5879C157.626 66.5879 155.584 67.2423 154.141 68.5511C152.892 69.6853 152.267 71.1599 152.267 72.9747C152.267 75.1734 152.953 76.8312 154.326 77.9481C155.54 78.9427 157.617 79.8065 160.556 80.5394L162.272 81.0367C167.129 82.2582 170.42 83.8811 172.145 85.9054C173.5 87.5108 174.178 89.7095 174.178 92.5016C174.178 96.166 172.84 99.0106 170.165 101.035C167.736 102.85 164.498 103.757 160.451 103.757C156.491 103.757 153.253 102.806 150.736 100.904C148.519 99.2286 146.961 96.8729 146.063 93.8364L150.71 92.2135C151.378 94.9009 152.681 96.9251 154.616 98.2862C156.236 99.403 158.145 99.9616 160.345 99.9616C163.53 99.9616 165.906 99.2286 167.472 97.7627C168.739 96.5763 169.373 94.9969 169.373 93.025C169.373 90.774 168.713 89.0986 167.393 87.9993C166.109 86.9 163.794 85.9141 160.451 85.0414L158.867 84.5704C154.379 83.3664 151.299 81.7871 149.627 79.8326C148.255 78.2098 147.568 75.9936 147.568 73.1841C147.568 70.0605 148.782 67.5215 151.211 65.5671C153.499 63.7173 156.482 62.7925 160.16 62.7925C166.953 62.7925 171.37 65.9248 173.412 72.1894Z" fill="#B3B2BC"/>
</g>
<path fill-rule="evenodd" clip-rule="evenodd" d="M105.171 118.828C109.063 115.015 112.321 110.56 114.769 105.637C112.568 104.925 110.43 104.128 108.391 103.278C97.0097 98.5238 84.1382 97.5898 72.664 101.579C51.4146 108.959 35.8174 108.209 25.463 104.373C28.7523 111.517 33.7326 117.733 39.8866 122.534C47.029 122.297 55.6074 120.773 65.7689 117.236C78.6173 112.772 92.7783 113.806 105.171 118.836V118.828ZM100.423 122.94C89.8212 119.226 78.1925 118.759 67.7223 122.404C60.2713 124.992 53.5073 126.584 47.4305 127.388C54.2949 130.971 62.1166 133 70.4171 133C81.6981 133 92.099 129.248 100.423 122.94ZM110.677 98.2407C112.731 99.0981 114.831 99.8714 116.947 100.538C118.815 95.3695 119.834 89.8033 119.834 84H21C21 88.4867 21.61 92.8276 22.745 96.9543C30.8371 101.778 46.1333 104.955 70.7183 96.4107C83.7598 91.8783 98.1525 93.0114 110.677 98.2407Z" fill="#B3B2BC"/>
<path fill-rule="evenodd" clip-rule="evenodd" d="M21 84C21 56.9352 43.122 35 70.4171 35C97.7123 35 119.834 56.9352 119.834 84H97.1024C97.1024 69.3843 85.1573 57.54 70.4171 57.54C55.677 57.54 43.7319 69.3843 43.7319 84H21Z" fill="#B3B2BC"/>
</svg>
