<svg preserveAspectRatio="none" width="100%" height="100%" overflow="visible" style="display: block;" viewBox="0 0 232.407 40.9646" fill="none" xmlns="http://www.w3.org/2000/svg">
<g id="Group">
<path id="Vector" d="M232.036 0.706545V4.63285H211.657V17.2756H227.075V21.2018H211.657V36.2789H232.407V40.2052H206.959V0.706545H232.036Z" fill="var(--fill-0, #B3B2BC)"/>
<path id="Vector_2" d="M196.783 9.39695L192.083 10.7843C190.729 6.12504 187.913 3.79543 183.636 3.79543C180.996 3.79543 178.955 4.44981 177.511 5.75858C176.262 6.89286 175.637 8.36739 175.637 10.1822C175.637 12.3809 176.324 14.0387 177.697 15.1556C178.91 16.1502 180.987 17.014 183.926 17.7469L185.643 18.2442C190.499 19.4657 193.791 21.0887 195.515 23.1129C196.87 24.7183 197.548 26.917 197.548 29.7092C197.548 33.3735 196.211 36.2181 193.535 38.2421C191.107 40.0571 187.868 40.9646 183.821 40.9646C179.861 40.9646 176.623 40.0133 174.106 38.1112C171.889 36.4361 170.332 34.0804 169.433 31.0439L174.08 29.421C174.748 32.1084 176.051 34.1327 177.987 35.4938C179.606 36.6105 181.515 37.1691 183.715 37.1691C186.901 37.1691 189.277 36.4361 190.843 34.9702C192.11 33.7838 192.743 32.2045 192.743 30.2325C192.743 27.9815 192.083 26.3062 190.763 25.2068C189.478 24.1075 187.165 23.1216 183.821 22.249L182.237 21.7779C177.749 20.5739 174.669 18.9946 172.997 17.0401C171.624 15.4173 170.938 13.2011 170.938 10.3916C170.938 7.26802 172.153 4.72902 174.581 2.77459C176.869 0.924861 179.852 2.64909e-09 183.531 2.64909e-09C190.324 2.64909e-09 194.741 3.13232 196.783 9.39695Z" fill="var(--fill-0, #B3B2BC)"/>
<path id="Vector_3" d="M160.578 0.706545V40.2052H155.88V0.706545H160.578Z" fill="var(--fill-0, #B3B2BC)"/>
<path id="Vector_4" d="M119.068 0.706545H132.478C141.595 0.706545 146.152 4.15297 146.152 11.0458C146.152 13.7157 145.351 15.9319 143.75 17.6944C142.289 19.3172 140.275 20.4167 137.704 20.9924L147.234 40.2052H142.034L133.269 21.7516H123.662V40.2052H119.068V0.706545ZM123.662 4.44963V18.1132H131.871C138.189 18.1132 141.347 15.7748 141.347 11.0982C141.347 8.72493 140.555 7.00608 138.972 5.94163C137.493 4.94695 135.24 4.44963 132.214 4.44963H123.662Z" fill="var(--fill-0, #B3B2BC)"/>
<path id="Vector_5" d="M107.176 0.706545V40.2052H101.184L88.6975 16.3071C88.5038 15.9406 86.6119 12.1016 83.0218 4.78991H82.2035C82.2035 5.69732 82.2474 7.95712 82.3355 11.5693C82.3882 13.9077 82.4145 15.8796 82.4145 17.485V40.2052H78.0324V0.706545H85.3449L96.7488 22.8509C97.6991 24.6659 98.7463 26.8208 99.8902 29.3163C101.245 32.2829 102.072 34.0715 102.372 34.6821H103.216C102.935 27.1612 102.794 22.8422 102.794 21.7254V0.706545H107.176Z" fill="var(--fill-0, #B3B2BC)"/>
<path id="Vector_6" d="M66.2457 0.706545V27.0128C66.2457 31.8989 64.7058 35.5635 61.6259 38.0065C59.127 39.9782 55.8712 40.9643 51.8587 40.9643C47.1775 40.9643 43.5608 39.6816 41.0089 37.1164C38.6156 34.7085 37.4188 31.3405 37.4188 27.0128V0.706545H42.1178V26.8558C42.1178 33.6788 45.4 37.0903 51.9643 37.0903C58.5287 37.0903 61.8107 33.6788 61.8107 26.8558V0.706545H66.2457Z" fill="var(--fill-0, #B3B2BC)"/>
<path id="Vector_7" d="M27.3485 9.39695L22.6497 10.7843C21.2945 6.12504 18.4787 3.79543 14.2022 3.79543C11.5624 3.79543 9.52095 4.44981 8.07786 5.75858C6.82833 6.89286 6.20357 8.36739 6.20357 10.1822C6.20357 12.3809 6.88994 14.0387 8.26264 15.1556C9.47696 16.1502 11.5536 17.014 14.4926 17.7469L16.2085 18.2442C21.0657 19.4657 24.3569 21.0887 26.0814 23.1129C27.4365 24.7183 28.1141 26.917 28.1141 29.7092C28.1141 33.3735 26.7765 36.2181 24.1016 38.2421C21.673 40.0571 18.4347 40.9646 14.3871 40.9646C10.4273 40.9646 7.18912 40.0133 4.67249 38.1112C2.45502 36.4361 0.897549 34.0804 0 31.0439L4.64609 29.421C5.31483 32.1084 6.61715 34.1327 8.55301 35.4938C10.1721 36.6105 12.0815 37.1691 14.2814 37.1691C17.4668 37.1691 19.8426 36.4361 21.409 34.9702C22.676 33.7838 23.3097 32.2045 23.3097 30.2325C23.3097 27.9815 22.6497 26.3062 21.3297 25.2068C20.045 24.1075 17.7307 23.1216 14.3871 22.249L12.8031 21.7779C8.31544 20.5739 5.23565 18.9946 3.56375 17.0401C2.19105 15.4173 1.5047 13.2011 1.5047 10.3916C1.5047 7.26802 2.71902 4.72902 5.14764 2.77459C7.4355 0.924861 10.4185 0 14.0967 0C20.8897 0 25.307 3.13232 27.3485 9.39695Z" fill="var(--fill-0, #B3B2BC)"/>
</g>
</svg>
