<svg width="32" height="33" viewBox="0 0 32 33" fill="none" xmlns="http://www.w3.org/2000/svg">
<g style="mix-blend-mode:screen">
<path d="M16.0001 3.16669C13.7874 3.16669 11.962 4.82515 11.6993 6.96685C8.49288 8.23553 5.98325 10.8822 4.89999 14.178L4.69182 14.8113L5.95849 15.2276L6.16666 14.5943C7.07661 11.8258 9.12528 9.57233 11.7581 8.389C12.1681 10.3558 13.9116 11.8334 16.0001 11.8334C18.3934 11.8334 20.3335 9.89325 20.3335 7.50002C20.3335 5.10679 18.3934 3.16669 16.0001 3.16669Z" fill="white" style="fill:white;fill-opacity:1;"/>
<path d="M24.7971 10.1599L24.3591 9.65724L23.3539 10.5332L23.7918 11.0358C25.3752 12.8528 26.3333 15.2267 26.3333 17.8259C26.3333 18.321 26.2986 18.8077 26.2315 19.2836C24.4159 18.8513 22.458 19.6346 21.477 21.3337C20.2806 23.406 20.9906 26.0558 23.0629 27.2523C25.1352 28.4487 27.7851 27.7387 28.9815 25.6664C30.1579 23.6288 29.4912 21.033 27.4988 19.8092C27.6092 19.1642 27.6667 18.5015 27.6667 17.8259C27.6667 14.8925 26.5839 12.2104 24.7971 10.1599Z" fill="white" style="fill:white;fill-opacity:1;"/>
<path d="M10.5128 21.3337C11.4526 22.9614 11.2161 24.9455 10.0671 26.3017C11.7451 27.4772 13.7876 28.1667 15.9926 28.1667C16.6561 28.1667 17.3044 28.1043 17.9322 27.9852L18.5871 27.861L18.8356 29.1709L18.1806 29.2952C17.4714 29.4297 16.7399 29.5 15.9926 29.5C13.3819 29.5 10.9699 28.6423 9.02526 27.1938C8.99283 27.2136 8.96004 27.2331 8.9269 27.2523C6.85459 28.4487 4.20474 27.7387 3.00829 25.6664C1.81184 23.5941 2.52187 20.9442 4.59418 19.7478C6.66649 18.5513 9.31634 19.2614 10.5128 21.3337Z" fill="white" style="fill:white;fill-opacity:1;"/>
</g>
</svg>
