<svg preserveAspectRatio="none" width="100%" height="100%" overflow="visible" style="display: block;" viewBox="0 0 152.219 24" fill="none" xmlns="http://www.w3.org/2000/svg">
<g id="_&#229;&#155;&#190;&#229;&#177;&#130;_1" clip-path="url(#clip0_0_110)">
<path id="Vector" d="M21.0577 3.0373H21.2922C21.4047 2.66348 21.8283 2.28846 22.1298 2.02451C26.3944 -1.6982 29.478 2.70408 31.627 6.14375C33.6324 9.3529 35.1641 12.8391 37.0175 16.1331C38.311 13.6561 39.5124 11.111 40.8825 8.67214C41.6662 7.27716 43.753 3.50428 45.159 2.93101C46.2598 2.48194 47.3021 3.61297 46.7109 4.71294C46.5207 5.06646 46.2838 5.07124 46.0995 5.29458C42.8987 9.17256 40.9614 14.3428 38.5288 18.7224C38.4642 19.1774 39.8738 20.4386 40.3967 20.5151C41.5286 20.6811 42.9286 18.7929 43.5113 17.9568C44.9209 15.9324 45.9463 13.5283 47.2195 11.4107C47.515 10.9199 48.3239 9.47233 48.6685 9.163C49.5923 8.33414 51.0485 9.08657 50.802 10.3311C48.9414 13.1425 47.6383 16.3314 45.7609 19.1261C43.491 22.5036 40.3392 25.0046 37.0163 21.0179C33.1119 25.2816 29.5916 22.9276 27.2093 18.7558C25.6609 16.0435 24.3877 13.0852 22.8681 10.3394C22.4469 9.57982 21.8857 8.41894 21.3939 7.75967C21.3197 7.66054 21.2815 7.52319 21.1151 7.56261C20.9404 7.60441 19.5309 10.2654 19.3179 10.6547C17.8593 13.3205 16.6172 16.2263 15.0964 18.8323C14.0267 20.6656 11.9027 23.5785 9.42943 23.2537C8.04022 23.0721 7.88825 21.1851 9.09439 20.8364C11.46 20.1508 11.7723 19.5513 12.9856 17.4457C14.741 14.3989 16.2032 11.0596 17.9251 7.95793C18.4432 7.02396 19.014 6.1115 19.6003 5.21934C17.0001 0.930509 14.8379 4.42392 13.1125 7.09562C10.7504 10.755 9.09679 14.8134 6.9657 18.5946C5.94502 20.404 4.53068 22.5096 2.40318 23.1008C1.32746 23.3994 -0.0438068 23.3373 -0.000730324 21.9065C0.0351668 20.7121 0.8955 20.9152 1.6613 20.6954C3.13309 20.2726 4.15376 18.4561 4.85375 17.208C7.06621 13.2667 11.3487 3.01342 15.1921 1.06905C17.4704 -0.0834748 19.7642 1.09533 21.0577 3.0373ZM24.9681 3.1854C24.1939 3.34663 23.1266 4.54335 22.7449 5.21934C25.3211 8.97908 27.0262 13.2548 29.2434 17.2092C30.5692 19.5728 32.4586 22.4809 35.048 19.4127C35.2071 19.224 35.3723 19.0353 35.4811 18.8132C33.782 15.5646 32.2337 12.2097 30.4029 9.03043C29.5665 7.57933 28.5734 5.82008 27.4546 4.58515C26.8144 3.87811 26.0294 2.96564 24.9693 3.1854H24.9681Z" fill="var(--fill-0, white)"/>
<path id="Vector_2" d="M97.937 0.0623969L105.053 21.0169L110.629 0.259461C110.676 0.111364 110.769 0.0862834 110.908 0.0612026C111.906 -0.125112 113.477 0.188996 114.541 0.0779231L120.117 21.1363L127.41 0.0623969H131.057L122.512 24.0003L117.323 23.9764L112.584 7.20447L107.976 23.9872L102.599 23.9346L94.1104 0.0623969H97.937Z" fill="var(--fill-0, white)"/>
<path id="Vector_3" d="M137.275 0.0622559L148.633 18.7535V0.240211L148.812 0.0622559H152.041L152.22 0.240211V23.9918H147.976L136.557 5.41881V23.9918H132.97V0.0622559H137.275Z" fill="var(--fill-0, white)"/>
<path id="Vector_4" d="M55.3694 23.9918V0.0622559H65.3535C65.8059 0.0622559 66.9402 0.357255 67.42 0.504157C76.5271 3.30008 76.7066 20.3097 67.7144 23.4842C67.3016 23.6299 66.2055 23.9906 65.8322 23.9906H55.3706L55.3694 23.9918ZM58.837 20.8961H65.2339C66.0703 20.8961 67.724 19.9287 68.345 19.3506C71.9813 15.9707 71.7791 6.04942 66.8923 3.76706C66.6889 3.67151 65.6072 3.27619 65.472 3.27619H58.8358V20.8961H58.837Z" fill="var(--fill-0, white)"/>
<path id="Vector_5" d="M75.5778 23.9914L84.3187 0.076159L89.5107 0.0534668L98.5328 23.9914H94.5865L92.3202 17.4978L81.8478 17.4345L79.4008 23.9902H75.5742L75.5778 23.9914ZM91.1212 14.2289L86.938 2.56155L82.8709 14.2289H91.1212Z" fill="var(--fill-0, white)"/>
</g>
<defs>
<clipPath id="clip0_0_110">
<rect width="152.219" height="24" fill="white"/>
</clipPath>
</defs>
</svg>
