<svg width="146" height="98" viewBox="0 0 146 98" fill="none" xmlns="http://www.w3.org/2000/svg">
<g clip-path="url(#clip0_3892_9011)">
<rect width="145" height="98" transform="translate(0.5)" fill="#0F0A16"/>
<path d="M15.6487 42.968H18.4567V54.704H15.6487V42.968ZM11.3767 47.552H22.7527V50.144H11.3767V47.552ZM27.0793 44.288C27.0793 43.84 27.1113 43.448 27.1753 43.112C26.7753 43.784 26.2473 44.312 25.5913 44.696C24.9513 45.08 24.1913 45.288 23.3113 45.32V42.464C24.4313 42.304 25.3513 41.952 26.0713 41.408C26.7913 40.848 27.2553 40.112 27.4633 39.2H30.0793V56H27.0793V44.288ZM27.0793 53.336H30.0793V56H27.0793V53.336ZM39.0759 56.432C37.6839 56.432 36.4919 56.08 35.4999 55.376C34.5079 54.672 33.7479 53.656 33.2199 52.328C32.7079 51 32.4519 49.408 32.4519 47.552C32.4519 45.744 32.7159 44.184 33.2439 42.872C33.7879 41.544 34.5559 40.528 35.5479 39.824C36.5559 39.12 37.7319 38.768 39.0759 38.768C40.4199 38.768 41.5879 39.12 42.5799 39.824C43.5719 40.528 44.3319 41.552 44.8599 42.896C45.4039 44.224 45.6759 45.824 45.6759 47.696C45.6759 49.504 45.4119 51.064 44.8839 52.376C44.3719 53.672 43.6199 54.672 42.6279 55.376C41.6359 56.08 40.4519 56.432 39.0759 56.432ZM39.0999 53.864C39.8199 53.864 40.4439 53.64 40.9719 53.192C41.4999 52.728 41.9079 52.04 42.1959 51.128C42.4839 50.216 42.6279 49.088 42.6279 47.744C42.6279 45.6 42.3159 44 41.6919 42.944C41.0679 41.872 40.2039 41.336 39.0999 41.336C38.3479 41.336 37.7079 41.568 37.1799 42.032C36.6519 42.496 36.2439 43.208 35.9559 44.168C35.6679 45.128 35.5239 46.336 35.5239 47.792C35.5239 49.792 35.8439 51.304 36.4839 52.328C37.1239 53.352 37.9959 53.864 39.0999 53.864ZM53.8303 56.432C52.4383 56.432 51.2463 56.08 50.2543 55.376C49.2623 54.672 48.5023 53.656 47.9743 52.328C47.4623 51 47.2063 49.408 47.2063 47.552C47.2063 45.744 47.4703 44.184 47.9983 42.872C48.5423 41.544 49.3103 40.528 50.3023 39.824C51.3103 39.12 52.4863 38.768 53.8303 38.768C55.1743 38.768 56.3423 39.12 57.3343 39.824C58.3263 40.528 59.0863 41.552 59.6143 42.896C60.1583 44.224 60.4303 45.824 60.4303 47.696C60.4303 49.504 60.1663 51.064 59.6383 52.376C59.1263 53.672 58.3743 54.672 57.3823 55.376C56.3903 56.08 55.2063 56.432 53.8303 56.432ZM53.8543 53.864C54.5743 53.864 55.1983 53.64 55.7263 53.192C56.2543 52.728 56.6623 52.04 56.9503 51.128C57.2383 50.216 57.3823 49.088 57.3823 47.744C57.3823 45.6 57.0703 44 56.4463 42.944C55.8223 41.872 54.9583 41.336 53.8543 41.336C53.1023 41.336 52.4623 41.568 51.9343 42.032C51.4063 42.496 50.9983 43.208 50.7103 44.168C50.4223 45.128 50.2783 46.336 50.2783 47.792C50.2783 49.792 50.5983 51.304 51.2383 52.328C51.8783 53.352 52.7503 53.864 53.8543 53.864ZM62.2727 45.176C62.7367 45.048 63.1207 44.816 63.4247 44.48C63.7447 44.128 63.9047 43.672 63.9047 43.112V42.608H62.2487V39.2H65.6807V42.656C65.6807 43.904 65.3607 44.856 64.7207 45.512C64.0807 46.152 63.2647 46.52 62.2727 46.616V45.176ZM71.6797 56.432C70.5917 56.432 69.6397 56.256 68.8237 55.904C68.0077 55.536 67.3677 55.016 66.9037 54.344C66.4557 53.672 66.1997 52.88 66.1357 51.968H69.1117C69.1437 52.672 69.3757 53.232 69.8077 53.648C70.2397 54.048 70.8397 54.248 71.6077 54.248C72.2637 54.248 72.7837 54.112 73.1677 53.84C73.5677 53.552 73.7677 53.184 73.7677 52.736C73.7677 52.352 73.6077 52.056 73.2877 51.848C72.9837 51.64 72.5037 51.472 71.8477 51.344L70.4317 51.056C69.1837 50.816 68.2317 50.4 67.5757 49.808C66.9197 49.216 66.5917 48.44 66.5917 47.48C66.5917 46.808 66.7917 46.2 67.1917 45.656C67.5917 45.112 68.1517 44.688 68.8717 44.384C69.6077 44.064 70.4477 43.904 71.3917 43.904C72.4317 43.904 73.3357 44.072 74.1037 44.408C74.8717 44.744 75.4717 45.224 75.9037 45.848C76.3357 46.456 76.5597 47.168 76.5757 47.984H73.6477C73.5997 47.408 73.3757 46.952 72.9757 46.616C72.5757 46.264 72.0477 46.088 71.3917 46.088C70.8317 46.088 70.3677 46.2 69.9997 46.424C69.6477 46.648 69.4717 46.96 69.4717 47.36C69.4717 47.712 69.6077 47.992 69.8797 48.2C70.1677 48.392 70.6797 48.56 71.4157 48.704L72.8317 48.992C74.0477 49.232 74.9837 49.64 75.6397 50.216C76.3117 50.792 76.6477 51.576 76.6477 52.568C76.6477 53.304 76.4397 53.968 76.0237 54.56C75.6237 55.152 75.0477 55.616 74.2957 55.952C73.5437 56.272 72.6717 56.432 71.6797 56.432ZM83.0788 44.288H86.0068V44.816C86.0068 45.248 85.9748 45.632 85.9108 45.968C86.2468 45.376 86.6948 44.888 87.2548 44.504C87.8148 44.104 88.4948 43.904 89.2948 43.904C89.9828 43.904 90.6068 44.128 91.1668 44.576C91.7268 45.008 92.1268 45.512 92.3668 46.088C92.7348 45.48 93.2548 44.968 93.9268 44.552C94.6148 44.12 95.3588 43.904 96.1588 43.904C96.9428 43.904 97.6388 44.104 98.2468 44.504C98.8548 44.888 99.3268 45.44 99.6628 46.16C100.015 46.864 100.191 47.688 100.191 48.632V56H97.2628V49.064C97.2628 48.2 97.0948 47.512 96.7588 47C96.4228 46.488 95.9428 46.232 95.3188 46.232C94.9028 46.232 94.5188 46.36 94.1668 46.616C93.8308 46.856 93.5668 47.2 93.3748 47.648C93.1828 48.096 93.0868 48.608 93.0868 49.184V56H90.1588V49.064C90.1588 48.184 89.9908 47.496 89.6548 47C89.3348 46.488 88.8548 46.232 88.2148 46.232C87.7988 46.232 87.4228 46.352 87.0868 46.592C86.7508 46.832 86.4868 47.176 86.2948 47.624C86.1028 48.072 86.0068 48.592 86.0068 49.184V56H83.0788V44.288ZM107.919 56.432C106.751 56.432 105.711 56.184 104.799 55.688C103.887 55.176 103.175 54.456 102.663 53.528C102.167 52.584 101.919 51.472 101.919 50.192C101.919 48.928 102.175 47.824 102.687 46.88C103.199 45.936 103.903 45.208 104.799 44.696C105.711 44.168 106.751 43.904 107.919 43.904C109.087 43.904 110.127 44.16 111.039 44.672C111.951 45.184 112.663 45.92 113.175 46.88C113.687 47.824 113.943 48.928 113.943 50.192C113.943 51.472 113.687 52.584 113.175 53.528C112.663 54.456 111.951 55.176 111.039 55.688C110.127 56.184 109.087 56.432 107.919 56.432ZM107.919 54.128C108.527 54.128 109.055 53.976 109.503 53.672C109.967 53.352 110.327 52.896 110.583 52.304C110.839 51.712 110.967 51.008 110.967 50.192C110.967 48.944 110.687 47.976 110.127 47.288C109.567 46.584 108.831 46.232 107.919 46.232C107.327 46.232 106.799 46.392 106.335 46.712C105.887 47.016 105.535 47.464 105.279 48.056C105.023 48.648 104.895 49.36 104.895 50.192C104.895 51.424 105.167 52.392 105.711 53.096C106.255 53.784 106.991 54.128 107.919 54.128ZM115.775 44.288H118.703V45.176C118.703 45.608 118.671 46.016 118.607 46.4C118.959 45.648 119.415 45.048 119.975 44.6C120.535 44.136 121.223 43.904 122.039 43.904C122.263 43.904 122.471 43.928 122.663 43.976V46.808C122.407 46.744 122.127 46.712 121.823 46.712C121.199 46.712 120.655 46.832 120.191 47.072C119.727 47.296 119.359 47.664 119.087 48.176C118.831 48.688 118.703 49.36 118.703 50.192V56H115.775V44.288ZM129.06 56.432C127.892 56.432 126.852 56.184 125.94 55.688C125.044 55.192 124.34 54.472 123.828 53.528C123.332 52.584 123.084 51.448 123.084 50.12C123.084 48.904 123.332 47.824 123.828 46.88C124.34 45.936 125.044 45.208 125.94 44.696C126.836 44.168 127.844 43.904 128.964 43.904C130.132 43.904 131.14 44.168 131.988 44.696C132.836 45.208 133.484 45.944 133.932 46.904C134.38 47.848 134.604 48.952 134.604 50.216V50.864H126.084C126.084 51.472 126.212 52.024 126.468 52.52C126.724 53.016 127.076 53.408 127.524 53.696C127.972 53.984 128.484 54.128 129.06 54.128C129.716 54.128 130.268 53.96 130.716 53.624C131.18 53.272 131.46 52.792 131.556 52.184H134.532C134.452 52.984 134.172 53.712 133.692 54.368C133.228 55.008 132.596 55.512 131.796 55.88C130.996 56.248 130.084 56.432 129.06 56.432ZM131.604 48.752C131.572 47.952 131.316 47.312 130.836 46.832C130.356 46.336 129.724 46.088 128.94 46.088C128.156 46.088 127.5 46.336 126.972 46.832C126.444 47.328 126.14 47.968 126.06 48.752H131.604Z" fill="white"/>
</g>
<defs>
<clipPath id="clip0_3892_9011">
<rect width="145" height="98" fill="white" transform="translate(0.5)"/>
</clipPath>
</defs>
</svg>
