<svg width="146" height="98" viewBox="0 0 146 98" fill="none" xmlns="http://www.w3.org/2000/svg">
<rect width="145" height="98" transform="translate(0.5)" fill="#0F0A16"/>
<path d="M47.606 29.7769C43.866 29.7769 40.069 31.2352 39.4365 32.0327C39.2715 32.3627 38.8889 35.0298 39.7964 35.0298C40.0989 35.0298 40.2377 35.0824 41.1177 34.6699C44.4177 33.3774 46.5085 33.4077 46.811 33.4077C50.5235 33.0502 52.6679 35.5815 52.3379 38.854V40.7769C49.2029 40.0344 47.4117 40.0088 46.5317 40.0088C41.9667 39.7338 37.75 42.1406 37.75 47.4317C37.75 53.2341 42.929 54.4751 44.9365 54.3926C47.934 54.4201 50.7949 53.0724 52.6924 50.7349C54.2049 54.1174 55.1678 53.8931 55.1953 53.8931C55.4703 53.8931 55.6897 53.7835 55.9097 53.646L57.478 52.5449C57.753 52.3799 57.9715 52.1069 57.999 51.7769C57.9715 50.9794 56.5409 49.7419 56.6509 46.9644V38.3867C56.8159 36.0217 56.0491 33.7074 54.4541 31.9199C52.5566 30.3249 50.0535 29.5569 47.606 29.7769ZM100.882 29.7769C95.3818 29.7769 92.2217 33.2131 92.3042 36.7056C92.3042 41.4906 97.1414 43.0074 97.6914 43.1724C102.339 44.6299 102.973 44.6827 104.266 45.7827C105.366 46.9102 105.227 49.1117 103.605 50.0742C103.137 50.3492 101.128 51.5571 96.5903 50.6221C95.0778 50.3196 94.2829 49.9629 93.0454 49.4404C92.7154 49.3304 91.9443 49.1373 91.9443 50.1548V51.5029C91.9443 52.1354 92.3283 52.7104 92.9058 52.9854C95.7933 54.4429 99.2585 54.5 100.001 54.5C100.111 54.5 106.434 54.5034 108.552 50.2354C108.989 49.3554 110.121 46.1426 108.004 43.3926C106.244 41.3301 104.731 41.1099 100.221 39.7349C99.8362 39.6249 96.5091 38.7691 96.5366 36.4316C96.3716 33.4341 100.443 33.2722 101.295 33.3272C104.733 33.2722 106.435 34.5606 107.37 34.6431C107.783 34.6431 107.977 34.3982 107.977 33.8482V32.5806C108.005 32.2781 107.895 31.9794 107.73 31.7319C106.63 30.3019 102.422 29.7769 100.882 29.7769ZM59.1377 30.4644C58.8352 30.5194 58.6154 30.8225 58.6704 31.125C58.7254 31.4825 58.78 31.8417 58.9175 32.1992L65.0781 52.5181C65.2156 53.1781 65.6518 53.8956 66.6143 53.7856H68.8701C70.2451 53.9231 70.4378 52.6019 70.4653 52.4644L74.5098 35.5239L78.6079 52.4912C78.6354 52.6287 78.8288 53.95 80.1763 53.8125H82.459C83.449 53.9225 83.9167 53.2049 84.0542 52.5449C90.9842 30.2424 90.5143 31.7586 90.5693 31.5386C90.6793 30.3836 90.0187 30.4637 89.9087 30.4912H87.4595C86.222 30.3537 85.9783 31.4838 85.9233 31.7588L81.3579 49.3867L77.2329 31.7588C77.0404 30.4113 75.9396 30.4637 75.6646 30.4912H73.5483C72.3383 30.3812 72.0356 31.3463 71.9531 31.7588L67.855 49.1397L63.4561 31.7588C63.3461 31.2088 62.9871 30.3544 61.9146 30.4644H59.1377ZM47.4395 43.1992C49.4195 43.2267 51.1285 43.5258 52.311 43.8008C52.311 45.1758 52.3611 45.9471 52.0586 47.1846C51.6736 48.5046 49.972 50.9001 45.957 50.9551C43.647 51.0651 42.135 49.2471 42.2725 47.1846C42.135 43.8846 45.542 43.0617 47.4395 43.1992ZM109.363 60.0054C106.796 60.0411 103.766 60.6161 101.467 62.229C100.758 62.7213 100.882 63.4047 101.671 63.314C104.256 63.0032 110.01 62.3056 111.039 63.6201C112.07 64.9346 109.898 70.3577 108.938 72.7832C108.641 73.5065 109.269 73.8059 109.932 73.2559C114.233 69.6534 115.351 62.1014 114.471 61.0151C114.029 60.472 111.93 59.9696 109.363 60.0054ZM32.8462 62.7554C32.2465 62.8379 31.9882 63.5979 32.6152 64.2002C43.387 74.3037 57.6206 79.25 73.4248 79.25C84.6971 79.25 97.7831 75.5721 106.817 68.6421C108.31 67.4898 107.038 65.7633 105.506 66.4453C95.3781 70.9141 84.3775 73.0679 74.3647 73.0679C59.5257 73.0679 45.1606 69.9699 33.5391 62.9326C33.2847 62.7786 33.0461 62.7279 32.8462 62.7554Z" fill="white"/>
</svg>
