<svg width="146" height="98" viewBox="0 0 146 98" fill="none" xmlns="http://www.w3.org/2000/svg">
<rect width="145" height="98" transform="translate(0.5)" fill="#0F0A16"/>
<g clip-path="url(#clip0_3892_8997)">
<mask id="mask0_3892_8997" style="mask-type:luminance" maskUnits="userSpaceOnUse" x="11" y="29" width="124" height="40">
<path d="M134.866 29H11V69H134.866V29Z" fill="white"/>
</mask>
<g mask="url(#mask0_3892_8997)">
<path d="M42.1104 29C35.465 29.0028 28.1471 33.0471 23.5531 36.8769L23.9163 37.3991C31.047 32.4262 40.9471 29.1919 43.6768 34.0434C45.1181 36.6032 42.6694 41.7708 39.2275 45.8574C40.0533 44.054 39.5084 40.5882 34.7074 40.5882C26.7169 40.5882 11 51.1096 11 61.8739C11 66.189 14.0078 69 18.9592 69C32.2217 69 50.2086 47.3758 50.2086 36.5157C50.2086 32.6831 47.9899 29 42.1104 29ZM35.9956 49.405L34.7641 50.7597C30.3518 55.0693 26.2601 57.3694 23.4964 57.3694C21.2037 57.3694 20.0999 55.614 20.6731 53.5848C21.862 49.3796 29.5034 43.1424 34.7074 43.1424C38.5125 43.1424 38.2202 46.5206 35.9956 49.405Z" fill="white"/>
<path d="M71.8278 45.2508V47.6666L72.316 45.8576C73.051 43.1256 72.2535 41.3899 71.4532 40.4162C70.2304 38.9232 68.2554 38.2572 66.8422 38.2572H59.0846L57.7679 43.1425H65.0832L65.7839 43.2159C65.7926 43.2159 66.4592 43.2921 66.8254 43.7888C67.1262 44.2009 67.1686 44.819 66.953 45.6261L66.6069 46.9103H61.9988C58.0318 46.9103 52.5016 49.741 51.27 54.3131C50.6572 56.5935 51.1936 58.569 52.3854 60.0197C53.5684 61.4619 55.7959 62.2548 58.205 62.2548H62.4724H62.4699H67.8951L70.4402 52.8032L71.4645 48.9988L71.8249 47.6638V45.2508H71.8278ZM63.7863 57.3696H59.184C58.4151 57.3696 57.7708 57.0987 57.368 56.6132C56.9478 56.0996 56.8232 55.3742 57.0245 54.6235C57.4645 52.9923 59.2293 51.7166 61.0424 51.7166H65.3102L63.7863 57.3696Z" fill="white"/>
<path d="M124.355 47.5476C122.619 46.6191 120.984 45.7414 121.271 44.6774C121.444 44.0367 122.088 43.1364 123.49 43.1364H130.533L131.849 38.251H124.73C122.633 38.251 120.683 38.8691 119.097 40.0376C117.497 41.2173 116.612 42.634 116.087 44.587C114.946 48.8233 118.292 50.8666 120.982 52.3144C122.908 53.353 124.577 54.2505 124.216 55.5769C123.961 56.5309 123.541 57.3635 121.169 57.3635H113.928L112.614 62.2458H120.63C122.78 62.2458 124.761 61.8 126.362 60.5808C127.962 59.356 128.867 57.6485 129.426 55.5685C129.962 53.5844 129.599 51.6935 128.316 50.2796C127.25 49.0998 125.712 48.2757 124.355 47.5476Z" fill="white"/>
<path d="M86.2876 50.2852C85.2208 49.0998 83.68 48.2757 82.3238 47.5476C80.5901 46.6191 78.9528 45.7414 79.2423 44.6774C79.4152 44.0367 80.0594 43.1364 81.4584 43.1364H88.4982L89.8176 38.251H82.701C80.604 38.251 78.6546 38.8691 77.0656 40.0376C75.4653 41.2173 74.583 42.634 74.0524 44.587C73.5558 46.4272 73.9077 47.8524 74.685 48.9954C75.6952 50.4856 77.4289 51.4959 78.9499 52.3144C80.8795 53.353 82.5449 54.2505 82.1846 55.5769C81.9266 56.5309 81.5092 57.3635 79.137 57.3635H71.8958L70.5791 62.2458H78.5951C80.7461 62.2458 82.7295 61.8 84.3298 60.5808C85.9331 59.356 86.8354 57.6485 87.3942 55.5685C87.9278 53.5901 87.5645 51.6992 86.2876 50.2852Z" fill="white"/>
<path d="M93.6372 38.2544L87.3491 62.2548H92.661L98.9433 38.2544H93.6372Z" fill="white"/>
<path d="M112.072 43.1397H114.921L116.237 38.2544H113.073C103.724 38.2882 98.8294 44.4831 97.2743 50.2546C95.4328 57.0958 99.0932 62.2548 105.792 62.2548H110.281L111.595 57.3724H107.109C104.601 57.3724 101.156 55.4081 102.544 50.2575C103.65 46.1567 107.665 43.1397 112.072 43.1397Z" fill="white"/>
<path d="M132.445 57.4565C131.784 57.4565 131.214 57.688 130.746 58.1565C130.275 58.625 130.042 59.1894 130.042 59.8498C130.042 60.5187 130.275 61.086 130.743 61.5545C131.211 62.0229 131.782 62.26 132.451 62.26C133.121 62.26 133.691 62.0258 134.162 61.5545C134.633 61.0832 134.872 60.5159 134.872 59.8498C134.872 59.1866 134.636 58.6222 134.165 58.1565C133.688 57.688 133.115 57.4565 132.445 57.4565ZM133.918 61.3174C133.515 61.7239 133.027 61.9242 132.448 61.9242C131.872 61.9242 131.384 61.721 130.975 61.3174C130.576 60.911 130.374 60.4228 130.374 59.847C130.374 59.2769 130.576 58.7915 130.978 58.3851C131.387 57.9787 131.875 57.7783 132.445 57.7783C133.021 57.7783 133.512 57.9787 133.918 58.3851C134.324 58.7887 134.525 59.2741 134.525 59.847C134.525 60.4228 134.324 60.9138 133.918 61.3174Z" fill="white"/>
<path d="M133.5 60.9878C133.497 60.9173 133.492 60.8524 133.495 60.7903V60.5984C133.492 60.4657 133.446 60.3302 133.35 60.1891C133.254 60.048 133.1 59.9633 132.893 59.9295C133.055 59.9041 133.185 59.8618 133.279 59.8025C133.452 59.6896 133.537 59.5202 133.537 59.2832C133.537 58.953 133.401 58.73 133.129 58.6171C132.975 58.5551 132.734 58.524 132.405 58.524H131.477V61.1572H131.942V60.1186H132.311C132.561 60.1186 132.734 60.1468 132.828 60.2004C132.995 60.2992 133.08 60.5024 133.08 60.8072V61.0161L133.089 61.1007C133.092 61.112 133.095 61.1233 133.097 61.1318C133.1 61.1402 133.103 61.1459 133.103 61.1543H133.54L133.526 61.1233C133.514 61.1035 133.506 61.0584 133.5 60.9878ZM132.805 59.7376C132.706 59.7742 132.558 59.7968 132.363 59.7968H131.94V58.8429H132.337C132.595 58.8429 132.785 58.874 132.902 58.9389C133.021 59.0038 133.08 59.1336 133.08 59.3227C133.08 59.5287 132.987 59.6642 132.805 59.7376Z" fill="white"/>
</g>
</g>
<defs>
<clipPath id="clip0_3892_8997">
<rect width="124" height="40" fill="white" transform="translate(11 29)"/>
</clipPath>
</defs>
</svg>
