<svg width="146" height="98" viewBox="0 0 146 98" fill="none" xmlns="http://www.w3.org/2000/svg">
<rect width="145" height="98" transform="translate(0.5)" fill="#0F0A16"/>
<path d="M27.3951 63.3514C20.2916 63.3514 14.5142 57.5791 14.5142 50.4821C14.5142 43.3851 20.2939 37.6128 27.3951 37.6128C34.4962 37.6128 40.2759 43.3851 40.2759 50.4821C40.2759 57.5791 34.4985 63.3514 27.3951 63.3514ZM27.3951 38.7393C20.914 38.7393 15.6417 44.0069 15.6417 50.4821C15.6417 56.9572 20.914 62.2248 27.3951 62.2248C33.8761 62.2248 39.1485 56.9572 39.1485 50.4821C39.1506 44.0069 33.8761 38.7393 27.3951 38.7393Z" fill="white"/>
<path d="M29.1789 43.1553H27.8326V43.1575L24.8446 43.1553C24.3598 43.1553 23.9494 43.5067 23.875 43.9844L23.5705 45.94L23.5683 45.9558L22.116 45.9513H22.1138C21.7259 45.9513 21.4124 46.2644 21.4102 46.652C21.4102 47.0395 21.7236 47.3549 22.1115 47.3572L23.3473 47.3639L23.133 48.7202L23.1173 48.8216H21.665C21.2771 48.8216 20.9614 49.137 20.9614 49.5246C20.9614 49.9121 21.2771 50.2275 21.665 50.2275H22.8963L22.231 54.4496L22.0168 55.8578L21.904 56.608C21.8138 57.2006 22.2739 57.7346 22.8737 57.7346H23.8118H25.095H26.1255C26.6081 57.7346 27.0185 57.3853 27.0952 56.91L27.7198 53.0258H28.0897H29.2578C32.0112 53.0258 34.246 50.7615 34.1942 47.997C34.1467 45.2934 31.8827 43.1553 29.1789 43.1553ZM24.7747 47.3662L29.1586 47.3774C29.5555 47.3774 29.8802 47.7019 29.8802 48.0984C29.8802 48.4949 29.5555 48.8194 29.1586 48.8194H24.5447L24.7747 47.3662ZM29.1946 51.6131H28.446H28.0919H27.3568C26.8742 51.6131 26.4638 51.9623 26.3871 52.4377L25.7602 56.3219H23.3766L24.3237 50.2252H29.1586C30.3312 50.2252 31.2873 49.2722 31.2873 48.0984C31.2873 46.9246 30.3335 45.9715 29.1608 45.9715L24.9957 45.9603L25.2145 44.5657L29.26 44.5634C31.2332 44.5634 32.8321 46.1901 32.787 48.1727C32.7418 50.0991 31.1205 51.6131 29.1946 51.6131Z" fill="white"/>
<path d="M45.7324 55.9276V45.4668C45.7324 45.2325 45.8587 45.1064 46.0932 45.1064H49.0519C50.4749 45.1064 51.165 45.1694 52.0399 45.6381C53.0094 46.154 53.5732 47.1859 53.5732 48.4521C53.5732 49.6101 53.12 50.642 52.2113 51.2503C51.2574 51.8902 50.1772 51.8902 49.0337 51.8902H47.719V55.9254C47.719 56.1597 47.595 56.2858 47.3582 56.2858H46.091C45.8587 56.2858 45.7324 56.1619 45.7324 55.9276ZM49.3945 50.1734C50.6305 50.1734 51.6023 49.7048 51.6023 48.4701C51.6023 47.3594 50.8514 46.8434 49.3021 46.8434H47.7213V50.1734H49.3945Z" fill="white"/>
<path d="M54.2007 54.0035C54.2007 52.2845 56.0317 51.6424 57.784 51.3923C58.4718 51.2819 59.5676 51.1895 59.6623 51.1738C59.6307 49.8129 59.146 49.297 58.0658 49.297C57.1435 49.297 56.6405 49.7025 56.4693 50.3131C56.4062 50.5316 56.2979 50.642 56.0792 50.642H54.9673C54.717 50.642 54.6223 50.5474 54.6223 50.3762C54.6223 50.2658 54.6696 50.0946 54.7014 49.9864C55.0622 48.736 56.2504 47.8123 58.1133 47.8123C60.1157 47.8123 61.5093 48.6414 61.5093 51.4396V53.7377C61.5093 54.6434 61.5408 55.1909 61.6039 55.7384C61.6198 55.8488 61.6514 55.9727 61.6514 56.0515C61.6514 56.2228 61.5274 56.2858 61.3063 56.2858H60.2736C60.0547 56.2858 59.9127 56.1755 59.8969 55.9569C59.8653 55.7541 59.8496 55.4883 59.8496 55.1909C59.3964 55.8623 58.4559 56.4413 57.1255 56.4413C55.4207 56.4436 54.2007 55.5514 54.2007 54.0035ZM59.6782 52.8455C59.6782 52.8297 59.6782 52.6585 59.6939 52.5008L59.2722 52.5481C57.1909 52.7824 56.237 53.0798 56.237 53.9562C56.237 54.7065 56.8008 55.0827 57.6621 55.0827C59.0354 55.0827 59.6782 54.2379 59.6782 52.8455Z" fill="white"/>
<path d="M64.5756 58.8498C64.5756 58.8024 64.6072 58.7259 64.6703 58.5839L65.7346 56.0673L62.8077 48.5152C62.7759 48.4363 62.7603 48.389 62.7603 48.344C62.7603 48.1885 62.8865 48.0781 63.0895 48.0781H64.4199C64.6229 48.0781 64.7807 48.1727 64.8418 48.3755L66.7359 53.9427L68.646 48.3755C68.7091 48.1727 68.8488 48.0781 69.0518 48.0781H70.3349C70.5379 48.0781 70.6642 48.1727 70.6642 48.3282C70.6642 48.3755 70.6485 48.4386 70.6169 48.5152L66.5014 58.8183C66.4224 59.0052 66.2984 59.0998 66.0954 59.0998H64.9072C64.7019 59.0998 64.5756 59.0075 64.5756 58.8498Z" fill="white"/>
<path d="M72.2451 55.9276V45.4668C72.2451 45.2325 72.3714 45.1064 72.6059 45.1064H75.5644C76.9874 45.1064 77.6775 45.1694 78.5523 45.6381C79.5221 46.154 80.0859 47.1859 80.0859 48.4521C80.0859 49.6101 79.6325 50.642 78.7238 51.2503C77.7699 51.8902 76.6897 51.8902 75.5464 51.8902H74.2317V55.9254C74.2317 56.1597 74.1077 56.2858 73.8709 56.2858H72.6037C72.3691 56.2858 72.2451 56.1619 72.2451 55.9276ZM75.9072 50.1734C77.1429 50.1734 78.115 49.7048 78.115 48.4701C78.115 47.3594 77.3641 46.8434 75.8148 46.8434H74.234V50.1734H75.9072Z" fill="white"/>
<path d="M80.8999 54.0035C80.8999 52.2845 82.731 51.6424 84.483 51.3923C85.171 51.2819 86.2668 51.1895 86.3615 51.1738C86.33 49.8129 85.8452 49.297 84.765 49.297C83.8427 49.297 83.342 49.7025 83.1685 50.3131C83.1052 50.5316 82.9971 50.642 82.7782 50.642H81.6665C81.4163 50.642 81.3216 50.5474 81.3216 50.3762C81.3216 50.2658 81.3688 50.0946 81.4004 49.9864C81.7612 48.736 82.9496 47.8123 84.8123 47.8123C86.8148 47.8123 88.2085 48.6414 88.2085 51.4396V53.7377C88.2085 54.6434 88.24 55.1909 88.3032 55.7384C88.3191 55.8488 88.3506 55.9727 88.3506 56.0515C88.3506 56.2228 88.2244 56.2858 88.0055 56.2858H86.9728C86.7539 56.2858 86.612 56.1755 86.5961 55.9569C86.5645 55.7541 86.5488 55.4883 86.5488 55.1909C86.0954 55.8623 85.1551 56.4413 83.8247 56.4413C82.1197 56.4436 80.8999 55.5514 80.8999 54.0035ZM86.3774 52.8455C86.3774 52.8297 86.3774 52.6585 86.3931 52.5008L85.9714 52.5481C83.8901 52.7824 82.9362 53.0798 82.9362 53.9562C82.9362 54.7065 83.4998 55.0827 84.3613 55.0827C85.7346 55.0827 86.3774 54.2379 86.3774 52.8455Z" fill="white"/>
<path d="M90.3535 55.9276V45.4668C90.3535 45.2325 90.4775 45.1064 90.7143 45.1064H91.9028C92.1371 45.1064 92.2636 45.2325 92.2636 45.4668V55.9276C92.2636 56.1619 92.1394 56.2881 91.9028 56.2881H90.7143C90.4775 56.2858 90.3535 56.1619 90.3535 55.9276Z" fill="white"/>
<path d="M99.2275 55.0196C98.4922 54.0035 98.4766 52.8455 98.4766 51.9713V45.4668C98.4766 45.2325 98.6005 45.1064 98.8374 45.1064H100.105C100.339 45.1064 100.465 45.2325 100.465 45.4668V51.8609C100.465 52.5954 100.465 53.1902 100.747 53.7377C101.077 54.364 101.78 54.8011 102.626 54.8011C103.472 54.8011 104.175 54.364 104.504 53.7377C104.786 53.1902 104.786 52.5796 104.786 51.8609V45.4668C104.786 45.2325 104.91 45.1064 105.147 45.1064H106.414C106.649 45.1064 106.775 45.2325 106.775 45.4668V51.9713C106.775 52.8477 106.759 54.0035 106.024 55.0196C105.352 55.9569 104.037 56.5359 102.628 56.5359C101.198 56.5359 99.8994 55.9569 99.2275 55.0196Z" fill="white"/>
<path d="M108.586 53.7219C108.57 53.6431 108.538 53.4876 108.538 53.393C108.538 53.1744 108.678 53.1113 108.883 53.1113H110.119C110.322 53.1113 110.448 53.206 110.509 53.4245C110.823 54.3009 111.637 54.8462 112.809 54.8462C114.124 54.8462 114.828 54.159 114.828 53.1564C114.828 52.1403 114.029 51.8744 112.778 51.5297L112.042 51.3269C110.18 50.811 108.865 49.9188 108.865 48.0601C108.865 46.2013 110.477 44.854 112.746 44.854C114.812 44.854 116.126 45.8701 116.516 47.4022C116.548 47.5126 116.564 47.605 116.564 47.6838C116.564 47.8708 116.469 47.997 116.219 47.997H115.03C114.828 47.997 114.701 47.9024 114.625 47.6996C114.343 46.9966 113.716 46.5731 112.699 46.5731C111.587 46.5731 110.947 47.1521 110.947 47.9497C110.947 48.8712 111.776 49.2001 112.917 49.5606L113.7 49.8107C115.452 50.3739 116.877 50.9214 116.877 53.0325C116.877 55.112 115.172 56.5202 112.746 56.5202C110.574 56.5202 108.915 55.3644 108.586 53.7219Z" fill="white"/>
<path d="M118.759 55.9276V45.4668C118.759 45.2325 118.886 45.1064 119.12 45.1064H121.202C122.656 45.1064 124.442 45.1064 125.818 45.9828C127.243 46.8885 128.134 48.6887 128.134 50.7209C128.134 52.5661 127.383 54.1612 126.178 55.13C124.74 56.2881 123.175 56.2881 121.312 56.2881H119.122C118.883 56.2858 118.759 56.1619 118.759 55.9276ZM121.842 54.5668C124.519 54.5668 126.084 53.598 126.084 50.7209C126.084 48.1885 124.55 46.8592 122.045 46.8592C121.56 46.8592 121.168 46.8592 120.746 46.875V54.5668H121.842Z" fill="white"/>
</svg>
