<svg width="146" height="98" viewBox="0 0 146 98" fill="none" xmlns="http://www.w3.org/2000/svg">
<rect width="145" height="98" transform="translate(0.5)" fill="#0F0A16"/>
<g clip-path="url(#clip0_3892_8980)">
<path d="M51.7415 51.2035C50.5665 50.5563 49.9481 50.0324 49.9481 49.2928C49.9481 48.3375 50.783 47.752 52.1126 47.752C53.6586 47.752 55.0191 48.3991 55.0191 48.3991L56.1014 45.1017C56.1014 45.1017 55.1119 44.3313 52.1744 44.3313C48.0929 44.3313 45.2481 46.6734 45.2481 49.94C45.2481 51.789 46.5777 53.2066 48.3402 54.2235C49.7626 55.0248 50.2573 55.6103 50.2573 56.4423C50.2573 57.336 49.5461 58.0448 48.2165 58.0448C46.2376 58.0448 44.3824 57.0279 44.3824 57.0279L43.2383 60.3253C43.2383 60.3253 44.9699 61.4655 47.8455 61.4655C52.0507 61.4655 55.0501 59.4008 55.0501 55.7027C55.1119 53.6688 53.5659 52.2512 51.7415 51.2035Z" fill="#D0D0DC"/>
<path d="M68.5002 44.2697C66.4285 44.2697 64.8206 45.2559 63.5528 46.7351L63.491 46.7043L65.2844 37.3359H60.5844L56.0391 61.1574H60.7081L62.2542 53.0218C62.8726 49.9401 64.4495 48.0602 65.9338 48.0602C66.9851 48.0602 67.387 48.769 67.387 49.786C67.387 50.4331 67.3252 51.2036 67.1706 51.8507L65.4081 61.1883H70.0772L71.9015 51.5734C72.1179 50.5564 72.2416 49.3545 72.2416 48.5225C72.3035 45.8414 70.9429 44.2697 68.5002 44.2697Z" fill="#D0D0DC"/>
<path d="M82.8778 44.2697C77.2502 44.2697 73.5088 49.3237 73.5088 54.9632C73.5088 58.5688 75.7351 61.4964 79.9403 61.4964C85.4752 61.4964 89.1857 56.5657 89.1857 50.8029C89.2166 47.4439 87.2686 44.2697 82.8778 44.2697ZM80.5897 57.8908C78.9818 57.8908 78.3324 56.5349 78.3324 54.8399C78.3324 52.1589 79.7239 47.8137 82.2594 47.8137C83.9291 47.8137 84.4548 49.2312 84.4548 50.618C84.4548 53.5148 83.0633 57.8908 80.5897 57.8908Z" fill="#D0D0DC"/>
<path d="M101.185 44.2698C98.0311 44.2698 96.2377 47.0433 96.2377 47.0433H96.1758L96.4541 44.5471H92.3107C92.0943 46.2421 91.7232 48.7999 91.3522 50.7413L88.1055 67.7523H92.7745L94.0732 60.8493H94.166C94.166 60.8493 95.1245 61.4657 96.9179 61.4657C102.422 61.4657 106.009 55.857 106.009 50.1866C106.009 47.0741 104.617 44.2698 101.185 44.2698ZM96.7324 57.9833C95.5265 57.9833 94.8153 57.3054 94.8153 57.3054L95.5883 52.9602C96.1449 50.0634 97.66 48.1219 99.2679 48.1219C100.69 48.1219 101.123 49.447 101.123 50.6797C101.123 53.669 99.3298 57.9833 96.7324 57.9833Z" fill="#D0D0DC"/>
<path d="M112.685 37.5824C111.201 37.5824 109.995 38.7535 109.995 40.2943C109.995 41.6811 110.861 42.6364 112.191 42.6364H112.252C113.706 42.6364 114.973 41.6503 115.004 39.9245C115.035 38.5378 114.108 37.5824 112.685 37.5824Z" fill="#D0D0DC"/>
<path d="M106.132 61.1573H110.832L114.017 44.6394H109.286L106.132 61.1573Z" fill="#D0D0DC"/>
<path d="M125.889 44.6088H122.642L122.797 43.8384C123.075 42.2359 124.003 40.8183 125.579 40.8183C126.414 40.8183 127.064 41.0648 127.064 41.0648L127.991 37.4284C127.991 37.4284 127.187 37.0278 125.456 37.0278C123.786 37.0278 122.147 37.4901 120.88 38.5687C119.272 39.9246 118.53 41.8661 118.158 43.8384L118.035 44.6088H115.87L115.19 48.1219H117.355L114.881 61.1575H119.55L122.024 48.1219H125.239L125.889 44.6088Z" fill="#D0D0DC"/>
<path d="M137.146 44.6394C137.146 44.6394 134.208 51.9738 132.91 55.98H132.848C132.755 54.6857 131.704 44.6394 131.704 44.6394H126.787L129.601 59.8013C129.663 60.1403 129.632 60.356 129.509 60.5718C128.952 61.6195 128.055 62.6365 126.973 63.3761C126.107 64.0233 125.118 64.4239 124.345 64.7012L125.643 68.6458C126.602 68.4301 128.55 67.6597 130.22 66.1188C132.353 64.1157 134.332 61.0648 136.342 56.8737L142.062 44.6394H137.146Z" fill="#D0D0DC"/>
<path d="M27.1298 33.9149C27.1298 33.9149 26.6969 34.0381 25.9858 34.2539C25.8621 33.8532 25.6765 33.391 25.4292 32.8979C24.6252 31.3571 23.4193 30.525 21.997 30.525C21.9042 30.525 21.8114 30.525 21.6877 30.5558C21.6568 30.4942 21.595 30.4634 21.5641 30.4017C20.9456 29.7238 20.1417 29.4156 19.1832 29.4464C17.3279 29.508 15.4726 30.8332 13.9884 33.2061C12.9371 34.8702 12.1332 36.9657 11.9167 38.5991C9.7832 39.2462 8.29899 39.7085 8.26807 39.7393C7.18584 40.0783 7.15492 40.1091 7.03124 41.126C6.93847 41.8965 4.09375 63.5916 4.09375 63.5916L27.47 67.6287V33.8841C27.2844 33.8841 27.1917 33.9149 27.1298 33.9149ZM21.7187 35.579C20.4818 35.9488 19.1213 36.3802 17.7917 36.7808C18.1628 35.3324 18.9049 33.8841 19.7707 32.9287C20.1108 32.5897 20.5746 32.1891 21.1003 31.9426C21.6259 33.052 21.7496 34.562 21.7187 35.579ZM19.1832 30.7099C19.616 30.7099 19.9871 30.8024 20.2963 30.9873C19.8016 31.2338 19.3068 31.6344 18.843 32.0967C17.668 33.3602 16.7713 35.3324 16.4003 37.2123C15.2871 37.5513 14.174 37.8903 13.1536 38.1984C13.8338 35.24 16.3384 30.7715 19.1832 30.7099ZM15.5963 47.6592C15.72 49.6315 20.9456 50.063 21.2549 54.7163C21.4713 58.3836 19.3068 60.8797 16.1838 61.0646C12.4115 61.3112 10.3398 59.0924 10.3398 59.0924L11.1437 55.7025C11.1437 55.7025 13.2154 57.2741 14.8851 57.1509C15.9674 57.0892 16.3694 56.1956 16.3384 55.5792C16.1838 52.9906 11.9167 53.1447 11.6385 48.8919C11.3911 45.3172 13.7411 41.7116 18.9358 41.3726C20.9456 41.2493 21.966 41.7424 21.966 41.7424L20.791 46.18C20.791 46.18 19.4614 45.5637 17.8845 45.687C15.5963 45.841 15.5654 47.2894 15.5963 47.6592ZM22.9555 35.2092C22.9555 34.2847 22.8318 32.9595 22.3989 31.8501C23.8213 32.1275 24.5016 33.6991 24.8108 34.6545C24.2542 34.8086 23.6358 34.9935 22.9555 35.2092Z" fill="#D0D0DC"/>
<path d="M28.1807 67.567L37.8898 65.1633C37.8898 65.1633 33.7155 37.0274 33.6846 36.8425C33.6537 36.6576 33.4991 36.5343 33.3445 36.5343C33.1899 36.5343 30.4688 36.4727 30.4688 36.4727C30.4688 36.4727 28.7991 34.8702 28.1807 34.2539V67.567Z" fill="#D0D0DC"/>
</g>
<defs>
<clipPath id="clip0_3892_8980">
<rect width="138" height="39.2917" fill="white" transform="translate(4 29.3542)"/>
</clipPath>
</defs>
</svg>
