<svg width="146" height="98" viewBox="0 0 146 98" fill="none" xmlns="http://www.w3.org/2000/svg">
<g clip-path="url(#clip0_3892_8970)">
<rect width="145" height="98" transform="translate(0.5)" fill="#0F0A16"/>
<path fill-rule="evenodd" clip-rule="evenodd" d="M128.884 49.6571C128.884 41.8333 125.069 35.6598 117.777 35.6598C110.454 35.6598 106.023 41.8333 106.023 49.596C106.023 58.7951 111.254 63.4405 118.761 63.4405C122.423 63.4405 125.192 62.6153 127.284 61.4539V55.3416C125.192 56.3807 122.792 57.0225 119.746 57.0225C116.761 57.0225 114.115 55.9834 113.777 52.3771H128.823C128.823 51.9798 128.884 50.3906 128.884 49.6571ZM113.684 46.7537C113.684 43.3002 115.808 41.8638 117.746 41.8638C119.623 41.8638 121.623 43.3002 121.623 46.7537H113.684ZM94.146 35.6598C91.1306 35.6598 89.1922 37.0656 88.1152 38.0436L87.7152 36.1488H80.946V71.7838L88.6383 70.1641L88.6691 61.5151C89.7768 62.3097 91.4075 63.4405 94.1152 63.4405C99.6229 63.4405 104.638 59.0396 104.638 49.3515C104.608 40.4886 99.5306 35.6598 94.146 35.6598ZM92.2999 56.7169C90.4845 56.7169 89.4075 56.0751 88.6691 55.2805L88.6383 43.942C89.4383 43.0557 90.546 42.4445 92.2999 42.4445C95.0998 42.4445 97.0383 45.5618 97.0383 49.5654C97.0383 53.6607 95.1306 56.7169 92.2999 56.7169ZM70.3614 33.8566L78.0845 32.2063V26.0023L70.3614 27.622V33.8566ZM70.3614 36.1793H78.0845V62.9209H70.3614V36.1793ZM62.0845 38.4409L61.5922 36.1793H54.946V62.9209H62.6383V44.7978C64.4537 42.4445 67.5306 42.8724 68.4845 43.2086V36.1793C67.4998 35.8126 63.8998 35.1402 62.0845 38.4409ZM46.6998 29.5474L39.1922 31.1366L39.1614 55.6166C39.1614 60.1398 42.5768 63.471 47.1306 63.471C49.6537 63.471 51.4998 63.0126 52.5152 62.4625V56.2584C51.5306 56.6557 46.6691 58.0616 46.6691 53.5384V42.689H52.5152V36.1793H46.6691L46.6998 29.5474ZM25.8999 43.942C25.8999 42.7501 26.8845 42.2917 28.5152 42.2917C30.8537 42.2917 33.8075 42.9946 36.146 44.2477V37.0656C33.5922 36.0571 31.0691 35.6598 28.5152 35.6598C22.2691 35.6598 18.1152 38.8993 18.1152 44.3088C18.1152 52.7438 29.8075 51.3991 29.8075 55.036C29.8075 56.4418 28.5768 56.9002 26.8537 56.9002C24.2998 56.9002 21.0383 55.8611 18.4537 54.4553V61.729C21.3152 62.9515 24.2075 63.471 26.8537 63.471C33.2537 63.471 37.6537 60.3232 37.6537 54.8526C37.6229 45.7452 25.8999 47.365 25.8999 43.942Z" fill="white"/>
</g>
<defs>
<clipPath id="clip0_3892_8970">
<rect width="145" height="98" fill="white" transform="translate(0.5)"/>
</clipPath>
</defs>
</svg>
