<svg width="146" height="98" viewBox="0 0 146 98" fill="none" xmlns="http://www.w3.org/2000/svg">
<rect width="145" height="98" transform="translate(0.5)" fill="#0F0A16"/>
<g clip-path="url(#clip0_3892_8953)">
<path d="M88.1178 33.6951C81.0248 33.6951 74.6858 37.286 74.6858 43.9189C74.6858 51.5263 85.9278 52.0517 85.9278 55.874C85.9278 57.4834 84.0398 58.9239 80.8138 58.9239C76.2368 58.9239 72.8158 56.9112 72.8158 56.9112L71.3518 63.6056C71.3518 63.6056 75.2928 65.3058 80.5248 65.3058C88.2798 65.3058 94.3828 61.5391 94.3828 54.792C94.3828 46.7529 83.0938 46.2431 83.0938 42.6962C83.0938 41.4354 84.6438 40.0546 87.8598 40.0546C91.4888 40.0546 94.4488 41.5184 94.4488 41.5184L95.8818 35.0535C95.8818 35.0535 92.6598 33.6951 88.1168 33.6951H88.1178ZM23.2208 34.1834L23.0488 35.159C23.0488 35.159 26.0328 35.6922 28.7208 36.7567C32.1818 37.9764 32.4278 38.6874 33.0108 40.8925L39.3618 64.8019H47.8758L60.9918 34.1834H52.4978L44.0698 55.001L40.6308 37.3543C40.3158 35.3348 38.7178 34.1824 36.7628 34.1824H23.2218L23.2208 34.1834ZM64.4078 34.1834L57.7448 64.8019H65.8448L72.4838 34.1834H64.4078ZM109.584 34.1834C107.631 34.1834 106.596 35.2049 105.837 36.9891L93.9698 64.8019H102.464L104.107 60.1661H114.455L115.454 64.8019H122.949L116.411 34.1834H109.584ZM110.689 42.456L113.207 53.9453H106.462L110.69 42.456H110.689Z" fill="#D0D0DC"/>
</g>
<defs>
<clipPath id="clip0_3892_8953">
<rect width="100" height="31.7073" fill="white" transform="translate(23 33.6463)"/>
</clipPath>
</defs>
</svg>
