<svg width="22" height="22" fill="none" xmlns="http://www.w3.org/2000/svg"><path opacity=".9" fill-rule="evenodd" clip-rule="evenodd" d="M19.627 7.722c.376 0 .68.31.68.693v10.67a.687.687 0 0 1-.68.693H2.373a.687.687 0 0 1-.68-.693V8.415c0-.383.304-.693.68-.693h17.254ZM22 8.415C22 7.08 20.938 6 19.627 6H2.373C1.063 6 0 7.081 0 8.415v10.67C0 20.42 1.062 21.5 2.373 21.5h17.254c1.31 0 2.373-1.081 2.373-2.415V8.415Z" fill="#fff" fill-opacity=".7"/><path opacity=".9" d="M16.894 1.5H5.106h11.788ZM18.578 4H3.422Z" fill="#fff" fill-opacity=".7"/><path opacity=".9" fill-rule="evenodd" clip-rule="evenodd" d="M16.989.5H5.011v1.8H16.99V.5Zm2.567 3.6c0-.497-.383-.9-.856-.9H3.3c-.472 0-.855.403-.855.9s.383.9.855.9h15.4c.473 0 .856-.403.856-.9Z" fill="#fff" fill-opacity=".7"/></svg>