<svg width="19" height="19" viewBox="0 0 19 19" fill="none" xmlns="http://www.w3.org/2000/svg">
<path fill-rule="evenodd" clip-rule="evenodd" d="M9.91732 1.91669C5.72916 1.91669 2.33398 5.31186 2.33398 9.50002C2.33398 13.6882 5.72916 17.0834 9.91732 17.0834C14.1055 17.0834 17.5007 13.6882 17.5007 9.50002C17.5007 5.31186 14.1055 1.91669 9.91732 1.91669ZM0.833984 9.50002C0.833984 4.48343 4.90073 0.416687 9.91732 0.416687C14.9339 0.416687 19.0007 4.48343 19.0007 9.50002C19.0007 14.5166 14.9339 18.5834 9.91732 18.5834C4.90073 18.5834 0.833984 14.5166 0.833984 9.50002ZM12.9476 6.46969C13.2405 6.76259 13.2405 7.23746 12.9476 7.53035L10.9779 9.50002L12.9476 11.4697C13.2405 11.7626 13.2405 12.2375 12.9476 12.5304C12.6547 12.8232 12.1798 12.8232 11.8869 12.5304L9.91724 10.5607L7.94757 12.5304C7.65467 12.8232 7.1798 12.8232 6.88691 12.5304C6.59401 12.2375 6.59401 11.7626 6.88691 11.4697L8.85658 9.50002L6.88691 7.53035C6.59401 7.23746 6.59401 6.76259 6.88691 6.46969C7.1798 6.1768 7.65467 6.1768 7.94757 6.46969L9.91724 8.43936L11.8869 6.46969C12.1798 6.1768 12.6547 6.1768 12.9476 6.46969Z" fill="gray" fill-opacity="0.7"/>
</svg>
