<svg width="18" height="18" viewBox="0 0 18 18" fill="none" xmlns="http://www.w3.org/2000/svg">
<path d="M9 0C4.03579 0 0 4.03579 0 9C0 13.9642 4.03579 18 9 18C13.9642 18 18 13.9642 18 9C18 4.03579 13.9642 0 9 0ZM16.6737 9C16.6737 9.72 16.56 10.4211 16.3705 11.0842C15.2147 10.9516 13.9832 10.8568 12.7137 10.8C12.7705 10.1937 12.7895 9.60632 12.7895 9C12.7895 8.39368 12.7705 7.80632 12.7137 7.2C14.0021 7.14316 15.2147 7.04842 16.3705 6.91579C16.56 7.57895 16.6737 8.28 16.6737 9ZM9 16.6737C8.24211 16.6737 7.21895 14.9495 6.76421 12.0695C8.24211 12.0316 9.7579 12.0316 11.2547 12.0695C10.8 14.9495 9.75789 16.6737 9 16.6737ZM1.32632 9C1.32632 8.28 1.44 7.57895 1.62947 6.91579C2.78526 7.04842 3.99789 7.14316 5.28632 7.2C5.22947 7.80632 5.21053 8.39368 5.21053 9C5.21053 9.60632 5.22947 10.1937 5.28632 10.8C3.99789 10.8568 2.76632 10.9516 1.61053 11.0842C1.44 10.4211 1.32632 9.72 1.32632 9ZM9 1.32632C9.75789 1.32632 10.7811 3.05053 11.2358 5.93053C9.75789 5.96842 8.22316 5.96842 6.76421 5.93053C7.21895 3.05053 8.24211 1.32632 9 1.32632ZM11.4632 9C11.4632 9.60632 11.4442 10.1937 11.3874 10.7432C9.81474 10.7053 8.16632 10.7053 6.59368 10.7432C6.55579 10.1937 6.5179 9.60632 6.5179 9C6.5179 8.39368 6.53684 7.80632 6.59368 7.25684C7.38947 7.27579 8.18526 7.29474 9 7.29474C9.81474 7.29474 10.6105 7.27579 11.4063 7.25684C11.4442 7.80632 11.4632 8.39368 11.4632 9ZM15.8779 5.62737C14.8168 5.74105 13.7179 5.81684 12.5621 5.87368C12.3158 4.24421 11.88 2.72842 11.2547 1.66737C13.3011 2.29263 14.9684 3.75158 15.8779 5.62737ZM6.74526 1.66737C6.12 2.74737 5.68421 4.24421 5.43789 5.89263C4.28211 5.83579 3.16421 5.76 2.10316 5.64632C3.03158 3.75158 4.69895 2.29263 6.74526 1.66737ZM2.10316 12.3537C3.16421 12.24 4.26316 12.1642 5.43789 12.1074C5.68421 13.7558 6.12 15.2526 6.74526 16.3326C4.69895 15.7074 3.03158 14.2484 2.10316 12.3537ZM11.2547 16.3326C11.88 15.2526 12.3158 13.7558 12.5621 12.1263C13.7179 12.1832 14.8168 12.2589 15.8779 12.3726C14.9684 14.2484 13.3011 15.7074 11.2547 16.3326Z" fill="#F1F1F1"/>
</svg>
