<svg width="28" height="28" viewBox="0 0 28 28" fill="none" xmlns="http://www.w3.org/2000/svg">
<path d="M15.2392 0.512383C14.9105 0.184304 14.4648 0 14 0C13.5352 0 13.0895 0.184304 12.7608 0.512383L0.492001 12.7625C0.172734 13.0926 -0.00392711 13.5347 6.62564e-05 13.9935C0.00405962 14.4524 0.188388 14.8913 0.513352 15.2158C0.838315 15.5402 1.27791 15.7243 1.73746 15.7283C2.19701 15.7323 2.63975 15.5559 2.97031 15.2371L3.48385 14.7243V26.25C3.48385 26.7141 3.66851 27.1592 3.9972 27.4874C4.32589 27.8156 4.7717 28 5.23654 28H8.74192C9.20677 28 9.65257 27.8156 9.98126 27.4874C10.31 27.1592 10.4946 26.7141 10.4946 26.25V22.7499C10.4946 22.2858 10.6793 21.8407 11.008 21.5125C11.3367 21.1843 11.7825 20.9999 12.2473 20.9999H15.7527C16.2175 20.9999 16.6633 21.1843 16.992 21.5125C17.3207 21.8407 17.5054 22.2858 17.5054 22.7499V26.25C17.5054 26.7141 17.69 27.1592 18.0187 27.4874C18.3474 27.8156 18.7932 28 19.2581 28H22.7635C23.2283 28 23.6741 27.8156 24.0028 27.4874C24.3315 27.1592 24.5162 26.7141 24.5162 26.25V14.7243L25.0297 15.2371C25.3603 15.5559 25.803 15.7323 26.2625 15.7283C26.7221 15.7243 27.1617 15.5402 27.4866 15.2158C27.8116 14.8913 27.9959 14.4524 27.9999 13.9935C28.0039 13.5347 27.8273 13.0926 27.508 12.7625L15.2392 0.512383Z" fill="white" fill-opacity="0.87"/>
</svg>
