<svg width="136" height="136" viewBox="0 0 136 136" fill="none" xmlns="http://www.w3.org/2000/svg">
<path d="M68.1024 83.1454C65.8202 83.1454 64.4482 81.0748 63.2362 79.2477C62.9047 78.7458 62.3924 77.974 62.0334 77.5704C61.5486 77.7991 60.7872 78.301 60.2909 78.6269C58.4661 79.8285 56.399 81.1926 54.2906 80.2802C52.2486 79.3964 51.8072 77.0365 51.4162 74.9555C51.3156 74.4182 51.1647 73.6018 51.0069 73.1079C50.5038 73.1468 49.7194 73.3034 49.2004 73.4074C47.1355 73.8213 44.7916 74.2878 43.2183 72.686C41.6519 71.0979 42.1115 68.73 42.5163 66.641C42.6238 66.0819 42.7907 65.2278 42.8204 64.7042C42.3379 64.5418 41.5124 64.3783 40.9727 64.272C38.8987 63.8604 36.5457 63.3962 35.6813 61.3164C34.8169 59.2298 36.1455 57.1694 37.3186 55.3526C37.6501 54.8404 38.1601 54.0481 38.3773 53.561C37.9932 53.2008 37.2248 52.6772 36.7286 52.3376C34.9472 51.1211 32.9258 49.7422 32.9258 47.4738C32.9258 45.1962 34.961 43.807 36.7537 42.5825C37.2614 42.2349 38.0503 41.6975 38.4368 41.3316C38.2218 40.8388 37.7027 40.0248 37.3666 39.5C36.1912 37.6637 34.8626 35.5828 35.7407 33.4916C36.6097 31.4244 38.9467 30.9728 41.0093 30.5749C41.5376 30.4731 42.3379 30.3188 42.8181 30.1622C42.7838 29.6442 42.6238 28.813 42.5186 28.2676C42.1161 26.1936 41.661 23.8428 43.2183 22.2627C44.803 20.654 47.1652 21.125 49.2392 21.5389C49.772 21.6453 50.5793 21.8065 51.0869 21.8431C51.2515 21.3446 51.4116 20.5076 51.5168 19.9577C51.9193 17.8619 52.3766 15.486 54.4301 14.6079C56.527 13.7104 58.5759 15.071 60.387 16.2738C60.8695 16.5962 61.6104 17.0878 62.0883 17.3188C62.4428 16.9175 62.9413 16.1651 63.266 15.6735C64.4665 13.859 65.8294 11.8032 68.1024 11.8032C70.3868 11.8032 71.7611 13.875 72.9708 15.7032C73.3024 16.204 73.8146 16.9735 74.1713 17.3771C74.6561 17.1496 75.4176 16.6476 75.9138 16.3218C77.7386 15.119 79.8104 13.7561 81.9142 14.6685C83.9562 15.5512 84.3975 17.9111 84.7886 19.992C84.8892 20.5305 85.0401 21.3457 85.1979 21.8408C85.701 21.8008 86.4853 21.6441 87.0044 21.5401C89.067 21.1285 91.4132 20.6608 92.9887 22.265C94.5529 23.8508 94.0932 26.2198 93.6885 28.3099C93.581 28.8679 93.4164 29.7208 93.3843 30.2433C93.8691 30.4068 94.6901 30.5692 95.2297 30.6755C97.3061 31.0871 99.6591 31.5525 100.523 33.6322C101.39 35.7177 100.059 37.7792 98.8862 39.5972C98.5249 40.1574 97.9464 41.0527 97.7726 41.5169C98.0881 41.9982 99.3961 43.4 101.896 45.2728C102.586 45.7907 103 46.6151 103 47.476C103 48.337 102.588 49.1591 101.898 49.6747C99.4304 51.5213 98.111 52.9173 97.7291 53.5176C97.9098 53.9943 98.4814 54.8873 98.8405 55.4487C100.014 57.2849 101.342 59.3647 100.464 61.4559C99.5951 63.5242 97.2581 63.9759 95.1954 64.3738C94.6672 64.4755 93.8668 64.6299 93.3866 64.7865C93.4209 65.3044 93.581 66.1334 93.6862 66.6788C94.0887 68.7528 94.5437 71.1036 92.9887 72.6848C91.4041 74.2981 89.0442 73.8248 86.9655 73.4097C86.435 73.3034 85.6278 73.1422 85.1179 73.1044C84.9555 73.603 84.7931 74.4433 84.688 74.9944C84.2855 77.0891 83.8304 79.4615 81.777 80.3408C79.68 81.2349 77.6266 79.8766 75.8178 78.6738C75.3353 78.3525 74.5944 77.8608 74.1187 77.6299C73.7643 78.0312 73.2681 78.7824 72.9434 79.2729C71.7406 81.0874 70.3777 83.1454 68.1024 83.1454ZM62.2461 72.7786C62.4976 72.7786 62.7515 72.8026 63.0076 72.8563C64.8758 73.2439 66.0283 74.9807 67.1397 76.6614C67.4026 77.057 67.7754 77.6184 68.0978 78.0392C68.4157 77.6241 68.7815 77.0742 69.0377 76.6866C70.1444 75.0161 71.2878 73.2885 73.1515 72.9066C75.0151 72.519 76.7439 73.6658 78.4109 74.7749C78.7882 75.0253 79.3187 75.3786 79.7646 75.6324C79.8881 75.1488 80.0048 74.5428 80.0894 74.1117C80.4598 72.1726 80.8463 70.1683 82.4012 69.1073C83.9722 68.0348 85.9617 68.435 87.8825 68.8168C88.2941 68.8992 88.8727 69.0147 89.3506 69.0798C89.2865 68.5893 89.1722 67.9936 89.0899 67.5694C88.7172 65.6486 88.333 63.6637 89.3689 62.1042C90.4208 60.5264 92.3965 60.1445 94.3059 59.7763C94.7289 59.694 95.3235 59.5796 95.7923 59.4562C95.5384 58.9794 95.1588 58.3848 94.8936 57.9709C93.812 56.2799 92.6938 54.5306 93.0711 52.6658C93.1854 52.0986 93.5033 50.5391 97.1346 47.4749C93.5444 44.4461 93.2449 42.9461 93.1214 42.3286C92.7509 40.4673 93.8691 38.7339 94.9508 37.0578C95.2137 36.6519 95.5865 36.0733 95.8403 35.6045C95.3624 35.4765 94.7518 35.3553 94.3219 35.2695C92.4011 34.8899 90.4162 34.4978 89.3689 32.9165C88.3307 31.3478 88.7172 29.3515 89.0922 27.4192C89.1745 26.9848 89.2934 26.3742 89.3574 25.8746C88.8887 25.9397 88.3238 26.0529 87.9214 26.133C86.0051 26.5148 84.0294 26.9093 82.4676 25.838C80.9194 24.7758 80.5467 22.7829 80.1854 20.8552C80.1054 20.4322 79.9933 19.8399 79.8744 19.3631C79.4216 19.6192 78.8751 19.9782 78.4887 20.2332C76.8079 21.3388 75.0632 22.4845 73.1972 22.0923C71.3312 21.7047 70.181 19.9691 69.0674 18.2895C68.8044 17.8939 68.4317 17.3302 68.107 16.9095C67.7891 17.3234 67.4255 17.8722 67.1694 18.2598C66.0626 19.9314 64.917 21.6601 63.0533 22.042C61.1713 22.4365 59.4586 21.2805 57.7939 20.1738C57.4165 19.9234 56.886 19.5701 56.4424 19.3151C56.3166 19.801 56.2 20.4082 56.1154 20.8403C55.745 22.7772 55.3608 24.7792 53.8081 25.8403C52.2326 26.9139 50.2454 26.516 48.3245 26.1318C47.9107 26.0495 47.3321 25.934 46.8542 25.8688C46.9182 26.3582 47.0326 26.9527 47.1149 27.3769C47.4876 29.2989 47.8741 31.2861 46.8336 32.8468C45.784 34.4223 43.8083 34.8042 41.8989 35.1724C41.4758 35.2547 40.8813 35.369 40.4125 35.4925C40.6686 35.9693 41.0459 36.5627 41.3112 36.9777C42.3928 38.6676 43.511 40.4158 43.136 42.2795C42.7564 44.1546 41.0482 45.3208 39.3949 46.4505C38.9856 46.7294 38.3979 47.1308 37.9771 47.4703C38.391 47.803 38.9673 48.1964 39.3698 48.4696C41.0116 49.5924 42.7129 50.7518 43.0834 52.62C43.4538 54.4814 42.3356 56.2147 41.254 57.8921C40.9933 58.2968 40.6183 58.8753 40.3645 59.343C40.8424 59.471 41.4507 59.5922 41.8829 59.6768C43.8014 60.0576 45.7886 60.4509 46.8382 62.0322C47.8764 63.5997 47.4876 65.5983 47.1149 67.5317C47.0303 67.965 46.9114 68.5745 46.8473 69.073C47.3161 69.0078 47.8809 68.8957 48.2834 68.8146C50.1928 68.4327 52.1731 68.0359 53.7372 69.1107C55.2853 70.1717 55.6581 72.1657 56.0194 74.0935C56.0994 74.5154 56.2114 75.1088 56.3304 75.5855C56.7831 75.3294 57.3296 74.9704 57.7161 74.7154C59.1659 73.7607 60.6591 72.7786 62.2461 72.7786ZM38.4756 53.2775C38.4756 53.2775 38.4756 53.2775 38.4756 53.2786C38.4756 53.2775 38.4756 53.2775 38.4756 53.2775Z" fill="#03E1FF"/>
<path d="M89.0715 124.194L67.9651 105.062L46.8884 124.194V71.0178H51.5716V113.618L67.9605 98.7397L84.3746 113.618L84.3289 71.0453L89.0121 71.0407L89.0715 124.194Z" fill="#03E1FF"/>
<path d="M68.7743 61.7566C63.6429 61.7566 59.4673 57.5811 59.4673 52.4497H64.1505C64.1505 54.9994 66.2246 57.0734 68.7743 57.0734C70.5511 57.0734 72.9338 55.8214 73.6793 54.4974C73.9491 54.0126 73.8348 53.8217 73.741 53.6685C72.9933 52.4417 70.2492 50.9953 67.8299 49.7193C64.3541 47.8865 61.0703 46.1555 59.7257 43.5395C58.7905 41.7169 58.8957 39.6943 60.0253 37.8455C61.6809 35.1312 65.3625 33.1612 68.7743 33.1612C73.9057 33.1612 78.0812 37.3367 78.0812 42.4693H73.398C73.398 39.9196 71.324 37.8444 68.7743 37.8444C67.0364 37.8444 64.816 38.9855 64.0225 40.2866C63.6406 40.9109 63.803 41.2287 63.8921 41.3991C64.5599 42.7014 67.5852 44.2952 70.0137 45.5769C73.2563 47.2863 76.3205 48.9018 77.7382 51.2308C78.7787 52.9367 78.7878 54.9628 77.7611 56.7899C76.1993 59.5751 72.2501 61.7566 68.7743 61.7566Z" fill="#03E1FF"/>
<path d="M71.1551 29.2749H66.4719V65.7081H71.1551V29.2749Z" fill="#03E1FF"/>
</svg>
