<svg width="20" height="20" viewBox="0 0 20 20" fill="none" xmlns="http://www.w3.org/2000/svg">
<path d="M3.61241 6.11095L4.58464 4.1665L5.55686 6.11095L7.5013 7.08317L5.55686 8.05539L4.58464 9.99984L3.61241 8.05539L1.66797 7.08317L3.61241 6.11095Z" fill="currentColor" />
<path d="M7.22352 3.05539L7.91797 1.6665L8.61241 3.05539L10.0013 3.74984L8.61241 4.44428L7.91797 5.83317L7.22352 4.44428L5.83464 3.74984L7.22352 3.05539Z" fill="currentColor" />
<path d="M18.6401 4.96016L15.8743 2.19434L7.64745 9.34814C9.51694 9.84544 10.989 11.3175 11.4863 13.187L18.6401 4.96016Z" fill="currentColor" />
<path d="M6.2513 10.8332C4.18023 10.8332 2.5013 12.5121 2.5013 14.5832V18.3332H6.2513C8.32237 18.3332 10.0013 16.6542 10.0013 14.5832C10.0013 12.5121 8.32237 10.8332 6.2513 10.8332Z" fill="currentColor" />
</svg>
