<svg width="48" height="48" viewBox="0 0 48 48" fill="none" xmlns="http://www.w3.org/2000/svg">
<circle cx="24" cy="24" r="24" fill="white"/>
<path d="M24.3009 30.2857C25.8347 30.2841 27.3052 29.6741 28.3898 28.5897C29.4745 27.5052 30.0847 26.0347 30.0866 24.5009V16.7857C30.0866 15.2512 29.477 13.7796 28.392 12.6946C27.3069 11.6096 25.8353 11 24.3009 11C22.7664 11 21.2948 11.6096 20.2097 12.6946C19.1247 13.7796 18.5151 15.2512 18.5151 16.7857V24.5C18.5168 26.034 19.1269 27.5046 20.2116 28.5893C21.2963 29.6739 22.7669 30.284 24.3009 30.2857Z" fill="black"/>
<path d="M33.032 24.5068C32.7782 24.4813 32.5246 24.5564 32.3256 24.716C32.1266 24.8755 31.9982 25.1068 31.9679 25.36C31.7562 27.2454 30.8573 28.9867 29.4428 30.2512C28.0283 31.5157 26.1975 32.2146 24.3003 32.2145C22.403 32.2144 20.5723 31.5152 19.158 30.2506C17.7437 28.9859 16.8449 27.2445 16.6335 25.3591C16.6024 25.1063 16.4737 24.8756 16.2749 24.7164C16.076 24.5572 15.8229 24.482 15.5694 24.5068C15.3151 24.5351 15.0824 24.6631 14.9224 24.8628C14.7625 25.0625 14.6883 25.3175 14.7162 25.5719C14.9617 27.7601 15.9523 29.7973 17.5219 31.3416C19.0915 32.8859 21.1445 33.8434 23.3364 34.0533V37.036C23.3364 37.2917 23.438 37.537 23.6188 37.7178C23.7997 37.8986 24.045 38.0002 24.3007 38.0002C24.5564 38.0002 24.8017 37.8986 24.9825 37.7178C25.1634 37.537 25.265 37.2917 25.265 37.036V34.0534C27.4572 33.844 29.5106 32.8865 31.0803 31.3419C32.6501 29.7973 33.6404 27.7595 33.8852 25.5709C33.9131 25.3167 33.8389 25.0618 33.6789 24.8623C33.5189 24.6627 33.2862 24.5349 33.032 24.5068Z" fill="black"/>
</svg>
