<svg width="12" height="12" viewBox="0 0 12 12" fill="none" xmlns="http://www.w3.org/2000/svg">
<path d="M11.9371 8.67282L9.95616 10.8499C9.91332 10.8972 9.86143 10.9349 9.80373 10.9608C9.74602 10.9866 9.68375 10.9999 9.62078 11H0.230164C0.185376 11 0.141567 10.9866 0.104101 10.9614C0.0666354 10.9363 0.0371394 10.9004 0.0192247 10.8584C0.00130993 10.8163 -0.00424597 10.7698 0.00323726 10.7245C0.0107205 10.6793 0.030918 10.6372 0.0613568 10.6035L2.04009 8.42647C2.08294 8.37918 2.13483 8.34145 2.19253 8.31562C2.25024 8.2898 2.31251 8.27643 2.37547 8.27637H11.7661C11.8113 8.27541 11.8558 8.28818 11.8939 8.31306C11.932 8.33795 11.9621 8.37384 11.9804 8.41621C11.9987 8.45859 12.0044 8.50557 11.9966 8.55123C11.9889 8.59689 11.9682 8.6392 11.9371 8.67282ZM9.95616 4.28774C9.91315 4.24067 9.86123 4.20308 9.80356 4.17727C9.7459 4.15146 9.6837 4.13797 9.62078 4.13764H0.230164C0.185376 4.13766 0.141567 4.15107 0.104101 4.17623C0.0666354 4.20138 0.0371394 4.23719 0.0192247 4.27926C0.00130993 4.32134 -0.00424597 4.36785 0.00323726 4.41311C0.0107205 4.45837 0.030918 4.50042 0.0613568 4.53409L2.04009 6.71231C2.08311 6.75938 2.13503 6.79697 2.19269 6.82278C2.25036 6.84859 2.31255 6.86208 2.37547 6.86241H11.7661C11.8108 6.86217 11.8544 6.8486 11.8917 6.82335C11.929 6.79811 11.9584 6.76229 11.9761 6.72026C11.9939 6.67823 11.9994 6.63181 11.9919 6.58666C11.9843 6.5415 11.9642 6.49956 11.9338 6.46596L9.95616 4.28774ZM0.230164 2.72368H9.62078C9.68375 2.72363 9.74603 2.71027 9.80373 2.68445C9.86143 2.65862 9.91332 2.62088 9.95616 2.57358L11.9371 0.396507C11.9604 0.371346 11.9779 0.341238 11.9884 0.308334C11.999 0.275431 12.0023 0.240545 11.9982 0.206171C11.994 0.171796 11.9825 0.138782 11.9645 0.109489C11.9465 0.0801956 11.9224 0.0553461 11.8939 0.036717C11.8557 0.0118473 11.8113 -0.000909712 11.7661 5.04783e-05H2.37547C2.31251 0.000118408 2.25024 0.0134817 2.19253 0.039307C2.13483 0.0651323 2.08294 0.102866 2.04009 0.150154L0.0613568 2.32723C0.030918 2.3609 0.0107205 2.40295 0.00323726 2.44821C-0.00424597 2.49347 0.00130993 2.53998 0.0192247 2.58206C0.0371394 2.62413 0.0666354 2.65994 0.104101 2.68509C0.141567 2.71025 0.185376 2.72366 0.230164 2.72368Z" fill="currentColor"/>
</svg>
