<svg width="212.5" height="33.9286" viewBox="0 0 212.5 33.9286" fill="none" xmlns="http://www.w3.org/2000/svg">
<g id="Frame" clip-path="url(#clip0_0_513)">
<path id="Vector" d="M211.298 30.3343H211.957L211.714 29.7227L201.052 2.95115L200.939 2.66992H200.636H194.789H194.343V3.03065L183.528 29.7202L183.28 30.3343H183.943H189.611H189.918L190.027 30.0461L192.448 23.6561H202.382L204.816 30.0469L204.925 30.3343H205.232H211.298ZM194.441 18.3038L197.423 10.5355L200.398 18.3038H194.441Z" fill="var(--fill-0, #FEFEFE)" stroke="var(--stroke-0, #10172E)" stroke-width="0.892857"/>
<path id="Vector_2" d="M178.085 3.22963V2.7832H177.638H154.363H153.917V3.22963V7.85913V8.30556H154.363H162.643V29.8888V30.3352H163.089H168.913H169.359V29.8888V8.30556H177.638H178.085V7.85913V3.22963Z" fill="var(--fill-0, #FEFEFE)" stroke="var(--stroke-0, #10172E)" stroke-width="0.892857"/>
<path id="Vector_3" d="M146.806 25.2537V24.8073H146.36H135.641V3.23061V2.78418H135.195H129.379H128.933V3.23061V29.8873V30.3337H129.379H146.36H146.806V29.8873V25.2537Z" fill="var(--fill-0, #FEFEFE)" stroke="var(--stroke-0, #10172E)" stroke-width="0.892857"/>
<path id="Vector_4" d="M113.362 24.809H100.956V18.7777H111.522H111.969V18.3313V13.7032V13.2568H111.522H100.956V8.30556H112.958H113.404V7.85913V3.22963V2.7832H112.958H94.713H94.2666V3.22963V29.8876V30.334H94.713H113.362H113.809V29.8876V25.2554V24.809H113.362Z" fill="var(--fill-0, #FEFEFE)" stroke="var(--stroke-0, #10172E)" stroke-width="0.892857"/>
<path id="Vector_5" d="M56.1943 29.8874V30.3338H56.6408H65.8038C70.5856 30.3338 74.4604 29.061 77.1456 26.6762C79.8374 24.2855 81.2815 20.8231 81.2815 16.5572C81.2815 12.2914 79.8374 8.82961 77.1454 6.43951C74.4604 4.05545 70.5856 2.7832 65.8038 2.7832H56.6408H56.1943V3.22963V29.8874ZM62.8784 8.30558H65.7972C68.7829 8.30558 70.9458 9.06202 72.3627 10.4296C73.7768 11.7946 74.5177 13.8363 74.5177 16.5573C74.5177 19.2762 73.7768 21.318 72.3625 22.6835C70.9458 24.0515 68.7827 24.8088 65.7972 24.8088H62.8784V8.30558Z" fill="var(--fill-0, #FEFEFE)" stroke="var(--stroke-0, #10172E)" stroke-width="0.892857"/>
<path id="Vector_6" d="M20.6163 24.2304L20.459 24.0865L20.372 24.1243L19.9263 23.9306V24.3179L-0.177874 33.0529L2.79142e-05 33.9088H20.3727H30.9997H40.744L40.9218 33.0529L20.6163 24.2304Z" fill="var(--fill-0, #FEFEFE)" stroke="var(--stroke-0, #10172E)" stroke-width="0.892857"/>
<path id="Vector_7" d="M1.69146 30.2886L20.3238 21.0218L39.0485 30.2892L40.472 30.9936L39.624 29.6506L20.7969 -0.164315L20.6254 -1.23998L20.3715 -0.837906L19.9256 -1.54395V-0.132005L1.11521 29.6506L0.263672 30.9988L1.69146 30.2886Z" fill="var(--fill-0, #FEFEFE)" stroke="var(--stroke-0, #10172E)" stroke-width="0.892857"/>
</g>
<defs>
<clipPath id="clip0_0_513">
<rect width="212.5" height="33.9286" fill="white"/>
</clipPath>
</defs>
</svg>
