<svg preserveAspectRatio="none" width="100%" height="100%" overflow="visible" style="display: block;" viewBox="0 0 222 38" fill="none" xmlns="http://www.w3.org/2000/svg">
<g id="Frame" clip-path="url(#clip0_0_479)">
<path id="Vector" d="M221.667 31.654V19.674C221.667 14.644 218.735 12.871 213.415 12.871C208.023 12.871 205.417 14.934 205.2 18.807H210.52C210.593 17.793 211.172 17.033 213.415 17.033C215.405 17.033 216.347 17.684 216.347 18.662C216.347 19.531 215.803 19.856 214.464 20.002L210.99 20.362C206.285 20.87 204.15 22.823 204.15 26.37C204.15 29.663 206.177 32.197 210.484 32.197C213.414 32.197 215.153 31.257 216.672 29.374V31.654H221.667ZM216.455 24.561C216.455 26.551 214.573 28.035 211.678 28.035C210.266 28.035 209.434 27.383 209.434 26.153C209.434 25.213 210.014 24.416 211.859 24.163L215.008 23.728C215.55 23.656 216.13 23.548 216.455 23.439V24.561ZM191.917 18.517C191.917 17.721 192.606 17.106 194.416 17.106C196.261 17.106 196.84 17.757 197.021 18.807H202.341C202.087 14.861 199.41 12.871 194.416 12.871C189.023 12.871 186.453 15.441 186.453 18.915C186.453 22.535 188.769 24.091 192.787 24.633L194.705 24.887C196.587 25.141 197.311 25.574 197.311 26.515C197.311 27.529 196.442 28.035 194.307 28.035C192.207 28.035 191.267 27.383 191.122 26.045H185.73C185.838 29.7 188.046 32.197 194.307 32.197C200.061 32.197 202.776 29.917 202.776 26.08C202.776 22.281 200.459 20.833 195.827 20.218L193.908 19.965C192.353 19.747 191.917 19.313 191.917 18.517ZM178.834 31.654H184.298V20.978C184.298 14.97 181.874 12.871 177.132 12.871C174.202 12.871 172.646 14.101 171.886 15.513V13.413H166.746V31.653H172.211V21.232C172.211 18.808 173.441 17.722 175.505 17.722C177.785 17.722 178.835 18.808 178.835 21.232V31.655L178.834 31.654ZM159.502 31.654H164.497V19.674C164.497 14.644 161.565 12.871 156.245 12.871C150.853 12.871 148.248 14.934 148.03 18.807H153.35C153.422 17.793 154.002 17.033 156.245 17.033C158.235 17.033 159.177 17.684 159.177 18.662C159.177 19.531 158.634 19.856 157.295 20.002L153.821 20.362C149.116 20.869 146.981 22.823 146.981 26.37C146.981 29.663 149.007 32.197 153.313 32.197C156.245 32.197 157.983 31.257 159.502 29.374V31.654ZM159.286 24.561C159.286 26.551 157.403 28.035 154.508 28.035C153.097 28.035 152.264 27.383 152.264 26.153C152.264 25.213 152.843 24.416 154.689 24.163L157.838 23.728C158.381 23.655 158.96 23.548 159.286 23.439V24.561ZM139.886 31.654H145.352V20.978C145.352 14.97 142.927 12.871 138.295 12.871C135.725 12.871 134.241 13.848 133.301 15.187V6.357H127.799V31.654H133.264V21.23C133.264 18.806 134.494 17.72 136.557 17.72C138.837 17.72 139.887 18.806 139.887 21.23V31.653L139.886 31.654ZM123.59 31.979C124.93 31.979 126.196 31.69 126.196 31.69V27.311C126.196 27.311 125.291 27.42 124.64 27.42C123.047 27.42 122.033 26.913 122.033 24.96V17.865H126.196V13.414H122.033V8.094H116.569V13.414H113.819V17.865H116.569V25.575C116.569 29.989 119.212 31.979 123.59 31.979ZM108.39 17.865H112.407V13.414H108.389V12.69C108.389 11.098 109.295 10.519 110.996 10.519C111.648 10.519 112.407 10.591 112.407 10.591V6.176C112.407 6.176 111.503 5.959 110.091 5.959C105.712 5.959 102.926 8.311 102.926 12.726V13.414H100.176V17.865H102.926V31.654H108.389L108.39 17.865ZM93.588 31.654H98.727V13.414H93.263V23.837C93.263 26.262 92.033 27.347 90.042 27.347C87.834 27.347 86.784 26.261 86.784 23.837V13.414H81.32V24.09C81.32 30.097 83.745 32.196 88.413 32.196C91.273 32.196 92.828 30.966 93.588 29.554V31.654ZM63.333 31.654H80.09V26.55H69.196V6.321H63.333V31.654ZM38 19C38 8.474 29.526 0 19 0C8.512 0 0 8.474 0 19C0 29.488 8.512 38 19 38C29.526 38 38 29.488 38 19ZM36.632 19C36.632 28.69 28.728 36.632 19 36.632C9.31 36.632 1.368 28.691 1.368 19C1.368 9.272 9.31 1.368 19 1.368C28.728 1.368 36.632 9.272 36.632 19ZM25.726 17.86C25.308 17.86 24.776 17.86 24.092 17.898L24.586 17.062H25.384C28.234 17.062 30.362 17.214 32.3 17.556L33.174 16.72C31.008 16.34 28.386 16.112 25.726 16.112H25.08L25.498 15.314H26.22C28.994 15.314 31.502 15.542 33.934 15.998L34.846 15.124C32.11 14.592 29.184 14.327 26.03 14.327C24.6852 14.3313 23.3412 14.3947 22.002 14.517C20.482 17.784 18.05 19.685 15.314 19.647C14.25 19.608 12.919 19.153 11.21 18.24L9.614 17.328L10.108 16.872L13.794 18.468L14.592 17.86L7.144 14.478L6.004 15.352L3.344 14.25L3.382 15.352C6.954 16.986 8.436 17.898 12.198 20.596C17.1 24.092 21.47 25.992 27.55 27.208L29.146 25.688H28.766C24.738 25.688 21.128 24.358 19.038 22.116C20.786 21.052 22.951 20.559 25.954 20.559C26.752 20.559 27.892 20.634 28.956 20.748L29.868 19.874C28.4432 19.7003 27.0093 19.6114 25.574 19.608C24.6102 19.6065 23.6467 19.6445 22.686 19.722L23.37 18.886C24.1798 18.838 24.9908 18.8126 25.802 18.81C27.816 18.81 29.146 18.886 30.666 19.114L31.54 18.278C29.944 18.013 27.74 17.86 25.726 17.86Z" fill="var(--fill-0, white)"/>
</g>
<defs>
<clipPath id="clip0_0_479">
<rect width="222" height="38" fill="white"/>
</clipPath>
</defs>
</svg>
