<svg preserveAspectRatio="none" width="100%" height="100%" overflow="visible" style="display: block;" viewBox="0 0 238.778 36.8927" fill="none" xmlns="http://www.w3.org/2000/svg">
<g id="Frame" clip-path="url(#clip0_0_505)">
<path id="Vector" d="M0.00601792 36.5569C0.530709 36.2876 0.762877 35.6515 0.762877 35.1082V21.7588C0.762877 21.1923 0.526066 20.5747 0.00601792 20.2915H6.36733C9.20438 20.2915 11.9718 21.4523 11.9718 24.6747C11.9718 26.3835 10.4813 27.73 8.87936 28.0319C11.1917 28.0086 13.4252 29.4248 13.4252 31.974C13.4252 35.619 9.59908 36.5523 6.91057 36.5523H0.00601792V36.5569ZM5.15545 21.6984C4.85826 21.6984 4.65396 21.6984 4.11069 21.7634V27.4561H4.75611C6.70628 27.4561 8.59145 26.8524 8.59145 24.5958C8.59145 22.3392 7.08238 21.6984 5.15545 21.6984ZM5.56404 28.9187C5.09971 28.9187 4.68181 28.9187 4.11533 28.9605V34.9736C4.82111 35.1128 5.58259 35.1547 6.28842 35.1547C7.92282 35.1547 9.58048 34.4257 9.58048 31.9322C9.58048 29.4387 7.61635 28.9187 5.5687 28.9187H5.56404ZM19.7168 21.6984C19.4243 21.6984 19.1689 21.7448 18.881 21.7866V27.4096C19.1457 27.4282 19.3871 27.4561 19.6518 27.4561C21.4812 27.4561 22.8371 26.4438 22.8371 24.4565C22.8371 22.4692 21.5045 21.6984 19.7168 21.6984ZM27.9169 36.6545C27.2947 36.6545 26.6074 36.6777 26.0084 36.5012C24.9034 36.1715 23.3711 33.6781 22.7675 32.703C21.8202 31.1103 21.003 28.9233 18.8856 28.9001V35.1128C18.8856 35.6561 19.1317 36.3155 19.6564 36.5616H14.7717C15.2825 36.2922 15.5286 35.684 15.5286 35.1128V21.7634C15.5286 21.1969 15.2825 20.5793 14.7717 20.2961H20.6501C23.2085 20.2961 26.4078 21.2758 26.4078 24.3497C26.4078 26.9314 24.2719 28.2501 21.8945 28.2501C25.2795 28.2686 27.2668 36.2087 31.0046 36.2319C30.0017 36.5291 28.9569 36.6498 27.9122 36.6498L27.9169 36.6545ZM31.2554 36.5569C31.6594 36.3712 32.0819 35.8418 32.0819 35.1082V21.7588C32.0819 21.0158 31.6594 20.4958 31.2554 20.2915H36.2609C35.829 20.4911 35.439 21.0158 35.439 21.7588V35.1082C35.439 35.8372 35.829 36.3712 36.2609 36.5569H31.2554ZM42.1114 36.5569C42.6454 36.3108 42.9101 35.6794 42.9101 35.1082V22.1581H39.3162C38.485 22.1581 37.5006 22.2602 36.7856 22.6828L37.9046 20.2915H49.8239C50.7897 20.2915 51.7787 20.2682 52.7123 20.0686C52.2572 21.2944 50.9058 22.1998 50.1257 22.1998C49.1785 22.1766 47.6137 22.1163 46.2625 22.1163V35.1036C46.2625 35.6747 46.5457 36.3062 47.0704 36.5523H42.1068L42.1114 36.5569ZM53.3112 36.5569C53.7104 36.3712 54.128 35.8418 54.128 35.1082V21.7588C54.128 21.0158 53.7104 20.4958 53.3112 20.2915H58.3164C57.8895 20.4911 57.4852 21.0158 57.4852 21.7588V35.1082C57.4852 35.8372 57.8941 36.3712 58.3164 36.5569H53.3112ZM68.0581 32.8795C68.0581 29.7824 60.7636 29.0812 60.7636 24.1408C60.7636 21.0808 63.675 20.0779 66.2334 20.0779C67.3756 20.0779 69.0286 20.2358 70.0733 20.714L70.2542 23.7554C69.6137 22.4135 68.0068 21.4384 66.5122 21.4384C65.3326 21.4384 64.0972 22.0234 64.0972 23.37C64.0972 26.5832 71.5173 27.3678 71.5173 32.0483C71.5173 35.4472 68.5459 36.8541 65.5509 36.8541C63.9814 36.8541 61.8499 36.5523 60.5268 35.6468C60.4479 35.1036 60.4105 34.5325 60.4105 33.9799C60.4105 33.3159 60.4664 32.6519 60.5683 31.9972C61.3948 33.8778 63.0991 35.3497 65.2348 35.3497C66.8555 35.3497 68.0627 34.6439 68.0627 32.8795H68.0581ZM83.6873 36.5569C84.0403 36.3991 84.4164 35.8418 84.4164 35.1082V29.058C83.5484 28.9605 82.3315 28.9187 80.9664 28.9187C79.6014 28.9187 78.3568 28.9605 77.4652 29.058V35.1082C77.4652 35.8372 77.8321 36.3712 78.1897 36.5569H73.3701C73.7278 36.3991 74.1085 35.8418 74.1085 35.1082V21.7588C74.1085 21.0158 73.7278 20.4725 73.3701 20.2915H78.1897C77.8321 20.4725 77.4652 21.0158 77.4652 21.7588V27.2286C78.3568 27.3214 79.5594 27.3678 80.9664 27.3678C82.3735 27.3678 83.5484 27.3075 84.4164 27.2286V21.7588C84.4164 21.0158 84.0403 20.4725 83.6873 20.2915H88.4982C88.1359 20.4725 87.7829 21.0158 87.7829 21.7588V35.1082C87.7829 35.8372 88.1405 36.3712 88.4982 36.5569H83.6873Z" fill="var(--fill-0, white)"/>
<path id="Vector_2" d="M106.36 36.5572C106.518 36.3993 106.657 36.2786 106.657 35.9907C106.657 35.8932 106.62 35.7307 106.499 35.4289C106.499 35.4289 105.162 31.7931 105.009 31.3706C104.006 31.2452 102.961 31.2452 101.935 31.2452C100.909 31.2452 99.9753 31.2685 99.0145 31.3706C98.8798 31.7328 97.4451 35.3499 97.4451 35.3499C97.2498 35.8375 97.1848 36.0046 97.1848 36.1114C97.1848 36.3529 97.3938 36.4689 97.5701 36.5572H94.2969C94.7796 36.3111 95.1977 35.8096 95.4067 35.3082L100.788 21.4247C100.812 21.369 100.821 21.3039 100.821 21.225C100.821 20.8443 100.565 20.4774 100.222 20.301H104.442L109.912 35.2988C110.135 35.9025 110.613 36.3389 111.013 36.5618H106.355L106.36 36.5572ZM102.111 23.3934L99.6458 29.7269C100.38 29.8058 101.146 29.8244 101.889 29.8244C102.743 29.8244 103.584 29.8244 104.415 29.7269L102.116 23.3934H102.111ZM111.849 36.5572C112.252 36.3714 112.67 35.8421 112.67 35.1085V21.759C112.67 21.0161 112.252 20.496 111.849 20.2917H116.849C116.422 20.4914 116.027 21.0161 116.027 21.759V35.1085C116.027 35.8375 116.422 36.3714 116.849 36.5572H111.849ZM124.455 21.6986C124.186 21.6986 123.926 21.7451 123.647 21.7869V27.4099C123.907 27.4284 124.144 27.4563 124.399 27.4563C126.233 27.4563 127.584 26.4441 127.584 24.4567C127.584 22.4694 126.247 21.6986 124.455 21.6986ZM133.063 36.6547C132.441 36.6547 131.768 36.6779 131.16 36.5015C130.05 36.1718 128.527 33.6783 127.919 32.7032C126.976 31.1106 125.75 28.9004 123.647 28.9004V35.1131C123.647 35.6564 123.884 36.3157 124.399 36.5618H119.519C120.044 36.2925 120.29 35.6843 120.29 35.1131V21.7637C120.29 21.1972 120.048 20.5796 119.519 20.2964H125.411C127.965 20.2964 131.16 21.2761 131.16 24.3499C131.16 26.9316 128.829 28.2503 127.064 28.2503C130.575 28.4546 132.687 36.2322 136.17 36.2322C135.162 36.5293 134.117 36.65 133.063 36.65V36.6547ZM153.35 21.8844L148.41 36.5572C148.001 36.5572 147.602 36.4179 147.374 36.26C146.887 35.791 146.12 33.8222 145.842 33.0979L143.609 27.4563L140.391 36.5618H138.859L133.328 21.8518C133.092 21.225 132.683 20.626 132.084 20.301H136.889C136.69 20.4589 136.546 20.6353 136.546 20.9789C136.546 21.1415 136.63 21.369 136.686 21.5454L140.289 31.2777L144.124 20.301L148.349 30.8831L151.549 21.3039C151.628 21.0439 151.674 20.9464 151.674 20.7839C151.674 20.5842 151.586 20.4589 151.386 20.301H154.567C153.977 20.6121 153.554 21.2807 153.35 21.889V21.8844ZM159.261 23.3934L156.796 29.7269C157.539 29.8058 158.3 29.8244 159.043 29.8244C159.888 29.8244 160.738 29.8244 161.564 29.7269L159.261 23.3934ZM163.505 36.5572C163.672 36.3993 163.802 36.2786 163.802 35.9907C163.802 35.8932 163.756 35.7307 163.654 35.4289C163.654 35.4289 162.325 31.7931 162.163 31.3706C161.151 31.2452 160.106 31.2452 159.085 31.2452C158.123 31.2452 157.134 31.2685 156.168 31.3706C156.029 31.7328 154.609 35.3499 154.609 35.3499C154.404 35.8375 154.348 36.0046 154.348 36.1114C154.348 36.3529 154.548 36.4689 154.72 36.5572H151.446C151.929 36.3111 152.347 35.8096 152.551 35.3082L157.952 21.4247C157.965 21.369 157.984 21.3039 157.984 21.225C157.984 20.8443 157.729 20.4774 157.38 20.301H161.601L167.071 35.2988C167.299 35.9025 167.781 36.3389 168.181 36.5618H163.514L163.505 36.5572ZM178.197 22.0051L174.347 28.7611V35.1131C174.347 35.6285 174.561 36.3157 175.071 36.5618H170.279C170.767 36.2925 170.995 35.6146 170.995 35.1131V28.7425L167.647 23.3795C167.345 22.878 165.952 20.5378 164.248 20.5378C164.712 20.3614 166.119 20.0921 167.062 20.0921C168.636 20.0921 169.416 20.236 170.382 21.7451L173.479 26.6577C173.739 26.1747 176.19 21.9122 176.19 21.9122C176.488 21.3922 176.688 21.0253 176.688 20.8443C176.688 20.6121 176.585 20.4589 176.348 20.301H179.803C179.125 20.626 178.563 21.369 178.192 22.0097L178.197 22.0051ZM187.214 32.8797C187.214 29.7826 179.919 29.0815 179.919 24.141C179.919 21.0811 182.821 20.0781 185.384 20.0781C186.531 20.0781 188.175 20.236 189.224 20.7143L189.405 23.7556C188.756 22.4137 187.153 21.4386 185.663 21.4386C184.479 21.4386 183.253 22.0237 183.253 23.3702C183.253 26.5834 190.673 27.3681 190.673 32.0485C190.673 35.4474 187.725 36.8544 184.707 36.8544C183.137 36.8544 181.001 36.5525 179.678 35.6471C179.589 35.1038 179.552 34.5327 179.552 33.9802C179.552 33.3162 179.617 32.6522 179.715 31.9974C180.541 33.878 182.255 35.3499 184.386 35.3499C186.011 35.3499 187.223 34.6441 187.223 32.8797H187.214Z" fill="var(--fill-0, white)"/>
<path id="Vector_3" d="M232.101 8.91602C229.379 11.637 223.445 13.9633 220.53 15.0545C216.56 16.5542 214.79 17.0789 212.552 17.8033C210.036 18.6252 204.983 20.1435 204.983 20.1435C215.44 23.2685 222.8 24.2064 222.8 24.2064C222.8 24.2064 226.236 23.1477 231.664 20.2457C234.612 18.7459 236.052 17.7429 237.096 16.7771C237.468 16.4289 238.457 15.4073 238.713 14.084C238.726 13.9865 238.768 13.7357 238.768 13.4897C238.768 13.4897 238.768 13.3132 238.759 13.1646C238.749 12.9882 238.722 12.8814 238.722 12.8814C238.722 12.8814 238.671 12.5564 238.582 12.3428C238.499 12.1246 238.155 11.442 237.621 11.0148C237.25 10.7269 236.628 9.97469 234.357 9.18067C233.577 8.91136 232.323 8.65137 232.323 8.65137L232.101 8.90675V8.91602Z" fill="var(--fill-0, #626262)"/>
<path id="Vector_4" d="M238.768 13.4295C238.768 13.4295 238.754 13.1369 238.679 12.8908C238.624 12.6726 238.526 12.459 238.378 12.2408C238.201 11.9808 237.96 11.6696 237.607 11.3307C237.338 11.08 237.045 10.8525 236.692 10.6156C235.266 9.68234 233.428 9.15764 231.798 8.93475C229.277 8.60041 226.384 8.65616 226.105 8.64688C225.177 8.63294 219.159 8.68403 217.613 8.71185C210.746 8.85584 202.341 8.87439 200.14 8.87439C177.411 8.97656 167.516 8.48901 156.507 6.28344C147.141 4.42146 141.941 2.65701 141.941 2.65701C150.202 2.36913 198.413 0.372512 207.212 0.135704C212.969 -0.0268115 217.06 -0.0593147 220.329 0.126417C222.006 0.219283 223.57 0.363225 225.53 0.697544C227.289 0.999357 228.882 1.51012 229.815 1.85373C231.775 2.57808 233.423 3.62746 234.241 4.70006C234.241 4.70006 234.482 4.94616 234.811 5.38726C235.178 5.89802 235.606 6.52488 235.75 6.76166C236.943 8.56792 237.509 9.70089 237.704 10.0956C237.918 10.5134 238.104 10.9406 238.29 11.3632C238.466 11.7811 238.54 12.0364 238.601 12.2129C238.726 12.6587 238.758 13.0626 238.763 13.1509L238.777 13.4248L238.768 13.4295Z" fill="var(--fill-0, white)"/>
</g>
<defs>
<clipPath id="clip0_0_505">
<rect width="238.778" height="36.8927" fill="white"/>
</clipPath>
</defs>
</svg>
