<svg width="40" height="46" viewBox="0 0 40 46" fill="none" xmlns="http://www.w3.org/2000/svg">
<path d="M17.9999 1.15455C19.2375 0.44002 20.7623 0.44002 21.9999 1.15455L37.9185 10.3451C39.1561 11.0597 39.9185 12.3802 39.9185 13.8093V32.1904C39.9185 33.6195 39.1561 34.94 37.9185 35.6546L21.9999 44.8451C20.7623 45.5597 19.2375 45.5597 17.9999 44.8451L2.0813 35.6546C0.843695 34.94 0.0812988 33.6195 0.0812988 32.1904V13.8093C0.0812988 12.3802 0.843695 11.0597 2.0813 10.3451L17.9999 1.15455Z" fill="#40A8F5"/>
<path d="M25.4433 24.3936L24.2094 25.1127C24.1766 25.131 24.1328 25.131 24.0999 25.1127L21.8841 23.8387C21.8548 23.8205 21.8366 23.7913 21.8293 23.7584C21.8256 23.7256 21.8366 23.6927 21.8585 23.6672L22.6872 22.8056C22.7054 22.7837 22.7383 22.7728 22.7675 22.7728C22.7711 22.7728 22.7748 22.7728 22.7784 22.7728H25.0821C25.1816 22.7728 25.316 22.7728 25.3301 22.8713V22.8713L25.4907 24.2877C25.4944 24.3315 25.4725 24.3717 25.436 24.3936M17.6604 23.7584C17.6568 23.7913 17.6349 23.8205 17.6057 23.8387L15.3898 25.1127C15.357 25.131 15.3132 25.131 15.2803 25.1127L14.0464 24.3936C14.0099 24.3717 13.988 24.3315 13.9917 24.2877L14.1523 22.8677V22.8677C14.1593 22.7699 14.2965 22.7691 14.3945 22.7691H16.7113C16.7442 22.7655 16.777 22.7764 16.7989 22.802L17.6276 23.6635C17.6495 23.6891 17.6604 23.7219 17.6568 23.7548M25.5857 16.0147C25.5857 16.0159 25.5872 16.0162 25.5877 16.0152L25.5927 16.0053C25.5929 16.0049 25.5931 16.0046 25.5933 16.0044L31.2223 10.0598C31.2462 10.0346 31.2814 10.0016 31.2658 9.9705V9.9705C31.2549 9.95225 31.2366 9.94495 31.2184 9.95225C31.1892 9.95955 27.7285 11.7702 25.6696 12.8507C25.5966 12.8909 25.5382 12.9457 25.498 13.0077L22.811 17.359C22.1689 18.3989 21.0045 18.9987 19.785 18.9179V18.9179C19.7595 18.9179 19.7339 18.9179 19.7084 18.9179V18.9179C18.4888 18.9987 17.3245 18.3989 16.6824 17.359L13.9953 13.0077C13.9552 12.942 13.8968 12.8872 13.8201 12.8507C11.7649 11.7702 8.30787 9.95955 8.27502 9.9486V9.9486C8.2403 9.93471 8.20842 9.99152 8.23486 10.018V10.018L13.9004 15.9975C13.9515 16.0522 13.9771 16.1289 13.9661 16.2019L13.1192 22.5245L13.1119 22.5976C13.1119 22.5976 13.1119 22.6049 13.1119 22.6085L12.3052 28.6136C12.2979 28.6939 12.3125 28.7705 12.3526 28.8399L14.5353 32.4982C14.5452 32.5148 14.5533 32.5273 14.5701 32.5369V32.5369C14.5798 32.5424 14.5966 32.5461 14.6066 32.5408C14.615 32.5363 14.6223 32.5287 14.6269 32.5196L16.0396 29.2269C16.0798 29.1356 16.171 29.0735 16.2696 29.0735H23.2238C23.3223 29.0735 23.4136 29.1319 23.4538 29.2269L24.8566 32.4964C24.8632 32.5118 24.8688 32.5238 24.8817 32.5344V32.5344C24.8921 32.543 24.9099 32.5441 24.922 32.538C24.9292 32.5345 24.9364 32.5295 24.9395 32.5233L27.1371 28.8399C27.1773 28.7705 27.1955 28.6902 27.1882 28.6099L26.3815 22.6085C26.3815 22.6085 26.3815 22.6012 26.3815 22.5976L25.5163 16.1763C25.509 16.1252 25.5272 16.0741 25.5674 16.0303L25.5838 16.0139C25.5845 16.0133 25.5857 16.0137 25.5857 16.0147V16.0147Z" fill="white"/>
<path d="M31.9659 10.2443C31.9641 10.2443 31.9625 10.2431 31.9618 10.2414C31.9588 10.2332 31.9493 10.2101 31.9373 10.2041C31.9227 10.1968 31.9008 10.2041 31.8898 10.2151L26.2036 16.2174C26.1858 16.2362 26.1596 16.257 26.1659 16.2822V16.2822L26.8847 21.6261C26.8873 21.6457 26.8915 21.666 26.9047 21.6809C26.9069 21.6833 26.9092 21.6856 26.9117 21.6875C26.9176 21.6919 26.9252 21.6922 26.9325 21.6922V21.6922C26.9471 21.6922 26.958 21.6849 26.9653 21.674L31.9081 15.1286C31.9592 15.0629 31.9848 14.9863 31.9848 14.9059L31.9702 10.2485C31.9702 10.2462 31.9683 10.2443 31.9659 10.2443V10.2443Z" fill="white"/>
<path d="M12.5562 21.6923V21.6923C12.5562 21.6923 12.571 21.6921 12.5775 21.6887C12.5896 21.6825 12.5971 21.6703 12.6 21.6558L13.3228 16.2823C13.3228 16.2823 13.3228 16.2567 13.3118 16.2458L7.62908 10.2509C7.60669 10.2273 7.57928 10.1963 7.54771 10.2042V10.2042C7.52946 10.2115 7.52216 10.2261 7.52216 10.2444L7.50391 14.906C7.50391 14.9863 7.52946 15.063 7.58057 15.1287L12.5004 21.6437C12.5156 21.6639 12.5309 21.6923 12.5562 21.6923V21.6923Z" fill="white"/>
<path d="M22.2049 31.7073L19.8795 33.4814C19.8028 33.5398 19.686 33.5398 19.6094 33.4814L17.284 31.7073C17.2073 31.6489 17.1781 31.5503 17.2073 31.459L17.4556 30.7107C17.4848 30.6194 17.5724 30.5574 17.6673 30.5574C17.6819 30.5574 17.6965 30.5574 17.7111 30.561L19.7245 30.9644C19.7305 30.9656 19.7338 30.9662 19.7399 30.9662V30.9662C19.7459 30.9662 19.7547 30.9656 19.7607 30.9644L21.7741 30.561C21.8836 30.5391 21.9931 30.6012 22.0296 30.707L22.2779 31.4554C22.3071 31.5466 22.2779 31.6452 22.2012 31.7036M24.5704 33.2587V33.2587C24.5704 33.2587 24.5581 33.2107 24.5482 33.1877L23.07 29.747C23.0627 29.7251 23.0408 29.7104 23.0153 29.7104H16.4699C16.448 29.7104 16.4261 29.7251 16.4188 29.7433L14.9303 33.2093C14.9297 33.2106 14.9294 33.2106 14.9294 33.212V33.212C14.9294 33.213 14.9293 33.2154 14.929 33.2163C14.9275 33.2219 14.9221 33.2425 14.9221 33.2551C14.9221 33.2733 14.9258 33.2916 14.9367 33.3062L16.2472 35.5001C16.3312 35.6389 16.4955 35.7265 16.678 35.7265H18.7624C18.8537 35.7265 18.9413 35.7046 19.018 35.6644V35.6644C19.4726 35.4245 20.0163 35.4245 20.4709 35.6644V35.6644C20.5475 35.7046 20.6351 35.7265 20.7264 35.7265H22.8108C22.9934 35.7265 23.1613 35.6389 23.2416 35.5001L24.5521 33.3062C24.5521 33.3062 24.5667 33.2733 24.5667 33.2551" fill="white"/>
</svg>
