<svg width="18" height="18" viewBox="0 0 18 18" fill="none" xmlns="http://www.w3.org/2000/svg"><circle cx="9" cy="9" r="8.5" fill="#19FB9B" fill-opacity=".2" stroke="#19FB9B" stroke-linejoin="round"/><path d="M12.5 9c0 2.432-.44 4.61-1.129 6.16-.344.777-.742 1.374-1.159 1.77-.414.394-.822.57-1.212.57s-.798-.176-1.212-.57c-.417-.396-.815-.993-1.16-1.77C5.94 13.61 5.5 11.433 5.5 9s.44-4.61 1.128-6.16c.345-.777.743-1.374 1.16-1.77C8.202.675 8.61.5 9 .5s.798.176 1.212.57c.417.396.815.993 1.16 1.77C12.06 4.39 12.5 6.567 12.5 9Z" stroke="#19FB9B" stroke-linejoin="round"/><mask id="learn-start-1" maskUnits="userSpaceOnUse" x="3" y="2" width="6" height="4" fill="#000"><rect fill="#fff" x="3" y="2" width="6" height="4"/><path d="M4 5a2 2 0 1 1 4 0H4Z"/></mask><path d="M4 5a2 2 0 1 1 4 0H4Z" stroke="#063321" stroke-linejoin="round" mask="url(#learn-start-1)"/><mask id="learn-start-2" maskUnits="userSpaceOnUse" x="9" y="12" width="6" height="4" fill="#000"><rect fill="#fff" x="9" y="12" width="6" height="4"/><path d="M14 13a2 2 0 1 1-4 0h4Z"/></mask><path d="M14 13a2 2 0 1 1-4 0h4Z" stroke="#063321" stroke-linejoin="round" mask="url(#learn-start-2)"/><path d="M.5 9h17" stroke="#19FB9B" stroke-linejoin="round"/><circle cx="6" cy="5" r="1.5" fill="#063321" stroke="#19FB9B" stroke-linejoin="round"/><circle cx="12" cy="13" r="1.5" fill="#063321" stroke="#19FB9B" stroke-linejoin="round"/></svg>