<svg width="500" height="167" viewBox="0 0 500 167" fill="none" xmlns="http://www.w3.org/2000/svg">
<path d="M190.892 40.5721C184.156 39.4808 177.794 38.4492 177.794 33.4822C177.794 30.6735 180.096 27.6717 186.558 27.6717C192.733 27.6717 196.728 30.6075 197.52 35.7252L197.6 36.2403H211.285L211.201 35.5585C209.776 23.9321 201.094 17.5288 186.756 17.5288C172.388 17.5288 163.81 23.8981 163.81 34.5658C163.81 46.041 173.686 48.5672 184.69 50.3221L184.752 50.3318C192.897 51.639 198.277 52.5019 198.277 57.412C198.277 61.2356 194.56 63.5175 188.331 63.5175C181.281 63.5175 177.18 60.5345 176.471 54.8913L176.404 54.3589H162.718L162.769 55.0135C163.682 66.8642 173.035 73.6611 188.43 73.6611C203.575 73.6611 212.261 67.4869 212.261 56.7219C212.261 43.9924 200.412 42.0958 190.892 40.5721Z" fill="black"/>
<path d="M244.069 28.8535C252.633 28.8535 257.954 35.2679 257.954 45.5948C257.954 55.921 252.633 62.3355 244.069 62.3355C235.504 62.3355 230.183 55.921 230.183 45.5948C230.183 35.2679 235.504 28.8535 244.069 28.8535ZM244.069 73.6606C260.679 73.6606 271.839 62.382 271.839 45.5948C271.839 28.8076 260.679 17.529 244.069 17.529C227.399 17.529 216.199 28.8076 216.199 45.5948C216.199 62.382 227.399 73.6606 244.069 73.6606Z" fill="black"/>
<path d="M291.63 -0.000150345H278.041V72.38H291.63V-0.000150345Z" fill="black"/>
<path d="M334.959 49.6322C334.959 57.8196 329.142 63.3204 320.483 63.3204C314.704 63.3204 311.521 61.0122 311.521 56.8213C311.521 53.0948 313.947 51.0976 319.892 49.9279L334.959 47.0719V49.6322ZM316.052 42.6409C303.247 44.9775 297.537 49.9286 297.537 58.6922C297.537 68.0653 304.274 73.6605 315.559 73.6605C324.179 73.6605 331.988 70.066 335.451 64.5019L335.747 72.3804H348.45V39.8835C348.45 25.6767 339.477 17.5288 323.831 17.5288C309.012 17.5288 299.704 24.8207 298.294 37.5343L298.219 38.2091H312.106L312.183 37.6919C313.151 31.3046 317.037 28.0661 323.733 28.0661C331.077 28.0661 334.959 31.778 334.959 38.7998V39.1928L316.052 42.6409Z" fill="black"/>
<path d="M404.48 72.3802V37.9132C404.48 25.1489 397.449 17.5287 385.672 17.5287C377.445 17.5287 371.662 21.1441 368.915 27.9924L368.718 27.9597L368.439 18.8095H355.735V72.3802H369.522V42.345C369.522 34.1437 373.829 29.2468 381.043 29.2468C387.694 29.2468 390.793 33.4092 390.793 42.345V72.3802H404.48Z" fill="black"/>
<path d="M447.512 49.6322C447.512 57.8196 441.695 63.3204 433.036 63.3204C427.257 63.3204 424.075 61.0122 424.075 56.8213C424.075 53.0941 426.501 51.0969 432.445 49.9279L447.512 47.0719V49.6322ZM461.003 39.8835C461.003 25.6767 452.03 17.5288 436.384 17.5288C421.565 17.5288 412.257 24.8207 410.847 37.5343L410.772 38.2091H424.659L424.736 37.6919C425.705 31.3046 429.591 28.0661 436.286 28.0661C443.63 28.0661 447.512 31.778 447.512 38.7998V39.1928L428.604 42.6409C415.801 44.9782 410.091 49.9286 410.091 58.6922C410.091 68.0653 416.827 73.6605 428.112 73.6605C436.732 73.6605 444.541 70.066 448.005 64.5019L448.3 72.3804H461.003V39.8835Z" fill="black"/>
<path d="M190.892 116.686C184.156 115.594 177.794 114.563 177.794 109.597C177.794 106.787 180.096 103.785 186.558 103.785C192.733 103.785 196.728 106.721 197.52 111.839L197.6 112.354H211.285L211.201 111.671C209.776 100.046 201.094 93.6438 186.756 93.6438C172.388 93.6438 163.81 100.012 163.81 110.679C163.81 122.154 173.686 124.681 184.688 126.436L184.751 126.446C192.897 127.753 198.277 128.616 198.277 133.526C198.277 137.349 194.56 139.632 188.331 139.632C181.281 139.632 177.18 136.649 176.471 131.005L176.404 130.473H162.718L162.769 131.128C163.682 142.979 173.035 149.775 188.43 149.775C203.575 149.775 212.261 143.601 212.261 132.836C212.261 120.107 200.412 118.21 190.892 116.686Z" fill="black"/>
<path d="M244.856 138.45C236.346 138.45 231.265 132.228 231.265 121.807C231.265 111.36 236.473 104.87 244.856 104.87C253.179 104.87 257.953 111.043 257.953 121.807C257.953 132.384 253.179 138.45 244.856 138.45ZM248.696 93.6438C240.739 93.6438 234.158 97.2661 230.988 103.359L230.758 103.311L230.478 94.9225H217.774V166.516H231.166V140.407L231.39 140.353C234.638 146.348 240.916 149.775 248.696 149.775C262.597 149.775 271.936 138.496 271.936 121.708C271.936 104.66 262.814 93.6438 248.696 93.6438Z" fill="black"/>
<path d="M313.492 125.747C313.492 133.934 307.674 139.434 299.015 139.434C293.237 139.434 290.054 137.126 290.054 132.935C290.054 129.209 292.481 127.211 298.426 126.042L313.492 123.186V125.747ZM302.364 93.644C287.544 93.644 278.236 100.935 276.826 113.648L276.751 114.324H290.638L290.716 113.806C291.684 107.419 295.57 104.18 302.265 104.18C309.61 104.18 313.492 107.892 313.492 114.914V115.307L294.585 118.755C281.78 121.093 276.07 126.043 276.07 134.807C276.07 144.18 282.808 149.775 294.092 149.775C302.712 149.775 310.521 146.18 313.984 140.617L314.28 148.495H326.983V115.998C326.983 101.792 318.01 93.644 302.364 93.644Z" fill="black"/>
<path d="M373.551 128.081C371.93 134.671 367.267 138.451 360.758 138.451C352.193 138.451 346.872 131.997 346.872 121.61C346.872 111.345 352.193 104.969 360.758 104.969C367.064 104.969 371.651 108.467 373.344 114.568L373.468 115.013H387.653L387.507 114.286C384.963 101.554 374.676 93.644 360.659 93.644C344.049 93.644 332.889 104.882 332.889 121.61C332.889 138.456 344.049 149.775 360.659 149.775C374.935 149.775 385.266 141.559 387.623 128.333L387.75 127.618H373.664L373.551 128.081Z" fill="black"/>
<path d="M406.45 117.377C407.669 109.241 412.551 104.574 419.841 104.574C427.078 104.574 431.939 109.36 432.841 117.376L406.45 117.377ZM419.841 93.644C403.29 93.644 392.17 104.882 392.17 121.61C392.17 129.897 394.784 136.95 399.728 142.008C404.695 147.089 411.651 149.775 419.841 149.775C432.791 149.775 442.573 143.037 446.008 131.751L446.246 130.966H431.764L431.606 131.334C429.522 136.177 425.38 138.844 419.94 138.844C412.432 138.844 407.351 133.764 406.351 125.254L446.726 125.253V121.118C446.726 104.428 436.173 93.644 419.841 93.644Z" fill="black"/>
<path d="M478.631 116.686C471.895 115.594 465.533 114.563 465.533 109.597C465.533 106.787 467.836 103.785 474.297 103.785C480.472 103.785 484.468 106.721 485.259 111.839L485.339 112.354H499.024L498.94 111.671C497.515 100.046 488.834 93.6438 474.494 93.6438C460.127 93.6438 451.549 100.012 451.549 110.679C451.549 122.154 461.425 124.681 472.426 126.436L472.49 126.446C480.635 127.753 486.016 128.616 486.016 133.526C486.016 137.349 482.298 139.632 476.07 139.632C469.02 139.632 464.919 136.649 464.211 131.005L464.143 130.473H450.457L450.508 131.128C451.421 142.979 460.774 149.775 476.169 149.775C491.314 149.775 500 143.601 500 132.836C500 120.107 488.151 118.21 478.631 116.686Z" fill="black"/>
<path d="M470.243 18.7523C473.125 18.7523 475.192 20.8613 475.192 23.7727C475.192 26.7113 473.083 28.8911 470.2 28.8911C467.332 28.8911 465.194 26.7397 465.194 23.8144C465.194 20.8897 467.332 18.7523 470.243 18.7523ZM470.214 30.1143C473.8 30.1143 476.543 27.3444 476.543 23.7866C476.543 20.2566 473.828 17.5291 470.257 17.5291C466.657 17.5291 463.844 20.2851 463.844 23.8283C463.844 27.3722 466.629 30.1143 470.214 30.1143Z" fill="black"/>
<path d="M470.229 27.0068C471.86 27.0068 473.013 26.0787 473.252 24.4612H471.734C471.593 25.2915 471.03 25.7413 470.229 25.7413C469.244 25.7413 468.626 25.0096 468.626 23.8149C468.626 22.6195 469.244 21.8739 470.215 21.8739C470.988 21.8739 471.537 22.3099 471.719 23.0409H473.224C472.957 21.4803 471.832 20.623 470.243 20.623C468.358 20.623 467.149 21.8739 467.149 23.8149C467.149 25.7691 468.358 27.0068 470.229 27.0068Z" fill="black"/>
<path d="M1.09213 156.416C15.317 156.413 29.5419 156.41 43.7674 156.408C58.07 156.405 72.7829 157.69 86.4691 152.723C100.597 147.595 113.065 136.704 120.049 123.379C127.017 109.688 128.797 94.7723 125.254 79.8268C124.682 77.5464 123.985 75.3145 123.167 73.1347C122.829 72.2364 121.971 71.6401 121.012 71.6401H106.866C106.202 71.6401 105.775 72.3489 106.089 72.9376C116.162 91.7962 111.585 115.205 95.8713 129.459C87.8179 136.526 77.4153 140.695 66.3602 140.909H66.1908L11.9175 140.916C10.7172 140.916 9.58915 141.501 8.89634 142.48L0.205638 154.687C0.145242 154.772 0.100813 154.861 0.0688801 154.95C-0.189363 155.63 0.306297 156.416 1.09213 156.416Z" fill="#6839E8"/>
<path d="M133.808 41.0274H69.6442C62.0677 41.1316 54.703 43.9952 49.0272 49.0066C40.4496 57.0524 36.9758 69.3536 40.3476 80.6614C41.6082 85.1987 44.5017 89.2251 46.7911 93.3389C47.3174 94.247 48.2878 94.8058 49.3375 94.8058H64.0184C64.6994 94.8058 65.1243 94.0678 64.7827 93.4785L56.5412 79.2606C55.2194 76.9766 54.4801 74.3262 54.4857 71.6785C54.3767 63.4883 61.4763 56.3846 69.6442 56.5269L123.173 56.5262C124.374 56.5262 125.5 55.9437 126.193 54.9635L134.758 42.8629C135.304 42.0924 134.753 41.0274 133.808 41.0274Z" fill="#FF7370"/>
<path d="M94.7415 85.7852C93.4815 81.2479 90.5881 77.2215 88.2979 73.1077C87.7717 72.1997 86.8019 71.6409 85.7523 71.6409H71.0713C70.3903 71.6409 69.9648 72.3788 70.3063 72.9682L78.5479 87.1861C79.8696 89.47 80.6089 92.1205 80.6034 94.7681C80.7124 102.958 73.6135 110.062 65.4448 109.92L11.9164 109.92C10.7154 109.92 9.58945 110.503 8.89594 111.483L0.330899 123.583C-0.214048 124.354 0.33645 125.419 1.28056 125.419H65.4455C73.022 125.315 80.3861 122.451 86.0619 117.44C94.6394 109.394 98.1132 97.093 94.7415 85.7852Z" fill="#C258F4"/>
<path d="M133.997 10.0306C119.772 10.0334 105.548 10.0362 91.322 10.0383C77.0194 10.041 62.3065 8.75606 48.6204 13.7231C34.4927 18.8511 22.0241 29.7424 15.0405 43.0676C8.0728 56.7586 6.29287 71.6742 9.83537 86.6197C10.4074 88.9001 11.1044 91.132 11.9221 93.3118C12.2609 94.2101 13.1189 94.8064 14.0776 94.8064H28.2234C28.8877 94.8064 29.3146 94.0969 29.0009 93.5089C18.9273 74.6503 23.5042 51.2411 39.2181 36.9878C47.2715 29.9208 57.6741 25.7515 68.7293 25.5377H68.8987L123.172 25.53C124.372 25.53 125.5 24.9455 126.193 23.9667L134.884 11.7592C134.944 11.6745 134.989 11.5856 135.021 11.4968C135.279 10.8164 134.783 10.0306 133.997 10.0306Z" fill="#FFC674"/>
</svg>
