<?xml version="1.0" encoding="UTF-8"?>
<svg id="Layer_1" xmlns="http://www.w3.org/2000/svg" version="1.1" viewBox="0 0 3190.5 1062.6">
  <!-- Generator: Adobe Illustrator 29.3.1, SVG Export Plug-In . SVG Version: 2.1.0 Build 151)  -->
  <defs>
    <style>
      .st0 {
        fill: #c258f4;
      }

      .st1 {
        fill: #ff7370;
      }

      .st2 {
        fill: #ffc674;
      }

      .st3 {
        fill: #fff;
      }

      .st4 {
        fill: #6839e8;
      }
    </style>
  </defs>
  <path class="st4" d="M7,998.1h272.3c91.3,0,185.2,8.2,272.5-23.5,90.2-32.7,169.7-102.2,214.3-187.2,44.5-87.4,55.8-182.5,33.2-277.9-3.7-14.6-8.1-28.8-13.3-42.7-2.2-5.7-7.6-9.5-13.8-9.5h-90.3c-4.2,0-7,4.5-5,8.3,64.3,120.3,35.1,269.7-65.2,360.7-51.4,45.1-117.8,71.7-188.3,73.1H76c-7.7,0-14.9,3.8-19.3,10L1.3,987.1c-.4.5-.7,1.1-.9,1.7-1.6,4.3,1.5,9.4,6.5,9.4h0Z"/>
  <path class="st3" d="M1218.1,258.9c-43-7-83.6-13.5-83.6-45.2s14.7-37.1,55.9-37.1,64.9,18.7,69.9,51.4l.5,3.3h87.3l-.5-4.3c-9.1-74.2-64.5-115-156-115s-146.4,40.6-146.4,108.7,63,89.3,133.2,100.5h.4c52,8.4,86.3,13.9,86.3,45.2s-23.7,39-63.5,39-71.2-19-75.7-55l-.4-3.4h-87.3l.3,4.2c5.8,75.6,65.5,119,163.7,119s152.1-39.4,152.1-108.1-75.6-93.3-136.4-103.1h.2Z"/>
  <path class="st3" d="M1557.4,470c106,0,177.2-72,177.2-179.1s-71.2-179.1-177.2-179.1-177.8,72-177.8,179.1,71.5,179.1,177.8,179.1ZM1557.4,184.1c54.7,0,88.6,40.9,88.6,106.8s-34,106.8-88.6,106.8-88.6-40.9-88.6-106.8,34-106.8,88.6-106.8h0Z"/>
  <rect class="st3" x="1774.2" width="86.7" height="461.9"/>
  <path class="st3" d="M2016.7,272.1c-81.7,14.9-118.1,46.5-118.1,102.4s43,95.5,115,95.5,104.8-22.9,126.9-58.4l1.9,50.3h81.1v-207.4c0-90.7-57.3-142.6-157.1-142.6s-154,46.5-163,127.7l-.5,4.3h88.6l.5-3.3c6.2-40.8,31-61.4,73.7-61.4s71.6,23.7,71.6,68.5v2.5l-120.7,22h0ZM2137.4,316.7c0,52.2-37.1,87.3-92.4,87.3s-57.2-14.7-57.2-41.5,15.5-36.5,53.4-44l96.1-18.2v16.3h0Z"/>
  <path class="st3" d="M2581,461.9v-219.9c0-81.4-44.9-130.1-120-130.1s-89.4,23.1-106.9,66.8l-1.3-.2-1.8-58.4h-81.1v341.8h88v-191.7c0-52.3,27.5-83.6,73.5-83.6s62.2,26.6,62.2,83.6v191.7h87.4Z"/>
  <path class="st3" d="M2941.7,254.5c0-90.7-57.3-142.6-157.1-142.6s-154,46.5-163,127.7l-.5,4.3h88.6l.5-3.3c6.2-40.8,31-61.4,73.7-61.4s71.6,23.7,71.6,68.5v2.5l-120.7,22c-81.7,14.9-118.1,46.5-118.1,102.4s43,95.5,115,95.5,104.8-22.9,126.9-58.4l1.9,50.3h81.1v-207.4h.1ZM2855.6,316.7c0,52.2-37.1,87.3-92.4,87.3s-57.2-14.7-57.2-41.5,15.5-36.5,53.4-44l96.1-18.2v16.3h0Z"/>
  <path class="st3" d="M1218.1,744.6c-43-7-83.6-13.6-83.6-45.2s14.7-37.1,55.9-37.1,64.9,18.7,69.9,51.4l.5,3.3h87.3l-.5-4.4c-9.1-74.2-64.5-115-156-115s-146.4,40.6-146.4,108.7,63,89.3,133.2,100.5h.4c52,8.4,86.3,13.9,86.3,45.2s-23.7,39-63.5,39-71.2-19-75.7-55l-.4-3.4h-87.3l.3,4.2c5.8,75.6,65.5,119,163.7,119s152.1-39.4,152.1-108.1-75.6-93.3-136.4-103.1h.2Z"/>
  <path class="st3" d="M1587,597.5c-50.8,0-92.8,23.1-113,62l-1.5-.3-1.8-53.5h-81.1v456.8h85.5v-166.6l1.4-.3c20.7,38.3,60.8,60.1,110.4,60.1,88.7,0,148.3-72,148.3-179.1s-58.2-179.1-148.3-179.1h0ZM1562.4,883.5c-54.3,0-86.7-39.7-86.7-106.2s33.2-108.1,86.7-108.1,83.6,39.4,83.6,108.1-30.5,106.2-83.6,106.2Z"/>
  <path class="st3" d="M1929.4,597.5c-94.6,0-154,46.5-163,127.7l-.5,4.3h88.6l.5-3.3c6.2-40.8,31-61.4,73.7-61.4s71.6,23.7,71.6,68.5v2.5l-120.6,22c-81.7,14.9-118.1,46.5-118.1,102.4s43,95.5,115,95.5,104.8-22.9,126.9-58.4l1.9,50.3h81.1v-207.4c0-90.6-57.3-142.6-157.1-142.6h0ZM2000.4,802.4c0,52.2-37.1,87.3-92.4,87.3s-57.2-14.7-57.2-41.5,15.5-36.5,53.4-44l96.1-18.2v16.3h0Z"/>
  <path class="st3" d="M2383.7,817.3c-10.3,42.1-40.1,66.2-81.6,66.2s-88.6-41.2-88.6-107.5,34-106.2,88.6-106.2,69.5,22.3,80.3,61.3l.8,2.8h90.5l-.9-4.6c-16.2-81.2-81.9-131.7-171.3-131.7s-177.2,71.7-177.2,178.5,71.2,179.7,177.2,179.7,157-52.4,172.1-136.8l.8-4.6h-89.9l-.7,3h-.1Z"/>
  <path class="st3" d="M2679,597.5c-105.6,0-176.6,71.7-176.6,178.5s16.7,97.9,48.2,130.2c31.7,32.4,76.1,49.6,128.3,49.6,82.6,0,145.1-43,167-115l1.5-5h-92.4l-1,2.3c-13.3,30.9-39.7,47.9-74.4,47.9s-80.3-32.4-86.7-86.7h257.6v-26.4c0-106.5-67.3-175.3-171.6-175.3h0ZM2593.6,749c7.8-51.9,38.9-81.7,85.5-81.7s77.2,30.5,82.9,81.7h-168.4Z"/>
  <path class="st3" d="M3054.2,744.6c-43-7-83.6-13.6-83.6-45.2s14.7-37.1,55.9-37.1,64.9,18.7,69.9,51.4l.5,3.3h87.3l-.5-4.4c-9.1-74.2-64.5-115-156-115s-146.4,40.6-146.4,108.7,63,89.3,133.2,100.5h.4c52,8.4,86.3,13.9,86.3,45.2s-23.7,39-63.5,39-71.2-19-75.7-55l-.4-3.4h-87.3l.3,4.2c5.8,75.6,65.5,119,163.7,119s152.1-39.4,152.1-108.1-75.6-93.3-136.4-103.1h.2Z"/>
  <path class="st3" d="M3000.5,192.2c22.9,0,40.4-17.7,40.4-40.4s-17.3-39.9-40.1-39.9-40.9,17.6-40.9,40.2,17.8,40.1,40.6,40.1h0ZM3000.7,119.7c18.4,0,31.6,13.5,31.6,32s-13.5,32.7-31.9,32.7-31.9-13.7-31.9-32.4,13.6-32.3,32.2-32.3h0Z"/>
  <path class="st3" d="M3000.6,172.3c10.4,0,17.8-5.9,19.3-16.2h-9.7c-.9,5.3-4.5,8.2-9.6,8.2s-10.2-4.7-10.2-12.3,3.9-12.4,10.1-12.4,8.4,2.8,9.6,7.4h9.6c-1.7-10-8.9-15.4-19-15.4s-19.7,8-19.7,20.4,7.7,20.4,19.7,20.4h-.1Z"/>
  <path class="st1" d="M853.8,261.8h-409.4c-48.3.7-95.3,18.9-131.6,50.9-54.7,51.3-76.9,129.8-55.4,202,8,29,26.5,54.6,41.1,80.9,3.4,5.8,9.5,9.4,16.2,9.4h93.7c4.3,0,7.1-4.7,4.9-8.5l-52.6-90.7c-8.4-14.6-13.1-31.5-13.1-48.4-.7-52.3,44.6-97.6,96.7-96.7h341.6c7.7,0,14.8-3.7,19.3-10l54.7-77.2c3.5-4.9,0-11.7-6.1-11.7h0Z"/>
  <path class="st0" d="M604.6,547.4c-8-29-26.5-54.6-41.1-80.9-3.4-5.8-9.5-9.4-16.2-9.4h-93.7c-4.3,0-7.1,4.7-4.9,8.5l52.6,90.7c8.4,14.6,13.1,31.5,13.1,48.4.7,52.3-44.6,97.6-96.7,96.7H76.1c-7.7,0-14.8,3.7-19.3,10L2.1,788.6c-3.5,4.9,0,11.7,6.1,11.7h409.4c48.3-.7,95.3-18.9,131.6-50.9,54.7-51.3,76.9-129.8,55.4-202h0Z"/>
  <path class="st2" d="M855,64h-272.3c-91.3,0-185.2-8.2-272.5,23.5-90.2,32.7-169.7,102.2-214.3,187.2-44.5,87.4-55.8,182.5-33.2,277.9,3.7,14.6,8.1,28.8,13.3,42.7,2.2,5.7,7.6,9.5,13.8,9.5h90.3c4.2,0,7-4.5,5-8.3-64.3-120.3-35.1-269.7,65.2-360.7,51.4-45.1,117.8-71.7,188.3-73.1h347.4c7.7,0,14.9-3.8,19.3-10l55.5-77.9c.4-.5.7-1.1.9-1.7,1.6-4.3-1.5-9.4-6.5-9.4l-.2.3Z"/>
</svg>