<svg xmlns="http://www.w3.org/2000/svg" width="373" height="97" fill="none" viewBox="0 0 373 97"><path fill="#000" d="M55.366 96.346v-6.808h6.808V82.73h6.808v-6.808h6.855V21.317h-6.855V14.51h-6.808V7.701h-6.808V.846H.808v95.5h54.558ZM14.424 82.73V14.509h34.134v6.808h6.808v6.855h6.808v40.895h-6.808v6.855h-6.808v6.808H14.424Zm88.599 13.616V.846H89.407v95.5h13.616Zm81.79 0V82.73h-54.558V52.047h47.75V38.384h-47.75V14.509h54.558V.846h-68.174v95.5h68.174Zm64.911 0v-6.808h6.808V82.73h6.808v13.616h13.663v-47.75h-34.087V62.26h20.424v6.808h-6.808v6.855h-6.808v6.808h-27.279v-6.808h-6.855v-6.855h-6.808V28.172h6.808v-6.855h6.855V14.51h27.279v6.808h6.808v6.855h6.808v6.808h13.663V21.317h-6.808V14.51h-6.855V7.701h-6.808V.846H215.59v6.855h-6.808v6.808h-6.808v6.808h-6.808v54.605h6.808v6.808h6.808v6.808h6.808v6.808h34.134Zm102.308 0v-6.808h6.808V82.73h6.855v-6.808h6.808V21.317h-6.808V14.51h-6.855V7.701h-6.808V.846H311.09v6.855h-6.808v6.808h-6.808v6.808h-6.808v54.605h6.808v6.808h6.808v6.808h6.808v6.808h40.942ZM317.945 82.73v-6.808h-6.855v-6.855h-6.808V28.172h6.808v-6.855h6.855V14.51h27.279v6.808h6.808v6.855h6.808v40.895h-6.808v6.855h-6.808v6.808h-27.279Z"/><path fill="#000" d="M55.366 96.346v1.5h1.5v-1.5h-1.5Zm0-6.808v-1.5h-1.5v1.5h1.5Zm6.808 0v1.5h1.5v-1.5h-1.5Zm0-6.808v-1.5h-1.5v1.5h1.5Zm6.808 0v1.5h1.5v-1.5h-1.5Zm0-6.808v-1.5h-1.5v1.5h1.5Zm6.855 0v1.5h1.5v-1.5h-1.5Zm0-54.605h1.5v-1.5h-1.5v1.5Zm-6.855 0h-1.5v1.5h1.5v-1.5Zm0-6.808h1.5v-1.5h-1.5v1.5Zm-6.808 0h-1.5v1.5h1.5v-1.5Zm0-6.808h1.5V6.2h-1.5v1.5Zm-6.808 0h-1.5v1.5h1.5V7.7Zm0-6.855h1.5v-1.5h-1.5v1.5ZM.808.846v-1.5h-1.5v1.5h1.5Zm0 95.5h-1.5v1.5h1.5v-1.5ZM14.424 82.73h-1.5v1.5h1.5v-1.5Zm0-68.221v-1.5h-1.5v1.5h1.5Zm34.134 0h1.5v-1.5h-1.5v1.5Zm0 6.808h-1.5v1.5h1.5v-1.5Zm6.808 0h1.5v-1.5h-1.5v1.5Zm0 6.855h-1.5v1.5h1.5v-1.5Zm6.808 0h1.5v-1.5h-1.5v1.5Zm0 40.895v1.5h1.5v-1.5h-1.5Zm-6.808 0v-1.5h-1.5v1.5h1.5Zm0 6.855v1.5h1.5v-1.5h-1.5Zm-6.808 0v-1.5h-1.5v1.5h1.5Zm0 6.808v1.5h1.5v-1.5h-1.5Zm8.308 13.616v-6.808h-3v6.808h3Zm-1.5-5.308h6.808v-3h-6.808v3Zm8.308-1.5V82.73h-3v6.808h3Zm-1.5-5.308h6.808v-3h-6.808v3Zm8.308-1.5v-6.808h-3v6.808h3Zm-1.5-5.308h6.855v-3h-6.855v3Zm8.355-1.5V21.317h-3v54.605h3Zm-1.5-56.105h-6.855v3h6.855v-3Zm-5.355 1.5V14.51h-3v6.808h3Zm-1.5-8.308h-6.808v3h6.808v-3Zm-5.308 1.5V7.701h-3v6.808h3Zm-1.5-8.308h-6.808v3h6.808v-3Zm-5.308 1.5V.846h-3v6.855h3Zm-1.5-8.355H.808v3h54.558v-3ZM-.692.846v95.5h3V.846h-3Zm1.5 97h54.558v-3H.808v3ZM15.924 82.73V14.509h-3V82.73h3Zm-1.5-66.721h34.134v-3H14.424v3Zm32.634-1.5v6.808h3V14.51h-3Zm1.5 8.308h6.808v-3h-6.808v3Zm5.308-1.5v6.855h3v-6.855h-3Zm1.5 8.355h6.808v-3h-6.808v3Zm5.308-1.5v40.895h3V28.172h-3Zm1.5 39.395h-6.808v3h6.808v-3Zm-8.308 1.5v6.855h3v-6.855h-3Zm1.5 5.355h-6.808v3h6.808v-3Zm-8.308 1.5v6.808h3v-6.808h-3Zm1.5 5.308H14.424v3h34.134v-3Zm54.465 15.116v1.5h1.5v-1.5h-1.5Zm0-95.5h1.5v-1.5h-1.5v1.5Zm-13.616 0v-1.5h-1.5v1.5h1.5Zm0 95.5h-1.5v1.5h1.5v-1.5Zm15.116 0V.846h-3v95.5h3Zm-1.5-97H89.407v3h13.616v-3ZM87.907.846v95.5h3V.846h-3Zm1.5 97h13.616v-3H89.407v3Zm95.406-1.5v1.5h1.5v-1.5h-1.5Zm0-13.616h1.5v-1.5h-1.5v1.5Zm-54.558 0h-1.5v1.5h1.5v-1.5Zm0-30.683v-1.5h-1.5v1.5h1.5Zm47.75 0v1.5h1.5v-1.5h-1.5Zm0-13.663h1.5v-1.5h-1.5v1.5Zm-47.75 0h-1.5v1.5h1.5v-1.5Zm0-23.875v-1.5h-1.5v1.5h1.5Zm54.558 0v1.5h1.5v-1.5h-1.5Zm0-13.663h1.5v-1.5h-1.5v1.5Zm-68.174 0v-1.5h-1.5v1.5h1.5Zm0 95.5h-1.5v1.5h1.5v-1.5Zm69.674 0V82.73h-3v13.616h3Zm-1.5-15.116h-54.558v3h54.558v-3Zm-53.058 1.5V52.047h-3V82.73h3Zm-1.5-29.183h47.75v-3h-47.75v3Zm49.25-1.5V38.384h-3v13.663h3Zm-1.5-15.163h-47.75v3h47.75v-3Zm-46.25 1.5V14.509h-3v23.875h3Zm-1.5-22.375h54.558v-3h-54.558v3Zm56.058-1.5V.846h-3V14.51h3Zm-1.5-15.163h-68.174v3h68.174v-3Zm-69.674 1.5v95.5h3V.846h-3Zm1.5 97h68.174v-3h-68.174v3Zm133.085-1.5v1.5h1.5v-1.5h-1.5Zm0-6.808v-1.5h-1.5v1.5h1.5Zm6.808 0v1.5h1.5v-1.5h-1.5Zm0-6.808v-1.5h-1.5v1.5h1.5Zm6.808 0h1.5v-1.5h-1.5v1.5Zm0 13.616h-1.5v1.5h1.5v-1.5Zm13.663 0v1.5h1.5v-1.5h-1.5Zm0-47.75h1.5v-1.5h-1.5v1.5Zm-34.087 0v-1.5h-1.5v1.5h1.5Zm0 13.663h-1.5v1.5h1.5v-1.5Zm20.424 0h1.5v-1.5h-1.5v1.5Zm0 6.808v1.5h1.5v-1.5h-1.5Zm-6.808 0v-1.5h-1.5v1.5h1.5Zm0 6.855v1.5h1.5v-1.5h-1.5Zm-6.808 0v-1.5h-1.5v1.5h1.5Zm0 6.808v1.5h1.5v-1.5h-1.5Zm-27.279 0h-1.5v1.5h1.5v-1.5Zm0-6.808h1.5v-1.5h-1.5v1.5Zm-6.855 0h-1.5v1.5h1.5v-1.5Zm0-6.855h1.5v-1.5h-1.5v1.5Zm-6.808 0h-1.5v1.5h1.5v-1.5Zm0-40.895v-1.5h-1.5v1.5h1.5Zm6.808 0v1.5h1.5v-1.5h-1.5Zm0-6.855v-1.5h-1.5v1.5h1.5Zm6.855 0v1.5h1.5v-1.5h-1.5Zm0-6.808v-1.5h-1.5v1.5h1.5Zm27.279 0h1.5v-1.5h-1.5v1.5Zm0 6.808h-1.5v1.5h1.5v-1.5Zm6.808 0h1.5v-1.5h-1.5v1.5Zm0 6.855h-1.5v1.5h1.5v-1.5Zm6.808 0h1.5v-1.5h-1.5v1.5Zm0 6.808h-1.5v1.5h1.5v-1.5Zm13.663 0v1.5h1.5v-1.5h-1.5Zm0-13.663h1.5v-1.5h-1.5v1.5Zm-6.808 0h-1.5v1.5h1.5v-1.5Zm0-6.808h1.5v-1.5h-1.5v1.5Zm-6.855 0h-1.5v1.5h1.5v-1.5Zm0-6.808h1.5V6.2h-1.5v1.5Zm-6.808 0h-1.5v1.5h1.5V7.7Zm0-6.855h1.5v-1.5h-1.5v1.5Zm-40.942 0v-1.5h-1.5v1.5h1.5Zm0 6.855v1.5h1.5V7.7h-1.5Zm-6.808 0V6.2h-1.5v1.5h1.5Zm0 6.808v1.5h1.5v-1.5h-1.5Zm-6.808 0v-1.5h-1.5v1.5h1.5Zm0 6.808v1.5h1.5v-1.5h-1.5Zm-6.808 0v-1.5h-1.5v1.5h1.5Zm0 54.605h-1.5v1.5h1.5v-1.5Zm6.808 0h1.5v-1.5h-1.5v1.5Zm0 6.808h-1.5v1.5h1.5v-1.5Zm6.808 0h1.5v-1.5h-1.5v1.5Zm0 6.808h-1.5v1.5h1.5v-1.5Zm6.808 0h1.5v-1.5h-1.5v1.5Zm0 6.808h-1.5v1.5h1.5v-1.5Zm35.634 0v-6.808h-3v6.808h3Zm-1.5-5.308h6.808v-3h-6.808v3Zm8.308-1.5V82.73h-3v6.808h3Zm-1.5-5.308h6.808v-3h-6.808v3Zm5.308-1.5v13.616h3V82.73h-3Zm1.5 15.116h13.663v-3H263.34v3Zm15.163-1.5v-47.75h-3v47.75h3Zm-1.5-49.25h-34.087v3h34.087v-3Zm-35.587 1.5V62.26h3V48.596h-3Zm1.5 15.163h20.424v-3h-20.424v3Zm18.924-1.5v6.808h3V62.26h-3Zm1.5 5.308h-6.808v3h6.808v-3Zm-8.308 1.5v6.855h3v-6.855h-3Zm1.5 5.355h-6.808v3h6.808v-3Zm-8.308 1.5v6.808h3v-6.808h-3Zm1.5 5.308h-27.279v3h27.279v-3Zm-25.779 1.5v-6.808h-3v6.808h3Zm-1.5-8.308h-6.855v3h6.855v-3Zm-5.355 1.5v-6.855h-3v6.855h3Zm-1.5-8.355h-6.808v3h6.808v-3Zm-5.308 1.5V28.172h-3v40.895h3Zm-1.5-39.395h6.808v-3h-6.808v3Zm8.308-1.5v-6.855h-3v6.855h3Zm-1.5-5.355h6.855v-3h-6.855v3Zm8.355-1.5V14.51h-3v6.808h3Zm-1.5-5.308h27.279v-3h-27.279v3Zm25.779-1.5v6.808h3V14.51h-3Zm1.5 8.308h6.808v-3h-6.808v3Zm5.308-1.5v6.855h3v-6.855h-3Zm1.5 8.355h6.808v-3h-6.808v3Zm5.308-1.5v6.808h3v-6.808h-3Zm1.5 8.308h13.663v-3H263.34v3Zm15.163-1.5V21.317h-3V34.98h3Zm-1.5-15.163h-6.808v3h6.808v-3Zm-5.308 1.5V14.51h-3v6.808h3Zm-1.5-8.308h-6.855v3h6.855v-3Zm-5.355 1.5V7.701h-3v6.808h3Zm-1.5-8.308h-6.808v3h6.808v-3Zm-5.308 1.5V.846h-3v6.855h3Zm-1.5-8.355H215.59v3h40.942v-3ZM214.09.846v6.855h3V.846h-3Zm1.5 5.355h-6.808v3h6.808v-3Zm-8.308 1.5v6.808h3V7.701h-3Zm1.5 5.308h-6.808v3h6.808v-3Zm-8.308 1.5v6.808h3V14.51h-3Zm1.5 5.308h-6.808v3h6.808v-3Zm-8.308 1.5v54.605h3V21.317h-3Zm1.5 56.105h6.808v-3h-6.808v3Zm5.308-1.5v6.808h3v-6.808h-3Zm1.5 8.308h6.808v-3h-6.808v3Zm5.308-1.5v6.808h3V82.73h-3Zm1.5 8.308h6.808v-3h-6.808v3Zm5.308-1.5v6.808h3v-6.808h-3Zm1.5 8.308h34.134v-3H215.59v3Zm136.442-1.5v1.5h1.5v-1.5h-1.5Zm0-6.808v-1.5h-1.5v1.5h1.5Zm6.808 0v1.5h1.5v-1.5h-1.5Zm0-6.808v-1.5h-1.5v1.5h1.5Zm6.855 0v1.5h1.5v-1.5h-1.5Zm0-6.808v-1.5h-1.5v1.5h1.5Zm6.808 0v1.5h1.5v-1.5h-1.5Zm0-54.605h1.5v-1.5h-1.5v1.5Zm-6.808 0h-1.5v1.5h1.5v-1.5Zm0-6.808h1.5v-1.5h-1.5v1.5Zm-6.855 0h-1.5v1.5h1.5v-1.5Zm0-6.808h1.5V6.2h-1.5v1.5Zm-6.808 0h-1.5v1.5h1.5V7.7Zm0-6.855h1.5v-1.5h-1.5v1.5Zm-40.942 0v-1.5h-1.5v1.5h1.5Zm0 6.855v1.5h1.5V7.7h-1.5Zm-6.808 0V6.2h-1.5v1.5h1.5Zm0 6.808v1.5h1.5v-1.5h-1.5Zm-6.808 0v-1.5h-1.5v1.5h1.5Zm0 6.808v1.5h1.5v-1.5h-1.5Zm-6.808 0v-1.5h-1.5v1.5h1.5Zm0 54.605h-1.5v1.5h1.5v-1.5Zm6.808 0h1.5v-1.5h-1.5v1.5Zm0 6.808h-1.5v1.5h1.5v-1.5Zm6.808 0h1.5v-1.5h-1.5v1.5Zm0 6.808h-1.5v1.5h1.5v-1.5Zm6.808 0h1.5v-1.5h-1.5v1.5Zm0 6.808h-1.5v1.5h1.5v-1.5Zm6.855-13.616h-1.5v1.5h1.5v-1.5Zm0-6.808h1.5v-1.5h-1.5v1.5Zm-6.855 0h-1.5v1.5h1.5v-1.5Zm0-6.855h1.5v-1.5h-1.5v1.5Zm-6.808 0h-1.5v1.5h1.5v-1.5Zm0-40.895v-1.5h-1.5v1.5h1.5Zm6.808 0v1.5h1.5v-1.5h-1.5Zm0-6.855v-1.5h-1.5v1.5h1.5Zm6.855 0v1.5h1.5v-1.5h-1.5Zm0-6.808v-1.5h-1.5v1.5h1.5Zm27.279 0h1.5v-1.5h-1.5v1.5Zm0 6.808h-1.5v1.5h1.5v-1.5Zm6.808 0h1.5v-1.5h-1.5v1.5Zm0 6.855h-1.5v1.5h1.5v-1.5Zm6.808 0h1.5v-1.5h-1.5v1.5Zm0 40.895v1.5h1.5v-1.5h-1.5Zm-6.808 0v-1.5h-1.5v1.5h1.5Zm0 6.855v1.5h1.5v-1.5h-1.5Zm-6.808 0v-1.5h-1.5v1.5h1.5Zm0 6.808v1.5h1.5v-1.5h-1.5Zm8.308 13.616v-6.808h-3v6.808h3Zm-1.5-5.308h6.808v-3h-6.808v3Zm8.308-1.5V82.73h-3v6.808h3Zm-1.5-5.308h6.855v-3h-6.855v3Zm8.355-1.5v-6.808h-3v6.808h3Zm-1.5-5.308h6.808v-3h-6.808v3Zm8.308-1.5V21.317h-3v54.605h3Zm-1.5-56.105h-6.808v3h6.808v-3Zm-5.308 1.5V14.51h-3v6.808h3Zm-1.5-8.308h-6.855v3h6.855v-3Zm-5.355 1.5V7.701h-3v6.808h3Zm-1.5-8.308h-6.808v3h6.808v-3Zm-5.308 1.5V.846h-3v6.855h3Zm-1.5-8.355H311.09v3h40.942v-3ZM309.59.846v6.855h3V.846h-3Zm1.5 5.355h-6.808v3h6.808v-3Zm-8.308 1.5v6.808h3V7.701h-3Zm1.5 5.308h-6.808v3h6.808v-3Zm-8.308 1.5v6.808h3V14.51h-3Zm1.5 5.308h-6.808v3h6.808v-3Zm-8.308 1.5v54.605h3V21.317h-3Zm1.5 56.105h6.808v-3h-6.808v3Zm5.308-1.5v6.808h3v-6.808h-3Zm1.5 8.308h6.808v-3h-6.808v3Zm5.308-1.5v6.808h3V82.73h-3Zm1.5 8.308h6.808v-3h-6.808v3Zm5.308-1.5v6.808h3v-6.808h-3Zm1.5 8.308h40.942v-3H311.09v3Zm8.355-15.116v-6.808h-3v6.808h3Zm-1.5-8.308h-6.855v3h6.855v-3Zm-5.355 1.5v-6.855h-3v6.855h3Zm-1.5-8.355h-6.808v3h6.808v-3Zm-5.308 1.5V28.172h-3v40.895h3Zm-1.5-39.395h6.808v-3h-6.808v3Zm8.308-1.5v-6.855h-3v6.855h3Zm-1.5-5.355h6.855v-3h-6.855v3Zm8.355-1.5V14.51h-3v6.808h3Zm-1.5-5.308h27.279v-3h-27.279v3Zm25.779-1.5v6.808h3V14.51h-3Zm1.5 8.308h6.808v-3h-6.808v3Zm5.308-1.5v6.855h3v-6.855h-3Zm1.5 8.355h6.808v-3h-6.808v3Zm5.308-1.5v40.895h3V28.172h-3Zm1.5 39.395h-6.808v3h6.808v-3Zm-8.308 1.5v6.855h3v-6.855h-3Zm1.5 5.355h-6.808v3h6.808v-3Zm-8.308 1.5v6.808h3v-6.808h-3Zm1.5 5.308h-27.279v3h27.279v-3Z"/></svg>