<svg xmlns="http://www.w3.org/2000/svg" width="212" height="97" fill="none" viewBox="0 0 212 97"><path fill="#000" d="M41.3 96.385v-6.809h6.854v-6.808h6.808V.885H41.3V75.96h-6.808v6.808H20.828V75.96H14.02V62.298H.404v20.47h6.808v6.808h6.808v6.809H41.3Zm81.79 0v-6.809h6.808v-6.808h6.808V.885H123.09V75.96h-6.808v6.808H88.956V75.96h-6.808V.885H68.532v81.883h6.808v6.808h6.808v6.809h40.942Zm88.692 0V82.768h-47.75V.885h-13.616v95.5h61.366Z"/><path fill="#000" d="M41.3 96.385v1.5h1.5v-1.5h-1.5Zm0-6.809v-1.5h-1.5v1.5h1.5Zm6.854 0v1.5h1.5v-1.5h-1.5Zm0-6.808v-1.5h-1.5v1.5h1.5Zm6.808 0v1.5h1.5v-1.5h-1.5Zm0-81.883h1.5v-1.5h-1.5v1.5ZM41.3.885v-1.5h-1.5v1.5h1.5Zm0 75.075v1.5h1.5v-1.5h-1.5Zm-6.808 0v-1.5h-1.5v1.5h1.5Zm0 6.808v1.5h1.5v-1.5h-1.5Zm-13.663 0h-1.5v1.5h1.5v-1.5Zm0-6.808h1.5v-1.5h-1.5v1.5Zm-6.808 0h-1.5v1.5h1.5v-1.5Zm0-13.662h1.5v-1.5h-1.5v1.5Zm-13.616 0v-1.5h-1.5v1.5h1.5Zm0 20.47h-1.5v1.5h1.5v-1.5Zm6.808 0h1.5v-1.5h-1.5v1.5Zm0 6.808h-1.5v1.5h1.5v-1.5Zm6.808 0h1.5v-1.5h-1.5v1.5Zm0 6.809h-1.5v1.5h1.5v-1.5Zm28.78 0v-6.809h-3v6.809h3Zm-1.5-5.309h6.854v-3H41.3v3Zm8.354-1.5v-6.808h-3v6.808h3Zm-1.5-5.308h6.808v-3h-6.808v3Zm8.308-1.5V.885h-3v81.883h3Zm-1.5-83.383H41.3v3h13.663v-3ZM39.8.885V75.96h3V.885h-3Zm1.5 73.575h-6.808v3H41.3v-3Zm-8.308 1.5v6.808h3V75.96h-3Zm1.5 5.308H20.828v3h13.663v-3Zm-12.163 1.5V75.96h-3v6.808h3Zm-1.5-8.308H14.02v3h6.808v-3Zm-5.308 1.5V62.298h-3V75.96h3Zm-1.5-15.162H.404v3H14.02v-3Zm-15.116 1.5v20.47h3v-20.47h-3Zm1.5 21.97h6.808v-3H.404v3Zm5.308-1.5v6.808h3v-6.808h-3Zm1.5 8.308h6.808v-3H7.212v3Zm5.308-1.5v6.809h3v-6.809h-3Zm1.5 8.309H41.3v-3H14.02v3Zm109.07-1.5v1.5h1.5v-1.5h-1.5Zm0-6.809v-1.5h-1.5v1.5h1.5Zm6.808 0v1.5h1.5v-1.5h-1.5Zm0-6.808v-1.5h-1.5v1.5h1.5Zm6.808 0v1.5h1.5v-1.5h-1.5Zm0-81.883h1.5v-1.5h-1.5v1.5Zm-13.616 0v-1.5h-1.5v1.5h1.5Zm0 75.075v1.5h1.5v-1.5h-1.5Zm-6.808 0v-1.5h-1.5v1.5h1.5Zm0 6.808v1.5h1.5v-1.5h-1.5Zm-27.326 0h-1.5v1.5h1.5v-1.5Zm0-6.808h1.5v-1.5h-1.5v1.5Zm-6.808 0h-1.5v1.5h1.5v-1.5Zm0-75.075h1.5v-1.5h-1.5v1.5Zm-13.616 0v-1.5h-1.5v1.5h1.5Zm0 81.883h-1.5v1.5h1.5v-1.5Zm6.808 0h1.5v-1.5h-1.5v1.5Zm0 6.808h-1.5v1.5h1.5v-1.5Zm6.808 0h1.5v-1.5h-1.5v1.5Zm0 6.809h-1.5v1.5h1.5v-1.5Zm42.442 0v-6.809h-3v6.809h3Zm-1.5-5.309h6.808v-3h-6.808v3Zm8.308-1.5v-6.808h-3v6.808h3Zm-1.5-5.308h6.808v-3h-6.808v3Zm8.308-1.5V.885h-3v81.883h3Zm-1.5-83.383H123.09v3h13.616v-3ZM121.59.885V75.96h3V.885h-3Zm1.5 73.575h-6.808v3h6.808v-3Zm-8.308 1.5v6.808h3V75.96h-3Zm1.5 5.308H88.956v3h27.326v-3Zm-25.826 1.5V75.96h-3v6.808h3Zm-1.5-8.308h-6.808v3h6.808v-3Zm-5.308 1.5V.885h-3V75.96h3Zm-1.5-76.575H68.532v3h13.616v-3ZM67.032.885v81.883h3V.885h-3Zm1.5 83.383h6.808v-3h-6.808v3Zm5.308-1.5v6.808h3v-6.808h-3Zm1.5 8.308h6.808v-3H75.34v3Zm5.308-1.5v6.809h3v-6.809h-3Zm1.5 8.309h40.942v-3H82.148v3Zm129.634-1.5v1.5h1.5v-1.5h-1.5Zm0-13.617h1.5v-1.5h-1.5v1.5Zm-47.75 0h-1.5v1.5h1.5v-1.5Zm0-81.883h1.5v-1.5h-1.5v1.5Zm-13.616 0v-1.5h-1.5v1.5h1.5Zm0 95.5h-1.5v1.5h1.5v-1.5Zm62.866 0V82.768h-3v13.617h3Zm-1.5-15.117h-47.75v3h47.75v-3Zm-46.25 1.5V.885h-3v81.883h3Zm-1.5-83.383h-13.616v3h13.616v-3Zm-15.116 1.5v95.5h3V.885h-3Zm1.5 97h61.366v-3h-61.366v3Z"/></svg>