<svg xmlns="http://www.w3.org/2000/svg" width="78" height="58" fill="none" viewBox="0 0 78 58"><path fill="url(#paint0_linear_2031_121)" d="m54.975 11.724 4.49 5.277c.515.593.97 1.08 1.155 1.357a7.068 7.068 0 0 1 2.095 5.019c-.126 2.218-1.571 3.728-2.91 5.344l-3.142 3.689-1.64 1.912a.446.446 0 0 0 .36.746h16.382c2.503 0 5.655 2.103 5.47 5.296a5.458 5.458 0 0 1-1.633 3.867 5.622 5.622 0 0 1-3.924 1.61H46.022c-1.688 0-6.227.182-7.498-3.69a4.533 4.533 0 0 1-.107-2.504c.37-1.226.954-2.377 1.727-3.404 1.29-1.911 2.687-3.823 4.064-5.678 1.775-2.428 3.599-4.78 5.393-7.255a.453.453 0 0 0 0-.564l-6.518-7.647a.46.46 0 0 0-.727 0c-1.746 2.323-9.39 12.608-11.02 14.692-1.629 2.084-5.645 2.199-7.866 0L13.276 19.706a.468.468 0 0 0-.796.325v19.396a6.528 6.528 0 0 1-1.182 3.858 6.68 6.68 0 0 1-3.24 2.46 5.645 5.645 0 0 1-5.061-.708 5.521 5.521 0 0 1-1.726-1.955 5.432 5.432 0 0 1-.624-2.518V5.692a5.933 5.933 0 0 1 1.311-3.448A6.078 6.078 0 0 1 5.07.206a6.277 6.277 0 0 1 3.216.008 6.208 6.208 0 0 1 2.778 1.598L26.74 17.277a.457.457 0 0 0 .552.075.455.455 0 0 0 .146-.132L38.573 2.03a5.546 5.546 0 0 1 1.89-1.46 5.625 5.625 0 0 1 2.339-.538h28.963c.793.002 1.576.17 2.298.493a5.562 5.562 0 0 1 1.885 1.384 5.42 5.42 0 0 1 1.326 4.337 5.59 5.59 0 0 1-1.946 3.447 5.743 5.743 0 0 1-3.767 1.332H55.343a.46.46 0 0 0-.393.242.442.442 0 0 0 .025.456Z"/><path fill="url(#paint1_linear_2031_121)" d="M50.28 56.726h-2a.607.607 0 0 1-.412-.174.592.592 0 0 1-.176-.405v-.465a.592.592 0 0 1 .176-.405.607.607 0 0 1 .412-.174h1.71a.594.594 0 0 0 .416-.17.575.575 0 0 0 0-.82.593.593 0 0 0-.416-.17h-1.726a.61.61 0 0 1-.411-.174.592.592 0 0 1-.177-.406V52.9a.59.59 0 0 1 .177-.406.607.607 0 0 1 .411-.174h1.961a.594.594 0 0 0 .416-.17.574.574 0 0 0 0-.82.593.593 0 0 0-.416-.17h-2.353a.39.39 0 0 0-.393.31l-1.254 5.836v.116a.553.553 0 0 0 .203.344.569.569 0 0 0 .385.12h3.451c.157 0 .306-.061.416-.17a.579.579 0 0 0 0-.82.594.594 0 0 0-.416-.17h.016Z"/><path fill="url(#paint2_linear_2031_121)" d="M6.749 51.2h-.785a.61.61 0 0 0-.549.348L3.69 55.643a.039.039 0 0 1-.04.038c-.039 0-.039 0-.039-.038l-1.725-4.097a.694.694 0 0 0-.196-.27c-.157-.116-.353.039-.393.231L.003 57.422a.287.287 0 0 0 .04.193.559.559 0 0 0 .51.31h.235a.609.609 0 0 0 .401-.18.592.592 0 0 0 .171-.4v-3.788c0-.01.004-.02.012-.027a.04.04 0 0 1 .027-.012c.01 0 .02.005.028.012a.038.038 0 0 1 .012.027l1.608 3.98a.55.55 0 0 0 .549.349h.156a.622.622 0 0 0 .55-.348l1.607-3.942c0-.01.005-.02.012-.027a.038.038 0 0 1 .028-.012c.01 0 .02.004.027.011a.038.038 0 0 1 .012.028v3.748a.592.592 0 0 0 .177.406c.109.108.256.17.411.174h.235a.608.608 0 0 0 .412-.174.592.592 0 0 0 .177-.406V51.78a.696.696 0 0 0-.224-.4.715.715 0 0 0-.427-.18Z"/><path fill="url(#paint3_linear_2031_121)" d="M24.71 54.329h-1.726a.553.553 0 0 0-.388.158.536.536 0 0 0 0 .765.553.553 0 0 0 .388.159h.314c.314 0 .628.27.47.58-.235.502-.705.773-1.45.773-1.098 0-1.765-.812-1.765-2.204 0-1.391.706-2.203 1.765-2.203.245-.012.49.038.71.147.22.108.408.271.545.472a.741.741 0 0 0 .627.386h.353a.5.5 0 0 0 .42-.176.48.48 0 0 0 .09-.442 2.864 2.864 0 0 0-1.124-1.22 2.923 2.923 0 0 0-1.621-.403c-1.804 0-3.177 1.275-3.177 3.44 0 2.164 1.294 3.439 3.216 3.439 1.726 0 2.941-1.082 2.941-2.821v-.27a.56.56 0 0 0-.168-.414.572.572 0 0 0-.42-.166Z"/><path fill="url(#paint4_linear_2031_121)" d="M14.514 51.586a.582.582 0 0 0-.55-.387h-1.02a.595.595 0 0 0-.548.387l-1.961 5.566a.579.579 0 0 0 .283.703.604.604 0 0 0 .266.07h.314a.595.595 0 0 0 .336-.109.58.58 0 0 0 .213-.278l.235-.734a.58.58 0 0 1 .213-.279.595.595 0 0 1 .336-.108h1.608c.12.001.238.039.336.108a.58.58 0 0 1 .213.279l.235.734a.58.58 0 0 0 .213.278c.098.07.216.107.336.108h.314a.605.605 0 0 0 .472-.25.582.582 0 0 0 .077-.522l-1.921-5.566Zm-.997 3.672H13.4a.605.605 0 0 1-.472-.25.583.583 0 0 1-.077-.523l.588-1.778c0-.01.004-.02.011-.028a.04.04 0 0 1 .028-.011c.01 0 .02.004.028.011a.037.037 0 0 1 .011.028l.589 1.778a.619.619 0 0 1-.111.522.644.644 0 0 1-.478.25Z"/><path fill="url(#paint5_linear_2031_121)" d="M29.26 51.2h-.275a.608.608 0 0 0-.412.174.59.59 0 0 0-.176.405v5.565a.592.592 0 0 0 .176.406c.11.108.257.17.412.174h.274a.608.608 0 0 0 .412-.174.592.592 0 0 0 .177-.406V51.78a.618.618 0 0 0-.184-.399.638.638 0 0 0-.405-.18Z"/><path fill="url(#paint6_linear_2031_121)" d="M36.124 52.36c.264-.007.526.053.76.175.233.122.43.301.573.52.05.135.142.251.26.334.12.083.261.128.407.13h.274a.5.5 0 0 0 .42-.176.477.477 0 0 0 .09-.442c-.392-1.16-1.45-1.817-2.823-1.817-1.804 0-3.177 1.237-3.177 3.44s1.333 3.44 3.177 3.44c1.45 0 2.431-.773 2.784-1.74a.477.477 0 0 0-.278-.58.501.501 0 0 0-.232-.038h-.314a.819.819 0 0 0-.666.464 1.437 1.437 0 0 1-1.294.696c-1.02 0-1.726-.773-1.726-2.203 0-1.43.706-2.203 1.765-2.203Z"/><path fill="url(#paint7_linear_2031_121)" d="M56.437 51.2h-1.843a.609.609 0 0 0-.412.174.59.59 0 0 0-.176.405v5.565a.592.592 0 0 0 .176.406c.11.108.257.17.412.174h1.843c2.079 0 3.334-1.275 3.334-3.362s-1.294-3.363-3.334-3.363Zm-.078 5.487h-.314a.608.608 0 0 1-.412-.174.591.591 0 0 1-.176-.405v-3.13a.593.593 0 0 1 .176-.407.611.611 0 0 1 .412-.173h.314c1.294 0 1.96.656 1.96 2.125 0 1.47-.666 2.164-1.96 2.164Z"/><path fill="url(#paint8_linear_2031_121)" d="M66.831 56.726h-2a.608.608 0 0 1-.412-.174.592.592 0 0 1-.176-.406v-.464a.592.592 0 0 1 .176-.405.608.608 0 0 1 .412-.174h1.725a.592.592 0 0 0 .416-.17.575.575 0 0 0 0-.82.592.592 0 0 0-.415-.17H64.83a.611.611 0 0 1-.412-.174.593.593 0 0 1-.176-.406V52.9a.591.591 0 0 1 .176-.406.608.608 0 0 1 .412-.174h1.96a.592.592 0 0 0 .417-.17.574.574 0 0 0 0-.82.592.592 0 0 0-.416-.17H63.38a.608.608 0 0 0-.412.175.591.591 0 0 0-.176.405v5.566a.591.591 0 0 0 .176.405c.11.108.257.17.412.174h3.451a.607.607 0 0 0 .412-.174.591.591 0 0 0 .176-.405.553.553 0 0 0-.169-.414.591.591 0 0 0-.419-.166Z"/><path fill="url(#paint9_linear_2031_121)" d="M75.695 51.2h-.275a.608.608 0 0 0-.412.174.59.59 0 0 0-.176.405v3.594c0 .04 0 .04-.04.04h-.039l-2.745-3.943a.565.565 0 0 0-.47-.232h-.37a.61.61 0 0 0-.41.174.59.59 0 0 0-.177.406v5.565a.587.587 0 0 0 .176.406c.11.108.257.17.412.174h.274a.608.608 0 0 0 .412-.174.587.587 0 0 0 .176-.406V53.75c0-.01.005-.02.012-.027a.041.041 0 0 1 .028-.012h.04l2.784 3.943a.557.557 0 0 0 .47.232h.353a.608.608 0 0 0 .412-.174.59.59 0 0 0 .176-.406V51.74a.657.657 0 0 0-.212-.373.68.68 0 0 0-.4-.168Z"/><defs><linearGradient id="paint0_linear_2031_121" x1="9.289" x2="51.166" y1="-24.177" y2="42.547" gradientUnits="userSpaceOnUse"><stop stop-color="#7A00CC"/><stop offset="1" stop-color="#F72C87"/></linearGradient><linearGradient id="paint1_linear_2031_121" x1="8.6" x2="9.912" y1="47.451" y2="61.3" gradientUnits="userSpaceOnUse"><stop stop-color="#7A00CC"/><stop offset="1" stop-color="#F72C87"/></linearGradient><linearGradient id="paint2_linear_2031_121" x1="8.6" x2="9.912" y1="47.451" y2="61.3" gradientUnits="userSpaceOnUse"><stop stop-color="#7A00CC"/><stop offset="1" stop-color="#F72C87"/></linearGradient><linearGradient id="paint3_linear_2031_121" x1="8.6" x2="9.912" y1="47.45" y2="61.299" gradientUnits="userSpaceOnUse"><stop stop-color="#7A00CC"/><stop offset="1" stop-color="#F72C87"/></linearGradient><linearGradient id="paint4_linear_2031_121" x1="8.6" x2="9.912" y1="47.451" y2="61.3" gradientUnits="userSpaceOnUse"><stop stop-color="#7A00CC"/><stop offset="1" stop-color="#F72C87"/></linearGradient><linearGradient id="paint5_linear_2031_121" x1="8.6" x2="9.912" y1="47.451" y2="61.3" gradientUnits="userSpaceOnUse"><stop stop-color="#7A00CC"/><stop offset="1" stop-color="#F72C87"/></linearGradient><linearGradient id="paint6_linear_2031_121" x1="8.601" x2="9.913" y1="47.452" y2="61.301" gradientUnits="userSpaceOnUse"><stop stop-color="#7A00CC"/><stop offset="1" stop-color="#F72C87"/></linearGradient><linearGradient id="paint7_linear_2031_121" x1="8.6" x2="9.912" y1="47.451" y2="61.3" gradientUnits="userSpaceOnUse"><stop stop-color="#7A00CC"/><stop offset="1" stop-color="#F72C87"/></linearGradient><linearGradient id="paint8_linear_2031_121" x1="8.601" x2="9.913" y1="47.451" y2="61.3" gradientUnits="userSpaceOnUse"><stop stop-color="#7A00CC"/><stop offset="1" stop-color="#F72C87"/></linearGradient><linearGradient id="paint9_linear_2031_121" x1="8.602" x2="9.914" y1="47.451" y2="61.3" gradientUnits="userSpaceOnUse"><stop stop-color="#7A00CC"/><stop offset="1" stop-color="#F72C87"/></linearGradient></defs></svg>