<svg xmlns="http://www.w3.org/2000/svg" width="487" height="259" fill="currentColor" viewBox="0 0 487 259"><path d="M0 200.204V0h83.285c41.365 0 72.524 17.738 72.524 60.061 0 42.324-32.574 60.062-72.524 60.062H37.108v80.081H0ZM37.108 88.37h46.177c23.796 0 34.279-10.864 34.279-28.309 0-17.444-9.915-28.309-34.279-28.309H37.108v56.632-.014ZM203.824 0v199.591h-34.45V0h34.45ZM222.067 161.913c0-31.366 24.007-42.203 53.659-46.194l19.777-2.563c11.29-1.708 15.256-5.699 15.256-12.546 0-9.69-7.906-18.245-22.593-18.245-16.102 0-26.268 9.129-27.682 23.664h-35.588c2.261-29.083 25.699-49.61 61.287-49.61 42.079 0 59.027 22.81 59.027 61.876v81.83h-31.913v-5.699c0-4.565.569-8.836 1.415-13.401-7.337 13.681-21.469 24.239-45.186 24.239-23.716 0-47.446-15.963-47.446-43.338l-.013-.013Zm89.816-15.683v-15.109c-3.107 2.856-7.906 4.565-16.38 5.993l-11.303 2.282c-16.102 2.857-27.114 8.556-27.114 21.102 0 12.546 9.598 19.099 21.747 19.099 18.362 0 33.036-13.694 33.036-33.367h.014ZM377.279 258.291l22.315-59.314-53.95-138.008h38.694l29.375 89.812c1.692 4.845 3.106 9.984 4.521 16.537 1.137-6.553 2.829-11.692 4.243-16.537l27.96-89.812h36.157l-72.59 197.309h-36.712l-.013.013Z"/></svg>