<svg width="720" height="700" viewBox="0 0 720 700" fill="none" xmlns="http://www.w3.org/2000/svg">
<g clip-path="url(#clip0_4436_39740)">
<path d="M50 125.5C50 118.873 55.3726 113.5 62 113.5H658C664.627 113.5 670 118.873 670 125.5V570.5C670 579.337 662.837 586.5 654 586.5H66C57.1634 586.5 50 579.337 50 570.5V125.5Z" fill="#0C0C0E" style="fill:#0C0C0E;fill:color(display-p3 0.0471 0.0471 0.0549);fill-opacity:1;"/>
<circle cx="73" cy="136.5" r="7" fill="#D36E5D" style="fill:#D36E5D;fill:color(display-p3 0.8268 0.4324 0.3662);fill-opacity:1;"/>
<circle cx="95" cy="136.5" r="7" fill="#E9B451" style="fill:#E9B451;fill:color(display-p3 0.9134 0.7050 0.3180);fill-opacity:1;"/>
<circle cx="117" cy="136.5" r="7" fill="#2EB34D" style="fill:#2EB34D;fill:color(display-p3 0.1797 0.7030 0.3018);fill-opacity:1;"/>
<g clip-path="url(#clip1_4436_39740)">
<path d="M77.5317 185.429L81.0724 183.45L81.1317 183.278L81.0724 183.182H80.8993L80.3068 183.146L78.2836 183.091L76.5291 183.019L74.8293 182.928L74.401 182.837L74 182.311L74.041 182.047L74.401 181.807L74.916 181.852L76.0552 181.929L77.764 182.047L79.0036 182.12L80.84 182.311H81.1317L81.1726 182.193L81.0724 182.12L80.995 182.047L79.2268 180.854L77.3129 179.592L76.3104 178.865L75.7681 178.498L75.4947 178.153L75.3762 177.399L75.8684 176.859L76.5291 176.904L76.6978 176.95L77.3676 177.463L78.7985 178.566L80.6668 179.937L80.9403 180.164L81.0496 180.086L81.0633 180.032L80.9403 179.828L79.924 177.998L78.8395 176.137L78.3564 175.366L78.2289 174.903C78.1833 174.712 78.1514 174.553 78.1514 174.358L78.7119 173.6L79.0217 173.5L79.7691 173.6L80.0836 173.872L80.5483 174.93L81.3003 176.596L82.4668 178.861L82.8086 179.533L82.9909 180.155L83.0593 180.345H83.1777V180.236L83.2734 178.961L83.4511 177.395L83.6243 175.379L83.6836 174.812L83.9661 174.131L84.5266 173.763L84.964 173.972L85.324 174.485L85.2739 174.816L85.0597 176.201L84.6405 178.371L84.3671 179.823H84.5266L84.7089 179.642L85.4471 178.666L86.6866 177.122L87.2334 176.51L87.8714 175.833L88.2815 175.511H89.0562L89.6258 176.355L89.3707 177.227L88.5732 178.234L87.9124 179.088L86.9646 180.359L86.3721 181.376L86.4268 181.457L86.5681 181.444L88.7099 180.99L89.8674 180.781L91.2481 180.545L91.8725 180.835L91.9407 181.13L91.6946 181.734L90.2182 182.097L88.4866 182.442L85.9074 183.051L85.8754 183.073L85.9119 183.119L87.0739 183.228L87.5707 183.255H88.7874L91.0521 183.423L91.6446 183.813L92 184.29L91.9407 184.653L91.0293 185.116L89.799 184.825L86.9281 184.145L85.9438 183.899H85.8071V183.981L86.6274 184.78L88.1311 186.133L90.0132 187.876L90.1088 188.307L89.8674 188.647L89.6121 188.611L87.9579 187.372L87.32 186.814L85.8754 185.602H85.7798V185.729L86.1124 186.214L87.8714 188.847L87.9625 189.655L87.835 189.918L87.3793 190.077L86.8779 189.986L85.8481 188.548L84.7864 186.927L83.9296 185.474L83.8248 185.534L83.319 190.958L83.0821 191.235L82.5352 191.444L82.0795 191.099L81.8379 190.54L82.0795 189.437L82.3711 187.998L82.6081 186.854L82.8223 185.434L82.9499 184.962L82.9407 184.93L82.836 184.943L81.7605 186.414L80.1246 188.616L78.8304 189.996L78.5205 190.118L77.9828 189.841L78.0329 189.346L78.3336 188.906L80.1245 186.637L81.2045 185.229L81.9018 184.417L81.8972 184.299H81.8562L77.0987 187.376L76.2511 187.485L75.8865 187.145L75.932 186.587L76.1052 186.405L77.5361 185.425L77.5317 185.429Z" fill="white" fill-opacity="0.64" style="fill:white;fill-opacity:0.64;"/>
</g>
<path d="M102.704 182.836C102.704 180.532 103.712 178.708 105.376 177.748C106.192 177.268 107.12 177.028 108.16 177.028C110.848 177.028 112.8 178.676 113.024 181.028H111.2C110.944 179.428 109.856 178.468 108.128 178.468C105.968 178.468 104.48 180.132 104.48 182.836C104.48 185.572 106 187.332 108.112 187.332C109.856 187.332 111.04 186.308 111.312 184.724H113.04C112.896 185.956 112.384 186.948 111.504 187.668C110.624 188.388 109.504 188.756 108.112 188.756C104.864 188.756 102.704 186.5 102.704 182.836ZM114.538 188.5V177.3H116.122V188.5H114.538ZM117.743 186.372C117.743 185.012 118.655 184.18 120.479 183.908L121.935 183.684C122.527 183.604 122.751 183.396 122.751 182.948C122.751 182.196 122.175 181.716 121.295 181.716C120.255 181.716 119.615 182.292 119.567 183.204H117.951C118.047 181.7 119.247 180.5 121.183 180.5C123.247 180.5 124.319 181.636 124.319 183.62V188.5H122.815V188.132C122.815 187.988 122.831 187.764 122.847 187.444C122.447 188.26 121.583 188.756 120.415 188.756C118.959 188.756 117.743 187.828 117.743 186.372ZM120.959 185.028C119.903 185.236 119.375 185.668 119.375 186.34C119.375 187.092 119.951 187.54 120.735 187.54C121.903 187.54 122.767 186.74 122.767 185.54V184.516C122.655 184.644 122.351 184.756 121.887 184.852L120.959 185.028ZM126.2 185.684V180.756H127.8V185.38C127.8 186.788 128.344 187.492 129.432 187.492C130.6 187.492 131.304 186.628 131.304 185.156V180.756H132.872V188.5H131.32V188.084C131.32 187.78 131.32 187.572 131.336 187.428C130.952 188.244 130.088 188.756 128.984 188.756C127.256 188.756 126.2 187.652 126.2 185.684ZM134.933 186.868C134.629 186.244 134.469 185.508 134.469 184.644C134.469 182.148 135.989 180.5 138.053 180.5C139.221 180.5 140.085 181.076 140.517 181.828C140.501 181.668 140.485 181.444 140.485 181.14V177.3H142.085V188.5H140.485V188.1C140.485 187.796 140.501 187.572 140.517 187.428C140.117 188.18 139.189 188.756 138.021 188.756C136.661 188.756 135.525 188.1 134.933 186.868ZM136.741 182.548C136.309 183.076 136.101 183.78 136.101 184.628C136.101 185.492 136.309 186.18 136.725 186.708C137.141 187.236 137.685 187.508 138.357 187.508C139.013 187.508 139.541 187.236 139.973 186.708C140.389 186.18 140.597 185.492 140.597 184.628C140.597 183.764 140.389 183.076 139.973 182.548C139.557 182.02 139.013 181.764 138.357 181.764C137.701 181.764 137.157 182.02 136.741 182.548ZM143.668 184.596C143.668 183.012 144.356 181.716 145.508 181.012C146.068 180.676 146.708 180.5 147.428 180.5C148.58 180.5 149.476 180.868 150.116 181.604C150.756 182.356 151.076 183.364 151.076 184.628V184.964H145.284C145.3 186.516 146.228 187.508 147.524 187.508C148.5 187.508 149.236 187.06 149.412 186.052H151.012C150.932 186.836 150.58 187.476 149.972 187.988C149.364 188.5 148.548 188.756 147.508 188.756C145.14 188.756 143.668 187.236 143.668 184.596ZM145.972 182.308C145.572 182.708 145.348 183.204 145.3 183.828H149.396C149.396 182.548 148.644 181.716 147.428 181.716C146.836 181.716 146.356 181.908 145.972 182.308ZM156.172 186.852C155.836 186.228 155.676 185.492 155.676 184.612C155.676 182.164 157.404 180.5 159.612 180.5C160.604 180.5 161.42 180.772 162.044 181.316C162.668 181.86 163.02 182.58 163.1 183.476H161.468C161.356 182.468 160.684 181.764 159.596 181.764C158.924 181.764 158.38 182.02 157.948 182.548C157.516 183.076 157.308 183.78 157.308 184.628C157.308 185.492 157.516 186.18 157.948 186.708C158.364 187.236 158.908 187.508 159.596 187.508C160.732 187.508 161.452 186.836 161.564 185.764H163.164C162.972 187.604 161.676 188.756 159.548 188.756C158.028 188.756 156.828 188.116 156.172 186.852ZM164.173 184.628C164.173 182.18 165.789 180.5 168.045 180.5C170.301 180.5 171.917 182.18 171.917 184.628C171.917 187.108 170.301 188.756 168.045 188.756C165.757 188.756 164.173 187.108 164.173 184.628ZM165.805 184.628C165.805 186.404 166.685 187.508 168.045 187.508C169.405 187.508 170.285 186.404 170.285 184.628C170.285 182.884 169.389 181.764 168.045 181.764C166.701 181.764 165.805 182.884 165.805 184.628ZM173.492 186.868C173.188 186.244 173.028 185.508 173.028 184.644C173.028 182.148 174.548 180.5 176.612 180.5C177.78 180.5 178.644 181.076 179.076 181.828C179.06 181.668 179.044 181.444 179.044 181.14V177.3H180.644V188.5H179.044V188.1C179.044 187.796 179.06 187.572 179.076 187.428C178.676 188.18 177.748 188.756 176.58 188.756C175.22 188.756 174.084 188.1 173.492 186.868ZM175.3 182.548C174.868 183.076 174.66 183.78 174.66 184.628C174.66 185.492 174.868 186.18 175.284 186.708C175.7 187.236 176.244 187.508 176.916 187.508C177.572 187.508 178.1 187.236 178.532 186.708C178.948 186.18 179.156 185.492 179.156 184.628C179.156 183.764 178.948 183.076 178.532 182.548C178.116 182.02 177.572 181.764 176.916 181.764C176.26 181.764 175.716 182.02 175.3 182.548ZM182.228 184.596C182.228 183.012 182.916 181.716 184.068 181.012C184.628 180.676 185.268 180.5 185.988 180.5C187.14 180.5 188.036 180.868 188.676 181.604C189.316 182.356 189.636 183.364 189.636 184.628V184.964H183.844C183.86 186.516 184.788 187.508 186.084 187.508C187.06 187.508 187.796 187.06 187.972 186.052H189.572C189.492 186.836 189.14 187.476 188.532 187.988C187.924 188.5 187.108 188.756 186.068 188.756C183.7 188.756 182.228 187.236 182.228 184.596ZM184.532 182.308C184.132 182.708 183.908 183.204 183.86 183.828H187.956C187.956 182.548 187.204 181.716 185.988 181.716C185.396 181.716 184.916 181.908 184.532 182.308Z" fill="white" fill-opacity="0.64" style="fill:white;fill-opacity:0.64;"/>
<path d="M211 171.5C211 164.873 216.373 159.5 223 159.5H315C321.627 159.5 327 164.873 327 171.5V205.5H211V171.5Z" fill="#131315" style="fill:#131315;fill:color(display-p3 0.0759 0.0759 0.0841);fill-opacity:1;"/>
<g clip-path="url(#clip2_4436_39740)">
<circle cx="240.5" cy="183.5" r="6.5" fill="white" style="fill:white;fill-opacity:1;"/>
<path fill-rule="evenodd" clip-rule="evenodd" d="M237.738 172.88C238.541 172.551 239.415 172.431 240.276 172.535C241.387 172.662 242.377 173.135 243.246 173.951C243.258 173.962 243.272 173.97 243.288 173.975C243.304 173.979 243.32 173.979 243.336 173.975C244.509 173.687 245.637 173.789 246.72 174.28L246.772 174.305L246.901 174.369C248.031 174.955 248.842 175.844 249.332 177.034C249.564 177.6 249.681 178.19 249.683 178.805C249.699 179.263 249.649 179.721 249.533 180.165C249.527 180.187 249.527 180.211 249.533 180.233C249.539 180.256 249.55 180.277 249.566 180.294C250.222 180.958 250.677 181.793 250.881 182.703C251.202 184.287 250.873 185.715 249.896 186.986L249.744 187.17C249.097 187.911 248.247 188.447 247.299 188.712C247.278 188.718 247.259 188.729 247.244 188.744C247.228 188.758 247.216 188.777 247.209 188.797C246.996 189.41 246.783 189.934 246.386 190.457C245.387 191.775 243.918 192.509 242.263 192.5C240.944 192.493 239.775 192.01 238.755 191.053C238.739 191.039 238.72 191.029 238.7 191.024C238.68 191.019 238.658 191.02 238.638 191.026C238.206 191.165 237.771 191.185 237.301 191.18C236.551 191.174 235.811 190.997 235.139 190.662C234.436 190.313 233.823 189.805 233.351 189.178C233.181 188.954 233.014 188.743 232.891 188.494C232.722 188.15 232.584 187.793 232.479 187.425C232.257 186.588 232.253 185.71 232.465 184.871C232.472 184.851 232.474 184.83 232.471 184.81C232.467 184.789 232.456 184.77 232.441 184.756C231.927 184.237 231.534 183.61 231.291 182.921C231.129 182.497 231.036 182.05 231.013 181.597C230.973 181 231.026 180.401 231.17 179.82C231.545 178.584 232.261 177.614 233.317 176.91C233.552 176.753 233.776 176.631 233.986 176.545C234.224 176.445 234.463 176.361 234.703 176.291C234.72 176.286 234.736 176.277 234.749 176.264C234.761 176.252 234.771 176.236 234.776 176.219C234.958 175.565 235.271 174.954 235.696 174.425C236.262 173.72 236.943 173.205 237.738 172.88ZM237.068 179.422C236.975 179.259 236.821 179.14 236.64 179.091C236.459 179.042 236.266 179.066 236.104 179.159C235.941 179.252 235.822 179.406 235.772 179.587C235.723 179.768 235.748 179.961 235.841 180.124L237.252 182.595L235.846 184.968C235.759 185.129 235.739 185.317 235.788 185.492C235.837 185.668 235.952 185.818 236.109 185.911C236.266 186.004 236.453 186.033 236.63 185.991C236.808 185.95 236.963 185.841 237.062 185.688L238.679 182.961C238.743 182.854 238.777 182.731 238.778 182.606C238.779 182.481 238.747 182.358 238.685 182.25L237.068 179.422ZM241.606 184.622C241.426 184.633 241.257 184.712 241.134 184.843C241.01 184.974 240.941 185.148 240.941 185.328C240.941 185.509 241.01 185.682 241.134 185.814C241.257 185.945 241.426 186.024 241.606 186.035H245.646C245.828 186.026 245.999 185.947 246.124 185.816C246.25 185.684 246.32 185.51 246.32 185.328C246.32 185.146 246.25 184.971 246.124 184.84C245.999 184.708 245.828 184.63 245.646 184.621H241.606V184.622Z" fill="url(#paint0_linear_4436_39740)"/>
</g>
<path d="M261.704 182.836C261.704 180.532 262.712 178.708 264.376 177.748C265.192 177.268 266.12 177.028 267.16 177.028C269.848 177.028 271.8 178.676 272.024 181.028H270.2C269.944 179.428 268.856 178.468 267.128 178.468C264.968 178.468 263.48 180.132 263.48 182.836C263.48 185.572 265 187.332 267.112 187.332C268.856 187.332 270.04 186.308 270.312 184.724H272.04C271.896 185.956 271.384 186.948 270.504 187.668C269.624 188.388 268.504 188.756 267.112 188.756C263.864 188.756 261.704 186.5 261.704 182.836ZM273.058 184.628C273.058 182.18 274.674 180.5 276.93 180.5C279.186 180.5 280.802 182.18 280.802 184.628C280.802 187.108 279.186 188.756 276.93 188.756C274.642 188.756 273.058 187.108 273.058 184.628ZM274.69 184.628C274.69 186.404 275.57 187.508 276.93 187.508C278.29 187.508 279.17 186.404 279.17 184.628C279.17 182.884 278.274 181.764 276.93 181.764C275.586 181.764 274.69 182.884 274.69 184.628ZM282.378 186.868C282.074 186.244 281.914 185.508 281.914 184.644C281.914 182.148 283.434 180.5 285.498 180.5C286.666 180.5 287.53 181.076 287.962 181.828C287.946 181.668 287.93 181.444 287.93 181.14V177.3H289.53V188.5H287.93V188.1C287.93 187.796 287.946 187.572 287.962 187.428C287.562 188.18 286.634 188.756 285.466 188.756C284.106 188.756 282.97 188.1 282.378 186.868ZM284.186 182.548C283.754 183.076 283.546 183.78 283.546 184.628C283.546 185.492 283.754 186.18 284.17 186.708C284.586 187.236 285.13 187.508 285.802 187.508C286.458 187.508 286.986 187.236 287.418 186.708C287.834 186.18 288.042 185.492 288.042 184.628C288.042 183.764 287.834 183.076 287.418 182.548C287.002 182.02 286.458 181.764 285.802 181.764C285.146 181.764 284.602 182.02 284.186 182.548ZM291.113 184.596C291.113 183.012 291.801 181.716 292.953 181.012C293.513 180.676 294.153 180.5 294.873 180.5C296.025 180.5 296.921 180.868 297.561 181.604C298.201 182.356 298.521 183.364 298.521 184.628V184.964H292.729C292.745 186.516 293.673 187.508 294.969 187.508C295.945 187.508 296.681 187.06 296.857 186.052H298.457C298.377 186.836 298.025 187.476 297.417 187.988C296.809 188.5 295.993 188.756 294.953 188.756C292.585 188.756 291.113 187.236 291.113 184.596ZM293.417 182.308C293.017 182.708 292.793 183.204 292.745 183.828H296.841C296.841 182.548 296.089 181.716 294.873 181.716C294.281 181.716 293.801 181.908 293.417 182.308ZM298.863 188.5L301.775 184.548L299.055 180.756H300.927L302.271 182.756C302.463 183.028 302.607 183.236 302.703 183.412C302.799 183.236 302.943 183.028 303.135 182.756L304.511 180.756H306.319L303.519 184.516L306.415 188.5H304.543L303.055 186.308C302.847 185.988 302.703 185.764 302.623 185.636L302.191 186.308L300.671 188.5H298.863Z" fill="white" style="fill:white;fill-opacity:1;"/>
<path d="M54 205.5H654C660.627 205.5 666 210.873 666 217.5V434.5H54V205.5Z" fill="#131315" style="fill:#131315;fill:color(display-p3 0.0759 0.0759 0.0841);fill-opacity:1;"/>
<g clip-path="url(#clip3_4436_39740)">
<circle cx="94.5" cy="255.5" r="11.5" fill="white" style="fill:white;fill-opacity:1;"/>
<path fill-rule="evenodd" clip-rule="evenodd" d="M89.7926 238.166C91.1975 237.589 92.7266 237.381 94.2347 237.561C96.1787 237.784 97.9112 238.611 99.4322 240.04C99.4527 240.06 99.4777 240.074 99.5049 240.081C99.5322 240.088 99.5608 240.089 99.5883 240.083C101.642 239.578 103.616 239.756 105.511 240.616L105.602 240.66L105.827 240.771C107.806 241.796 109.225 243.352 110.082 245.435C110.488 246.425 110.692 247.459 110.696 248.535C110.725 249.336 110.637 250.138 110.434 250.914C110.424 250.953 110.424 250.995 110.434 251.034C110.444 251.074 110.464 251.11 110.492 251.14C111.639 252.302 112.436 253.763 112.793 255.356C113.355 258.128 112.779 260.628 111.068 262.852L110.803 263.172C109.67 264.47 108.183 265.408 106.524 265.872C106.488 265.882 106.455 265.901 106.427 265.927C106.4 265.953 106.379 265.985 106.367 266.02C105.995 267.094 105.621 268.01 104.927 268.925C103.179 271.233 100.608 272.516 97.7114 272.5C95.4029 272.488 93.3568 271.644 91.5718 269.968C91.5448 269.943 91.5117 269.926 91.4759 269.918C91.4401 269.91 91.4028 269.911 91.3676 269.922C90.6122 270.165 89.851 270.2 89.0285 270.191C87.7144 270.181 86.4202 269.87 85.2441 269.284C84.0131 268.674 82.9415 267.784 82.1145 266.687C81.8185 266.295 81.5254 265.926 81.311 265.49C81.0153 264.889 80.7737 264.262 80.5891 263.619C80.2014 262.155 80.1929 260.618 80.5643 259.15C80.5763 259.116 80.5803 259.079 80.576 259.042C80.5688 259.006 80.5498 258.973 80.522 258.949C79.6231 258.04 78.9359 256.943 78.5095 255.738C78.2272 254.996 78.0633 254.214 78.0239 253.42C77.9534 252.376 78.0459 251.327 78.2981 250.311C78.9543 248.147 80.207 246.45 82.0562 245.217C82.4674 244.943 82.8583 244.73 83.2258 244.579C83.6429 244.404 84.0614 244.258 84.4814 244.135C84.5114 244.126 84.5388 244.11 84.5609 244.088C84.5831 244.066 84.5994 244.038 84.6083 244.008C84.9268 242.864 85.4745 241.795 86.2183 240.869C87.2099 239.635 88.4014 238.734 89.7926 238.166ZM88.6201 249.614C88.4573 249.329 88.188 249.121 87.8714 249.035C87.5549 248.948 87.217 248.991 86.9321 249.154C86.6473 249.317 86.4388 249.586 86.3525 249.903C86.2662 250.219 86.3092 250.557 86.472 250.842L88.9424 255.166L86.4808 259.319C86.3298 259.601 86.2935 259.93 86.3793 260.237C86.4651 260.545 86.6665 260.807 86.9413 260.97C87.2162 261.133 87.5432 261.183 87.8541 261.11C88.1651 261.037 88.4359 260.847 88.6099 260.579L91.4391 255.808C91.5507 255.62 91.6104 255.405 91.6122 255.186C91.614 254.968 91.5578 254.752 91.4493 254.562L88.6201 249.614ZM96.5622 258.714C96.2471 258.733 95.9511 258.871 95.7347 259.101C95.5182 259.331 95.3977 259.635 95.3977 259.95C95.3977 260.266 95.5182 260.57 95.7347 260.799C95.9511 261.029 96.2471 261.167 96.5622 261.186H103.632C103.95 261.171 104.249 261.034 104.469 260.803C104.688 260.573 104.81 260.267 104.81 259.949C104.81 259.631 104.688 259.326 104.469 259.095C104.249 258.865 103.95 258.728 103.632 258.713H96.5622V258.714Z" fill="url(#paint1_linear_4436_39740)"/>
</g>
<mask id="path-16-inside-1_4436_39740" fill="white">
<path d="M78 298.5H360V350.5H78V298.5Z"/>
</mask>
<path d="M360 350.5V349.5H78V350.5V351.5H360V350.5Z" fill="white" fill-opacity="0.04" style="fill:white;fill-opacity:0.04;" mask="url(#path-16-inside-1_4436_39740)"/>
<path d="M78.216 317.9H80.268L82.518 326.72C82.644 327.152 82.788 327.728 82.95 328.466C83.004 328.178 83.094 327.818 83.202 327.404C83.238 327.296 83.292 327.062 83.382 326.72L85.704 317.9H88.26L90.51 326.72C90.672 327.26 90.816 327.854 90.942 328.484L91.356 326.72L93.678 317.9H95.604L92.22 330.5H89.754L87.396 321.248C87.198 320.438 87.054 319.862 86.982 319.538C86.91 319.862 86.766 320.438 86.568 321.248L84.084 330.5H81.6L78.216 317.9ZM95.8369 326.108C95.8369 324.326 96.6109 322.868 97.9069 322.076C98.5369 321.698 99.2569 321.5 100.067 321.5C101.363 321.5 102.371 321.914 103.091 322.742C103.811 323.588 104.171 324.722 104.171 326.144V326.522H97.6549C97.6729 328.268 98.7169 329.384 100.175 329.384C101.273 329.384 102.101 328.88 102.299 327.746H104.099C104.009 328.628 103.613 329.348 102.929 329.924C102.245 330.5 101.327 330.788 100.157 330.788C97.4929 330.788 95.8369 329.078 95.8369 326.108ZM98.4289 323.534C97.9789 323.984 97.7269 324.542 97.6729 325.244H102.281C102.281 323.804 101.435 322.868 100.067 322.868C99.4009 322.868 98.8609 323.084 98.4289 323.534ZM105.988 330.5V317.9H107.77V330.5H105.988ZM110.115 328.646C109.737 327.944 109.557 327.116 109.557 326.126C109.557 323.372 111.501 321.5 113.985 321.5C115.101 321.5 116.019 321.806 116.721 322.418C117.423 323.03 117.819 323.84 117.909 324.848H116.073C115.947 323.714 115.191 322.922 113.967 322.922C113.211 322.922 112.599 323.21 112.113 323.804C111.627 324.398 111.393 325.19 111.393 326.144C111.393 327.116 111.627 327.89 112.113 328.484C112.581 329.078 113.193 329.384 113.967 329.384C115.245 329.384 116.055 328.628 116.181 327.422H117.981C117.765 329.492 116.307 330.788 113.913 330.788C112.203 330.788 110.853 330.068 110.115 328.646ZM119.115 326.144C119.115 323.39 120.933 321.5 123.471 321.5C126.009 321.5 127.827 323.39 127.827 326.144C127.827 328.934 126.009 330.788 123.471 330.788C120.897 330.788 119.115 328.934 119.115 326.144ZM120.951 326.144C120.951 328.142 121.941 329.384 123.471 329.384C125.001 329.384 125.991 328.142 125.991 326.144C125.991 324.182 124.983 322.922 123.471 322.922C121.959 322.922 120.951 324.182 120.951 326.144ZM129.618 321.788H131.4V322.364C131.4 322.634 131.4 322.85 131.382 322.994C131.904 322.112 132.768 321.5 133.92 321.5C135.018 321.5 135.972 322.148 136.404 323.174C136.998 322.184 138.042 321.5 139.248 321.5C141.048 321.5 142.272 322.76 142.272 324.992V330.5H140.49V325.316C140.49 323.714 139.932 322.922 138.798 322.922C137.628 322.922 136.836 323.966 136.836 325.352V330.5H135.036V325.334C135.036 323.732 134.478 322.922 133.38 322.922C132.174 322.922 131.4 323.966 131.4 325.406V330.5H129.618V321.788ZM143.962 326.108C143.962 324.326 144.736 322.868 146.032 322.076C146.662 321.698 147.382 321.5 148.192 321.5C149.488 321.5 150.496 321.914 151.216 322.742C151.936 323.588 152.296 324.722 152.296 326.144V326.522H145.78C145.798 328.268 146.842 329.384 148.3 329.384C149.398 329.384 150.226 328.88 150.424 327.746H152.224C152.134 328.628 151.738 329.348 151.054 329.924C150.37 330.5 149.452 330.788 148.282 330.788C145.618 330.788 143.962 329.078 143.962 326.108ZM146.554 323.534C146.104 323.984 145.852 324.542 145.798 325.244H150.406C150.406 323.804 149.56 322.868 148.192 322.868C147.526 322.868 146.986 323.084 146.554 323.534ZM158.011 330.5V317.9H159.793V322.22L159.775 322.994C160.369 322.112 161.359 321.5 162.601 321.5C164.959 321.5 166.597 323.426 166.597 326.162C166.597 328.934 164.959 330.788 162.601 330.788C161.323 330.788 160.297 330.212 159.775 329.294C159.793 329.474 159.793 329.726 159.793 330.068V330.5H158.011ZM160.387 323.786C159.919 324.38 159.685 325.154 159.685 326.144C159.685 327.098 159.919 327.89 160.387 328.484C160.855 329.078 161.467 329.384 162.205 329.384C162.961 329.384 163.573 329.078 164.041 328.484C164.509 327.89 164.743 327.116 164.743 326.162C164.743 324.218 163.735 322.922 162.205 322.922C161.467 322.922 160.855 323.21 160.387 323.786ZM167.857 328.106C167.857 326.576 168.883 325.64 170.935 325.334L172.573 325.082C173.239 324.992 173.491 324.758 173.491 324.254C173.491 323.408 172.843 322.868 171.853 322.868C170.683 322.868 169.963 323.516 169.909 324.542H168.091C168.199 322.85 169.549 321.5 171.727 321.5C174.049 321.5 175.255 322.778 175.255 325.01V330.5H173.563V330.086C173.563 329.924 173.581 329.672 173.599 329.312C173.149 330.23 172.177 330.788 170.863 330.788C169.225 330.788 167.857 329.744 167.857 328.106ZM171.475 326.594C170.287 326.828 169.693 327.314 169.693 328.07C169.693 328.916 170.341 329.42 171.223 329.42C172.537 329.42 173.509 328.52 173.509 327.17V326.018C173.383 326.162 173.041 326.288 172.519 326.396L171.475 326.594ZM177.498 328.646C177.12 327.944 176.94 327.116 176.94 326.126C176.94 323.372 178.884 321.5 181.368 321.5C182.484 321.5 183.402 321.806 184.104 322.418C184.806 323.03 185.202 323.84 185.292 324.848H183.456C183.33 323.714 182.574 322.922 181.35 322.922C180.594 322.922 179.982 323.21 179.496 323.804C179.01 324.398 178.776 325.19 178.776 326.144C178.776 327.116 179.01 327.89 179.496 328.484C179.964 329.078 180.576 329.384 181.35 329.384C182.628 329.384 183.438 328.628 183.564 327.422H185.364C185.148 329.492 183.69 330.788 181.296 330.788C179.586 330.788 178.236 330.068 177.498 328.646ZM187.038 330.5V317.9H188.82V325.388C189.018 325.154 189.252 324.902 189.486 324.668L192.276 321.788H194.562L190.836 325.496L194.976 330.5H192.6L189.63 326.702L188.82 327.494V330.5H187.038ZM197.979 321.824L197.421 326.954H196.575L196.017 321.824V317.9H197.979V321.824ZM198.087 328.268V330.5H195.909V328.268H198.087Z" fill="white" style="fill:white;fill-opacity:1;"/>
<path d="M79.152 380.852C78.848 380.228 78.688 379.492 78.688 378.644C78.688 376.292 80.112 374.532 82.272 374.532C83.44 374.532 84.352 375.14 84.752 375.828V371.3H86.128V382.5H84.752V381.428C84.32 382.18 83.344 382.74 82.24 382.74C80.88 382.74 79.776 382.084 79.152 380.852ZM80.768 376.452C80.336 377.012 80.112 377.748 80.112 378.644C80.112 379.556 80.336 380.276 80.768 380.836C81.2 381.396 81.776 381.668 82.48 381.668C83.168 381.668 83.744 381.396 84.192 380.836C84.624 380.276 84.848 379.54 84.848 378.628C84.848 377.716 84.624 376.996 84.192 376.436C83.76 375.892 83.184 375.62 82.48 375.62C81.776 375.62 81.2 375.892 80.768 376.452ZM87.8565 378.612C87.8565 377.06 88.5285 375.764 89.6485 375.06C90.2085 374.708 90.8325 374.532 91.5205 374.532C92.6565 374.532 93.5365 374.9 94.1605 375.636C94.7845 376.372 95.0885 377.364 95.0885 378.628V378.9H89.2325C89.2485 379.748 89.4725 380.42 89.9205 380.916C90.3685 381.412 90.9285 381.668 91.6165 381.668C92.6565 381.668 93.4725 381.22 93.6485 380.116H95.0085C94.9285 380.868 94.5925 381.492 94.0165 381.988C93.4405 382.484 92.6405 382.74 91.6005 382.74C89.2805 382.74 87.8565 381.252 87.8565 378.612ZM89.9685 376.276C89.5685 376.708 89.3285 377.268 89.2805 377.924H93.6165C93.6165 376.516 92.8485 375.62 91.5205 375.62C90.8965 375.62 90.3685 375.844 89.9685 376.276ZM98.6765 382.5L95.7165 374.788H97.2205L99.4445 381.124L101.621 374.788H103.061L100.133 382.5H98.6765ZM104.649 381.54C104.153 380.66 103.897 379.636 103.897 378.452C103.897 376.084 105.017 374.228 106.761 373.252C107.641 372.772 108.585 372.532 109.625 372.532C111.609 372.532 113.241 373.444 114.137 375.012C114.585 375.796 114.809 376.692 114.809 377.7C114.809 379.908 113.753 381.428 112.201 381.428C111.545 381.428 111.017 381.14 110.761 380.516C110.377 381.092 109.689 381.428 108.937 381.428C107.609 381.428 106.569 380.372 106.569 378.788C106.569 376.852 107.849 375.46 109.337 375.46C110.089 375.46 110.617 375.78 110.873 376.212L110.937 375.636H112.025L111.625 379.652C111.625 380.212 111.849 380.484 112.281 380.484C113.097 380.484 113.721 379.236 113.721 377.7C113.721 375.236 112.073 373.556 109.625 373.556C107.913 373.556 106.457 374.372 105.641 375.86C105.225 376.612 105.017 377.476 105.017 378.468C105.017 380.372 105.801 381.86 107.193 382.644C107.881 383.044 108.681 383.236 109.577 383.236C110.841 383.236 111.545 382.98 112.569 382.308L113.113 383.076C112.153 383.828 110.873 384.26 109.577 384.26C107.417 384.26 105.625 383.284 104.649 381.54ZM107.689 378.788C107.689 379.764 108.185 380.484 109.065 380.484C110.073 380.484 110.729 379.556 110.729 378.084C110.729 377.076 110.153 376.404 109.369 376.404C108.457 376.404 107.689 377.508 107.689 378.788ZM115.717 379.956H117.061C117.109 381.028 117.829 381.668 119.045 381.668C120.117 381.668 120.821 381.172 120.821 380.404C120.821 379.78 120.373 379.396 119.477 379.22L118.309 378.996C116.837 378.724 115.957 377.956 115.957 376.804C115.957 375.492 117.221 374.532 118.949 374.532C120.805 374.532 121.909 375.428 122.021 377.012H120.661C120.549 376.1 119.893 375.62 118.853 375.62C117.941 375.62 117.333 376.068 117.333 376.724C117.333 377.316 117.749 377.636 118.645 377.812L119.845 378.036C121.317 378.308 122.181 379.028 122.181 380.26C122.181 381.652 120.965 382.74 119.029 382.74C116.981 382.74 115.765 381.636 115.717 379.956ZM123.404 378.628C123.404 376.228 124.972 374.532 127.196 374.532C128.652 374.532 129.852 375.252 130.508 376.5C130.828 377.124 130.988 377.844 130.988 378.628C130.988 381.076 129.388 382.74 127.196 382.74C124.972 382.74 123.404 381.076 123.404 378.628ZM124.828 378.628C124.828 380.468 125.74 381.668 127.196 381.668C128.652 381.668 129.564 380.468 129.564 378.628C129.564 377.716 129.356 376.996 128.924 376.436C128.492 375.892 127.916 375.62 127.196 375.62C126.476 375.62 125.916 375.892 125.484 376.436C125.052 376.996 124.828 377.716 124.828 378.628ZM132.693 382.5V371.3H134.069V382.5H132.693ZM136.571 382.1C136.059 381.668 135.803 381.108 135.803 380.388C135.803 378.996 136.843 378.244 138.363 377.988L140.011 377.732C140.587 377.652 140.795 377.428 140.795 376.964C140.795 376.132 140.155 375.62 139.243 375.62C138.091 375.62 137.467 376.228 137.419 377.204H136.043C136.107 375.764 137.243 374.532 139.131 374.532C141.035 374.532 142.139 375.652 142.139 377.444V382.5H140.827V381.46C140.443 382.276 139.595 382.74 138.459 382.74C137.707 382.74 137.067 382.532 136.571 382.1ZM137.227 380.388C137.227 381.156 137.835 381.668 138.651 381.668C139.275 381.668 139.787 381.476 140.187 381.092C140.587 380.708 140.795 380.212 140.795 379.588V378.452C140.715 378.58 140.427 378.692 139.947 378.788L138.827 378.996C137.755 379.204 137.227 379.668 137.227 380.388ZM144.248 374.788H145.624V375.828C146.056 375.124 146.984 374.532 147.992 374.532C149.784 374.532 150.84 375.668 150.84 377.636V382.5H149.464V377.812C149.464 376.324 148.968 375.62 147.768 375.62C147.112 375.62 146.6 375.828 146.216 376.26C145.816 376.692 145.624 377.236 145.624 377.86V382.5H144.248V374.788ZM153.251 382.1C152.739 381.668 152.483 381.108 152.483 380.388C152.483 378.996 153.523 378.244 155.043 377.988L156.691 377.732C157.267 377.652 157.475 377.428 157.475 376.964C157.475 376.132 156.835 375.62 155.923 375.62C154.771 375.62 154.147 376.228 154.099 377.204H152.723C152.787 375.764 153.923 374.532 155.811 374.532C157.715 374.532 158.819 375.652 158.819 377.444V382.5H157.507V381.46C157.123 382.276 156.275 382.74 155.139 382.74C154.387 382.74 153.747 382.532 153.251 382.1ZM153.907 380.388C153.907 381.156 154.515 381.668 155.331 381.668C155.955 381.668 156.467 381.476 156.867 381.092C157.267 380.708 157.475 380.212 157.475 379.588V378.452C157.395 378.58 157.107 378.692 156.627 378.788L155.507 378.996C154.435 379.204 153.907 379.668 153.907 380.388ZM162.592 380.644V382.5H160.768V380.644H162.592ZM164.659 380.884C164.323 380.26 164.147 379.508 164.147 378.628C164.147 376.228 165.843 374.532 168.035 374.532C168.947 374.532 169.731 374.788 170.355 375.3C170.979 375.828 171.315 376.516 171.395 377.38H169.971C169.843 376.34 169.107 375.62 168.003 375.62C166.547 375.62 165.571 376.916 165.571 378.628C165.571 379.54 165.795 380.276 166.243 380.836C166.691 381.396 167.283 381.668 168.035 381.668C169.171 381.668 169.939 381.012 170.083 379.908H171.443C171.299 381.636 170.035 382.74 167.971 382.74C166.547 382.74 165.315 382.116 164.659 380.884ZM172.549 378.628C172.549 376.228 174.117 374.532 176.341 374.532C177.797 374.532 178.997 375.252 179.653 376.5C179.973 377.124 180.133 377.844 180.133 378.628C180.133 381.076 178.533 382.74 176.341 382.74C174.117 382.74 172.549 381.076 172.549 378.628ZM173.973 378.628C173.973 380.468 174.885 381.668 176.341 381.668C177.797 381.668 178.709 380.468 178.709 378.628C178.709 377.716 178.501 376.996 178.069 376.436C177.637 375.892 177.061 375.62 176.341 375.62C175.621 375.62 175.061 375.892 174.629 376.436C174.197 376.996 173.973 377.716 173.973 378.628ZM181.838 374.788H183.214V375.828C183.71 375.044 184.51 374.532 185.47 374.532C186.51 374.532 187.342 375.044 187.79 376.052C188.35 375.108 189.23 374.532 190.302 374.532C191.918 374.532 193.006 375.588 193.006 377.62V382.5H191.63V377.892C191.63 376.372 191.166 375.62 190.014 375.62C189.422 375.62 188.958 375.844 188.622 376.276C188.286 376.724 188.11 377.268 188.11 377.908V382.5H186.734V377.94C186.734 376.42 186.254 375.62 185.15 375.62C184.558 375.62 184.094 375.844 183.742 376.292C183.39 376.756 183.214 377.316 183.214 377.972V382.5H181.838V374.788Z" fill="white" fill-opacity="0.48" style="fill:white;fill-opacity:0.48;"/>
<mask id="path-20-inside-2_4436_39740" fill="white">
<path d="M360 298.5H642V350.5H360V298.5Z"/>
</mask>
<path d="M642 350.5V349.5H360V350.5V351.5H642V350.5Z" fill="white" fill-opacity="0.04" style="fill:white;fill-opacity:0.04;" mask="url(#path-20-inside-2_4436_39740)"/>
<path d="M364.875 317.75C363.632 317.75 362.625 318.757 362.625 320C362.625 321.048 363.342 321.929 364.312 322.179V326.821C363.342 327.071 362.625 327.952 362.625 329C362.625 330.243 363.632 331.25 364.875 331.25C366.118 331.25 367.125 330.243 367.125 329C367.125 327.952 366.408 327.071 365.438 326.821V325.062H373.688V322.179C374.658 321.929 375.375 321.048 375.375 320C375.375 318.757 374.368 317.75 373.125 317.75C371.882 317.75 370.875 318.757 370.875 320C370.875 321.048 371.592 321.929 372.562 322.179V323.938H365.438V322.179C366.408 321.929 367.125 321.048 367.125 320C367.125 318.757 366.118 317.75 364.875 317.75Z" fill="white" fill-opacity="0.48" style="fill:white;fill-opacity:0.48;"/>
<path d="M387.184 330.5V319.3H388.56V323.828C389.088 323.076 390.016 322.532 391.104 322.532C393.312 322.532 394.656 324.26 394.656 326.644C394.656 329.044 393.232 330.74 391.072 330.74C390 330.74 389.056 330.212 388.56 329.428V330.5H387.184ZM388.48 326.628C388.48 328.42 389.472 329.668 390.848 329.668C391.568 329.668 392.144 329.38 392.576 328.82C393.008 328.26 393.216 327.54 393.216 326.644C393.216 325.748 393.008 325.012 392.576 324.452C392.144 323.892 391.568 323.62 390.848 323.62C389.44 323.62 388.48 324.772 388.48 326.628ZM396.352 330.5V322.788H397.728V324.068C398.128 323.156 399.008 322.532 400.144 322.532C400.288 322.532 400.416 322.532 400.496 322.548V323.908C400.352 323.892 400.208 323.876 400.064 323.876C398.544 323.876 397.728 324.74 397.728 326.42V330.5H396.352ZM401.902 330.1C401.39 329.668 401.134 329.108 401.134 328.388C401.134 326.996 402.174 326.244 403.694 325.988L405.342 325.732C405.918 325.652 406.126 325.428 406.126 324.964C406.126 324.132 405.486 323.62 404.574 323.62C403.422 323.62 402.798 324.228 402.75 325.204H401.374C401.438 323.764 402.574 322.532 404.462 322.532C406.366 322.532 407.47 323.652 407.47 325.444V330.5H406.158V329.46C405.774 330.276 404.926 330.74 403.79 330.74C403.038 330.74 402.398 330.532 401.902 330.1ZM402.558 328.388C402.558 329.156 403.166 329.668 403.982 329.668C404.606 329.668 405.118 329.476 405.518 329.092C405.918 328.708 406.126 328.212 406.126 327.588V326.452C406.046 326.58 405.758 326.692 405.278 326.788L404.158 326.996C403.086 327.204 402.558 327.668 402.558 328.388ZM409.579 322.788H410.955V323.828C411.387 323.124 412.315 322.532 413.323 322.532C415.115 322.532 416.171 323.668 416.171 325.636V330.5H414.795V325.812C414.795 324.324 414.299 323.62 413.099 323.62C412.443 323.62 411.931 323.828 411.547 324.26C411.147 324.692 410.955 325.236 410.955 325.86V330.5H409.579V322.788ZM418.294 328.884C417.958 328.26 417.782 327.508 417.782 326.628C417.782 324.228 419.478 322.532 421.67 322.532C422.582 322.532 423.366 322.788 423.99 323.3C424.614 323.828 424.95 324.516 425.03 325.38H423.606C423.478 324.34 422.742 323.62 421.638 323.62C420.182 323.62 419.206 324.916 419.206 326.628C419.206 327.54 419.43 328.276 419.878 328.836C420.326 329.396 420.918 329.668 421.67 329.668C422.806 329.668 423.574 329.012 423.718 327.908H425.078C424.934 329.636 423.67 330.74 421.606 330.74C420.182 330.74 418.95 330.116 418.294 328.884ZM426.681 319.3H428.057V323.828C428.489 323.06 429.401 322.532 430.425 322.532C432.217 322.532 433.273 323.668 433.273 325.636V330.5H431.897V325.812C431.897 324.324 431.369 323.62 430.153 323.62C429.513 323.62 429.001 323.828 428.633 324.26C428.249 324.692 428.057 325.236 428.057 325.86V330.5H426.681V319.3ZM435.38 322.788H436.756V323.828C437.188 323.124 438.116 322.532 439.124 322.532C440.916 322.532 441.972 323.668 441.972 325.636V330.5H440.596V325.812C440.596 324.324 440.1 323.62 438.9 323.62C438.244 323.62 437.732 323.828 437.348 324.26C436.948 324.692 436.756 325.236 436.756 325.86V330.5H435.38V322.788ZM444.384 330.1C443.872 329.668 443.616 329.108 443.616 328.388C443.616 326.996 444.656 326.244 446.176 325.988L447.824 325.732C448.4 325.652 448.608 325.428 448.608 324.964C448.608 324.132 447.968 323.62 447.056 323.62C445.904 323.62 445.28 324.228 445.232 325.204H443.856C443.92 323.764 445.056 322.532 446.944 322.532C448.848 322.532 449.952 323.652 449.952 325.444V330.5H448.64V329.46C448.256 330.276 447.408 330.74 446.272 330.74C445.52 330.74 444.88 330.532 444.384 330.1ZM445.04 328.388C445.04 329.156 445.648 329.668 446.464 329.668C447.088 329.668 447.6 329.476 448 329.092C448.4 328.708 448.608 328.212 448.608 327.588V326.452C448.528 326.58 448.24 326.692 447.76 326.788L446.64 326.996C445.568 327.204 445.04 327.668 445.04 328.388ZM452.06 322.788H453.436V323.828C453.932 323.044 454.732 322.532 455.692 322.532C456.732 322.532 457.564 323.044 458.012 324.052C458.572 323.108 459.452 322.532 460.524 322.532C462.14 322.532 463.228 323.588 463.228 325.62V330.5H461.852V325.892C461.852 324.372 461.388 323.62 460.236 323.62C459.644 323.62 459.18 323.844 458.844 324.276C458.508 324.724 458.332 325.268 458.332 325.908V330.5H456.956V325.94C456.956 324.42 456.476 323.62 455.372 323.62C454.78 323.62 454.316 323.844 453.964 324.292C453.612 324.756 453.436 325.316 453.436 325.972V330.5H452.06V322.788ZM464.858 326.612C464.858 325.06 465.53 323.764 466.65 323.06C467.21 322.708 467.834 322.532 468.522 322.532C469.658 322.532 470.538 322.9 471.162 323.636C471.786 324.372 472.09 325.364 472.09 326.628V326.9H466.234C466.25 327.748 466.474 328.42 466.922 328.916C467.37 329.412 467.93 329.668 468.618 329.668C469.658 329.668 470.474 329.22 470.65 328.116H472.01C471.93 328.868 471.594 329.492 471.018 329.988C470.442 330.484 469.642 330.74 468.602 330.74C466.282 330.74 464.858 329.252 464.858 326.612ZM466.97 324.276C466.57 324.708 466.33 325.268 466.282 325.924H470.618C470.618 324.516 469.85 323.62 468.522 323.62C467.898 323.62 467.37 323.844 466.97 324.276Z" fill="white" fill-opacity="0.48" style="fill:white;fill-opacity:0.48;"/>
<path d="M362.484 372.823L368 369.721L373.516 372.824L368 375.926L362.484 372.823Z" fill="white" fill-opacity="0.48" style="fill:white;fill-opacity:0.48;"/>
<path d="M361.984 373.69V379.895L367.5 382.998V376.792L361.984 373.69Z" fill="white" fill-opacity="0.48" style="fill:white;fill-opacity:0.48;"/>
<path d="M368.5 382.997L374.016 379.895V373.69L368.5 376.792V382.997Z" fill="white" fill-opacity="0.48" style="fill:white;fill-opacity:0.48;"/>
<path d="M384.768 376.836C384.768 374.548 385.744 372.724 387.392 371.764C388.208 371.284 389.136 371.044 390.16 371.044C392.832 371.044 394.704 372.708 394.928 374.916H393.328C393.024 373.252 391.888 372.276 390.096 372.276C387.824 372.276 386.304 374.036 386.304 376.836C386.304 379.668 387.872 381.524 390.096 381.524C391.904 381.524 393.104 380.5 393.424 378.884H394.944C394.8 380.084 394.288 381.012 393.424 381.7C392.56 382.388 391.456 382.74 390.128 382.74C386.928 382.74 384.768 380.484 384.768 376.836ZM396.075 378.628C396.075 376.228 397.643 374.532 399.867 374.532C401.323 374.532 402.523 375.252 403.179 376.5C403.499 377.124 403.659 377.844 403.659 378.628C403.659 381.076 402.059 382.74 399.867 382.74C397.643 382.74 396.075 381.076 396.075 378.628ZM397.499 378.628C397.499 380.468 398.411 381.668 399.867 381.668C401.323 381.668 402.235 380.468 402.235 378.628C402.235 377.716 402.027 376.996 401.595 376.436C401.163 375.892 400.587 375.62 399.867 375.62C399.147 375.62 398.587 375.892 398.155 376.436C397.723 376.996 397.499 377.716 397.499 378.628ZM405.332 380.852C405.028 380.228 404.868 379.492 404.868 378.644C404.868 376.292 406.292 374.532 408.452 374.532C409.62 374.532 410.532 375.14 410.932 375.828V371.3H412.308V382.5H410.932V381.428C410.5 382.18 409.524 382.74 408.42 382.74C407.06 382.74 405.956 382.084 405.332 380.852ZM406.948 376.452C406.516 377.012 406.292 377.748 406.292 378.644C406.292 379.556 406.516 380.276 406.948 380.836C407.38 381.396 407.956 381.668 408.66 381.668C409.348 381.668 409.924 381.396 410.372 380.836C410.804 380.276 411.028 379.54 411.028 378.628C411.028 377.716 410.804 376.996 410.372 376.436C409.94 375.892 409.364 375.62 408.66 375.62C407.956 375.62 407.38 375.892 406.948 376.452ZM414.037 378.612C414.037 377.06 414.709 375.764 415.829 375.06C416.389 374.708 417.013 374.532 417.701 374.532C418.837 374.532 419.717 374.9 420.341 375.636C420.965 376.372 421.269 377.364 421.269 378.628V378.9H415.413C415.429 379.748 415.653 380.42 416.101 380.916C416.549 381.412 417.109 381.668 417.797 381.668C418.837 381.668 419.653 381.22 419.829 380.116H421.189C421.109 380.868 420.773 381.492 420.197 381.988C419.621 382.484 418.821 382.74 417.781 382.74C415.461 382.74 414.037 381.252 414.037 378.612ZM416.149 376.276C415.749 376.708 415.509 377.268 415.461 377.924H419.797C419.797 376.516 419.029 375.62 417.701 375.62C417.077 375.62 416.549 375.844 416.149 376.276ZM421.772 382.5L424.668 378.548L421.932 374.788H423.612L425.532 377.604L427.452 374.788H429.052L426.252 378.548L429.164 382.5H427.5L425.868 380.116C425.74 379.908 425.596 379.7 425.436 379.492C425.244 379.764 425.1 379.972 425.02 380.116L423.372 382.5H421.772ZM434.068 381.188C433.764 380.708 433.604 380.148 433.604 379.508H435.044C435.044 380.788 435.892 381.604 437.3 381.604C438.9 381.604 439.86 380.532 439.86 378.852C439.86 377.236 438.964 376.164 437.492 376.164C436.932 376.164 436.436 376.324 436.004 376.628C435.572 376.932 435.268 377.284 435.124 377.652H433.78L434.596 371.3H440.692V372.58H435.652L435.284 375.412L435.188 376.244C435.764 375.492 436.756 375.028 437.828 375.028C439.172 375.028 440.292 375.716 440.884 376.852C441.172 377.428 441.316 378.068 441.316 378.756C441.316 381.108 439.716 382.74 437.348 382.74C435.828 382.74 434.66 382.164 434.068 381.188ZM444.681 380.644V382.5H442.857V380.644H444.681ZM445.98 379.636V378.276L450.636 371.3H452.524V378.356H454.588V379.636H452.524V382.5H451.116V379.636H445.98ZM447.308 378.356H451.116V372.564L450.636 373.332L447.308 378.356Z" fill="white" fill-opacity="0.48" style="fill:white;fill-opacity:0.48;"/>
<mask id="path-26-inside-3_4436_39740" fill="white">
<path d="M54 434.5H666V570.5C666 577.127 660.627 582.5 654 582.5H66C59.3726 582.5 54 577.127 54 570.5V434.5Z"/>
</mask>
<path d="M54 434.5H666V570.5C666 577.127 660.627 582.5 654 582.5H66C59.3726 582.5 54 577.127 54 570.5V434.5Z" fill="#131315" style="fill:#131315;fill:color(display-p3 0.0759 0.0759 0.0841);fill-opacity:1;"/>
<path d="M54 433.5H666V435.5H54V433.5ZM54 435.5M666 582.5H54H666M666 582.5M54 582.5V434.5V582.5M54 582.5M666 434.5V582.5V434.5" fill="#ECE4FD" fill-opacity="0.04" style="fill:#ECE4FD;fill:color(display-p3 0.9255 0.8941 0.9922);fill-opacity:0.04;" mask="url(#path-26-inside-3_4436_39740)"/>
<path opacity="0.56" d="M81.28 478.5L78.24 467.3H79.744L81.92 475.444C82.016 475.764 82.128 476.196 82.272 476.74L82.4 476.276C82.464 476.1 82.544 475.812 82.64 475.444L84.832 467.3H86.656L88.816 475.444C88.944 475.876 89.056 476.308 89.168 476.756L91.744 467.3H93.168L90.128 478.5H88.352L85.728 468.628L85.344 470.116L83.072 478.5H81.28ZM94.4303 467.3H95.8063V471.828C96.2383 471.06 97.1503 470.532 98.1743 470.532C99.9663 470.532 101.022 471.668 101.022 473.636V478.5H99.6463V473.812C99.6463 472.324 99.1183 471.62 97.9023 471.62C97.2623 471.62 96.7503 471.828 96.3823 472.26C95.9983 472.692 95.8063 473.236 95.8063 473.86V478.5H94.4303V467.3ZM103.434 478.1C102.922 477.668 102.666 477.108 102.666 476.388C102.666 474.996 103.706 474.244 105.226 473.988L106.874 473.732C107.45 473.652 107.658 473.428 107.658 472.964C107.658 472.132 107.018 471.62 106.106 471.62C104.954 471.62 104.33 472.228 104.282 473.204H102.906C102.97 471.764 104.106 470.532 105.994 470.532C107.898 470.532 109.002 471.652 109.002 473.444V478.5H107.69V477.46C107.306 478.276 106.458 478.74 105.322 478.74C104.57 478.74 103.93 478.532 103.434 478.1ZM104.09 476.388C104.09 477.156 104.698 477.668 105.514 477.668C106.138 477.668 106.65 477.476 107.05 477.092C107.45 476.708 107.658 476.212 107.658 475.588V474.452C107.578 474.58 107.29 474.692 106.81 474.788L105.69 474.996C104.618 475.204 104.09 475.668 104.09 476.388ZM110.136 470.788H111.576V468.244H112.952V470.788H114.552V471.924H112.952V476.164C112.952 477.012 113.368 477.348 114.088 477.348C114.248 477.348 114.44 477.332 114.664 477.3V478.484C114.376 478.548 114.072 478.58 113.768 478.58C112.488 478.58 111.576 477.908 111.576 476.308V471.924H110.136V470.788ZM119.758 476.852C119.454 476.228 119.294 475.492 119.294 474.644C119.294 472.292 120.718 470.532 122.878 470.532C124.046 470.532 124.958 471.14 125.358 471.828V467.3H126.734V478.5H125.358V477.428C124.926 478.18 123.95 478.74 122.846 478.74C121.486 478.74 120.382 478.084 119.758 476.852ZM121.374 472.452C120.942 473.012 120.718 473.748 120.718 474.644C120.718 475.556 120.942 476.276 121.374 476.836C121.806 477.396 122.382 477.668 123.086 477.668C123.774 477.668 124.35 477.396 124.798 476.836C125.23 476.276 125.454 475.54 125.454 474.628C125.454 473.716 125.23 472.996 124.798 472.436C124.366 471.892 123.79 471.62 123.086 471.62C122.382 471.62 121.806 471.892 121.374 472.452ZM128.447 474.628C128.447 472.228 130.015 470.532 132.239 470.532C133.695 470.532 134.895 471.252 135.551 472.5C135.871 473.124 136.031 473.844 136.031 474.628C136.031 477.076 134.431 478.74 132.239 478.74C130.015 478.74 128.447 477.076 128.447 474.628ZM129.871 474.628C129.871 476.468 130.783 477.668 132.239 477.668C133.695 477.668 134.607 476.468 134.607 474.628C134.607 473.716 134.399 472.996 133.967 472.436C133.535 471.892 132.959 471.62 132.239 471.62C131.519 471.62 130.959 471.892 130.527 472.436C130.095 472.996 129.871 473.716 129.871 474.628ZM140.163 470.788H141.683L143.971 476.66L146.003 470.788H147.443L143.299 481.876H141.843L143.251 478.228L140.163 470.788ZM148.014 474.628C148.014 472.228 149.582 470.532 151.806 470.532C153.262 470.532 154.462 471.252 155.118 472.5C155.438 473.124 155.598 473.844 155.598 474.628C155.598 477.076 153.998 478.74 151.806 478.74C149.582 478.74 148.014 477.076 148.014 474.628ZM149.438 474.628C149.438 476.468 150.35 477.668 151.806 477.668C153.262 477.668 154.174 476.468 154.174 474.628C154.174 473.716 153.966 472.996 153.534 472.436C153.102 471.892 152.526 471.62 151.806 471.62C151.086 471.62 150.526 471.892 150.094 472.436C149.662 472.996 149.438 473.716 149.438 474.628ZM157.207 470.788H158.583V475.412C158.583 476.932 159.111 477.668 160.343 477.668C161.607 477.668 162.311 476.708 162.311 475.044V470.788H163.671V478.5H162.327V477.428C161.959 478.244 161.031 478.74 159.991 478.74C158.183 478.74 157.207 477.668 157.207 475.7V470.788ZM170.832 478.5L168.32 470.788H169.808L171.488 476.5C171.568 476.756 171.632 476.932 171.648 477.028C171.728 476.788 171.792 476.612 171.824 476.5L173.52 470.788H175.232L177.168 476.964L177.328 476.468L178.992 470.788H180.384L177.904 478.5H176.304L174.368 472.116L172.416 478.5H170.832ZM181.861 478.1C181.349 477.668 181.093 477.108 181.093 476.388C181.093 474.996 182.133 474.244 183.653 473.988L185.301 473.732C185.877 473.652 186.085 473.428 186.085 472.964C186.085 472.132 185.445 471.62 184.533 471.62C183.381 471.62 182.757 472.228 182.709 473.204H181.333C181.397 471.764 182.533 470.532 184.421 470.532C186.325 470.532 187.429 471.652 187.429 473.444V478.5H186.117V477.46C185.733 478.276 184.885 478.74 183.749 478.74C182.997 478.74 182.357 478.532 181.861 478.1ZM182.517 476.388C182.517 477.156 183.125 477.668 183.941 477.668C184.565 477.668 185.077 477.476 185.477 477.092C185.877 476.708 186.085 476.212 186.085 475.588V474.452C186.005 474.58 185.717 474.692 185.237 474.788L184.117 474.996C183.045 475.204 182.517 475.668 182.517 476.388ZM189.538 470.788H190.914V471.828C191.346 471.124 192.274 470.532 193.282 470.532C195.074 470.532 196.13 471.668 196.13 473.636V478.5H194.754V473.812C194.754 472.324 194.258 471.62 193.058 471.62C192.402 471.62 191.89 471.828 191.506 472.26C191.106 472.692 190.914 473.236 190.914 473.86V478.5H189.538V470.788ZM197.263 470.788H198.703V468.244H200.079V470.788H201.679V471.924H200.079V476.164C200.079 477.012 200.495 477.348 201.215 477.348C201.375 477.348 201.567 477.332 201.791 477.3V478.484C201.503 478.548 201.199 478.58 200.895 478.58C199.615 478.58 198.703 477.908 198.703 476.308V471.924H197.263V470.788ZM205.787 470.788H207.227V468.244H208.603V470.788H210.203V471.924H208.603V476.164C208.603 477.012 209.019 477.348 209.739 477.348C209.899 477.348 210.091 477.332 210.315 477.3V478.484C210.027 478.548 209.723 478.58 209.419 478.58C208.139 478.58 207.227 477.908 207.227 476.308V471.924H205.787V470.788ZM211.214 474.628C211.214 472.228 212.782 470.532 215.006 470.532C216.462 470.532 217.662 471.252 218.318 472.5C218.638 473.124 218.798 473.844 218.798 474.628C218.798 477.076 217.198 478.74 215.006 478.74C212.782 478.74 211.214 477.076 211.214 474.628ZM212.638 474.628C212.638 476.468 213.55 477.668 215.006 477.668C216.462 477.668 217.374 476.468 217.374 474.628C217.374 473.716 217.166 472.996 216.734 472.436C216.302 471.892 215.726 471.62 215.006 471.62C214.286 471.62 213.726 471.892 213.294 472.436C212.862 472.996 212.638 473.716 212.638 474.628ZM224.14 478.5V467.3H225.516V471.828C226.044 471.076 226.972 470.532 228.06 470.532C230.268 470.532 231.612 472.26 231.612 474.644C231.612 477.044 230.188 478.74 228.028 478.74C226.956 478.74 226.012 478.212 225.516 477.428V478.5H224.14ZM225.436 474.628C225.436 476.42 226.428 477.668 227.804 477.668C228.524 477.668 229.1 477.38 229.532 476.82C229.964 476.26 230.172 475.54 230.172 474.644C230.172 473.748 229.964 473.012 229.532 472.452C229.1 471.892 228.524 471.62 227.804 471.62C226.396 471.62 225.436 472.772 225.436 474.628ZM233.212 470.788H234.588V475.412C234.588 476.932 235.116 477.668 236.348 477.668C237.612 477.668 238.316 476.708 238.316 475.044V470.788H239.676V478.5H238.332V477.428C237.964 478.244 237.036 478.74 235.996 478.74C234.188 478.74 233.212 477.668 233.212 475.7V470.788ZM243.355 469.332H241.771V467.684H243.355V469.332ZM241.883 478.5V470.788H243.259V478.5H241.883ZM245.457 478.5V467.3H246.833V478.5H245.457ZM249 476.852C248.696 476.228 248.536 475.492 248.536 474.644C248.536 472.292 249.96 470.532 252.12 470.532C253.288 470.532 254.2 471.14 254.6 471.828V467.3H255.976V478.5H254.6V477.428C254.168 478.18 253.192 478.74 252.088 478.74C250.728 478.74 249.624 478.084 249 476.852ZM250.616 472.452C250.184 473.012 249.96 473.748 249.96 474.644C249.96 475.556 250.184 476.276 250.616 476.836C251.048 477.396 251.624 477.668 252.328 477.668C253.016 477.668 253.592 477.396 254.04 476.836C254.472 476.276 254.696 475.54 254.696 474.628C254.696 473.716 254.472 472.996 254.04 472.436C253.608 471.892 253.032 471.62 252.328 471.62C251.624 471.62 251.048 471.892 250.616 472.452ZM258.936 470.724H257.512C257.512 468.436 259.048 467.044 261.208 467.044C263.176 467.044 264.632 468.34 264.632 469.86C264.632 471.076 264.024 471.924 262.92 472.82L262.488 473.172C261.8 473.732 261.544 474.356 261.544 475.492H260.152C260.152 474.74 260.264 474.116 260.472 473.636C260.68 473.156 261.096 472.66 261.72 472.148L262.12 471.812C262.824 471.252 263.176 470.644 263.176 469.956C263.176 468.932 262.424 468.196 261.208 468.196C259.8 468.196 258.936 469.172 258.936 470.724ZM261.688 478.5H260.04V476.756H261.688V478.5Z" fill="white" fill-opacity="0.64" style="fill:white;fill-opacity:0.64;"/>
<rect x="72" y="463" width="2" height="19" fill="#94A1FE" style="fill:#94A1FE;fill:color(display-p3 0.5804 0.6314 0.9961);fill-opacity:1;"/>
</g>
<path d="M62 114H658C664.351 114 669.5 119.149 669.5 125.5V570.5C669.5 579.06 662.56 586 654 586H66C57.4396 586 50.5 579.06 50.5 570.5V125.5C50.5 119.149 55.6487 114 62 114Z" stroke="#ECE4FD" stroke-opacity="0.12" style="stroke:#ECE4FD;stroke:color(display-p3 0.9255 0.8941 0.9922);stroke-opacity:0.12;"/>
<defs>
<linearGradient id="paint0_linear_4436_39740" x1="241" y1="172.499" x2="241" y2="192.5" gradientUnits="userSpaceOnUse">
<stop stop-color="#B1A7FF" style="stop-color:#B1A7FF;stop-color:color(display-p3 0.6941 0.6549 1.0000);stop-opacity:1;"/>
<stop offset="0.5" stop-color="#7A9DFF" style="stop-color:#7A9DFF;stop-color:color(display-p3 0.4784 0.6157 1.0000);stop-opacity:1;"/>
<stop offset="1" stop-color="#3941FF" style="stop-color:#3941FF;stop-color:color(display-p3 0.2235 0.2549 1.0000);stop-opacity:1;"/>
</linearGradient>
<linearGradient id="paint1_linear_4436_39740" x1="95.5009" y1="237.499" x2="95.5009" y2="272.5" gradientUnits="userSpaceOnUse">
<stop stop-color="#B1A7FF" style="stop-color:#B1A7FF;stop-color:color(display-p3 0.6941 0.6549 1.0000);stop-opacity:1;"/>
<stop offset="0.5" stop-color="#7A9DFF" style="stop-color:#7A9DFF;stop-color:color(display-p3 0.4784 0.6157 1.0000);stop-opacity:1;"/>
<stop offset="1" stop-color="#3941FF" style="stop-color:#3941FF;stop-color:color(display-p3 0.2235 0.2549 1.0000);stop-opacity:1;"/>
</linearGradient>
<clipPath id="clip0_4436_39740">
<path d="M50 125.5C50 118.873 55.3726 113.5 62 113.5H658C664.627 113.5 670 118.873 670 125.5V570.5C670 579.337 662.837 586.5 654 586.5H66C57.1634 586.5 50 579.337 50 570.5V125.5Z" fill="white" style="fill:white;fill-opacity:1;"/>
</clipPath>
<clipPath id="clip1_4436_39740">
<rect width="18" height="18" fill="white" style="fill:white;fill-opacity:1;" transform="translate(74 173.5)"/>
</clipPath>
<clipPath id="clip2_4436_39740">
<rect width="20" height="20" fill="white" style="fill:white;fill-opacity:1;" transform="translate(231 172.5)"/>
</clipPath>
<clipPath id="clip3_4436_39740">
<rect width="35" height="35" fill="white" style="fill:white;fill-opacity:1;" transform="translate(78 237.5)"/>
</clipPath>
</defs>
</svg>
