<svg id="Layer_1" data-name="Layer 1" xmlns="http://www.w3.org/2000/svg" viewBox="0 0 140 30">
  <defs>
    <style>
      .cls-1 {
        fill: #503629;
      }
    </style>
  </defs>
  <title>JPM-Logo-Brown</title>
  <path class="cls-1" d="M14.92,1H6.81v.69H9.39V15.1c0,4-1.12,5.17-3.63,5.17a1.68,1.68,0,0,1-1.85-1.49,1.22,1.22,0,0,1,0-.33c0-1.46-.08-2.36-1.42-2.36S1,17.45,1,17.86c0,1.85.82,3.26,4.51,3.26,4.4,0,6.78-1.48,6.78-6.38V1.68H15Z"/>
  <path class="cls-1" d="M16,18a1.51,1.51,0,0,0-1.13.45,1.54,1.54,0,0,0-.46,1.13,1.49,1.49,0,0,0,.46,1.1,1.6,1.6,0,0,0,1.13.46,1.64,1.64,0,0,0,1.15-.46,1.49,1.49,0,0,0,.46-1.1A1.56,1.56,0,0,0,16.07,18H16"/>
  <path class="cls-1" d="M34,18a1.55,1.55,0,0,0-1.59,1.52v.06a1.46,1.46,0,0,0,.5,1.1,1.62,1.62,0,0,0,1.13.46,1.56,1.56,0,0,0,1.14-.46,1.46,1.46,0,0,0,.48-1.1,1.5,1.5,0,0,0-.47-1.13A1.54,1.54,0,0,0,34.08,18"/>
  <path class="cls-1" d="M28.39,1h-8v.69h2.33V17a4.46,4.46,0,0,1-.21,1.85,1.6,1.6,0,0,1-1,.9A4.79,4.79,0,0,1,20,20v.64H28.5V20a5.63,5.63,0,0,1-1.63-.23,1.63,1.63,0,0,1-1-.9,2.8,2.8,0,0,1-.21-1.25V12.38h2.12c6.14,0,7.87-2.42,7.87-5.71S34.61,1,28.39,1m-1.1,10.6H25.68V1.78l1.46,0C31.88,1.76,33,3.69,33,6.85s-1.86,4.82-5.63,4.82"/>
  <path class="cls-1" d="M61,18.8a4.08,4.08,0,0,1-.17-1.34V1.69l2.11,0V1.05H57.87L51.83,16a.14.14,0,0,1-.12.09.16.16,0,0,1-.15-.09S45.21,1.23,45.14,1.05H39.55v.62H42V18.25a2.08,2.08,0,0,1-.33,1,1.87,1.87,0,0,1-.9.64A4.41,4.41,0,0,1,39.6,20v.64h5.54V20a3.15,3.15,0,0,1-1-.15,1.78,1.78,0,0,1-1-.63,2.1,2.1,0,0,1-.34-1l-.06-1.38V3.75h.33s7.23,16.69,7.23,16.88H51L57.82,3.89H58V17.38a4.93,4.93,0,0,1-.17,1.38,1.62,1.62,0,0,1-.85.91,4.22,4.22,0,0,1-1.41.24v.64h7.75v-.64a4.17,4.17,0,0,1-1.44-.26,1.55,1.55,0,0,1-.86-1"/>
  <path class="cls-1" d="M71.45,6.25c-4.14,0-6.78,2.73-6.78,7.5,0,7,5.47,7.45,6.64,7.45,2.34,0,6.78-1.45,6.78-7.58,0-4.82-2.84-7.37-6.67-7.37m0,14.08c-3.12,0-3.6-1.54-3.6-6.51,0-3.85.24-6.74,3.6-6.74,3.61,0,3.63,3,3.63,6.47,0,5-.86,6.74-3.63,6.74"/>
  <path class="cls-1" d="M88.94,6.46C86.46,6.46,85.7,7.92,85,9.4h-.19s-.36-2.15-.49-2.79H79.49v.73h2.6v9.73a4.84,4.84,0,0,1-.32,2c-.26.49-.86.73-1.84.73H79.5v.86h8v-.86h-.38c-1.06,0-1.51-.23-1.79-.69A4.09,4.09,0,0,1,85,17.07V12c0-1.69,1.28-3.63,2.82-3.63s1.57,2.47,3.4,1.48c1-.54.82-3.37-2.26-3.37"/>
  <path class="cls-1" d="M120.92,19.19c-.86,0-1.14-.48-1.19-1.27V10.25a3.66,3.66,0,0,0-1-2.89c-.75-.74-2.17-1.13-4.24-1.13a7.35,7.35,0,0,0-4.41,1.08,2.63,2.63,0,0,0-1.27,2.26,1.16,1.16,0,0,0,.35,1,1.3,1.3,0,0,0,.88.31c.8,0,1.24-.41,1.42-1.45a2.73,2.73,0,0,1,.63-1.65,2.52,2.52,0,0,1,1.93-.64,2.46,2.46,0,0,1,2.12.81,3.4,3.4,0,0,1,.56,2.05v2.35c-2.57.23-8.64.71-8.37,5.32A3.7,3.7,0,0,0,112.12,21a6.31,6.31,0,0,0,4.7-2.32,2.67,2.67,0,0,0,2.73,2.15c1.87,0,3-.92,3.12-3.19h-.49c-.12,1-.73,1.52-1.24,1.52m-4.21-1.48a.09.09,0,0,1,0,.1l0,.06a5.2,5.2,0,0,1-3.2,1.69,2.2,2.2,0,0,1-2.28-2.12,1.83,1.83,0,0,1,0-.33c0-2.61,3.6-3.92,5.56-3.92Z"/>
  <path class="cls-1" d="M137.38,19.09a3.73,3.73,0,0,1-.5-2.09V10.65a4.92,4.92,0,0,0-.47-2.36A3.54,3.54,0,0,0,135,6.88a4.56,4.56,0,0,0-2.12-.46,5,5,0,0,0-4.57,2.71H128l-.5-2.54h-4.33v.73h2.19V17a6.48,6.48,0,0,1-.16,1.64,1.28,1.28,0,0,1-.82.9,3.34,3.34,0,0,1-1.21.2v.89h6.94v-.9a1.78,1.78,0,0,1-1.42-.59,3.71,3.71,0,0,1-.39-2V13.45a8.85,8.85,0,0,1,.53-4,3.12,3.12,0,0,1,2.79-1.56,2,2,0,0,1,1.94,1,9.87,9.87,0,0,1,.47,3.28v4.58a9.34,9.34,0,0,1,0,1.7,1.35,1.35,0,0,1-.61,1,2.27,2.27,0,0,1-1.11.29v.9H139v-.89c-.84-.06-1.39-.26-1.64-.65"/>
  <path class="cls-1" d="M106,5.68a1.36,1.36,0,0,0-.83,1.1c-.11.57-.33.91-.62,1a1.61,1.61,0,0,1-1-.06A6.45,6.45,0,0,0,99,6.2,5.24,5.24,0,0,0,93.37,11c0,.21,0,.42,0,.63,0,3,1.15,4.39,3.66,4.92.16,0,.16.2,0,.22-2.11.39-4,1-4,3.05A2.3,2.3,0,0,0,94.57,22a12,12,0,0,0,4.16.65,30.74,30.74,0,0,1,3.34.15,4,4,0,0,1,1.82.63,1.91,1.91,0,0,1,.69,1.62,2.51,2.51,0,0,1-1.51,2.25,7.81,7.81,0,0,1-3.8.79,6.26,6.26,0,0,1-3.49-.77,1.85,1.85,0,0,1-.73-2,1.15,1.15,0,0,0-.71-1.45l-.15,0a1.26,1.26,0,0,0-1.2.54,2.25,2.25,0,0,0-.31,1.29A2.89,2.89,0,0,0,95,28.42a12.1,12.1,0,0,0,3.87.57,9.82,9.82,0,0,0,4.41-.82A4.57,4.57,0,0,0,106.08,24a4.15,4.15,0,0,0-.66-2.44c-1.4-1.92-3.38-1.66-7.84-1.88-2.14,0-2.56-.38-2.56-1,0-1,.79-1.35,3.87-1.82s5.91-1.59,5.91-5.3a6.16,6.16,0,0,0-.56-2.63,3.29,3.29,0,0,0,1.76,0,2,2,0,0,0,1.25-1,1.53,1.53,0,0,0,.24-1.31c-.26-.83-.76-1.13-1.52-.9m-6.9,10.23c-1.82,0-2.91-.66-2.91-4.36,0-2.61.91-4.55,2.91-4.55,2.28,0,2.9,1.77,2.9,4.49,0,3.86-1.23,4.42-2.9,4.42"/>
</svg>
