<svg width="1777" height="230" viewBox="0 0 1777 230" fill="none" xmlns="http://www.w3.org/2000/svg">
<path fill-rule="evenodd" clip-rule="evenodd" d="M236.57 0.30127H0V29.1277H236.57V0.30127ZM213.166 51.5044H23.3529V80.3307H213.166V51.5044ZM103.847 102.716H132.673V229.301H103.847V102.716ZM75.022 102.716H46.1957V229.301H75.022V102.716ZM161.524 102.716H190.35V229.301H161.524V102.716Z" fill="white"/>
<g clip-path="url(#clip0_1178_6146)">
<path d="M387.601 64.8609C358.393 64.8609 336.252 81.8834 336.252 113.58C336.252 145.277 359.144 164.648 389.949 164.648C412.395 164.648 432.799 151.734 436.743 128.419C443.341 131.354 449.798 134.289 456.56 136.919C452.451 175.354 417.819 188.714 386.873 188.714C342.427 188.691 310.73 156.853 310.73 113.557C310.73 70.2611 343.014 41.5225 388.047 41.5225C421.2 41.5225 450.244 56.3379 457.147 88.3167L436.156 96.3936C429.7 74.5344 406.948 64.6965 387.601 64.6965V64.8374V64.8609Z" fill="white"/>
<path d="M477.691 115.318C477.691 69.5334 506.899 40.3486 550.899 40.3486C594.899 40.3486 625 69.9795 625 113.862C625 157.745 595.651 188.832 551.486 188.832C507.322 188.832 477.55 159.342 477.55 115.318H477.691ZM551.04 63.0766C521.245 63.0766 502.321 82.0009 502.321 113.252C502.321 144.503 521.245 166.362 551.463 166.362C581.681 166.362 600.605 147.438 600.605 116.187C600.605 84.9358 581.234 63.0766 551.017 63.0766H551.04Z" fill="white"/>
<path d="M776.253 184.136H656.392V45.6313H679.871V161.243H776.253V184.136Z" fill="white"/>
<path d="M784.778 115.318C784.778 69.5334 813.963 40.3486 858.127 40.3486C902.292 40.3486 932.228 69.9795 932.228 113.862C932.228 157.745 902.879 188.832 858.714 188.832C814.55 188.832 784.778 159.342 784.778 115.318ZM858.127 63.0766C828.356 63.0766 809.408 82.0009 809.408 113.252C809.408 144.503 828.332 166.362 858.55 166.362C888.768 166.362 907.692 147.438 907.692 116.187C907.692 84.9358 888.322 63.0766 858.104 63.0766H858.127Z" fill="white"/>
<path d="M1100.78 140.417C1100.78 178.266 1062.35 189.278 1031.69 189.278C1008.35 189.278 967.563 185.897 959.651 148.494L980.477 138.515C989.282 161.69 1011.14 164.789 1029.2 164.789C1045.49 164.789 1074.98 161.408 1074.98 142.343C1074.98 106.701 960.402 146.146 960.402 86.1566C960.402 53.7317 998.697 40.959 1029.36 40.959C1060.02 40.959 1093.04 51.2194 1097.73 82.3295L1078.22 90.1012C1072.35 69.275 1049.91 62.6539 1029.36 62.6539C1009.99 62.6539 988.131 70.2846 988.131 83.9261C988.131 116.797 1100.95 81.8834 1100.95 140.558L1100.81 140.417H1100.78Z" fill="white"/>
<path d="M1263.8 140.417C1263.8 178.266 1225.22 189.278 1194.7 189.278C1171.39 189.278 1130.58 185.897 1122.67 148.494L1143.49 138.515C1152.3 161.69 1174.16 164.789 1192.21 164.789C1208.51 164.789 1238 161.408 1238 142.343C1238 106.701 1123.42 146.146 1123.42 86.1566C1123.42 53.7317 1161.71 40.959 1192.38 40.959C1223.04 40.959 1256.05 51.2194 1260.75 82.3295L1241.24 90.1012C1235.37 69.275 1212.92 62.6539 1192.38 62.6539C1173.01 62.6539 1151.15 70.2846 1151.15 83.9261C1151.15 116.797 1263.97 81.8834 1263.97 140.558L1263.82 140.417H1263.8Z" fill="white"/>
<path d="M1423.41 184.136H1293.85V45.6313H1419.45V68.9698H1317.19V101.089H1402.14V124.851H1317.19V161.243H1423.41V184.136Z" fill="white"/>
<path d="M1449.99 132.927V45.6313H1473.47V127.504C1473.47 151.852 1487.56 165.352 1517.19 165.352C1546.82 165.352 1560.91 151.852 1560.91 127.504V45.6313H1584.39V132.927C1584.39 166.385 1559.15 189.113 1517.19 189.113C1475.23 189.113 1449.99 166.362 1449.99 132.927Z" fill="white"/>
<path d="M1698.38 142.906L1747.1 45.6313H1776.87V184.136H1753.39V87.448C1743.86 105.339 1713.64 166.385 1704.09 184.277H1692.79L1643.65 87.448V183.995H1620.17V45.6313H1649.8C1659.33 63.9687 1689.13 124.71 1698.52 142.906H1698.38Z" fill="white"/>
</g>
<defs>
<clipPath id="clip0_1178_6146">
<rect width="1466.14" height="148.906" fill="white" transform="translate(310.73 40.3486)"/>
</clipPath>
</defs>
</svg>
