<svg width="65" height="59" viewBox="0 0 65 59" fill="none" xmlns="http://www.w3.org/2000/svg"><path d="M64.44 46.211 53.745 57.677a2.472 2.472 0 0 1-1.81.791H1.241a1.242 1.242 0 0 1-.91-2.088l10.68-11.466a2.475 2.475 0 0 1 1.811-.79h50.693a1.238 1.238 0 0 1 .923 2.087ZM53.745 23.116a2.5 2.5 0 0 0-1.81-.79H1.241a1.244 1.244 0 0 0-.91 2.087l10.68 11.473a2.499 2.499 0 0 0 1.811.79h50.693a1.243 1.243 0 0 0 .905-2.088L53.746 23.116ZM1.242 14.878h50.693a2.473 2.473 0 0 0 1.81-.79L64.44 2.622a1.239 1.239 0 0 0-.923-2.089H12.823a2.475 2.475 0 0 0-1.81.791L.33 12.79a1.244 1.244 0 0 0 .911 2.088Z" fill="url(#paint0_linear_537_4834)"/><defs><linearGradient id="paint0_linear_537_4834" x1="5.467" y1="59.85" x2="58.622" y2="-.076" gradientUnits="userSpaceOnUse"><stop offset=".08" stop-color="#9945FF"/><stop offset=".3" stop-color="#8752F3"/><stop offset=".5" stop-color="#5497D5"/><stop offset=".6" stop-color="#43B4CA"/><stop offset=".72" stop-color="#28E0B9"/><stop offset=".97" stop-color="#19FB9B"/></linearGradient></defs></svg>
