<?xml version="1.0" standalone="no"?>
<!DOCTYPE svg PUBLIC "-//W3C//DTD SVG 20010904//EN"
 "http://www.w3.org/TR/2001/REC-SVG-20010904/DTD/svg10.dtd">
<svg version="1.0" xmlns="http://www.w3.org/2000/svg"
 width="1527.000000pt" height="262.000000pt" viewBox="0 0 1527.000000 262.000000"
 preserveAspectRatio="xMidYMid meet">
<metadata>
Created by potrace 1.16, written by Peter Selinger 2001-2019
</metadata>
<g transform="translate(0.000000,262.000000) scale(0.100000,-0.100000)"
fill="currentColor" stroke="none">
<path d="M1970 2604 c-144 -39 -260 -154 -290 -287 -6 -27 -32 -328 -59 -670
-28 -342 -51 -644 -54 -672 -17 -216 100 -371 303 -404 84 -14 844 -14 930 -1
187 30 326 170 351 357 15 112 81 1303 76 1374 -8 129 -76 226 -196 283 l-66
31 -470 2 c-391 2 -479 0 -525 -13z m590 -506 c1 -13 -14 -247 -32 -520 l-33
-498 -128 0 -129 0 6 38 c3 20 19 249 37 507 17 259 33 476 35 483 2 9 36 12
124 12 118 0 120 0 120 -22z"/>
<path d="M10235 2606 c-102 -25 -192 -92 -233 -173 -43 -85 -44 -109 -22 -812
11 -367 25 -693 30 -726 28 -172 162 -298 347 -325 46 -7 225 -10 505 -8 417
4 435 5 492 26 109 41 191 124 222 227 8 27 14 89 14 139 0 143 -58 1253 -70
1330 -25 164 -130 278 -297 321 -76 20 -909 21 -988 1z m639 -518 c3 -18 12
-217 21 -443 8 -225 18 -445 21 -488 l6 -78 -128 3 -129 3 -17 430 c-9 237
-18 469 -20 518 l-3 87 122 0 122 0 5 -32z"/>
<path d="M11990 2606 c-152 -43 -247 -156 -257 -305 -6 -83 65 -1360 78 -1421
15 -66 66 -155 116 -201 56 -52 150 -95 233 -108 86 -14 835 -14 920 0 186 30
298 149 307 327 7 116 -93 1387 -112 1442 -48 137 -148 228 -292 265 -76 20
-922 21 -993 1z m688 -988 c18 -277 33 -511 32 -520 0 -16 -13 -18 -125 -18
-123 0 -125 0 -125 23 0 12 -14 227 -30 477 -16 250 -30 474 -30 498 l0 42
123 0 123 0 32 -502z"/>
<path d="M431 2574 c-155 -42 -274 -167 -301 -318 -24 -128 -131 -1265 -127
-1341 8 -171 116 -286 294 -315 32 -6 291 -10 576 -10 486 0 517 1 517 18 0 9
9 125 20 257 11 132 20 241 20 243 0 1 -169 2 -375 2 -206 0 -375 3 -375 8 0
20 81 911 86 940 l5 32 279 0 279 0 88 76 c48 42 93 82 99 90 6 7 14 58 18
111 3 54 9 126 13 161 l6 62 -534 -1 c-434 0 -544 -3 -588 -15z"/>
<path d="M3555 2568 c-2 -13 -61 -393 -129 -844 -106 -694 -143 -979 -146
-1126 0 -5 166 -8 368 -8 l368 0 17 377 c10 208 17 393 17 411 0 25 4 32 20
32 12 0 22 -9 25 -22 3 -13 32 -135 63 -273 l58 -250 261 -3 262 -2 41 132
c131 417 131 418 150 418 18 0 19 -7 14 -97 -6 -132 -24 -631 -24 -682 l0 -41
364 0 363 0 6 67 c12 127 7 238 -53 1073 -33 459 -60 841 -60 848 0 9 -87 12
-404 12 l-404 0 -87 -257 c-49 -142 -92 -268 -96 -280 -13 -35 -37 -28 -49 15
-5 20 -38 146 -71 280 l-62 242 -403 0 -404 0 -5 -22z"/>
<path d="M5846 2558 c-2 -18 -12 -373 -21 -788 -9 -415 -19 -851 -22 -967 l-6
-213 336 0 c314 0 337 1 337 18 0 9 7 422 15 917 8 495 15 937 15 983 l0 82
-325 0 -324 0 -5 -32z"/>
<path d="M6979 2576 c-114 -32 -199 -102 -247 -206 -24 -52 -26 -67 -33 -280
-4 -124 -8 -444 -10 -710 -2 -477 -2 -486 19 -540 30 -77 73 -132 135 -173
112 -74 88 -72 710 -75 l557 -3 0 238 c0 131 -3 248 -6 261 l-6 22 -374 0
-374 0 0 213 c0 116 3 337 7 490 l6 277 276 0 276 0 93 86 92 86 0 133 c0 73
-3 147 -6 164 l-6 31 -532 -1 c-396 -1 -543 -4 -577 -13z"/>
<path d="M8285 2033 c3 -307 8 -757 11 -1000 l6 -443 602 0 c508 0 611 2 661
15 123 32 204 97 254 204 26 55 26 58 26 286 0 191 -3 240 -18 287 -35 114
-148 215 -269 240 -76 16 -79 39 -8 57 62 16 139 83 172 149 22 44 23 58 23
237 -1 219 -10 269 -64 353 -45 69 -122 125 -210 153 -59 18 -96 19 -627 19
l-564 0 5 -557z m805 -48 l0 -135 -70 0 -70 0 0 135 0 135 70 0 70 0 0 -135z
m90 -750 l0 -155 -110 0 -110 0 0 155 0 155 110 0 110 0 0 -155z"/>
<path d="M13473 2543 c3 -27 38 -466 77 -978 39 -511 73 -940 76 -952 l4 -23
335 0 c184 0 335 1 335 3 0 1 -13 155 -30 342 -16 187 -30 350 -30 362 0 21 4
23 54 23 l54 0 16 -42 c9 -24 65 -187 125 -363 l108 -320 337 -3 336 -2 0 22
c0 13 -6 79 -14 148 l-13 126 -187 357 c-102 196 -186 361 -186 367 0 5 41
164 91 352 100 375 98 359 73 573 l-7 55 -328 0 c-181 0 -329 -4 -329 -8 0 -5
-16 -161 -35 -348 -19 -186 -35 -340 -35 -342 0 -2 -26 -2 -57 0 l-58 3 -29
348 -30 347 -329 0 -330 0 6 -47z"/>
<path d="M4166 629 c-3 -17 -6 -71 -6 -119 0 -49 -3 -95 -6 -104 -5 -14 -40
-16 -285 -16 -153 0 -279 -2 -279 -5 0 -3 41 -86 90 -185 l90 -180 234 0 233
0 6 83 c4 45 7 112 7 149 0 37 4 69 8 72 5 3 49 -35 98 -85 l89 -89 226 0 226
0 23 77 23 77 71 -142 71 -142 332 0 c260 0 333 3 333 13 0 6 -16 90 -37 185
l-36 172 -455 0 -455 0 6 135 7 135 -304 0 -303 0 -7 -31z"/>
<path d="M11663 511 c-54 -100 -62 -137 -44 -201 6 -22 10 -19 43 40 20 36 52
98 73 139 l36 73 -22 24 c-12 13 -25 24 -28 24 -3 0 -30 -45 -58 -99z"/>
<path d="M13429 538 c-67 -68 -173 -130 -244 -144 -26 -5 -41 -22 -103 -122
-40 -64 -90 -145 -112 -180 -24 -36 -35 -62 -28 -62 20 0 97 67 158 136 30 34
57 61 61 59 3 -3 9 -39 13 -82 4 -43 10 -88 13 -100 l5 -23 378 0 378 0 77 98
c43 53 81 101 85 105 4 5 23 -38 42 -95 l35 -103 85 -3 86 -3 161 183 162 183
-578 3 c-446 2 -579 5 -585 15 -4 6 -8 37 -9 67 0 30 -4 73 -7 95 l-7 40 -66
-67z"/>
<path d="M9905 512 c-14 -48 -30 -100 -35 -116 -6 -16 -10 -46 -10 -66 0 -49
31 -146 41 -128 4 7 28 82 53 167 l46 154 -35 38 -34 38 -26 -87z"/>
<path d="M9865 550 c-10 -11 -40 -34 -66 -51 -27 -17 -49 -33 -49 -35 0 -2
-18 -85 -40 -184 -22 -99 -40 -185 -40 -191 0 -5 20 4 45 22 43 31 47 38 80
143 78 255 94 310 91 313 -1 2 -11 -6 -21 -17z"/>
<path d="M1526 518 c-3 -17 -6 -50 -6 -74 l0 -44 -376 -2 -377 -3 169 -192
169 -193 320 3 320 2 10 140 10 140 49 -79 c63 -102 114 -150 183 -176 31 -11
57 -19 59 -17 2 1 -49 82 -114 179 -108 162 -120 177 -152 183 -63 12 -163 67
-211 116 l-47 48 -6 -31z"/>
<path d="M11591 505 c-30 -24 -71 -52 -92 -62 -37 -17 -42 -27 -120 -206 -44
-104 -78 -191 -75 -194 7 -8 100 82 144 140 32 42 209 368 200 367 -2 -1 -27
-20 -57 -45z"/>
<path d="M11718 391 l-78 -148 31 -48 31 -48 85 163 c46 89 81 165 76 169 -4
3 -21 18 -38 33 l-30 27 -77 -148z"/>
<path d="M9975 338 c-26 -90 -50 -168 -52 -175 -5 -12 52 -81 60 -73 6 6 118
363 114 365 -1 1 -16 11 -34 23 -17 12 -33 22 -35 22 -3 0 -26 -73 -53 -162z"/>
<path d="M3023 452 c-23 -15 -43 -30 -43 -34 0 -4 43 -84 96 -178 104 -184 99
-180 157 -126 15 14 27 31 26 38 0 19 -173 321 -185 324 -5 1 -28 -10 -51 -24z"/>
<path d="M6764 444 c3 -22 8 -66 11 -99 9 -85 30 -146 66 -186 l30 -34 -5 35
c-3 19 -8 92 -12 161 l-6 126 -37 14 c-20 8 -40 16 -45 18 -4 2 -6 -14 -2 -35z"/>
<path d="M9650 430 l-54 -17 -38 -174 c-21 -96 -37 -181 -36 -190 3 -15 9 -15
51 -4 26 6 50 15 54 18 8 9 91 387 84 386 -3 -1 -31 -9 -61 -19z"/>
<path d="M11810 288 l-83 -162 38 -33 38 -33 92 177 92 178 -36 17 c-20 9 -41
17 -47 17 -7 1 -49 -72 -94 -161z"/>
<path d="M10126 432 c-7 -11 -116 -365 -113 -367 9 -9 68 -35 76 -35 10 0 121
333 121 361 0 15 -77 52 -84 41z"/>
<path d="M6884 328 c4 -57 9 -134 13 -171 l6 -68 50 -25 50 -26 -6 64 c-4 34
-10 118 -13 185 l-7 121 -43 11 c-24 6 -46 11 -50 11 -3 0 -4 -46 0 -102z"/>
<path d="M2895 395 c-25 -8 -39 -18 -37 -26 3 -13 72 -140 153 -281 l39 -66
37 10 c21 5 42 14 47 18 8 8 -183 361 -194 359 -3 -1 -23 -7 -45 -14z"/>
<path d="M9498 403 c-39 -3 -49 -8 -53 -26 -3 -12 -23 -96 -44 -187 l-38 -165
50 -3 c32 -2 54 2 62 10 6 7 28 92 49 188 39 189 40 191 29 188 -5 -1 -29 -3
-55 -5z"/>
<path d="M300 394 c0 -11 240 -283 277 -313 36 -30 123 -66 143 -59 5 2 -64
87 -153 190 l-162 187 -52 0 c-29 1 -53 -2 -53 -5z"/>
<path d="M457 387 c4 -8 80 -96 168 -195 l159 -182 53 0 c29 0 53 3 53 6 0 3
-75 91 -166 195 l-167 189 -54 0 c-43 0 -52 -3 -46 -13z"/>
<path d="M612 391 c2 -6 76 -93 166 -195 l162 -186 61 0 61 0 -29 34 c-15 19
-91 107 -168 195 l-140 160 -58 1 c-33 0 -57 -4 -55 -9z"/>
<path d="M7014 288 c4 -62 9 -145 13 -184 l6 -72 49 -6 c27 -4 52 -5 56 -2 4
2 4 60 0 128 -3 67 -7 151 -7 186 l-1 62 -61 0 -62 0 7 -112z"/>
<path d="M7165 228 c4 -95 9 -181 11 -190 5 -17 36 -18 470 -18 l464 0 0 190
0 190 -476 0 -476 0 7 -172z"/>
<path d="M8300 210 l0 -190 515 0 514 0 10 38 c5 20 24 100 41 177 17 77 33
146 35 153 4 9 -112 12 -555 12 l-560 0 0 -190z"/>
<path d="M11348 388 c-36 -9 -37 -12 -112 -186 -42 -97 -76 -181 -76 -186 0
-8 87 -3 94 5 6 9 156 365 156 372 0 9 -14 8 -62 -5z"/>
<path d="M11924 228 c-49 -95 -90 -175 -92 -179 -2 -4 19 -15 45 -25 42 -16
89 -19 379 -22 289 -3 332 -1 337 12 3 8 53 90 112 181 58 92 105 169 105 171
0 2 -145 4 -322 4 -247 0 -340 4 -393 15 -38 8 -73 15 -76 15 -4 0 -46 -77
-95 -172z"/>
<path d="M3370 253 c136 -259 117 -233 167 -233 23 0 43 2 43 5 0 3 -41 86
-90 185 l-90 180 -51 0 -51 0 72 -137z"/>
<path d="M3440 385 c0 -3 41 -86 90 -185 l90 -180 55 0 c30 0 55 2 55 5 0 3
-41 86 -90 185 l-90 180 -55 0 c-30 0 -55 -2 -55 -5z"/>
<path d="M5865 368 c3 -13 20 -94 39 -181 19 -88 37 -161 39 -164 3 -2 27 -3
55 -1 l50 3 -39 160 c-21 88 -41 170 -44 183 -5 19 -12 22 -55 22 -47 0 -50
-1 -45 -22z"/>
<path d="M5994 373 c3 -10 22 -85 41 -168 20 -82 38 -158 41 -167 4 -14 16
-18 55 -18 27 0 49 3 49 6 0 3 -18 84 -40 179 -22 95 -40 176 -40 179 0 3 -25
6 -56 6 -48 0 -55 -2 -50 -17z"/>
<path d="M6134 368 c3 -13 22 -96 43 -185 l37 -163 217 0 218 0 -40 113 c-22
61 -51 145 -65 185 l-26 72 -195 0 -195 0 6 -22z"/>
<path d="M10187 207 c-31 -101 -57 -186 -57 -189 0 -15 193 -20 505 -13 l344
7 71 167 c40 91 74 172 77 179 4 10 -71 12 -368 10 l-372 -3 -56 -175 c-42
-129 -61 -176 -74 -178 -9 -2 -17 -2 -17 0 0 2 27 83 59 181 33 97 56 179 53
181 -4 2 -30 7 -57 10 l-50 7 -58 -184z"/>
<path d="M14703 366 c-10 -13 -82 -97 -161 -185 l-143 -161 55 0 54 0 149 167
c200 227 186 203 120 203 -47 0 -58 -4 -74 -24z"/>
<path d="M14720 213 c-85 -97 -156 -180 -158 -185 -2 -4 20 -8 50 -7 l53 0
145 165 c194 221 184 204 119 203 l-54 0 -155 -176z"/>
<path d="M14877 218 c-84 -95 -156 -179 -161 -185 -5 -10 7 -13 51 -13 l58 1
79 87 c43 48 119 131 168 185 l90 97 -66 0 -65 0 -154 -172z"/>
<path d="M13045 372 l-50 -4 -110 -176 c-60 -96 -112 -180 -114 -185 -2 -6 18
-8 55 -3 33 4 60 11 62 15 2 5 47 78 101 164 111 173 125 198 114 195 -4 -1
-30 -3 -58 -6z"/>
<path d="M1879 353 c5 -10 58 -90 118 -178 l108 -160 53 -3 c28 -2 52 -1 52 3
0 3 -52 84 -117 180 l-116 175 -54 0 c-48 0 -53 -2 -44 -17z"/>
<path d="M2020 365 c0 -3 52 -84 117 -180 l116 -175 54 0 c29 0 53 3 53 6 0 4
-51 85 -112 180 l-113 173 -57 1 c-32 0 -58 -2 -58 -5z"/>
<path d="M2183 356 c3 -8 56 -89 117 -180 l110 -166 225 0 c124 0 225 2 225 4
0 2 -44 82 -98 177 l-97 174 -244 3 c-210 2 -243 0 -238 -12z"/>
<path d="M2738 298 c22 -40 67 -120 100 -178 l59 -105 48 -3 c26 -2 52 1 56 5
5 5 -33 84 -87 181 l-97 172 -59 0 -60 0 40 -72z"/>
<path d="M11123 273 c-23 -54 -57 -135 -77 -181 l-36 -83 56 3 56 3 68 158
c94 216 92 197 28 197 l-54 0 -41 -97z"/>
<path d="M12743 198 c-59 -94 -112 -178 -116 -185 -6 -10 4 -13 46 -13 l54 0
103 163 c57 89 110 172 118 185 14 22 14 22 -41 22 l-55 0 -109 -172z"/>
</g>
</svg>
