<svg xmlns="http://www.w3.org/2000/svg" width="750" height="138" fill="none"><g clip-path="url(#a)"><path fill="#EDA820" d="M105.675 22.09h21.945V136.205h21.945V.145h-43.89V22.09Z"/><path fill="url(#b)" d="M89.4 63.005a45.993 45.993 0 0 0 3.16-16.745C92.56 20.795 71.915.15 46.45.15S.34 20.795.34 46.26h21.945c0-13.325 10.84-24.165 24.165-24.165s24.165 10.84 24.165 24.165c0 6.18-2.345 11.81-6.17 16.085a75.08 75.08 0 0 1 10.505-.75c4.945 0 9.775.495 14.45 1.41Z"/><path fill="url(#c)" d="M92.505 136.205V114.26H27.05c-3.12 6.8-4.77 14.245-4.77 21.945h70.225Z"/><path fill="url(#d)" d="M89.4 63.005a74.77 74.77 0 0 0-14.45-1.41c-3.57 0-7.075.265-10.505.75C28.215 67.455.34 98.57.34 136.205h21.945c0-7.7 1.65-15.145 4.77-21.945A52.688 52.688 0 0 1 37.71 98.965c9.95-9.95 23.175-15.425 37.24-15.425 14.065 0 27.295 5.48 37.24 15.425 9.95 9.95 15.425 23.175 15.425 37.24V83.36C117.365 73.145 104.16 65.905 89.4 63.005Z"/><path fill="#EDA820" d="M184.95 60.925c0-4.41 6.16-9.99 20.685-9.99 9.075 0 22.295 2.095 22.295 14.22h21.945c0-20.765-15.575-32.635-45.55-32.635C189.83 32.52 163 38.175 163 61.99c0 38 65.805 25.77 65.805 44.865 0 6.29-4.455 11.17-22.245 11.17-24.42 0-22.37-15.83-22.37-15.83H160.2s-4.62 35.655 46.46 35.655c17.895 0 46.48-3.625 46.48-31.275 0-40.245-68.19-26.185-68.19-45.655v.005ZM596.415 32.515c-26.095 0-47.745 18.985-51.925 43.89a52.895 52.895 0 0 0-.74 8.78c0 2.995.265 5.92.74 8.78 4.18 24.905 25.83 43.89 51.925 43.89 19.495 0 36.5-10.595 45.605-26.335l-19.01-10.975c-5.32 9.18-15.245 15.37-26.595 15.37-13.89 0-25.65-9.27-29.44-21.945h81.365c.48-2.855.74-5.785.74-8.78 0-2.995-.265-5.92-.74-8.78-4.18-24.905-25.83-43.89-51.925-43.89v-.005Zm-29.44 43.89c3.785-12.675 15.55-21.945 29.44-21.945s25.65 9.27 29.44 21.945h-58.88ZM681.47 60.925c0-4.41 6.16-9.99 20.685-9.99 9.075 0 22.295 2.095 22.295 14.22h21.945c0-20.765-15.575-32.635-45.55-32.635-14.495 0-41.325 5.655-41.325 29.47 0 38 65.805 25.77 65.805 44.865 0 6.29-4.455 11.17-22.245 11.17-24.42 0-22.37-15.83-22.37-15.83h-23.99s-4.62 35.655 46.46 35.655c17.895 0 46.48-3.625 46.48-31.275 0-40.245-68.19-26.185-68.19-45.655v.005ZM319.86 32.515c-15.6 0-26.57 6.54-33.365 15.255V.145H264.55v136.06h21.945V83.98c0-18.215 9.23-29.52 26.17-29.52 13.74 0 22.11 10.16 22.11 23.52v58.225h21.945V70.45c0-23.64-20.04-37.935-36.86-37.935ZM451.525 47.775C444.73 39.055 433.63 32.52 419.8 32.52c-29.09 0-51.67 23.58-51.67 52.67 0 29.09 22.58 52.67 51.67 52.67 13.83 0 24.93-6.54 31.725-15.255v13.61h21.945V34.175h-21.945v13.61-.01Zm0 37.41c0 16.945-13.785 30.725-30.725 30.725s-30.725-13.78-30.725-30.725S403.855 54.46 420.8 54.46c16.94 0 30.72 13.78 30.725 30.72v.005ZM508.585 47.775v-13.61H486.64V136.21h21.945V85.17c.01-16.935 13.725-31.665 30.725-26.32V32.515c-13.83 0-23.93 6.54-30.725 15.255v.005ZM735.94 5.505h4.75c1.145 0 2.87.965 2.87 3 0 1.295-.71 2.235-1.535 2.745l1.92 3.635h-2.26l-1.64-3.175H738v3.175h-2.06v-9.38Zm3.965 4.675c.56 0 1.395-.56 1.395-1.675s-.865-1.475-1.345-1.475H738v3.15h1.905Z"/><path fill="#EDA820" d="M739.5 2.075c4.54 0 8.235 3.695 8.235 8.235 0 4.54-3.695 8.235-8.235 8.235-4.54 0-8.235-3.695-8.235-8.235 0-4.54 3.695-8.235 8.235-8.235Zm0-1.93c-5.61 0-10.16 4.55-10.16 10.16s4.55 10.16 10.16 10.16 10.16-4.55 10.16-10.16S745.11.145 739.5.145Z"/></g><defs><linearGradient id="c" x1="72.28" x2="-23.945" y1="125.23" y2="125.23" gradientUnits="userSpaceOnUse"><stop stop-color="#EDA820"/><stop offset="1" stop-color="#EDA820" stop-opacity="0"/></linearGradient><linearGradient id="d" x1="50.265" x2="146.235" y1="98.9" y2="98.9" gradientUnits="userSpaceOnUse"><stop stop-color="#EDA820"/><stop offset="1" stop-color="#EDA820" stop-opacity="0"/></linearGradient><radialGradient id="b" cx="0" cy="0" r="1" gradientTransform="translate(80.74 103.05) scale(80.125)" gradientUnits="userSpaceOnUse"><stop offset=".13" stop-color="#EDA820" stop-opacity="0"/><stop offset=".22" stop-color="#EDA820" stop-opacity=".11"/><stop offset=".76" stop-color="#EDA820" stop-opacity=".74"/><stop offset="1" stop-color="#EDA820"/></radialGradient><clipPath id="a"><path fill="#fff" d="M0 0h750v138H0z"/></clipPath></defs></svg>