<svg width="120" height="40" viewBox="0 0 120 40" fill="none" xmlns="http://www.w3.org/2000/svg">
<g clip-path="url(#clip0_582_13093)">
<mask id="mask0_582_13093" style="mask-type:luminance" maskUnits="userSpaceOnUse" x="0" y="9" width="120" height="22">
<path d="M120 9H0V31H120V9Z" fill="white" style="fill:white;fill-opacity:1;"/>
</mask>
<g mask="url(#mask0_582_13093)">
<path d="M16.9082 12.5214H20.4194V22.2891V30.7137H23.9306V12.5214V9.02295H16.9082V12.5214Z" fill="#EDA820" style="fill:#EDA820;fill:color(display-p3 0.9294 0.6588 0.1255);fill-opacity:1;"/>
<path d="M14.3043 19.0443C14.6283 18.2161 14.8099 17.317 14.8099 16.3748C14.8099 12.3152 11.5067 9.02393 7.43229 9.02393C3.35789 9.02393 0.0546875 12.3152 0.0546875 16.3748H3.56589C3.56589 14.2505 5.30029 12.5224 7.43229 12.5224C9.56429 12.5224 11.2987 14.2505 11.2987 16.3748C11.2987 17.36 10.9235 18.2576 10.3115 18.9391C10.8611 18.8618 11.4219 18.8195 11.9923 18.8195C12.7835 18.8195 13.5563 18.8984 14.3043 19.0443Z" fill="url(#paint0_radial_582_13093)" style=""/>
<path d="M14.8005 30.7138V27.2153H4.32765C3.82845 28.2994 3.56445 29.4863 3.56445 30.7138H14.8005Z" fill="url(#paint1_linear_582_13093)" style=""/>
<path d="M14.3043 19.0441C13.5563 18.8975 12.7835 18.8193 11.9923 18.8193C11.4211 18.8193 10.8603 18.8616 10.3115 18.9389C4.51469 19.7535 0.0546875 24.7139 0.0546875 30.7137H3.56589C3.56589 29.4861 3.82989 28.2993 4.32909 27.2152C4.74189 26.3193 5.31389 25.4943 6.03389 24.7769C7.62589 23.1906 9.74189 22.3178 11.9923 22.3178C14.2427 22.3178 16.3595 23.1914 17.9507 24.7769C19.5427 26.3631 20.4187 28.4714 20.4187 30.7137V22.2891C18.7787 20.6606 16.6659 19.5064 14.3043 19.0441Z" fill="url(#paint2_linear_582_13093)" style=""/>
<path d="M29.5926 18.7124C29.5926 18.0094 30.5782 17.1198 32.9022 17.1198C34.3542 17.1198 36.4694 17.4538 36.4694 19.3868H39.9806C39.9806 16.0764 37.4886 14.1841 32.6926 14.1841C30.3734 14.1841 26.0806 15.0856 26.0806 18.8822C26.0806 24.9402 36.6094 22.9905 36.6094 26.0346C36.6094 27.0373 35.8966 27.8153 33.0502 27.8153C29.143 27.8153 29.471 25.2917 29.471 25.2917H25.6326C25.6326 25.2917 24.8934 30.9758 33.0662 30.9758C35.9294 30.9758 40.503 30.3979 40.503 25.99C40.503 19.5741 29.5926 21.8155 29.5926 18.7116V18.7124Z" fill="#EDA820" style="fill:#EDA820;fill:color(display-p3 0.9294 0.6588 0.1255);fill-opacity:1;"/>
<path d="M95.4264 14.1836C91.2512 14.1836 87.7872 17.2102 87.1184 21.1806C87.0416 21.6357 87 22.1028 87 22.5803C87 23.0577 87.0424 23.524 87.1184 23.98C87.7872 27.9503 91.2512 30.9769 95.4264 30.9769C98.5456 30.9769 101.266 29.2879 102.723 26.7786L99.6816 25.029C98.8304 26.4924 97.2424 27.4792 95.4264 27.4792C93.204 27.4792 91.3224 26.0014 90.716 23.9808H103.734C103.811 23.5256 103.853 23.0585 103.853 22.5811C103.853 22.1036 103.81 21.6373 103.734 21.1813C103.066 17.211 99.6016 14.1844 95.4264 14.1844V14.1836ZM90.716 21.1806C91.3216 19.1599 93.204 17.6821 95.4264 17.6821C97.6488 17.6821 99.5304 19.1599 100.137 21.1806H90.716Z" fill="#EDA820" style="fill:#EDA820;fill:color(display-p3 0.9294 0.6588 0.1255);fill-opacity:1;"/>
<path d="M109.036 18.7124C109.036 18.0094 110.022 17.1198 112.346 17.1198C113.798 17.1198 115.913 17.4538 115.913 19.3868H119.424C119.424 16.0764 116.932 14.1841 112.136 14.1841C109.817 14.1841 105.524 15.0856 105.524 18.8822C105.524 24.9402 116.053 22.9905 116.053 26.0346C116.053 27.0373 115.34 27.8153 112.494 27.8153C108.586 27.8153 108.914 25.2917 108.914 25.2917H105.076C105.076 25.2917 104.337 30.9758 112.51 30.9758C115.373 30.9758 119.946 30.3979 119.946 25.99C119.946 19.5741 109.036 21.8155 109.036 18.7116V18.7124Z" fill="#EDA820" style="fill:#EDA820;fill:color(display-p3 0.9294 0.6588 0.1255);fill-opacity:1;"/>
<path d="M51.1777 14.1834C48.6817 14.1834 46.9265 15.226 45.8393 16.6153V9.02295H42.3281V30.7137H45.8393V22.3879C45.8393 19.4841 47.3161 17.6819 50.0265 17.6819C52.2249 17.6819 53.5641 19.3016 53.5641 21.4314V30.7137H57.0753V20.231C57.0753 16.4623 53.8689 14.1834 51.1777 14.1834Z" fill="#EDA820" style="fill:#EDA820;fill:color(display-p3 0.9294 0.6588 0.1255);fill-opacity:1;"/>
<path d="M72.2436 16.616C71.1564 15.2259 69.3804 14.1841 67.1676 14.1841C62.5132 14.1841 58.9004 17.9432 58.9004 22.5807C58.9004 27.2183 62.5132 30.9774 67.1676 30.9774C69.3804 30.9774 71.1564 29.9348 72.2436 28.5455V30.7152H75.7548V14.4479H72.2436V16.6176V16.616ZM72.2436 22.58C72.2436 25.2813 70.038 27.4781 67.3276 27.4781C64.6172 27.4781 62.4116 25.2813 62.4116 22.58C62.4116 19.8786 64.6164 17.6818 67.3276 17.6818C70.038 17.6818 72.2428 19.8786 72.2436 22.5792V22.58Z" fill="#EDA820" style="fill:#EDA820;fill:color(display-p3 0.9294 0.6588 0.1255);fill-opacity:1;"/>
<path d="M81.3745 16.6163V14.4466H77.8633V30.7147H81.3745V22.5779C81.3761 19.8781 83.5705 17.5298 86.2905 18.3819V14.1836C84.0777 14.1836 82.4617 15.2262 81.3745 16.6156V16.6163Z" fill="#EDA820" style="fill:#EDA820;fill:color(display-p3 0.9294 0.6588 0.1255);fill-opacity:1;"/>
<path d="M117.75 9.87744H118.51C118.693 9.87744 118.969 10.0313 118.969 10.3557C118.969 10.5622 118.856 10.712 118.724 10.7933L119.031 11.3728H118.669L118.407 10.8666H118.08V11.3728H117.75V9.87824V9.87744ZM118.384 10.6227C118.474 10.6227 118.608 10.5335 118.608 10.3557C118.608 10.1779 118.469 10.1206 118.392 10.1206H118.08V10.6227H118.384Z" fill="#EDA820" style="fill:#EDA820;fill:color(display-p3 0.9294 0.6588 0.1255);fill-opacity:1;"/>
<path d="M118.321 9.33063C119.047 9.33063 119.639 9.91969 119.639 10.6435C119.639 11.3672 119.047 11.9563 118.321 11.9563C117.595 11.9563 117.003 11.3672 117.003 10.6435C117.003 9.91969 117.595 9.33063 118.321 9.33063ZM118.321 9.02295C117.423 9.02295 116.695 9.74831 116.695 10.6427C116.695 11.537 117.423 12.2624 118.321 12.2624C119.219 12.2624 119.947 11.537 119.947 10.6427C119.947 9.74831 119.219 9.02295 118.321 9.02295Z" fill="#EDA820" style="fill:#EDA820;fill:color(display-p3 0.9294 0.6588 0.1255);fill-opacity:1;"/>
</g>
</g>
<defs>
<radialGradient id="paint0_radial_582_13093" cx="0" cy="0" r="1" gradientUnits="userSpaceOnUse" gradientTransform="translate(12.9187 25.4283) scale(12.82 12.7736)">
<stop offset="0.13" stop-color="#EDA820" stop-opacity="0" style="stop-color:none;stop-opacity:0;"/>
<stop offset="0.22" stop-color="#EDA820" stop-opacity="0.11" style="stop-color:#EDA820;stop-color:color(display-p3 0.9294 0.6588 0.1255);stop-opacity:0.11;"/>
<stop offset="0.76" stop-color="#EDA820" stop-opacity="0.74" style="stop-color:#EDA820;stop-color:color(display-p3 0.9294 0.6588 0.1255);stop-opacity:0.74;"/>
<stop offset="1" stop-color="#EDA820" style="stop-color:#EDA820;stop-color:color(display-p3 0.9294 0.6588 0.1255);stop-opacity:1;"/>
</radialGradient>
<linearGradient id="paint1_linear_582_13093" x1="11.5645" y1="28.9642" x2="-3.83155" y2="28.9642" gradientUnits="userSpaceOnUse">
<stop stop-color="#EDA820" style="stop-color:#EDA820;stop-color:color(display-p3 0.9294 0.6588 0.1255);stop-opacity:1;"/>
<stop offset="1" stop-color="#EDA820" stop-opacity="0" style="stop-color:none;stop-opacity:0;"/>
</linearGradient>
<linearGradient id="paint2_linear_582_13093" x1="8.04269" y1="24.7665" x2="23.3979" y2="24.7665" gradientUnits="userSpaceOnUse">
<stop stop-color="#EDA820" style="stop-color:#EDA820;stop-color:color(display-p3 0.9294 0.6588 0.1255);stop-opacity:1;"/>
<stop offset="1" stop-color="#EDA820" stop-opacity="0" style="stop-color:none;stop-opacity:0;"/>
</linearGradient>
<clipPath id="clip0_582_13093">
<rect width="120" height="22" fill="white" style="fill:white;fill-opacity:1;" transform="translate(0 9)"/>
</clipPath>
</defs>
</svg>
