<svg width="112" height="24" viewBox="0 0 112 24" fill="none" xmlns="http://www.w3.org/2000/svg">
<g clip-path="url(#clip0_4452_2875)">
<path d="M35.0762 12.7643V12.4851C35.0762 11.7835 34.8361 11.2465 34.3559 10.8743C33.8902 10.4877 33.279 10.2944 32.5222 10.2944C31.9402 10.2944 31.4818 10.3946 31.147 10.5951C30.8269 10.7812 30.5213 11.0676 30.2302 11.4542C30.1429 11.5687 30.0483 11.6475 29.9464 11.6904C29.8446 11.7334 29.7063 11.7549 29.5317 11.7549H28.8768C28.7168 11.7549 28.5712 11.6976 28.4402 11.583C28.3238 11.4685 28.2729 11.3325 28.2874 11.1749C28.3311 10.7454 28.5421 10.323 28.9205 9.90779C29.3134 9.47823 29.83 9.12743 30.4704 8.85535C31.1106 8.58331 31.7946 8.44727 32.5222 8.44727C33.8756 8.44727 34.9671 8.81955 35.7966 9.56411C36.6406 10.3087 37.0627 11.3539 37.0627 12.6999V19.2506C37.0627 19.4081 37.0044 19.5441 36.888 19.6587C36.7716 19.7732 36.6334 19.8305 36.4733 19.8305H35.6656C35.5056 19.8305 35.3673 19.7732 35.2509 19.6587C35.1344 19.5441 35.0762 19.4081 35.0762 19.2506V18.37C34.8434 18.8855 34.3486 19.2936 33.5919 19.5943C32.8351 19.8949 32.0784 20.0453 31.3217 20.0453C30.5795 20.0453 29.9174 19.9164 29.3352 19.6587C28.7531 19.3866 28.302 19.0215 27.9818 18.5633C27.6762 18.1051 27.5234 17.5897 27.5234 17.0169C27.5234 15.943 27.9309 15.1054 28.7458 14.504C29.5608 13.8883 30.645 13.4731 31.9984 13.2583L35.0762 12.7643ZM35.0762 14.4825L32.5004 14.8906C31.5545 15.0338 30.8196 15.2701 30.2957 15.5994C29.7718 15.9144 29.5099 16.3153 29.5099 16.8021C29.5099 17.1601 29.6772 17.4823 30.0119 17.7686C30.3466 18.055 30.856 18.1982 31.54 18.1982C32.5878 18.1982 33.4391 17.9047 34.0939 17.3176C34.7488 16.7305 35.0762 15.9645 35.0762 15.0195V14.4825Z" fill="white" style="fill:white;fill-opacity:1;"/>
<path d="M42.2344 19.2504C42.2344 19.4079 42.176 19.5439 42.0596 19.6585C41.9432 19.773 41.8052 19.8303 41.6448 19.8303H40.8372C40.6772 19.8303 40.5388 19.773 40.4224 19.6585C40.306 19.5439 40.248 19.4079 40.248 19.2504V5.16097C40.248 5.00345 40.306 4.86745 40.4224 4.75289C40.5388 4.63833 40.6772 4.58105 40.8372 4.58105H41.6448C41.8052 4.58105 41.9432 4.63833 42.0596 4.75289C42.176 4.86745 42.2344 5.00345 42.2344 5.16097V19.2504Z" fill="white" style="fill:white;fill-opacity:1;"/>
<path d="M50.0964 18.1982C51.5516 18.1982 52.534 17.6398 53.0436 16.5229C53.1452 16.3081 53.2472 16.1578 53.3492 16.0719C53.4508 15.986 53.5892 15.943 53.7636 15.943H54.4188C54.5788 15.943 54.7168 16.0003 54.8332 16.1149C54.95 16.2151 55.008 16.3368 55.008 16.48C55.008 16.9668 54.8116 17.4894 54.4188 18.0479C54.0256 18.6063 53.458 19.0788 52.716 19.4654C51.974 19.852 51.1008 20.0453 50.0964 20.0453C49.0632 20.0453 48.1684 19.8305 47.4116 19.4009C46.6548 18.9714 46.0728 18.3843 45.6652 17.6398C45.2576 16.8809 45.0324 16.0361 44.9884 15.1054C44.974 14.9336 44.9668 14.6043 44.9668 14.1174C44.9668 13.7738 44.974 13.5303 44.9884 13.3872C45.1196 11.9267 45.6216 10.7382 46.4948 9.82187C47.368 8.90547 48.5684 8.44727 50.0964 8.44727C51.1008 8.44727 51.9664 8.64059 52.694 9.02719C53.4364 9.39947 53.9968 9.86483 54.3748 10.4232C54.768 10.9673 54.9788 11.4828 55.008 11.9696C55.0224 12.1271 54.9644 12.2632 54.8332 12.3777C54.7168 12.4923 54.5788 12.5495 54.4188 12.5495H53.7636C53.5892 12.5495 53.4508 12.5066 53.3492 12.4207C53.2472 12.3347 53.1452 12.1844 53.0436 11.9696C52.534 10.8528 51.5516 10.2944 50.0964 10.2944C49.296 10.2944 48.5976 10.5593 48.0008 11.0891C47.4044 11.6188 47.0624 12.4207 46.9748 13.4945C46.9604 13.6521 46.9532 13.9098 46.9532 14.2677C46.9532 14.5971 46.9604 14.8405 46.9748 14.998C47.0768 16.0719 47.4188 16.8737 48.0008 17.4035C48.5976 17.9333 49.296 18.1982 50.0964 18.1982Z" fill="white" style="fill:white;fill-opacity:1;"/>
<path d="M67.7059 19.2504C67.7059 19.4079 67.6479 19.5439 67.5311 19.6585C67.4147 19.773 67.2767 19.8303 67.1167 19.8303H66.3087C66.1487 19.8303 66.0107 19.773 65.8943 19.6585C65.7775 19.5439 65.7195 19.4079 65.7195 19.2504V13.5803C65.7195 12.5064 65.4503 11.6902 64.9119 11.1318C64.3735 10.5734 63.6239 10.2942 62.6635 10.2942C61.7175 10.2942 60.9679 10.5734 60.4151 11.1318C59.8767 11.6902 59.6075 12.5064 59.6075 13.5803V19.2504C59.6075 19.4079 59.5491 19.5439 59.4327 19.6585C59.3163 19.773 59.1779 19.8303 59.0179 19.8303H58.2103C58.0503 19.8303 57.9119 19.773 57.7955 19.6585C57.6791 19.5439 57.6211 19.4079 57.6211 19.2504V5.16097C57.6211 5.00345 57.6791 4.86745 57.7955 4.75289C57.9119 4.63833 58.0503 4.58105 58.2103 4.58105H59.0179C59.1779 4.58105 59.3163 4.63833 59.4327 4.75289C59.5491 4.86745 59.6075 5.00345 59.6075 5.16097V9.90757C59.9275 9.49233 60.3643 9.14869 60.9171 8.87661C61.4847 8.59025 62.1759 8.44705 62.9907 8.44705C63.9075 8.44705 64.7227 8.64037 65.4359 9.02697C66.1487 9.41357 66.7019 9.97197 67.0947 10.7023C67.5023 11.4182 67.7059 12.2701 67.7059 13.2581V19.2504Z" fill="white" style="fill:white;fill-opacity:1;"/>
<path d="M75.3549 8.44727C76.9121 8.44727 78.1417 8.93411 79.0441 9.90779C79.9465 10.8814 80.3977 12.2059 80.3977 13.8811V14.4611C80.3977 14.6186 80.3393 14.7546 80.2229 14.8691C80.1065 14.9837 79.9681 15.0409 79.8081 15.0409H72.2989V15.1698C72.3281 16.1149 72.6193 16.8594 73.1721 17.4035C73.7397 17.9333 74.4673 18.1982 75.3549 18.1982C76.0825 18.1982 76.6429 18.1051 77.0357 17.919C77.4433 17.7328 77.8073 17.4679 78.1273 17.1243C78.2437 17.0097 78.3457 16.931 78.4329 16.8881C78.5349 16.8451 78.6657 16.8236 78.8257 16.8236H79.4809C79.6553 16.8236 79.8009 16.8809 79.9173 16.9954C80.0337 17.11 80.0845 17.246 80.0701 17.4035C80.0117 17.7901 79.7937 18.191 79.4153 18.6063C79.0513 19.0072 78.5201 19.3508 77.8217 19.6372C77.1377 19.9093 76.3157 20.0453 75.3549 20.0453C74.4237 20.0453 73.5941 19.8377 72.8665 19.4224C72.1389 18.9929 71.5569 18.4058 71.1201 17.6613C70.6981 16.9167 70.4437 16.0791 70.3561 15.1483C70.3273 14.7188 70.3125 14.3895 70.3125 14.1604C70.3125 13.9313 70.3273 13.6019 70.3561 13.1724C70.4437 12.2846 70.6981 11.4828 71.1201 10.7669C71.5569 10.0509 72.1317 9.48539 72.8449 9.07015C73.5725 8.65491 74.4093 8.44727 75.3549 8.44727ZM78.4329 13.2368V13.1724C78.4329 12.2989 78.1493 11.6045 77.5817 11.0891C77.0285 10.5593 76.2865 10.2944 75.3549 10.2944C74.5109 10.2944 73.7905 10.5593 73.1941 11.0891C72.6117 11.6188 72.3137 12.3133 72.2989 13.1724V13.2368H78.4329Z" fill="white" style="fill:white;fill-opacity:1;"/>
<path d="M85.0177 9.90779C85.3669 9.46391 85.76 9.11311 86.1964 8.85535C86.6332 8.58331 87.2152 8.44727 87.9428 8.44727C89.6456 8.44727 90.8389 9.07015 91.5229 10.3159C91.9449 9.71447 92.4248 9.25627 92.9636 8.94127C93.502 8.61195 94.2076 8.44727 95.0808 8.44727C96.5068 8.44727 97.562 8.86967 98.246 9.71447C98.9445 10.5593 99.294 11.7549 99.294 13.3013V19.2506C99.294 19.4081 99.2356 19.5441 99.1192 19.6587C99.0028 19.7732 98.8644 19.8305 98.7044 19.8305H97.8968C97.7368 19.8305 97.5984 19.7732 97.482 19.6587C97.3656 19.5441 97.3073 19.4081 97.3073 19.2506V13.516C97.3073 11.3683 96.4488 10.2944 94.7316 10.2944C93.9456 10.2944 93.32 10.5521 92.8544 11.0676C92.3884 11.583 92.1557 12.3491 92.1557 13.3657V19.2506C92.1557 19.4081 92.0976 19.5441 91.9812 19.6587C91.8648 19.7732 91.7264 19.8305 91.5664 19.8305H90.7588C90.5988 19.8305 90.4604 19.7732 90.344 19.6587C90.2276 19.5441 90.1693 19.4081 90.1693 19.2506V13.516C90.1693 11.3683 89.3108 10.2944 87.5936 10.2944C86.8076 10.2944 86.182 10.5521 85.7164 11.0676C85.2504 11.583 85.0177 12.3491 85.0177 13.3657V19.2506C85.0177 19.4081 84.9596 19.5441 84.8432 19.6587C84.7268 19.7732 84.5884 19.8305 84.4284 19.8305H83.6208C83.4604 19.8305 83.3224 19.7732 83.206 19.6587C83.0896 19.5441 83.0312 19.4081 83.0312 19.2506V9.24195C83.0312 9.08447 83.0896 8.94843 83.206 8.83387C83.3224 8.71935 83.4604 8.66207 83.6208 8.66207H84.4284C84.5884 8.66207 84.7268 8.71935 84.8432 8.83387C84.9596 8.94843 85.0177 9.08447 85.0177 9.24195V9.90779Z" fill="white" style="fill:white;fill-opacity:1;"/>
<path d="M105.408 23.3959C105.277 23.7395 105.066 23.9113 104.775 23.9113H103.88C103.734 23.9113 103.61 23.8612 103.509 23.761C103.407 23.6607 103.356 23.5391 103.356 23.3959C103.356 23.3386 103.363 23.2885 103.377 23.2455L105.473 18.7567L101.151 9.32791C101.137 9.28495 101.129 9.23483 101.129 9.17755C101.129 9.03439 101.18 8.91267 101.282 8.81243C101.384 8.71223 101.507 8.66211 101.653 8.66211H102.548C102.839 8.66211 103.05 8.83391 103.181 9.17755L106.542 16.48L109.948 9.17755C110.079 8.83391 110.29 8.66211 110.581 8.66211H111.476C111.622 8.66211 111.745 8.71223 111.847 8.81243C111.949 8.91267 112 9.03439 112 9.17755C112 9.23483 111.993 9.28495 111.978 9.32791L105.408 23.3959Z" fill="white" style="fill:white;fill-opacity:1;"/>
<path d="M19.2696 12.725L11.9399 0.292355C11.9044 0.230965 11.853 0.179826 11.7909 0.144101C11.7288 0.108375 11.6581 0.0893262 11.5861 0.0888754C11.514 0.0884246 11.4432 0.106588 11.3806 0.141533C11.318 0.176478 11.266 0.226969 11.2297 0.287911L9.03452 4.01328C8.96264 4.1352 8.9248 4.27356 8.9248 4.41436C8.9248 4.55516 8.96264 4.69352 9.03452 4.81544L13.814 12.9262C13.8859 13.0482 13.9895 13.1496 14.1142 13.22C14.2388 13.2904 14.3802 13.3274 14.5242 13.3272H18.9145C18.9864 13.327 19.057 13.3084 19.1192 13.2731C19.1813 13.2378 19.233 13.1871 19.2689 13.1262C19.3049 13.0652 19.3238 12.9961 19.324 12.9257C19.3241 12.8553 19.3053 12.7861 19.2696 12.725Z" fill="#363FF9" style="fill:#363FF9;fill:color(display-p3 0.2118 0.2471 0.9765);fill-opacity:1;"/>
<path d="M0.05652 19.2228L7.38624 6.79016C7.4222 6.72924 7.47392 6.67868 7.53616 6.64352C7.59836 6.60836 7.66892 6.58984 7.74076 6.58984C7.8126 6.58984 7.8832 6.60836 7.9454 6.64352C8.00764 6.67868 8.05932 6.72924 8.09528 6.79016L10.2916 10.5122C10.3635 10.6343 10.4013 10.7728 10.4013 10.9138C10.4013 11.0548 10.3635 11.1933 10.2916 11.3155L5.51212 19.4262C5.44044 19.5482 5.33712 19.6496 5.21264 19.72C5.08816 19.7904 4.94688 19.8274 4.80308 19.8272H0.411604C0.339263 19.8276 0.268119 19.8092 0.205404 19.7739C0.142688 19.7386 0.0906456 19.6876 0.0545672 19.6262C0.0184887 19.5648 -0.000339651 19.4951 4.63828e-06 19.4243C0.000348928 19.3534 0.0198462 19.2839 0.05652 19.2228Z" fill="#363FF9" style="fill:#363FF9;fill:color(display-p3 0.2118 0.2471 0.9765);fill-opacity:1;"/>
<path d="M8.09467 19.8247H22.7541C22.826 19.8246 22.8967 19.806 22.9589 19.7708C23.0211 19.7355 23.0728 19.6848 23.1087 19.6237C23.1445 19.5627 23.1634 19.4935 23.1633 19.423C23.1632 19.3526 23.1441 19.2834 23.1081 19.2225L20.9152 15.4983C20.8432 15.3762 20.7397 15.2748 20.615 15.2044C20.4903 15.134 20.3489 15.097 20.205 15.0972H10.6461C10.5021 15.097 10.3607 15.134 10.2361 15.2044C10.1114 15.2748 10.0079 15.3762 9.93591 15.4983L7.74075 19.2225C7.70467 19.2834 7.68563 19.3526 7.68555 19.423C7.68543 19.4935 7.70423 19.5627 7.74011 19.6237C7.77599 19.6848 7.82767 19.7355 7.88991 19.7708C7.95215 19.806 8.02275 19.8246 8.09467 19.8247Z" fill="#363FF9" style="fill:#363FF9;fill:color(display-p3 0.2118 0.2471 0.9765);fill-opacity:1;"/>
</g>
<defs>
<clipPath id="clip0_4452_2875">
<rect width="112" height="24" fill="white" style="fill:white;fill-opacity:1;"/>
</clipPath>
</defs>
</svg>
