<svg width="1000" height="176" viewBox="0 0 1000 176" fill="none" xmlns="http://www.w3.org/2000/svg">
<path d="M515.504 59.0771H536.841V77.707H515.504V141.61C515.504 153.199 520.703 156.665 530.559 156.665C533.05 156.665 535.108 156.449 536.841 156.232V174.32C534.133 174.754 529.692 175.295 524.927 175.295C502.398 175.295 491.568 165.763 491.567 143.019V77.707H475.212V59.0771H491.567V29.4004H515.504V59.0771Z" fill="white"/>
<path d="M626.423 59.0771H647.76V77.707H626.423V141.61C626.423 153.199 631.622 156.665 641.478 156.665C643.969 156.665 646.027 156.449 647.76 156.232V174.32C645.052 174.754 640.611 175.295 635.846 175.295C613.317 175.295 602.487 165.763 602.486 143.019V77.707H586.131V59.0771H602.486V29.4004H626.423V59.0771Z" fill="white"/>
<path d="M685.564 128.396C685.565 145.618 693.58 155.148 709.826 155.148C726.289 155.148 736.904 143.343 736.904 125.58V59.0771H760.407V173.021H736.904V155.907H736.362C730.405 167.388 718.816 175.295 701.486 175.295C676.467 175.295 662.17 159.156 662.17 132.945V59.0771H685.564V128.396Z" fill="white"/>
<path fill-rule="evenodd" clip-rule="evenodd" d="M881.396 173.021H857.892V153.741H857.458C850.634 167.063 838.071 175.295 821.716 175.295C792.689 175.295 774.06 152.333 774.06 116.049V115.94C774.06 79.6564 792.905 56.9113 821.499 56.9111C837.637 56.9111 850.634 65.0344 857.458 78.4648H857.892V16.7275H881.396V173.021ZM827.89 76.9482C809.477 76.9482 797.996 91.8954 797.996 115.94V116.049C797.996 140.31 809.369 155.148 827.89 155.148C845.544 155.148 858 139.769 858 116.049V115.94C858 92.3287 845.436 76.9483 827.89 76.9482Z" fill="white"/>
<path fill-rule="evenodd" clip-rule="evenodd" d="M948.444 56.9111C980.396 56.9113 1000 79.8727 1000 114.099V122.006H919.309C919.742 143.56 931.547 156.124 950.177 156.124C964.04 156.124 973.247 148.975 976.172 140.419L976.496 139.552H998.7L998.483 140.743C994.801 158.831 977.255 175.295 949.636 175.295C916.168 175.295 895.913 152.441 895.913 116.481V116.374C895.913 80.7397 916.493 56.9111 948.444 56.9111ZM948.553 76.082C933.389 76.082 921.691 86.3718 919.633 105.435H976.821C974.872 85.7222 963.824 76.0822 948.553 76.082Z" fill="white"/>
<path d="M199.639 173.021H146.401L79.8555 15.7266L18.9375 159.711H67.5391L73.2012 173.021H0L73.2012 0H126.438L199.639 173.021Z" fill="white"/>
<path fill-rule="evenodd" clip-rule="evenodd" d="M431.013 173.021H405.56L391.263 130.779H331.041L316.636 173.021H291.183L348.046 16.7275H374.258L431.013 173.021ZM337.54 111.283H384.655L361.368 42.6143H360.936L337.54 111.283Z" fill="white"/>
<path d="M465.352 173.021H441.956V16.7275H465.352V173.021Z" fill="white"/>
<path d="M576.162 173.021H552.767V59.0771H576.162V173.021Z" fill="white"/>
<path d="M564.465 14.5615C572.155 14.5617 578.111 20.6272 578.111 28.1006C578.111 35.4654 572.155 41.5301 564.465 41.5303C556.883 41.5303 550.818 35.4655 550.817 28.1006C550.817 20.6271 556.883 14.5615 564.465 14.5615Z" fill="white"/>
</svg>
