<svg width="162" height="40" viewBox="0 0 162 40" fill="none" xmlns="http://www.w3.org/2000/svg">
<g clip-path="url(#clip0_582_13010)">
<path d="M33.6912 7.7402L24.7266 2L15.7637 7.7402L24.7266 13.4821L33.6912 7.7402Z" fill="white" style="fill:white;fill-opacity:1;"/>
<path d="M15.7637 32.2578L24.7266 37.9997L33.6912 32.2578L24.7266 26.5176L15.7637 32.2578Z" fill="white" style="fill:white;fill-opacity:1;"/>
<path d="M11.9646 18.3457L3 24.0859L11.9646 29.8261L20.9275 24.0859L11.9646 18.3457Z" fill="white" style="fill:white;fill-opacity:1;"/>
<path d="M37.4902 18.3457L28.5273 24.0859L37.4902 29.8261L46.4548 24.0859L37.4902 18.3457Z" fill="white" style="fill:white;fill-opacity:1;"/>
<path d="M64.0325 10.611C62.6107 10.611 61.4971 10.9073 60.6917 11.4999C59.8862 12.0925 59.4844 12.9132 59.4844 13.9621C59.4844 14.3861 59.5627 14.7829 59.7177 15.1507C59.8743 15.5185 60.1008 15.8369 60.4005 16.1059C60.7002 16.375 61.0714 16.5827 61.5141 16.7326C61.9568 16.8824 62.4711 16.9573 63.0585 16.9573C63.9065 16.9573 64.6813 16.7768 65.3794 16.4142C66.0776 16.0532 66.6276 15.5713 67.026 14.9736V16.7513H68.9723V10.4987C68.9723 9.88735 68.8719 9.33224 68.6726 8.83333C68.4734 8.33441 68.1788 7.90701 67.7923 7.55112C67.4058 7.19524 66.9273 6.92109 66.3602 6.72697C65.7915 6.53286 65.1462 6.4375 64.4225 6.4375C63.3361 6.4375 62.403 6.65546 61.6248 7.09307C60.8449 7.53069 60.2047 8.07899 59.7057 8.73967L61.5022 9.78859C61.79 9.28967 62.1765 8.89292 62.6635 8.60004C63.1505 8.30716 63.7311 8.16072 64.4037 8.16072C65.3028 8.16072 65.9635 8.37357 66.3875 8.79757C66.8115 9.22156 67.0243 9.77156 67.0243 10.4442V10.6127H64.0291L64.0325 10.611ZM67.0277 13.0631C66.866 13.4002 66.6565 13.6999 66.4011 13.9621C66.1457 14.2244 65.8613 14.4457 65.5497 14.6262C65.2381 14.8067 64.9078 14.948 64.557 15.0468C64.2079 15.1473 63.852 15.1967 63.4893 15.1967C62.815 15.1967 62.3229 15.0724 62.0113 14.822C61.6997 14.5734 61.5431 14.2295 61.5431 13.7919C61.5431 13.2929 61.7457 12.9064 62.1509 12.6306C62.5562 12.3564 63.2271 12.2185 64.1636 12.2185H67.0277V13.0614V13.0631Z" fill="white" style="fill:white;fill-opacity:1;"/>
<path d="M77.9207 8.98147C78.3566 9.49401 78.5762 10.1802 78.5762 11.0401V16.7496H80.6162V10.892C80.6162 10.2058 80.5191 9.58426 80.3267 9.02915C80.1326 8.47404 79.8584 8.00577 79.5026 7.62605C79.1467 7.24633 78.7091 6.95174 78.1914 6.74571C77.6738 6.53967 77.0965 6.4375 76.4597 6.4375C75.7479 6.4375 75.1213 6.58394 74.5781 6.87682C74.0349 7.1697 73.5888 7.55964 73.2397 8.04664V6.47326L71.2559 7.32465V16.7513H73.2771V11.173C73.2771 10.7234 73.3453 10.3147 73.4832 9.94695C73.6211 9.57915 73.8101 9.26754 74.0536 9.01042C74.2971 8.755 74.5832 8.55747 74.9152 8.42125C75.2456 8.28332 75.6049 8.21521 75.9914 8.21521C76.8394 8.21521 77.483 8.47063 77.919 8.98317L77.9207 8.98147Z" fill="white" style="fill:white;fill-opacity:1;"/>
<path d="M90.818 13.0066C90.5676 13.5941 90.1913 14.0828 89.6856 14.4761C89.1799 14.8695 88.5652 15.0653 87.8415 15.0653C87.3664 15.0653 86.9271 14.9784 86.5218 14.8031C86.1166 14.6277 85.7641 14.3876 85.4644 14.0828C85.1647 13.7763 84.9314 13.4187 84.7628 13.0066C84.5943 12.5945 84.5108 12.1586 84.5108 11.6955C84.5108 11.2323 84.5943 10.7964 84.7628 10.386C84.9314 9.97395 85.163 9.61636 85.4559 9.30986C85.7488 9.00506 86.0944 8.76496 86.4946 8.58958C86.8947 8.41419 87.3307 8.32735 87.8057 8.32735C88.492 8.32735 89.0947 8.50273 89.6124 8.85181C90.13 9.20088 90.52 9.68788 90.7822 10.3111L92.5974 9.52441C92.4101 9.07487 92.1581 8.66109 91.8396 8.27967C91.5212 7.89995 91.1568 7.57131 90.7447 7.29716C90.3327 7.02301 89.8797 6.81016 89.3876 6.66032C88.8938 6.51047 88.3677 6.43555 87.8057 6.43555C87.0684 6.43555 86.3805 6.57007 85.7368 6.83741C85.0949 7.10645 84.5364 7.47765 84.0613 7.95103C83.5862 8.42611 83.2133 8.98122 82.9375 9.61636C82.6633 10.2532 82.5254 10.9462 82.5254 11.6938C82.5254 12.4413 82.6599 13.1156 82.9272 13.7524C83.1963 14.3893 83.5675 14.9444 84.0409 15.4178C84.5142 15.8928 85.0762 16.2658 85.7249 16.5416C86.3737 16.8158 87.0718 16.9537 87.8211 16.9537C88.9943 16.9537 89.9921 16.6574 90.8163 16.0648C91.6404 15.4723 92.2517 14.7077 92.6502 13.7712L90.8163 13.0032L90.818 13.0066Z" fill="white" style="fill:white;fill-opacity:1;"/>
<path d="M101.103 8.98144C101.534 9.49398 101.749 10.1802 101.749 11.0401V16.7496H103.807V10.892C103.807 10.2057 103.71 9.58423 103.518 9.02912C103.323 8.47401 103.049 8.00574 102.694 7.62602C102.338 7.2463 101.9 6.95172 101.383 6.74568C100.865 6.53964 100.288 6.43747 99.651 6.43747C98.9648 6.43747 98.3501 6.5771 97.8069 6.85806C97.2637 7.13902 96.8124 7.51704 96.4497 7.99042V2L94.4473 2.85821V16.7496H96.4685V11.1729C96.4685 10.7234 96.5366 10.3147 96.6745 9.94693C96.8124 9.57912 97.0015 9.26751 97.2449 9.01039C97.4884 8.75497 97.7745 8.55745 98.1066 8.42122C98.4369 8.2833 98.7894 8.21519 99.164 8.21519C100.026 8.21519 100.671 8.47061 101.102 8.98315L101.103 8.98144Z" fill="white" style="fill:white;fill-opacity:1;"/>
<path d="M114.702 7.97146C114.227 7.49809 113.671 7.12347 113.027 6.84762C112.383 6.57347 111.7 6.43555 110.977 6.43555C110.253 6.43555 109.555 6.57347 108.918 6.84762C108.281 7.12177 107.726 7.49638 107.253 7.97146C106.778 8.44654 106.405 9.00335 106.129 9.64701C105.855 10.2907 105.717 10.9735 105.717 11.6972C105.717 12.4209 105.855 13.119 106.129 13.7558C106.403 14.3927 106.778 14.9478 107.253 15.4212C107.726 15.8962 108.283 16.2692 108.918 16.545C109.555 16.8192 110.241 16.9571 110.977 16.9571C111.712 16.9571 112.383 16.8192 113.027 16.545C113.669 16.2709 114.227 15.8962 114.702 15.4212C115.176 14.9478 115.55 14.391 115.826 13.7558C116.1 13.119 116.238 12.4328 116.238 11.6972C116.238 10.9616 116.1 10.2907 115.826 9.64701C115.552 9.00506 115.177 8.44654 114.702 7.97146ZM113.982 13.0168C113.814 13.4221 113.582 13.778 113.289 14.0845C112.996 14.391 112.652 14.6311 112.259 14.8048C111.866 14.9801 111.438 15.067 110.977 15.067C110.515 15.067 110.088 14.9801 109.695 14.8048C109.301 14.6294 108.957 14.3893 108.664 14.0845C108.371 13.778 108.143 13.4238 107.982 13.0168C107.82 12.6116 107.738 12.1722 107.738 11.6972C107.738 11.2221 107.82 10.7981 107.982 10.3877C108.143 9.97565 108.371 9.61806 108.664 9.31156C108.957 9.00676 109.301 8.76667 109.695 8.59128C110.088 8.41589 110.515 8.32905 110.977 8.32905C111.438 8.32905 111.85 8.41589 112.249 8.59128C112.649 8.76667 112.995 9.00676 113.287 9.31156C113.58 9.61806 113.812 9.97565 113.98 10.3877C114.149 10.7998 114.232 11.2357 114.232 11.6972C114.232 12.1586 114.149 12.6116 113.98 13.0168H113.982Z" fill="white" style="fill:white;fill-opacity:1;"/>
<path d="M122.901 6.49309C122.252 6.49309 121.684 6.65145 121.198 6.96987C120.711 7.28829 120.362 7.76507 120.15 8.40192V6.47266L118.166 7.32405V16.7507H120.187V11.0617C120.187 10.1507 120.4 9.50192 120.824 9.11539C121.248 8.72885 121.822 8.53474 122.545 8.53474C123.094 8.53474 123.519 8.6352 123.817 8.83443L124.604 6.88814C124.405 6.76383 124.158 6.66677 123.865 6.59866C123.572 6.53055 123.25 6.4965 122.901 6.4965V6.49309Z" fill="white" style="fill:white;fill-opacity:1;"/>
<path d="M133.643 7.54917C133.256 7.19329 132.778 6.91914 132.211 6.72502C131.642 6.5309 130.997 6.43555 130.273 6.43555C129.187 6.43555 128.254 6.6535 127.475 7.09112C126.695 7.52874 126.055 8.07704 125.556 8.73772L127.353 9.78664C127.639 9.28772 128.027 8.89097 128.512 8.59809C128.999 8.30521 129.58 8.15877 130.253 8.15877C131.152 8.15877 131.812 8.37162 132.236 8.79561C132.66 9.21961 132.873 9.76961 132.873 10.4422V10.6108H129.878C128.456 10.6108 127.341 10.9071 126.537 11.4996C125.732 12.0922 125.33 12.913 125.33 13.9619C125.33 14.3859 125.408 14.7826 125.563 15.1504C125.72 15.5182 125.946 15.8366 126.246 16.1057C126.546 16.3747 126.917 16.5825 127.36 16.7323C127.802 16.8822 128.317 16.9571 128.904 16.9571C129.752 16.9571 130.527 16.7766 131.225 16.4139C131.923 16.0529 132.473 15.571 132.872 14.9733V16.751H134.818V10.4984C134.818 9.8871 134.717 9.33199 134.518 8.83307C134.319 8.33416 134.024 7.90676 133.638 7.55087L133.643 7.54917ZM132.875 13.0611C132.713 13.3983 132.504 13.6979 132.248 13.9602C131.993 14.2224 131.708 14.4438 131.397 14.6243C131.085 14.8048 130.753 14.9461 130.404 15.0449C130.055 15.1453 129.699 15.1947 129.337 15.1947C128.662 15.1947 128.17 15.0704 127.858 14.8201C127.547 14.5715 127.39 14.2275 127.39 13.7899C127.39 13.291 127.593 12.9044 127.998 12.6286C128.403 12.3544 129.074 12.2165 130.011 12.2165H132.875V13.0594V13.0611Z" fill="white" style="fill:white;fill-opacity:1;"/>
<path d="M145.268 8.10283C144.881 7.57837 144.379 7.1697 143.761 6.87682C143.143 6.58394 142.497 6.4375 141.823 6.4375C141.149 6.4375 140.503 6.5618 139.885 6.81211C139.267 7.06242 138.724 7.41831 138.257 7.87976C137.789 8.34122 137.418 8.89463 137.144 9.53658C136.87 10.1802 136.732 10.9005 136.732 11.6991C136.732 12.4977 136.871 13.2027 137.152 13.8515C137.433 14.5002 137.808 15.0553 138.276 15.5168C138.744 15.9782 139.284 16.3341 139.895 16.5844C140.507 16.8347 141.144 16.9591 141.804 16.9591C142.465 16.9591 143.146 16.8058 143.769 16.501C144.393 16.1945 144.898 15.7739 145.285 15.2375V16.0242C145.285 16.4857 145.206 16.9063 145.052 17.2877C144.895 17.6674 144.677 17.9961 144.396 18.2702C144.115 18.5444 143.778 18.7572 143.384 18.907C142.991 19.0569 142.552 19.1318 142.065 19.1318C141.241 19.1318 140.573 19.0041 140.062 18.7487C139.55 18.4933 139.095 18.0897 138.697 17.5414L137.069 18.8713C137.617 19.5575 138.288 20.082 139.082 20.443C139.873 20.804 140.881 20.9862 142.104 20.9862C142.828 20.9862 143.504 20.8653 144.135 20.6218C144.765 20.3783 145.315 20.0343 145.782 19.5916C146.25 19.1488 146.618 18.6176 146.887 18.0012C147.156 17.383 147.289 16.7002 147.289 15.951V6.64184H145.268V8.10113V8.10283ZM145.128 13.0171C144.96 13.436 144.728 13.797 144.435 14.1035C144.142 14.41 143.793 14.6535 143.386 14.834C142.981 15.0145 142.54 15.1047 142.067 15.1047C141.593 15.1047 141.152 15.0179 140.747 14.8425C140.342 14.6671 139.989 14.4253 139.689 14.112C139.39 13.8004 139.156 13.436 138.988 13.0171C138.819 12.5999 138.736 12.1538 138.736 11.6787C138.736 11.2036 138.819 10.7592 138.988 10.3403C139.156 9.92312 139.39 9.56042 139.689 9.25392C139.989 8.94912 140.342 8.70902 140.747 8.53364C141.152 8.35825 141.591 8.27141 142.067 8.27141C142.542 8.27141 142.981 8.36165 143.386 8.54215C143.791 8.72265 144.141 8.96615 144.435 9.27265C144.728 9.57915 144.96 9.94014 145.128 10.359C145.297 10.7779 145.38 11.2172 145.38 11.6787C145.38 12.1402 145.297 12.5999 145.128 13.0171Z" fill="white" style="fill:white;fill-opacity:1;"/>
<path d="M159.68 11.6018C159.68 10.8526 159.549 10.1629 159.287 9.53292C159.025 8.90289 158.662 8.35629 158.201 7.89484C157.739 7.43338 157.193 7.07409 156.563 6.81867C155.933 6.56326 155.243 6.43555 154.494 6.43555C153.745 6.43555 153.052 6.57347 152.416 6.84762C151.78 7.12177 151.224 7.49638 150.751 7.97146C150.276 8.44654 149.905 9.00335 149.637 9.64701C149.368 10.2907 149.236 10.9854 149.236 11.7346C149.236 12.4839 149.363 13.1565 149.619 13.7933C149.874 14.4301 150.239 14.9818 150.714 15.4501C151.187 15.9184 151.752 16.2862 152.408 16.5552C153.063 16.8226 153.796 16.9571 154.608 16.9571C155.706 16.9571 156.629 16.7357 157.378 16.293C158.128 15.8503 158.744 15.2611 159.231 14.5238L157.566 13.5311C157.266 14.0181 156.876 14.4114 156.396 14.7094C155.916 15.0091 155.32 15.1589 154.608 15.1589C153.671 15.1589 152.905 14.912 152.306 14.4199C151.706 13.9278 151.332 13.2688 151.182 12.4447H159.68V11.6018ZM151.257 10.7215C151.456 9.98586 151.843 9.38308 152.418 8.91481C152.992 8.44654 153.685 8.21326 154.495 8.21326C155.306 8.21326 156.026 8.43122 156.583 8.86883C157.138 9.30645 157.491 9.92286 157.641 10.7215H151.258H151.257Z" fill="white" style="fill:white;fill-opacity:1;"/>
<path d="M66.9892 25.0622C66.6027 24.5633 66.1003 24.17 65.4822 23.8822C64.8641 23.5961 64.2188 23.4514 63.5444 23.4514C62.8701 23.4514 62.2248 23.5757 61.6067 23.826C60.9886 24.0763 60.4454 24.4322 59.9788 24.8937C59.5105 25.3551 59.1393 25.9085 58.8652 26.5505C58.591 27.1941 58.4531 27.9144 58.4531 28.713C58.4531 29.5116 58.5927 30.2166 58.8737 30.8654C59.1547 31.5141 59.5293 32.0692 59.9975 32.5307C60.4658 32.9921 61.0056 33.348 61.6169 33.5983C62.2282 33.8486 62.865 33.973 63.5257 33.973C64.1864 33.973 64.8454 33.8231 65.4635 33.5234C66.0816 33.2237 66.589 32.8116 66.9892 32.2872V33.7652H68.9729V19.0156L66.9892 19.867V25.0622ZM66.7644 30.0327C66.5958 30.4516 66.3643 30.8126 66.0714 31.1191C65.7785 31.4256 65.4294 31.6691 65.0225 31.8496C64.6172 32.0301 64.1762 32.1203 63.7028 32.1203C63.2294 32.1203 62.7884 32.0335 62.3831 31.8581C61.9779 31.6827 61.6254 31.4409 61.3257 31.1276C61.026 30.816 60.7927 30.4516 60.6242 30.0327C60.4556 29.6155 60.3721 29.1694 60.3721 28.6943C60.3721 28.2192 60.4556 27.7748 60.6242 27.3559C60.7927 26.9387 61.026 26.576 61.3257 26.2695C61.6254 25.9647 61.9779 25.7246 62.3831 25.5492C62.7884 25.3739 63.2277 25.287 63.7028 25.287C64.1779 25.287 64.6172 25.3773 65.0225 25.5578C65.4277 25.7382 65.7768 25.9817 66.0714 26.2882C66.3643 26.5948 66.5958 26.9557 66.7644 27.3746C66.933 27.7935 67.0164 28.2328 67.0164 28.6943C67.0164 29.1558 66.933 29.6155 66.7644 30.0327Z" fill="white" style="fill:white;fill-opacity:1;"/>
<path d="M72.2525 19.3633C71.8847 19.3633 71.5799 19.4859 71.3398 19.7311C71.0997 19.9763 70.9805 20.2828 70.9805 20.6523C70.9805 21.0218 71.098 21.3283 71.333 21.5735C71.568 21.8187 71.8745 21.9413 72.2542 21.9413C72.634 21.9413 72.9439 21.8187 73.184 21.5735C73.4241 21.3283 73.5432 21.0218 73.5432 20.6523C73.5432 20.2828 73.4223 19.978 73.184 19.7311C72.9439 19.4859 72.634 19.3633 72.2542 19.3633H72.2525Z" fill="white" style="fill:white;fill-opacity:1;"/>
<path d="M89.0591 19.3633C88.6913 19.3633 88.3864 19.4859 88.1464 19.7311C87.9063 19.9763 87.7871 20.2828 87.7871 20.6523C87.7871 21.0218 87.9046 21.3283 88.1395 21.5735C88.3745 21.8187 88.681 21.9413 89.0607 21.9413C89.4405 21.9413 89.7504 21.8187 89.9905 21.5735C90.2306 21.3283 90.3498 21.0218 90.3498 20.6523C90.3498 20.2828 90.2289 19.978 89.9905 19.7311C89.7504 19.4859 89.4405 19.3633 89.0607 19.3633H89.0591Z" fill="white" style="fill:white;fill-opacity:1;"/>
<path d="M73.2801 23.6582H71.2402V33.766H73.2801V23.6582Z" fill="white" style="fill:white;fill-opacity:1;"/>
<path d="M83.7256 25.1185C83.3391 24.594 82.8368 24.1853 82.2186 23.8924C81.6005 23.5996 80.9552 23.4531 80.2809 23.4531C79.6066 23.4531 78.9612 23.5774 78.3431 23.8277C77.725 24.0781 77.1818 24.4339 76.7152 24.8954C76.247 25.3568 75.8757 25.9103 75.6016 26.5522C75.3274 27.1959 75.1895 27.9161 75.1895 28.7147C75.1895 29.5134 75.3291 30.2183 75.6101 30.8671C75.8911 31.5158 76.2657 32.0709 76.734 32.5324C77.2022 32.9939 77.742 33.3497 78.3533 33.6001C78.9646 33.8504 79.6014 33.9747 80.2621 33.9747C80.9228 33.9747 81.6039 33.8214 82.2272 33.5166C82.8504 33.2118 83.3561 32.7895 83.7426 32.2531V33.0398C83.7426 33.5013 83.6643 33.9219 83.5094 34.3033C83.3527 34.683 83.1347 35.0117 82.8538 35.2858C82.5728 35.56 82.2357 35.7728 81.8423 35.9227C81.449 36.0725 81.0097 36.1474 80.5227 36.1474C79.6985 36.1474 79.031 36.0197 78.5202 35.7643C78.0076 35.5089 77.553 35.1053 77.1545 34.557L75.5267 35.8852C76.075 36.5714 76.7459 37.0959 77.5394 37.4569C78.3312 37.8179 79.3392 38.0001 80.5618 38.0001C81.2855 38.0001 81.9615 37.8792 82.5933 37.6357C83.2233 37.3922 83.7733 37.0482 84.2399 36.6055C84.7081 36.1628 85.0759 35.6315 85.3433 35.0151C85.6123 34.397 85.7451 33.7141 85.7451 32.9649V23.6626H83.7239V25.1219L83.7256 25.1185ZM83.586 30.0327C83.4174 30.4516 83.1858 30.8126 82.8929 31.1191C82.6001 31.4256 82.251 31.6691 81.844 31.8496C81.4388 32.0301 80.9977 32.1203 80.5244 32.1203C80.051 32.1203 79.61 32.0335 79.2047 31.8581C78.7994 31.6827 78.447 31.4409 78.1473 31.1276C77.8476 30.816 77.6143 30.4516 77.4457 30.0327C77.2771 29.6155 77.1937 29.1694 77.1937 28.6943C77.1937 28.2192 77.2771 27.7748 77.4457 27.3559C77.6143 26.9387 77.8476 26.576 78.1473 26.2695C78.447 25.9647 78.7994 25.7246 79.2047 25.5493C79.61 25.3739 80.0493 25.287 80.5244 25.287C80.9994 25.287 81.4388 25.3773 81.844 25.5578C82.2493 25.7383 82.5984 25.9818 82.8929 26.2883C83.1858 26.5948 83.4174 26.9558 83.586 27.3747C83.7546 27.7935 83.838 28.2329 83.838 28.6943C83.838 29.1558 83.7546 29.6155 83.586 30.0327Z" fill="white" style="fill:white;fill-opacity:1;"/>
<path d="M90.0516 23.6582H88.0117V33.766H90.0516V23.6582Z" fill="white" style="fill:white;fill-opacity:1;"/>
<path d="M96.998 32.0442C96.5979 32.0442 96.2777 31.9199 96.0342 31.6696C95.7907 31.4193 95.6698 31.014 95.6698 30.4521V25.4732H98.4965V23.658H95.6698V20.1758L93.6861 21.0272V23.658H91.6836V25.4732H93.6861V30.4709C93.6861 31.719 93.9602 32.6113 94.5102 33.1476C95.0585 33.684 95.8384 33.9531 96.8499 33.9531C97.2739 33.9531 97.6638 33.9003 98.0197 33.7947C98.3756 33.6891 98.6957 33.5359 98.9835 33.3367L98.0282 31.6526C97.7285 31.9148 97.3862 32.0459 96.998 32.0459V32.0442Z" fill="white" style="fill:white;fill-opacity:1;"/>
<path d="M108.226 24.5648C107.839 24.2089 107.361 23.9348 106.794 23.7406C106.225 23.5465 105.58 23.4512 104.856 23.4512C103.769 23.4512 102.836 23.6691 102.058 24.1067C101.278 24.5444 100.638 25.0927 100.139 25.7533L101.935 26.8023C102.223 26.3033 102.61 25.9066 103.097 25.6137C103.584 25.3208 104.164 25.1744 104.837 25.1744C105.736 25.1744 106.397 25.3872 106.821 25.8112C107.245 26.2352 107.458 26.7852 107.458 27.4578V27.6264H104.462C103.041 27.6264 101.927 27.9227 101.121 28.5153C100.316 29.1078 99.9141 29.9286 99.9141 30.9775C99.9141 31.4015 99.9925 31.7982 100.147 32.166C100.304 32.5338 100.53 32.8523 100.83 33.1213C101.13 33.3904 101.501 33.5981 101.944 33.7479C102.387 33.8978 102.901 33.9727 103.488 33.9727C104.336 33.9727 105.111 33.7922 105.809 33.4295C106.508 33.0685 107.058 32.5866 107.456 31.989V33.7667H109.402V27.514C109.402 26.9027 109.302 26.3476 109.103 25.8487C108.903 25.3498 108.609 24.9224 108.222 24.5665L108.226 24.5648ZM107.458 30.0767C107.296 30.4139 107.086 30.7136 106.831 30.9758C106.576 31.238 106.291 31.4594 105.98 31.6399C105.668 31.8204 105.336 31.9617 104.987 32.0605C104.638 32.1609 104.282 32.2103 103.919 32.2103C103.245 32.2103 102.753 32.086 102.441 31.8357C102.129 31.5871 101.973 31.2431 101.973 30.8055C101.973 30.3066 102.175 29.9201 102.581 29.6442C102.986 29.3701 103.657 29.2321 104.594 29.2321H107.458V30.075V30.0767Z" fill="white" style="fill:white;fill-opacity:1;"/>
<path d="M111.67 33.7652H113.71V19.0156L111.67 19.8909V33.7652Z" fill="white" style="fill:white;fill-opacity:1;"/>
</g>
<defs>
<clipPath id="clip0_582_13010">
<rect width="157" height="36" fill="white" style="fill:white;fill-opacity:1;" transform="translate(3 2)"/>
</clipPath>
</defs>
</svg>
