<svg width="116" height="36" viewBox="0 0 116 36" fill="none" xmlns="http://www.w3.org/2000/svg">
<mask id="mask0_582_17835" style="mask-type:luminance" maskUnits="userSpaceOnUse" x="5" y="7" width="26" height="22">
<path d="M31 7H5V29H31V7Z" fill="white" style="fill:white;fill-opacity:1;"/>
</mask>
<g mask="url(#mask0_582_17835)">
<path d="M24.1384 17.3875H11.8623L18.0001 7L24.1384 17.3875Z" fill="#FCFCFC" style="fill:#FCFCFC;fill:color(display-p3 0.9882 0.9882 0.9882);fill-opacity:1;"/>
<path d="M31 29.0003H5L9.96764 20.5933H26.0324L31 29.0003Z" fill="#FCFCFC" style="fill:#FCFCFC;fill:color(display-p3 0.9882 0.9882 0.9882);fill-opacity:1;"/>
</g>
<path d="M45.672 8.96H48.984L55.128 26H52.344L50.808 21.56H43.848L42.288 26H39.528L45.672 8.96ZM49.992 19.208L47.328 11.432L44.664 19.208H49.992ZM61.7126 17.456L56.0966 8.96H59.1446L63.3446 15.44L67.4726 8.96H70.4966L64.8806 17.408L70.5926 26H67.5446L63.2966 19.424L59.0726 26H56.0486L61.7126 17.456ZM73.0684 8.96H75.6604V26H73.0684V8.96ZM86.2342 26.384C84.6022 26.384 83.1862 26.032 81.9862 25.328C80.8022 24.608 79.8902 23.584 79.2502 22.256C78.6102 20.912 78.2902 19.328 78.2902 17.504C78.2902 15.68 78.6102 14.096 79.2502 12.752C79.8902 11.408 80.8022 10.376 81.9862 9.656C83.1862 8.936 84.6022 8.576 86.2342 8.576C87.8822 8.576 89.3062 8.936 90.5062 9.656C91.7062 10.376 92.6182 11.408 93.2422 12.752C93.8822 14.096 94.2023 15.68 94.2023 17.504C94.2023 19.328 93.8822 20.912 93.2422 22.256C92.6182 23.584 91.7062 24.608 90.5062 25.328C89.3062 26.032 87.8822 26.384 86.2342 26.384ZM86.2342 24.008C87.3382 24.008 88.2822 23.752 89.0662 23.24C89.8662 22.728 90.4742 21.984 90.8902 21.008C91.3062 20.032 91.5142 18.864 91.5142 17.504C91.5142 16.144 91.3062 14.976 90.8902 14C90.4742 13.008 89.8662 12.256 89.0662 11.744C88.2822 11.216 87.3382 10.952 86.2342 10.952C85.1462 10.952 84.2102 11.216 83.4262 11.744C82.6422 12.256 82.0342 13.008 81.6022 14C81.1862 14.976 80.9782 16.144 80.9782 17.504C80.9782 18.864 81.1862 20.032 81.6022 21.008C82.0342 21.984 82.6422 22.728 83.4262 23.24C84.2102 23.752 85.1462 24.008 86.2342 24.008ZM96.5649 8.96H100.117L105.181 22.952L110.245 8.96H113.797V26H111.205V13.52L106.621 25.976H103.741L99.1569 13.52V26H96.5649V8.96Z" fill="white" style="fill:white;fill-opacity:1;"/>
</svg>
