<svg width="127" height="34" viewBox="0 0 127 34" fill="none" xmlns="http://www.w3.org/2000/svg">
<g clip-path="url(#clip0_582_17881)">
<mask id="mask0_582_17881" style="mask-type:luminance" maskUnits="userSpaceOnUse" x="0" y="0" width="29" height="34">
<path d="M28.1889 0.5H0V33.5H28.1889V0.5Z" fill="white" style="fill:white;fill-opacity:1;"/>
</mask>
<g mask="url(#mask0_582_17881)">
<path d="M10.6062 0.621708C11.2446 0.291421 12.0224 0.66427 12.1619 1.36741L14.0262 10.7661C14.1709 11.4949 13.3333 12.0142 12.7408 11.5631L12.229 11.1732C11.4571 10.5853 10.6535 10.0433 9.82258 9.54934L5.18045 19.6658C4.78859 20.5199 4.58576 21.4478 4.58576 22.3868C4.58576 26.0009 7.52618 28.9307 11.1534 28.9307H18.6128C21.3689 28.9307 23.6031 26.7046 23.6031 23.9585C23.6031 21.2123 21.3689 18.986 18.6128 18.986H14.5665C13.3002 18.986 12.2737 17.9632 12.2737 16.7015C12.2737 15.4396 13.3002 14.4168 14.5665 14.4168H15.2388H15.241H19.0174C20.7307 14.4168 22.1195 13.0329 22.1195 11.3259C22.1195 9.61884 20.7307 8.23498 19.0174 8.23498H18.6128C17.3464 8.23498 16.3199 7.21212 16.3199 5.95036C16.3199 4.68862 17.3464 3.66577 18.6128 3.66577H19.0174C23.2632 3.66577 26.7052 7.09534 26.7052 11.3259C26.7052 13.3431 25.9228 15.1783 24.6435 16.5462C26.8067 18.2957 28.1889 20.9663 28.1889 23.9585C28.1889 29.2281 23.9015 33.5 18.6128 33.5H11.1534C4.99354 33.5 0 28.5246 0 22.3868C0 20.7922 0.344441 19.2161 1.00993 17.7659L5.68745 7.57228C4.8466 7.25995 3.98805 6.99172 3.11525 6.76922L2.22694 6.54277C1.5071 6.35927 1.39518 5.38715 2.0546 5.04598L10.6062 0.621708Z" fill="#21D55A" style="fill:#21D55A;fill:color(display-p3 0.1294 0.8353 0.3529);fill-opacity:1;"/>
</g>
<path d="M41.594 10.1996C41.594 9.51336 41.9649 9.14385 42.6539 9.14385H48.8367C52.8291 9.14385 54.8429 11.0618 54.8429 13.7627C54.8429 15.883 53.4562 17.2115 51.5748 17.6338V17.8098C53.6329 17.9064 55.5495 19.5166 55.5495 22.1823C55.5495 25.0504 53.3855 27.1618 49.3225 27.1618H42.6539C41.9649 27.1618 41.594 26.7922 41.594 26.1061V10.1996ZM45.4185 24.0473H48.5365C50.6739 24.0473 51.6013 23.1588 51.6013 21.8039C51.6013 20.3171 50.4619 19.2614 48.6247 19.2614H45.4185V24.0473ZM45.4185 16.6836H48.2538C49.8171 16.6836 50.983 15.8214 50.983 14.3962C50.983 13.0941 50.0203 12.2231 48.3244 12.2231H45.4185V16.6836ZM63.9015 27.4257C59.7237 27.4257 57.1711 24.7512 57.1711 20.4667C57.1711 16.2964 59.759 13.4724 63.7513 13.4724C67.3374 13.4724 70.1285 15.7422 70.1285 20.3347C70.1285 21.0033 69.7575 21.364 69.0686 21.364H60.8896V21.3728C60.8896 23.3876 62.082 24.628 63.9634 24.628C64.8731 24.628 65.6327 24.3465 66.1274 23.7923C66.5248 23.3348 66.8428 23.0796 67.4346 23.1148L68.8301 23.2116C69.5809 23.2644 69.996 23.6515 69.7575 24.2145C68.9185 26.1853 66.8252 27.4257 63.9015 27.4257ZM60.8896 19.0414H66.5866C66.5778 17.4314 65.4472 16.27 63.8132 16.27C62.1438 16.27 60.9691 17.5018 60.8896 19.0414ZM76.098 26.1061C76.098 26.7922 75.7269 27.1618 75.0381 27.1618H73.3952C72.7062 27.1618 72.3353 26.7922 72.3353 26.1061V10.1996C72.3353 9.51336 72.7062 9.14385 73.3952 9.14385H75.0381C75.7269 9.14385 76.098 9.51336 76.098 10.1996V26.1061ZM80.7535 11.9064C79.6406 11.9064 78.722 11.053 78.722 10.006C78.722 8.9679 79.6406 8.1145 80.7535 8.1145C81.8752 8.1145 82.7939 8.9679 82.7939 10.006C82.7939 11.053 81.8752 11.9064 80.7535 11.9064ZM78.8634 26.1061V14.7041C78.8634 14.0178 79.2343 13.6483 79.9233 13.6483H81.5661C82.2551 13.6483 82.626 14.0178 82.626 14.7041V26.1061C82.626 26.7922 82.2551 27.1618 81.5661 27.1618H79.9233C79.2343 27.1618 78.8634 26.7922 78.8634 26.1061ZM91.5743 27.4257C87.3964 27.4257 84.8438 24.7512 84.8438 20.4667C84.8438 16.2964 87.4317 13.4724 91.4241 13.4724C95.01 13.4724 97.8011 15.7422 97.8011 20.3347C97.8011 21.0033 97.4302 21.364 96.7412 21.364H88.5623V21.3728C88.5623 23.3876 89.7547 24.628 91.636 24.628C92.5458 24.628 93.3053 24.3465 93.8001 23.7923C94.1975 23.3348 94.5154 23.0796 95.1072 23.1148L96.5028 23.2116C97.2535 23.2644 97.6688 23.6515 97.4302 24.2145C96.5912 26.1853 94.4978 27.4257 91.5743 27.4257ZM88.5623 19.0414H94.2594C94.2505 17.4314 93.12 16.27 91.4859 16.27C89.8166 16.27 88.6418 17.5018 88.5623 19.0414ZM107.825 26.3084C107.622 26.889 107.233 27.1618 106.615 27.1618H104.195C103.576 27.1618 103.188 26.889 102.985 26.3084L98.9657 14.8537C98.7096 14.1234 99.054 13.6483 99.8314 13.6483H101.589C102.216 13.6483 102.596 13.9299 102.773 14.537L105.334 23.3172H105.475L108.028 14.537C108.205 13.9299 108.584 13.6483 109.212 13.6483H110.978C111.755 13.6483 112.1 14.1234 111.844 14.8537L107.825 26.3084ZM119.666 27.4257C115.488 27.4257 112.935 24.7512 112.935 20.4667C112.935 16.2964 115.523 13.4724 119.516 13.4724C123.102 13.4724 125.893 15.7422 125.893 20.3347C125.893 21.0033 125.522 21.364 124.833 21.364H116.654V21.3728C116.654 23.3876 117.846 24.628 119.728 24.628C120.637 24.628 121.397 24.3465 121.892 23.7923C122.289 23.3348 122.607 23.0796 123.199 23.1148L124.594 23.2116C125.345 23.2644 125.76 23.6515 125.522 24.2145C124.683 26.1853 122.589 27.4257 119.666 27.4257ZM116.654 19.0414H122.351C122.342 17.4314 121.211 16.27 119.577 16.27C117.908 16.27 116.733 17.5018 116.654 19.0414Z" fill="white" style="fill:white;fill-opacity:1;"/>
</g>
<defs>
<clipPath id="clip0_582_17881">
<rect width="127" height="33" fill="white" style="fill:white;fill-opacity:1;" transform="translate(0 0.5)"/>
</clipPath>
</defs>
</svg>
