<svg width="182" height="32" viewBox="0 0 182 32" fill="none" xmlns="http://www.w3.org/2000/svg">
<path fill-rule="evenodd" clip-rule="evenodd" d="M3.90736 2.33404V12.4709C4.72512 11.0126 5.98966 10.2442 7.70223 10.167C11.199 10.3972 13.0966 12.7011 13.3948 17.0785C13.3196 19.4598 12.762 21.3409 11.7206 22.7233C10.4545 24.1056 8.85492 24.7964 6.92085 24.7964C5.13487 24.719 3.83221 24.1056 3.01429 22.9533C2.17375 23.3869 1.3981 23.8894 0.690237 24.4588L0.558307 24.5664H0V2.33404C0.210976 2.33404 0.521438 2.36957 0.931519 2.43733L1.00492 2.44963H1.89783C2.10881 2.44963 2.41913 2.4154 2.82906 2.34655L2.90244 2.33404H3.90736ZM26.1376 10.167L26.2731 10.1723C30.7222 10.3688 33.0213 12.7088 33.1698 17.1941C32.9468 22.1094 30.6026 24.6415 26.1376 24.7964C21.5977 24.6415 19.2538 22.3398 19.1057 17.8847C19.3287 12.9714 21.6727 10.3972 26.1376 10.167ZM18.2036 10.3972V24.5664H14.2969V10.3972L14.5201 10.4216C15.0408 10.4749 15.5618 10.5045 16.0827 10.5111L16.3059 10.5125L16.4554 10.5117C17.0066 10.5059 17.5899 10.4682 18.2036 10.3972ZM6.58625 12.0101C4.80027 12.0101 3.90736 13.8929 3.90736 17.655C3.83221 21.6486 4.68842 23.6447 6.4744 23.6447C8.18523 23.569 9.0783 21.5331 9.15329 17.5391C9.22622 13.8532 8.37223 12.0101 6.58625 12.0101ZM26.2496 11.4341L26.1918 11.4348C24.2944 11.4766 23.3472 13.5893 23.3472 17.7695C23.3472 21.647 24.2583 23.6054 26.0821 23.6441L26.1376 23.6447L26.1909 23.6418C27.9421 23.5227 28.8541 21.22 28.9285 16.7334C28.9285 13.202 28.0356 11.4341 26.2496 11.4341ZM11.5957 2.09681C16.2021 2.25387 17.9704 5.69697 17.6146 8.62399C12.5368 9.06644 11.2557 5.13257 11.5957 2.09681ZM20.6607 3.61648C20.8776 5.4413 20.065 7.52016 17.9452 8.40049C18.009 7.1324 17.7383 5.81616 17.0773 4.66073C17.8396 3.91804 18.9929 3.47199 20.6607 3.61648ZM28.7803 3.27036C27.9441 4.30253 26.2841 4.76342 24.8015 3.22889C25.6771 2.16669 27.3464 1.38628 28.7803 3.27036ZM24.3769 0.925053C23.609 2.53779 21.5928 3.67657 19.1997 2.1693C20.0139 0.507911 21.9368 -1.05143 24.3769 0.925053ZM32.045 0.82089C31.7713 1.58906 30.9127 2.20571 29.7561 1.63983C30.0459 0.846849 30.8493 0.0439105 32.045 0.82089ZM34.4225 18.3456V15.8119L43.2217 15.8116V18.3456H34.4225ZM45.5212 10.4157L45.6896 10.433C45.7105 10.435 45.7313 10.437 45.7521 10.439C45.7932 10.4428 45.834 10.4465 45.8747 10.4501L45.7521 10.439C45.8066 10.4441 45.8608 10.4489 45.9148 10.4535L45.8747 10.4501C45.9306 10.455 45.9862 10.4595 46.0415 10.4638L45.9148 10.4535C45.9737 10.4585 46.0323 10.4632 46.0906 10.4676L46.0415 10.4638C46.1008 10.4685 46.1597 10.4727 46.2183 10.4767L46.0906 10.4676C46.1501 10.472 46.2094 10.4762 46.2684 10.48L46.2183 10.4767C46.272 10.4803 46.3254 10.4836 46.3786 10.4867L46.2684 10.48C46.3247 10.4836 46.3808 10.4869 46.4365 10.4899L46.3786 10.4867C46.4395 10.4902 46.5001 10.4934 46.5604 10.4961L46.4365 10.4899C46.4905 10.4928 46.5442 10.4955 46.5976 10.4978L46.5604 10.4961C46.6098 10.4984 46.659 10.5005 46.7079 10.5023L46.5976 10.4978C46.6577 10.5005 46.7174 10.5027 46.7767 10.5047L46.7079 10.5023C46.7621 10.5043 46.8159 10.506 46.8695 10.5074L46.7767 10.5047C46.8303 10.5064 46.8836 10.5079 46.9367 10.509L46.8695 10.5074C46.9242 10.5088 46.9787 10.51 47.0328 10.5108L46.9367 10.509C46.9897 10.5102 47.0424 10.511 47.0948 10.5116L47.2526 10.5125L47.4192 10.5117L47.593 10.5091C47.6103 10.5088 47.6276 10.5084 47.6449 10.508C47.6849 10.5071 47.7247 10.5061 47.7644 10.5049L47.6449 10.508C47.7089 10.5066 47.7725 10.5047 47.8358 10.5025L47.7644 10.5049C47.8206 10.5031 47.8766 10.5012 47.9323 10.4989L47.8358 10.5025C47.8962 10.5004 47.9564 10.498 48.0162 10.4952L47.9323 10.4989C47.987 10.4966 48.0413 10.4941 48.0954 10.4913L48.0162 10.4952C48.0754 10.4925 48.1343 10.4894 48.1929 10.486L48.0954 10.4913C48.1503 10.4885 48.2049 10.4854 48.2592 10.482L48.1929 10.486C48.2438 10.483 48.2946 10.4798 48.345 10.4763L48.2592 10.482C48.3185 10.4783 48.3775 10.4742 48.4361 10.4698L48.345 10.4763C48.4017 10.4724 48.458 10.4682 48.514 10.4637L48.4361 10.4698C48.4895 10.4658 48.5427 10.4615 48.5955 10.4569L48.514 10.4637C48.5663 10.4595 48.6183 10.455 48.67 10.4503L48.5955 10.4569C48.6512 10.4521 48.7065 10.447 48.7616 10.4415L48.67 10.4503C48.7268 10.445 48.7832 10.4395 48.8394 10.4336L48.7616 10.4415C48.809 10.4368 48.8561 10.4319 48.903 10.4267L48.8394 10.4336C48.8914 10.4281 48.9431 10.4224 48.9946 10.4163L49.1495 10.3972V13.0473L49.1791 12.9721C49.927 11.1032 51.2202 10.167 53.0569 10.167L53.1657 10.17C53.2483 10.1728 53.33 10.1769 53.4108 10.1821C53.56 10.1918 53.706 10.2056 53.8489 10.2235C53.8651 10.2255 53.8811 10.2275 53.8972 10.2297C53.9058 10.2308 53.9145 10.232 53.9232 10.2332C53.9466 10.2364 53.9699 10.2396 53.9931 10.2431C54.0116 10.2458 54.0299 10.2485 54.0482 10.2514C54.0635 10.2538 54.0786 10.2562 54.0938 10.2586C54.1047 10.2604 54.1158 10.2622 54.1268 10.2641C54.1495 10.2679 54.172 10.2718 54.1944 10.2758C54.2832 10.2917 54.3708 10.3093 54.4571 10.3286C54.4634 10.33 54.4698 10.3315 54.4761 10.3329C54.4912 10.3363 54.5062 10.3398 54.5211 10.3433C54.5394 10.3476 54.5575 10.352 54.5756 10.3564C54.5898 10.3599 54.604 10.3635 54.6181 10.367C54.6327 10.3707 54.6472 10.3745 54.6618 10.3783C54.6815 10.3835 54.7012 10.3887 54.7208 10.3941C54.7327 10.3974 54.7446 10.4007 54.7566 10.404C54.7679 10.4072 54.7791 10.4104 54.7902 10.4136C54.8113 10.4196 54.8324 10.4258 54.8533 10.4321C54.8554 10.4327 54.8577 10.4334 54.86 10.4341C54.8848 10.4416 54.9093 10.4492 54.9337 10.4569C54.9503 10.4622 54.9669 10.4675 54.9834 10.4729C54.9988 10.478 55.0142 10.4831 55.0295 10.4883C55.0337 10.4897 55.0378 10.4911 55.042 10.4925C55.0658 10.5006 55.0894 10.5089 55.1129 10.5172C55.1254 10.5217 55.1378 10.5262 55.1502 10.5307C55.1663 10.5366 55.1825 10.5426 55.1985 10.5487C55.2203 10.5569 55.2421 10.5653 55.2637 10.5738C55.2684 10.5756 55.2731 10.5774 55.2778 10.5793C55.2964 10.5867 55.3149 10.5941 55.3334 10.6017C55.347 10.6073 55.3605 10.6129 55.3741 10.6186C55.3809 10.6215 55.3877 10.6243 55.3944 10.6272C55.4145 10.6357 55.4345 10.6444 55.4545 10.6532C55.4692 10.6597 55.4839 10.6663 55.4986 10.6729C55.5098 10.678 55.521 10.6832 55.5322 10.6883C55.5464 10.6949 55.5605 10.7015 55.5746 10.7082C55.5897 10.7154 55.6047 10.7226 55.6197 10.7299C55.6286 10.7342 55.6374 10.7385 55.6462 10.7429C55.6641 10.7517 55.6819 10.7607 55.6996 10.7697C55.712 10.776 55.7244 10.7824 55.7368 10.7889C55.7489 10.7952 55.7609 10.8016 55.7729 10.808C55.7896 10.8168 55.8061 10.8257 55.8225 10.8348C55.8317 10.8398 55.841 10.8449 55.8502 10.8501C55.8647 10.8581 55.879 10.8662 55.8932 10.8743C55.9065 10.8819 55.9197 10.8896 55.9329 10.8973C55.945 10.9043 55.9571 10.9115 55.9692 10.9187C55.9819 10.9263 55.9946 10.934 56.0073 10.9417C56.0181 10.9483 56.0289 10.955 56.0397 10.9617C56.0551 10.9712 56.0703 10.9808 56.0855 10.9905C56.0933 10.9955 56.1012 11.0006 56.1091 11.0057C56.127 11.0172 56.1446 11.0288 56.1622 11.0405C56.1705 11.046 56.1788 11.0516 56.1872 11.0573C56.2005 11.0663 56.2138 11.0754 56.227 11.0845C56.2416 11.0947 56.2563 11.1049 56.2708 11.1152C56.279 11.1211 56.2873 11.1269 56.2954 11.1328C56.3108 11.1439 56.326 11.155 56.3412 11.1662C56.3506 11.1731 56.3599 11.1801 56.3692 11.187C56.3839 11.1981 56.3986 11.2093 56.4132 11.2205C56.4222 11.2274 56.4311 11.2344 56.44 11.2413C56.4507 11.2497 56.4614 11.2582 56.4722 11.2667C56.4867 11.2783 56.5011 11.2899 56.5154 11.3016C56.5242 11.3088 56.5331 11.3161 56.542 11.3235C56.5539 11.3334 56.5658 11.3434 56.5776 11.3534C56.5901 11.364 56.6026 11.3747 56.6151 11.3855C56.6243 11.3935 56.6334 11.4014 56.6425 11.4094C56.6558 11.4212 56.6692 11.4331 56.6825 11.445C56.6915 11.4532 56.7004 11.4613 56.7094 11.4695C56.7213 11.4804 56.7333 11.4915 56.7452 11.5026C56.7556 11.5124 56.7661 11.5223 56.7765 11.5322C56.7862 11.5414 56.7958 11.5507 56.8055 11.5601C56.8171 11.5713 56.8287 11.5827 56.8402 11.5941C56.8494 11.6032 56.8585 11.6124 56.8676 11.6215C56.8803 11.6343 56.8929 11.6471 56.9054 11.66C56.9129 11.6677 56.9203 11.6754 56.9276 11.6831C56.9413 11.6974 56.9551 11.712 56.9687 11.7266C56.9758 11.7342 56.9828 11.7417 56.9898 11.7493C57.0009 11.7614 57.012 11.7736 57.0231 11.7859C57.0342 11.7982 57.0452 11.8106 57.0562 11.823C57.066 11.8342 57.0759 11.8454 57.0857 11.8567C57.0935 11.8658 57.1013 11.8748 57.109 11.8839C57.1203 11.8971 57.1315 11.9104 57.1427 11.9238C57.1519 11.9349 57.161 11.9459 57.1701 11.9569C57.1806 11.9698 57.1911 11.9827 57.2016 11.9957C57.2115 12.008 57.2213 12.0203 57.2311 12.0327C57.2367 12.0399 57.2423 12.047 57.2478 12.0541C57.2607 12.0707 57.2735 12.0874 57.2863 12.1041C57.2937 12.1139 57.301 12.1237 57.3084 12.1335C57.319 12.1477 57.3296 12.162 57.3401 12.1764C57.3451 12.1832 57.35 12.1899 57.3549 12.1967C57.369 12.2162 57.383 12.2358 57.3969 12.2556C57.4012 12.2618 57.4056 12.2679 57.4099 12.2741C57.4235 12.2937 57.4371 12.3134 57.4505 12.3333C57.4538 12.3382 57.457 12.343 57.4603 12.3478C57.4717 12.3648 57.4832 12.3821 57.4946 12.3995C57.5029 12.4121 57.5112 12.4249 57.5195 12.4378C57.5287 12.4521 57.5379 12.4666 57.547 12.4811C57.5547 12.4932 57.5622 12.5054 57.5698 12.5176C57.5792 12.5328 57.5886 12.5482 57.598 12.5636C57.6028 12.5715 57.6076 12.5795 57.6124 12.5876C57.6239 12.6066 57.6352 12.6259 57.6465 12.6452C57.6534 12.6571 57.6603 12.669 57.6672 12.6809C57.6738 12.6925 57.6804 12.7041 57.687 12.7157C57.6974 12.7341 57.7077 12.7527 57.718 12.7713C57.7253 12.7845 57.7325 12.7977 57.7396 12.811C57.7492 12.8288 57.7588 12.8467 57.7683 12.8648C57.7721 12.8719 57.7759 12.879 57.7796 12.8862C57.7907 12.9074 57.8016 12.9287 57.8125 12.9502C57.8162 12.9574 57.8199 12.9647 57.8236 12.9721C57.8326 12.99 57.8416 13.008 57.8504 13.0261C57.8575 13.0404 57.8645 13.0549 57.8715 13.0694C57.88 13.0871 57.8885 13.1049 57.8969 13.1229C57.9027 13.1351 57.9084 13.1473 57.9141 13.1596C57.9203 13.173 57.9265 13.1865 57.9327 13.2001C57.9402 13.2166 57.9476 13.2332 57.955 13.2499C57.9626 13.267 57.9702 13.2842 57.9777 13.3014C57.9848 13.3177 57.9918 13.334 57.9987 13.3504C58.003 13.3604 58.0073 13.3706 58.0116 13.3808C58.0205 13.4019 58.0293 13.4231 58.038 13.4444C58.0448 13.4612 58.0516 13.4781 58.0584 13.4951C58.0631 13.5067 58.0677 13.5183 58.0723 13.53C58.0772 13.5424 58.082 13.5549 58.0869 13.5675C58.0955 13.5897 58.1041 13.6122 58.1126 13.6348C58.1152 13.6419 58.1179 13.649 58.1206 13.6562C58.1298 13.681 58.139 13.7061 58.1481 13.7313C58.1506 13.7383 58.1532 13.7454 58.1557 13.7525C58.1647 13.7776 58.1736 13.8029 58.1823 13.8283C58.1852 13.8366 58.1881 13.845 58.191 13.8534C58.2108 13.9114 58.2301 13.9701 58.2489 14.0295C58.2553 14.0497 58.2616 14.0699 58.2679 14.0903C58.2727 14.1059 58.2775 14.1215 58.2822 14.1371C58.2838 14.1425 58.2854 14.1479 58.287 14.1533C58.2961 14.1836 58.3051 14.2141 58.3139 14.2448C58.3163 14.2531 58.3187 14.2614 58.321 14.2696C58.3387 14.332 58.356 14.3952 58.3727 14.4592C58.3866 14.5125 58.4002 14.5662 58.4133 14.6204C58.4268 14.676 58.4399 14.7321 58.4526 14.7888C58.474 14.8841 58.4942 14.9809 58.5134 15.0793C58.5166 15.0958 58.5198 15.1122 58.5229 15.1288C58.5238 15.1334 58.5247 15.138 58.5255 15.1427C58.5394 15.2163 58.5527 15.2908 58.5654 15.3662C58.5676 15.3792 58.5697 15.3921 58.5719 15.4051C58.574 15.4182 58.5761 15.4313 58.5783 15.4445L58.5719 15.4051C58.6067 15.6168 58.6367 15.8348 58.6618 16.0592C58.6695 16.1288 58.6769 16.199 58.6837 16.2698C58.7034 16.4739 58.7193 16.6831 58.7313 16.8974L58.7382 17.0304C58.7426 17.1222 58.7463 17.2149 58.7493 17.3086C58.5991 22.0712 56.7016 24.5664 53.0569 24.7964C51.4461 24.7964 50.2319 24.1664 49.4142 22.9027L49.3729 22.8379V31.9388H48.3685C47.9467 31.8655 47.6246 31.8274 47.4018 31.8234L47.3635 31.823L47.3253 31.8234C47.116 31.8271 46.8187 31.8612 46.4329 31.9262L46.3596 31.9388H45.3547V10.3972L45.5212 10.4157ZM52.5557 12.0546L52.5463 12.0524C52.5351 12.0498 52.5239 12.0473 52.5126 12.0449L52.5463 12.0524C52.5319 12.049 52.5175 12.0459 52.5029 12.0429L52.5126 12.0449C52.4984 12.0419 52.4841 12.0391 52.4698 12.0365L52.5029 12.0429C52.4857 12.0394 52.4684 12.0361 52.4509 12.0331L52.4698 12.0365C52.4551 12.0338 52.4403 12.0313 52.4254 12.029L52.4509 12.0331C52.4389 12.0311 52.4267 12.0291 52.4146 12.0273L52.4254 12.029C52.3952 12.0243 52.3647 12.0204 52.3339 12.0172L52.2912 12.0134C52.2823 12.0127 52.2733 12.0121 52.2644 12.0116C52.2264 12.0092 52.188 12.008 52.1491 12.0079L52.1008 12.0084L52.052 12.0101C50.1908 12.0101 49.2612 13.9304 49.2612 17.7695C49.2612 21.3029 50.1158 23.0686 51.8286 23.0686L51.8819 23.0612L51.9347 23.0528C51.9517 23.05 51.9687 23.047 51.9856 23.0438C52.0011 23.0409 52.0166 23.0379 52.032 23.0347L51.9856 23.0438C52.0031 23.0405 52.0205 23.0371 52.0378 23.0335L52.032 23.0347C52.0377 23.0335 52.0434 23.0323 52.0491 23.0311L52.0378 23.0335C52.0891 23.0229 52.1395 23.0108 52.1892 22.9974C52.1953 22.9957 52.2013 22.994 52.2073 22.9924L52.1892 22.9974C52.2199 22.989 52.2503 22.9802 52.2804 22.9708C52.3261 22.9565 52.3711 22.941 52.4154 22.9243C52.4205 22.9224 52.4254 22.9205 52.4304 22.9186L52.4154 22.9243C52.445 22.9131 52.4742 22.9014 52.5031 22.8891C52.5098 22.8863 52.5165 22.8834 52.5231 22.8805L52.5031 22.8891C52.5139 22.8846 52.5246 22.8799 52.5352 22.8752L52.5231 22.8805C52.5544 22.8669 52.5853 22.8527 52.6158 22.8378C52.6404 22.8257 52.665 22.8132 52.6892 22.8003C52.693 22.7982 52.6969 22.7961 52.7008 22.794L52.6892 22.8003C52.7159 22.7861 52.7422 22.7713 52.7683 22.7561C52.8167 22.7278 52.8641 22.6977 52.9105 22.6658C52.9475 22.6403 52.9839 22.6137 53.0197 22.586C53.0247 22.5821 53.0297 22.5782 53.0347 22.5743L53.0197 22.586C53.032 22.5765 53.0441 22.5668 53.0563 22.5571L53.0347 22.5743C53.0482 22.5636 53.0616 22.5528 53.075 22.5418L53.0563 22.5571C53.0707 22.5454 53.085 22.5335 53.0993 22.5215L53.075 22.5418C53.0879 22.5311 53.1007 22.5203 53.1135 22.5094L53.0993 22.5215C53.1109 22.5116 53.1225 22.5016 53.1341 22.4915L53.1135 22.5094C53.1259 22.4987 53.1383 22.4879 53.1505 22.4769L53.1341 22.4915C53.1479 22.4793 53.1617 22.4669 53.1754 22.4543L53.1505 22.4769C53.1627 22.466 53.1748 22.455 53.1867 22.4438L53.1754 22.4543C53.1878 22.4429 53.2001 22.4313 53.2124 22.4196L53.1867 22.4438C53.2002 22.4313 53.2136 22.4186 53.2268 22.4057L53.2124 22.4196C53.2217 22.4107 53.2309 22.4017 53.2401 22.3927L53.2268 22.4057C53.2397 22.3932 53.2524 22.3805 53.2651 22.3676L53.2401 22.3927C53.2524 22.3805 53.2647 22.3681 53.2769 22.3555L53.2651 22.3676C53.2772 22.3553 53.2893 22.3428 53.3013 22.3301L53.2769 22.3555C53.2888 22.3433 53.3005 22.331 53.3122 22.3185L53.3013 22.3301C53.3131 22.3176 53.3249 22.3049 53.3366 22.2921L53.3122 22.3185C53.3293 22.3003 53.3461 22.2817 53.3628 22.2629L53.3366 22.2921C53.3466 22.2811 53.3566 22.27 53.3665 22.2587L53.3628 22.2629C53.3946 22.227 53.4256 22.1899 53.4561 22.1517C53.4843 22.1162 53.512 22.0797 53.5391 22.0422C53.5436 22.036 53.5481 22.0297 53.5526 22.0234L53.5391 22.0422C53.5489 22.0287 53.5585 22.0151 53.5682 22.0013L53.5526 22.0234C53.5861 21.9763 53.6188 21.9276 53.6505 21.8773C53.6535 21.8726 53.6565 21.8679 53.6594 21.8631L53.6505 21.8773C53.6582 21.8651 53.6659 21.8528 53.6735 21.8405L53.6594 21.8631C53.6792 21.8316 53.6986 21.7994 53.7176 21.7667C53.7243 21.7552 53.7309 21.7437 53.7374 21.7321L53.7176 21.7667C53.7272 21.7501 53.7368 21.7333 53.7463 21.7164L53.7374 21.7321C53.7555 21.7002 53.7733 21.6677 53.7907 21.6346C53.8051 21.6075 53.8192 21.5799 53.8331 21.552C53.8472 21.5237 53.8611 21.4951 53.8747 21.466C53.8879 21.4378 53.901 21.4092 53.9138 21.3802C53.9164 21.3745 53.9189 21.3687 53.9215 21.3629L53.9138 21.3802C53.9378 21.3261 53.9611 21.2707 53.9837 21.214C53.9942 21.1876 54.0045 21.1608 54.0148 21.1337C54.0274 21.1002 54.0398 21.0663 54.052 21.032C54.0546 21.0244 54.0573 21.0167 54.06 21.009L54.052 21.032C54.0661 20.992 54.0799 20.9515 54.0934 20.9104C54.097 20.8994 54.1006 20.8884 54.1041 20.8773L54.0934 20.9104C54.1012 20.8865 54.109 20.8624 54.1166 20.838L54.1041 20.8773C54.1104 20.8579 54.1166 20.8383 54.1227 20.8186L54.1166 20.838C54.1246 20.8125 54.1325 20.7866 54.1403 20.7606L54.1227 20.8186C54.1503 20.7293 54.1765 20.6373 54.2012 20.5427C54.2164 20.4845 54.231 20.4253 54.2451 20.3651C54.248 20.3524 54.251 20.3397 54.2539 20.3269L54.2451 20.3651C54.2617 20.294 54.2775 20.2214 54.2926 20.1474C54.2994 20.1139 54.3061 20.08 54.3126 20.0458C54.3245 19.9832 54.3359 19.9197 54.3467 19.8551C54.3623 19.7619 54.3768 19.6667 54.3902 19.5695C54.4142 19.3946 54.4345 19.2133 54.4512 19.0254C54.4605 18.92 54.4687 18.8126 54.4757 18.7031L54.4807 18.6217C54.4842 18.5604 54.4875 18.4985 54.4903 18.4359L54.4907 18.4284C54.4949 18.3354 54.4983 18.2411 54.5009 18.1453L54.5032 18.053C54.506 17.9229 54.5075 17.7902 54.5075 17.655C54.5075 17.5409 54.5067 17.4286 54.5053 17.318C54.5016 17.0333 54.4931 16.7601 54.4798 16.4983C54.4775 16.4534 54.4751 16.4089 54.4725 16.3647C54.4673 16.2752 54.4615 16.187 54.4552 16.1001C54.4524 16.0615 54.4494 16.0233 54.4464 15.9854C54.4426 15.9387 54.4387 15.8925 54.4347 15.8467C54.4301 15.796 54.4254 15.7458 54.4205 15.6961C54.4191 15.6823 54.4177 15.6685 54.4163 15.6547L54.4205 15.6961C54.4131 15.622 54.4053 15.5489 54.397 15.477C54.3915 15.4298 54.3859 15.3831 54.38 15.3368C54.3744 15.2928 54.3687 15.2492 54.3628 15.2061C54.3293 14.9631 54.2901 14.7341 54.2451 14.519C54.2415 14.5017 54.2379 14.4846 54.2342 14.4676C54.2324 14.4592 54.2306 14.4508 54.2288 14.4425L54.2342 14.4676C54.2298 14.4468 54.2252 14.4262 54.2206 14.4057L54.2288 14.4425C54.2125 14.368 54.1955 14.2953 54.1777 14.2242C54.1573 14.1423 54.136 14.0627 54.1137 13.9855C54.0711 13.8379 54.025 13.6985 53.9755 13.5674C53.8836 13.3241 53.7798 13.1092 53.664 12.9228C53.6615 12.9187 53.659 12.9147 53.6565 12.9107L53.664 12.9228C53.655 12.9083 53.646 12.894 53.6368 12.8798L53.6565 12.9107C53.6462 12.8942 53.6357 12.878 53.6252 12.862L53.6368 12.8798C53.6174 12.8497 53.5976 12.8204 53.5775 12.7918C53.5741 12.7871 53.5708 12.7824 53.5675 12.7777L53.5775 12.7918C53.5691 12.7799 53.5607 12.7682 53.5522 12.7566L53.5675 12.7777C53.548 12.7505 53.5283 12.724 53.5082 12.6982C53.5017 12.6898 53.4951 12.6814 53.4884 12.6731L53.5082 12.6982C53.4971 12.6839 53.4858 12.6697 53.4744 12.6558L53.4884 12.6731C53.4787 12.661 53.469 12.6491 53.4592 12.6374L53.4744 12.6558C53.4632 12.642 53.4519 12.6285 53.4405 12.6152L53.4592 12.6374C53.4486 12.6246 53.4379 12.6121 53.4272 12.5998L53.4405 12.6152C53.4301 12.6031 53.4197 12.5912 53.4092 12.5795L53.4272 12.5998C53.4157 12.5866 53.4041 12.5737 53.3924 12.561L53.4092 12.5795C53.3985 12.5676 53.3878 12.5559 53.377 12.5444L53.3924 12.561C53.3816 12.5492 53.3707 12.5376 53.3597 12.5262L53.377 12.5444C53.3667 12.5334 53.3563 12.5226 53.3459 12.512L53.3597 12.5262C53.3483 12.5143 53.3368 12.5026 53.3252 12.4912L53.3459 12.512C53.335 12.5009 53.324 12.49 53.313 12.4792L53.3252 12.4912C53.3152 12.4813 53.3052 12.4716 53.2951 12.4621L53.313 12.4792C53.3 12.4666 53.2868 12.4542 53.2736 12.442L53.2951 12.4621C53.2847 12.4522 53.2742 12.4425 53.2636 12.4329L53.2736 12.442C53.2617 12.4311 53.2497 12.4204 53.2377 12.41L53.2636 12.4329C53.2527 12.4231 53.2417 12.4134 53.2307 12.4039L53.2377 12.41C53.2259 12.3997 53.214 12.3896 53.2021 12.3798L53.2307 12.4039C53.2181 12.3931 53.2054 12.3824 53.1927 12.3721L53.2021 12.3798C53.1922 12.3716 53.1822 12.3635 53.1722 12.3556L53.1927 12.3721C53.1788 12.3608 53.1649 12.3498 53.1509 12.3391L53.1722 12.3556C53.1607 12.3465 53.1491 12.3376 53.1374 12.3289L53.1509 12.3391C53.1398 12.3306 53.1286 12.3223 53.1173 12.3141L53.1374 12.3289C53.1248 12.3195 53.1122 12.3103 53.0995 12.3013L53.1173 12.3141C53.104 12.3044 53.0906 12.295 53.0772 12.2858L53.0995 12.3013C53.0882 12.2933 53.0768 12.2855 53.0654 12.2779L53.0772 12.2858C53.0652 12.2776 53.0531 12.2696 53.0409 12.2618L53.0654 12.2779C53.0529 12.2695 53.0402 12.2613 53.0276 12.2533L53.0409 12.2618C53.0287 12.254 53.0165 12.2463 53.0041 12.2388L53.0276 12.2533C53.0133 12.2443 52.9989 12.2355 52.9844 12.227L53.0041 12.2388C52.9924 12.2317 52.9805 12.2247 52.9687 12.2179L52.9844 12.227C52.9711 12.2193 52.9578 12.2117 52.9444 12.2043L52.9687 12.2179C52.9556 12.2105 52.9425 12.2032 52.9293 12.1962L52.9444 12.2043C52.9319 12.1975 52.9193 12.1908 52.9066 12.1843L52.9293 12.1962C52.9161 12.1891 52.9028 12.1823 52.8894 12.1756L52.9066 12.1843C52.8943 12.1779 52.8818 12.1718 52.8694 12.1658L52.8894 12.1756C52.8761 12.169 52.8627 12.1625 52.8493 12.1563L52.8694 12.1658C52.8561 12.1594 52.8427 12.1532 52.8293 12.1472L52.8493 12.1563C52.8353 12.1498 52.8212 12.1436 52.807 12.1375L52.8293 12.1472C52.8173 12.1419 52.8052 12.1367 52.7931 12.1317L52.807 12.1375C52.7944 12.1321 52.7817 12.1269 52.7689 12.1218L52.7931 12.1317C52.7771 12.125 52.7609 12.1186 52.7446 12.1124L52.7689 12.1218C52.7553 12.1164 52.7415 12.1112 52.7277 12.1062L52.7446 12.1124C52.7338 12.1084 52.7229 12.1044 52.712 12.1006L52.7277 12.1062C52.7127 12.1007 52.6976 12.0955 52.6825 12.0905L52.712 12.1006C52.6993 12.0961 52.6865 12.0918 52.6737 12.0877L52.6825 12.0905C52.6692 12.0861 52.6558 12.0819 52.6423 12.0779L52.6737 12.0877C52.6589 12.0829 52.644 12.0783 52.629 12.074L52.6423 12.0779C52.6278 12.0735 52.6131 12.0694 52.5984 12.0654L52.629 12.074C52.6048 12.067 52.5803 12.0605 52.5557 12.0546ZM86.9051 5.21404V10.3972H89.3608C89.2909 10.9715 89.2863 11.578 89.3468 12.2179L89.3608 12.3556H86.9051V20.6495C86.6841 23.0072 87.5572 23.8577 89.524 23.2044L89.584 23.1842V24.3355C89.3608 24.4131 89.0258 24.4906 88.5795 24.5664C87.6865 24.719 87.0166 24.7964 86.5702 24.7964C86.5449 24.7972 86.5197 24.7978 86.4947 24.7982L86.42 24.799L86.346 24.7989L86.2729 24.7978C86.2588 24.7974 86.2447 24.7971 86.2306 24.7967L86.2021 24.7957L86.1841 24.7951L86.1309 24.7927C86.1212 24.7922 86.1115 24.7917 86.1019 24.7912L86.0651 24.789C86.0506 24.7881 86.0363 24.7872 86.022 24.7862C86.0124 24.7855 86.0027 24.7848 85.9931 24.784C85.9851 24.7834 85.977 24.7827 85.969 24.7821L85.9249 24.7782C85.9116 24.777 85.8984 24.7757 85.8852 24.7744C85.8775 24.7736 85.8697 24.7728 85.862 24.772C85.8519 24.7709 85.842 24.7698 85.8321 24.7687C85.7718 24.7619 85.7123 24.7539 85.6539 24.7447C85.6513 24.7443 85.6488 24.7439 85.6462 24.7435L85.5892 24.7341C85.5835 24.7331 85.5778 24.7321 85.5721 24.7311C85.5608 24.7291 85.5497 24.727 85.5385 24.725L85.4963 24.7168C85.4884 24.7153 85.4805 24.7137 85.4727 24.7121C85.4613 24.7097 85.45 24.7073 85.4387 24.7049L85.4099 24.6986C85.3987 24.6961 85.3875 24.6936 85.3763 24.691C85.3673 24.6889 85.3582 24.6867 85.3492 24.6845C85.337 24.6816 85.3249 24.6786 85.3129 24.6756C85.3065 24.674 85.3002 24.6724 85.2939 24.6707L85.2568 24.6609C85.2446 24.6576 85.2326 24.6543 85.2206 24.6509C85.2158 24.6496 85.2108 24.6481 85.2059 24.6467C85.1924 24.6429 85.1791 24.639 85.1659 24.635L85.1405 24.6272C85.1307 24.6242 85.121 24.6211 85.1113 24.618L85.0822 24.6086L85.0698 24.6045L85.0574 24.6003C85.0464 24.5965 85.0353 24.5927 85.0244 24.5889C85.0139 24.5852 85.0034 24.5814 84.9929 24.5776C84.986 24.5751 84.9792 24.5726 84.9725 24.5701C84.9626 24.5664 84.9528 24.5627 84.9429 24.5589L84.9129 24.5472C84.9035 24.5435 84.8942 24.5397 84.885 24.536C84.8777 24.533 84.8704 24.53 84.8632 24.527C84.8314 24.5137 84.8 24.5 84.7691 24.4857C84.7638 24.4833 84.7586 24.4809 84.7535 24.4785C84.7238 24.4647 84.6944 24.4503 84.6654 24.4355L84.6599 24.4327L84.646 24.4256C84.6323 24.4184 84.6186 24.4112 84.6051 24.4038C84.6037 24.4031 84.6023 24.4023 84.6008 24.4015C84.5698 24.3846 84.5391 24.3672 84.5089 24.3492C84.4903 24.3381 84.4718 24.3268 84.4535 24.3153L84.4516 24.314C84.3568 24.2543 84.2667 24.189 84.1811 24.1183C84.1742 24.1125 84.1672 24.1067 84.1603 24.1009C84.1237 24.0699 84.0879 24.0379 84.053 24.0049C84.0462 23.9985 84.0395 23.9921 84.0328 23.9856C84.0262 23.9792 84.0195 23.9727 84.0129 23.9662C84.0077 23.961 84.0024 23.9557 83.9971 23.9505C83.9911 23.9444 83.9851 23.9384 83.9792 23.9323L83.9676 23.9204C83.9646 23.9172 83.9615 23.914 83.9585 23.9108C83.9498 23.9018 83.9412 23.8926 83.9327 23.8834C83.9263 23.8765 83.9198 23.8695 83.9134 23.8624C83.9084 23.8569 83.9035 23.8514 83.8985 23.8459C83.8918 23.8383 83.885 23.8307 83.8784 23.823C83.8722 23.8159 83.866 23.8088 83.8599 23.8016C83.8529 23.7934 83.846 23.7852 83.8391 23.777C83.8328 23.7694 83.8264 23.7617 83.8202 23.754C83.8172 23.7503 83.8142 23.7466 83.8112 23.7429C83.7908 23.7177 83.7709 23.692 83.7513 23.6659C83.747 23.6602 83.7426 23.6543 83.7382 23.6484C83.7296 23.6367 83.7212 23.625 83.7127 23.6132C83.7099 23.6093 83.7071 23.6053 83.7043 23.6013C83.6969 23.5909 83.6896 23.5804 83.6824 23.5699L83.669 23.5502C83.6633 23.5417 83.6575 23.5331 83.6519 23.5245L83.6361 23.5003L83.618 23.472C83.6138 23.4653 83.6096 23.4586 83.6055 23.4519C83.5982 23.4401 83.591 23.4282 83.5838 23.4163L83.5752 23.4019C83.5689 23.3913 83.5628 23.3807 83.5566 23.3701C83.5524 23.3628 83.5482 23.3554 83.544 23.348C83.5362 23.3342 83.5286 23.3206 83.5211 23.3068C83.5196 23.304 83.5181 23.3013 83.5166 23.2986C83.5011 23.27 83.4859 23.2409 83.471 23.2115C83.4587 23.1869 83.4465 23.1621 83.4346 23.137L83.4293 23.1256C83.4165 23.0985 83.404 23.071 83.3918 23.0431C83.3337 22.9106 83.2818 22.7706 83.2361 22.6231C83.2134 22.5495 83.1922 22.4742 83.1725 22.3969C83.1635 22.3613 83.1547 22.3251 83.1463 22.2886C83.139 22.2568 83.1319 22.2248 83.1251 22.1925C83.1218 22.1769 83.1185 22.1612 83.1154 22.1455L83.1097 22.1169C83.102 22.0777 83.0947 22.0381 83.0877 21.9981C83.0863 21.9898 83.0849 21.9816 83.0835 21.9734L83.0775 21.9373C83.0716 21.9014 83.066 21.8651 83.0607 21.8285C83.0549 21.7884 83.0494 21.7478 83.0442 21.7068C83.0427 21.6948 83.0413 21.6828 83.0398 21.6707C83.0377 21.653 83.0356 21.6353 83.0336 21.6175C83.0329 21.6111 83.0322 21.6049 83.0315 21.5986L83.0274 21.5594C83.0206 21.494 83.0147 21.4277 83.0095 21.3604C83.0045 21.2938 83.0002 21.2262 82.9968 21.1577C82.996 21.1435 82.9954 21.1293 82.9947 21.115C82.9916 21.0469 82.9893 20.9778 82.9878 20.9079C82.9868 20.8604 82.9861 20.8123 82.9858 20.7639C82.9856 20.726 82.9855 20.6877 82.9857 20.6491L82.9858 20.6357C82.9866 20.5195 82.9894 20.4009 82.9942 20.2799L82.9982 20.1887V12.3556H80.9892L81.0084 12.2616C81.1308 11.6368 81.1308 11.0438 81.0084 10.4814L80.9892 10.3972H82.9982V7.0573C84.2626 6.52032 85.5657 5.90497 86.9051 5.21404ZM74.6173 10.167C79.1557 10.3218 81.5 12.6635 81.65 17.1941C81.4266 22.1094 79.082 24.6415 74.6173 24.7964C70.0773 24.6415 67.7338 22.3398 67.5854 17.8847C67.8087 12.9714 70.1524 10.3972 74.6173 10.167ZM95.9556 10.167C100.493 10.3218 102.838 12.6635 102.987 17.1941C102.764 22.1094 100.42 24.6415 95.9556 24.7964C91.4155 24.6415 89.0716 22.3398 88.9227 17.8847C89.1461 12.9714 91.4907 10.3972 95.9556 10.167ZM68.1342 10.167C67.9842 11.5492 67.948 12.894 68.0231 14.1985L67.7996 14.4294C67.3733 14.1373 66.9124 13.9832 66.419 13.9698L66.3484 13.9688L66.2814 13.9693C64.9055 13.9897 64.0349 14.6423 63.6693 15.9264C63.5224 16.5295 63.4492 17.6474 63.4463 19.2795L63.4462 24.5664H59.5398V10.3972C60.2092 10.4746 60.8795 10.5125 61.5487 10.5125L61.7154 10.5117C62.263 10.5065 62.784 10.4754 63.2813 10.4175L63.4462 10.3972V14.0831L63.4695 14.0028C64.2215 11.4467 65.7763 10.167 68.1342 10.167ZM74.7293 11.4341C72.7932 11.4341 71.8272 13.5471 71.8272 17.7695C71.8272 21.6862 72.7563 23.6447 74.6173 23.6447C76.4033 23.569 77.3332 21.2653 77.408 16.7334C77.408 13.202 76.5153 11.4341 74.7293 11.4341ZM96.0666 11.4341C94.131 11.4341 93.1645 13.5471 93.1645 17.7695C93.1645 21.6862 94.0944 23.6447 95.9556 23.6447C97.7414 23.569 98.6708 21.2653 98.7453 16.7334C98.7453 13.202 97.8524 11.4341 96.0666 11.4341ZM110.698 10.167C112.668 10.167 114.278 10.5734 115.533 11.384L115.61 11.4341L114.494 14.544H113.824C113.455 12.5738 112.509 11.5384 110.982 11.4376L110.922 11.4341L110.857 11.4393C110.815 11.4431 110.772 11.4476 110.73 11.4529C110.698 11.4569 110.666 11.4614 110.634 11.4663C110.593 11.4726 110.553 11.4795 110.514 11.4871C110.436 11.502 110.359 11.5195 110.284 11.5397C110.252 11.5484 110.22 11.5576 110.188 11.5673C110.187 11.5677 110.185 11.5681 110.184 11.5686L110.188 11.5673C110.169 11.5731 110.15 11.579 110.132 11.5851L110.184 11.5686C110.135 11.5834 110.088 11.5993 110.041 11.6164C110.034 11.6189 110.027 11.6215 110.02 11.6241L110.041 11.6164C110.022 11.6231 110.004 11.6299 109.985 11.637L110.02 11.6241C110.002 11.6308 109.984 11.6376 109.966 11.6446L109.985 11.637C109.97 11.643 109.954 11.649 109.939 11.6552L109.966 11.6446C109.928 11.6594 109.891 11.675 109.854 11.6914C109.807 11.712 109.761 11.7339 109.716 11.7569C109.709 11.7603 109.702 11.7637 109.696 11.7672L109.716 11.7569C109.697 11.7663 109.679 11.7758 109.661 11.7855L109.696 11.7672C109.679 11.7759 109.662 11.7847 109.646 11.7937L109.661 11.7855C109.647 11.793 109.633 11.8007 109.619 11.8085L109.646 11.7937C109.61 11.8131 109.575 11.8331 109.54 11.854C109.53 11.86 109.52 11.8661 109.51 11.8723L109.54 11.854C109.524 11.8637 109.508 11.8736 109.492 11.8837L109.51 11.8723C109.494 11.8818 109.479 11.8915 109.464 11.9012L109.492 11.8837C109.475 11.8941 109.458 11.9048 109.442 11.9156L109.464 11.9012C109.446 11.9125 109.429 11.9239 109.412 11.9356L109.442 11.9156C109.426 11.926 109.41 11.9365 109.395 11.9473L109.412 11.9356C109.395 11.947 109.378 11.9586 109.361 11.9704L109.395 11.9473C109.378 11.9583 109.362 11.9695 109.346 11.9809L109.361 11.9704C109.347 11.9806 109.332 11.991 109.318 12.0015L109.346 11.9809C109.329 11.9932 109.312 12.0057 109.295 12.0184L109.318 12.0015C109.302 12.0131 109.286 12.0248 109.271 12.0367L109.295 12.0184C109.28 12.0296 109.265 12.0409 109.25 12.0524L109.271 12.0367C109.253 12.0503 109.235 12.0641 109.218 12.0782L109.25 12.0524C109.234 12.0651 109.218 12.0779 109.202 12.091L109.218 12.0782C109.203 12.09 109.188 12.1021 109.173 12.1143L109.202 12.091C109.187 12.1033 109.172 12.1157 109.157 12.1283L109.173 12.1143C109.144 12.1386 109.115 12.1635 109.087 12.1891L109.114 12.1649C109.096 12.1809 109.078 12.197 109.06 12.2134L109.087 12.1891C109.072 12.2024 109.057 12.2159 109.042 12.2295L109.06 12.2134C109.046 12.2259 109.033 12.2385 109.019 12.2512L109.042 12.2295C109.028 12.2428 109.014 12.2562 109 12.2697L109.019 12.2512C109.004 12.2656 108.989 12.2802 108.974 12.295L109 12.2697C108.973 12.2963 108.945 12.3235 108.919 12.3513C108.907 12.3631 108.896 12.3749 108.885 12.3869L108.919 12.3513C108.872 12.3995 108.827 12.4495 108.782 12.5015C108.777 12.508 108.771 12.5146 108.765 12.5211L108.782 12.5015C108.767 12.5191 108.752 12.537 108.737 12.5551L108.765 12.5211C108.752 12.5372 108.739 12.5534 108.725 12.5698L108.737 12.5551C108.725 12.5702 108.712 12.5856 108.7 12.6011L108.725 12.5698C108.712 12.586 108.699 12.6023 108.686 12.6189L108.7 12.6011C108.688 12.616 108.676 12.631 108.665 12.6461L108.686 12.6189C108.657 12.656 108.628 12.6939 108.6 12.7328C108.595 12.7392 108.59 12.7458 108.586 12.7524L108.6 12.7328C108.59 12.747 108.579 12.7613 108.569 12.7758L108.586 12.7524C108.573 12.7702 108.56 12.7882 108.548 12.8063L108.569 12.7758C108.554 12.7964 108.54 12.8171 108.526 12.8382L108.548 12.8063C108.535 12.8239 108.523 12.8416 108.511 12.8595L108.526 12.8382C108.514 12.8556 108.502 12.8732 108.491 12.8909L108.511 12.8595C108.499 12.8776 108.487 12.8959 108.475 12.9144L108.491 12.8909C108.467 12.9275 108.443 12.9648 108.42 13.0028C108.39 13.0511 108.361 13.1006 108.332 13.1511C108.327 13.1613 108.321 13.1714 108.315 13.1816L108.332 13.1511C108.297 13.2135 108.263 13.2775 108.23 13.3433C108.224 13.3541 108.219 13.3649 108.213 13.3757L108.23 13.3433C108.22 13.3617 108.211 13.3803 108.202 13.3989L108.213 13.3757C108.17 13.4627 108.128 13.5525 108.088 13.6453C108.074 13.6774 108.061 13.7098 108.047 13.7425C108.013 13.8262 107.979 13.9121 107.947 14.0003C107.927 14.0566 107.907 14.1138 107.887 14.1719C107.88 14.1934 107.873 14.215 107.866 14.2368C107.865 14.2402 107.864 14.2437 107.862 14.2473L107.866 14.2368C107.859 14.2579 107.852 14.2793 107.845 14.3007C107.841 14.3156 107.836 14.3307 107.831 14.3458L107.845 14.3007C107.828 14.354 107.812 14.4082 107.796 14.463C107.792 14.4762 107.788 14.4895 107.784 14.5028L107.796 14.463C107.789 14.488 107.781 14.5132 107.774 14.5386L107.784 14.5028C107.769 14.5563 107.754 14.6105 107.739 14.6655C107.728 14.7079 107.717 14.7507 107.706 14.794C107.689 14.8646 107.671 14.9364 107.655 15.0093C107.654 15.0149 107.652 15.0205 107.651 15.0262L107.655 15.0093C107.642 15.0678 107.629 15.1269 107.616 15.1868C107.612 15.2085 107.607 15.2303 107.603 15.2522L107.616 15.1868C107.597 15.2793 107.579 15.3734 107.561 15.4692C107.534 15.6195 107.509 15.7742 107.486 15.933L107.484 15.9459C107.479 15.9783 107.475 16.0109 107.47 16.0437C107.417 16.4397 107.376 16.8614 107.35 17.3086C107.35 21.1495 108.8 23.0686 111.703 23.0686L111.788 23.0625L111.789 23.0623C111.83 23.0591 111.871 23.0553 111.912 23.0511C111.955 23.0466 111.998 23.0416 112.04 23.0361C112.063 23.0332 112.084 23.0302 112.106 23.0271L112.04 23.0361C112.067 23.0326 112.094 23.0289 112.121 23.025L112.106 23.0271C112.13 23.0237 112.154 23.0201 112.178 23.0164L112.121 23.025C112.149 23.0209 112.177 23.0166 112.205 23.012L112.178 23.0164C112.199 23.013 112.22 23.0095 112.241 23.0059L112.205 23.012C112.234 23.0071 112.264 23.002 112.293 22.9966L112.241 23.0059C112.26 23.0026 112.279 22.9992 112.298 22.9956L112.293 22.9966C112.346 22.987 112.397 22.9766 112.449 22.9654C112.463 22.9623 112.477 22.9591 112.492 22.9558L112.449 22.9654C112.477 22.9593 112.504 22.953 112.532 22.9464L112.492 22.9558C112.52 22.9494 112.548 22.9426 112.576 22.9356L112.532 22.9464C112.556 22.9407 112.58 22.9347 112.604 22.9286L112.576 22.9356C112.603 22.9291 112.629 22.9224 112.655 22.9155L112.604 22.9286C112.632 22.9214 112.66 22.914 112.688 22.9063L112.655 22.9155C112.676 22.9098 112.697 22.904 112.718 22.8981L112.688 22.9063C112.717 22.8985 112.745 22.8904 112.773 22.8821L112.718 22.8981C112.747 22.8898 112.776 22.8812 112.805 22.8723L112.773 22.8821C112.795 22.8757 112.816 22.8691 112.838 22.8623L112.805 22.8723C112.833 22.8638 112.861 22.855 112.889 22.846L112.838 22.8623C112.864 22.854 112.89 22.8455 112.916 22.8368L112.889 22.846C112.914 22.8378 112.938 22.8295 112.963 22.8209L112.916 22.8368C112.943 22.828 112.969 22.8189 112.995 22.8096L112.963 22.8209C112.985 22.8133 113.007 22.8056 113.029 22.7976L112.995 22.8096C113.022 22.8001 113.049 22.7903 113.075 22.7803L113.029 22.7976C113.054 22.7883 113.08 22.7788 113.105 22.769L113.075 22.7803C113.1 22.7711 113.124 22.7617 113.148 22.7521L113.105 22.769C113.129 22.7595 113.154 22.7499 113.178 22.74L113.148 22.7521C113.174 22.7418 113.199 22.7313 113.225 22.7206L113.178 22.74C113.203 22.7298 113.228 22.7194 113.253 22.7088L113.225 22.7206C113.248 22.7109 113.271 22.701 113.294 22.6909L113.253 22.7088C113.282 22.6962 113.311 22.6833 113.34 22.6702L113.294 22.6909C113.314 22.6818 113.335 22.6726 113.355 22.6632L113.34 22.6702C113.362 22.6599 113.385 22.6495 113.407 22.6389L113.355 22.6632C113.383 22.6503 113.411 22.6372 113.438 22.6238L113.407 22.6389C113.429 22.6283 113.451 22.6175 113.473 22.6065L113.438 22.6238C113.465 22.611 113.491 22.5978 113.517 22.5844L113.473 22.6065C113.495 22.5958 113.516 22.5849 113.538 22.5738L113.517 22.5844C113.563 22.5606 113.61 22.5359 113.655 22.5103C113.667 22.5036 113.679 22.4969 113.691 22.4902L113.655 22.5103C113.674 22.5001 113.692 22.4896 113.71 22.4791L113.691 22.4902C113.715 22.4764 113.739 22.4625 113.762 22.4483L113.71 22.4791C113.739 22.4623 113.768 22.4452 113.797 22.4277L113.762 22.4483C113.78 22.4378 113.798 22.4271 113.815 22.4164L113.797 22.4277C113.82 22.4136 113.842 22.3994 113.865 22.3849L113.815 22.4164C113.843 22.399 113.871 22.3813 113.899 22.3633L113.865 22.3849C113.883 22.3735 113.901 22.3619 113.919 22.3501L113.899 22.3633C113.921 22.3491 113.942 22.3347 113.964 22.3201L113.919 22.3501C113.939 22.3367 113.96 22.3231 113.98 22.3093L113.964 22.3201C113.987 22.305 114.009 22.2896 114.031 22.2739L113.98 22.3093C114.004 22.2928 114.028 22.276 114.053 22.2589L114.031 22.2739C114.051 22.2604 114.07 22.2466 114.089 22.2327L114.053 22.2589C114.077 22.2412 114.102 22.2231 114.127 22.2048L114.089 22.2327C114.113 22.2155 114.137 22.1979 114.16 22.1801L114.127 22.2048C114.148 22.1889 114.17 22.1728 114.191 22.1565L114.16 22.1801C114.181 22.1639 114.203 22.1476 114.224 22.131L114.191 22.1565C114.215 22.1382 114.238 22.1196 114.262 22.1008L114.224 22.131C114.244 22.1148 114.265 22.0985 114.286 22.0819L114.262 22.1008C114.282 22.0844 114.303 22.0679 114.323 22.0511L114.286 22.0819C114.307 22.0647 114.328 22.0472 114.349 22.0296L114.323 22.0511C114.414 21.9756 114.503 21.896 114.59 21.8123C114.633 21.7713 114.675 21.7292 114.717 21.6862L115.163 22.0318L114.494 23.8748C113.674 24.4131 112.409 24.719 110.698 24.7964C105.86 24.6415 103.367 22.3017 103.22 17.7695C103.443 12.9316 105.935 10.3972 110.698 10.167ZM122.093 10.167C126.631 10.3218 128.974 12.6635 129.125 17.1941C128.902 22.1094 126.558 24.6415 122.093 24.7964C117.553 24.6415 115.208 22.3398 115.06 17.8847C115.283 12.9714 117.628 10.3972 122.093 10.167ZM122.204 11.4341C120.268 11.4341 119.302 13.5471 119.302 17.7695C119.302 21.6862 120.232 23.6447 122.093 23.6447C123.879 23.569 124.808 21.2653 124.883 16.7334C124.883 13.202 123.99 11.4341 122.204 11.4341ZM132.929 2.44963H132.036C131.813 2.44963 131.478 2.41126 131.032 2.33404H130.027V24.5664H133.934V2.33404C133.71 2.33404 133.375 2.37387 132.929 2.44963Z" fill="#2F6AFE" style="fill:#2F6AFE;fill:color(display-p3 0.1843 0.4157 0.9961);fill-opacity:1;"/>
</svg>
