<svg width="94" height="32" viewBox="0 0 94 32" fill="none" xmlns="http://www.w3.org/2000/svg">
<g clip-path="url(#clip0_582_12915)">
<path d="M93.98 16.6574C93.98 20.7239 91.3854 23.4681 87.7283 23.4681C84.0711 23.4681 81.4766 20.7239 81.4766 16.6574C81.4766 12.5909 84.0711 9.84668 87.7283 9.84668C91.3854 9.84668 93.98 12.5909 93.98 16.6574ZM84.4665 16.6574C84.4665 19.3268 85.7267 20.9484 87.7283 20.9484C89.7298 20.9484 90.99 19.3268 90.99 16.6574C90.99 13.988 89.7298 12.3664 87.7283 12.3664C85.7267 12.3664 84.4665 13.988 84.4665 16.6574Z" fill="white" style="fill:white;fill-opacity:1;"/>
<path d="M77.2752 23.1936V21.3475C76.5585 22.5451 74.8289 23.468 72.5061 23.468C67.91 23.468 64.5 19.7259 64.5 14.3123C64.5 8.87372 67.9346 5.00684 72.7038 5.00684C76.3362 5.00684 78.7825 6.97771 79.8697 10.1461L76.8551 11.1689C76.3362 9.04835 74.8535 7.82591 72.7285 7.82591C69.7385 7.82591 67.6629 10.3955 67.6629 14.2624C67.6629 18.1292 69.7385 20.7238 72.7779 20.7238C75.3478 20.7238 77.028 18.8778 77.1269 16.333H72.4567V13.5389H80.1663V23.1936H77.2752Z" fill="white" style="fill:white;fill-opacity:1;"/>
<path d="M57.9541 19.9002V12.6405H56.1504V10.0958H57.9541V6.25391H60.87V10.0958H63.5882V12.6405H60.87V19.4263C60.87 20.5988 61.5372 20.7235 62.5996 20.7235C63.0939 20.7235 63.3657 20.6986 63.8105 20.6487V23.1683C63.2668 23.2682 62.5256 23.343 61.7595 23.343C59.2885 23.343 57.9541 22.5696 57.9541 19.9002Z" fill="white" style="fill:white;fill-opacity:1;"/>
<path d="M52.1191 8.35028V5.28174H55.1832V8.35028H52.1191ZM55.1337 10.0966V23.1941H52.1686V10.0966H55.1337Z" fill="white" style="fill:white;fill-opacity:1;"/>
<path d="M37.4609 23.1941V5.28174H44.5033C48.3087 5.28174 50.3349 6.95322 50.3349 9.99683C50.3349 12.2172 49.0502 13.3647 47.8146 13.8637C49.6679 14.4625 50.9033 16.0092 50.9033 18.2045C50.9033 21.348 48.6053 23.1941 44.9482 23.1941H37.4609ZM40.5003 12.6912H44.2069C46.2331 12.6912 47.3452 11.8929 47.3452 10.3211C47.3452 8.74944 46.2331 7.97607 44.2069 7.97607H40.5003V12.6912ZM40.5003 15.3855V20.4998H44.7752C46.7768 20.4998 47.8641 19.452 47.8641 17.9301C47.8641 16.4333 46.7768 15.3855 44.7752 15.3855H40.5003Z" fill="white" style="fill:white;fill-opacity:1;"/>
<path fill-rule="evenodd" clip-rule="evenodd" d="M27.1035 18.1316C27.1035 25.5116 13.5952 31.9363 13.5952 31.9363C13.5952 31.9363 0.0867665 25.5116 0.0867665 18.1316C0.0867665 16.2153 0.0875449 14.5235 0.0882889 12.906C0.0897683 9.69025 0.0911127 6.76808 0.0859375 2.95811C8.66351 -0.977791 18.528 -0.973706 27.1035 2.96671V18.1316ZM12.5407 5.28036H10.7977V7.01384H9.05465V21.4619H10.7977V23.1958H12.5407V21.4619H14.2837V23.1958H16.0267V21.2953C18.2413 20.8269 19.5127 19.393 19.5127 17.264C19.5127 15.7764 18.5542 14.4314 16.9142 14.0035C18.3625 13.5756 19.1933 12.3325 19.1933 10.9468C19.1933 8.97512 18.0046 7.59258 16.0267 7.15867V5.28036H14.2837V7.01384H12.5407V5.28036ZM14.0813 9.2758C15.551 9.2758 16.403 9.94827 16.403 11.0894C16.403 12.2306 15.5936 12.9031 14.2304 12.9031H11.781V9.2758H14.0813ZM14.2517 15.1039C15.8918 15.1039 16.7225 15.7764 16.7225 17.1213C16.7225 18.344 15.7214 19.098 14.1026 19.098H11.781V15.1039H14.2517Z" fill="white" style="fill:white;fill-opacity:1;"/>
</g>
<defs>
<clipPath id="clip0_582_12915">
<rect width="94" height="32" fill="white" style="fill:white;fill-opacity:1;"/>
</clipPath>
</defs>
</svg>
