<svg xmlns="http://www.w3.org/2000/svg" width="807" height="256" fill="none"><path fill="#00AEEF" d="M126.666 220s78.665-26.764 78.665-125.06V59.556c0-3.879-3.016-6.99-6.799-7.23-14.268-.718-48.118-3.591-71.866-16.327-23.701 12.736-57.6 15.609-71.867 16.279-3.783.287-6.799 3.4-6.799 7.278v35.382C48 193.236 126.666 220 126.666 220Z"/><path fill="#fff" d="M158.457 107.867c-.957-10.725-10.15-14.412-21.832-15.513l.047-14.986-9.049.047.048 14.508c-2.394 0-4.931 0-7.373.048v-14.7l-9.145.049.048 14.89c-1.963.048-18.29.048-18.29.048v9.528h11.587l-.048 47.879-10.15.048-.096 10.917s14.363-.048 16.47-.048l.048 15.082 9.001.048.096-14.987c2.49.048 4.884.096 7.23.144l-.048 14.843h9.145l-.048-14.987c15.225-.766 25.95-4.548 27.387-18.816 1.149-11.539-4.214-16.71-12.88-18.817 5.267-2.681 8.571-7.373 7.852-15.225Zm-12.879 32.079c-.096 11.251-19.152 9.863-25.328 9.815l-.048-19.966c6.176.048 25.472-1.58 25.376 10.151Zm-4.022-28.153c-.096 10.246-15.992 8.953-21.067 8.905l-.048-18.098c5.076 0 21.163-1.484 21.115 9.193Z"/><path fill="white" d="M361.753 157.948c0 7.853-1.533 14.412-4.645 19.727-3.112 5.314-7.229 9.623-12.353 12.831-5.123 3.256-10.964 5.554-17.523 6.991-6.56 1.436-13.263 2.106-20.158 2.106h-57.072V56.349h57.072c5.554 0 11.204.574 16.998 1.723 5.793 1.15 11.06 3.112 15.8 5.89 4.74 2.776 8.57 6.511 11.539 11.251 2.968 4.74 4.452 10.725 4.452 18.003 0 7.948-2.154 14.555-6.463 19.726-4.309 5.219-10.007 8.953-16.997 11.252v.383a39.16 39.16 0 0 1 11.443 3.734c3.591 1.82 6.703 4.166 9.288 6.991 2.634 2.824 4.74 6.128 6.272 9.911 1.581 3.782 2.347 8.043 2.347 12.735ZM322.492 97.86c0-4.836-1.868-8.379-5.554-10.63-3.735-2.25-9.193-3.35-16.519-3.35h-16.997v29.541h18.625c6.464 0 11.491-1.293 15.082-3.926 3.591-2.634 5.363-6.512 5.363-11.635Zm4.644 56.881c0-5.938-2.203-10.055-6.703-12.353-4.453-2.299-10.39-3.448-17.811-3.448h-19.248v32.798h19.439c2.681 0 5.506-.24 8.379-.719 2.921-.478 5.554-1.292 7.9-2.537 2.346-1.197 4.261-2.921 5.746-5.171 1.58-2.203 2.298-5.075 2.298-8.57ZM407.765 66.69c0 2.586-.527 4.98-1.533 7.183-1.005 2.25-2.346 4.165-4.069 5.745-1.676 1.628-3.735 2.92-6.081 3.83a19.445 19.445 0 0 1-7.373 1.437c-5.411 0-9.911-1.772-13.55-5.363-3.639-3.59-5.458-7.852-5.458-12.831 0-2.442.478-4.74 1.436-6.99.957-2.251 2.298-4.166 4.07-5.746 1.771-1.628 3.782-2.92 6.08-3.926 2.298-1.006 4.788-1.533 7.469-1.533 2.586 0 5.028.48 7.374 1.437 2.346.957 4.405 2.202 6.081 3.83 1.675 1.628 3.016 3.543 4.069 5.746 1.006 2.202 1.485 4.596 1.485 7.182Zm-35.623 132.961V98.865h33.181v100.786h-33.181ZM465.507 123.571v38.591c0 4.74.91 8.283 2.729 10.677 1.82 2.394 5.076 3.543 9.816 3.543 1.628 0 3.351-.144 5.171-.383 1.819-.287 3.351-.67 4.548-1.197l.383 24.275c-2.298.814-5.171 1.532-8.714 2.106-3.495.623-7.038.91-10.533.91-6.751 0-12.401-.862-16.997-2.537-4.597-1.676-8.284-4.118-11.013-7.326-2.777-3.16-4.74-6.99-5.985-11.347-1.197-4.405-1.819-9.289-1.819-14.699v-42.613H416.91V98.865h15.992V72.34h32.605v26.525h23.701v24.706h-23.701ZM609.336 199.843c-9.384 2.298-19.582 3.447-30.69 3.447-11.491 0-22.025-1.819-31.696-5.458-9.672-3.639-17.955-8.762-24.897-15.369-6.943-6.608-12.401-14.556-16.279-23.796-3.926-9.241-5.89-19.535-5.89-30.882 0-11.491 2.011-21.881 5.985-31.17 3.974-9.288 9.48-17.236 16.519-23.796 6.99-6.56 15.225-11.587 24.705-15.082 9.433-3.495 19.631-5.267 30.547-5.267 11.348 0 21.881 1.724 31.601 5.171 9.719 3.448 17.619 8.044 23.7 13.885L611.06 96.424c-3.399-3.927-7.852-7.134-13.358-9.624-5.554-2.49-11.826-3.735-18.817-3.735-6.08 0-11.682 1.102-16.805 3.352a40.176 40.176 0 0 0-13.359 9.288c-3.782 3.974-6.703 8.714-8.809 14.173-2.107 5.458-3.16 11.443-3.16 17.907 0 6.607.957 12.688 2.824 18.242 1.868 5.554 4.693 10.294 8.379 14.268 3.687 3.974 8.283 7.086 13.742 9.288 5.458 2.25 11.682 3.352 18.72 3.352 4.07 0 7.9-.288 11.539-.91 3.639-.622 7.039-1.58 10.103-2.921V143.01H574.72v-27.913h59.131v75.888c-6.943 3.591-15.13 6.56-24.515 8.858ZM758.72 148.851c0 8.236-1.484 15.705-4.453 22.36-2.968 6.703-7.038 12.353-12.161 16.997-5.123 4.645-11.06 8.283-17.811 10.821-6.751 2.585-13.981 3.83-21.642 3.83-7.565 0-14.746-1.292-21.545-3.83-6.799-2.586-12.736-6.176-17.811-10.821-5.076-4.644-9.097-10.342-12.066-16.997-2.968-6.703-4.453-14.124-4.453-22.36 0-8.235 1.485-15.656 4.453-22.263 2.969-6.608 6.99-12.21 12.066-16.806 5.075-4.596 11.012-8.092 17.811-10.533 6.799-2.442 13.98-3.64 21.545-3.64 7.709 0 14.891 1.198 21.642 3.64 6.751 2.441 12.688 5.937 17.811 10.533 5.123 4.596 9.193 10.198 12.161 16.806 2.969 6.607 4.453 14.028 4.453 22.263Zm-31.983 0c0-3.255-.527-6.415-1.628-9.527-1.101-3.113-2.634-5.842-4.645-8.188-2.01-2.346-4.5-4.261-7.469-5.745-2.968-1.485-6.416-2.203-10.342-2.203s-7.373.766-10.341 2.203c-2.969 1.484-5.411 3.399-7.374 5.745s-3.447 5.075-4.453 8.188c-1.005 3.112-1.532 6.272-1.532 9.527 0 3.256.527 6.416 1.532 9.528a25.878 25.878 0 0 0 4.549 8.379c2.011 2.49 4.5 4.501 7.469 5.985 2.969 1.484 6.416 2.251 10.342 2.251s7.373-.719 10.342-2.251c2.968-1.484 5.458-3.495 7.469-5.985a26.382 26.382 0 0 0 4.549-8.379c1.053-3.112 1.532-6.272 1.532-9.528Z"/></svg>