<svg width="40" height="40" viewBox="0 0 40 40" fill="none" xmlns="http://www.w3.org/2000/svg">
<g clip-path="url(#clip0_582_17746)">
<path d="M20 40C31.0457 40 40 31.0457 40 20C40 8.9543 31.0457 0 20 0C8.9543 0 0 8.9543 0 20C0 31.0457 8.9543 40 20 40Z" fill="#FDDE00" style="fill:#FDDE00;fill:color(display-p3 0.9922 0.8706 0.0000);fill-opacity:1;"/>
<path d="M10.2656 14.1406C10.2656 14.1406 9.23437 15.4453 9.57812 21.3438C9.57812 21.3438 7.32031 27.125 8.08593 30.0781C8.85156 33.0234 11.8359 32.875 11.8359 32.875C11.8359 32.875 16.625 37.0859 20.2969 33.375C23.9766 29.6562 17.2344 15.2578 17.2344 15.2578L16.3906 10.2812C16.3906 10.2812 15.4687 11.0078 15.5859 15.7969C15.7031 20.5859 13.7109 17.2109 13.7109 17.2109L10.2656 14.1406Z" fill="#3C2D0C" style="fill:#3C2D0C;fill:color(display-p3 0.2353 0.1765 0.0471);fill-opacity:1;"/>
<path d="M10.6484 19.3515L9.3828 22.914L8.92186 25.4062C8.92186 25.4062 7.35155 30.9609 13.8281 30.8828C13.8281 30.8828 18.8828 35.4062 22.1797 32.375L23.0625 31.414L24.5937 29.039L27.125 21.4922C27.125 21.4922 26.3203 16.3203 21.2265 14.1797C21.2265 14.1797 20.8047 13.9531 20.039 14.2578C20.039 14.2578 17.9297 9.50778 16.5937 10.0859C16.5937 10.0859 15.4453 10.6953 16.4375 15.375L14.6406 16.1797C14.6406 16.1797 12.6719 12.4453 10.8515 13.1953C9.15623 13.875 10.6484 19.3515 10.6484 19.3515Z" fill="#E78C19" style="fill:#E78C19;fill:color(display-p3 0.9059 0.5490 0.0980);fill-opacity:1;"/>
<path d="M17.1952 12.4142L17.3514 14.4845C17.3514 14.4845 17.4686 15.672 18.7264 15.2501C19.0858 15.1329 19.3983 14.8829 19.3671 14.4767C19.3436 14.172 19.1327 13.8907 18.9921 13.6329C18.7343 13.1407 18.5233 12.6173 18.2186 12.1407C18.0624 11.8986 17.7421 11.3595 17.3905 11.422C17.3905 11.422 17.1249 11.3439 17.1952 12.4142Z" fill="#EFB99D" style="fill:#EFB99D;fill:color(display-p3 0.9373 0.7255 0.6157);fill-opacity:1;"/>
<path d="M11.664 14.7422C11.6875 14.7266 12.2031 14.0781 13.2734 15.6562C14.3437 17.2344 14.2343 17.0312 14.2343 17.0312C14.2343 17.0312 14.8125 17.6641 13.6328 18.4766C13.375 18.6641 13.0937 18.8203 12.7968 18.9453C12.6093 19.0156 12.414 19.0547 12.2187 19.0547C11.9922 19.0469 11.8906 18.9297 11.8359 18.7187C11.6562 18.0312 11.4531 17.3437 11.3515 16.6406C11.2734 16.0937 11.1172 15.0937 11.664 14.7422Z" fill="#EFB99D" style="fill:#EFB99D;fill:color(display-p3 0.9373 0.7255 0.6157);fill-opacity:1;"/>
<path d="M24.1016 17.9219C24.1016 18.2969 23.5547 18.6016 22.875 18.6016C22.1953 18.6016 21.6484 18.2969 21.6484 17.9219C21.6484 17.5469 22.2109 16.9922 22.8828 16.9922C23.5547 16.9922 24.1016 17.5469 24.1016 17.9219Z" fill="#FBFBFB" style="fill:#FBFBFB;fill:color(display-p3 0.9843 0.9843 0.9843);fill-opacity:1;"/>
<path d="M17.0278 20.8564C17.3912 20.2143 17.3509 19.5043 16.9378 19.2705C16.5248 19.0368 15.8953 19.3678 15.532 20.0099C15.1686 20.6521 15.2089 21.3621 15.6219 21.5958C16.035 21.8296 16.6644 21.4985 17.0278 20.8564Z" fill="#FBFBFB" style="fill:#FBFBFB;fill:color(display-p3 0.9843 0.9843 0.9843);fill-opacity:1;"/>
<path d="M18.7655 23.961L22.1171 22.2188C22.1171 22.2188 26.289 20.0391 27.3046 21.7188C28.3202 23.3985 27.3046 25.9688 27.3046 25.9688C27.3046 25.9688 26.8671 28.9766 23.7968 29.2422L22.1483 29.4688L20.039 29.5235C20.039 29.5235 16.6483 29.7188 14.1562 27.8751L13.3671 26.9141C13.3671 26.9141 11.7812 24.7344 12.8905 23.1641C13.9999 21.5938 17.7968 24.0235 17.7968 24.0235C17.7968 24.0235 18.328 24.3126 18.7655 23.961Z" fill="#FBFBFB" style="fill:#FBFBFB;fill:color(display-p3 0.9843 0.9843 0.9843);fill-opacity:1;"/>
<path d="M26.3672 15.2734C26.8116 15.2734 27.1719 14.9132 27.1719 14.4688C27.1719 14.0243 26.8116 13.6641 26.3672 13.6641C25.9228 13.6641 25.5625 14.0243 25.5625 14.4688C25.5625 14.9132 25.9228 15.2734 26.3672 15.2734Z" fill="#E72D36" style="fill:#E72D36;fill:color(display-p3 0.9059 0.1765 0.2118);fill-opacity:1;"/>
<path d="M24.5859 13.2969C25.0304 13.2969 25.3906 12.9366 25.3906 12.4922C25.3906 12.0478 25.0304 11.6875 24.5859 11.6875C24.1415 11.6875 23.7812 12.0478 23.7812 12.4922C23.7812 12.9366 24.1415 13.2969 24.5859 13.2969Z" fill="#E72D36" style="fill:#E72D36;fill:color(display-p3 0.9059 0.1765 0.2118);fill-opacity:1;"/>
<path d="M21.7344 12.6641C22.1788 12.6641 22.5391 12.3038 22.5391 11.8594C22.5391 11.415 22.1788 11.0547 21.7344 11.0547C21.29 11.0547 20.9297 11.415 20.9297 11.8594C20.9297 12.3038 21.29 12.6641 21.7344 12.6641Z" fill="#E72D36" style="fill:#E72D36;fill:color(display-p3 0.9059 0.1765 0.2118);fill-opacity:1;"/>
<path d="M22.3672 6.15625C22.5391 8.53125 22.1953 10.6797 21.6172 10.6797C21.0391 10.6797 20.2734 8.35938 20.2734 6.15625C20.2734 5.25 20.75 5.10156 21.3281 5.10156C21.9141 5.10156 22.3047 5.25 22.3672 6.15625Z" fill="#E72D36" style="fill:#E72D36;fill:color(display-p3 0.9059 0.1765 0.2118);fill-opacity:1;"/>
<path d="M27.6952 7.63269C26.8202 9.84363 25.578 11.6327 25.0624 11.3827C24.5468 11.1327 24.8593 8.71082 25.8202 6.72644C26.2187 5.90613 26.7109 5.98426 27.2265 6.23426C27.7421 6.49207 28.0312 6.78894 27.6952 7.63269Z" fill="#E72D36" style="fill:#E72D36;fill:color(display-p3 0.9059 0.1765 0.2118);fill-opacity:1;"/>
<path d="M31.5078 11.9454C29.5781 13.3439 27.5781 14.1876 27.2734 13.6954C26.9687 13.2032 28.539 11.3361 30.4062 10.172C31.1796 9.69543 31.5546 10.0236 31.8593 10.5079C32.1562 11.0001 32.2421 11.4064 31.5078 11.9454Z" fill="#E72D36" style="fill:#E72D36;fill:color(display-p3 0.9059 0.1765 0.2118);fill-opacity:1;"/>
<path d="M18.6094 21.6249C18.5391 21.6327 18.4688 21.6405 18.3985 21.6483C18.4063 21.6718 18.4141 21.6952 18.4141 21.7265C18.4141 21.9686 18.0313 22.1718 17.5547 22.1874C17.5547 22.2108 17.5469 22.2265 17.5547 22.2499C17.5782 22.5468 18.0938 22.7499 18.6954 22.703C19.3047 22.6561 19.7813 22.3749 19.7579 22.078C19.7266 21.7811 19.2188 21.578 18.6094 21.6249Z" fill="black" style="fill:black;fill-opacity:1;"/>
<path d="M22.8438 20.578C22.7735 20.5858 22.7032 20.5936 22.6329 20.6015C22.6407 20.6249 22.6485 20.6483 22.6485 20.6796C22.6485 20.9218 22.2657 21.1249 21.7891 21.1405C21.7891 21.164 21.7813 21.1796 21.7891 21.203C21.8126 21.4999 22.3282 21.703 22.9297 21.6561C23.5391 21.6093 24.0157 21.328 23.9922 21.0311C23.9688 20.7343 23.4532 20.5311 22.8438 20.578Z" fill="black" style="fill:black;fill-opacity:1;"/>
<path d="M24.2344 21.8203C24.2344 21.8203 22.5547 22.3125 22.6563 23.2578C22.7578 24.2032 24.7813 24.6953 24.7813 24.6953C24.7813 24.6953 25.3282 24.9141 25.6407 24.3907C25.9532 23.875 26.4141 23.1719 26.2891 22.1641C26.2891 22.1641 26.25 21.4141 24.2344 21.8203Z" fill="black" style="fill:black;fill-opacity:1;"/>
</g>
<defs>
<clipPath id="clip0_582_17746">
<rect width="40" height="40" fill="white" style="fill:white;fill-opacity:1;"/>
</clipPath>
</defs>
</svg>
