<svg width="266" height="16" viewBox="0 0 266 16" fill="none" xmlns="http://www.w3.org/2000/svg">
<path d="M0 15.2901L1.1991 15.1329C2.47814 14.9363 2.63802 14.5825 2.63802 13.639V2.35648C2.63802 1.37368 2.51811 1.01987 1.1991 0.862619L0 0.705371V0.351562H7.07468C10.0325 0.351562 12.9902 1.17712 12.9902 3.88965C12.9902 6.05181 11.0317 7.19186 8.35372 7.54567V7.62429C11.5513 7.82085 13.7097 8.88227 13.7097 11.3589C13.7097 14.1894 11.1916 15.6439 7.3145 15.6439H0V15.2901ZM6.79489 7.42773C9.313 7.42773 10.2723 6.24837 10.2723 3.88965C10.2723 1.33436 9.15312 0.744683 6.83486 0.744683H5.15612V7.42773H6.79489ZM5.15612 13.9142C5.15612 14.8577 5.55582 15.2508 6.59504 15.2508H7.23456C9.63276 15.2508 10.7919 14.1501 10.7919 11.3589C10.7919 8.76434 9.313 7.82085 6.75492 7.82085H5.15612V13.9142Z" fill="#141C25"/>
<path d="M33.6549 15.6833C32.216 15.6833 32.0561 15.3688 31.5365 14.386L28.4189 8.41053C28.219 8.44984 28.0591 8.44984 27.8992 8.44984C27.2597 8.44984 26.6602 8.41053 26.1805 8.41053V13.6783C26.1805 14.6611 26.3004 15.015 27.6195 15.1722L28.8186 15.3294V15.6833C27.4596 15.6833 26.3004 15.6439 24.9415 15.6439C23.5825 15.6439 22.4234 15.6833 21.0244 15.6833V15.3294L22.2235 15.1722C23.5026 14.9756 23.6624 14.6218 23.6624 13.6783V2.35648C23.6624 1.37368 23.5425 1.01987 22.2235 0.862619L21.0244 0.705371V0.351562H27.7793C31.8563 0.351562 34.4543 1.4523 34.4543 4.36139C34.4543 6.56286 32.4958 7.6636 30.6572 8.01741C30.937 8.37122 31.2967 8.84296 31.6964 9.55058L33.7748 13.2459C34.4943 14.5432 34.7741 14.9363 35.8133 15.1722L36.6527 15.3688V15.7226H33.6549V15.6833ZM26.1805 7.9781C26.8201 8.01741 27.3397 8.01741 27.9392 8.01741C30.4573 8.01741 31.7364 6.9953 31.7364 4.4007C31.7364 1.57024 30.4174 0.705371 27.7793 0.705371H26.1805V7.9781Z" fill="#141C25"/>
<path d="M49.3633 7.54567C50.8421 7.54567 51.3218 6.56286 52.0812 4.16483H52.4809C52.4409 5.34419 52.4409 6.56286 52.4409 7.74223C52.4409 8.92159 52.4409 10.1403 52.4809 11.3196H52.0812C51.2418 8.76434 50.8421 7.89947 49.3633 7.89947H47.6845V13.8749C47.6845 14.8184 48.0842 15.2115 49.1234 15.2115H50.6023C53.2803 15.2115 53.9198 14.2287 55.4387 10.2582H55.9183L55.6785 15.6046H42.5684V15.2508L43.7675 15.0936C45.0465 14.897 45.2064 14.5432 45.2064 13.5997V2.35648C45.2064 1.37368 45.0865 1.01987 43.7675 0.862619L42.5684 0.705371V0.351562H54.999L55.2388 5.26557H54.7592C53.4002 1.80611 52.7207 0.783995 50.4824 0.783995H47.7245V7.58498H49.3633V7.54567Z" fill="#141C25"/>
<path d="M64.5916 3.14272C63.9521 1.41299 63.4724 0.941243 62.4732 0.823307L61.6338 0.705371V0.351562C62.9528 0.390875 64.2718 0.390875 65.5908 0.390875C66.9098 0.390875 68.1889 0.390875 69.5478 0.351562V0.705371L68.2288 0.862619C66.9898 1.01987 66.8699 1.64886 67.2296 2.63166L71.0667 13.0887L74.4242 4.08621C75.2635 1.88473 75.0637 1.1378 73.5049 0.862619L72.3457 0.705371V0.351562C73.385 0.390875 74.3842 0.390875 75.3835 0.390875C76.4227 0.390875 77.4219 0.390875 78.4611 0.351562V0.705371L77.5818 0.941243C76.2628 1.21643 75.7832 1.92404 74.8239 4.32208L71.4264 13.1673L70.5071 15.7619H69.4279L64.5916 3.14272Z" fill="#141C25"/>
<path d="M92.4503 15.6447C91.1712 15.6447 90.0521 15.684 88.773 15.684V15.3302L90.092 15.173C91.3311 15.0157 91.2911 14.3867 90.8914 13.4039L89.8522 10.7307H83.8168L83.3371 11.9494C82.4578 14.1902 82.4578 14.8585 84.0166 15.1336L85.1757 15.3302V15.684C84.1765 15.684 83.4171 15.6447 82.4178 15.6447C81.4186 15.6447 80.4992 15.684 79.5 15.684V15.3302L80.2594 15.1336C81.4585 14.8191 81.9382 14.1902 82.8575 11.7528L86.3748 2.82897L87.2941 0.234375H88.4932L93.4895 12.8929C94.169 14.6226 94.4488 15.0943 95.408 15.2123L96.2074 15.3302V15.684C94.8485 15.684 93.7693 15.6447 92.4503 15.6447ZM83.9766 10.2196H89.6524L86.8145 2.86828L83.9766 10.2196Z" fill="#141C25"/>
<path d="M104.041 2.19923V12.4204C104.041 14.386 104.441 14.9363 105.68 15.1329L106.639 15.2901V15.6439C105.6 15.6439 104.801 15.6046 103.762 15.6046C102.722 15.6046 101.883 15.6439 100.884 15.6439V15.2901L101.843 15.1329C103.122 14.9363 103.522 14.3466 103.522 12.4204V2.35648C103.522 1.37368 103.402 1.01987 102.083 0.862619L100.884 0.705371V0.351562H105.88L114.234 12.4597V3.57515C114.234 1.60955 113.834 1.05918 112.555 0.862619L111.596 0.705371V0.351562C112.635 0.351562 113.474 0.390875 114.474 0.390875C115.513 0.390875 116.312 0.351562 117.351 0.351562V0.705371L116.392 0.862619C115.153 1.05918 114.753 1.60955 114.753 3.57515V15.7226H113.314L104.041 2.19923Z" fill="#141C25"/>
<path d="M151.886 2.35648C151.886 1.37368 151.766 1.01987 150.447 0.862619L149.248 0.705371V0.351562C150.607 0.351562 151.766 0.390875 153.165 0.390875C154.524 0.390875 155.683 0.351562 157.042 0.351562V0.705371L155.843 0.862619C154.564 1.05918 154.404 1.41299 154.404 2.35648V13.639C154.404 14.6218 154.524 14.9756 155.843 15.1329L157.042 15.2901V15.6439C155.683 15.6439 154.524 15.6046 153.165 15.6046C151.806 15.6046 150.647 15.6439 149.248 15.6439V15.2901L150.447 15.1329C151.726 14.9363 151.886 14.5825 151.886 13.639V8.05672H144.611V13.639C144.611 14.6218 144.731 14.9756 146.05 15.1329L147.209 15.2901V15.6439C145.85 15.6439 144.691 15.6046 143.332 15.6046C141.973 15.6046 140.814 15.6439 139.455 15.6439V15.2901L140.654 15.1329C141.933 14.9363 142.093 14.5825 142.093 13.639V2.35648C142.093 1.37368 141.973 1.01987 140.654 0.862619L139.455 0.705371V0.351562C140.814 0.351562 141.973 0.390875 143.332 0.390875C144.691 0.390875 145.85 0.351562 147.209 0.351562V0.705371L146.05 0.862619C144.771 1.05918 144.611 1.41299 144.611 2.35648V7.58498H151.886V2.35648Z" fill="#141C25"/>
<path d="M170.193 16C165.916 16 162.398 12.855 162.398 8.01966C162.438 3.14496 165.916 0 170.193 0C174.469 0 177.947 3.14496 177.947 8.01966C177.947 12.855 174.469 16 170.193 16ZM170.193 15.6855C173.67 15.6855 175.069 12.226 175.069 8.01966C175.069 3.81327 173.71 0.353808 170.193 0.353808C166.595 0.353808 165.276 3.81327 165.276 8.01966C165.276 12.226 166.635 15.6855 170.193 15.6855Z" fill="#141C25"/>
<path d="M185.181 3.10415C184.621 1.45305 184.181 0.941992 183.142 0.824056L182.303 0.70612V0.352311C183.622 0.391623 184.941 0.391623 186.26 0.391623C187.579 0.391623 188.858 0.391623 190.217 0.352311V0.70612L188.898 0.863368C187.619 1.02062 187.459 1.76754 187.739 2.63241L190.816 12.6177L194.414 0.234375H195.613L199.77 12.6177L202.328 4.12627C203.087 1.64961 202.567 1.13855 201.089 0.863368L200.089 0.666808V0.352311C201.129 0.391623 202.128 0.391623 203.167 0.391623C204.166 0.391623 205.206 0.391623 206.205 0.352311V0.70612L205.405 0.90268C204.046 1.17786 203.527 1.92479 202.807 4.32283L200.169 12.9715L199.41 15.8019H198.251L194.014 3.45796L191.256 12.8929L190.497 15.7626H189.337L185.181 3.10415Z" fill="#141C25"/>
<path d="M220.994 15.6447C219.715 15.6447 218.596 15.684 217.317 15.684V15.3302L218.636 15.173C219.875 15.0157 219.835 14.3867 219.435 13.4039L218.396 10.7307H212.361L211.881 11.9494C211.002 14.1902 211.002 14.8585 212.561 15.1336L213.72 15.3302V15.684C212.72 15.684 211.961 15.6447 210.962 15.6447C209.962 15.6447 209.043 15.684 208.044 15.684V15.3302L208.803 15.1336C210.002 14.8191 210.482 14.1902 211.401 11.7528L214.919 2.82897L215.838 0.234375H217.037L222.033 12.8929C222.713 14.6226 222.993 15.0943 223.952 15.2123L224.751 15.3302V15.684C223.352 15.684 222.273 15.6447 220.994 15.6447ZM212.521 10.2196H218.196L215.358 2.86828L212.521 10.2196Z" fill="#141C25"/>
<path d="M241.978 15.6833C240.539 15.6833 240.379 15.3688 239.86 14.386L236.742 8.41053C236.542 8.44984 236.382 8.44984 236.222 8.44984C235.583 8.44984 234.983 8.41053 234.504 8.41053V13.6783C234.504 14.6611 234.624 15.015 235.943 15.1722L237.142 15.3294V15.6833C235.783 15.6833 234.624 15.6439 233.265 15.6439C231.906 15.6439 230.747 15.6833 229.348 15.6833V15.3294L230.547 15.1722C231.826 14.9756 231.986 14.6218 231.986 13.6783V2.35648C231.986 1.37368 231.866 1.01987 230.547 0.862619L229.348 0.705371V0.351562H236.103C240.18 0.351562 242.778 1.4523 242.778 4.36139C242.778 6.56286 240.819 7.6636 238.98 8.01741C239.26 8.37122 239.62 8.84296 240.02 9.55058L242.098 13.2459C242.818 14.5432 243.097 14.9363 244.137 15.1722L244.976 15.3688V15.7226H241.978V15.6833ZM234.504 7.9781C235.143 8.01741 235.663 8.01741 236.262 8.01741C238.781 8.01741 240.06 6.9953 240.06 4.4007C240.06 1.57024 238.741 0.705371 236.103 0.705371H234.504V7.9781Z" fill="#141C25"/>
<path d="M250.491 15.2901L251.69 15.1329C252.969 14.9363 253.129 14.5825 253.129 13.639V2.35648C253.129 1.37368 253.009 1.01987 251.69 0.862619L250.491 0.705371V0.351562H257.646C262.002 0.351562 265.999 2.51372 265.999 8.01741C265.999 13.5211 262.002 15.6833 257.606 15.6833H250.451V15.2901H250.491ZM257.606 15.2508C261.123 15.2508 263.082 13.2066 263.082 8.01741C263.082 2.7496 261.043 0.744683 257.606 0.744683H255.607V13.9142C255.607 14.8577 256.007 15.2508 257.046 15.2508H257.606Z" fill="#141C25"/>
</svg>
