<svg width="89" height="28" viewBox="0 0 89 28" fill="none" xmlns="http://www.w3.org/2000/svg">
<g clip-path="url(#clip0_4452_2739)">
<path d="M32.9907 6.39716L37.5128 6.39474C39.1775 6.39392 40.8167 6.26857 42.3114 7.11064C45.0885 8.67497 44.3807 12.7131 41.3633 13.514C43.9459 14.3535 44.8768 16.0143 44.269 18.6191C43.1373 21.7118 39.3663 21.4905 36.6789 21.4917C35.4483 21.4953 34.2177 21.4923 32.9872 21.4825C32.9336 16.5323 32.9621 11.3523 32.9907 6.39716ZM41.3826 18.8603C42.2647 17.9569 42.377 16.1092 41.4267 15.3124C40.026 14.1379 37.0116 14.655 35.2753 14.5617C35.2025 16.1775 35.3208 17.9295 35.258 19.5329L37.9963 19.54C39.0454 19.5417 40.5573 19.6183 41.3826 18.8603ZM35.2601 12.6476L37.6564 12.6589C38.7855 12.6622 40.075 12.75 41.0096 12.0011C41.4596 11.5454 41.6903 11.0579 41.6875 10.4143C41.6747 7.47451 37.1723 8.45529 35.2752 8.2993C35.2161 9.72285 35.2954 11.223 35.2601 12.6476Z" fill="white" style="fill:white;fill-opacity:1;"/>
<path d="M71.7377 10.7309C71.968 10.6982 72.4039 10.6947 72.6398 10.7214C74.1226 10.8896 74.668 11.3365 75.5628 12.4046C75.5558 11.9562 75.5554 11.5078 75.561 11.0594C76.2742 11.051 76.9877 11.0542 77.7008 11.0691L77.7013 18.2369C77.7013 19.7555 77.8151 21.5434 77.4792 23.013C77.006 25.0849 75.239 26.1826 73.2043 26.3135C71.1049 26.4486 68.8852 25.8894 68.1103 23.6838C67.9626 23.2679 67.9504 22.8349 67.9287 22.3921L68.597 22.3847L70.0663 22.3894C70.1611 24.8628 73.1357 25.2432 74.7214 23.9112C75.8018 23.0037 75.5436 20.9673 75.571 19.6202C75.4489 19.7688 75.3142 19.9414 75.1808 20.0759C73.0392 22.2747 68.8756 21.3516 67.88 18.4246C66.7527 15.1116 67.8687 11.3066 71.7377 10.7309ZM73.0257 19.5618C76.916 19.0896 76.4658 11.9598 72.3465 12.4551C72.3365 12.4569 72.3265 12.4587 72.3165 12.4605C68.5931 12.7919 68.7187 19.9799 73.0257 19.5618Z" fill="white" style="fill:white;fill-opacity:1;"/>
<path d="M63.989 6.39959C64.7108 6.39367 65.4331 6.39419 66.1549 6.40115C66.214 11.4027 66.1549 16.4755 66.1636 21.4847C65.437 21.4931 64.71 21.4919 63.9834 21.4811C63.9777 21.0299 63.9968 20.5602 64.009 20.1077C62.6431 22.0422 60.3482 22.2529 58.3405 21.2854C57.4344 20.8328 56.6391 19.8613 56.2867 18.9203C54.9217 15.277 56.6057 10.2894 61.2312 10.7369C62.475 10.8571 63.2581 11.4586 64.0003 12.3981C63.9551 10.451 63.9777 8.35173 63.989 6.39959ZM61.4741 20.1332C63.8847 19.6422 64.4297 17.1315 64.019 15.0528C63.7039 13.4568 62.4689 12.2073 60.7536 12.4603C56.9885 12.7826 57.1015 20.5578 61.4389 20.1369C61.4507 20.1357 61.4624 20.1345 61.4741 20.1332Z" fill="white" style="fill:white;fill-opacity:1;"/>
<path d="M83.5718 10.7308C83.7395 10.7127 83.9081 10.704 84.0767 10.7046C85.3757 10.7083 86.5842 11.0519 87.5125 11.9943C88.8149 13.317 89.0322 14.9598 89.0235 16.7206C86.4469 16.7706 83.7543 16.7171 81.1608 16.7308C81.1712 17.846 81.5901 18.923 82.4867 19.6185C83.597 20.4802 85.9258 20.3252 86.5282 18.918C86.6233 18.6962 86.6807 18.441 86.8132 18.2313C86.8519 18.1698 87.0709 18.1823 87.1431 18.1795C87.7354 18.1787 88.3277 18.1818 88.92 18.189C88.6789 20.199 87.1883 21.488 85.2218 21.7742C83.3154 22.0516 81.1156 21.5484 79.9774 19.8823C78.6325 17.8772 78.6272 14.5771 80.107 12.6359C81.0217 11.4362 82.1042 10.9323 83.5718 10.7308ZM81.176 15.1877C82.1403 15.1999 83.1042 15.203 84.0685 15.1968L86.765 15.1986C86.689 13.5324 85.752 12.1891 83.9212 12.374C82.1277 12.548 81.4945 13.5227 81.176 15.1877Z" fill="white" style="fill:white;fill-opacity:1;"/>
<path d="M50.7821 10.7281C51.1276 10.6953 51.3349 10.7066 51.6799 10.723C51.6877 11.423 51.6838 12.123 51.669 12.8229C50.0194 12.6213 48.448 13.1599 48.1169 14.9592C47.9635 15.7916 48.0217 16.7133 48.0217 17.5625L48.0221 21.4836C47.3016 21.4939 46.5811 21.4927 45.8606 21.4801L45.8545 20.912L45.8597 11.0663C46.5176 11.036 47.3498 11.0588 48.0208 11.0595C48.0243 11.6202 48.0204 12.1808 48.0091 12.7414C48.7831 11.5005 49.2359 10.9814 50.7821 10.7281Z" fill="white" style="fill:white;fill-opacity:1;"/>
<path d="M52.4171 11.0677C53.082 11.0378 53.9007 11.059 54.5773 11.0599L54.5795 21.4834C53.859 21.4936 53.138 21.4928 52.4171 21.481C52.3723 18.0522 52.4062 14.5016 52.4171 11.0677Z" fill="white" style="fill:white;fill-opacity:1;"/>
<path d="M8.70588 20.8511C8.73117 20.8536 10.0461 21.4373 10.2439 21.5081C9.85132 22.6323 9.48476 23.9995 9.04927 25.0783C8.92777 25.0175 8.70379 24.9402 8.56864 24.8896C7.86859 24.6239 7.49138 24.4131 6.83105 24.0926L8.70588 20.8511Z" fill="white" style="fill:white;fill-opacity:1;"/>
<path d="M20.4585 15.6401C21.4523 15.8168 23.2144 16.1552 24.1577 16.4271C23.9575 17.2225 23.7792 17.7734 23.4677 18.5306C23.428 18.6119 23.4165 18.6548 23.3325 18.6943C22.3955 18.339 20.9123 17.6433 19.9609 17.199C20.1644 16.6699 20.3074 16.1853 20.4585 15.6401Z" fill="white" style="fill:white;fill-opacity:1;"/>
<path d="M4.87168 15.6636C4.96181 15.6928 5.35486 17.002 5.42444 17.1953C5.33569 17.247 5.24662 17.2877 5.15226 17.3279C4.11152 17.7712 3.08973 18.2795 2.03842 18.6956L1.95848 18.6592C1.66087 17.7857 1.41794 17.3577 1.26953 16.409C2.12875 16.1862 4.00924 15.7772 4.87168 15.6636Z" fill="white" style="fill:white;fill-opacity:1;"/>
<path d="M6.25649 18.665C6.47191 18.8162 7.11394 19.6089 7.37503 19.8602C6.76007 20.5417 5.46966 22.0515 4.84315 22.6109L4.64938 22.4399C4.11757 21.9553 3.64316 21.4119 3.23535 20.8203C3.90324 20.295 4.63511 19.8187 5.31509 19.3058C5.60898 19.0841 5.93582 18.8391 6.25649 18.665Z" fill="white" style="fill:white;fill-opacity:1;"/>
<path d="M16.5837 20.8662L16.6547 20.8712C16.8125 20.9977 18.4099 23.7852 18.4811 24.0464C18.385 24.2782 17.2096 24.7344 16.9586 24.8391L16.2968 25.0773C16.2787 24.9833 16.2535 24.8918 16.226 24.8003C15.8931 23.6891 15.4807 22.6024 15.1572 21.4882C15.7115 21.307 16.0774 21.1514 16.5837 20.8662Z" fill="white" style="fill:white;fill-opacity:1;"/>
<path d="M19.106 18.6436C19.2852 18.7195 20.0537 19.2969 20.2507 19.441L22.1465 20.8114C21.8147 21.3615 21.2586 21.9371 20.8016 22.3819L20.5364 22.6355C19.8764 21.945 18.6281 20.4398 17.9863 19.8671C18.3403 19.5746 18.7944 19.0097 19.106 18.6436Z" fill="white" style="fill:white;fill-opacity:1;"/>
<path d="M13.437 21.8418L13.4797 21.8447C13.5792 21.9407 13.5621 22.2453 13.5803 22.4084L13.9161 25.5509C13.2376 25.654 12.664 25.6286 11.9817 25.6113L11.4678 25.5531C11.5765 24.3131 11.7149 23.0759 11.883 21.8424C12.4005 21.875 12.9195 21.8748 13.437 21.8418Z" fill="white" style="fill:white;fill-opacity:1;"/>
<path d="M52.2871 7.19951C52.3723 7.06396 52.4023 6.96722 52.5752 6.93511C53.1576 6.82713 53.8555 6.90681 54.4552 6.92111C54.5208 7.28948 54.5847 8.80645 54.4169 9.07871C54.1275 9.12888 52.7469 9.18082 52.4718 9.1144C52.3519 9.01096 52.3358 8.93888 52.2901 8.78774L52.2871 7.19951Z" fill="white" style="fill:white;fill-opacity:1;"/>
<path d="M52.2867 7.19966C52.2884 7.09146 52.2719 6.91374 52.3358 6.83816C52.7025 6.77624 54.207 6.81703 54.6568 6.82153C54.6585 7.62471 54.6555 8.42785 54.6477 9.231C54.3087 9.23307 52.5648 9.26332 52.3193 9.21389C52.271 9.048 52.2827 8.95821 52.2897 8.78788C52.3353 8.93903 52.3514 9.0111 52.4714 9.11455C52.7464 9.18096 54.1271 9.12902 54.4165 9.07885C54.5842 8.80659 54.5203 7.28962 54.4547 6.92126C53.855 6.90695 53.1571 6.82727 52.5748 6.93526C52.4018 6.96736 52.3718 7.06411 52.2867 7.19966Z" fill="white" fill-opacity="0.972549" style="fill:white;fill-opacity:0.972549;"/>
<path d="M1 13.1105C1.09392 12.7579 1.09614 12.5219 1.14904 12.17C1.21956 11.7087 1.31768 11.2519 1.44288 10.8021C2.28555 7.8809 4.24088 5.40164 6.89321 3.89143C9.51445 2.37421 12.8058 1.99524 15.7271 2.7673C18.7197 3.56916 21.2718 5.5155 22.8263 8.18155C23.8619 9.94672 24.3988 11.9572 24.3803 14.0007C23.1385 14.0051 21.8702 14.0167 20.6292 13.9999C20.6816 11.9751 19.7651 9.95761 18.3735 8.50083C16.9524 7.04249 15.013 6.19606 12.9714 6.14321C8.40512 6.03475 4.8876 9.41286 4.77245 13.9395C4.77187 13.9607 4.77174 13.9819 4.77208 14.0031L1 14.0098V13.1105Z" fill="white" style="fill:white;fill-opacity:1;"/>
</g>
<defs>
<clipPath id="clip0_4452_2739">
<rect width="89" height="28" fill="white" style="fill:white;fill-opacity:1;"/>
</clipPath>
</defs>
</svg>
