<svg width="139" height="40" viewBox="0 0 139 40" fill="none" xmlns="http://www.w3.org/2000/svg">
<path d="M20.5595 15.8649C17.7017 13.5421 14.691 12.4637 10.8626 11.9187C7.42185 11.4287 5.3415 10.743 2.317 8.62965L0.5 11.3726C3.2048 13.4013 5.744 14.4098 9.16985 15.0109C11.5975 15.431 13.4985 15.4585 16.0227 16.8163C15.5236 17.4745 15.0659 18.4259 14.8026 19.0693C13.5399 18.3137 11.6814 17.7401 9.19745 17.7115V20.9731C10.405 21.028 11.4871 21.1689 12.943 21.8122C14.7186 22.5953 15.9675 23.7573 15.9675 23.7573C17.382 18.7338 20.5595 15.8649 20.5595 15.8649ZM35.4853 15.0807C39.1757 14.5495 41.8252 13.4013 44.53 11.3726L42.7131 8.62965C39.6885 10.743 37.6082 11.4287 34.1674 11.9187C30.339 12.4637 27.1903 13.6256 24.3326 15.9485C19.8936 19.4894 17.8121 24.6812 17.8121 29.9141V31.5524H26.8982V29.9141C26.8568 25.1013 30.4632 22.7636 30.4632 22.7636C31.7535 21.8821 33.6821 20.9021 35.8464 20.9868V17.7264C33.4188 17.6978 30.9083 18.482 28.5358 20.1328C25.9276 22.0916 24.2912 25.0303 23.8611 28.277H21.1828C22.6536 16.4385 33.4325 15.3749 35.4853 15.0807ZM64.5619 19.5169C66.4617 18.4121 67.4196 16.8025 67.4196 14.7029C67.4196 13.1082 66.7538 11.652 65.5463 10.6308C64.2698 9.55352 62.4804 8.97997 60.3724 8.97997H52.0074V31.692H60.8853C63.244 31.692 65.2277 31.0761 66.6008 29.8867C67.9739 28.7109 68.7088 27.0601 68.7088 25.0864C68.7088 22.1065 66.5732 20.1191 64.5619 19.5169ZM55.1423 11.7642H60.6496C63.1186 11.7642 64.4366 12.9536 64.4366 15.1929C64.4366 17.4322 63.1325 18.6216 60.6496 18.6216H55.1423V11.7642ZM61.7179 28.767H55.1423V21.3921H61.7179C64.256 21.3921 65.7269 22.7361 65.7269 25.0727C65.7269 27.4242 64.256 28.767 61.7179 28.767ZM82.6227 26.332C81.2772 28.3194 79.5705 29.4104 77.8513 29.4104C75.7698 29.4104 74.6186 28.2358 74.6186 26.1088V15.431H71.7195V26.6262C71.7195 28.2633 72.191 29.6211 73.0926 30.5449C74.008 31.4963 75.3822 32 77.0463 32C79.4739 32 81.5555 30.7407 82.6227 29.6211V31.692H85.508V15.4448H82.6227V26.332ZM89.3513 31.692H92.1814V8H89.3513V31.692ZM115.875 22.0366C113.17 21.3085 111.699 20.6789 111.699 19.4471C111.699 18.5793 112.546 17.6417 114.39 17.6417C116.207 17.6417 117.372 18.593 117.594 20.2587V20.2873H120.452V20.245C120.175 16.9697 117.955 15.0944 114.39 15.0944C112.864 15.0944 111.464 15.557 110.45 16.3961C109.466 17.2078 108.924 18.3137 108.924 19.4894C108.924 21.9382 110.34 23.3371 113.669 24.1774C116.776 24.9754 118.26 25.6188 118.26 27.0601C118.26 28.1511 117.262 29.3268 115.056 29.3268C112.795 29.3268 111.56 28.474 111.089 26.5701V26.5426H108.356V26.5839C108.675 29.9702 111.158 31.9863 115.001 31.9863C116.776 31.9863 118.303 31.4677 119.426 30.4751C120.508 29.5226 121.09 28.1797 121.09 26.7098C121.09 24.4007 119.578 23.0441 115.875 22.0366ZM132.993 15.1231C130.593 15.1231 128.373 16.2988 127.222 17.502V8.01374H124.337V31.692H127.222V20.609C128.457 18.8598 130.412 17.7264 132.188 17.7264C134.338 17.7264 135.615 18.9571 135.615 21.028V31.692H138.5V20.4969C138.5 17.1803 136.391 15.1231 132.993 15.1231ZM104.222 9.1059C103.14 9.1059 102.266 9.98741 102.266 11.0784C102.266 12.1706 103.14 13.0521 104.222 13.0521C105.304 13.0521 106.178 12.1706 106.178 11.0784C106.192 9.98741 105.304 9.1059 104.222 9.1059ZM96.0236 31.692H98.8538V8H96.0236V31.692ZM102.78 31.692H105.665V15.4448H102.78V31.692Z" fill="white" style="fill:white;fill-opacity:1;"/>
</svg>
