<svg width="54" height="16" viewBox="0 0 54 16" fill="none" xmlns="http://www.w3.org/2000/svg">
<g clip-path="url(#clip0_4452_2714)">
<path d="M9.75441 7.7797C10.923 7.38883 11.7941 6.23502 11.7941 4.80736C11.7941 2.65547 10.2493 1.07178 7.51675 1.07178H1V14.9376H7.8931C10.5262 14.9376 12.2293 13.3146 12.2293 11.0656C12.2293 9.34443 11.1207 8.11236 9.75441 7.7797ZM3.69301 3.3407H7.08055C8.40826 3.3407 9.10108 4.00486 9.10108 5.06178C9.10108 6.11774 8.34846 6.80196 7.10091 6.80196H3.69301V3.3407ZM7.37789 12.6885H3.69301V9.0319H7.41739C8.78363 9.0319 9.49683 9.79443 9.49683 10.8894C9.49683 12.0042 8.70465 12.6885 7.37789 12.6885Z" fill="white" style="fill:white;fill-opacity:1;"/>
<path d="M37.2573 10.2432L31.416 1.0708H28.0107V14.9376H30.7435V5.10005L37.1195 14.9376H39.9901V1.0708H37.2573V10.2432Z" fill="white" style="fill:white;fill-opacity:1;"/>
<path d="M19.4854 11.3781L15.8503 1.07977L13.9385 4.02859L18.0199 14.9376H20.8326L26.04 1.0708H23.1493L19.4854 11.3781Z" fill="white" style="fill:white;fill-opacity:1;"/>
<path d="M54.2385 1.0708H50.9361L45.1541 7.92623V1.0708H42.418V14.9376H45.1541V8.08203L50.9361 14.9376H54.2385L48.3275 8.00403L54.2385 1.0708Z" fill="white" style="fill:white;fill-opacity:1;"/>
</g>
<defs>
<clipPath id="clip0_4452_2714">
<rect width="54" height="16" fill="white" style="fill:white;fill-opacity:1;"/>
</clipPath>
</defs>
</svg>
