<svg width="356" height="70" viewBox="0 0 356 70" fill="none" xmlns="http://www.w3.org/2000/svg">
  <g transform="translate(2 -1)" fill="white">
    <path d="M34.7617,46.2815 C28.3729,46.2815 23.1946,41.1038 23.201,34.7191 C23.2075,28.2913 28.3808,23.152 34.8142,23.1806 C39.9012,23.2032 44.2121,26.5086 45.7346,31.0856 C46.0007,31.8856 46.7484,32.4262 47.5921,32.4262 L57.7747,32.4262 C58.0383,32.4262 58.252,32.2127 58.252,31.9494 L58.252,29.3245 C58.252,29.2074 58.3469,29.1125 58.464,29.1125 L60.9448,29.1125 C61.062,29.1125 61.157,29.2074 61.157,29.3245 L61.157,31.9494 C61.157,32.2127 61.3707,32.4262 61.6342,32.4262 L63.0851,32.4262 C63.3487,32.4262 63.5624,32.2127 63.5624,31.9494 L63.5624,29.3245 C63.5624,29.2074 63.6574,29.1125 63.7746,29.1125 L66.2553,29.1125 C66.3725,29.1125 66.4675,29.2074 66.4675,29.3245 L66.4675,31.9494 C66.4675,32.2127 66.6811,32.4262 66.9448,32.4262 L68.9339,32.4262 C69.2125,32.4262 69.4323,32.1885 69.41,31.9109 C67.9739,14.0555 53.0216,0.0111 34.7833,-6.59020544e-06 C15.5918,-0.0117 0,15.5569 0,34.7315 C0,53.9127 15.5635,69.462 34.7617,69.462 C53.0096,69.462 67.973,55.4138 69.41,37.5517 C69.4323,37.2739 69.2128,37.0358 68.9338,37.0358 L47.5925,37.0358 C46.7439,37.0358 45.999,37.5844 45.7304,38.3887 C44.1991,42.9751 39.8669,46.2815 34.7617,46.2815 Z" />
    <path d="M90.5629,34.8462 L90.5629,34.7723 C90.5629,27.4226 96.0709,21.4025 103.9079,21.4025 C108.6759,21.4025 111.5599,23.0645 114.0359,25.4282 L111.1159,28.7892 C109.0459,26.8686 106.8279,25.576 103.8709,25.576 C98.9169,25.576 95.3319,29.6386 95.3319,34.6985 L95.3319,34.7723 C95.3319,39.8322 98.9169,43.9688 103.8709,43.9688 C107.0499,43.9688 109.0829,42.6761 111.3009,40.6078 L114.2209,43.5625 C111.5229,46.3694 108.5649,48.1423 103.7229,48.1423 C96.1819,48.1423 90.5629,42.2699 90.5629,34.8462 Z" />
    <path d="M128.6749,39.5368 C127.5289,39.0936 125.9389,38.7612 124.2019,38.7612 C121.3919,38.7612 119.7289,39.9062 119.7289,41.7897 L119.7289,41.8636 C119.7289,43.7103 121.3919,44.7444 123.4989,44.7444 C126.4569,44.7444 128.6749,43.0824 128.6749,40.6448 L128.6749,39.5368 Z M128.5639,47.6991 L128.5639,45.2984 C127.2329,46.8866 125.1999,48.1054 122.2429,48.1054 C118.5459,48.1054 115.2929,46.0002 115.2929,42.0853 L115.2929,42.0114 C115.2929,37.6901 118.6569,35.6218 123.2039,35.6218 C125.5689,35.6218 127.0849,35.9543 128.6009,36.4344 L128.6009,36.0651 C128.6009,33.3689 126.8999,31.8916 123.7949,31.8916 C121.6139,31.8916 119.9879,32.3717 118.2129,33.1104 L116.9929,29.5278 C119.1369,28.5676 121.2439,27.9028 124.4239,27.9028 C130.1899,27.9028 132.9999,30.9313 132.9999,36.139 L132.9999,47.6991 L128.5639,47.6991 Z" />
    <path d="M135.4019,38.0594 L135.4019,37.9855 C135.4019,32.4455 139.6899,27.792 145.5309,27.792 C149.2269,27.792 151.5189,29.1585 153.3309,31.1529 L150.5579,34.1445 C149.1909,32.7041 147.7489,31.7069 145.4939,31.7069 C142.2409,31.7069 139.8749,34.5139 139.8749,37.9117 L139.8749,37.9855 C139.8749,41.4573 142.2779,44.2642 145.7159,44.2642 C147.8229,44.2642 149.3749,43.267 150.7799,41.8266 L153.4789,44.4859 C151.5559,46.628 149.3009,48.1423 145.4939,48.1423 C139.6899,48.1423 135.4019,43.5995 135.4019,38.0594 Z" />
    <path d="M156.6579,42.3068 L156.6579,32.0393 L154.1809,32.0393 L154.1809,28.1982 L156.6579,28.1982 L156.6579,22.8429 L161.1309,22.8429 L161.1309,28.1982 L166.3799,28.1982 L166.3799,32.0393 L161.1309,32.0393 L161.1309,41.605 C161.1309,43.3409 162.0179,44.0426 163.5329,44.0426 C164.5309,44.0426 165.4189,43.821 166.3059,43.3779 L166.3059,47.0342 C165.1969,47.6621 163.9399,48.0314 162.2759,48.0314 C158.9869,48.0314 156.6579,46.591 156.6579,42.3068 Z" />
    <path d="M168.8189,40.6079 L168.8189,28.1982 L173.2919,28.1982 L173.2919,39.2782 C173.2919,42.3068 174.8079,44.0427 177.4689,44.0427 C180.0569,44.0427 181.8679,42.2329 181.8679,39.2044 L181.8679,28.1982 L186.3409,28.1982 L186.3409,47.699 L181.8679,47.699 L181.8679,44.6706 C180.6109,46.5172 178.7999,48.1054 175.7689,48.1054 C171.3699,48.1054 168.8189,45.1507 168.8189,40.6079 Z" />
    <path d="M188.5219,45.1506 L190.5179,42.1221 C192.6249,43.7103 194.9169,44.5227 196.9129,44.5227 C198.8349,44.5227 199.9439,43.7103 199.9439,42.4176 L199.9439,42.3437 C199.9439,40.8295 197.8739,40.3124 195.5819,39.6106 C192.6989,38.7981 189.4829,37.6162 189.4829,33.8859 L189.4829,33.812 C189.4829,30.1187 192.5509,27.8658 196.4329,27.8658 C198.8719,27.8658 201.5339,28.7152 203.6039,30.0818 L201.8299,33.258 C199.9439,32.1132 197.9479,31.4115 196.3219,31.4115 C194.5839,31.4115 193.5859,32.2239 193.5859,33.3689 L193.5859,33.4427 C193.5859,34.8463 195.6929,35.4371 197.9849,36.1758 C200.8319,37.0622 204.0479,38.3549 204.0479,41.8636 L204.0479,41.9374 C204.0479,46.037 200.8679,48.0684 196.8019,48.0684 C194.0299,48.0684 190.9619,47.0712 188.5219,45.1506 Z" />
    <path d="M215.3589,34.8462 L215.3589,34.7723 C215.3589,27.4226 220.8669,21.4025 228.7029,21.4025 C233.4719,21.4025 236.3549,23.0645 238.8319,25.4282 L235.9119,28.7892 C233.8419,26.8686 231.6239,25.576 228.6669,25.576 C223.7129,25.576 220.1269,29.6386 220.1269,34.6985 L220.1269,34.7723 C220.1269,39.8322 223.7129,43.9688 228.6669,43.9688 C231.8459,43.9688 233.8789,42.6761 236.0969,40.6078 L239.0169,43.5625 C236.3179,46.3694 233.3609,48.1423 228.5189,48.1423 C220.9779,48.1423 215.3589,42.2699 215.3589,34.8462 Z" />
    <path d="M241.1979,40.6079 L241.1979,28.1982 L245.6709,28.1982 L245.6709,39.2782 C245.6709,42.3068 247.1859,44.0427 249.8479,44.0427 C252.4359,44.0427 254.2469,42.2329 254.2469,39.2044 L254.2469,28.1982 L258.7199,28.1982 L258.7199,47.699 L254.2469,47.699 L254.2469,44.6706 C252.9899,46.5172 251.1789,48.1054 248.1479,48.1054 C243.7489,48.1054 241.1979,45.1507 241.1979,40.6079 Z" />
    <path d="M260.9009,45.1506 L262.8969,42.1221 C265.0039,43.7103 267.2959,44.5227 269.2919,44.5227 C271.2139,44.5227 272.3229,43.7103 272.3229,42.4176 L272.3229,42.3437 C272.3229,40.8295 270.2529,40.3124 267.9609,39.6106 C265.0779,38.7981 261.8619,37.6162 261.8619,33.8859 L261.8619,33.812 C261.8619,30.1187 264.9299,27.8658 268.8109,27.8658 C271.2509,27.8658 273.9129,28.7152 275.9829,30.0818 L274.2079,33.258 C272.3229,32.1132 270.3269,31.4115 268.6999,31.4115 C266.9629,31.4115 265.9649,32.2239 265.9649,33.3689 L265.9649,33.4427 C265.9649,34.8463 268.0719,35.4371 270.3639,36.1758 C273.2099,37.0622 276.4259,38.3549 276.4259,41.8636 L276.4259,41.9374 C276.4259,46.037 273.2469,48.0684 269.1809,48.0684 C266.4079,48.0684 263.3399,47.0712 260.9009,45.1506 Z" />
    <path d="M280.0489,42.3068 L280.0489,32.0393 L277.5719,32.0393 L277.5719,28.1982 L280.0489,28.1982 L280.0489,22.8429 L284.5219,22.8429 L284.5219,28.1982 L289.7709,28.1982 L289.7709,32.0393 L284.5219,32.0393 L284.5219,41.605 C284.5219,43.3409 285.4089,44.0426 286.9249,44.0426 C287.9229,44.0426 288.8099,43.821 289.6969,43.3779 L289.6969,47.0342 C288.5879,47.6621 287.3309,48.0314 285.6679,48.0314 C282.3779,48.0314 280.0489,46.591 280.0489,42.3068 Z" />
    <path d="M307.6989,38.0594 L307.6989,37.9855 C307.6989,34.5507 305.2229,31.7069 301.7109,31.7069 C298.1249,31.7069 295.8329,34.5139 295.8329,37.9117 L295.8329,37.9855 C295.8329,41.3834 298.3099,44.2642 301.7849,44.2642 C305.4069,44.2642 307.6989,41.4204 307.6989,38.0594 Z M291.3599,38.0594 L291.3599,37.9855 C291.3599,32.4086 295.7959,27.792 301.7849,27.792 C307.7729,27.792 312.1719,32.3347 312.1719,37.9117 L312.1719,37.9855 C312.1719,43.5256 307.7359,48.1423 301.7109,48.1423 C295.7589,48.1423 291.3599,43.5995 291.3599,38.0594 Z" />
    <path d="M329.6569,37.9855 L329.6569,37.9117 C329.6569,34.1445 326.9949,31.6699 324.0009,31.6699 C320.9329,31.6699 318.3819,34.0337 318.3819,37.9117 L318.3819,37.9855 C318.3819,41.7528 320.9699,44.2273 324.0009,44.2273 C326.9949,44.2273 329.6569,41.7158 329.6569,37.9855 Z M313.8719,37.9855 L313.8719,37.9117 C313.8719,31.4484 318.2709,27.792 322.9289,27.792 C326.1449,27.792 328.1779,29.4171 329.5829,31.2268 L329.5829,20.7377 L334.0559,20.7377 L334.0559,47.6991 L329.5829,47.6991 L329.5829,44.4489 C328.1409,46.4803 326.1079,48.1053 322.9289,48.1053 C318.3449,48.1053 313.8719,44.4489 313.8719,37.9855 Z" />
    <path d="M337.1609,52.5373 L338.6769,49.2134 C339.4899,49.6565 340.3769,49.952 341.3009,49.952 C342.5579,49.952 343.3339,49.398 344.0739,47.699 L335.9409,28.1982 L340.7099,28.1982 L346.2549,42.6761 L351.3189,28.1982 L355.9769,28.1982 L348.2139,48.253 C346.6609,52.2418 344.9239,53.7192 341.7819,53.7192 C339.8969,53.7192 338.5289,53.276 337.1609,52.5373 Z" />
  </g>
</svg>
