<svg width="225" height="40" viewBox="0 0 225 40" fill="none" xmlns="http://www.w3.org/2000/svg">
<g clip-path="url(#clip0_582_19108)">
<path d="M29.9564 8.72021H20.7707L24.0962 12.0457H28.5793L33.5465 17.0099V17.0129L28.5312 22.0282H20.93L14.243 15.3411H7.69727V17.0038V18.6666H12.8569L19.544 25.3537H29.9084L36.5894 18.6757L36.5864 15.3502L29.9564 8.72021Z" fill="#9786FF" style="fill:#9786FF;fill:color(display-p3 0.5922 0.5255 1.0000);fill-opacity:1;"/>
<path d="M6.66302 25.3474H15.8487L12.5232 22.0219H8.04011L3.04286 17.0247V17.0217L8.01907 12.0455H15.6202L22.3464 18.6935L28.853 18.7325V17.0698V15.368H23.7325L17.0454 8.68091L6.64196 8.72L0 15.3619V18.6874L6.66302 25.3474Z" fill="#9786FF" style="fill:#9786FF;fill:color(display-p3 0.5922 0.5255 1.0000);fill-opacity:1;"/>
<path d="M9.94336 28.6851H26.9286L33.8141 35.5736L31.4659 37.9249L25.5515 32.0106H13.2689L9.94336 28.6851Z" fill="#9786FF" style="fill:#9786FF;fill:color(display-p3 0.5922 0.5255 1.0000);fill-opacity:1;"/>
<path d="M33.7992 30.8831L31.4448 28.5318L39.8849 20.0948V13.937L31.3486 5.40069H16.2937L19.6192 2.0752H32.7257L43.2104 12.5599V21.4719L34.7824 29.8969L34.4877 30.1916L33.7992 30.8831Z" fill="#9786FF" style="fill:#9786FF;fill:color(display-p3 0.5922 0.5255 1.0000);fill-opacity:1;"/>
<path d="M56.5425 25.7867C55.4029 25.2214 54.5039 24.3855 53.8393 23.276C53.1779 22.1665 52.8472 20.8435 52.8472 19.3041C52.8472 16.8505 53.5056 14.9773 54.8196 13.6814C56.1335 12.3855 57.9496 11.739 60.2678 11.739C61.5337 11.739 62.5951 11.8743 63.452 12.1479C64.3089 12.4216 65.1359 12.8575 65.9356 13.4619V16.2672H63.2205V14.6616C62.7725 14.409 62.3456 14.2346 61.9366 14.1354C61.5277 14.0391 60.9715 13.988 60.2709 13.988C58.9659 13.988 57.9106 14.421 57.1017 15.287C56.2929 16.153 55.89 17.491 55.89 19.3041C55.89 21.0179 56.353 22.2898 57.2762 23.1166C58.2022 23.9435 59.3839 24.3585 60.8241 24.3585C61.7201 24.3585 62.4838 24.2802 63.1182 24.1239C63.7497 23.9676 64.3511 23.706 64.9133 23.3361L65.9927 25.1191C65.1749 25.6844 64.3421 26.0784 63.4942 26.3008C62.6462 26.5233 61.5998 26.6376 60.3551 26.6376C58.9539 26.6376 57.6821 26.3549 56.5425 25.7896V25.7867Z" fill="white" style="fill:white;fill-opacity:1;"/>
<path d="M69.1196 24.7762C67.7847 23.5404 67.1201 21.7333 67.1201 19.3579C67.1201 16.8262 67.7365 14.923 68.9753 13.6481C70.2111 12.3732 71.97 11.7358 74.2462 11.7358C76.5223 11.7358 78.1099 12.3582 79.2405 13.606C80.371 14.8538 80.9333 16.5376 80.9333 18.6604V20.0044H70.2141C70.2141 21.583 70.599 22.7466 71.3687 23.4953C72.1384 24.2439 73.1758 24.6198 74.4808 24.6198C75.2204 24.6198 75.8428 24.5657 76.351 24.4605C76.856 24.3522 77.3161 24.1748 77.7251 23.9192V22.8669H80.4402V24.9115C79.6223 25.4948 78.7414 25.9278 77.7972 26.2105C76.8531 26.4931 75.7375 26.6343 74.4537 26.6343C72.2346 26.6343 70.4577 26.0179 69.1226 24.7792L69.1196 24.7762ZM77.9265 18.1012C77.9265 15.2567 76.6907 13.8375 74.2162 13.8375C72.9112 13.8375 71.9189 14.2164 71.2364 14.9771C70.5539 15.7378 70.2141 16.7782 70.2141 18.1012H77.9265Z" fill="white" style="fill:white;fill-opacity:1;"/>
<path d="M82.064 24.0336H82.7947C83.1825 24.0336 83.4621 23.9524 83.6275 23.784C83.7929 23.6186 83.8771 23.342 83.8771 22.9512V15.4162C83.8771 15.0463 83.7989 14.7727 83.6426 14.5983C83.4862 14.4239 83.2246 14.3367 82.8548 14.3367H82.2414V12.1748H86.2734L86.6824 13.7804C87.0703 13.1761 87.5724 12.7581 88.1858 12.5236C88.7992 12.2891 89.5238 12.1719 90.3628 12.1719H91.7065V14.3337H90.0712C88.9616 14.3337 88.1738 14.5832 87.7047 15.0794C87.2387 15.5755 87.0042 16.3392 87.0042 17.3736V22.9512C87.0042 23.342 87.0823 23.6186 87.2387 23.784C87.395 23.9494 87.6566 24.0336 88.0265 24.0336H88.7571V26.1954H82.067V24.0336H82.064Z" fill="white" style="fill:white;fill-opacity:1;"/>
<path d="M94.1688 24.7762C92.8341 23.5404 92.1663 21.7333 92.1663 19.3579C92.1663 16.8262 92.7864 14.923 94.0221 13.6481C95.2578 12.3732 97.0164 11.7358 99.2961 11.7358C101.575 11.7358 103.16 12.3582 104.29 13.606C105.421 14.8538 105.983 16.5376 105.983 18.6604V20.0044H95.2632C95.2632 21.583 95.6484 22.7466 96.4179 23.4953C97.1883 24.2439 98.2251 24.6198 99.5301 24.6198C100.27 24.6198 100.893 24.5657 101.4 24.4605C101.905 24.3522 102.366 24.1748 102.775 23.9192V22.8669H105.493V24.9115C104.674 25.4948 103.794 25.9278 102.849 26.2105C101.905 26.4931 100.79 26.6343 99.5058 26.6343C97.2873 26.6343 95.5098 26.0179 94.1751 24.7792L94.1688 24.7762ZM102.976 18.1012C102.976 15.2567 101.74 13.8375 99.2655 13.8375C97.9605 13.8375 96.9687 14.2164 96.2856 14.9771C95.6034 15.7378 95.2632 16.7782 95.2632 18.1012H102.976Z" fill="white" style="fill:white;fill-opacity:1;"/>
<path d="M110.454 24.2079L110.219 26.1955H107.823V10.2746C107.823 9.82657 107.751 9.50184 107.603 9.29738C107.456 9.09292 107.161 8.99069 106.714 8.99069H106.157V6.85889H110.83V13.8677C111.334 13.146 112.009 12.6108 112.845 12.2621C113.68 11.9133 114.628 11.7359 115.677 11.7359C117.643 11.7359 119.137 12.3673 120.16 13.6331C121.182 14.899 121.693 16.7482 121.693 19.1837C121.693 21.6192 121.125 23.345 119.985 24.659C118.846 25.9729 117.303 26.6315 115.355 26.6315C113.058 26.6315 111.422 25.8226 110.448 24.2079H110.454ZM117.785 23.1286C118.368 22.3107 118.66 20.9757 118.66 19.1265C118.66 17.2774 118.362 15.9333 117.769 15.1546C117.174 14.3758 116.179 13.9849 114.774 13.9849C113.665 13.9849 112.745 14.3638 112.014 15.1245C111.284 15.8852 110.92 16.9557 110.92 18.3388V20.0316C110.92 21.2974 111.296 22.3348 112.045 23.1436C112.793 23.9524 113.761 24.3553 114.952 24.3553C116.257 24.3553 117.201 23.9464 117.785 23.1286Z" fill="white" style="fill:white;fill-opacity:1;"/>
<path d="M122.656 24.0336H123.386C123.774 24.0336 124.053 23.9524 124.219 23.784C124.384 23.6186 124.468 23.342 124.468 22.9512V15.4162C124.468 15.0463 124.39 14.7727 124.234 14.5983C124.078 14.4239 123.816 14.3367 123.446 14.3367H122.833V12.1748H126.865L127.273 13.7804C127.661 13.1761 128.164 12.7581 128.777 12.5236C129.39 12.2891 130.115 12.1719 130.954 12.1719H132.298V14.3337H130.662C129.553 14.3337 128.765 14.5832 128.296 15.0794C127.827 15.5755 127.596 16.3392 127.596 17.3736V22.9512C127.596 23.342 127.674 23.6186 127.83 23.784C127.986 23.9494 128.248 24.0336 128.618 24.0336H129.349V26.1954H122.658V24.0336H122.656Z" fill="white" style="fill:white;fill-opacity:1;"/>
<path d="M136.995 25.3775C136.177 24.5417 135.768 23.342 135.768 21.7845V15.4162C135.768 15.0463 135.684 14.7727 135.519 14.5983C135.353 14.4239 135.086 14.3367 134.716 14.3367H133.868V12.1748H138.892V21.7544C138.892 23.6427 139.806 24.5868 141.638 24.5868C142.629 24.5868 143.43 24.2951 144.033 23.7118C144.638 23.1285 144.939 22.2896 144.939 21.2012V15.4191C144.939 15.0493 144.867 14.7757 144.719 14.6013C144.572 14.4269 144.325 14.3397 143.973 14.3397H143.156V12.1779H148.033V22.9571C148.033 23.327 148.12 23.5945 148.294 23.76C148.469 23.9253 148.742 24.0094 149.112 24.0094H149.695V26.2014H145.985L145.811 24.3042C145.188 25.122 144.461 25.7174 143.634 26.0872C142.807 26.457 141.8 26.6434 140.612 26.6434C139.015 26.6434 137.81 26.2255 136.992 25.3866L136.995 25.3775Z" fill="white" style="fill:white;fill-opacity:1;"/>
<path d="M151.337 24.0335H152.067C152.455 24.0335 152.735 23.9524 152.9 23.784C153.066 23.6185 153.15 23.342 153.15 22.9511V15.4161C153.15 15.0462 153.066 14.7786 152.9 14.6133C152.735 14.4479 152.458 14.3637 152.067 14.3637H151.484V12.1718H155.135L155.339 14.1593C155.865 13.3414 156.521 12.734 157.312 12.3342C158.099 11.9343 159.059 11.7358 160.189 11.7358C161.046 11.7358 161.786 11.9312 162.408 12.3191C163.03 12.71 163.499 13.2632 163.809 13.9848C164.296 13.2061 164.894 12.6378 165.604 12.277C166.314 11.9162 167.206 11.7358 168.277 11.7358C169.874 11.7358 171.029 12.1357 171.738 12.9325C172.447 13.7323 172.805 14.929 172.805 16.5256V22.9511C172.805 23.3209 172.893 23.5945 173.067 23.7689C173.241 23.9433 173.514 24.0305 173.884 24.0305H174.702V26.1924H169.738V16.5256C169.738 15.5514 169.552 14.8598 169.182 14.451C168.812 14.042 168.19 13.8375 167.312 13.8375C166.434 13.8375 165.71 14.0901 165.195 14.5983C164.678 15.1034 164.423 15.846 164.423 16.8172V22.9511C164.423 23.342 164.495 23.6185 164.642 23.784C164.789 23.9493 165.045 24.0335 165.414 24.0335H166.202V26.1954H161.53V16.6158C161.53 15.6626 161.344 14.9621 160.974 14.514C160.604 14.066 160.021 13.8435 159.221 13.8435C158.247 13.8435 157.498 14.1171 156.972 14.6614C156.445 15.2056 156.184 16.0054 156.184 17.0578V22.9571C156.184 23.348 156.256 23.6246 156.404 23.79C156.55 23.9553 156.806 24.0396 157.176 24.0396H157.964V26.2014H151.334V24.0396L151.337 24.0335Z" fill="white" style="fill:white;fill-opacity:1;"/>
<path d="M180.589 24.7642C179.51 23.5194 178.969 21.7363 178.969 19.4181C178.969 16.9856 179.504 15.0944 180.575 13.7503C181.645 12.4063 183.194 11.7358 185.22 11.7358C186.408 11.7358 187.358 11.8831 188.068 12.1748C188.778 12.4665 189.366 12.9536 189.836 13.6361V10.2775C189.836 9.81146 189.758 9.48072 189.601 9.28527C189.445 9.08984 189.144 8.99362 188.696 8.99362H188.2V6.86182H192.846V23.0714C192.846 23.5013 192.915 23.7959 193.05 23.9614C193.185 24.1267 193.438 24.2109 193.81 24.2109H194.394V26.1984H190.48L190.218 24.1538C189.634 25.0288 188.942 25.6632 188.143 26.0511C187.343 26.4389 186.333 26.6344 185.106 26.6344C183.179 26.6344 181.676 26.0119 180.593 24.7642H180.589ZM188.723 23.1435C189.424 22.3347 189.776 21.2492 189.776 19.8872V18.3988C189.776 16.9766 189.439 15.8882 188.769 15.1274C188.098 14.3667 187.148 13.9878 185.921 13.9878C184.538 13.9878 183.54 14.4148 182.926 15.2718C182.313 16.1287 182.006 17.5028 182.006 19.3911C182.006 21.2793 182.298 22.4579 182.881 23.2187C183.464 23.9794 184.439 24.3583 185.8 24.3583C187.045 24.3583 188.02 23.9553 188.72 23.1465L188.723 23.1435Z" fill="#9786FF" style="fill:#9786FF;fill:color(display-p3 0.5922 0.5255 1.0000);fill-opacity:1;"/>
<path d="M197.004 25.6092C196.195 24.9266 195.792 23.9645 195.792 22.7167C195.792 21.3156 196.234 20.2872 197.122 19.6347C198.008 18.9822 199.286 18.5974 200.961 18.4801L205.05 18.2186V16.4355C205.05 15.5215 204.854 14.857 204.466 14.448C204.076 14.0392 203.414 13.8347 202.479 13.8347C201.836 13.8347 201.307 13.8888 200.889 13.9941C200.47 14.1023 200.086 14.2706 199.734 14.5052V15.5576H197.016V13.2514C198.652 12.2381 200.492 11.7329 202.536 11.7329C206.276 11.7329 208.144 13.3896 208.144 16.6971V23.0925C208.144 23.4834 208.216 23.763 208.363 23.9404C208.511 24.1178 208.749 24.2021 209.079 24.2021H209.722V26.1895H206.364L205.985 24.3494C205.363 25.1492 204.638 25.7265 203.809 26.0873C202.981 26.4481 201.896 26.6285 200.551 26.6285C198.994 26.6285 197.81 26.2887 197.004 25.6062V25.6092ZM204.027 23.7691C204.71 23.2639 205.05 22.4942 205.05 21.4629V20.0617L201.195 20.3534C200.242 20.4105 199.578 20.6119 199.208 20.9517C198.838 21.2915 198.652 21.8327 198.652 22.5723C198.652 23.2158 198.856 23.7029 199.265 24.0337C199.674 24.3644 200.335 24.5297 201.25 24.5297C202.419 24.5297 203.342 24.2772 204.025 23.7691H204.027Z" fill="#9786FF" style="fill:#9786FF;fill:color(display-p3 0.5922 0.5255 1.0000);fill-opacity:1;"/>
<path d="M212.441 24.6741C211.232 23.3692 210.631 21.55 210.631 19.2108C210.631 16.8716 211.229 15.0194 212.426 13.7054C213.622 12.3914 215.42 11.7329 217.814 11.7329C220.208 11.7329 222.006 12.3914 223.202 13.7054C224.399 15.0194 224.997 16.8565 224.997 19.2108C224.997 21.5651 224.393 23.3692 223.187 24.6741C221.978 25.979 220.19 26.6315 217.814 26.6315C215.438 26.6315 213.647 25.979 212.441 24.6741ZM220.941 23.1557C221.623 22.2987 221.963 20.9848 221.963 19.2138C221.963 17.4428 221.623 16.0928 220.941 15.2268C220.258 14.3608 219.218 13.9279 217.817 13.9279C216.416 13.9279 215.378 14.3608 214.705 15.2268C214.034 16.0928 213.698 17.4217 213.698 19.2138C213.698 21.0058 214.034 22.3018 214.705 23.1557C215.375 24.0126 216.413 24.4396 217.817 24.4396C219.221 24.4396 220.262 24.0126 220.941 23.1557Z" fill="#9786FF" style="fill:#9786FF;fill:color(display-p3 0.5922 0.5255 1.0000);fill-opacity:1;"/>
</g>
<defs>
<clipPath id="clip0_582_19108">
<rect width="225" height="36" fill="white" style="fill:white;fill-opacity:1;" transform="translate(0 2)"/>
</clipPath>
</defs>
</svg>
