<svg width="136" height="22" viewBox="0 0 136 22" fill="none" xmlns="http://www.w3.org/2000/svg">
<g clip-path="url(#clip0_4452_2910)">
<path d="M32.6789 10.8418C32.6789 13.5192 34.6826 15.3056 37.1116 15.3056C38.4297 15.3085 39.7226 14.9451 40.8455 14.2562V16.8566C40.3408 17.169 38.8243 17.7366 37.1314 17.7366C33.1815 17.73 30.0537 14.7402 30.0537 10.8418C30.0537 6.94344 33.1815 3.96024 37.1314 3.96024C38.8243 3.96024 40.3408 4.52344 40.8455 4.84024V7.42524C39.7217 6.73899 38.4291 6.37726 37.1116 6.38024C34.6826 6.38024 32.6789 8.16444 32.6789 10.8418ZM52.4684 11.0002V17.5364H50.0437V11.7724C50.0437 10.6284 49.5368 9.77484 48.2341 9.77484C46.9711 9.77484 46.2326 10.569 46.2326 12.0056V17.5364H43.808V3.37064H46.2326V9.44484C46.4068 9.00484 47.0879 7.63864 49.129 7.63864C51.2252 7.63864 52.4684 8.88164 52.4684 11.0002ZM65.6518 15.4992V17.5364H62.5218C62.4709 17.5395 62.4199 17.532 62.372 17.5143C62.3242 17.4967 62.2805 17.4693 62.2439 17.4339C62.2072 17.3986 62.1783 17.356 62.1589 17.3089C62.1396 17.2617 62.1303 17.2111 62.1316 17.1602V15.4222C61.801 16.5662 60.9083 17.73 59.0457 17.73C56.5175 17.73 54.6902 15.849 54.6902 12.6854C54.6902 9.48224 56.6916 7.63864 59.1802 7.63864C61.4748 7.63864 61.9421 9.52184 61.9421 9.52184V7.83444H64.3667V15.4992H65.6518ZM62.0148 12.7052C62.0148 10.8814 61.1331 9.73524 59.6828 9.73524C58.2831 9.73524 57.214 10.7648 57.214 12.6854C57.214 14.606 58.0957 15.6356 59.5659 15.6356C61.0626 15.6356 62.0148 14.6654 62.0148 12.7052ZM71.2174 8.22164V17.5364H68.7928V9.87164H67.0294V7.83444H70.8383C70.8893 7.83284 70.94 7.84183 70.9873 7.86084C71.0346 7.87985 71.0775 7.90847 71.1131 7.94487C71.1488 7.98128 71.1764 8.02468 71.1944 8.07232C71.2123 8.11997 71.2202 8.17082 71.2174 8.22164ZM71.1403 5.81484H68.515V3.37064H71.1403V5.81484ZM74.0498 7.83444H76.4414V9.56144C76.5207 9.30844 77.1027 7.63864 79.3774 7.63864C81.478 7.63864 82.7234 8.88164 82.7234 10.9958V17.5364H80.2988V11.7724C80.2988 10.6284 79.794 9.77484 78.4913 9.77484C77.2261 9.77484 76.4877 10.569 76.4877 12.0056V17.5364H74.063L74.0498 7.83444ZM95.9046 15.4992V17.5364H92.7746C92.7237 17.5395 92.6727 17.532 92.6249 17.5143C92.577 17.4967 92.5334 17.4693 92.4967 17.4339C92.46 17.3986 92.4311 17.356 92.4118 17.3089C92.3925 17.2617 92.3832 17.2111 92.3845 17.1602V15.4222C92.0538 16.5662 91.1611 17.73 89.2986 17.73C86.7703 17.73 84.943 15.849 84.943 12.6854C84.943 9.48224 86.9445 7.63864 89.4352 7.63864C91.7298 7.63864 92.1949 9.52184 92.1949 9.52184V7.83444H94.6195V15.4992H95.9046ZM92.2676 12.7052C92.2676 10.8814 91.386 9.73524 89.9356 9.73524C88.5359 9.73524 87.4669 10.7648 87.4669 12.6854C87.4669 14.606 88.3596 15.6356 89.8298 15.6356C91.3154 15.6356 92.2676 14.6654 92.2676 12.7052ZM100.864 3.96024V17.5364H98.4262V5.40784H96.9097V3.37064H100.273C100.351 3.36976 100.428 3.38441 100.5 3.41372C100.573 3.44304 100.638 3.48644 100.693 3.54136C100.748 3.59629 100.792 3.66164 100.821 3.73357C100.85 3.8055 100.865 3.88257 100.864 3.96024ZM105.231 22.0002H102.806V19.963H104.598C105.239 19.963 105.533 19.7694 105.764 19.1864L106.485 17.3626L102.742 7.83444H105.444L107.719 14.683L110.073 7.83444H112.776L107.993 20.117C107.488 21.4172 106.65 22.0002 105.231 22.0002ZM114.122 16.916V14.5686C114.453 14.7886 115.793 15.6686 117.292 15.6686C118.438 15.6686 118.943 15.3386 118.943 14.6984C118.943 12.7778 113.986 14.1946 113.986 10.547C113.986 8.89704 115.385 7.63424 117.953 7.63424C119.371 7.63424 120.378 8.00384 120.773 8.23704V10.5602C120.285 10.2478 119.313 9.62744 117.991 9.62744C116.845 9.62744 116.417 9.97724 116.417 10.5206C116.417 12.0914 121.354 11.0046 121.354 14.5774C121.354 16.5178 119.741 17.7388 117.387 17.7388C115.84 17.73 114.57 17.2064 114.122 16.916ZM127.169 8.22164V17.5364H124.745V9.87164H122.981V7.83444H126.792C126.843 7.83282 126.894 7.84181 126.941 7.86084C126.988 7.87987 127.031 7.90853 127.066 7.94497C127.102 7.98141 127.129 8.02484 127.147 8.07248C127.165 8.12012 127.172 8.17093 127.169 8.22164ZM127.092 5.81484H124.467V3.37064H127.092V5.81484ZM129.768 16.916V14.5686C130.096 14.7886 131.439 15.6686 132.935 15.6686C134.084 15.6686 134.589 15.3386 134.589 14.6984C134.589 12.7778 129.631 14.1946 129.631 10.547C129.631 8.89704 131.031 7.63424 133.599 7.63424C135.018 7.63424 136.023 8.00384 136.418 8.23704V10.5602C135.605 9.98103 134.637 9.65634 133.639 9.62744C132.49 9.62744 132.063 9.97724 132.063 10.5206C132.063 12.0914 137.002 11.0046 137.002 14.5774C137.002 16.5178 135.389 17.7388 133.035 17.7388C131.489 17.73 130.213 17.2064 129.768 16.916Z" fill="white" style="fill:white;fill-opacity:1;"/>
<path d="M12.0221 0C12.269 0 12.5489 0.0308 12.5489 0.0308C11.7206 1.02231 11.2215 2.2462 11.1206 3.5332C9.55994 3.79377 8.12317 4.54407 7.01887 5.67513C5.91457 6.8062 5.20025 8.25915 4.97962 9.823C3.55349 9.977 1.94001 10.6282 1.01203 11.5588C0.791612 5.1744 5.69378 0 12.0221 0ZM13.6091 19.1796C13.3172 19.2227 13.0225 19.244 12.7274 19.2434C12.2181 19.2373 11.7099 19.1954 11.2065 19.118C10.8132 20.0631 10.2943 20.9511 9.66357 21.758C7.68531 21.3226 5.86557 20.3513 4.40426 18.951C2.94294 17.5507 1.89658 15.7755 1.38014 13.8204C2.37424 12.6434 4.67103 11.9614 6.09715 11.9614C9.13897 11.9614 10.7525 13.5718 11.3123 16.082C9.48062 15.587 8.39394 14.564 7.67978 13.046C7.26242 12.8948 6.82107 12.8202 6.37709 12.826C5.97647 12.8244 5.57822 12.8875 5.19784 13.013C6.00458 16.082 8.98467 18.3744 12.615 18.3744C15.9676 18.3744 17.3937 16.6716 17.3937 16.6716V14.0668C17.3937 14.0668 15.7494 15.7718 13.7017 16.1128C13.4713 14.5215 12.7296 13.0479 11.5879 11.9136C10.4463 10.7794 8.96653 10.0457 7.37119 9.823C7.898 7.2204 9.88399 5.764 12.5842 5.764C15.2843 5.764 17.4577 7.7154 17.4577 7.7154V5.1436C17.4577 5.1436 16.0602 3.8412 13.5783 3.564C13.64 2.42 14.385 0.9922 15.1917 0.4642C18.573 1.518 21.833 4.3692 22.7632 8.5206C22.7632 8.5206 21.2732 10.0078 18.4804 10.0078C16.1836 10.0078 14.7333 8.8616 13.9177 6.8486C13.4899 6.6965 13.0383 6.622 12.5842 6.6286C12.1604 6.62397 11.7395 6.69859 11.3432 6.8486C12.2425 10.0716 15.0903 12.2386 18.2644 12.2386C21.3679 12.2386 23.0431 10.8152 23.0431 10.8152C23.0431 17.259 18.1079 21.8768 12.2425 22C12.9258 21.34 13.4526 19.8924 13.6091 19.1796Z" fill="#DB693B" style="fill:#DB693B;fill:color(display-p3 0.8588 0.4118 0.2314);fill-opacity:1;"/>
</g>
<defs>
<clipPath id="clip0_4452_2910">
<rect width="136" height="22" fill="white" style="fill:white;fill-opacity:1;"/>
</clipPath>
</defs>
</svg>
