<svg width="134" height="32" viewBox="0 0 134 32" fill="none" xmlns="http://www.w3.org/2000/svg">
<g clip-path="url(#clip0_582_12901)">
<path d="M27.0447 10.7003C22.1768 10.7003 18.3732 14.4054 18.3732 19.3654C18.3732 24.3254 22.0807 27.9988 27.0447 27.9988C32.0087 27.9988 35.7807 24.262 35.7807 19.3337C35.7807 14.4371 32.0732 10.7003 27.0447 10.7003ZM27.0776 24.4242C24.3055 24.4242 22.2741 22.2656 22.2741 19.3666C22.2741 16.4348 24.2726 14.2774 27.0447 14.2774C29.8497 14.2774 31.8798 16.4677 31.8798 19.3666C31.8798 22.2656 29.8497 24.4242 27.0776 24.4242ZM36.8438 14.47H39.2619V27.678H43.13V11.0223H36.8438V14.47ZM8.63865 14.2761C10.67 14.2761 12.2817 15.5323 12.8935 17.4007H16.9878C16.2458 13.4066 12.958 10.7003 8.67149 10.7003C3.80358 10.7003 0 14.4054 0 19.3666C0 24.3279 3.70749 28 8.67149 28C12.8619 28 16.2142 25.2938 16.9562 21.2667H12.8935C12.3133 23.1351 10.7016 24.4242 8.67027 24.4242C5.86533 24.4242 3.89968 22.2656 3.89968 19.3666C3.90089 16.4348 5.83492 14.2761 8.63865 14.2761ZM110.339 17.7556L107.503 17.3373C106.149 17.1446 105.182 16.6933 105.182 15.6299C105.182 14.47 106.44 13.8907 108.147 13.8907C110.017 13.8907 111.21 14.6957 111.468 16.0165H115.207C114.787 12.6663 112.209 10.7016 108.245 10.7016C104.15 10.7016 101.443 12.7956 101.443 15.7591C101.443 18.5934 103.216 20.2374 106.793 20.7521L109.63 21.1704C111.017 21.3631 111.79 21.9119 111.79 22.9424C111.79 24.2632 110.437 24.8108 108.567 24.8108C106.278 24.8108 104.988 23.8766 104.795 22.4595H100.991C101.347 25.7133 103.892 28 108.534 28C112.757 28 115.561 26.067 115.561 22.7485C115.561 19.7849 113.531 18.2385 110.339 17.7556ZM41.196 4.16098C39.7777 4.16098 38.7134 5.19152 38.7134 6.60867C38.7134 8.02581 39.7765 9.05635 41.196 9.05635C42.6142 9.05635 43.6786 8.02581 43.6786 6.60867C43.6786 5.19152 42.6142 4.16098 41.196 4.16098ZM97.9614 16.725C97.9614 13.1175 95.7695 10.7016 91.1279 10.7016C86.7441 10.7016 84.2943 12.9248 83.8102 16.3397H87.6466C87.84 15.0189 88.8715 13.9237 91.0634 13.9237C93.0303 13.9237 93.9973 14.7932 93.9973 15.8567C93.9973 17.2421 92.2238 17.5958 90.0319 17.8214C87.0664 18.1434 83.3918 19.1739 83.3918 23.04C83.3918 26.0365 85.6165 27.9683 89.1622 27.9683C91.9343 27.9683 93.675 26.8085 94.5459 24.9718C94.6748 26.6146 95.8997 27.678 97.6087 27.678H99.8651V24.2315H97.9627V16.725H97.9614ZM94.1579 20.9131C94.1579 23.1363 92.2238 24.7791 89.8702 24.7791C88.419 24.7791 87.1941 24.1669 87.1941 22.879C87.1941 21.2362 89.161 20.785 90.9661 20.5923C92.7067 20.4313 93.6737 20.0447 94.1579 19.3032V20.9131ZM73.6243 10.7003C71.4641 10.7003 69.659 11.6028 68.3696 13.1163V4H64.5016V27.678H68.3052V25.4877C69.5945 27.0658 71.4324 28 73.6243 28C78.266 28 81.7801 24.3279 81.7801 19.3666C81.7801 14.4054 78.2015 10.7003 73.6243 10.7003ZM73.0441 24.4242C70.272 24.4242 68.2407 22.2656 68.2407 19.3666C68.2407 16.4677 70.3037 14.2774 73.0758 14.2774C75.8807 14.2774 77.8464 16.436 77.8464 19.3666C77.8464 22.2656 75.8162 24.4242 73.0441 24.4242ZM55.2499 10.7003C52.7356 10.7003 51.0911 11.7309 50.1241 13.181V11.0223H46.2877V27.6768H50.1557V18.6251C50.1557 16.0799 51.7674 14.2761 54.1527 14.2761C56.3775 14.2761 57.7629 15.8543 57.7629 18.1422V27.678H61.6309V17.8531C61.6322 13.6639 59.4731 10.7003 55.2499 10.7003ZM134 18.819C134 14.0517 130.519 10.7016 125.844 10.7016C120.88 10.7016 117.237 14.4383 117.237 19.3666C117.237 24.5535 121.138 28 125.909 28C129.939 28 133.097 25.6157 133.903 22.2339H129.873C129.293 23.7156 127.874 24.5535 125.972 24.5535C123.489 24.5535 121.62 23.0071 121.201 20.3008H133.999V18.819H134ZM121.428 17.53C122.041 15.2103 123.781 14.0834 125.78 14.0834C127.972 14.0834 129.648 15.3396 130.035 17.53H121.428Z" fill="#0052FF" style="fill:#0052FF;fill:color(display-p3 0.0000 0.3216 1.0000);fill-opacity:1;"/>
</g>
<defs>
<clipPath id="clip0_582_12901">
<rect width="134" height="24" fill="white" style="fill:white;fill-opacity:1;" transform="translate(0 4)"/>
</clipPath>
</defs>
</svg>
