<svg width="140" height="40" viewBox="0 0 140 40" fill="none" xmlns="http://www.w3.org/2000/svg">
<g clip-path="url(#clip0_582_18434)">
<path d="M113.03 9.876C113.03 8.84764 113.862 8.01587 114.864 8.01587C115.868 8.01587 116.724 8.84764 116.724 9.876C116.724 10.9044 115.892 11.7119 114.864 11.7119C113.837 11.7119 113.03 10.9044 113.03 9.876Z" fill="white" style="fill:white;fill-opacity:1;"/>
<path d="M136.558 10.4443V14.2855H139.161V16.941H136.558V22.7662C136.558 23.8762 137.047 24.339 138.157 24.339C138.568 24.339 139.058 24.2604 139.188 24.2361V26.7102C139.006 26.7889 138.441 26.9944 137.358 26.9944C135.04 26.9944 133.598 25.6032 133.598 23.2562V16.941H131.28V14.2855H131.926H133.855V12.3921C133.855 12.371 133.855 12.3468 133.855 12.3256V10.4443H136.561H136.558Z" fill="white" style="fill:white;fill-opacity:1;"/>
<path d="M34.3969 23.8796C34.9712 24.8747 35.7541 25.6671 36.7487 26.2568C37.7583 26.8315 38.8919 27.1188 40.1494 27.1188C41.0653 27.1188 41.9117 26.9646 42.6887 26.6531C43.4655 26.3264 44.1336 25.8848 44.6928 25.3253C45.2521 24.7506 45.6541 24.1064 45.905 23.3927L43.2267 22.1798C42.994 22.8331 42.607 23.3533 42.0629 23.7404C41.5188 24.1276 40.884 24.3242 40.1525 24.3242C39.4843 24.3242 38.8859 24.1609 38.3598 23.8342C37.8489 23.5075 37.4439 23.0569 37.1477 22.4823C36.8515 21.9076 36.7063 21.2482 36.7063 20.5012C36.7063 19.7541 36.8544 19.0948 37.1477 18.5202C37.4439 17.9455 37.846 17.4948 38.3598 17.1682C38.8889 16.8415 39.4843 16.6782 40.1525 16.6782C40.8659 16.6782 41.4946 16.8718 42.0388 17.2619C42.5979 17.6491 42.994 18.1632 43.2267 18.7984L45.905 17.6339C45.6571 16.8718 45.246 16.2215 44.6716 15.6771C44.1124 15.1176 43.4443 14.682 42.6675 14.3735C41.8906 14.0469 41.0533 13.8835 40.1525 13.8835C38.8949 13.8835 37.7613 14.1709 36.7517 14.7455C35.7572 15.3202 34.9742 16.1035 34.3999 17.0986C33.8255 18.0937 33.5383 19.2188 33.5383 20.477C33.5383 21.7352 33.8255 22.8694 34.3999 23.8796H34.3969Z" fill="white" style="fill:white;fill-opacity:1;"/>
<path d="M50.4214 14.1646H47.5557V26.8403H50.6057V19.7811C50.6057 18.8193 50.8688 18.0723 51.3978 17.543C51.9268 16.9986 52.6251 16.7264 53.4927 16.7264H54.5869V14.0225H53.8402C52.9546 14.0225 52.1958 14.21 51.558 14.582C51.0803 14.8693 50.7025 15.323 50.4184 15.9461V14.1616L50.4214 14.1646Z" fill="white" style="fill:white;fill-opacity:1;"/>
<path fill-rule="evenodd" clip-rule="evenodd" d="M61.716 13.8987C65.4766 13.8987 68.2365 16.7085 68.2365 20.5496C68.2365 24.3907 65.4795 27.2277 61.716 27.2277C57.9525 27.2277 55.2229 24.4179 55.2229 20.5496C55.2229 16.6813 57.9797 13.8987 61.716 13.8987ZM61.716 24.545C63.5721 24.545 65.2195 23.1779 65.2195 20.5496C65.2195 17.9213 63.5691 16.6056 61.716 16.6056C59.863 16.6056 58.2125 17.9455 58.2125 20.5496C58.2125 23.1537 59.8872 24.545 61.716 24.545Z" fill="white" style="fill:white;fill-opacity:1;"/>
<path d="M71.8394 22.715L69.2366 23.4378C69.3908 24.8563 70.7813 27.2276 74.4148 27.2276C77.6101 27.2276 79.1547 25.1135 79.1547 23.205C79.1547 21.2965 77.9183 19.9052 75.5484 19.3881L73.641 19.0008C72.8671 18.8466 72.3774 18.3567 72.3774 17.6852C72.3774 16.9109 73.124 16.2425 74.1821 16.2425C75.8567 16.2425 76.3979 17.404 76.5006 18.1238L79.0247 17.4009C78.8192 16.1639 77.6856 13.8955 74.1821 13.8955C71.5794 13.8955 69.5691 15.7526 69.5691 17.9423C69.5691 19.6693 70.7299 21.112 72.9458 21.602L74.8018 22.0133C75.8054 22.219 76.2709 22.7362 76.2709 23.4046C76.2709 24.1788 75.627 24.8473 74.3907 24.8473C72.7946 24.8473 71.9422 23.8432 71.8394 22.7089V22.715Z" fill="white" style="fill:white;fill-opacity:1;"/>
<path d="M80.1582 23.4377L82.7609 22.7148C82.8637 23.849 83.7131 24.8532 85.3122 24.8532C86.5485 24.8532 87.1924 24.1817 87.1924 23.4104C87.1924 22.739 86.73 22.2248 85.7233 22.0192L83.8673 21.6078C81.6514 21.1179 80.4907 19.6752 80.4907 17.9481C80.4907 15.7554 82.5009 13.9014 85.1036 13.9014C88.6072 13.9014 89.7408 16.1698 89.9463 17.4068L87.4222 18.1297C87.3194 17.4068 86.7783 16.2484 85.1036 16.2484C84.0486 16.2484 83.299 16.9198 83.299 17.6911C83.299 18.3625 83.7886 18.8525 84.5625 19.0068L86.47 19.3939C88.84 19.9081 90.0763 21.3538 90.0763 23.2108C90.0763 25.0679 88.5316 27.2335 85.3364 27.2335C81.7029 27.2335 80.3123 24.8622 80.1582 23.4437V23.4377Z" fill="white" style="fill:white;fill-opacity:1;"/>
<path d="M94.8854 14.1649H92.0193V26.8406H95.0693V19.4063C95.0693 18.8468 95.1696 18.3659 95.372 17.9607C95.5744 17.5553 95.8613 17.2469 96.2328 17.0291C96.6051 16.7962 97.0341 16.6782 97.5151 16.6782C97.9952 16.6782 98.44 16.7962 98.7966 17.0291C99.168 17.2469 99.4558 17.5584 99.6583 17.9607C99.8607 18.3659 99.9601 18.8468 99.9601 19.4063V26.8406H103.01V19.4063C103.01 18.8468 103.111 18.3659 103.313 17.9607C103.516 17.5553 103.802 17.2469 104.174 17.0291C104.546 16.7962 104.975 16.6782 105.456 16.6782C105.967 16.6782 106.402 16.7962 106.759 17.0291C107.116 17.2469 107.397 17.5584 107.597 17.9607C107.799 18.3659 107.898 18.8468 107.898 19.4063V26.8406H110.949V18.6865C110.949 17.7398 110.746 16.9081 110.344 16.1943C109.942 15.4654 109.383 14.8968 108.666 14.4945C107.968 14.0893 107.167 13.8896 106.266 13.8896C105.257 13.8896 104.365 14.1467 103.588 14.6579C103.089 14.9785 102.669 15.4049 102.331 15.9372C102.052 15.4594 101.665 15.048 101.166 14.7063C100.374 14.1618 99.4586 13.8896 98.4186 13.8896C97.4724 13.8896 96.6506 14.1135 95.9486 14.5641C95.4927 14.8575 95.1361 15.2537 94.8789 15.7467V14.1679L94.8854 14.1649Z" fill="white" style="fill:white;fill-opacity:1;"/>
<path d="M116.359 26.8404H113.397V14.2856H116.359V26.8404Z" fill="white" style="fill:white;fill-opacity:1;"/>
<path d="M119.042 14.2829V26.8376H122.065V19.476C122.065 18.9225 122.174 18.4446 122.389 18.0454C122.603 17.6462 122.902 17.3377 123.29 17.1229C123.673 16.8931 124.111 16.7781 124.604 16.7781C125.097 16.7781 125.551 16.8931 125.919 17.1229C126.303 17.3377 126.603 17.6462 126.82 18.0454C127.034 18.4446 127.144 18.9225 127.144 19.476V26.8376H130.167V18.7591C130.167 17.8216 129.967 16.9959 129.568 16.2881C129.169 15.5653 128.607 15.0027 127.884 14.6035C127.177 14.2043 126.36 14.0046 125.438 14.0046C124.517 14.0046 123.761 14.2043 123.087 14.6035C122.579 14.8999 122.177 15.3052 121.886 15.8224V14.2829H119.048H119.042Z" fill="white" style="fill:white;fill-opacity:1;"/>
<path fill-rule="evenodd" clip-rule="evenodd" d="M21.5415 21.6169C19.362 20.5009 16.454 20.1258 14.7461 19.9988C17.0707 19.8264 21.6201 19.1943 23.5245 16.8593C26.5052 14.6272 26.363 7.07502 26.363 7.07502C26.363 7.07502 19.2109 6.28562 16.0883 9.8485C14.1475 11.7812 13.546 15.1384 13.3706 17.4763C13.1953 15.1414 12.5938 11.7812 10.653 9.8485C7.53041 6.2826 0.378243 7.07502 0.378243 7.07502C0.378243 7.07502 0.290579 11.7842 1.7204 14.8662C2.42474 16.3845 3.7125 17.6216 5.19976 18.3837C7.37927 19.4998 10.2873 19.8747 11.9952 20.0018C10.2873 20.1289 7.37927 20.5038 5.19976 21.6199C3.7125 22.3821 2.42474 23.6191 1.7204 25.1374C0.290579 28.2164 0.378243 32.9255 0.378243 32.9255C0.378243 32.9255 7.53041 33.715 10.653 30.1521C12.5938 28.2194 13.1953 24.8592 13.3706 22.5242C13.546 24.8592 14.1475 28.2194 16.0883 30.1521C19.2109 33.715 26.363 32.9255 26.363 32.9255C26.363 32.9255 26.4537 28.2164 25.0208 25.1344C24.3165 23.6161 23.0288 22.3791 21.5415 21.6169ZM21.7803 28.2224C21.7441 28.2134 18.0108 27.1487 13.2195 20.7458C11.8139 21.8438 8.28311 24.7473 4.92165 28.7124L4.77051 28.8909L4.83097 28.664C4.84003 28.6247 5.93433 24.7775 12.5998 19.8778C11.9559 18.922 10.4414 16.7233 4.59518 11.5422L4.4652 11.4273L4.6375 11.4515C4.76144 11.4697 7.76619 11.9415 13.2557 19.0189C13.2557 19.0189 13.3253 19.1156 13.4522 19.285C14.2261 18.7497 16.4661 17.1588 21.5022 11.4666L21.6171 11.3366L21.5929 11.509C21.5748 11.633 21.1032 14.6242 14.075 20.0955C15.402 21.7712 18.1468 25.0074 21.8287 28.1287L22.01 28.2829L21.7834 28.2224H21.7803Z" fill="url(#paint0_linear_582_18434)" style=""/>
</g>
<defs>
<linearGradient id="paint0_linear_582_18434" x1="0.414518" y1="7.03873" x2="26.3407" y2="32.9479" gradientUnits="userSpaceOnUse">
<stop stop-color="#5EDD4D" style="stop-color:#5EDD4D;stop-color:color(display-p3 0.3686 0.8667 0.3020);stop-opacity:1;"/>
<stop offset="1" stop-color="#05CE6C" style="stop-color:#05CE6C;stop-color:color(display-p3 0.0196 0.8078 0.4235);stop-opacity:1;"/>
</linearGradient>
<clipPath id="clip0_582_18434">
<rect width="139.286" height="26" fill="white" style="fill:white;fill-opacity:1;" transform="translate(0.377197 7)"/>
</clipPath>
</defs>
</svg>
