<svg width="154" height="30" viewBox="0 0 154 30" fill="none" xmlns="http://www.w3.org/2000/svg">
<g clip-path="url(#clip0_582_18971)">
<path d="M123.273 22.6482V27.1623H120.38V26.9667C120.38 21.2369 120.382 16.557 120.379 10.8272C120.379 9.59898 120.91 8.67221 121.935 8.02321C122.431 7.7081 122.995 7.60468 123.577 7.60598C125.562 7.60968 127.546 7.59351 129.529 7.62963C130.614 7.64957 131.634 7.95351 132.515 8.6261C133.536 9.40716 134.046 10.5033 134.238 11.785C134.298 12.1849 134.316 12.591 134.313 12.9958C134.303 14.5852 134.323 16.1734 134.297 17.7628C134.282 18.6634 134.08 19.5291 133.636 20.3276C133.177 21.1534 132.511 21.7463 131.659 22.1399C130.792 22.541 129.871 22.6482 128.929 22.6482C127.125 22.6482 125.323 22.6482 123.519 22.6482C123.447 22.6482 123.376 22.6482 123.273 22.6482ZM123.274 19.853C123.353 19.8567 123.401 19.8604 123.449 19.8604C125.283 19.8604 127.116 19.8642 128.95 19.8567C129.319 19.8554 129.693 19.8355 130.059 19.782C130.705 19.6873 131.215 19.1716 131.316 18.5264C131.369 18.1813 131.406 17.83 131.408 17.4813C131.419 16.0214 131.424 14.5615 131.411 13.1017C131.408 12.6146 131.368 12.1251 131.3 11.643C131.214 11.0364 130.871 10.6291 130.248 10.5095C129.994 10.4609 129.735 10.4136 129.479 10.4111C127.537 10.3974 125.595 10.3937 123.654 10.3887C123.339 10.3887 123.275 10.4534 123.275 10.7736C123.275 13.7294 123.275 16.6853 123.275 19.64C123.275 19.7047 123.275 19.7695 123.275 19.8504L123.274 19.853Z" fill="white" style="fill:white;fill-opacity:1;"/>
<path d="M140.287 10.39V7.60474C140.368 7.60474 140.439 7.60474 140.51 7.60474C143.085 7.60474 145.659 7.60474 148.234 7.60474C149.009 7.60474 149.777 7.66456 150.521 7.89621C152.261 8.43809 153.375 9.57779 153.76 11.3727C153.869 11.8872 153.915 12.4229 153.919 12.9497C153.936 15.1146 153.924 17.2795 153.926 19.4444C153.928 20.7997 153.29 21.76 152.109 22.3766C151.695 22.5934 151.237 22.6469 150.775 22.6469C148.46 22.6482 146.144 22.6394 143.828 22.6494C142.072 22.6569 140.591 21.4561 140.144 19.8929C139.854 18.8764 139.98 17.8811 140.526 16.9519C140.986 16.1697 141.72 15.588 142.567 15.2653C145.313 14.2178 148.058 13.1627 150.804 12.1164C150.949 12.0603 150.994 12.003 150.962 11.8436C150.882 11.45 150.806 11.0639 150.47 10.7886C150.2 10.5681 149.88 10.4846 149.55 10.4535C149.143 10.4149 148.732 10.395 148.323 10.3937C145.73 10.3887 143.138 10.3912 140.545 10.3912H140.29L140.287 10.39ZM151.03 15.1308C150.934 15.1644 150.873 15.1856 150.812 15.208C149.502 15.7113 148.191 16.2145 146.88 16.7177C145.704 17.1699 144.529 17.6233 143.354 18.078C143.136 18.1627 142.944 18.286 142.927 18.5426C142.91 18.8179 142.906 19.0969 142.93 19.3709C142.954 19.6537 143.079 19.7733 143.363 19.8206C143.528 19.848 143.698 19.8592 143.866 19.8592C146.134 19.8617 148.4 19.8604 150.668 19.8604C150.867 19.8604 151.029 19.6986 151.029 19.4992C151.029 18.1129 151.029 16.7264 151.029 15.3389V15.1283L151.03 15.1308Z" fill="white" style="fill:white;fill-opacity:1;"/>
<path d="M93.4339 19.8618V22.6333C93.3857 22.6383 93.3446 22.647 93.3046 22.647C90.4879 22.6445 87.6724 22.6607 84.8558 22.6283C83.7831 22.6158 82.7574 22.3418 81.8463 21.7327C80.8665 21.0775 80.2416 20.1694 79.9942 19.0284C79.8719 18.4667 79.8061 17.8837 79.7985 17.3095C79.7773 15.6752 79.7738 14.0397 79.8137 12.4067C79.8449 11.1361 80.2317 9.97272 81.128 9.02978C81.6306 8.50043 82.2542 8.14666 82.9455 7.91748C83.8589 7.61354 84.8146 7.58237 85.7756 7.61848C87.0106 7.66584 88.2491 7.69325 89.4811 7.61601C91.0992 7.51513 92.3365 8.13919 93.1565 9.44213C93.6955 10.2966 93.8612 11.3504 93.5961 12.3257C93.2335 13.6548 92.3935 14.5143 91.1815 14.9789C88.4277 16.0327 85.6775 17.0902 82.9243 18.1415C82.7809 18.1964 82.7374 18.2537 82.7621 18.4131C82.8232 18.8229 82.9278 19.2066 83.2629 19.4818C83.5662 19.731 83.9423 19.792 84.3179 19.8207C84.6553 19.8468 84.9927 19.8618 85.3301 19.8618C87.9452 19.8655 90.5602 19.8642 93.1753 19.8642H93.4304L93.4339 19.8618ZM82.6862 15.1271C82.7709 15.096 82.8267 15.0761 82.882 15.0549C84.2598 14.5255 85.6375 13.9961 87.0141 13.4667C88.128 13.0382 89.2395 12.6085 90.3545 12.1825C90.6449 12.0716 90.8118 11.8798 90.8089 11.5597C90.8077 11.3977 90.8165 11.2345 90.8089 11.0726C90.7842 10.5806 90.6349 10.4324 90.1482 10.4025C90.1247 10.4012 90.0994 10.4 90.0759 10.4C88.4054 10.3987 86.7367 10.395 85.0662 10.3975C84.7776 10.3975 84.4884 10.4237 84.1998 10.4473C83.3263 10.5183 82.8732 10.9468 82.7762 11.8162C82.7286 12.2348 82.6986 12.6571 82.6904 13.0781C82.6763 13.752 82.6862 14.4271 82.6862 15.1284V15.1271Z" fill="white" style="fill:white;fill-opacity:1;"/>
<path d="M118.97 15.1132C118.97 16.0425 118.997 16.9717 118.964 17.8985C118.919 19.1254 118.549 20.244 117.704 21.1682C117.23 21.6876 116.645 22.0402 115.995 22.2793C115.299 22.5359 114.559 22.6443 113.817 22.6431C112.579 22.6406 111.34 22.6667 110.103 22.6269C109.022 22.592 107.994 22.3254 107.082 21.7063C106.275 21.1595 105.723 20.4208 105.399 19.5053C105.158 18.8202 105.066 18.1115 105.066 17.3902C105.063 15.8095 105.062 14.2301 105.073 12.6494C105.078 11.8833 105.217 11.1397 105.523 10.4309C105.994 9.34347 106.788 8.58617 107.868 8.11158C108.763 7.7167 109.71 7.60335 110.674 7.60211C111.856 7.59959 113.039 7.58217 114.219 7.62453C115.449 7.66811 116.584 8.02811 117.508 8.88388C118.063 9.39582 118.441 10.0286 118.68 10.7473C118.921 11.4723 118.99 12.2184 118.995 12.9758C118.998 13.687 118.995 14.3995 118.995 15.1108C118.987 15.1108 118.98 15.1108 118.973 15.1108L118.97 15.1132ZM116.069 15.1332C116.079 15.1332 116.088 15.1332 116.098 15.1332C116.098 14.4879 116.105 13.8427 116.096 13.1975C116.087 12.5647 116.091 11.9282 115.894 11.3128C115.772 10.9304 115.448 10.6439 115.057 10.553C114.699 10.4708 114.328 10.4135 113.963 10.4072C112.788 10.3848 111.612 10.3898 110.437 10.3935C110.106 10.3935 109.775 10.4197 109.446 10.4483C108.624 10.5193 108.186 10.9167 108.058 11.7338C108.002 12.0901 107.969 12.4538 107.967 12.8138C107.957 14.3509 107.956 15.8892 107.967 17.4263C107.969 17.8225 108.009 18.2223 108.074 18.6135C108.175 19.2226 108.513 19.6398 109.148 19.7469C109.462 19.8005 109.78 19.8466 110.098 19.8503C111.285 19.8641 112.473 19.8641 113.661 19.8566C114.022 19.8541 114.385 19.8342 114.742 19.7806C115.482 19.6685 115.827 19.3409 115.975 18.6346C116.026 18.3942 116.062 18.1463 116.066 17.9009C116.076 16.9792 116.069 16.0562 116.069 15.1332Z" fill="white" style="fill:white;fill-opacity:1;"/>
<path d="M68.4382 22.6395C68.3812 22.6432 68.3401 22.6482 68.2989 22.6482C65.3253 22.6456 62.3529 22.6593 59.3799 22.632C58.3155 22.622 57.3073 22.3392 56.421 21.7089C55.6456 21.1572 55.144 20.4098 54.839 19.5192C54.5877 18.7855 54.5192 18.0244 54.5179 17.2558C54.5155 14.1131 54.5179 10.9704 54.5179 7.82894V7.61964H57.4118C57.4118 7.69811 57.4118 7.77411 57.4118 7.85011C57.4118 10.8895 57.4081 13.93 57.4156 16.9693C57.4168 17.4738 57.4492 17.9821 57.5114 18.4828C57.6284 19.422 58.1212 19.7209 58.9725 19.8131C59.2776 19.8455 59.5862 19.8579 59.8936 19.8592C61.721 19.8629 63.5479 19.8617 65.3753 19.8617C65.4241 19.8617 65.4711 19.8617 65.5422 19.8617V7.61841H68.4371V22.6395H68.4382Z" fill="white" style="fill:white;fill-opacity:1;"/>
<path d="M53.1203 7.60474V10.39H52.8639C50.1866 10.39 47.5081 10.3837 44.8308 10.395C44.3142 10.3974 43.794 10.436 43.2837 10.5108C42.6625 10.603 42.2991 11.009 42.2145 11.6219C42.146 12.1151 42.1049 12.6171 42.1 13.1154C42.0875 14.5865 42.095 16.0588 42.1024 17.5311C42.1049 18.0319 42.1361 18.5326 42.3227 19.0072C42.4572 19.3473 42.6986 19.5976 43.0534 19.6774C43.4504 19.767 43.8599 19.8468 44.2644 19.8493C47.1346 19.8654 50.0062 19.8604 52.8764 19.8617C52.9536 19.8617 53.0307 19.8617 53.1191 19.8617V22.6307C53.0718 22.637 53.027 22.6469 52.9809 22.6469C50.0858 22.6444 47.1907 22.6569 44.2968 22.6307C43.3683 22.622 42.4696 22.4127 41.6394 21.9631C40.4508 21.3191 39.6977 20.3338 39.399 19.0259C39.2783 18.4953 39.2173 17.9422 39.2098 17.3979C39.1874 15.7574 39.1874 14.1169 39.2148 12.4764C39.2297 11.5746 39.4475 10.7113 39.9168 9.92409C40.4134 9.09326 41.1167 8.50285 41.9966 8.11668C42.9102 7.71562 43.8748 7.60721 44.8582 7.60597C47.5417 7.6035 50.2252 7.60597 52.9099 7.60597C52.9747 7.60597 53.0407 7.60597 53.1203 7.60597V7.60474Z" fill="white" style="fill:white;fill-opacity:1;"/>
<path d="M103.649 10.39H98.0097C98.0097 10.4785 98.0097 10.5445 98.0097 10.6105C98.0097 12.7517 98.0033 14.8929 98.0144 17.0342C98.0168 17.5387 98.0479 18.0481 98.1191 18.5464C98.2102 19.1779 98.6951 19.6811 99.3264 19.7758C99.7372 19.8368 100.156 19.8531 100.572 19.858C101.525 19.8692 102.478 19.8618 103.43 19.8618C103.501 19.8618 103.571 19.8618 103.652 19.8618V22.6358C103.603 22.6408 103.563 22.647 103.522 22.647C102.407 22.6445 101.29 22.6669 100.175 22.6308C99.1647 22.5972 98.1925 22.3692 97.3185 21.8274C96.1947 21.1298 95.5164 20.1184 95.2724 18.8279C95.1766 18.3222 95.1231 17.8002 95.1219 17.2845C95.1108 12.2784 95.1155 8.321 95.1155 3.31485C95.1155 3.25008 95.1155 3.1853 95.1155 3.11182H98.0045V7.60353H103.65V10.3888L103.649 10.39Z" fill="white" style="fill:white;fill-opacity:1;"/>
<path d="M72.7439 22.6406H69.8661C69.8602 22.5945 69.8502 22.5485 69.8502 22.5023C69.8525 19.1429 69.8402 15.7835 69.8672 12.4252C69.8761 11.3702 70.1888 10.3836 70.8336 9.52046C71.3114 8.88017 71.9321 8.43052 72.6569 8.11164C73.5344 7.72546 74.4643 7.61211 75.4101 7.60593C76.357 7.5997 77.3033 7.60464 78.2502 7.60464C78.2914 7.60464 78.3325 7.61211 78.3837 7.61711V10.3886C78.3002 10.3886 78.2244 10.3886 78.1486 10.3886C77.0629 10.3924 75.9773 10.3886 74.8922 10.4036C74.5813 10.4073 74.2662 10.4447 73.9588 10.497C73.324 10.6054 72.9455 10.999 72.8632 11.6293C72.7926 12.1711 72.7503 12.7205 72.7492 13.2673C72.7374 16.3066 72.7439 19.3459 72.7439 22.3865C72.7439 22.4638 72.7439 22.541 72.7439 22.6406Z" fill="white" style="fill:white;fill-opacity:1;"/>
<path d="M138.595 7.61963H135.727V22.6406H138.595V7.61963Z" fill="white" style="fill:white;fill-opacity:1;"/>
<path d="M138.597 3.0918H135.723V5.95674H138.597V3.0918Z" fill="white" style="fill:white;fill-opacity:1;"/>
<path d="M20.1563 0.865776C20.0281 0.817194 19.8862 0.880723 19.8351 1.00778C19.7854 1.13483 19.8464 1.27808 19.9721 1.33039C25.0479 3.41433 28.3288 8.29966 28.3288 13.778C28.3288 17.6207 26.7108 21.091 24.1193 23.5437C22.1117 25.4445 18.9378 25.3573 17.062 23.3257C17.0496 23.312 17.0371 23.2995 17.0259 23.2858C16.4708 22.6854 16.4048 21.7824 16.8703 21.1097C18.4088 18.8813 19.4058 16.3938 18.0167 13.489C17.6868 12.7989 17.2773 12.1462 16.8816 11.5159C16.0289 10.1581 15.2224 8.87514 15.1863 7.27702C15.1826 7.12008 15.0494 6.99055 14.8926 6.99055H14.89C14.7295 6.99055 14.6001 7.11884 14.5939 7.27825C14.5366 8.75184 15.0494 9.99749 15.6518 11.1758C15.6978 11.2655 15.7975 11.4536 15.9144 11.6753C16.1945 12.206 15.8111 12.845 15.2112 12.845H14.732C14.5353 12.845 14.3362 13.0032 14.3162 13.2C14.2926 13.4367 14.4781 13.636 14.7096 13.636H15.7128C16.477 13.636 17.1517 14.1628 17.311 14.9115C17.4081 15.3698 17.4478 15.8444 17.4068 16.3452C17.4006 16.415 17.3844 16.5308 17.3595 16.6703C17.2587 17.2221 16.7758 17.6207 16.2157 17.6207H15.1153C14.9187 17.6207 14.7195 17.7789 14.6997 17.9745C14.676 18.2111 14.8614 18.4104 15.0929 18.4104H15.5659C16.0924 18.4104 16.4098 19.0034 16.1099 19.4368C15.9854 19.6162 15.8547 19.7943 15.719 19.9712C15.3033 20.5131 14.4868 20.5081 14.0636 19.9737C13.2969 19.0034 13.0666 18.5549 12.7504 17.7963C12.4182 17.0004 13.0031 16.1222 13.8657 16.1222H15.8846C16.0812 16.1222 16.2804 15.964 16.3003 15.7672C16.3239 15.5305 16.1385 15.3313 15.907 15.3313H13.8607C13.033 15.3313 12.4406 14.5116 12.7206 13.7318C12.9148 13.1888 13.1774 12.6394 13.4886 12.0553C14.3262 10.4857 14.2615 10.3811 14.1793 10.2491C14.1233 10.1607 14.0263 10.1058 13.9217 10.1083C13.7176 10.1133 13.6342 10.2553 13.4176 10.6776C13.1338 11.2307 12.8874 11.6018 12.6496 11.9618C12.3758 12.3766 12.0921 12.8038 11.766 13.4877C10.3768 16.3913 11.3726 18.8788 12.9123 21.1085C13.3765 21.7811 13.3118 22.6854 12.7554 23.2845C12.743 23.2983 12.7306 23.3107 12.7193 23.3244C10.8424 25.3548 7.66844 25.442 5.66203 23.5412C3.07186 21.0885 1.45378 17.6182 1.45378 13.7754C1.45378 8.30343 4.72852 3.42055 9.79687 1.33413C9.91137 1.28679 9.98602 1.16722 9.95992 1.04639C9.92753 0.893176 9.76695 0.810965 9.62759 0.864529C3.86846 3.05185 0 8.65219 0 14.8044C0 23.0217 6.68019 29.7058 14.8913 29.7058C23.1024 29.7058 29.7814 23.0205 29.7814 14.8044C29.7814 8.65219 25.9129 3.05061 20.1563 0.865776ZM12.962 26.0287C13.3516 25.4681 13.7437 24.9711 14.0711 24.58C14.4918 24.0768 15.2659 24.0842 15.6742 24.5975C15.9866 24.9898 16.3613 25.4856 16.7422 26.0387C17.0508 26.4895 16.7621 27.1049 16.2181 27.1597C15.7812 27.2033 15.3394 27.227 14.8913 27.227C14.4159 27.227 13.9453 27.2008 13.4823 27.1523C12.9384 27.095 12.6496 26.4784 12.962 26.0287Z" fill="url(#paint0_linear_582_18971)" style=""/>
<path d="M14.8117 0.294204C15.3307 0.301678 16.5095 3.0869 16.5331 4.30014C16.5443 4.87188 13.2608 4.94662 13.2497 4.37488C13.226 3.16164 14.2914 0.28673 14.8117 0.294204Z" fill="url(#paint1_linear_582_18971)" style=""/>
</g>
<defs>
<linearGradient id="paint0_linear_582_18971" x1="14.89" y1="29.3121" x2="14.89" y2="0.945493" gradientUnits="userSpaceOnUse">
<stop offset="0.07" stop-color="#870FA5" style="stop-color:#870FA5;stop-color:color(display-p3 0.5294 0.0588 0.6471);stop-opacity:1;"/>
<stop offset="0.92" stop-color="#547EEC" style="stop-color:#547EEC;stop-color:color(display-p3 0.3294 0.4941 0.9255);stop-opacity:1;"/>
</linearGradient>
<linearGradient id="paint1_linear_582_18971" x1="14.8901" y1="29.3123" x2="14.8901" y2="0.945665" gradientUnits="userSpaceOnUse">
<stop offset="0.07" stop-color="#870FA5" style="stop-color:#870FA5;stop-color:color(display-p3 0.5294 0.0588 0.6471);stop-opacity:1;"/>
<stop offset="0.92" stop-color="#547EEC" style="stop-color:#547EEC;stop-color:color(display-p3 0.3294 0.4941 0.9255);stop-opacity:1;"/>
</linearGradient>
<clipPath id="clip0_582_18971">
<rect width="154" height="30" fill="white" style="fill:white;fill-opacity:1;"/>
</clipPath>
</defs>
</svg>
