<svg width="73" height="24" viewBox="0 0 73 24" fill="none" xmlns="http://www.w3.org/2000/svg">
<g clip-path="url(#clip0_4452_2467)">
<path d="M10.2061 11.9981V24L20.4116 17.9991V6.00098L10.2061 11.9981Z" fill="#B3ABBC" style="fill:#B3ABBC;fill:color(display-p3 0.7020 0.6706 0.7373);fill-opacity:1;"/>
<path d="M0 6.00098V17.9991L10.2056 24V11.9981L0 6.00098Z" fill="#685879" style="fill:#685879;fill:color(display-p3 0.4078 0.3451 0.4745);fill-opacity:1;"/>
<path d="M10.2056 0L0 6.00096L10.2056 11.9976L20.4112 6.00096L10.2056 0Z" fill="#E5E3E8" style="fill:#E5E3E8;fill:color(display-p3 0.8980 0.8902 0.9098);fill-opacity:1;"/>
<path d="M3.80859 8.23828V15.7618L10.2062 19.5255V11.9981L3.80859 8.23828Z" fill="#473955" style="fill:#473955;fill:color(display-p3 0.2784 0.2235 0.3333);fill-opacity:1;"/>
<path d="M10.2062 4.47461L3.80859 8.23877L10.2062 11.9986L16.6081 8.23925L10.2062 4.47557V4.47461Z" fill="#473955" style="fill:#473955;fill:color(display-p3 0.2784 0.2235 0.3333);fill-opacity:1;"/>
<path d="M10.2061 11.9981V19.526L16.608 15.7623V8.23828L10.2061 11.9981Z" fill="#473955" style="fill:#473955;fill:color(display-p3 0.2784 0.2235 0.3333);fill-opacity:1;"/>
<path d="M7.02051 10.1265V13.8733L10.2051 15.7449V11.998L7.02051 10.1265Z" fill="#8FA300" style="fill:#8FA300;fill:color(display-p3 0.5608 0.6392 0.0000);fill-opacity:1;"/>
<path d="M10.2051 8.25488L7.02051 10.1264L10.2051 11.9979L13.3893 10.1264L10.2051 8.25488Z" fill="#F4FFA3" style="fill:#F4FFA3;fill:color(display-p3 0.9569 1.0000 0.6392);fill-opacity:1;"/>
<path d="M10.2061 11.998V15.7449L13.3902 13.8733V10.1265L10.2061 11.998Z" fill="#E1FF0B" style="fill:#E1FF0B;fill:color(display-p3 0.8824 1.0000 0.0431);fill-opacity:1;"/>
<path d="M43.4526 8.75047C43.4526 7.84759 43.6586 7.04551 44.0717 6.34423C44.4842 5.63671 45.0625 5.08759 45.8064 4.69639C46.557 4.29895 47.433 4.09303 48.4339 4.07959V6.53623C47.9671 6.54295 47.568 6.64087 47.2366 6.82951C46.9119 7.01143 46.6617 7.27783 46.486 7.62823C46.3241 7.95079 46.2367 8.32471 46.2237 8.75047H48.3729V11.0857H46.2223V19.8908H43.4526V11.0857H43.4512V8.75047H43.4526ZM59.0458 9.85207C58.2265 9.00631 57.1516 8.58343 55.8213 8.58343C55.123 8.58343 54.478 8.72455 53.8868 9.00631C53.3259 9.26155 52.8351 9.64855 52.4561 10.1343V8.74471H49.635V19.9028H52.4561V13.7396C52.4561 12.8535 52.678 12.1753 53.1213 11.7053C53.578 11.222 54.1961 10.9801 54.9751 10.9801C55.7411 10.9801 56.3453 11.2215 56.7886 11.7053C57.2323 12.1753 57.4537 12.8535 57.4537 13.7396V19.9028H60.2753V13.357C60.2753 11.8532 59.8651 10.6844 59.0458 9.85207ZM63.87 19.6465C64.5952 19.9685 65.415 20.1298 66.3285 20.1298C67.2151 20.1298 67.9873 19.9887 68.6458 19.7069C69.3177 19.4117 69.8282 19.0085 70.1773 18.4983C70.5384 17.9934 70.729 17.3866 70.7215 16.766C70.708 16.0273 70.5063 15.4369 70.1168 14.9938C69.7408 14.5373 69.2908 14.2018 68.7668 13.9868C68.2428 13.7717 67.5777 13.5639 66.7718 13.3623C65.9789 13.1607 65.3949 12.9663 65.0184 12.7782C64.6423 12.5766 64.454 12.2881 64.454 11.9122C64.454 11.5767 64.5885 11.3146 64.8575 11.1265C65.1394 10.9383 65.5356 10.8447 66.0461 10.8447C66.597 10.8447 67.0335 10.9791 67.3563 11.2474C67.692 11.5023 67.8802 11.8518 67.9206 12.2948H70.6206C70.5399 11.1668 70.1034 10.274 69.3109 9.61591C68.518 8.94439 67.4566 8.60887 66.1268 8.60887C65.2268 8.60887 64.4406 8.75671 63.7692 9.05191C63.1107 9.34759 62.6002 9.75031 62.2376 10.2605C61.8885 10.7708 61.7137 11.3348 61.7137 11.9525C61.7137 12.7047 61.9014 13.3018 62.278 13.7453C62.6513 14.1767 63.1206 14.5147 63.6482 14.7322C64.1856 14.9473 64.8709 15.1551 65.7037 15.3567C66.5096 15.5717 67.094 15.7729 67.4566 15.961C67.8332 16.1357 68.021 16.4041 68.021 16.7665C68.021 17.102 67.8668 17.3775 67.5575 17.5921C67.2621 17.8066 66.8457 17.9141 66.3083 17.9141C65.7575 17.9141 65.294 17.773 64.918 17.4913C64.5549 17.2095 64.3469 16.8533 64.2931 16.4237H61.4514C61.4918 17.1087 61.7204 17.7327 62.1368 18.2967C62.5666 18.8607 63.1444 19.3109 63.87 19.6465Z" fill="white" style="fill:white;fill-opacity:1;"/>
<path fill-rule="evenodd" clip-rule="evenodd" d="M38.1242 5.24215C36.8846 4.59943 35.4438 4.27783 33.8013 4.27783H28.3359V19.9258H33.8013C35.4438 19.9258 36.8846 19.6047 38.1242 18.962C39.3786 18.3193 40.3416 17.415 41.0134 16.2495C41.7002 15.0687 42.0436 13.694 42.0436 12.1244C42.0436 10.5548 41.7002 9.18007 41.0134 7.99927C40.3416 6.80359 39.3786 5.88487 38.1242 5.24215ZM37.497 15.9135C36.6013 16.8102 35.3319 17.2585 33.6894 17.2585H31.4721V6.92311H33.6894C35.3319 6.92311 36.6013 7.38631 37.497 8.31319C38.3926 9.22471 38.8407 10.4953 38.8407 12.1244C38.8407 13.7535 38.3926 15.0169 37.497 15.9135Z" fill="white" style="fill:white;fill-opacity:1;"/>
</g>
<defs>
<clipPath id="clip0_4452_2467">
<rect width="73" height="24" fill="white" style="fill:white;fill-opacity:1;"/>
</clipPath>
</defs>
</svg>
