<svg width="168" height="35" viewBox="0 0 168 35" fill="none" xmlns="http://www.w3.org/2000/svg">
<path d="M26.7359 6.36365C26.4485 6.87344 26.1904 7.40082 25.9558 7.9399C23.727 7.6059 21.4572 7.6059 19.2225 7.9399C18.9938 7.40082 18.7298 6.87344 18.4424 6.36365C16.3485 6.72109 14.3074 7.34808 12.3719 8.23289C8.53598 13.9109 7.49784 19.4425 8.01398 24.8979C10.2604 26.5562 12.7766 27.8219 15.457 28.6305C16.0611 27.8219 16.5949 26.9605 17.0524 26.064C16.1843 25.7417 15.3456 25.3374 14.542 24.8686C14.7532 24.7162 14.9584 24.558 15.1579 24.4057C19.8677 26.6206 25.3224 26.6206 30.038 24.4057C30.2374 24.5698 30.4427 24.728 30.6539 24.8686C29.8503 25.3432 29.0116 25.7417 28.1377 26.0698C28.5952 26.9664 29.1289 27.8277 29.733 28.6364C32.4135 27.8277 34.9297 26.5679 37.1761 24.9096C37.7861 18.5811 36.132 13.0965 32.8064 8.23877C30.8768 7.35394 28.8356 6.72695 26.7418 6.37536L26.7359 6.36365ZM17.7093 21.5403C16.2606 21.5403 15.0581 20.2277 15.0581 18.6046C15.0581 16.9815 16.2136 15.663 17.7034 15.663C19.1932 15.663 20.3779 16.9873 20.3545 18.6046C20.331 20.2218 19.1873 21.5403 17.7093 21.5403ZM27.4808 21.5403C26.0262 21.5403 24.8356 20.2277 24.8356 18.6046C24.8356 16.9815 25.991 15.663 27.4808 15.663C28.9705 15.663 30.1495 16.9873 30.126 18.6046C30.1026 20.2218 28.9588 21.5403 27.4808 21.5403ZM65.6183 10.4302C64.1578 9.774 62.3748 9.44587 60.2633 9.44587H51.5124V25.144H59.6358C61.9232 25.144 63.8412 24.7924 65.3896 24.0892C66.8031 23.5033 68.0055 22.5072 68.8501 21.2297C69.6067 20.0226 69.9997 18.6222 69.9821 17.1982C70.0055 15.7802 69.6302 14.3856 68.8911 13.1727C68.1052 11.948 66.9614 10.987 65.6183 10.4244V10.4302ZM62.8265 20.0871C62.064 20.7961 60.973 21.1535 59.5478 21.1535H57.1254V13.4422H59.8645C61.2369 13.4422 62.2692 13.7879 62.9555 14.4618C63.6534 15.1883 64.023 16.1728 63.9761 17.1865C64.0289 18.2765 63.6124 19.3311 62.8323 20.093L62.8265 20.0871ZM92.6047 18.3526C93.3197 18.9913 93.678 19.9289 93.6836 21.1652C93.7066 22.4837 93.0267 23.7201 91.8945 24.4057C90.7161 25.1967 89.0265 25.5952 86.833 25.5893C85.5718 25.5893 84.317 25.4311 83.0972 25.1205C81.9411 24.8335 80.8383 24.3705 79.8184 23.7552V20.0343C80.7093 20.6789 81.707 21.1535 82.7683 21.4348C83.93 21.7864 85.1379 21.9739 86.3521 21.9798C86.7685 22.0032 87.1905 21.927 87.5782 21.7688C87.8537 21.6282 87.9883 21.4465 87.9883 21.2649C87.9947 21.0539 87.9118 20.8547 87.7653 20.7024C87.5074 20.509 87.208 20.3742 86.8919 20.3215L84.1991 19.7179C82.6569 19.3605 81.5605 18.8624 80.9148 18.2295C80.2579 17.5674 79.906 16.6591 79.9529 15.7274C79.941 14.8954 80.2459 14.0867 80.8033 13.4656C81.4665 12.7624 82.3049 12.2526 83.2262 11.9772C84.4165 11.6022 85.6602 11.4264 86.9094 11.4499C88.0767 11.4382 89.2375 11.5729 90.3642 11.8542C91.279 12.071 92.1525 12.4167 92.9678 12.8855V16.4072C92.2058 15.9677 91.3841 15.6278 90.5338 15.411C89.607 15.165 88.6515 15.036 87.6953 15.036C86.2876 15.036 85.5837 15.2762 85.5837 15.7509C85.5837 15.9677 85.7071 16.1669 85.9062 16.2548C86.2932 16.4189 86.6921 16.5361 87.1029 16.6005L89.349 17.0048C90.8037 17.2627 91.8945 17.708 92.6103 18.3526H92.6047ZM107.502 20.9426C108.159 20.7551 108.787 20.4855 109.373 20.1457V24.1185C107.637 25.1264 105.655 25.642 103.649 25.6011C102.041 25.642 100.44 25.3198 98.9799 24.6518C97.7777 24.1009 96.7689 23.2103 96.0706 22.0911C95.4201 20.9894 95.0857 19.7355 95.1088 18.4581C95.0913 17.1806 95.4432 15.9267 96.1176 14.8485C96.8389 13.7469 97.8716 12.8796 99.0795 12.3522C100.552 11.7136 102.141 11.403 103.748 11.444C105.995 11.444 107.854 11.9128 109.338 12.8562V16.9639C108.775 16.5829 108.159 16.29 107.508 16.0908C106.78 15.8622 106.024 15.7509 105.261 15.7568C103.872 15.7568 102.78 16.0087 101.994 16.5185C100.892 17.1338 100.494 18.5284 101.109 19.6359C101.308 19.9933 101.607 20.2921 101.959 20.5031C102.722 21.0188 103.83 21.2766 105.28 21.2766C106.03 21.2766 106.775 21.1711 107.491 20.9543L107.502 20.9426ZM124.119 12.3464C121.168 11.151 117.866 11.151 114.916 12.3464C113.714 12.8738 112.693 13.7351 111.965 14.8251C111.279 15.9032 110.921 17.1514 110.945 18.4288C110.927 19.7179 111.285 20.9894 111.965 22.0852C112.687 23.2045 113.719 24.0951 114.934 24.6459C117.866 25.894 121.18 25.894 124.112 24.6401C125.321 24.0892 126.347 23.1986 127.063 22.0794C127.737 20.9777 128.089 19.712 128.072 18.4229C128.095 17.1455 127.743 15.8915 127.063 14.8134C126.342 13.7293 125.321 12.8679 124.124 12.3464H124.119ZM121.749 20.6672C121.145 21.2355 120.335 21.5344 119.502 21.4817C118.676 21.5227 117.866 21.2297 117.256 20.6672C116.699 20.0871 116.399 19.3078 116.441 18.4991C116.399 17.7021 116.699 16.9287 117.256 16.3603C117.866 15.8036 118.676 15.5224 119.502 15.5634C120.329 15.5165 121.139 15.8036 121.749 16.3603C122.312 16.9287 122.611 17.7021 122.57 18.4991C122.605 19.3019 122.312 20.0871 121.749 20.6672ZM139.515 11.7252C140.23 11.7077 140.94 11.8894 141.556 12.2643V17.1162C140.887 16.7178 140.113 16.5244 139.333 16.5537C138.137 16.5537 137.215 16.9169 136.571 17.6436C135.931 18.3702 135.609 19.4952 135.609 21.0188V25.144H130.107V12.0241H135.491V16.1904C135.79 14.6668 136.271 13.5417 136.94 12.8152C137.597 12.0944 138.529 11.696 139.503 11.7252H139.515ZM154.33 8.99469V14.8426C153.433 12.5691 151.673 11.4323 149.057 11.4323C147.861 11.4147 146.682 11.7311 145.655 12.3522C144.658 12.9734 143.855 13.8582 143.345 14.913C142.787 16.0673 142.512 17.333 142.553 18.6104C142.529 19.8468 142.787 21.0656 143.303 22.1907C143.773 23.2045 144.524 24.0717 145.462 24.6811C146.436 25.2963 147.568 25.6128 148.717 25.5893C149.943 25.6245 151.152 25.3256 152.213 24.7162C153.175 24.1244 153.92 23.2396 154.336 22.1907V25.1381H159.838V8.99469H154.336H154.33ZM153.521 20.591C152.911 21.1535 152.101 21.4407 151.275 21.3938C150.465 21.4348 149.673 21.1418 149.075 20.591C148.512 20.046 148.207 19.2843 148.237 18.4991C148.207 17.7197 148.507 16.9697 149.069 16.4248C150.366 15.37 152.225 15.37 153.521 16.4248C154.084 16.9521 154.389 17.6963 154.366 18.4698C154.395 19.2608 154.09 20.0343 153.521 20.591ZM77.3606 10.9635C77.3606 12.323 76.1347 13.4246 74.6215 13.4246C73.1083 13.4246 71.8824 12.323 71.8824 10.9635C71.8824 9.60409 73.1083 8.50247 74.6215 8.50247C76.1347 8.50247 77.3606 9.60409 77.3606 10.9635ZM77.3606 15.118V25.2143H71.8765V15.118C73.6302 15.8564 75.6068 15.8564 77.3606 15.118Z" fill="white" style="fill:white;fill-opacity:1;"/>
</svg>
