<svg width="110" height="40" viewBox="0 0 110 40" fill="none" xmlns="http://www.w3.org/2000/svg">
<mask id="mask0_582_17955" style="mask-type:luminance" maskUnits="userSpaceOnUse" x="0" y="10" width="110" height="20">
<path d="M0 10H110V30H0V10Z" fill="white" style="fill:white;fill-opacity:1;"/>
</mask>
<g mask="url(#mask0_582_17955)">
<path fill-rule="evenodd" clip-rule="evenodd" d="M12.7306 27.4008C9.82238 30.5004 4.90704 30.5004 1.9992 27.4008C-0.441898 24.8004 -0.673953 20.8234 1.44581 17.957L7.30595 10.0294C7.31279 10.0203 7.32166 10.0129 7.33186 10.0078C7.34206 10.0027 7.35331 10 7.36471 10C7.37612 10 7.38736 10.0027 7.39756 10.0078C7.40776 10.0129 7.41664 10.0203 7.42348 10.0294L13.2836 17.957C15.4038 20.8249 15.1713 24.8019 12.7306 27.4008ZM84.9155 10.2525H85.2364C86.5421 10.2525 87.8075 10.2521 89.0525 10.2513C92.9119 10.2502 96.574 10.2487 100.621 10.2619C102.168 10.2672 103.694 10.474 105.127 11.1109C107.337 12.0921 108.479 13.8332 108.75 16.2091C108.896 17.4879 108.839 18.7476 108.453 19.9736C107.742 22.2351 106.1 23.5057 103.877 24.0355C102.85 24.28 101.777 24.426 100.723 24.4381C97.9595 24.4721 95.5376 24.4672 92.9707 24.4623H92.9703C91.9355 24.46 90.8766 24.4581 89.7623 24.4585H89.4895C89.418 24.4585 89.3494 24.487 89.2988 24.5376C89.2482 24.5883 89.2198 24.657 89.2198 24.7287V29.2151C89.2197 29.2867 89.1912 29.3554 89.1407 29.406C89.0901 29.4567 89.0216 29.4852 88.9501 29.4853H85.1841C85.1124 29.4853 85.0437 29.4568 84.9931 29.406C84.9424 29.3553 84.914 29.2865 84.914 29.2147V10.254C84.914 10.254 84.9147 10.2525 84.9155 10.2525ZM89.2334 20.3332C89.2334 20.4128 89.2951 20.4789 89.3746 20.4845C89.4594 20.4909 89.5374 20.4966 89.6153 20.4966C90.6261 20.4966 91.5882 20.4974 92.5277 20.4977C95.0765 20.4989 97.4592 20.5004 100.202 20.4913C100.773 20.4898 101.348 20.4359 101.913 20.3532C103.4 20.1343 104.226 19.3479 104.448 17.9879C104.721 16.3189 104.064 15.0442 102.63 14.5709C102.133 14.406 101.593 14.2955 101.072 14.2898C97.7519 14.2623 94.8833 14.2555 91.7264 14.2479H91.7234L89.5856 14.2426C89.5061 14.2426 89.4274 14.2517 89.3479 14.2615C89.3165 14.2651 89.2876 14.2801 89.2665 14.3036C89.2454 14.327 89.2336 14.3575 89.2334 14.3891V20.3332ZM19.0258 10.2717C18.9971 10.2752 18.9707 10.289 18.9514 10.3106C18.9321 10.3322 18.9214 10.3601 18.9211 10.3891V29.2457C18.9211 29.3955 19.042 29.5162 19.1912 29.5162H33.7719C35.1254 29.5151 36.468 29.4106 37.7808 29.0566C40.9102 28.2121 43.1053 26.351 44.0136 23.1702C44.6412 20.9725 44.6261 18.7491 43.9906 16.5472C43.2861 14.1045 41.7589 12.3653 39.4516 11.3094C37.8242 10.5634 36.0951 10.2728 34.3279 10.2645C30.4188 10.2475 26.9496 10.2498 23.271 10.2521C21.9634 10.2528 20.6295 10.254 19.2398 10.254C19.169 10.254 19.0985 10.2626 19.0258 10.2717ZM23.4654 25.5125C23.424 25.5098 23.3806 25.5068 23.3335 25.5049C23.334 25.5049 23.3343 25.5048 23.3346 25.5045C23.3349 25.5042 23.3351 25.5038 23.3351 25.5034V14.4038C23.3351 14.3245 23.3968 14.2592 23.4759 14.2547C23.5841 14.2483 23.6858 14.2423 23.7886 14.2423L27.2446 14.2419H27.2559C29.3798 14.2419 31.3929 14.2411 33.7561 14.2419C34.8922 14.2419 36.0163 14.3249 37.0862 14.7653C38.8108 15.4747 39.7352 16.8049 40.0212 18.6068C40.225 19.8936 40.1722 21.1747 39.6919 22.4023C39.059 24.0174 37.8031 24.9079 36.1606 25.2638C35.4427 25.421 34.7105 25.5038 33.9757 25.511C31.2769 25.5287 29.0072 25.526 26.5409 25.5238H26.5382C25.6236 25.5226 24.6814 25.5219 23.6805 25.5219C23.6112 25.5219 23.5419 25.5174 23.4654 25.5121V25.5125ZM54.7325 23.5642H54.7355C57.4757 23.5645 60.0736 23.5649 62.8646 23.5589C62.9501 23.5589 63.0311 23.5996 63.082 23.6683L67.3023 29.3766C67.3531 29.4457 67.4338 29.486 67.5193 29.486H72.1479C72.3694 29.486 72.4968 29.2332 72.3649 29.0547L68.1424 23.3434C68.0324 23.1947 68.1009 22.9811 68.2735 22.9159C68.5616 22.8064 68.8427 22.6793 69.1173 22.5366C69.445 22.3668 69.769 22.1638 70.0538 21.9445C70.3393 21.7263 70.6023 21.48 70.8389 21.2094C71.0779 20.9367 71.2869 20.639 71.4623 20.3215C71.6458 19.9902 71.7957 19.6385 71.9102 19.2777C72.2342 18.2626 72.2949 17.2136 72.1965 16.157C71.9792 13.8321 70.8754 12.1223 68.7232 11.1423C67.1621 10.4313 65.5009 10.2638 63.8143 10.2623C60.0125 10.2574 56.4243 10.2585 52.7408 10.2589L48.4829 10.2596H48.336C48.2644 10.2596 48.1957 10.2881 48.1451 10.3387C48.0945 10.3894 48.0659 10.4581 48.0658 10.5298V29.2151C48.0658 29.3645 48.1868 29.4857 48.336 29.4857H52.0737C52.2225 29.4857 52.3434 29.3649 52.3434 29.2151V23.7076C52.3434 23.6359 52.3999 23.5762 52.4719 23.5717H52.4726C52.5484 23.5676 52.6098 23.5642 52.6712 23.5642H54.7325ZM52.4915 19.8593L52.3649 19.8525C52.3641 19.8525 52.3638 19.8517 52.3638 19.8509V14.2623C52.3638 14.1925 52.4184 14.1347 52.4885 14.1302C52.5743 14.1249 52.6553 14.12 52.736 14.12C53.5621 14.12 54.3698 14.1192 55.1669 14.1185C58.1011 14.1162 60.8914 14.1143 63.9315 14.1279C64.5402 14.1309 65.1622 14.1917 65.7533 14.3279C67.2646 14.6781 67.954 15.6068 67.9069 17.1204C67.861 18.5442 67.0838 19.4264 65.5928 19.7053C65.1125 19.7943 64.6186 19.8551 64.13 19.8562C60.9204 19.8676 57.9756 19.8668 54.8666 19.866H52.6486C52.5992 19.866 52.5502 19.863 52.4915 19.8593ZM80.2522 10.2819C80.401 10.2819 80.5219 10.4026 80.5219 10.5521V13.8423C80.5219 13.9139 80.4935 13.9826 80.4429 14.0333C80.3923 14.084 80.3237 14.1125 80.2522 14.1125H76.4225C76.351 14.1125 76.2824 14.084 76.2318 14.0333C76.1812 13.9826 76.1528 13.9139 76.1528 13.8423V10.5521C76.1528 10.403 76.2737 10.2819 76.4225 10.2819H80.2522ZM76.4225 18.1079C76.351 18.1079 76.2824 18.1364 76.2318 18.1871C76.1812 18.2377 76.1528 18.3065 76.1528 18.3781V29.2196C76.1528 29.3691 76.2737 29.4902 76.4225 29.4902H80.2522C80.401 29.4902 80.5219 29.3694 80.5219 29.2196V18.3781C80.5219 18.3065 80.4935 18.2377 80.4429 18.1871C80.3923 18.1364 80.3237 18.1079 80.2522 18.1079H76.4225Z" fill="white" style="fill:white;fill-opacity:1;"/>
</g>
</svg>
