<svg width="107" height="24" viewBox="0 0 107 24" fill="none" xmlns="http://www.w3.org/2000/svg">
<g clip-path="url(#clip0_4452_2399)">
<mask id="mask0_4452_2399" style="mask-type:luminance" maskUnits="userSpaceOnUse" x="1" y="0" width="107" height="24">
<path d="M108 0H1V24H108V0Z" fill="white" style="fill:white;fill-opacity:1;"/>
</mask>
<g mask="url(#mask0_4452_2399)">
<mask id="mask1_4452_2399" style="mask-type:luminance" maskUnits="userSpaceOnUse" x="1" y="0" width="107" height="24">
<path d="M108 0H1V24H108V0Z" fill="white" style="fill:white;fill-opacity:1;"/>
</mask>
<g mask="url(#mask1_4452_2399)">
<mask id="mask2_4452_2399" style="mask-type:luminance" maskUnits="userSpaceOnUse" x="1" y="0" width="22" height="22">
<path d="M22.8004 0H1V21.3319H22.8004V0Z" fill="white" style="fill:white;fill-opacity:1;"/>
</mask>
<g mask="url(#mask2_4452_2399)">
<path d="M10.4028 3.04254C9.9999 3.40734 9.60629 3.76905 9.21268 4.12458C7.381 5.78785 5.54621 7.45422 3.71453 9.11749C3.29303 9.49777 2.85913 9.86567 2.32915 10.0882C1.69999 10.3541 1.34047 10.1872 1.13902 9.52559C0.856984 8.59811 1.00885 7.73557 1.55123 6.93793C2.01612 6.26087 2.59879 5.69512 3.20005 5.14789C4.15774 4.27297 5.12163 3.40734 6.09788 2.55717C6.5256 2.18306 6.99358 1.84299 7.56385 1.7286C9.27468 1.39162 10.3625 2.99617 10.4059 3.04254H10.4028Z" fill="#678BFF" style="fill:#678BFF;fill:color(display-p3 0.4039 0.5451 1.0000);fill-opacity:1;"/>
<path d="M2.1771 11.5101C3.21846 11.2165 3.99639 10.5703 4.7557 9.89016C7.17937 7.72606 9.59681 5.56193 12.0298 3.41331C12.5659 2.94029 13.13 2.4858 13.7282 2.08699C14.4875 1.58306 15.3119 1.50887 16.127 1.99116C16.4214 2.16429 16.7097 2.36525 16.9483 2.60638C17.7758 3.44419 18.5972 4.29749 19.3937 5.16622C20.2429 6.08751 21.0766 7.02427 21.8886 7.97647C22.1675 8.30417 22.3969 8.68445 22.5828 9.0709C22.9331 9.78814 22.8432 10.4992 22.4154 11.1701C22.0343 11.7699 21.5198 12.2614 20.9929 12.7282C18.9257 14.5554 16.8616 16.3825 14.7695 18.1849C14.2086 18.6703 13.5918 19.1031 12.9533 19.4865C11.7539 20.2099 10.5514 20.1202 9.45733 19.2639C8.82199 18.7661 8.22071 18.2065 7.67525 17.616C5.91484 15.7055 4.18545 13.7701 2.44364 11.841C2.35686 11.7451 2.27627 11.64 2.1709 11.5133L2.1771 11.5101Z" fill="#678BFF" style="fill:#678BFF;fill:color(display-p3 0.4039 0.5451 1.0000);fill-opacity:1;"/>
</g>
<path d="M38.2007 1.82438H40.8475V15.8695H38.2007V14.6854C37.4197 15.6623 36.3133 16.1508 34.8782 16.1508C33.4432 16.1508 32.3152 15.6376 31.3388 14.6143C30.3593 13.591 29.873 12.3358 29.873 10.8518C29.873 9.36788 30.3627 8.11268 31.3388 7.08936C32.318 6.06605 33.496 5.55284 34.8782 5.55284C36.2603 5.55284 37.4228 6.04131 38.2007 7.01825V1.82129V1.82438ZM33.3286 12.8892C33.871 13.4179 34.5498 13.6806 35.3711 13.6806C36.1925 13.6806 36.8679 13.4147 37.4044 12.8892C37.9372 12.3605 38.2038 11.6804 38.2038 10.8518C38.2038 10.0233 37.9372 9.34311 37.4044 8.81446C36.8713 8.28581 36.1954 8.02301 35.3711 8.02301C34.5467 8.02301 33.871 8.28888 33.3286 8.81446C32.7893 9.34311 32.5165 10.0233 32.5165 10.8518C32.5165 11.6804 32.7862 12.3605 33.3286 12.8892Z" fill="white" style="fill:white;fill-opacity:1;"/>
<path d="M49.6966 5.83691H52.5293L48.7883 15.8846C48.2555 17.3191 47.5487 18.3578 46.6655 19.0071C45.7854 19.6563 44.6882 19.9469 43.3772 19.8789V17.4737C44.0868 17.486 44.6509 17.3407 45.0694 17.0315C45.4878 16.7255 45.8193 16.2277 46.0641 15.5476L41.8584 5.83691H44.7531L47.4281 12.5796L49.6997 5.83691H49.6966Z" fill="white" style="fill:white;fill-opacity:1;"/>
<path d="M59.2567 5.55566C60.3787 5.55566 61.3054 5.92356 62.0367 6.65935C62.7683 7.39517 63.134 8.41229 63.134 9.70766V15.8661H60.4872V10.0292C60.4872 9.36142 60.3013 8.84822 59.9323 8.49266C59.5636 8.14025 59.0708 7.96092 58.4542 7.96092C57.7689 7.96092 57.2237 8.16804 56.8145 8.58233C56.4054 8.99662 56.1978 9.61802 56.1978 10.4466V15.863H53.5508V5.8339H56.1978V6.95926C56.8425 6.02249 57.859 5.55566 59.2535 5.55566H59.2567Z" fill="white" style="fill:white;fill-opacity:1;"/>
<path d="M72.7702 5.83667H75.4171V15.8689H72.7702V14.6848C71.9768 15.6617 70.8612 16.1502 69.4262 16.1502C67.9911 16.1502 66.8848 15.637 65.9084 14.6137C64.9322 13.5904 64.4424 12.3352 64.4424 10.8512C64.4424 9.36729 64.9322 8.11206 65.9084 7.08877C66.8879 6.06546 68.0594 5.55225 69.4262 5.55225C70.8643 5.55225 71.9768 6.04072 72.7702 7.01766V5.83357V5.83667ZM67.8857 12.8886C68.4188 13.4173 69.0976 13.68 69.9187 13.68C70.7401 13.68 71.422 13.4141 71.9613 12.8886C72.5006 12.3599 72.7733 11.6798 72.7733 10.8512C72.7733 10.0227 72.5037 9.34252 71.9613 8.81387C71.422 8.28522 70.7401 8.02242 69.9187 8.02242C69.0976 8.02242 68.4219 8.28829 67.8857 8.81387C67.3529 9.34252 67.0861 10.0227 67.0861 10.8512C67.0861 11.6798 67.3529 12.3599 67.8857 12.8886Z" fill="white" style="fill:white;fill-opacity:1;"/>
<path d="M88.4406 5.55534C89.6184 5.55534 90.5572 5.92943 91.2642 6.68068C91.9676 7.43193 92.3208 8.43361 92.3208 9.69186V15.872H89.6742V9.87429C89.6742 9.2745 89.5254 8.80461 89.2216 8.47069C88.9212 8.13683 88.4965 7.96986 87.9479 7.96986C87.3465 7.96986 86.8755 8.16465 86.5407 8.55107C86.2061 8.93754 86.0386 9.5002 86.0386 10.236V15.8751H83.3921V9.87738C83.3921 9.27762 83.243 8.80768 82.9395 8.47379C82.6388 8.1399 82.2141 7.97296 81.6657 7.97296C81.0767 7.97296 80.6086 8.16772 80.2585 8.55419C79.9112 8.94064 79.7347 9.50329 79.7347 10.2391V15.8781H77.0879V5.83977H79.7347V6.90328C80.3514 6.00671 81.2998 5.55844 82.5893 5.55844C83.8783 5.55844 84.7771 6.04072 85.3785 7.00221C86.0604 6.03762 87.0831 5.55844 88.4344 5.55844V5.55225L88.4406 5.55534Z" fill="white" style="fill:white;fill-opacity:1;"/>
<path d="M95.3114 4.63095C94.8746 4.63095 94.4932 4.47327 94.1741 4.16103C93.8519 3.84567 93.6904 3.47468 93.6904 3.04806C93.6904 2.62141 93.8519 2.24424 94.1741 1.92272C94.4963 1.60119 94.8746 1.44043 95.3114 1.44043C95.7485 1.44043 96.1481 1.60119 96.4705 1.92272C96.793 2.24424 96.9508 2.61831 96.9508 3.04806C96.9508 3.47778 96.7899 3.84877 96.4705 4.16103C96.1481 4.47637 95.7638 4.63095 95.3114 4.63095ZM93.9973 15.8689V5.83669H96.6442V15.8689H93.9973Z" fill="white" style="fill:white;fill-opacity:1;"/>
<path d="M103.36 16.1474C101.813 16.1474 100.524 15.6404 99.492 14.6233C98.4597 13.6062 97.9424 12.351 97.9424 10.8516C97.9424 9.35213 98.4597 8.09695 99.492 7.07983C100.524 6.06269 101.813 5.55566 103.36 5.55566C104.361 5.55566 105.269 5.79062 106.09 6.25745C106.912 6.72427 107.535 7.35497 107.959 8.14332L105.681 9.44798C105.477 9.0337 105.163 8.706 104.748 8.46485C104.33 8.2237 103.862 8.10312 103.341 8.10312C102.548 8.10312 101.891 8.35973 101.37 8.87604C100.849 9.39233 100.592 10.0508 100.592 10.8516C100.592 11.6523 100.852 12.2922 101.37 12.8085C101.891 13.3248 102.548 13.5814 103.341 13.5814C103.874 13.5814 104.348 13.464 104.767 13.229C105.185 12.994 105.495 12.6694 105.7 12.2551L107.999 13.5381C107.547 14.3265 106.912 14.9603 106.09 15.4333C105.269 15.9094 104.361 16.1443 103.36 16.1443V16.1474Z" fill="white" style="fill:white;fill-opacity:1;"/>
<mask id="mask3_4452_2399" style="mask-type:luminance" maskUnits="userSpaceOnUse" x="58" y="19" width="26" height="5">
<path d="M83.2535 19.3389H58.2773V23.2095H83.2535V19.3389Z" fill="white" style="fill:white;fill-opacity:1;"/>
</mask>
<g mask="url(#mask3_4452_2399)">
<path d="M65.7702 20.2402C64.8953 20.2402 64.4033 20.7746 64.4033 21.7252C64.4033 22.6758 64.8953 23.207 65.7702 23.207C66.4213 23.207 66.9071 22.9306 67.0597 22.3216C67.0721 22.2719 67.0346 22.2254 66.9849 22.2254H66.5956C66.5584 22.2254 66.5271 22.2502 66.5209 22.2843C66.4865 22.4242 66.3496 22.769 65.7702 22.769C65.3467 22.769 65.0479 22.4926 64.9636 22.0046C64.9543 21.9582 64.9918 21.9146 65.0417 21.9146H67.0597C67.1034 21.9146 67.1376 21.8806 67.1376 21.8371V21.7531C67.1376 20.7839 66.6453 20.2434 65.7702 20.2434V20.2402ZM66.5053 21.5107H65.0384C64.9918 21.5107 64.9543 21.4672 64.9605 21.4207C65.0384 20.9485 65.325 20.6814 65.7735 20.6814C66.2218 20.6814 66.5022 20.9485 66.5801 21.4207C66.5892 21.4672 66.5522 21.5107 66.5022 21.5107H66.5053Z" fill="white" style="fill:white;fill-opacity:1;"/>
<path d="M64.2318 20.3114H63.9358C63.6681 20.3114 63.4218 20.4543 63.285 20.6842C63.2477 20.7494 63.1479 20.7215 63.1479 20.6469V20.3828C63.1479 20.3393 63.1137 20.3052 63.07 20.3052H62.6404C62.5967 20.3052 62.5625 20.3393 62.5625 20.3828V23.0605C62.5625 23.1041 62.5967 23.1383 62.6404 23.1383H63.07C63.1137 23.1383 63.1479 23.1041 63.1479 23.0605V21.3924C63.1479 21.0694 63.4094 20.8115 63.7302 20.8115H64.0199C64.0447 20.8115 64.0696 20.796 64.0822 20.7743L64.291 20.417C64.3189 20.3673 64.2848 20.3083 64.2286 20.3083L64.2318 20.3114Z" fill="white" style="fill:white;fill-opacity:1;"/>
<path d="M61.8582 20.3052H61.4441C61.4004 20.3052 61.3662 20.3393 61.3662 20.3828V23.0638C61.3662 23.1073 61.4004 23.1413 61.4441 23.1413H61.8582C61.9019 23.1413 61.9361 23.1073 61.9361 23.0638V20.3828C61.9361 20.3393 61.9019 20.3052 61.8582 20.3052Z" fill="white" style="fill:white;fill-opacity:1;"/>
<path d="M61.8771 19.3389H61.4257C61.3791 19.3389 61.3447 19.3761 61.3447 19.4196V19.898C61.3447 19.9446 61.3822 19.9788 61.4257 19.9788H61.8771C61.9242 19.9788 61.9583 19.9415 61.9583 19.898V19.4196C61.9583 19.373 61.9208 19.3389 61.8771 19.3389Z" fill="white" style="fill:white;fill-opacity:1;"/>
<path d="M60.8248 19.3389H58.3552C58.3117 19.3389 58.2773 19.373 58.2773 19.4165V23.0636C58.2773 23.1071 58.3117 23.1412 58.3552 23.1412H58.788C58.8317 23.1412 58.8658 23.1071 58.8658 23.0636V21.3923C58.8658 21.3519 58.9002 21.3208 58.9377 21.3208H60.3173C60.3421 21.3208 60.3638 21.3084 60.3763 21.2898L60.5757 20.9449C60.6192 20.8735 60.5819 20.8176 60.5165 20.8176H59.3206C59.2614 20.8176 59.2024 20.8393 59.1587 20.8797C59.1059 20.9263 59.0342 20.9915 58.9998 21.0195C58.9468 21.0661 58.8658 21.0288 58.8658 20.9574V19.9446C58.8658 19.9012 58.9002 19.867 58.9439 19.867H60.613C60.6378 19.867 60.6629 19.8514 60.6753 19.8297L60.8871 19.4631C60.9244 19.3979 60.8871 19.3389 60.8248 19.3389Z" fill="white" style="fill:white;fill-opacity:1;"/>
<path d="M77.6293 22.132H77.2214C77.1839 22.132 77.1559 22.1568 77.1466 22.1909C77.0594 22.5295 76.8072 22.7221 76.4427 22.7221C75.929 22.7221 75.6238 22.3681 75.6238 21.725C75.6238 21.0819 75.9259 20.7278 76.4427 20.7278C76.9598 20.7278 77.1031 21.0943 77.1404 21.2373C77.1497 21.2714 77.181 21.2963 77.2151 21.2963H77.6262C77.6761 21.2963 77.7134 21.2497 77.704 21.2031C77.5827 20.5849 77.128 20.2432 76.4179 20.2432C75.5366 20.2432 75.0508 20.7775 75.0508 21.725C75.0508 22.6724 75.5366 23.2068 76.4179 23.2068C77.128 23.2068 77.5889 22.8558 77.704 22.2252C77.7134 22.1785 77.6761 22.132 77.6262 22.132H77.6293Z" fill="white" style="fill:white;fill-opacity:1;"/>
<path d="M79.351 21.6224C79.323 21.5914 79.3261 21.5417 79.3572 21.5138L80.5562 20.4203C80.603 20.3799 80.5719 20.3054 80.5096 20.3054H79.9956C79.977 20.3054 79.9584 20.3116 79.9428 20.324L78.859 21.3119C78.8215 21.346 78.7625 21.3181 78.7625 21.2684V19.4107C78.7625 19.3672 78.7281 19.333 78.6846 19.333H78.2702C78.2268 19.333 78.1924 19.3672 78.1924 19.4107V23.0607C78.1924 23.1042 78.2268 23.1385 78.2702 23.1385H78.6846C78.7281 23.1385 78.7625 23.1042 78.7625 23.0607V21.8804C78.7625 21.8275 78.8277 21.8027 78.8621 21.8432L79.9894 23.1104C80.0049 23.1261 80.0269 23.1353 80.0486 23.1353H80.5686C80.6281 23.1353 80.656 23.067 80.6185 23.0237L79.3479 21.6162L79.351 21.6224Z" fill="white" style="fill:white;fill-opacity:1;"/>
<path d="M82.1603 21.4701C81.5685 21.3613 81.4347 21.2837 81.4347 21.0507C81.4347 20.8177 81.6807 20.6686 81.9857 20.6686C82.5248 20.6686 82.6213 20.9823 82.6399 21.1252C82.643 21.1656 82.6772 21.1936 82.7178 21.1936H83.1133C83.1601 21.1936 83.1942 21.1532 83.1911 21.1097C83.1477 20.5661 82.7209 20.2461 81.9857 20.2461C81.3289 20.2461 80.8773 20.563 80.8773 21.0755C80.8773 21.5104 81.1077 21.7962 81.9922 21.9424C82.6055 22.0416 82.6867 22.1442 82.6867 22.3834C82.6867 22.6506 82.4529 22.7873 82.07 22.7873C81.4877 22.7873 81.3941 22.4425 81.3817 22.2872C81.3817 22.2466 81.3444 22.2156 81.3038 22.2156H80.9052C80.8584 22.2156 80.8242 22.2529 80.8273 22.2996C80.8711 22.9364 81.3724 23.2129 82.0576 23.2129C82.7428 23.2129 83.2532 22.9084 83.2532 22.3523C83.2532 21.874 83.0137 21.6379 82.1603 21.4731V21.4701Z" fill="white" style="fill:white;fill-opacity:1;"/>
<path d="M71.336 19.3389H70.9216C70.8779 19.3389 70.8438 19.373 70.8438 19.4165V23.0636C70.8438 23.1071 70.8779 23.1412 70.9216 23.1412H71.336C71.3792 23.1412 71.4136 23.1071 71.4136 23.0636V19.4165C71.4136 19.373 71.3792 19.3389 71.336 19.3389Z" fill="white" style="fill:white;fill-opacity:1;"/>
<path d="M73.3028 20.2402C72.4213 20.2402 71.8984 20.8771 71.8984 21.722C71.8984 22.5669 72.4246 23.2038 73.3028 23.2038C74.181 23.2038 74.7074 22.5669 74.7074 21.722C74.7074 20.8771 74.181 20.2402 73.3028 20.2402ZM73.3028 22.7442C72.7392 22.7442 72.4774 22.3124 72.4774 21.7252C72.4774 21.138 72.7392 20.7062 73.3028 20.7062C73.8665 20.7062 74.128 21.138 74.128 21.7252C74.128 22.3124 73.8665 22.7442 73.3028 22.7442Z" fill="white" style="fill:white;fill-opacity:1;"/>
<path d="M69.1956 20.246C68.8125 20.246 68.5042 20.392 68.3205 20.6436C68.2894 20.6871 68.224 20.6622 68.224 20.6125V19.4165C68.224 19.373 68.1898 19.3389 68.1461 19.3389H67.7351C67.6914 19.3389 67.6572 19.373 67.6572 19.4165V23.0636C67.6572 23.1071 67.6914 23.1412 67.7351 23.1412H68.1244C68.1681 23.1412 68.2023 23.1071 68.2023 23.0636V22.7591C68.2023 22.7094 68.2675 22.6907 68.2956 22.7342C68.4793 23.0233 68.7939 23.2033 69.1863 23.2033C69.9618 23.2033 70.438 22.6567 70.438 21.7247C70.438 20.7927 69.9584 20.246 69.1989 20.246H69.1956ZM69.0368 22.7342C68.5292 22.7342 68.2271 22.3459 68.2271 21.7247C68.2271 21.1034 68.5292 20.712 69.0368 20.712C69.5445 20.712 69.8557 21.1034 69.8557 21.7247C69.8557 22.3459 69.5507 22.7342 69.0368 22.7342Z" fill="white" style="fill:white;fill-opacity:1;"/>
</g>
<path d="M53.6436 22.3648C53.6436 21.8679 54.0142 21.6007 54.7367 21.467L55.6336 21.2776V21.1409C55.6336 20.8458 55.4248 20.6998 55.0233 20.6998C54.662 20.6998 54.3412 20.8365 54.3412 21.2061H53.7682C53.7682 20.5258 54.3474 20.2524 55.0357 20.2524C55.8328 20.2524 56.1941 20.5786 56.1941 21.0819V23.1508H55.6586V22.6288C55.4843 22.9676 55.0916 23.216 54.6431 23.216C54.0794 23.216 53.6498 22.9117 53.6498 22.3681L53.6436 22.3648ZM55.6305 21.9673V21.641L54.827 21.8493C54.4938 21.9363 54.2321 22.0666 54.2321 22.3556C54.2321 22.601 54.3973 22.775 54.7678 22.775C55.2039 22.775 55.6305 22.4767 55.6305 21.9703V21.9673Z" fill="white" style="fill:white;fill-opacity:1;"/>
<path d="M85.2568 21.7309C85.2568 20.7833 85.7426 20.249 86.6208 20.249C87.362 20.249 87.8263 20.6249 87.9194 21.299H87.3529C87.275 20.9449 87.007 20.7337 86.6428 20.7337C86.1226 20.7337 85.8236 21.094 85.8236 21.7309C85.8236 22.3677 86.1288 22.728 86.6428 22.728C87.0259 22.728 87.2874 22.5167 87.3591 22.1408H87.9228C87.8353 22.8274 87.3653 23.2127 86.624 23.2127C85.746 23.2127 85.2599 22.6783 85.2599 21.7309H85.2568Z" fill="white" style="fill:white;fill-opacity:1;"/>
<path d="M88.2021 21.7309C88.2021 20.8859 88.7252 20.249 89.6068 20.249C90.4881 20.249 91.0111 20.8859 91.0111 21.7309C91.0111 22.5758 90.4881 23.2127 89.6068 23.2127C88.7252 23.2127 88.2021 22.5758 88.2021 21.7309ZM90.432 21.7309C90.432 21.1437 90.1642 20.7119 89.6068 20.7119C89.0493 20.7119 88.7813 21.1468 88.7813 21.7309C88.7813 22.3148 89.0431 22.7498 89.6068 22.7498C90.1704 22.7498 90.432 22.3148 90.432 21.7309Z" fill="white" style="fill:white;fill-opacity:1;"/>
<path d="M91.457 20.3143H92.024V20.7709C92.1891 20.4727 92.4785 20.249 92.9362 20.249C93.4442 20.249 93.743 20.4944 93.8767 20.8362C94.0637 20.4975 94.3845 20.249 94.8858 20.249C95.6176 20.249 95.9076 20.7461 95.9076 21.3208V23.1443H95.3406V21.3456C95.3406 20.9822 95.1504 20.715 94.7021 20.715C94.4717 20.715 93.9608 20.8393 93.9608 21.5383V23.1443H93.3943V21.3456C93.3943 20.9822 93.2041 20.715 92.7556 20.715C92.5471 20.715 92.1172 20.8175 92.0302 21.3363V23.1443H91.4632V20.3112L91.457 20.3143Z" fill="white" style="fill:white;fill-opacity:1;"/>
<path d="M99.2086 21.7308C99.2086 22.6628 98.729 23.2064 97.969 23.2064C97.505 23.2064 97.1501 22.9951 96.9974 22.6347V24.2377H96.4307V20.3173H96.9757V20.9107C97.1283 20.5193 97.4894 20.2583 97.9597 20.2583C98.7352 20.2583 99.2086 20.8019 99.2086 21.7338V21.7308ZM97.0008 21.7308C97.0008 22.3521 97.2996 22.7435 97.8073 22.7435C98.3149 22.7435 98.6263 22.3521 98.6263 21.7308C98.6263 21.1095 98.3211 20.7243 97.8073 20.7243C97.2934 20.7243 97.0008 21.1126 97.0008 21.7308Z" fill="white" style="fill:white;fill-opacity:1;"/>
<path d="M99.4697 22.3648C99.4697 21.8679 99.8404 21.6007 100.563 21.467L101.46 21.2776V21.1409C101.46 20.8458 101.251 20.6998 100.85 20.6998C100.488 20.6998 100.167 20.8365 100.167 21.2061H99.5944C99.5944 20.5258 100.174 20.2524 100.862 20.2524C101.659 20.2524 102.02 20.5786 102.02 21.0819V23.1508H101.485V22.6288C101.31 22.9676 100.918 23.216 100.469 23.216C99.9056 23.216 99.4759 22.9117 99.4759 22.3681L99.4697 22.3648ZM101.457 21.9671V21.641L100.653 21.8493C100.32 21.9363 100.058 22.0666 100.058 22.3556C100.058 22.601 100.224 22.775 100.594 22.775C101.03 22.775 101.457 22.4767 101.457 21.9703V21.9671Z" fill="white" style="fill:white;fill-opacity:1;"/>
<path d="M103.836 20.7181C103.624 20.7181 103.182 20.8175 103.104 21.3705V23.1473H102.537V20.3143H103.104V20.7461C103.278 20.4634 103.574 20.249 104.023 20.249C104.748 20.249 105.044 20.7399 105.044 21.3208V23.1443H104.477V21.3456C104.477 20.9822 104.287 20.715 103.839 20.715L103.836 20.7181Z" fill="white" style="fill:white;fill-opacity:1;"/>
<path d="M106.483 23.1475H106.227L105.256 20.3145H105.844L106.635 22.663L107.389 20.3145H107.984L106.679 24.2347H106.134L106.483 23.1445V23.1475Z" fill="white" style="fill:white;fill-opacity:1;"/>
</g>
</g>
</g>
<defs>
<clipPath id="clip0_4452_2399">
<rect width="107" height="24" fill="white" style="fill:white;fill-opacity:1;"/>
</clipPath>
</defs>
</svg>
