<svg width="131" height="32" viewBox="0 0 131 32" fill="none" xmlns="http://www.w3.org/2000/svg">
<g clip-path="url(#clip0_582_18357)">
<path fill-rule="evenodd" clip-rule="evenodd" d="M82.6851 10.2866H84.1168V8.85633H85.547V7.42804H86.9754V5.99976H82.6851V10.2866Z" fill="white" style="fill:white;fill-opacity:1;"/>
<path fill-rule="evenodd" clip-rule="evenodd" d="M104.145 8.85633H102.715V7.42804H101.283V5.99976H91.2722V7.42804H89.842V8.85633H88.406V10.2866H86.9834V21.7109H88.406V23.1412H89.8379V24.5695H91.268V25.9977H101.279V24.5695H102.711V23.1412H104.141V21.7129H105.577V10.2866H104.145V8.85633ZM101.287 18.8563H99.8564V20.2826H98.4263V21.7109H94.1367V20.2826H92.7065V18.8544H91.2739V13.1412H92.7065V11.7129H94.1367V10.2846H98.4263V11.7129H99.8564V13.1412H101.287V18.8563Z" fill="white" style="fill:white;fill-opacity:1;"/>
<path fill-rule="evenodd" clip-rule="evenodd" d="M85.547 23.1431H84.1168V21.7129H82.6851V25.9977H86.9754V24.5695H85.547V23.1431Z" fill="white" style="fill:white;fill-opacity:1;"/>
<path fill-rule="evenodd" clip-rule="evenodd" d="M129.492 23.1431H128.061V24.5695H126.634V25.9977H130.923V21.7129H129.492V23.1431Z" fill="white" style="fill:white;fill-opacity:1;"/>
<path fill-rule="evenodd" clip-rule="evenodd" d="M126.634 5.99976V7.42804H128.061V8.85434H129.492V10.2846H130.923V5.99976H126.634Z" fill="white" style="fill:white;fill-opacity:1;"/>
<path fill-rule="evenodd" clip-rule="evenodd" d="M125.595 8.85633H124.165V7.42804H122.734V5.99976H111.292V7.42804H109.861V8.85633H108.429V10.2866H108.437V15.9997H109.867V17.428H112.729V18.8563H121.31V20.2846H119.88V21.7129H114.159V20.2846H112.729V18.8563H108.431V23.1431H109.83V24.5715H111.246V25.9997H122.689V24.5715H124.13V23.1431H125.588V17.428H124.17V15.9997H122.74V14.5695H114.159V13.1412H112.729V11.7149H114.159V10.2866H119.88V11.7149H121.31V13.1432H125.602V10.2866H125.595V8.85633Z" fill="white" style="fill:white;fill-opacity:1;"/>
<path fill-rule="evenodd" clip-rule="evenodd" d="M5.57671 21.1139V18.5887L6.08122 18.0828H13.4185V13.7087H5.97794L5.57671 13.306V10.7807L5.91438 10.4435H15.7364V6.00586H0.275391V25.98H16.0204V21.5404H6.00177L5.57671 21.1139Z" fill="white" style="fill:white;fill-opacity:1;"/>
<path fill-rule="evenodd" clip-rule="evenodd" d="M22.6525 21.1179V6.02368H17.2559V25.9978H32.556V21.5582H23.0955L22.6525 21.1179Z" fill="white" style="fill:white;fill-opacity:1;"/>
<path d="M39.0573 6.02368H33.6606V25.9998H39.0573V6.02368Z" fill="white" style="fill:white;fill-opacity:1;"/>
<path fill-rule="evenodd" clip-rule="evenodd" d="M47.5403 20.9751L56.9333 10.2094V6.02368H40.3302V10.4633H49.6139V11.0009L40.2329 21.9094V25.9998H57.1856V21.5602H47.5403V20.9751Z" fill="white" style="fill:white;fill-opacity:1;"/>
<path fill-rule="evenodd" clip-rule="evenodd" d="M65.8218 6.02368L57.853 25.9998H63.2814L64.6301 22.4926L65.2578 22.1316H72.1302L72.7083 22.4648L74.0727 25.9978H79.8191L71.8502 6.02368H65.8218ZM70.5055 18.1007H66.8944L66.4773 17.6841L68.4457 12.203H68.9085L70.8948 17.7177L70.5055 18.1007Z" fill="white" style="fill:white;fill-opacity:1;"/>
</g>
<defs>
<clipPath id="clip0_582_18357">
<rect width="131" height="20" fill="white" style="fill:white;fill-opacity:1;" transform="translate(0 6)"/>
</clipPath>
</defs>
</svg>
