<svg width="98" height="14" viewBox="0 0 98 14" fill="none" xmlns="http://www.w3.org/2000/svg">
<g clip-path="url(#clip0_4452_2901)">
<path d="M2.22162 0.0356445H12.4159V2.78964L11.0488 4.1509H6.23768V4.96392H11.1803V7.72001L9.81532 9.07907H6.23768V9.88513H12.4159V12.6412C11.9641 13.0918 11.5149 13.5448 11.0681 14.0003H0.875977V1.37547L2.22162 0.0356445ZM11.0164 3.58198L11.9897 2.61283V0.459989H2.3992L1.39133 1.4635H10.9742C10.9735 1.73429 10.9462 3.44405 10.9992 3.57444L11.0164 3.58198ZM4.79598 11.3276H10.9742V13.4826L11.5068 12.9523L11.9897 12.4715V10.3094H5.81147V9.04373H4.79598V11.3276ZM4.79598 4.10847V6.39926H9.73858V8.55225L10.2712 8.02194L10.7541 7.54115V5.3812H5.81147V4.10847H4.79598Z" fill="white" style="fill:white;fill-opacity:1;"/>
<path d="M50.4033 0.0356445H61.8139V7.73214C61.3968 8.14858 60.859 8.65542 60.467 9.07907H54.4145V12.6459L53.054 14.0003H49.0449V1.38793L50.4033 0.0356445ZM49.575 1.4635H60.3797C60.3793 2.22491 60.2957 8.21828 60.4087 8.53719L61.4014 7.54862V0.459989H50.5827L49.575 1.4635ZM52.9658 6.39926H57.8935V5.3812H53.9875V3.94574H52.9658V6.39926ZM54.4145 3.94574V4.96392H57.8935V3.94574H54.4145ZM52.9658 9.03665V13.4942L53.5014 12.9609L53.9875 12.4731V9.03665H52.9658Z" fill="white" style="fill:white;fill-opacity:1;"/>
<path d="M88.6909 0.0356445H98.8761V2.80887L97.5284 4.1509H92.7051V9.88513H98.8761V12.6604L97.5305 14.0003H87.3359V1.38474L88.6909 0.0356445ZM91.2564 11.3276H97.4346V13.4925L97.9685 12.9609L98.4568 12.4745V10.3094H92.2785V4.1225H91.2564V11.3276ZM88.8788 0.459989L87.8707 1.4635H97.4346C97.4333 1.9226 97.4005 3.1756 97.4466 3.57386L97.4708 3.59703L98.4568 2.61504V0.459989H88.8788Z" fill="white" style="fill:white;fill-opacity:1;"/>
<path d="M65.2139 0.0356445H77.8777V2.80181L76.5155 4.15786H72.9351V12.6604L71.5891 14.0003H67.58V4.1509H63.873V1.38793L65.2139 0.0356445ZM64.3937 1.4635H76.4435C76.4409 1.77174 76.3992 3.39709 76.4652 3.61384L77.4512 2.61504V0.459989H65.4018L64.3937 1.4635ZM71.5009 13.4872L72.0296 12.9609L72.5226 12.4698V4.15786H71.5009V13.4872Z" fill="white" style="fill:white;fill-opacity:1;"/>
<path d="M15.8137 0.0356445H19.8298V9.88513H25.9941V12.6551L24.6431 14.0003H14.4609V1.38253L15.8137 0.0356445ZM14.9834 1.4635H18.3811V11.3276H24.5593C24.5585 11.6467 24.5361 13.1918 24.575 13.4142L24.6053 13.4346L25.5818 12.4624V10.3094H19.4035V0.459989H15.9891L14.9834 1.4635Z" fill="white" style="fill:white;fill-opacity:1;"/>
<path d="M29.3972 0.0356445H33.4086V9.88513H39.5869V12.6551L38.2358 14.0003H28.0537V1.38253L29.3972 0.0356445ZM31.9738 1.4635V11.3276H38.1521C38.15 11.597 38.1258 13.2876 38.1758 13.4568L39.16 12.4769V10.3094H32.9963V0.459989H29.5769L28.5691 1.4635H31.9738Z" fill="white" style="fill:white;fill-opacity:1;"/>
<path d="M81.2768 0.0356445H85.291V12.6534L83.945 14.0003H79.9219V1.38474L81.2768 0.0356445ZM83.8568 1.4635L83.8551 10.3307C83.8551 10.696 83.818 13.2652 83.8858 13.4584L84.8645 12.4837V0.459989H81.4647L80.4566 1.4635H83.8568Z" fill="white" style="fill:white;fill-opacity:1;"/>
<path d="M42.988 0.0356445H46.9994V12.6459L45.6483 14.0003H41.6299V1.38793L42.988 0.0356445ZM42.1598 1.4635H45.5648L45.5661 10.4014C45.5656 10.8513 45.5094 13.2248 45.5882 13.4568L46.5725 12.4769V0.459989H43.1677L42.1598 1.4635Z" fill="white" style="fill:white;fill-opacity:1;"/>
</g>
<defs>
<clipPath id="clip0_4452_2901">
<rect width="98" height="14" fill="white" style="fill:white;fill-opacity:1;"/>
</clipPath>
</defs>
</svg>
