<svg width="182" height="28" viewBox="0 0 182 28" fill="none" xmlns="http://www.w3.org/2000/svg">
<path d="M36.4543 15.1699C36.6775 17.7856 38.6527 19.8468 41.242 19.8468C43.191 19.8468 44.6935 18.7614 45.4171 17.5915L46.8365 18.7614C45.3048 20.7103 43.385 21.5171 41.242 21.5171C37.3733 21.5171 34.5068 18.5951 34.5068 14.6695C34.5068 10.744 37.3733 7.82202 41.0757 7.82202C45.0276 7.84974 47.3106 10.7717 47.3106 14.3355V15.1713H36.4557L36.4543 15.1699ZM45.3048 13.6674C45.3048 11.1903 43.7177 9.49232 41.0743 9.49232C38.6805 9.49232 36.5098 11.5244 36.5098 13.6674H45.3062H45.3048Z" fill="white" style="fill:white;fill-opacity:1;"/>
<path d="M52.378 14.2233L47.6458 8.15479H50.1505L53.7683 13.0257L57.2198 8.15479H59.5028L54.966 14.2233L60.4218 21.1817H57.9171L53.5466 15.4764L49.3438 21.1817H47.0054L52.378 14.2233Z" fill="white" style="fill:white;fill-opacity:1;"/>
<path d="M70.4656 11.2168C69.8529 10.2701 68.6567 9.49105 67.2096 9.49105C64.1753 9.4356 62.311 11.6895 62.311 14.6683C62.311 17.6471 64.1767 19.9009 67.2096 19.8455C68.6567 19.8455 69.8543 19.0665 70.4656 18.1198L71.9682 19.2606C70.6874 20.7631 68.9617 21.4867 67.2082 21.5144C62.95 21.5699 60.3052 18.5924 60.3052 14.6669C60.3052 10.7413 62.95 7.76392 67.2082 7.81937C68.9617 7.84709 70.6874 8.57065 71.9682 10.0732L70.4656 11.214V11.2168Z" fill="white" style="fill:white;fill-opacity:1;"/>
<path d="M73.8037 0.138672H75.6403V10.2422H75.6958C76.5025 8.82283 78.3405 7.82065 80.0663 7.82065C83.3778 7.82065 84.9649 9.68639 84.9649 12.9147V21.1816H83.1283V13.9723C83.1283 11.0781 82.3215 9.49095 79.5936 9.49095C79.2041 9.49095 75.6417 9.74184 75.6417 14.5018V21.1816H73.8051V0.138672H73.8037Z" fill="white" style="fill:white;fill-opacity:1;"/>
<path d="M95.9293 13.1932V12.8592C95.9293 10.6039 94.844 9.49085 92.5887 9.49085C91.057 9.49085 89.7222 10.0204 88.6077 11.0211L87.4947 9.71263C88.6923 8.48729 90.5566 7.82056 93.0059 7.82056C95.4552 7.82056 97.7659 9.26768 97.7659 12.4406V18.2582C97.7659 19.2604 97.8768 20.4857 97.9877 21.1815H96.2065C96.0956 20.5411 96.0402 19.7621 96.0402 19.0663H95.9848C94.9271 20.792 93.48 21.5156 91.3925 21.5156C89.0818 21.5156 86.9111 20.2348 86.9111 17.7023C86.9111 13.4718 91.8929 13.1932 95.0103 13.1932H95.9293ZM94.9826 14.6958C93.1182 14.6958 88.9141 14.8358 88.9141 17.4514C88.9141 19.1772 90.5012 19.8453 91.976 19.8453C94.6485 19.8453 95.9279 17.9518 95.9279 15.6425V14.6958H94.9812H94.9826Z" fill="white" style="fill:white;fill-opacity:1;"/>
<path d="M102.14 8.15461C102.224 8.85045 102.224 9.5463 102.224 10.2421H102.279C103.086 8.82274 104.924 7.82056 106.65 7.82056C109.961 7.82056 111.548 9.68629 111.548 12.9146V21.1815H109.712V13.9722C109.712 11.078 108.905 9.49085 106.177 9.49085C105.787 9.49085 102.225 9.74174 102.225 14.5017V21.1815H100.388V11.0225C100.388 10.3267 100.305 9.10273 100.25 8.156H102.142L102.14 8.15461Z" fill="white" style="fill:white;fill-opacity:1;"/>
<path d="M114.916 23.7972C116.002 25.2443 117.811 26.191 119.898 26.191C123.628 26.191 124.965 23.8804 124.965 21.0693V18.7309H124.909C123.741 20.4843 121.93 21.1802 120.038 21.1802C116.28 21.1802 113.248 18.3691 113.248 14.5558C113.248 10.7425 116.031 7.82056 119.872 7.82056C121.431 7.82056 123.407 8.29323 124.911 10.3253H124.966V8.15461H126.803V21.0693C126.803 23.9081 125.662 27.86 119.816 27.86C117.227 27.86 115.224 27.0255 113.554 25.2443L114.918 23.7972H114.916ZM120.094 19.5112C122.766 19.5112 125.132 17.5069 125.02 14.5017C125.02 11.7738 123.156 9.49085 120.094 9.49085C117.366 9.49085 115.251 11.7738 115.251 14.5017C115.251 17.2297 117.366 19.5112 120.094 19.5112Z" fill="white" style="fill:white;fill-opacity:1;"/>
<path d="M130.502 15.1699C130.724 17.7856 132.701 19.8468 135.29 19.8468C137.239 19.8468 138.741 18.7614 139.465 17.5915L140.884 18.7614C139.354 20.7103 137.433 21.5171 135.29 21.5171C131.421 21.5171 128.555 18.5951 128.555 14.6695C128.555 10.744 131.421 7.82202 135.124 7.82202C139.075 7.84974 141.358 10.7717 141.358 14.3355V15.1713H130.504L130.502 15.1699ZM139.353 13.6674C139.353 11.1903 137.766 9.49232 135.122 9.49232C132.728 9.49232 130.558 11.5244 130.558 13.6674H139.354H139.353Z" fill="white" style="fill:white;fill-opacity:1;"/>
<path d="M154.413 19.5529H154.359C153.472 20.9501 151.86 21.5142 150.22 21.5142C147.775 21.5142 145.571 20.117 145.571 17.4834C145.571 12.9687 151.055 12.8869 154.413 12.8869C154.413 11.4634 153.231 10.5485 151.834 10.5485C150.517 10.5485 149.415 11.139 148.555 12.1079L146.406 9.90395C147.883 8.50671 150.034 7.80811 152.157 7.80811C156.86 7.80811 158.124 10.2006 158.124 14.5544V21.1927H154.415V19.5529H154.413ZM153.419 15.4679C152.183 15.4679 149.441 15.576 149.441 17.3489C149.441 18.3164 150.463 18.7739 151.35 18.7739C152.936 18.7739 154.413 17.9408 154.413 16.3287V15.4693H153.419V15.4679Z" fill="white" style="fill:white;fill-opacity:1;"/>
<path d="M159.843 8.13107H163.874V10.2269H163.928C164.787 8.64118 165.917 7.80811 167.69 7.80811C168.147 7.80811 168.657 7.83444 169.033 7.94256V11.6241C168.469 11.4634 167.904 11.3552 167.313 11.3552C164.249 11.3552 163.872 13.1295 163.872 15.7368V21.1927H159.841V8.13107H159.843Z" fill="white" style="fill:white;fill-opacity:1;"/>
<path d="M180.913 11.3567H177.366V15.7106C177.366 17.1078 177.527 18.1294 179.275 18.1294C179.705 18.1294 180.566 18.0753 180.915 17.7537V21.1137C180.028 21.4367 179.034 21.5171 178.093 21.5171C175.405 21.5171 173.335 20.4151 173.335 17.5666V11.3581H170.756V8.13255H173.335V4.26245H177.366V8.13255H180.913V11.3581V11.3567Z" fill="white" style="fill:white;fill-opacity:1;"/>
<path d="M16.7818 0.138605H2.32849C1.10869 0.138605 0.116211 1.13108 0.116211 2.35088V16.7709C0.116211 16.7709 0.116213 18.9832 2.08038 18.9832H4.07641C6.07107 18.9832 6.04889 16.8041 6.04889 16.8041L6.08354 6.17247L16.7485 6.13643C16.7485 6.13643 18.9608 6.13643 18.9608 4.15009V2.13187C18.9608 0.115041 16.7818 0.137217 16.7818 0.137217V0.138605Z" fill="white" style="fill:white;fill-opacity:1;"/>
<path d="M11.0477 27.8614H25.5009C26.7207 27.8614 27.7132 26.8689 27.7132 25.6491V11.2291C27.7132 11.2291 27.7132 9.01685 25.749 9.01685H23.753C21.7583 9.01685 21.7805 11.1959 21.7805 11.1959L21.7459 21.8275L11.0809 21.8636C11.0809 21.8636 8.86865 21.8636 8.86865 23.8499V25.8681C8.86865 27.885 11.0477 27.8628 11.0477 27.8628V27.8614Z" fill="white" style="fill:white;fill-opacity:1;"/>
</svg>
