<svg width="136" height="32" viewBox="0 0 136 32" fill="none" xmlns="http://www.w3.org/2000/svg">
<g clip-path="url(#clip0_520_31338)">
<path d="M21.718 4.92886C22.178 4.34501 22.8768 4 23.6199 4H27.8485C28.2288 4 28.45 4.44231 28.2112 4.74309L20.8157 14.2352C20.621 14.4829 20.3291 14.6244 20.0106 14.6244H16.3748C15.9236 14.6244 15.5521 14.9959 15.5521 15.4471V16.5352C15.5521 16.9864 15.9236 17.3579 16.3748 17.3579H20.0106C20.3291 17.3579 20.621 17.4994 20.8157 17.7471L28.2112 27.2392C28.45 27.54 28.2288 27.9823 27.8485 27.9823H23.6199C22.8768 27.9823 22.178 27.6373 21.718 27.0534L14.9594 18.3841C14.5525 17.8621 13.7563 17.8621 13.3494 18.3841L6.59081 27.0534C6.1308 27.6373 5.43194 27.9823 4.68885 27.9823H0.460323C0.079932 27.9823 -0.141225 27.54 0.0976246 27.2392L7.50197 17.756C7.69659 17.5083 7.98852 17.3668 8.30699 17.3668H11.9428C12.394 17.3668 12.7655 16.9952 12.7655 16.544V15.456C12.7655 15.0048 12.394 14.6332 11.9428 14.6332H8.30699C7.98852 14.6332 7.69659 14.4917 7.50197 14.244L0.0976246 4.74309C-0.141225 4.44231 0.079932 4 0.460323 4H4.68885C5.43194 4 6.1308 4.34501 6.59081 4.92886L13.3494 13.5982C13.7563 14.1202 14.5525 14.1202 14.9594 13.5982L21.718 4.92886Z" fill="white" style="fill:white;fill-opacity:1;"/>
<path fill-rule="evenodd" clip-rule="evenodd" d="M129.732 18.7382C129.732 20.9763 130.705 21.8787 133.111 21.8787H135.552V19.6671H133.571C132.66 19.6671 132.288 19.2955 132.288 18.3844V12.4485H135.552V10.2369H132.288V6.97266H130.307L130.077 8.95423C129.962 9.90963 129.634 10.2369 128.679 10.2369H127.396V12.4485H129.723V18.7382H129.732ZM114.764 21.8787H117.329V15.5889C117.329 13.6074 118.612 12.2097 120.584 12.2097C122.557 12.2097 123.495 13.6074 123.495 15.5889V21.8787H126.06V15.2439C126.06 12.0504 124.45 10.0069 121.637 10.0069C119.638 10.0069 118.143 10.9181 117.329 12.4751V10.2369H114.764V21.8787ZM100.769 16.0578C100.769 12.422 103.281 10.0069 106.82 10.0069C110.358 10.0069 112.871 12.4308 112.871 16.0578V16.6417H103.37C103.582 18.6409 104.997 19.9059 106.82 19.9059C108.288 19.9059 109.261 19.2779 109.827 18.2782H112.526C111.756 20.6048 109.757 22.1175 106.82 22.1175C103.281 22.1175 100.769 19.6936 100.769 16.0666V16.0578ZM103.423 15.1732L110.27 15.1466C110.013 13.3508 108.642 12.2097 106.82 12.2097C105.121 12.2097 103.75 13.3508 103.423 15.1643V15.1732ZM87.809 21.8787H90.3744V15.5889C90.3744 13.6074 91.6571 12.2097 93.6387 12.2097C95.6202 12.2097 96.5491 13.6074 96.5491 15.5889V21.8787H99.1145V15.2439C99.1145 12.0504 97.5045 10.0069 94.6914 10.0069C92.6921 10.0069 91.1971 10.9181 90.3832 12.4751V10.2369H87.8178V21.8787H87.809ZM79.8915 9.99809C83.66 9.99809 86.1812 12.422 86.1812 16.049C86.1812 19.6759 83.6689 22.0998 79.8915 22.0998C76.1142 22.0998 73.6018 19.6759 73.6018 16.049C73.6018 12.422 76.1142 9.99809 79.8915 9.99809ZM79.8915 19.8971C82.1296 19.8971 83.6158 18.3578 83.6158 16.0578C83.6158 13.7578 82.1296 12.2185 79.8915 12.2185C77.6534 12.2185 76.1672 13.7578 76.1672 16.0578C76.1672 18.3578 77.6534 19.8971 79.8915 19.8971ZM62.4378 12.077V10.2369H59.8724V25.0279H62.4378V20.0386C63.2782 21.3213 64.6228 22.1087 66.5159 22.1087C69.8952 22.1087 72.2218 19.6848 72.2218 16.0578C72.2218 12.4308 69.8952 10.0069 66.5159 10.0069C64.6317 10.0069 63.2782 10.8031 62.4378 12.077ZM69.6564 16.0578C69.6564 18.3667 68.1702 19.8971 65.9321 19.8971C63.694 19.8971 62.2078 18.3578 62.2078 16.0578C62.2078 13.7578 63.694 12.2185 65.9321 12.2185C68.1702 12.2185 69.6564 13.7578 69.6564 16.0578ZM58.3066 21.8787H55.0423L51.778 17.4997L48.5137 21.8787H45.2494L49.9026 15.9163L45.4794 10.2369H48.7437L51.7691 14.5185L54.7946 10.2369H58.0589L53.6357 15.9163L58.2889 21.8787H58.3066ZM39.1632 9.99809C35.6247 9.99809 33.1123 12.422 33.1123 16.049C33.1123 19.6759 35.6247 22.0998 39.1632 22.0998C42.1001 22.0998 44.0994 20.5871 44.869 18.2605H42.1709C41.6136 19.2602 40.6317 19.8882 39.1632 19.8882C37.3497 19.8882 35.9254 18.6321 35.7131 16.624H45.214V16.0401C45.214 12.4043 42.7017 9.98924 39.1632 9.98924V9.99809ZM42.6132 15.1466L35.7662 15.1732C36.0935 13.3597 37.4647 12.2185 39.1632 12.2185C40.9767 12.2185 42.3567 13.3597 42.6132 15.1555V15.1466Z" fill="white" style="fill:white;fill-opacity:1;"/>
</g>
<defs>
<clipPath id="clip0_520_31338">
<rect width="135.552" height="24" fill="white" style="fill:white;fill-opacity:1;" transform="translate(0 4)"/>
</clipPath>
</defs>
</svg>
