<svg width="118" height="20" viewBox="0 0 118 20" fill="none" xmlns="http://www.w3.org/2000/svg">
<g clip-path="url(#clip0_4452_2382)">
<mask id="mask0_4452_2382" style="mask-type:luminance" maskUnits="userSpaceOnUse" x="1" y="0" width="118" height="20">
<path d="M119 0H1V20H119V0Z" fill="white" style="fill:white;fill-opacity:1;"/>
</mask>
<g mask="url(#mask0_4452_2382)">
<path d="M17.9939 0H3.9014C2.29941 0 1 1.30625 1 2.91667V17.0833C1 18.6938 2.29941 20 3.9014 20H17.9939C19.5959 20 20.8953 18.6938 20.8953 17.0833V2.91667C20.8953 1.30625 19.5959 0 17.9939 0ZM14.5806 14.1667H7.3147C6.51266 14.1667 6.01528 13.2917 6.42148 12.5979L10.071 6.35C10.4731 5.6625 11.4616 5.66458 11.8595 6.35417L15.4759 12.6021C15.878 13.2958 15.3785 14.1667 14.5806 14.1667Z" fill="white" style="fill:white;fill-opacity:1;"/>
<path d="M54.3882 6.2749C51.1574 6.2749 49.3398 8.26657 49.3398 11.7999C49.3398 15.3332 51.1574 17.3207 54.3882 17.3207C56.7881 17.3207 58.587 16.2937 59.1549 14.027C59.2004 13.8437 59.0596 13.6645 58.8751 13.6645H57.441C57.3063 13.6645 57.1902 13.7562 57.1612 13.8874C57.0389 14.4124 56.5229 15.6957 54.3882 15.6957C52.8277 15.6957 51.7127 14.6687 51.406 12.8457C51.377 12.6687 51.5138 12.5062 51.692 12.5062H59.1486C59.3082 12.5062 59.4367 12.377 59.4367 12.2166V11.8999C59.4367 8.2874 57.6192 6.2749 54.3882 6.2749ZM57.1094 11.0062H51.69C51.5117 11.0062 51.3749 10.8457 51.4039 10.6707C51.692 8.9124 52.7552 7.92282 54.411 7.92282C56.0669 7.92282 57.1094 8.9124 57.3953 10.6707C57.4243 10.8478 57.2876 11.0062 57.1094 11.0062Z" fill="white" style="fill:white;fill-opacity:1;"/>
<path d="M48.7059 6.53545H47.6157C46.6251 6.53545 45.7112 7.0667 45.2159 7.9292C45.0791 8.17087 44.7123 8.07087 44.7123 7.79378V6.81253C44.7123 6.65212 44.5838 6.52295 44.4242 6.52295H42.8388C42.6793 6.52295 42.5508 6.65212 42.5508 6.81253V16.7875C42.5508 16.948 42.6793 17.0771 42.8388 17.0771H44.4242C44.5838 17.0771 44.7123 16.948 44.7123 16.7875V10.575C44.7123 9.37712 45.678 8.40628 46.8676 8.40628H47.9411C48.0385 8.40628 48.1276 8.35212 48.1753 8.26878L48.9421 6.94378C49.0478 6.76253 48.9172 6.53753 48.7079 6.53753L48.7059 6.53545Z" fill="white" style="fill:white;fill-opacity:1;"/>
<path d="M39.9384 6.51855H38.413C38.254 6.51855 38.125 6.64821 38.125 6.80814V16.7873C38.125 16.9472 38.254 17.0769 38.413 17.0769H39.9384C40.0974 17.0769 40.2264 16.9472 40.2264 16.7873V6.80814C40.2264 6.64821 40.0974 6.51855 39.9384 6.51855Z" fill="white" style="fill:white;fill-opacity:1;"/>
<path d="M40.007 2.91064H38.3408C38.1725 2.91064 38.0361 3.04776 38.0361 3.21689V4.99814C38.0361 5.16729 38.1725 5.30439 38.3408 5.30439H40.007C40.1753 5.30439 40.3116 5.16729 40.3116 4.99814V3.21689C40.3116 3.04776 40.1753 2.91064 40.007 2.91064Z" fill="white" style="fill:white;fill-opacity:1;"/>
<path d="M36.1184 2.91029H26.9872C26.8277 2.91029 26.6992 3.03945 26.6992 3.19987V16.7832C26.6992 16.9436 26.8277 17.0728 26.9872 17.0728H28.5893C28.7488 17.0728 28.8773 16.9436 28.8773 16.7832V10.5561C28.8773 10.4061 28.9996 10.2853 29.1467 10.2853L34.2407 10.2769C34.3278 10.2769 34.4086 10.2394 34.4625 10.1707L35.2024 8.88319C35.3578 8.69361 35.2231 8.40819 34.9807 8.40819H30.5643C30.3425 8.40819 30.1311 8.48944 29.9632 8.63944C29.7643 8.81861 29.5011 9.05403 29.3788 9.16444C29.184 9.33736 28.8794 9.19778 28.8794 8.93736V5.16654C28.8794 5.00612 29.0079 4.87695 29.1675 4.87695H35.3371C35.4345 4.87695 35.5236 4.82487 35.5712 4.74154L36.3485 3.37487C36.4935 3.18529 36.3588 2.9082 36.1184 2.9082V2.91029Z" fill="white" style="fill:white;fill-opacity:1;"/>
<path d="M98.2176 13.3207H96.7069C96.5748 13.3207 96.4626 13.4103 96.4293 13.5374C96.1102 14.8041 95.1696 15.5145 93.8308 15.5145C91.932 15.5145 90.7986 14.1937 90.7986 11.7978C90.7986 9.40199 91.9096 8.08115 93.8308 8.08115C95.7513 8.08115 96.2715 9.44157 96.4111 9.97907C96.4435 10.1041 96.5598 10.1937 96.6886 10.1937H98.2118C98.3938 10.1937 98.5309 10.0249 98.4977 9.84574C98.0481 7.54782 96.3654 6.2749 93.7494 6.2749C90.4978 6.2749 88.7012 8.26449 88.7012 11.7957C88.7012 15.327 90.5003 17.3166 93.7494 17.3166C96.3712 17.3166 98.073 16.0041 98.5035 13.6624C98.5367 13.4832 98.3979 13.3187 98.2176 13.3187V13.3207Z" fill="white" style="fill:white;fill-opacity:1;"/>
<path d="M104.586 11.4232C104.479 11.3044 104.488 11.1232 104.604 11.0169L109.035 6.95023C109.203 6.79814 109.095 6.51898 108.867 6.51898H106.971C106.9 6.51898 106.83 6.54606 106.776 6.59398L102.768 10.2752C102.633 10.4002 102.416 10.3023 102.416 10.119V3.19814C102.416 3.03773 102.289 2.91064 102.129 2.91064H100.6C100.441 2.91064 100.314 3.03773 100.314 3.19814V16.7898C100.314 16.9502 100.441 17.0773 100.6 17.0773H102.129C102.289 17.0773 102.416 16.9502 102.416 16.7898V12.3982C102.416 12.2023 102.656 12.1107 102.784 12.2565L106.957 16.9815C107.011 17.0419 107.089 17.0794 107.17 17.0794H109.093C109.307 17.0794 109.419 16.8252 109.275 16.6648L104.583 11.4232H104.586Z" fill="white" style="fill:white;fill-opacity:1;"/>
<path d="M114.961 10.848C112.778 10.4397 112.275 10.1543 112.275 9.28138C112.275 8.40846 113.182 7.86055 114.317 7.86055C116.306 7.86055 116.668 9.0293 116.731 9.55846C116.747 9.7043 116.874 9.81055 117.016 9.81055H118.477C118.648 9.81055 118.78 9.66471 118.766 9.49596C118.604 7.47305 117.027 6.2793 114.317 6.2793C111.892 6.2793 110.217 7.45638 110.217 9.3668C110.217 10.9897 111.067 12.046 114.337 12.596C116.6 12.9626 116.9 13.346 116.9 14.2418C116.9 15.2376 116.032 15.7439 114.619 15.7439C112.472 15.746 112.124 14.4564 112.076 13.8814C112.065 13.7293 111.941 13.6126 111.788 13.6126H110.312C110.144 13.6126 110.01 13.7564 110.025 13.9251C110.188 16.3022 112.039 17.3272 114.575 17.3272C117.112 17.3272 118.998 16.1897 118.998 14.121C118.998 12.3355 118.108 11.4626 114.959 10.8522L114.961 10.848Z" fill="white" style="fill:white;fill-opacity:1;"/>
<path d="M74.9569 2.91064H73.4317C73.2725 2.91064 73.1436 3.04029 73.1436 3.20023V16.7857C73.1436 16.9456 73.2725 17.0752 73.4317 17.0752H74.9569C75.1161 17.0752 75.245 16.9456 75.245 16.7857V3.20023C75.245 3.04029 75.1161 2.91064 74.9569 2.91064Z" fill="white" style="fill:white;fill-opacity:1;"/>
<path d="M82.2344 6.2749C78.9827 6.2749 77.043 8.6499 77.043 11.7957C77.043 14.9416 78.9827 17.3166 82.2344 17.3166C85.486 17.3166 87.4255 14.9416 87.4255 11.7957C87.4255 8.6499 85.486 6.2749 82.2344 6.2749ZM82.2344 15.5937C80.1537 15.5937 79.1838 13.9895 79.1838 11.7957C79.1838 9.60199 80.1516 7.99782 82.2344 7.99782C84.3176 7.99782 85.2849 9.60199 85.2849 11.7957C85.2849 13.9895 84.3176 15.5937 82.2344 15.5937Z" fill="white" style="fill:white;fill-opacity:1;"/>
<path d="M67.0495 6.29385C65.6319 6.29593 64.4899 6.83551 63.8164 7.77718C63.7025 7.93343 63.4559 7.85009 63.4559 7.65842V3.20218C63.4559 3.04176 63.3274 2.9126 63.1677 2.9126H61.6446C61.4849 2.9126 61.3564 3.04176 61.3564 3.20218V16.7855C61.3564 16.9459 61.4849 17.0751 61.6446 17.0751H63.087C63.2465 17.0751 63.375 16.9459 63.375 16.7855V15.648C63.375 15.4584 63.6196 15.3938 63.7211 15.5522C64.3988 16.6251 65.5635 17.3001 67.0101 17.3001C69.8783 17.3001 71.6337 15.2688 71.6337 11.798C71.6337 8.32718 69.8576 6.29593 67.0495 6.29593V6.29385ZM66.465 15.5543C64.5853 15.5543 63.4745 14.1126 63.4745 11.798C63.4745 9.48343 64.5853 8.02093 66.465 8.02093C68.3447 8.02093 69.497 9.48135 69.497 11.798C69.497 14.1147 68.3654 15.5543 66.465 15.5543Z" fill="white" style="fill:white;fill-opacity:1;"/>
</g>
</g>
<defs>
<clipPath id="clip0_4452_2382">
<rect width="118" height="20" fill="white" style="fill:white;fill-opacity:1;"/>
</clipPath>
</defs>
</svg>
