<svg width="175" height="40" viewBox="0 0 175 40" fill="none" xmlns="http://www.w3.org/2000/svg">
<mask id="mask0_582_12979" style="mask-type:luminance" maskUnits="userSpaceOnUse" x="4" y="4" width="32" height="32">
<path d="M4.44727 4.44434H35.555V35.5554H4.44727V4.44434Z" fill="white" style="fill:white;fill-opacity:1;"/>
</mask>
<g mask="url(#mask0_582_12979)">
<path fill-rule="evenodd" clip-rule="evenodd" d="M34.7424 5.25774C32.0091 2.5244 23.1935 6.90774 15.0524 15.05C6.91018 23.1922 2.52685 32.0089 5.26018 34.7444C7.99351 37.4777 16.8091 33.0933 24.9513 24.9511C33.0924 16.8088 37.4757 7.99107 34.7424 5.25774ZM24.6513 24.6511C18.3791 30.9222 11.2235 33.9344 8.66685 31.3788C6.11129 28.8222 9.1224 21.6655 15.3946 15.3933C21.6668 9.12107 28.8235 6.10885 31.3791 8.6644C33.9346 11.2211 30.9224 18.3777 24.6513 24.65" fill="white" style="fill:white;fill-opacity:1;"/>
<path d="M34.9518 20.0458L20.833 20.788L20.0885 34.9069L19.3463 20.788L5.22852 20.0436L19.3463 19.3025L20.0907 5.18359L20.833 19.3025L34.9518 20.0458Z" fill="white" style="fill:white;fill-opacity:1;"/>
</g>
<path d="M54.4011 18.7278H60.7478V21.1833H54.4011V18.7278ZM54.6278 26H51.5678V12.7778H61.56V15.2333H54.6278V26ZM62.876 26V12.7778H68.5994C69.7831 12.7778 70.8031 12.973 71.6594 13.3633C72.5157 13.7411 73.1768 14.2889 73.6427 15.0067C74.1086 15.7244 74.3416 16.5807 74.3416 17.5756C74.3416 18.5578 74.1086 19.4078 73.6427 20.1256C73.1768 20.8307 72.5157 21.3722 71.6594 21.75C70.8031 22.1278 69.7831 22.3167 68.5994 22.3167H64.576L65.936 20.9756V26H62.876ZM71.2816 26L67.976 21.2022H71.2438L74.5871 26H71.2816ZM65.936 21.3156L64.576 19.88H68.4294C69.3738 19.88 70.079 19.6785 70.5449 19.2756C71.0108 18.86 71.2438 18.2933 71.2438 17.5756C71.2438 16.8452 71.0108 16.2785 70.5449 15.8756C70.079 15.4726 69.3738 15.2711 68.4294 15.2711H64.576L65.936 13.8167V21.3156ZM74.2727 26L80.166 12.7778H83.1882L89.1004 26H85.8893L81.0538 14.3267H82.2627L77.4082 26H74.2727ZM77.2193 23.1667L78.0316 20.8433H84.8316L85.6627 23.1667H77.2193ZM95.9167 26.2267C94.8715 26.2267 93.9082 26.063 93.0267 25.7356C92.1578 25.3956 91.3959 24.917 90.7411 24.3C90.0989 23.683 89.5952 22.9589 89.23 22.1278C88.8774 21.2967 88.7011 20.3837 88.7011 19.3889C88.7011 18.3941 88.8774 17.4811 89.23 16.65C89.5952 15.8189 90.1052 15.0948 90.76 14.4778C91.4148 13.8607 92.183 13.3885 93.0645 13.0611C93.9459 12.7211 94.9156 12.5511 95.9733 12.5511C97.1445 12.5511 98.1959 12.7463 99.1278 13.1367C100.072 13.527 100.866 14.0937 101.508 14.8367L99.5433 16.65C99.0648 16.1463 98.5422 15.7748 97.9756 15.5356C97.4089 15.2837 96.7919 15.1578 96.1245 15.1578C95.4822 15.1578 94.8967 15.2585 94.3678 15.46C93.8389 15.6615 93.3793 15.9511 92.9889 16.3289C92.6111 16.7067 92.3152 17.1537 92.1011 17.67C91.8996 18.1863 91.7989 18.7593 91.7989 19.3889C91.7989 20.0059 91.8996 20.5726 92.1011 21.0889C92.3152 21.6052 92.6111 22.0585 92.9889 22.4489C93.3793 22.8267 93.8326 23.1163 94.3489 23.3178C94.8778 23.5193 95.457 23.62 96.0867 23.62C96.6911 23.62 97.2767 23.5256 97.8433 23.3367C98.4226 23.1352 98.983 22.8015 99.5245 22.3356L101.262 24.5456C100.544 25.087 99.707 25.5026 98.75 25.7922C97.8056 26.0819 96.8611 26.2267 95.9167 26.2267ZM98.4667 24.1489V19.1811H101.262V24.5456L98.4667 24.1489ZM103.349 26V12.7778H105.88L111.509 22.1089H110.168L115.702 12.7778H118.215L118.252 26H115.381L115.362 17.1789H115.891L111.471 24.6022H110.092L105.578 17.1789H106.22V26H103.349ZM123.448 18.1044H129.814V20.4844H123.448V18.1044ZM123.675 23.5444H130.872V26H120.634V12.7778H130.626V15.2333H123.675V23.5444ZM135.29 26V15.2711H131.059V12.7778H142.581V15.2711H138.35V26H135.29ZM143.472 26V12.7778H149.195C150.379 12.7778 151.399 12.973 152.255 13.3633C153.111 13.7411 153.773 14.2889 154.238 15.0067C154.704 15.7244 154.937 16.5807 154.937 17.5756C154.937 18.5578 154.704 19.4078 154.238 20.1256C153.773 20.8307 153.111 21.3722 152.255 21.75C151.399 22.1278 150.379 22.3167 149.195 22.3167H145.172L146.532 20.9756V26H143.472ZM151.877 26L148.572 21.2022H151.84L155.183 26H151.877ZM146.532 21.3156L145.172 19.88H149.025C149.97 19.88 150.675 19.6785 151.141 19.2756C151.607 18.86 151.84 18.2933 151.84 17.5756C151.84 16.8452 151.607 16.2785 151.141 15.8756C150.675 15.4726 149.97 15.2711 149.025 15.2711H145.172L146.532 13.8167V21.3156ZM156.606 26V12.7778H159.666V26H156.606ZM168.376 26.2267C167.356 26.2267 166.406 26.063 165.524 25.7356C164.655 25.3956 163.9 24.917 163.257 24.3C162.615 23.683 162.112 22.9589 161.746 22.1278C161.394 21.2967 161.217 20.3837 161.217 19.3889C161.217 18.3941 161.394 17.4811 161.746 16.65C162.112 15.8189 162.615 15.0948 163.257 14.4778C163.912 13.8607 164.674 13.3885 165.543 13.0611C166.412 12.7211 167.363 12.5511 168.395 12.5511C169.541 12.5511 170.574 12.7526 171.493 13.1556C172.425 13.5459 173.206 14.1252 173.835 14.8933L171.871 16.7067C171.417 16.1904 170.914 15.8063 170.36 15.5544C169.806 15.29 169.201 15.1578 168.546 15.1578C167.929 15.1578 167.363 15.2585 166.846 15.46C166.33 15.6615 165.883 15.9511 165.505 16.3289C165.127 16.7067 164.832 17.1537 164.617 17.67C164.416 18.1863 164.315 18.7593 164.315 19.3889C164.315 20.0185 164.416 20.5915 164.617 21.1078C164.832 21.6241 165.127 22.0711 165.505 22.4489C165.883 22.8267 166.33 23.1163 166.846 23.3178C167.363 23.5193 167.929 23.62 168.546 23.62C169.201 23.62 169.806 23.4941 170.36 23.2422C170.914 22.9778 171.417 22.5811 171.871 22.0522L173.835 23.8656C173.206 24.6337 172.425 25.2193 171.493 25.6222C170.574 26.0252 169.535 26.2267 168.376 26.2267Z" fill="white" style="fill:white;fill-opacity:1;"/>
</svg>
