<svg width="86" height="28" viewBox="0 0 86 28" fill="none" xmlns="http://www.w3.org/2000/svg">
<g clip-path="url(#clip0_1714_6256)">
<path d="M36.3623 14.476C36.3623 18.452 33.2588 21.3733 29.4449 21.3733C25.631 21.3733 22.5275 18.4427 22.5275 14.476C22.5275 10.4813 25.631 7.57868 29.4449 7.57868C33.2588 7.57868 36.3623 10.472 36.3623 14.476ZM33.3336 14.476C33.3336 11.9933 31.5295 10.2947 29.4449 10.2947C27.3604 10.2947 25.5562 11.9933 25.5562 14.476C25.5562 16.9307 27.3604 18.6573 29.4449 18.6573C31.5295 18.6573 33.3336 16.9307 33.3336 14.476ZM11.1793 21.448C5.2621 21.448 0.289062 16.6413 0.289062 10.7333C0.289062 4.82534 5.2621 0.0186768 11.1793 0.0186768C14.451 0.0186768 16.7786 1.29734 18.536 2.96801L16.4701 5.04001C15.2175 3.86401 13.5162 2.94934 11.1793 2.94934C6.86058 2.94934 3.48602 6.42134 3.48602 10.7333C3.48602 15.0453 6.86058 18.5173 11.1793 18.5173C13.9836 18.5173 15.5728 17.3973 16.5917 16.3707C17.433 15.5307 17.9845 14.3173 18.2182 12.4787H11.2167V9.54801H21.0506C21.1534 10.0707 21.2095 10.696 21.2095 11.3773C21.2095 13.5707 20.6112 16.5013 18.6669 18.4333C16.7786 20.4027 14.3762 21.448 11.1793 21.448ZM51.3188 14.476C51.3188 18.452 48.2153 21.3733 44.4014 21.3733C40.5875 21.3733 37.484 18.4427 37.484 14.476C37.484 10.4813 40.5875 7.57868 44.4014 7.57868C48.2153 7.57868 51.3188 10.472 51.3188 14.476ZM48.2901 14.476C48.2901 11.9933 46.486 10.2947 44.4014 10.2947C42.3169 10.2947 40.5127 11.9933 40.5127 14.476C40.5127 16.9307 42.3169 18.6573 44.4014 18.6573C46.486 18.6573 48.2901 16.9307 48.2901 14.476ZM65.434 7.98934V20.3747C65.434 25.4707 62.5829 27.5613 59.0214 27.5613C55.6749 27.5613 53.6558 25.312 52.8986 23.4827L55.544 22.3813C56.0114 23.5013 57.1706 24.836 59.0214 24.836C61.3023 24.836 62.5549 23.4267 62.5549 20.7853V19.796H62.4521C61.7697 20.636 60.5451 21.364 58.8906 21.364C55.4319 21.364 52.3471 18.3587 52.3471 14.4947C52.3471 10.6027 55.4319 7.56934 58.8906 7.56934C60.5358 7.56934 61.7697 8.29734 62.4521 9.10934H62.5549V7.98934H65.434ZM62.7606 14.4947C62.7606 12.068 61.134 10.2853 59.0682 10.2853C56.9743 10.2853 55.3758 12.0587 55.3758 14.4947C55.3758 16.9027 56.9743 18.648 59.0682 18.648C61.1434 18.6573 62.7606 16.9027 62.7606 14.4947ZM70.1079 1.09201V21.3733H67.3036V1.09201H70.1079ZM81.7927 16.744L84.111 18.312C83.3632 19.432 81.559 21.3733 78.4462 21.3733C74.5855 21.3733 71.6971 18.34 71.6971 14.476C71.6971 10.3693 74.6042 7.57868 78.1097 7.57868C81.6432 7.57868 83.3632 10.4253 83.9334 11.9653L84.2232 12.7587L75.1464 16.5667C75.8382 17.948 76.9225 18.6573 78.4462 18.6573C79.9699 18.6573 81.0262 17.892 81.7927 16.744ZM74.6603 14.2613L80.7364 11.704C80.3999 10.8453 79.3997 10.2387 78.2125 10.2387C76.6982 10.2387 74.5856 11.6013 74.6603 14.2613Z" fill="white" style="fill:white;fill-opacity:1;"/>
</g>
<defs>
<clipPath id="clip0_1714_6256">
<rect width="86" height="28" fill="white" style="fill:white;fill-opacity:1;"/>
</clipPath>
</defs>
</svg>
