<svg width="166" height="36" viewBox="0 0 166 36" fill="none" xmlns="http://www.w3.org/2000/svg">
<path d="M32.549 18.5501C32.549 12.3581 36.203 9.24408 40.937 9.24408C44.303 9.24408 46.067 10.7741 46.895 12.1061H47.255V9.65808H50.333V27.2801C50.333 32.5901 47.5429 35.6321 41.7109 35.6321C36.0049 35.6321 33.341 32.7341 33.035 29.6381V29.0981H35.969C36.149 31.2581 37.751 33.2201 41.657 33.2201C45.581 33.2201 47.165 31.2041 47.165 27.4061V25.1021H46.805C45.923 26.4161 44.213 27.8381 40.937 27.8381C36.203 27.8381 32.549 24.7421 32.549 18.5501ZM35.7529 18.5501C35.7529 22.9421 38.075 25.3541 41.513 25.3541C44.951 25.3541 47.2729 22.9421 47.2729 18.5501C47.2729 14.1581 44.951 11.7461 41.513 11.7461C38.075 11.7461 35.7529 14.1581 35.7529 18.5501ZM54.8996 28.0001V9.65808H57.9776V12.2501H58.3376C59.1116 10.6841 60.6235 9.11808 64.3855 9.49608V12.2321C60.5875 11.8361 58.0676 13.1681 58.0676 17.7761V28.0001H54.8996ZM69.5358 14.9501H66.6018V14.4101C66.9798 11.2061 69.9138 9.22608 74.3238 9.22608C78.7338 9.22608 81.6318 11.2061 81.6318 15.7781V24.2741C81.6318 25.2101 82.0818 25.6781 83.0178 25.6781H84.0438V28.0001H82.4959C80.2819 28.0001 79.2199 26.8661 79.1119 25.1561H78.7519C77.7979 26.9201 76.0159 28.3961 72.3619 28.3961C68.4198 28.3961 65.6659 26.1821 65.6659 22.8881C65.6659 19.2881 68.4739 17.7941 72.0379 17.4521L76.2858 17.0561C77.7978 16.9121 78.6079 16.4981 78.6079 15.0941C78.6079 12.7541 77.0418 11.5841 74.2698 11.5841C71.4978 11.5841 69.6438 12.7181 69.5358 14.9501ZM68.7978 22.7801C68.7978 24.7421 70.4358 26.0381 72.8658 26.0381C75.7818 26.0381 78.6259 24.3281 78.6259 19.9001V18.6761H78.2659C77.7079 19.0181 77.1678 19.2161 75.5478 19.3781L72.7578 19.6481C70.2378 19.9181 68.7978 20.7821 68.7978 22.7801ZM103.444 2.08008V28.0001H100.366V25.3901H100.006C99.1597 26.8661 97.3417 28.4141 93.8676 28.4141C89.0976 28.4141 85.4437 25.1741 85.4437 18.8381C85.4437 12.4841 89.0976 9.24408 93.8676 9.24408C97.3417 9.24408 99.1057 10.7921 99.9156 12.1421H100.276V2.08008H103.444ZM100.384 18.8381C100.384 14.2661 98.0077 11.7461 94.5157 11.7461C91.0237 11.7461 88.6476 14.2661 88.6476 18.8381C88.6476 23.3921 91.0237 25.9121 94.5157 25.9121C98.0077 25.9121 100.384 23.3921 100.384 18.8381ZM107.951 6.32808V2.54808H111.209V6.32808H107.951ZM108.005 28.0001V9.65808H111.173V28.0001H108.005ZM114.625 18.8201C114.625 12.5921 118.027 9.22608 123.409 9.22608C128.827 9.22608 131.761 12.6281 131.761 18.0281V19.5041H117.703C117.775 23.5361 119.881 26.0381 123.409 26.0381C126.757 26.0381 128.251 24.0221 128.539 22.2581H131.365V22.7981C130.969 25.0481 128.917 28.4321 123.427 28.4321C118.045 28.4321 114.625 25.0661 114.625 18.8201ZM117.757 17.2001H128.719C128.683 13.8521 126.919 11.6201 123.391 11.6201C119.935 11.6201 118.009 13.8881 117.757 17.2001ZM135.218 28.0001V9.65808H138.296V12.2501H138.656C139.268 11.0801 140.816 9.24408 144.596 9.24408C148.628 9.24408 151.292 11.4581 151.292 15.6701V28.0001H148.124V15.8861C148.124 13.0061 146.414 11.7281 143.84 11.7281C140.906 11.7281 138.386 13.6001 138.386 17.4161V28.0001H135.218ZM153.49 11.9801V9.65808H157.144V4.60008H160.294V9.65808H164.524V11.9801H160.294V23.9501C160.294 24.9761 160.762 25.5521 161.914 25.5521H164.416V28.0001H161.338C158.656 28.0001 157.144 26.6681 157.144 24.0041V11.9801H153.49Z" fill="white" style="fill:white;fill-opacity:1;"/>
<path d="M23.0742 3L13.4982 28.704H9.63818L19.2142 3H23.0742Z" fill="white" style="fill:white;fill-opacity:1;"/>
<path d="M0 29V25H4V29H0Z" fill="white" style="fill:white;fill-opacity:1;"/>
</svg>
