<svg width="95" height="20" viewBox="0 0 95 20" fill="none" xmlns="http://www.w3.org/2000/svg">
<g clip-path="url(#clip0_4452_2845)">
<mask id="mask0_4452_2845" style="mask-type:luminance" maskUnits="userSpaceOnUse" x="1" y="0" width="95" height="20">
<path d="M1 0H96V20H1V0Z" fill="white" style="fill:white;fill-opacity:1;"/>
</mask>
<g mask="url(#mask0_4452_2845)">
<path d="M13.6152 4.1902C12.8078 3.84889 11.9398 3.67374 11.0632 3.6752C10.1577 3.6752 9.29572 3.8582 8.51172 4.1902L10.8552 0.120202C10.8762 0.0840843 10.9063 0.0541072 10.9425 0.0332697C10.9787 0.0124322 11.0197 0.00146484 11.0615 0.00146484C11.1032 0.00146484 11.1443 0.0124322 11.1805 0.0332697C11.2167 0.0541072 11.2467 0.0840843 11.2677 0.120202L13.6127 4.1902H13.6152Z" fill="#E84125" style="fill:#E84125;fill:color(display-p3 0.9098 0.2549 0.1451);fill-opacity:1;"/>
<path d="M7.88809 4.49515C7.11341 4.92542 6.43359 5.5077 5.88939 6.20707C5.34519 6.90643 4.94781 7.70849 4.72109 8.56515L2.97859 4.11615C2.9632 4.0772 2.95835 4.03489 2.96451 3.99346C2.97067 3.95204 2.98762 3.91297 3.01367 3.88018C3.03972 3.84739 3.07394 3.82204 3.1129 3.80668C3.15185 3.79131 3.19417 3.78647 3.23559 3.79265L7.88809 4.49515Z" fill="#E84125" style="fill:#E84125;fill:color(display-p3 0.9098 0.2549 0.1451);fill-opacity:1;"/>
<path d="M5.90076 14.3069L1.16926 12.8429C1.12932 12.8305 1.09333 12.8078 1.06488 12.7771C1.03644 12.7464 1.01652 12.7089 1.00711 12.6681C0.997703 12.6273 0.999137 12.5848 1.01127 12.5448C1.0234 12.5048 1.04581 12.4686 1.07626 12.4399L4.59126 9.17041C4.53273 9.52727 4.5033 9.88829 4.50326 10.2499C4.50326 11.7814 5.02576 13.1904 5.90126 14.3069H5.90076Z" fill="#E84125" style="fill:#E84125;fill:color(display-p3 0.9098 0.2549 0.1451);fill-opacity:1;"/>
<path d="M10.9657 16.8236L6.8172 19.6571C6.78271 19.681 6.74249 19.6953 6.70066 19.6986C6.65883 19.7019 6.61687 19.694 6.57909 19.6757C6.54131 19.6575 6.50905 19.6295 6.48562 19.5947C6.46218 19.5599 6.4484 19.5195 6.4457 19.4776L6.0752 14.5161C6.67871 15.227 7.42736 15.8006 8.27088 16.1983C9.11439 16.5959 10.0332 16.8085 10.9657 16.8216V16.8236Z" fill="#E84125" style="fill:#E84125;fill:color(display-p3 0.9098 0.2549 0.1451);fill-opacity:1;"/>
<path d="M16.0367 14.5366L15.6683 19.4726C15.6633 19.5355 15.6337 19.5938 15.5859 19.635C15.5382 19.6762 15.4762 19.6969 15.4132 19.6926C15.3714 19.6898 15.3311 19.676 15.2962 19.6526L11.1562 16.8236C12.0855 16.8114 13.0015 16.6011 13.843 16.2067C14.6846 15.8123 15.4328 15.243 16.0367 14.5366Z" fill="#E84125" style="fill:#E84125;fill:color(display-p3 0.9098 0.2549 0.1451);fill-opacity:1;"/>
<path d="M20.9542 12.8278L16.2432 14.2848C17.1404 13.1313 17.6263 11.7111 17.6237 10.2498C17.6237 9.87727 17.5917 9.51127 17.5327 9.15527L21.0457 12.4228C21.1807 12.5483 21.1287 12.7733 20.9542 12.8263V12.8278Z" fill="#E84125" style="fill:#E84125;fill:color(display-p3 0.9098 0.2549 0.1451);fill-opacity:1;"/>
<path d="M19.147 4.12495L17.407 8.57295C17.181 7.71727 16.785 6.91587 16.2426 6.21653C15.7002 5.51719 15.0225 4.93424 14.25 4.50245L18.89 3.80095C18.9314 3.79477 18.9737 3.79961 19.0127 3.81498C19.0516 3.83034 19.0859 3.8557 19.1119 3.88848C19.138 3.92127 19.1549 3.96034 19.1611 4.00176C19.1672 4.04319 19.1624 4.0855 19.147 4.12445V4.12495Z" fill="#E84125" style="fill:#E84125;fill:color(display-p3 0.9098 0.2549 0.1451);fill-opacity:1;"/>
<path d="M11.0635 18.2432C10.8331 18.2434 10.6051 18.2891 10.3923 18.3775C10.1796 18.4659 9.98636 18.5954 9.82367 18.7585C9.66097 18.9216 9.53201 19.1152 9.44413 19.3281C9.35626 19.5411 9.3112 19.7693 9.31153 19.9997H12.8175C12.8179 19.7693 12.7728 19.5411 12.6849 19.3281C12.597 19.1152 12.4681 18.9216 12.3054 18.7585C12.1427 18.5954 11.9495 18.4659 11.7367 18.3775C11.524 18.2891 11.2959 18.2434 11.0655 18.2432H11.0635Z" fill="#E84125" style="fill:#E84125;fill:color(display-p3 0.9098 0.2549 0.1451);fill-opacity:1;"/>
<path d="M17.4717 15.3649C17.1816 15.7295 17.0479 16.1941 17.0998 16.6571C17.1518 17.1201 17.3851 17.5436 17.7487 17.8349L19.9337 15.0874C19.7538 14.9436 19.5473 14.8367 19.326 14.7728C19.1048 14.7089 18.8731 14.6893 18.6442 14.7151C18.4154 14.741 18.1939 14.8117 17.9924 14.9233C17.7909 15.0349 17.6135 15.1851 17.4702 15.3654H17.4717V15.3649Z" fill="#E84125" style="fill:#E84125;fill:color(display-p3 0.9098 0.2549 0.1451);fill-opacity:1;"/>
<path d="M18.9079 8.57083C18.9586 8.79559 19.0531 9.00815 19.1861 9.1963C19.3191 9.38445 19.4879 9.5445 19.6828 9.66728C19.8778 9.79005 20.0951 9.87313 20.3222 9.91175C20.5493 9.95037 20.7819 9.94377 21.0064 9.89233L20.2259 6.46533C20.0012 6.51688 19.7888 6.61219 19.601 6.74584C19.4131 6.87949 19.2534 7.04885 19.131 7.24424C19.0086 7.43964 18.9259 7.65723 18.8876 7.8846C18.8494 8.11196 18.8563 8.34464 18.9079 8.56933V8.57083Z" fill="#E84125" style="fill:#E84125;fill:color(display-p3 0.9098 0.2549 0.1451);fill-opacity:1;"/>
<path d="M14.6074 3.19611C14.8149 3.2963 15.0402 3.35454 15.2702 3.36746C15.5003 3.38038 15.7306 3.34774 15.948 3.27141C16.1655 3.19509 16.3657 3.07657 16.5372 2.92267C16.7087 2.76878 16.8481 2.58252 16.9474 2.37461L13.7894 0.849609C13.5872 1.26949 13.5599 1.75247 13.7136 2.19245C13.8672 2.63243 14.1893 2.99341 14.6089 3.19611H14.6069H14.6074Z" fill="#E84125" style="fill:#E84125;fill:color(display-p3 0.9098 0.2549 0.1451);fill-opacity:1;"/>
<path d="M7.44011 3.19611C7.8594 2.99304 8.18101 2.63193 8.33437 2.19202C8.48772 1.75211 8.4603 1.26933 8.25811 0.849609L5.09961 2.37461C5.19918 2.58237 5.33877 2.76843 5.51038 2.92214C5.68199 3.07586 5.88225 3.19419 6.09967 3.27037C6.3171 3.34654 6.54742 3.37906 6.77744 3.36606C7.00746 3.35306 7.23265 3.2948 7.44011 3.19461V3.19611Z" fill="#E84125" style="fill:#E84125;fill:color(display-p3 0.9098 0.2549 0.1451);fill-opacity:1;"/>
<path d="M3.26502 8.57078C3.36864 8.11682 3.28782 7.64029 3.04032 7.24587C2.79281 6.85146 2.39886 6.57142 1.94502 6.46729L1.16602 9.89378C1.39072 9.945 1.62332 9.9514 1.8505 9.9126C2.07768 9.8738 2.29498 9.79057 2.48995 9.66768C2.68492 9.54479 2.85374 9.38465 2.98673 9.19643C3.11973 9.00821 3.2143 8.7956 3.26502 8.57078Z" fill="#E84125" style="fill:#E84125;fill:color(display-p3 0.9098 0.2549 0.1451);fill-opacity:1;"/>
<path d="M2.43652 15.0874L4.62302 17.8349C4.98673 17.5437 5.22013 17.1201 5.27205 16.6571C5.32398 16.1941 5.19019 15.7294 4.90002 15.3649C4.75665 15.1847 4.57913 15.0345 4.37765 14.923C4.17617 14.8115 3.95467 14.7409 3.72584 14.7151C3.49701 14.6893 3.26534 14.7089 3.0441 14.7728C2.82286 14.8367 2.6164 14.9436 2.43652 15.0874Z" fill="#E84125" style="fill:#E84125;fill:color(display-p3 0.9098 0.2549 0.1451);fill-opacity:1;"/>
<path d="M31.0507 5.10693V10.1379H36.9397V5.39843H39.6232V16.6799H36.9402V12.5364H31.0507V16.6799H28.3672V5.83343L31.0507 5.10693ZM44.4817 14.2799H52.6912L51.9662 16.6784H41.7997V5.39643H52.6927L51.9677 7.79543H44.4832V9.84493H51.4592V12.2434H44.4832V14.2794L44.4817 14.2799ZM56.9982 5.39743V14.2799H64.9172L64.1922 16.6784H54.3152V5.39643H56.9982V5.39743ZM68.7612 5.39743V16.6789H66.0782V5.39693H68.7612V5.39743ZM80.0162 5.39743H82.6992V12.2019C82.6992 15.4879 80.0157 16.9259 76.5497 16.9259C73.0842 16.9259 70.5882 15.3844 70.5882 12.2019V5.83343L73.2717 5.10693V12.2014C73.2717 13.8579 74.3732 14.4844 76.6802 14.4844C78.9867 14.4844 80.0162 13.8154 80.0162 12.2014V5.39643V5.39743ZM84.0632 8.82893C84.0632 7.09943 85.4267 5.39743 88.0952 5.39743H95.7532L95.0287 7.79593H88.1237C87.2972 7.79593 86.8902 8.31893 86.8902 8.82743C86.8902 9.33543 87.3112 9.84543 88.1237 9.84543H92.0102C94.6347 9.84543 95.9987 11.5459 95.9987 13.2774C95.9987 15.0084 94.7072 16.6784 92.0102 16.6784H84.0632L84.7882 14.2799H91.9817C92.7947 14.2799 93.2152 13.8004 93.2152 13.2774C93.2152 12.7539 92.8097 12.2304 91.9817 12.2304H88.0952C85.3827 12.2304 84.0632 10.5299 84.0632 8.82893Z" fill="white" style="fill:white;fill-opacity:1;"/>
</g>
</g>
<defs>
<clipPath id="clip0_4452_2845">
<rect width="95" height="20" fill="white" style="fill:white;fill-opacity:1;"/>
</clipPath>
</defs>
</svg>
