<svg width="152" height="32" viewBox="0 0 152 32" fill="none" xmlns="http://www.w3.org/2000/svg">
<g clip-path="url(#clip0_582_18542)">
<path d="M20.5571 25.5663H15.5773V6.43042H20.5571V25.5663Z" fill="white" style="fill:white;fill-opacity:1;"/>
<path d="M12.9515 25.5663H9.41916V6.43042H12.9515V25.5663Z" fill="white" style="fill:white;fill-opacity:1;"/>
<path d="M7.07794 25.5663H4.36865V6.43042H7.07794V25.5663Z" fill="white" style="fill:white;fill-opacity:1;"/>
<path d="M2.127 25.5663H0.189514V6.43042H2.127V25.5663Z" fill="white" style="fill:white;fill-opacity:1;"/>
<path d="M28.0285 6.43042L36.1596 17.5992V6.43042H40.9377V25.5663H36.6944L28.2815 14.2217V25.5663H23.5034V6.43042H28.0252H28.0285Z" fill="white" style="fill:white;fill-opacity:1;"/>
<path d="M43.8872 6.43042H55.6274V10.518H48.7677V13.969H55.3745V18.0565H48.7677V25.5696H43.8872V6.43042Z" fill="white" style="fill:white;fill-opacity:1;"/>
<path d="M57.8627 6.43042H69.8334V10.518H62.7433V13.7419H69.5805V17.8295H62.7433V21.4852H69.8334V25.5728H57.8627V6.43042Z" fill="white" style="fill:white;fill-opacity:1;"/>
<path d="M77.2506 18.7154V25.5696H72.3221V6.43042H78.6502C83.1977 6.43042 86.3232 8.66289 86.3232 12.5713C86.3232 15.1332 84.7733 17.0139 82.3843 17.9766L88.4817 25.5663H82.4836L77.2475 18.7123L77.2506 18.7154ZM77.2506 15.0085H78.6213C80.2738 15.0085 81.2634 14.1193 81.2634 12.7248C81.2634 11.3303 80.2738 10.4668 78.6213 10.4668H77.2506V15.0085Z" fill="white" style="fill:white;fill-opacity:1;"/>
<path d="M89.17 6.43042H101.138V10.518H94.0474V13.7419H100.885V17.8295H94.0474V21.4852H101.138V25.5728H89.17V6.43042Z" fill="white" style="fill:white;fill-opacity:1;"/>
<path d="M108.154 6.43042L116.285 17.5992V6.43042H121.063V25.5663H116.82L108.407 14.2217V25.5663H103.629V6.43042H108.151H108.154Z" fill="white" style="fill:white;fill-opacity:1;"/>
<path d="M133.236 21.2037C135.116 21.2037 136.641 20.4424 137.557 19.4509V24.9586C136.234 25.5662 134.684 25.8733 133.133 25.8733C127.542 25.8733 123.046 21.4308 123.046 15.9999C123.046 10.569 127.542 6.12646 133.133 6.12646C134.684 6.12646 136.234 6.4559 137.557 7.0412V12.5488C136.641 11.5605 135.116 10.7961 133.236 10.7961C130.213 10.7961 128.026 13.003 128.026 15.9999C128.026 18.9967 130.21 21.2037 133.236 21.2037Z" fill="white" style="fill:white;fill-opacity:1;"/>
<path d="M139.843 6.43042H151.81V10.518H144.72V13.7419H151.558V17.8295H144.72V21.4852H151.81V25.5728H139.843V6.43042Z" fill="white" style="fill:white;fill-opacity:1;"/>
</g>
<defs>
<clipPath id="clip0_582_18542">
<rect width="152" height="20" fill="white" style="fill:white;fill-opacity:1;" transform="translate(0 6)"/>
</clipPath>
</defs>
</svg>
