<svg width="136" height="40" viewBox="0 0 136 40" fill="none" xmlns="http://www.w3.org/2000/svg">
<g clip-path="url(#clip0_582_18400)">
<path d="M46.1953 25.2854H50.6831V29.9996H46.1953V25.2854Z" fill="white" style="fill:white;fill-opacity:1;"/>
<path d="M73.0801 10C76.3173 10 78.9545 12.7721 78.9545 16.1708V29.9982H74.4667V16.1708C74.4667 15.3719 73.8406 14.7142 73.0801 14.7142H59.3446C58.5842 14.7142 57.958 15.3719 57.958 16.1708V29.9982H53.4702V16.1708C53.4702 12.7702 56.1074 10 59.3446 10H73.0801Z" fill="white" style="fill:white;fill-opacity:1;"/>
<path d="M107.228 10V14.7142H87.6179C86.8574 14.7142 86.2312 15.3719 86.2312 16.1708V17.6566H81.7434V16.1708C81.7434 12.7702 84.3807 10 87.6179 10H107.228ZM87.6179 17.6566H107.228V22.3415H87.6179C86.8574 22.3415 86.2312 23.0267 86.2312 23.8274C86.2312 24.6281 86.8574 25.284 87.6179 25.284H107.228V29.9982H87.6179C84.3807 29.9982 81.7434 27.2261 81.7434 23.8274C81.7434 20.4012 84.3807 17.6566 87.6179 17.6566Z" fill="white" style="fill:white;fill-opacity:1;"/>
<path d="M124.879 30H120.391V16.1708C120.391 15.3719 119.765 14.7142 119.004 14.7142H109.893V10H119.004C122.104 10 124.661 12.5431 124.853 15.7713H124.879V30ZM124.879 14.7142V10H135.377V14.7142H124.879Z" fill="white" style="fill:white;fill-opacity:1;"/>
<path d="M31.0034 10H4.86499L11.3935 14.7142H31.0034C31.7656 14.7142 32.39 15.3701 32.39 16.1708V19.6885L36.8778 22.9296V16.1708C36.8778 12.7776 34.2353 10 31.0034 10Z" fill="white" style="fill:white;fill-opacity:1;"/>
<path d="M17.2697 30H43.4081L36.8796 25.2858H17.2697C16.5093 25.2858 15.8831 24.628 15.8831 23.8292V20.3114L11.3953 17.0703V23.8274C11.3936 27.2279 14.0325 30 17.2697 30Z" fill="white" style="fill:white;fill-opacity:1;"/>
<path d="M4.86499 17.0703H0.377197V29.9981H4.86499V17.0703Z" fill="white" style="fill:white;fill-opacity:1;"/>
<path d="M0.377197 10V14.0399L4.70627 17.1656L4.86499 17.0703V10H0.377197Z" fill="white" style="fill:white;fill-opacity:1;"/>
</g>
<defs>
<clipPath id="clip0_582_18400">
<rect width="135" height="20" fill="white" style="fill:white;fill-opacity:1;" transform="translate(0.377197 10)"/>
</clipPath>
</defs>
</svg>
