<svg width="89" height="28" viewBox="0 0 89 28" fill="none" xmlns="http://www.w3.org/2000/svg">
<g clip-path="url(#clip0_1714_6258)">
<mask id="mask0_1714_6258" style="mask-type:luminance" maskUnits="userSpaceOnUse" x="0" y="0" width="73" height="28">
<path d="M72.4655 0H0V28H72.4655V0Z" fill="white" style="fill:white;fill-opacity:1;"/>
</mask>
<g mask="url(#mask0_1714_6258)">
<path d="M6.80408 6.71651H7.82409V22.2419C7.82409 25.6795 5.14829 27.999 0 27.999V24.7345C2.21059 24.7345 3.31502 23.8182 3.31502 21.9552V6.71651H6.80408ZM3.80953 4.19512C3.57471 3.96955 3.38812 3.7 3.2607 3.40234C3.1333 3.10467 3.06765 2.78491 3.06765 2.46188C3.06765 2.13885 3.1333 1.81907 3.2607 1.52141C3.38812 1.22374 3.57471 0.954188 3.80953 0.728627C4.03857 0.49739 4.31229 0.313627 4.61456 0.188156C4.91683 0.0626861 5.24154 -0.00195312 5.56956 -0.00195312C5.89759 -0.00195312 6.22229 0.0626861 6.52456 0.188156C6.82683 0.313627 7.10054 0.49739 7.32959 0.728627C7.5644 0.954188 7.75102 1.22374 7.87843 1.52141C8.00583 1.81907 8.07147 2.13885 8.07147 2.46188C8.07147 2.78491 8.00583 3.10467 7.87843 3.40234C7.75102 3.7 7.5644 3.96955 7.32959 4.19512C7.10054 4.42636 6.82683 4.61013 6.52456 4.73559C6.22229 4.86106 5.89759 4.9257 5.56956 4.9257C5.24154 4.9257 4.91683 4.86106 4.61456 4.73559C4.31229 4.61013 4.03857 4.42636 3.80953 4.19512Z" fill="#F9F7F4" style="fill:#F9F7F4;fill:color(display-p3 0.9765 0.9686 0.9569);fill-opacity:1;"/>
<path d="M20.8791 6.71753H25.3882V21.4115H20.8791V19.2634C20.1965 20.0445 19.3475 20.6679 18.3925 21.0894C17.4374 21.5108 16.3999 21.7198 15.3535 21.7017C11.9782 21.7017 9.73828 19.6401 9.73828 15.7732V6.72092H14.249V14.0832C14.249 16.6283 15.2673 17.9212 17.3333 17.9212C19.3112 17.9212 20.8809 16.4026 20.8809 13.3943L20.8791 6.71753Z" fill="#F9F7F4" style="fill:#F9F7F4;fill:color(display-p3 0.9765 0.9686 0.9569);fill-opacity:1;"/>
<path d="M53.521 12.3694V21.4198H49.0136V13.9151C49.0136 11.4514 48.0533 10.2201 46.1327 10.2212C44.272 10.2212 42.6713 11.767 42.6713 14.7466V21.4198H38.1622V13.9151C38.1622 11.4514 37.2025 10.2201 35.2831 10.2212C33.4223 10.2212 31.8216 11.767 31.8216 14.7466V21.4198H27.3125V6.7259H31.8216V8.84516C33.3051 7.24171 35.0505 6.43914 37.1164 6.43914C39.7335 6.43914 41.4238 7.44193 42.206 9.44751C43.8074 7.43628 45.7273 6.43066 47.966 6.43066C51.4276 6.43066 53.521 8.26316 53.521 12.3694Z" fill="#F9F7F4" style="fill:#F9F7F4;fill:color(display-p3 0.9765 0.9686 0.9569);fill-opacity:1;"/>
<path d="M70.2842 8.43623C71.7384 9.8106 72.4655 11.6719 72.4655 14.0508C72.4655 16.4297 71.7384 18.2927 70.2842 19.6366C68.83 21.0109 66.9967 21.6982 64.7568 21.6982C62.7789 21.6982 61.1788 21.068 59.9566 19.8079V27.7149H55.4492V6.7174H59.9566V8.29709C61.1788 7.03809 62.7789 6.40802 64.7568 6.40689C66.9967 6.4018 68.83 7.08899 70.2842 8.43623ZM67.7532 14.0508C67.7532 11.4158 66.0956 9.66807 63.8558 9.66807C61.6451 9.66807 59.9566 11.3292 59.9566 14.0508C59.9566 16.7724 61.6451 18.4336 63.8558 18.4336C66.0956 18.4336 67.7532 16.6859 67.7532 14.0508Z" fill="#F9F7F4" style="fill:#F9F7F4;fill:color(display-p3 0.9765 0.9686 0.9569);fill-opacity:1;"/>
</g>
<path d="M88.4582 17.3502V20.8203H74.3633V17.3502H88.4582Z" fill="#1CE7C2" style="fill:#1CE7C2;fill:color(display-p3 0.1098 0.9059 0.7608);fill-opacity:1;"/>
</g>
<defs>
<clipPath id="clip0_1714_6258">
<rect width="89" height="28" fill="white" style="fill:white;fill-opacity:1;"/>
</clipPath>
</defs>
</svg>
