<svg xmlns="http://www.w3.org/2000/svg" width="129" height="40" fill="none"><path fill="#fff" d="M80.999 26.92h-.215a.39.39 0 0 1-.391-.388V13.677a.39.39 0 0 1 .39-.388H81a.39.39 0 0 1 .39.388v12.855a.39.39 0 0 1-.39.388ZM54.553 26.92h.216a.39.39 0 0 0 .39-.388V13.677a.39.39 0 0 0-.39-.388h-.215a.39.39 0 0 0-.391.388v12.855a.39.39 0 0 0 .39.388ZM71.421 13.774v-.038a.577.577 0 0 0-.156-.33c-.02-.02-.059-.04-.078-.059h-.02c-.02-.02-.059-.02-.078-.038h-.02c-.02 0-.039-.02-.078-.02h-.215c-.02 0-.058.02-.078.02 0 0-.02 0-.02.019-.02.02-.039.02-.058.039-.02 0-.02.02-.04.02-.019.019-.038.019-.038.038-.02.02-.02.02-.02.039l-.04.039-7.68 11.96-3.85-5.98a.511.511 0 0 0-.704-.155.504.504 0 0 0-.157.699l4.28 6.66c.02.02.02.039.04.039 0 .02.02.02.02.039l.038.039.04.039c.019 0 .019.019.038.019.02 0 .04.02.04.02.02 0 .039.019.058.019.02 0 .02 0 .04.02h.195c.02 0 .039 0 .058-.02.02 0 .02 0 .04-.02.019 0 .039-.02.058-.038 0 0 .02 0 .02-.02.02-.02.039-.02.058-.039l.02-.02.039-.038.039-.039 7.173-11.165v10.893c0 .272.235.505.508.505a.516.516 0 0 0 .509-.505l.02-12.64ZM103.593 22.085h.235a.39.39 0 0 0 .391-.388v-8.04a.39.39 0 0 0-.391-.387h-.235a.39.39 0 0 0-.391.388v8.02c0 .232.176.407.391.407ZM104.082 26.066 91.358 13.425a.522.522 0 0 0-.724 0 .529.529 0 0 0-.156.369v12.621c0 .272.235.505.508.505a.516.516 0 0 0 .508-.505V14.998l11.845 11.767a.521.521 0 0 0 .723 0 .475.475 0 0 0 .02-.7ZM47.028 26.182l-2.52-4.855a.498.498 0 0 0-.685-.213.492.492 0 0 0-.215.68l.195.388H36.24l4.242-8.175a.492.492 0 0 0-.215-.68.493.493 0 0 0-.684.214l-6.548 12.621a.492.492 0 0 0 .215.68.498.498 0 0 0 .684-.214l1.779-3.437h8.6l1.778 3.437c.137.253.43.35.684.214.294-.117.391-.408.254-.66ZM25.685 26.008l-10.125-6.7v-5.534a.516.516 0 0 0-.508-.504.516.516 0 0 0-.508.504v12.622c0 .272.234.505.508.505a.516.516 0 0 0 .508-.505v-5.884l9.558 6.33a.507.507 0 0 0 .704-.136v-.019a.48.48 0 0 0-.137-.68ZM19.118 17.793l.117.175a.407.407 0 0 0 .547.116l5.903-3.922a.401.401 0 0 0 .117-.544l-.117-.174a.407.407 0 0 0-.547-.117l-5.903 3.923a.397.397 0 0 0-.117.543ZM127.79 17.91a.52.52 0 0 0-.136.466c.097.466.156.97.156 1.534 0 1.087-.195 2.02-.586 2.796a5.424 5.424 0 0 1-1.623 1.942 6.89 6.89 0 0 1-2.443 1.126c-.938.252-1.935.369-3.029.369-1.095 0-2.111-.117-3.049-.37-.939-.252-1.76-.62-2.444-1.125-.703-.505-1.231-1.165-1.622-1.942-.391-.777-.586-1.728-.586-2.796 0-.719.097-1.379.273-1.962.176-.582.43-1.106.763-1.572a4.992 4.992 0 0 1 1.192-1.204c.469-.33.997-.622 1.564-.855.566-.233 1.192-.388 1.856-.504a11.96 11.96 0 0 1 2.072-.156c1.075 0 2.092.117 3.03.37.039 0 .078.019.097.019a.35.35 0 0 0 .352-.098l.118-.116c.195-.194.117-.544-.157-.602a13.752 13.752 0 0 0-3.42-.408c-.821 0-1.603.059-2.346.175-.742.117-1.446.31-2.091.563a8.462 8.462 0 0 0-1.759.952 5.957 5.957 0 0 0-1.349 1.359 6.087 6.087 0 0 0-.86 1.786c-.215.66-.313 1.398-.313 2.214 0 1.223.215 2.291.665 3.165.45.893 1.055 1.631 1.857 2.213.801.583 1.72 1.01 2.775 1.282a13.92 13.92 0 0 0 3.44.408c1.232 0 2.365-.136 3.421-.408 1.055-.272 1.974-.699 2.756-1.281a6.172 6.172 0 0 0 1.837-2.214c.449-.893.664-1.942.664-3.165a8.3 8.3 0 0 0-.175-1.748c-.137-.35-.606-.505-.9-.213Z"/><path fill="#fff" d="M126.344 15.696a.506.506 0 0 0 .508-.505.506.506 0 0 0-.508-.505.506.506 0 0 0-.508.505c0 .28.227.505.508.505Z"/><path fill="url(#a)" d="M35.81 30.862a.511.511 0 0 0-.392.194c-3.772 5.126-9.811 8.02-16.183 7.767C9.365 38.434 1.33 30.453.96 20.648.764 15.444 2.64 10.531 6.276 6.784 9.912 3.036 14.778.959 20.016.959c6.06 0 11.806 2.912 15.403 7.786a.511.511 0 0 0 .39.194.486.486 0 0 0 .43-.252.52.52 0 0 0-.039-.505A20.141 20.141 0 0 0 19.45.007C14.29.143 9.423 2.26 5.768 5.95 2.133 9.639.08 14.473.002 19.619c-.078 5.36 1.974 10.427 5.766 14.252a19.977 19.977 0 0 0 14.268 5.942c6.352 0 12.412-3.049 16.184-8.175a.475.475 0 0 0 .039-.505.497.497 0 0 0-.45-.271Z"/><defs><radialGradient id="a" cx="0" cy="0" r="1" gradientTransform="matrix(23.99999 -33.49997 70.80397 50.72525 12 41.5)" gradientUnits="userSpaceOnUse"><stop stop-color="#fff"/><stop offset="1" stop-color="#fff" stop-opacity="0"/></radialGradient></defs></svg>