<svg xmlns="http://www.w3.org/2000/svg" width="125" height="34" fill="none"><path fill="#F2F2F2" d="M9.514 0a9.517 9.517 0 0 0-3.656.75 9.558 9.558 0 0 0-3.092 2.1A9.617 9.617 0 0 0 .71 5.98 9.659 9.659 0 0 0 0 9.663v3.191h7.73V8.23a1.66 1.66 0 0 1 .481-1.17 1.643 1.643 0 0 1 1.163-.483h.279a1.636 1.636 0 0 1 1.163.484 1.655 1.655 0 0 1 .482 1.17v12.395a7.695 7.695 0 0 0 5.466-2.276 7.776 7.776 0 0 0 1.675-2.522 7.81 7.81 0 0 0 .588-2.974V9.663a9.707 9.707 0 0 0-2.786-6.832A9.432 9.432 0 0 0 13.16.735 9.391 9.391 0 0 0 9.513 0Z"/><path fill="#F2F2F2" d="M9.653 26.9h-.278a1.638 1.638 0 0 1-1.52-1.02 1.661 1.661 0 0 1-.125-.633V12.852a7.693 7.693 0 0 0-5.466 2.276A7.807 7.807 0 0 0 0 20.624v3.146a9.612 9.612 0 0 0 .697 3.691 9.57 9.57 0 0 0 2.055 3.137 9.513 9.513 0 0 0 3.099 2.099 9.47 9.47 0 0 0 10.425-2.1 9.57 9.57 0 0 0 2.056-3.136 9.61 9.61 0 0 0 .696-3.69v-3.148h-7.73v4.624a1.662 1.662 0 0 1-.482 1.17 1.642 1.642 0 0 1-1.163.484ZM32.24 9.813h-2.709V23.63h7.952v-2.605H32.24V9.813ZM46.159 14.93a3.856 3.856 0 0 0-3.2-1.44A4.426 4.426 0 0 0 39.59 15a5.576 5.576 0 0 0-1.404 3.701c0 1.366.5 2.683 1.404 3.702a4.449 4.449 0 0 0 3.368 1.51c1.374 0 2.44-.48 3.2-1.441v1.165h2.533v-9.87h-2.533v1.164Zm-.775 5.775a2.649 2.649 0 0 1-1.954.78 2.603 2.603 0 0 1-1.944-.78 3.002 3.002 0 0 1 0-4.008 2.619 2.619 0 0 1 1.944-.78 2.641 2.641 0 0 1 1.954.78 2.975 2.975 0 0 1 0 4.008ZM55.22 20.392l-2.561-6.634h-2.768l4.023 9.555a3.04 3.04 0 0 1-.952 1.46 2.538 2.538 0 0 1-1.62.435v2.37a4.643 4.643 0 0 0 3.147-.86c.843-.64 1.52-1.664 2.03-3.073l3.58-9.886h-2.71l-2.17 6.633ZM65.582 13.488a4.971 4.971 0 0 0-3.73 1.49 5.472 5.472 0 0 0-1.453 3.73 5.47 5.47 0 0 0 1.472 3.722c.982.987 2.284 1.48 3.907 1.48 1.884 0 3.311-.703 4.28-2.111l-2.042-1.185a2.59 2.59 0 0 1-2.199.987c-1.505 0-2.428-.618-2.768-1.855h7.402c.063-.346.096-.696.098-1.047a5.227 5.227 0 0 0-1.404-3.711 4.681 4.681 0 0 0-3.563-1.5ZM63.01 17.77a2.5 2.5 0 0 1 .883-1.47 2.656 2.656 0 0 1 1.688-.524 2.552 2.552 0 0 1 1.542.494c.476.369.795.904.893 1.5H63.01ZM74.845 15.457V13.76h-2.532v9.87h2.532v-4.717c0-.948.305-1.625.913-2.034a2.972 2.972 0 0 1 2.072-.473v-2.842a3.549 3.549 0 0 0-1.816.473c-.546.319-.96.823-1.169 1.421ZM90.177 11.95V9.812h-9.009v2.606h5.577l-5.722 9.037v2.176h9.264v-2.606h-5.831l5.721-9.075ZM96.27 13.488a4.972 4.972 0 0 0-3.73 1.49 5.47 5.47 0 0 0-1.454 3.73 5.47 5.47 0 0 0 1.473 3.722c.982.987 2.284 1.48 3.907 1.48 1.884 0 3.31-.703 4.28-2.111l-2.042-1.185a2.592 2.592 0 0 1-2.199.987c-1.505 0-2.428-.618-2.768-1.855h7.402c.063-.346.096-.696.098-1.047a5.23 5.23 0 0 0-1.404-3.711 4.68 4.68 0 0 0-3.564-1.5Zm-2.572 4.283c.112-.58.425-1.1.883-1.47a2.654 2.654 0 0 1 1.688-.524 2.548 2.548 0 0 1 1.542.494c.476.369.795.904.893 1.5h-5.006ZM105.533 15.457V13.76H103v9.87h2.533v-4.717c0-.948.304-1.625.913-2.034a2.97 2.97 0 0 1 2.071-.473v-2.842a3.548 3.548 0 0 0-1.816.473 2.65 2.65 0 0 0-1.168 1.421ZM114.293 13.486a5.128 5.128 0 0 0-3.247 1.206 5.197 5.197 0 0 0-1.217 6.44 5.158 5.158 0 0 0 2.58 2.32 5.123 5.123 0 0 0 3.459.152 5.152 5.152 0 0 0 2.771-2.086 5.196 5.196 0 0 0-.655-6.522 4.98 4.98 0 0 0-3.691-1.51Zm1.904 7.166a2.576 2.576 0 0 1-1.904.769 2.54 2.54 0 0 1-1.896-.77 2.903 2.903 0 0 1 0-3.908 2.552 2.552 0 0 1 1.896-.77 2.572 2.572 0 0 1 1.904.77 2.875 2.875 0 0 1 0 3.909ZM124.809 20.594h-3.082v3.04h3.082v-3.04Z"/><path fill="#F2F2F2" d="M124.809 20.594h-3.082v3.04h3.082v-3.04Z"/></svg>