<svg width="107" height="21" viewBox="0 0 107 21" fill="none" xmlns="http://www.w3.org/2000/svg">
<g clip-path="url(#clip0_4452_2708)">
<path d="M10.2419 11.2141L2.02647 16.5856H6.29559L12.7954 12.3363V18.3797L15.5384 16.5856V11.2141H23.7538L27.3338 8.87309H18.0901L26.3055 3.50165H22.0373L15.5375 7.75095V1.70752L12.7945 3.50165V8.87309H4.57906L1 11.2141H10.2419ZM51.0334 8.2303C51.5892 7.21956 52.593 6.65987 53.955 6.65987C56.2855 6.65987 57.2349 8.17552 57.2349 10.4855V16.5865H55.1021V11.0096C55.1021 9.71035 54.9235 8.41017 53.274 8.41017C51.6255 8.41017 51.0343 9.67382 51.0343 11.4241V16.5865H48.9006V3.84222L51.0334 3.50165V8.2303ZM100.747 10.774L104.313 6.87626H106.877L103.184 10.8653L107.288 16.5865H104.797L101.768 12.381L100.747 13.4821V16.5865H98.6139V3.50165H100.747V10.774ZM96.9618 9.00639C97.2846 9.00639 97.6255 9.02465 97.9837 9.06026V6.89452C97.7991 6.87336 97.6136 6.86118 97.4279 6.858C96.2636 6.87626 95.3314 7.52635 94.8109 8.60922V6.87535H92.7144V16.5856H94.8472V11.4953C94.8472 9.54691 95.6179 9.00548 96.9618 9.00548V9.00639Z" fill="white" style="fill:white;fill-opacity:1;"/>
<path fill-rule="evenodd" clip-rule="evenodd" d="M89.2726 8.17532C88.6986 7.21936 87.6948 6.65967 86.4044 6.65967C83.9851 6.65967 82.2106 8.60902 82.2106 11.7307C82.2106 14.8533 83.9851 16.82 86.4044 16.82C87.6957 16.82 88.6986 16.2612 89.2726 15.3044V16.5854H91.4053V6.87606H89.2726V8.17532ZM86.8705 8.40997C88.2506 8.40997 89.3623 9.49284 89.3623 11.7307C89.3623 13.9686 88.2506 15.0697 86.8705 15.0697C85.2927 15.0697 84.4331 13.8243 84.4331 11.7307C84.4331 9.6371 85.2936 8.40997 86.8705 8.40997ZM77.5996 6.65967C76.3092 6.65967 75.3054 7.21936 74.7314 8.17532V6.87606H72.5996V19.844L74.7324 19.5044V15.3044C75.3063 16.2612 76.3102 16.82 77.6005 16.82C79.9663 16.82 81.7409 14.8533 81.7409 11.7307C81.7409 8.64462 79.9654 6.65967 77.5996 6.65967ZM74.6417 11.7307C74.6417 13.9686 75.7171 15.0697 77.1335 15.0697C78.6388 15.0697 79.5174 13.8243 79.5174 11.7307C79.5174 9.65536 78.6388 8.40997 77.1326 8.40997C75.718 8.40997 74.6417 9.49284 74.6417 11.7307Z" fill="white" style="fill:white;fill-opacity:1;"/>
<path d="M71.6232 9.52921C71.2288 7.57986 69.5077 6.65951 67.6261 6.65951C65.5469 6.65951 63.7007 7.76064 63.7007 9.47442C63.7007 11.2612 64.9729 11.9652 66.6042 12.3085L68.056 12.597C69.0063 12.7952 69.7226 13.1385 69.7226 13.9328C69.7226 14.7272 68.9165 15.1956 67.7875 15.1956C66.5144 15.1956 65.8153 14.6368 65.6185 13.6251H63.5393C63.7723 15.4485 65.3501 16.8208 67.7159 16.8208C69.9022 16.8208 71.8019 15.7014 71.8019 13.6799C71.8019 11.7853 70.3147 11.1718 68.3606 10.7919L66.9986 10.5217C66.1562 10.3592 65.7083 10.0168 65.7083 9.36668C65.7083 8.7166 66.5688 8.30208 67.501 8.30208C68.5755 8.30208 69.3826 8.64447 69.6156 9.52921H71.6232ZM57.8828 8.42716L57.1973 6.8759H59.0435V4.31299H61.1762V6.8759H63.1122V8.42808H61.1762V13.7164C61.1762 14.7089 61.4093 14.9436 62.3233 14.9436H62.9725L63.698 16.5852H61.5172C59.4561 16.5852 59.0435 16.0264 59.0435 14.0406V8.42808H57.8828V8.42716Z" fill="white" style="fill:white;fill-opacity:1;"/>
<path fill-rule="evenodd" clip-rule="evenodd" d="M47.4145 15.6111C47.4145 17.1816 47.02 18.3183 46.2493 19.0405C45.4785 19.7618 44.3314 20.0869 42.8262 20.0869C40.7106 20.0869 39.0449 19.2387 38.7039 17.1095H40.8186C41.0153 18.0298 41.5893 18.3905 42.8797 18.3905C43.83 18.3905 44.4393 18.1202 44.7975 17.6874C45.1557 17.2711 45.2817 16.6758 45.2817 16.0439V14.9072C44.7077 15.8641 43.7039 16.4228 42.4136 16.4228C40.1194 16.4228 38.2197 14.5648 38.2197 11.5326C38.2197 8.50128 40.1194 6.65967 42.4136 6.65967C43.7039 6.65967 44.7077 7.21936 45.2817 8.17532V6.87606H47.4145V15.6111ZM45.3715 11.5326C45.3715 9.36684 44.2598 8.37345 42.8797 8.37345C41.446 8.37345 40.4422 9.58323 40.4422 11.5326C40.4422 13.5541 41.446 14.7264 42.8797 14.7264C44.2598 14.7264 45.3715 13.7166 45.3715 11.5326Z" fill="white" style="fill:white;fill-opacity:1;"/>
<path d="M33.5809 16.5863V3.50146H31.4473V16.5854H33.58L33.5809 16.5863ZM37.199 3.50146H35.068V5.6672H37.2008V3.50146H37.199ZM35.0671 6.87607H37.1999V16.5863H35.0671V6.87607Z" fill="white" style="fill:white;fill-opacity:1;"/>
</g>
<defs>
<clipPath id="clip0_4452_2708">
<rect width="107" height="21" fill="white" style="fill:white;fill-opacity:1;"/>
</clipPath>
</defs>
</svg>
