<svg width="144" height="24" viewBox="0 0 144 24" fill="none" xmlns="http://www.w3.org/2000/svg">
<path d="M55.5252 8.10135C57.2048 8.10143 58.5952 8.39048 59.6962 8.9685C60.816 9.52732 61.6555 10.3948 62.2153 11.5701C62.7752 12.7262 63.0556 14.2198 63.0556 16.0503C63.0556 17.8615 62.7752 19.3558 62.2153 20.5312C61.6555 21.7064 60.8152 22.5833 59.6962 23.1614C58.5952 23.7202 57.2048 23.9999 55.5252 24C53.8643 24 52.4732 23.7202 51.3534 23.1614C50.2337 22.5833 49.3938 21.7066 48.8338 20.5312C48.2739 19.3558 47.9935 17.8617 47.9935 16.0503C47.9935 14.2198 48.2739 12.7262 48.8338 11.5701C49.3938 10.3948 50.2337 9.52732 51.3534 8.9685C52.4732 8.39048 53.8643 8.10135 55.5252 8.10135ZM91.3555 10.2114H91.5283C91.8372 9.7491 92.2145 9.3639 92.6587 9.05565C93.1028 8.72827 93.6139 8.48685 94.1933 8.3328C94.7727 8.17868 95.41 8.10135 96.1052 8.10135C97.2446 8.10135 98.2494 8.38117 99.1181 8.93992C100.006 9.49875 100.701 10.3662 101.203 11.5415C101.705 12.6976 101.956 14.1912 101.956 16.0217C101.956 17.8715 101.705 19.3844 101.203 20.5598C100.72 21.7351 100.025 22.6025 99.1181 23.1614C98.2298 23.7202 97.1574 23.9999 95.9023 24C94.9178 24 94.0197 23.8067 93.208 23.4214C92.3979 23.0168 91.741 22.4197 91.239 21.6299H91.0361L90.7467 23.6528H87.821V2.75393H91.3555V10.2114ZM110.433 8.10135C111.824 8.10135 112.963 8.29387 113.851 8.67922C114.759 9.06458 115.436 9.61418 115.879 10.3271C116.323 11.0401 116.545 11.9075 116.545 12.9287V20.0977C116.545 20.4635 116.652 20.7235 116.863 20.8777C117.076 21.0318 117.308 21.1091 117.559 21.1091H118.486V23.5371C118.293 23.6142 118.013 23.7008 117.646 23.7971C117.279 23.9127 116.825 23.9707 116.285 23.9707C115.783 23.9707 115.328 23.8841 114.923 23.7107C114.537 23.5565 114.208 23.3254 113.938 23.0171C113.668 22.7088 113.475 22.3424 113.359 21.9185H113.185C112.857 22.3231 112.461 22.6895 111.997 23.0171C111.554 23.3254 111.022 23.5658 110.404 23.7392C109.806 23.9126 109.111 24 108.319 24C107.895 24 107.402 23.942 106.842 23.8265C106.301 23.7301 105.77 23.5375 105.248 23.2485C104.746 22.9595 104.332 22.5352 104.003 21.9763C103.675 21.3983 103.51 20.6467 103.51 19.7219C103.51 18.6814 103.743 17.8234 104.206 17.1489C104.67 16.4555 105.317 15.9156 106.147 15.5303C106.997 15.1257 108.001 14.8458 109.159 14.6917C110.336 14.5183 111.621 14.4316 113.011 14.4316V13.1887C113.011 12.7456 112.943 12.3504 112.809 12.0037C112.674 11.657 112.423 11.387 112.056 11.1944C111.708 10.9824 111.177 10.8765 110.462 10.8765C109.748 10.8765 109.188 10.9631 108.782 11.1364C108.377 11.3098 108.098 11.522 107.943 11.7722C107.788 12.0227 107.71 12.2833 107.71 12.553V12.9573H104.292C104.274 12.8612 104.263 12.7649 104.263 12.6687V12.3215C104.264 11.4546 104.525 10.703 105.046 10.0672C105.567 9.4314 106.292 8.9496 107.218 8.62208C108.145 8.27528 109.217 8.10135 110.433 8.10135ZM144 23.6528H141.075L140.786 21.6299H140.583C140.1 22.4196 139.443 23.0168 138.613 23.4214C137.802 23.8067 136.904 23.9999 135.919 24C134.683 24 133.612 23.7201 132.704 23.1614C131.797 22.6025 131.092 21.7353 130.59 20.5598C130.106 19.3844 129.866 17.8715 129.866 16.0217C129.866 14.1912 130.117 12.6976 130.619 11.5415C131.121 10.3661 131.816 9.49875 132.704 8.93992C133.593 8.38132 134.597 8.10135 135.717 8.10135C136.412 8.10135 137.049 8.1786 137.628 8.3328C138.208 8.48693 138.72 8.72812 139.164 9.05565C139.608 9.3639 139.985 9.7491 140.293 10.2114H140.467V2.75393H144V23.6528ZM37.2768 20.3862H47.2405V23.6528H33.5109V3.82327H37.2768V20.3862ZM81.4773 8.10135C82.3851 8.10135 83.1863 8.26523 83.8815 8.59275C84.5766 8.92035 85.1267 9.46012 85.5326 10.2114C85.9377 10.9629 86.1406 11.9655 86.1406 13.218V23.6528H82.6068V13.9402C82.6068 13.4201 82.5497 12.9862 82.434 12.6394C82.3175 12.2735 82.1537 11.9942 81.941 11.8016C81.7478 11.5896 81.4968 11.4349 81.1879 11.3386C80.8986 11.2423 80.5792 11.1944 80.232 11.1944C79.6721 11.1944 79.1701 11.3491 78.7259 11.6572C78.2817 11.9655 77.9248 12.3894 77.6542 12.9287C77.4032 13.4682 77.2777 14.0945 77.2777 14.8074V23.6528H73.7439V13.9402C73.7439 13.4201 73.6861 12.9862 73.5703 12.6394C73.4539 12.2735 73.29 11.9942 73.0773 11.8016C72.8842 11.5896 72.6332 11.4349 72.3243 11.3386C72.035 11.2423 71.7155 11.1944 71.3683 11.1944C70.8084 11.1944 70.2966 11.3491 69.8337 11.6572C69.3895 11.9655 69.0318 12.3892 68.7613 12.9287C68.5102 13.4681 68.3847 14.0946 68.3847 14.8074V23.6528H64.851V8.44845H67.806L68.0954 10.4714H68.2983C68.6267 10.0092 69.0032 9.6045 69.4279 9.25785C69.8525 8.89185 70.335 8.61188 70.8761 8.4192C71.436 8.20733 72.0447 8.10135 72.7008 8.10135C73.5891 8.10135 74.3812 8.28457 75.0757 8.65065C75.7708 9.01672 76.312 9.62377 76.6982 10.4714H76.9004C77.2288 10.0091 77.6151 9.60458 78.0593 9.25785C78.5034 8.89178 79.016 8.61188 79.5947 8.4192C80.1741 8.20733 80.8016 8.10135 81.4773 8.10135ZM127.272 8.10135C127.581 8.10135 127.861 8.13067 128.112 8.1885C128.382 8.24617 128.585 8.30362 128.72 8.3613V11.6858H127.649C127.05 11.6858 126.518 11.7725 126.055 11.9458C125.592 12.0999 125.196 12.3506 124.867 12.6973C124.558 13.044 124.327 13.478 124.173 13.9981C124.018 14.5183 123.941 15.1259 123.941 15.8196V23.6528H120.407V8.44845H123.362L123.651 10.8472H123.854C124.047 10.3657 124.279 9.92235 124.549 9.5178C124.839 9.09405 125.206 8.75678 125.65 8.50635C126.094 8.23673 126.635 8.10135 127.272 8.10135ZM11.8272 19.4751H19.515V11.803H12.7681V7.67212H23.6544V23.606H7.68786V4.13085H4.13932V7.67212H6.88124V11.803H0V0H11.8272V19.4751ZM55.5252 10.9922C54.5985 10.9922 53.8447 11.1755 53.2653 11.5415C52.7054 11.8883 52.2898 12.4281 52.02 13.1602C51.769 13.8731 51.6435 14.7692 51.6435 15.8482V16.2532C51.6435 17.3322 51.769 18.2383 52.02 18.9704C52.2898 19.6833 52.7054 20.223 53.2653 20.5891C53.8447 20.9359 54.5985 21.1091 55.5252 21.1091C56.4518 21.1091 57.1951 20.9357 57.755 20.5891C58.3337 20.223 58.75 19.6832 59.001 18.9704C59.2708 18.2383 59.4061 17.332 59.4061 16.2532V15.8482C59.4061 14.7693 59.2708 13.8731 59.001 13.1602C58.75 12.428 58.3337 11.8883 57.755 11.5415C57.1951 11.1755 56.4518 10.9923 55.5252 10.9922ZM113.011 16.8596C111.949 16.8596 110.965 16.9277 110.057 17.0625C109.169 17.1973 108.454 17.4479 107.913 17.814C107.392 18.1801 107.132 18.7005 107.132 19.3748C107.132 19.7215 107.208 20.03 107.363 20.2998C107.537 20.5503 107.789 20.7528 108.116 20.907C108.464 21.0417 108.889 21.1091 109.391 21.1091C109.97 21.1091 110.482 21.0225 110.926 20.8491C111.389 20.6757 111.766 20.4344 112.056 20.1262C112.364 19.818 112.596 19.4421 112.75 18.999C112.924 18.556 113.011 18.074 113.011 17.554V16.8596ZM94.802 11.1364C94.2031 11.1364 93.6815 11.2426 93.2373 11.4544C92.8135 11.6662 92.4557 11.975 92.1664 12.3794C91.8959 12.7841 91.6929 13.2858 91.5577 13.883C91.4224 14.4803 91.3555 15.1547 91.3555 15.906V16.2817C91.3555 17.2837 91.4705 18.1318 91.7027 18.8255C91.9537 19.5191 92.3302 20.0494 92.8315 20.4155C93.3531 20.7816 94.0099 20.9648 94.802 20.9648C95.6708 20.9648 96.3562 20.8009 96.8583 20.4734C97.3791 20.1266 97.7466 19.6061 97.9593 18.9126C98.1907 18.2189 98.3065 17.3415 98.3065 16.2817V15.8774C98.3065 14.7985 98.1907 13.9117 97.9593 13.218C97.7466 12.5051 97.3791 11.9848 96.8583 11.6572C96.3562 11.3104 95.6708 11.1365 94.802 11.1364ZM137.02 11.1364C136.151 11.1364 135.456 11.3105 134.934 11.6572C134.432 11.9848 134.065 12.5054 133.834 13.218C133.621 13.9117 133.515 14.7984 133.515 15.8774V16.2817C133.515 17.3416 133.621 18.2189 133.834 18.9126C134.065 19.6061 134.432 20.1266 134.934 20.4734C135.456 20.801 136.151 20.9648 137.02 20.9648C137.831 20.9648 138.487 20.7816 138.99 20.4155C139.492 20.0494 139.858 19.519 140.09 18.8255C140.341 18.1318 140.467 17.2836 140.467 16.2817V15.906C140.467 15.1547 140.399 14.4803 140.264 13.883C140.129 13.2857 139.916 12.7841 139.627 12.3794C139.356 11.9749 138.999 11.6663 138.555 11.4544C138.13 11.2424 137.619 11.1365 137.02 11.1364Z" fill="white" style="fill:white;fill-opacity:1;"/>
</svg>
