<svg width="156" height="40" viewBox="0 0 156 40" fill="none" xmlns="http://www.w3.org/2000/svg">
<path d="M5.49528 22.5465L7.95816 19.2218C8.11768 19.0066 8.45584 19.0961 8.4913 19.3625C9.24278 25.0052 16.9037 27.0252 20.3074 22.2936L28.1037 11.7694C28.2228 11.6089 28.4773 11.6927 28.4773 11.893V18.0535C28.4773 18.3092 28.3951 18.5585 28.2426 18.7638L23.8768 24.6467C19.3084 31.222 9.11942 30.5331 5.41728 23.5364C5.24997 23.2198 5.28189 22.8348 5.49528 22.5465Z" fill="white" style="fill:white;fill-opacity:1;"/>
<path d="M24.4895 14.3425L22.0124 17.6856C21.8529 17.9008 21.5155 17.8113 21.4793 17.5456C20.7214 11.9234 13.1016 9.90069 9.6859 14.596L5.30316 20.5023L1.97393 25.04C1.85555 25.2019 1.59961 25.1175 1.59961 24.9171V18.7189C1.59961 18.4632 1.68185 18.2147 1.83356 18.0094L5.84339 12.5974C10.1722 5.63717 20.8631 6.22382 24.5703 13.3574C24.7348 13.6734 24.7015 14.0563 24.4895 14.3425Z" fill="white" style="fill:white;fill-opacity:1;"/>
<path d="M36.916 27.0508V8.97119H40.2962V24.1839H49.3787V27.0508H43.1474H36.916Z" fill="white" style="fill:white;fill-opacity:1;"/>
<path d="M56.771 27.516C52.9779 27.516 50.3203 24.9848 50.3203 20.8006C50.3203 16.6682 53.0038 14.0337 56.771 14.0337C60.564 14.0337 63.2474 16.6682 63.2474 20.8006C63.2474 24.9848 60.564 27.516 56.771 27.516ZM56.771 25.0365C58.732 25.0365 60.0478 23.4867 60.0478 20.8006C60.0478 18.0629 58.7061 16.539 56.771 16.539C54.8616 16.539 53.5198 18.0629 53.5198 20.8006C53.5198 23.4867 54.8099 25.0365 56.771 25.0365Z" fill="white" style="fill:white;fill-opacity:1;"/>
<path d="M71.4603 27.516C67.6674 27.516 65.0098 24.9848 65.0098 20.8006C65.0098 16.6682 67.6931 14.0337 71.4603 14.0337C75.2533 14.0337 77.9368 16.6682 77.9368 20.8006C77.9368 24.9848 75.2533 27.516 71.4603 27.516ZM71.4603 25.0365C73.4214 25.0365 74.7373 23.4867 74.7373 20.8006C74.7373 18.0629 73.3955 16.539 71.4603 16.539C69.551 16.539 68.2093 18.0629 68.2093 20.8006C68.2093 23.4867 69.4994 25.0365 71.4603 25.0365Z" fill="white" style="fill:white;fill-opacity:1;"/>
<path d="M80.4492 32.32V14.4469H83.5972V15.0152C83.5972 15.4026 83.5713 15.7383 83.494 16.2549C84.2939 14.9119 85.6356 14.0337 87.6223 14.0337C90.951 14.0337 93.1441 16.8231 93.1441 20.8265C93.1441 24.9073 90.6929 27.516 87.4934 27.516C85.3775 27.516 84.2939 26.612 83.494 25.3206C83.5713 25.8371 83.5972 26.1729 83.5972 26.5345V32.32H80.4492ZM86.7193 25.0365C88.6545 25.0365 89.9446 23.3059 89.9446 20.7749C89.9446 18.2953 88.7319 16.539 86.7193 16.539C84.8356 16.539 83.4681 18.1662 83.4681 20.7749C83.4681 23.3059 84.8099 25.0365 86.7193 25.0365Z" fill="white" style="fill:white;fill-opacity:1;"/>
<path d="M100.648 27.516C97.0872 27.516 94.8939 25.6563 94.6875 22.712H97.887C97.9645 24.2099 98.8933 25.1656 100.571 25.1656C101.99 25.1656 102.893 24.4941 102.893 23.5384C102.893 22.6861 102.17 22.2987 100.828 22.0405L99.3061 21.7305C96.6742 21.2139 95.1777 19.9742 95.1777 17.8821C95.1777 15.6867 97.2419 14.0337 100.338 14.0337C103.718 14.0337 105.834 15.79 105.912 18.4245H102.764C102.66 17.1847 101.757 16.384 100.338 16.384C99.1771 16.384 98.2741 16.849 98.2741 17.7529C98.2741 18.5019 98.7643 18.8894 100.364 19.1993L101.886 19.5092C104.363 20 105.989 21.1365 105.989 23.3576C105.989 25.7597 103.899 27.516 100.648 27.516Z" fill="white" style="fill:white;fill-opacity:1;"/>
<path d="M114.145 27.516C110.145 27.516 107.771 24.9331 107.771 20.7489C107.771 16.539 110.635 14.0337 114.299 14.0337C117.963 14.0337 119.95 16.2549 120.26 19.1993H117.06C116.957 17.7788 116.08 16.539 114.299 16.539C112.467 16.539 110.971 18.037 110.971 20.7749C110.971 23.2801 112.287 25.0365 114.222 25.0365C116.131 25.0365 117.035 23.7451 117.189 22.247H120.389C119.95 25.4497 117.886 27.516 114.145 27.516Z" fill="white" style="fill:white;fill-opacity:1;"/>
<path d="M126.37 27.516C124.177 27.516 122.035 26.0696 122.035 23.5901C122.035 20.7489 124.228 19.7675 126.938 19.4059L128.744 19.1735C129.776 19.0443 130.137 18.6569 130.137 18.037C130.137 17.1589 129.415 16.384 128.073 16.384C126.602 16.384 125.673 17.2105 125.544 18.5278H122.293C122.5 15.8933 124.641 14.0337 127.892 14.0337C131.737 14.0337 133.285 16.0999 133.285 19.6384V27.051H130.37V26.5345C130.37 26.1213 130.421 25.7337 130.499 25.3206C129.828 26.5603 128.538 27.516 126.37 27.516ZM127.222 25.1915C128.899 25.1915 130.24 23.9517 130.24 22.1696V20.8006C129.957 21.0589 129.518 21.1881 128.744 21.343L127.712 21.5497C126.241 21.8337 125.235 22.3245 125.235 23.4609C125.235 24.5715 126.112 25.1915 127.222 25.1915Z" fill="white" style="fill:white;fill-opacity:1;"/>
<path d="M136.363 27.0508V8.97119H139.511V27.0508H136.363Z" fill="white" style="fill:white;fill-opacity:1;"/>
<path d="M148.44 27.516C144.673 27.516 142.016 25.0881 142.016 20.7232C142.016 16.7456 144.673 14.0337 148.337 14.0337C152.182 14.0337 154.401 16.7198 154.401 20.8265V21.5238H145.241C145.267 23.5126 146.531 25.0365 148.44 25.0365C149.808 25.0365 150.918 24.2616 151.124 22.9445H154.323C154.066 25.5272 151.847 27.516 148.44 27.516ZM151.176 19.251C151.124 17.5463 150.015 16.384 148.311 16.384C146.609 16.384 145.396 17.598 145.215 19.251H151.176Z" fill="white" style="fill:white;fill-opacity:1;"/>
</svg>
