<svg xmlns="http://www.w3.org/2000/svg" width="975" height="200" fill="none"><path fill="#151619" d="m34.348 115.916 15.393-20.78c.997-1.344 3.11-.785 3.332.88 4.697 35.267 52.578 47.892 73.851 18.319l48.727-65.776c.744-1.003 2.335-.48 2.335.772v38.504a7.447 7.447 0 0 1-1.467 4.439l-27.286 36.768c-28.553 41.096-92.234 36.79-115.372-6.939a5.828 5.828 0 0 1 .487-6.187Z"/><path fill="#151619" d="M153.062 64.64 137.58 85.533c-.997 1.345-3.106.785-3.332-.875-4.737-35.139-52.36-47.78-73.709-18.435l-27.392 36.914-20.807 28.361c-.74 1.012-2.34.484-2.34-.768V91.992a7.46 7.46 0 0 1 1.462-4.434l25.062-33.825c27.055-43.502 93.873-39.835 117.043 4.75a5.832 5.832 0 0 1-.505 6.156ZM230.72 144.069V31.071h21.126v95.08h56.766v17.918H230.72ZM354.815 146.975c-23.707 0-40.317-15.82-40.317-41.971 0-25.828 16.772-42.293 40.317-42.293 23.706 0 40.477 16.465 40.477 42.293 0 26.151-16.771 41.971-40.477 41.971Zm0-15.497c12.256 0 20.48-9.686 20.48-26.474 0-17.11-8.386-26.635-20.48-26.635-11.934 0-20.32 9.524-20.32 26.635 0 16.788 8.063 26.474 20.32 26.474ZM446.629 146.975c-23.706 0-40.316-15.82-40.316-41.971 0-25.828 16.771-42.293 40.316-42.293 23.706 0 40.478 16.465 40.478 42.293 0 26.151-16.772 41.971-40.478 41.971Zm0-15.497c12.257 0 20.481-9.686 20.481-26.474 0-17.11-8.386-26.635-20.481-26.635-11.933 0-20.319 9.524-20.319 26.635 0 16.788 8.063 26.474 20.319 26.474ZM502.804 177V65.293h19.675v3.552c0 2.421-.162 4.52-.645 7.748 4.999-8.394 13.385-13.882 25.802-13.882 20.804 0 34.511 17.434 34.511 42.455 0 25.505-15.32 41.809-35.317 41.809-13.224 0-19.997-5.65-24.996-13.721.483 3.228.645 5.327.645 7.587V177h-19.675Zm39.188-45.522c12.095 0 20.158-10.816 20.158-26.635 0-15.497-7.579-26.474-20.158-26.474-11.773 0-20.32 10.17-20.32 26.474 0 15.819 8.386 26.635 20.32 26.635ZM629.054 146.975c-22.254 0-35.962-11.623-37.252-30.025h19.997c.484 9.362 6.289 15.335 16.772 15.335 8.869 0 14.513-4.197 14.513-10.17 0-5.327-4.515-7.748-12.901-9.362l-9.515-1.937c-16.449-3.229-25.802-10.977-25.802-24.053 0-13.721 12.901-24.052 32.253-24.052 21.126 0 34.35 10.977 34.834 27.442h-19.675c-.645-7.748-6.289-12.753-15.159-12.753-7.257 0-12.901 2.906-12.901 8.556 0 4.681 3.064 7.103 13.062 9.04l9.515 1.937c15.482 3.067 25.642 10.17 25.642 24.052 0 15.013-13.063 25.99-33.383 25.99ZM713.4 146.975c-24.996 0-39.832-16.143-39.832-42.294 0-26.312 17.9-41.97 40.8-41.97s35.317 13.882 37.253 32.285h-19.997c-.645-8.879-6.129-16.627-17.256-16.627-11.45 0-20.803 9.363-20.803 26.474 0 15.658 8.224 26.635 20.319 26.635 11.934 0 17.578-8.071 18.546-17.434h19.997c-2.742 20.017-15.643 32.931-39.027 32.931ZM789.809 146.975c-13.707 0-27.093-9.04-27.093-24.537 0-17.757 13.708-23.89 30.641-26.15l11.289-1.454c6.45-.807 8.708-3.228 8.708-7.102 0-5.489-4.515-10.332-12.901-10.332-9.192 0-14.998 5.166-15.804 13.399h-20.32c1.29-16.466 14.675-28.088 34.995-28.088 24.029 0 33.705 12.914 33.705 35.029v46.329h-18.223v-3.228c0-2.583.322-5.005.806-7.587-4.193 7.748-12.256 13.721-25.803 13.721Zm5.322-14.528c10.482 0 18.868-7.749 18.868-18.887v-8.556c-1.774 1.614-4.515 2.422-9.353 3.39l-6.451 1.292c-9.192 1.775-15.481 4.842-15.481 11.945 0 6.941 5.483 10.816 12.417 10.816ZM852.267 144.069V31.071h19.675V144.07h-19.675ZM927.747 146.975c-23.544 0-40.155-15.174-40.155-42.455 0-24.86 16.611-41.81 39.51-41.81C951.131 62.71 965 79.5 965 105.167v4.358h-57.25c.162 12.43 8.064 21.954 19.997 21.954 8.548 0 15.482-4.843 16.772-13.075h19.997c-1.612 16.142-15.481 28.572-36.769 28.572Zm17.095-51.656c-.323-10.654-7.257-17.919-17.901-17.919-10.643 0-18.223 7.587-19.352 17.919h37.253Z"/></svg>