<svg width="229" height="32" viewBox="0 0 229 32" fill="none" xmlns="http://www.w3.org/2000/svg">
<path d="M30.7002 9.6195L33.2379 12.5987C33.5285 12.9333 33.7861 13.2085 33.8903 13.365C34.6493 14.1187 35.0747 15.1372 35.0742 16.1985C35.0029 17.4505 34.1862 18.3033 33.4298 19.2154L31.6539 21.2987L30.7276 22.3781C30.6943 22.4154 30.673 22.4613 30.666 22.5104C30.6589 22.5595 30.6667 22.6095 30.6883 22.6543C30.7099 22.699 30.7443 22.7366 30.7874 22.7623C30.8304 22.7881 30.8801 22.8008 30.9304 22.7991H40.1882C41.6023 22.7991 43.3837 23.9864 43.2796 25.789C43.2767 26.6084 42.9448 27.3933 42.3564 27.9726C41.768 28.552 40.9708 28.8787 40.1388 28.8816H25.6411C24.6874 28.8816 22.1221 28.9841 21.4041 26.7983C21.2513 26.3415 21.2305 25.852 21.3438 25.3843C21.5525 24.6926 21.8826 24.0423 22.3194 23.4629C23.0485 22.3835 23.8377 21.3041 24.6161 20.2571C25.6191 18.8863 26.6496 17.5586 27.6636 16.1607C27.6996 16.1152 27.7192 16.0591 27.7192 16.0014C27.7192 15.9438 27.6996 15.8878 27.6636 15.8423L23.9802 11.5246C23.9563 11.4933 23.9252 11.468 23.8895 11.4505C23.8539 11.433 23.8146 11.4239 23.7748 11.4239C23.7348 11.4239 23.6955 11.433 23.6599 11.4505C23.6242 11.468 23.5931 11.4933 23.5692 11.5246C22.5825 12.8361 18.2634 18.6433 17.3425 19.8199C16.4216 20.9964 14.1525 21.0612 12.8973 19.8199L7.13652 14.126C7.09972 14.0897 7.05278 14.0649 7.00166 14.0548C6.95054 14.0448 6.89755 14.0499 6.84939 14.0696C6.80124 14.0892 6.76009 14.1225 6.73119 14.1653C6.7023 14.208 6.68693 14.2582 6.68706 14.3095V25.2602C6.70062 26.0372 6.46692 26.799 6.01871 27.4387C5.57049 28.0784 4.93023 28.5641 4.18763 28.8276C3.71314 28.9901 3.20604 29.0387 2.70861 28.9692C2.21119 28.8996 1.73786 28.714 1.32808 28.4277C0.918316 28.1415 0.58398 27.7629 0.352957 27.3237C0.121934 26.8844 0.00091772 26.397 0 25.9024V6.21396C0.0330247 5.50444 0.292306 4.82321 0.741001 4.26708C1.1897 3.71095 1.80498 3.30819 2.49943 3.11605C3.0951 2.95979 3.72216 2.96136 4.31703 3.12059C4.91189 3.27982 5.45345 3.59105 5.88681 4.02276L14.7445 12.7552C14.7709 12.7817 14.803 12.8022 14.8384 12.8151C14.8739 12.828 14.9118 12.8331 14.9494 12.8301C14.9871 12.827 15.0236 12.8158 15.0564 12.7972C15.0891 12.7787 15.1174 12.7533 15.1391 12.7228L21.4315 4.14689C21.7222 3.79874 22.0868 3.51739 22.4996 3.32255C22.9125 3.1277 23.3635 3.02407 23.8213 3.01891H40.1882C40.636 3.01964 41.0787 3.11452 41.4863 3.29723C41.894 3.47994 42.2574 3.74625 42.5521 4.07835C42.8468 4.41045 43.0661 4.80069 43.1954 5.22297C43.3246 5.64525 43.3608 6.08983 43.3014 6.52699C43.1861 7.28532 42.7954 7.97672 42.2017 8.47296C41.608 8.9692 40.8517 9.23658 40.073 9.2255H30.9085C30.8624 9.22661 30.8175 9.23986 30.7784 9.26385C30.7393 9.28785 30.7075 9.32173 30.6863 9.36197C30.6649 9.4022 30.655 9.44731 30.6575 9.4926C30.66 9.53789 30.6747 9.58172 30.7002 9.6195Z" fill="#EB5987" style="fill:#EB5987;fill:color(display-p3 0.9219 0.3474 0.5288);fill-opacity:1;"/>
<path d="M169.009 21.1412H164.495C164.146 21.1324 163.813 20.9918 163.566 20.7486C163.319 20.5052 163.177 20.1779 163.168 19.8339V18.7881C163.177 18.4442 163.319 18.1168 163.566 17.8735C163.813 17.6303 164.146 17.4896 164.495 17.4809H168.354C168.707 17.4809 169.044 17.3431 169.294 17.0979C169.542 16.8528 169.681 16.5204 169.681 16.1736C169.681 15.8269 169.542 15.4944 169.294 15.2492C169.044 15.0041 168.707 14.8664 168.354 14.8664H164.46C164.11 14.8575 163.778 14.717 163.531 14.4737C163.284 14.2304 163.141 13.903 163.131 13.5591V12.5133C163.141 12.1693 163.284 11.8419 163.531 11.5987C163.778 11.3554 164.11 11.2148 164.46 11.206H168.885C169.238 11.206 169.575 11.0683 169.824 10.8231C170.073 10.578 170.213 10.2455 170.213 9.89875C170.213 9.55204 170.073 9.21953 169.824 8.97437C169.575 8.72922 169.238 8.59149 168.885 8.59149H163.575C163.367 8.58738 163.165 8.6549 163.004 8.78229C162.843 8.90967 162.731 9.08888 162.689 9.28869L159.856 22.4485V22.7099C159.907 23.0154 160.071 23.2917 160.316 23.485C160.562 23.6783 160.871 23.7749 161.185 23.7558H168.974C169.326 23.7558 169.663 23.618 169.913 23.3728C170.161 23.1277 170.302 22.7952 170.302 22.4485C170.302 22.1018 170.161 21.7692 169.913 21.5241C169.663 21.2789 169.326 21.1412 168.974 21.1412H169.009Z" fill="white" style="fill:white;fill-opacity:1;"/>
<path d="M70.7608 8.67847H68.9904C68.7301 8.68172 68.4757 8.75699 68.2567 8.89567C68.0376 9.03435 67.8625 9.23088 67.7514 9.46282L63.8568 18.7008C63.8568 18.7239 63.8474 18.746 63.8309 18.7624C63.8142 18.7788 63.7917 18.7879 63.7683 18.7879C63.6798 18.7879 63.6798 18.7879 63.6798 18.7008L59.7853 9.46282C59.6903 9.22708 59.5385 9.01768 59.3428 8.85277C58.9887 8.59131 58.5461 8.93992 58.4576 9.37568L55.5367 22.7097C55.5136 22.8607 55.5449 23.0149 55.6252 23.1455C55.7313 23.3562 55.8955 23.5333 56.099 23.6565C56.3024 23.7799 56.537 23.8444 56.7759 23.8427H57.307C57.65 23.8253 57.9737 23.6808 58.2134 23.4385C58.4529 23.1961 58.5907 22.8735 58.5992 22.5354V13.9947C58.5992 13.9716 58.6085 13.9494 58.6252 13.933C58.6417 13.9167 58.6642 13.9075 58.6878 13.9075C58.7112 13.9075 58.7337 13.9167 58.7504 13.933C58.7669 13.9494 58.7762 13.9716 58.7762 13.9947L62.4052 22.9712C62.5017 23.2138 62.6734 23.4201 62.8959 23.5609C63.1184 23.7016 63.3803 23.7699 63.6443 23.7556H63.9985C64.2588 23.7523 64.5131 23.6771 64.7322 23.5384C64.9513 23.3997 65.1264 23.2031 65.2376 22.9712L68.8666 14.0818C68.8666 14.0587 68.8759 14.0365 68.8925 14.0202C68.9091 14.0039 68.9316 13.9947 68.955 13.9947C68.9786 13.9947 69.0011 14.0039 69.0176 14.0202C69.0343 14.0365 69.0436 14.0587 69.0436 14.0818V22.5354C69.0525 22.8794 69.1954 23.2067 69.4424 23.4501C69.6894 23.6933 70.022 23.8339 70.3713 23.8427H70.9023C71.2517 23.8339 71.5841 23.6933 71.8312 23.4501C72.0783 23.2067 72.221 22.8794 72.23 22.5354V9.98573C72.1694 9.63722 71.9915 9.31887 71.725 9.0818C71.4586 8.84474 71.119 8.70269 70.7608 8.67847Z" fill="white" style="fill:white;fill-opacity:1;"/>
<path d="M111.299 15.7378H107.405C107.076 15.7378 106.761 15.8663 106.528 16.0952C106.296 16.324 106.166 16.6343 106.166 16.9579C106.166 17.2814 106.296 17.5919 106.528 17.8207C106.761 18.0495 107.076 18.178 107.405 18.178H108.113C108.821 18.178 109.529 18.788 109.175 19.4853C108.644 20.6183 107.582 21.2282 105.9 21.2282C103.422 21.2282 101.917 19.3981 101.917 16.2607C101.917 13.1232 103.51 11.2931 105.9 11.2931C106.454 11.2649 107.006 11.3785 107.503 11.6228C107.999 11.8672 108.423 12.234 108.732 12.6875C108.871 12.9416 109.074 13.1557 109.323 13.3086C109.571 13.4614 109.856 13.5478 110.148 13.559H110.945C111.124 13.5733 111.304 13.5445 111.469 13.475C111.635 13.4055 111.78 13.2974 111.893 13.1602C112.007 13.0229 112.084 12.8605 112.12 12.687C112.155 12.5135 112.147 12.3342 112.096 12.1646C111.543 11.022 110.661 10.0652 109.559 9.41412C108.457 8.76303 107.184 8.44653 105.9 8.50425C101.828 8.50425 98.7305 11.3802 98.7305 16.2607C98.7305 21.1411 101.651 24.0171 105.988 24.0171C109.883 24.0171 112.627 21.5769 112.627 17.655V17.0451C112.631 16.8724 112.599 16.7008 112.533 16.5406C112.468 16.3804 112.37 16.2348 112.246 16.1127C112.122 15.9906 111.974 15.8945 111.811 15.83C111.649 15.7656 111.474 15.7342 111.299 15.7378Z" fill="white" style="fill:white;fill-opacity:1;"/>
<path d="M88.2864 9.54997C88.1956 9.29708 88.028 9.07781 87.8064 8.92192C87.5847 8.76601 87.3197 8.68101 87.0472 8.67847H84.746C84.4736 8.68101 84.2085 8.76601 83.9868 8.92192C83.7652 9.07781 83.5976 9.29708 83.5068 9.54997L79.0813 22.0997C79.0148 22.296 78.996 22.5046 79.0262 22.7094C79.0565 22.914 79.135 23.1087 79.2553 23.2782C79.3758 23.4476 79.5348 23.5869 79.7198 23.6849C79.9047 23.783 80.1105 23.837 80.3203 23.8427H81.0285C81.3009 23.8402 81.5659 23.7552 81.7876 23.5993C82.0092 23.4433 82.1768 23.2242 82.2676 22.9712L82.7987 21.3154C82.8895 21.0624 83.0571 20.8432 83.2787 20.6873C83.5004 20.5313 83.7655 20.4463 84.0379 20.4438H87.6668C87.9393 20.4463 88.2043 20.5313 88.4259 20.6873C88.6476 20.8432 88.8152 21.0624 88.906 21.3154L89.4371 22.9712C89.5278 23.2242 89.6955 23.4433 89.9171 23.5993C90.1388 23.7552 90.4039 23.8402 90.6762 23.8427H91.3843C91.5943 23.837 91.8 23.783 91.9849 23.6849C92.1698 23.5869 92.3289 23.4476 92.4493 23.2782C92.5697 23.1087 92.6482 22.914 92.6785 22.7094C92.7087 22.5046 92.69 22.296 92.6235 22.0997L88.2864 9.54997ZM86.0382 17.8293H85.7727C85.5627 17.8236 85.357 17.7696 85.1721 17.6715C84.9872 17.5734 84.8281 17.4342 84.7078 17.2648C84.5873 17.0953 84.5088 16.9006 84.4785 16.6959C84.4483 16.4912 84.4672 16.2825 84.5335 16.0862L85.8612 12.0774C85.8612 12.0542 85.8706 12.0321 85.8871 12.0157C85.9038 11.9994 85.9263 11.9902 85.9497 11.9902C85.9732 11.9902 85.9957 11.9994 86.0123 12.0157C86.0289 12.0321 86.0382 12.0542 86.0382 12.0774L87.3658 16.0862C87.4141 16.2885 87.4166 16.4987 87.3734 16.7021C87.3301 16.9054 87.2421 17.0969 87.1155 17.2631C86.9889 17.4293 86.8268 17.5662 86.6407 17.6639C86.4545 17.7618 86.2489 17.8182 86.0382 17.8293Z" fill="white" style="fill:white;fill-opacity:1;"/>
<path d="M121.567 8.67847H120.947C120.598 8.68729 120.266 8.82785 120.018 9.07113C119.771 9.3144 119.629 9.64181 119.62 9.98573V22.5354C119.629 22.8794 119.771 23.2067 120.018 23.4501C120.266 23.6933 120.598 23.8339 120.947 23.8427H121.567C121.916 23.8339 122.249 23.6933 122.496 23.4501C122.743 23.2067 122.886 22.8794 122.895 22.5354V9.98573C122.872 9.64642 122.725 9.32683 122.48 9.08637C122.236 8.84591 121.911 8.70096 121.567 8.67847Z" fill="white" style="fill:white;fill-opacity:1;"/>
<path d="M137.057 11.293C137.653 11.2769 138.243 11.4128 138.77 11.6877C139.298 11.9626 139.743 12.367 140.066 12.8617C140.181 13.1652 140.385 13.4275 140.653 13.6141C140.922 13.8008 141.242 13.9031 141.57 13.9075H142.19C142.369 13.9218 142.549 13.893 142.714 13.8235C142.879 13.754 143.025 13.6459 143.138 13.5086C143.251 13.3714 143.329 13.209 143.365 13.0355C143.4 12.862 143.392 12.6827 143.341 12.5131C142.455 9.89856 140.066 8.41699 136.968 8.41699C132.897 8.41699 129.798 11.2058 129.798 16.1735C129.798 21.141 132.808 23.9299 136.968 23.9299C140.243 23.9299 142.455 22.1869 143.253 20.0081C143.303 19.8384 143.311 19.6591 143.276 19.4856C143.241 19.3122 143.163 19.1498 143.05 19.0125C142.936 18.8752 142.791 18.7671 142.625 18.6977C142.46 18.6281 142.281 18.5994 142.101 18.6137H141.393C141.071 18.6416 140.762 18.7532 140.498 18.9369C140.234 19.1206 140.023 19.3699 139.889 19.6594C139.594 20.1585 139.166 20.5685 138.65 20.845C138.135 21.1216 137.554 21.2541 136.968 21.2281C134.666 21.2281 133.074 19.4852 133.074 16.2606C133.074 13.036 134.666 11.293 137.057 11.293Z" fill="white" style="fill:white;fill-opacity:1;"/>
<path d="M182.906 8.67847H178.745C178.396 8.68729 178.063 8.82785 177.816 9.07113C177.569 9.3144 177.427 9.64181 177.418 9.98573V22.5354C177.427 22.8794 177.569 23.2067 177.816 23.4501C178.063 23.6933 178.396 23.8339 178.745 23.8427H182.906C187.597 23.8427 190.429 20.9667 190.429 16.2606C190.429 11.5544 187.508 8.67847 182.906 8.67847ZM182.728 21.0539H182.02C181.671 21.0451 181.338 20.9046 181.091 20.6612C180.844 20.418 180.702 20.0905 180.693 19.7467V12.6874C180.702 12.3435 180.844 12.0161 181.091 11.7728C181.338 11.5295 181.671 11.389 182.02 11.3802H182.728C185.649 11.3802 187.154 12.8617 187.154 16.1735C187.154 19.4852 185.649 21.0539 182.728 21.0539Z" fill="white" style="fill:white;fill-opacity:1;"/>
<path d="M206.362 21.141H201.847C201.498 21.1322 201.165 20.9917 200.918 20.7484C200.671 20.5051 200.529 20.1777 200.52 19.8337V18.7879C200.529 18.444 200.671 18.1166 200.918 17.8733C201.165 17.6301 201.498 17.4895 201.847 17.4807H205.741C206.094 17.4807 206.432 17.3429 206.68 17.0978C206.929 16.8526 207.07 16.5202 207.07 16.1735C207.07 15.8267 206.929 15.4942 206.68 15.2491C206.432 15.0039 206.094 14.8662 205.741 14.8662H201.847C201.498 14.8573 201.165 14.7168 200.918 14.4735C200.671 14.2302 200.529 13.9028 200.52 13.5589V12.5131C200.529 12.1692 200.671 11.8418 200.918 11.5985C201.165 11.3552 201.498 11.2147 201.847 11.2058H206.273C206.625 11.2058 206.963 11.0681 207.211 10.8229C207.46 10.5778 207.6 10.2453 207.6 9.89856C207.6 9.55187 207.46 9.21935 207.211 8.9742C206.963 8.72903 206.625 8.59131 206.273 8.59131H198.572C198.223 8.60012 197.89 8.74069 197.643 8.98396C197.396 9.22724 197.254 9.55465 197.245 9.89856V22.4483C197.254 22.7922 197.396 23.1196 197.643 23.3629C197.89 23.6062 198.223 23.7467 198.572 23.7556H206.362C206.71 23.7467 207.043 23.6062 207.289 23.3629C207.537 23.1196 207.68 22.7922 207.689 22.4483C207.693 22.2757 207.66 22.1041 207.595 21.9438C207.53 21.7836 207.433 21.6381 207.308 21.5159C207.184 21.3939 207.036 21.2977 206.873 21.2333C206.71 21.1688 206.536 21.1375 206.362 21.141Z" fill="white" style="fill:white;fill-opacity:1;"/>
<path d="M226.365 8.67847H225.744C225.396 8.68729 225.063 8.82785 224.815 9.07113C224.57 9.3144 224.426 9.64181 224.417 9.98573V18.0907C224.417 18.1779 224.417 18.1779 224.329 18.1779H224.24L218.044 9.28853C217.925 9.12248 217.765 8.98798 217.58 8.89681C217.394 8.80565 217.19 8.7606 216.983 8.76562H216.15C215.801 8.77445 215.468 8.915 215.221 9.15828C214.974 9.40155 214.832 9.72896 214.823 10.0729V22.6226C214.832 22.9665 214.974 23.294 215.221 23.5372C215.468 23.7804 215.801 23.9211 216.15 23.9299H216.769C217.119 23.9211 217.451 23.7804 217.698 23.5372C217.945 23.294 218.089 22.9665 218.098 22.6226V14.4304C218.098 14.4073 218.107 14.3851 218.124 14.3688C218.141 14.3525 218.163 14.3433 218.186 14.3433H218.275L224.559 23.2326C224.679 23.3987 224.839 23.5332 225.024 23.6244C225.208 23.7156 225.414 23.7605 225.621 23.7556H226.417C226.767 23.7468 227.099 23.6062 227.346 23.3629C227.593 23.1196 227.737 22.7923 227.746 22.4483V9.89858C227.686 9.57318 227.517 9.27669 227.267 9.05579C227.017 8.8349 226.7 8.70215 226.365 8.67847Z" fill="white" style="fill:white;fill-opacity:1;"/>
</svg>
