<svg width="110" height="40" viewBox="0 0 110 40" fill="none" xmlns="http://www.w3.org/2000/svg">
<g clip-path="url(#clip0_582_17932)">
<path fill-rule="evenodd" clip-rule="evenodd" d="M59.6776 26.7661L59.6777 26.7664C60.2475 28.334 59.6777 29.2067 58.2677 29.5021C49.5733 31.435 50.574 15.946 54.7951 12.1207C55.3315 11.6347 56.1147 11.0912 57.5481 11.0245C59.9472 10.9129 60.8635 11.0972 60.2388 13.4027C59.28 16.9402 58.224 22.294 59.6776 26.7661ZM50.748 26.8891C51.3178 28.4569 50.748 29.3294 49.338 29.6249C40.6436 31.5579 41.6443 16.0688 45.8655 12.2434C46.4018 11.7574 47.1852 11.214 48.6186 11.1473C51.0175 11.0357 51.9338 11.22 51.3091 13.5254C50.3504 17.063 49.2943 22.4168 50.7479 26.8888L50.748 26.8891ZM65.587 29.3294C66.5543 29.6161 67.5843 29.7416 68.6771 29.7058C69.8056 29.6699 70.8357 29.4907 71.7671 29.1681C72.7166 28.8635 73.5316 28.4245 74.2123 27.851C74.911 27.2596 75.4574 26.5607 75.8514 25.7543C76.2456 24.9299 76.4605 24.007 76.4964 22.9855C76.5143 21.9103 76.3261 20.9336 75.9321 20.0555C75.5379 19.1774 74.9826 18.4247 74.2661 17.7975C73.5496 17.1703 72.7076 16.6864 71.7402 16.3459C70.7729 15.9875 69.734 15.8083 68.6233 15.8083C67.3873 15.8083 66.2766 15.9875 65.2914 16.3459C64.324 16.7044 63.5 17.2061 62.8193 17.8513C62.1386 18.4785 61.6191 19.2312 61.2609 20.1093C60.9026 20.9874 60.7324 21.9372 60.7504 22.9587C60.7504 24.0697 60.9563 25.0553 61.3683 25.9155C61.7983 26.7578 62.3715 27.4656 63.088 28.0391C63.8045 28.6126 64.6375 29.0428 65.587 29.3294ZM68.1934 19.8942C68.3187 19.715 68.4711 19.6254 68.6502 19.6254C68.901 19.6075 69.0981 19.7061 69.2413 19.9211C69.3846 20.1362 69.4921 20.396 69.5638 20.7007C69.6533 21.0053 69.7071 21.31 69.725 21.6146C69.7608 21.9193 69.7788 22.1612 69.7788 22.3404C69.7967 22.6988 69.7877 23.0662 69.7519 23.4425C69.716 23.8188 69.6533 24.1593 69.5638 24.464C69.4921 24.7508 69.3846 24.9927 69.2413 25.1898C69.0981 25.3869 68.9278 25.4945 68.7308 25.5124C68.4263 25.5303 68.1934 25.4227 68.0321 25.1898C67.8709 24.9568 67.7546 24.6791 67.6829 24.3565C67.6112 24.016 67.5754 23.6755 67.5754 23.335V22.5017C67.5754 22.1612 67.6022 21.8207 67.656 21.4802C67.7098 21.1397 67.7813 20.8351 67.8709 20.5663C67.9606 20.2974 68.068 20.0734 68.1934 19.8942ZM86.0136 17.7702C85.2931 15.547 89.4674 15.612 90.665 16.1491C93.4022 17.2444 93.791 20.6306 93.9431 23.2187C93.7128 27.2509 95.7582 24.4911 96.0221 21.0979C96.1342 19.6565 95.6756 18.4652 95.3338 17.5778C94.9272 16.5216 94.6862 15.8958 95.7704 15.7908C100.717 15.3118 103.298 19.3107 101.44 23.6488C99.6177 27.9022 90.9062 33.5877 88.8458 26.5207C88.8018 26.3698 88.5975 26.3425 88.5123 26.4747C86.4904 29.613 80.6303 31.5065 78.717 27.425C78.5192 27.0031 78.4456 26.5318 78.4212 26.0665C78.3778 25.2449 78.3523 24.5462 78.3299 23.9342V23.9338C78.2473 21.6733 78.208 20.5972 77.4745 18.8909C77.2217 18.303 76.9645 17.8364 76.7217 17.4675C76.3335 16.8773 76.5297 15.7692 77.2329 15.7029C78.5019 15.5831 79.8571 15.7905 80.9917 16.1491C83.7546 17.2547 84.118 20.6373 84.2698 23.2187C84.3235 23.8101 84.3594 24.4105 84.3773 25.0197C84.5564 26.715 87.7039 22.9855 86.0136 17.7702ZM102.337 25.2347C101.835 25.7724 101.603 26.4445 101.638 27.2509C101.674 28.0035 101.934 28.6218 102.418 29.1057C102.919 29.5716 103.609 29.8045 104.487 29.8045C105.042 29.8045 105.517 29.724 105.911 29.5626C106.305 29.4193 106.618 29.2132 106.851 28.9444C107.102 28.6756 107.272 28.3709 107.362 28.0304C107.469 27.6899 107.514 27.3316 107.496 26.9552C107.46 26.2563 107.192 25.656 106.69 25.1542C106.206 24.6524 105.508 24.4016 104.594 24.4016C103.609 24.4016 102.857 24.6793 102.337 25.2347ZM41.5123 27.0613C41.817 28.1941 41.9772 28.7898 41.1152 29.247C39.685 30.0053 37.5516 29.9489 36.1771 29.1105C35.5033 28.683 35.0003 28.0252 34.668 27.1373C34.6269 27.0272 34.4721 27.0111 34.411 27.1115C34.1511 27.5378 33.5849 28.2082 33.3125 28.4959C31.0822 30.5428 28.9878 29.8635 27.3464 28.0391C23.7844 23.7902 27.5483 13.6761 33.019 16.3459C33.7278 16.6918 34.1514 17.1594 34.4393 17.4771C34.532 17.5794 34.6107 17.6662 34.6802 17.7284C34.8421 17.8732 34.9961 17.6766 35.0602 17.469C35.4572 16.1838 36.3449 15.7908 37.8414 15.7908C38.5639 15.7908 41.1152 15.7908 41.1152 17.0652C41.1152 17.6483 41.0708 18.1509 41.021 18.7146C40.9198 19.8616 40.7961 21.2614 40.9788 24.1058C41.0609 25.3834 41.3164 26.3333 41.5123 27.0613ZM33.6564 25.0627C34.0313 25.0862 34.2439 24.6811 34.2128 24.3067V23.6243C34.2128 23.0056 34.24 22.3597 34.2946 21.6864C34.3322 21.2099 34.3785 20.7248 34.4333 20.231C34.4738 19.8674 34.1916 19.5248 33.8431 19.6354C33.7321 19.6707 33.6279 19.7175 33.5308 19.7758C33.2579 19.9396 33.0305 20.1579 32.8486 20.4309C32.6849 20.7038 32.5486 21.0041 32.4395 21.3316C32.3486 21.6591 32.294 21.9866 32.2758 22.3142C32.2576 22.6053 32.2758 22.9419 32.3304 23.3241C32.4031 23.688 32.5214 24.0155 32.6849 24.3067C32.8486 24.5978 33.0578 24.8162 33.3125 24.9617C33.4165 25.0212 33.5312 25.0548 33.6564 25.0627ZM9.0563 28.5611C9.05988 29.3386 9.94498 29.711 10.7142 29.8227C15.0762 30.4557 15.9678 25.6324 16.0859 21.6233C16.1042 21.0034 16.6747 20.3919 17.0522 20.8837C17.3303 21.2458 17.4176 21.8203 17.4176 22.2781C17.4176 22.759 17.3686 23.2745 17.3183 23.8023C17.1742 25.3126 17.0208 26.9235 17.9819 28.1114C20.461 31.0046 25.9114 30.2269 24.4764 26.5036C24.1261 25.302 24.1597 23.9022 24.193 22.5089C24.2449 20.3399 24.2964 18.1866 22.8992 16.8213C22.1288 16.0687 21.1795 15.6923 20.0509 15.6923C19.191 15.6923 18.3939 15.9522 17.6595 16.4719C16.925 16.9736 16.2891 17.7084 15.7516 18.6761C15.4471 17.8159 14.9724 17.108 14.3276 16.5525C13.6827 15.9791 12.8766 15.6923 11.9092 15.6923C11.0494 15.6923 10.2701 15.9342 9.57151 16.4181C8.87288 16.902 8.26381 17.6009 7.74433 18.5148C7.49353 17.5471 7.02779 16.8392 6.34707 16.3912C5.68427 15.9253 4.8692 15.6923 3.90186 15.6923C2.91409 15.6923 1.66498 15.8982 0.94144 16.6644C0.256269 17.3899 0.510642 18.4211 0.762301 19.4413C0.838416 19.7499 0.914281 20.0574 0.96383 20.3552C1.19602 21.7507 1.05158 23.2573 0.908248 24.7523C0.81932 25.6798 0.730823 26.6027 0.732979 27.492C0.73575 28.6348 1.35712 29.7423 2.48696 29.911C3.98879 30.1353 5.90564 29.6473 6.67415 28.1114C7.29619 26.8681 7.69869 24.5176 7.83262 21.9785C7.87481 21.1786 8.63708 20.5224 8.99058 21.2412C9.58383 22.4476 9.34192 25.0211 9.18324 26.7091C9.13593 27.2124 9.09602 27.6369 9.08785 27.9231C9.08785 28.0177 9.08038 28.1171 9.07272 28.2194C9.06436 28.3308 9.05576 28.4456 9.0563 28.5611Z" fill="white" style="fill:white;fill-opacity:1;"/>
</g>
<defs>
<clipPath id="clip0_582_17932">
<rect width="107" height="19" fill="white" style="fill:white;fill-opacity:1;" transform="translate(0.5 11)"/>
</clipPath>
</defs>
</svg>
