<svg width="65" height="40" viewBox="0 0 65 40" fill="none" xmlns="http://www.w3.org/2000/svg">
<g clip-path="url(#clip0_4422_9686)">
<path fill-rule="evenodd" clip-rule="evenodd" d="M23.4688 35.6725H40.8655V4.27002H23.4688V35.6725Z" fill="#FF5F00" style="fill:#FF5F00;fill:color(display-p3 1.0000 0.3725 0.0000);fill-opacity:1;"/>
<path fill-rule="evenodd" clip-rule="evenodd" d="M24.5736 19.9712C24.5736 13.6004 27.5432 7.92634 32.1675 4.26995C28.7853 1.59548 24.5184 0 19.8804 0C8.90052 0 0 8.94154 0 19.9712C0 31.0008 8.90052 39.9424 19.8804 39.9424C24.5184 39.9424 28.7853 38.3469 32.1675 35.6724C27.5432 32.0155 24.5736 26.342 24.5736 19.9712Z" fill="#EB001B" style="fill:#EB001B;fill:color(display-p3 0.9216 0.0000 0.1059);fill-opacity:1;"/>
<path fill-rule="evenodd" clip-rule="evenodd" d="M63.7147 32.3467V31.5717H63.5131L63.2817 32.1048L63.0497 31.5717H62.8481V32.3467H62.9901V31.7619L63.2077 32.2662H63.3551L63.5727 31.7608V32.3467H63.7147ZM62.4383 32.3467V31.7037H62.6968V31.5728H62.0396V31.7037H62.2975V32.3467H62.4383ZM64.3354 19.9712C64.3354 31.0008 55.4344 39.9424 44.4551 39.9424C39.817 39.9424 35.5496 38.3469 32.168 35.6724C36.7922 32.016 39.7618 26.342 39.7618 19.9712C39.7618 13.6009 36.7922 7.92689 32.168 4.26995C35.5496 1.59548 39.817 0 44.4551 0C55.4344 0 64.3354 8.94154 64.3354 19.9712Z" fill="#F79E1B" style="fill:#F79E1B;fill:color(display-p3 0.9686 0.6196 0.1059);fill-opacity:1;"/>
</g>
<defs>
<clipPath id="clip0_4422_9686">
<rect width="65" height="40" fill="white" style="fill:white;fill-opacity:1;"/>
</clipPath>
</defs>
</svg>
