<svg width="109" height="22" viewBox="0 0 109 22" fill="none" xmlns="http://www.w3.org/2000/svg">
<g clip-path="url(#clip0_1714_6285)">
<path d="M3.57124 14.5085C3.57124 15.7732 3.84834 16.7442 4.21053 17.3316C4.68539 18.101 5.39366 18.427 6.11573 18.427C7.04706 18.427 7.89905 18.1955 9.54095 15.9206C10.8563 14.0973 12.4062 11.5379 13.4491 9.9334L15.2152 7.21508C16.442 5.32723 17.862 3.22859 19.4901 1.80607C20.8192 0.645026 22.253 0 23.696 0C26.1186 0 28.4262 1.40639 30.1923 4.04408C32.1251 6.93288 33.0633 10.5715 33.0633 14.3265C33.0633 16.5587 32.6241 18.199 31.8767 19.4948C31.1547 20.748 29.7473 22 27.3799 22V18.427C29.407 18.427 29.9129 16.561 29.9129 14.4255C29.9129 11.3824 29.2046 8.00524 27.6444 5.59215C26.5371 3.88052 25.1022 2.83466 23.5235 2.83466C21.8161 2.83466 20.4421 4.12471 18.8979 6.42492C18.077 7.64702 17.2342 9.13634 16.2879 10.8169L15.2462 12.6656C13.1536 16.3825 12.6235 17.2291 11.5772 18.6263C9.74331 21.0728 8.1773 22 6.11573 22C3.67013 22 2.12366 20.9392 1.16589 19.3404C0.38403 18.0377 0 16.3284 0 14.3806L3.57124 14.5085Z" fill="#0081FB" style="fill:#0081FB;fill:color(display-p3 0.0000 0.5059 0.9843);fill-opacity:1;"/>
<path d="M2.81641 4.29634C4.45371 1.76806 6.81652 0 9.52658 0C11.096 0 12.6563 0.46534 14.2856 1.79801C16.0677 3.25508 17.9672 5.65435 20.3369 9.60859L21.1866 11.0276C23.2378 14.4509 24.4049 16.212 25.0878 17.0425C25.9663 18.1091 26.5814 18.427 27.3805 18.427C29.4076 18.427 29.9135 16.561 29.9135 14.4255L33.0639 14.3265C33.0639 16.5587 32.6247 18.199 31.8773 19.4948C31.1553 20.748 29.7479 22 27.3805 22C25.9088 22 24.6049 21.6798 23.1631 20.3172C22.0547 19.2713 20.7589 17.4134 19.762 15.7432L16.7967 10.7812C15.3089 8.29089 13.9441 6.43414 13.1542 5.5933C12.3045 4.68911 11.2122 3.59717 9.46909 3.59717C8.0583 3.59717 6.86022 4.5889 5.8576 6.10586L2.81641 4.29634Z" fill="url(#paint0_linear_1714_6285)" style=""/>
<path d="M9.46851 3.59717C8.05772 3.59717 6.85964 4.5889 5.85703 6.10586C4.43934 8.24942 3.57125 11.4423 3.57125 14.5085C3.57125 15.7732 3.84834 16.7442 4.21053 17.3316L1.16589 19.3404C0.38403 18.0377 0 16.3284 0 14.3806C0 10.8387 0.970422 7.14712 2.81583 4.29633C4.45313 1.76806 6.81595 0 9.526 0L9.46851 3.59717Z" fill="url(#paint1_linear_1714_6285)" style=""/>
<path d="M40.0039 0.695679H44.1351L51.1592 13.4257L58.1844 0.695679H62.2259V21.613H58.8558V5.58175L52.6953 16.6831H49.5334L43.3739 5.58175V21.613H40.0039V0.695679ZM72.7855 8.49474C70.3687 8.49474 68.913 10.3169 68.5646 12.5734H76.7672C76.5982 10.249 75.2599 8.49474 72.7855 8.49474ZM65.2234 13.8588C65.2234 9.11097 68.2864 5.65547 72.8442 5.65547C77.3272 5.65547 80.0039 9.0672 80.0039 14.1122V15.0395H68.5646C68.9705 17.494 70.5963 19.148 73.2178 19.148C75.3093 19.148 76.6166 18.5088 77.8561 17.3397L79.6463 19.5362C77.9596 21.09 75.8141 21.9862 73.0983 21.9862C68.1645 21.9862 65.2234 18.3821 65.2234 13.8588ZM84.0902 8.79422H80.9881V6.02982H84.0902V1.45819H87.3418V6.02982H92.0548V8.79422H87.3418V15.8008C87.3418 18.1932 88.1053 19.0432 89.9818 19.0432C90.8383 19.0432 91.3293 18.9695 92.0548 18.8486V21.583C91.1511 21.8387 90.2887 21.9562 89.3551 21.9562C85.8448 21.9562 84.0902 20.035 84.0902 16.189V8.79422ZM105.746 11.4826C105.093 9.83087 103.637 8.61453 101.496 8.61453C98.7132 8.61453 96.9322 10.5922 96.9322 13.8139C96.9322 16.955 98.5718 19.0283 101.362 19.0283C103.556 19.0283 105.122 17.7497 105.746 16.159V11.4826ZM108.998 21.613H105.806V19.4314C104.914 20.7157 103.291 21.9862 100.661 21.9862C96.4321 21.9862 93.6059 18.4397 93.6059 13.8139C93.6059 9.14437 96.4999 5.65547 100.84 5.65547C102.986 5.65547 104.669 6.51474 105.806 8.0317V6.02982H108.998V21.613Z" fill="white" style="fill:white;fill-opacity:1;"/>
</g>
<defs>
<linearGradient id="paint0_linear_1714_6285" x1="7.01429" y1="13.4764" x2="29.7803" y2="14.6242" gradientUnits="userSpaceOnUse">
<stop stop-color="#0064E1" style="stop-color:#0064E1;stop-color:color(display-p3 0.0000 0.3922 0.8824);stop-opacity:1;"/>
<stop offset="0.4" stop-color="#0064E1" style="stop-color:#0064E1;stop-color:color(display-p3 0.0000 0.3922 0.8824);stop-opacity:1;"/>
<stop offset="0.83" stop-color="#0073EE" style="stop-color:#0073EE;stop-color:color(display-p3 0.0000 0.4510 0.9333);stop-opacity:1;"/>
<stop offset="1" stop-color="#0082FB" style="stop-color:#0082FB;stop-color:color(display-p3 0.0000 0.5098 0.9843);stop-opacity:1;"/>
</linearGradient>
<linearGradient id="paint1_linear_1714_6285" x1="5.17405" y1="16.0105" x2="5.17405" y2="7.60209" gradientUnits="userSpaceOnUse">
<stop stop-color="#0082FB" style="stop-color:#0082FB;stop-color:color(display-p3 0.0000 0.5098 0.9843);stop-opacity:1;"/>
<stop offset="1" stop-color="#0064E0" style="stop-color:#0064E0;stop-color:color(display-p3 0.0000 0.3922 0.8784);stop-opacity:1;"/>
</linearGradient>
<clipPath id="clip0_1714_6285">
<rect width="109" height="22" fill="white" style="fill:white;fill-opacity:1;"/>
</clipPath>
</defs>
</svg>
