<svg width="206" height="18" viewBox="0 0 206 18" fill="none" xmlns="http://www.w3.org/2000/svg">
<g clip-path="url(#clip0_4452_2719)">
<path d="M8.99563 5.76562L17.9913 2.8125V0H0V2.8125L8.99563 5.76562Z" fill="#F0F0F0" style="fill:#F0F0F0;fill:color(display-p3 0.9407 0.9407 0.9407);fill-opacity:1;"/>
<path d="M0 5.48438V18H4.2167V6.89062L0 5.48438Z" fill="#F0F0F0" style="fill:#F0F0F0;fill:color(display-p3 0.9407 0.9407 0.9407);fill-opacity:1;"/>
<path d="M17.9911 5.48438V18H13.7744V6.89062L17.9911 5.48438Z" fill="#F0F0F0" style="fill:#F0F0F0;fill:color(display-p3 0.9407 0.9407 0.9407);fill-opacity:1;"/>
<path d="M11.1044 7.73438L10.1339 8.05802C9.71174 8.19882 9.50061 8.26922 9.28472 8.29718C9.09302 8.32199 8.89904 8.32199 8.70741 8.29718C8.49145 8.26922 8.28036 8.19882 7.85818 8.05802L6.8877 7.73438V18H11.1044V7.73438Z" fill="#F0F0F0" style="fill:#F0F0F0;fill:color(display-p3 0.9407 0.9407 0.9407);fill-opacity:1;"/>
<path d="M72.3984 15.5308H80.6312V12.9975H75.107V10.176H79.5237V7.64487H75.107V5.02887H80.6312V2.5H72.3984V15.5308Z" fill="#F0F0F0" style="fill:#F0F0F0;fill:color(display-p3 0.9407 0.9407 0.9407);fill-opacity:1;"/>
<path d="M136.432 15.5308H144.664V12.9975H139.14V10.176H143.557V7.64487H139.14V5.02887H144.664V2.5H136.432V15.5308Z" fill="#F0F0F0" style="fill:#F0F0F0;fill:color(display-p3 0.9407 0.9407 0.9407);fill-opacity:1;"/>
<path d="M38.2389 11.749L35.0012 2.5069H31.4844V15.5289H34.041V6.72022L37.1671 15.5333H39.2951L42.3341 6.74926V15.5289H44.9242V2.50244H41.5146L38.2389 11.749Z" fill="#F0F0F0" style="fill:#F0F0F0;fill:color(display-p3 0.9407 0.9407 0.9407);fill-opacity:1;"/>
<path d="M92.8671 6.95486V6.39636C92.8671 3.80717 91.148 2.49805 88.8479 2.49805H83.2656V15.5222H85.9675V11.0229H87.9458L90.1783 15.5311H93.1775L90.5651 10.5315C92.2266 9.95066 92.8671 8.70184 92.8671 6.95486ZM90.1612 6.91911C90.1612 8.04951 89.491 8.4829 88.6179 8.4829H85.9384V5.02916H88.6179C89.491 5.02916 90.1612 5.47596 90.1612 6.6555V6.91911Z" fill="#F0F0F0" style="fill:#F0F0F0;fill:color(display-p3 0.9407 0.9407 0.9407);fill-opacity:1;"/>
<path d="M133.973 6.95486V6.39636C133.973 3.80717 132.251 2.49805 129.954 2.49805H124.371V15.5222H127.073V11.0229H129.05L131.282 15.5311H134.29L131.685 10.5315C133.333 9.95066 133.973 8.70184 133.973 6.95486ZM131.266 6.91911C131.266 8.04951 130.597 8.4829 129.723 8.4829H127.045V5.02916H129.723C130.597 5.02916 131.266 5.47596 131.266 6.6555V6.91911Z" fill="#F0F0F0" style="fill:#F0F0F0;fill:color(display-p3 0.9407 0.9407 0.9407);fill-opacity:1;"/>
<path d="M52.5674 2.31934C49.5976 2.31934 47.416 4.50865 47.416 7.76357V10.2545C47.416 13.5116 49.5708 15.7233 52.5674 15.7233C55.5639 15.7233 57.7722 13.5116 57.7722 10.2545V7.76357C57.7722 4.49971 55.5349 2.31934 52.5674 2.31934ZM55.0615 10.2813C55.0615 12.1757 53.9182 13.1854 52.5607 13.1854C51.2031 13.1854 50.1268 12.1981 50.1268 10.2813V7.81049C50.1268 5.88926 51.1919 4.87279 52.5607 4.87279C53.9295 4.87279 55.0615 5.89372 55.0615 7.81049V10.2813Z" fill="#F0F0F0" style="fill:#F0F0F0;fill:color(display-p3 0.9407 0.9407 0.9407);fill-opacity:1;"/>
<path d="M64.7018 2.46436H60.0439V15.5309H64.7018C67.6962 15.5309 69.938 13.3193 69.938 10.0622V7.91082C69.938 4.6492 67.723 2.46436 64.7018 2.46436ZM67.1692 10.0219C67.1692 11.9164 66.0282 12.9262 64.6572 12.9262H62.7235V5.02004H64.6638C66.0349 5.02004 67.1759 6.03874 67.1759 7.92423L67.1692 10.0219Z" fill="#F0F0F0" style="fill:#F0F0F0;fill:color(display-p3 0.9407 0.9407 0.9407);fill-opacity:1;"/>
<path d="M193.04 6.95486V6.39636C193.04 3.80717 191.32 2.49805 189.02 2.49805H183.438V15.5222H186.135V11.0229H188.112L190.344 15.5311H193.353L190.744 10.5315C192.387 9.95066 193.04 8.70184 193.04 6.95486ZM190.331 6.91911C190.331 8.04951 189.662 8.4829 188.791 8.4829H186.111V5.02916H188.791C189.666 5.02916 190.331 5.47596 190.331 6.6555V6.91911Z" fill="#F0F0F0" style="fill:#F0F0F0;fill:color(display-p3 0.9407 0.9407 0.9407);fill-opacity:1;"/>
<path d="M178.061 10.4578C178.061 12.3791 177.146 13.2012 175.817 13.2012C174.488 13.2012 173.609 12.3836 173.609 10.4578V2.50488H170.907V10.4578C170.907 13.715 172.887 15.7145 175.819 15.7145C178.751 15.7145 180.776 13.6994 180.776 10.4578V2.50488H178.061V10.4578Z" fill="#F0F0F0" style="fill:#F0F0F0;fill:color(display-p3 0.9407 0.9407 0.9407);fill-opacity:1;"/>
<path d="M150.734 2.4779L146.104 15.5311H148.808L149.681 12.9374H154.502L155.365 15.4976H158.177L153.642 2.47119L150.734 2.4779ZM150.511 10.5001L152.173 5.62558L153.735 10.5113L150.511 10.5001Z" fill="#F0F0F0" style="fill:#F0F0F0;fill:color(display-p3 0.9407 0.9407 0.9407);fill-opacity:1;"/>
<path d="M202.869 2.50684L199.877 8.14096L196.974 2.50684H193.997L198.488 10.681V15.5355H201.189V10.7323L205.827 2.50684H202.869Z" fill="#F0F0F0" style="fill:#F0F0F0;fill:color(display-p3 0.9407 0.9407 0.9407);fill-opacity:1;"/>
<path d="M103.069 10.701L98.5253 2.5H95.4775V15.5308H98.1214V6.65968L103.129 15.5287H105.704V2.5H103.069V10.701Z" fill="#F0F0F0" style="fill:#F0F0F0;fill:color(display-p3 0.9407 0.9407 0.9407);fill-opacity:1;"/>
<path d="M112.349 5.02461H116.02V15.5244H118.724V5.02461H122.387V2.50244H112.345L112.349 5.02461Z" fill="#F0F0F0" style="fill:#F0F0F0;fill:color(display-p3 0.9407 0.9407 0.9407);fill-opacity:1;"/>
<path d="M163.954 15.7523C161.013 15.7523 158.985 14.4722 158.985 11.6774V11.2955H161.627V11.6126C161.627 13.058 162.744 13.4244 163.887 13.4244C165.101 13.4244 166.033 13.058 166.033 11.9768C166.033 10.8956 164.637 10.4666 162.907 9.94167C161.42 9.49482 159.231 8.74644 159.231 6.07459C159.231 3.48093 161.209 2.25 163.936 2.25C166.168 2.25 168.473 3.2486 168.473 6.04778V6.33151H165.883V6.14831C165.883 5.16759 165.117 4.58452 163.954 4.58452C162.89 4.58452 162.009 4.88387 162.009 5.81544C162.009 7.07988 163.61 7.30552 165.09 7.77018C166.57 8.23486 168.774 9.02349 168.774 11.5859C168.774 14.5905 166.709 15.7523 163.954 15.7523Z" fill="#F0F0F0" style="fill:#F0F0F0;fill:color(display-p3 0.9407 0.9407 0.9407);fill-opacity:1;"/>
</g>
<defs>
<clipPath id="clip0_4452_2719">
<rect width="206" height="18" fill="white" style="fill:white;fill-opacity:1;"/>
</clipPath>
</defs>
</svg>
