<svg width="126" height="40" viewBox="0 0 126 40" fill="none" xmlns="http://www.w3.org/2000/svg">
<g clip-path="url(#clip0_582_18961)">
<path d="M25.5989 19.0011C25.5989 18.6896 25.475 18.3906 25.2556 18.1696L21.0325 13.9338C20.9878 13.8915 20.9344 13.8596 20.8761 13.8401C20.8178 13.8207 20.756 13.8142 20.6949 13.8211C20.6339 13.828 20.5751 13.8482 20.5226 13.8802C20.4701 13.9122 20.4252 13.9552 20.3909 14.0064C20.12 14.4141 19.8306 14.826 19.5226 15.2422C19.4621 15.3222 19.4327 15.4215 19.4398 15.5216C19.447 15.6217 19.4902 15.7159 19.5614 15.7864L22.4909 18.7264C22.5279 18.7629 22.5572 18.8064 22.5772 18.8544C22.5972 18.9024 22.6075 18.9539 22.6075 19.0059C22.6075 19.0579 22.5972 19.1094 22.5772 19.1573C22.5572 19.2053 22.5279 19.2488 22.4909 19.2853L18.6763 23.1127C17.5704 21.53 16.2939 20.0742 14.87 18.7717C16.5532 17.1896 20.4434 13.0369 20.4434 8.46324C20.4424 6.42927 19.637 4.47869 18.2038 3.03903C17.1347 1.96544 15.7717 1.23412 14.2877 0.937729C12.8036 0.641333 11.2652 0.793193 9.86726 1.37407C8.46936 1.95495 7.27488 2.9387 6.43515 4.20072C5.59542 5.46273 5.14821 6.94621 5.1502 8.46324C5.1502 13.0474 9.04465 17.1969 10.7225 18.7706L10.6942 18.7959C9.2786 20.0926 8.01021 21.5421 6.9121 23.118L3.09325 19.2822C3.01835 19.2067 2.97632 19.1045 2.97632 18.998C2.97632 18.8915 3.01835 18.7893 3.09325 18.7138L6.0238 15.7706C6.09441 15.7015 6.13734 15.6088 6.1445 15.5101C6.15165 15.4114 6.12254 15.3135 6.06265 15.2348C5.76155 14.831 5.47164 14.4189 5.19325 13.999C5.15927 13.9494 5.11506 13.9077 5.06362 13.8766C5.01218 13.8455 4.9547 13.8259 4.89505 13.819C4.83481 13.8126 4.77389 13.8197 4.7167 13.8397C4.6595 13.8597 4.60745 13.8922 4.5643 13.9348L0.341196 18.1738C0.122999 18.3933 0.000488281 18.6907 0.000488281 19.0006C0.000488281 19.3106 0.122999 19.6079 0.341196 19.8274L5.66995 25.1748C4.7008 27.0485 4.20835 28.8738 4.20835 30.5927C4.20835 32.878 5.11345 35.0696 6.72415 36.6853C7.92495 37.8917 9.45592 38.7135 11.1231 39.0466C12.7902 39.3798 14.5185 39.2093 16.0889 38.5568C17.6593 37.9043 19.0012 36.7991 19.9444 35.3813C20.8877 33.9635 21.3899 32.2969 21.3874 30.5927C21.3874 28.8769 20.897 27.0559 19.9279 25.1811L25.2609 19.8327C25.4774 19.6107 25.5987 19.3116 25.5989 19.0011ZM12.7942 17.598C11.7143 16.6433 10.7303 15.5849 9.8563 14.438C9.18548 13.5681 8.61388 12.6258 8.15215 11.6285C7.6513 10.5211 7.39825 9.45166 7.39825 8.46008C7.3988 7.02546 7.96724 5.6497 8.97874 4.63487C9.99024 3.62005 11.3621 3.04912 12.7931 3.04745C13.5021 3.04717 14.2041 3.18701 14.8591 3.45896C15.5141 3.73091 16.1092 4.12964 16.6104 4.63234C17.1115 5.13505 17.5089 5.73187 17.7798 6.38867C18.0507 7.04546 18.1898 7.74935 18.1891 8.46008C18.1891 9.45376 17.9361 10.5232 17.4362 11.6369C16.9745 12.6342 16.4029 13.5766 15.7321 14.4464C14.8578 15.5919 13.8739 16.6489 12.7942 17.6022V17.598ZM13.0714 28.7243C12.9976 28.7982 12.8975 28.8397 12.7931 28.8397C12.6888 28.8397 12.5887 28.7982 12.5149 28.7243L8.68555 24.8874C10.3046 22.4296 12.3731 20.5875 12.7931 20.2253C13.2142 20.5864 15.2879 22.4253 16.9049 24.8832L13.0714 28.7243ZM18.922 30.5896C18.9216 31.8051 18.5621 32.9932 17.8888 34.0041C17.2155 35.015 16.2586 35.8033 15.1388 36.2696C14.2075 36.6565 13.1952 36.807 12.1919 36.7078C11.1886 36.6087 10.2252 36.2628 9.38706 35.701C8.54897 35.1392 7.86209 34.3788 7.38732 33.4872C6.91255 32.5956 6.66457 31.6003 6.66535 30.5896C6.66535 29.4748 6.94675 28.2759 7.5022 27.0232L11.9636 31.499C12.184 31.7189 12.4823 31.8423 12.7931 31.8423C13.104 31.8423 13.4023 31.7189 13.6226 31.499L18.0862 27.0201C18.6406 28.2759 18.922 29.4759 18.922 30.5938V30.5896ZM48.8145 18.6864V26.238H45.4303V19.2896C45.4449 18.7924 45.4061 18.2952 45.3148 17.8064C45.246 17.4895 45.0857 17.2 44.8539 16.9738C44.6659 16.795 44.4467 16.6526 44.2071 16.5538C43.9644 16.4716 43.7093 16.4324 43.4532 16.438C42.7616 16.438 42.2079 16.6717 41.7921 17.139C41.3602 17.6674 41.1442 18.4906 41.1442 19.6085V26.2401H37.7611V19.2896C37.7767 18.7766 37.7373 18.2635 37.6435 17.759C37.5669 17.4345 37.3897 17.1427 37.1374 16.9253C36.9569 16.7528 36.7422 16.6201 36.5074 16.5359C36.2411 16.4647 35.966 16.4327 35.6905 16.4411C35.4089 16.4322 35.1289 16.4858 34.8704 16.5981C34.6119 16.7104 34.3814 16.8786 34.1953 17.0906C33.755 17.6022 33.5352 18.4646 33.5359 19.678V26.2327H30.1654V14.1369H33.5349V15.8264C33.7417 15.3775 34.0476 14.9815 34.4295 14.6685C35.0889 14.1162 35.9254 13.8401 36.939 13.8401C37.835 13.8401 38.5815 14.0489 39.1786 14.4664C39.7812 14.8921 40.2247 15.5075 40.4386 16.2148C40.6941 15.6146 41.0999 15.0906 41.6167 14.6938C42.3475 14.1253 43.2897 13.8415 44.4433 13.8422C45.8643 13.8422 46.9483 14.2499 47.6952 15.0653C48.4414 15.8808 48.8145 17.0878 48.8145 18.6864ZM50.2792 20.1885C50.2792 18.3148 50.8487 16.7885 51.9876 15.6096C53.1258 14.4285 54.6493 13.839 56.5582 13.8411C58.4503 13.8411 59.9644 14.4306 61.1005 15.6096C62.2359 16.7871 62.8029 18.3134 62.8015 20.1885C62.8015 22.0952 62.2303 23.6296 61.0879 24.7917C59.9455 25.9538 58.4349 26.5355 56.5561 26.5369C54.5926 26.5369 53.0551 25.9734 51.9435 24.8464C50.8319 23.7208 50.2771 22.1674 50.2792 20.1885ZM58.5784 23.2317C58.983 22.6422 59.1853 21.6282 59.1853 20.1896C59.1853 18.751 58.9813 17.7366 58.5732 17.1464C58.1644 16.5555 57.4924 16.2601 56.5572 16.2601C55.622 16.2601 54.9465 16.5576 54.5307 17.1527C54.1156 17.7464 53.9077 18.7569 53.907 20.1843C53.907 21.6103 54.1135 22.6243 54.5265 23.2264C54.9381 23.8173 55.6153 24.1127 56.5582 24.1127C57.5011 24.1127 58.1738 23.8173 58.5763 23.2264L58.5784 23.2317ZM64.3671 9.29271H67.7365V26.2401H64.365L64.3671 9.29271ZM82.4271 20.1874C82.4271 18.2801 82.9808 16.7457 84.0882 15.5843C85.1956 14.4229 86.7121 13.8418 88.6378 13.8411C90.1939 13.8411 91.4385 14.2253 92.3716 14.9938C93.3051 15.7622 94.0044 16.978 94.2385 18.7538L90.952 18.7811C90.8106 17.9706 90.5632 17.3639 90.2097 16.9611C89.8562 16.5597 89.3312 16.3569 88.6347 16.3527C87.7016 16.3527 87.046 16.6562 86.668 17.2632C86.29 17.8703 86.1017 18.8432 86.1031 20.1822C86.1031 21.5373 86.2897 22.5127 86.6628 23.1085C87.0359 23.7043 87.6935 24.0036 88.6357 24.0064C89.8537 24.0064 90.6234 23.3092 90.9447 21.9148L94.2312 21.9201C94.0695 23.4896 93.4374 24.5538 92.4399 25.3411C91.4424 26.1285 90.1792 26.5348 88.6357 26.5348C86.6722 26.5348 85.1462 25.9776 84.0577 24.8632C82.9706 23.7474 82.4278 22.1889 82.4271 20.1874ZM106.653 14.139V26.2422H103.366V24.5496C102.698 25.8759 101.563 26.539 99.961 26.539C99.2931 26.555 98.6279 26.448 97.9986 26.2232C97.4387 26.0022 96.9384 25.6525 96.538 25.2022C96.1104 24.7576 95.8129 24.2038 95.6781 23.6011C95.5227 22.959 95.445 22.1376 95.445 21.1369V14.1401H98.8974V20.9717C98.8848 21.486 98.918 21.998 98.9971 22.5074C99.058 22.8338 99.2071 23.1359 99.4276 23.3811C99.6082 23.5917 99.8434 23.7496 100.106 23.8369C100.429 23.9285 100.765 23.9706 101.101 23.9611C101.417 23.9696 101.73 23.8995 102.012 23.7571C102.294 23.6147 102.536 23.4046 102.717 23.1453C103.118 22.605 103.318 21.7955 103.318 20.7169V14.1401L106.653 14.139ZM108.863 9.29271H112.228V26.2401H108.863V9.29271ZM122.444 22.4664C122.321 22.9273 122.06 23.339 121.695 23.6453C121.287 23.9717 120.71 24.1348 119.964 24.1348C119.054 24.1348 118.358 23.8752 117.878 23.3559C117.399 22.8359 117.16 22.0717 117.16 21.0632H125.998C126.045 18.6282 125.496 16.7881 124.348 15.5432C123.265 14.4085 121.796 13.8411 119.941 13.8411C118.104 13.8411 116.639 14.3769 115.547 15.4485C114.401 16.5517 113.828 18.1236 113.828 20.1643C113.828 22.2043 114.409 23.7917 115.571 24.9264C116.638 26.0001 118.102 26.5369 119.964 26.5369C121.527 26.5369 122.803 26.1962 123.793 25.5148C124.783 24.8341 125.45 23.8201 125.796 22.4727H122.444V22.4664ZM117.785 17.0917C118.24 16.4931 118.958 16.1938 119.94 16.1938C120.78 16.1938 121.42 16.4278 121.86 16.8959C122.261 17.3527 122.497 17.9671 122.569 18.739H117.183C117.228 18.1453 117.435 17.5738 117.785 17.0917ZM77.6527 22.4664C77.5302 22.9273 77.2688 23.339 76.9041 23.6453C76.496 23.9717 75.9192 24.1348 75.1737 24.1348C74.2623 24.1348 73.5672 23.8752 73.0884 23.3559C72.6089 22.8359 72.3691 22.0717 72.3691 21.0632H81.2049C81.2525 18.6282 80.7026 16.7881 79.5553 15.5432C78.4724 14.4085 77.0035 13.8411 75.1485 13.8411C73.311 13.8411 71.8466 14.3769 70.7553 15.4485C69.6087 16.5517 69.0354 18.1236 69.0354 20.1643C69.0354 22.2043 69.6164 23.7917 70.7784 24.9264C71.8465 26.0001 73.311 26.5369 75.1716 26.5369C76.7347 26.5369 78.0111 26.1962 79.0009 25.5148C79.9914 24.8341 80.6592 23.8201 81.0043 22.4727H77.6527V22.4664ZM72.9928 17.0917C73.4478 16.4931 74.1664 16.1938 75.1485 16.1938C75.9885 16.1938 76.629 16.4278 77.07 16.8959C77.469 17.3527 77.7042 17.9671 77.7756 18.739H72.3922C72.4363 18.1453 72.6442 17.5738 72.9928 17.0917Z" fill="white" style="fill:white;fill-opacity:1;"/>
</g>
<defs>
<clipPath id="clip0_582_18961">
<rect width="126" height="40" fill="white" style="fill:white;fill-opacity:1;"/>
</clipPath>
</defs>
</svg>
