<svg width="109" height="20" viewBox="0 0 109 20" fill="none" xmlns="http://www.w3.org/2000/svg">
<g clip-path="url(#clip0_4452_2706)">
<path d="M102.643 16.4333L98.5552 6.97914H101.292L104.085 13.7582L107.309 6.97914H110L103.642 20H100.9L102.643 16.4333ZM92.6851 14.4727C92.9262 14.4182 93.1591 14.3317 93.3777 14.2155C93.5892 14.1016 93.7856 13.9614 93.9624 13.7982C94.1393 13.6361 94.2922 13.4494 94.4166 13.2438C94.545 13.0274 94.6442 12.7948 94.7118 12.5522C94.7878 12.2865 94.826 12.0113 94.8253 11.7348C94.8266 11.4545 94.7883 11.1755 94.7118 10.906C94.6424 10.663 94.5413 10.4304 94.4109 10.2143C94.2859 10.0075 94.133 9.81896 93.9567 9.65419C93.7838 9.49041 93.5889 9.35187 93.3777 9.24264C93.1577 9.13094 92.9252 9.04649 92.6851 8.99114C92.4318 8.93301 92.1728 8.90425 91.913 8.9054C91.6551 8.90418 91.3979 8.93295 91.1466 8.99114C90.9102 9.04667 90.6814 9.13113 90.4653 9.24264C90.251 9.35241 90.0524 9.49085 89.8749 9.65419C89.698 9.81839 89.5451 10.007 89.4208 10.2143C89.2911 10.43 89.1917 10.6628 89.1255 10.906C89.0544 11.1763 89.02 11.4551 89.0234 11.7348C89.0205 12.0106 89.0549 12.2856 89.1255 12.5522C89.1921 12.7934 89.2915 13.0242 89.4208 13.2381C89.544 13.4462 89.6971 13.635 89.8749 13.7982C90.0528 13.9601 90.2491 14.1001 90.4597 14.2155C90.6743 14.3314 90.9035 14.4179 91.1409 14.4727C91.3938 14.5334 91.653 14.5641 91.913 14.5642C92.173 14.5635 92.432 14.5329 92.6851 14.4727ZM89.9203 16.5876C89.5019 16.4809 89.0992 16.3195 88.7225 16.1075C87.9868 15.6908 87.3797 15.0776 86.9683 14.3355C86.7555 13.9526 86.5932 13.5433 86.4857 13.118C86.262 12.2038 86.262 11.2486 86.4857 10.3344C86.5928 9.91082 86.7551 9.50337 86.9683 9.12261C87.3817 8.38353 87.9884 7.77267 88.7225 7.35639C89.0992 7.14433 89.5019 6.98291 89.9203 6.87625C90.3692 6.76071 90.8309 6.70309 91.2942 6.70477C91.5447 6.70416 91.795 6.71944 92.0436 6.7505C92.2719 6.77902 92.4977 6.82488 92.7191 6.88768C92.9241 6.94725 93.1251 7.0198 93.3209 7.10489C93.5037 7.18239 93.6802 7.27412 93.8489 7.37925C94.0094 7.47813 94.1597 7.59303 94.2974 7.72221C94.4245 7.84647 94.5422 7.98022 94.6493 8.12232V6.97914H97.2495V16.4847H94.6493V15.3415C94.4829 15.5537 94.2924 15.7456 94.0816 15.9131C93.85 16.0969 93.5964 16.2505 93.3266 16.3704C93.0261 16.5011 92.7119 16.597 92.3899 16.6562C92.0288 16.7259 91.6618 16.7603 91.2942 16.7591C90.8309 16.7608 90.3692 16.7031 89.9203 16.5876ZM80.4793 9.38554C80.8523 9.39315 81.2245 9.35087 81.5864 9.25979C81.8687 9.18806 82.1321 9.05544 82.3585 8.87111C82.5622 8.7008 82.7187 8.48024 82.8126 8.23092C82.9132 7.94678 82.9613 7.64652 82.9546 7.34496C82.9595 7.0449 82.9095 6.74649 82.807 6.46471C82.7133 6.21683 82.5567 5.99805 82.3528 5.83024C82.127 5.64957 81.8658 5.51905 81.5864 5.44727C81.2248 5.35433 80.8525 5.31013 80.4793 5.31581H77.9247V9.38554H80.4793ZM75.2337 3.07517H80.7348C81.5977 3.07517 82.3471 3.18186 82.9829 3.39526C83.6188 3.60865 84.1411 3.90207 84.5498 4.27551C84.9585 4.64975 85.2736 5.11586 85.4695 5.6359C85.6743 6.18383 85.7763 6.76526 85.7704 7.35067C85.7782 7.93624 85.6761 8.51801 85.4695 9.06545C85.2702 9.58039 84.9554 10.042 84.5498 10.4144C84.1373 10.7955 83.615 11.0927 82.9829 11.3061C82.3471 11.5195 81.5977 11.6262 80.7348 11.6262H77.9247V16.4847H75.2337V3.07517ZM63.6752 6.97342H66.2583V8.11661C66.4177 7.89516 66.6068 7.69703 66.8203 7.52787C67.0453 7.34805 67.2913 7.19642 67.5526 7.07631C67.8412 6.94539 68.1442 6.84945 68.4553 6.79051C68.7998 6.72678 69.1496 6.69616 69.4999 6.69906C70.0476 6.69097 70.5921 6.78396 71.1065 6.97342C71.5642 7.14301 71.9791 7.41237 72.3214 7.76222C72.6651 8.12551 72.9249 8.56077 73.0821 9.03687C73.2635 9.58391 73.3518 10.1579 73.3433 10.7345V16.479H70.7715V11.409C70.7783 11.0373 70.7266 10.6669 70.6183 10.3115C70.5295 10.0188 70.3805 9.74806 70.1811 9.51701C69.9877 9.30421 69.7463 9.14148 69.4772 9.04258C69.1716 8.9312 68.8484 8.87696 68.5234 8.88254C68.1985 8.87772 67.8754 8.93194 67.5697 9.04258C67.2984 9.14046 67.0549 9.30327 66.86 9.51701C66.6599 9.74974 66.5109 10.0224 66.4229 10.3172C66.3158 10.669 66.264 11.0354 66.2696 11.4033V16.479H63.6752V6.97342ZM57.3168 14.4498C57.563 14.3884 57.8011 14.2982 58.0265 14.1812C58.2415 14.0708 58.4387 13.9282 58.6112 13.7582C58.783 13.5901 58.9319 13.3999 59.054 13.1923C59.1779 12.9785 59.2697 12.7473 59.3265 12.5064C59.3878 12.2481 59.4183 11.9833 59.4174 11.7176C59.4193 11.4501 59.3888 11.1832 59.3265 10.9231C59.2107 10.4477 58.9626 10.0154 58.6112 9.67705C58.4365 9.50809 58.2398 9.36387 58.0265 9.24836C57.8028 9.12757 57.5642 9.03724 57.3168 8.97971C57.0487 8.91767 56.7744 8.88698 56.4993 8.88826C56.2261 8.88702 55.9537 8.91771 55.6875 8.97971C55.4399 9.0363 55.2012 9.12669 54.9779 9.24836C54.7668 9.36472 54.5721 9.50888 54.3988 9.67705C54.2275 9.8427 54.082 10.0335 53.9674 10.2429C53.8502 10.458 53.7587 10.6864 53.6949 10.9231C53.6274 11.1824 53.5949 11.4496 53.5984 11.7176C53.5962 11.9837 53.6287 12.2489 53.6949 12.5064C53.757 12.7456 53.8485 12.976 53.9674 13.1923C54.083 13.4028 54.2284 13.5954 54.3988 13.7639C54.5741 13.93 54.7732 14.0687 54.9892 14.1755C55.2142 14.2934 55.4525 14.3836 55.6989 14.4441C55.9648 14.5076 56.2374 14.5383 56.5107 14.5356C56.7859 14.5385 57.0604 14.5077 57.3282 14.4441M54.9836 16.5819C54.5178 16.4734 54.0662 16.3103 53.6381 16.096C53.2363 15.8924 52.8639 15.6347 52.5311 15.3301C52.2072 15.036 51.9263 14.6973 51.6965 14.3241C51.4648 13.9431 51.287 13.5314 51.1686 13.1009C50.9208 12.1898 50.9208 11.2283 51.1686 10.3172C51.2866 9.88835 51.4644 9.47846 51.6965 9.09974C51.928 8.72775 52.2087 8.38929 52.5311 8.09374C52.8629 7.78628 53.2355 7.5266 53.6381 7.32209C54.0662 7.10788 54.5178 6.94482 54.9836 6.83624C55.9925 6.60471 57.0403 6.60471 58.0492 6.83624C58.5135 6.9436 58.9633 7.10672 59.389 7.32209C59.7898 7.52958 60.162 7.789 60.496 8.09374C60.8246 8.38795 61.1111 8.72649 61.3476 9.09974C61.5828 9.47758 61.7625 9.88765 61.8812 10.3172C62.129 11.2283 62.129 12.1898 61.8812 13.1009C61.7603 13.5324 61.5787 13.9443 61.3419 14.3241C61.1088 14.6982 60.824 15.0369 60.496 15.3301C60.1611 15.632 59.789 15.8894 59.389 16.096C58.9651 16.311 58.5172 16.4741 58.0549 16.5819C57.0458 16.8126 55.9983 16.8126 54.9892 16.5819M44.9067 14.4441C45.1529 14.3827 45.391 14.2926 45.6164 14.1755C45.8314 14.0651 46.0286 13.9225 46.2011 13.7525C46.3729 13.5844 46.5218 13.3941 46.6439 13.1866C46.7678 12.9727 46.8596 12.7416 46.9164 12.5007C46.9777 12.2423 47.0082 11.9775 47.0073 11.7119C47.0092 11.4443 46.9787 11.1775 46.9164 10.9174C46.8006 10.442 46.5525 10.0097 46.2011 9.67134C46.0264 9.50238 45.8297 9.35815 45.6164 9.24264C45.3927 9.12186 45.1541 9.03152 44.9067 8.97399C44.6386 8.91196 44.3643 8.88127 44.0892 8.88254C43.816 8.8813 43.5436 8.91199 43.2774 8.97399C43.0298 9.03059 42.7911 9.12097 42.5678 9.24264C42.3567 9.35906 42.162 9.50322 41.9887 9.67134C41.8174 9.83698 41.6719 10.0278 41.5573 10.2372C41.4402 10.4524 41.3487 10.6807 41.2848 10.9174C41.2173 11.1767 41.1848 11.4439 41.1883 11.7119C41.1861 11.978 41.2186 12.2431 41.2848 12.5007C41.3469 12.7399 41.4385 12.9703 41.5573 13.1866C41.6729 13.3971 41.8183 13.5897 41.9887 13.7582C42.1602 13.9254 42.3553 14.066 42.5678 14.1755C42.7928 14.2934 43.031 14.3836 43.2774 14.4441C43.5434 14.5076 43.816 14.5383 44.0892 14.5356C44.3644 14.5385 44.6389 14.5077 44.9067 14.4441ZM42.5564 16.5876C42.0906 16.4791 41.6391 16.3161 41.211 16.1017C40.8092 15.8981 40.4368 15.6405 40.1039 15.3358C39.7802 15.0416 39.4992 14.703 39.2694 14.3298C39.0376 13.9489 38.8599 13.5371 38.7414 13.1066C38.4936 12.1955 38.4936 11.2341 38.7414 10.323C38.8595 9.89407 39.0372 9.48417 39.2694 9.10546C39.5008 8.73346 39.7816 8.395 40.1039 8.09946C40.4358 7.792 40.8083 7.53231 41.211 7.32781C41.6391 7.1136 42.0907 6.95054 42.5564 6.84196C43.5654 6.61042 44.6131 6.61042 45.6221 6.84196C46.0844 6.9497 46.5323 7.11281 46.9562 7.32781C47.359 7.53487 47.7331 7.79431 48.0689 8.09946C48.3974 8.39366 48.684 8.7322 48.9204 9.10546C49.1536 9.48363 49.3315 9.89368 49.4484 10.323C49.6962 11.2341 49.6962 12.1955 49.4484 13.1066C49.3293 13.5379 49.1496 13.9497 48.9148 14.3298C48.6817 14.7039 48.3969 15.0426 48.0689 15.3358C47.7322 15.6382 47.3582 15.8956 46.9562 16.1017C46.5341 16.3163 46.0881 16.4794 45.6277 16.5876C44.6187 16.8184 43.5711 16.8184 42.5621 16.5876M22.1643 3.07517H24.8893L29.5332 10.2258L34.2111 3.07517H36.9361V16.4847H34.2395V7.2878L30.3791 13.2209H28.7327L24.8723 7.2878V16.4904H22.1757L22.1643 3.07517ZM15.965 5.47585C16.5026 5.47585 17.0281 5.31542 17.4752 5.01482C17.9222 4.71423 18.2708 4.28696 18.4768 3.787C18.6827 3.28704 18.7369 2.73683 18.6325 2.20588C18.528 1.67493 18.2696 1.18707 17.8898 0.803941C17.5101 0.420808 17.0261 0.159597 16.499 0.0533085C15.9718 -0.0529796 15.4253 0.000425597 14.9283 0.206776C14.4313 0.413127 14.0062 0.763164 13.7067 1.21266C13.4072 1.66216 13.2468 2.19094 13.2457 2.73221C13.2449 3.09224 13.3147 3.44888 13.451 3.78172C13.5873 4.11456 13.7875 4.41707 14.0401 4.67191C14.2927 4.92676 14.5927 5.12894 14.923 5.26689C15.2533 5.40484 15.6074 5.47585 15.965 5.47585ZM7.62534 17.8051C6.31549 17.804 5.03537 17.4119 3.94674 16.6785C2.85811 15.9451 2.00982 14.9033 1.50909 13.6847C1.00835 12.466 0.877626 11.1253 1.13344 9.83187C1.38925 8.53845 2.02012 7.35041 2.94633 6.41787C3.87253 5.48534 5.0525 4.85015 6.33712 4.59259C7.62175 4.33502 8.95337 4.46664 10.1637 4.9708C11.3741 5.47497 12.4089 6.32905 13.1373 7.42513C13.8657 8.52121 14.255 9.81009 14.2562 11.1289C14.2569 12.0058 14.0859 12.8743 13.7529 13.6847C13.42 14.495 12.9316 15.2313 12.3157 15.8514C11.6998 16.4714 10.9686 16.9632 10.1637 17.2984C9.3589 17.6337 8.49632 17.8058 7.62534 17.8051Z" fill="white" style="fill:white;fill-opacity:1;"/>
</g>
<defs>
<clipPath id="clip0_4452_2706">
<rect width="109" height="20" fill="white" style="fill:white;fill-opacity:1;"/>
</clipPath>
</defs>
</svg>
