<svg width="136" height="40" viewBox="0 0 136 40" fill="none" xmlns="http://www.w3.org/2000/svg">
<mask id="mask0_582_19050" style="mask-type:luminance" maskUnits="userSpaceOnUse" x="0" y="0" width="136" height="40">
<path d="M135.817 0.267822H0V39.7483H135.817V0.267822Z" fill="white" style="fill:white;fill-opacity:1;"/>
</mask>
<g mask="url(#mask0_582_19050)">
<path d="M16.2354 9.10571C15.415 9.13667 14.6291 9.2079 13.881 9.31319C13.5635 9.35657 13.3907 9.70649 13.5541 9.98208L15.4873 13.2244C15.5753 13.373 15.745 13.4567 15.9179 13.4412C16.0373 13.4319 16.1568 13.4226 16.2794 13.4164C16.5183 13.4009 16.7006 13.2058 16.7006 12.9736V9.55475C16.7006 9.3039 16.49 9.09953 16.2354 9.10883V9.10571Z" fill="#E5353A" style="fill:#E5353A;fill:color(display-p3 0.8980 0.2078 0.2275);fill-opacity:1;"/>
<path d="M20.5258 9.31325C19.7777 9.20796 18.9919 9.13673 18.1715 9.10577C17.9169 9.09648 17.7063 9.30089 17.7063 9.5517V12.9705C17.7063 13.2059 17.8917 13.401 18.1275 13.4134C18.2469 13.4195 18.3664 13.4288 18.4889 13.4381C18.665 13.4536 18.8316 13.37 18.9196 13.2214L20.8527 9.97907C21.0162 9.70655 20.8464 9.35663 20.5258 9.31014V9.31325Z" fill="#E5353A" style="fill:#E5353A;fill:color(display-p3 0.8980 0.2078 0.2275);fill-opacity:1;"/>
<path d="M12.3501 9.90792C12.2495 9.73759 12.0452 9.654 11.8535 9.70044C11.2468 9.84907 10.6684 10.0194 10.1278 10.2114C9.81028 10.3229 9.72858 10.7317 9.97692 10.9577L13.0291 13.7479C13.1422 13.8501 13.2994 13.8872 13.4471 13.8501C13.6137 13.8098 13.7772 13.7696 13.9438 13.7355C14.2424 13.6705 14.3901 13.336 14.2361 13.0759L12.347 9.91099L12.3501 9.90792Z" fill="#E5353A" style="fill:#E5353A;fill:color(display-p3 0.8980 0.2078 0.2275);fill-opacity:1;"/>
<path d="M10.0619 17.529L5.12059 15.7794C4.72139 15.6369 4.35362 16.0735 4.57994 16.4297C5.23687 17.4671 7.02545 18.2258 9.8356 18.6748C10.1122 18.7182 10.3637 18.5107 10.3637 18.2351V17.9471C10.3637 17.7582 10.2442 17.5909 10.065 17.529H10.0619Z" fill="#E5353A" style="fill:#E5353A;fill:color(display-p3 0.8980 0.2078 0.2275);fill-opacity:1;"/>
<path d="M10.3856 15.6491L5.90636 13.0789C5.71773 12.9704 5.47569 13.0107 5.33428 13.1749C5.0828 13.4629 4.87534 13.7509 4.71503 14.0389C4.57987 14.2804 4.69303 14.5839 4.95707 14.6768L10.0052 16.4605C10.2347 16.541 10.4956 16.4295 10.5805 16.2035C10.5805 16.2035 10.5805 16.1973 10.5805 16.1942C10.6559 15.9898 10.5805 15.7576 10.3887 15.6491H10.3856Z" fill="#E5353A" style="fill:#E5353A;fill:color(display-p3 0.8980 0.2078 0.2275);fill-opacity:1;"/>
<path d="M8.68512 11.1188C8.54683 10.9919 8.33934 10.9609 8.16963 11.0476C7.72015 11.2799 7.30835 11.5276 6.93432 11.7815C6.66081 11.9673 6.67342 12.3699 6.95944 12.5372L10.986 14.8473C11.1589 14.9464 11.379 14.9186 11.5267 14.7823C11.5927 14.7203 11.6619 14.6615 11.7341 14.6058C11.9511 14.4354 11.9699 14.1134 11.7656 13.9276L8.68825 11.1157L8.68512 11.1188Z" fill="#E5353A" style="fill:#E5353A;fill:color(display-p3 0.8980 0.2078 0.2275);fill-opacity:1;"/>
<path d="M24.2789 10.2082C23.7383 10.0193 23.1631 9.84593 22.5532 9.69726C22.3615 9.65082 22.1572 9.73752 22.0566 9.90474L20.1675 13.0696C20.0135 13.3298 20.158 13.6642 20.4598 13.7293C20.6264 13.7664 20.793 13.8035 20.9565 13.8438C21.1042 13.881 21.2614 13.8438 21.3745 13.7416L24.4267 10.9514C24.675 10.7254 24.5933 10.3166 24.2758 10.2052L24.2789 10.2082Z" fill="#E5353A" style="fill:#E5353A;fill:color(display-p3 0.8980 0.2078 0.2275);fill-opacity:1;"/>
<path d="M29.2895 15.7823L24.345 17.532C24.1659 17.597 24.0464 17.7642 24.0464 17.95V18.238C24.0464 18.5136 24.2979 18.7211 24.5745 18.6777C27.3846 18.2287 29.1732 17.47 29.8301 16.4326C30.0564 16.0765 29.6887 15.6399 29.2895 15.7823Z" fill="#E5353A" style="fill:#E5353A;fill:color(display-p3 0.8980 0.2078 0.2275);fill-opacity:1;"/>
<path d="M17.2034 2.12573C6.52552 2.12573 1.88599 12.2862 1.88599 15.4696C1.88599 17.0707 2.73469 19.2291 6.77069 20.4369C7.66344 20.7031 8.68501 20.9199 9.83861 21.0871C10.1121 21.1274 10.3604 20.9199 10.3604 20.6474V20.3532C10.3604 20.1303 10.1938 19.9444 9.9706 19.9135C5.35306 19.2384 3.08674 17.7705 3.08674 15.4727C3.08674 13.7014 4.5421 11.7845 6.98443 10.3507C9.66572 8.77135 13.2962 7.90428 17.2034 7.90428C21.1106 7.90428 24.738 8.77446 27.4224 10.3507C29.8616 11.7876 31.3201 13.7014 31.3201 15.4727C31.3201 17.7674 29.0569 19.2384 24.4362 19.9135C24.213 19.9476 24.0464 20.1334 24.0464 20.3532V20.6474C24.0464 20.9199 24.2947 21.1274 24.5682 21.0871C25.7218 20.9199 26.7434 20.7031 27.6361 20.4369C31.6721 19.2322 32.5208 17.0707 32.5208 15.4696C32.5208 12.2862 27.8813 2.12573 17.2034 2.12573ZM11.0928 7.06506C10.6024 7.06506 10.2032 6.67488 10.2032 6.18865C10.2032 5.70246 10.5993 5.31228 11.0928 5.31228C11.5863 5.31228 11.9824 5.70246 11.9824 6.18865C11.9824 6.67488 11.5832 7.06506 11.0928 7.06506ZM17.2034 6.33732C16.449 6.33732 15.8361 5.73343 15.8361 4.99023C15.8361 4.247 16.449 3.64314 17.2034 3.64314C17.9578 3.64314 18.5707 4.247 18.5707 4.99023C18.5707 5.73343 17.9578 6.33732 17.2034 6.33732ZM23.314 7.06506C22.8237 7.06506 22.4244 6.67488 22.4244 6.18865C22.4244 5.70246 22.8237 5.31228 23.314 5.31228C23.8044 5.31228 24.2036 5.70246 24.2036 6.18865C24.2036 6.67488 23.8044 7.06506 23.314 7.06506Z" fill="#E5353A" style="fill:#E5353A;fill:color(display-p3 0.8980 0.2078 0.2275);fill-opacity:1;"/>
<path d="M27.4727 11.7845C27.0986 11.5306 26.6837 11.2829 26.2373 11.0506C26.0676 10.9639 25.8601 10.9918 25.7218 11.1218L22.6445 13.9337C22.4402 14.1195 22.4591 14.4385 22.6759 14.6119C22.7482 14.6677 22.8142 14.7265 22.8834 14.7884C23.0311 14.9247 23.248 14.9525 23.424 14.8534L27.4475 12.5433C27.7367 12.3791 27.7492 11.9765 27.4727 11.7877V11.7845Z" fill="#E5353A" style="fill:#E5353A;fill:color(display-p3 0.8980 0.2078 0.2275);fill-opacity:1;"/>
<path d="M24.4049 16.4605L29.453 14.6768C29.717 14.5839 29.8302 14.2804 29.695 14.0389C29.5348 13.7509 29.3273 13.4629 29.0758 13.1749C28.9344 13.0107 28.6923 12.9704 28.5037 13.0789L24.0245 15.6491C23.8328 15.7606 23.7542 15.9898 23.8296 16.1942V16.2004C23.9145 16.4264 24.1722 16.541 24.4049 16.4605Z" fill="#E5353A" style="fill:#E5353A;fill:color(display-p3 0.8980 0.2078 0.2275);fill-opacity:1;"/>
<path d="M26.7779 26.5807C26.7779 25.3544 25.8129 24.348 24.5933 24.2551C24.213 23.2672 22.9745 22.6479 22.8456 21.5888V17.402C22.9525 16.1323 21.2709 14.4601 20.8402 15.5873V17.402C20.9785 20.8208 20.067 22.2484 22.6979 24.9704C21.4972 26.1039 22.0598 28.3242 23.6378 28.7856C23.4303 31.3467 21.6072 33.4958 19.1774 34.2638C18.3475 32.8981 16.0592 32.8981 15.2294 34.2638C12.7996 33.4989 10.9764 31.3497 10.769 28.7856C12.3501 28.3242 12.9096 26.1039 11.7089 24.9704C14.3398 22.2515 13.4282 20.8177 13.5634 17.402V15.5873C13.1359 14.4538 11.4511 16.1416 11.558 17.402V21.5888C11.426 22.6479 10.1906 23.2672 9.81028 24.2551C7.58165 24.3418 6.83042 27.4974 8.75099 28.5627C8.85155 32.1766 11.4731 35.2981 14.9371 36.2364C15.506 38.3887 18.9008 38.3887 19.4697 36.2364C22.9337 35.2981 25.5552 32.1766 25.6558 28.5627C26.3284 28.1508 26.7811 27.4168 26.7811 26.5807H26.7779ZM9.9989 25.2337C11.7717 25.2089 11.7717 27.9526 9.9989 27.9278C8.22606 27.9526 8.22606 25.2089 9.9989 25.2337ZM17.2034 36.9022C15.4306 36.927 15.4306 34.1833 17.2034 34.2081C18.9762 34.1833 18.9762 36.927 17.2034 36.9022ZM24.411 27.9278C22.6382 27.9526 22.6382 25.2089 24.411 25.2337C26.1838 25.2089 26.1838 27.9526 24.411 27.9278Z" fill="white" style="fill:white;fill-opacity:1;"/>
<path d="M48.9478 15.897H48.5989C48.3506 15.897 48.1117 15.9496 47.8822 16.0549C47.6119 16.1787 47.3856 16.3862 47.2064 16.6712L44.7169 20.4089C44.6037 20.5761 44.522 20.6938 44.4623 20.7774C44.4026 20.6969 44.3177 20.5793 44.2077 20.4089L41.7213 16.6742C41.539 16.3832 41.3033 16.1726 41.0141 16.0456C40.7846 15.9465 40.5489 15.897 40.3099 15.897H39.961C39.2255 15.897 38.4868 16.3769 38.4868 17.4515V28.0796C38.4868 28.3892 38.7415 28.6401 39.0558 28.6401H40.0082C40.3226 28.6401 40.5772 28.3892 40.5772 28.0796V18.7212L42.4694 21.5361C42.7523 21.9542 42.9629 22.2298 43.1326 22.4063C43.447 22.7315 43.8934 22.8987 44.4623 22.8987C45.0312 22.8987 45.4745 22.7346 45.7888 22.4094C45.9585 22.2329 46.1691 21.9573 46.4552 21.5361L48.3474 18.7243V28.0827C48.3474 28.3923 48.602 28.6432 48.9164 28.6432H49.8688C50.1831 28.6432 50.4378 28.3923 50.4378 28.0827V17.4546C50.4378 16.5256 49.8374 15.9 48.9415 15.9L48.9478 15.897Z" fill="white" style="fill:white;fill-opacity:1;"/>
<path d="M63.002 19.1425C63.002 19.3964 62.9926 19.6442 62.9733 19.8764C62.9671 19.9662 62.9389 20.0096 62.8983 20.0622L60.8708 22.7595C60.7072 22.9639 60.5879 23.0444 60.5342 23.0753C60.4618 23.1125 60.3836 23.1311 60.283 23.1311H59.7296C59.6416 23.1311 59.5504 23.1094 59.4561 23.063C59.4217 23.0475 59.3243 22.9886 59.1856 22.7936L57.2118 20.0901C57.1644 20.0158 57.1363 19.9352 57.1269 19.8392C57.105 19.6287 57.0925 19.3964 57.0925 19.1425V16.4545C57.0925 16.1448 56.8377 15.894 56.5235 15.894H55.571C55.2568 15.894 55.002 16.1448 55.002 16.4545V19.1425C55.002 19.4676 55.0176 19.7835 55.0462 20.0808C55.09 20.5174 55.2411 20.9076 55.486 21.2359L57.4916 23.9827C57.8027 24.3791 58.1169 24.664 58.4535 24.8591C58.6234 24.9582 58.8021 25.0325 58.9908 25.0883V28.0766C58.9908 28.3863 59.2456 28.6371 59.5598 28.6371H60.5123C60.8265 28.6371 61.0813 28.3863 61.0813 28.0766V25.0759C61.2543 25.0232 61.4205 24.952 61.5779 24.8653C61.9301 24.6671 62.26 24.3636 62.5523 23.9672L64.6017 21.2421C64.8502 20.9076 65.0008 20.5298 65.0451 20.1149C65.0764 19.8331 65.092 19.5389 65.092 19.2385V16.4514C65.092 16.1417 64.8377 15.8909 64.523 15.8909H63.571C63.2563 15.8909 63.002 16.1417 63.002 16.4514V19.1394V19.1425Z" fill="white" style="fill:white;fill-opacity:1;"/>
<path d="M71.1495 16.2191C70.4544 16.4762 69.9359 16.9283 69.6467 17.526C69.3987 18.04 69.2788 18.6749 69.2788 19.4645V25.1068C69.2788 25.8686 69.3955 26.4849 69.6311 26.9927C69.9109 27.5966 70.4293 28.0549 71.1271 28.312C71.7117 28.5287 72.485 28.634 73.4943 28.634H77.2851C77.5993 28.634 77.8541 28.3832 77.8541 28.0735V27.1352C77.8541 26.8255 77.5993 26.5747 77.2851 26.5747H73.4943C72.6142 26.5747 72.1489 26.4787 71.9165 26.3951C71.6554 26.3053 71.5736 26.1938 71.533 26.1071C71.4574 25.9492 71.3662 25.6487 71.3662 25.1038V19.4615C71.3662 18.8916 71.4574 18.5851 71.5361 18.4302C71.5767 18.3466 71.6648 18.2258 71.9352 18.1298C72.1676 18.0493 72.6298 17.9502 73.4912 17.9502H77.282C77.5962 17.9502 77.851 17.6994 77.851 17.3897V16.4514C77.851 16.1417 77.5962 15.8909 77.282 15.8909H73.4912C72.4949 15.8909 71.7279 15.9962 71.1432 16.2129L71.1495 16.2191Z" fill="white" style="fill:white;fill-opacity:1;"/>
<path d="M89.5282 16.0583C88.8117 15.7858 87.8779 15.6526 86.6711 15.6526C85.4638 15.6526 84.5525 15.7858 83.8355 16.0583C83.0341 16.3648 82.4494 16.817 82.1039 17.4023C81.7798 17.9473 81.6162 18.5853 81.6162 19.3006V25.2464C81.6162 25.9462 81.7798 26.5811 82.1003 27.1292C82.4494 27.7269 83.0309 28.1852 83.8355 28.4918C84.5525 28.7643 85.4794 28.8974 86.6711 28.8974C87.8623 28.8974 88.8117 28.7643 89.5282 28.4918C90.3296 28.1883 90.9142 27.7331 91.2696 27.1385C91.5994 26.5872 91.7693 25.9493 91.7693 25.2464V19.3006C91.7693 18.5821 91.5994 17.938 91.2665 17.3899C90.9111 16.8077 90.3265 16.3587 89.5282 16.0552V16.0583ZM86.6743 17.715C87.8024 17.715 88.4219 17.8544 88.7424 17.969C89.1072 18.1021 89.3521 18.2662 89.4714 18.4582C89.6131 18.6874 89.6824 18.9661 89.6824 19.3068V25.2525C89.6824 25.5808 89.6131 25.8595 89.4683 26.0949C89.3521 26.2899 89.1072 26.4541 88.7455 26.5872C88.2802 26.7576 87.5856 26.8412 86.6774 26.8412C85.7686 26.8412 85.0959 26.7545 84.6311 26.5872C84.2726 26.4572 84.0335 26.2962 83.9235 26.1072C83.7823 25.8657 83.713 25.587 83.713 25.2525V19.3068C83.713 18.963 83.7823 18.6813 83.9204 18.449C84.059 18.2167 84.3826 18.0619 84.6311 17.9721C85.0959 17.8018 85.7843 17.7181 86.6774 17.7181L86.6743 17.715Z" fill="white" style="fill:white;fill-opacity:1;"/>
<path d="M104.968 16.38C104.352 16.0549 103.522 15.897 102.425 15.897H97.1003C96.7861 15.897 96.5312 16.1478 96.5312 16.4574V28.0796C96.5312 28.3892 96.7861 28.6401 97.1003 28.6401H102.425C103.531 28.6401 104.365 28.4852 104.977 28.1725C105.663 27.8195 106.128 27.3147 106.361 26.6705C106.546 26.1565 106.64 25.5836 106.64 24.9704V19.6286C106.64 18.9968 106.543 18.4146 106.348 17.8881C106.109 17.2472 105.644 16.7393 104.968 16.38ZM103.959 26.3485C103.789 26.4352 103.368 26.5776 102.428 26.5776H98.6249V17.9563H102.428C103.302 17.9563 103.736 18.0864 103.944 18.1916C104.255 18.3527 104.349 18.5168 104.39 18.6252C104.499 18.907 104.553 19.2446 104.553 19.6254V24.9674C104.553 25.3328 104.499 25.6579 104.393 25.9335C104.352 26.0388 104.261 26.1968 103.959 26.3485Z" fill="#E5353A" style="fill:#E5353A;fill:color(display-p3 0.8980 0.2078 0.2275);fill-opacity:1;"/>
<path d="M120.886 21.1428L120.876 21.1212L119.459 17.82C119.267 17.3617 119.063 16.9839 118.833 16.6712C118.579 16.3181 118.072 15.897 117.114 15.897H115.109C114.14 15.897 113.628 16.3088 113.367 16.6587C113.128 16.9777 112.917 17.3679 112.735 17.82L111.418 21.146C111.293 21.4866 111.195 21.8427 111.123 22.205C111.05 22.5767 111.013 22.9854 111.013 23.4189V28.0796C111.013 28.3892 111.267 28.6401 111.581 28.6401H112.534C112.849 28.6401 113.103 28.3892 113.103 28.0796V25.1717H119.195V28.0796C119.195 28.3892 119.45 28.6401 119.764 28.6401H120.716C121.031 28.6401 121.285 28.3892 121.285 28.0796V23.4189C121.285 22.9854 121.247 22.5797 121.175 22.205C121.106 21.8458 121.006 21.4897 120.879 21.146L120.886 21.1428ZM114.98 17.9656C115.005 17.9625 115.049 17.9563 115.109 17.9563H117.114C117.149 17.9563 117.174 17.9563 117.192 17.9594C117.305 18.1328 117.422 18.3558 117.535 18.619L118.94 21.8861C119.025 22.0935 119.088 22.3227 119.132 22.5674C119.16 22.7377 119.182 22.9204 119.192 23.1124H113.115C113.128 22.9266 113.15 22.7501 113.182 22.586C113.232 22.3258 113.298 22.0842 113.377 21.8613L114.681 18.5663C114.775 18.3217 114.876 18.1204 114.98 17.9625V17.9656Z" fill="#E5353A" style="fill:#E5353A;fill:color(display-p3 0.8980 0.2078 0.2275);fill-opacity:1;"/>
<path d="M135.314 17.3959C134.958 16.8137 134.374 16.3647 133.576 16.0612C132.859 15.7887 131.925 15.6555 130.718 15.6555C129.511 15.6555 128.6 15.7887 127.883 16.0612C127.081 16.3678 126.497 16.8199 126.151 17.4052C125.827 17.9502 125.664 18.5881 125.664 19.3035V25.2493C125.664 25.9491 125.827 26.584 126.148 27.1321C126.497 27.7298 127.078 28.1881 127.883 28.4947C128.6 28.7672 129.527 28.9003 130.718 28.9003C131.91 28.9003 132.859 28.7672 133.576 28.4947C134.377 28.1912 134.962 27.736 135.317 27.1414C135.647 26.5902 135.817 25.9522 135.817 25.2493V19.3035C135.817 18.5851 135.647 17.9409 135.314 17.3928V17.3959ZM130.722 17.7148C131.85 17.7148 132.469 17.8542 132.79 17.9688C133.154 18.102 133.399 18.2661 133.519 18.4581C133.66 18.6873 133.73 18.966 133.73 19.3066V25.2523C133.73 25.5806 133.66 25.8593 133.516 26.0947C133.399 26.2898 133.154 26.4539 132.793 26.5871C132.328 26.7574 131.633 26.841 130.725 26.841C129.816 26.841 129.143 26.7543 128.678 26.5871C128.32 26.457 128.081 26.296 127.971 26.1071C127.83 25.8655 127.76 25.5868 127.76 25.2523V19.3066C127.76 18.9628 127.83 18.6811 127.968 18.4488C128.106 18.2166 128.43 18.0617 128.678 17.9719C129.143 17.8016 129.832 17.718 130.725 17.718L130.722 17.7148Z" fill="#E5353A" style="fill:#E5353A;fill:color(display-p3 0.8980 0.2078 0.2275);fill-opacity:1;"/>
</g>
</svg>
