<svg width="166" height="40" viewBox="0 0 166 40" fill="none" xmlns="http://www.w3.org/2000/svg">
<path d="M51.9132 18.5553V27.2464H48.4041V14.7277C48.4041 13.3893 49.1214 12.5542 50.2376 12.5542C50.7729 12.5542 51.1557 12.7335 51.6535 13.1939L60.425 21.2668V12.5756H63.9314V25.2737C63.9314 26.6121 63.1953 27.4472 62.0979 27.4472C61.8303 27.4477 61.5657 27.3908 61.3219 27.2805C61.0782 27.1701 60.8608 27.0088 60.6846 26.8075L51.9132 18.5553Z" fill="white" style="fill:white;fill-opacity:1;"/>
<path d="M73.6877 27.2471C69.48 27.2471 66.3911 24.0592 66.3911 19.8515C66.3911 15.5849 69.48 12.7556 73.6877 12.7556H77.3333C81.6615 12.7556 84.6514 15.6464 84.6514 19.8515C84.6514 24.0565 81.5812 27.2471 77.3333 27.2471H73.6877ZM77.3333 23.5613C79.4881 23.5613 80.9843 22.0838 80.9843 20.0308C80.9843 17.9778 79.4666 16.4227 77.3333 16.4227H73.6877C73.2102 16.409 72.7349 16.4929 72.2909 16.6694C71.847 16.8459 71.4437 17.1112 71.1059 17.449C70.7681 17.7868 70.5028 18.1901 70.3263 18.634C70.1499 19.078 70.0659 19.5533 70.0796 20.0308C70.0796 22.1052 71.5731 23.5613 73.6877 23.5613H77.3333Z" fill="white" style="fill:white;fill-opacity:1;"/>
<path d="M87.1704 27.2464V23.5606H98.1929C99.0494 23.5606 99.5687 23.1591 99.5687 22.4418C99.5687 21.7244 99.0494 21.2667 98.1929 21.2667H91.7341C88.7656 21.2667 86.9321 19.551 86.9321 17.0402C86.9321 14.5884 88.6452 12.7576 91.7742 12.7576H102.32V16.4246H91.7742C91.6367 16.4132 91.4984 16.4323 91.3691 16.4805C91.2399 16.5287 91.1228 16.6049 91.0264 16.7036C90.93 16.8023 90.8566 16.9211 90.8114 17.0515C90.7663 17.1819 90.7505 17.3206 90.7651 17.4578C90.7514 17.5955 90.7681 17.7345 90.8139 17.8651C90.8597 17.9957 90.9335 18.1146 91.0302 18.2136C91.1269 18.3126 91.2441 18.3892 91.3735 18.4381C91.503 18.4869 91.6416 18.5068 91.7796 18.4963H98.2036C101.373 18.4963 103.07 19.8347 103.07 22.779C103.07 25.3299 101.464 27.2437 98.2036 27.2437L87.1704 27.2464Z" fill="white" style="fill:white;fill-opacity:1;"/>
<path d="M108.102 15.3433C108.297 14.6379 108.679 13.9981 109.207 13.4911C109.726 13.0012 110.438 12.755 111.348 12.755H115.674C116.479 12.7136 117.27 12.9763 117.89 13.4911C118.445 13.9857 118.847 14.6283 119.049 15.3433L122.617 27.2465H118.637L117.665 23.7668L116.691 20.2871L115.575 16.232H111.56L108.498 27.2438H104.518L108.102 15.3433Z" fill="white" style="fill:white;fill-opacity:1;"/>
<path d="M145.872 15.3433C146.067 14.6382 146.448 13.9984 146.975 13.4911C147.494 13.0012 148.206 12.755 149.116 12.755H153.442C154.247 12.7136 155.038 12.9763 155.658 13.4911C156.213 13.9857 156.615 14.6283 156.817 15.3433L160.377 27.2465H156.408L155.436 23.7668L154.462 20.2871L153.345 16.2346H149.33L146.268 27.2465H142.288L145.872 15.3433Z" fill="white" style="fill:white;fill-opacity:1;"/>
<path d="M128.337 18.5553V27.2464H124.828V14.7277C124.828 13.3893 125.548 12.5542 126.664 12.5542C127.2 12.5542 127.58 12.7335 128.078 13.1939L136.849 21.2668V12.5756H140.358V25.2737C140.358 26.6121 139.619 27.4472 138.525 27.4472C138.257 27.447 137.992 27.3899 137.748 27.2796C137.504 27.1693 137.286 27.0084 137.109 26.8075L128.337 18.5553Z" fill="white" style="fill:white;fill-opacity:1;"/>
<path d="M14.5415 8.60108C14.0667 7.65238 13.2854 6.89183 12.3243 6.44272C11.3631 5.99361 10.2785 5.88225 9.24617 6.1267C8.21384 6.37115 7.29432 6.95708 6.63666 7.78952C5.979 8.62195 5.62174 9.65209 5.62281 10.713V34H8.73309V10.713C8.73864 10.3557 8.86318 10.0104 9.08701 9.73189C9.31085 9.45335 9.62119 9.25741 9.96891 9.17508C10.3166 9.09276 10.6819 9.12876 11.0068 9.27737C11.3318 9.42599 11.5979 9.67874 11.7631 9.99563L22.2422 30.8897H18.7626L13.2995 20.001H9.81982L16.8461 34H27.2851L14.5415 8.60108Z" fill="#10E80C" style="fill:#10E80C;fill:color(display-p3 0.0627 0.9098 0.0471);fill-opacity:1;"/>
<path d="M34.2417 6.0022V29.2892C34.2351 29.6456 34.1101 29.9896 33.8864 30.2672C33.6628 30.5447 33.3531 30.7399 33.0063 30.8221C32.6595 30.9043 32.2951 30.8687 31.9707 30.7211C31.6463 30.5735 31.3802 30.3221 31.2144 30.0066L20.7352 9.11249H24.2149L29.678 20.0012H33.1577L26.1341 6.0022H15.6951L28.4333 31.4011C28.909 32.349 29.6907 33.1085 30.6517 33.557C31.6127 34.0054 32.6969 34.1165 33.7289 33.8722C34.7609 33.6279 35.6803 33.0425 36.3383 32.2108C36.9963 31.3791 37.3544 30.3497 37.3547 29.2892V6.0022H34.2417Z" fill="#10E80C" style="fill:#10E80C;fill:color(display-p3 0.0627 0.9098 0.0471);fill-opacity:1;"/>
</svg>
