<svg width="87" height="26" viewBox="0 0 87 26" fill="none" xmlns="http://www.w3.org/2000/svg">
<path d="M25.5159 0H0.579832C0.426049 0 0.278557 0.060824 0.16986 0.169238C0.0610465 0.277535 0 0.424484 0 0.577819V25.4223C0 25.5755 0.0610465 25.7225 0.16986 25.8308C0.278557 25.9392 0.426049 26 0.579832 26H25.5159C25.6698 26 25.8173 25.9392 25.926 25.8308C26.0348 25.7225 26.0959 25.5755 26.0959 25.4223V0.577819C26.0959 0.424484 26.0348 0.277535 25.926 0.169238C25.8173 0.060824 25.6698 0 25.5159 0ZM17.3972 16.7556C17.3972 16.9088 17.3362 17.0558 17.2273 17.1642C17.1187 17.2725 16.9712 17.3334 16.8174 17.3334H9.2785C9.12471 17.3334 8.97722 17.2725 8.86841 17.1642C8.75971 17.0558 8.69866 16.9088 8.69866 16.7556V9.24441C8.69866 9.09119 8.75971 8.94424 8.86841 8.83594C8.97722 8.72753 9.12471 8.66671 9.2785 8.66671H16.8174C16.9712 8.66671 17.1187 8.72753 17.2273 8.83594C17.3362 8.94424 17.3972 9.09119 17.3972 9.24441V16.7556Z" fill="white" style="fill:white;fill-opacity:1;"/>
<path d="M77.7261 8.66699H70.1874C69.8671 8.66699 69.6074 8.9256 69.6074 9.24469V16.7559C69.6074 17.075 69.8671 17.3337 70.1874 17.3337H77.7261C78.0464 17.3337 78.3061 17.075 78.3061 16.7559V9.24469C78.3061 8.9256 78.0464 8.66699 77.7261 8.66699Z" fill="white" style="fill:white;fill-opacity:1;"/>
<path d="M69.0172 0H61.4784C61.1581 0 60.8984 0.258614 60.8984 0.577819V8.08888C60.8984 8.40797 61.1581 8.6667 61.4784 8.6667H69.0172C69.3375 8.6667 69.5971 8.40797 69.5971 8.08888V0.577819C69.5971 0.258614 69.3375 0 69.0172 0Z" fill="white" style="fill:white;fill-opacity:1;"/>
<path d="M86.4196 0H78.8807C78.5605 0 78.3008 0.258614 78.3008 0.577819V8.08888C78.3008 8.40797 78.5605 8.6667 78.8807 8.6667H86.4196C86.7399 8.6667 86.9994 8.40797 86.9994 8.08888V0.577819C86.9994 0.258614 86.7399 0 86.4196 0Z" fill="white" style="fill:white;fill-opacity:1;"/>
<path d="M69.0172 17.3325H61.4784C61.1581 17.3325 60.8984 17.5911 60.8984 17.9102V25.4214C60.8984 25.7405 61.1581 25.9992 61.4784 25.9992H69.0172C69.3375 25.9992 69.5971 25.7405 69.5971 25.4214V17.9102C69.5971 17.5911 69.3375 17.3325 69.0172 17.3325Z" fill="white" style="fill:white;fill-opacity:1;"/>
<path d="M86.4196 17.3325H78.8807C78.5605 17.3325 78.3008 17.5911 78.3008 17.9102V25.4214C78.3008 25.7405 78.5605 25.9992 78.8807 25.9992H86.4196C86.7399 25.9992 86.9994 25.7405 86.9994 25.4214V17.9102C86.9994 17.5911 86.7399 17.3325 86.4196 17.3325Z" fill="white" style="fill:white;fill-opacity:1;"/>
<path d="M55.9625 0H48.4237C48.1034 0 47.8438 0.258614 47.8438 0.577819V8.08888C47.8438 8.40797 48.1034 8.6667 48.4237 8.6667H55.9625C56.2827 8.6667 56.5424 8.40797 56.5424 8.08888V0.577819C56.5424 0.258614 56.2827 0 55.9625 0Z" fill="white" style="fill:white;fill-opacity:1;"/>
<path d="M55.9625 17.3325H48.4237C48.1034 17.3325 47.8438 17.5911 47.8438 17.9102V25.4214C47.8438 25.7405 48.1034 25.9992 48.4237 25.9992H55.9625C56.2827 25.9992 56.5424 25.7405 56.5424 25.4214V17.9102C56.5424 17.5911 56.2827 17.3325 55.9625 17.3325Z" fill="white" style="fill:white;fill-opacity:1;"/>
<path d="M47.8465 9.23791C47.8465 9.08469 47.7854 8.93774 47.6767 8.82944C47.5679 8.72102 47.4204 8.6602 47.2666 8.6602H39.1479V0.577819C39.1479 0.424484 39.0867 0.277535 38.978 0.169238C38.8692 0.0608239 38.7217 0 38.5679 0H31.0292C30.8753 0 30.7278 0.0608239 30.6191 0.169238C30.5103 0.277535 30.4492 0.424484 30.4492 0.577819V25.4093C30.4492 25.5625 30.5103 25.7095 30.6191 25.8178C30.7278 25.9262 30.8753 25.987 31.0292 25.987H38.5679C38.7217 25.987 38.8692 25.9262 38.978 25.8178C39.0867 25.7095 39.1479 25.5625 39.1479 25.4093V17.3269H47.2666C47.4204 17.3269 47.5679 17.266 47.6767 17.1577C47.7854 17.0493 47.8465 16.9023 47.8465 16.7491V9.23791Z" fill="white" style="fill:white;fill-opacity:1;"/>
</svg>
