<svg xmlns="http://www.w3.org/2000/svg" width="1711" height="439" fill="none"><path fill="#fff" d="M700.3 335c-21.4 0-40.7-4.6-57.9-13.8-17.2-9.4-30.7-22.3-40.5-38.7-9.8-16.6-14.7-35.1-14.7-55.5s4.9-38.8 14.7-55.2c9.8-16.6 23.3-29.5 40.5-38.7 17.2-9.4 36.5-14.1 57.9-14.1s40.7 4.7 57.9 14.1c17.2 9.2 30.7 22 40.5 38.4s14.7 34.9 14.7 55.5-4.9 39.1-14.7 55.5c-9.8 16.4-23.3 29.3-40.5 38.7-17.2 9.2-36.5 13.8-57.9 13.8Zm0-34.2c14 0 26.6-3.1 37.8-9.3 11.2-6.4 20-15.2 26.4-26.4 6.4-11.4 9.6-24.1 9.6-38.1s-3.2-26.6-9.6-37.8c-6.4-11.4-15.2-20.2-26.4-26.4-11.2-6.4-23.8-9.6-37.8-9.6-14 0-26.6 3.2-37.8 9.6-11.2 6.2-20 15-26.4 26.4-6.4 11.2-9.6 23.8-9.6 37.8 0 14 3.2 26.7 9.6 38.1 6.4 11.2 15.2 20 26.4 26.4 11.2 6.2 23.8 9.3 37.8 9.3Zm369.84 31.2-42.9-61.5c-1.8.2-4.5.3-8.1.3h-47.401V332h-39V122h86.401c18.2 0 34 3 47.4 9 13.6 6 24 14.6 31.2 25.8 7.2 11.2 10.8 24.5 10.8 39.9 0 15.8-3.9 29.4-11.7 40.8-7.6 11.4-18.6 19.9-33 25.5l48.3 69h-42Zm-.9-135.3c0-13.4-4.4-23.7-13.2-30.9-8.8-7.2-21.7-10.8-38.7-10.8h-45.601v83.7h45.601c17 0 29.9-3.6 38.7-10.8 8.8-7.4 13.2-17.8 13.2-31.2ZM1327.37 335c-21.2 0-40.4-4.6-57.6-13.8-17-9.4-30.4-22.3-40.2-38.7-9.6-16.4-14.4-34.9-14.4-55.5s4.9-39.1 14.7-55.5c9.8-16.4 23.2-29.2 40.2-38.4 17.2-9.4 36.4-14.1 57.6-14.1 17.2 0 32.9 3 47.1 9 14.2 6 26.2 14.7 36 26.1l-25.2 23.7c-15.2-16.4-33.9-24.6-56.1-24.6-14.4 0-27.3 3.2-38.7 9.6-11.4 6.2-20.3 14.9-26.7 26.1-6.4 11.2-9.6 23.9-9.6 38.1 0 14.2 3.2 26.9 9.6 38.1 6.4 11.2 15.3 20 26.7 26.4 11.4 6.2 24.3 9.3 38.7 9.3 22.2 0 40.9-8.3 56.1-24.9l25.2 24c-9.8 11.4-21.9 20.1-36.3 26.1-14.2 6-29.9 9-47.1 9Zm290.27-216c18.8 0 35.2 3.7 49.2 11.1 14 7.4 24.8 18.4 32.4 33 7.8 14.4 11.7 31.9 11.7 52.5V332h-39v-54h-109.2v54h-38.4V215.6c0-20.6 3.8-38.1 11.4-52.5 7.8-14.6 18.7-25.6 32.7-33 14-7.4 30.4-11.1 49.2-11.1Zm54.3 126.3V212c0-19.4-4.8-34-14.4-43.8-9.6-10-23-15-40.2-15-17.2 0-30.6 5-40.2 15-9.6 9.8-14.4 24.4-14.4 43.8v33.3h109.2Z"/><path fill="#FFD15C" d="M439 219.5C439 340.727 340.727 439 219.5 439S0 340.727 0 219.5 98.273 0 219.5 0 439 98.273 439 219.5Z"/><path fill="#fff" stroke="#000" stroke-width="17.675" d="M113.184 309.447c1.894-1.286 3.662-3.214 4.542-5.949.978-3.04.401-5.715-.057-7.196a8.433 8.433 0 0 0-.047-.148l.365-2.131c1.008.567 2.168 1.329 3.491 2.259.319.224.765.542 1.229.873.609.435 1.251.893 1.679 1.191.735.511 1.779 1.224 2.885 1.811 29.271 18.193 53.478 25.693 72.705 24.764 19.878-.961 33.818-10.961 41.009-25.554 6.95-14.106 7.192-31.585 2.321-47.777-4.901-16.297-15.211-32.135-30.578-43.096-25.894-18.468-49.621-46.55-61.619-70.428-6.093-12.127-8.517-21.907-7.877-28.293.297-2.972 1.208-4.77 2.297-5.927 1.09-1.158 3.076-2.435 6.902-3.065 8.104-1.335 17.477-4.254 26.989-7.216 3.693-1.15 7.406-2.306 11.075-3.379 13.71-4.009 28.224-7.377 43.48-7.348 29.59.056 64.316 12.902 100.879 66.345 46.969 68.653 21.183 145.369-32.926 185.671-26.985 20.099-60.653 30.767-95.25 26.711-31.152-3.652-63.779-19.329-93.494-52.118Zm5.448-17.769c0 .002-.01.022-.034.057a.247.247 0 0 1 .034-.057Zm-2.941 1.341a.366.366 0 0 1 .094.017.38.38 0 0 1-.094-.017Z"/><path fill="#000" d="M140.072 104.287s83.908-22.343 102.279-22.343c18.371 0 91.779 35.647 113.203 100.79 30.37 92.349-52.238 152.901-61.567 146.965 88.874-73.483-56.601-209.31-128.097-199.098-8.937 1.277-3.972 8.937-3.972 8.937l-1.986 19.86-14.895-24.825-4.965-30.286Z"/><path fill="#000" d="M343.329 154.955c26.497 46.645 20.99 19.939 15.108 73.261 10.885-17.609 27.906-4.424 34.935 2.309 1.26 1.207 3.339.459 3.28-1.285-.268-7.909-2.534-25-15.627-43.335-17.953-25.143-37.696-30.95-37.696-30.95Z"/><path stroke="#000" stroke-width=".993" d="M358.437 228.216c5.882-53.322 11.389-26.616-15.108-73.261 0 0 19.743 5.807 37.696 30.95 13.093 18.335 15.359 35.426 15.627 43.335.059 1.744-2.02 2.492-3.28 1.285-7.029-6.733-24.05-19.918-34.935-2.309Zm0 0 2.595-6.41"/><path fill="#000" d="M130.146 221.103c-11.18 18.928-34.118 17.508-33.679 40.083 20.488 45.519 20.609 42.254 20.609 42.254 37.951-21.319 22.355-68.393 16.724-82.239-.637-1.565-2.795-1.553-3.654-.098Z"/><path fill="#000" d="M44.12 262.952c21.798 2.844 34.8-16.106 52.32-1.861 23.256 44.169 20.608 42.254 20.608 42.254-40.164 16.78-67.657-24.491-75.1-37.453-.842-1.465.496-3.158 2.172-2.94ZM226.959 234.869s21.847 22.345 10.427 25.818c-14.24-8.764-39.756-1.953-52.264 2.265-3.079 1.039-6.098-1.694-4.988-4.749 4.253-11.702 14.755-33.365 34.909-36.243 11.916-2.981 11.916 12.909 11.916 12.909Z"/><path fill="#fff" d="M240.365 125.636c-2.483-3.475-7.447-12.909 7.944-12.909 15.392 0 38.91 17.428 43.692 23.875-1.489 3.929-11.419 4.808-16.384 4.426-4.965-.382-13.406-1.199-19.86-4.426-6.455-3.227-12.909-7.49-15.392-10.966Z"/></svg>