<svg width="74" height="18" viewBox="0 0 74 18" fill="none" xmlns="http://www.w3.org/2000/svg">
<g clip-path="url(#clip0_4452_2500)">
<path d="M6.2669 0H13.6406C17.1311 0 19.9608 2.80309 19.9608 6.26087C19.9608 9.7187 17.1311 12.5217 13.6406 12.5217H9.42704C8.26352 12.5217 7.32028 13.4561 7.32028 14.6087V17.7391H1V11.4783H4.16014C5.32367 11.4783 6.2669 10.5439 6.2669 9.3913V0Z" fill="#FF4E00" style="fill:#FF4E00;fill:color(display-p3 1.0000 0.3059 0.0000);fill-opacity:1;"/>
<path d="M29.0622 17.7219H26.2812V1.65234H34.5082C37.8221 1.65234 39.8383 3.83321 39.8383 6.70278C39.8383 9.93965 37.5672 11.9139 34.5082 11.9139H29.0622V17.7219ZM29.0622 4.13165V9.4346H34.3691C36.1072 9.4346 37.011 8.14904 37.011 6.70278C37.011 5.18765 35.9681 4.13165 34.3691 4.13165H29.0622Z" fill="white" style="fill:white;fill-opacity:1;"/>
<path d="M44.9581 17.9172C42.1308 17.9172 40.2768 16.5627 40.3 14.29C40.3232 11.4434 43.1736 10.8465 45.5606 10.5711C47.4146 10.3645 48.7818 10.2956 48.805 9.33141C48.7818 8.13768 47.8549 7.35715 46.279 7.35715C44.6568 7.35715 43.4981 8.2295 43.3359 9.49211H40.5781C40.833 6.92098 43.1505 5.13037 46.3254 5.13037C49.6393 5.13037 51.4701 6.92098 51.4701 9.51507V15.0246C51.4701 15.369 51.6555 15.5526 52.0726 15.5526H52.7447V17.6646H51.4469C50.1955 17.6646 49.4307 17.1596 49.2222 16.2413C49.1758 16.1265 49.1295 15.9659 49.1063 15.8281C48.3879 17.1366 47.0438 17.9172 44.9581 17.9172ZM45.5143 15.7822C47.3914 15.7822 48.805 14.7262 48.805 13.0963V11.3975C48.3415 12.1092 47.1596 12.2698 45.8619 12.4305C44.3324 12.6142 43.0578 12.8208 43.0578 14.1064C43.0578 15.1624 43.9152 15.7822 45.5143 15.7822Z" fill="white" style="fill:white;fill-opacity:1;"/>
<path d="M57.258 17.6958H54.5234V5.52885H56.725L57.0494 7.91633C57.8374 6.26346 59.2742 5.39111 61.3135 5.39111H61.777V8.03111H61.3135C58.7643 8.03111 57.258 9.38555 57.258 11.6812V17.6958Z" fill="white" style="fill:white;fill-opacity:1;"/>
<path d="M67.169 17.9172C64.3417 17.9172 62.4878 16.5627 62.511 14.29C62.5341 11.4434 65.3846 10.8465 67.7715 10.5711C69.6255 10.3645 70.9928 10.2956 71.016 9.33141C70.9928 8.13768 70.0658 7.35715 68.4899 7.35715C66.8677 7.35715 65.709 8.2295 65.5468 9.49211H62.7891C63.044 6.92098 65.3614 5.13037 68.5363 5.13037C71.8502 5.13037 73.681 6.92098 73.681 9.51507V15.0246C73.681 15.369 73.8664 15.5526 74.2835 15.5526H74.9556V17.6646H73.6578C72.4064 17.6646 71.6417 17.1596 71.4331 16.2413C71.3867 16.1265 71.3404 15.9659 71.3172 15.8281C70.5988 17.1366 69.2547 17.9172 67.169 17.9172ZM67.7252 15.7822C69.6023 15.7822 71.016 14.7262 71.016 13.0963V11.3975C70.5525 12.1092 69.3706 12.2698 68.0728 12.4305C66.5433 12.6142 65.2687 12.8208 65.2687 14.1064C65.2687 15.1624 66.1262 15.7822 67.7252 15.7822Z" fill="white" style="fill:white;fill-opacity:1;"/>
</g>
<defs>
<clipPath id="clip0_4452_2500">
<rect width="74" height="18" fill="white" style="fill:white;fill-opacity:1;"/>
</clipPath>
</defs>
</svg>
