<?xml version="1.0" encoding="UTF-8"?>
<svg width="134px" height="41px" viewBox="0 0 134 41" version="1.1" xmlns="http://www.w3.org/2000/svg" xmlns:xlink="http://www.w3.org/1999/xlink">
    <!-- Generator: sketchtool 52.6 (67491) - http://www.bohemiancoding.com/sketch -->
    <title>7A1E42AB-7B70-4D87-B190-0DA595EB87F1</title>
    <desc>Created with sketchtool.</desc>
    <g id="Paxos-—-Wires" stroke="none" stroke-width="1" fill="none" fill-rule="evenodd">
        <g id="Paxos-—-Home-Wires" transform="translate(-151.000000, -67.000000)">
            <g id="Nav">
                <g id="paxos-logo" transform="translate(150.000000, 67.000000)">
                    <path d="M12.6319586,5.74035146 C13.4316851,4.82898003 14.1605056,4.05115146 14.8567791,3.39983718 C3.08871103,3.01795146 6.51428358,11.5904657 2.67954865,20.30238 C-1.73638284,30.3356657 3.19913838,34.1592085 10.5535997,35.3505514 C9.53418093,34.1381228 8.70190745,32.7511514 8.06840319,31.2540657 C3.30026658,25.2048086 5.21937764,14.1840086 12.6319586,5.74035146" id="Fill-1" fill="#B3D234"></path>
                    <path d="M40.9487878,16.4279972 C39.8538134,19.5357973 37.8440356,23.0231403 35.0031466,26.4554261 C32.7887876,29.1297977 30.3268388,31.2360263 27.7858472,32.7612264 C24.8484796,34.678855 21.204377,35.8104551 17.1301888,35.8104551 C14.8495733,35.8104551 12.6073169,35.6827693 10.5533681,35.3500836 C11.7669066,36.7921122 13.2419835,37.9893123 14.9576759,38.8245409 C25.5970609,44.0092839 26.2689241,34.3777979 37.5255399,29.4905977 C43.8466341,26.7459404 43.8698819,21.3807974 40.9487878,16.4279972" id="Fill-3" fill="#0095D9"></path>
                    <path d="M27.7822429,6.40501993 C29.3514737,6.69319135 30.8404994,7.21330563 32.1737643,7.97239134 C35.746961,10.0095056 39.0016619,13.126677 40.9486705,16.4277626 C42.8654568,10.9876484 41.9727388,6.71076278 37.7788243,5.93644851 C33.1699353,5.0871628 29.5665164,4.81421995 26.1037472,2.37764856 C21.8389266,-0.623551402 18.1006701,0.366305727 14.8564308,3.40030568 C15.0854222,3.40733426 15.3190633,3.41787711 15.5596786,3.43193426 C20.060465,3.69901997 24.3555078,4.5822771 27.7822429,6.40501993" id="Fill-5" fill="#EEE809"></path>
                    <path d="M12.6319587,5.74035128 C5.21937776,14.1840084 3.30026671,25.2048083 8.06840331,31.2540654 C5.92727517,26.1899797 6.07606149,19.8736369 9.09363404,14.8306369 C13.1108647,8.11600841 21.1685738,5.18860842 27.7825907,6.4057227 C24.3558558,4.58180843 20.0608132,3.69972272 15.5611894,3.43146557 C15.3194116,3.41740843 15.0857706,3.408037 14.8567792,3.399837 C14.1605057,4.05115129 13.4316852,4.82897985 12.6319587,5.74035128" id="Fill-7" fill="#51B849"></path>
                    <path d="M32.173531,7.97286012 C30.8402661,7.21260296 29.3512405,6.69366009 27.7820098,6.40548865 C32.2944199,8.80574586 35.2968814,12.8389745 35.263172,19.263089 C35.2329498,24.8367462 32.3757875,29.7626035 27.785497,32.7614607 C30.3264884,31.2362607 32.7895994,29.1300321 35.0027959,26.4556606 C37.8448471,23.0233748 39.8534624,19.5360318 40.9484368,16.4282318 C39.0014283,13.127146 35.7467275,10.008803 32.173531,7.97286012" id="Fill-9" fill="#00845D"></path>
                    <path d="M27.0398216,29.7071937 C21.9450526,33.0059364 15.1520273,31.5346222 11.865942,26.4201652 C8.57985666,21.3057082 10.2048822,14.7199369 15.139241,11.1845656 C20.657121,7.23216569 27.7337703,8.79133708 30.3131206,14.4715941 C32.8285393,20.0101082 32.1334282,26.4084509 27.0398216,29.7071937 M27.7825913,6.40513696 C21.1685743,5.18919415 13.1108651,8.11542261 9.09363439,14.8300509 C6.0760618,19.8730508 5.92611308,26.1905648 8.06840364,31.2534789 C8.7019079,32.7505646 9.53301899,34.1387074 10.5536002,35.3511359 C12.6075488,35.6838216 14.8498052,35.8103359 17.1292582,35.8103359 C21.2046085,35.8103359 24.848711,34.6787359 27.7849161,32.7611074 C32.376369,29.7634218 35.2335313,24.8363934 35.2625911,19.2627365 C35.2974629,12.8386224 32.2938391,8.80539402 27.7825913,6.40513696" id="Fill-11" fill="#005121"></path>
                    <path d="M112.024482,15.0500457 C110.874875,15.0500457 109.768277,15.35696 108.736072,15.9625886 C107.702704,16.5682171 106.885542,17.3940743 106.30667,18.4179028 C105.726636,19.4429028 105.43255,20.6037886 105.43255,21.8689314 C105.43255,23.76196 106.064892,25.3141029 107.364448,26.6167314 C108.665166,27.9181886 110.190225,28.5519314 112.024482,28.5519314 C113.235695,28.5519314 114.371354,28.2520457 115.401234,27.6604743 C116.428789,27.0712457 117.24014,26.2535886 117.815524,25.2309314 C118.392071,24.20476 118.683832,23.0473886 118.683832,21.7892743 C118.683832,20.5405314 118.392071,19.3972171 117.816687,18.39096 C117.241302,17.3858743 116.41949,16.5693886 115.372174,15.96376 C114.324858,15.35696 113.198499,15.0500457 112.024482,15.0500457 M112.086086,30.9744454 C109.531146,30.9744454 107.342359,30.079474 105.581334,28.3141311 C103.820308,26.5487883 102.92759,24.3816455 102.92759,21.8747884 C102.92759,20.2066742 103.333265,18.6393028 104.135317,17.2136742 C104.937368,15.7868742 106.046291,14.6541028 107.433026,13.8446457 C108.818599,13.03636 110.339009,12.6275314 111.951249,12.6275314 C114.558496,12.6275314 116.774018,13.5178171 118.535044,15.2761314 C120.296069,17.0344456 121.18995,19.2273599 121.18995,21.7951313 C121.18995,24.3394741 120.298394,26.528874 118.542018,28.3024169 C116.784479,30.0759597 114.613129,30.9744454 112.086086,30.9744454 Z M129.769108,30.9746801 C128.689245,30.9746801 127.694237,30.6794801 126.813143,30.0972801 C125.94251,29.5221087 125.136972,28.5591944 124.41745,27.2343087 C124.31516,27.0468801 124.377929,26.811423 124.560425,26.7001373 L125.970407,25.8485087 C126.163365,25.7313658 126.414442,25.8004801 126.521382,26.0007944 C127.435023,27.6935087 128.474202,28.5521658 129.611023,28.5521658 C130.099228,28.5521658 130.564185,28.435023 130.991946,28.2065944 C131.418544,27.9781658 131.73239,27.6841373 131.952083,27.3069373 C132.172937,26.926223 132.28104,26.5349658 132.28104,26.1109087 C132.28104,25.6317944 132.12063,25.1679087 131.789348,24.6946515 C131.296493,23.9894515 130.370066,23.1179087 129.034476,22.1022801 C127.607057,21.0163658 126.735262,20.2420515 126.371433,19.7348229 C125.739091,18.8855372 125.415946,17.94488 125.415946,16.94448 C125.415946,16.1502515 125.608903,15.4134229 125.989006,14.7562515 C126.369108,14.0967372 126.911946,13.5707657 127.601245,13.1923943 C128.284732,12.8175372 129.036801,12.6265943 129.836527,12.6265943 C130.683912,12.6265943 131.487125,12.8409657 132.224083,13.2638514 C132.96104,13.6867372 133.707296,14.42708 134.507023,15.5282229 C134.634886,15.7039372 134.598852,15.9499372 134.426818,16.0811372 L133.074955,17.1155086 C132.899433,17.2490515 132.650681,17.2139086 132.518168,17.0381943 C131.928835,16.2498229 131.430168,15.73088 131.036117,15.49308 C130.656014,15.26348 130.252664,15.1521943 129.802818,15.1521943 C129.234407,15.1521943 128.788049,15.3161943 128.437006,15.6547372 C128.090613,15.9885943 127.922066,16.3880515 127.922066,16.8765372 C127.922066,17.18228 127.98716,17.4833372 128.11386,17.7703372 C128.242886,18.0655372 128.492801,18.3993943 128.854305,18.7637086 C128.990305,18.8960801 129.469211,19.2908515 130.951262,20.3955086 C132.439125,21.5013372 133.436459,22.4677658 134.001382,23.3498515 C134.574442,24.2459944 134.86504,25.163223 134.86504,26.0769372 C134.86504,27.3959658 134.364049,28.5545087 133.376014,29.5209373 C132.390305,30.4861944 131.177929,30.9746801 129.769108,30.9746801 Z M99.0185786,30.554254 L96.9867155,30.554254 C96.8762881,30.554254 96.7774847,30.4863111 96.7356386,30.3832254 L94.1597754,24.1512255 C94.0958438,23.9907398 93.8715019,23.9907398 93.8075703,24.1512255 L91.2235704,30.3832254 C91.1817243,30.4863111 91.0817585,30.554254 90.9713311,30.554254 L88.9383056,30.554254 C88.7406987,30.554254 88.6093483,30.3480825 88.6930406,30.1665111 L92.3987499,21.8739684 C92.4998781,21.6560827 92.4998781,21.4030541 92.3999123,21.1851684 L89.0603568,13.6446829 C88.9324936,13.3658829 89.1359124,13.0472543 89.4416218,13.0472543 L91.1515021,13.0472543 C91.3165619,13.0472543 91.4653482,13.1479972 91.5257926,13.3026257 L93.8075703,18.8680828 C93.8738267,19.0391113 94.1144421,19.0391113 94.1818609,18.8680828 L96.4787497,13.2991115 C96.5391941,13.1468257 96.6844933,13.0472543 96.8472283,13.0472543 L98.5757069,13.0472543 C98.8663052,13.0472543 99.0581,13.3506543 98.9360487,13.6153972 L95.5767326,21.1734541 C95.4756044,21.3936827 95.4756044,21.6467113 95.5767326,21.8669398 L99.265006,30.1676825 C99.3475359,30.3480825 99.2161855,30.554254 99.0185786,30.554254 Z M55.3099235,13.5218 C55.3099235,13.2605714 55.5203166,13.0473714 55.7806927,13.0473714 L61.7623681,13.0473714 C64.7055476,13.0473714 67.0907784,15.4523143 67.0907784,18.4183713 L67.0907784,18.5636285 C67.0907784,21.5648284 64.6764878,23.9978855 61.6984364,23.9978855 L58.057821,23.9978855 C57.8846244,23.9978855 57.7439748,24.1396284 57.7439748,24.3141712 L57.7439748,30.0799425 C57.7439748,30.3423425 57.5335817,30.5543711 57.2732056,30.5543711 L55.7806927,30.5543711 C55.5203166,30.5543711 55.3099235,30.3423425 55.3099235,30.0799425 L55.3099235,13.5218 Z M57.7439749,21.2286285 C57.7439749,21.4031714 57.8846245,21.5449142 58.057821,21.5449142 L62.0204193,21.5449142 C63.4768979,21.5449142 64.6578894,20.3547428 64.6578894,18.8881143 L64.6578894,18.2063429 C64.6578894,16.7116001 63.4548124,15.500343 61.9715988,15.500343 L58.057821,15.500343 C57.8846245,15.500343 57.7439749,15.6420858 57.7439749,15.8166287 L57.7439749,21.2286285 Z M83.0048704,30.5539025 C82.8374857,30.5539025 82.6840498,30.4566739 82.6131439,30.3032168 L81.3019643,27.4988169 C81.229896,27.3465311 81.0764601,27.2481311 80.9079131,27.2481311 L72.7258275,27.2481311 C72.5584428,27.2481311 72.4050069,27.3453597 72.3329386,27.4988169 L71.0147847,30.3043882 C70.9427163,30.4566739 70.7904428,30.5539025 70.6218958,30.5539025 L68.8585454,30.5539025 C68.5400496,30.5539025 68.3296565,30.2200454 68.4656565,29.9295311 L76.2629899,13.2975886 C76.3350583,13.1453029 76.4873318,13.0469029 76.6558788,13.0469029 L77.0127335,13.0469029 C77.1824429,13.0469029 77.3358788,13.1453029 77.4067848,13.2999314 L85.10299,29.9318739 C85.2378277,30.2212168 85.0274345,30.5539025 84.7089388,30.5539025 L83.0048704,30.5539025 Z M73.733623,24.5175318 C73.6557427,24.6815318 73.7754692,24.8713032 73.9556401,24.8713032 L79.6571786,24.8713032 C79.8501358,24.8713032 79.9779991,24.668646 79.8954692,24.4929317 L77.0778282,18.4682744 C76.9778623,18.253903 76.6756401,18.253903 76.5756743,18.467103 L73.733623,24.5175318 Z" id="Combined-Shape" fill="#778F9B"></path>
                </g>
            </g>
        </g>
    </g>
</svg>