<svg width="113" height="34" viewBox="0 0 113 34" fill="none" xmlns="http://www.w3.org/2000/svg">
<g clip-path="url(#clip0_4452_2929)">
<path d="M10.2686 4.95645C10.9386 4.20638 11.5492 3.56508 12.1346 3.02801C2.26916 2.7085 5.13915 9.77865 1.92614 16.9622C-1.78083 25.2334 2.36292 28.3855 8.53286 29.3666C7.67068 28.3515 6.96862 27.2116 6.44951 25.9902C2.44753 21.0026 4.05747 11.9178 10.2708 4.95872L10.2686 4.95645Z" fill="#B3D234" style="fill:#B3D234;fill:color(display-p3 0.7020 0.8235 0.2039);fill-opacity:1;"/>
<path d="M34.0107 13.7464C33.0913 16.3094 31.4082 19.1759 29.0276 22.0108C27.3194 24.0684 25.2749 25.8269 22.9743 27.2092C20.5114 28.7909 17.4562 29.7223 14.042 29.7223C12.1965 29.7404 10.3532 29.6135 8.52832 29.3439C9.54371 30.5448 10.8015 31.5193 12.2193 32.2082C21.1403 36.482 21.7028 28.5348 31.1406 24.5125C36.4392 22.251 36.4598 17.8276 34.0107 13.7441V13.7464Z" fill="#0094D8" style="fill:#0094D8;fill:color(display-p3 0.0000 0.5804 0.8471);fill-opacity:1;"/>
<path d="M22.9721 5.50486C24.2642 5.7292 25.5082 6.16656 26.6516 6.7988C29.6474 8.47796 32.3756 11.0477 34.0083 13.7692C35.6206 9.28471 34.8682 5.75866 31.3488 5.12189C27.4817 4.42168 24.4654 4.19507 21.5634 2.18959C17.9868 -0.284976 14.8515 0.530813 12.1348 3.0303C12.3269 3.0303 12.5213 3.0439 12.7247 3.05523C16.498 3.27731 20.0975 4.00471 22.9721 5.50713V5.50486Z" fill="#EDE80A" style="fill:#EDE80A;fill:color(display-p3 0.9294 0.9098 0.0392);fill-opacity:1;"/>
<path d="M10.2693 4.95676C4.05371 11.9159 2.44607 21.0028 6.44347 25.9883C4.6483 21.8142 4.77178 16.6066 7.30331 12.4507C10.6719 6.91465 17.4271 4.50354 22.9727 5.50514C20.1005 4.00273 16.4987 3.27079 12.7254 3.05325C12.5219 3.04192 12.3275 3.03512 12.1354 3.02832C11.5591 3.56538 10.9417 4.20668 10.2693 4.95676Z" fill="#4EAF46" style="fill:#4EAF46;fill:color(display-p3 0.3059 0.6863 0.2745);fill-opacity:1;"/>
<path d="M26.6522 6.79882C25.5065 6.16658 24.2625 5.72922 22.9727 5.50488C26.7551 7.48544 29.2729 10.8098 29.2432 16.1033C29.218 20.6989 26.826 24.7598 22.9727 27.2321C25.271 25.8497 27.3176 24.0913 29.026 22.0337C31.4065 19.2033 33.0919 16.3322 34.0089 13.7693C32.3761 11.0432 29.648 8.47799 26.6522 6.79882Z" fill="#00845E" style="fill:#00845E;fill:color(display-p3 0.0000 0.5176 0.3686);fill-opacity:1;"/>
<path d="M22.3529 24.7142C20.3016 26.0194 17.8113 26.4681 15.4283 25.9605C13.0455 25.4529 10.9599 24.0276 9.63346 22.0017C6.87785 17.7868 8.24081 12.3572 12.3732 9.44309C16.9971 6.18442 22.9314 7.46928 25.0948 12.1578C27.2033 16.7239 26.6202 21.9972 22.3529 24.7164V24.7142ZM22.9726 5.50459C17.4271 4.50299 10.674 6.9141 7.3032 12.4501C4.77396 16.6016 4.64818 21.8159 6.44335 25.9877C6.96246 27.2114 7.66452 28.349 8.52665 29.3642C10.3516 29.6338 12.1947 29.7607 14.0402 29.7426C17.4568 29.7426 20.512 28.8113 22.9726 27.2295C26.8214 24.7572 29.2157 20.6964 29.2431 16.1008C29.2729 10.805 26.7528 7.48061 22.9726 5.50233V5.50459Z" fill="#005222" style="fill:#005222;fill:color(display-p3 0.0000 0.3216 0.1333);fill-opacity:1;"/>
<path fill-rule="evenodd" clip-rule="evenodd" d="M48.091 13.2637V17.7256C48.091 17.7596 48.0979 17.7936 48.1115 17.8253C48.1253 17.857 48.1459 17.8865 48.1687 17.9114C48.1939 17.9363 48.2236 17.9544 48.2556 17.968C48.2877 17.9816 48.3219 17.9862 48.3585 17.9862H51.6813C52.2667 17.9862 52.8293 17.7573 53.2432 17.3472C53.6571 16.937 53.8904 16.3818 53.8927 15.8017V15.2397C53.8927 14.6459 53.6548 14.0772 53.2318 13.6579C52.8087 13.2387 52.2348 13.0031 51.6356 13.0031H48.3539C48.2854 13.0031 48.2167 13.0303 48.1687 13.0801C48.1207 13.13 48.091 13.1957 48.091 13.2637ZM46.0511 25.0223V11.3737C46.0511 11.3216 46.0603 11.2718 46.0809 11.2242C46.1014 11.1766 46.1289 11.1335 46.1655 11.0973C46.202 11.061 46.2455 11.0316 46.2935 11.0135C46.3415 10.9953 46.3918 10.984 46.4444 10.984H51.4572C52.0449 10.984 52.6258 11.0973 53.1677 11.3194C53.7097 11.5414 54.2014 11.8677 54.6176 12.2779C55.0316 12.6881 55.3609 13.1776 55.5872 13.7146C55.8113 14.2516 55.928 14.8273 55.928 15.4096V15.5297C55.928 16.7171 55.4523 17.857 54.6039 18.6977C53.7555 19.5385 52.6052 20.0098 51.4069 20.0098H48.3539C48.2854 20.0098 48.2167 20.037 48.1687 20.0868C48.1207 20.1367 48.091 20.2024 48.091 20.2704V25.0246C48.091 25.1288 48.0498 25.2285 47.9743 25.301C47.9012 25.3736 47.8006 25.4166 47.6953 25.4166H46.4444C46.3392 25.4166 46.2386 25.3758 46.1655 25.301C46.0922 25.2285 46.0488 25.1288 46.0488 25.0246L46.0511 25.0223ZM61.4964 20.4358L63.877 15.4482C63.8954 15.4096 63.9251 15.3757 63.9639 15.3507C64.0028 15.3258 64.044 15.3145 64.0897 15.3145C64.1355 15.3145 64.1766 15.3258 64.2155 15.3507C64.2544 15.3757 64.2818 15.4074 64.3024 15.4482L66.6693 20.4177C66.6853 20.4516 66.6921 20.4879 66.6899 20.5242C66.6876 20.5604 66.6761 20.5967 66.6555 20.6284C66.635 20.6601 66.6075 20.685 66.5755 20.7032C66.5435 20.7213 66.5069 20.7304 66.4703 20.7304H61.6885C61.6542 20.7304 61.6176 20.7236 61.5879 20.7054C61.5559 20.6896 61.5308 20.6646 61.5124 20.6352C61.4941 20.6057 61.4827 20.5717 61.4805 20.5378C61.4782 20.5038 61.485 20.4675 61.501 20.4358H61.4964ZM69.2694 25.4121H70.6964C70.7581 25.4121 70.8176 25.3962 70.8725 25.3668C70.9274 25.3373 70.9709 25.2942 71.0051 25.2444C71.0371 25.1923 71.0577 25.1334 71.0623 25.0744C71.0669 25.0133 71.0554 24.9521 71.0279 24.8977L64.5836 11.1879C64.554 11.1268 64.5082 11.0724 64.4487 11.0361C64.3893 10.9999 64.323 10.9795 64.2521 10.9795H63.9525C63.8839 10.9795 63.8176 10.9999 63.7627 11.0361C63.7055 11.0724 63.6598 11.1245 63.6323 11.1857L57.0943 24.8954C57.0691 24.9498 57.0577 25.011 57.06 25.0722C57.0623 25.1334 57.0828 25.1923 57.1171 25.2421C57.1492 25.2942 57.1949 25.335 57.2498 25.3645C57.3046 25.3939 57.3641 25.4098 57.4259 25.4098H58.9031C58.9718 25.4098 59.0403 25.3894 59.0975 25.3532C59.157 25.3169 59.2027 25.2648 59.2324 25.2013L60.337 22.8899C60.3667 22.8288 60.4148 22.7766 60.472 22.7404C60.5314 22.7041 60.5977 22.6837 60.6663 22.6837H67.5268C67.5955 22.6837 67.6617 22.7041 67.7189 22.7404C67.7761 22.7766 67.8218 22.8288 67.8493 22.8899L68.9493 25.2013C68.979 25.2625 69.0247 25.3146 69.0819 25.3509C69.1391 25.3871 69.2054 25.4075 69.274 25.4098L69.2694 25.4121ZM80.9894 25.4121H82.6932C82.732 25.4121 82.7686 25.403 82.803 25.3849C82.8372 25.3668 82.8647 25.3396 82.8853 25.3078C82.9059 25.2761 82.9172 25.2399 82.9195 25.2013C82.9218 25.1628 82.915 25.1266 82.899 25.0926L79.814 18.249C79.7729 18.1584 79.7523 18.0609 79.7523 17.9635C79.7523 17.8661 79.7729 17.7664 79.814 17.678L82.6314 11.4508C82.6543 11.4009 82.6658 11.3443 82.6612 11.2899C82.6566 11.2355 82.6383 11.1811 82.6086 11.1358C82.5788 11.0905 82.5376 11.052 82.4873 11.0248C82.4393 10.9976 82.3844 10.984 82.3273 10.984H80.8774C80.8111 10.984 80.7471 11.0044 80.6922 11.0406C80.6373 11.0769 80.5939 11.129 80.5687 11.1902L78.6454 15.7813C78.634 15.8153 78.6112 15.8424 78.5837 15.8628C78.554 15.8832 78.5197 15.8946 78.4854 15.8946C78.4511 15.8946 78.4145 15.8832 78.3871 15.8628C78.3573 15.8424 78.3368 15.813 78.3253 15.7813L76.4135 11.1947C76.3883 11.1313 76.3449 11.0792 76.29 11.0406C76.2351 11.0021 76.1688 10.984 76.1002 10.984H74.6664C74.6069 10.984 74.5497 10.9976 74.4971 11.0248C74.4445 11.052 74.4011 11.0928 74.3691 11.1426C74.3371 11.1925 74.3187 11.2491 74.3142 11.3058C74.3096 11.3647 74.321 11.4236 74.3462 11.4757L77.1453 17.6916C77.1864 17.78 77.207 17.8774 77.207 17.9748C77.207 18.0723 77.1864 18.1697 77.1453 18.2581L74.0398 25.1016C74.0237 25.1356 74.0169 25.1741 74.0192 25.2104C74.0214 25.2489 74.0329 25.2852 74.0535 25.3169C74.0741 25.3486 74.1015 25.3758 74.1358 25.3939C74.1701 25.4121 74.2067 25.4211 74.2433 25.4211H75.9493C75.995 25.4211 76.0384 25.4075 76.0773 25.3826C76.114 25.3577 76.1436 25.3214 76.162 25.2806L78.3299 20.1435C78.3436 20.114 78.3642 20.0914 78.3894 20.0732C78.4145 20.0574 78.4465 20.0483 78.4763 20.0483C78.506 20.0483 78.5379 20.0574 78.5631 20.0732C78.5883 20.0891 78.6089 20.114 78.6226 20.1435L80.7814 25.2716C80.7974 25.3146 80.8271 25.3486 80.8637 25.3758C80.9003 25.4007 80.946 25.4143 80.9917 25.4143L80.9894 25.4121ZM93.5971 12.6314C92.6226 12.6405 91.6693 12.9034 90.8273 13.3883C89.9862 13.8755 89.2887 14.5711 88.8035 15.4074C88.3116 16.2753 88.0584 17.2565 88.0695 18.2535C88.0627 18.9764 88.202 19.6925 88.4764 20.361C88.7509 21.0295 89.1578 21.6391 89.6727 22.1512C90.1876 22.6633 90.7976 23.069 91.4722 23.3454C92.1468 23.6219 92.8673 23.7624 93.5971 23.7624C94.5895 23.7692 95.5657 23.5154 96.4255 23.0282C97.2717 22.5568 97.9718 21.8635 98.4493 21.0249C98.9387 20.1593 99.1902 19.1804 99.1766 18.1901C99.1885 17.2089 98.9387 16.2413 98.4493 15.387C97.9599 14.5507 97.2513 13.8596 96.4009 13.386C95.5478 12.8966 94.5801 12.6382 93.5946 12.6382V12.6314H93.5971ZM93.6498 25.7588C91.507 25.7588 89.6701 25.0201 88.1952 23.5653C87.4798 22.8786 86.9123 22.0515 86.5282 21.1405C86.1459 20.2273 85.9564 19.2461 85.97 18.2581C85.9632 16.912 86.3133 15.5864 86.9836 14.4171C87.637 13.2659 88.5886 12.3073 89.7415 11.6434C90.8936 10.9795 92.2037 10.6305 93.5351 10.635C95.7212 10.635 97.5784 11.3692 99.0551 12.8173C100.533 14.2652 101.28 16.0736 101.28 18.1924C101.287 19.1872 101.093 20.1729 100.714 21.0952C100.331 22.0153 99.7713 22.8514 99.0602 23.5562C98.3508 24.261 97.5071 24.8184 96.5767 25.1945C95.6481 25.573 94.6532 25.7656 93.6498 25.7588ZM108.472 25.7588C107.592 25.7656 106.73 25.514 105.994 25.0359C105.267 24.5578 104.59 23.7692 103.986 22.6769C103.945 22.6022 103.934 22.5161 103.957 22.4322C103.979 22.3484 104.031 22.2804 104.105 22.2351L105.287 21.5326C105.326 21.51 105.369 21.4964 105.413 21.4896C105.456 21.4828 105.502 21.4873 105.545 21.4986C105.589 21.51 105.63 21.5304 105.664 21.5575C105.699 21.5847 105.729 21.6187 105.749 21.6572C106.515 23.0531 107.384 23.7602 108.338 23.7602C108.743 23.7602 109.14 23.6627 109.497 23.4769C109.831 23.3091 110.11 23.0531 110.302 22.7336C110.483 22.4367 110.579 22.0946 110.577 21.7479C110.567 21.3241 110.423 20.9162 110.165 20.5785C109.754 19.9985 108.976 19.2779 107.855 18.4416C106.657 17.5466 105.921 16.9098 105.624 16.4905C105.106 15.8334 104.823 15.0244 104.818 14.1905C104.814 13.556 104.98 12.9328 105.301 12.3866C105.621 11.8405 106.09 11.3964 106.65 11.0973C107.224 10.7869 107.869 10.626 108.523 10.6305C109.225 10.6282 109.916 10.8095 110.527 11.1562C111.144 11.5052 111.768 12.1147 112.438 13.0212C112.491 13.0915 112.511 13.1776 112.5 13.2637C112.489 13.3498 112.443 13.4268 112.372 13.4789L111.245 14.3309C111.21 14.3581 111.169 14.3763 111.127 14.3876C111.087 14.3989 111.041 14.4012 110.997 14.3944C110.954 14.3876 110.912 14.374 110.874 14.3513C110.838 14.3287 110.803 14.3015 110.778 14.2652C110.284 13.6149 109.863 13.1866 109.536 12.9872C109.225 12.8014 108.866 12.704 108.502 12.7062C108.295 12.6972 108.084 12.7289 107.887 12.7991C107.691 12.8694 107.51 12.9804 107.357 13.1209C107.217 13.2478 107.105 13.4042 107.032 13.5786C106.959 13.7531 106.923 13.9389 106.927 14.1293C106.927 14.3831 106.982 14.6346 107.087 14.8658C107.242 15.174 107.453 15.4504 107.707 15.6838C107.821 15.7926 108.221 16.1189 109.466 17.0276C110.707 17.9386 111.549 18.7362 112.022 19.4637C112.479 20.1253 112.731 20.9071 112.747 21.7094C112.747 22.2419 112.64 22.7698 112.425 23.2593C112.21 23.7488 111.894 24.1884 111.498 24.5487C111.1 24.9385 110.624 25.2467 110.105 25.4529C109.584 25.6591 109.029 25.7611 108.468 25.7498L108.472 25.7588Z" fill="white" style="fill:white;fill-opacity:1;"/>
</g>
<defs>
<clipPath id="clip0_4452_2929">
<rect width="113" height="34" fill="white" style="fill:white;fill-opacity:1;"/>
</clipPath>
</defs>
</svg>
