<svg width="75" height="17" viewBox="0 0 75 17" fill="none" xmlns="http://www.w3.org/2000/svg">
<g clip-path="url(#clip0_4452_2506)">
<path fill-rule="evenodd" clip-rule="evenodd" d="M56.0161 9.03117H55.7885L52.827 0.396484H49.3584V0.753484L53.5359 12.8117H58.1425L62.3213 0.753484V0.396484H59.0035L56.0148 9.03117H56.0161Z" fill="white" style="fill:white;fill-opacity:1;"/>
<path d="M48.4355 0.396484H44.9863V12.8104H48.4355V0.396484Z" fill="white" style="fill:white;fill-opacity:1;"/>
<path fill-rule="evenodd" clip-rule="evenodd" d="M72.5676 0.394862H72.5702L69.5815 9.03218H69.3539L66.3925 0.39617H62.9238V0.755785L67.4615 13.8563H63.1644V16.7319H67.364C69.1575 16.7319 70.5543 16.1238 71.2319 14.1832C71.323 13.9243 75.8854 0.75317 75.8854 0.75317V0.393555H72.5676V0.394862Z" fill="white" style="fill:white;fill-opacity:1;"/>
<path fill-rule="evenodd" clip-rule="evenodd" d="M27.4084 0.059082C25.8399 0.059082 24.3741 0.862005 23.4598 2.37108H23.2478V0.409544H19.96V16.7282H23.4533V11.2307H23.6679C23.6913 11.2634 23.7147 11.2974 23.7381 11.3248C24.3273 12.0454 25.7033 13.1438 27.4149 13.1438C30.5298 13.1438 32.6601 10.4369 32.6601 6.60277C32.6601 2.76862 30.4244 0.059082 27.4084 0.059082ZM26.3653 10.4526C24.7396 10.4526 23.6172 9.17892 23.6172 6.60408C23.6172 4.02923 24.7396 2.75554 26.3653 2.75554C27.991 2.75554 29.1681 4.05669 29.1681 6.60408C29.1681 9.15146 28.0183 10.4526 26.3653 10.4526Z" fill="white" style="fill:white;fill-opacity:1;"/>
<path fill-rule="evenodd" clip-rule="evenodd" d="M41.3252 0.39502C39.7059 0.39502 38.6668 0.66702 38.0594 2.37094H37.8513V0.396327H32.8506V3.24709H33.9665C34.3345 3.24709 34.5153 3.37786 34.5621 3.68125V6.05079H34.5752V12.8116H38.0685V6.22602C38.0685 4.52079 38.5289 3.47594 40.2249 3.47594H43.8847V0.39502H41.3265H41.3252Z" fill="white" style="fill:white;fill-opacity:1;"/>
<path d="M7.61812 13.1399C11.209 13.1399 14.121 10.212 14.121 6.60145C14.121 2.99091 11.209 0.0629883 7.61812 0.0629883C4.02722 0.0629883 1.11523 2.99091 1.11523 6.60145C1.11523 10.212 4.02722 13.1399 7.61812 13.1399Z" fill="white" style="fill:white;fill-opacity:1;"/>
<path d="M7.6179 16.9411C10.0721 16.9411 12.062 16.5201 12.062 16.0035C12.062 15.487 10.0734 15.0659 7.6179 15.0659C5.16241 15.0659 3.17383 15.487 3.17383 16.0035C3.17383 16.5201 5.16241 16.9411 7.6179 16.9411Z" fill="white" style="fill:white;fill-opacity:1;"/>
</g>
<defs>
<clipPath id="clip0_4452_2506">
<rect width="75" height="17" fill="white" style="fill:white;fill-opacity:1;"/>
</clipPath>
</defs>
</svg>
