<svg width="116" height="40" viewBox="0 0 116 40" fill="none" xmlns="http://www.w3.org/2000/svg">
<g clip-path="url(#clip0_582_18448)">
<path fill-rule="evenodd" clip-rule="evenodd" d="M28.465 6.08189C29.2995 6.91139 23.7064 13.8151 15.9736 21.5016C8.23952 29.1889 1.2937 34.7478 0.459176 33.9183C-0.0144831 33.448 1.58274 31.0203 4.46567 27.6038C2.85799 25.4749 1.98938 22.8855 1.99031 20.2245C1.99003 16.9642 3.29318 13.837 5.61347 11.5301C7.53023 9.62481 10.0248 8.39822 12.7127 8.0393C15.4007 7.68038 18.133 8.20904 20.4886 9.54383C20.9248 9.79101 21.3478 10.0653 21.7531 10.3659C25.378 7.31039 27.9746 5.59495 28.4645 6.08233M8.74446 22.8224C10.0465 21.4355 11.4586 19.9813 12.951 18.4981C14.2665 17.1896 15.6028 15.9017 16.9593 14.635C15.8087 14.1058 14.5221 13.9405 13.2737 14.1614C12.0254 14.3823 10.8756 14.9788 9.97994 15.8701C9.08128 16.7634 8.4808 17.9094 8.25981 19.1529C8.03883 20.3963 8.20802 21.6776 8.74446 22.8224ZM7.47902 30.4397C7.53836 30.4794 7.59813 30.5185 7.65835 30.557C10.0341 32.0793 12.8636 32.747 15.6751 32.4486C18.4865 32.1502 21.11 30.9038 23.108 28.9172C25.1253 26.911 26.3831 24.2747 26.6688 21.454C26.9544 18.6332 26.2504 15.8011 24.6757 13.4363C24.1092 14.1654 23.5284 14.8835 22.9335 15.5901C23.9396 17.4285 24.3204 19.5405 24.019 21.6113C23.7175 23.6821 22.7501 25.6007 21.261 27.081C19.7674 28.5657 17.8285 29.5285 15.7361 29.8244C13.6438 30.1203 11.5113 29.7333 9.65962 28.7216C8.94459 29.3092 8.21787 29.882 7.47902 30.4397ZM10.547 27.9827C12.1731 28.7724 14.0071 29.0376 15.7925 28.7411C17.5778 28.4447 19.2252 27.6014 20.504 26.3294C21.7793 25.0616 22.6261 23.4315 22.9272 21.6647C23.2283 19.898 22.9687 18.082 22.1845 16.4681C21.5441 17.2086 20.8924 17.9393 20.2295 18.66C20.5059 19.6837 20.5062 20.7616 20.2304 21.7855C19.9546 22.8093 19.4124 23.7432 18.6583 24.4932C17.9014 25.2458 16.9575 25.7863 15.9223 26.0597C14.8872 26.3331 13.7976 26.3297 12.7642 26.0498C12.0358 26.7056 11.2971 27.35 10.5483 27.9827M60.1975 28.044V11.9566H62.7403V16.6305H66.4573C68.7323 16.6305 69.8698 17.7754 69.8698 20.0653V24.6087C69.8698 26.8989 68.7323 28.044 66.4573 28.044H60.1975ZM62.7403 25.8263H66.3269C66.9937 25.8263 67.327 25.4929 67.327 24.8261V19.8478C67.327 19.1811 66.9937 18.8477 66.3269 18.8477H62.7403V25.8263ZM33.7748 13.0434V28.044H36.4269V23H40.9916C43.3533 23 44.5343 21.8261 44.5346 19.4781V16.5876C44.5346 14.2251 43.3534 13.0438 40.9912 13.0438L33.7748 13.0434ZM40.926 20.5872H36.4269V15.4566H40.926C41.5634 15.4566 41.8822 15.7681 41.8825 16.3911V19.6304C41.8825 20.2683 41.5634 20.5872 40.926 20.5872Z" fill="white" style="fill:white;fill-opacity:1;"/>
<path d="M47.2681 16.6304V24.6086C47.2681 26.8988 48.4128 28.0439 50.7022 28.0439H56.9408V16.6304H54.3976V25.8266H50.811C50.1442 25.8266 49.811 25.4931 49.8113 24.826V16.6304H47.2681ZM72.8677 11.9565V28.0434H75.4109V11.9565H72.8677ZM78.6216 14.652V12.065H81.2948V14.652H78.6216ZM78.6869 28.0439V16.6304H81.2296V28.0439H78.6869ZM84.3078 20.0656V24.6086C84.3078 26.8988 85.4525 28.0439 87.7419 28.0439H93.0024V25.8262H87.8507C87.1839 25.8262 86.8507 25.4928 86.851 24.826V19.8477C86.851 19.181 87.1842 18.8476 87.8507 18.8476H93.0024V16.6304H87.7419C85.4525 16.6304 84.3078 17.7753 84.3078 20.0652" fill="white" style="fill:white;fill-opacity:1;"/>
<path fill-rule="evenodd" clip-rule="evenodd" d="M100.785 12.0332L95.5293 27.967H98.5563L99.6706 24.4569H106.29L107.381 27.9674H110.364L105.198 12.0332H100.785ZM105.523 21.8936H100.46L102.759 14.5961H103.201L105.523 21.8936Z" fill="white" style="fill:white;fill-opacity:1;"/>
<path d="M112.544 12.0332V27.967H115.377V12.0332H112.544Z" fill="white" style="fill:white;fill-opacity:1;"/>
</g>
<defs>
<clipPath id="clip0_582_18448">
<rect width="115" height="28" fill="white" style="fill:white;fill-opacity:1;" transform="translate(0.377197 6)"/>
</clipPath>
</defs>
</svg>
