<svg width="189" height="36" viewBox="0 0 189 36" fill="none" xmlns="http://www.w3.org/2000/svg">
<mask id="mask0_582_18992" style="mask-type:luminance" maskUnits="userSpaceOnUse" x="12" y="3" width="13" height="32">
<path d="M24.6239 3.13037H12.9624V34.4347H24.6239V3.13037Z" fill="white" style="fill:white;fill-opacity:1;"/>
</mask>
<g mask="url(#mask0_582_18992)">
<path d="M12.9624 3.13037V20.7131L20.0884 11.7586C20.1883 11.6297 20.382 11.4302 20.6672 11.3721C21.1587 11.2723 21.5773 11.6713 21.9167 11.9955C22.2499 12.3134 22.5602 12.6085 22.5414 13.0345C22.5269 13.3795 22.3061 13.6309 22.2 13.7349C20.0884 16.3678 17.9768 19.0028 15.8652 21.6358V29.0296C15.884 30.8313 15.9027 32.633 15.9194 34.4347C17.502 33.4871 19.7677 31.8599 21.8209 29.2437C23.1641 27.5313 24.0428 25.8709 24.6217 24.5347V9.78028L12.9624 3.13037ZM22.481 18.2298C21.9938 18.8387 21.5065 19.4455 21.0192 20.0544H21.0067L19.3595 22.1241C19.2929 22.2072 19.168 22.3382 18.9826 22.3756C18.6619 22.44 18.3913 22.1802 18.1684 21.9703C17.9518 21.7626 17.7498 21.5714 17.7623 21.295C17.7727 21.0705 17.9164 20.9064 17.9852 20.8399L19.447 19.0153H19.4595L21.1067 16.9455C21.1733 16.8624 21.2982 16.7315 21.4836 16.6941C21.8042 16.6297 22.0749 16.8894 22.2978 17.0993C22.5144 17.3071 22.7164 17.4983 22.7039 17.7747C22.6935 17.9991 22.5498 18.1612 22.481 18.2298Z" fill="white" style="fill:white;fill-opacity:1;"/>
</g>
<mask id="mask1_582_18992" style="mask-type:luminance" maskUnits="userSpaceOnUse" x="0" y="3" width="12" height="32">
<path d="M0.000164032 3.13037H11.6616V34.4347H0.000164032V3.13037Z" fill="white" style="fill:white;fill-opacity:1;"/>
</mask>
<g mask="url(#mask1_582_18992)">
<path d="M11.6618 3.13037V20.7131L4.53583 11.7586C4.43588 11.6297 4.24221 11.4302 3.95692 11.3721C3.46548 11.2723 3.04692 11.6713 2.70748 11.9955C2.3743 12.3134 2.06402 12.6085 2.08276 13.0345C2.09734 13.3795 2.31807 13.6309 2.42427 13.7349C4.53583 16.3678 6.64738 19.0028 8.75898 21.6358V29.0296C8.74023 30.8313 8.72149 32.633 8.70478 34.4347C7.12217 33.4871 4.85652 31.8599 2.80327 29.2437C1.46012 27.5313 0.581349 25.8709 0.00244141 24.5347V9.78028L11.6618 3.13037ZM2.14315 18.2298C2.63043 18.8387 3.11772 19.4455 3.605 20.0544H3.61749L5.26467 22.1241C5.33131 22.2072 5.45625 22.3382 5.64159 22.3756C5.96228 22.44 6.23299 22.1802 6.4558 21.9703C6.67238 21.7626 6.87437 21.5714 6.86187 21.295C6.85146 21.0705 6.70778 20.9064 6.63905 20.8399L5.17721 19.0153H5.16471L3.51753 16.9455C3.4509 16.8624 3.32595 16.7315 3.14062 16.6941C2.81993 16.6297 2.54922 16.8894 2.3264 17.0993C2.10983 17.3071 1.90784 17.4983 1.92034 17.7747C1.93075 17.9991 2.07443 18.1612 2.14315 18.2298Z" fill="white" style="fill:white;fill-opacity:1;"/>
</g>
<path d="M39.6875 5.26953H48.6624V7.50861H41.9313V9.74767H48.6624V11.9868H41.9313V16.4347H39.6875V5.26953ZM48.6624 7.50861H50.9062V9.74767H48.6624V7.50861ZM52.8012 5.26953H55.0449V14.2258H52.8012V5.26953ZM61.7761 5.26953H64.0198V14.2258H61.7761V5.26953ZM55.0449 14.2258H61.7761V16.4347H55.0449V14.2258ZM65.9148 5.26953H68.1586V7.50861H70.4023V9.74767H68.1586V16.4347H65.9148V5.26953ZM74.8897 5.26953H77.1335V16.4347H74.8897V9.74767H72.646V7.50861H74.8897V5.26953ZM70.4023 9.74767H72.646V11.9868H70.4023V9.74767ZM79.0284 5.26953H88.0032V7.50861H81.2721V9.74767H88.0032V11.9868H81.2721V16.4347H79.0284V5.26953ZM88.0032 7.50861H90.2469V9.74767H88.0032V7.50861ZM92.1424 14.2258H94.3861V16.4347H92.1424V14.2258ZM98.5245 5.26953H107.499V7.50861H98.5245V5.26953ZM96.2808 7.50861H98.5245V9.74767H96.2808V7.50861ZM98.5245 9.74767H105.256V11.9868H98.5245V9.74767ZM105.256 11.9868H107.499V14.2258H105.256V11.9868ZM96.2808 14.2258H105.256V16.4347H96.2808V14.2258ZM111.638 5.26953H118.369V7.50861H111.638V5.26953ZM109.395 7.50861H111.638V14.2258H109.395V7.50861ZM118.369 7.50861H120.613V9.74767H118.369V7.50861ZM118.369 11.9868H120.613V14.2258H118.369V11.9868ZM111.638 14.2258H118.369V16.4347H111.638V14.2258ZM122.509 5.26953H133.727V7.50861H129.24V14.2258H133.727V16.4347H122.509V14.2258H126.996V7.50861H122.509V5.26953ZM135.622 5.26953H146.84V7.50861H137.865V9.74767H144.597V11.9868H137.865V14.2258H146.84V16.4347H135.622V5.26953ZM148.736 5.26953H150.979V7.50861H153.223V9.74767H150.979V16.4347H148.736V5.26953ZM157.71 5.26953H159.954V16.4347H157.71V14.2258H155.467V11.9868H157.71V5.26953ZM153.223 9.74767H155.467V11.9868H153.223V9.74767ZM164.093 5.26953H170.824V7.50861H164.093V5.26953ZM161.85 7.50861H164.093V14.2258H161.85V7.50861ZM170.824 7.50861H173.068V9.74767H170.824V7.50861ZM170.824 11.9868H173.068V14.2258H170.824V11.9868ZM164.093 14.2258H170.824V16.4347H164.093V14.2258ZM174.963 5.26953H186.181V7.50861H177.206V9.74767H183.938V11.9868H177.206V14.2258H186.181V16.4347H174.963V5.26953Z" fill="white" style="fill:white;fill-opacity:1;"/>
<path d="M40.7932 32.087V35.0047H39.8057V26.2385H43.925V32.087H40.7932ZM40.7932 27.1982V31.1533H42.8854V27.2111L40.7932 27.1982ZM46.0561 23.3208H47.0437V32.087H46.0561V23.3208ZM52.2415 28.6375V27.1723H49.1618V26.2385H53.281V32.087H49.1878V28.6375H52.2415ZM52.2415 29.5842H50.1494V31.1273H52.2415V29.5842ZM59.5315 26.2385V34.473H55.4121V33.5523H58.4919V32.087H55.4382V26.2385H56.3997V31.1273H58.4919V26.2385H59.5315ZM68.4327 32.087H67.3932V27.1723H65.301V32.087H64.3134V23.3208H65.301V26.2385H68.4327V32.087ZM73.6435 28.6375V27.1723H70.5638V26.2385H74.6831V32.087H70.5898V28.6375H73.6435ZM73.6435 29.5842H71.5514V31.1273H73.6435V29.5842ZM79.2835 27.1982L77.8537 27.2111V32.087H76.8141V26.2385H80.2708V28.3653H79.2835V27.1982ZM85.2734 26.2385V23.3208H86.2482V32.087H82.1286V26.2385H85.2734ZM85.2734 31.1273V27.1723H83.1685V31.1144L85.2734 31.1273ZM89.4189 29.7009V31.1533H92.4986V32.087H88.379V26.2385H92.4727V29.7009H89.4189ZM89.4189 28.7413H91.5238V27.1982H89.4189V28.7413ZM97.0989 27.1982L95.6692 27.2111V32.087H94.6293V26.2385H98.0862V28.3653H97.0989V27.1982ZM99.9448 30.4919H100.932V32.087H99.9448V30.4919ZM105.701 23.3208H106.688V32.087H105.701V23.3208ZM108.807 26.2515L109.794 26.2385V32.087H108.807V26.2515ZM108.807 23.3208H109.794V25.0455H108.807V23.3208ZM116.305 26.2385L114.706 32.087H112.848L111.25 26.2385H112.575L113.641 31.1533H114.018L115.083 26.2385H116.305ZM118.799 29.7009V31.1533H121.879V32.087H117.76V26.2385H121.853V29.7009H118.799ZM118.799 28.7413H120.905V27.1982H118.799V28.7413ZM126.661 23.3208H127.649V32.087H126.661V23.3208ZM129.767 32.087V26.2385H133.886V32.087H129.767ZM132.912 27.1982L130.807 27.2111V31.1533H132.912V27.1982ZM140.137 32.087H139.097V27.1723H137.005V32.087H136.017V26.2385H140.137V32.087ZM145.347 32.087H142.293V26.2385H146.387V34.473H142.268V33.5523H145.347V32.087ZM145.347 31.1273V27.1982H143.256V31.1273H145.347ZM149.558 29.7009V31.1533H152.637V32.087H148.518V26.2385H152.612V29.7009H149.558ZM149.558 28.7413H151.663V27.1982H149.558V28.7413ZM157.238 27.1982L155.808 27.2111V32.087H154.768V26.2385H158.225V28.3653H157.238V27.1982ZM160.083 30.4919H161.071V32.087H160.083V30.4919Z" fill="#CAC8F6" style="fill:#CAC8F6;fill:color(display-p3 0.7922 0.7843 0.9647);fill-opacity:1;"/>
</svg>
