<svg width="101" height="16" viewBox="0 0 101 16" fill="none" xmlns="http://www.w3.org/2000/svg">
<g clip-path="url(#clip0_4452_2886)">
<path d="M27.1289 14.4714C27.1112 14.4803 27.0979 14.4906 27.0861 14.5068C26.2862 15.5093 25.2384 16.0002 23.9028 16.0002C21.4413 16.0002 19.877 14.3225 19.877 11.6335V4.78564H22.1305V11.3121C22.1305 12.9662 23.0971 14.0469 24.5684 14.0469C26.2021 14.0469 27.2824 12.8748 27.2824 11.0143V4.78712H29.5359V15.7717H27.5111C27.5111 15.7717 27.3605 14.8606 27.2986 14.5599C27.2957 14.5421 27.2927 14.5245 27.2588 14.492C27.2263 14.4625 27.1835 14.4611 27.1835 14.4611C27.1835 14.4611 27.1525 14.4611 27.1274 14.4729L27.1289 14.4714Z" fill="white" style="fill:white;fill-opacity:1;"/>
<path d="M33.4415 4.78564H31.1865V15.7702H33.4415V4.78564Z" fill="white" style="fill:white;fill-opacity:1;"/>
<path d="M40.2638 6.50903C41.7587 6.50903 42.7017 7.2904 43.1165 8.8074H45.2327C44.7959 6.09625 43.0928 4.55566 40.218 4.55566C37.0437 4.55566 34.8359 6.85399 34.8359 10.2772C34.8359 13.7004 36.9979 15.9988 40.1723 15.9988C42.932 15.9988 44.7722 14.5053 45.2327 11.747H43.1165C42.7017 13.264 41.7587 14.0453 40.218 14.0453C38.3541 14.0453 37.0894 12.7127 37.0894 10.2772C37.0894 7.84176 38.332 6.50903 40.2638 6.50903Z" fill="white" style="fill:white;fill-opacity:1;"/>
<path d="M49.0246 9.13314L53.5123 4.78559H55.9739V5.01558C55.9739 5.01558 52.8158 8.03925 51.799 9.07119C51.7753 9.09628 51.7267 9.14492 51.7282 9.19208C51.7282 9.25256 51.7828 9.32476 51.7828 9.32476L56.2499 15.5402V15.7702H53.7425L50.1727 10.7593L50.1565 10.7356C50.1565 10.7356 50.1269 10.6855 50.0649 10.6811C50.003 10.6767 49.9676 10.718 49.9676 10.718L49.9292 10.7548L49.0954 11.573C48.9198 11.7455 48.8209 11.9814 48.8209 12.2275V15.7717H46.5674V0.121094H48.8209V9.06236C48.8209 9.14933 48.9478 9.21128 49.026 9.13314" fill="white" style="fill:white;fill-opacity:1;"/>
<path d="M73.0161 4.55566C69.772 4.55566 67.4727 6.94544 67.4727 10.2772C67.4727 13.609 69.7739 15.9988 73.0161 15.9988C76.2584 15.9988 78.559 13.609 78.559 10.2772C78.559 6.94544 76.2584 4.55566 73.0161 4.55566ZM73.0161 14.0468C71.0371 14.0468 69.772 12.5755 69.772 10.2787C69.772 7.9818 71.0371 6.5105 73.0161 6.5105C74.9952 6.5105 76.2597 7.9818 76.2597 10.2787C76.2597 12.5755 74.9952 14.0468 73.0161 14.0468Z" fill="white" style="fill:white;fill-opacity:1;"/>
<path d="M87.9137 14.5127L87.9239 14.5024C87.9814 14.4404 88.0658 14.4021 88.1483 14.4153C88.2608 14.433 88.3375 14.5097 88.3637 14.6217L88.5555 15.7702H90.4182V0.121094H88.1643V5.83084C88.1643 5.83084 88.1662 5.91634 88.0831 5.9473C87.9961 5.97826 87.9444 5.90897 87.9444 5.90897C87.9373 5.89865 87.952 5.91929 87.9444 5.90897C87.1696 4.97135 86.1532 4.55562 84.8517 4.55562C81.7463 4.55562 79.6758 6.92175 79.6758 10.2771C79.6758 13.6325 81.7463 15.9987 84.6446 15.9987C86.0586 15.9987 87.176 15.4901 87.915 14.5127M85.0345 14.0468C83.1245 14.0468 81.9751 12.6448 81.9751 10.2786C81.9751 7.91247 83.1245 6.51048 85.0345 6.51048C86.9439 6.51048 88.163 7.91247 88.163 10.2786C88.163 12.6448 87.0136 14.0468 85.0345 14.0468Z" fill="white" style="fill:white;fill-opacity:1;"/>
<path d="M101.999 9.95581C101.999 6.69335 99.9735 4.55566 96.8923 4.55566C93.6354 4.55566 91.4524 7.01175 91.5355 10.4674C91.609 13.5338 94.118 16.0386 97.1877 15.9988C99.8085 15.9648 101.588 14.436 101.93 12.3456H99.8597C99.5145 13.379 98.6413 14.0925 97.1685 14.0925C95.3543 14.0925 94.1634 12.9942 93.8521 11.2089C93.8259 11.0585 93.941 10.9214 94.0944 10.9214H101.954C101.977 10.5765 102 10.2094 102 9.95581H101.999ZM94.1813 9.22167C94.0234 9.22167 93.9064 9.07274 93.9467 8.9194C94.3347 7.39652 95.3812 6.4648 96.8936 6.4648C98.406 6.4648 99.5823 7.43927 99.8053 8.92829C99.829 9.08304 99.7063 9.22167 99.5503 9.22167H94.1813Z" fill="white" style="fill:white;fill-opacity:1;"/>
<path d="M4.24668 2.70972C3.0336 4.08666 2.32819 5.93831 2.32819 8.06857C2.32819 12.534 5.41992 15.776 9.80886 15.9852L10.2619 15.9971C10.2619 15.9971 10.2619 15.9971 10.2634 15.9971C10.2648 15.9971 10.2634 15.9971 10.2648 15.9971H19.4958V15.77L16.3804 13.8343C16.3804 13.8343 16.224 13.7857 16.2166 13.6044C16.2137 13.5321 16.2358 13.482 16.283 13.4275C17.4946 12.0505 18.2 10.2003 18.2 8.07151C18.2 3.60606 15.1083 0.364202 10.7194 0.15486L10.2619 0.143066H10.2664C10.2664 0.143066 10.2648 0.143066 10.2634 0.143066C10.2619 0.143066 10.2619 0.143066 10.2604 0.143066H1V0.370099L4.15371 2.3102C4.15371 2.3102 4.2821 2.35296 4.30867 2.50185C4.33081 2.62127 4.24668 2.7112 4.24668 2.7112M4.68204 8.07004C4.68204 4.57758 6.97242 2.30283 10.2693 2.30283C13.5661 2.30283 15.8565 4.57758 15.8565 8.07004C15.8565 11.5625 13.5661 13.8373 10.2693 13.8373C6.97242 13.8373 4.68204 11.5625 4.68204 8.07004Z" fill="white" style="fill:white;fill-opacity:1;"/>
<path d="M32.314 2.633C33.0418 2.633 33.6318 2.04358 33.6318 1.3165C33.6318 0.589416 33.0418 0 32.314 0C31.5861 0 30.9961 0.589416 30.9961 1.3165C30.9961 2.04358 31.5861 2.633 32.314 2.633Z" fill="white" style="fill:white;fill-opacity:1;"/>
<path d="M65.3994 5.68748C64.7603 4.92382 63.8556 4.54199 62.6869 4.54199C61.7763 4.54199 61.0044 4.79262 60.3729 5.29533C60.1234 5.49435 59.9094 5.73466 59.7309 6.01329V6.00887L59.6024 6.20641C59.539 6.30371 59.3885 6.26243 59.3841 6.14597L59.3767 5.9897L59.3427 4.78967H57.3652V15.7654H59.5272V9.37014C59.5272 8.4207 59.7575 7.68508 60.2209 7.16323C60.6828 6.64131 61.3085 6.3789 62.0965 6.3789C62.8447 6.3789 63.3819 6.62953 63.7081 7.13225C64.0342 7.63497 64.198 8.38089 64.198 9.37014V15.7654H66.3602V8.70966C66.3602 7.45808 66.0399 6.45116 65.402 5.68748H65.3994Z" fill="white" style="fill:white;fill-opacity:1;"/>
</g>
<defs>
<clipPath id="clip0_4452_2886">
<rect width="101" height="16" fill="white" style="fill:white;fill-opacity:1;"/>
</clipPath>
</defs>
</svg>
