<svg width="99" height="16" viewBox="0 0 99 16" fill="none" xmlns="http://www.w3.org/2000/svg">
<g clip-path="url(#clip0_4452_2913)">
<path d="M13.3212 0H0.999023V16H2.7669C5.51131 16 7.78766 13.2192 8.04198 10.1505L8.15254 8.81519H4.34802C6.40102 8.15127 8.00476 5.52469 8.34813 2.22287C8.6915 5.52469 10.2952 8.15127 12.3482 8.81519H8.58913L8.68171 10.0792C8.90956 13.1898 11.1859 16 14.0075 16H17.499V13.6692C17.499 10.9884 15.4392 8.81519 12.8983 8.81519H13.3212C15.6286 8.81519 17.499 6.84186 17.499 4.4076C17.499 1.97333 15.6286 0 13.3212 0Z" fill="#9BF7D4" style="fill:#9BF7D4;fill:color(display-p3 0.6074 0.9693 0.8309);fill-opacity:1;"/>
<path d="M28.1709 0.329102H35.2471C36.2631 0.329102 37.1703 0.534031 37.9687 0.943728C38.7669 1.33872 39.3839 1.90211 39.8194 2.63359C40.2693 3.36522 40.4942 4.21387 40.4942 5.17953C40.4942 6.35011 40.1749 7.33048 39.5363 8.12062C38.9122 8.89605 38.1283 9.43747 37.1849 9.74486L40.9733 15.6927H37.5332L34.1149 10.1397H31.2409V15.6925H28.1709V0.329102ZM34.7028 7.65969C35.5155 7.65969 36.1615 7.44749 36.6405 7.02324C37.134 6.59884 37.3808 6.00635 37.3808 5.24547C37.3808 4.46987 37.1412 3.87011 36.6623 3.44571C36.1978 3.00676 35.5446 2.78728 34.7028 2.78728H31.2409V7.65969H34.7028Z" fill="white" style="fill:white;fill-opacity:1;"/>
<path d="M45.9852 0.329212H51.4068L56.5887 15.6928H53.1704L51.9511 11.9615H45.4628L44.2435 15.6929H40.8252L45.9852 0.329374V0.329212ZM51.3632 9.52533L48.6852 1.36081L46.0505 9.52533H51.3632ZM60.6177 1.38279H60.5089V15.6928H57.5042V0.329212H63.2521L67.781 14.7269H67.8897V0.329212H70.938V15.7147L65.1899 15.6928L60.6177 1.38279ZM79.48 16C78.1589 16 76.9615 15.6853 75.8874 15.0562C74.8278 14.4272 73.9859 13.5127 73.3617 12.3127C72.7521 11.1129 72.4473 9.71556 72.4473 8.12073C72.4473 6.49649 72.7666 5.0699 73.4053 3.84081C74.0585 2.61172 74.9658 1.66804 76.127 1.00962C77.2882 0.336485 78.6162 0 80.1113 0C81.3306 0 82.4119 0.212202 83.3554 0.636444C84.299 1.04614 85.0538 1.62408 85.6199 2.37042C86.186 3.11661 86.5343 3.97253 86.6649 4.93834H83.5078C83.3482 4.16275 82.9564 3.54828 82.3322 3.09463C81.7225 2.64113 80.9677 2.41422 80.0677 2.41422C79.1242 2.41422 78.3114 2.66311 77.6293 3.16057C76.9615 3.64331 76.4607 4.30917 76.127 5.15782C75.7931 6.0063 75.6262 6.9941 75.6262 8.12073C75.6262 9.20356 75.7931 10.1619 76.127 10.9959C76.4607 11.8153 76.9543 12.459 77.6075 12.9272C78.2607 13.3808 79.0445 13.6076 79.9589 13.6076C80.6847 13.6076 81.3379 13.4686 81.9185 13.1906C82.5137 12.8981 82.9854 12.4811 83.3337 11.9397C83.6821 11.3838 83.8708 10.7179 83.8998 9.94246V9.72283H79.4363V7.44016H86.8392V15.6926H84.4441V12.3567C84.3281 13.0151 84.0595 13.6296 83.6386 14.2002C83.2176 14.7562 82.6515 15.1953 81.9402 15.5171C81.2435 15.839 80.4234 16 79.48 16ZM99.9776 2.80937H92.1829V6.65018H98.9979V9.10836H92.1829V13.1908H99.9994V15.6926H89.113V0.329374H99.9776V2.80954V2.80937Z" fill="white" style="fill:white;fill-opacity:1;"/>
</g>
<defs>
<clipPath id="clip0_4452_2913">
<rect width="99" height="16" fill="white" style="fill:white;fill-opacity:1;"/>
</clipPath>
</defs>
</svg>
