<svg xmlns="http://www.w3.org/2000/svg" id="_图层_2" data-name="图层 2" viewBox="0 0 971.48 251.31"><defs><style>.cls-1{fill:#fff}</style></defs><g id="_图层_1-2" data-name="图层 1"><path d="m131.01 43.662 32.754 32.753L32.758 207.421.005 174.668zM87.338-.007l27.294 27.294-43.67 43.671-27.295-27.294zM93 180.349l27.295 27.294-43.671 43.671-27.295-27.294zM971.48 89.34l-21.92-21.92-59.14 59.14-59.14-59.14-21.92 21.92 59.14 59.14-59.14 59.14 21.92 21.92 59.14-59.14 59.14 59.14 21.92-21.92-59.14-59.14 59.14-59.14zM724.69 161.54H616.4c-1.69 15.89 10.02 32.59 26.23 38.01 21.2 7.09 40.56.01 52.02-19.29 8.48 4.06 17 8.13 25.82 12.35-11.84 20.05-28.5 32.76-51.13 36.42-24.87 4.02-46.75-2.75-64.23-21.2-14.93-15.76-20.76-35.15-20.31-56.56.35-16.66 4.52-32.29 14.67-45.72 17.16-22.69 40.51-31.88 68.19-27.4 28.39 4.59 45.91 22.59 54.24 49.73 3.29 10.71 3.62 21.75 2.78 33.67Zm-32.65-27.77c-1.02-15.45-16.21-27.75-33.92-28.51-21.87-.94-37.41 13.04-39.92 28.51h73.84ZM314.46 80.65h-81v144h31v-117h50v-27zM800.64 134.65v27h-45.18v-27zM575.46 80.65h-44v-45h-31v189h31v-117h44v-27zM445.46 80.15v18.84c-12.93-13.81-30.78-22.35-50.5-22.35-39.49 0-71.5 34.25-71.5 76.5s32.01 76.5 71.5 76.5c19.72 0 37.57-8.54 50.5-22.35v17.35h27V80.15h-27Zm-46.5 119.9c-24.3 0-44-21-44-46.9s19.7-46.9 44-46.9 44 21 44 46.9-19.7 46.9-44 46.9Z" class="cls-1"/></g></svg>