<svg width="119" height="34" viewBox="0 0 119 34" fill="none" xmlns="http://www.w3.org/2000/svg">
<g clip-path="url(#clip0_1714_6279)">
<path d="M13.4431 1.18955C13.6811 1.18955 13.8001 1.30844 14.0381 1.42732C12.6101 2.02172 11.1821 3.56718 10.4681 6.89585L7.8501 7.60913C8.6831 5.23151 10.3491 1.18955 13.4431 1.18955ZM14.7521 2.37837C14.9901 3.09165 15.2281 3.92382 15.2281 5.23151C15.2281 5.35039 15.2281 5.35039 15.2281 5.46927L11.7771 6.42032C12.4911 3.92382 13.6811 2.85389 14.7521 2.37837ZM17.8461 4.51822L16.2991 4.99375C16.2991 4.87487 16.2991 4.75599 16.2991 4.63711C16.2991 3.56718 16.1801 2.73501 15.9421 2.02172C16.7751 2.25948 17.4891 3.32941 17.8461 4.51822ZM25.5811 6.42032C25.5811 6.30144 25.4621 6.18256 25.3431 6.18256C25.1051 6.18256 22.6061 5.9448 22.6061 5.9448C22.6061 5.9448 20.8211 4.16158 20.5831 4.0427C20.3451 3.80494 19.9881 3.92382 19.8691 3.92382C19.8691 3.92382 19.5121 4.0427 18.9171 4.28046C18.3221 2.61613 17.2511 1.07067 15.4661 1.07067H15.3471C14.8711 0.357387 14.1571 0.119625 13.5621 0.119625C9.2781 0.000743471 7.2551 5.35039 6.5411 8.08466C5.5891 8.32242 4.63709 8.67906 3.56609 9.03571C2.61409 9.27347 2.61409 9.39235 2.49509 10.2245C2.37609 10.8189 -0.00390625 29.6021 -0.00390625 29.6021L18.9171 33.1686L29.1511 30.9098C29.1511 30.9098 25.5811 6.65808 25.5811 6.42032Z" fill="#8DB849" style="fill:#8DB849;fill:color(display-p3 0.5529 0.7216 0.2863);fill-opacity:1;"/>
<path d="M25.2211 6.18367C25.1021 6.18367 22.6031 5.94591 22.6031 5.94591C22.6031 5.94591 20.8181 4.16269 20.5801 4.04381C20.4611 3.92493 20.4611 3.92493 20.3421 3.92493L18.9141 33.1697L29.1481 30.9109C29.1481 30.9109 25.5781 6.65919 25.5781 6.42143C25.5781 6.30255 25.3401 6.18367 25.2211 6.18367Z" fill="#5A863E" style="fill:#5A863E;fill:color(display-p3 0.3529 0.5255 0.2431);fill-opacity:1;"/>
<path d="M15.4615 11.8899L14.1525 15.6941C14.1525 15.6941 13.0815 15.0997 11.6535 15.0997C9.63053 15.0997 9.51153 16.2885 9.51153 16.6452C9.51153 18.3095 14.0335 19.0228 14.0335 23.0648C14.0335 26.2745 12.0105 28.2955 9.27353 28.2955C6.06053 28.2955 4.39453 26.2745 4.39453 26.2745L5.22753 23.4214C5.22753 23.4214 6.89353 24.848 8.32153 24.848C9.27353 24.848 9.63053 24.1347 9.63053 23.5403C9.63053 21.2815 5.94153 21.1627 5.94153 17.4773C5.94153 14.3864 8.20253 11.4144 12.6055 11.4144C14.6285 11.2955 15.4615 11.8899 15.4615 11.8899Z" fill="#FFFFFE" style="fill:#FFFFFE;fill:color(display-p3 1.0000 1.0000 0.9961);fill-opacity:1;"/>
<path d="M41.1692 18.9016C40.0982 18.3072 39.6222 17.8317 39.6222 17.2373C39.6222 16.4051 40.3362 15.9296 41.5262 15.9296C42.8352 15.9296 44.0252 16.524 44.0252 16.524L44.9772 13.6708C44.9772 13.6708 44.1442 12.9575 41.6452 12.9575C38.0752 12.9575 35.6952 14.9785 35.6952 17.8317C35.6952 19.496 36.8852 20.6848 38.3132 21.517C39.5032 22.2303 39.9792 22.7058 39.9792 23.4191C39.9792 24.1324 39.3842 24.8456 38.1942 24.8456C36.5282 24.8456 34.8622 24.0135 34.8622 24.0135L33.9102 26.8666C33.9102 26.8666 35.3382 27.8177 37.8372 27.8177C41.4072 27.8177 44.0252 26.0345 44.0252 22.8247C44.0252 21.0415 42.7162 19.7338 41.1692 18.9016ZM55.5682 12.8387C53.7832 12.8387 52.3552 13.6708 51.2842 14.9785L52.8312 6.89461H48.7852L44.8582 27.461H48.9042L50.2132 20.447C50.6892 17.8317 52.1172 16.1673 53.4262 16.1673C54.3782 16.1673 54.7352 16.7617 54.7352 17.7128C54.7352 18.3072 54.7352 18.9016 54.6162 19.496L53.0692 27.5799H57.1152L58.6622 19.2582C58.7812 18.4261 58.9002 17.3561 58.9002 16.6429C58.9002 14.2652 57.7102 12.8387 55.5682 12.8387ZM65.9212 24.6079C64.4932 24.6079 64.0172 23.4191 64.0172 21.9925C64.0172 19.7338 65.2072 15.9296 67.3492 15.9296C68.7772 15.9296 69.2532 17.1184 69.2532 18.3072C69.2532 20.9226 68.0632 24.6079 65.9212 24.6079ZM67.9442 12.8387C63.0652 12.8387 59.8522 17.2373 59.8522 22.1114C59.8522 25.2023 61.7562 27.6988 65.4452 27.6988C70.2052 27.6988 73.4182 23.4191 73.4182 18.4261C73.4182 15.5729 71.7522 12.8387 67.9442 12.8387ZM79.8442 24.7268C78.7732 24.7268 78.1782 24.1324 78.1782 24.1324L78.8922 20.3282C79.3682 17.8317 80.6772 16.1673 82.1052 16.1673C83.2952 16.1673 83.7712 17.3561 83.7712 18.4261C83.6522 21.0415 82.1052 24.7268 79.8442 24.7268ZM83.7712 12.8387C81.0342 12.8387 79.4872 15.2163 79.4872 15.2163L79.7252 13.0764H76.1552C76.0362 14.503 75.6792 16.7617 75.3222 18.4261L72.4662 33.1673H76.5122L77.5832 27.2233H77.7022C77.7022 27.2233 78.5352 27.6988 80.0822 27.6988C84.8422 27.6988 87.9362 22.8247 87.9362 17.9505C87.9362 15.3352 86.7462 12.8387 83.7712 12.8387ZM93.6482 7.13237C92.3392 7.13237 91.3872 8.2023 91.3872 9.50999C91.3872 10.6988 92.1012 11.531 93.2912 11.531C94.6002 11.531 95.6712 10.6988 95.6712 9.15335C95.6712 7.96454 94.8382 7.13237 93.6482 7.13237ZM88.0552 27.461H92.1012L94.8382 13.1953H90.7922L88.0552 27.461ZM105.072 13.1953H102.216L102.335 12.482C102.573 11.0554 103.406 9.86663 104.715 9.86663C105.429 9.86663 106.024 10.1044 106.024 10.1044L106.857 6.89461C106.857 6.89461 106.143 6.53796 104.715 6.53796C103.287 6.53796 101.859 6.89461 100.788 7.84566C99.3602 9.03447 98.7652 10.6988 98.4082 12.3631L98.2892 13.0764H96.3852L95.7902 16.1673H97.6942L95.5522 27.461H99.5982L101.74 16.1673H104.477L105.072 13.1953ZM114.711 13.1953C114.711 13.1953 112.212 19.496 111.022 22.9435C110.903 21.8736 110.07 13.1953 110.07 13.1953H105.786L108.166 26.2722C108.166 26.51 108.166 26.7477 108.047 26.9855C107.571 27.9366 106.738 28.7687 105.905 29.3631C105.191 29.9575 104.239 30.3142 103.644 30.5519L104.715 33.9995C105.548 33.8806 107.214 33.1673 108.642 31.8596C110.427 30.1953 112.212 27.461 113.878 23.8946L118.757 13.3142L114.711 13.1953Z" fill="white" style="fill:white;fill-opacity:1;"/>
</g>
<defs>
<clipPath id="clip0_1714_6279">
<rect width="119" height="34" fill="white" style="fill:white;fill-opacity:1;"/>
</clipPath>
</defs>
</svg>
