<svg width="156" height="32" viewBox="0 0 156 32" fill="none" xmlns="http://www.w3.org/2000/svg">
<g clip-path="url(#clip0_582_19015)">
<path d="M16.3818 8.30647C15.8778 8.39949 15.4431 8.63301 15.1163 8.95422C13.7068 10.3302 11.9816 11.356 10.0768 11.8679L9.35637 12.0615C7.45154 12.5734 5.45589 12.5473 3.53936 12.0651C3.0864 11.9535 2.59344 11.9693 2.12041 12.1388C1.02173 12.5401 0.359677 13.7046 0.584842 14.8641C0.851093 16.2565 2.23099 17.1057 3.57324 16.745C3.97789 16.6363 4.33371 16.4239 4.62168 16.1556C6.04369 14.7869 7.75368 13.7439 9.66837 13.2294L10.3889 13.0358C12.2937 12.5239 14.2919 12.5598 16.2184 13.0393C16.6042 13.1373 17.0057 13.1355 17.4201 13.0241C18.7625 12.6634 19.5341 11.236 19.0704 9.89666C18.6874 8.77965 17.5335 8.10309 16.3818 8.30647Z" fill="#94C3D3" style="fill:#94C3D3;fill:color(display-p3 0.5786 0.7635 0.8265);fill-opacity:1;"/>
<path d="M25.7888 11.7618C25.2847 11.8548 24.85 12.0883 24.5232 12.4095C23.1138 13.7855 21.3886 14.8113 19.4837 15.3232L18.7633 15.5168C16.8585 16.0287 14.8629 16.0026 12.9463 15.5204C12.4934 15.4088 12.0004 15.4246 11.5274 15.5941C10.4287 15.9955 9.76926 17.1698 9.99177 18.3194C10.258 19.7118 11.6379 20.561 12.9802 20.2003C13.3848 20.0916 13.7407 19.8793 14.0286 19.611C15.4506 18.2422 17.1607 17.1992 19.0754 16.6847L19.7958 16.4911C21.7006 15.9793 23.6989 16.0152 25.6253 16.4947C26.0111 16.5926 26.4126 16.5908 26.8271 16.4794C28.1694 16.1187 28.941 14.6914 28.4774 13.352C28.0943 12.235 26.9404 11.5584 25.7888 11.7618Z" fill="#94C3D3" style="fill:#94C3D3;fill:color(display-p3 0.5786 0.7635 0.8265);fill-opacity:1;"/>
<path d="M22.8005 0.577221C22.2964 0.670236 21.8617 0.903763 21.5349 1.22495C20.1255 2.6009 18.4003 3.62674 16.4954 4.1386L15.775 4.33221C13.8702 4.84407 11.8746 4.81808 9.95804 4.33589C9.50507 4.22422 9.01211 4.23999 8.53908 4.40954C7.44041 4.81086 6.78097 5.98526 7.00349 7.13482C7.26973 8.52725 8.64962 9.37646 9.99186 9.01571C10.3965 8.90698 10.7524 8.69472 11.0403 8.42634C12.4623 7.05765 14.1724 6.01467 16.0871 5.50015L16.8075 5.30655C18.7123 4.79469 20.7106 4.83058 22.637 5.31011C23.0228 5.408 23.4243 5.4062 23.8388 5.29481C25.1811 4.93412 25.9527 3.50679 25.4891 2.1674C25.106 1.05037 23.9521 0.373858 22.8005 0.577221Z" fill="#94C3D3" style="fill:#94C3D3;fill:color(display-p3 0.5786 0.7635 0.8265);fill-opacity:1;"/>
<path d="M28.7746 22.9366C28.2706 23.0296 27.8358 23.2631 27.5091 23.5844C26.0996 24.9603 24.3744 25.9861 22.4696 26.498L21.7491 26.6916C19.8443 27.2035 17.8486 27.1775 15.9321 26.6952C15.4791 26.5836 14.9862 26.5994 14.5131 26.7689C13.4145 27.1703 12.7551 28.3447 12.9776 29.4943C13.2439 30.8867 14.6238 31.7358 15.966 31.3751C16.3707 31.2664 16.7265 31.0541 17.0145 30.7858C18.4365 29.417 20.1465 28.374 22.0611 27.8595L22.7816 27.6659C24.6865 27.1541 26.6847 27.19 28.6111 27.6695C28.997 27.7674 29.3985 27.7656 29.8129 27.6542C31.1552 27.2935 31.9269 25.8662 31.4632 24.5268C31.0801 23.4098 29.9262 22.7332 28.7746 22.9366Z" fill="#94C3D3" style="fill:#94C3D3;fill:color(display-p3 0.5786 0.7635 0.8265);fill-opacity:1;"/>
<path d="M35.198 15.2271C34.6939 15.3201 34.2592 15.5537 33.9324 15.8748C32.523 17.2508 30.7977 18.2767 28.8929 18.7885L28.1725 18.9821C26.2676 19.4939 24.272 19.468 22.3555 18.9858C21.9025 18.8741 21.4096 18.8898 20.9366 19.0594C19.8379 19.4607 19.1784 20.6351 19.4009 21.7847C19.6672 23.1771 21.0471 24.0263 22.3894 23.6656C22.794 23.5569 23.1498 23.3446 23.4378 23.0762C24.8598 21.7076 26.5699 20.6646 28.4845 20.15L29.205 19.9564C31.1098 19.4446 33.1081 19.4804 35.0345 19.96C35.4203 20.0578 35.8218 20.0561 36.2363 19.9447C37.5786 19.584 38.3502 18.1567 37.8866 16.8173C37.5035 15.7002 36.3496 15.0238 35.198 15.2271Z" fill="#94C3D3" style="fill:#94C3D3;fill:color(display-p3 0.5786 0.7635 0.8265);fill-opacity:1;"/>
<path d="M66.1195 21.5075V27.8956H63.5547V11.5363H66.0908V12.8639C66.2632 12.9424 66.3423 12.8497 66.4213 12.7569C66.8452 12.2358 67.3624 11.8361 67.9875 11.5791C68.7922 11.2437 69.6327 11.1723 70.4877 11.3079C72.4707 11.6148 73.7995 12.7783 74.6114 14.5484C75.1865 15.7903 75.251 17.1108 75.0496 18.4455C74.856 19.7445 74.2951 20.8723 73.3542 21.8001C72.4848 22.6567 71.4361 23.1135 70.2147 23.1848C69.525 23.2277 68.8425 23.1634 68.1887 22.9422C67.4558 22.6924 66.8667 22.2356 66.4069 21.6217C66.335 21.5218 66.2632 21.4647 66.1123 21.5218L66.1195 21.5075ZM72.521 17.2178C72.4848 16.9395 72.4636 16.654 72.4203 16.3756C72.1686 14.8981 70.9688 13.7204 69.41 13.6704C68.0091 13.6205 66.9745 14.3414 66.4213 15.5405C66.0549 16.3328 66.0189 17.1679 66.1411 18.0244C66.3423 19.4447 67.3337 20.5012 68.7562 20.7367C69.7908 20.908 70.7248 20.6582 71.4793 19.9015C72.2189 19.1593 72.499 18.2385 72.5281 17.2178H72.521Z" fill="#94C3D3" style="fill:#94C3D3;fill:color(display-p3 0.5786 0.7635 0.8265);fill-opacity:1;"/>
<path d="M60.6088 12.2143H57.9433C57.9217 12.0502 57.9146 11.886 57.8858 11.729C57.7134 10.7797 57.1171 10.2015 56.2118 9.96598C55.4072 9.75898 54.5953 9.77327 53.8337 10.1516C53.2302 10.4513 52.8854 10.951 52.8495 11.6291C52.8136 12.2572 53.0794 12.7496 53.6039 13.0779C53.8913 13.2635 54.2074 13.4206 54.5379 13.5205C55.2491 13.7347 55.9819 13.906 56.7004 14.1058C57.5553 14.3485 58.3887 14.634 59.1575 15.0979C59.9263 15.5619 60.4148 16.2328 60.6734 17.0607C60.9895 18.0529 61.0183 19.0664 60.6878 20.0657C60.4363 20.8151 59.9765 21.429 59.3659 21.9357C58.5037 22.6495 57.4978 23.0063 56.3843 23.1205C55.4287 23.2205 54.4732 23.2205 53.5536 22.9349C51.8293 22.4068 50.572 21.3576 49.9685 19.6232C49.7889 19.1092 49.7314 18.5668 49.7314 18.0029H52.3897C52.4041 18.1528 52.4112 18.3027 52.4328 18.4526C52.6124 19.6446 53.6326 20.4225 54.7247 20.6081C55.4 20.7223 56.0682 20.7152 56.7219 20.501C57.347 20.2941 57.8786 19.9515 58.1086 19.2948C58.4247 18.3883 58.0511 17.4819 57.2033 17.0108C56.607 16.6824 55.946 16.5326 55.2922 16.3755C54.3152 16.14 53.3524 15.8973 52.4328 15.4834C51.1468 14.898 50.4571 13.8917 50.2703 12.5212C50.1841 11.8789 50.1841 11.2365 50.3565 10.6012C50.6007 9.68765 51.1468 8.98102 51.8868 8.41C52.5909 7.86756 53.4027 7.58916 54.2792 7.47496C55.1988 7.35364 56.1113 7.36794 57.0093 7.61057C58.2163 7.93889 59.2581 8.51709 59.955 9.58767C60.3501 10.1944 60.5225 10.8724 60.5872 11.5862C60.6016 11.7861 60.6159 11.9788 60.6231 12.2001L60.6088 12.2143Z" fill="#94C3D3" style="fill:#94C3D3;fill:color(display-p3 0.5786 0.7635 0.8265);fill-opacity:1;"/>
<path d="M108.76 17.8745H100.102C100.066 19.202 100.799 20.5225 102.308 20.8936C103.702 21.2362 105.526 20.7794 106.123 19.0949C106.898 19.2806 107.682 19.4661 108.479 19.6517C108.292 20.2441 108.034 20.7794 107.653 21.2505C106.748 22.364 105.555 22.9564 104.14 23.1348C103.098 23.2705 102.071 23.1919 101.072 22.8422C100.059 22.4853 99.233 21.8715 98.5934 21.015C97.544 19.6089 97.2859 18.0101 97.4865 16.3113C97.5872 15.4691 97.8319 14.6696 98.2985 13.9488C99.233 12.5141 100.512 11.5863 102.236 11.3221C103.292 11.158 104.334 11.2579 105.34 11.622C106.123 11.9074 106.783 12.3856 107.329 13.0066C108.019 13.7918 108.436 14.7053 108.637 15.7189C108.774 16.4255 108.795 17.1393 108.767 17.8816L108.76 17.8745ZM106.123 15.9901C106.123 15.3549 105.735 14.5911 105.196 14.17C103.831 13.0994 101.625 13.2493 100.541 14.8267C100.303 15.1764 100.145 15.5548 100.117 15.9901H106.123Z" fill="#94C3D3" style="fill:#94C3D3;fill:color(display-p3 0.5786 0.7635 0.8265);fill-opacity:1;"/>
<path d="M87.7232 22.8994H85.1655V11.5506H87.7232C87.7232 11.9218 87.7232 12.2787 87.7232 12.6427C87.7232 12.7069 87.7665 12.764 87.7877 12.8211C87.8523 12.7854 87.953 12.7711 87.9891 12.714C88.5209 11.9075 89.2676 11.4578 90.2235 11.3079C91.2006 11.158 92.1416 11.2508 93.018 11.7076C93.7654 12.1002 94.3043 12.6998 94.6851 13.4492C95.0084 14.0988 95.1233 14.7982 95.1233 15.5191C95.1233 17.9388 95.1233 20.3584 95.1233 22.778C95.1233 22.8137 95.1233 22.8494 95.1162 22.8922C95.0659 22.8922 95.0155 22.9065 94.9723 22.9065C94.2256 22.9065 93.4782 22.9065 92.7308 22.9065C92.5798 22.9065 92.5514 22.8637 92.5514 22.7209C92.5514 20.5583 92.5514 18.4027 92.5514 16.24C92.5514 15.7475 92.494 15.255 92.221 14.8125C91.8253 14.1701 91.2722 13.7561 90.4965 13.6847C89.5335 13.5919 88.7578 13.9346 88.1834 14.7054C87.8743 15.1194 87.7523 15.6047 87.7303 16.1116C87.7161 16.4113 87.7303 16.7182 87.7303 17.018C87.7303 18.9095 87.7303 20.8081 87.7303 22.6995V22.8851L87.7232 22.8994Z" fill="#94C3D3" style="fill:#94C3D3;fill:color(display-p3 0.5786 0.7635 0.8265);fill-opacity:1;"/>
<path d="M81.5874 22.9065H79.0227V13.7919H77.0181V11.5364H81.5874V22.9065Z" fill="#94C3D3" style="fill:#94C3D3;fill:color(display-p3 0.5786 0.7635 0.8265);fill-opacity:1;"/>
<path d="M80.3665 6.57568C81.3145 6.60423 81.9903 7.28947 81.9683 8.20303C81.94 9.11667 81.2146 9.79471 80.2949 9.7662C79.3532 9.73761 78.6491 9.01676 78.6923 8.11742C78.7356 7.21089 79.4539 6.55426 80.3665 6.58282V6.57568Z" fill="#94C3D3" style="fill:#94C3D3;fill:color(display-p3 0.5786 0.7635 0.8265);fill-opacity:1;"/>
<path d="M148.188 7.42515C149.574 7.44655 150.889 7.73207 152.096 8.4244C153.074 8.98113 153.878 9.73768 154.539 10.637C155.207 11.5507 155.638 12.5642 155.839 13.6705C156.155 15.3978 156.019 17.0894 155.308 18.7025C154.719 20.0372 153.785 21.1007 152.57 21.9216C151.672 22.5282 150.688 22.9279 149.617 23.085C147.75 23.3634 145.939 23.192 144.279 22.2285C142.577 21.2435 141.377 19.8303 140.788 17.9459C140.155 15.9331 140.249 13.9346 141.061 11.986C141.384 11.208 141.873 10.5228 142.447 9.8947C143.626 8.62423 145.069 7.83909 146.78 7.55358C147.246 7.47507 147.721 7.46085 148.195 7.41797L148.188 7.42515ZM142.225 15.355C142.246 15.6548 142.261 15.9545 142.297 16.2543C142.433 17.4749 142.878 18.5811 143.69 19.5091C145.278 21.3292 147.304 21.8716 149.617 21.3863C151.392 21.0151 152.664 19.9302 153.483 18.3456C154.23 16.9038 154.323 15.355 154 13.7847C153.662 12.1431 152.735 10.8868 151.335 9.96609C150.408 9.35944 149.374 9.10956 148.282 9.09534C146.478 9.07393 144.969 9.72346 143.77 11.0724C142.685 12.2929 142.232 13.7419 142.225 15.3479V15.355Z" fill="#94C3D3" style="fill:#94C3D3;fill:color(display-p3 0.5786 0.7635 0.8265);fill-opacity:1;"/>
<path d="M111.123 22.9208V21.429H112.538V9.23092H111.123V7.72485C111.194 7.72485 111.252 7.72485 111.309 7.72485C113.07 7.72485 114.83 7.72485 116.59 7.72485C117.761 7.72485 118.904 7.88187 119.996 8.31728C121.109 8.7598 122.029 9.46644 122.769 10.3943C123.416 11.2151 123.854 12.1359 124.091 13.1494C124.328 14.163 124.378 15.1979 124.299 16.24C124.228 17.0965 124.062 17.9388 123.739 18.731C123.121 20.2442 122.086 21.3862 120.606 22.1071C119.378 22.7066 118.056 22.9065 116.698 22.9136C114.873 22.9208 113.055 22.9136 111.231 22.9136C111.202 22.9136 111.173 22.9136 111.116 22.9136L111.123 22.9208ZM114.334 21.3505C114.385 21.3505 114.428 21.3648 114.47 21.3648C115.197 21.3648 115.929 21.3719 116.655 21.3648C117.445 21.3505 118.228 21.2648 118.982 21.0079C119.981 20.6582 120.808 20.0729 121.432 19.2092C122.014 18.4027 122.331 17.489 122.446 16.5112C122.618 15.1051 122.539 13.7204 121.95 12.4C121.439 11.2651 120.62 10.43 119.493 9.88756C118.702 9.50924 117.862 9.34512 116.993 9.32372C116.152 9.30942 115.304 9.31653 114.463 9.31653C114.421 9.31653 114.385 9.32372 114.341 9.33083V21.3433L114.334 21.3505Z" fill="#94C3D3" style="fill:#94C3D3;fill:color(display-p3 0.5786 0.7635 0.8265);fill-opacity:1;"/>
<path d="M139.286 22.9208H137.763C137.547 22.9208 137.401 22.8208 137.325 22.621C136.937 21.5789 136.549 20.5368 136.168 19.4876C136.125 19.3662 136.074 19.3163 135.938 19.3163C133.56 19.3163 131.175 19.3163 128.797 19.3163C128.646 19.3163 128.603 19.3805 128.56 19.5018C128.157 20.5939 127.755 21.6788 127.36 22.7709C127.316 22.8851 127.274 22.9279 127.144 22.9279C126.584 22.9208 126.031 22.9279 125.449 22.9279C125.478 22.8423 125.499 22.778 125.528 22.7067C127.382 17.7674 129.235 12.8282 131.089 7.88905C131.131 7.76773 131.19 7.72485 131.319 7.72485C132.044 7.72485 132.777 7.72485 133.503 7.72485C133.632 7.72485 133.682 7.76773 133.718 7.88187C135.558 12.8425 137.397 17.796 139.236 22.7566C139.258 22.8066 139.265 22.8565 139.293 22.9279L139.286 22.9208ZM135.507 17.7032C135.485 17.6461 135.478 17.6033 135.464 17.5676C134.473 14.8696 133.481 12.1788 132.489 9.48073C132.468 9.43074 132.418 9.38793 132.374 9.33794C132.332 9.39504 132.267 9.43792 132.238 9.50213C131.39 11.7933 130.55 14.0916 129.702 16.3828C129.544 16.8181 129.386 17.2535 129.22 17.7032H135.507Z" fill="#94C3D3" style="fill:#94C3D3;fill:color(display-p3 0.5786 0.7635 0.8265);fill-opacity:1;"/>
</g>
<defs>
<clipPath id="clip0_582_19015">
<rect width="156" height="32" fill="white" style="fill:white;fill-opacity:1;"/>
</clipPath>
</defs>
</svg>
