<?xml version="1.0" encoding="UTF-8"?>
<svg id="Layer_1" data-name="Layer 1" xmlns="http://www.w3.org/2000/svg" viewBox="0 0 1000 200.51">
  <defs>
    <style>
      .cls-1 {
        fill: #fff;
      }
    </style>
  </defs>
  <path class="cls-1" d="M731.97,9.57c7.29,0,13.2,5.91,13.2,13.2s-5.91,13.2-13.2,13.2h-.4c-7.29,0-13.2-5.91-13.2-13.2s5.91-13.2,13.2-13.2h.4ZM202.27,118.08c1.11,30.85,20.33,46.72,57.65,46.72,40.06,0,55.39-19.69,55.39-44.18,0-21.52-11.22-36.62-35.94-40.06l-31.59-4.12c-11.67-1.6-21.52-9.84-21.52-23.35s8.47-21.75,21.75-21.75h19c15.86,0,23.87,14.18,24.89,27.84.04.57.5,1,1.07,1h18.68c.62,0,1.12-.53,1.09-1.15-1.77-30.84-20.28-47.15-54.65-47.15s-51.96,18.54-51.96,43.03c0,21.52,12.36,37.31,36.4,40.52l32.05,4.35c12.36,1.37,20.37,10.3,20.37,22.43,0,13.28-9.61,23.12-23.81,23.12h-21.52c-16.12,0-24.58-13.36-26.44-27.44-.07-.54-.52-.94-1.06-.94h-18.76c-.61,0-1.11.51-1.09,1.12ZM377.52,165.39l-12.67,33.66c-.27.71.26,1.46,1.01,1.46h17.37c.45,0,.85-.28,1.01-.7l54.36-145.48c.26-.71-.26-1.46-1.01-1.46h-17.15c-.45,0-.85.28-1.01.7l-33.62,89.71h-4.58l-32.7-89.71c-.16-.43-.56-.71-1.02-.71h-18.29c-.75,0-1.27.75-1.01,1.46l39.22,105.86c.31.85,1.12,1.41,2.03,1.41h5.43c1.96,0,3.32,1.96,2.63,3.79ZM456.77,53.94v106.57c0,.6.48,1.08,1.08,1.08h17.75c.6,0,1.08-.48,1.08-1.08v-63.7c0-16.25,11.44-28.16,24.72-28.16h15.11c12.59,0,21.75,10.53,21.75,28.16v63.7c0,.6.48,1.08,1.08,1.08h17.52c.6,0,1.08-.48,1.08-1.08v-66.45c0-27.93-15.34-44.41-43.95-44.41-14.51,0-25.38,4.23-33.13,12.69-1.73,1.89-4.87.67-4.87-1.89v-6.52c0-.6-.48-1.08-1.08-1.08h-17.07c-.6,0-1.08.48-1.08,1.08ZM634.4,164.8c13.87,0,25.38-5.21,33.74-13.27,1.77-1.7,4.72-.41,4.72,2.05v6.93c0,.6.48,1.08,1.08,1.08h17.07c.6,0,1.08-.48,1.08-1.08V11.6c0-.6-.48-1.08-1.08-1.08h-17.52c-.6,0-1.08.48-1.08,1.08v48c0,2.42-2.86,3.71-4.67,2.1-7.69-6.86-18.99-12.03-32.41-12.03-32.05,0-54.71,23.35-54.71,57.45s21.75,57.68,53.79,57.68ZM646.53,146.03h-16.48c-16.25,0-29.53-17.4-29.53-38.91s13.28-38.68,29.53-38.68h16.48c14.88,0,25.87,12.82,25.87,28.38v20.83c0,15.79-11.22,28.38-25.87,28.38ZM721.81,53.94v106.57c0,.6.48,1.08,1.08,1.08h17.75c.6,0,1.08-.48,1.08-1.08V53.94c0-.6-.48-1.08-1.08-1.08h-17.75c-.6,0-1.08.48-1.08,1.08ZM821,164.8c25.48,0,46.3-12.89,50.85-40.63.11-.66-.41-1.26-1.07-1.26h-17.5c-.53,0-.97.39-1.06.91-2.6,15.39-14.27,22.44-25.49,22.44h-12.82c-15.79,0-29.3-17.63-29.3-39.14s13.51-38.91,29.3-38.91h12.82c11.23,0,22.68,6.83,25.48,22.22.09.52.53.9,1.06.9h17.51c.67,0,1.18-.6,1.07-1.26-4.55-27.74-25.37-40.4-50.85-40.4-33.42,0-56.31,23.35-56.31,57.45s22.89,57.68,56.31,57.68ZM942.32,164.8c13.87,0,25.38-5.21,33.74-13.27,1.77-1.7,4.72-.41,4.72,2.05v6.93c0,.6.48,1.08,1.08,1.08h17.07c.6,0,1.08-.48,1.08-1.08V53.94c0-.6-.48-1.08-1.08-1.08h-17.07c-.6,0-1.08.48-1.08,1.08v5.57c0,2.4-2.82,3.7-4.63,2.12-7.8-6.78-19.44-11.98-32.91-11.98-32.05,0-54.71,23.35-54.71,57.45s21.75,57.68,53.79,57.68ZM954.45,146.03h-16.48c-16.25,0-29.53-17.4-29.53-38.91s13.28-38.68,29.53-38.68h16.48c14.88,0,25.87,12.82,25.87,28.38v20.83c0,15.79-11.22,28.38-25.87,28.38ZM128.68,25.86c-10.13.22-18.75,7.47-21.37,17.25-.27,1.02-.56,2.09-.85,3.18-4.87,18.11-8.05,20.96-27.31,20.96h-2.44c-10.18,0-19.09,6.84-21.72,16.67l-.8,3c-5.11,18.98-8.33,21.72-28.31,21.72h0c-13.14,0-23.79,10.65-23.79,23.79v.34c0,12.17,9.69,22.51,21.85,22.44,10.13-.06,18.97-6.88,21.6-16.67l.8-3c5.08-19.04,8.3-21.72,28.31-21.72h1.64c10.18,0,19.09-6.84,21.72-16.67l1.01-3.77c4.89-18.33,8.11-20.95,27.31-20.95h0c9.87,0,19.13-5.5,23.23-14.48,7.13-15.64-4.51-32.44-20.87-32.08ZM153.03,124.95c-.68,2.54-1.76,4.87-3.16,6.96-.19.26-.38.54-.55.8-.16.19-.31.39-.47.58-.26.34-.54.67-.83.99-1.5,1.66-3.22,3.09-5.12,4.26-2.86,1.76-6.12,2.93-9.54,3.41-.26.04-.51.07-.76.09-.89.1-1.78.15-2.68.15-17.53,0-20.93,2.33-25.32,18.17l-.42,1.57-.93,3.46c-2.48,9.26-10.86,15.69-20.45,15.69-11.99,0-21.17-9.8-21.17-21.13,0-1.81.23-3.66.73-5.51,2.58-9.62,10.98-16.45,20.79-17.12h2.3c1.41,0,2.73-.01,3.97-.06,14.12-.44,17.31-3.7,21.31-18.01l.47-1.69.8-2.99c2.16-8.06,8.65-14.31,16.62-15.88.29-.06.58-.1.86-.15.29-.04.57-.09.86-.12.52-.06,1.05-.09,1.58-.1.22-.01.44-.01.67-.01,1.5,0,2.96.16,4.34.44.35.07.7.16,1.05.25h.03c.86.23,1.71.51,2.52.85.31.13.6.28.89.41.21.09.39.16.58.26.5.23.96.51,1.44.79.12.09.25.16.38.23.25.15.5.32.73.48.23.16.47.34.7.51.09.06.18.12.26.19.23.17.45.36.68.55.25.2.48.42.71.63.04.06.09.09.13.13.23.22.47.44.68.67.58.6,1.11,1.21,1.6,1.85.18.22.35.45.51.69.18.23.33.47.48.71.32.47.61.96.87,1.46.41.76.77,1.53,1.09,2.33,1.59,4.04,1.97,8.6.73,13.21ZM147.74,104.69c-.26-.28-.54-.54-.82-.8M83.18,137.31c.51-.04,1.04-.06,1.56-.06h4.68M.74,56.13c.68-2.54,1.76-4.87,3.16-6.96.19-.26.38-.54.55-.8.16-.19.31-.39.47-.58.26-.34.54-.67.83-.99,1.5-1.66,3.22-3.09,5.12-4.26,2.86-1.76,6.12-2.93,9.54-3.41.26-.04.51-.07.76-.09.89-.1,1.78-.15,2.68-.15,17.53,0,20.93-2.33,25.32-18.17l.42-1.57.93-3.46C53,6.43,61.39,0,70.97,0c11.99,0,21.17,9.8,21.17,21.13,0,1.81-.23,3.66-.73,5.51-2.58,9.62-10.98,16.45-20.79,17.12h-2.3c-1.41,0-2.73.01-3.97.06-14.12.44-17.31,3.7-21.31,18.01l-.47,1.69-.8,2.99c-2.16,8.06-8.65,14.31-16.62,15.88-.29.06-.58.1-.86.15-.29.04-.57.09-.86.12-.52.06-1.05.09-1.58.1-.22.01-.44.01-.67.01-1.5,0-2.96-.16-4.34-.44-.35-.07-.7-.16-1.05-.25h-.03c-.86-.23-1.71-.51-2.52-.85-.31-.13-.6-.28-.89-.41-.21-.09-.39-.16-.58-.26-.5-.23-.96-.51-1.44-.79-.12-.09-.25-.16-.38-.23-.25-.15-.5-.32-.73-.48-.23-.16-.47-.34-.7-.51-.09-.06-.18-.12-.26-.19-.23-.17-.45-.36-.68-.55-.25-.2-.48-.42-.71-.63-.04-.06-.09-.09-.13-.13-.23-.22-.47-.44-.68-.67-.58-.6-1.11-1.21-1.6-1.85-.18-.22-.35-.45-.51-.69-.18-.23-.33-.47-.48-.71-.32-.47-.61-.96-.87-1.46-.41-.76-.77-1.53-1.09-2.33-1.59-4.04-1.97-8.6-.73-13.21ZM6.03,76.38c.26.28.54.54.82.8M70.59,43.76c-.51.04-1.04.06-1.56.06h-4.68"/>
</svg>