<svg width="142" height="40" viewBox="0 0 142 40" fill="none" xmlns="http://www.w3.org/2000/svg">
<g clip-path="url(#clip0_582_18431)">
<path fill-rule="evenodd" clip-rule="evenodd" d="M115.779 28.4744V12.1239C115.779 11.5032 116.283 11 116.904 11H116.918C117.539 11 118.043 11.5032 118.043 12.1239V28.4744C118.043 29.0951 117.539 29.5982 116.918 29.5982H116.904C116.283 29.5982 115.779 29.0951 115.779 28.4744ZM65.525 12.131V28.4674C65.525 29.092 65.018 29.5983 64.3935 29.5983C63.7684 29.5983 63.2614 29.092 63.2614 28.4674V12.131C63.2614 11.5064 63.7684 11 64.3935 11C65.018 11 65.525 11.5064 65.525 12.131ZM18.481 13.2619H2.13398C1.50899 13.2619 1.00233 12.7556 1.00233 12.131C1.00233 11.5064 1.50899 11.0001 2.13398 11.0001H18.481C19.106 11.0001 19.6127 11.5064 19.6127 12.131C19.6127 12.7556 19.106 13.2619 18.481 13.2619ZM97.1132 21.4301H107.172C107.797 21.4301 108.303 20.9238 108.303 20.2992C108.303 19.6746 107.797 19.1683 107.172 19.1683H97.1132C96.4881 19.1683 95.9816 19.6746 95.9816 20.2992C95.9816 20.9238 96.4881 21.4301 97.1132 21.4301ZM127.294 21.4301H136.095C136.72 21.4301 137.227 20.9238 137.227 20.2992C137.227 19.6746 136.72 19.1683 136.095 19.1683H127.294C126.669 19.1683 126.162 19.6746 126.162 20.2992C126.162 20.9238 126.669 21.4301 127.294 21.4301ZM4.64926 21.4301H15.9658C16.5908 21.4301 17.0974 20.9238 17.0974 20.2992C17.0974 19.6746 16.5908 19.1683 15.9658 19.1683H4.64926C4.02427 19.1683 3.51762 19.6746 3.51762 20.2992C3.51762 20.9238 4.02427 21.4301 4.64926 21.4301ZM8.41989 17.3448H2.13164C1.50665 17.3448 1 16.8385 1 16.2139C1 15.5893 1.50665 15.083 2.13164 15.083H8.41989C9.04487 15.083 9.55152 15.5893 9.55152 16.2139C9.55152 16.8385 9.04487 17.3448 8.41989 17.3448ZM8.42219 25.5131H18.481C19.106 25.5131 19.6127 25.0067 19.6127 24.3822C19.6127 23.7576 19.106 23.2513 18.481 23.2513H8.42219C7.7972 23.2513 7.29055 23.7576 7.29055 24.3822C7.29055 25.0067 7.7972 25.5131 8.42219 25.5131ZM78.5468 25.5131H71.0012C70.3761 25.5131 69.8696 25.0067 69.8696 24.3822C69.8696 23.7576 70.3761 23.2513 71.0012 23.2513H78.5468C79.1719 23.2513 79.6788 23.7576 79.6788 24.3822C79.6788 25.0067 79.1719 25.5131 78.5468 25.5131ZM102.769 25.5131H110.315C110.94 25.5131 111.447 25.0067 111.447 24.3822C111.447 23.7576 110.94 23.2513 110.315 23.2513H102.769C102.144 23.2513 101.638 23.7576 101.638 24.3822C101.638 25.0067 102.144 25.5131 102.769 25.5131ZM74.7742 17.3448H71.0012C70.3761 17.3448 69.8696 16.8385 69.8696 16.2139C69.8696 15.5893 70.3761 15.083 71.0012 15.083H74.7742C75.3993 15.083 75.9058 15.5893 75.9058 16.2139C75.9058 16.8385 75.3993 17.3448 74.7742 17.3448ZM93.9675 17.3448H97.7406C98.3657 17.3448 98.8721 16.8385 98.8721 16.2139C98.8721 15.5893 98.3657 15.083 97.7406 15.083H93.9675C93.343 15.083 92.836 15.5893 92.836 16.2139C92.836 16.8385 93.343 17.3448 93.9675 17.3448ZM139.868 25.5131H136.095C135.47 25.5131 134.964 25.0067 134.964 24.3822C134.964 23.7576 135.47 23.2513 136.095 23.2513H139.868C140.494 23.2513 141 23.7576 141 24.3822C141 25.0067 140.494 25.5131 139.868 25.5131ZM123.521 17.3448H126.037C126.662 17.3448 127.168 16.8385 127.168 16.2139C127.168 15.5893 126.662 15.083 126.037 15.083H123.521C122.896 15.083 122.39 15.5893 122.39 16.2139C122.39 16.8385 122.896 17.3448 123.521 17.3448ZM18.481 29.5982H2.13398C1.50899 29.5982 1.00233 29.0919 1.00233 28.4673C1.00233 27.8427 1.50899 27.3364 2.13398 27.3364H18.481C19.106 27.3364 19.6127 27.8427 19.6127 28.4673C19.6127 29.0919 19.106 29.5982 18.481 29.5982ZM25.0889 17.3448H27.6042C28.2292 17.3448 28.7358 16.8385 28.7358 16.2139C28.7358 15.5893 28.2292 15.083 27.6042 15.083H25.0889C24.4639 15.083 23.9573 15.5893 23.9573 16.2139C23.9573 16.8385 24.4639 17.3448 25.0889 17.3448ZM27.6042 13.2619H25.0889C24.4639 13.2619 23.9573 12.7556 23.9573 12.131C23.9573 11.5064 24.4639 11.0001 25.0889 11.0001H27.6042C28.2292 11.0001 28.7358 11.5064 28.7358 12.131C28.7358 12.7556 28.2292 13.2619 27.6042 13.2619ZM36.4054 17.3448H41.436C42.061 17.3448 42.5676 16.8385 42.5676 16.2139C42.5676 15.5893 42.061 15.083 41.436 15.083H36.4054C35.7804 15.083 35.2738 15.5893 35.2738 16.2139C35.2738 16.8385 35.7804 17.3448 36.4054 17.3448ZM41.436 13.2619H36.4054C35.7804 13.2619 35.2738 12.7556 35.2738 12.131C35.2738 11.5064 35.7804 11.0001 36.4054 11.0001H41.436C42.061 11.0001 42.5676 11.5064 42.5676 12.131C42.5676 12.7556 42.061 13.2619 41.436 13.2619ZM25.082 21.4301H41.443C42.0641 21.4301 42.5676 20.9269 42.5676 20.3061V20.2921C42.5676 19.6714 42.0641 19.1683 41.443 19.1683H25.082C24.4608 19.1683 23.9573 19.6714 23.9573 20.2921V20.3061C23.9573 20.9269 24.4608 21.4301 25.082 21.4301ZM36.4077 25.5131H30.1195C29.4945 25.5131 28.9878 25.0067 28.9878 24.3822C28.9878 23.7576 29.4945 23.2513 30.1195 23.2513H36.4077C37.0327 23.2513 37.5394 23.7576 37.5394 24.3822C37.5394 25.0067 37.0327 25.5131 36.4077 25.5131ZM30.1195 29.5982H36.4077C37.0327 29.5982 37.5394 29.0919 37.5394 28.4673C37.5394 27.8427 37.0327 27.3364 36.4077 27.3364H30.1195C29.4945 27.3364 28.9878 27.8427 28.9878 28.4673C28.9878 29.0919 29.4945 29.5982 30.1195 29.5982ZM57.3514 25.3357V15.2601C57.3514 14.642 56.85 14.1409 56.2314 14.1409H56.208C55.5895 14.1409 55.0881 14.642 55.0881 15.2601V25.3357C55.0881 25.9539 55.5895 26.455 56.208 26.455H56.2314C56.85 26.455 57.3514 25.9539 57.3514 25.3357ZM53.2634 12.1076V15.9248C53.2634 16.5365 52.7672 17.0323 52.1551 17.0323H52.1085C51.4964 17.0323 51.0002 16.5365 51.0002 15.9248V12.1076C51.0002 11.4959 51.4964 11 52.1085 11H52.1551C52.7672 11 53.2634 11.4959 53.2634 12.1076ZM61.4391 28.4791V18.4035C61.4391 17.7854 60.9379 17.2842 60.3191 17.2842H60.2961C59.6773 17.2842 59.176 17.7854 59.176 18.4035V28.4791C59.176 29.0973 59.6773 29.5983 60.2961 29.5983H60.3191C60.9379 29.5983 61.4391 29.0973 61.4391 28.4791ZM49.1779 12.1309V28.4674C49.1779 29.092 48.6712 29.5983 48.0462 29.5983C47.4212 29.5983 46.9145 29.092 46.9145 28.4674V12.1309C46.9145 11.5064 47.4212 11 48.0462 11C48.6712 11 49.1779 11.5064 49.1779 12.1309ZM71.0035 13.2619H87.3506C87.9757 13.2619 88.4821 12.7556 88.4821 12.131C88.4821 11.5064 87.9757 11.0001 87.3506 11.0001H71.0035C70.3784 11.0001 69.8719 11.5064 69.8719 12.131C69.8719 12.7556 70.3784 13.2619 71.0035 13.2619ZM87.3506 21.4301H71.0035C70.3784 21.4301 69.8719 20.9238 69.8719 20.2992C69.8719 19.6746 70.3784 19.1683 71.0035 19.1683H87.3506C87.9757 19.1683 88.4821 19.6746 88.4821 20.2992C88.4821 20.9238 87.9757 21.4301 87.3506 21.4301ZM71.0035 29.5982H87.3506C87.9757 29.5982 88.4821 29.0919 88.4821 28.4673C88.4821 27.8427 87.9757 27.3364 87.3506 27.3364H71.0035C70.3784 27.3364 69.8719 27.8427 69.8719 28.4673C69.8719 29.0919 70.3784 29.5982 71.0035 29.5982ZM110.315 13.2619H93.9675C93.343 13.2619 92.836 12.7556 92.836 12.131C92.836 11.5064 93.343 11.0001 93.9675 11.0001H110.315C110.94 11.0001 111.447 11.5064 111.447 12.131C111.447 12.7556 110.94 13.2619 110.315 13.2619ZM93.9675 29.5982H110.315C110.94 29.5982 111.447 29.0919 111.447 28.4673C111.447 27.8427 110.94 27.3364 110.315 27.3364H93.9675C93.343 27.3364 92.836 27.8427 92.836 28.4673C92.836 29.0919 93.343 29.5982 93.9675 29.5982ZM139.868 13.2619H123.521C122.896 13.2619 122.39 12.7556 122.39 12.131C122.39 11.5064 122.896 11.0001 123.521 11.0001H139.868C140.494 11.0001 141 11.5064 141 12.131C141 12.7556 140.494 13.2619 139.868 13.2619ZM123.521 29.5982H139.868C140.494 29.5982 141 29.0919 141 28.4673C141 27.8427 140.494 27.3364 139.868 27.3364H123.521C122.896 27.3364 122.39 27.8427 122.39 28.4673C122.39 29.0919 122.896 29.5982 123.521 29.5982Z" fill="white" style="fill:white;fill-opacity:1;"/>
</g>
<defs>
<clipPath id="clip0_582_18431">
<rect width="140" height="19" fill="white" style="fill:white;fill-opacity:1;" transform="translate(1 11)"/>
</clipPath>
</defs>
</svg>
