<svg width="104" height="40" viewBox="0 0 104 40" fill="none" xmlns="http://www.w3.org/2000/svg">
<path d="M29.07 17.629C31.0782 17.629 32.7053 16.0018 32.7053 13.9936C32.7053 11.9855 31.0782 10.3583 29.07 10.3583C27.8583 10.3583 26.7901 10.9517 26.128 11.8637V11.8574C24.4603 14.1529 21.1685 14.2029 19.4227 12.0167C18.2547 9.69624 19.2322 7.73804 21.8619 7.22585C23.5359 6.90104 24.8038 5.42693 24.8038 3.65924C24.8038 1.65107 23.1767 0.0239258 21.1685 0.0239258C19.1604 0.0239258 17.5332 1.65107 17.5332 3.65924C17.5332 4.29948 17.7019 4.90225 17.9923 5.42381C19.3321 7.83798 18.3702 9.89924 15.6625 10.427C14.7411 10.6051 13.9479 11.1329 13.4138 11.8637V11.8574C11.7055 14.2091 8.28565 14.2091 6.5773 11.8574V11.8637C5.91519 10.9548 4.84709 10.3583 3.63532 10.3583C1.62715 10.3583 0 11.9855 0 13.9936C0 16.0018 1.62715 17.629 3.63532 17.629C4.84709 17.629 5.91519 17.0356 6.5773 16.1236V16.1299C8.23568 13.8469 11.4993 13.7875 13.2545 15.9362C14.3539 18.6752 10.806 25.9583 8.02018 26.4705H8.0233C6.32745 26.7797 5.04384 28.2632 5.04384 30.0465C5.04384 32.0547 6.67099 33.6818 8.67916 33.6818C10.6873 33.6818 12.3145 32.0547 12.3145 30.0465C12.3145 29.4187 12.1552 28.8254 11.8741 28.31C10.4968 25.746 14.1602 18.0974 17.0179 17.5696H17.0148C17.9517 17.3979 18.7637 16.8669 19.3009 16.1267V16.133C21.0092 13.7813 24.4291 13.7813 26.1374 16.133V16.1267C26.7995 17.0356 27.8676 17.6321 29.0794 17.6321L29.07 17.629Z" fill="white" style="fill:white;fill-opacity:1;"/>
<path d="M24.6278 34.4933C23.4135 34.4933 21.4572 34.2684 21.4572 30.9179V25.6336H19.5908V23.9921H21.4572V20.709H23.4135V23.9921H26.022V25.6336H23.4135V30.4907C23.4135 32.4695 24.0881 32.7393 25.0775 32.7393C25.4598 32.7393 26.0894 32.6719 26.3817 32.6044V34.3359C25.9995 34.4258 25.3024 34.4933 24.6278 34.4933Z" fill="white" style="fill:white;fill-opacity:1;"/>
<path d="M32.916 34.6284C29.6105 34.6284 27.7891 32.2448 27.7891 29.1866C27.7891 26.1285 29.7454 23.7224 32.961 23.7224C34.6025 23.7224 35.9517 24.5544 36.6038 25.8362V23.9923H38.5376V34.3585H36.6038V32.5371C35.9517 33.8189 34.4676 34.6284 32.916 34.6284ZM29.7229 29.1866C29.7229 31.3004 31.0496 32.8744 33.1858 32.8744C35.457 32.8744 36.6937 31.1879 36.6937 29.1866C36.6937 27.1853 35.457 25.4764 33.1858 25.4764C31.0496 25.4764 29.7229 27.0504 29.7229 29.1866Z" fill="white" style="fill:white;fill-opacity:1;"/>
<path d="M47.6628 23.7224C50.631 23.7224 52.6774 25.9486 52.6774 29.1866C52.6774 32.3572 50.5411 34.6284 47.5504 34.6284C45.9538 34.6284 44.5148 33.8189 43.8402 32.5371V39.1482H41.9062V23.9923H43.8402V25.8362C44.5148 24.5319 45.9988 23.7224 47.6628 23.7224ZM43.7502 29.1866C43.7502 31.3453 45.2119 32.8744 47.2806 32.8744C49.2819 32.8744 50.7211 31.3453 50.7211 29.1866C50.7211 27.0279 49.2819 25.4764 47.2806 25.4764C45.2119 25.4764 43.7502 27.0055 43.7502 29.1866Z" fill="white" style="fill:white;fill-opacity:1;"/>
<path d="M59.5543 34.6284C56.3612 34.6284 54.3599 32.5146 54.3599 29.1642C54.3599 25.8811 56.3837 23.7224 59.4644 23.7224C62.3876 23.7224 64.3664 25.7462 64.3664 28.602C64.3664 28.9843 64.3664 29.2766 64.3214 29.7488H56.2938C56.3387 31.7501 57.5755 32.9194 59.5543 32.9194C60.926 32.9194 61.8704 32.3797 62.2977 31.3903H64.254C63.8942 33.3017 61.9828 34.6284 59.5543 34.6284ZM56.2938 28.2422H62.4551C62.4551 26.4208 61.3307 25.2965 59.4419 25.2965C57.553 25.2965 56.3837 26.4883 56.2938 28.2422Z" fill="white" style="fill:white;fill-opacity:1;"/>
<path d="M70.3813 34.6284C67.8403 34.6284 66.0864 33.1668 66.0864 31.2554H68.0202C68.0202 32.2673 68.9646 33.0543 70.4937 33.0543C71.6405 33.0543 72.4051 32.4922 72.4051 31.5702C72.4051 30.8731 72.0903 30.4009 70.8535 30.0861L68.7398 29.5464C67.2107 29.1192 66.4012 28.1298 66.4012 26.6906C66.4012 24.9367 68.0202 23.7224 70.2689 23.7224C72.7424 23.7224 74.249 24.9142 74.249 26.8481H72.3376C72.3376 25.8586 71.5506 25.229 70.2014 25.229C69.122 25.229 68.335 25.7462 68.335 26.6007C68.335 27.2528 68.7173 27.725 69.8416 28.0398L71.9778 28.6245C73.5069 29.0517 74.3839 30.0636 74.3839 31.5028C74.3839 33.4816 72.8323 34.6284 70.3813 34.6284Z" fill="white" style="fill:white;fill-opacity:1;"/>
<path d="M80.5584 34.4933C79.3442 34.4933 77.3878 34.2684 77.3878 30.9179V25.6336H75.5215V23.9921H77.3878V20.709H79.3442V23.9921H81.9526V25.6336H79.3442V30.4907C79.3442 32.4695 80.0188 32.7393 81.0082 32.7393C81.3904 32.7393 82.0201 32.6719 82.3124 32.6044V34.3359C81.9301 34.4258 81.233 34.4933 80.5584 34.4933Z" fill="white" style="fill:white;fill-opacity:1;"/>
<path d="M84.6836 34.3583V23.9921H86.6399V26.3532C87.0447 24.5992 88.3714 23.8347 89.6756 23.8347C90.0354 23.8347 90.3727 23.8572 90.62 23.9246V25.7235C90.2827 25.6561 90.0129 25.6561 89.6531 25.6561C87.6068 25.6561 86.6399 27.5224 86.6399 29.8386V34.3583H84.6836Z" fill="white" style="fill:white;fill-opacity:1;"/>
<path d="M100.207 23.9922H102.141V34.5608C102.141 36.2023 101.646 37.4616 100.747 38.2936C99.9149 39.0131 98.7681 39.4179 97.3515 39.4179C95.8674 39.4179 94.6531 39.0356 93.8436 38.3385C93.1015 37.7089 92.6968 36.8095 92.6743 35.6627H94.6306C94.7206 36.9219 95.3952 37.7764 97.329 37.7764C99.0829 37.7764 100.207 36.787 100.207 34.4259V32.4921C99.6001 33.7513 98.3634 34.6058 96.6094 34.6058C93.911 34.6058 92.6743 32.8069 92.6743 30.176V23.9922H94.6081V29.7712C94.6081 31.6151 95.2153 32.8743 97.2615 32.8743C99.2628 32.8743 100.207 31.1878 100.207 29.3215V23.9922Z" fill="white" style="fill:white;fill-opacity:1;"/>
</svg>
