<svg xmlns="http://www.w3.org/2000/svg" width="266" height="64" fill="none"><path fill="#fff" d="M126.101 32.496a10.645 10.645 0 0 0-3.469-3.23 10.043 10.043 0 0 0-4.45-1.334c-6.112-.504-11.397 4.182-12.19 11.63l20.109-7.066Zm-10.488 31.42c-11.747-.972-20.482-11.944-19.544-24.6.938-12.657 11.199-22.22 22.941-21.248 9.976.824 17.848 8.142 18.99 20.018L107.758 48.65a11.127 11.127 0 0 0 3.63 3.79 10.422 10.422 0 0 0 4.872 1.61c4.848.473 8.822-2.639 9.48-5.443h11.444c-.111 4.305-6.66 16.605-21.56 15.295M196 18h-12v44h12V18ZM38.703 41.105v4.173c0 4.001-2.474 8.083-8.039 8.083-5.565 0-8.131-4.082-8.131-8.083V29.703h27.059V19.15H22.514V8H11.217v11.143H0v10.554h11.21v14.979C11.21 55.739 18.836 64 30.647 64 42.456 64 50 55.745 50 44.676v-3.578l-11.297.007ZM93.994 62h-11.45V36.911c0-2.498-.87-8.168-8.334-8.168-5.114 0-8.673 3.335-8.673 8.168V62H54V0h11.543v21.339c2.934-2.168 6.532-3.34 10.234-3.335C86.712 18.004 94 25.588 94 36.924L93.994 62ZM161.83 64c-11.723 0-20.402-5.874-21.83-15.333h11.988c1.616 3.745 6.353 5.11 9.842 5.11 4.744 0 8.324-1.365 8.324-3.917 0-2.553-1.609-3.494-9.694-4.687-8.226-1.193-19.239-3.321-19.239-13.119 0-6.895 6.353-14.054 19.685-14.054 10.56 0 18.431 5.45 19.957 13.71h-12.279c-.718-2.042-3.315-3.69-7.697-3.69-5.461 0-7.697 1.844-7.697 3.493 0 2.3 3.399 3.075 9.125 3.918C173.767 37.22 182 39.607 182 49.14c0 8.684-8.401 14.822-20.228 14.822M220.784 64C209.623 64 201.36 58.126 200 48.667h11.414c1.532 3.745 6.048 5.11 9.37 5.11 4.517 0 7.925-1.365 7.925-3.917 0-2.553-1.538-3.494-9.229-4.687-7.839-1.193-18.317-3.321-18.317-13.119 0-6.895 6.048-14.054 18.748-14.054 10.047 0 17.548 5.45 19 13.71H227.22c-.683-2.042-3.156-3.69-7.328-3.69-5.199 0-7.328 1.844-7.328 3.493 0 2.3 3.237 3.075 8.688 3.918C232.155 37.22 240 39.607 240 49.14c0 8.684-7.999 14.822-19.252 14.822M257.248 10.976l8.728-.22.024 6.561-8.781-.201 4.561 7.68-5.53 3.186-4.214-7.766L247.833 28l-5.523-3.26 4.561-7.576-8.871.141.054-6.524 8.847.244-4.627-7.723L247.768 0l4.316 7.925L256.262.03l5.518 3.259-4.532 7.686Z"/></svg>