<svg width="91" height="40" viewBox="0 0 91 40" fill="none" xmlns="http://www.w3.org/2000/svg">
<g clip-path="url(#clip0_582_13111)">
<path d="M43.1395 20.1704C42.8272 19.7109 42.4218 19.3316 41.9528 19.0601C41.4841 18.7887 40.9637 18.6321 40.4304 18.6017C38.3394 18.4284 36.5314 20.0393 36.2601 22.5993L43.1395 20.1704ZM39.5515 30.9708C35.5328 30.6368 32.5445 26.8654 32.8654 22.5148C33.1864 18.1641 36.6966 14.8768 40.7136 15.2109C44.1265 15.4941 46.8195 18.0098 47.2102 22.092L36.8643 25.7238C37.1742 26.2568 37.6001 26.7034 38.1061 27.0263C38.6121 27.3492 39.1834 27.539 39.7729 27.58C41.4314 27.7428 42.7909 26.673 43.016 25.7091H46.9311C46.8931 27.1889 44.6526 31.4169 39.5553 30.9666" fill="white" style="fill:white;fill-opacity:1;"/>
<path d="M67.0525 15.1875H62.9473V30.3125H67.0525V15.1875Z" fill="white" style="fill:white;fill-opacity:1;"/>
<path d="M13.2404 23.1297V24.5643C13.2404 25.9398 12.3942 27.3427 10.4904 27.3427C8.58647 27.3427 7.70859 25.9398 7.70859 24.5643V19.2104H16.9657V15.5827H7.70223V11.75H3.83736V15.5805H0V19.2083H3.83524V24.3573C3.83524 28.1604 6.44355 31 10.484 31C14.5245 31 17.1053 28.1625 17.1053 24.3573V23.1276L13.2404 23.1297Z" fill="white" style="fill:white;fill-opacity:1;"/>
<path d="M32.1567 30.3125H28.2399V21.6882C28.2399 20.8295 27.9419 18.8803 25.3885 18.8803C23.6391 18.8803 22.4214 20.0266 22.4214 21.6882V30.3125H18.4746V9H22.4236V16.3352C23.4272 15.5901 24.6583 15.1869 25.9245 15.1889C29.6655 15.1889 32.1588 17.796 32.1588 21.6923L32.1567 30.3125Z" fill="white" style="fill:white;fill-opacity:1;"/>
<path d="M55.3627 31C51.3522 31 48.3831 28.9809 47.8945 25.7292H51.9957C52.5485 27.0168 54.1691 27.4861 55.3627 27.4861C56.9856 27.4861 58.2104 27.0168 58.2104 26.1393C58.2104 25.2619 57.6599 24.9384 54.894 24.5283C52.0799 24.1181 48.3122 23.3866 48.3122 20.0186C48.3122 17.6485 50.4856 15.1875 55.0466 15.1875C58.6592 15.1875 61.3519 17.0607 61.874 19.9002H57.6733C57.4276 19.1982 56.5392 18.6316 55.0401 18.6316C53.1718 18.6316 52.4069 19.2659 52.4069 19.8325C52.4069 20.6233 53.5697 20.8897 55.5286 21.1793C59.4464 21.7945 62.263 22.6149 62.263 25.892C62.263 28.8773 59.3889 30.9873 55.3428 30.9873" fill="white" style="fill:white;fill-opacity:1;"/>
<path d="M75.5322 31C71.714 31 68.8871 28.9809 68.4219 25.7292H72.3267C72.8508 27.0168 74.3957 27.4861 75.5322 27.4861C77.0775 27.4861 78.2434 27.0168 78.2434 26.1393C78.2434 25.2619 77.7172 24.9384 75.0861 24.5283C72.4043 24.1181 68.8197 23.3866 68.8197 20.0186C68.8197 17.6485 70.8888 15.1875 75.2335 15.1875C78.6707 15.1875 81.2368 17.0607 81.7335 19.9002H77.734C77.5003 19.1982 76.6543 18.6316 75.227 18.6316C73.4484 18.6316 72.7201 19.2659 72.7201 19.8325C72.7201 20.6233 73.8275 20.8897 75.6923 21.1793C79.4223 21.7945 82.1061 22.6149 82.1061 25.892C82.1061 28.8773 79.3696 30.9873 75.5199 30.9873" fill="white" style="fill:white;fill-opacity:1;"/>
<path d="M88.0067 12.7731L90.9926 12.6974L91.0008 14.9528L87.9968 14.8835L89.5571 17.5236L87.6653 18.6187L86.2237 15.9492L84.7858 18.625L82.8963 17.5047L84.4567 14.9003L81.4219 14.9486L81.4403 12.7058L84.467 12.7899L82.884 10.1351L84.7636 9L86.2401 11.7242L87.6694 9.01051L89.5571 10.1309L88.0067 12.7731Z" fill="white" style="fill:white;fill-opacity:1;"/>
</g>
<defs>
<clipPath id="clip0_582_13111">
<rect width="91" height="22" fill="white" style="fill:white;fill-opacity:1;" transform="translate(0 9)"/>
</clipPath>
</defs>
</svg>
