<svg width="133" height="40" viewBox="0 0 133 40" fill="none" xmlns="http://www.w3.org/2000/svg">
<g clip-path="url(#clip0_582_17866)">
<path fill-rule="evenodd" clip-rule="evenodd" d="M26.9366 21.0001C26.9366 28.1988 21.122 34.0345 13.9493 34.0345C6.77654 34.0345 0.961914 28.1988 0.961914 21.0001C0.961914 13.8013 6.77654 7.96558 13.9493 7.96558C21.122 7.96558 26.9366 13.8013 26.9366 21.0001ZM15.2203 21.7098L19.334 25.8385C19.9616 26.4683 19.5175 27.5465 18.6294 27.5465H9.27177C8.38363 27.5465 7.93953 26.4683 8.56711 25.8385L12.6808 21.7098C13.0691 21.3202 13.0691 20.685 12.6808 20.2954L8.56711 16.1667C7.93953 15.5369 8.38363 14.4587 9.27177 14.4587H18.6294C19.5175 14.4587 19.9616 15.5369 19.334 16.1667L15.2203 20.2954C14.8321 20.685 14.8321 21.3202 15.2203 21.7098Z" fill="#FF9FC6" style="fill:#FF9FC6;fill:color(display-p3 1.0000 0.6235 0.7765);fill-opacity:1;"/>
<mask id="mask0_582_17866" style="mask-type:luminance" maskUnits="userSpaceOnUse" x="31" y="8" width="102" height="26">
<path d="M132.178 8.6897H31.0254V33.1945H132.178V8.6897Z" fill="white" style="fill:white;fill-opacity:1;"/>
</mask>
<g mask="url(#mask0_582_17866)">
<path d="M31.0254 8.6897H41.5499C41.5235 9.62384 41.5235 11.0721 41.5235 12.3925C41.5235 13.7128 41.5235 15.2262 41.5499 16.2569C40.7611 16.2256 39.9722 16.2256 39.2387 16.1918C39.2651 23.438 39.294 31.2297 39.3205 32.8711C38.5316 32.7745 37.2256 32.7745 36.3021 32.7745C35.3786 32.7745 34.0991 32.7745 33.2573 32.8711C33.3391 31.2297 33.3655 23.4356 33.3655 16.1918C32.6031 16.2231 31.8167 16.2231 31.0278 16.2569C31.0543 15.2262 31.0543 13.6814 31.0543 12.3925C31.0543 11.1035 31.0518 9.62384 31.0254 8.6897Z" fill="white" style="fill:white;fill-opacity:1;"/>
<path d="M48.9263 32.8397H43.1614C43.2167 27.8673 43.2167 22.6125 43.2167 15.0814C43.2167 7.55039 43.2143 13.6138 43.1614 8.6897H48.9263C48.871 13.6138 48.871 7.50694 48.871 15.0356C48.871 22.5642 48.8974 27.8673 48.9263 32.8397Z" fill="white" style="fill:white;fill-opacity:1;"/>
<path d="M67.7291 32.8398H62.426C62.5077 29.8442 62.5631 27.8166 62.5631 24.6932C62.5631 23.0518 62.6713 20.9904 62.7531 18.9942L62.616 18.9628C62.3442 21.0242 62.0436 23.0856 61.8271 24.3408L60.2494 32.8422H58.0199L56.3893 24.2442C56.1728 22.9552 55.8722 20.8963 55.6004 18.9315L55.4633 18.9628C55.5186 20.959 55.6269 22.8925 55.6533 24.727C55.6533 27.8504 55.7351 29.9118 55.7904 32.8422H51.1125C51.1679 29.3639 51.1943 25.8542 51.1943 20.7346C51.1943 15.6149 51.1679 11.847 51.139 8.69214H58.0993C58.3975 10.7197 58.751 13.5221 59.2152 16.4211C59.3523 17.6135 59.487 19.3515 59.6241 20.9301H59.7612C59.9247 19.3515 60.0594 17.5821 60.1965 16.4211C60.6318 13.5559 61.0671 10.7535 61.3124 8.69214H67.7027C67.6762 11.847 67.6474 15.4532 67.6474 20.7346C67.6474 26.0159 67.6474 29.3639 67.7291 32.8422V32.8398Z" fill="white" style="fill:white;fill-opacity:1;"/>
<path d="M69.9009 8.68991H80.6972C80.6707 9.43094 80.6708 10.6861 80.6708 11.7168C80.6708 12.844 80.6707 14.1644 80.6972 14.9682C78.8477 14.9368 76.9453 14.903 75.394 14.903V17.7368C77.1618 17.7368 79.0113 17.7054 80.5337 17.6402C80.5072 18.9292 80.5072 21.6665 80.5072 23.1147C79.0401 23.0496 77.1906 23.0182 75.394 23.0182V25.9485C76.9718 25.9485 78.9559 25.9485 80.6972 25.9171C80.6972 26.7861 80.6708 28.1716 80.6708 29.3954C80.6708 30.554 80.6972 31.9081 80.6972 32.8399H69.9009C69.9562 29.492 69.9562 25.9171 69.9562 20.7637C69.9562 15.6102 69.9562 11.9413 69.9009 8.6875V8.68991Z" fill="white" style="fill:white;fill-opacity:1;"/>
<path d="M96.674 16.5152V20.09C98.3046 20.09 99.9112 20.0587 101.296 19.9621C101.27 21.6687 101.27 25.2097 101.27 27.0466C99.9376 27.0152 98.3599 26.9814 96.7822 26.95C96.8375 28.9149 96.8904 30.8797 96.9457 32.8421H91.1255C91.1519 29.4604 91.1808 25.888 91.1808 20.7659C91.1808 15.6438 91.1808 12.0714 91.1255 8.6897H101.458C101.431 9.78556 101.402 11.4269 101.402 12.8438C101.402 14.1642 101.429 15.6125 101.429 16.578C99.7981 16.5466 98.0833 16.5128 96.6692 16.5128L96.674 16.5152Z" fill="white" style="fill:white;fill-opacity:1;"/>
<path d="M111.162 8.6897H116.629C116.573 11.0069 116.547 13.3266 116.547 16.7711C116.547 18.9918 116.573 22.6318 116.573 25.4342C116.573 30.8121 115.078 33.1945 109.911 33.1945C104.745 33.1945 103.249 30.8121 103.249 25.4342C103.249 22.6318 103.276 18.9942 103.276 16.7711C103.276 13.3266 103.249 11.0069 103.194 8.6897H108.904C108.848 13.2614 108.795 20.218 108.795 24.4035C108.795 25.8856 109.175 26.4963 110.046 26.4963C110.917 26.4963 111.241 25.8856 111.241 24.4035C111.241 20.218 111.186 13.23 111.16 8.6897H111.162Z" fill="white" style="fill:white;fill-opacity:1;"/>
<path d="M127.418 8.68989H132.178C132.122 10.2685 132.096 15.6127 132.096 20.7323C132.096 26.1416 132.096 29.7816 132.151 32.8398H126.55C126.088 30.9089 125.299 28.0099 124.51 25.4344C124.048 23.5033 123.695 21.4733 123.394 19.412L123.286 19.4433C123.423 21.8595 123.476 23.9523 123.503 25.9147C123.558 29.4244 123.558 31.8718 123.584 32.8374H118.743C118.769 29.5861 118.769 25.9147 118.769 20.7613C118.769 15.6078 118.796 11.9702 118.743 8.68506H124.835C125.08 10.1333 126.086 13.8361 126.819 17.2492C127.146 18.6661 127.471 20.4378 127.716 22.2071H127.772C127.663 20.1795 127.582 18.2775 127.582 16.7664C127.555 13.9327 127.5 10.744 127.418 8.68506V8.68989Z" fill="white" style="fill:white;fill-opacity:1;"/>
<path d="M85.8825 33.1947C87.6332 33.1947 89.0524 31.7704 89.0524 30.0134C89.0524 28.2564 87.6332 26.832 85.8825 26.832C84.1319 26.832 82.7126 28.2564 82.7126 30.0134C82.7126 31.7704 84.1319 33.1947 85.8825 33.1947Z" fill="#FF9FC6" style="fill:#FF9FC6;fill:color(display-p3 1.0000 0.6235 0.7765);fill-opacity:1;"/>
</g>
</g>
<defs>
<clipPath id="clip0_582_17866">
<rect width="133" height="28" fill="white" style="fill:white;fill-opacity:1;" transform="translate(0 7)"/>
</clipPath>
</defs>
</svg>
