<svg width="101" height="23" viewBox="0 0 101 23" fill="none" xmlns="http://www.w3.org/2000/svg">
<g clip-path="url(#clip0_4452_2865)">
<path d="M16.0771 22.8991C22.3975 22.8991 27.5213 17.773 27.5213 11.4495C27.5213 5.12614 22.3975 0 16.0771 0C9.75658 0 4.63281 5.12614 4.63281 11.4495C4.63281 17.773 9.75658 22.8991 16.0771 22.8991Z" fill="white" style="fill:white;fill-opacity:1;"/>
<mask id="mask0_4452_2865" style="mask-type:alpha" maskUnits="userSpaceOnUse" x="6" y="1" width="20" height="21">
<path d="M16.0774 21.3539C21.5448 21.3539 25.977 16.9196 25.977 11.4496C25.977 5.97969 21.5448 1.54541 16.0774 1.54541C10.61 1.54541 6.17773 5.97969 6.17773 11.4496C6.17773 16.9196 10.61 21.3539 16.0774 21.3539Z" fill="white" style="fill:white;fill-opacity:1;"/>
</mask>
<g mask="url(#mask0_4452_2865)">
<path d="M9.12598 18.5242C10.8384 20.2705 13.223 21.4535 16.1145 21.4535C18.6498 21.4535 20.8017 20.5503 22.443 19.1473C22.3943 19.126 22.3398 19.1026 22.2796 19.0774C21.9712 18.9486 21.5156 18.7747 20.934 18.5979C19.7705 18.2442 18.1057 17.8799 16.1075 17.8405C14.0965 17.8009 12.2303 17.9991 10.8655 18.2078C10.1836 18.3121 9.62836 18.4188 9.24434 18.4991C9.20289 18.5078 9.1634 18.5162 9.12598 18.5242Z" fill="#F606FF" style="fill:#F606FF;fill:color(display-p3 0.9647 0.0235 1.0000);fill-opacity:1;"/>
<path d="M11.9322 11.8072C8.3471 11.8072 6.1562 10.8065 6.1562 10.8065C6.08601 11.7878 6.18919 12.8063 6.45106 13.8071C6.5586 13.7727 6.69971 13.7285 6.86905 13.6779C7.27905 13.5552 7.85569 13.3938 8.52363 13.2387C9.85186 12.9303 11.5715 12.6394 13.0637 12.7436C14.5057 12.8442 15.6624 13.4603 16.7527 14.041C16.8177 14.0756 16.8823 14.1101 16.9468 14.1443C18.1089 14.7607 19.2277 15.3118 20.6689 15.3118C22.1452 15.3118 23.4043 14.9263 24.2963 14.5386C24.7418 14.3451 25.0935 14.152 25.3324 14.0083C25.4517 13.9365 25.5427 13.8772 25.6028 13.8366C25.6329 13.8162 25.6553 13.8006 25.6696 13.7905C25.6767 13.7853 25.6819 13.7816 25.685 13.7794L25.6883 13.7769C25.6883 13.7769 25.6882 13.777 25.7156 13.8142C25.9671 12.7813 26.0485 11.7232 25.9421 10.6954C25.9421 10.6954 24.1315 9.35547 21.3431 9.35547C20.0364 9.35547 18.675 9.89389 17.2282 10.4661C15.5876 11.1149 13.8373 11.8072 11.9322 11.8072Z" fill="#4127DE" style="fill:#4127DE;fill:color(display-p3 0.2549 0.1529 0.8706);fill-opacity:1;"/>
<path d="M8.56954 17.9092C7.7158 16.8865 7.06961 15.7157 6.6582 14.4989C6.76298 14.4653 6.90355 14.4212 7.07412 14.3702C7.47307 14.2508 8.03496 14.0935 8.68532 13.9425C9.99367 13.6387 11.6297 13.3676 13.0137 13.4642C14.2991 13.5539 15.331 14.1026 16.4461 14.6955C16.5008 14.7246 16.5558 14.7538 16.6109 14.7831C17.7759 15.4011 19.0339 16.0342 20.6687 16.0342C22.2684 16.0342 23.6259 15.6169 24.5815 15.2017C24.912 15.0581 25.1953 14.9143 25.4253 14.7873C24.9266 16.1971 24.1078 17.5237 23.0166 18.6166C22.9951 18.6061 22.9672 18.5927 22.9332 18.5767C22.8466 18.5361 22.7199 18.4788 22.5557 18.4102C22.2275 18.2731 21.7492 18.0908 21.1424 17.9063C19.929 17.5374 18.1982 17.1591 16.1217 17.1181C14.058 17.0775 12.149 17.2807 10.7574 17.4935C10.061 17.6 9.49282 17.7091 9.09779 17.7918C8.90026 17.8331 8.74596 17.8679 8.64053 17.8925C8.61368 17.8987 8.58999 17.9043 8.56954 17.9092Z" fill="#A93DFF" style="fill:#A93DFF;fill:color(display-p3 0.6627 0.2392 1.0000);fill-opacity:1;"/>
</g>
<path d="M35.2704 6.81965H31.2246V4.89203H41.5833V6.81965H37.5375V17.1587H35.2704V6.81965ZM51.0973 17.1587L48.6035 13.5663C48.4989 13.578 48.3419 13.5838 48.1327 13.5838H45.3773V17.1587H43.1103V4.89203H48.1327C49.1906 4.89203 50.1091 5.06727 50.888 5.41775C51.6786 5.76823 52.2831 6.27057 52.7016 6.9248C53.1202 7.57902 53.3294 8.35591 53.3294 9.25546C53.3294 10.1784 53.1027 10.9728 52.6493 11.6387C52.2075 12.3046 51.5681 12.8011 50.731 13.1282L53.5387 17.1587H51.0973ZM51.0449 9.25546C51.0449 8.47273 50.7892 7.87108 50.2776 7.45051C49.7661 7.02994 49.0162 6.81965 48.028 6.81965H45.3773V11.7088H48.028C49.0162 11.7088 49.7661 11.4985 50.2776 11.0779C50.7892 10.6457 51.0449 10.0382 51.0449 9.25546ZM55.6913 4.89203H57.9584V17.1587H55.6913V4.89203ZM63.562 6.81965H59.5162V4.89203H69.8749V6.81965H65.8291V17.1587H63.562V6.81965ZM76.9344 17.3339C75.6904 17.3339 74.5685 17.0652 73.5687 16.5278C72.5688 15.9788 71.7841 15.2252 71.2144 14.2673C70.6448 13.2976 70.3599 12.217 70.3599 11.0254C70.3599 9.83375 70.6448 8.75896 71.2144 7.80099C71.7841 6.83134 72.5688 6.07781 73.5687 5.54042C74.5685 4.99134 75.6904 4.7168 76.9344 4.7168C78.1783 4.7168 79.3002 4.99134 80.3001 5.54042C81.2999 6.07781 82.0846 6.8255 82.6543 7.78346C83.224 8.74143 83.5088 9.82207 83.5088 11.0254C83.5088 12.2287 83.224 13.3093 82.6543 14.2673C82.0846 15.2252 81.2999 15.9788 80.3001 16.5278C79.3002 17.0652 78.1783 17.3339 76.9344 17.3339ZM76.9344 15.3362C77.7482 15.3362 78.4806 15.1551 79.1317 14.793C79.7827 14.4191 80.2943 13.9051 80.6663 13.2509C81.0383 12.585 81.2243 11.8431 81.2243 11.0254C81.2243 10.2076 81.0383 9.47159 80.6663 8.81737C80.2943 8.15146 79.7827 7.63743 79.1317 7.27527C78.4806 6.90143 77.7482 6.71451 76.9344 6.71451C76.1206 6.71451 75.3881 6.90143 74.7371 7.27527C74.086 7.63743 73.5745 8.15146 73.2024 8.81737C72.8304 9.47159 72.6444 10.2076 72.6444 11.0254C72.6444 11.8431 72.8304 12.585 73.2024 13.2509C73.5745 13.9051 74.086 14.4191 74.7371 14.793C75.3881 15.1551 76.1206 15.3362 76.9344 15.3362ZM96.5843 4.89203V17.1587H94.7184L87.987 8.85242V17.1587H85.7373V4.89203H87.6033L94.3347 13.1983V4.89203H96.5843Z" fill="white" style="fill:white;fill-opacity:1;"/>
</g>
<defs>
<clipPath id="clip0_4452_2865">
<rect width="101" height="23" fill="white" style="fill:white;fill-opacity:1;"/>
</clipPath>
</defs>
</svg>
