<svg width="64" height="20" viewBox="0 0 64 20" fill="none" xmlns="http://www.w3.org/2000/svg">
<g clip-path="url(#clip0_4452_2898)">
<path d="M25.9609 5.66732H29.3895V17.031H32.6809V5.66732H36.1095V2.80371H25.9609V5.66732ZM37.2524 2.84917V17.0764H40.5438V11.4401L44.9324 17.031H49.0925L44.1552 11.1673C45.9381 10.6219 47.1268 9.16732 47.1268 7.03096C47.1268 4.25826 45.1152 2.80371 42.4181 2.80371H37.2524V2.84917ZM40.5438 9.12187V5.3946H40.9095C42.1438 5.3946 43.6524 5.48551 43.6524 7.25823C43.6524 9.03096 42.1895 9.12187 40.9095 9.12187H40.5438ZM61.7097 17.031H65.0011L63.7211 2.80371H60.2468L57.0468 10.9855L53.8468 2.80371H50.3725L49.0011 17.031H52.2925L52.9783 8.62187H53.0697L56.0411 16.9855H57.9611L60.9325 8.62187H61.024L61.7097 17.031Z" fill="white" style="fill:white;fill-opacity:1;"/>
<path d="M12.7029 18.2727C12.7029 17.4545 12.1086 16.7727 11.3314 16.6364V12.2273C11.7886 12.1818 12.1543 12 12.52 11.7273L15.9943 15.1818C15.72 15.6364 15.7657 16.2727 16.1771 16.6364C16.6343 17.0909 17.4114 17.0909 17.8686 16.6364C18.3257 16.1818 18.3257 15.4091 17.8686 14.9545C17.4571 14.5455 16.8629 14.5 16.4057 14.7727L12.9314 11.3182C13.2057 11 13.3886 10.5909 13.4343 10.1364H17.8686C18.0057 10.9091 18.6914 11.5 19.5143 11.5C20.4286 11.5 21.16 10.7727 21.16 9.86364C21.16 8.95455 20.3371 8.31818 19.4229 8.31818C18.6 8.31818 17.9143 8.90909 17.7771 9.68182H13.3429C13.2971 9.22727 13.1143 8.81818 12.84 8.5L16.3143 5.04545C16.7714 5.31818 17.4114 5.27273 17.7771 4.86364C18.2343 4.40909 18.2343 3.63636 17.7771 3.18182C17.32 2.72727 16.5429 2.72727 16.0857 3.18182C15.6743 3.59091 15.6286 4.18182 15.9029 4.63636L12.52 8.13636C12.2 7.86364 11.7886 7.68182 11.3314 7.63636V3.27273C12.1086 3.13636 12.7029 2.45455 12.7029 1.63636C12.7029 0.727273 11.9714 0 11.0571 0C10.1429 0 9.41143 0.727273 9.41143 1.63636C9.41143 2.45455 10.0057 3.13636 10.7829 3.27273V7.63636C10.3257 7.68182 9.91429 7.86364 9.59429 8.13636L6.16572 4.72727C6.44 4.27273 6.39429 3.63636 5.98286 3.27273C5.52571 2.81818 4.74857 2.81818 4.29143 3.27273C3.83429 3.72727 3.83429 4.5 4.29143 4.95455C4.70286 5.36364 5.29714 5.40909 5.75429 5.13636L9.18286 8.54545C8.90857 8.86364 8.72572 9.27273 8.68 9.72727H4.29143C4.15429 8.95455 3.46857 8.36364 2.64571 8.36364C1.73143 8.36364 1 9.09091 1 10C1 10.9091 1.73143 11.6364 2.64571 11.6364C3.46857 11.6364 4.15429 11.0455 4.29143 10.2727H8.68C8.72572 10.7273 8.90857 11.1364 9.18286 11.4545L5.75429 14.8636C5.29714 14.5909 4.65714 14.6364 4.29143 15.0455C3.83429 15.5 3.83429 16.2727 4.29143 16.7273C4.74857 17.1818 5.52571 17.1818 5.98286 16.7273C6.39429 16.3182 6.44 15.7273 6.16572 15.2727L9.64 11.8182C9.96 12.0909 10.3714 12.2727 10.8286 12.3182V16.7273C10.0514 16.8636 9.45714 17.5455 9.45714 18.3636C9.45714 19.2727 10.1886 20 11.1029 20C11.9714 19.9545 12.7029 19.1818 12.7029 18.2727Z" fill="white" style="fill:white;fill-opacity:1;"/>
</g>
<defs>
<clipPath id="clip0_4452_2898">
<rect width="64" height="20" fill="white" style="fill:white;fill-opacity:1;"/>
</clipPath>
</defs>
</svg>
