<svg width="120" height="40" viewBox="0 0 120 40" fill="none" xmlns="http://www.w3.org/2000/svg">
<g clip-path="url(#clip0_582_17904)">
<mask id="mask0_582_17904" style="mask-type:luminance" maskUnits="userSpaceOnUse" x="0" y="2" width="120" height="36">
<path d="M120 2H0V38H120V2Z" fill="white" style="fill:white;fill-opacity:1;"/>
</mask>
<g mask="url(#mask0_582_17904)">
<path d="M19.7111 3.14937C19.6742 3.20814 19.6406 3.26903 19.6109 3.33173C19.344 3.82226 19.0067 4.27095 18.6097 4.66349C18.2537 5.00089 17.8658 5.30293 17.4515 5.56532L17.3283 5.63648L17.2552 5.87497C17.2152 6.00724 17.1352 6.26275 17.078 6.43912C16.9579 6.81289 16.9529 6.84597 17.024 6.82392C17.2413 6.75378 17.7347 6.6235 17.8759 6.59045C18.0532 6.55536 18.4825 6.49623 18.784 6.47018L18.9541 6.45315L19.0132 6.26275C19.1263 5.89099 19.3385 5.09839 19.4306 4.71057C19.5768 4.0923 19.744 3.14937 19.7111 3.14937ZM22.9958 12.4685C22.9157 12.2401 22.8374 12.0196 22.8165 11.9825C22.7196 11.8712 22.6111 11.7705 22.4932 11.6819C22.333 11.5547 22.0306 11.3071 21.8183 11.1318C21.2757 10.6758 21.0425 10.5466 20.7402 10.5245C20.6356 10.5152 20.5305 10.5317 20.4339 10.5726C20.333 10.6109 20.2363 10.6596 20.1455 10.7179C20.0223 10.8031 19.9021 10.9183 19.9021 10.9614C19.9361 11.0526 19.9748 11.142 20.0184 11.229C20.1661 11.5676 20.2889 11.9166 20.3857 12.2731C20.4568 12.5236 20.5699 12.6108 21.1156 12.8383C21.6612 13.0658 21.7453 13.0948 21.9316 13.1309C22.1731 13.1697 22.4191 13.172 22.6613 13.1379C22.8088 13.0973 22.9482 13.0319 23.0737 12.9445L23.1378 12.8924L22.9958 12.4685ZM22.9958 12.4685C22.9157 12.2401 22.8374 12.0196 22.8165 11.9825C22.7196 11.8712 22.6111 11.7705 22.4932 11.6819C22.333 11.5547 22.0306 11.3071 21.8183 11.1318C21.2757 10.6758 21.0425 10.5466 20.7402 10.5245C20.6356 10.5152 20.5305 10.5317 20.4339 10.5726C20.333 10.6109 20.2363 10.6596 20.1455 10.7179C20.0223 10.8031 19.9021 10.9183 19.9021 10.9614C19.9361 11.0526 19.9748 11.142 20.0184 11.229C20.1661 11.5676 20.2889 11.9166 20.3857 12.2731C20.4568 12.5236 20.5699 12.6108 21.1156 12.8383C21.6612 13.0658 21.7453 13.0948 21.9316 13.1309C22.1731 13.1697 22.4191 13.172 22.6613 13.1379C22.8088 13.0973 22.9482 13.0319 23.0737 12.9445L23.1378 12.8924L22.9958 12.4685ZM22.9958 12.4685C22.9157 12.2401 22.8374 12.0196 22.8165 11.9825C22.7196 11.8712 22.6111 11.7705 22.4932 11.6819C22.333 11.5547 22.0306 11.3071 21.8183 11.1318C21.2757 10.6758 21.0425 10.5466 20.7402 10.5245C20.6356 10.5152 20.5305 10.5317 20.4339 10.5726C20.333 10.6109 20.2363 10.6596 20.1455 10.7179C20.0223 10.8031 19.9021 10.9183 19.9021 10.9614C19.9361 11.0526 19.9748 11.142 20.0184 11.229C20.1661 11.5676 20.2889 11.9166 20.3857 12.2731C20.4568 12.5236 20.5699 12.6108 21.1156 12.8383C21.6612 13.0658 21.7453 13.0948 21.9316 13.1309C22.1731 13.1697 22.4191 13.172 22.6613 13.1379C22.8088 13.0973 22.9482 13.0319 23.0737 12.9445L23.1378 12.8924L22.9958 12.4685ZM22.9958 12.4685C22.9157 12.2401 22.8374 12.0196 22.8165 11.9825C22.7196 11.8712 22.6111 11.7705 22.4932 11.6819C22.333 11.5547 22.0306 11.3071 21.8183 11.1318C21.2757 10.6758 21.0425 10.5466 20.7402 10.5245C20.6356 10.5152 20.5305 10.5317 20.4339 10.5726C20.333 10.6109 20.2363 10.6596 20.1455 10.7179C20.0223 10.8031 19.9021 10.9183 19.9021 10.9614C19.9361 11.0526 19.9748 11.142 20.0184 11.229C20.1661 11.5676 20.2889 11.9166 20.3857 12.2731C20.4568 12.5236 20.5699 12.6108 21.1156 12.8383C21.6612 13.0658 21.7453 13.0948 21.9316 13.1309C22.1731 13.1697 22.4191 13.172 22.6613 13.1379C22.8088 13.0973 22.9482 13.0319 23.0737 12.9445L23.1378 12.8924L22.9958 12.4685ZM22.9958 12.4685C22.9157 12.2401 22.8374 12.0196 22.8165 11.9825C22.7196 11.8712 22.6111 11.7705 22.4932 11.6819C22.333 11.5547 22.0306 11.3071 21.8183 11.1318C21.2757 10.6758 21.0425 10.5466 20.7402 10.5245C20.6356 10.5152 20.5305 10.5317 20.4339 10.5726C20.333 10.6109 20.2363 10.6596 20.1455 10.7179C20.0223 10.8031 19.9021 10.9183 19.9021 10.9614C19.9361 11.0526 19.9748 11.142 20.0184 11.229C20.1661 11.5676 20.2889 11.9166 20.3857 12.2731C20.4568 12.5236 20.5699 12.6108 21.1156 12.8383C21.6612 13.0658 21.7453 13.0948 21.9316 13.1309C22.1731 13.1697 22.4191 13.172 22.6613 13.1379C22.8088 13.0973 22.9482 13.0319 23.0737 12.9445L23.1378 12.8924L22.9958 12.4685ZM22.9958 12.4685C22.9157 12.2401 22.8374 12.0196 22.8165 11.9825C22.7196 11.8712 22.6111 11.7705 22.4932 11.6819C22.333 11.5547 22.0306 11.3071 21.8183 11.1318C21.2757 10.6758 21.0425 10.5466 20.7402 10.5245C20.6356 10.5152 20.5305 10.5317 20.4339 10.5726C20.333 10.6109 20.2363 10.6596 20.1455 10.7179C20.0223 10.8031 19.9021 10.9183 19.9021 10.9614C19.9361 11.0526 19.9748 11.142 20.0184 11.229C20.1661 11.5676 20.2889 11.9166 20.3857 12.2731C20.4568 12.5236 20.5699 12.6108 21.1156 12.8383C21.6612 13.0658 21.7453 13.0948 21.9316 13.1309C22.1731 13.1697 22.4191 13.172 22.6613 13.1379C22.8088 13.0973 22.9482 13.0319 23.0737 12.9445L23.1378 12.8924L22.9958 12.4685ZM22.9958 12.4685C22.9157 12.2401 22.8374 12.0196 22.8165 11.9825C22.7196 11.8712 22.6111 11.7705 22.4932 11.6819C22.333 11.5547 22.0306 11.3071 21.8183 11.1318C21.2757 10.6758 21.0425 10.5466 20.7402 10.5245C20.6356 10.5152 20.5305 10.5317 20.4339 10.5726C20.333 10.6109 20.2363 10.6596 20.1455 10.7179C20.0223 10.8031 19.9021 10.9183 19.9021 10.9614C19.9361 11.0526 19.9748 11.142 20.0184 11.229C20.1661 11.5676 20.2889 11.9166 20.3857 12.2731C20.4568 12.5236 20.5699 12.6108 21.1156 12.8383C21.6612 13.0658 21.7453 13.0948 21.9316 13.1309C22.1731 13.1697 22.4191 13.172 22.6613 13.1379C22.8088 13.0973 22.9482 13.0319 23.0737 12.9445L23.1378 12.8924L22.9958 12.4685ZM22.9958 12.4685C22.9157 12.2401 22.8374 12.0196 22.8165 11.9825C22.7196 11.8712 22.6111 11.7705 22.4932 11.6819C22.333 11.5547 22.0306 11.3071 21.8183 11.1318C21.2757 10.6758 21.0425 10.5466 20.7402 10.5245C20.6356 10.5152 20.5305 10.5317 20.4339 10.5726C20.333 10.6109 20.2363 10.6596 20.1455 10.7179C20.0223 10.8031 19.9021 10.9183 19.9021 10.9614C19.9361 11.0526 19.9748 11.142 20.0184 11.229C20.1661 11.5676 20.2889 11.9166 20.3857 12.2731C20.4568 12.5236 20.5699 12.6108 21.1156 12.8383C21.6612 13.0658 21.7453 13.0948 21.9316 13.1309C22.1731 13.1697 22.4191 13.172 22.6613 13.1379C22.8088 13.0973 22.9482 13.0319 23.0737 12.9445L23.1378 12.8924L22.9958 12.4685ZM22.9958 12.4685C22.9157 12.2401 22.8374 12.0196 22.8165 11.9825C22.7196 11.8712 22.6111 11.7705 22.4932 11.6819C22.333 11.5547 22.0306 11.3071 21.8183 11.1318C21.2757 10.6758 21.0425 10.5466 20.7402 10.5245C20.6356 10.5152 20.5305 10.5317 20.4339 10.5726C20.333 10.6109 20.2363 10.6596 20.1455 10.7179C20.0223 10.8031 19.9021 10.9183 19.9021 10.9614C19.9361 11.0526 19.9748 11.142 20.0184 11.229C20.1661 11.5676 20.2889 11.9166 20.3857 12.2731C20.4568 12.5236 20.5699 12.6108 21.1156 12.8383C21.6612 13.0658 21.7453 13.0948 21.9316 13.1309C22.1731 13.1697 22.4191 13.172 22.6613 13.1379C22.8088 13.0973 22.9482 13.0319 23.0737 12.9445L23.1378 12.8924L22.9958 12.4685ZM22.9958 12.4685C22.9157 12.2401 22.8374 12.0196 22.8165 11.9825C22.7196 11.8712 22.6111 11.7705 22.4932 11.6819C22.333 11.5547 22.0306 11.3071 21.8183 11.1318C21.2757 10.6758 21.0425 10.5466 20.7402 10.5245C20.6356 10.5152 20.5305 10.5317 20.4339 10.5726C20.333 10.6109 20.2363 10.6596 20.1455 10.7179C20.0223 10.8031 19.9021 10.9183 19.9021 10.9614C19.9361 11.0526 19.9748 11.142 20.0184 11.229C20.1661 11.5676 20.2889 11.9166 20.3857 12.2731C20.4568 12.5236 20.5699 12.6108 21.1156 12.8383C21.6612 13.0658 21.7453 13.0948 21.9316 13.1309C22.1731 13.1697 22.4191 13.172 22.6613 13.1379C22.8088 13.0973 22.9482 13.0319 23.0737 12.9445L23.1378 12.8924L22.9958 12.4685ZM22.9958 12.4685C22.9157 12.2401 22.8374 12.0196 22.8165 11.9825C22.7196 11.8712 22.6111 11.7705 22.4932 11.6819C22.333 11.5547 22.0306 11.3071 21.8183 11.1318C21.2757 10.6758 21.0425 10.5466 20.7402 10.5245C20.6356 10.5152 20.5305 10.5317 20.4339 10.5726C20.333 10.6109 20.2363 10.6596 20.1455 10.7179C20.0223 10.8031 19.9021 10.9183 19.9021 10.9614C19.9361 11.0526 19.9748 11.142 20.0184 11.229C20.1661 11.5676 20.2889 11.9166 20.3857 12.2731C20.4568 12.5236 20.5699 12.6108 21.1156 12.8383C21.6612 13.0658 21.7453 13.0948 21.9316 13.1309C22.1731 13.1697 22.4191 13.172 22.6613 13.1379C22.8088 13.0973 22.9482 13.0319 23.0737 12.9445L23.1378 12.8924L22.9958 12.4685ZM22.9958 12.4685C22.9157 12.2401 22.8374 12.0196 22.8165 11.9825C22.7196 11.8712 22.6111 11.7705 22.4932 11.6819C22.333 11.5547 22.0306 11.3071 21.8183 11.1318C21.2757 10.6758 21.0425 10.5466 20.7402 10.5245C20.6356 10.5152 20.5305 10.5317 20.4339 10.5726C20.333 10.6109 20.2363 10.6596 20.1455 10.7179C20.0223 10.8031 19.9021 10.9183 19.9021 10.9614C19.9361 11.0526 19.9748 11.142 20.0184 11.229C20.1661 11.5676 20.2889 11.9166 20.3857 12.2731C20.4568 12.5236 20.5699 12.6108 21.1156 12.8383C21.6612 13.0658 21.7453 13.0948 21.9316 13.1309C22.1731 13.1697 22.4191 13.172 22.6613 13.1379C22.8088 13.0973 22.9482 13.0319 23.0737 12.9445L23.1378 12.8924L22.9958 12.4685ZM22.9958 12.4685C22.9157 12.2401 22.8374 12.0196 22.8165 11.9825C22.7196 11.8712 22.6111 11.7705 22.4932 11.6819C22.333 11.5547 22.0306 11.3071 21.8183 11.1318C21.2757 10.6758 21.0425 10.5466 20.7402 10.5245C20.6356 10.5152 20.5305 10.5317 20.4339 10.5726C20.333 10.6109 20.2363 10.6596 20.1455 10.7179C20.0223 10.8031 19.9021 10.9183 19.9021 10.9614C19.9361 11.0526 19.9748 11.142 20.0184 11.229C20.1661 11.5676 20.2889 11.9166 20.3857 12.2731C20.4568 12.5236 20.5699 12.6108 21.1156 12.8383C21.6612 13.0658 21.7453 13.0948 21.9316 13.1309C22.1731 13.1697 22.4191 13.172 22.6613 13.1379C22.8088 13.0973 22.9482 13.0319 23.0737 12.9445L23.1378 12.8924L22.9958 12.4685ZM22.9958 12.4685C22.9157 12.2401 22.8374 12.0196 22.8165 11.9825C22.7196 11.8712 22.6111 11.7705 22.4932 11.6819C22.333 11.5547 22.0306 11.3071 21.8183 11.1318C21.2757 10.6758 21.0425 10.5466 20.7402 10.5245C20.6356 10.5152 20.5305 10.5317 20.4339 10.5726C20.333 10.6109 20.2363 10.6596 20.1455 10.7179C20.0223 10.8031 19.9021 10.9183 19.9021 10.9614C19.9361 11.0526 19.9748 11.142 20.0184 11.229C20.1661 11.5676 20.2889 11.9166 20.3857 12.2731C20.4568 12.5236 20.5699 12.6108 21.1156 12.8383C21.6612 13.0658 21.7453 13.0948 21.9316 13.1309C22.1731 13.1697 22.4191 13.172 22.6613 13.1379C22.8088 13.0973 22.9482 13.0319 23.0737 12.9445L23.1378 12.8924L22.9958 12.4685ZM22.9958 12.4685C22.9157 12.2401 22.8374 12.0196 22.8165 11.9825C22.7196 11.8712 22.6111 11.7705 22.4932 11.6819C22.333 11.5547 22.0306 11.3071 21.8183 11.1318C21.2757 10.6758 21.0425 10.5466 20.7402 10.5245C20.6356 10.5152 20.5305 10.5317 20.4339 10.5726C20.333 10.6109 20.2363 10.6596 20.1455 10.7179C20.0223 10.8031 19.9021 10.9183 19.9021 10.9614C19.9361 11.0526 19.9748 11.142 20.0184 11.229C20.1661 11.5676 20.2889 11.9166 20.3857 12.2731C20.4568 12.5236 20.5699 12.6108 21.1156 12.8383C21.6612 13.0658 21.7453 13.0948 21.9316 13.1309C22.1731 13.1697 22.4191 13.172 22.6613 13.1379C22.8088 13.0973 22.9482 13.0319 23.0737 12.9445L23.1378 12.8924L22.9958 12.4685ZM22.9958 12.4685C22.9157 12.2401 22.8374 12.0196 22.8165 11.9825C22.7196 11.8712 22.6111 11.7705 22.4932 11.6819C22.333 11.5547 22.0306 11.3071 21.8183 11.1318C21.2757 10.6758 21.0425 10.5466 20.7402 10.5245C20.6356 10.5152 20.5305 10.5317 20.4339 10.5726C20.333 10.6109 20.2363 10.6596 20.1455 10.7179C20.0223 10.8031 19.9021 10.9183 19.9021 10.9614C19.9361 11.0526 19.9748 11.142 20.0184 11.229C20.1661 11.5676 20.2889 11.9166 20.3857 12.2731C20.4568 12.5236 20.5699 12.6108 21.1156 12.8383C21.6612 13.0658 21.7453 13.0948 21.9316 13.1309C22.1731 13.1697 22.4191 13.172 22.6613 13.1379C22.8088 13.0973 22.9482 13.0319 23.0737 12.9445L23.1378 12.8924L22.9958 12.4685ZM22.9958 12.4685C22.9157 12.2401 22.8374 12.0196 22.8165 11.9825C22.7196 11.8712 22.6111 11.7705 22.4932 11.6819C22.333 11.5547 22.0306 11.3071 21.8183 11.1318C21.2757 10.6758 21.0425 10.5466 20.7402 10.5245C20.6356 10.5152 20.5305 10.5317 20.4339 10.5726C20.333 10.6109 20.2363 10.6596 20.1455 10.7179C20.0223 10.8031 19.9021 10.9183 19.9021 10.9614C19.9361 11.0526 19.9748 11.142 20.0184 11.229C20.1661 11.5676 20.2889 11.9166 20.3857 12.2731C20.4568 12.5236 20.5699 12.6108 21.1156 12.8383C21.6612 13.0658 21.7453 13.0948 21.9316 13.1309C22.1731 13.1697 22.4191 13.172 22.6613 13.1379C22.8088 13.0973 22.9482 13.0319 23.0737 12.9445L23.1378 12.8924L22.9958 12.4685ZM22.9958 12.4685C22.9157 12.2401 22.8374 12.0196 22.8165 11.9825C22.7196 11.8712 22.6111 11.7705 22.4932 11.6819C22.333 11.5547 22.0306 11.3071 21.8183 11.1318C21.2757 10.6758 21.0425 10.5466 20.7402 10.5245C20.6356 10.5152 20.5305 10.5317 20.4339 10.5726C20.333 10.6109 20.2363 10.6596 20.1455 10.7179C20.0223 10.8031 19.9021 10.9183 19.9021 10.9614C19.9361 11.0526 19.9748 11.142 20.0184 11.229C20.1661 11.5676 20.2889 11.9166 20.3857 12.2731C20.4568 12.5236 20.5699 12.6108 21.1156 12.8383C21.6612 13.0658 21.7453 13.0948 21.9316 13.1309C22.1731 13.1697 22.4191 13.172 22.6613 13.1379C22.8088 13.0973 22.9482 13.0319 23.0737 12.9445L23.1378 12.8924L22.9958 12.4685ZM22.9958 12.4685C22.9157 12.2401 22.8374 12.0196 22.8165 11.9825C22.7196 11.8712 22.6111 11.7705 22.4932 11.6819C22.333 11.5547 22.0306 11.3071 21.8183 11.1318C21.2757 10.6758 21.0425 10.5466 20.7402 10.5245C20.6356 10.5152 20.5305 10.5317 20.4339 10.5726C20.333 10.6109 20.2363 10.6596 20.1455 10.7179C20.0223 10.8031 19.9021 10.9183 19.9021 10.9614C19.9361 11.0526 19.9748 11.142 20.0184 11.229C20.1661 11.5676 20.2889 11.9166 20.3857 12.2731C20.4568 12.5236 20.5699 12.6108 21.1156 12.8383C21.6612 13.0658 21.7453 13.0948 21.9316 13.1309C22.1731 13.1697 22.4191 13.172 22.6613 13.1379C22.8088 13.0973 22.9482 13.0319 23.0737 12.9445L23.1378 12.8924L22.9958 12.4685ZM22.9958 12.4685C22.9157 12.2401 22.8374 12.0196 22.8165 11.9825C22.7196 11.8712 22.6111 11.7705 22.4932 11.6819C22.333 11.5547 22.0306 11.3071 21.8183 11.1318C21.2757 10.6758 21.0425 10.5466 20.7402 10.5245C20.6356 10.5152 20.5305 10.5317 20.4339 10.5726C20.333 10.6109 20.2363 10.6596 20.1455 10.7179C20.0223 10.8031 19.9021 10.9183 19.9021 10.9614C19.9361 11.0526 19.9748 11.142 20.0184 11.229C20.1661 11.5676 20.2889 11.9166 20.3857 12.2731C20.4568 12.5236 20.5699 12.6108 21.1156 12.8383C21.6612 13.0658 21.7453 13.0948 21.9316 13.1309C22.1731 13.1697 22.4191 13.172 22.6613 13.1379C22.8088 13.0973 22.9482 13.0319 23.0737 12.9445L23.1378 12.8924L22.9958 12.4685ZM22.9958 12.4685C22.9157 12.2401 22.8374 12.0196 22.8165 11.9825C22.7196 11.8712 22.6111 11.7705 22.4932 11.6819C22.333 11.5547 22.0306 11.3071 21.8183 11.1318C21.2757 10.6758 21.0425 10.5466 20.7402 10.5245C20.6356 10.5152 20.5305 10.5317 20.4339 10.5726C20.333 10.6109 20.2363 10.6596 20.1455 10.7179C20.0223 10.8031 19.9021 10.9183 19.9021 10.9614C19.9361 11.0526 19.9748 11.142 20.0184 11.229C20.1661 11.5676 20.2889 11.9166 20.3857 12.2731C20.4568 12.5236 20.5699 12.6108 21.1156 12.8383C21.6612 13.0658 21.7453 13.0948 21.9316 13.1309C22.1731 13.1697 22.4191 13.172 22.6613 13.1379C22.8088 13.0973 22.9482 13.0319 23.0737 12.9445L23.1378 12.8924L22.9958 12.4685ZM22.9958 12.4685C22.9157 12.2401 22.8374 12.0196 22.8165 11.9825C22.7196 11.8712 22.6111 11.7705 22.4932 11.6819C22.333 11.5547 22.0306 11.3071 21.8183 11.1318C21.2757 10.6758 21.0425 10.5466 20.7402 10.5245C20.6356 10.5152 20.5305 10.5317 20.4339 10.5726C20.333 10.6109 20.2363 10.6596 20.1455 10.7179C20.0223 10.8031 19.9021 10.9183 19.9021 10.9614C19.9361 11.0526 19.9748 11.142 20.0184 11.229C20.1661 11.5676 20.2889 11.9166 20.3857 12.2731C20.4568 12.5236 20.5699 12.6108 21.1156 12.8383C21.6612 13.0658 21.7453 13.0948 21.9316 13.1309C22.1731 13.1697 22.4191 13.172 22.6613 13.1379C22.8088 13.0973 22.9482 13.0319 23.0737 12.9445L23.1378 12.8924L22.9958 12.4685ZM22.9958 12.4685C22.9157 12.2401 22.8374 12.0196 22.8165 11.9825C22.7196 11.8712 22.6111 11.7705 22.4932 11.6819C22.333 11.5547 22.0306 11.3071 21.8183 11.1318C21.2757 10.6758 21.0425 10.5466 20.7402 10.5245C20.6356 10.5152 20.5305 10.5317 20.4339 10.5726C20.333 10.6109 20.2363 10.6596 20.1455 10.7179C20.0223 10.8031 19.9021 10.9183 19.9021 10.9614C19.9361 11.0526 19.9748 11.142 20.0184 11.229C20.1661 11.5676 20.2889 11.9166 20.3857 12.2731C20.4568 12.5236 20.5699 12.6108 21.1156 12.8383C21.6612 13.0658 21.7453 13.0948 21.9316 13.1309C22.1731 13.1697 22.4191 13.172 22.6613 13.1379C22.8088 13.0973 22.9482 13.0319 23.0737 12.9445L23.1378 12.8924L22.9958 12.4685ZM22.9958 12.4685C22.9157 12.2401 22.8374 12.0196 22.8165 11.9825C22.7196 11.8712 22.6111 11.7705 22.4932 11.6819C22.333 11.5547 22.0306 11.3071 21.8183 11.1318C21.2757 10.6758 21.0425 10.5466 20.7402 10.5245C20.6356 10.5152 20.5305 10.5317 20.4339 10.5726C20.333 10.6109 20.2363 10.6596 20.1455 10.7179C20.0223 10.8031 19.9021 10.9183 19.9021 10.9614C19.9361 11.0526 19.9748 11.142 20.0184 11.229C20.1661 11.5676 20.2889 11.9166 20.3857 12.2731C20.4568 12.5236 20.5699 12.6108 21.1156 12.8383C21.6612 13.0658 21.7453 13.0948 21.9316 13.1309C22.1731 13.1697 22.4191 13.172 22.6613 13.1379C22.8088 13.0973 22.9482 13.0319 23.0737 12.9445L23.1378 12.8924L22.9958 12.4685ZM22.9958 12.4685C22.9157 12.2401 22.8374 12.0196 22.8165 11.9825C22.7196 11.8712 22.6111 11.7705 22.4932 11.6819C22.333 11.5547 22.0306 11.3071 21.8183 11.1318C21.2757 10.6758 21.0425 10.5466 20.7402 10.5245C20.6356 10.5152 20.5305 10.5317 20.4339 10.5726C20.333 10.6109 20.2363 10.6596 20.1455 10.7179C20.0223 10.8031 19.9021 10.9183 19.9021 10.9614C19.9361 11.0526 19.9748 11.142 20.0184 11.229C20.1661 11.5676 20.2889 11.9166 20.3857 12.2731C20.4568 12.5236 20.5699 12.6108 21.1156 12.8383C21.6612 13.0658 21.7453 13.0948 21.9316 13.1309C22.1731 13.1697 22.4191 13.172 22.6613 13.1379C22.8088 13.0973 22.9482 13.0319 23.0737 12.9445L23.1378 12.8924L22.9958 12.4685ZM22.9958 12.4685C22.9157 12.2401 22.8374 12.0196 22.8165 11.9825C22.7196 11.8712 22.6111 11.7705 22.4932 11.6819C22.333 11.5547 22.0306 11.3071 21.8183 11.1318C21.2757 10.6758 21.0425 10.5466 20.7402 10.5245C20.6356 10.5152 20.5305 10.5317 20.4339 10.5726C20.333 10.6109 20.2363 10.6596 20.1455 10.7179C20.0223 10.8031 19.9021 10.9183 19.9021 10.9614C19.9361 11.0526 19.9748 11.142 20.0184 11.229C20.1661 11.5676 20.2889 11.9166 20.3857 12.2731C20.4568 12.5236 20.5699 12.6108 21.1156 12.8383C21.6612 13.0658 21.7453 13.0948 21.9316 13.1309C22.1731 13.1697 22.4191 13.172 22.6613 13.1379C22.8088 13.0973 22.9482 13.0319 23.0737 12.9445L23.1378 12.8924L22.9958 12.4685ZM22.9958 12.4685C22.9157 12.2401 22.8374 12.0196 22.8165 11.9825C22.7196 11.8712 22.6111 11.7705 22.4932 11.6819C22.333 11.5547 22.0306 11.3071 21.8183 11.1318C21.2757 10.6758 21.0425 10.5466 20.7402 10.5245C20.6356 10.5152 20.5305 10.5317 20.4339 10.5726C20.333 10.6109 20.2363 10.6596 20.1455 10.7179C20.0223 10.8031 19.9021 10.9183 19.9021 10.9614C19.9361 11.0526 19.9748 11.142 20.0184 11.229C20.1661 11.5676 20.2889 11.9166 20.3857 12.2731C20.4568 12.5236 20.5699 12.6108 21.1156 12.8383C21.6612 13.0658 21.7453 13.0948 21.9316 13.1309C22.1731 13.1697 22.4191 13.172 22.6613 13.1379C22.8088 13.0973 22.9482 13.0319 23.0737 12.9445L23.1378 12.8924L22.9958 12.4685ZM22.9958 12.4685C22.9157 12.2401 22.8374 12.0196 22.8165 11.9825C22.7196 11.8712 22.6111 11.7705 22.4932 11.6819C22.333 11.5547 22.0306 11.3071 21.8183 11.1318C21.2757 10.6758 21.0425 10.5466 20.7402 10.5245C20.6356 10.5152 20.5305 10.5317 20.4339 10.5726C20.333 10.6109 20.2363 10.6596 20.1455 10.7179C20.0223 10.8031 19.9021 10.9183 19.9021 10.9614C19.9361 11.0526 19.9748 11.142 20.0184 11.229C20.1661 11.5676 20.2889 11.9166 20.3857 12.2731C20.4568 12.5236 20.5699 12.6108 21.1156 12.8383C21.6612 13.0658 21.7453 13.0948 21.9316 13.1309C22.1731 13.1697 22.4191 13.172 22.6613 13.1379C22.8088 13.0973 22.9482 13.0319 23.0737 12.9445L23.1378 12.8924L22.9958 12.4685ZM22.9958 12.4685C22.9157 12.2401 22.8374 12.0196 22.8165 11.9825C22.7196 11.8712 22.6111 11.7705 22.4932 11.6819C22.333 11.5547 22.0306 11.3071 21.8183 11.1318C21.2757 10.6758 21.0425 10.5466 20.7402 10.5245C20.6356 10.5152 20.5305 10.5317 20.4339 10.5726C20.333 10.6109 20.2363 10.6596 20.1455 10.7179C20.0223 10.8031 19.9021 10.9183 19.9021 10.9614C19.9361 11.0526 19.9748 11.142 20.0184 11.229C20.1661 11.5676 20.2889 11.9166 20.3857 12.2731C20.4568 12.5236 20.5699 12.6108 21.1156 12.8383C21.6612 13.0658 21.7453 13.0948 21.9316 13.1309C22.1731 13.1697 22.4191 13.172 22.6613 13.1379C22.8088 13.0973 22.9482 13.0319 23.0737 12.9445L23.1378 12.8924L22.9958 12.4685ZM22.9958 12.4685C22.9157 12.2401 22.8374 12.0196 22.8165 11.9825C22.7196 11.8712 22.6111 11.7705 22.4932 11.6819C22.333 11.5547 22.0306 11.3071 21.8183 11.1318C21.2757 10.6758 21.0425 10.5466 20.7402 10.5245C20.6356 10.5152 20.5305 10.5317 20.4339 10.5726C20.333 10.6109 20.2363 10.6596 20.1455 10.7179C20.0223 10.8031 19.9021 10.9183 19.9021 10.9614C19.9361 11.0526 19.9748 11.142 20.0184 11.229C20.1661 11.5676 20.2889 11.9166 20.3857 12.2731C20.4568 12.5236 20.5699 12.6108 21.1156 12.8383C21.6612 13.0658 21.7453 13.0948 21.9316 13.1309C22.1731 13.1697 22.4191 13.172 22.6613 13.1379C22.8088 13.0973 22.9482 13.0319 23.0737 12.9445L23.1378 12.8924L22.9958 12.4685ZM22.9958 12.4685C22.9157 12.2401 22.8374 12.0196 22.8165 11.9825C22.7196 11.8712 22.6111 11.7705 22.4932 11.6819C22.333 11.5547 22.0306 11.3071 21.8183 11.1318C21.2757 10.6758 21.0425 10.5466 20.7402 10.5245C20.6356 10.5152 20.5305 10.5317 20.4339 10.5726C20.333 10.6109 20.2363 10.6596 20.1455 10.7179C20.0223 10.8031 19.9021 10.9183 19.9021 10.9614C19.9361 11.0526 19.9748 11.142 20.0184 11.229C20.1661 11.5676 20.2889 11.9166 20.3857 12.2731C20.4568 12.5236 20.5699 12.6108 21.1156 12.8383C21.6612 13.0658 21.7453 13.0948 21.9316 13.1309C22.1731 13.1697 22.4191 13.172 22.6613 13.1379C22.8088 13.0973 22.9482 13.0319 23.0737 12.9445L23.1378 12.8924L22.9958 12.4685ZM22.9958 12.4685C22.9157 12.2401 22.8374 12.0196 22.8165 11.9825C22.7196 11.8712 22.6111 11.7705 22.4932 11.6819C22.333 11.5547 22.0306 11.3071 21.8183 11.1318C21.2757 10.6758 21.0425 10.5466 20.7402 10.5245C20.6356 10.5152 20.5305 10.5317 20.4339 10.5726C20.333 10.6109 20.2363 10.6596 20.1455 10.7179C20.0223 10.8031 19.9021 10.9183 19.9021 10.9614C19.9361 11.0526 19.9748 11.142 20.0184 11.229C20.1661 11.5676 20.2889 11.9166 20.3857 12.2731C20.4568 12.5236 20.5699 12.6108 21.1156 12.8383C21.6612 13.0658 21.7453 13.0948 21.9316 13.1309C22.1731 13.1697 22.4191 13.172 22.6613 13.1379C22.8088 13.0973 22.9482 13.0319 23.0737 12.9445L23.1378 12.8924L22.9958 12.4685ZM22.9958 12.4685C22.9157 12.2401 22.8374 12.0196 22.8165 11.9825C22.7196 11.8712 22.6111 11.7705 22.4932 11.6819C22.333 11.5547 22.0306 11.3071 21.8183 11.1318C21.2757 10.6758 21.0425 10.5466 20.7402 10.5245C20.6356 10.5152 20.5305 10.5317 20.4339 10.5726C20.333 10.6109 20.2363 10.6596 20.1455 10.7179C20.0223 10.8031 19.9021 10.9183 19.9021 10.9614C19.9361 11.0526 19.9748 11.142 20.0184 11.229C20.1661 11.5676 20.2889 11.9166 20.3857 12.2731C20.4568 12.5236 20.5699 12.6108 21.1156 12.8383C21.6612 13.0658 21.7453 13.0948 21.9316 13.1309C22.1731 13.1697 22.4191 13.172 22.6613 13.1379C22.8088 13.0973 22.9482 13.0319 23.0737 12.9445L23.1378 12.8924L22.9958 12.4685ZM22.9958 12.4685C22.9157 12.2401 22.8374 12.0196 22.8165 11.9825C22.7196 11.8712 22.6111 11.7705 22.4932 11.6819C22.333 11.5547 22.0306 11.3071 21.8183 11.1318C21.2757 10.6758 21.0425 10.5466 20.7402 10.5245C20.6356 10.5152 20.5305 10.5317 20.4339 10.5726C20.333 10.6109 20.2363 10.6596 20.1455 10.7179C20.0223 10.8031 19.9021 10.9183 19.9021 10.9614C19.9361 11.0526 19.9748 11.142 20.0184 11.229C20.1661 11.5676 20.2889 11.9166 20.3857 12.2731C20.4568 12.5236 20.5699 12.6108 21.1156 12.8383C21.6612 13.0658 21.7453 13.0948 21.9316 13.1309C22.1731 13.1697 22.4191 13.172 22.6613 13.1379C22.8088 13.0973 22.9482 13.0319 23.0737 12.9445L23.1378 12.8924L22.9958 12.4685ZM29.9445 18.54C29.7582 18.228 29.5494 17.9299 29.3197 17.6482C29.1266 17.4027 28.6451 16.8205 28.1264 16.2051C27.9442 15.9907 27.7259 15.7362 27.6489 15.64C27.5718 15.5439 27.4698 15.4266 27.4297 15.3815C27.3897 15.3365 27.2805 15.2092 27.1863 15.0989L26.7548 14.5908C25.971 13.667 25.1671 12.696 24.9137 12.3733C24.6135 11.9905 24.6054 11.9645 24.253 10.8242C24.1808 10.5826 24.105 10.3462 24.0858 10.3001C24.0692 10.2629 24.0461 10.229 24.0178 10.1999C23.8856 10.0445 23.5683 9.78 23.0476 9.39219C22.7474 9.16472 22.4761 8.95629 22.4471 8.92824C22.1657 8.69978 21.8655 8.4663 21.5591 8.24283C21.3499 8.08952 21.1385 7.9422 20.9293 7.80094C20.4553 7.46951 19.9527 7.18078 19.4277 6.93815C19.3836 6.91913 19.3395 6.90108 19.2976 6.88605C19.1233 6.80816 18.9347 6.76755 18.7439 6.76679H18.7039L18.6548 6.77381H18.6168C18.5446 6.78284 18.4716 6.79284 18.3986 6.80488C18.3254 6.8169 18.2694 6.82392 18.2043 6.83593C18.1392 6.84796 18.0841 6.856 18.024 6.86801C17.986 6.87401 17.9479 6.88204 17.91 6.89007H17.8879C17.8138 6.90409 17.7398 6.92012 17.6667 6.93615L17.5496 6.96221L17.4645 6.98225L17.3743 7.00428C17.2742 7.02834 17.1842 7.05238 17.092 7.07746L16.8797 7.13956L16.7698 7.17363C16.6942 7.20256 16.6155 7.22276 16.5354 7.23375C16.5697 7.07591 16.6124 6.92003 16.6636 6.76679C17.1352 5.20058 17.2933 4.40194 17.3283 3.3598C17.3453 2.76157 17.2752 2.02605 17.1982 2C17.1811 2 17.13 2.05411 17.0811 2.13127C17.0319 2.20843 16.8987 2.41986 16.7878 2.60124C16.4634 3.09568 16.1113 3.57141 15.7335 4.02616C15.1719 4.6765 14.2559 5.47215 13.6232 5.85693C13.1816 6.12447 12.8683 6.24774 12.0213 6.46417V6.4722C11.8278 6.52631 11.6276 6.58343 11.4207 6.64354L11.4277 7.58849L11.4478 9.61567L10.3825 7.89212L9.92501 7.15261C9.34637 7.38044 8.7832 7.6459 8.23912 7.94724L8.42835 9.06352L8.76769 11.0616L7.44022 9.53048L6.83956 8.83807C6.31573 9.21869 5.82113 9.63803 5.35989 10.0926L5.79238 11.0616L6.61729 12.9134L4.95142 11.7611L4.28469 11.2991C3.8746 11.8205 3.50351 12.3715 3.17445 12.9475L3.71904 13.649L4.95845 15.2522L3.06732 14.5267L2.48666 14.3043C2.19033 14.9749 1.94078 15.6654 1.73982 16.3706L2.43361 16.8716L4.07246 18.0641L2.05318 17.8977L1.38143 17.8425C1.2593 18.4577 1.16719 19.0811 1.10512 19.7074L2.01313 20.1733L3.81516 21.0983L1.7979 21.2536L1.00701 21.3107C0.991992 21.919 1.001 22.5272 1.03504 23.1315L2.12326 23.5091L4.03642 24.1746L2.05618 24.6016L1.18421 24.7889C1.27131 25.4903 1.39044 26.1917 1.5376 26.865L2.27944 26.9071L4.30069 27.0215L2.5137 27.9764L1.89801 28.3062C2.15644 29.2248 2.47722 30.1247 2.85809 30.9995C2.85809 30.9995 12.633 30.0577 22.9965 38C23.7199 35.9245 23.9508 33.7091 23.6713 31.5287C23.4838 30.0613 23.0649 28.6329 22.43 27.297C21.3489 24.6336 20.568 23.9399 20.4128 23.8228L20.3847 23.803C20.3847 23.8409 20.3847 24.8208 19.2836 23.9812C17.2891 22.4238 15.7497 20.3582 14.8265 18.0009C14.4896 17.1436 14.2961 16.2366 14.2538 15.3164V15.3084L14.2479 15.2843C14.5359 15.9014 14.8868 16.4871 15.295 17.032C15.6033 17.4173 15.9527 17.7677 16.3371 18.077C17.069 18.6191 17.9261 18.9789 18.9661 19.1954C19.1304 19.2274 19.3796 19.2805 19.5267 19.3116C19.8182 19.3747 20.3096 19.4599 20.8283 19.5351C21.0125 19.5612 21.2918 19.6152 21.449 19.6543C22.466 19.9049 23.9517 20.5492 24.2912 20.8939C24.3912 20.994 24.4604 21.1474 24.6915 21.7607C24.8919 22.2847 24.9699 22.4761 25.0381 22.5473C25.0419 22.5518 25.0464 22.5562 25.051 22.5602C25.1512 22.6535 26.6247 22.8469 27.4086 22.8758C27.8224 22.9073 28.2371 22.8267 28.6088 22.6425C28.7838 22.5687 28.9408 22.4584 29.0695 22.3189C29.173 22.2193 29.263 22.1063 29.3367 21.983C29.4452 21.7054 29.5373 21.4217 29.613 21.1334C29.7692 20.5801 29.8653 20.2776 30.0137 19.8618C30.0355 19.7987 30.0597 19.7324 30.0848 19.6613C30.2156 19.2957 30.1947 18.992 29.9445 18.543V18.54ZM11.6289 11.0616C8.74969 14.646 8.4083 18.8025 13.7313 23.413C12.1323 23.182 10.5678 22.7549 9.07305 22.1414C9.24224 22.3478 12.57 26.3219 17.9 28.0537H17.906C17.96 28.0726 18.0141 28.0896 18.0661 28.1047C18.781 28.3161 19.2504 28.1819 19.2785 27.5425C19.3385 27.6276 21.4009 30.5999 21.0535 33.5459C19.4654 31.8078 17.6464 30.2963 15.6474 29.0536C16.0926 29.7027 16.3927 30.4404 16.5274 31.2161C15.9928 30.8042 11.7601 27.6358 6.78548 26.5234C4.64209 15.4717 11.6289 11.0616 11.6289 11.0616ZM29.2967 19.3657C29.1757 19.7456 28.8283 20.6964 28.7963 20.7315C28.7847 20.7441 28.7702 20.7536 28.7543 20.759C28.7381 20.7645 28.7208 20.7657 28.7042 20.7626C28.6832 20.758 28.664 20.7478 28.6483 20.7334C28.6322 20.719 28.6205 20.7007 28.614 20.6804C28.5998 20.6433 28.5339 20.3928 28.4657 20.1192L28.3427 19.6242L28.4036 19.4458C28.4188 19.4017 28.4318 19.3637 28.4417 19.3306C28.4417 19.3196 28.4489 19.3096 28.4519 19.2995C28.4688 19.2633 28.4782 19.2238 28.4798 19.1838C28.4814 19.1436 28.4749 19.1037 28.4609 19.0662C28.4612 19.0621 28.4612 19.0581 28.4609 19.0541C28.4206 18.9598 28.3768 18.9078 27.6218 18.0671C27.3415 17.7544 26.8211 17.1652 26.4534 16.7563C26.0861 16.3474 25.6676 15.8725 25.5106 15.7042C25.3533 15.5359 25.0741 15.2272 24.8938 15.0269C24.4273 14.5097 23.7396 13.8244 23.5782 13.7182C23.5 13.6543 23.4084 13.609 23.3101 13.5858C23.2452 13.584 23.1808 13.597 23.1219 13.6239C22.8546 13.7257 22.5695 13.7714 22.284 13.7582C21.9103 13.7663 21.5385 13.7045 21.1876 13.5758C20.64 13.3925 19.9422 13.0588 19.734 12.8824C19.5998 12.7661 19.5017 12.5397 19.3336 11.9665C19.2667 11.7218 19.1865 11.4809 19.0933 11.245C19.0422 11.1228 18.9931 10.9945 18.9851 10.9614C18.9431 10.7299 19.4587 10.3191 19.9503 10.1928L20.1104 10.1518V9.98643C20.1104 9.56657 19.9743 9.24991 19.6549 8.91922C19.5438 8.80499 19.4817 8.74187 19.4958 8.73183C19.5097 8.72182 19.6499 8.78695 19.9573 8.94027C20.8613 9.40576 21.7312 9.9352 22.5603 10.5245C22.7582 10.6616 22.9459 10.813 23.1219 10.9775C23.2542 11.1035 23.3614 11.2535 23.4381 11.4194L23.4444 11.4324C23.4973 11.5426 23.5543 11.6809 23.6263 11.8653C23.6344 11.8873 23.6434 11.9094 23.6524 11.9334C23.7355 12.1644 23.8314 12.3905 23.9396 12.6108C24.0425 12.7832 24.3836 13.2074 24.963 13.8834L25.4685 14.4756L25.4815 14.4917L25.8679 14.9447C26.1101 15.2282 26.6317 15.8304 27.0283 16.2784C28.2607 17.6752 28.9493 18.4729 29.1445 18.7263C29.229 18.8268 29.2882 18.9461 29.3168 19.0741C29.3343 19.1715 29.3272 19.2716 29.2967 19.3657ZM22.8214 11.9855C22.7245 11.8742 22.6162 11.7734 22.4982 11.6849C22.338 11.5577 22.0356 11.3101 21.8234 11.1348C21.2808 10.6789 21.0475 10.5496 20.7452 10.5275C20.6407 10.5182 20.5355 10.5347 20.4388 10.5756C20.3363 10.6126 20.238 10.6603 20.1455 10.7179C20.0223 10.8031 19.9021 10.9183 19.9021 10.9614C19.9361 11.0526 19.9748 11.142 20.0184 11.229C20.1661 11.5676 20.2889 11.9166 20.3857 12.2731C20.4568 12.5236 20.5699 12.6108 21.1156 12.8383C21.6612 13.0658 21.7453 13.0948 21.9316 13.1309C22.1731 13.1697 22.4191 13.172 22.6613 13.1379C22.8088 13.0973 22.9482 13.0319 23.0737 12.9445L23.1378 12.8924L22.9958 12.4715C22.9157 12.2431 22.8374 12.0206 22.8214 11.9855ZM23.0007 12.4715C22.9207 12.2431 22.8424 12.0226 22.8214 11.9855C22.7245 11.8742 22.6162 11.7734 22.4982 11.6849C22.338 11.5577 22.0356 11.3101 21.8234 11.1348C21.2808 10.6789 21.0475 10.5496 20.7452 10.5275C20.6407 10.5182 20.5355 10.5347 20.4388 10.5756C20.3363 10.6126 20.238 10.6603 20.1455 10.7179C20.0223 10.8031 19.9021 10.9183 19.9021 10.9614C19.9361 11.0526 19.9748 11.142 20.0184 11.229C20.1661 11.5676 20.2889 11.9166 20.3857 12.2731C20.4568 12.5236 20.5699 12.6108 21.1156 12.8383C21.6612 13.0658 21.7453 13.0948 21.9316 13.1309C22.1731 13.1697 22.4191 13.172 22.6613 13.1379C22.8088 13.0973 22.9482 13.0319 23.0737 12.9445L23.1378 12.8924L23.0007 12.4715ZM23.0007 12.4715C22.9207 12.2431 22.8424 12.0226 22.8214 11.9855C22.7245 11.8742 22.6162 11.7734 22.4982 11.6849C22.338 11.5577 22.0356 11.3101 21.8234 11.1348C21.2808 10.6789 21.0475 10.5496 20.7452 10.5275C20.6407 10.5182 20.5355 10.5347 20.4388 10.5756C20.3363 10.6126 20.238 10.6603 20.1455 10.7179C20.0223 10.8031 19.9021 10.9183 19.9021 10.9614C19.9361 11.0526 19.9748 11.142 20.0184 11.229C20.1661 11.5676 20.2889 11.9166 20.3857 12.2731C20.4568 12.5236 20.5699 12.6108 21.1156 12.8383C21.6612 13.0658 21.7453 13.0948 21.9316 13.1309C22.1731 13.1697 22.4191 13.172 22.6613 13.1379C22.8088 13.0973 22.9482 13.0319 23.0737 12.9445L23.1378 12.8924L23.0007 12.4715ZM23.0007 12.4715C22.9207 12.2431 22.8424 12.0226 22.8214 11.9855C22.7245 11.8742 22.6162 11.7734 22.4982 11.6849C22.338 11.5577 22.0356 11.3101 21.8234 11.1348C21.2808 10.6789 21.0475 10.5496 20.7452 10.5275C20.6407 10.5182 20.5355 10.5347 20.4388 10.5756C20.3363 10.6126 20.238 10.6603 20.1455 10.7179C20.0223 10.8031 19.9021 10.9183 19.9021 10.9614C19.9361 11.0526 19.9748 11.142 20.0184 11.229C20.1661 11.5676 20.2889 11.9166 20.3857 12.2731C20.4568 12.5236 20.5699 12.6108 21.1156 12.8383C21.6612 13.0658 21.7453 13.0948 21.9316 13.1309C22.1731 13.1697 22.4191 13.172 22.6613 13.1379C22.8088 13.0973 22.9482 13.0319 23.0737 12.9445L23.1378 12.8924L23.0007 12.4715ZM23.0007 12.4715C22.9207 12.2431 22.8424 12.0226 22.8214 11.9855C22.7245 11.8742 22.6162 11.7734 22.4982 11.6849C22.338 11.5577 22.0356 11.3101 21.8234 11.1348C21.2808 10.6789 21.0475 10.5496 20.7452 10.5275C20.6407 10.5182 20.5355 10.5347 20.4388 10.5756C20.3363 10.6126 20.238 10.6603 20.1455 10.7179C20.0223 10.8031 19.9021 10.9183 19.9021 10.9614C19.9361 11.0526 19.9748 11.142 20.0184 11.229C20.1661 11.5676 20.2889 11.9166 20.3857 12.2731C20.4568 12.5236 20.5699 12.6108 21.1156 12.8383C21.6612 13.0658 21.7453 13.0948 21.9316 13.1309C22.1731 13.1697 22.4191 13.172 22.6613 13.1379C22.8088 13.0973 22.9482 13.0319 23.0737 12.9445L23.1378 12.8924L23.0007 12.4715ZM22.9958 12.4715C22.9157 12.2431 22.8374 12.0226 22.8165 11.9855C22.7196 11.8742 22.6111 11.7734 22.4932 11.6849C22.333 11.5577 22.0306 11.3101 21.8183 11.1348C21.2757 10.6789 21.0425 10.5496 20.7402 10.5275C20.6356 10.5182 20.5305 10.5347 20.4339 10.5756C20.3331 10.6129 20.2364 10.6606 20.1455 10.7179C20.0223 10.8031 19.9021 10.9183 19.9021 10.9614C19.9361 11.0526 19.9748 11.142 20.0184 11.229C20.1661 11.5676 20.2889 11.9166 20.3857 12.2731C20.4568 12.5236 20.5699 12.6108 21.1156 12.8383C21.6612 13.0658 21.7453 13.0948 21.9316 13.1309C22.1731 13.1697 22.4191 13.172 22.6613 13.1379C22.8088 13.0973 22.9482 13.0319 23.0737 12.9445L23.1378 12.8924L22.9958 12.4715ZM22.9958 12.4715C22.9157 12.2431 22.8374 12.0226 22.8165 11.9855C22.7196 11.8742 22.6111 11.7734 22.4932 11.6849C22.333 11.5577 22.0306 11.3101 21.8183 11.1348C21.2757 10.6789 21.0425 10.5496 20.7402 10.5275C20.6356 10.5182 20.5305 10.5347 20.4339 10.5756C20.3331 10.6129 20.2364 10.6606 20.1455 10.7179C20.0223 10.8031 19.9021 10.9183 19.9021 10.9614C19.9361 11.0526 19.9748 11.142 20.0184 11.229C20.1661 11.5676 20.2889 11.9166 20.3857 12.2731C20.4568 12.5236 20.5699 12.6108 21.1156 12.8383C21.6612 13.0658 21.7453 13.0948 21.9316 13.1309C22.1731 13.1697 22.4191 13.172 22.6613 13.1379C22.8088 13.0973 22.9482 13.0319 23.0737 12.9445L23.1378 12.8924L22.9958 12.4715ZM22.9958 12.4715C22.9157 12.2431 22.8374 12.0226 22.8165 11.9855C22.7196 11.8742 22.6111 11.7734 22.4932 11.6849C22.333 11.5577 22.0306 11.3101 21.8183 11.1348C21.2757 10.6789 21.0425 10.5496 20.7402 10.5275C20.6356 10.5182 20.5305 10.5347 20.4339 10.5756C20.3331 10.6129 20.2364 10.6606 20.1455 10.7179C20.0223 10.8031 19.9021 10.9183 19.9021 10.9614C19.9361 11.0526 19.9748 11.142 20.0184 11.229C20.1661 11.5676 20.2889 11.9166 20.3857 12.2731C20.4568 12.5236 20.5699 12.6108 21.1156 12.8383C21.6612 13.0658 21.7453 13.0948 21.9316 13.1309C22.1731 13.1697 22.4191 13.172 22.6613 13.1379C22.8088 13.0973 22.9482 13.0319 23.0737 12.9445L23.1378 12.8924L22.9958 12.4715ZM22.9958 12.4715C22.9157 12.2431 22.8374 12.0226 22.8165 11.9855C22.7196 11.8742 22.6111 11.7734 22.4932 11.6849C22.333 11.5577 22.0306 11.3101 21.8183 11.1348C21.2757 10.6789 21.0425 10.5496 20.7402 10.5275C20.6356 10.5182 20.5305 10.5347 20.4339 10.5756C20.3331 10.6129 20.2364 10.6606 20.1455 10.7179C20.0223 10.8031 19.9021 10.9183 19.9021 10.9614C19.9361 11.0526 19.9748 11.142 20.0184 11.229C20.1661 11.5676 20.2889 11.9166 20.3857 12.2731C20.4568 12.5236 20.5699 12.6108 21.1156 12.8383C21.6612 13.0658 21.7453 13.0948 21.9316 13.1309C22.1731 13.1697 22.4191 13.172 22.6613 13.1379C22.8088 13.0973 22.9482 13.0319 23.0737 12.9445L23.1378 12.8924L22.9958 12.4715ZM22.9958 12.4715C22.9157 12.2431 22.8374 12.0226 22.8165 11.9855C22.7196 11.8742 22.6111 11.7734 22.4932 11.6849C22.333 11.5577 22.0306 11.3101 21.8183 11.1348C21.2757 10.6789 21.0425 10.5496 20.7402 10.5275C20.6356 10.5182 20.5305 10.5347 20.4339 10.5756C20.3331 10.6129 20.2364 10.6606 20.1455 10.7179C20.0223 10.8031 19.9021 10.9183 19.9021 10.9614C19.9361 11.0526 19.9748 11.142 20.0184 11.229C20.1661 11.5676 20.2889 11.9166 20.3857 12.2731C20.4568 12.5236 20.5699 12.6108 21.1156 12.8383C21.6612 13.0658 21.7453 13.0948 21.9316 13.1309C22.1731 13.1697 22.4191 13.172 22.6613 13.1379C22.8088 13.0973 22.9482 13.0319 23.0737 12.9445L23.1378 12.8924L22.9958 12.4715ZM22.9958 12.4715C22.9157 12.2431 22.8374 12.0226 22.8165 11.9855C22.7196 11.8742 22.6111 11.7734 22.4932 11.6849C22.333 11.5577 22.0306 11.3101 21.8183 11.1348C21.2757 10.6789 21.0425 10.5496 20.7402 10.5275C20.6356 10.5182 20.5305 10.5347 20.4339 10.5756C20.3331 10.6129 20.2364 10.6606 20.1455 10.7179C20.0223 10.8031 19.9021 10.9183 19.9021 10.9614C19.9361 11.0526 19.9748 11.142 20.0184 11.229C20.1661 11.5676 20.2889 11.9166 20.3857 12.2731C20.4568 12.5236 20.5699 12.6108 21.1156 12.8383C21.6612 13.0658 21.7453 13.0948 21.9316 13.1309C22.1731 13.1697 22.4191 13.172 22.6613 13.1379C22.8088 13.0973 22.9482 13.0319 23.0737 12.9445L23.1378 12.8924L22.9958 12.4715ZM22.9958 12.4715C22.9157 12.2431 22.8374 12.0226 22.8165 11.9855C22.7196 11.8742 22.6111 11.7734 22.4932 11.6849C22.333 11.5577 22.0306 11.3101 21.8183 11.1348C21.2757 10.6789 21.0425 10.5496 20.7402 10.5275C20.6356 10.5182 20.5305 10.5347 20.4339 10.5756C20.3331 10.6129 20.2364 10.6606 20.1455 10.7179C20.0223 10.8031 19.9021 10.9183 19.9021 10.9614C19.9361 11.0526 19.9748 11.142 20.0184 11.229C20.1661 11.5676 20.2889 11.9166 20.3857 12.2731C20.4568 12.5236 20.5699 12.6108 21.1156 12.8383C21.6612 13.0658 21.7453 13.0948 21.9316 13.1309C22.1731 13.1697 22.4191 13.172 22.6613 13.1379C22.8088 13.0973 22.9482 13.0319 23.0737 12.9445L23.1378 12.8924L22.9958 12.4715ZM22.9958 12.4715C22.9157 12.2431 22.8374 12.0226 22.8165 11.9855C22.7196 11.8742 22.6111 11.7734 22.4932 11.6849C22.333 11.5577 22.0306 11.3101 21.8183 11.1348C21.2757 10.6789 21.0425 10.5496 20.7402 10.5275C20.6356 10.5182 20.5305 10.5347 20.4339 10.5756C20.3331 10.6129 20.2364 10.6606 20.1455 10.7179C20.0223 10.8031 19.9021 10.9183 19.9021 10.9614C19.9361 11.0526 19.9748 11.142 20.0184 11.229C20.1661 11.5676 20.2889 11.9166 20.3857 12.2731C20.4568 12.5236 20.5699 12.6108 21.1156 12.8383C21.6612 13.0658 21.7453 13.0948 21.9316 13.1309C22.1731 13.1697 22.4191 13.172 22.6613 13.1379C22.8088 13.0973 22.9482 13.0319 23.0737 12.9445L23.1378 12.8924L22.9958 12.4715ZM22.9958 12.4715C22.9157 12.2431 22.8374 12.0226 22.8165 11.9855C22.7196 11.8742 22.6111 11.7734 22.4932 11.6849C22.333 11.5577 22.0306 11.3101 21.8183 11.1348C21.2757 10.6789 21.0425 10.5496 20.7402 10.5275C20.6356 10.5182 20.5305 10.5347 20.4339 10.5756C20.3331 10.6129 20.2364 10.6606 20.1455 10.7179C20.0223 10.8031 19.9021 10.9183 19.9021 10.9614C19.9361 11.0526 19.9748 11.142 20.0184 11.229C20.1661 11.5676 20.2889 11.9166 20.3857 12.2731C20.4568 12.5236 20.5699 12.6108 21.1156 12.8383C21.6612 13.0658 21.7453 13.0948 21.9316 13.1309C22.1731 13.1697 22.4191 13.172 22.6613 13.1379C22.8088 13.0973 22.9482 13.0319 23.0737 12.9445L23.1378 12.8924L22.9958 12.4715ZM22.9958 12.4715C22.9157 12.2431 22.8374 12.0226 22.8165 11.9855C22.7196 11.8742 22.6111 11.7734 22.4932 11.6849C22.333 11.5577 22.0306 11.3101 21.8183 11.1348C21.2757 10.6789 21.0425 10.5496 20.7402 10.5275C20.6356 10.5182 20.5305 10.5347 20.4339 10.5756C20.3331 10.6129 20.2364 10.6606 20.1455 10.7179C20.0223 10.8031 19.9021 10.9183 19.9021 10.9614C19.9361 11.0526 19.9748 11.142 20.0184 11.229C20.1661 11.5676 20.2889 11.9166 20.3857 12.2731C20.4568 12.5236 20.5699 12.6108 21.1156 12.8383C21.6612 13.0658 21.7453 13.0948 21.9316 13.1309C22.1731 13.1697 22.4191 13.172 22.6613 13.1379C22.8088 13.0973 22.9482 13.0319 23.0737 12.9445L23.1378 12.8924L22.9958 12.4715ZM22.9958 12.4715C22.9157 12.2431 22.8374 12.0226 22.8165 11.9855C22.7196 11.8742 22.6111 11.7734 22.4932 11.6849C22.333 11.5577 22.0306 11.3101 21.8183 11.1348C21.2757 10.6789 21.0425 10.5496 20.7402 10.5275C20.6356 10.5182 20.5305 10.5347 20.4339 10.5756C20.3331 10.6129 20.2364 10.6606 20.1455 10.7179C20.0223 10.8031 19.9021 10.9183 19.9021 10.9614C19.9361 11.0526 19.9748 11.142 20.0184 11.229C20.1661 11.5676 20.2889 11.9166 20.3857 12.2731C20.4568 12.5236 20.5699 12.6108 21.1156 12.8383C21.6612 13.0658 21.7453 13.0948 21.9316 13.1309C22.1731 13.1697 22.4191 13.172 22.6613 13.1379C22.8088 13.0973 22.9482 13.0319 23.0737 12.9445L23.1378 12.8924L22.9958 12.4715ZM22.9958 12.4715C22.9157 12.2431 22.8374 12.0226 22.8165 11.9855C22.7196 11.8742 22.6111 11.7734 22.4932 11.6849C22.333 11.5577 22.0306 11.3101 21.8183 11.1348C21.2757 10.6789 21.0425 10.5496 20.7402 10.5275C20.6356 10.5182 20.5305 10.5347 20.4339 10.5756C20.3331 10.6129 20.2364 10.6606 20.1455 10.7179C20.0223 10.8031 19.9021 10.9183 19.9021 10.9614C19.9361 11.0526 19.9748 11.142 20.0184 11.229C20.1661 11.5676 20.2889 11.9166 20.3857 12.2731C20.4568 12.5236 20.5699 12.6108 21.1156 12.8383C21.6612 13.0658 21.7453 13.0948 21.9316 13.1309C22.1731 13.1697 22.4191 13.172 22.6613 13.1379C22.8088 13.0973 22.9482 13.0319 23.0737 12.9445L23.1378 12.8924L22.9958 12.4715ZM22.9958 12.4715C22.9157 12.2431 22.8374 12.0226 22.8165 11.9855C22.7196 11.8742 22.6111 11.7734 22.4932 11.6849C22.333 11.5577 22.0306 11.3101 21.8183 11.1348C21.2757 10.6789 21.0425 10.5496 20.7402 10.5275C20.6356 10.5182 20.5305 10.5347 20.4339 10.5756C20.3331 10.6129 20.2364 10.6606 20.1455 10.7179C20.0223 10.8031 19.9021 10.9183 19.9021 10.9614C19.9361 11.0526 19.9748 11.142 20.0184 11.229C20.1661 11.5676 20.2889 11.9166 20.3857 12.2731C20.4568 12.5236 20.5699 12.6108 21.1156 12.8383C21.6612 13.0658 21.7453 13.0948 21.9316 13.1309C22.1731 13.1697 22.4191 13.172 22.6613 13.1379C22.8088 13.0973 22.9482 13.0319 23.0737 12.9445L23.1378 12.8924L22.9958 12.4715ZM28.3427 19.6242L28.4036 19.4458C28.4188 19.4017 28.4318 19.3637 28.4417 19.3306L28.3427 19.6242ZM22.9958 12.4715C22.9157 12.2431 22.8374 12.0226 22.8165 11.9855C22.7196 11.8742 22.6111 11.7734 22.4932 11.6849C22.333 11.5577 22.0306 11.3101 21.8183 11.1348C21.2757 10.6789 21.0425 10.5496 20.7402 10.5275C20.6356 10.5182 20.5305 10.5347 20.4339 10.5756C20.3331 10.6129 20.2364 10.6606 20.1455 10.7179C20.0223 10.8031 19.9021 10.9183 19.9021 10.9614C19.9361 11.0526 19.9748 11.142 20.0184 11.229C20.1661 11.5676 20.2889 11.9166 20.3857 12.2731C20.4568 12.5236 20.5699 12.6108 21.1156 12.8383C21.6612 13.0658 21.7453 13.0948 21.9316 13.1309C22.1731 13.1697 22.4191 13.172 22.6613 13.1379C22.8088 13.0973 22.9482 13.0319 23.0737 12.9445L23.1378 12.8924L22.9958 12.4715ZM22.9958 12.4715C22.9157 12.2431 22.8374 12.0226 22.8165 11.9855C22.7196 11.8742 22.6111 11.7734 22.4932 11.6849C22.333 11.5577 22.0306 11.3101 21.8183 11.1348C21.2757 10.6789 21.0425 10.5496 20.7402 10.5275C20.6356 10.5182 20.5305 10.5347 20.4339 10.5756C20.3331 10.6129 20.2364 10.6606 20.1455 10.7179C20.0223 10.8031 19.9021 10.9183 19.9021 10.9614C19.9361 11.0526 19.9748 11.142 20.0184 11.229C20.1661 11.5676 20.2889 11.9166 20.3857 12.2731C20.4568 12.5236 20.5699 12.6108 21.1156 12.8383C21.6612 13.0658 21.7453 13.0948 21.9316 13.1309C22.1731 13.1697 22.4191 13.172 22.6613 13.1379C22.8088 13.0973 22.9482 13.0319 23.0737 12.9445L23.1378 12.8924L22.9958 12.4715ZM22.9958 12.4715C22.9157 12.2431 22.8374 12.0226 22.8165 11.9855C22.7196 11.8742 22.6111 11.7734 22.4932 11.6849C22.333 11.5577 22.0306 11.3101 21.8183 11.1348C21.2757 10.6789 21.0425 10.5496 20.7402 10.5275C20.6356 10.5182 20.5305 10.5347 20.4339 10.5756C20.3331 10.6129 20.2364 10.6606 20.1455 10.7179C20.0223 10.8031 19.9021 10.9183 19.9021 10.9614C19.9361 11.0526 19.9748 11.142 20.0184 11.229C20.1661 11.5676 20.2889 11.9166 20.3857 12.2731C20.4568 12.5236 20.5699 12.6108 21.1156 12.8383C21.6612 13.0658 21.7453 13.0948 21.9316 13.1309C22.1731 13.1697 22.4191 13.172 22.6613 13.1379C22.8088 13.0973 22.9482 13.0319 23.0737 12.9445L23.1378 12.8924L22.9958 12.4715ZM22.9958 12.4715C22.9157 12.2431 22.8374 12.0226 22.8165 11.9855C22.7196 11.8742 22.6111 11.7734 22.4932 11.6849C22.333 11.5577 22.0306 11.3101 21.8183 11.1348C21.2757 10.6789 21.0425 10.5496 20.7402 10.5275C20.6356 10.5182 20.5305 10.5347 20.4339 10.5756C20.3331 10.6129 20.2364 10.6606 20.1455 10.7179C20.0223 10.8031 19.9021 10.9183 19.9021 10.9614C19.9361 11.0526 19.9748 11.142 20.0184 11.229C20.1661 11.5676 20.2889 11.9166 20.3857 12.2731C20.4568 12.5236 20.5699 12.6108 21.1156 12.8383C21.6612 13.0658 21.7453 13.0948 21.9316 13.1309C22.1731 13.1697 22.4191 13.172 22.6613 13.1379C22.8088 13.0973 22.9482 13.0319 23.0737 12.9445L23.1378 12.8924L22.9958 12.4715ZM22.9958 12.4715C22.9157 12.2431 22.8374 12.0226 22.8165 11.9855C22.7196 11.8742 22.6111 11.7734 22.4932 11.6849C22.333 11.5577 22.0306 11.3101 21.8183 11.1348C21.2757 10.6789 21.0425 10.5496 20.7402 10.5275C20.6356 10.5182 20.5305 10.5347 20.4339 10.5756C20.3331 10.6129 20.2364 10.6606 20.1455 10.7179C20.0223 10.8031 19.9021 10.9183 19.9021 10.9614C19.9361 11.0526 19.9748 11.142 20.0184 11.229C20.1661 11.5676 20.2889 11.9166 20.3857 12.2731C20.4568 12.5236 20.5699 12.6108 21.1156 12.8383C21.6612 13.0658 21.7453 13.0948 21.9316 13.1309C22.1731 13.1697 22.4191 13.172 22.6613 13.1379C22.8088 13.0973 22.9482 13.0319 23.0737 12.9445L23.1378 12.8924L22.9958 12.4715ZM22.9958 12.4715C22.9157 12.2431 22.8374 12.0226 22.8165 11.9855C22.7196 11.8742 22.6111 11.7734 22.4932 11.6849C22.333 11.5577 22.0306 11.3101 21.8183 11.1348C21.2757 10.6789 21.0425 10.5496 20.7402 10.5275C20.6356 10.5182 20.5305 10.5347 20.4339 10.5756C20.3331 10.6129 20.2364 10.6606 20.1455 10.7179C20.0223 10.8031 19.9021 10.9183 19.9021 10.9614C19.9361 11.0526 19.9748 11.142 20.0184 11.229C20.1661 11.5676 20.2889 11.9166 20.3857 12.2731C20.4568 12.5236 20.5699 12.6108 21.1156 12.8383C21.6612 13.0658 21.7453 13.0948 21.9316 13.1309C22.1731 13.1697 22.4191 13.172 22.6613 13.1379C22.8088 13.0973 22.9482 13.0319 23.0737 12.9445L23.1378 12.8924L22.9958 12.4715ZM22.9958 12.4715C22.9157 12.2431 22.8374 12.0226 22.8165 11.9855C22.7196 11.8742 22.6111 11.7734 22.4932 11.6849C22.333 11.5577 22.0306 11.3101 21.8183 11.1348C21.2757 10.6789 21.0425 10.5496 20.7402 10.5275C20.6356 10.5182 20.5305 10.5347 20.4339 10.5756C20.3331 10.6129 20.2364 10.6606 20.1455 10.7179C20.0223 10.8031 19.9021 10.9183 19.9021 10.9614C19.9361 11.0526 19.9748 11.142 20.0184 11.229C20.1661 11.5676 20.2889 11.9166 20.3857 12.2731C20.4568 12.5236 20.5699 12.6108 21.1156 12.8383C21.6612 13.0658 21.7453 13.0948 21.9316 13.1309C22.1731 13.1697 22.4191 13.172 22.6613 13.1379C22.8088 13.0973 22.9482 13.0319 23.0737 12.9445L23.1378 12.8924L22.9958 12.4715ZM22.9958 12.4715C22.9157 12.2431 22.8374 12.0226 22.8165 11.9855C22.7196 11.8742 22.6111 11.7734 22.4932 11.6849C22.333 11.5577 22.0306 11.3101 21.8183 11.1348C21.2757 10.6789 21.0425 10.5496 20.7402 10.5275C20.6356 10.5182 20.5305 10.5347 20.4339 10.5756C20.3331 10.6129 20.2364 10.6606 20.1455 10.7179C20.0223 10.8031 19.9021 10.9183 19.9021 10.9614C19.9361 11.0526 19.9748 11.142 20.0184 11.229C20.1661 11.5676 20.2889 11.9166 20.3857 12.2731C20.4568 12.5236 20.5699 12.6108 21.1156 12.8383C21.6612 13.0658 21.7453 13.0948 21.9316 13.1309C22.1731 13.1697 22.4191 13.172 22.6613 13.1379C22.8088 13.0973 22.9482 13.0319 23.0737 12.9445L23.1378 12.8924L22.9958 12.4715ZM22.9958 12.4715C22.9157 12.2431 22.8374 12.0226 22.8165 11.9855C22.7196 11.8742 22.6111 11.7734 22.4932 11.6849C22.333 11.5577 22.0306 11.3101 21.8183 11.1348C21.2757 10.6789 21.0425 10.5496 20.7402 10.5275C20.6356 10.5182 20.5305 10.5347 20.4339 10.5756C20.3331 10.6129 20.2364 10.6606 20.1455 10.7179C20.0223 10.8031 19.9021 10.9183 19.9021 10.9614C19.9361 11.0526 19.9748 11.142 20.0184 11.229C20.1661 11.5676 20.2889 11.9166 20.3857 12.2731C20.4568 12.5236 20.5699 12.6108 21.1156 12.8383C21.6612 13.0658 21.7453 13.0948 21.9316 13.1309C22.1731 13.1697 22.4191 13.172 22.6613 13.1379C22.8088 13.0973 22.9482 13.0319 23.0737 12.9445L23.1378 12.8924L22.9958 12.4715ZM22.9958 12.4715C22.9157 12.2431 22.8374 12.0226 22.8165 11.9855C22.7196 11.8742 22.6111 11.7734 22.4932 11.6849C22.333 11.5577 22.0306 11.3101 21.8183 11.1348C21.2757 10.6789 21.0425 10.5496 20.7402 10.5275C20.6356 10.5182 20.5305 10.5347 20.4339 10.5756C20.3331 10.6129 20.2364 10.6606 20.1455 10.7179C20.0223 10.8031 19.9021 10.9183 19.9021 10.9614C19.9361 11.0526 19.9748 11.142 20.0184 11.229C20.1661 11.5676 20.2889 11.9166 20.3857 12.2731C20.4568 12.5236 20.5699 12.6108 21.1156 12.8383C21.6612 13.0658 21.7453 13.0948 21.9316 13.1309C22.1731 13.1697 22.4191 13.172 22.6613 13.1379C22.8088 13.0973 22.9482 13.0319 23.0737 12.9445L23.1378 12.8924L22.9958 12.4715ZM22.9958 12.4715C22.9157 12.2431 22.8374 12.0226 22.8165 11.9855C22.7196 11.8742 22.6111 11.7734 22.4932 11.6849C22.333 11.5577 22.0306 11.3101 21.8183 11.1348C21.2757 10.6789 21.0425 10.5496 20.7402 10.5275C20.6356 10.5182 20.5305 10.5347 20.4339 10.5756C20.3331 10.6129 20.2364 10.6606 20.1455 10.7179C20.0223 10.8031 19.9021 10.9183 19.9021 10.9614C19.9361 11.0526 19.9748 11.142 20.0184 11.229C20.1661 11.5676 20.2889 11.9166 20.3857 12.2731C20.4568 12.5236 20.5699 12.6108 21.1156 12.8383C21.6612 13.0658 21.7453 13.0948 21.9316 13.1309C22.1731 13.1697 22.4191 13.172 22.6613 13.1379C22.8088 13.0973 22.9482 13.0319 23.0737 12.9445L23.1378 12.8924L22.9958 12.4715ZM22.9958 12.4715C22.9157 12.2431 22.8374 12.0226 22.8165 11.9855C22.7196 11.8742 22.6111 11.7734 22.4932 11.6849C22.333 11.5577 22.0306 11.3101 21.8183 11.1348C21.2757 10.6789 21.0425 10.5496 20.7402 10.5275C20.6356 10.5182 20.5305 10.5347 20.4339 10.5756C20.3331 10.6129 20.2364 10.6606 20.1455 10.7179C20.0223 10.8031 19.9021 10.9183 19.9021 10.9614C19.9361 11.0526 19.9748 11.142 20.0184 11.229C20.1661 11.5676 20.2889 11.9166 20.3857 12.2731C20.4568 12.5236 20.5699 12.6108 21.1156 12.8383C21.6612 13.0658 21.7453 13.0948 21.9316 13.1309C22.1731 13.1697 22.4191 13.172 22.6613 13.1379C22.8088 13.0973 22.9482 13.0319 23.0737 12.9445L23.1378 12.8924L22.9958 12.4715ZM22.9958 12.4715C22.9157 12.2431 22.8374 12.0226 22.8165 11.9855C22.7196 11.8742 22.6111 11.7734 22.4932 11.6849C22.333 11.5577 22.0306 11.3101 21.8183 11.1348C21.2757 10.6789 21.0425 10.5496 20.7402 10.5275C20.6356 10.5182 20.5305 10.5347 20.4339 10.5756C20.3331 10.6129 20.2364 10.6606 20.1455 10.7179C20.0223 10.8031 19.9021 10.9183 19.9021 10.9614C19.9361 11.0526 19.9748 11.142 20.0184 11.229C20.1661 11.5676 20.2889 11.9166 20.3857 12.2731C20.4568 12.5236 20.5699 12.6108 21.1156 12.8383C21.6612 13.0658 21.7453 13.0948 21.9316 13.1309C22.1731 13.1697 22.4191 13.172 22.6613 13.1379C22.8088 13.0973 22.9482 13.0319 23.0737 12.9445L23.1378 12.8924L22.9958 12.4715ZM22.9958 12.4715C22.9157 12.2431 22.8374 12.0226 22.8165 11.9855C22.7196 11.8742 22.6111 11.7734 22.4932 11.6849C22.333 11.5577 22.0306 11.3101 21.8183 11.1348C21.2757 10.6789 21.0425 10.5496 20.7402 10.5275C20.6356 10.5182 20.5305 10.5347 20.4339 10.5756C20.3331 10.6129 20.2364 10.6606 20.1455 10.7179C20.0223 10.8031 19.9021 10.9183 19.9021 10.9614C19.9361 11.0526 19.9748 11.142 20.0184 11.229C20.1661 11.5676 20.2889 11.9166 20.3857 12.2731C20.4568 12.5236 20.5699 12.6108 21.1156 12.8383C21.6612 13.0658 21.7453 13.0948 21.9316 13.1309C22.1731 13.1697 22.4191 13.172 22.6613 13.1379C22.8088 13.0973 22.9482 13.0319 23.0737 12.9445L23.1378 12.8924L22.9958 12.4715ZM22.9958 12.4715C22.9157 12.2431 22.8374 12.0226 22.8165 11.9855C22.7196 11.8742 22.6111 11.7734 22.4932 11.6849C22.333 11.5577 22.0306 11.3101 21.8183 11.1348C21.2757 10.6789 21.0425 10.5496 20.7402 10.5275C20.6356 10.5182 20.5305 10.5347 20.4339 10.5756C20.3331 10.6129 20.2364 10.6606 20.1455 10.7179C20.0223 10.8031 19.9021 10.9183 19.9021 10.9614C19.9361 11.0526 19.9748 11.142 20.0184 11.229C20.1661 11.5676 20.2889 11.9166 20.3857 12.2731C20.4568 12.5236 20.5699 12.6108 21.1156 12.8383C21.6612 13.0658 21.7453 13.0948 21.9316 13.1309C22.1731 13.1697 22.4191 13.172 22.6613 13.1379C22.8088 13.0973 22.9482 13.0319 23.0737 12.9445L23.1378 12.8924L22.9958 12.4715Z" fill="white" style="fill:white;fill-opacity:1;"/>
<path d="M113.971 13.6409H118.143V13.8434H117.758C117.09 13.8434 116.543 14.3902 116.502 15.0584V25.528C116.502 26.824 116.705 28.1201 116.705 28.1201H116.523L105.465 16.3342V26.419C105.486 27.0872 106.032 27.6341 106.721 27.6341H107.085V27.8366H102.914L102.934 27.6341H103.299C103.987 27.6341 104.534 27.0872 104.554 26.3987V15.8684C104.554 14.4914 104.372 13.3574 104.372 13.3574H104.554L115.591 25.123V15.0787C115.571 14.4104 115.024 13.8434 114.336 13.8434H113.971V13.6409Z" fill="white" style="fill:white;fill-opacity:1;"/>
<path d="M94.876 13.3574L100.283 26.3582C100.688 27.2492 101.437 27.6137 102.065 27.6137H102.227V27.8163H97.6706V27.6341H97.8528C98.3793 27.6341 98.9261 27.1682 98.6223 26.3582L97.3263 22.8954H91.8789L90.5221 26.3582C90.2386 27.1682 90.7651 27.6341 91.2916 27.6341H91.4739V27.8163H87.3833V27.6137H87.5655C88.1933 27.6137 88.9425 27.2492 89.3475 26.3582L93.9445 15.4432C93.9445 15.4432 94.6937 13.8029 94.6937 13.3574H94.876ZM92.1219 22.2879H97.1036L94.6532 15.8077L92.1219 22.2879Z" fill="white" style="fill:white;fill-opacity:1;"/>
<path d="M82.2558 13.6406H86.6907L86.6704 13.8432H86.4274C85.7187 13.8432 85.1314 14.4102 85.1314 15.1189V27.816C85.1314 30.1043 83.5113 31.8863 81.4458 31.8863V31.7042C82.7621 31.2383 83.7948 29.5171 83.7948 27.7755V15.1189C83.7948 14.4102 83.2076 13.8432 82.4988 13.8432H82.2558V13.6406Z" fill="white" style="fill:white;fill-opacity:1;"/>
<path d="M72.7601 13.3574C77.0735 13.3574 80.0301 16.3139 80.0301 20.7286C80.0301 25.1635 77.0735 28.0998 72.7601 28.0998C68.4468 28.0998 65.4902 25.1635 65.4902 20.7286C65.4902 16.3139 68.4468 13.3574 72.7601 13.3574ZM72.7601 27.5126C76.2027 27.5126 78.4911 24.799 78.4911 20.7489C78.4911 16.6784 76.2027 13.9649 72.7601 13.9649C69.3175 13.9649 67.0292 16.6784 67.0292 20.7489C67.0292 24.799 69.3175 27.5126 72.7601 27.5126Z" fill="white" style="fill:white;fill-opacity:1;"/>
<path d="M52.4922 13.6406H57.9397C60.39 13.6406 61.9088 15.0987 61.9088 17.4478C61.9088 19.412 60.4103 21.3155 58.4662 21.3155C58.8914 21.5181 59.5192 22.1864 59.9039 22.7331C59.9039 22.7331 61.6658 25.2442 62.4353 26.0947C63.2655 26.9857 64.0149 27.6135 65.1894 27.6135V27.816H64.0756C62.1923 27.816 61.1798 26.8035 60.552 26.0542C60.3293 25.7707 58.0409 22.4496 57.8789 22.2674C57.3524 21.5991 56.7652 20.8904 56.0158 20.8904V20.708C56.0158 20.708 56.4817 20.708 57.0892 20.708C58.1422 20.6675 59.6813 20.4245 60.2483 18.602C60.3495 18.3185 60.39 17.8325 60.39 17.3869C60.3293 15.5442 59.3774 14.3697 57.8789 14.2887C56.8462 14.2482 55.6108 14.2887 55.3476 14.2887V26.358C55.3678 27.0465 55.9348 27.6337 56.6437 27.6337H56.9069V27.8362H52.4922V27.6337H52.7352C53.4441 27.6337 54.0111 27.0667 54.0313 26.358V15.1189C54.0313 14.4102 53.4441 13.8432 52.7352 13.8432H52.4922V13.6406Z" fill="white" style="fill:white;fill-opacity:1;"/>
<path d="M41.5946 13.6204H48.4393C49.31 13.6204 50.4846 13.4179 50.8694 13.2559V15.8075H50.6669V15.4429C50.6669 14.7949 50.1605 14.2684 49.5125 14.2279H45.6852V26.3579C45.7053 27.0668 46.2724 27.6338 46.9813 27.6338H47.2243V27.8363H42.7892L42.8097 27.6338H43.0527C43.7614 27.6338 44.3284 27.0668 44.3487 26.3783V14.2279H40.5213C39.8733 14.2684 39.3671 14.7949 39.3671 15.4429V15.8075H39.1646V13.2559C39.5291 13.4179 40.7238 13.6204 41.5946 13.6204Z" fill="white" style="fill:white;fill-opacity:1;"/>
</g>
</g>
<defs>
<clipPath id="clip0_582_17904">
<rect width="120" height="36" fill="white" style="fill:white;fill-opacity:1;" transform="translate(0 2)"/>
</clipPath>
</defs>
</svg>
