<svg width="96" height="21" viewBox="0 0 96 21" fill="none" xmlns="http://www.w3.org/2000/svg">
<g clip-path="url(#clip0_4452_2481)">
<path fill-rule="evenodd" clip-rule="evenodd" d="M61.0837 0H63.5185V16.2074H61.0843L61.0837 0ZM21.366 14.0044V5.49609H23.9566V3.28584H21.1549C21.3193 3.08109 21.4514 2.85206 21.5455 2.60662C21.7217 2.16169 21.8151 1.59272 21.8059 0.827531V0H19.4604V0.855094C19.476 1.34096 19.3773 1.82371 19.1724 2.26472C18.8667 2.89013 18.2137 3.58116 16.7948 3.91322L16.6436 3.94931V5.49609H18.9081V14.5845C18.9094 15.0143 19.0817 15.4258 19.3868 15.7303C19.6925 16.0347 20.1063 16.2064 20.5381 16.2081H23.9941V14.0031H21.366V14.0044ZM41.355 5.43244C42.3005 4.08909 43.5564 3.30291 45.0766 3.30291H46.2905V5.65228H44.809C43.7714 5.65228 42.9377 5.98828 42.3472 6.69638C41.7574 7.40513 41.4043 8.50959 41.4043 10.0826V16.2087H38.9202V3.30291H41.3543L41.355 5.43244ZM94.3431 3.30291H96.7187L97.0002 3.31209L96.8969 3.57131L90.6944 19.5733L90.5432 19.5156L90.5616 19.5228L90.6918 19.5733C90.516 19.9881 90.2239 20.3434 89.8506 20.5965C89.4774 20.8496 89.0388 20.9897 88.5877 21H85.8379V18.8186H88.5028L89.618 16.0112L84.7562 3.56212L84.6536 3.30291H87.3903L87.437 3.43284L90.8575 12.9406L94.2977 3.43219L94.3431 3.30291ZM33.986 3.30291H36.4432V16.212H34.107V14.6199C33.1845 15.8983 31.828 16.5034 30.1664 16.5034C28.4752 16.5034 27.3193 16.0099 26.6105 15.1515C25.9016 14.2931 25.6413 13.0948 25.6413 11.7324V3.30225H28.1004V11.9687C28.1004 12.6899 28.3279 13.2668 28.7264 13.6618C29.1255 14.0575 29.7107 14.2918 30.4583 14.2918C31.6649 14.2918 32.5355 13.8941 33.1128 13.2405C33.6901 12.5875 33.986 11.6576 33.986 10.5643V3.30291ZM78.4366 3.01219C76.5982 3.01219 75.0826 3.68681 74.0299 4.87987C72.9771 6.07294 72.4025 7.75884 72.4025 9.76697C72.4025 11.7758 72.9975 13.4735 74.0673 14.6547C75.1371 15.836 76.6738 16.4988 78.5096 16.4988C79.9707 16.4988 81.2253 16.0814 82.2063 15.3123C83.1873 14.5432 83.8823 13.4347 84.2447 12.0704L84.3097 11.8256H81.7776L81.7309 11.9549C81.1733 13.484 80.0252 14.32 78.5096 14.32C77.4201 14.32 76.5811 13.9132 75.984 13.2307C75.4199 12.5823 75.0655 11.6826 74.9353 10.6181H84.3275L84.3472 10.4455C84.3683 10.2211 84.3768 9.99534 84.3722 9.76959C84.3722 7.76409 83.8225 6.07425 82.7968 4.88381C81.771 3.69337 80.2751 3.01219 78.4366 3.01219ZM75.0214 8.38622C75.195 7.47863 75.5547 6.69113 76.0873 6.13134C76.3891 5.8162 76.7538 5.5677 77.1578 5.40188C77.5617 5.23605 77.9961 5.1566 78.4327 5.16862C78.8482 5.1584 79.2614 5.23312 79.6469 5.38819C80.0324 5.54325 80.382 5.77539 80.6742 6.07031C81.2082 6.61369 81.5862 7.39791 81.7736 8.38622H75.0214ZM54.3433 3.01219C52.6817 3.01219 51.3252 3.61659 50.4027 4.89563V3.30291H48.0665V16.2081H50.5243V8.94666C50.5243 7.85334 50.8202 6.92344 51.3969 6.26916C51.9742 5.61356 52.8448 5.2185 54.0513 5.2185C54.7996 5.2185 55.3848 5.45278 55.7833 5.8485C56.1817 6.24422 56.4099 6.82106 56.4099 7.54162V16.21H58.8691V7.7805C58.8691 6.41878 58.608 5.22113 57.8992 4.36209C57.1904 3.50372 56.0345 3.01219 54.3433 3.01219ZM73.1363 3.33637L66.6813 9.76303L73.1317 16.1864L69.8742 16.1798L65.1623 11.4877C64.9353 11.2614 64.7551 10.9927 64.6322 10.6969C64.5093 10.401 64.446 10.0839 64.446 9.76369C64.446 9.44344 64.5093 9.12634 64.6322 8.83052C64.7551 8.5347 64.9353 8.26598 65.1623 8.03972L69.8861 3.33637H73.1363Z" fill="white" style="fill:white;fill-opacity:1;"/>
<mask id="mask0_4452_2481" style="mask-type:luminance" maskUnits="userSpaceOnUse" x="1" y="0" width="10" height="17">
<path d="M1 0H10.5605V16.8046H1V0Z" fill="white" style="fill:white;fill-opacity:1;"/>
</mask>
<g mask="url(#mask0_4452_2481)">
<path d="M6.2754 7.45107L10.5612 16.8046H1L5.28581 7.45107C5.32928 7.35656 5.399 7.27649 5.48671 7.22036C5.57441 7.16422 5.67641 7.13438 5.7806 7.13438C5.88479 7.13438 5.98679 7.16422 6.0745 7.22036C6.1622 7.27649 6.23193 7.35656 6.2754 7.45107ZM5.78027 6.00141C6.57816 6.00193 7.34359 5.68614 7.90822 5.12347C8.47284 4.56081 8.79043 3.79736 8.79112 3.00103C8.79086 2.60662 8.71276 2.21612 8.56127 1.85183C8.40978 1.48755 8.18787 1.15662 7.90822 0.877935C7.62856 0.599255 7.29664 0.378286 6.93142 0.227649C6.56619 0.0770115 6.1748 -0.000343705 5.77962 1.14796e-06C4.98173 -0.00034707 4.21637 0.315616 3.65187 0.878399C3.08736 1.44118 2.76995 2.2047 2.76942 3.00103C2.77012 3.79736 3.08771 4.56081 3.65233 5.12347C4.21696 5.68614 4.98238 6.00193 5.78027 6.00141Z" fill="white" style="fill:white;fill-opacity:1;"/>
</g>
</g>
<defs>
<clipPath id="clip0_4452_2481">
<rect width="96" height="21" fill="white" style="fill:white;fill-opacity:1;"/>
</clipPath>
</defs>
</svg>
