<svg width="160" height="40" viewBox="0 0 160 40" fill="none" xmlns="http://www.w3.org/2000/svg">
<g clip-path="url(#clip0_582_19085)">
<mask id="mask0_582_19085" style="mask-type:luminance" maskUnits="userSpaceOnUse" x="0" y="2" width="160" height="36">
<path d="M160 2H0V38H160V2Z" fill="white" style="fill:white;fill-opacity:1;"/>
</mask>
<g mask="url(#mask0_582_19085)">
<path d="M56.1441 27.6119L50.8108 12.0803H54.3467L58.3681 24.5491H57.6587L61.68 12.0803H65.2428L59.9094 27.6119H56.1441Z" fill="white" style="fill:white;fill-opacity:1;"/>
<path d="M68.4855 27.8613C67.7549 27.8772 67.0289 27.7434 66.3519 27.4684C65.7877 27.2337 65.3056 26.8388 64.9657 26.3326C64.6363 25.8044 64.4692 25.1916 64.4855 24.5701C64.4745 23.9744 64.6276 23.3871 64.9282 22.8717C65.257 22.344 65.7234 21.9146 66.2779 21.6294C66.9879 21.2636 67.7569 21.0231 68.5496 20.9182L72.0484 20.3555V22.6646L69.1149 23.1955C68.742 23.2446 68.3889 23.391 68.0908 23.62C67.9691 23.7275 67.8732 23.8614 67.8111 24.0113C67.7496 24.1613 67.7231 24.3236 67.7337 24.4854C67.7265 24.6427 67.7588 24.7993 67.8276 24.9411C67.897 25.0828 68.0002 25.2052 68.1284 25.2975C68.416 25.5002 68.7625 25.6028 69.1149 25.5893C69.5903 25.6004 70.0597 25.4851 70.4749 25.2549C70.859 25.0468 71.1757 24.7339 71.3873 24.3527C71.6048 23.9674 71.7172 23.5314 71.7126 23.0892V20.1274C71.7086 19.9221 71.659 19.7199 71.5665 19.5362C71.4746 19.3525 71.3417 19.1919 71.179 19.0658C70.7843 18.755 70.2898 18.5983 69.7873 18.6252C69.257 18.6159 68.7387 18.7778 68.3096 19.0868C67.8845 19.3887 67.5592 19.8103 67.376 20.2972L64.8643 19.108C65.0777 18.4802 65.4442 17.915 65.931 17.4627C66.4385 16.9928 67.0375 16.6315 67.6908 16.4011C68.4094 16.1446 69.1678 16.017 69.9307 16.0242C70.8121 16.008 71.6848 16.1895 72.4855 16.555C73.187 16.8665 73.786 17.3688 74.2137 18.0041C74.6342 18.6436 74.8504 19.3949 74.8326 20.159V27.6649H71.9466V25.8282L72.6613 25.7062C72.3559 26.1727 71.9817 26.5912 71.5519 26.9482C71.1466 27.2734 70.6838 27.5202 70.1873 27.6755C69.6332 27.8254 69.0587 27.8881 68.4855 27.8613Z" fill="white" style="fill:white;fill-opacity:1;"/>
<path d="M76.9495 27.6119V12.0803H80.0906V27.6119H76.9495Z" fill="white" style="fill:white;fill-opacity:1;"/>
<path d="M82.1865 27.6119V12.0803H85.3277V27.6119H82.1865Z" fill="white" style="fill:white;fill-opacity:1;"/>
<path d="M92.9336 27.8615C91.8248 27.8903 90.7299 27.6127 89.7706 27.0598C88.8932 26.5449 88.1752 25.7994 87.6959 24.9049C87.2007 23.9809 86.9475 22.9476 86.96 21.9004C86.9402 20.8367 87.2053 19.7869 87.7276 18.8589C88.2136 17.9809 88.9263 17.2479 89.7918 16.7356C90.6777 16.2139 91.6913 15.9457 92.72 15.9606C93.5445 15.9449 94.3637 16.091 95.1306 16.3906C95.8017 16.6571 96.406 17.0664 96.9012 17.5901C97.3832 18.1062 97.7561 18.7125 98 19.3736C98.2572 20.0778 98.3848 20.8221 98.3789 21.5712C98.3789 21.7942 98.3789 22.012 98.3465 22.2296C98.3299 22.4107 98.2903 22.589 98.2295 22.7604H89.6642V20.4671H96.48L94.9918 21.5288C95.1405 21.0082 95.1405 20.4569 94.9918 19.9363C94.8542 19.4882 94.5706 19.0982 94.1865 18.827C93.7686 18.5473 93.2721 18.4059 92.7683 18.4234C92.2718 18.4113 91.7825 18.5483 91.3653 18.8163C90.9587 19.1064 90.6513 19.5143 90.4853 19.9842C90.2797 20.5883 90.2017 21.2279 90.2559 21.8634C90.1924 22.4362 90.2711 23.0156 90.4853 23.5512C90.6817 24.0198 91.0189 24.4167 91.4506 24.6872C91.9075 24.9441 92.4205 25.0853 92.9455 25.0983C93.4698 25.1112 93.9894 24.9956 94.4589 24.7616C94.8463 24.545 95.167 24.2275 95.3865 23.8433L97.9042 25.0322C97.6728 25.5977 97.3065 26.0987 96.8371 26.4919C96.3352 26.9189 95.7561 27.2467 95.1306 27.4579C94.4278 27.7204 93.684 27.857 92.9336 27.8615Z" fill="white" style="fill:white;fill-opacity:1;"/>
<path d="M101.814 32.2195C101.486 32.221 101.159 32.1925 100.837 32.1345C100.549 32.0886 100.27 31.9973 100.011 31.8639V29.3C100.239 29.3642 100.47 29.4138 100.704 29.4485C100.945 29.4874 101.19 29.5071 101.435 29.5071C101.673 29.5308 101.915 29.5043 102.143 29.4293C102.37 29.3543 102.58 29.2324 102.757 29.0716C103.026 28.7736 103.246 28.4352 103.408 28.0686L104.181 26.3009L104.139 28.907L99.1094 16.21H102.485L105.814 25.2339H104.56L107.888 16.21H111.259L106.357 28.6523C106.095 29.3725 105.713 30.0438 105.226 30.6376C104.818 31.1456 104.298 31.5533 103.706 31.8294C103.115 32.1055 102.467 32.2426 101.814 32.2301V32.2195Z" fill="white" style="fill:white;fill-opacity:1;"/>
<path d="M112.645 27.6118V12.0802H117.734C119.261 12.0422 120.774 12.3873 122.134 13.0836C123.338 13.7108 124.34 14.6638 125.024 15.8331C125.696 17.0629 126.048 18.4408 126.048 19.8408C126.048 21.2409 125.696 22.6185 125.024 23.8484C124.34 25.0223 123.339 25.9807 122.134 26.6139C120.773 27.3059 119.261 27.6488 117.734 27.6118H112.645ZM115.888 24.7986H117.814C118.732 24.8217 119.641 24.6096 120.454 24.1828C121.182 23.7803 121.781 23.1803 122.181 22.4524C122.584 21.6366 122.794 20.7395 122.794 19.8302C122.794 18.9209 122.584 18.0239 122.181 17.208C121.78 16.4862 121.181 15.8931 120.454 15.4987C119.639 15.078 118.731 14.8697 117.814 14.8935H115.882L115.888 24.7986Z" fill="white" style="fill:white;fill-opacity:1;"/>
<path d="M125.915 27.6119L131.195 12.0803H135.51L140.784 27.6119H137.248L136.181 24.427H130.464L129.398 27.6119H125.915ZM131.381 21.6296H135.296L132.912 14.2886H133.814L131.381 21.6296Z" fill="white" style="fill:white;fill-opacity:1;"/>
<path d="M149.061 27.8613C147.943 27.8712 146.832 27.6657 145.792 27.2561C144.816 26.8723 143.926 26.2993 143.174 25.5704C142.423 24.8413 141.824 23.9709 141.414 23.0096C140.987 22.0019 140.773 20.9179 140.784 19.8246C140.772 18.7323 140.983 17.6489 141.402 16.6398C141.803 15.6837 142.395 14.8187 143.141 14.0971C143.899 13.3693 144.792 12.7961 145.771 12.4093C147.888 11.6025 150.23 11.6025 152.347 12.4093C153.326 12.7942 154.22 13.3677 154.976 14.0971C155.723 14.8187 156.314 15.6837 156.715 16.6398C157.137 17.6481 157.348 18.7321 157.334 19.8246C157.353 21.4217 156.885 22.9869 155.991 24.3138C155.098 25.6406 153.822 26.6665 152.331 27.2561C151.291 27.6657 150.18 27.8712 149.061 27.8613ZM149.061 24.9418C149.739 24.9488 150.411 24.8224 151.04 24.5702C151.638 24.3241 152.182 23.9634 152.64 23.5085C153.104 23.0578 153.467 22.5153 153.707 21.916C153.962 21.2578 154.089 20.5571 154.08 19.8513C154.089 19.1491 153.962 18.4515 153.707 17.7971C153.463 17.2 153.1 16.6583 152.64 16.2046C152.188 15.7426 151.642 15.3807 151.04 15.1429C149.767 14.6546 148.356 14.6546 147.082 15.1429C146.481 15.3826 145.936 15.7441 145.482 16.2046C145.024 16.6592 144.661 17.2006 144.416 17.7971C144.158 18.4512 144.03 19.1488 144.037 19.8513C144.03 20.5574 144.158 21.2582 144.416 21.916C144.657 22.5144 145.02 23.0567 145.482 23.5085C145.942 23.9618 146.485 24.3223 147.082 24.5702C147.711 24.823 148.384 24.9494 149.061 24.9418Z" fill="white" style="fill:white;fill-opacity:1;"/>
<path d="M28.6293 13.2109C31.7398 13.2109 34.2613 10.7012 34.2613 7.60543C34.2613 4.50963 31.7398 2 28.6293 2C25.5188 2 22.9973 4.50963 22.9973 7.60543C22.9973 10.7012 25.5188 13.2109 28.6293 13.2109Z" fill="#F46060" style="fill:#F46060;fill:color(display-p3 0.9569 0.3765 0.3765);fill-opacity:1;"/>
<path d="M32.0266 9.17664C29.9177 8.57276 27.6907 8.5036 25.5482 8.9755C23.4057 9.44743 21.4158 10.4455 19.7599 11.8787C19.5904 12.0187 19.3816 12.1031 19.162 12.1203C18.9423 12.1373 18.7227 12.0862 18.5333 11.974C17.7941 11.5079 16.9911 11.1504 16.1492 10.9124C15.9517 10.8577 15.7743 10.7477 15.638 10.5952C15.5018 10.4427 15.4127 10.2544 15.3813 10.0527C15.1341 8.48452 14.4894 7.00475 13.5083 5.75328C12.5272 4.50182 11.242 3.51979 9.77374 2.89989C8.30551 2.27998 6.70293 2.04257 5.11694 2.21019C3.53097 2.3778 2.01408 2.94488 0.709388 3.85785C0.414037 4.06991 0.200108 4.37596 0.103137 4.72535C0.00616589 5.07472 0.0319556 5.44658 0.176054 5.77946L8.83728 25.8816C9.3783 26.2379 10.0146 26.4237 10.6633 26.4152C11.312 26.4067 11.9433 26.2043 12.4748 25.8338L30.9333 13.0411C31.5145 12.6379 31.947 12.0562 32.1646 11.3852C32.3823 10.7142 32.3731 9.99077 32.1386 9.32542L32.0266 9.17664Z" fill="url(#paint0_linear_582_19085)" style=""/>
<path d="M30.0372 31.8743L41.8774 4.37789C41.9771 4.13884 42.0167 3.87934 41.9929 3.62158C41.9692 3.36381 41.8827 3.11567 41.7409 2.8987C41.599 2.68173 41.406 2.50252 41.1789 2.37644C40.9518 2.25036 40.6972 2.18113 40.4372 2.17505C38.0535 2.17489 35.7311 2.9271 33.8039 4.32346C31.8767 5.71981 30.4441 7.68845 29.712 9.94629C29.5653 10.4013 29.3116 10.8149 28.9721 11.1528C28.6326 11.4907 28.217 11.7431 27.7599 11.8892C26.724 12.2306 25.7752 12.7919 24.9787 13.5342C24.1821 14.2766 23.557 15.1822 23.1466 16.1886C22.8977 16.8134 22.4502 17.34 21.8724 17.688C21.2946 18.0359 20.6182 18.1862 19.9466 18.1156C19.5727 18.0774 19.1972 18.0577 18.8214 18.057C16.5081 18.0581 14.2619 18.8319 12.443 20.2545C10.624 21.6769 9.33747 23.6659 8.78931 25.9027L11.3599 31.8743C14.8799 40.0437 26.5226 40.0437 30.0372 31.8743Z" fill="url(#paint1_linear_582_19085)" style=""/>
<path d="M29.5894 21.6721C31.1446 21.6721 32.4054 20.4173 32.4054 18.8693C32.4054 17.3215 31.1446 16.0667 29.5894 16.0667C28.0342 16.0667 26.7734 17.3215 26.7734 18.8693C26.7734 20.4173 28.0342 21.6721 29.5894 21.6721Z" fill="#199B57" style="fill:#199B57;fill:color(display-p3 0.0980 0.6078 0.3412);fill-opacity:1;"/>
<path d="M25.392 32.071C26.4288 32.071 27.2694 31.2344 27.2694 30.2025C27.2694 29.1706 26.4288 28.334 25.392 28.334C24.3552 28.334 23.5146 29.1706 23.5146 30.2025C23.5146 31.2344 24.3552 32.071 25.392 32.071Z" fill="#199B57" style="fill:#199B57;fill:color(display-p3 0.0980 0.6078 0.3412);fill-opacity:1;"/>
<path d="M13.0081 16.0454C13.7858 16.0454 14.4161 15.418 14.4161 14.644C14.4161 13.8701 13.7858 13.2427 13.0081 13.2427C12.2305 13.2427 11.6001 13.8701 11.6001 14.644C11.6001 15.418 12.2305 16.0454 13.0081 16.0454Z" fill="#61D1C9" style="fill:#61D1C9;fill:color(display-p3 0.3804 0.8196 0.7882);fill-opacity:1;"/>
<path d="M8.3969 10.7092C9.70203 10.1382 10.2948 8.62215 9.72107 7.32322C9.14732 6.02428 7.62434 5.43422 6.31927 6.00522C5.01417 6.57623 4.42131 8.09201 4.99503 9.39098C5.56874 10.6899 7.09178 11.2802 8.3969 10.7092Z" fill="#61D1C9" style="fill:#61D1C9;fill:color(display-p3 0.3804 0.8196 0.7882);fill-opacity:1;"/>
<path d="M22.272 23.2433C22.371 23.438 22.4304 23.6503 22.4468 23.8679C22.463 24.0856 22.436 24.3043 22.3671 24.5115C22.2982 24.7186 22.1887 24.9102 22.0452 25.0752C21.9016 25.2402 21.727 25.3753 21.5309 25.4728C19.7636 26.3659 18.2849 27.7366 17.2642 29.4275C17.1572 29.6256 17.0109 29.7997 16.8343 29.9399C16.6576 30.0801 16.4542 30.1832 16.2363 30.2429C16.0185 30.3025 15.7906 30.3175 15.5668 30.287C15.343 30.2564 15.1277 30.1809 14.934 30.0651C14.7403 29.9493 14.5722 29.7954 14.44 29.6131C14.3078 29.4307 14.2142 29.2237 14.1647 29.0042C14.1153 28.7848 14.1111 28.5576 14.1525 28.3366C14.1939 28.1155 14.2799 27.9052 14.4054 27.7182C15.7556 25.4846 17.7141 23.6775 20.0535 22.5056C20.447 22.3161 20.8991 22.2871 21.3137 22.425C21.7282 22.5629 22.0721 22.8565 22.272 23.2433Z" fill="#199B57" style="fill:#199B57;fill:color(display-p3 0.0980 0.6078 0.3412);fill-opacity:1;"/>
</g>
</g>
<defs>
<linearGradient id="paint0_linear_582_19085" x1="27.4026" y1="31.2056" x2="7.11827" y2="-8.80544" gradientUnits="userSpaceOnUse">
<stop stop-color="#004560" style="stop-color:#004560;stop-color:color(display-p3 0.0000 0.2706 0.3765);stop-opacity:1;"/>
<stop offset="1" stop-color="#61D1C9" style="stop-color:#61D1C9;stop-color:color(display-p3 0.3804 0.8196 0.7882);stop-opacity:1;"/>
</linearGradient>
<linearGradient id="paint1_linear_582_19085" x1="22.864" y1="14.3785" x2="36.7684" y2="27.8421" gradientUnits="userSpaceOnUse">
<stop stop-color="#43D16A" style="stop-color:#43D16A;stop-color:color(display-p3 0.2627 0.8196 0.4157);stop-opacity:1;"/>
<stop offset="1" stop-color="#25B7B0" style="stop-color:#25B7B0;stop-color:color(display-p3 0.1451 0.7176 0.6902);stop-opacity:1;"/>
</linearGradient>
<clipPath id="clip0_582_19085">
<rect width="160" height="36" fill="white" style="fill:white;fill-opacity:1;" transform="translate(0 2)"/>
</clipPath>
</defs>
</svg>
