<svg width="80" height="32" viewBox="0 0 80 32" fill="none" xmlns="http://www.w3.org/2000/svg">
<g clip-path="url(#clip0_567_4306)">
<path d="M34.6666 28.625H28.186L32.2394 3.4563H38.7196L34.6666 28.625Z" fill="#00579F" style="fill:#00579F;fill:color(display-p3 0.0000 0.3412 0.6235);fill-opacity:1;"/>
<path d="M58.1592 4.07153C56.881 3.56228 54.8535 3 52.3467 3C45.9469 3 41.4402 6.42705 41.4126 11.3267C41.3594 14.9416 44.6392 16.9495 47.0923 18.1548C49.5995 19.3865 50.4518 20.1904 50.4518 21.2883C50.4263 22.9744 48.4258 23.7516 46.56 23.7516C43.9726 23.7516 42.5863 23.3509 40.4795 22.4128L39.6262 22.0107L38.7193 27.6605C40.2392 28.3559 43.0396 28.973 45.9469 29C52.7468 29 57.1737 25.626 57.2261 20.4046C57.252 17.5395 55.5201 15.3441 51.7864 13.5502C49.5198 12.3986 48.1317 11.6221 48.1317 10.4438C48.1582 9.3726 49.3057 8.27545 51.8643 8.27545C53.9711 8.22171 55.5191 8.73025 56.6917 9.23915L57.2779 9.50641L58.1592 4.07153Z" fill="#00579F" style="fill:#00579F;fill:color(display-p3 0.0000 0.3412 0.6235);fill-opacity:1;"/>
<path d="M66.7724 19.7086C67.3061 18.2627 69.3597 12.6666 69.3597 12.6666C69.3328 12.7204 69.8924 11.194 70.2124 10.257L70.6653 12.4257C70.6653 12.4257 71.8925 18.4503 72.159 19.7086C71.1462 19.7086 68.0524 19.7086 66.7724 19.7086ZM74.7718 3.4563H69.7591C68.2133 3.4563 67.0389 3.9111 66.372 5.54456L56.7459 28.6246H63.5458C63.5458 28.6246 64.6653 25.5182 64.9059 24.8492C65.6519 24.8492 72.2667 24.8492 73.2264 24.8492C73.4124 25.7328 73.9996 28.6246 73.9996 28.6246H80L74.7718 3.4563Z" fill="#00579F" style="fill:#00579F;fill:color(display-p3 0.0000 0.3412 0.6235);fill-opacity:1;"/>
<path d="M22.7732 3.4563L16.4266 20.6189L15.7331 17.1382C14.5597 13.1218 10.8798 8.75808 6.77325 6.58833L12.5865 28.5983H19.4395L29.6259 3.4563H22.7732Z" fill="#00579F" style="fill:#00579F;fill:color(display-p3 0.0000 0.3412 0.6235);fill-opacity:1;"/>
<path d="M10.5333 3.4563H0.106668L0 3.96484C8.13339 6.05345 13.52 11.088 15.7331 17.1392L13.4665 5.57196C13.0933 3.96448 11.9465 3.50932 10.5333 3.4563Z" fill="#FAA61A" style="fill:#FAA61A;fill:color(display-p3 0.9804 0.6510 0.1020);fill-opacity:1;"/>
</g>
<defs>
<clipPath id="clip0_567_4306">
<rect width="80" height="26" fill="white" style="fill:white;fill-opacity:1;" transform="translate(0 3)"/>
</clipPath>
</defs>
</svg>
