<svg width="133" height="40" viewBox="0 0 133 40" fill="none" xmlns="http://www.w3.org/2000/svg">
<g clip-path="url(#clip0_582_19074)">
<path d="M8.36799 30.1666L1.33008 9.94434H4.98758L10.363 26.1666L15.7938 9.94434H19.3959L12.358 30.1666H8.36799Z" fill="white" style="fill:white;fill-opacity:1;"/>
<path d="M21.3353 12.9999C20.5595 12.1666 20.5595 10.9999 21.3353 10.2222C22.1111 9.38883 23.3857 9.38883 24.1615 10.2222C24.9374 10.9999 24.9374 12.2222 24.1615 12.9999C23.3303 13.7777 22.1111 13.7777 21.3353 12.9999ZM21.169 30.1666V15.7222H24.2724V30.1666H21.169Z" fill="white" style="fill:white;fill-opacity:1;"/>
<path d="M30.0914 30.1666V18.7222H26.8772V15.7222H30.0914V11.7222H33.1947V15.7777H36.2426V18.7777H33.1947V30.2222H30.0914V30.1666Z" fill="white" style="fill:white;fill-opacity:1;"/>
<path d="M50.3738 15.7221H53.4771V30.1666H50.3738V28.111C49.21 29.7777 47.4921 30.5554 45.2755 30.5554C43.2805 30.5554 41.618 29.8332 40.1771 28.3888C38.7363 26.9443 38.0713 25.111 38.0713 22.9999C38.0713 20.8332 38.7917 19.0554 40.1771 17.611C41.618 16.1666 43.2805 15.4443 45.2755 15.4443C47.4921 15.4443 49.1546 16.2777 50.3738 17.8888V15.7221ZM45.7742 27.5554C47.1042 27.5554 48.1571 27.111 49.0438 26.2777C49.9305 25.3888 50.3738 24.2777 50.3738 22.9443C50.3738 21.611 49.9305 20.4999 49.0438 19.6666C48.1571 18.7777 47.0488 18.3332 45.7742 18.3332C44.4996 18.3332 43.3913 18.7777 42.5046 19.6666C41.618 20.5554 41.1746 21.611 41.1746 22.9443C41.1746 24.2777 41.618 25.3888 42.5046 26.2777C43.3913 27.1666 44.4996 27.5554 45.7742 27.5554Z" fill="white" style="fill:white;fill-opacity:1;"/>
<path d="M65.0591 9.94434C67.8299 9.94434 70.1574 10.9443 71.9862 12.8332C73.8149 14.7777 74.757 17.1666 74.757 19.9999C74.757 22.8332 73.8149 25.2221 71.9862 27.1666C70.1574 29.111 67.8299 30.0554 65.0591 30.0554H57.0791V9.94434H65.0591ZM65.0591 26.9999C66.9987 26.9999 68.5504 26.3332 69.7141 25.0554C70.9333 23.7777 71.5429 22.0554 71.5429 20.111C71.5429 18.111 70.9333 16.4443 69.7141 15.1666C68.5504 13.8888 66.9433 13.2221 65.0591 13.2221H60.4041V27.111L65.0591 26.9999Z" fill="white" style="fill:white;fill-opacity:1;"/>
<path d="M87.78 22.9999L84.5659 13.8888L81.3517 22.9999L80.2434 26.111L78.8025 30.1666H75.2004L82.5709 9.94434H86.5609L93.8759 30.1666H90.2738L88.8329 26.111" fill="white" style="fill:white;fill-opacity:1;"/>
<path d="M104.793 30.5557C101.856 30.5557 99.362 29.5557 97.3116 27.5001C95.2612 25.4446 94.2637 22.9446 94.2637 20.0557C94.2637 17.1668 95.2612 14.6668 97.3116 12.6112C99.362 10.5557 101.856 9.55566 104.793 9.55566C107.73 9.55566 110.224 10.5557 112.219 12.6112C114.269 14.6112 115.267 17.1112 115.267 20.0557C115.267 22.9446 114.269 25.4446 112.219 27.5001C110.224 29.5557 107.73 30.5557 104.793 30.5557ZM104.793 27.3334C106.843 27.3334 108.506 26.6112 109.891 25.2779C111.277 23.889 111.997 22.1668 111.997 20.0557C111.997 17.9446 111.277 16.2223 109.891 14.889C108.506 13.5001 106.843 12.8334 104.793 12.8334C102.742 12.8334 101.08 13.5557 99.6391 14.889C98.2537 16.2223 97.5887 18.0001 97.5887 20.0557C97.5887 22.1112 98.3091 23.889 99.6391 25.2779C101.08 26.6112 102.798 27.3334 104.793 27.3334Z" fill="white" style="fill:white;fill-opacity:1;"/>
<path d="M119.534 9.88886L119.645 9.99997C121.972 11.6666 125.131 11.6666 127.458 9.99997C129.398 8.61108 131.836 10.8333 130.673 12.8889L126.627 19.9444C125.242 22.3889 121.751 22.3889 120.365 19.9444L116.264 12.8333C115.156 10.7222 117.594 8.49997 119.534 9.88886Z" fill="#FFDD35" style="fill:#FFDD35;fill:color(display-p3 1.0000 0.8667 0.2078);fill-opacity:1;"/>
</g>
<defs>
<clipPath id="clip0_582_19074">
<rect width="133" height="24" fill="white" style="fill:white;fill-opacity:1;" transform="translate(0 8)"/>
</clipPath>
</defs>
</svg>
