<svg width="523" height="95" viewBox="0 0 523 95" fill="none" xmlns="http://www.w3.org/2000/svg">
<path d="M29.8969 69.8119C35.2781 79.104 44.0701 79.104 49.4514 69.8119L52.4621 64.6107L25.5459 18H0L29.9069 69.8119H29.8969Z" fill="#FFDD00"/>
<path d="M86.5797 49.8973C84.6192 53.2881 79.9882 53.2781 78.0277 49.8973L59.5935 18.01H34.0576L63.9945 69.8319C69.3757 79.1241 78.1478 79.1241 83.529 69.8319L103.564 35.1239L93.7013 18.01H68.1755L86.5897 49.9073L86.5797 49.8973Z" fill="#FFDD00"/>
<path d="M130.91 70.032H139.622L139.692 69.7619C145.073 49.8174 147.274 41.2954 148.174 36.0142C149.044 41.2754 151.145 49.9174 156.286 69.7519L156.356 70.032H165.258L177.651 24.4315H169.539L169.469 24.7116C164.078 45.4163 162.027 53.7983 161.097 59.1395C160.017 53.3982 157.676 43.926 152.635 24.7116L152.565 24.4415H144.093L144.023 24.7216C138.782 45.2263 136.582 53.9983 135.641 59.6996C134.611 54.1483 132.301 44.9362 127.059 24.7216L126.989 24.4415H118.567L130.83 69.7719L130.9 70.042L130.91 70.032Z" fill="white"/>
<path d="M191.434 70.6621C198.026 70.6621 204.257 67.0713 206.748 61.72L200.736 58.6593H200.606L200.496 58.8794C199.766 60.3897 197.096 63.9205 191.494 63.9205C186.413 63.9205 182.542 60.6798 181.952 55.9987H207.848V55.6386C208.018 49.2472 206.278 44.006 202.837 40.4751C199.856 37.4144 195.735 35.7941 190.934 35.7941C186.133 35.7941 181.872 37.5745 178.771 40.8252C175.701 44.036 174.01 48.457 174.01 53.2881C174.01 63.5104 181.172 70.6521 191.424 70.6521L191.434 70.6621ZM190.934 42.4156C195.735 42.4156 199.376 45.4863 199.746 49.7673H181.942C182.482 45.4863 186.203 42.4156 190.934 42.4156Z" fill="white"/>
<path d="M224.232 70.6621C232.714 70.6621 237.975 66.7212 237.975 60.3698C237.975 52.848 231.133 51.0676 225.642 49.6473C221.841 48.6571 218.56 47.8069 218.56 45.3963C218.56 43.4559 220.611 42.0956 223.542 42.0956C226.752 42.0956 228.973 43.786 229.333 46.5166L229.563 47.8969L229.713 47.8669L236.455 46.6266C236.455 40.3052 230.863 35.8641 223.602 35.8641C216.34 35.8641 210.909 39.9951 210.909 45.8964C210.909 53.0381 217.55 54.8085 222.881 56.2388C226.742 57.2691 230.073 58.1693 230.073 60.6798C230.073 62.8703 227.923 64.2307 224.472 64.2307C220.321 64.2307 217.52 62.3002 217.18 59.1895L217.12 58.6794L209.979 60.0397C209.979 66.9613 217.73 70.6621 224.222 70.6621H224.232Z" fill="white"/>
<path d="M244.016 63.8206C244.016 67.5914 246.406 70.6621 250.357 70.6621C255.268 70.6621 256.709 70.032 256.709 70.032V63.6705C256.709 63.6705 255.238 63.9106 253.448 63.9106C252.288 63.9106 251.478 63.2104 251.478 62.1602V42.9258H256.659L256.589 36.5043H251.478V26.9621L244.016 28.8325V36.5043H240.125L240.105 42.9258H244.016V63.8306V63.8206Z" fill="white"/>
<path d="M302.51 40.7352V36.4943H295.938V70.032H303.83L303.77 49.5273C303.87 47.4668 304.56 45.8864 305.83 44.8262C307.491 43.4459 310.071 42.9758 313.502 43.4259L313.912 43.4759L313.982 36.4743L313.662 36.4343C308.931 35.7841 304.65 37.2344 302.51 40.7352Z" fill="white"/>
<path d="M335.387 35.8041C330.646 35.8041 326.195 37.6945 323.994 41.2853V36.4942H317.163V70.0319H325.114V52.0378C325.114 46.2565 328.145 42.8057 333.206 42.8057C336.667 42.8057 340.808 44.316 340.808 51.5377V70.0419H348.76V50.4674C348.76 39.665 341.848 35.8141 335.387 35.8141V35.8041Z" fill="white"/>
<path d="M391.52 51.1477C391.52 58.8994 387.849 63.1604 381.188 63.1604C374.526 63.1604 370.915 58.8894 370.915 51.1477V24.4315H362.894V50.9576C362.894 63.3004 369.735 70.6621 381.188 70.6621C392.64 70.6621 399.482 63.3004 399.482 50.9576V24.4315H391.53V51.1477H391.52Z" fill="white"/>
<path d="M422.447 35.8041C417.706 35.8041 413.255 37.6945 411.054 41.2853V36.4942H404.223V70.0319H412.174V52.0378C412.174 46.2565 415.205 42.8057 420.266 42.8057C423.727 42.8057 427.858 44.316 427.858 51.5377V70.0419H435.81V50.4674C435.81 39.665 428.898 35.8141 422.437 35.8141L422.447 35.8041Z" fill="white"/>
<path d="M448.643 36.4943H440.751V70.032H448.643V36.4943Z" fill="white"/>
<path d="M444.722 24.1314C442.142 24.1314 440.121 26.1219 440.121 28.6524C440.121 31.183 442.182 33.1135 444.722 33.1135C447.263 33.1135 449.263 31.113 449.263 28.6524C449.263 26.1919 447.223 24.1314 444.722 24.1314Z" fill="white"/>
<path d="M469.988 35.8041C465.077 35.8041 460.586 37.5645 457.345 40.7652C454.105 43.966 452.324 48.397 452.324 53.2281C452.324 63.3304 459.756 70.6621 469.988 70.6621C480.221 70.6621 487.722 63.3304 487.722 53.2281C487.722 48.387 485.932 43.956 482.691 40.7652C479.44 37.5645 474.929 35.8041 469.998 35.8041H469.988ZM469.988 63.4204C464.307 63.4204 460.026 59.0394 460.026 53.2381C460.026 47.4367 464.307 43.0557 469.988 43.0557C475.67 43.0557 480.071 47.4367 480.071 53.2381C480.071 59.0394 475.74 63.4204 469.988 63.4204Z" fill="white"/>
<path d="M509.637 35.8041C504.896 35.8041 500.445 37.6945 498.244 41.2853V36.4942H491.413V70.0319H499.364V52.0378C499.364 46.2565 502.395 42.8057 507.456 42.8057C510.917 42.8057 515.048 44.316 515.048 51.5377V70.0419H523V50.4674C523 39.665 516.088 35.8141 509.627 35.8141L509.637 35.8041Z" fill="white"/>
<path d="M275.613 35.8041C270.872 35.8041 266.551 37.5845 263.451 40.8352C260.38 44.046 258.689 48.467 258.689 53.2981C258.689 63.5204 265.851 70.6621 276.103 70.6621C282.695 70.6621 288.926 67.0713 291.417 61.72L285.406 58.6593H285.276L285.166 58.8794C284.435 60.3897 281.765 63.9205 276.163 63.9205C271.082 63.9205 267.211 60.6798 266.621 55.9987H292.517V55.6386C292.687 49.2472 290.947 44.006 287.506 40.4751C284.525 37.4144 280.404 35.7941 275.603 35.7941L275.613 35.8041ZM266.621 49.7673C267.161 45.4863 270.882 42.4156 275.613 42.4156C280.344 42.4156 284.055 45.4863 284.425 49.7673H266.621Z" fill="white"/>
</svg>
