<svg width="125" height="30" viewBox="0 0 125 30" fill="none" xmlns="http://www.w3.org/2000/svg">
<mask id="mask0_4422_9726" style="mask-type:luminance" maskUnits="userSpaceOnUse" x="0" y="0" width="52" height="30">
<path d="M0 0H51.2724V29.0904H0V0Z" fill="white" style="fill:white;fill-opacity:1;"/>
</mask>
<g mask="url(#mask0_4422_9726)">
<path fill-rule="evenodd" clip-rule="evenodd" d="M14.7941 25.639C17.4562 30.2365 21.812 30.2365 24.4745 25.639L25.9637 23.0673L12.6365 0H-0.0146484L14.7941 25.639ZM42.86 15.7851C41.8876 17.4609 39.5977 17.4592 38.6273 15.7818L29.4976 0H16.8518L31.6743 25.6473C34.3364 30.2452 38.6831 30.2452 41.3451 25.6473L51.266 8.4704L46.3836 0H33.7428L42.86 15.7851Z" fill="#F5DF66" style="fill:#F5DF66;fill:color(display-p3 0.9608 0.8745 0.4000);fill-opacity:1;"/>
</g>
<path fill-rule="evenodd" clip-rule="evenodd" d="M59.8419 13.5617H62.4354L62.4575 13.4807C64.0572 7.54829 64.7136 5.01487 64.9803 3.4451C65.2398 5.0103 65.8629 7.57989 67.3928 13.4794L67.4141 13.5617H70.0637L73.7529 0H71.3395L71.3183 0.0818975C69.7147 6.23876 69.1033 8.73269 68.8267 10.3203C68.5047 8.61338 67.8096 5.79727 66.3088 0.0814818L66.2872 0H63.7661L63.7453 0.0823133C62.1842 6.1789 61.5303 8.78923 61.2508 10.4845C60.945 8.83288 60.2574 6.09451 58.6988 0.0818975L58.6772 0H56.1719L59.8199 13.4807L59.8419 13.5617ZM77.7033 5.34953C79.1313 5.34953 80.2161 6.26204 80.3267 7.53582H75.0286C75.1909 6.26163 76.2961 5.34953 77.7033 5.34953ZM77.8513 13.7492C79.8113 13.7492 81.667 12.6808 82.4086 11.0907L80.6191 10.1811L80.5809 10.1769L80.5476 10.2472C80.3305 10.6974 79.536 11.7446 77.8696 11.7446C76.3564 11.7446 75.205 10.7822 75.0286 9.38953H82.7356L82.738 9.28269C82.7855 7.382 82.2688 5.82263 81.2448 4.77292C80.3563 3.8629 79.1317 3.38191 77.7033 3.38191C76.2931 3.38191 75.0078 3.91279 74.0848 4.87685C73.1714 5.83136 72.6681 7.14795 72.6681 8.58428C72.6681 11.6253 74.7999 13.7492 77.8513 13.7492ZM87.6102 13.7496C90.1334 13.7496 91.7012 12.5773 91.7012 10.6899C91.7012 8.45208 89.6655 7.92369 88.0299 7.49965C86.8997 7.20657 85.9239 6.95298 85.9239 6.23585C85.9239 5.65841 86.5337 5.25516 87.4068 5.25516C88.3614 5.25516 89.0224 5.75902 89.131 6.56968L89.1983 6.98L89.2433 6.97252L91.2494 6.60252C91.2494 4.7222 89.5848 3.40145 87.4251 3.40145C85.2022 3.40145 83.6494 4.62867 83.6494 6.38635C83.6494 8.50945 85.6244 9.03783 87.2117 9.4627C88.3602 9.77034 89.3522 10.0356 89.3522 10.7835C89.3522 11.4349 88.7133 11.8394 87.6842 11.8394C86.448 11.8394 85.6169 11.2644 85.5158 10.3395L85.4975 10.1877L83.372 10.591C83.372 12.6492 85.6785 13.7496 87.6106 13.7496M93.4965 11.7159C93.4965 12.8384 94.2078 13.7492 95.3849 13.7492C96.8449 13.7492 97.2742 13.5617 97.2742 13.5617V11.671C97.2742 11.671 96.8362 11.7429 96.3034 11.7429C95.9589 11.7429 95.7169 11.5355 95.7169 11.2212V5.49961H97.2584L97.2368 3.58936H95.7169V0.751628L93.4965 1.30745V3.58936H92.3376L92.3314 5.49961H93.4965V11.7159ZM110.901 4.85066V3.58936H108.946V13.5617H111.295L111.276 7.46307C111.307 6.84946 111.513 6.37928 111.889 6.06624C112.382 5.65467 113.15 5.51416 114.171 5.64927L114.293 5.66548L114.314 3.58437L114.218 3.57148C112.811 3.37942 111.537 3.80928 110.901 4.85066Z" fill="#F5DF66" style="fill:#F5DF66;fill:color(display-p3 0.9608 0.8745 0.4000);fill-opacity:1;"/>
<mask id="mask1_4422_9726" style="mask-type:luminance" maskUnits="userSpaceOnUse" x="57" y="3" width="68" height="27">
<path d="M57.2354 3.38281H124.656V29.0908H57.2354V3.38281Z" fill="white" style="fill:white;fill-opacity:1;"/>
</mask>
<g mask="url(#mask1_4422_9726)">
<path fill-rule="evenodd" clip-rule="evenodd" d="M120.678 3.38281C119.266 3.38281 117.942 3.94529 117.287 5.01412V3.58984H115.254V13.5622H117.621V8.20938C117.621 6.48952 118.521 5.46268 120.029 5.46268C121.061 5.46268 122.29 5.91291 122.29 8.0593V13.5622H124.657V7.73961C124.657 4.5273 122.602 3.38281 120.678 3.38281ZM65.7538 23.2944C65.7538 25.5991 64.6615 26.8679 62.6787 26.8679C60.7075 26.8679 59.6222 25.5991 59.6222 23.2944V15.3482H57.2363V23.2378C57.2363 26.9074 59.2708 29.0979 62.6787 29.0979C66.0866 29.0979 68.121 26.907 68.121 23.2378V15.3482H65.7538V23.2944Z" fill="#F5DF66" style="fill:#F5DF66;fill:color(display-p3 0.9608 0.8745 0.4000);fill-opacity:1;"/>
</g>
<path fill-rule="evenodd" clip-rule="evenodd" d="M74.9475 18.7295C73.5353 18.7295 72.2122 19.292 71.5571 20.3604V18.9361H69.5234V28.9089H71.8911V23.556C71.8911 21.8362 72.7912 20.8094 74.2994 20.8094C75.3306 20.8094 76.5598 21.2596 76.5598 23.4056V28.9089H78.9265V23.0863C78.9265 19.874 76.8713 18.7295 74.9475 18.7295ZM80.3936 28.9089H82.7425V18.9361H80.3936V28.9089Z" fill="#F5DF66" style="fill:#F5DF66;fill:color(display-p3 0.9608 0.8745 0.4000);fill-opacity:1;"/>
<mask id="mask2_4422_9726" style="mask-type:luminance" maskUnits="userSpaceOnUse" x="80" y="15" width="15" height="15">
<path d="M80.21 15.2617H94.372V29.0904H80.21V15.2617Z" fill="white" style="fill:white;fill-opacity:1;"/>
</mask>
<g mask="url(#mask2_4422_9726)">
<path fill-rule="evenodd" clip-rule="evenodd" d="M81.5794 15.2617C80.8124 15.2617 80.2109 15.8529 80.2109 16.6074C80.2109 17.3391 80.8249 17.9348 81.5794 17.9348C82.324 17.9348 82.93 17.3395 82.93 16.6074C82.9292 16.2501 82.7865 15.9077 82.5332 15.6554C82.28 15.4031 81.937 15.2615 81.5794 15.2617ZM89.0974 26.9427C87.4078 26.9427 86.1333 25.6407 86.1333 23.9142C86.1333 22.1877 87.4078 20.8852 89.0974 20.8852C90.8083 20.8852 92.0986 22.1873 92.0986 23.9142C92.0986 25.6407 90.8083 26.9427 89.0974 26.9427ZM89.0974 18.7305C87.6362 18.7305 86.3005 19.2547 85.3359 20.2063C84.3709 21.1583 83.8402 22.4749 83.8402 23.9142C83.8402 26.9178 86.0514 29.0978 89.0974 29.0978C92.1547 29.0978 94.373 26.9178 94.373 23.9138C94.373 22.4741 93.8414 21.1575 92.8756 20.2068C91.908 19.2547 90.5666 18.7305 89.0974 18.7305Z" fill="#F5DF66" style="fill:#F5DF66;fill:color(display-p3 0.9608 0.8745 0.4000);fill-opacity:1;"/>
</g>
<path fill-rule="evenodd" clip-rule="evenodd" d="M100.906 18.7309C99.4939 18.7309 98.1707 19.2934 97.516 20.3618V18.9375H95.4824V28.9103H97.8492V23.5575C97.8492 21.8376 98.7498 20.8108 100.258 20.8108C101.29 20.8108 102.519 21.261 102.519 23.407V28.9103H104.886V23.0877C104.886 19.8754 102.83 18.7309 100.906 18.7309ZM100.224 7.53589C100.386 6.26212 101.491 5.35002 102.899 5.35002C104.326 5.35002 105.411 6.26253 105.522 7.53631L100.224 7.53589ZM102.899 3.38281C101.488 3.38281 100.203 3.91369 99.2797 4.87776C98.3662 5.83226 97.8629 7.14886 97.8629 8.58518C97.8629 11.6262 99.9947 13.7501 103.046 13.7501C105.007 13.7501 106.862 12.6817 107.604 11.0916L105.814 10.182L105.776 10.1778L105.742 10.2481C105.525 10.6983 104.731 11.7455 103.065 11.7455C101.551 11.7455 100.4 10.7831 100.224 9.39044H107.93L107.933 9.2836C107.98 7.38291 107.464 5.82353 106.44 4.77382C105.551 3.86381 104.327 3.38281 102.899 3.38281Z" fill="#F5DF66" style="fill:#F5DF66;fill:color(display-p3 0.9608 0.8745 0.4000);fill-opacity:1;"/>
</svg>
