<?xml version="1.0" encoding="UTF-8"?><svg id="Layer_2" xmlns="http://www.w3.org/2000/svg" viewBox="0 0 644.14 143.07"><defs><style>.cls-1{fill:#fff;}.cls-2{fill:#fd0;}</style></defs><g><path class="cls-2" d="M90.65,96.7c5.38,9.29,14.17,9.29,19.55,0l3.01-5.2-26.91-46.6h-25.54l29.9,51.8Z"/><path class="cls-2" d="M147.32,76.79c-1.96,3.39-6.59,3.38-8.55,0l-18.43-31.88h-25.53l29.93,51.81c5.38,9.29,14.15,9.29,19.53,0l20.03-34.7-9.86-17.11h-25.52l18.41,31.89Z"/></g><g><path class="cls-1" d="M191.64,96.92h8.71l.07-.27c5.38-19.94,7.58-28.46,8.48-33.74,.87,5.26,2.97,13.9,8.11,33.73l.07,.28h8.9l12.39-45.59h-8.11l-.07,.28c-5.39,20.7-7.44,29.08-8.37,34.42-1.08-5.74-3.42-15.21-8.46-34.42l-.07-.27h-8.47l-.07,.28c-5.24,20.5-7.44,29.27-8.38,34.97-1.03-5.55-3.34-14.76-8.58-34.97l-.07-.28h-8.42l12.26,45.32,.07,.27Z"/><path class="cls-1" d="M252.15,97.55c6.59,0,12.82-3.59,15.31-8.94l-6.01-3.06h-.13s-.11,.22-.11,.22c-.73,1.51-3.4,5.04-9,5.04-5.08,0-8.95-3.24-9.54-7.92h25.89v-.36c.17-6.39-1.57-11.63-5.01-15.16-2.98-3.06-7.1-4.68-11.9-4.68s-9.06,1.78-12.16,5.03c-3.07,3.21-4.76,7.63-4.76,12.46,0,10.22,7.16,17.36,17.41,17.36Zm-.5-28.24c4.8,0,8.44,3.07,8.81,7.35h-17.8c.54-4.28,4.26-7.35,8.99-7.35Z"/><path class="cls-1" d="M284.94,97.55c8.48,0,13.74-3.94,13.74-10.29,0-7.52-6.84-9.3-12.33-10.72-3.8-.99-7.08-1.84-7.08-4.25,0-1.94,2.05-3.3,4.98-3.3,3.21,0,5.43,1.69,5.79,4.42l.23,1.38,.15-.03,6.74-1.24c0-6.32-5.59-10.76-12.85-10.76s-12.69,4.13-12.69,10.03c0,7.14,6.64,8.91,11.97,10.34,3.86,1.03,7.19,1.93,7.19,4.44,0,2.19-2.15,3.55-5.6,3.55-4.15,0-6.95-1.93-7.29-5.04l-.06-.51-7.14,1.36c0,6.92,7.75,10.62,14.24,10.62Z"/><path class="cls-1" d="M304.72,90.71c0,3.77,2.39,6.84,6.34,6.84,4.91,0,6.35-.63,6.35-.63v-6.36s-1.47,.24-3.26,.24c-1.16,0-1.97-.7-1.97-1.75v-19.23h5.18l-.07-6.42h-5.11v-9.54l-7.46,1.87v7.67h-3.89l-.02,6.42h3.91v20.9Z"/><path class="cls-1" d="M363.2,67.63v-4.24h-6.57v33.53h7.89l-.06-20.5c.1-2.06,.79-3.64,2.06-4.7,1.66-1.38,4.24-1.85,7.67-1.4l.41,.05,.07-7-.32-.04c-4.73-.65-9.01,.8-11.15,4.3Z"/><path class="cls-1" d="M396.07,62.7c-4.74,0-9.19,1.89-11.39,5.48v-4.79h-6.83v33.53h7.95v-17.99c0-5.78,3.03-9.23,8.09-9.23,3.46,0,7.6,1.51,7.6,8.73v18.5h7.95v-19.57c0-10.8-6.91-14.65-13.37-14.65Z"/><path class="cls-1" d="M452.19,78.04c0,7.75-3.67,12.01-10.33,12.01s-10.27-4.27-10.27-12.01v-26.71h-8.02v26.52c0,12.34,6.84,19.7,18.29,19.7s18.29-7.36,18.29-19.7v-26.52h-7.95v26.71Z"/><path class="cls-1" d="M483.11,62.7c-4.74,0-9.19,1.89-11.39,5.48v-4.79h-6.83v33.53h7.95v-17.99c0-5.78,3.03-9.23,8.09-9.23,3.46,0,7.59,1.51,7.59,8.73v18.5h7.95v-19.57c0-10.8-6.91-14.65-13.37-14.65Z"/><rect class="cls-1" x="501.41" y="63.39" width="7.89" height="33.53"/><path class="cls-1" d="M505.38,51.03c-2.58,0-4.6,1.99-4.6,4.52s2.06,4.46,4.6,4.46,4.54-2,4.54-4.46-2.04-4.52-4.54-4.52Z"/><path class="cls-1" d="M530.64,62.7c-4.91,0-9.4,1.76-12.64,4.96-3.24,3.2-5.02,7.63-5.02,12.46,0,10.1,7.43,17.43,17.66,17.43s17.73-7.33,17.73-17.43c0-4.84-1.79-9.27-5.03-12.46-3.25-3.2-7.76-4.96-12.69-4.96Zm0,27.61c-5.68,0-9.96-4.38-9.96-10.18s4.28-10.18,9.96-10.18,10.08,4.38,10.08,10.18-4.33,10.18-10.08,10.18Z"/><path class="cls-1" d="M570.28,62.7c-4.74,0-9.19,1.89-11.39,5.48v-4.79h-6.83v33.53h7.95v-17.99c0-5.78,3.03-9.23,8.09-9.23,3.46,0,7.59,1.51,7.59,8.73v18.5h7.95v-19.57c0-10.8-6.91-14.65-13.37-14.65Z"/><path class="cls-1" d="M336.31,62.7c-4.74,0-9.06,1.78-12.16,5.03-3.07,3.21-4.76,7.63-4.76,12.46,0,10.22,7.16,17.36,17.41,17.36,6.59,0,12.82-3.59,15.31-8.94l-6.01-3.06h-.13s-.11,.22-.11,.22c-.73,1.51-3.4,5.04-9,5.04-5.08,0-8.95-3.24-9.54-7.92h25.89v-.36c.17-6.39-1.57-11.63-5.01-15.16-2.98-3.06-7.1-4.68-11.9-4.68Zm-8.99,13.96c.54-4.28,4.26-7.35,8.99-7.35s8.44,3.07,8.81,7.35h-17.8Z"/></g></svg>