<svg preserveAspectRatio="none" width="112" height="40" overflow="visible" style="display: block;" viewBox="0 0 112 40" fill="none" xmlns="http://www.w3.org/2000/svg">
<g id="Layer_1" clip-path="url(#clip0_4467_1194)">
<path id="Vector" d="M28.9639 5.66403C25.1518 5.66403 22.1514 8.77749 22.1514 12.7705C22.1514 16.7634 25.1341 19.7713 28.9639 19.7713C32.7937 19.7713 35.7764 16.6931 35.7764 12.7705C35.7764 8.84785 32.7937 5.66403 28.9639 5.66403ZM28.9639 16.9041C26.9343 16.9041 25.4165 15.1275 25.4165 12.7529C25.4165 10.3782 26.952 8.51364 28.9639 8.51364C30.9759 8.51364 32.5467 10.343 32.5467 12.7529C32.5467 15.1627 31.0112 16.9041 28.9639 16.9041ZM52.2958 0H49.7544C49.5426 0 49.3661 0.175902 49.3661 0.386983V18.9974C49.3661 19.2084 49.5426 19.3843 49.7544 19.3843H52.2958C52.5076 19.3843 52.6841 19.2084 52.6841 18.9974V0.386983C52.6841 0.175902 52.5076 0 52.2958 0ZM46.7893 5.99824C46.1893 5.87511 45.2009 5.64644 43.7008 5.64644C41.0711 5.64644 38.4414 6.45559 38.4414 10.5893V18.9622C38.4414 19.1733 38.6179 19.3492 38.8297 19.3492H41.3711C41.5829 19.3492 41.7594 19.1733 41.7594 18.9622V10.6596C41.7594 10.0616 41.8653 8.54881 44.142 8.54881C46.4187 8.54881 45.9951 8.70713 46.1893 8.72472C46.3834 8.7599 46.5599 8.67195 46.6128 8.47845L47.16 6.42041C47.2306 6.19173 47.0717 6.03342 46.807 5.96306L46.7893 5.99824ZM20.6513 6.0686H17.9334C17.7569 6.0686 17.6157 6.17414 17.5804 6.35005L15.0036 15.4442L12.6387 7.35268C12.4269 6.59631 11.7386 6.0686 10.9444 6.0686H10.1149C9.32069 6.0686 8.63238 6.59631 8.42059 7.35268L6.05564 15.4442L3.47889 6.35005C3.4436 6.19173 3.28476 6.0686 3.12592 6.0686H0.390333C0.143248 6.0686 -0.0508896 6.31487 0.019706 6.56113L3.72598 18.1354C3.95541 18.8742 4.64372 19.3668 5.42027 19.3668H6.51451C7.29106 19.3668 7.99702 18.8391 8.22645 18.1003L10.5208 10.3606L12.8152 18.1003C13.0446 18.8391 13.7329 19.3668 14.5271 19.3668H15.6213C16.3979 19.3668 17.0862 18.8742 17.3156 18.1354L21.0219 6.56113C21.0925 6.31487 20.916 6.0686 20.6513 6.0686ZM111.614 6.0686H109.019C109.019 6.0686 108.719 6.0686 108.613 6.31487L105.048 15.6904L101.483 6.29728C101.43 6.15655 101.272 6.0686 101.113 6.0686H98.5183C98.1653 6.0686 98.0418 6.36764 98.13 6.57872L103.336 19.5954L101.236 24.8901C101.13 25.1539 101.236 25.4178 101.589 25.4178H104.148C104.307 25.4178 104.448 25.3298 104.501 25.1715L111.949 6.59631C112.09 6.27969 111.861 6.05101 111.596 6.05101L111.614 6.0686ZM67.2444 0H64.703C64.4912 0 64.3147 0.175902 64.3147 0.386983V5.96306C63.8205 5.85752 62.9381 5.66403 61.5262 5.66403C56.4609 5.66403 55.402 10.2023 55.402 12.6825C55.402 18.1706 58.7024 19.7713 61.8086 19.7713C64.9148 19.7713 66.2384 19.1381 67.1032 18.7687C67.6151 18.54 67.6151 18.241 67.6151 17.9771V0.386983C67.6151 0.175902 67.4386 0 67.2268 0H67.2444ZM64.3147 16.6051C64.3147 16.6051 63.3087 16.9041 62.1792 16.9041C59.5142 16.9041 58.8788 15.022 58.8788 12.8056C58.8788 10.5893 58.7906 8.54881 62.0557 8.54881C65.3207 8.54881 64.3147 8.84785 64.3147 8.84785V16.6051ZM91.2117 5.66403C88.9526 5.66403 87.6819 5.96306 86.4641 6.29728C86.1288 6.38523 86.0052 6.6139 86.0935 6.98329L86.4818 8.51364C86.5347 8.74231 86.7288 9.04134 87.0995 8.9358C87.8937 8.74231 89.1114 8.35532 90.8763 8.35532C92.6412 8.35532 93.1177 9.02375 93.1177 10.5893H90.9116C86.2347 10.5893 84.9286 13.0519 84.9286 15.0572C84.9286 17.0624 86.1641 19.7362 90.5586 19.7362C94.9532 19.7362 95.518 18.9094 95.8886 18.7159C96.1887 18.5576 96.3651 18.4345 96.3651 17.9244V10.2551C96.3651 6.7898 94.3002 5.62885 91.194 5.62885L91.2117 5.66403ZM93.0825 16.8162C93.0825 16.8162 92.0588 17.1504 90.6822 17.1504C89.3056 17.1504 88.229 16.2005 88.229 15.2155C88.229 14.2304 89.0585 13.1398 90.8763 13.1398H93.0825V16.8162ZM76.5278 5.66403C73.8981 5.66403 72.0979 6.29728 71.2331 6.66667C70.7213 6.89534 70.7213 7.19437 70.7213 7.45823V25.0484C70.7213 25.2595 70.8978 25.4354 71.1095 25.4354H73.651C73.8628 25.4354 74.0393 25.2595 74.0393 25.0484V19.4723C74.5334 19.5778 75.4159 19.7713 76.8278 19.7713C81.893 19.7713 82.952 15.2331 82.952 12.7529C82.952 7.26473 79.6516 5.66403 76.5454 5.66403H76.5278ZM76.2807 16.869C75.1688 16.869 74.0216 16.5699 74.0216 16.5699V8.81267C74.0216 8.81267 75.0276 8.51364 76.1571 8.51364C78.8221 8.51364 79.4575 10.3958 79.4575 12.6121C79.4575 14.8285 79.5457 16.869 76.2807 16.869Z" fill="var(--fill-0, #FF1F3E)" style="fill:#FF1F3E;fill:color(display-p3 1.0000 0.1216 0.2431);fill-opacity:1;"/>
<g id="Group">
<path id="Vector_2" d="M3.79452 32.1372C3.75922 32.102 3.72392 32.0492 3.72392 31.9789C3.72392 31.9085 3.74157 31.8558 3.79452 31.8206C3.82982 31.7854 3.88276 31.7678 3.95336 31.7678C4.02395 31.7678 4.05925 31.7854 4.1122 31.8206C4.1475 31.8558 4.18279 31.9085 4.18279 31.9789C4.18279 32.0492 4.16514 32.102 4.1122 32.1372C4.0769 32.1724 4.02395 32.19 3.95336 32.19C3.88276 32.19 3.84746 32.1724 3.79452 32.1372ZM3.77687 35.9367V32.8584H4.09455V35.9367H3.77687Z" fill="var(--fill-0, white)" style="fill:white;fill-opacity:1;"/>
<path id="Vector_3" d="M5.01229 34.9868C5.01229 35.2155 5.11819 35.3914 5.29467 35.5145C5.47116 35.6376 5.71825 35.708 6.00063 35.708C6.28301 35.708 6.47715 35.6552 6.63599 35.5497C6.81248 35.4442 6.88308 35.3034 6.88308 35.1099C6.88308 34.9164 6.84778 34.8637 6.75953 34.7757C6.67129 34.7054 6.58304 34.635 6.4595 34.5998C6.33596 34.5646 6.15947 34.5295 5.94768 34.4943C5.68295 34.4591 5.47116 34.4063 5.31232 34.3712C5.15348 34.3184 5.01229 34.248 4.9064 34.1425C4.8005 34.0369 4.74756 33.8786 4.74756 33.6851C4.74756 33.4916 4.8005 33.3685 4.88875 33.2278C4.99464 33.0871 5.11819 32.9991 5.31232 32.9112C5.48881 32.8408 5.68295 32.8056 5.91239 32.8056C6.26536 32.8056 6.54775 32.876 6.77718 33.0343C7.00662 33.1926 7.13016 33.4213 7.14781 33.7027H6.83013C6.79483 33.5092 6.70659 33.3509 6.54775 33.2278C6.38891 33.1223 6.17712 33.0519 5.93003 33.0519C5.68295 33.0519 5.45351 33.1047 5.29467 33.2102C5.13583 33.3157 5.06524 33.4565 5.06524 33.6324C5.06524 33.8083 5.10054 33.861 5.18878 33.949C5.25938 34.0194 5.36527 34.0721 5.48881 34.1073C5.61235 34.1425 5.7712 34.1601 5.98298 34.1953C6.24772 34.2304 6.47715 34.2832 6.63599 34.336C6.81248 34.3887 6.95367 34.4767 7.05957 34.5998C7.16546 34.723 7.21841 34.8813 7.21841 35.0748C7.21841 35.2683 7.09486 35.5497 6.86543 35.7256C6.63599 35.9015 6.35361 35.9719 6.00063 35.9719C5.64765 35.9719 5.29467 35.8839 5.04759 35.708C4.81815 35.5321 4.69461 35.2858 4.67696 34.9692H4.99464L5.01229 34.9868Z" fill="var(--fill-0, white)" style="fill:white;fill-opacity:1;"/>
<path id="Vector_4" d="M11.7718 33.1574C12.0013 33.3861 12.1072 33.7379 12.1072 34.2128V35.9367H11.7895V34.2128C11.7895 33.8435 11.7012 33.5796 11.5424 33.3861C11.3659 33.1926 11.1365 33.1047 10.8364 33.1047C10.5364 33.1047 10.254 33.2278 10.0599 33.4565C9.86574 33.6851 9.7775 34.0194 9.7775 34.4239V35.9543H9.45982V32.876H9.72455L9.7775 33.5268C9.86574 33.3157 10.0069 33.1398 10.2011 33.0167C10.3952 32.8936 10.6246 32.8232 10.8894 32.8232C11.1541 32.8232 11.56 32.9464 11.7718 33.175V33.1574Z" fill="var(--fill-0, white)" style="fill:white;fill-opacity:1;"/>
<path id="Vector_5" d="M13.3426 35.7784C13.1131 35.6376 12.9367 35.4617 12.8131 35.2155C12.6896 34.9692 12.619 34.7054 12.619 34.3887C12.619 34.0721 12.6896 33.8083 12.8131 33.562C12.9367 33.3333 13.1131 33.1398 13.3426 32.9991C13.572 32.8584 13.8191 32.8056 14.1191 32.8056C14.4192 32.8056 14.6663 32.876 14.8957 32.9991C15.1251 33.1398 15.3016 33.3157 15.4252 33.562C15.5487 33.8083 15.6193 34.0721 15.6193 34.3887C15.6193 34.7054 15.5487 34.9692 15.4252 35.2155C15.3016 35.4617 15.1251 35.6376 14.8957 35.7784C14.6663 35.9191 14.4192 35.9719 14.1191 35.9719C13.8191 35.9719 13.572 35.9015 13.3426 35.7784ZM14.7192 35.5321C14.8957 35.4266 15.0369 35.2683 15.1251 35.0748C15.231 34.8813 15.2663 34.6526 15.2663 34.4063C15.2663 34.1601 15.2134 33.9314 15.1251 33.7379C15.0192 33.5444 14.8957 33.3861 14.7192 33.2806C14.5427 33.175 14.3309 33.1047 14.1191 33.1047C13.9073 33.1047 13.6956 33.1574 13.5191 33.2806C13.3426 33.3861 13.2014 33.5444 13.1131 33.7379C13.0073 33.9314 12.972 34.1601 12.972 34.4063C12.972 34.6526 13.0249 34.8813 13.1131 35.0748C13.219 35.2683 13.3426 35.4266 13.5191 35.5321C13.6956 35.6376 13.9073 35.6904 14.1191 35.6904C14.3309 35.6904 14.5427 35.6376 14.7192 35.5321Z" fill="var(--fill-0, white)" style="fill:white;fill-opacity:1;"/>
<path id="Vector_6" d="M16.8724 35.9367L15.8134 32.8584H16.1488L17.0489 35.5673L17.9842 32.8584H18.2666L19.1491 35.5673L20.1021 32.8584H20.4198L19.3256 35.9367H18.9902L18.1254 33.3509L17.2077 35.9367H16.8724Z" fill="var(--fill-0, white)" style="fill:white;fill-opacity:1;"/>
</g>
<g id="Group_2">
<path id="Vector_7" d="M31.3621 29.7273C29.0854 28.9006 26.5793 30.0616 25.7498 32.3307C25.6086 32.7353 25.5203 33.175 25.485 33.6148C25.4321 34.547 25.6792 35.4617 26.191 36.2357C26.4028 36.5523 26.2969 36.9745 25.9792 37.1856C25.6615 37.3791 25.2556 37.3087 25.0438 36.9921C23.2436 34.3008 23.9672 30.6596 26.6675 28.8654C27.1617 28.5312 27.7088 28.285 28.2736 28.1091C29.4737 27.7572 30.7444 27.7924 31.9269 28.197C32.3504 28.3553 32.5622 28.8302 32.421 29.2524C32.2622 29.657 31.821 29.8857 31.3974 29.7449" fill="url(#paint0_linear_4467_1194)"/>
<path id="Vector_8" d="M100.758 34.8461C100.793 35.4969 101.358 35.9719 102.293 35.9719C103.228 35.9719 103.617 35.6376 103.617 35.1275C103.617 34.6174 103.017 34.3887 102.187 34.2832C100.952 34.1249 99.9635 33.8786 99.9635 32.7353C99.9635 31.5919 100.881 31.0642 102.134 31.0818C103.387 31.0818 104.305 31.6799 104.393 32.8232H103.476C103.405 32.2603 102.893 31.8382 102.134 31.8382C101.375 31.8382 100.846 32.1548 100.846 32.6649C100.846 33.175 101.428 33.3509 102.24 33.4389C103.493 33.5972 104.499 33.8259 104.499 35.0396C104.499 36.2533 103.511 36.7106 102.293 36.7106C101.075 36.7106 99.8752 36.0422 99.8576 34.8285H100.775L100.758 34.8461Z" fill="var(--fill-0, white)" style="fill:white;fill-opacity:1;"/>
<path id="Vector_9" d="M97.0161 31.9789H96.0277V31.1697H97.0161V29.6218H97.8985V31.1697H98.9575L99.2575 31.9789H97.8985V35.2155C97.8985 35.6728 98.0574 35.8487 98.5339 35.8487H98.9575L99.2575 36.6579H98.4456C97.3867 36.6579 96.9984 36.2005 96.9984 35.2155V31.9789H97.0161Z" fill="var(--fill-0, white)" style="fill:white;fill-opacity:1;"/>
<path id="Vector_10" d="M95.5865 33.5972V36.6579H94.7041V33.65C94.7041 32.5066 94.1746 31.9085 93.2039 31.9085C92.2332 31.9085 91.5273 32.6825 91.5273 33.9138V36.6579H90.6448V31.1522H91.4214L91.5449 31.8909C91.8626 31.4688 92.4274 31.0818 93.3627 31.0818C94.2981 31.0818 95.5865 31.7678 95.5865 33.5796V33.5972Z" fill="var(--fill-0, white)" style="fill:white;fill-opacity:1;"/>
<path id="Vector_11" d="M84.6089 33.9138C84.6089 32.2427 85.6678 31.0994 87.2386 31.0994C88.8093 31.0994 89.8153 32.0844 89.8683 33.7203C89.8683 33.8434 89.8683 33.9666 89.8506 34.0897H85.5619V34.1601C85.5972 35.2155 86.2503 35.9367 87.3092 35.9367C88.3681 35.9367 88.7035 35.5321 88.8799 34.8109H89.78C89.5683 35.9191 88.6505 36.7282 87.3798 36.7282C86.1091 36.7282 84.6442 35.6025 84.6442 33.9138H84.6089ZM88.8976 33.3509C88.8094 32.4011 88.1563 31.8734 87.2386 31.8734C86.3209 31.8734 85.6855 32.4538 85.5972 33.3509H88.8976Z" fill="var(--fill-0, white)" style="fill:white;fill-opacity:1;"/>
<path id="Vector_12" d="M83.7617 33.5092V36.6755H82.8793V33.562C82.8793 32.489 82.4028 31.9261 81.5733 31.9261C80.7438 31.9261 80.0907 32.6121 80.0907 33.7379V36.6931H79.2083V33.5796C79.2083 32.5066 78.7141 31.9437 77.8846 31.9437C77.0551 31.9437 76.4198 32.7001 76.4198 33.8083V36.7106H75.5373V31.2049H76.3139L76.4374 31.9613C76.7375 31.5567 77.1963 31.1346 78.0435 31.1346C78.8906 31.1346 79.473 31.4864 79.7907 32.19C80.126 31.5919 80.7261 31.1346 81.7144 31.1346C82.7028 31.1346 83.797 31.7854 83.797 33.5268L83.7617 33.5092Z" fill="var(--fill-0, white)" style="fill:white;fill-opacity:1;"/>
<path id="Vector_13" d="M69.6249 31.1697H70.5603L72.2546 35.5673L73.896 31.1697H74.8314L72.0958 38.0651C71.7428 38.9446 71.5487 39.2964 70.7721 39.2964H69.9779V38.4873H70.5074C71.0192 38.4873 71.1075 38.3641 71.3016 37.8364L71.7605 36.6931L69.6073 31.1522L69.6249 31.1697Z" fill="var(--fill-0, white)" style="fill:white;fill-opacity:1;"/>
<path id="Vector_14" d="M69.9956 35.8487V36.6579H69.5544C68.8131 36.6579 68.566 36.3413 68.566 35.8135C68.2131 36.3061 67.666 36.7282 66.7129 36.7282C65.7599 36.7282 64.6833 36.1302 64.6833 35.1275C64.6833 34.1249 65.4598 33.4037 66.9071 33.4037H68.5307V33.0343C68.5307 32.3131 68.0189 31.8909 67.1541 31.8909C66.2893 31.8909 65.8481 32.2603 65.7422 32.8232H64.8598C64.9833 31.7502 65.8658 31.0994 67.2071 31.0994C68.5484 31.0994 69.4308 31.803 69.4308 33.0871V35.4969C69.4308 35.796 69.5367 35.8663 69.7838 35.8663H70.0309L69.9956 35.8487ZM68.5131 34.1425H66.8012C66.007 34.1425 65.5657 34.4415 65.5657 35.0572C65.5657 35.6728 66.0246 35.9719 66.7659 35.9719C67.8777 35.9719 68.5131 35.3386 68.5131 34.4239V34.1601V34.1425Z" fill="var(--fill-0, white)" style="fill:white;fill-opacity:1;"/>
<path id="Vector_15" d="M64.0832 33.9314C64.0832 35.6201 62.9537 36.7458 61.4359 36.7458C59.9181 36.7458 59.8828 36.3764 59.5474 35.8311V39.314H58.665V31.1697H59.4415L59.5651 32.0493C59.9357 31.5391 60.5358 31.0994 61.4535 31.0994C62.989 31.0994 64.1009 32.1196 64.1009 33.9138L64.0832 33.9314ZM63.1655 33.9314C63.1655 32.7353 62.4242 31.9085 61.33 31.9085C60.2357 31.9085 59.5121 32.7353 59.5121 33.9138C59.5121 35.0923 60.2534 35.9719 61.33 35.9719C62.4066 35.9719 63.1655 35.1451 63.1655 33.949V33.9314Z" fill="var(--fill-0, white)" style="fill:white;fill-opacity:1;"/>
<path id="Vector_16" d="M57.0236 29.1293H55.4882V36.6931H57.0236V29.1293Z" fill="var(--fill-0, white)" style="fill:white;fill-opacity:1;"/>
<path id="Vector_17" d="M54.6587 35.409V36.6931H53.8821C53.0879 36.6931 52.8408 36.3061 52.8585 35.7784C52.4702 36.394 51.9055 36.7458 51.0407 36.7458C50.1759 36.7458 48.9757 36.1654 48.9757 35.1099C48.9757 34.0545 49.8582 33.263 51.5348 33.263H52.6467V32.9991C52.6467 32.5066 52.2937 32.1724 51.6584 32.1724C51.023 32.1724 50.6524 32.4362 50.5994 32.8584H49.1169C49.2228 31.7854 50.2288 31.0642 51.6937 31.0642C53.1585 31.0642 54.1469 31.7502 54.1469 33.0871V35.0572C54.1469 35.3562 54.2704 35.409 54.4998 35.409H54.6763H54.6587ZM52.6114 34.3008H51.4995C50.8642 34.3008 50.4935 34.5646 50.4935 35.022C50.4935 35.4793 50.8112 35.6552 51.323 35.6552C52.1172 35.6552 52.6114 35.1627 52.6291 34.4063V34.3008H52.6114Z" fill="var(--fill-0, white)" style="fill:white;fill-opacity:1;"/>
<path id="Vector_18" d="M48.358 33.9138C48.358 35.6376 47.2815 36.7634 45.7636 36.7634C45.093 36.781 44.4576 36.482 44.0517 35.9367L43.8929 36.6931H42.5515V29.1293H44.087V31.8382C44.4929 31.3281 45.1106 31.0466 45.7636 31.0642C47.2638 31.0642 48.3404 32.1372 48.3404 33.8962M46.8049 33.9138C46.8049 32.9639 46.2578 32.3131 45.4283 32.3131C44.5988 32.3131 44.0693 32.9639 44.0693 33.8962C44.0693 34.8285 44.5812 35.5145 45.4283 35.5145C46.2755 35.5145 46.8049 34.8637 46.8049 33.9138Z" fill="var(--fill-0, white)" style="fill:white;fill-opacity:1;"/>
<path id="Vector_19" d="M35.8802 33.9138C35.8802 32.2076 37.0451 31.0642 38.8276 31.0642C40.6101 31.0642 41.775 32.2076 41.775 33.9138C41.775 35.6201 40.6101 36.7634 38.8276 36.7634C37.0451 36.7634 35.8802 35.6201 35.8802 33.9138ZM40.2042 33.9138C40.2042 32.9815 39.6748 32.3131 38.81 32.3131C37.9452 32.3131 37.4333 32.9639 37.4333 33.9138C37.4333 34.8637 37.9628 35.5145 38.81 35.5145C39.6571 35.5145 40.2042 34.8637 40.2042 33.9138Z" fill="var(--fill-0, white)" style="fill:white;fill-opacity:1;"/>
<path id="Vector_20" d="M35.0684 29.1293H33.5329V36.6931H35.0684V29.1293Z" fill="var(--fill-0, white)" style="fill:white;fill-opacity:1;"/>
<path id="Vector_21" d="M29.862 36.7282C29.3854 36.781 28.9442 36.6579 28.7677 36.5172C28.7148 36.4644 28.6795 36.394 28.6618 36.3237C28.6442 36.2181 28.6618 36.1126 28.7501 36.0422C28.9089 35.9367 29.1207 35.9015 29.3148 35.9367C29.4737 35.9543 29.6502 35.9719 29.809 35.9719C31.4857 35.9719 32.5622 34.9692 32.5622 33.4037C32.5622 31.8382 31.4857 30.8355 29.809 30.8355C28.1324 30.8355 27.0558 31.8558 27.0558 33.4037C27.0558 34.9516 27.3911 34.9692 27.9735 35.4266C27.6911 35.6025 27.4794 35.8487 27.3558 36.1654C27.2499 36.5172 27.3558 36.8865 27.6382 37.1328L27.7088 37.2032L27.6205 37.2383C26.9852 37.555 26.6675 38.0123 26.7558 38.5048C26.7558 38.5576 26.7734 38.6104 26.7911 38.6456C27.0734 39.6306 28.5206 40.0352 29.9326 40C30.7444 39.9824 32.9858 39.6306 33.0035 38.241C33.0388 36.3412 30.8503 36.6403 29.9855 36.7282H29.862ZM29.7914 32.0668C30.4797 32.0668 30.9209 32.577 30.9209 33.4037C30.9209 34.2304 30.4973 34.7405 29.7914 34.7405C29.0854 34.7405 28.6618 34.2304 28.6618 33.4037C28.6618 32.577 29.0854 32.0668 29.7914 32.0668ZM28.7501 37.7485C28.7854 37.7485 28.8207 37.7485 28.8736 37.7309C29.809 37.5902 31.0974 37.4494 31.468 37.854C31.5739 37.9595 31.5916 38.1179 31.5386 38.2586C31.4327 38.6456 30.6032 38.8039 29.8443 38.8039C29.6325 38.8039 29.4384 38.8039 29.2266 38.7687C28.6089 38.6807 28.2559 38.5048 28.2559 38.2234C28.2559 37.9595 28.5912 37.7485 28.7324 37.7309" fill="var(--fill-0, white)" style="fill:white;fill-opacity:1;"/>
<path id="Vector_22" d="M32.827 29.0941C32.827 29.5866 32.4211 29.9912 31.9269 29.9912C31.4327 29.9912 31.0268 29.5866 31.0268 29.0941C31.0268 28.6016 31.4327 28.197 31.9269 28.197C32.4211 28.197 32.827 28.6016 32.827 29.0941Z" fill="var(--fill-0, white)" style="fill:white;fill-opacity:1;"/>
</g>
</g>
<defs>
<linearGradient id="paint0_linear_4467_1194" x1="27.1264" y1="32.6473" x2="32.84" y2="30.5241" gradientUnits="userSpaceOnUse">
<stop style="stop-color:black;stop-opacity:1;"/>
<stop offset="0.9" stop-opacity="0" style="stop-color:none;stop-opacity:0;"/>
</linearGradient>
<clipPath id="clip0_4467_1194">
<rect width="112" height="40" fill="white" style="fill:white;fill-opacity:1;"/>
</clipPath>
</defs>
</svg>
