<?xml version="1.0" encoding="UTF-8" standalone="no"?>
<!-- Created with Inkscape (http://www.inkscape.org/) -->

<svg
   xmlns:dc="http://purl.org/dc/elements/1.1/"
   xmlns:cc="http://creativecommons.org/ns#"
   xmlns:rdf="http://www.w3.org/1999/02/22-rdf-syntax-ns#"
   xmlns:svg="http://www.w3.org/2000/svg"
   xmlns="http://www.w3.org/2000/svg"
   xmlns:sodipodi="http://sodipodi.sourceforge.net/DTD/sodipodi-0.dtd"
   xmlns:inkscape="http://www.inkscape.org/namespaces/inkscape"
   width="52.98975"
   height="12.84221"
   viewBox="0 0 14.020204 3.3978348"
   version="1.1"
   id="svg20670"
   inkscape:version="0.92.4 (5da689c313, 2019-01-14)"
   sodipodi:docname="worldpay.svg">
  <defs
     id="defs20664" />
  <sodipodi:namedview
     id="base"
     pagecolor="#ffffff"
     bordercolor="#666666"
     borderopacity="1.0"
     inkscape:pageopacity="0.0"
     inkscape:pageshadow="2"
     inkscape:zoom="32.59878"
     inkscape:cx="26.994875"
     inkscape:cy="6.4211049"
     inkscape:document-units="mm"
     inkscape:current-layer="layer1"
     showgrid="false"
     units="px"
     fit-margin-top="0"
     fit-margin-left="0"
     fit-margin-right="0"
     fit-margin-bottom="0"
     inkscape:window-width="1920"
     inkscape:window-height="1001"
     inkscape:window-x="-9"
     inkscape:window-y="-9"
     inkscape:window-maximized="1" />
  <metadata
     id="metadata20667">
    <rdf:RDF>
      <cc:Work
         rdf:about="">
        <dc:format>image/svg+xml</dc:format>
        <dc:type
           rdf:resource="http://purl.org/dc/dcmitype/StillImage" />
        <dc:title></dc:title>
      </cc:Work>
    </rdf:RDF>
  </metadata>
  <g
     inkscape:label="Layer 1"
     inkscape:groupmode="layer"
     id="layer1"
     transform="translate(-98.955521,-147.00213)">
    <path
       d="m 102.64375,147.83166 c -0.469,0 -0.83627,0.38441 -0.83627,0.87525 0,0.49084 0.36727,0.8633 0.83627,0.8633 0.46901,0 0.83628,-0.37932 0.83628,-0.8633 0,-0.48399 -0.36727,-0.87525 -0.83628,-0.87525 z m 0,1.38586 c -0.24889,0 -0.43639,-0.21942 -0.43639,-0.51042 0,-0.291 0.18769,-0.52236 0.43639,-0.52236 0.2487,0 0.43944,0.22451 0.43944,0.52236 0,0.29785 -0.18897,0.51042 -0.43944,0.51042 z m 2.86671,-2.0831 h -0.31235 c -0.0258,0 -0.0467,0.0209 -0.0467,0.0467 v 2.29235 c 0,0.0257 0.021,0.0467 0.0467,0.0467 h 0.31235 c 0.0258,0 0.0467,-0.0209 0.0467,-0.0467 v -2.29235 c 0,-0.0257 -0.0209,-0.0467 -0.0467,-0.0467 z m -0.67668,0.73973 c -0.0738,-0.0152 -0.19583,-0.0423 -0.38039,-0.0423 -0.32233,0 -0.64613,0.0998 -0.64613,0.60931 v 1.03249 c 0,0.0258 0.0209,0.0467 0.0467,0.0467 h 0.31264 c 0.0258,0 0.0467,-0.0209 0.0467,-0.0467 v -1.02348 c 0,-0.0745 0.013,-0.26035 0.29208,-0.26035 0.11593,0 0.22843,0.0189 0.25173,0.0225 0.0247,0.004 0.0465,-0.006 0.0531,-0.03 l 0.0677,-0.25272 c 0.008,-0.0289 -0.01,-0.0485 -0.0441,-0.0553 z m -3.21018,0.008 h -0.3335 c -0.0207,0 -0.0388,0.0139 -0.0441,0.0339 l -0.31743,1.1215 -0.2908,-0.99774 c -0.0256,-0.0925 -0.11084,-0.15754 -0.20729,-0.15754 h -0.1029 c -0.0965,0 -0.18173,0.0648 -0.20727,0.15754 l -0.290814,0.99774 -0.31743,-1.1215 c -0.005,-0.0199 -0.0234,-0.0339 -0.0441,-0.0339 h -0.3335 c -0.0312,0 -0.0541,0.0305 -0.0444,0.0608 l 0.4551,1.42552 c 0.0291,0.091 0.1126,0.15196 0.20797,0.15196 h 0.134344 c 0.096,0 0.18202,-0.0643 0.20943,-0.15636 l 0.28238,-0.95436 0.28238,0.95436 c 0.0273,0.092 0.11328,0.15636 0.20943,0.15636 h 0.13434 c 0.0954,0 0.17889,-0.061 0.20797,-0.15196 l 0.4551,-1.42552 c 0.01,-0.0305 -0.0134,-0.0608 -0.0444,-0.0608 z m 11.17189,0 h -0.3187 c 0,0 -0.0374,0 -0.0498,0.0312 l -0.43728,1.15548 -0.43767,-1.15763 c -0.007,-0.0181 -0.0264,-0.0293 -0.0458,-0.0293 h -0.3188 c -0.0437,0 -0.0578,0.0357 -0.0474,0.0636 l 0.63976,1.60499 -0.25859,0.65298 c -0.0127,0.0324 0.001,0.0639 0.0434,0.0639 h 0.31499 c 0.0192,0 0.0363,-0.0114 0.0434,-0.0295 l 0.91549,-2.28843 c 0.0165,-0.0396 -0.011,-0.068 -0.0428,-0.068 z m -5.44994,-0.74747 h -0.31235 c -0.0258,0 -0.0467,0.0209 -0.0467,0.0467 v 0.68736 c -0.0606,-0.0128 -0.16792,-0.0368 -0.34279,-0.0368 -0.62166,0 -0.75159,0.55938 -0.75159,0.86506 0,0.6758 0.40625,0.87368 0.78605,0.87368 0.324,0 0.5444,-0.0772 0.65024,-0.12376 0.0638,-0.0275 0.0638,-0.0647 0.0638,-0.0974 v -2.1681 c 0,-0.0257 -0.021,-0.0467 -0.0467,-0.0467 z m -0.35895,2.04697 c 0,0 -0.12357,0.0365 -0.2628,0.0365 -0.32674,0 -0.40556,-0.23128 -0.40556,-0.50563 0,-0.0978 -0.0102,-0.52432 0.39009,-0.52432 0.13639,0 0.27817,0.0375 0.27817,0.0375 v 0.95602 z m 3.3033,-1.34973 c -0.2771,0 -0.43288,0.0363 -0.58396,0.0788 -0.0403,0.0115 -0.0573,0.0393 -0.0458,0.0848 l 0.0467,0.18947 c 0.006,0.0273 0.0312,0.0645 0.0762,0.0531 0.0971,-0.024 0.24605,-0.0714 0.4644,-0.0714 0.21835,0 0.27494,0.0813 0.27494,0.27621 h -0.26985 c -0.57406,0 -0.73376,0.30294 -0.73376,0.55096 0,0.31283 0.15226,0.5767 0.69235,0.5767 0.40682,0 0.60951,-0.10271 0.65494,-0.1265 0.0368,-0.0192 0.059,-0.034 0.059,-0.098 V 148.401 c 0,-0.42719 -0.25272,-0.56897 -0.63516,-0.56897 z m 0.22931,1.37411 c 0,0 -0.12494,0.0416 -0.29492,0.0416 -0.23411,0 -0.30108,-0.1172 -0.30108,-0.23881 0,-0.1549 0.10203,-0.25487 0.32556,-0.25487 h 0.27024 v 0.45206 z m -2.03366,-1.37411 c -0.32399,0 -0.5444,0.0772 -0.65024,0.12376 -0.0638,0.0275 -0.0638,0.0647 -0.0638,0.0974 v 2.16789 c 0,0.0257 0.0209,0.0467 0.0467,0.0467 h 0.31234 c 0.0257,0 0.0467,-0.021 0.0467,-0.0467 v -0.68735 c 0.0606,0.0128 0.16792,0.0368 0.3428,0.0368 0.62165,0 0.75158,-0.55938 0.75158,-0.86507 0,-0.67579 -0.40624,-0.87368 -0.78605,-0.87368 z m -0.0301,1.38234 c -0.13639,0 -0.27827,-0.0375 -0.27827,-0.0375 v -0.95603 c 0,0 0.12357,-0.0365 0.2628,-0.0365 0.32674,0 0.40556,0.23127 0.40556,0.50563 0,0.0978 0.0102,0.52432 -0.39009,0.52432 z"
       style="fill:#ff1f3e;fill-opacity:1;fill-rule:nonzero;stroke:none;stroke-width:0.09791322"
       id="path18708"
       inkscape:connector-curvature="0" />
  </g>
</svg>
