<svg xmlns="http://www.w3.org/2000/svg" width="150" height="48" fill="none"><path fill="#fff" d="m27.715 10.079 11.335 19.63 2.904-5.035L27.714 0 13.476 24.674l2.904 5.035 11.336-19.63Z" style="fill:#fff;fill-opacity:1"/><path fill="#fff" d="m41.954 34.744 4.753 8.221h-5.818l-7.92-13.72-5.254 9.104-1.302-2.24-3.952-6.865-7.92 13.721H8.721l4.753-8.221-2.914-5.035L0 48h55.43L44.867 29.709l-2.914 5.035ZM25.311 24.837c-.018 1.257 1.084 2.368 2.34 2.377 1.311 0 2.45-1.066 2.467-2.331.019-1.293-1.129-2.458-2.412-2.458-1.284 0-2.368 1.101-2.395 2.412ZM78.237 27.241l-5.59-14.03H66.6l8.786 20.212c-.51 1.42-1.211 2.45-2.076 3.087-.874.637-2.049.947-3.533.92v5.007c2.74.137 5.026-.464 6.865-1.821 1.84-1.347 3.314-3.514 4.434-6.5l7.812-20.914H82.98l-4.743 14.03v.01ZM106.925 15.67c-1.657-2.031-3.987-3.05-6.983-3.05-2.995 0-5.308 1.064-7.347 3.195-2.04 2.13-3.06 4.743-3.06 7.83 0 3.086 1.02 5.7 3.06 7.83 2.039 2.13 4.488 3.196 7.347 3.196 2.996 0 5.326-1.02 6.983-3.05v2.467h5.527V13.202h-5.527v2.467Zm-1.693 12.209c-1.129 1.101-2.549 1.648-4.261 1.648-1.712 0-3.132-.547-4.243-1.648-1.11-1.102-1.675-2.513-1.675-4.234 0-1.72.555-3.141 1.675-4.234 1.11-1.101 2.531-1.648 4.243-1.648 1.712 0 3.132.547 4.261 1.648 1.129 1.102 1.693 2.513 1.693 4.234 0 1.72-.564 3.141-1.693 4.234ZM122.995 3.596h-5.526V34.08h5.526V3.596ZM144.327 13.202v2.467c-1.657-2.03-3.987-3.05-6.983-3.05-2.995 0-5.308 1.065-7.347 3.196-2.04 2.13-3.059 4.743-3.059 7.83 0 3.086 1.019 5.7 3.059 7.83 2.039 2.13 4.488 3.196 7.347 3.196 2.996 0 5.326-1.02 6.983-3.05v2.467h5.527V13.202h-5.527Zm-1.693 14.677c-1.129 1.101-2.549 1.648-4.261 1.648-1.712 0-3.132-.547-4.243-1.648-1.111-1.102-1.675-2.513-1.675-4.234 0-1.72.555-3.141 1.675-4.234 1.111-1.101 2.531-1.648 4.243-1.648 1.712 0 3.132.547 4.261 1.648 1.129 1.102 1.693 2.513 1.693 4.234 0 1.72-.564 3.141-1.693 4.234Z" style="fill:#fff;fill-opacity:1"/></svg>