<svg xmlns="http://www.w3.org/2000/svg" width="1335" height="281" fill="none"><path fill="#fff" d="m402.526 207.753 8.101.29c13.021-.29 26.91-5.498 41.377-15.336 5.209-3.761 10.417-8.68 15.625-14.757 5.209-6.076 8.97-11.574 11.574-15.914l4.051-6.655-11.284 54.687-122.974-.289L431.75 92.013c6.655-9.259 4.919-13.888-4.63-13.888h-6.944c-11.863-.29-25.463 4.918-40.798 15.624-8.102 5.498-17.94 14.757-22.57 19.676l-3.472 3.762 10.706-41.377 116.319.29c-50.058 70.022-77.546 109.084-82.754 117.186-5.787 8.391-4.341 14.467 4.919 14.467ZM570.771 189.814c23.148.289 38.484-8.391 46.296-26.62-2.025 14.178-8.391 25.752-19.675 35.3-10.996 9.549-24.595 13.889-41.088 13.6-19.965-.579-35.88-7.234-48.032-20.255-12.153-13.021-18.519-29.514-18.808-49.189-.289-27.199 10.127-47.743 31.829-61.343 14.178-8.39 29.224-11.574 45.138-9.548 29.225 3.472 50.347 26.041 49.479 60.763h-95.775c0 33.854 19.676 57.002 50.636 57.292ZM540.679 80.439c-7.234 4.92-12.731 12.442-15.914 22.57-3.183 10.127-4.63 19.097-4.63 27.199 20.544 0 33.565-.29 39.641-1.158 10.706-1.447 18.808-4.919 23.727-10.706 4.629-4.34 6.655-11.284 6.076-20.254-.289-9.26-3.761-15.915-10.416-20.255-9.549-6.944-25.753-5.787-38.484 2.604ZM673.961 71.18V182.87c0 11.574 4.63 19.676 10.706 22.28 6.655 2.604 8.97 3.183 12.153 3.183h-77.836c3.183 0 5.787-.579 11.864-3.183 6.076-2.604 10.416-10.706 10.416-22.28V111.4c0-15.914-12.152-13.6-14.178-12.732l46.875-27.488Zm87.094 111.689c0 11.574 4.341 19.676 10.417 22.28 6.655 2.604 8.97 3.183 12.153 3.183h-77.836c3.183 0 5.787-.579 11.864-3.183 6.076-2.604 10.416-10.706 10.416-22.28v-41.377c0-10.706 0-18.518-.289-23.148-.289-9.259-3.183-19.386-9.259-23.148-4.919-3.761-11.863-4.63-20.544-2.604-8.68 2.026-16.204 6.366-22.28 13.021 6.366-8.68 14.757-16.493 25.173-23.438 10.417-6.944 21.702-9.837 33.565-8.97 13.021 0 20.255 9.55 23.437 17.94 1.158 2.605 2.026 6.366 2.315 11.285.29 4.919.579 8.97.579 11.863.289 2.604.289 7.234.289 13.31v55.266Z"/><path fill="#fff" d="M881.231 72.048c13.599.29 19.386 10.417 19.386 19.387s-4.919 17.361-15.335 17.65c-4.051 0-7.234-.868-9.838-2.315-4.63-3.183-9.26-10.416-11.285-11.863-9.549-6.944-19.097-3.183-28.646 10.995v79.282c0 10.706 4.919 17.94 11.864 20.544 6.944 2.315 9.838 2.604 13.02 2.604h-82.175c3.183 0 6.076-.289 12.731-2.604 6.945-2.604 11.864-9.838 11.864-20.544V111.4c0-11.285-5.498-15.046-13.31-13.6l46.006-26.62v30.671c9.549-18.229 28.357-30.67 45.718-29.803ZM973.651 211.226c-12.731.868-25.463-1.158-40.509-8.102-14.757-6.945-27.199-22.569-31.829-44.849-4.34-19.676-1.736-37.327 7.813-53.241 9.548-15.914 23.437-26.33 42.245-31.25 21.991-5.497 41.088-2.893 57.579 7.813 16.49 10.416 25.75 27.488 28.36 51.504 2.02 21.701-3.18 39.93-15.63 54.687-12.15 14.468-28.064 22.28-48.029 23.438Zm27.199-84.78c-3.472-17.65-9.838-31.828-18.808-42.245-8.97-10.417-19.097-12.731-30.382-6.944-8.391 4.05-13.888 14.178-16.203 30.381-2.315 15.915-1.447 31.829 2.314 47.454 4.051 19.965 10.417 33.854 19.098 42.245 8.969 8.391 17.65 11.574 26.041 9.838 7.234-1.447 12.442-6.945 16.204-15.915 7.236-18.229 5.496-41.377 1.736-64.814ZM1075.96 143.807c4.63 26.91 23.44 44.56 50.35 45.428 21.99.868 40.51-8.102 49.48-26.91-2.6 14.468-9.26 26.621-19.97 36.748-10.7 9.838-24.3 14.757-41.37 14.467-19.1 0-35.3-6.076-48.32-18.518-13.03-12.442-19.68-29.224-19.97-50.347-.58-51.504 46.3-81.018 89.12-70.89 10.13 2.025 18.52 6.076 25.75 12.73 7.24 6.366 11.29 13.89 11.58 22.281.29 12.442-6.95 19.965-17.36 19.097-11.87-.29-17.94-11.285-14.47-23.148 4.92-19.965-.87-30.093-17.94-30.671-16.49-.579-29.23 6.076-38.2 20.254-8.97 13.889-11.86 30.382-8.68 49.479ZM1232.3 0l-.29 182.869c0 24.884 18.52 25.463 20.54 25.463h-77.83c2.31 0 24.59-.579 24.59-25.463V41.666c0-11.574-7.52-17.36-15.62-13.599L1232.3 0Zm0 147.569 32.12-36.748c6.65-7.234 7.81-14.757 4.05-22.57-3.76-7.812-11.29-11.863-21.99-12.152h72.33c-4.63.868-12.44 4.63-23.14 11.285-10.71 6.655-19.68 13.889-26.91 21.99l-6.95 7.523c-3.76 6.656-2.89 8.681 2.03 16.493l6.07 9.26c4.34 6.076 8.4 12.152 12.45 18.229l13.88 18.807c5.21 6.656 9.26 11.574 12.45 14.468 7.23 7.812 17.36 12.442 21.99 13.599l3.76.579h-73.79c8.11-.289 11-6.944 5.21-16.203-15.33-23.148-24.88-36.459-28.06-39.641-2.9-3.473-4.63-5.209-5.5-4.919ZM283.289 140.761v-.007c0-.764.007-1.528 0-2.299v-.076c0-.611-.014-1.202-.021-1.785a102.883 102.883 0 0 0-.097-3.035v-.062c-.035-.799-.07-1.597-.118-2.382-.049-.792-.104-1.584-.16-2.41a136.509 136.509 0 0 0-.743-7.215V121.434l-.208-1.555c-.077-.563-.16-1.118-.243-1.674-.084-.542-.167-1.083-.257-1.618a167.17 167.17 0 0 0-.639-3.632l-.104-.549-.125-.652-.125-.611c-.042-.188-.077-.375-.119-.556a18.214 18.214 0 0 0-.131-.597c-.035-.16-.07-.32-.105-.472 0-.028-.014-.056-.02-.084 0-.014 0-.035-.007-.048a.567.567 0 0 0-.028-.118c-.16-.688-.313-1.382-.472-2.077a7.044 7.044 0 0 0-.125-.507c0-.028-.014-.055-.021-.076-.146-.604-.299-1.209-.459-1.847-.013-.042-.02-.084-.027-.125 0-.007 0-.021-.007-.028v-.007a.1.1 0 0 0-.014-.042c-.375-1.5-.799-3.055-1.264-4.625-.007-.028-.021-.062-.028-.09a.053.053 0 0 0-.014-.035c0-.007 0-.02-.007-.028l-.034-.125-.049-.152s-.007-.035-.014-.049v-.028c-.16-.52-.319-1.035-.472-1.548v-.014c-.014-.049-.028-.097-.049-.146-.16-.52-.319-1.042-.493-1.556-.035-.11-.069-.222-.111-.333 0-.007 0-.02-.007-.028-.048-.16-.104-.312-.16-.472l-.027-.09v-.014c-.014-.049-.035-.104-.049-.153-.083-.257-.174-.514-.257-.77v-.022c-.076-.229-.153-.458-.236-.694l-.014-.042-.049-.139c-.076-.222-.152-.451-.236-.68a.388.388 0 0 0-.027-.076c-.028-.077-.056-.146-.077-.223-.048-.146-.104-.291-.153-.437l-.027-.077-.16-.43-.375-1.028s0-.014-.007-.02c-.021-.056-.042-.112-.063-.174l-.138-.382c-.035-.098-.07-.195-.112-.285l-.034-.083s-.035-.084-.035-.098c-.125-.333-.257-.66-.389-1.007a14.88 14.88 0 0 0-.146-.368l-.021-.062-.333-.847a.052.052 0 0 0-.014-.028c0-.014-.014-.028-.014-.042a37.27 37.27 0 0 0-.514-1.257c-.006-.02-.02-.041-.027-.062-.007-.021-.014-.042-.028-.063 0-.007-.007-.014-.014-.028a.052.052 0 0 0-.014-.027 127.48 127.48 0 0 0-.923-2.18c0-.015-.014-.029-.021-.042l-.021-.042c-.146-.334-.299-.674-.452-1.014a52.314 52.314 0 0 0-.75-1.66c-.132-.305-.277-.604-.416-.903-.111-.25-.236-.507-.354-.757a8.744 8.744 0 0 0-.216-.444l-.062-.125-.396-.82s-.021-.041-.035-.062l-.034-.076-.334-.667c-.104-.208-.201-.41-.305-.611-.202-.41-.41-.82-.625-1.23-.063-.117-.125-.242-.188-.36-.041-.077-.076-.153-.118-.23-.028-.048-.055-.104-.083-.152 0-.007-.007-.014-.014-.028 0-.007-.007-.014-.014-.028l-.028-.049-.354-.666-.014-.028s-.021-.035-.028-.055c-.055-.098-.104-.202-.159-.3-.167-.319-.348-.645-.521-.964-.021-.035-.042-.077-.063-.118v-.007c-.027-.056-.048-.09-.076-.14-.028-.048-.056-.11-.083-.152-.146-.27-.299-.542-.452-.806-.041-.069-.076-.139-.118-.208-.062-.111-.111-.208-.16-.292-.09-.166-.187-.34-.284-.507l-.091-.152c-.034-.063-.062-.105-.097-.174l-.035-.062a3.823 3.823 0 0 0-.173-.299 210.673 210.673 0 0 0-1.007-1.722c-.333-.556-.674-1.118-1.014-1.674-.049-.09-.111-.18-.16-.27-.041-.07-.076-.133-.118-.202a40.58 40.58 0 0 0-.486-.77 5.354 5.354 0 0 0-.167-.265c-.041-.07-.09-.139-.131-.208-.035-.049-.063-.097-.098-.153a14.158 14.158 0 0 0-.5-.778l-.257-.396c-.215-.34-.437-.68-.659-1.007-.007-.013-.021-.027-.028-.041a4.955 4.955 0 0 0-.188-.285c-.125-.187-.25-.375-.382-.57 0 0-.007-.013-.013-.02a1.143 1.143 0 0 1-.098-.153 1.434 1.434 0 0 0-.083-.118l-.167-.243c-.041-.056-.076-.118-.118-.174-.111-.166-.229-.34-.347-.507-.007-.014-.021-.027-.028-.041-.014-.028-.034-.049-.048-.077-.174-.25-.341-.5-.521-.75l-.063-.083-.201-.285c-.021-.028-.035-.055-.056-.083l-.444-.632-.097-.139-.57-.778-.062-.083s-.035-.056-.056-.076v-.007c-.16-.23-.326-.452-.493-.68 0 0 0-.008-.007-.015a43.796 43.796 0 0 0-.437-.59l-.209-.278c-.208-.291-.43-.576-.645-.86-.021-.029-.049-.063-.07-.091l-.014-.014-.007-.007a513.37 513.37 0 0 0-1.632-2.111c-.326-.41-.646-.813-.979-1.222l-.069-.09s-.021-.022-.028-.035c-.139-.174-.278-.348-.417-.507l-.375-.459-.097-.118c-.139-.166-.271-.333-.41-.5-.062-.083-.132-.16-.201-.243l-.104-.125c-.077-.09-.153-.187-.229-.278l-.007-.007c-.007-.013-.021-.02-.028-.034 0-.007-.014-.014-.021-.021-.146-.174-.285-.34-.431-.507-.048-.056-.097-.111-.138-.167a.095.095 0 0 1-.021-.027c-.035-.042-.07-.084-.111-.126-.118-.131-.23-.263-.348-.402a1.103 1.103 0 0 0-.034-.035c-.084-.104-.167-.194-.229-.264a65.22 65.22 0 0 0-1.278-1.444c-.125-.146-.25-.292-.375-.424-.028-.028-.049-.056-.077-.083-.243-.271-.486-.542-.736-.806-.153-.173-.312-.34-.465-.507-.264-.285-.528-.57-.764-.812-.014-.014-.028-.028-.042-.049a1.599 1.599 0 0 0-.041-.041c-.125-.133-.25-.271-.382-.403a14.093 14.093 0 0 0-.32-.334c-.09-.097-.18-.187-.27-.277-.042-.049-.091-.098-.132-.14l-.056-.055-.639-.666s-.062-.063-.09-.098l-.097-.097-.382-.382c-.417-.424-.834-.847-1.264-1.264-.028-.028-.056-.048-.084-.076l-.006-.007-.021-.021c-.07-.07-.146-.139-.216-.208l-.076-.077-.014-.014c-.68-.666-1.368-1.326-2.076-1.986l-1.139-1.055c-.438-.403-.868-.785-1.292-1.167-.875-.778-1.715-1.52-2.555-2.23-.056-.048-.118-.096-.174-.145l-.917-.77c-.264-.223-.527-.431-.791-.654a51.24 51.24 0 0 0-.709-.576l-.152-.125c-.313-.257-.632-.52-.931-.75a151.85 151.85 0 0 0-4.91-3.73l-.396-.284c-.298-.215-.604-.43-.868-.618a125.39 125.39 0 0 0-3.784-2.583 60.215 60.215 0 0 0-1.563-1.021c-.041-.028-.076-.049-.118-.076a57.43 57.43 0 0 0-1.403-.882c-.395-.243-.784-.486-1.132-.702a134.753 134.753 0 0 0-3.326-1.972c-.535-.306-1.076-.611-1.625-.924-.528-.291-1.063-.59-1.646-.902-.055-.035-.118-.063-.173-.09a266.5 266.5 0 0 1-.542-.292c-.111-.063-.222-.118-.333-.18-.202-.105-.396-.21-.598-.313-.111-.063-.229-.118-.34-.18-.194-.098-.375-.195-.556-.286-.104-.055-.208-.11-.312-.16-.271-.138-.528-.27-.771-.388a1.344 1.344 0 0 0-.097-.042A142.102 142.102 0 0 0 164.525.205a8.688 8.688 0 0 0-8.743 3.965 123.04 123.04 0 0 0-16.104 39.799c-2.834-12.007-7.507-23.646-13.987-34.556a116.26 116.26 0 0 0-2.784-4.451 8.682 8.682 0 0 0-9-3.757 140.983 140.983 0 0 0-40.146 14.799c-.167.09-.34.187-.507.291l-.063.035c-.91.507-1.736.98-2.52 1.438-.084.048-.16.09-.237.138a7.104 7.104 0 0 1-.312.18 1.57 1.57 0 0 0-.18.112c-.681.403-1.348.813-1.98 1.201-.312.188-.61.375-.903.563a108.126 108.126 0 0 0-2.888 1.861c-.146.097-.292.194-.438.285-.153.097-.305.201-.458.298l-.18.118c-.5.334-.994.667-1.48 1.007-.118.077-.236.16-.347.243-.618.431-1.23.861-1.84 1.299-.3.208-.584.424-.875.639-.181.132-.369.264-.55.403-.096.07-.187.139-.284.208-.285.208-.562.417-.812.604a110.666 110.666 0 0 0-3.424 2.667c-.472.382-.951.764-1.424 1.153-.16.125-.312.257-.458.382-.167.138-.34.284-.507.43-.472.389-.937.785-1.403 1.188-.534.451-1.07.923-1.61 1.402l-.494.445c-.535.479-1.07.965-1.542 1.41-.597.548-1.18 1.104-1.763 1.66a89.899 89.899 0 0 0-1.646 1.603l-.007.007c-.111.105-.209.202-.292.285-.465.465-.93.938-1.389 1.403-.014.014-.07.076-.09.09-.438.452-.875.91-1.306 1.368-.02.021-.041.035-.055.056-.118.125-.243.25-.361.389-.14.145-.278.291-.41.437-.264.278-.52.556-.778.84-.02.021-.034.042-.055.056-.146.153-.292.313-.43.472-.07.077-.147.153-.216.236a3.678 3.678 0 0 1-.167.18c-.076.084-.146.168-.222.25a.44.44 0 0 1-.056.063s-.013.014-.013.021c-.237.264-.473.528-.702.792a6.398 6.398 0 0 0-.354.403 34.92 34.92 0 0 0-.688.791c-.215.243-.423.486-.638.75-.125.146-.257.299-.375.445a.706.706 0 0 0-.09.11l-.098.119c-.25.299-.5.597-.743.896a3.906 3.906 0 0 0-.16.194 3.958 3.958 0 0 0-.16.195c-.236.284-.472.57-.694.854-.125.153-.25.305-.375.465l-.118.146c-.104.132-.215.264-.32.403a9.752 9.752 0 0 0-.312.396l-.083.104c-.216.278-.43.555-.646.826-.139.174-.264.34-.403.521l-.028.035c-.493.639-.979 1.284-1.458 1.937l-.111.153c-.111.153-.222.313-.333.465-.153.216-.313.424-.466.64-.201.27-.402.555-.604.84l-.257.36c-.27.39-.541.778-.812 1.167-.077.104-.153.215-.23.327-.242.354-.479.708-.722 1.07-.118.18-.243.36-.36.54l-.174.258c-.035.055-.07.104-.104.16l-.167.263c-.25.375-.5.771-.75 1.16-.528.82-1.049 1.646-1.57 2.493-.396.646-.791 1.292-1.173 1.938-.042.069-.098.152-.153.25-.042.069-.076.138-.125.215-.111.194-.222.382-.333.576l-.14.243c-.11.195-.222.39-.333.584l-.055.097c-.035.055-.063.111-.097.174-.334.583-.667 1.18-.993 1.77-.021.035-.042.07-.056.105l-.23.437c-.187.34-.367.68-.548 1.02a24.04 24.04 0 0 0-.389.73s-.007.014-.014.02c-.055.112-.118.223-.18.348-.153.278-.299.57-.444.861l-.063.125c0 .014-.014.028-.02.035l-.105.201c-.111.215-.222.43-.333.653l-.035.07s-.035.062-.049.097c-.132.27-.27.541-.402.812-.105.209-.209.417-.306.632-.083.167-.16.326-.236.493 0 .014-.014.021-.014.035 0 .014-.014.028-.02.042-.022.034-.036.069-.056.11-.014.022-.021.05-.035.077-.097.208-.201.41-.299.625-.201.424-.402.84-.59 1.27l-.188.418c-.11.236-.215.472-.326.715v.02s-.035.056-.048.091c-.188.41-.375.826-.556 1.243-.02.049-.042.09-.063.132 0 .007-.006.02-.013.028l-.021.055c-.23.528-.459 1.056-.688 1.597v.008c0 .006 0 .013-.007.02-.007.021-.02.042-.027.056 0 .014-.014.028-.014.041-.153.369-.306.73-.452 1.084a125.796 125.796 0 0 0-1.27 3.194c0 .007 0 .014-.008.021-.02.063-.048.139-.083.222 0 .014-.007.021-.014.035a116.56 116.56 0 0 0-.986 2.688l-.055.16-.063.173c-.007.02-.02.07-.028.076 0 .007 0 .021-.007.028l-.201.556c-.042.118-.09.236-.125.354l-.653 1.937c-.16.472-.305.952-.458 1.43a92.62 92.62 0 0 0-.799 2.598l-.028.083s0 .014-.007.021c-.006.028-.02.056-.027.084v.007a.099.099 0 0 1-.014.041l-.111.39v.006a.099.099 0 0 1-.014.042l-.042.125c-.014.041-.028.076-.035.118 0 .014-.007.028-.013.048-.007.028-.014.056-.021.077-.014.041-.021.083-.035.118a.092.092 0 0 1-.014.041c-.111.382-.222.764-.326 1.153l-.125.459s-.014.041-.014.062l-.14.5-.02.083c-.035.125-.07.25-.097.368l-.139.535c-.09.327-.16.667-.25 1-.18.715-.361 1.438-.542 2.167a160.694 160.694 0 0 0-1.063 4.792v.027c-.152.764-.298 1.521-.437 2.271 0 .021 0 .035-.007.056a139.574 139.574 0 0 0-1.875 13.972v.035c-.034.437-.07.861-.104 1.284-.09 1.209-.16 2.334-.208 3.403-.042.778-.07 1.549-.104 2.396-.021.764-.042 1.535-.056 2.333-.014.764-.014 1.528-.014 2.32v.18c0 2.292.056 4.639.174 6.973a140.356 140.356 0 0 0 8.673 41.958 8.687 8.687 0 0 0 7.931 5.646c.938.021 1.875.035 2.813.035 14.166 0 28.16-2.48 41.402-7.25a122.144 122.144 0 0 0-27.5 35.361 8.685 8.685 0 0 0 1.16 9.666 140.202 140.202 0 0 0 35.77 29.535 155.012 155.012 0 0 0 5.202 2.861c.674.347 1.355.702 2.098 1.077a501.676 501.676 0 0 0 2.09 1.027c.02.014.048.021.07.035.534.257 1.09.521 1.659.792.813.375 1.66.764 2.563 1.166.062.028.124.049.187.077a140.736 140.736 0 0 0 13.035 4.979c.708.229 1.416.458 2.159.694.021 0 .042.014.063.021h.035c1.104.341 2.166.653 3.222.945a120.763 120.763 0 0 0 3.736 1c.319.083.632.173.958.25l.48.118c.083.021.166.041.243.062l.125.028s.055.014.076.021l.507.118s.035.007.049.014l.479.111c.396.097.784.187 1.173.271h.014c.007 0 .021 0 .035.007.097.021.208.048.319.069.056.014.111.021.174.035.014 0 .028 0 .042.007l.125.028.319.069s.042.007.063.014c.013 0 .027 0 .041.007l.202.042 1.5.312c.833.167 1.673.333 2.534.486l2 .354.389.063.584.09h.132l.083.021.187.028c.299.048.598.097.917.146.625.097 1.264.187 1.896.27.062.014.132.014.194.028.021 0 .049 0 .07.007l.153.021c.027 0 .048.007.076.014l.097.014h.028l.778.097c.34.042.687.09.993.125H125.455a75.88 75.88 0 0 0 2.632.285h.028c.528.048 1.049.104 1.569.145h.035c.195.021.396.035.597.056h.028c.167.021.34.028.514.042h.222l1.125.083h.028c.535.042 1.076.069 1.611.104.09 0 .188.014.278.021h.111c.201.014.41.021.611.028.479.028.952.055 1.431.069h.146l.958.042H137.469c.334.014.667.021.979.028H138.566c.424.014.848.027 1.271.027h.403c.479.007.958.021 1.431.021h1.069c.382 0 .771 0 1.153-.014h.298c.181 0 .355 0 .521-.013h.604c.07 0 .146 0 .216-.007h.305c.07-.014.139-.014.209-.014.076 0 .152 0 .229-.007.076 0 .146 0 .222-.007.222 0 .451-.014.674-.021h.138c.632-.028 1.264-.049 1.896-.083.153 0 .299-.014.452-.021.569-.028 1.132-.063 1.694-.097l.32-.021h.076c.882-.063 1.764-.125 2.653-.209.562-.048 1.125-.104 1.687-.159l.847-.084c.098-.014.202-.02.306-.027.167-.014.326-.035.493-.056.097-.014.202-.021.306-.035l.18-.021.209-.02h.048l.354-.042c.021 0 .049 0 .07-.007l.361-.042c.43-.055.861-.104 1.285-.159.229-.028.451-.056.673-.091.306-.041.618-.083.924-.132.201-.027.41-.055.625-.09.271-.035.535-.076.819-.125a.41.41 0 0 0 .091-.014c.18-.028.368-.055.527-.083.417-.07.848-.139 1.271-.208.236-.035.465-.077.702-.118l.187-.035s.063-.014.076-.014c.264-.049.528-.09.785-.139.382-.062.757-.132 1.139-.215.389-.07.771-.153 1.153-.222.229-.042.458-.091.687-.132.209-.042.417-.084.625-.132a72.94 72.94 0 0 0 2.07-.452c.041-.007.083-.021.118-.027h.021c.048-.007.09-.021.139-.035l.541-.125c.021 0 .035-.007.056-.014.021 0 .041-.007.062-.014.104-.021.209-.049.306-.069.271-.063.535-.125.805-.195.049-.014.098-.021.146-.035a.132.132 0 0 0 .056-.014c.069-.013.139-.034.208-.048.049-.014.104-.021.146-.035a.13.13 0 0 0 .049-.014l.333-.083a.192.192 0 0 0 .062-.014c.528-.125 1.049-.264 1.57-.396h.007l.41-.104h-.035c.076-.014.16-.028.236-.056.326-.083.653-.173.979-.27.063-.021.125-.035.188-.049l.875-.243.076-.021c.632-.18 1.264-.361 1.896-.548.118-.035.25-.077.403-.125a82.59 82.59 0 0 0 2.187-.681c.771-.243 1.535-.493 2.257-.736a104.36 104.36 0 0 0 2.007-.688l.667-.236a77.304 77.304 0 0 0 1.986-.736 47.09 47.09 0 0 0 1.368-.528l.278-.104c.236-.09.472-.18.708-.278.111-.041.222-.09.333-.132.063-.027.125-.048.195-.076.298-.118.604-.243.909-.368.931-.382 1.91-.799 2.973-1.257a80.687 80.687 0 0 0 1.777-.792c.32-.138.632-.284.945-.43.083-.035.173-.077.257-.118l.041-.021c.535-.243 1.07-.5 1.605-.757.625-.299 1.236-.604 1.861-.91.055-.027.104-.048.159-.076.063-.028.125-.063.195-.097.062-.035.132-.063.194-.098.535-.263 1.063-.541 1.591-.812.069-.035.132-.069.194-.104.313-.16.625-.327.945-.5a109.038 109.038 0 0 0 3.909-2.153c.681-.389 1.361-.785 2.042-1.187.243-.146.486-.292.736-.445.764-.465 1.576-.965 2.458-1.521l.056-.034c.167-.105.333-.202.507-.313a140.955 140.955 0 0 0 32.208-28.16 8.675 8.675 0 0 0 1.007-9.701 122.073 122.073 0 0 0-27.618-34.556 122.97 122.97 0 0 0 36.215 5.466c2.737 0 5.473-.091 8.209-.278a8.678 8.678 0 0 0 7.625-5.834 142.01 142.01 0 0 0 7.701-42.458c.007-.34.007-.68.014-1.028 0-.368.014-.743.021-1.132v-.284h.014ZM235.935 58.74c.305.354.611.708.909 1.062.021.028.049.056.07.084.403.479.805.965 1.194 1.45.049.056.097.126.153.188a.125.125 0 0 1 .035.05c.305.374.597.742.882 1.096.493.632.986 1.264 1.472 1.903a37.428 37.428 0 0 1 .792 1.07l.055.069c.208.278.417.555.618.847.049.07.097.14.153.209.035.055.076.104.118.16.25.333.486.673.729 1.02l.229.32s.007.013.014.013l.077.111c.152.223.312.445.465.667.048.07.097.14.146.202.027.041.055.083.09.132.028.041.056.076.083.118l.118.173c.049.077.105.16.153.236.167.243.333.486.486.73a11.975 11.975 0 0 0 .25.367c.042.063.077.126.118.181.195.292.396.59.591.903l.312.493c.042.062.083.132.125.194.028.042.056.09.083.132.056.097.132.216.195.313l.097.146c.07.11.132.222.208.326.028.049.056.09.091.139.125.194.243.382.361.576.014.021.021.035.028.056.034.062.076.125.111.187.333.542.666 1.09.993 1.632.291.486.576.98.861 1.472 0 .014.014.021.021.035.048.09.104.188.159.278l.014.028c.125.208.236.41.348.618.027.049.055.104.09.16.041.076.083.145.125.222.16.278.319.555.465.833.042.07.083.153.125.23.014.027.035.062.049.09.041.083.09.16.125.229.062.132.132.257.201.382.021.034.042.076.063.118.125.222.243.444.361.666l.083.153s.021.049.035.07c.104.201.208.395.312.597a5.066 5.066 0 0 0 .139.264l.07.146.048.09c.16.299.313.597.459.903.02.048.048.097.069.145.063.126.132.25.194.382l.063.125c.257.521.514 1.035.764 1.563l.021.035s0 .013.007.02c.055.126.111.243.173.362.07.139.139.277.202.416.041.097.083.188.132.285l.27.583c.077.167.153.334.237.5a.497.497 0 0 0-.049-.097c.028.056.048.111.076.174.153.32.292.645.431.965.028.07.062.139.097.208.118.25.222.493.326.736 0 .007.007.021.014.028 0 .007.007.021.014.028.104.243.209.493.313.743.173.403.34.799.507 1.201.041.105.076.202.125.306.25.583.479 1.16.708 1.75.028.063.049.132.076.194v.007c.014.028.021.056.035.09.049.126.09.244.139.369a25.884 25.884 0 0 1-20.271-12.605 25.908 25.908 0 0 1-1.437-23.652h.007Zm-21.021-19.396c.812.59 1.646 1.215 2.507 1.875.576.444 1.166.903 1.784 1.389.216.166.431.347.646.52l.216.174s.055.049.09.07c.416.333.84.68 1.25 1.027l.069.056c.264.215.528.43.778.653.035.028.063.055.097.083.271.23.549.472.82.708-8.646 13.535-9.181 31.112-.729 45.348a43.236 43.236 0 0 0 37.173 21.18c1.097 0 2.195-.048 3.299-.132 0 .021.007.042.014.063.041.187.09.382.132.569v.028l.02.111c.105.472.202.924.292 1.375.202.986.389 1.938.563 2.868.132.702.243 1.403.368 2.125 0 .028.007.056.014.091.069.402.131.812.194 1.222.076.521.16 1.055.236 1.604.063.43.118.861.174 1.305.09.702.173 1.417.257 2.125a123.425 123.425 0 0 1 .646 8.424v.042c.013.416.027.819.041 1.201v.042c-25.396 2.389-50.278-10.035-63.514-32.327-13.125-22.097-12.222-49.736 1.764-70.84.257.153.521.299.785.458.146.084.292.167.437.257.41.243.82.493 1.236.75.056.035.112.063.167.098.34.208.681.416 1.021.631.028.014.055.035.083.05.354.214.709.437 1.056.666l.118.076c.43.271.854.549 1.271.827.034.02.069.048.104.069 1.194.785 2.278 1.528 3.34 2.285l1.188.847-.007.007ZM57.809 48.642c.424-.395.855-.791 1.32-1.2l.43-.383c.452-.403.91-.805 1.369-1.194.027-.028.062-.056.09-.084a67.038 67.038 0 0 1 1.25-1.062c.118-.104.236-.209.36-.306l.272-.229.041-.035s.042-.034.063-.055c.43-.354.861-.702 1.32-1.07.93-.75 1.888-1.5 2.992-2.326.202-.153.396-.306.605-.451a83.851 83.851 0 0 1 1.542-1.132l.069-.049c.541-.396 1.09-.778 1.645-1.167.077-.048.146-.097.223-.152.395-.278.798-.549 1.201-.82a6.54 6.54 0 0 0 .361-.243c.202-.139.41-.27.618-.41l.125-.083c.278-.187.57-.382.868-.57.077-.048.16-.104.236-.152.23-.146.466-.299.709-.452.041-.027.083-.048.118-.076.646.972 1.27 1.958 1.86 2.958 9.084 15.3 11.668 33.216 7.272 50.452-4.396 17.236-15.236 31.736-30.535 40.819-11.097 6.591-23.465 9.75-36.146 9.313V137.691c.014-.715.035-1.43.049-2.083.027-.695.055-1.382.09-2.07v-.048c.063-1.243.153-2.597.27-4.132.036-.438.084-.875.126-1.313.055-.59.104-1.173.174-1.764.006-.069.02-.145.027-.215.104-.958.223-1.916.348-2.868.277-2.055.604-4.111.979-6.153.118-.646.243-1.277.368-1.909a43.181 43.181 0 0 0 21.77-6.049c9.931-5.896 16.973-15.313 19.827-26.5 2.854-11.195 1.174-22.826-4.722-32.757-.104-.174-.223-.347-.327-.52.23-.216.466-.438.716-.668h.027ZM33.455 94.163a25.951 25.951 0 0 1-7.875 3.07c.104-.299.216-.59.327-.89l.375-1.027c.02-.055.048-.111.069-.166.215-.563.43-1.119.66-1.681.285-.722.583-1.43.889-2.16.187-.437.368-.868.555-1.298 0 0 0-.014.007-.021.042-.084.076-.167.111-.25.049-.111.098-.222.146-.327l.23-.52c.048-.112.096-.223.152-.34l.035-.084c.07-.16.139-.32.215-.472.028-.056.056-.118.076-.174l.077-.173c.041-.084.076-.16.11-.244 0-.014.008-.02.015-.027l.028-.056c.055-.111.104-.215.16-.326.145-.32.291-.632.444-.945.055-.11.11-.229.16-.347.034-.063.055-.125.09-.194l.152-.306c.042-.083.084-.174.125-.264a.796.796 0 0 1 .07-.132c.035-.076.076-.146.111-.222l.042-.083c.035-.07.076-.146.11-.216.175-.354.348-.694.529-1.041.027-.049.055-.105.083-.16.007-.02.02-.035.028-.056 0 0 .007-.027.014-.034a.834.834 0 0 0 .055-.111c.097-.188.195-.382.292-.563.055-.104.118-.23.173-.333l.042-.084c.049-.083.09-.166.132-.257.035-.069.07-.138.111-.2.049-.084.097-.174.14-.258.145-.278.29-.555.444-.826.027-.049.055-.104.083-.153l.23-.43c.277-.5.555-1 .846-1.514l.57-.993a37.119 37.119 0 0 1 .368-.633c.041-.069.09-.145.132-.215.333-.576.687-1.153 1.048-1.736a107.622 107.622 0 0 1 2.035-3.208l.056-.084.59-.888a.601.601 0 0 0 .07-.111c.215-.32.423-.64.645-.952.021-.028.042-.055.049-.07l.083-.117c.25-.368.507-.73.764-1.09l.257-.369c.139-.201.285-.403.43-.597.028-.042.056-.076.084-.118.243-.347.493-.68.743-1.028.042-.055.076-.104.118-.16.153-.208.312-.416.465-.625.236-.312.473-.625.723-.95l.194-.258c.042-.049.076-.097.118-.153.23-.291.458-.59.688-.882v-.007c4.2 11.466-.223 24.688-11.098 31.146v-.007Zm-14.298 61.688c.34 0 .68.021 1.02.021 15.021 0 29.924-4.042 42.924-11.764 19.285-11.452 32.958-29.729 38.5-51.459 5.542-21.729 2.285-44.319-9.167-63.604a94.608 94.608 0 0 0-1.465-2.36 123.31 123.31 0 0 1 20.493-7.21c13.743 23.883 17.556 51.675 10.736 78.424-6.944 27.237-24.076 50.139-48.243 64.487-15.264 9.062-32.465 14.097-50.076 14.694a123.012 123.012 0 0 1-4.73-21.229h.008ZM158.85 262.372c-.062.007-.146.021-.208.028-.09.014-.181.02-.278.034-.035 0-.069.007-.104.014-.375.049-.75.097-1.125.139l-.417.049s-.048 0-.076.007h-.028l-.139.021c-.097.006-.194.02-.25.027-.271.035-.541.063-.812.091-.049 0-.104.013-.153.013l-.792.084c-.034 0-.069 0-.104.007-.507.048-1.021.097-1.514.146-.771.069-1.555.125-2.333.18l-.292.021c-.507.035-1.021.062-1.528.09h-.076c-.097 0-.187.007-.285.014-.534.035-1.069.056-1.639.07h-.229a3.49 3.49 0 0 1-.368.02h-.222c-.507.021-1.021.028-1.535.035h-.694c-.257.007-.521.014-.778.014h-.299c-.527 0-1.055 0-1.59-.007h-.132c-.486 0-.979-.007-1.465-.028h-.521c-.09 0-.181-.007-.264-.007a32.096 32.096 0 0 1-1.118-.034c-.076 0-.16 0-.236-.007h-.278a37.065 37.065 0 0 1-1.243-.063c-.083 0-.146-.007-.208-.014-.327-.014-.66-.034-.986-.055-.035 0-.07 0-.104-.007a1.83 1.83 0 0 1-.202-.014c-.458-.028-.923-.056-1.382-.09-.048 0-.104-.007-.153-.014h-.041l-.771-.063c-.132-.014-.264-.021-.389-.034l-.292-.021h-.069l-1.361-.125a128.6 128.6 0 0 1-2.084-.229c-.687-.077-1.381-.174-2.069-.264-.042 0-.09-.014-.132-.014-.299-.042-.604-.091-.903-.132-.368-.056-.736-.104-1.097-.167a25.8 25.8 0 0 1 6.458-5.444c5.945-3.528 12.91-4.535 19.605-2.827a25.697 25.697 0 0 1 13.055 7.993c-.139.021-.285.049-.423.07-.028 0-.056.007-.091.014l-.646.104-.479.076c-.215.035-.43.07-.652.097-.049 0-.098.014-.146.021-.091.014-.181.028-.271.035l-.32.042-.708.104h-.014Zm38.757-12.056c-.076.035-.146.07-.215.111-.611.306-1.215.605-1.827.896-.027.014-.048.028-.076.035-.43.208-.854.41-1.278.604a7.223 7.223 0 0 0-.451.208c-.222.112-.451.209-.688.32a.397.397 0 0 1-.083.035c-.486.222-.965.437-1.479.659a111.217 111.217 0 0 1-3.445 1.445c-.041.014-.083.035-.125.048l-.034.014a8.249 8.249 0 0 0-.528.216c-.153.055-.306.111-.458.173-.431.174-.868.34-1.306.5l-.118.042c-.562.215-1.139.423-1.694.625l-.591.208c-.548.195-1.104.389-1.708.59-.292.098-.583.188-.875.285-.104-.173-.194-.354-.299-.528-5.895-9.93-15.312-16.972-26.5-19.826-11.194-2.854-22.826-1.174-32.757 4.722a43.217 43.217 0 0 0-15.729 16.222c-.618-.194-1.236-.388-1.861-.597-.312-.104-.618-.208-.924-.312-.68-.229-1.354-.452-2.034-.695-.125-.041-.25-.09-.375-.139a127.052 127.052 0 0 1-8.264-3.291 170.467 170.467 0 0 1-3.778-1.743c-.632-.306-1.264-.618-1.833-.896-.64-.327-1.285-.653-1.875-.965-.25-.132-.493-.264-.736-.396 5.68-11.347 14.375-20.688 25.472-27.271 31.576-18.75 72.521-8.313 91.271 23.264.59 1 1.159 2.014 1.708 3.048a2.02 2.02 0 0 0-.16.091 75.871 75.871 0 0 1-.951.521c-.313.166-.618.333-.924.493-.041.02-.083.048-.132.069a15.34 15.34 0 0 1-.666.354c-.125.063-.25.125-.368.195-.438.229-.868.451-1.306.666Zm35.236-26.423a123.244 123.244 0 0 1-16.139 14.541 72.219 72.219 0 0 0-1.368-2.416c-23.639-39.813-75.257-52.966-115.062-29.327-13.299 7.896-24.167 19.382-31.355 32.959a123.276 123.276 0 0 1-16.367-14.306 105.031 105.031 0 0 1 36.868-36.931c49.465-29.368 113.472-13.409 143.43 35.487l-.007-.007Zm-131.083-60.396c18.173-16.111 31.132-37.257 37.264-61.306.43-1.701.826-3.41 1.18-5.118a123.086 123.086 0 0 0 14.014 34.695 122.768 122.768 0 0 0 25.132 30.076c-24.889-7.688-52.132-7.486-77.59 1.653Zm109.667-.764c-17.542-9.014-32.16-22.785-42.278-39.833-19.209-32.348-19.709-71.903-1.66-104.57a124.19 124.19 0 0 1 20.924 6.375c-16.417 26.34-17.125 60.16-.986 87.34 15.319 25.799 43.027 41.111 72.243 41.111 1.833 0 3.673-.069 5.514-.187a124.3 124.3 0 0 1-4.264 21.437 105.497 105.497 0 0 1-49.486-11.68l-.007.007Z"/></svg>