<svg xmlns="http://www.w3.org/2000/svg" id="_圖層_1" viewBox="0 0 1366 400"><defs><clipPath id="clippath"><path d="M15.86 55.78h1334.28v288.45H15.86z" class="cls-1"/></clipPath><clipPath id="clippath-1"><path d="M45.25 55.78 15.86 168.99h115.8L79.39 344.22l276.07-175.23H243.7l30.55-113.21h-229z" class="cls-1"/></clipPath><clipPath id="clippath-2"><path d="M15.86 55.78h1334.29v288.45H15.86z" class="cls-1"/></clipPath><linearGradient id="_未命名漸層_2" x1="2.28" x2="3.28" y1="-184.07" y2="-184.07" gradientTransform="matrix(0 232.07 -232.07 0 -42530.4 -472.45)" gradientUnits="userSpaceOnUse"><stop offset="0" stop-color="#ffeb83"/><stop offset=".25" stop-color="#ffbf83"/><stop offset=".68" stop-color="#fd83ff"/><stop offset="1" stop-color="#b283ff"/></linearGradient><style>.cls-1{fill:none}.cls-3{fill:#fff}</style></defs><g id="LOGO-H" style="clip-path:url(#clippath)"><g style="clip-path:url(#clippath-1)"><path d="M15.86 55.78h339.6v288.44H15.86z" style="fill:url(#_未命名漸層_2)"/></g><path d="m274.06 55.78-30.55 113.21h48.74l29.02-113.21h-47.21zM355.42 168.92 79.31 344.15l368.15-175.23h-92.04zM513.5 287.03v-38.65l99.06-146.16h-98.41V59.67H672v38.65l-99.71 145.51h100.04v43.2H513.5zM730.46 287.03V59.67h149.4v44.18h-98.08v41.24h82.82v44.17h-82.82v53.59h98.08v44.18h-149.4z" class="cls-3"/><g style="clip-path:url(#clippath-2)"><path d="M1030.23 290.92c-21.22 0-38.65-4.22-52.29-12.67-13.64-8.44-23.71-19.7-30.2-33.78-6.5-14.07-9.74-29.66-9.74-46.77V59.68h50.99v138.35c0 14.73 3.57 26.04 10.72 33.94 7.15 7.91 17.65 11.86 31.5 11.86s24.2-3.95 31.67-11.86c7.47-7.9 11.2-19.21 11.2-33.94V59.68h50.99v138.03c0 17.76-2.92 32.59-8.77 44.5-5.85 11.91-13.48 21.44-22.9 28.58-9.42 7.15-19.71 12.29-30.85 15.43-11.15 3.14-21.92 4.71-32.32 4.71M1267.97 290.92c-16.03 0-30.59-2.65-43.68-7.96-13.1-5.3-23.6-13.32-31.5-24.03-7.91-10.72-12.18-24.3-12.83-40.76h53.91c.86 7.58 3.95 14.4 9.26 20.46 5.3 6.07 13.37 9.09 24.2 9.09 9.31 0 16.29-2.06 20.95-6.17 4.65-4.11 6.98-9.53 6.98-16.24 0-3.03-.49-5.85-1.46-8.45-.98-2.6-2.87-5.14-5.68-7.63-2.82-2.49-7.09-5.03-12.83-7.63-5.74-2.6-13.37-5.41-22.9-8.45-17.76-5.63-31.62-12.23-41.57-19.81-9.96-7.58-16.95-15.7-20.95-24.36-4.01-8.66-6.01-17.54-6.01-26.63.21-14.72 3.9-27.01 11.04-36.86 7.15-9.85 16.67-17.26 28.58-22.25 11.91-4.98 25.22-7.47 39.95-7.47s28.2 2.55 40.44 7.63c12.23 5.09 22.14 12.62 29.72 22.57 7.58 9.96 11.47 22.3 11.69 37.03h-55.21c-.22-5.85-2.71-11.37-7.47-16.56-4.77-5.2-11.8-7.79-21.11-7.79-6.71.22-12.4 2.11-17.05 5.68-4.66 3.57-6.98 8.61-6.98 15.1 0 5.63 2.38 10.51 7.15 14.62 4.76 4.12 11.53 7.91 20.3 11.37 8.77 3.47 19 7.15 30.69 11.04 8.88 3.04 16.73 6.55 23.55 10.56 6.82 4.01 12.5 8.66 17.05 13.97 4.55 5.31 8.01 11.32 10.39 18.03 2.38 6.71 3.57 14.29 3.57 22.74 0 13.86-3.52 25.98-10.56 36.38-7.04 10.39-16.73 18.46-29.07 24.2-12.34 5.73-26.53 8.61-42.55 8.61" class="cls-3"/></g></g></svg>