<svg preserveAspectRatio="none" width="100%" height="100%" overflow="visible" style="display: block;" viewBox="0 0 18 16" fill="none" xmlns="http://www.w3.org/2000/svg">
<path id="Vector" d="M17.7899 8.55532L11.0682 15.7744C10.9282 15.9248 10.7558 16 10.5512 16C10.3465 16 10.1741 15.9248 10.0341 15.7744C9.89408 15.624 9.82406 15.4389 9.82406 15.2191C9.82406 14.9993 9.89408 14.8142 10.0341 14.6638L15.5117 8.78091L0.72711 8.79827C0.630161 8.7867 0.5386 8.76356 0.452424 8.72885C0.366247 8.69414 0.285458 8.6363 0.210054 8.55532C0.0700171 8.40492 0 8.21981 0 8C0 7.78019 0.0700171 7.59508 0.210054 7.44469C0.285458 7.3637 0.366247 7.30586 0.452424 7.27115C0.5386 7.23644 0.630161 7.21331 0.72711 7.20174L15.5117 7.21909L10.0341 1.33623C9.89408 1.18583 9.82406 1.00072 9.82406 0.780911C9.82406 0.561098 9.89408 0.375995 10.0341 0.225597C10.1741 0.0751979 10.3465 0 10.5512 0C10.7558 0 10.9282 0.0751979 11.0682 0.225597L17.7899 7.44469C17.93 7.59508 18 7.78019 18 8C18 8.21981 17.93 8.40492 17.7899 8.55532Z" fill="var(--fill-0, black)"/>
</svg>
