<svg preserveAspectRatio="none" width="100%" height="100%" overflow="visible" style="display: block;" viewBox="0 0 24 24" fill="none" xmlns="http://www.w3.org/2000/svg">
<g id="circle plus2 1" clip-path="url(#clip0_672_156)">
<path id="Vector" d="M12 0C10.3437 0 8.78516 0.312497 7.32422 0.9375C5.86327 1.5625 4.58985 2.41796 3.50391 3.50391C2.41796 4.58985 1.5625 5.86327 0.9375 7.32422C0.312497 8.78516 0 10.3437 0 12C0 13.6563 0.312497 15.2148 0.9375 16.6758C1.5625 18.1367 2.41796 19.4102 3.50391 20.4961C4.58985 21.582 5.86327 22.4375 7.32422 23.0625C8.78516 23.6875 10.3437 24 12 24C13.6563 24 15.2148 23.6875 16.6758 23.0625C18.1367 22.4375 19.4102 21.582 20.4961 20.4961C21.582 19.4102 22.4375 18.1367 23.0625 16.6758C23.6875 15.2148 24 13.6563 24 12C24 10.3437 23.6875 8.78516 23.0625 7.32422C22.4375 5.86327 21.582 4.58985 20.4961 3.50391C19.4102 2.41796 18.1367 1.5625 16.6758 0.9375C15.2148 0.312497 13.6563 0 12 0ZM16.5 12.75H12.75V16.5C12.75 16.7031 12.6758 16.8789 12.5273 17.0273C12.3789 17.1758 12.2031 17.25 12 17.25C11.7969 17.25 11.6211 17.1758 11.4727 17.0273C11.3242 16.8789 11.25 16.7031 11.25 16.5V12.75H7.5C7.29687 12.75 7.12109 12.6758 6.97266 12.5273C6.82422 12.3789 6.75 12.2031 6.75 12C6.75 11.7969 6.82422 11.6211 6.97266 11.4727C7.12109 11.3242 7.29687 11.25 7.5 11.25H11.25V7.5C11.25 7.29687 11.3242 7.12109 11.4727 6.97266C11.6211 6.82422 11.7969 6.75 12 6.75C12.2031 6.75 12.3789 6.82422 12.5273 6.97266C12.6758 7.12109 12.75 7.29687 12.75 7.5V11.25H16.5C16.7031 11.25 16.8789 11.3242 17.0273 11.4727C17.1758 11.6211 17.25 11.7969 17.25 12C17.25 12.2031 17.1758 12.3789 17.0273 12.5273C16.8789 12.6758 16.7031 12.75 16.5 12.75Z" fill="var(--fill-0, #9945FF)"/>
</g>
<defs>
<clipPath id="clip0_672_156">
<rect width="24" height="24" fill="white"/>
</clipPath>
</defs>
</svg>
