<svg preserveAspectRatio="none" width="100%" height="100%" overflow="visible" style="display: block;" viewBox="0 0 19.0313 19.0313" fill="none" xmlns="http://www.w3.org/2000/svg">
<path id="Vector" d="M19.0313 1.0573V14.8022C19.0313 15.0885 18.9267 15.3363 18.7175 15.5456C18.5082 15.7548 18.2604 15.8595 17.974 15.8595C17.6877 15.8595 17.4399 15.7548 17.2306 15.5456C17.0214 15.3363 16.9168 15.0885 16.9168 14.8022V3.60142L1.81723 18.734C1.70709 18.8221 1.59145 18.8937 1.4703 18.9487C1.34915 19.0038 1.21149 19.0313 1.0573 19.0313C0.770944 19.0313 0.523143 18.9267 0.313885 18.7175C0.104627 18.5082 0 18.2604 0 17.974C0 17.8199 0.0275331 17.6822 0.0826013 17.561C0.13767 17.4399 0.209256 17.3243 0.297365 17.2141L15.4299 2.11459H4.22919C3.94283 2.11459 3.69503 2.00997 3.48578 1.80071C3.27652 1.59145 3.17189 1.34365 3.17189 1.0573C3.17189 0.770944 3.27652 0.523143 3.48578 0.313885C3.69503 0.104627 3.94283 0 4.22919 0H17.974C18.2604 0 18.5082 0.104627 18.7175 0.313885C18.9267 0.523143 19.0313 0.770944 19.0313 1.0573Z" fill="var(--fill-0, black)"/>
</svg>
