<svg preserveAspectRatio="none" width="100%" height="100%" overflow="visible" style="display: block;" viewBox="0 0 8 8" fill="none" xmlns="http://www.w3.org/2000/svg">
<path id="Vector" d="M8 0.444444V6.22222C8 6.34259 7.95602 6.44676 7.86806 6.53472C7.78009 6.62269 7.67593 6.66667 7.55556 6.66667C7.43518 6.66667 7.33102 6.62269 7.24306 6.53472C7.15509 6.44676 7.11111 6.34259 7.11111 6.22222V1.51389L0.763889 7.875C0.717592 7.91204 0.668982 7.94213 0.618056 7.96528C0.567129 7.98843 0.50926 8 0.444444 8C0.324073 8 0.219908 7.95602 0.131944 7.86806C0.0439809 7.78009 0 7.67593 0 7.55556C0 7.49074 0.0115738 7.43287 0.0347222 7.38194C0.0578707 7.33102 0.0879627 7.28241 0.125 7.23611L6.48611 0.888889H1.77778C1.65741 0.888889 1.55324 0.844908 1.46528 0.756944C1.37731 0.668981 1.33333 0.564816 1.33333 0.444444C1.33333 0.324073 1.37731 0.219908 1.46528 0.131944C1.55324 0.0439809 1.65741 0 1.77778 0H7.55556C7.67593 0 7.78009 0.0439809 7.86806 0.131944C7.95602 0.219908 8 0.324073 8 0.444444Z" fill="var(--fill-0, white)"/>
</svg>
