<svg preserveAspectRatio="none" width="100%" height="100%" overflow="visible" style="display: block;" viewBox="0 0 1957 1275" fill="none" xmlns="http://www.w3.org/2000/svg">
<g id="Pattern Bgr" opacity="0.7" clip-path="url(#clip0_672_194)">
<path id="Vector" d="M57.7012 1207.02H138.585L147.438 1187.05H228.322L237.174 1167.07H318.058L326.911 1147.09H407.795L416.647 1127.11H497.304L506.157 1107.14H587.041L595.893 1087.16H676.777L685.63 1067.18H766.514L775.366 1047.22H856.25L865.103 1027.25H945.987L954.839 1007.27H1035.72L1044.58 987.311H1125.46L1134.31 967.334H1215.2L1224.05 947.356H1304.93L1313.79 927.399H1394.67L1403.52 907.422H1484.18L1493.03 887.444H1573.92L1582.77 867.467H1663.65L1672.5 847.489H1753.39L1762.24 827.532H1843.13L1851.98 807.555H1932.72L1941.57 787.577H1854.41L1845.56 807.555H1764.67L1755.82 827.532H1674.94L1666.09 847.489H1585.2L1576.35 867.467H1495.47L1486.61 887.444H1405.73L1396.88 907.422H1316.22L1307.37 927.399H1226.48L1217.63 947.356H1136.75L1127.89 967.334H1047.01L1038.16 987.311H957.273L948.421 1007.27H867.537L858.684 1027.25H777.8L768.948 1047.22H688.064L679.211 1067.18H598.327L589.475 1087.16H508.591L499.738 1107.14H418.854L410.002 1127.11H329.345L320.492 1147.09H239.608L230.756 1167.07H149.871L141.019 1187.05H60.1352L51.2827 1207.02H-29.6013L-38.454 1227H48.7042L57.5568 1207.02H57.7012ZM57.6931 1102.01H138.577L147.43 1082.03H228.314L237.166 1062.06H318.05L326.903 1042.08H407.787L416.639 1022.12H497.296L506.149 1002.15H587.033L595.885 982.168H676.769L685.622 962.21H766.506L775.358 942.233H856.242L865.095 922.256H945.979L954.831 902.298H1035.72L1044.57 882.321H1125.45L1134.3 862.343H1215.19L1224.04 842.366H1304.92L1313.78 822.389H1394.66L1403.51 802.431H1484.17L1493.02 782.454H1573.91L1582.76 762.476H1663.64L1672.5 742.519H1753.38L1762.23 722.542H1843.12L1851.97 702.564H1932.71L1941.56 682.587H1854.4L1845.55 702.564H1764.67L1755.81 722.542H1674.93L1666.08 742.519H1585.19L1576.34 762.476H1495.46L1486.6 782.454H1405.72L1396.87 802.431H1316.21L1307.36 822.389H1226.47L1217.62 842.366H1136.74L1127.89 862.343H1047L1038.15 882.321H957.265L948.413 902.298H867.529L858.676 922.256H777.792L768.94 942.233H688.056L679.203 962.21H598.319L589.466 982.168H508.583L499.73 1002.15H418.846L409.994 1022.12H329.337L320.484 1042.08H239.6L230.748 1062.06H149.863L141.011 1082.03H60.1272L51.2746 1102.01H-29.6093L-38.4621 1121.99H48.6962L57.5487 1102.01H57.6931ZM1860.95 755.169H1780.07L1771.22 775.126H1690.33L1681.48 795.104H1600.59L1591.74 815.081H1510.86L1502.01 835.038H1421.12L1412.27 855.016H1331.61L1322.76 874.993H1241.88L1233.02 894.971H1152.14L1143.29 914.948H1062.4L1053.55 934.905H972.666L963.813 954.883H882.929L874.077 974.86H793.193L784.34 994.818H703.456L694.604 1014.8H613.72L604.867 1034.77H523.983L515.131 1054.73H434.247L425.394 1074.71H344.737L335.885 1094.68H255.001L246.148 1114.66H165.264L156.412 1134.64H75.5278L66.6752 1154.62H-14.2089L-23.0615 1174.59H64.0968L72.9495 1154.62H153.833L162.686 1134.64H243.57L252.423 1114.66H333.306L342.159 1094.68H423.043L431.896 1074.71H512.552L521.405 1054.73H602.289L611.141 1034.77H692.025L700.878 1014.8H781.762L790.614 994.818H871.499L880.351 974.86H961.235L970.088 954.883H1050.97L1059.82 934.905H1140.71L1149.56 914.948H1230.44L1239.3 894.971H1320.18L1329.03 874.993H1409.92L1418.77 855.016H1499.43L1508.28 835.038H1589.16L1598.02 815.081H1678.9L1687.75 795.104H1768.64L1777.49 775.126H1858.37L1867.23 755.169H1948.11L1956.96 735.191H1869.8L1860.95 755.169ZM1860.94 650.158H1780.06L1771.21 670.136H1690.32L1681.47 690.113H1600.59L1591.73 710.09H1510.85L1502 730.068H1421.11L1412.26 750.025H1331.6L1322.75 770.003H1241.87L1233.01 789.98H1152.13L1143.28 809.938H1062.39L1053.54 829.915H972.658L963.805 849.892H882.921L874.069 869.87H793.185L784.332 889.847H703.448L694.596 909.805H613.712L604.859 929.782H523.975L515.123 949.759H434.239L425.386 969.717H344.729L335.877 989.694H254.993L246.14 1009.67H165.256L156.404 1029.63H75.5197L66.6672 1049.61H-14.217L-23.0695 1069.58H64.0888L72.9415 1049.61H153.825L162.678 1029.63H243.562L252.414 1009.67H333.298L342.151 989.694H423.035L431.887 969.717H512.544L521.397 949.759H602.281L611.133 929.782H692.017L700.87 909.805H781.754L790.606 889.847H871.491L880.343 869.87H961.227L970.08 849.892H1050.96L1059.82 829.915H1140.7L1149.55 809.938H1230.44L1239.29 789.98H1320.17L1329.03 770.003H1409.91L1418.76 750.025H1499.42L1508.27 730.068H1589.16L1598.01 710.09H1678.89L1687.74 690.113H1768.63L1777.48 670.136H1858.37L1867.22 650.158H1948.1L1956.95 630.201H1869.8L1860.94 650.158ZM57.6851 997.002H138.569L147.422 977.025H228.306L237.158 957.047H318.042L326.895 937.09H407.779L416.631 917.112H497.288L506.141 897.135H587.025L595.877 877.177H676.761L685.614 857.2H766.498L775.35 837.223H856.234L865.087 817.245H945.971L954.823 797.268H1035.71L1044.56 777.311H1125.44L1134.3 757.333H1215.18L1224.03 737.356H1304.92L1313.77 717.398H1394.65L1403.51 697.421H1484.16L1493.02 677.443H1573.9L1582.75 657.466H1663.64L1672.49 637.489H1753.37L1762.23 617.531H1843.11L1851.96 597.554H1932.7L1941.55 577.577H1854.4L1845.54 597.554H1764.66L1755.81 617.531H1674.92L1666.07 637.489H1585.19L1576.33 657.466H1495.45L1486.6 677.443H1405.71L1396.86 697.421H1316.2L1307.35 717.398H1226.47L1217.61 737.356H1136.73L1127.88 757.333H1046.99L1038.14 777.311H957.257L948.405 797.268H867.521L858.668 817.245H777.784L768.932 837.223H688.048L679.195 857.2H598.311L589.458 877.177H508.575L499.722 897.135H418.838L409.986 917.112H329.329L320.476 937.09H239.592L230.74 957.047H149.855L141.003 977.025H60.1191L51.2666 997.002H-29.6174L-38.4701 1016.96H48.6882L57.5407 997.002H57.6851ZM57.6771 891.992H138.561L147.414 872.014H228.298L237.15 852.037H318.034L326.887 832.06H407.771L416.623 812.102H497.28L506.133 792.125H587.017L595.869 772.147H676.753L685.606 752.19H766.49L775.342 732.213H856.226L865.079 712.235H945.963L954.815 692.278H1035.7L1044.55 672.3H1125.44L1134.29 652.323H1215.17L1224.02 632.346H1304.91L1313.76 612.368H1394.65L1403.5 592.411H1484.15L1493.01 572.433H1573.89L1582.74 552.456H1663.63L1672.48 532.498H1753.36L1762.22 512.521H1843.1L1851.95 492.544H1932.69L1941.55 472.586H1854.39L1845.53 492.544H1764.65L1755.8 512.521H1674.91L1666.06 532.498H1585.18L1576.33 552.456H1495.44L1486.59 572.433H1405.7L1396.85 592.411H1316.2L1307.34 612.368H1226.46L1217.61 632.346H1136.72L1127.87 652.323H1046.99L1038.13 672.3H957.249L948.397 692.278H867.513L858.66 712.235H777.776L768.923 732.213H688.04L679.187 752.19H598.303L589.45 772.147H508.567L499.714 792.125H418.83L409.977 812.102H329.321L320.468 832.06H239.584L230.732 852.037H149.847L140.995 872.014H60.1111L51.2585 891.992H-29.6254L-38.4782 911.969H48.6801L57.5327 891.992H57.6771ZM1860.94 545.148H1780.05L1771.2 565.106H1690.31L1681.46 585.083H1600.58L1591.73 605.06H1510.84L1501.99 625.018H1421.11L1412.25 644.995H1331.6L1322.74 664.973H1241.86L1233.01 684.95H1152.12L1143.27 704.927H1062.39L1053.53 724.885H972.65L963.797 744.862H882.913L874.061 764.839H793.177L784.324 784.797H703.44L694.588 804.775H613.704L604.851 824.752H523.967L515.115 844.729H434.231L425.378 864.687H344.721L335.869 884.664H254.985L246.132 904.641H165.248L156.396 924.619H75.5117L66.6591 944.576H-14.225L-23.0776 964.554H64.0807L72.9335 944.576H153.817L162.67 924.619H243.554L252.406 904.641H333.29L342.143 884.664H423.027L431.879 864.687H512.536L521.389 844.729H602.273L611.125 824.752H692.009L700.862 804.775H781.746L790.598 784.797H871.482L880.335 764.839H961.219L970.072 744.862H1050.96L1059.81 724.885H1140.69L1149.54 704.927H1230.43L1239.28 684.95H1320.17L1329.02 664.973H1409.9L1418.75 644.995H1499.41L1508.26 625.018H1589.15L1598 605.06H1678.88L1687.74 585.083H1768.62L1777.47 565.106H1858.36L1867.21 545.148H1948.09L1956.95 525.171H1869.79L1860.94 545.148ZM1860.93 440.138H1780.04L1771.19 460.115H1690.31L1681.45 480.073H1600.57L1591.72 500.05H1510.83L1501.98 520.027H1421.1L1412.24 539.985H1331.59L1322.74 559.962H1241.85L1233 579.94H1152.11L1143.26 599.897H1062.38L1053.53 619.874H972.642L963.789 639.852H882.905L874.053 659.829H793.169L784.316 679.807H703.432L694.58 699.764H613.696L604.843 719.742H523.959L515.107 739.719H434.223L425.37 759.676H344.713L335.86 779.654H254.977L246.124 799.631H165.24L156.388 819.589H75.5036L66.6511 839.566H-14.2331L-23.0856 859.543H64.0727L72.9254 839.566H153.809L162.662 819.589H243.546L252.398 799.631H333.282L342.135 779.654H423.019L431.871 759.676H512.528L521.381 739.719H602.265L611.117 719.742H692.001L700.854 699.764H781.738L790.59 679.807H871.474L880.327 659.829H961.211L970.063 639.852H1050.95L1059.8 619.874H1140.68L1149.54 599.897H1230.42L1239.27 579.94H1320.16L1329.01 559.962H1409.89L1418.75 539.985H1499.4L1508.26 520.027H1589.14L1597.99 500.05H1678.88L1687.73 480.073H1768.61L1777.47 460.115H1858.35L1867.2 440.138H1948.09L1956.94 420.16H1869.78L1860.93 440.138ZM57.669 786.962H138.553L147.406 766.984H228.289L237.142 747.007H318.026L326.879 727.049H407.763L416.615 707.072H497.272L506.125 687.095H587.009L595.861 667.137H676.745L685.598 647.16H766.482L775.334 627.182H856.218L865.071 607.205H945.955L954.807 587.228H1035.69L1044.54 567.27H1125.43L1134.28 547.293H1215.16L1224.02 527.315H1304.9L1313.75 507.358H1394.64L1403.49 487.381H1484.15L1493 467.403H1573.88L1582.74 447.445H1663.62L1672.47 427.468H1753.36L1762.21 407.491H1843.09L1851.95 387.513H1932.68L1941.54 367.536H1854.38L1845.53 387.513H1764.64L1755.79 407.491H1674.91L1666.05 427.468H1585.17L1576.32 447.445H1495.43L1486.58 467.403H1405.7L1396.84 487.381H1316.19L1307.33 507.358H1226.45L1217.6 527.315H1136.71L1127.86 547.293H1046.98L1038.13 567.27H957.241L948.389 587.228H867.505L858.652 607.205H777.768L768.915 627.182H688.032L679.179 647.16H598.295L589.442 667.137H508.558L499.706 687.095H418.822L409.969 707.072H329.313L320.46 727.049H239.576L230.723 747.007H149.839L140.987 766.984H60.103L51.2505 786.962H-29.6335L-38.4862 806.919H48.6721L57.5246 786.962H57.669ZM57.661 681.951H138.545L147.397 661.974H228.281L237.134 642.016H318.018L326.871 622.039H407.755L416.607 602.062H497.264L506.117 582.084H587L595.853 562.107H676.737L685.59 542.149H766.474L775.326 522.172H856.21L865.063 502.195H945.947L954.799 482.237H1035.68L1044.54 462.26H1125.42L1134.27 442.282H1215.16L1224.01 422.305H1304.89L1313.75 402.328H1394.63L1403.48 382.37H1484.14L1492.99 362.393H1573.88L1582.73 342.416H1663.61L1672.46 322.458H1753.35L1762.2 302.48H1843.08L1851.94 282.503H1932.68L1941.53 262.546H1854.37L1845.52 282.503H1764.63L1755.78 302.48H1674.9L1666.05 322.458H1585.16L1576.31 342.416H1495.43L1486.57 362.393H1405.69L1396.84 382.37H1316.18L1307.33 402.328H1226.44L1217.59 422.305H1136.71L1127.85 442.282H1046.97L1038.12 462.26H957.233L948.38 482.237H867.497L858.644 502.195H777.76L768.907 522.172H688.024L679.171 542.149H598.287L589.434 562.107H508.55L499.698 582.084H418.814L409.961 602.062H329.304L320.452 622.039H239.568L230.715 642.016H149.831L140.979 661.974H60.095L51.2424 681.951H-29.6415L-38.4943 701.929H48.664L57.5166 681.951H57.661ZM1860.92 335.107H1780.04L1771.18 355.065H1690.3L1681.45 375.042H1600.56L1591.71 395.02H1510.83L1501.97 414.997H1421.09L1412.24 434.955H1331.58L1322.73 454.932H1241.84L1232.99 474.909H1152.11L1143.25 494.887H1062.37L1053.52 514.844H972.634L963.781 534.822H882.897L874.045 554.799H793.161L784.308 574.757H703.424L694.572 594.734H613.688L604.835 614.711H523.951L515.099 634.689H434.215L425.362 654.666H344.705L335.852 674.624H254.969L246.116 694.601H165.232L156.38 714.578H75.4956L66.6431 734.536H-14.2411L-23.0936 754.513H64.0646L72.9174 734.536H153.801L162.654 714.578H243.538L252.39 694.601H333.274L342.127 674.624H423.011L431.863 654.666H512.52L521.373 634.689H602.257L611.109 614.711H691.993L700.846 594.734H781.73L790.582 574.757H871.466L880.319 554.799H961.203L970.055 534.822H1050.94L1059.79 514.844H1140.68L1149.53 494.887H1230.41L1239.26 474.909H1320.15L1329 454.932H1409.89L1418.74 434.955H1499.39L1508.25 414.997H1589.13L1597.98 395.02H1678.87L1687.72 375.042H1768.6L1777.46 355.065H1858.34L1867.19 335.107H1948.08L1956.93 315.13H1869.77L1860.92 335.107ZM1860.91 230.097H1780.03L1771.17 250.075H1690.29L1681.44 270.032H1600.55L1591.7 290.009H1510.82L1501.97 309.987H1421.08L1412.23 329.944H1331.57L1322.72 349.922H1241.84L1232.98 369.899H1152.1L1143.25 389.857H1062.36L1053.51 409.834H972.626L963.773 429.811H882.889L874.037 449.789H793.153L784.3 469.766H703.416L694.564 489.724H613.68L604.827 509.701H523.943L515.091 529.678H434.207L425.354 549.636H344.697L335.844 569.613H254.961L246.108 589.591H165.224L156.372 609.568H75.4875L66.635 629.545H-14.2491L-23.1017 649.503H64.0566L72.9093 629.545H153.793L162.646 609.568H243.53L252.382 589.591H333.266L342.119 569.613H423.003L431.855 549.636H512.512L521.365 529.678H602.249L611.101 509.701H691.985L700.838 489.724H781.722L790.574 469.766H871.458L880.311 449.789H961.195L970.047 429.811H1050.93L1059.78 409.834H1140.67L1149.52 389.857H1230.4L1239.26 369.899H1320.14L1328.99 349.922H1409.88L1418.73 329.944H1499.39L1508.24 309.987H1589.12L1597.98 290.009H1678.86L1687.71 270.032H1768.6L1777.45 250.075H1858.33L1867.19 230.097H1948.07L1956.92 210.12H1869.76L1860.91 230.097ZM57.6529 576.941H138.537L147.389 556.964H228.273L237.126 536.986H318.01L326.863 517.029H407.746L416.599 497.051H497.256L506.108 477.074H586.992L595.845 457.117H676.729L685.582 437.139H766.466L775.318 417.162H856.202L865.055 397.184H945.939L954.791 377.207H1035.68L1044.53 357.249H1125.41L1134.26 337.272H1215.15L1224 317.295H1304.88L1313.74 297.337H1394.62L1403.47 277.36H1484.13L1492.98 257.382H1573.87L1582.72 237.425H1663.6L1672.46 217.448H1753.34L1762.19 197.47H1843.08L1851.93 177.493H1932.67L1941.52 157.515H1854.36L1845.51 177.493H1764.63L1755.77 197.47H1674.89L1666.04 217.448H1585.15L1576.3 237.425H1495.42L1486.56 257.382H1405.68L1396.83 277.36H1316.17L1307.32 297.337H1226.43L1217.58 317.295H1136.7L1127.85 337.272H1046.96L1038.11 357.249H957.225L948.372 377.207H867.489L858.636 397.184H777.752L768.899 417.162H688.015L679.163 437.139H598.279L589.426 457.117H508.542L499.69 477.074H418.806L409.953 497.051H329.296L320.444 517.029H239.56L230.707 536.986H149.823L140.971 556.964H60.0869L51.2344 576.941H-29.6496L-38.5023 596.918H48.656L57.5085 576.941H57.6529ZM57.6449 471.931H138.529L147.381 451.953H228.265L237.118 431.996H318.002L326.855 412.018H407.738L416.591 392.041H497.248L506.1 372.064H586.984L595.837 352.086H676.721L685.574 332.129H766.458L775.31 312.151H856.194L865.047 292.174H945.931L954.783 272.216H1035.67L1044.52 252.239H1125.4L1134.26 232.262H1215.14L1223.99 212.304H1304.88L1313.73 192.327H1394.61L1403.47 172.349H1484.12L1492.98 152.372H1573.86L1582.71 132.395H1663.6L1672.45 112.437H1753.33L1762.18 92.4599H1843.07L1851.92 72.4825H1932.66L1941.51 52.5252H1854.36L1845.5 72.4825H1764.62L1755.77 92.4599H1674.88L1666.03 112.437H1585.15L1576.29 132.395H1495.41L1486.56 152.372H1405.67L1396.82 172.349H1316.16L1307.31 192.327H1226.43L1217.57 212.304H1136.69L1127.84 232.262H1046.95L1038.1 252.239H957.217L948.364 272.216H867.481L858.628 292.174H777.744L768.891 312.151H688.007L679.155 332.129H598.271L589.418 352.086H508.534L499.682 372.064H418.798L409.945 392.041H329.288L320.436 412.018H239.552L230.699 431.996H149.815L140.963 451.953H60.0789L51.2264 471.931H-29.6576L-38.5103 491.908H48.6479L57.5005 471.931H57.6449ZM1860.9 125.087H1780.02L1771.17 145.044H1690.28L1681.43 165.022H1600.55L1591.69 184.999H1510.81L1501.96 204.977H1421.07L1412.22 224.954H1331.56L1322.71 244.911H1241.83L1232.97 264.889H1152.09L1143.24 284.866H1062.35L1053.5 304.824H972.618L963.765 324.801H882.881L874.029 344.779H793.145L784.292 364.736H703.408L694.556 384.713H613.672L604.819 404.691H523.935L515.083 424.668H434.199L425.346 444.646H344.689L335.836 464.603H254.953L246.1 484.58H165.216L156.363 504.558H75.4795L66.627 524.515H-14.2572L-23.1097 544.493H64.0485L72.9013 524.515H153.785L162.638 504.558H243.522L252.374 484.58H333.258L342.111 464.603H422.995L431.847 444.646H512.504L521.357 424.668H602.241L611.093 404.691H691.977L700.83 384.713H781.714L790.566 364.736H871.45L880.303 344.779H961.187L970.039 324.801H1050.92L1059.78 304.824H1140.66L1149.51 284.866H1230.4L1239.25 264.889H1320.13L1328.99 244.911H1409.87L1418.72 224.954H1499.38L1508.23 204.977H1589.12L1597.97 184.999H1678.85L1687.7 165.022H1768.59L1777.44 145.044H1858.32L1867.18 125.087H1948.06L1956.91 105.11H1869.76L1860.9 125.087ZM73.0376 419.426H153.922L162.774 399.448H243.658L252.511 379.471H333.394L342.247 359.493H423.131L431.984 339.516H512.641L521.493 319.559H602.377L611.23 299.581H692.114L700.966 279.604H781.85L790.703 259.646H871.587L880.439 239.669H961.323L970.176 219.692H1051.06L1059.91 199.734H1140.8L1149.65 179.757H1230.53L1239.39 159.779H1320.27L1329.12 139.802H1410.01L1418.86 119.824H1499.52L1508.37 99.867H1589.25L1598.1 79.8896H1678.99L1687.84 59.9123H1768.72L1777.58 39.9548H1858.46L1867.31 19.9774H1948.05L1956.91 4.23177e-05H1869.75L1860.9 19.9774H1780.01L1771.16 39.9548H1690.27L1681.42 59.9123H1600.54L1591.69 79.8896H1510.8L1501.95 99.867H1421.07L1412.21 119.824H1331.56L1322.7 139.802H1241.82L1232.97 159.779H1152.08L1143.23 179.757H1062.35L1053.49 199.734H972.61L963.757 219.692H882.873L874.021 239.669H793.137L784.284 259.646H703.4L694.547 279.604H613.664L604.811 299.581H523.927L515.074 319.559H434.191L425.338 339.516H344.681L335.828 359.493H254.944L246.092 379.471H165.208L156.355 399.448H75.4715L66.6189 419.426H-14.2652L-23.1178 439.383H64.0405L72.8932 419.426H73.0376Z" fill="url(#paint0_linear_672_194)"/>
</g>
<defs>
<linearGradient id="paint0_linear_672_194" x1="1014.95" y1="195" x2="1198.89" y2="1030.51" gradientUnits="userSpaceOnUse">
<stop/>
<stop offset="0.45" stop-color="#171618"/>
<stop offset="1"/>
</linearGradient>
<clipPath id="clip0_672_194">
<rect width="1957" height="1275" fill="white"/>
</clipPath>
</defs>
</svg>
