<svg width="111" height="40" viewBox="0 0 111 40" fill="none" xmlns="http://www.w3.org/2000/svg">
<g clip-path="url(#clip0_582_13042)">
<path d="M21.9504 28.3661C18.662 22.9912 13.7588 19.9446 7.70368 18.6764C5.56223 18.2306 3.41094 18.2355 1.3335 19.0579C-0.0892099 19.6226 -0.305816 20.2171 0.363693 21.7181C4.91242 20.6332 9.14608 21.6438 13.109 23.9473C17.1014 26.2707 20.0798 29.5055 21.4335 34.1027C23.3338 33.5181 23.5799 33.1961 23.1221 31.4177C22.8513 30.3724 22.5116 29.2826 21.9504 28.3661Z" fill="url(#paint0_linear_582_13042)" style=""/>
<path d="M25.5497 23.9926C21.3259 17.8003 15.3446 14.3376 8.03417 13.1784C6.09949 12.8713 4.12542 12.9555 2.31381 13.8868C1.44738 14.3326 0.679416 14.9023 0.472656 16.1111C6.17333 14.5308 11.2882 15.9278 16.1027 18.7366C20.9419 21.5603 24.7227 25.35 26.1946 31.1757C27.2186 30.2642 27.4007 29.1446 27.1349 28.1043C26.7706 26.6776 26.3571 25.1766 25.5497 23.9926Z" fill="url(#paint1_linear_582_13042)" style=""/>
<path d="M0.732422 24.3889C1.09179 25.1914 1.32809 26.098 1.86468 26.7469C2.13544 27.0788 2.95756 26.95 3.52861 27.0293C3.61722 27.0392 3.70583 27.0541 3.79444 27.064C8.86006 27.8219 12.8574 30.2889 15.7127 34.5938C15.8801 34.8464 16.1508 35.2229 16.3724 35.2229C17.2289 35.218 18.0904 35.0842 18.9569 35C17.6671 27.8021 7.02384 21.8971 0.732422 24.3889Z" fill="url(#paint2_linear_582_13042)" style=""/>
<path d="M27.8865 18.3495C25.0953 14.4211 21.2456 11.8055 16.8741 9.94288C13.8465 8.64993 10.7107 7.87217 7.38281 8.27343C6.23086 8.41214 5.15276 8.74405 4.26172 9.49703C15.6286 9.78435 24.1796 14.7382 30.0575 24.522C30.0674 23.8731 30.1658 23.1498 29.9295 22.5652C29.3388 21.1138 28.7776 19.6029 27.8865 18.3495Z" fill="url(#paint3_linear_582_13042)" style=""/>
<path d="M30.5073 16.2987C28.1936 7.43628 18.7909 3.17103 11.8398 5.3309C19.3275 6.81705 25.4712 10.4086 30.5073 16.2987Z" fill="url(#paint4_linear_582_13042)" style=""/>
<path d="M3.21484 29.1094C5.90273 32.5424 9.31919 34.5437 13.7005 35.1927C12.0268 32.047 6.12918 28.6437 3.21484 29.1094Z" fill="url(#paint5_linear_582_13042)" style=""/>
<path d="M47.1946 11.8015H49.9256V22.4879C49.9206 23.4675 49.7128 24.3111 49.3022 25.0186C48.8915 25.7211 48.3176 26.2628 47.5805 26.6438C46.8483 27.0198 45.9948 27.2078 45.0202 27.2078C44.1296 27.2078 43.3282 27.0495 42.6157 26.7328C41.9082 26.4113 41.3467 25.9363 40.9311 25.308C40.5155 24.6797 40.3078 23.898 40.3078 22.9629H43.0462C43.0511 23.3735 43.1402 23.7273 43.3133 24.0241C43.4914 24.321 43.7363 24.5485 44.048 24.7069C44.3597 24.8652 44.7184 24.9443 45.1241 24.9443C45.5644 24.9443 45.9379 24.8528 46.2447 24.6698C46.5514 24.4818 46.7839 24.2047 46.9423 23.8386C47.1055 23.4725 47.1896 23.0223 47.1946 22.4879V11.8015ZM60.0591 22.2059V15.6011H62.7456V27H60.1408V24.974H60.022C59.7647 25.6122 59.3417 26.1342 58.753 26.5399C58.1692 26.9456 57.4494 27.1484 56.5934 27.1484C55.8464 27.1484 55.1859 26.9827 54.612 26.6512C54.043 26.3148 53.5978 25.8275 53.2762 25.1892C52.9546 24.5461 52.7938 23.7693 52.7938 22.859V15.6011H55.4803V22.4434C55.4803 23.1657 55.6782 23.7396 56.074 24.1651C56.4698 24.5906 56.9892 24.8033 57.6324 24.8033C58.0282 24.8033 58.4116 24.7069 58.7827 24.5139C59.1537 24.321 59.458 24.034 59.6955 23.6531C59.9379 23.2672 60.0591 22.7848 60.0591 22.2059ZM65.5081 31.2746V15.6011H68.15V17.4861H68.3059C68.4444 17.209 68.6398 16.9147 68.8921 16.603C69.1445 16.2863 69.4858 16.0167 69.9163 15.7941C70.3467 15.5665 70.8958 15.4527 71.5637 15.4527C72.4444 15.4527 73.2384 15.6778 73.9459 16.128C74.6584 16.5733 75.2224 17.2338 75.638 18.1095C76.0585 18.9802 76.2687 20.0489 76.2687 21.3154C76.2687 22.5671 76.0634 23.6308 75.6528 24.5065C75.2422 25.3822 74.6831 26.0501 73.9756 26.5102C73.2681 26.9703 72.4667 27.2004 71.5712 27.2004C70.9181 27.2004 70.3764 27.0915 69.9459 26.8738C69.5155 26.6562 69.1692 26.3939 68.907 26.0872C68.6497 25.7755 68.4493 25.4811 68.3059 25.2041H68.1945V31.2746H65.5081ZM68.1426 21.3006C68.1426 22.0377 68.2465 22.6834 68.4543 23.2375C68.667 23.7916 68.9713 24.2245 69.3671 24.5362C69.7678 24.8429 70.2527 24.9963 70.8216 24.9963C71.4153 24.9963 71.9125 24.838 72.3133 24.5213C72.714 24.1998 73.0158 23.7619 73.2187 23.2078C73.4265 22.6487 73.5303 22.013 73.5303 21.3006C73.5303 20.5931 73.4289 19.9648 73.2261 19.4156C73.0232 18.8664 72.7214 18.436 72.3207 18.1243C71.92 17.8126 71.4203 17.6568 70.8216 17.6568C70.2477 17.6568 69.7604 17.8077 69.3597 18.1095C68.9589 18.4113 68.6547 18.8343 68.4469 19.3785C68.244 19.9227 68.1426 20.5634 68.1426 21.3006ZM78.5693 27V15.6011H81.2558V27H78.5693ZM79.9199 13.9833C79.4945 13.9833 79.1284 13.8423 78.8216 13.5603C78.5149 13.2734 78.3615 12.9295 78.3615 12.5288C78.3615 12.1231 78.5149 11.7792 78.8216 11.4972C79.1284 11.2103 79.4945 11.0668 79.9199 11.0668C80.3504 11.0668 80.7165 11.2103 81.0183 11.4972C81.325 11.7792 81.4784 12.1231 81.4784 12.5288C81.4784 12.9295 81.325 13.2734 81.0183 13.5603C80.7165 13.8423 80.3504 13.9833 79.9199 13.9833ZM89.7103 15.6011V17.679H83.1574V15.6011H89.7103ZM84.7752 12.8701H87.4617V23.5714C87.4617 23.9326 87.5161 24.2097 87.625 24.4026C87.7387 24.5906 87.8872 24.7192 88.0702 24.7885C88.2533 24.8578 88.4561 24.8924 88.6788 24.8924C88.847 24.8924 89.0003 24.88 89.1389 24.8553C89.2823 24.8306 89.3912 24.8083 89.4654 24.7885L89.9181 26.8887C89.7746 26.9382 89.5693 26.9926 89.3021 27.0519C89.0399 27.1113 88.7183 27.1459 88.3374 27.1558C87.6645 27.1756 87.0585 27.0742 86.5192 26.8516C85.9799 26.624 85.552 26.2727 85.2353 25.7978C84.9237 25.3228 84.7703 24.7291 84.7752 24.0167V12.8701ZM96.881 27.2226C95.7381 27.2226 94.7511 26.9852 93.9199 26.5102C93.0937 26.0303 92.458 25.3525 92.0127 24.4768C91.5674 23.5962 91.3448 22.5597 91.3448 21.3674C91.3448 20.1948 91.5674 19.1657 92.0127 18.2802C92.4629 17.3896 93.0912 16.697 93.8977 16.2022C94.7041 15.7025 95.6515 15.4527 96.74 15.4527C97.4425 15.4527 98.1055 15.5665 98.7288 15.7941C99.3572 16.0167 99.9113 16.363 100.391 16.833C100.876 17.303 101.257 17.9017 101.534 18.629C101.811 19.3513 101.95 20.2121 101.95 21.2115V22.0353H92.6064V20.2245H99.3745C99.3695 19.71 99.2582 19.2523 99.0405 18.8516C98.8228 18.4459 98.5186 18.1268 98.1277 17.8943C97.7418 17.6617 97.2916 17.5455 96.7771 17.5455C96.2279 17.5455 95.7455 17.679 95.33 17.9462C94.9144 18.2084 94.5903 18.5547 94.3578 18.9852C94.1302 19.4106 94.0139 19.8782 94.009 20.3878V21.9685C94.009 22.6314 94.1302 23.2004 94.3726 23.6753C94.615 24.1453 94.9539 24.5065 95.3893 24.7588C95.8247 25.0062 96.3343 25.1299 96.9181 25.1299C97.3089 25.1299 97.6627 25.0755 97.9793 24.9666C98.2959 24.8528 98.5705 24.6871 98.803 24.4694C99.0356 24.2517 99.2112 23.9821 99.3299 23.6605L101.838 23.9425C101.68 24.6054 101.378 25.1843 100.933 25.679C100.493 26.1688 99.9286 26.5498 99.2409 26.8219C98.5532 27.0891 97.7666 27.2226 96.881 27.2226ZM104.222 27V15.6011H106.827V17.5009H106.946C107.154 16.8429 107.51 16.3358 108.015 15.9796C108.524 15.6184 109.105 15.4379 109.759 15.4379C109.907 15.4379 110.073 15.4453 110.256 15.4601C110.444 15.47 110.6 15.4873 110.723 15.5121V17.9833C110.609 17.9437 110.429 17.9091 110.182 17.8794C109.939 17.8448 109.704 17.8275 109.476 17.8275C108.987 17.8275 108.546 17.9338 108.156 18.1466C107.77 18.3544 107.465 18.6438 107.243 19.0149C107.02 19.3859 106.909 19.8139 106.909 20.2987V27H104.222Z" fill="white" style="fill:white;fill-opacity:1;"/>
</g>
<defs>
<linearGradient id="paint0_linear_582_13042" x1="23.8667" y1="6.8282" x2="7.65292" y2="32.6732" gradientUnits="userSpaceOnUse">
<stop offset="0.16" stop-color="#C6F462" style="stop-color:#C6F462;stop-color:color(display-p3 0.7765 0.9569 0.3843);stop-opacity:1;"/>
<stop offset="0.89" stop-color="#33D9FF" style="stop-color:#33D9FF;stop-color:color(display-p3 0.2000 0.8510 1.0000);stop-opacity:1;"/>
</linearGradient>
<linearGradient id="paint1_linear_582_13042" x1="23.7524" y1="6.75672" x2="7.53908" y2="32.6017" gradientUnits="userSpaceOnUse">
<stop offset="0.16" stop-color="#C6F462" style="stop-color:#C6F462;stop-color:color(display-p3 0.7765 0.9569 0.3843);stop-opacity:1;"/>
<stop offset="0.89" stop-color="#33D9FF" style="stop-color:#33D9FF;stop-color:color(display-p3 0.2000 0.8510 1.0000);stop-opacity:1;"/>
</linearGradient>
<linearGradient id="paint2_linear_582_13042" x1="23.9691" y1="6.89358" x2="7.75577" y2="32.7386" gradientUnits="userSpaceOnUse">
<stop offset="0.16" stop-color="#C6F462" style="stop-color:#C6F462;stop-color:color(display-p3 0.7765 0.9569 0.3843);stop-opacity:1;"/>
<stop offset="0.89" stop-color="#33D9FF" style="stop-color:#33D9FF;stop-color:color(display-p3 0.2000 0.8510 1.0000);stop-opacity:1;"/>
</linearGradient>
<linearGradient id="paint3_linear_582_13042" x1="23.5754" y1="6.64601" x2="7.36167" y2="32.491" gradientUnits="userSpaceOnUse">
<stop offset="0.16" stop-color="#C6F462" style="stop-color:#C6F462;stop-color:color(display-p3 0.7765 0.9569 0.3843);stop-opacity:1;"/>
<stop offset="0.89" stop-color="#33D9FF" style="stop-color:#33D9FF;stop-color:color(display-p3 0.2000 0.8510 1.0000);stop-opacity:1;"/>
</linearGradient>
<linearGradient id="paint4_linear_582_13042" x1="23.7087" y1="6.72829" x2="7.49496" y2="32.5733" gradientUnits="userSpaceOnUse">
<stop offset="0.16" stop-color="#C6F462" style="stop-color:#C6F462;stop-color:color(display-p3 0.7765 0.9569 0.3843);stop-opacity:1;"/>
<stop offset="0.89" stop-color="#33D9FF" style="stop-color:#33D9FF;stop-color:color(display-p3 0.2000 0.8510 1.0000);stop-opacity:1;"/>
</linearGradient>
<linearGradient id="paint5_linear_582_13042" x1="24.07" y1="6.95529" x2="7.85669" y2="32.8003" gradientUnits="userSpaceOnUse">
<stop offset="0.16" stop-color="#C6F462" style="stop-color:#C6F462;stop-color:color(display-p3 0.7765 0.9569 0.3843);stop-opacity:1;"/>
<stop offset="0.89" stop-color="#33D9FF" style="stop-color:#33D9FF;stop-color:color(display-p3 0.2000 0.8510 1.0000);stop-opacity:1;"/>
</linearGradient>
<clipPath id="clip0_582_13042">
<rect width="111" height="32" fill="white" style="fill:white;fill-opacity:1;" transform="translate(0 4)"/>
</clipPath>
</defs>
</svg>
