<svg height="56.7" fill="currentColor" viewBox="0 0 56.7 56.7" width="56.7" xml:space="preserve" xmlns="http://www.w3.org/2000/svg"><path d="M53.048 28.446a5.696 5.696 0 0 0-5.69-5.69 5.647 5.647 0 0 0-3.75 1.419c-3.763-2.408-8.784-3.925-14.322-4.089l3.389-11.59 8.32 1.546c0 .068-.014.132-.01.2a3.6 3.6 0 0 0 3.774 3.408 3.6 3.6 0 0 0 3.407-3.774 3.6 3.6 0 0 0-3.774-3.408 3.587 3.587 0 0 0-2.945 1.84l-.003-.001-10.026-1.863-3.993 13.64c-5.552.147-10.589 1.656-14.368 4.059a5.647 5.647 0 0 0-3.715-1.387 5.697 5.697 0 0 0-5.69 5.69c0 1.94.999 3.73 2.617 4.774a10.124 10.124 0 0 0-.155 1.73c0 8.212 9.956 14.894 22.194 14.894S50.5 43.162 50.5 34.949c0-.568-.052-1.128-.145-1.68a5.69 5.69 0 0 0 2.692-4.823zM17.76 32.318a3.496 3.496 0 1 1 6.993.002 3.496 3.496 0 0 1-6.993-.002zm18.79 9.458c-.104.108-2.613 2.661-8.283 2.661-5.7 0-7.98-2.588-8.073-2.698a.894.894 0 0 1 1.352-1.168c.052.056 1.954 2.079 6.72 2.079 4.85 0 6.976-2.095 6.998-2.115a.895.895 0 0 1 1.286 1.24zm-.695-5.961a3.496 3.496 0 1 1-.003-6.992 3.496 3.496 0 0 1 .003 6.992z"/></svg>