<svg xmlns="http://www.w3.org/2000/svg" width="343" height="79" fill="none" viewBox="0 0 343 79"><path fill="#e7d2f9" d="M95.61 10.946h10.246V34.32H95.61zm0 31.484h10.246v26.148H95.61zm10.246 26.148h17.183c14.941 0 17.609-6.404 17.609-12.914S137.98 42.43 123.039 42.43h-17.183v-8.11h17.716c10.246 0 13.234-6.725 13.234-11.954s-2.988-11.42-13.234-11.42h-17.716V2.408h18.997c16.969 0 23.266 10.353 23.266 20.171 0 5.23-2.561 12.06-9.712 14.835v.214c10.78 2.988 13.448 10.779 13.448 17.823 0 11.1-6.617 21.665-28.069 21.665h-17.93zM166.263 10.946h10.245v28.71h-10.245zm10.245 66.17h-10.245V47.553h10.245zm0-37.46h14.942c12.38 0 16.436-4.91 16.436-14.409 0-9.498-4.056-14.3-16.436-14.3h-14.942V2.407h17.93c16.97 0 24.334 9.499 24.334 22.52s-7.364 22.625-24.334 22.625h-17.93zM268.612 21.299c0-8.004-6.937-12.38-14.087-12.38-7.151 0-14.088 4.803-15.155 12.7h-10.033C231.579 8.6 239.583.701 255.272.701s23.906 9.605 23.906 20.598c0 21.665-38.741 33.298-38.741 46.853h-10.673c0-15.796 38.848-28.603 38.848-46.853m10.993 46.853v8.964h-39.168v-8.965zM303.405 33.892h.213c3.629-3.202 9.392-5.016 15.582-5.016 12.807 0 23.8 8.325 23.8 24.867 0 15.475-9.712 25.08-25.614 25.08-14.088 0-23.266-7.47-25.294-19.744l10.245-2.775c.961 8.539 6.724 14.302 15.049 14.302 9.071 0 15.048-6.937 15.048-16.863 0-11.953-7.257-16.756-15.368-16.756-6.19 0-10.993 2.028-14.515 6.297h-8.752l3.095-31.91h8.538zm35.961-31.484v8.965h-33.939V2.408zM66.725 56.384l-11.068 11.41c-.24.245-.533.442-.859.58a2.6 2.6 0 0 1-1.024.204H1.29c-.25 0-.496-.07-.704-.203a1.212 1.212 0 0 1-.566-1.238c.043-.235.155-.46.326-.635l11.078-11.41c.24-.245.528-.442.854-.58a2.8 2.8 0 0 1 1.024-.209H65.78c.251 0 .497.07.705.203s.373.32.475.544c.101.219.128.464.085.7a1.23 1.23 0 0 1-.326.634zM55.652 33.411a2.7 2.7 0 0 0-.86-.581 2.7 2.7 0 0 0-1.024-.203H1.286c-.25 0-.496.07-.704.203s-.374.32-.475.539a1.2 1.2 0 0 0-.09.699c.042.235.154.459.325.635L11.42 46.112c.24.245.528.443.854.581a2.8 2.8 0 0 0 1.024.209h52.477c.25 0 .496-.07.704-.203.209-.134.374-.32.475-.544.102-.22.128-.465.086-.7a1.23 1.23 0 0 0-.326-.634L55.647 33.41zm-54.36-8.196h52.482c.352 0 .699-.07 1.024-.203s.614-.33.86-.581l11.067-11.41a1.21 1.21 0 0 0 .24-1.333 1.3 1.3 0 0 0-.475-.54 1.3 1.3 0 0 0-.704-.202H13.309c-.352 0-.7.07-1.025.208a2.5 2.5 0 0 0-.854.582L.352 23.145c-.17.176-.283.394-.325.63-.043.234-.01.48.09.698.102.219.267.406.475.54.208.133.454.202.705.202z"/></svg>