<svg preserveAspectRatio="none" width="100%" height="100%" overflow="visible" style="display: block;" viewBox="0 0 114.409 98.6281" fill="none" xmlns="http://www.w3.org/2000/svg">
<path id="Vector" d="M113.822 77.7606L94.9424 97.2852C94.5328 97.7053 94.0321 98.0431 93.4769 98.2806C92.9216 98.5089 92.3299 98.6367 91.7291 98.6276H2.20303C1.7752 98.6276 1.35646 98.5089 1.00145 98.2806C0.646442 98.0614 0.364242 97.7326 0.191288 97.3582C0.0183349 96.9838 -0.0271635 96.5637 0.0365561 96.1619C0.109379 95.7601 0.300524 95.3765 0.591814 95.0752L19.4893 75.5506C19.8989 75.1305 20.3904 74.7926 20.9457 74.5552C21.501 74.3269 22.0926 74.2081 22.6934 74.199H112.21C112.638 74.199 113.057 74.3177 113.412 74.546C113.767 74.7743 114.049 75.094 114.222 75.4775C114.395 75.852 114.441 76.272 114.368 76.6739C114.295 77.0757 114.104 77.4592 113.813 77.7606H113.822ZM94.9333 38.4465C94.5237 38.0264 94.023 37.6885 93.4677 37.4511C92.9125 37.2228 92.3208 37.1041 91.72 37.1041H2.19392C1.76609 37.1041 1.34735 37.2228 0.99234 37.4511C0.63733 37.6794 0.35513 37.999 0.182177 38.3735C0.00922323 38.7479 -0.0362752 39.168 0.0274444 39.5698C0.100267 39.9716 0.291413 40.3551 0.582702 40.6565L19.4801 60.1811C19.8898 60.6012 20.3813 60.9391 20.9366 61.1765C21.4918 61.4048 22.0836 61.5235 22.6843 61.5327H112.201C112.629 61.5327 113.048 61.414 113.403 61.1856C113.758 60.9573 114.04 60.6377 114.213 60.2541C114.386 59.8797 114.432 59.4596 114.359 59.0578C114.286 58.656 114.095 58.2725 113.803 57.9711L94.9242 38.4465H94.9333ZM2.20303 24.4195H91.7291C92.3299 24.4195 92.9216 24.3007 93.4769 24.0724C94.0321 23.8441 94.5237 23.5062 94.9424 23.077L113.822 3.55243C114.113 3.25107 114.304 2.87665 114.377 2.4657C114.45 2.06389 114.395 1.64381 114.231 1.26939C114.058 0.894968 113.776 0.575332 113.421 0.347028C113.066 0.118723 112.647 0 112.22 0H22.7025C22.1017 0 21.5101 0.118732 20.9548 0.356169C20.4086 0.584473 19.908 0.922361 19.4984 1.35157L0.600926 20.8762C0.309636 21.1775 0.118435 21.552 0.0456123 21.9538C-0.0272102 22.3556 0.0274466 22.7757 0.2004 23.1501C0.373353 23.5245 0.655498 23.8441 1.01051 24.0724C1.36552 24.3007 1.78425 24.4195 2.21209 24.4195H2.20303Z" fill="var(--fill-0, black)"/>
</svg>
