<svg width="1392" height="117" viewBox="0 0 1392 117" fill="none" xmlns="http://www.w3.org/2000/svg">
<path d="M0 22.2403H21.2325V70.8563H0V22.2403ZM0 87.8137H21.2325V142.252H0V87.8137ZM21.2325 142.179H56.8134C87.7564 142.179 93.3362 128.861 93.3362 115.324C93.3362 101.787 87.8288 87.8137 56.8134 87.8137H21.2325V70.9291H57.9728C79.2054 70.9291 85.365 56.9556 85.365 46.0389C85.365 35.1221 79.2054 22.2403 57.9728 22.2403H21.2325V4.48242H60.5816C95.7276 4.48242 108.772 26.0248 108.772 46.4755C108.772 66.9263 103.481 71.5841 88.626 77.3336V77.7702C110.945 83.9564 116.525 100.186 116.525 114.887C116.525 137.958 102.829 160.01 58.3352 160.01H21.2325V142.252V142.179Z" fill="#E7D2F9"/>
<path d="M146.381 22.2418H167.613V78.8634H146.381V22.2418ZM167.613 159.939H146.381V95.3113H167.613V159.939ZM167.613 78.8634H200.803C226.456 78.8634 234.862 67.9467 234.862 50.4071C234.862 32.8675 226.456 22.1691 200.803 22.1691H167.613V4.41113H206.962C242.108 4.41113 257.399 24.8618 257.399 49.7521C257.399 74.6423 247.254 87.524 224.644 93.2735L266.24 159.939H242.761L202.542 95.3113H167.613V78.8634Z" fill="#E7D2F9"/>
<path d="M290.158 22.2403H311.391V72.4574H290.158V22.2403ZM311.391 142.179H290.158V89.7787H311.391V142.179ZM311.391 4.48242H389.654V22.2403H311.391V4.48242ZM311.391 72.4574H378.639V89.7787H311.391V72.4574ZM311.391 142.179H391.901V159.937H311.391V142.179Z" fill="#E7D2F9"/>
<path d="M552.194 159.937H531.179L515.092 116.634H447.843L431.683 159.937H410.668L469.076 4.48242H489.873L454.872 98.0026H508.207L482.12 28.2809H502.917L552.194 159.937Z" fill="#E7D2F9"/>
<path d="M595.527 4.48242V72.2391H574.294V4.48242H595.527ZM595.527 159.937H574.294V92.1804H595.527V159.937ZM619.875 92.2532H595.527V72.2391H619.875V92.2532ZM661.471 4.48242H684.95L642.485 72.2391H619.948L661.543 4.48242H661.471ZM689.37 159.937H665.456L619.875 92.1804H643.572L689.37 159.937Z" fill="#E7D2F9"/>
<path d="M717.702 22.2403H738.935V81.9914H717.702V22.2403ZM738.935 159.937H717.702V98.4393H738.935V159.937ZM738.935 81.9914H769.878C795.531 81.9914 803.937 71.8024 803.937 52.0067C803.937 32.211 795.531 22.2403 769.878 22.2403H738.935V4.48242H776.11C811.256 4.48242 826.546 24.2781 826.546 51.3517C826.546 78.4253 811.256 98.4393 776.11 98.4393H738.935V81.9914Z" fill="#E7D2F9"/>
<path d="M847.418 81.9937C847.418 34.251 875.317 0.700195 921.261 0.700195C967.204 0.700195 995.104 34.251 995.104 81.9937C995.104 129.736 967.204 163.287 921.261 163.287C875.317 163.287 847.418 129.736 847.418 81.9937ZM972.639 81.9937C972.639 44.8767 954.088 18.8948 921.333 18.8948C888.579 18.8948 870.027 44.8767 870.027 81.9937C870.027 119.111 888.579 145.092 921.333 145.092C954.088 145.092 972.639 119.111 972.639 81.9937Z" fill="#E7D2F9"/>
<path d="M1275.69 4.48242H1323.23V22.2403H1275.69V4.48242ZM1323.23 22.2403H1344.46V159.937H1323.23V22.2403ZM1344.46 4.48242H1392V22.2403H1344.46V4.48242Z" fill="#E7D2F9"/>
<path d="M1013 142.179H1046.19V159.937H1013V142.179ZM1067.42 22.2406V142.179H1046.19V22.2406H1067.42ZM1067.42 142.179H1100.61V159.937H1067.42V142.179Z" fill="#E7D2F9"/>
<path d="M1046.19 4.48242H1013V22.2403L1046.19 22.2406L1046.19 4.48242Z" fill="#E7D2F9"/>
<path d="M1100.61 4.48242H1067.43L1067.42 22.2406L1100.61 22.2403V4.48242Z" fill="#E7D2F9"/>
<path d="M1131.05 40.6535V159.937H1152.28V40.6535H1131.05Z" fill="#E7D2F9"/>
<path d="M1250.47 4.48242V159.937H1226.99L1129.96 4.48242H1154.67L1229.24 123.839V4.48242H1250.47Z" fill="#E7D2F9"/>
</svg>
