<svg preserveAspectRatio="none" width="100%" height="100%" overflow="visible" style="display: block;" viewBox="0 0 261.136 50.0022" fill="none" xmlns="http://www.w3.org/2000/svg">
<g id="BP26">
<path d="M0 50.0022V0H48.5736C56.9311 0 63.9314 7.00031 63.9314 15.3578C63.9314 19.0008 62.5742 22.4296 60.4313 25.0011C62.6456 27.7155 63.9314 31.0014 63.9314 34.6444C63.9314 43.0733 56.9311 50.0022 48.5736 50.0022H0ZM48.5736 38.5731C50.7165 38.5731 52.5023 36.7874 52.5023 34.6444C52.5023 32.5014 50.7165 30.7157 48.5736 30.7157H11.4291V38.5731H48.5736ZM48.5736 19.2866C50.7165 19.2866 52.5023 17.5008 52.5023 15.3578C52.5023 13.2149 50.7165 11.4291 48.5736 11.4291H11.4291V19.2866H48.5736Z" fill="var(--fill-0, black)"/>
<path d="M113.082 11.4291H80.3663V19.2866H113.082C115.225 19.2866 117.011 17.5008 117.011 15.3578C117.011 13.2149 115.225 11.4291 113.082 11.4291ZM113.082 30.7157H80.3663V50.0022H68.9372V0H113.082C121.44 0 128.44 6.92888 128.44 15.3578C128.44 23.7153 121.44 30.7157 113.082 30.7157Z" fill="var(--fill-0, black)"/>
<path d="M131.108 50.0022V34.6444C131.108 26.2869 138.108 19.2866 146.466 19.2866H178.967C181.11 19.2866 182.896 17.5008 182.896 15.3578C182.896 13.2149 181.11 11.4291 178.967 11.4291H131.822V0H178.967C187.325 0 194.325 6.92888 194.325 15.3578C194.325 23.7153 187.325 30.7157 178.967 30.7157H146.466C144.323 30.7157 142.537 32.5014 142.537 34.6444V38.5731H194.325V50.0022H131.108Z" fill="var(--fill-0, black)"/>
<path d="M213.991 30.7157C211.848 30.7157 210.062 32.5014 210.062 34.6444C210.062 36.7874 211.848 38.5731 213.991 38.5731H245.778C247.921 38.5731 249.707 36.7874 249.707 34.6444C249.707 32.5014 247.921 30.7157 245.778 30.7157H213.991ZM213.991 50.0022C205.634 50.0022 198.633 43.0019 198.633 34.6444V15.3578C198.633 6.92888 205.634 0 213.991 0H260.422V11.4291H213.991C211.848 11.4291 210.062 13.2149 210.062 15.3578V19.7866C211.348 19.4294 212.634 19.2866 213.991 19.2866H245.778C254.136 19.2866 261.136 26.2155 261.136 34.6444C261.136 43.0019 254.136 50.0022 245.778 50.0022H213.991Z" fill="var(--fill-0, black)"/>
</g>
</svg>
