<svg preserveAspectRatio="none" width="100%" height="100%" overflow="visible" style="display: block;" viewBox="0 0 56.7055 48.884" fill="none" xmlns="http://www.w3.org/2000/svg">
<path id="Vector" d="M56.4146 38.5413L47.0572 48.2184C46.8542 48.4266 46.6061 48.5941 46.3309 48.7118C46.0556 48.8249 45.7624 48.8883 45.4646 48.8838H1.09191C0.879859 48.8838 0.672316 48.8249 0.496359 48.7118C0.320402 48.6032 0.180533 48.4402 0.0948101 48.2546C0.00908752 48.069 -0.0134633 47.8608 0.0181187 47.6617C0.0542124 47.4625 0.148952 47.2724 0.293327 47.1231L9.65965 37.4459C9.86268 37.2377 10.1063 37.0702 10.3815 36.9525C10.6567 36.8394 10.95 36.7805 11.2478 36.776H55.616C55.828 36.776 56.0356 36.8348 56.2115 36.948C56.3875 37.0612 56.5274 37.2196 56.6131 37.4097C56.6988 37.5953 56.7214 37.8035 56.6853 38.0026C56.6492 38.2018 56.5544 38.3919 56.4101 38.5413H56.4146ZM47.0528 19.0556C46.8497 18.8474 46.6016 18.6799 46.3263 18.5623C46.0511 18.4491 45.7579 18.3903 45.4601 18.3903H1.08739C0.875342 18.3903 0.6678 18.4491 0.491843 18.5623C0.315886 18.6754 0.176017 18.8338 0.090294 19.0194C0.0045714 19.205 -0.0179795 19.4132 0.0136025 19.6124C0.0496963 19.8115 0.144436 20.0016 0.288811 20.151L9.65514 29.8282C9.85816 30.0364 10.1018 30.2038 10.377 30.3215C10.6522 30.4347 10.9455 30.4935 11.2433 30.4981H55.6115C55.8235 30.4981 56.0311 30.4392 56.207 30.3261C56.383 30.2129 56.5228 30.0545 56.6086 29.8644C56.6943 29.6788 56.7168 29.4706 56.6807 29.2714C56.6446 29.0723 56.5499 28.8822 56.4055 28.7328L47.0482 19.0556H47.0528ZM1.09191 12.1033H45.4646C45.7624 12.1033 46.0556 12.0444 46.3309 11.9313C46.6061 11.8181 46.8497 11.6506 47.0572 11.4379L56.4146 1.76073C56.5589 1.61136 56.6537 1.42578 56.6898 1.2221C56.7259 1.02294 56.6988 0.814736 56.6176 0.629159C56.5318 0.443582 56.392 0.285158 56.216 0.172001C56.0401 0.0588438 55.8326 0 55.6205 0H11.2523C10.9545 0 10.6612 0.0588482 10.386 0.176531C10.1153 0.289688 9.8672 0.457159 9.66417 0.669894L0.297843 10.3471C0.153468 10.4964 0.058701 10.682 0.0226073 10.8812C-0.0134865 11.0803 0.0136036 11.2885 0.0993262 11.4741C0.185049 11.6597 0.324891 11.8181 0.500848 11.9313C0.676805 12.0444 0.884347 12.1033 1.0964 12.1033H1.09191Z" fill="var(--fill-0, black)"/>
</svg>
