<svg preserveAspectRatio="none" width="100%" height="100%" overflow="visible" style="display: block;" viewBox="0 0 1226.61 100.876" fill="none" xmlns="http://www.w3.org/2000/svg">
<g id="BREAKPOINT">
<path d="M0 99.4869V2.22317H94.4848C110.742 2.22317 124.359 15.8401 124.359 32.097C124.359 39.1834 121.719 45.8529 117.55 50.855C121.858 56.1351 124.359 62.5267 124.359 69.6131C124.359 86.009 110.742 99.4869 94.4848 99.4869H0ZM94.4848 77.2552C98.6532 77.2552 102.127 73.7815 102.127 69.6131C102.127 65.4446 98.6532 61.9709 94.4848 61.9709H22.2317V77.2552H94.4848ZM94.4848 39.7392C98.6532 39.7392 102.127 36.2655 102.127 32.097C102.127 27.9286 98.6532 24.4549 94.4848 24.4549H22.2317V39.7392H94.4848Z" fill="var(--fill-0, black)"/>
<path d="M134.096 99.4869V2.22317H228.581C244.838 2.22317 258.455 15.7011 258.455 32.097C258.455 48.354 244.838 61.9709 228.581 61.9709H192.176C188.008 61.9709 184.534 65.4446 184.534 69.6131C184.534 73.7815 188.008 77.2552 192.176 77.2552H258.455V99.4869H192.176C175.919 99.4869 162.302 85.87 162.302 69.6131C162.302 53.2172 175.919 39.7392 192.176 39.7392H228.581C232.749 39.7392 236.223 36.2655 236.223 32.097C236.223 27.9286 232.749 24.4549 228.581 24.4549H156.328V99.4869H134.096Z" fill="var(--fill-0, black)"/>
<path d="M268.192 99.4869V2.22317H382.546V24.4549H290.424V39.7392H382.546V61.9709H290.424V77.2552H382.546V99.4869H268.192Z" fill="var(--fill-0, black)"/>
<path d="M428.512 17.0906C433.792 6.39162 444.491 0 456.857 0C471.447 0 479.923 6.66951 485.064 17.0906L525.081 99.4869H500.348L484.647 67.112H428.929L413.228 99.4869H388.495L428.512 17.0906ZM439.628 44.8803H473.948L465.333 27.2338C463.805 24.177 461.026 22.0928 456.857 22.0928C452.689 22.0928 449.632 24.4549 447.965 27.7896L439.628 44.8803Z" fill="var(--fill-0, black)"/>
<path d="M531.092 99.4869V2.22317H553.323V50.2993L615.433 2.22317H650.448L587.644 50.855L650.448 99.4869H615.433L553.323 51.4108V99.4869H531.092Z" fill="var(--fill-0, black)"/>
<path d="M742.373 24.4549H678.735V39.7392H742.373C746.542 39.7392 750.015 36.2655 750.015 32.097C750.015 27.9286 746.542 24.4549 742.373 24.4549ZM742.373 61.9709H678.735V99.4869H656.503V2.22317H742.373C758.63 2.22317 772.247 15.7011 772.247 32.097C772.247 48.354 758.63 61.9709 742.373 61.9709Z" fill="var(--fill-0, black)"/>
<path d="M825.901 24.4549C811.45 24.4549 799.501 36.4044 799.501 50.855C799.501 65.3057 811.45 77.2552 825.901 77.2552H887.177C901.627 77.2552 913.577 65.3057 913.577 50.855C913.577 36.4044 901.627 24.4549 887.177 24.4549H825.901ZM825.901 99.4869C799.223 99.4869 777.269 77.5331 777.269 50.855C777.269 24.177 799.223 2.22317 825.901 2.22317H887.177C913.855 2.22317 935.809 24.177 935.809 50.855C935.809 77.5331 913.855 99.4869 887.177 99.4869H825.901Z" fill="var(--fill-0, black)"/>
<path d="M944.099 99.4869V2.22317H966.331V99.4869H944.099Z" fill="var(--fill-0, black)"/>
<path d="M976.019 99.4869V29.3181C976.019 13.6169 988.802 0.833687 1004.64 0.833687C1016.31 0.833687 1026.46 7.92005 1030.76 18.0633L1057.86 74.8931C1058.83 76.8384 1060.78 78.0889 1063.14 78.0889C1066.61 78.0889 1069.25 75.4489 1069.25 72.1141V2.22317H1091.49V72.392C1091.49 88.0932 1078.7 100.876 1062.86 100.876C1051.19 100.876 1041.05 93.7901 1036.74 83.6468L1009.64 26.817C1008.67 24.8717 1006.73 23.6212 1004.36 23.6212C1000.89 23.6212 998.251 26.2612 998.251 29.596V99.4869H976.019Z" fill="var(--fill-0, black)"/>
<path d="M1098.36 24.4549V2.22317H1226.61V24.4549H1173.67V99.4869H1151.44V24.4549H1098.36Z" fill="var(--fill-0, black)"/>
</g>
</svg>
