<svg width="1376.996" height="100.876" viewBox="0 0 1376.996 100.876" fill="none" xmlns="http://www.w3.org/2000/svg">
  <g id="Breakpoint Footer Logo">
    <g id="Vector" transform="translate(0 1.124)">
      <path d="M113.822 77.7606L94.9424 97.2852C94.5328 97.7053 94.0321 98.0431 93.4769 98.2806C92.9216 98.5089 92.3299 98.6367 91.7291 98.6276H2.20303C1.7752 98.6276 1.35646 98.5089 1.00145 98.2806C0.646442 98.0614 0.364242 97.7326 0.191288 97.3582C0.0183349 96.9838 -0.0271635 96.5637 0.0365561 96.1619C0.109379 95.7601 0.300524 95.3765 0.591814 95.0752L19.4893 75.5506C19.8989 75.1305 20.3904 74.7926 20.9457 74.5552C21.501 74.3269 22.0926 74.2081 22.6934 74.199H112.21C112.638 74.199 113.057 74.3177 113.412 74.546C113.767 74.7743 114.049 75.094 114.222 75.4775C114.395 75.852 114.441 76.272 114.368 76.6739C114.295 77.0757 114.104 77.4592 113.813 77.7606H113.822ZM94.9333 38.4465C94.5237 38.0264 94.023 37.6885 93.4677 37.4511C92.9125 37.2228 92.3208 37.1041 91.72 37.1041H2.19392C1.76609 37.1041 1.34735 37.2228 0.99234 37.4511C0.63733 37.6794 0.35513 37.999 0.182177 38.3735C0.00922323 38.7479 -0.0362752 39.168 0.0274444 39.5698C0.100267 39.9716 0.291413 40.3551 0.582702 40.6565L19.4801 60.1811C19.8898 60.6012 20.3813 60.9391 20.9366 61.1765C21.4918 61.4048 22.0836 61.5235 22.6843 61.5327H112.201C112.629 61.5327 113.048 61.414 113.403 61.1856C113.758 60.9573 114.04 60.6377 114.213 60.2541C114.386 59.8797 114.432 59.4596 114.359 59.0578C114.286 58.656 114.095 58.2725 113.803 57.9711L94.9242 38.4465H94.9333ZM2.20303 24.4195H91.7291C92.3299 24.4195 92.9216 24.3007 93.4769 24.0724C94.0321 23.8441 94.5237 23.5062 94.9424 23.077L113.822 3.55243C114.113 3.25107 114.304 2.87665 114.377 2.4657C114.45 2.06389 114.395 1.64381 114.231 1.26939C114.058 0.894968 113.776 0.575332 113.421 0.347028C113.066 0.118723 112.647 0 112.22 0H22.7025C22.1017 0 21.5101 0.118732 20.9548 0.356169C20.4086 0.584473 19.908 0.922361 19.4984 1.35157L0.600926 20.8762C0.309636 21.1775 0.118435 21.552 0.0456123 21.9538C-0.0272102 22.3556 0.0274466 22.7757 0.2004 23.1501C0.373353 23.5245 0.655498 23.8441 1.01051 24.0724C1.36552 24.3007 1.78425 24.4195 2.21209 24.4195H2.20303Z" fill="var(--fill-0, black)"/>
    </g>
    <g id="BREAKPOINT" transform="translate(150.383)">
      <path d="M0 99.4869V2.22317H94.4848C110.742 2.22317 124.359 15.8401 124.359 32.097C124.359 39.1834 121.719 45.8529 117.55 50.855C121.858 56.1351 124.359 62.5267 124.359 69.6131C124.359 86.009 110.742 99.4869 94.4848 99.4869H0ZM94.4848 77.2552C98.6532 77.2552 102.127 73.7815 102.127 69.6131C102.127 65.4446 98.6532 61.9709 94.4848 61.9709H22.2317V77.2552H94.4848ZM94.4848 39.7392C98.6532 39.7392 102.127 36.2655 102.127 32.097C102.127 27.9286 98.6532 24.4549 94.4848 24.4549H22.2317V39.7392H94.4848Z" fill="var(--fill-0, black)"/>
      <path d="M134.096 99.4869V2.22317H228.581C244.838 2.22317 258.455 15.7011 258.455 32.097C258.455 48.354 244.838 61.9709 228.581 61.9709H192.176C188.008 61.9709 184.534 65.4446 184.534 69.6131C184.534 73.7815 188.008 77.2552 192.176 77.2552H258.455V99.4869H192.176C175.919 99.4869 162.302 85.87 162.302 69.6131C162.302 53.2172 175.919 39.7392 192.176 39.7392H228.581C232.749 39.7392 236.223 36.2655 236.223 32.097C236.223 27.9286 232.749 24.4549 228.581 24.4549H156.328V99.4869H134.096Z" fill="var(--fill-0, black)"/>
      <path d="M268.192 99.4869V2.22317H382.546V24.4549H290.424V39.7392H382.546V61.9709H290.424V77.2552H382.546V99.4869H268.192Z" fill="var(--fill-0, black)"/>
      <path d="M428.512 17.0906C433.792 6.39162 444.491 0 456.857 0C471.447 0 479.923 6.66951 485.064 17.0906L525.081 99.4869H500.348L484.647 67.112H428.929L413.228 99.4869H388.495L428.512 17.0906ZM439.628 44.8803H473.948L465.333 27.2338C463.805 24.177 461.026 22.0928 456.857 22.0928C452.689 22.0928 449.632 24.4549 447.965 27.7896L439.628 44.8803Z" fill="var(--fill-0, black)"/>
      <path d="M531.092 99.4869V2.22317H553.323V50.2993L615.433 2.22317H650.448L587.644 50.855L650.448 99.4869H615.433L553.323 51.4108V99.4869H531.092Z" fill="var(--fill-0, black)"/>
      <path d="M742.373 24.4549H678.735V39.7392H742.373C746.542 39.7392 750.015 36.2655 750.015 32.097C750.015 27.9286 746.542 24.4549 742.373 24.4549ZM742.373 61.9709H678.735V99.4869H656.503V2.22317H742.373C758.63 2.22317 772.247 15.7011 772.247 32.097C772.247 48.354 758.63 61.9709 742.373 61.9709Z" fill="var(--fill-0, black)"/>
      <path d="M825.901 24.4549C811.45 24.4549 799.501 36.4044 799.501 50.855C799.501 65.3057 811.45 77.2552 825.901 77.2552H887.177C901.627 77.2552 913.577 65.3057 913.577 50.855C913.577 36.4044 901.627 24.4549 887.177 24.4549H825.901ZM825.901 99.4869C799.223 99.4869 777.269 77.5331 777.269 50.855C777.269 24.177 799.223 2.22317 825.901 2.22317H887.177C913.855 2.22317 935.809 24.177 935.809 50.855C935.809 77.5331 913.855 99.4869 887.177 99.4869H825.901Z" fill="var(--fill-0, black)"/>
      <path d="M944.099 99.4869V2.22317H966.331V99.4869H944.099Z" fill="var(--fill-0, black)"/>
      <path d="M976.019 99.4869V29.3181C976.019 13.6169 988.802 0.833687 1004.64 0.833687C1016.31 0.833687 1026.46 7.92005 1030.76 18.0633L1057.86 74.8931C1058.83 76.8384 1060.78 78.0889 1063.14 78.0889C1066.61 78.0889 1069.25 75.4489 1069.25 72.1141V2.22317H1091.49V72.392C1091.49 88.0932 1078.7 100.876 1062.86 100.876C1051.19 100.876 1041.05 93.7901 1036.74 83.6468L1009.64 26.817C1008.67 24.8717 1006.73 23.6212 1004.36 23.6212C1000.89 23.6212 998.251 26.2612 998.251 29.596V99.4869H976.019Z" fill="var(--fill-0, black)"/>
      <path d="M1098.36 24.4549V2.22317H1226.61V24.4549H1173.67V99.4869H1151.44V24.4549H1098.36Z" fill="var(--fill-0, black)"/>
    </g>
  </g>
</svg>
