<svg preserveAspectRatio="none" width="100%" height="100%" overflow="visible" style="display: block;" viewBox="0 0 1440 539" fill="none" xmlns="http://www.w3.org/2000/svg">
<g id="Glitch Texture" clip-path="url(#clip0_0_547)">
<path id="Vector" d="M1779.11 86.9926C1781.08 147.659 1779.17 320.184 1779.17 381.053L1779.14 560.816L1129.88 560.816C1130.06 564.443 1132.09 559.22 1124.2 560.816C1117.64 557.04 1119.3 565.74 1119.5 560.816L950.053 560.816C937.249 560.816 882.105 560.096 871.907 560.816C871.002 562.148 870.649 559.562 869.346 560.816C861.679 561.521 831.883 561.963 825.305 560.816C824.047 559.298 824.139 562.063 821.992 560.816C807.639 560.26 779.453 560.823 764.088 560.816L653.141 560.816L308.122 560.816L308.184 560.816L64.9961 560.816L64.9881 632L64.9902 595.978C64.9902 592.587 64.927 582.28 65.081 579.348C65.4719 578.976 65.5271 578.944 65.8845 578.298C66.1569 574.761 66.0167 564.1 66.0029 559.703L70.0739 559.753L70.0719 600.347L73.0828 600.361L73.0828 590.843L83.1914 590.882L83.1894 559.698L-152.489 559.764L-152.459 469.35L-152.474 166.891L-241.447 166.916L-241.447 135.317L-322.644 135.377L-322.614 107.336L-340.985 107.285L-341 61.1278C-279.231 60.6348 -214.503 61.0879 -152.505 61.0766L-152.489 1.53121L216.681 1.52553L216.773 22.1908L308.03 22.1915L308.046 1.53123C359.019 1.53052 815.153 0.486701 822.498 2.13832C823.909 3.77 823.633 3.87473 826.516 4.94636C837.358 5.14444 860.667 5.88261 869.944 4.5958L871.064 2.26158C878.164 0.456769 1091.29 1.52271 1119.52 1.52485C1119.31 7.66749 1117.87 -3.98151 1123.28 1.52485L1125.55 1.52485C1131.74 -2.16387 1130.08 6.26596 1129.81 1.52485L1402.23 1.52558L1402.35 79.6493L1522.39 79.6515L1522.42 44.2919L1590.73 44.2869L1590.82 79.6508C1633.32 79.7484 1682.56 78.8983 1724.41 79.8695C1727.9 81.4848 1726.82 82.8835 1727.13 85.7514C1732.41 87.8975 1768.22 86.9448 1779.11 86.9926Z" fill="var(--fill-0, #AA67FB)"/>
</g>
<defs>
<clipPath id="clip0_0_547">
<rect width="1440" height="539" fill="white"/>
</clipPath>
</defs>
</svg>
