<svg xmlns="http://www.w3.org/2000/svg" width="24" height="21" viewBox="0 0 24 21" fill="none">
<path d="M15.0512 3.07466C15.3112 4.17727 16.301 4.99867 17.4829 4.99867C18.8626 4.99867 19.9812 3.87966 19.9812 2.49933C19.9812 1.11903 18.8626 0 17.4829 0C16.2764 0 15.2703 0.85538 15.036 1.99314C13.0155 2.20992 11.4378 3.92418 11.4378 6.00168C11.4378 6.00637 11.4378 6.00988 11.4378 6.01457C9.24041 6.10713 7.23397 6.73285 5.641 7.72063C5.04949 7.26248 4.30689 6.98946 3.50103 6.98946C1.56721 6.98946 0 8.55726 0 10.4918C0 11.8955 0.824597 13.1048 2.01582 13.6637C2.13177 17.7296 6.56047 21 12.0082 21C17.4559 21 21.8905 17.7261 22.0006 13.6567C23.1824 13.0943 24 11.8885 24 10.4929C24 8.55838 22.4328 6.99063 20.499 6.99063C19.6966 6.99063 18.9576 7.2613 18.3672 7.71594C16.7602 6.72114 14.7315 6.09542 12.5119 6.01223C12.5119 6.00871 12.5119 6.00637 12.5119 6.00286C12.5119 4.51473 13.6176 3.27972 15.0512 3.07701V3.07466ZM5.50044 12.7145C5.55901 11.4444 6.40235 10.4695 7.38272 10.4695C8.3631 10.4695 9.11274 11.4996 9.05418 12.7697C8.99561 14.0399 8.26354 14.5015 7.282 14.5015C6.30044 14.5015 5.44188 13.9848 5.50044 12.7145ZM16.6348 10.4695C17.6164 10.4695 18.4597 11.4444 18.5172 12.7145C18.5756 13.9848 17.7159 14.5015 16.7355 14.5015C15.7551 14.5015 15.022 14.041 14.9634 12.7697C14.9048 11.4996 15.6533 10.4695 16.6348 10.4695ZM15.4683 15.6533C15.6521 15.6721 15.7693 15.8631 15.6978 16.0342C15.0946 17.4765 13.6703 18.4902 12.0082 18.4902C10.3462 18.4902 8.92299 17.4765 8.3186 16.0342C8.24715 15.8631 8.36428 15.6721 8.54818 15.6533C9.62576 15.5444 10.7912 15.4846 12.0082 15.4846C13.2251 15.4846 14.3894 15.5444 15.4683 15.6533Z" fill="black"/>
</svg>
