<svg xmlns="http://www.w3.org/2000/svg" width="24" height="16.2045" viewBox="0 0 24 16.2045" fill="none">
<path d="M23.7609 3.4965C23.7609 3.4965 23.5266 1.908 22.8047 1.2105C21.8906 0.292502 20.8688 0.288 20.4 0.234C17.0438 -1.43051e-07 12.0047 0 12.0047 0H11.9953C11.9953 0 6.95625 -1.43051e-07 3.6 0.234C3.13125 0.288 2.10938 0.292502 1.19531 1.2105C0.473438 1.908 0.24375 3.4965 0.24375 3.4965C0.24375 3.4965 0 5.364 0 7.22697V8.97301C0 10.836 0.239062 12.7035 0.239062 12.7035C0.239062 12.7035 0.473437 14.292 1.19062 14.9895C2.10469 15.9075 3.30469 15.876 3.83906 15.975C5.76094 16.1505 12 16.2045 12 16.2045C12 16.2045 17.0438 16.1955 20.4 15.966C20.8688 15.912 21.8906 15.9075 22.8047 14.9895C23.5266 14.292 23.7609 12.7035 23.7609 12.7035C23.7609 12.7035 24 10.8405 24 8.97301V7.22697C24 5.364 23.7609 3.4965 23.7609 3.4965ZM9.52031 11.0925V4.617L16.0031 7.86604L9.52031 11.0925Z" fill="black"/>
</svg>
