<svg xmlns="http://www.w3.org/2000/svg" width="24" height="17.5615" viewBox="0 0 24 17.5615" fill="none">
<path d="M20.317 1.45576C18.7873 0.781952 17.147 0.285517 15.4319 0.00119386C15.4007 -0.00429734 15.3695 0.00942095 15.3534 0.0368482C15.1424 0.39705 14.9087 0.86697 14.7451 1.23632C12.9004 0.971197 11.0652 0.971197 9.25832 1.23632C9.09465 0.858762 8.85248 0.39705 8.64057 0.0368482C8.62449 0.010333 8.59328 -0.00338534 8.56205 0.00119386C6.84791 0.284605 5.20756 0.78104 3.67693 1.45576C3.66368 1.46124 3.65233 1.47039 3.64479 1.48226C0.533392 5.94469 -0.31895 10.2975 0.09918 14.5963C0.101072 14.6173 0.11337 14.6373 0.130398 14.6501C2.18321 16.0974 4.17171 16.976 6.12328 17.5583C6.15451 17.5675 6.18761 17.5565 6.20748 17.5318C6.66913 16.9267 7.08064 16.2884 7.43348 15.6174C7.4543 15.5781 7.43442 15.5315 7.39186 15.5159C6.73913 15.2782 6.1176 14.9884 5.51973 14.6593C5.47244 14.6328 5.46865 14.5678 5.51216 14.5367C5.63797 14.4463 5.76382 14.3521 5.88396 14.257C5.90569 14.2396 5.93598 14.236 5.96153 14.2469C9.88928 15.9685 14.1415 15.9685 18.023 14.2469C18.0485 14.2351 18.0788 14.2388 18.1015 14.2561C18.2216 14.3512 18.3475 14.4463 18.4742 14.5367C18.5177 14.5678 18.5149 14.6328 18.4676 14.6593C17.8697 14.9948 17.2482 15.2782 16.5945 15.515C16.552 15.5305 16.533 15.5781 16.5538 15.6174C16.9143 16.2876 17.3258 16.9257 17.7789 17.5309C17.7978 17.5565 17.8319 17.5675 17.8631 17.5583C19.8241 16.976 21.8126 16.0974 23.8654 14.6501C23.8834 14.6373 23.8948 14.6181 23.8967 14.5971C24.3971 9.6273 23.0585 5.31021 20.3482 1.48317C20.3416 1.47039 20.3303 1.46124 20.317 1.45576ZM8.02002 11.9787C6.8375 11.9787 5.86313 10.9364 5.86313 9.65658C5.86313 8.37661 6.8186 7.33434 8.02002 7.33434C9.23087 7.33434 10.1958 8.38573 10.1769 9.65658C10.1769 10.9364 9.22141 11.9787 8.02002 11.9787ZM15.9947 11.9787C14.8123 11.9787 13.8379 10.9364 13.8379 9.65658C13.8379 8.37661 14.7933 7.33434 15.9947 7.33434C17.2056 7.33434 18.1705 8.38573 18.1516 9.65658C18.1516 10.9364 17.2056 11.9787 15.9947 11.9787Z" fill="black"/>
</svg>
