<svg xmlns="http://www.w3.org/2000/svg" width="24" height="22.6561" viewBox="0 0 24 22.6561" fill="none">
<path fill-rule="evenodd" clip-rule="evenodd" d="M12.0099 0C5.36875 0 0 5.19199 0 11.6152C0 16.7496 3.43994 21.0958 8.21205 22.634C8.80869 22.7497 9.02724 22.3841 9.02724 22.0766C9.02724 21.8073 9.00757 20.8843 9.00757 19.9226C5.6667 20.615 4.97099 18.538 4.97099 18.538C4.43409 17.1919 3.63858 16.8459 3.63858 16.8459C2.54511 16.1343 3.71823 16.1343 3.71823 16.1343C4.93117 16.2113 5.56763 17.3267 5.56763 17.3267C6.64118 19.0957 8.37111 18.5959 9.06706 18.2881C9.16638 17.5381 9.48473 17.0189 9.82275 16.7305C7.15817 16.4612 4.35469 15.4613 4.35469 10.9997C4.35469 9.73047 4.8316 8.69211 5.58729 7.88452C5.46807 7.59612 5.0504 6.40362 5.70677 4.80755C5.70677 4.80755 6.72083 4.49981 9.00732 5.99983C9.98625 5.74557 10.9958 5.61623 12.0099 5.61514C13.024 5.61514 14.0577 5.7499 15.0123 5.99983C17.299 4.49981 18.3131 4.80755 18.3131 4.80755C18.9695 6.40362 18.5515 7.59612 18.4323 7.88452C19.2079 8.69211 19.6652 9.73047 19.6652 10.9997C19.6652 15.4613 16.8617 16.4418 14.1772 16.7305C14.6148 17.0958 14.9924 17.788 14.9924 18.8843C14.9924 20.4419 14.9727 21.6919 14.9727 22.0764C14.9727 22.3841 15.1915 22.7497 15.7879 22.6342C20.56 21.0955 23.9999 16.7496 23.9999 11.6152C24.0196 5.19199 18.6312 0 12.0099 0Z" fill="black"/>
</svg>
