<svg xmlns="http://www.w3.org/2000/svg" width="24" height="23.04" viewBox="0 0 24 23.04" fill="none">
<path fill-rule="evenodd" clip-rule="evenodd" d="M24 11.52C24 17.8823 18.6274 23.04 12 23.04C5.37258 23.04 0 17.8823 0 11.52C0 5.15768 5.37258 0 12 0C18.6274 0 24 5.15768 24 11.52ZM12.43 8.50457C11.2628 8.97062 8.93014 9.93524 5.43189 11.3984C4.86383 11.6152 4.56626 11.8274 4.53917 12.0349C4.49339 12.3854 4.95071 12.5235 5.57347 12.7115C5.65818 12.7371 5.74595 12.7635 5.83594 12.7916C6.44864 12.9829 7.27283 13.2065 7.70129 13.2154C8.08994 13.2234 8.52373 13.0696 9.00264 12.7539C12.2712 10.6358 13.9584 9.56526 14.0643 9.54222C14.139 9.5259 14.2426 9.50545 14.3128 9.56526C14.3829 9.62516 14.376 9.73854 14.3686 9.76897C14.3233 9.95434 12.5281 11.5566 11.5991 12.3857C11.3095 12.6442 11.1041 12.8275 11.0621 12.8694C10.968 12.9632 10.8721 13.052 10.78 13.1372C10.2108 13.664 9.78391 14.059 10.8036 14.7041C11.2936 15.0141 11.6858 15.2704 12.077 15.5262C12.5042 15.8055 12.9303 16.0841 13.4816 16.4311C13.6221 16.5194 13.7562 16.6113 13.8869 16.7006C14.3841 17.041 14.8307 17.3466 15.3826 17.2979C15.7032 17.2695 16.0345 16.9801 16.2027 16.1168C16.6002 14.0766 17.3816 9.65607 17.5622 7.83454C17.578 7.67494 17.5581 7.47069 17.5422 7.38103C17.5262 7.29137 17.4928 7.16362 17.3714 7.06905C17.2276 6.95706 17.0056 6.93344 16.9064 6.93512C16.455 6.94276 15.7626 7.1739 12.43 8.50457Z" fill="black"/>
</svg>
