<svg width="104.45" height="20" viewBox="0 0 104.45 20" fill="none" xmlns="http://www.w3.org/2000/svg">
<g>
<path d="M0 20V0H19.4286C22.7714 0 25.5714 2.8 25.5714 6.14286C25.5714 7.6 25.0286 8.97143 24.1714 10C25.0571 11.0857 25.5714 12.4 25.5714 13.8571C25.5714 17.2286 22.7714 20 19.4286 20H0ZM19.4286 15.4286C20.2857 15.4286 21 14.7143 21 13.8571C21 13 20.2857 12.2857 19.4286 12.2857H4.57143V15.4286H19.4286ZM19.4286 7.71429C20.2857 7.71429 21 7 21 6.14286C21 5.28571 20.2857 4.57143 19.4286 4.57143H4.57143V7.71429H19.4286Z" fill="white"/>
<path d="M45.2308 4.57143H32.1451V7.71429H45.2308C46.0879 7.71429 46.8022 7 46.8022 6.14286C46.8022 5.28571 46.0879 4.57143 45.2308 4.57143ZM45.2308 12.2857H32.1451V20H27.5737V0H45.2308C48.5737 0 51.3737 2.77143 51.3737 6.14286C51.3737 9.48571 48.5737 12.2857 45.2308 12.2857Z" fill="white"/>
<path d="M52.4408 20V13.8571C52.4408 10.5143 55.2408 7.71429 58.5837 7.71429H71.5837C72.4408 7.71429 73.1551 7 73.1551 6.14286C73.1551 5.28571 72.4408 4.57143 71.5837 4.57143H52.7266V0H71.5837C74.9266 0 77.7265 2.77143 77.7265 6.14286C77.7265 9.48571 74.9266 12.2857 71.5837 12.2857H58.5837C57.7265 12.2857 57.0123 13 57.0123 13.8571V15.4286H77.7265V20H52.4408Z" fill="white"/>
<path d="M85.5926 12.2857C84.7355 12.2857 84.0212 13 84.0212 13.8571C84.0212 14.7143 84.7355 15.4286 85.5926 15.4286H98.3069C99.164 15.4286 99.8783 14.7143 99.8783 13.8571C99.8783 13 99.164 12.2857 98.3069 12.2857H85.5926ZM85.5926 20C82.2498 20 79.4498 17.2 79.4498 13.8571V6.14286C79.4498 2.77143 82.2498 0 85.5926 0H104.164V4.57143H85.5926C84.7355 4.57143 84.0212 5.28571 84.0212 6.14286V7.91429C84.5355 7.77143 85.0498 7.71429 85.5926 7.71429H98.3069C101.65 7.71429 104.45 10.4857 104.45 13.8571C104.45 17.2 101.65 20 98.3069 20H85.5926Z" fill="white"/>
</g>
</svg>
