<svg width="22.6812" height="19.5527" viewBox="0 0 22.6812 19.5527" fill="none" xmlns="http://www.w3.org/2000/svg">
<path d="M22.5648 15.4158L18.8221 19.2865C18.7409 19.3698 18.6416 19.4368 18.5315 19.4838C18.4214 19.5291 18.3041 19.5545 18.185 19.5526H0.436744C0.351928 19.5526 0.268915 19.5291 0.198535 19.4838C0.128155 19.4404 0.0722099 19.3752 0.0379224 19.301C0.00363485 19.2268 -0.00538509 19.1435 0.00724715 19.0638C0.021684 18.9842 0.0595781 18.9081 0.117325 18.8484L3.86369 14.9777C3.9449 14.8944 4.04234 14.8274 4.15242 14.7804C4.2625 14.7351 4.3798 14.7116 4.4989 14.7097H22.2454C22.3302 14.7097 22.4132 14.7333 22.4836 14.7785C22.554 14.8238 22.6099 14.8872 22.6442 14.9632C22.6785 15.0374 22.6875 15.1207 22.6731 15.2004C22.6587 15.28 22.6208 15.3561 22.563 15.4158H22.5648ZM18.8203 7.62191C18.7391 7.53863 18.6398 7.47165 18.5297 7.42458C18.4196 7.37931 18.3023 7.35578 18.1832 7.35578H0.434938C0.350121 7.35578 0.267108 7.37931 0.196729 7.42458C0.126349 7.46984 0.0704035 7.5332 0.036116 7.60743C0.00182848 7.68166 -0.00719146 7.76494 0.00544078 7.8446C0.0198776 7.92425 0.0577717 8.00029 0.115519 8.06004L3.86188 11.9307C3.94309 12.014 4.04053 12.081 4.15062 12.1281C4.2607 12.1733 4.378 12.1969 4.49711 12.1987H22.2436C22.3284 12.1987 22.4114 12.1751 22.4818 12.1299C22.5522 12.0846 22.6081 12.0213 22.6424 11.9452C22.6767 11.871 22.6857 11.7877 22.6713 11.708C22.6568 11.6284 22.619 11.5523 22.5612 11.4926L18.8185 7.62191H18.8203ZM0.436744 4.84109H18.185C18.3041 4.84109 18.4214 4.81755 18.5315 4.77229C18.6416 4.72703 18.739 4.66004 18.8221 4.57495L22.5648 0.70426C22.6226 0.644516 22.6605 0.570288 22.6749 0.488818C22.6893 0.409159 22.6785 0.32588 22.646 0.251652C22.6117 0.177425 22.5558 0.114058 22.4854 0.0687972C22.415 0.0235365 22.332 0 22.2472 0H4.50071C4.38161 0 4.26431 0.0235382 4.15423 0.0706094C4.04595 0.11587 3.9467 0.182855 3.8655 0.267946L0.119132 4.13864C0.0613844 4.19838 0.0234793 4.27262 0.0090425 4.35228C-0.00539435 4.43193 0.00544122 4.51521 0.0397287 4.58944C0.0740162 4.66367 0.129951 4.72703 0.20033 4.77229C0.27071 4.81755 0.353723 4.84109 0.43854 4.84109H0.436744Z" fill="white"/>
</svg>
