<svg width="40" height="40" viewBox="0 0 40 40" fill="none" xmlns="http://www.w3.org/2000/svg">
<g clip-path="url(#clip0_6223_14663)">
<path d="M10 33.7497C9.6685 33.7497 9.35056 33.618 9.11614 33.3836C8.88172 33.1492 8.75002 32.8312 8.75002 32.4997V25.8294C8.08319 26.1449 7.34741 26.2867 6.61109 26.2415C5.87478 26.1964 5.16183 25.9657 4.53855 25.5711C3.91528 25.1765 3.4019 24.6307 3.04617 23.9844C2.69044 23.3381 2.50391 22.6124 2.50391 21.8747C2.50391 21.137 2.69044 20.4113 3.04617 19.765C3.4019 19.1188 3.91528 18.5729 4.53855 18.1783C5.16183 17.7837 5.87478 17.5531 6.61109 17.5079C7.34741 17.4628 8.08319 17.6045 8.75002 17.92V11.2497C8.75002 10.9182 8.88172 10.6003 9.11614 10.3658C9.35056 10.1314 9.6685 9.99972 10 9.99972H17.2953C16.9795 9.33288 16.8374 8.59699 16.8824 7.86051C16.9273 7.12402 17.1578 6.41086 17.5524 5.78737C17.9469 5.16388 18.4928 4.65031 19.1392 4.29444C19.7855 3.93857 20.5114 3.75195 21.2492 3.75195C21.9871 3.75195 22.713 3.93857 23.3593 4.29444C24.0057 4.65031 24.5516 5.16388 24.9461 5.78737C25.3407 6.41086 25.5712 7.12402 25.6161 7.86051C25.6611 8.59699 25.519 9.33288 25.2031 9.99972H32.5C32.8315 9.99972 33.1495 10.1314 33.3839 10.3658C33.6183 10.6003 33.75 10.9182 33.75 11.2497V17.92C33.0832 17.6045 32.3474 17.4628 31.6111 17.5079C30.8748 17.5531 30.1618 17.7837 29.5386 18.1783C28.9153 18.5729 28.4019 19.1188 28.0462 19.765C27.6904 20.4113 27.5039 21.137 27.5039 21.8747C27.5039 22.6124 27.6904 23.3381 28.0462 23.9844C28.4019 24.6307 28.9153 25.1765 29.5386 25.5711C30.1618 25.9657 30.8748 26.1964 31.6111 26.2415C32.3474 26.2867 33.0832 26.1449 33.75 25.8294V32.4997C33.75 32.8312 33.6183 33.1492 33.3839 33.3836C33.1495 33.618 32.8315 33.7497 32.5 33.7497H10Z" stroke="white" stroke-width="2.5" stroke-linecap="round" stroke-linejoin="round"/>
</g>
<defs>
<clipPath id="clip0_6223_14663">
<rect width="40" height="40" fill="white"/>
</clipPath>
</defs>
</svg>
