<svg width="40" height="40" viewBox="0 0 40 40" fill="none" xmlns="http://www.w3.org/2000/svg">
<g clip-path="url(#clip0_6223_14653)">
<path d="M18.75 25L33.75 10" stroke="white" stroke-width="2.5" stroke-linecap="round" stroke-linejoin="round"/>
<path d="M8.81875 24.9998C8.77297 24.5847 8.75002 24.1674 8.75 23.7498C8.75151 21.9644 9.17758 20.205 9.99305 18.6167C10.8085 17.0285 11.99 15.6569 13.44 14.6152C14.89 13.5735 16.5669 12.8915 18.3324 12.6256C20.0978 12.3597 21.9012 12.5174 23.5938 13.0858" stroke="white" stroke-width="2.5" stroke-linecap="round" stroke-linejoin="round"/>
<path d="M34.4725 16.3502C35.4748 18.3167 36.0674 20.4663 36.2146 22.6686C36.3618 24.8709 36.0604 27.0802 35.3287 29.1627C35.2433 29.4081 35.0834 29.6209 34.8714 29.7713C34.6594 29.9216 34.4058 30.0022 34.1459 30.0017H5.85371C5.59331 30.0006 5.33968 29.9187 5.12781 29.7673C4.91595 29.6159 4.7563 29.4024 4.6709 29.1564C4.04595 27.3794 3.73454 25.5073 3.75059 23.6236C3.81934 14.6877 11.2084 7.42047 20.1568 7.50016C22.679 7.5204 25.1615 8.12927 27.4068 9.27829" stroke="white" stroke-width="2.5" stroke-linecap="round" stroke-linejoin="round"/>
</g>
<defs>
<clipPath id="clip0_6223_14653">
<rect width="40" height="40" fill="white"/>
</clipPath>
</defs>
</svg>
