<svg width="698" height="185" viewBox="0 0 698 185" fill="none" xmlns="http://www.w3.org/2000/svg">
<path d="M238.566 141.503V10.824H290.588C316.33 10.824 332.062 24.2316 332.062 46.0413C332.062 60.5215 325.626 70.89 313.291 76.0743C327.057 80.5435 334.028 90.912 334.028 106.107C334.028 128.453 318.476 141.503 291.482 141.503H238.566ZM288.621 31.0248H261.449V66.5996H289.158C301.671 66.5996 308.643 59.9851 308.643 48.3652C308.643 37.1029 301.493 31.0248 288.621 31.0248ZM290.588 85.9065H261.449V121.303H290.588C303.459 121.303 310.61 115.046 310.61 103.247C310.61 92.1634 303.28 85.9065 290.588 85.9065Z" fill="white"/>
<path d="M335.859 182.441V164.207H348.909C357.49 164.207 362.853 162.24 366.607 151.872L369.109 145.257L333.535 53.192H356.596L379.299 117.548L403.254 53.192H425.779L382.517 161.168C375.903 177.614 366.607 184.408 352.127 184.408C346.048 184.408 340.685 183.693 335.859 182.441Z" fill="white"/>
<path d="M487.084 52.8344V73.0352H479.04C463.308 73.0352 453.476 81.4373 453.476 98.599V141.503H431.666V53.3707H452.225L453.476 66.242C457.23 57.4824 465.632 51.5831 477.431 51.5831C480.47 51.5831 483.509 51.9406 487.084 52.8344Z" fill="white"/>
<path d="M531.886 143.827C505.607 143.827 487.194 124.699 487.194 97.3476C487.194 69.6386 505.249 50.5105 531.171 50.5105C557.628 50.5105 574.433 68.2085 574.433 95.7387V102.353L507.931 102.532C509.54 118.085 517.763 125.951 532.243 125.951C544.221 125.951 552.087 121.303 554.589 112.9H574.79C571.036 132.207 554.947 143.827 531.886 143.827ZM531.35 68.3872C518.478 68.3872 510.613 75.3592 508.467 88.588H552.802C552.802 76.4318 544.4 68.3872 531.35 68.3872Z" fill="white"/>
<path d="M610.793 143.827C592.022 143.827 580.581 132.922 580.581 116.297C580.581 100.029 592.38 89.8394 613.296 88.2305L639.753 86.264V84.2976C639.753 72.3201 632.603 67.4934 621.519 67.4934C608.648 67.4934 601.497 72.8564 601.497 82.1524H582.905C582.905 63.0242 598.637 50.5105 622.592 50.5105C646.368 50.5105 661.027 63.3817 661.027 87.8729V141.503H641.899L640.29 128.453C636.536 137.57 624.558 143.827 610.793 143.827ZM617.944 127.381C631.351 127.381 639.932 119.336 639.932 105.75V101.102L621.519 102.532C607.933 103.783 602.748 108.252 602.748 115.403C602.748 123.448 608.111 127.381 617.944 127.381Z" fill="white"/>
<path d="M697.94 141.503H676.309V8.5H697.94V141.503Z" fill="white"/>
<path fill-rule="evenodd" clip-rule="evenodd" d="M66.8954 82.7298C76.8612 81.5144 89.9745 83.4935 97.9334 87.507C137.531 107.475 167.874 139.831 185.127 167.865C187.106 171.08 188.001 173.833 188 175.997C187.998 178.19 187.062 179.822 185.387 180.566C183.765 181.287 181.619 181.097 179.321 180.084C177.007 179.064 174.454 177.177 171.94 174.35C165.594 167.216 157.963 159.337 148.772 150.755C132.898 136.401 109.144 120.746 93.7117 114.977C75.8743 108.308 65.5685 110.663 59.9545 116.924L59.6899 117.225C56.4432 121.018 53.2016 127.707 51.6424 139.163L51.4966 140.286C51.0767 143.696 50.8123 147.443 50.726 151.548C50.623 156.446 47.916 161.043 43.3602 163.047L43.3506 163.052C42.9329 163.228 42.5141 163.401 42.0943 163.573L40.8322 164.084C31.7875 167.701 22.2743 161.03 22.4603 151.334C22.5583 146.229 22.8875 141.427 23.4423 136.922C25.3594 121.356 30.0901 108.442 38.2144 98.9517C46.8795 88.8301 56.5837 83.9875 66.8954 82.7298Z" fill="white"/>
<path fill-rule="evenodd" clip-rule="evenodd" d="M7.88807 20.8969C37.3031 7.143 78.5253 -3.414 121.868 1.02926C136.621 2.54163 145.733 7.8328 153.634 14.5139C161.555 21.2109 166.99 30.5697 168.643 43.77C170.193 56.1468 167.02 69.5259 160.032 83.5796C158.009 87.6466 155.635 91.8378 152.9 96.1566C147.707 104.355 136.079 104.722 130.517 96.7459C129.999 96.0023 129.487 95.2549 128.983 94.5044L128.977 94.4957C126.276 90.3256 126.553 85.0031 129.17 80.8549L129.977 79.5605C131.82 76.5628 133.401 73.7183 134.74 71.0247L135.238 70.0062C140.096 59.9184 141.173 52.6976 140.676 47.7601L140.621 47.274C139.561 38.8178 132.319 31.0324 113.442 26.7697C97.3643 23.1391 68.875 23.2109 47.693 26.5122L47.692 26.5113C35.2826 28.6477 24.5641 31.051 15.3282 33.5357C11.6679 34.5204 8.49505 34.6987 5.99931 34.2841C3.52042 33.8724 1.62222 32.8571 0.664245 31.3656C-0.325377 29.8247 -0.206366 27.9472 1.00221 26.1149C2.1946 24.3072 4.46145 22.4992 7.88807 20.8969Z" fill="white"/>
</svg>
