<svg width="460" height="369" viewBox="0 0 460 369" fill="none" xmlns="http://www.w3.org/2000/svg">
<path fill-rule="evenodd" clip-rule="evenodd" d="M202.582 82.7298C212.548 81.5144 223.028 83.6535 233.62 87.507L234.645 87.8851L234.679 87.8976L234.711 87.914C274.308 107.882 303.561 139.831 320.814 167.865C322.793 171.08 323.688 173.833 323.687 175.997C323.685 178.19 322.749 179.822 321.074 180.566C319.451 181.287 317.306 181.097 315.008 180.084C312.694 179.064 310.141 177.177 307.626 174.35C301.28 167.216 293.649 159.337 284.458 150.755C268.585 136.401 244.83 120.746 229.398 114.977C211.561 108.308 201.255 110.663 195.641 116.924L195.376 117.225C192.13 121.018 188.888 127.707 187.329 139.163L187.183 140.286C186.763 143.696 186.499 147.443 186.413 151.548C186.31 156.446 183.603 161.043 179.047 163.047L179.037 163.052C178.619 163.228 178.201 163.401 177.781 163.573L176.519 164.084C167.474 167.701 157.961 161.03 158.147 151.334C158.245 146.229 158.574 141.427 159.129 136.922C161.046 121.356 165.777 108.442 173.901 98.9517C182.566 88.8301 192.27 83.9875 202.582 82.7298Z" fill="black"/>
<path fill-rule="evenodd" clip-rule="evenodd" d="M143.575 20.8969C172.99 7.143 214.212 -3.414 257.555 1.02926L259.656 1.25592L259.691 1.26364C271.087 3.83715 281.419 7.8328 289.321 14.5139C297.242 21.2109 302.676 30.5697 304.33 43.77C305.88 56.1468 302.707 69.526 295.718 83.5796C293.696 87.6466 291.322 91.8378 288.586 96.1566C283.393 104.355 271.766 104.722 266.204 96.7459C265.685 96.0023 265.174 95.2549 264.67 94.5044L264.664 94.4957C261.963 90.3256 262.24 85.0031 264.857 80.8549L265.663 79.5605C267.507 76.5628 269.087 73.7183 270.427 71.0247L270.925 70.0062C275.782 59.9184 276.859 52.6976 276.362 47.7601L276.307 47.274C275.248 38.8178 268.005 31.0324 249.129 26.7698C233.051 23.1391 204.562 23.2109 183.38 26.5122L183.379 26.5113C170.969 28.6477 160.251 31.051 151.015 33.5357C147.354 34.5204 144.182 34.6987 141.686 34.2841C139.207 33.8724 137.309 32.8571 136.351 31.3656C135.361 29.8247 135.48 27.9472 136.689 26.1149C137.881 24.3072 140.148 22.4992 143.575 20.8969Z" fill="black"/>
<path d="M0 326.003V195.324H52.0215C77.764 195.324 93.4956 208.732 93.4956 230.541C93.4956 245.021 87.06 255.39 74.725 260.574C88.4901 265.043 95.4621 275.412 95.4621 290.607C95.4621 312.953 79.9092 326.003 52.9153 326.003H0ZM50.055 215.525H22.8823V251.1H50.5913C63.1051 251.1 70.077 244.485 70.077 232.865C70.077 221.603 62.9263 215.525 50.055 215.525ZM52.0215 270.406H22.8823V305.803H52.0215C64.8927 305.803 72.0435 299.546 72.0435 287.747C72.0435 276.663 64.714 270.406 52.0215 270.406Z" fill="black"/>
<path d="M97.2923 366.941V348.707H110.342C118.923 348.707 124.286 346.74 128.04 336.372L130.543 329.757L94.9683 237.692H118.029L140.733 302.048L164.688 237.692H187.213L143.951 345.668C137.336 362.114 128.04 368.908 113.56 368.908C107.482 368.908 102.119 368.193 97.2923 366.941Z" fill="black"/>
<path d="M248.518 237.334V257.535H240.473C224.742 257.535 214.91 265.937 214.91 283.099V326.003H193.1V237.871H213.658L214.91 250.742C218.664 241.982 227.066 236.083 238.864 236.083C241.904 236.083 244.943 236.441 248.518 237.334Z" fill="black"/>
<path d="M293.32 328.327C267.041 328.327 248.628 309.199 248.628 281.848C248.628 254.139 266.683 235.01 292.604 235.01C319.062 235.01 335.866 252.708 335.866 280.239V286.853L269.365 287.032C270.974 302.585 279.197 310.451 293.677 310.451C305.655 310.451 313.52 305.803 316.023 297.4H336.224C332.47 316.707 316.381 328.327 293.32 328.327ZM292.783 252.887C279.912 252.887 272.046 259.859 269.901 273.088H314.235C314.235 260.932 305.833 252.887 292.783 252.887Z" fill="black"/>
<path d="M372.227 328.327C353.456 328.327 342.015 317.422 342.015 300.797C342.015 284.529 353.814 274.339 374.729 272.73L401.187 270.764V268.798C401.187 256.82 394.036 251.993 382.953 251.993C370.081 251.993 362.931 257.356 362.931 266.652H344.339C344.339 247.524 360.07 235.01 384.025 235.01C407.801 235.01 422.46 247.882 422.46 272.373V326.003H403.332L401.723 312.953C397.969 322.07 385.992 328.327 372.227 328.327ZM379.377 311.881C392.785 311.881 401.366 303.836 401.366 290.25V285.602L382.953 287.032C369.366 288.283 364.182 292.752 364.182 299.903C364.182 307.948 369.545 311.881 379.377 311.881Z" fill="black"/>
<path d="M459.374 326.003H437.743V193H459.374V326.003Z" fill="black"/>
</svg>
