<svg width="698" height="187" viewBox="0 0 698 187" fill="none" xmlns="http://www.w3.org/2000/svg">
<path d="M238.566 143.503V12.824H290.588C316.33 12.824 332.062 26.2316 332.062 48.0413C332.062 62.5215 325.626 72.89 313.291 78.0743C327.057 82.5435 334.028 92.912 334.028 108.107C334.028 130.453 318.476 143.503 291.482 143.503H238.566ZM288.621 33.0248H261.449V68.5996H289.158C301.671 68.5996 308.643 61.9851 308.643 50.3652C308.643 39.1029 301.493 33.0248 288.621 33.0248ZM290.588 87.9065H261.449V123.303H290.588C303.459 123.303 310.61 117.046 310.61 105.247C310.61 94.1634 303.28 87.9065 290.588 87.9065Z" fill="black"/>
<path d="M335.859 184.441V166.207H348.909C357.49 166.207 362.853 164.24 366.607 153.872L369.109 147.257L333.535 55.192H356.596L379.299 119.548L403.254 55.192H425.779L382.517 163.168C375.903 179.614 366.607 186.408 352.127 186.408C346.048 186.408 340.685 185.693 335.859 184.441Z" fill="black"/>
<path d="M487.084 54.8344V75.0352H479.04C463.308 75.0352 453.476 83.4373 453.476 100.599V143.503H431.666V55.3707H452.225L453.476 68.242C457.23 59.4824 465.632 53.5831 477.431 53.5831C480.47 53.5831 483.509 53.9406 487.084 54.8344Z" fill="black"/>
<path d="M531.886 145.827C505.607 145.827 487.194 126.699 487.194 99.3476C487.194 71.6386 505.249 52.5105 531.171 52.5105C557.628 52.5105 574.433 70.2085 574.433 97.7387V104.353L507.931 104.532C509.54 120.085 517.763 127.951 532.243 127.951C544.221 127.951 552.087 123.303 554.589 114.9H574.79C571.036 134.207 554.947 145.827 531.886 145.827ZM531.35 70.3872C518.478 70.3872 510.613 77.3592 508.467 90.588H552.802C552.802 78.4318 544.4 70.3872 531.35 70.3872Z" fill="black"/>
<path d="M610.793 145.827C592.022 145.827 580.581 134.922 580.581 118.297C580.581 102.029 592.38 91.8394 613.296 90.2305L639.753 88.264V86.2976C639.753 74.3201 632.603 69.4934 621.519 69.4934C608.648 69.4934 601.497 74.8564 601.497 84.1524H582.905C582.905 65.0242 598.637 52.5105 622.592 52.5105C646.368 52.5105 661.027 65.3817 661.027 89.8729V143.503H641.899L640.29 130.453C636.536 139.57 624.558 145.827 610.793 145.827ZM617.944 129.381C631.351 129.381 639.932 121.336 639.932 107.75V103.102L621.519 104.532C607.933 105.783 602.748 110.252 602.748 117.403C602.748 125.448 608.111 129.381 617.944 129.381Z" fill="black"/>
<path d="M697.94 143.503H676.309V10.5H697.94V143.503Z" fill="black"/>
<path fill-rule="evenodd" clip-rule="evenodd" d="M66.8954 82.7298C76.8612 81.5144 89.9745 83.4935 97.9334 87.507C137.531 107.475 167.874 139.831 185.127 167.865C187.106 171.08 188.001 173.833 188 175.997C187.998 178.19 187.062 179.822 185.387 180.566C183.765 181.287 181.619 181.097 179.321 180.084C177.007 179.064 174.454 177.177 171.94 174.35C165.594 167.216 157.963 159.337 148.772 150.755C132.898 136.401 109.144 120.746 93.7117 114.977C75.8743 108.308 65.5685 110.663 59.9545 116.924L59.6899 117.225C56.4432 121.018 53.2016 127.707 51.6424 139.163L51.4966 140.286C51.0767 143.696 50.8123 147.443 50.726 151.548C50.623 156.446 47.916 161.043 43.3602 163.047L43.3506 163.052C42.9329 163.228 42.5141 163.401 42.0943 163.573L40.8322 164.084C31.7875 167.701 22.2743 161.03 22.4603 151.334C22.5583 146.229 22.8875 141.427 23.4423 136.922C25.3594 121.356 30.0901 108.442 38.2144 98.9517C46.8795 88.8301 56.5837 83.9875 66.8954 82.7298Z" fill="black"/>
<path fill-rule="evenodd" clip-rule="evenodd" d="M7.88807 20.8969C37.3031 7.143 78.5253 -3.414 121.868 1.02926C136.621 2.54163 145.733 7.8328 153.634 14.5139C161.555 21.2109 166.99 30.5697 168.643 43.77C170.193 56.1468 167.02 69.5259 160.032 83.5796C158.009 87.6466 155.635 91.8378 152.9 96.1566C147.707 104.355 136.079 104.722 130.517 96.7459C129.999 96.0023 129.487 95.2549 128.983 94.5044L128.977 94.4957C126.276 90.3256 126.553 85.0031 129.17 80.8549L129.977 79.5605C131.82 76.5628 133.401 73.7183 134.74 71.0247L135.238 70.0062C140.096 59.9184 141.173 52.6976 140.676 47.7601L140.621 47.274C139.561 38.8178 132.319 31.0324 113.442 26.7697C97.3643 23.1391 68.875 23.2109 47.693 26.5122L47.692 26.5113C35.2826 28.6477 24.5641 31.051 15.3282 33.5357C11.6679 34.5204 8.49505 34.6987 5.99931 34.2841C3.52042 33.8724 1.62222 32.8571 0.664245 31.3656C-0.325377 29.8247 -0.206366 27.9472 1.00221 26.1149C2.1946 24.3072 4.46145 22.4992 7.88807 20.8969Z" fill="black"/>
</svg>
