<svg width="250" height="250" viewBox="0 0 250 250" fill="none" xmlns="http://www.w3.org/2000/svg">
<path fill-rule="evenodd" clip-rule="evenodd" d="M101.788 116.846C110.323 115.805 121.553 117.5 128.369 120.937C162.279 138.036 188.265 165.745 203.04 189.752C204.734 192.505 205.501 194.863 205.5 196.715C205.499 198.593 204.697 199.991 203.262 200.629C201.873 201.246 200.036 201.083 198.067 200.216C196.086 199.342 193.9 197.726 191.746 195.305C186.312 189.196 179.777 182.449 171.905 175.099C158.312 162.808 137.969 149.402 124.753 144.461C109.477 138.75 100.652 140.766 95.844 146.128L95.6174 146.386C92.837 149.634 90.0609 155.362 88.7257 165.172L88.6008 166.135C88.2412 169.055 88.0148 172.263 87.9409 175.778C87.8527 179.973 85.5345 183.91 81.633 185.626L81.6247 185.63C81.267 185.781 80.9083 185.929 80.5489 186.076L79.468 186.514C71.7223 189.611 63.5753 183.899 63.7346 175.596C63.8185 171.223 64.1005 167.112 64.5756 163.254C66.2174 149.923 70.2687 138.865 77.2262 130.738C84.6468 122.07 92.9573 117.923 101.788 116.846Z" fill="white"/>
<path fill-rule="evenodd" clip-rule="evenodd" d="M51.2552 63.8952C76.4457 52.1169 111.748 43.0764 148.866 46.8814C161.5 48.1765 169.303 52.7076 176.07 58.429C182.853 64.1641 187.507 72.1785 188.923 83.4826C190.251 94.0815 187.533 105.539 181.548 117.574C179.816 121.056 177.783 124.646 175.441 128.344C170.993 135.365 161.036 135.679 156.273 128.849C155.829 128.212 155.391 127.572 154.959 126.929L154.954 126.922C152.641 123.351 152.878 118.793 155.119 115.24L155.81 114.132C157.388 111.565 158.742 109.129 159.889 106.822L160.316 105.95C164.475 97.3113 165.398 91.1278 164.972 86.8995L164.925 86.4832C164.018 79.2418 157.815 72.5747 141.65 68.9244C127.881 65.8152 103.483 65.8768 85.3435 68.7038L85.3426 68.703C74.7154 70.5326 65.5363 72.5906 57.6268 74.7184C54.4922 75.5617 51.775 75.7144 49.6377 75.3593C47.5148 75.0067 45.8892 74.1373 45.0688 72.86C44.2214 71.5405 44.3233 69.9327 45.3583 68.3636C46.3794 66.8156 48.3207 65.2673 51.2552 63.8952Z" fill="white"/>
</svg>
