<svg width="138" height="138" viewBox="0 0 138 138" fill="none" xmlns="http://www.w3.org/2000/svg">
<path d="M38.9658 41.5106C49.4857 36.7543 63.8988 33.2123 79.0361 34.7723L79.8202 34.8594L80.6261 35.05C84.4485 35.9893 87.9443 37.4213 90.6723 39.7464C93.6072 42.2402 95.6055 45.7223 96.2099 50.5929L96.2589 51.0231C96.6945 55.3383 95.6055 59.9449 93.3131 64.7338L93.079 65.213C92.4419 66.5089 91.7014 67.8402 90.8683 69.2042L90.5035 69.7896C88.4997 72.9695 84.0402 73.1682 81.8131 70.1653L81.7097 70.021L81.1543 69.2042C80.0761 67.5244 80.1959 65.4117 81.2142 63.7836L81.5028 63.3208C82.1562 62.2481 82.717 61.2354 83.1907 60.277L83.5338 59.5583C84.1545 58.2161 84.5792 57.029 84.8569 55.9836C85.2653 54.4726 85.3633 53.2583 85.2871 52.3027L85.2544 51.9678C85.0366 50.2227 84.0238 48.4939 81.6171 47.0754C80.3321 46.3158 78.6495 45.6461 76.4824 45.1098L75.8671 44.9627C70.177 43.6695 60.0328 43.6913 52.4751 44.8756C48.5982 45.5481 45.1841 46.2913 42.1839 47.0645L40.9261 47.3994C39.5648 47.767 38.356 47.8405 37.3813 47.6798C36.4284 47.5192 35.6008 47.1081 35.1597 46.4193C34.686 45.6788 34.7731 44.8048 35.285 44.0289C35.775 43.2775 36.6735 42.5778 37.9422 41.9816L38.9658 41.5106Z" fill="white"/>
<path d="M59.2315 65.3926C62.7872 64.957 66.4898 65.6894 70.1979 67.0071L70.9384 67.2794L71.0092 67.3093C85.2917 74.5594 95.8388 86.152 102.057 96.3207L102.188 96.5439C102.83 97.652 103.152 98.6539 103.152 99.4951C103.152 100.091 102.983 100.628 102.651 101.028C102.465 101.251 102.231 101.434 101.943 101.562C101.562 101.733 101.137 101.788 100.696 101.747C100.483 101.725 100.266 101.684 100.048 101.621C99.83 101.562 99.6122 101.483 99.3944 101.387C98.5504 101.012 97.6465 100.35 96.7644 99.3971L96.5902 99.2038C94.3305 96.6419 91.6079 93.8132 88.3246 90.7286L87.7855 90.2467C82.3186 85.3897 74.5485 80.2441 69.2559 78.1151L68.7332 77.9109C62.5095 75.5695 59.0736 76.4135 57.2277 78.3955L57.0535 78.5888C56.803 78.8855 56.5471 79.2367 56.2966 79.6533C55.5071 80.9792 54.7666 82.9612 54.331 85.8797L54.2221 86.6665C54.0914 87.7283 54.0043 88.8854 53.9661 90.1405L53.9498 90.685C53.9335 91.5698 53.6993 92.4356 53.2746 93.1898C52.7737 94.0746 52.0114 94.8097 51.0258 95.248L50.1165 95.6237C46.5608 97.053 42.8255 94.404 42.9018 90.5897L42.9181 89.8982C42.9671 88.2973 43.0814 86.7809 43.2557 85.3434L43.321 84.8152C43.6695 82.2288 44.2412 79.8384 45.0526 77.6767C45.5862 76.2583 46.2232 74.9351 46.9747 73.7209C47.4811 72.8987 48.0419 72.1255 48.6572 71.404L48.9567 71.0582C52.0549 67.5571 55.5343 65.8473 59.2315 65.3926Z" fill="white"/>
<path d="M126.848 69C126.848 37.0512 100.949 11.1515 69 11.1515C37.0512 11.1515 11.1515 37.0512 11.1515 69C11.1515 100.949 37.0512 126.848 69 126.848C100.949 126.848 126.848 100.949 126.848 69ZM138 69C138 107.108 107.108 138 69 138C30.8924 138 0 107.108 0 69C0 30.8924 30.8924 0 69 0C107.108 0 138 30.8924 138 69Z" fill="white"/>
</svg>
