<svg width="460" height="177" viewBox="0 0 460 177" fill="none" xmlns="http://www.w3.org/2000/svg">
<path d="M0.566406 133.503V2.82398H52.5879C78.3304 2.82398 94.062 16.2316 94.062 38.0413C94.062 52.5215 87.6264 62.89 75.2914 68.0743C89.0565 72.5435 96.0285 82.912 96.0285 98.1073C96.0285 120.453 80.4756 133.503 53.4817 133.503H0.566406ZM50.6214 23.0248H23.4487V58.5996H51.1577C63.6715 58.5996 70.6434 51.9851 70.6434 40.3652C70.6434 29.1029 63.4927 23.0248 50.6214 23.0248ZM52.5879 77.9065H23.4487V113.303H52.5879C65.4592 113.303 72.6099 107.046 72.6099 95.247C72.6099 84.1634 65.2804 77.9065 52.5879 77.9065Z" fill="white"/>
<path d="M97.8587 174.441V156.207H110.909C119.49 156.207 124.853 154.24 128.607 143.872L131.109 137.257L95.5347 45.192H118.596L141.299 109.548L165.254 45.192H187.779L144.517 153.168C137.903 169.614 128.607 176.408 114.127 176.408C108.048 176.408 102.685 175.693 97.8587 174.441Z" fill="white"/>
<path d="M249.084 44.8344V65.0352H241.04C225.308 65.0352 215.476 73.4373 215.476 90.599V133.503H193.666V45.3707H214.225L215.476 58.242C219.23 49.4824 227.632 43.5831 239.431 43.5831C242.47 43.5831 245.509 43.9406 249.084 44.8344Z" fill="white"/>
<path d="M293.886 135.827C267.607 135.827 249.194 116.699 249.194 89.3476C249.194 61.6386 267.249 42.5105 293.171 42.5105C319.628 42.5105 336.433 60.2085 336.433 87.7387V94.3531L269.931 94.5319C271.54 110.085 279.763 117.951 294.243 117.951C306.221 117.951 314.087 113.303 316.589 104.9H336.79C333.036 124.207 316.947 135.827 293.886 135.827ZM293.35 60.3872C280.478 60.3872 272.613 67.3592 270.467 80.588H314.802C314.802 68.4318 306.4 60.3872 293.35 60.3872Z" fill="white"/>
<path d="M372.793 135.827C354.022 135.827 342.581 124.922 342.581 108.297C342.581 92.0292 354.38 81.8394 375.296 80.2305L401.753 78.264V76.2976C401.753 64.3201 394.603 59.4934 383.519 59.4934C370.648 59.4934 363.497 64.8564 363.497 74.1524H344.905C344.905 55.0242 360.637 42.5105 384.592 42.5105C408.368 42.5105 423.027 55.3817 423.027 79.8729V133.503H403.899L402.29 120.453C398.536 129.57 386.558 135.827 372.793 135.827ZM379.944 119.381C393.351 119.381 401.932 111.336 401.932 97.7497V93.1018L383.519 94.5319C369.933 95.7833 364.748 100.252 364.748 107.403C364.748 115.448 370.111 119.381 379.944 119.381Z" fill="white"/>
<path d="M459.94 133.503H438.309V0.5H459.94V133.503Z" fill="white"/>
</svg>
