<svg xmlns="http://www.w3.org/2000/svg" width="550" height="222" fill="none" viewBox="0 0 550 290"><path fill="#fff" d="M497.548 219.624v-71.165h-41.133v-9.227h92.062v9.227h-41.133v71.165h-9.796Zm-69.951 0-71.11-68.535v68.535h-9.773v-80.392h11.405l71.11 68.535v-68.535h9.774v80.392h-11.406Zm-103.378-80.392h-9.773v80.392h9.773v-80.392Zm-77.957 82.591c-10.25 0-19.161-1.722-26.462-5.101-7.347-3.514-12.994-8.547-16.803-14.963-3.809-6.393-5.737-13.943-5.737-22.422 0-8.479 1.928-16.006 5.737-22.331 3.833-6.348 9.478-11.313 16.803-14.736 7.301-3.47 16.212-5.215 26.462-5.215 10.249 0 19.047 1.769 26.372 5.215 7.392 3.423 13.083 8.434 16.915 14.849 3.809 6.326 5.737 13.784 5.737 22.218s-1.928 16.029-5.737 22.422c-3.832 6.348-9.523 11.359-16.915 14.85-7.303 3.468-16.191 5.214-26.372 5.214Zm0-75.564c-8.209 0-15.352 1.361-21.179 4.036-5.759 2.63-10.204 6.439-13.242 11.336-2.971 4.897-4.468 10.86-4.468 17.683 0 6.825 1.52 12.946 4.49 17.934 3.016 4.874 7.483 8.682 13.22 11.312 5.827 2.675 12.97 4.036 21.179 4.036 8.208 0 15.237-1.361 21.066-4.036 5.736-2.697 10.158-6.552 13.106-11.426 3.061-4.987 4.603-10.973 4.603-17.82 0-6.847-1.542-12.786-4.581-17.683-2.97-4.897-7.369-8.706-13.128-11.336-5.76-2.675-12.858-4.036-21.066-4.036Zm-148.57-7.027h55.169c6.304 0 11.927 1.133 16.667 3.355 4.83 2.267 8.639 5.577 11.292 9.885 2.653 4.217 3.991 9.249 3.991 14.985 0 5.736-1.338 10.792-3.991 15.077-2.653 4.217-6.439 7.549-11.269 9.885-4.763 2.244-10.386 3.355-16.69 3.355h-45.395v23.873h-9.774v-80.415Zm53.401 47.178c7.03 0 12.811-1.518 17.188-4.534 4.309-2.992 6.417-7.708 6.417-14.442 0-6.732-2.086-11.403-6.417-14.328-4.399-3.105-10.182-4.647-17.188-4.647h-43.627v37.951h43.627Z"/><path fill="#fff" fill-rule="evenodd" d="M211.551 64.514h59.418v-15.17h-78.517v74.26h79.481l13.91-15.807h38.156v15.807h19.138v-74.26h-29.2l-54.541 59.09h-47.845V93.37h50.787V79.579h-50.787V64.514Zm112.448 29.068h-28.131l27.663-30.129h.468v30.129Z" clip-rule="evenodd"/><path fill="#fff" d="M186.197 76.608c0 12.094-6.154 21.006-16.128 24.93l13.688 22.066h-22.494l-11.99-19.838h-30.77v19.838H99.404v-74.26h58.358c16.87 0 28.435 10.715 28.435 27.264Zm-67.694-11.244v22.384h33.953c5.73 0 14.642-.793 14.642-11.14 0-10.451-8.912-11.244-14.642-11.244h-33.953ZM82.564 83.292c6.366 3.925 10.504 10.078 10.504 18.671 0 12.519-7.32 21.641-24.191 21.641H.97v-74.26h65.36c16.87 0 22.07 8.594 22.07 19.52 0 5.198-2.123 10.29-5.836 14.428ZM20.068 63.136v15.382H59.54c5.093 0 9.762-1.586 9.762-7.744 0-6.052-4.669-7.638-9.868-7.638H20.068Zm44.14 45.722c5.093 0 9.762-1.586 9.762-7.85 0-6.264-4.67-7.85-9.762-7.85H20.069v15.7h44.139Zm305.656-59.514h-19.1v74.261h19.1V86.518l48.752 37.086h29.047l-49.913-37.13 49.913-37.13h-29.047l-48.752 37.087V49.344ZM41.874 28.298l-6.626 7.093a1.56 1.56 0 0 1-1.127.498H2.71a.773.773 0 0 1-.562-1.296l6.625-7.103a1.562 1.562 0 0 1 1.127-.499H41.31a.774.774 0 0 1 .564 1.307Zm-6.626-14.306a1.547 1.547 0 0 0-1.127-.499H2.71a.768.768 0 0 0-.562 1.292l6.625 7.113a1.544 1.544 0 0 0 1.127.498H41.31a.767.767 0 0 0 .564-1.292l-6.626-7.112ZM2.712 8.887H34.12a1.562 1.562 0 0 0 1.126-.499l6.627-7.091A.772.772 0 0 0 41.31 0H9.9a1.56 1.56 0 0 0-1.126.499L2.15 7.591a.773.773 0 0 0 .563 1.296Zm77.246 6.266h-16.79V9.571H84.33V3.988H63.128a5.545 5.545 0 0 0-5.544 5.543v5.662a5.543 5.543 0 0 0 5.543 5.543h16.792v5.582H57.982v5.584h21.976a5.545 5.545 0 0 0 5.545-5.543v-5.663a5.543 5.543 0 0 0-5.545-5.543Zm32.495-11.165H95.617a5.545 5.545 0 0 0-5.543 5.543v16.828a5.545 5.545 0 0 0 5.543 5.543h16.836a5.547 5.547 0 0 0 5.119-3.423 5.531 5.531 0 0 0 .42-2.12V9.53a5.527 5.527 0 0 0-3.418-5.122 5.543 5.543 0 0 0-2.121-.421Zm-.045 22.33H95.657V9.572h16.751v16.748Zm59.039-22.33h-16.452a5.549 5.549 0 0 0-5.122 3.422 5.552 5.552 0 0 0-.421 2.12v22.372h5.584V22.73h16.351v9.172h5.584V9.53a5.54 5.54 0 0 0-5.524-5.543Zm-.039 13.159h-16.353V9.57h16.353v7.577-.001Zm65.42-13.16h-16.453a5.541 5.541 0 0 0-5.524 5.544V31.9h5.584V22.73h16.353v9.172h5.584V9.53a5.535 5.535 0 0 0-1.624-3.92 5.548 5.548 0 0 0-3.92-1.623Zm-.04 13.16h-16.353V9.57h16.353v7.577-.001Zm-32.491 9.172h-2.233l-7.977-20.01a3.71 3.71 0 0 0-3.46-2.322h-4.986a3.695 3.695 0 0 0-3.694 3.694V31.9h5.584V9.57h2.233l8.007 20.01a3.689 3.689 0 0 0 3.445 2.322h4.985a3.692 3.692 0 0 0 3.695-3.694V3.988h-5.584l-.015 22.331ZM128.546 3.988h-5.584v22.37a5.545 5.545 0 0 0 5.544 5.544h16.791v-5.584h-16.751V3.989Z"/></svg>