<svg width="20" height="20" viewBox="0 0 20 20" fill="none" xmlns="http://www.w3.org/2000/svg"><circle cx="9.992" cy="9.992" r="8.587" transform="rotate(-45 9.992 9.992)" fill="#F087FF" fill-opacity=".2" stroke="#F087FF" stroke-width="1.2"/><path d="M5.392 2.528a2.025 2.025 0 1 1-2.864 2.864 2.025 2.025 0 0 1 2.864-2.864ZM17.456 14.592a2.025 2.025 0 1 1-2.864 2.863 2.025 2.025 0 0 1 2.864-2.863ZM17.456 5.392a2.025 2.025 0 1 1-2.864-2.864 2.025 2.025 0 0 1 2.864 2.864ZM5.392 17.455a2.025 2.025 0 1 1-2.864-2.863 2.025 2.025 0 0 1 2.864 2.863Z" fill="#36203A" stroke="#F087FF" stroke-width="1.2"/><circle cx="9.992" cy="9.992" r="3.337" transform="rotate(-45 9.992 9.992)" stroke="#F087FF" stroke-width="1.2"/></svg>