<svg width="944" height="283" viewBox="0 0 944 283" fill="none" xmlns="http://www.w3.org/2000/svg">
<g style="mix-blend-mode:overlay" opacity="0.8">
<rect x="246" width="1145" height="8" fill="white" style="fill:white;fill-opacity:1;"/>
<rect x="234" y="11" width="1177" height="8" fill="white" style="fill:white;fill-opacity:1;"/>
<rect x="221" y="22" width="1190" height="8" fill="white" style="fill:white;fill-opacity:1;"/>
<rect x="213" y="33" width="1198" height="8" fill="white" style="fill:white;fill-opacity:1;"/>
<rect x="203" y="44" width="1188" height="8" fill="white" style="fill:white;fill-opacity:1;"/>
<rect x="191" y="55" width="1194" height="8" fill="white" style="fill:white;fill-opacity:1;"/>
<rect x="180" y="66" width="1193" height="8" fill="white" style="fill:white;fill-opacity:1;"/>
<rect x="169" y="77" width="1191" height="8" fill="white" style="fill:white;fill-opacity:1;"/>
<rect x="158" y="88" width="1196" height="8" fill="white" style="fill:white;fill-opacity:1;"/>
<rect x="147" y="99" width="1194" height="8" fill="white" style="fill:white;fill-opacity:1;"/>
<rect x="136" y="110" width="1193" height="8" fill="white" style="fill:white;fill-opacity:1;"/>
<rect x="126" y="121" width="1196" height="8" fill="white" style="fill:white;fill-opacity:1;"/>
<rect x="114" y="132" width="1197" height="8" fill="white" style="fill:white;fill-opacity:1;"/>
<rect x="102" y="143" width="1194" height="8" fill="white" style="fill:white;fill-opacity:1;"/>
<rect x="91" y="154" width="1194" height="8" fill="white" style="fill:white;fill-opacity:1;"/>
<rect x="81" y="165" width="1197" height="8" fill="white" style="fill:white;fill-opacity:1;"/>
<rect x="71" y="176" width="1193" height="8" fill="white" style="fill:white;fill-opacity:1;"/>
<rect x="59" y="187" width="1194" height="8" fill="white" style="fill:white;fill-opacity:1;"/>
<rect x="48" y="198" width="1198" height="8" fill="white" style="fill:white;fill-opacity:1;"/>
<rect x="37" y="209" width="1196" height="8" fill="white" style="fill:white;fill-opacity:1;"/>
<rect x="26" y="220" width="1195" height="8" fill="white" style="fill:white;fill-opacity:1;"/>
<rect x="15" y="231" width="1194" height="8" fill="white" style="fill:white;fill-opacity:1;"/>
<rect x="1" y="242" width="1195" height="8" fill="white" style="fill:white;fill-opacity:1;"/>
<rect x="1" y="253" width="1189" height="8" fill="white" style="fill:white;fill-opacity:1;"/>
<rect x="1" y="264" width="1175" height="8" fill="white" style="fill:white;fill-opacity:1;"/>
<rect x="15" y="275" width="1149" height="8" fill="white" style="fill:white;fill-opacity:1;"/>
</g>
</svg>
