<svg width="395" height="80" viewBox="0 0 395 80" fill="none" xmlns="http://www.w3.org/2000/svg">
<g style="mix-blend-mode:overlay" opacity="0.71">
<rect width="320.327" height="2.2381" transform="matrix(1 0 0 -1 68.8214 79.1726)" fill="white" style="fill:white;fill-opacity:1;"/>
<rect width="329.28" height="2.2381" transform="matrix(1 0 0 -1 65.4643 76.0952)" fill="white" style="fill:white;fill-opacity:1;"/>
<rect width="332.917" height="2.2381" transform="matrix(1 0 0 -1 61.8274 73.0178)" fill="white" style="fill:white;fill-opacity:1;"/>
<rect width="335.155" height="2.2381" transform="matrix(1 0 0 -1 59.5893 69.9404)" fill="white" style="fill:white;fill-opacity:1;"/>
<rect width="332.357" height="2.2381" transform="matrix(1 0 0 -1 56.7917 66.863)" fill="white" style="fill:white;fill-opacity:1;"/>
<rect width="334.036" height="2.2381" transform="matrix(1 0 0 -1 53.4345 63.7856)" fill="white" style="fill:white;fill-opacity:1;"/>
<rect width="333.756" height="2.2381" transform="matrix(1 0 0 -1 50.3571 60.7083)" fill="white" style="fill:white;fill-opacity:1;"/>
<rect width="333.196" height="2.2381" transform="matrix(1 0 0 -1 47.2798 57.6309)" fill="white" style="fill:white;fill-opacity:1;"/>
<rect width="334.595" height="2.2381" transform="matrix(1 0 0 -1 44.2024 54.5535)" fill="white" style="fill:white;fill-opacity:1;"/>
<rect width="334.036" height="2.2381" transform="matrix(1 0 0 -1 41.125 51.4761)" fill="white" style="fill:white;fill-opacity:1;"/>
<rect width="333.756" height="2.2381" transform="matrix(1 0 0 -1 38.0476 48.3987)" fill="white" style="fill:white;fill-opacity:1;"/>
<rect width="334.595" height="2.2381" transform="matrix(1 0 0 -1 35.25 45.3215)" fill="white" style="fill:white;fill-opacity:1;"/>
<rect width="334.875" height="2.2381" transform="matrix(1 0 0 -1 31.8929 42.2441)" fill="white" style="fill:white;fill-opacity:1;"/>
<rect width="334.036" height="2.2381" transform="matrix(1 0 0 -1 28.5357 39.1667)" fill="white" style="fill:white;fill-opacity:1;"/>
<rect width="334.036" height="2.2381" transform="matrix(1 0 0 -1 25.4583 36.0894)" fill="white" style="fill:white;fill-opacity:1;"/>
<rect width="334.875" height="2.2381" transform="matrix(1 0 0 -1 22.6607 33.012)" fill="white" style="fill:white;fill-opacity:1;"/>
<rect width="333.756" height="2.2381" transform="matrix(1 0 0 -1 19.8631 29.9346)" fill="white" style="fill:white;fill-opacity:1;"/>
<rect width="334.036" height="2.2381" transform="matrix(1 0 0 -1 16.506 26.8572)" fill="white" style="fill:white;fill-opacity:1;"/>
<rect width="335.155" height="2.2381" transform="matrix(1 0 0 -1 13.4286 23.7798)" fill="white" style="fill:white;fill-opacity:1;"/>
<rect width="334.595" height="2.2381" transform="matrix(1 0 0 -1 10.3512 20.7024)" fill="white" style="fill:white;fill-opacity:1;"/>
<rect width="334.315" height="2.2381" transform="matrix(1 0 0 -1 7.2738 17.625)" fill="white" style="fill:white;fill-opacity:1;"/>
<rect width="334.036" height="2.2381" transform="matrix(1 0 0 -1 4.19644 14.5476)" fill="white" style="fill:white;fill-opacity:1;"/>
<rect width="334.315" height="2.2381" transform="matrix(1 0 0 -1 0.279755 11.4702)" fill="white" style="fill:white;fill-opacity:1;"/>
<rect width="332.637" height="2.2381" transform="matrix(1 0 0 -1 0.279755 8.39282)" fill="white" style="fill:white;fill-opacity:1;"/>
<rect width="328.72" height="2.2381" transform="matrix(1 0 0 -1 0.279755 5.31543)" fill="white" style="fill:white;fill-opacity:1;"/>
<rect width="321.446" height="2.2381" transform="matrix(1 0 0 -1 4.19644 2.23804)" fill="white" style="fill:white;fill-opacity:1;"/>
</g>
</svg>
