<svg width="151" height="84" viewBox="0 0 151 84" fill="none" xmlns="http://www.w3.org/2000/svg">
<rect width="151" height="83" transform="translate(0 0.0483398)" fill="#322F43"/>
<path d="M94.5556 20.9995C85.4474 20.9995 77.3074 25.7439 77.3074 34.5075C77.3074 44.5588 91.7434 45.2529 91.7434 50.3031C91.7434 52.4295 89.319 54.3326 85.1765 54.3326C79.2991 54.3326 74.9062 51.6734 74.9062 51.6734L73.0262 60.5183C73.0262 60.5183 78.0869 62.7646 84.8054 62.7646C94.7636 62.7646 102.601 57.788 102.601 48.8735C102.601 38.2519 88.1042 37.5783 88.1042 32.892C88.1042 31.2263 90.0946 29.4018 94.2243 29.4018C98.8843 29.4018 102.685 31.336 102.685 31.336L104.525 22.7943C104.525 22.7943 100.388 20.9995 94.5543 20.9995H94.5556ZM11.2209 21.6447L11 22.9336C11 22.9336 14.8318 23.6381 18.2835 25.0445C22.7278 26.6561 23.0436 27.5954 23.7923 30.5089L31.9476 62.0989H42.8805L59.7229 21.6447H48.8157L37.9932 49.1496L33.5772 25.8342C33.1727 23.1659 31.1207 21.6434 28.6102 21.6434H11.2222L11.2209 21.6447ZM64.1094 21.6447L55.5534 62.0989H65.9547L70.2172 41.8718L74.4798 21.6447H64.1094ZM122.12 21.6447C119.612 21.6447 118.283 22.9943 117.309 25.3516L102.07 62.0989H112.977L115.087 55.9739H128.375L129.658 62.0989H139.282L130.887 21.6447H122.12ZM123.539 32.5746L126.773 47.7548H118.111L123.54 32.5746H123.539Z" fill="white"/>
</svg>
