<svg preserveAspectRatio="none" width="100%" height="100%" overflow="visible" style="display: block;" viewBox="0 0 195.652 72" fill="none" xmlns="http://www.w3.org/2000/svg">
<g id="Frame">
<path id="Vector" d="M72.7047 18.4167H93.5539V21.4043H76.6738V24.4986H92.6149V27.3153H76.6738V33.3545H72.7047V18.4167ZM94.8366 18.4167H98.8058V29.6413H114.149V33.3545H94.8366V18.4167ZM123.903 18.4167H129.004L138.308 33.3547H133.485L131.991 30.8578H120.894L119.401 33.3547H114.578L123.903 18.4167ZM129.985 27.4648L126.443 21.5537L122.922 27.4648H129.985ZM143.682 28.6812C143.682 28.8804 143.774 29.0867 143.959 29.3001C144.144 29.5135 144.5 29.7055 145.026 29.8763C145.553 30.0469 146.285 30.1892 147.224 30.303C148.163 30.4026 149.387 30.4525 150.895 30.4525C152.189 30.4525 153.278 30.4098 154.16 30.3243C155.042 30.2391 155.753 30.1253 156.294 29.9829C156.849 29.8407 157.247 29.677 157.489 29.4921C157.73 29.2929 157.852 29.0867 157.852 28.8732C157.852 28.6456 157.724 28.4394 157.467 28.2543C157.225 28.0552 156.814 27.8845 156.231 27.7422C155.661 27.5999 154.914 27.4932 153.989 27.4221C153.064 27.3369 151.919 27.2942 150.553 27.2941C148.178 27.2941 146.236 27.1732 144.728 26.9314C143.234 26.6895 142.06 26.3623 141.206 25.9497C140.353 25.5371 139.763 25.0605 139.435 24.5199C139.122 23.9793 138.966 23.4031 138.966 22.7913C138.966 22.0799 139.158 21.4397 139.542 20.8707C139.926 20.3016 140.552 19.8251 141.42 19.4411C142.302 19.0426 143.461 18.7367 144.898 18.5233C146.335 18.3099 148.106 18.2032 150.212 18.2032C152.389 18.2032 154.224 18.3171 155.718 18.5447C157.225 18.7582 158.435 19.064 159.345 19.4623C160.27 19.8606 160.932 20.3372 161.33 20.8922C161.743 21.4327 161.949 22.0302 161.949 22.6847L157.874 22.9407C157.874 22.77 157.766 22.5922 157.553 22.4072C157.339 22.2081 156.948 22.0302 156.379 21.8737C155.824 21.703 155.049 21.5678 154.053 21.4684C153.072 21.3686 151.805 21.3188 150.255 21.3189C148.875 21.3189 147.722 21.3616 146.798 21.447C145.873 21.5322 145.133 21.646 144.578 21.7884C144.023 21.9306 143.625 22.1013 143.383 22.3006C143.156 22.4996 143.042 22.7059 143.042 22.9195C143.042 23.1471 143.163 23.3676 143.404 23.581C143.661 23.7801 144.08 23.9579 144.664 24.1144C145.247 24.2568 146.015 24.3706 146.968 24.4559C147.921 24.5413 149.095 24.584 150.489 24.5838C152.823 24.5838 154.729 24.7048 156.209 24.9468C157.702 25.1744 158.868 25.4944 159.709 25.9071C160.561 26.3053 161.144 26.7818 161.458 27.3367C161.771 27.8774 161.927 28.4535 161.927 29.0653C161.927 29.805 161.721 30.4595 161.308 31.0285C160.911 31.5834 160.27 32.0529 159.387 32.4371C158.507 32.8068 157.353 33.0915 155.931 33.2906C154.523 33.4756 152.801 33.5681 150.767 33.5681C148.647 33.5681 146.84 33.4685 145.347 33.2692C143.853 33.0559 142.629 32.75 141.676 32.3516C140.723 31.9533 140.026 31.4696 139.585 30.9005C139.158 30.3315 138.944 29.6842 138.944 28.9587L143.682 28.6812ZM163.233 18.4167H167.203V24.0078H181.223V18.4167H185.17V33.3547H181.223V27.6783H167.203V33.3547H163.233V18.4167ZM80.259 43.5797H72.0644V39.9306H92.3801V43.5797H84.2068V54.8686H80.259V43.5797ZM93.1842 39.9306H106.906C108.613 39.9306 110.007 40.0587 111.089 40.3147C112.17 40.5708 113.016 40.9194 113.628 41.3604C114.254 41.8014 114.681 42.3207 114.908 42.9182C115.15 43.5014 115.271 44.1274 115.271 44.7962C115.271 45.3652 115.186 45.9058 115.015 46.418C114.858 46.9302 114.567 47.3925 114.14 47.805C113.727 48.2176 113.158 48.5733 112.433 48.872C111.707 49.1709 110.79 49.3843 109.68 49.5123L116.167 54.8686H110.213L103.982 49.6616H97.132V54.8686H93.1842V39.9306ZM97.132 46.546H106.906C107.831 46.546 108.57 46.5033 109.125 46.418C109.694 46.3184 110.128 46.1904 110.427 46.0339C110.74 45.8773 110.946 45.6924 111.046 45.479C111.145 45.2657 111.195 45.038 111.195 44.7962C111.197 44.5603 111.146 44.327 111.046 44.1132C110.946 43.8998 110.74 43.7149 110.427 43.5584C110.128 43.4018 109.694 43.2809 109.125 43.1956C108.57 43.096 107.831 43.0462 106.906 43.0462H97.132V46.546ZM126.133 39.9306H131.233L140.538 54.8686H135.715L134.221 52.3718H123.124L121.63 54.8686H116.807L126.133 39.9306ZM132.215 48.9788L128.673 43.0676L125.151 48.9788H132.215ZM141.601 39.9306H153.381C155.344 39.9306 156.98 40.1299 158.288 40.5282C159.612 40.9123 160.672 41.4458 161.469 42.1286C162.279 42.7973 162.848 43.5869 163.176 44.4973C163.517 45.4079 163.689 46.3753 163.689 47.3995C163.689 48.4238 163.517 49.3913 163.176 50.3019C162.848 51.2123 162.279 52.009 161.469 52.692C160.672 53.3607 159.612 53.8941 158.288 54.2924C156.98 54.6766 155.344 54.8686 153.381 54.8686H141.601V39.9306ZM153.381 51.07C154.633 51.07 155.657 50.9776 156.453 50.7927C157.264 50.5934 157.905 50.3303 158.374 50.003C158.843 49.6616 159.171 49.2704 159.356 48.8294C159.54 48.3741 159.634 47.8905 159.634 47.3782C159.634 46.8804 159.54 46.4108 159.356 45.9698C159.171 45.5146 158.843 45.1234 158.374 44.7962C157.905 44.4546 157.264 44.1915 156.453 44.0066C155.657 43.8073 154.633 43.7077 153.381 43.7077H145.57V51.07H153.381ZM164.962 39.9306H185.812V42.9182H168.932V46.0125H184.872V48.7867H168.932V51.881H185.812V54.8686H164.962V39.9306Z" fill="var(--fill-0, white)"/>
<path id="Vector_2" d="M49.2939 14.8376C49.2939 15.9754 49.3673 23.3178 49.3673 24.8862H48.1036C41.431 24.8862 34.7584 24.8862 28.0858 24.8464C27.2518 24.8464 26.6957 25.0848 26.1 25.6805C20.738 31.0822 15.2967 36.444 9.93492 41.8855C9.33908 42.4812 8.78299 42.7195 7.94878 42.6798C5.80409 42.64 3.6594 42.6798 1.51455 42.6798H0C0 42.1837 0.00109129 42.1176 0.00109129 41.8794C-0.000467694 39.7494 -0.000467694 37.6193 0.00530054 35.4115C0.00748311 34.7885 0.124563 34.3391 0.601143 33.8625C6.75741 27.7458 12.8739 21.5896 19.0302 15.473C19.4274 15.0362 19.8245 14.7979 20.4203 14.7979C29.9128 14.8376 39.4054 14.8376 48.8583 14.8376H49.2939Z" fill="var(--fill-0, white)"/>
<path id="Vector_3" d="M63.1711 28.8594C63.3697 28.8594 63.5683 28.899 63.886 28.899V37.5973C63.4095 37.6369 63.0122 37.6369 62.615 37.6369C59.9142 37.6767 57.2135 37.6767 54.5523 37.6369C53.7182 37.6369 53.1621 37.8753 52.5664 38.4711C46.6881 44.389 40.7702 50.2673 34.892 56.225C34.2565 56.8206 33.6607 57.0988 32.7869 57.059H15.9466C16.4232 57.059 15.5098 57.059 15.9466 57.059C16.3834 57.059 15.47 57.059 15.9466 57.059C16.5027 57.0988 26.8292 46.9707 27.2662 46.5337C30.0067 43.7536 32.7473 41.013 35.5274 38.2328C35.6467 38.1136 35.726 37.9944 35.9644 37.6767C30.2847 37.6767 24.6979 37.6815 18.9787 37.6815C19.4473 37.2129 19.6816 36.9603 19.9978 36.644C22.3808 34.2609 24.7639 31.9176 27.1469 29.5346C27.5839 29.0976 28.0207 28.8594 28.6959 28.8594H63.1711Z" fill="var(--fill-0, white)"/>
</g>
</svg>
