<svg width="132" height="40" viewBox="0 0 132 40" fill="#007CBF" xmlns="http://www.w3.org/2000/svg">
<path d="M49.8588 9.7041V12.4627H44.3653V30.3192H40.9801V12.4627H35.457V9.7041H49.8588Z"/>
<path d="M54.4138 11.8101C53.8001 11.8101 53.2854 11.6025 52.8697 11.1872C52.4539 10.7719 52.2461 10.2578 52.2461 9.64482C52.2461 9.0318 52.4539 8.51766 52.8697 8.10239C53.2854 7.68713 53.8001 7.47949 54.4138 7.47949C55.0077 7.47949 55.5125 7.68713 55.9282 8.10239C56.3439 8.51766 56.5518 9.0318 56.5518 9.64482C56.5518 10.2578 56.3439 10.7719 55.9282 11.1872C55.5125 11.6025 55.0077 11.8101 54.4138 11.8101ZM56.0767 13.9754V30.3192H52.6915V13.9754H56.0767Z"/>
<path d="M63.3109 16.3781C63.885 15.6266 64.667 14.9938 65.6568 14.4797C66.6466 13.9655 67.7651 13.7085 69.0123 13.7085C70.4376 13.7085 71.7343 14.0644 72.9022 14.7763C74.09 15.4684 75.0204 16.4473 75.6935 17.7128C76.3666 18.9784 76.7031 20.4319 76.7031 22.0732C76.7031 23.7145 76.3666 25.1877 75.6935 26.4928C75.0204 27.7781 74.09 28.7866 72.9022 29.5183C71.7343 30.2302 70.4376 30.5861 69.0123 30.5861C67.7651 30.5861 66.6565 30.339 65.6865 29.8446C64.7165 29.3305 63.9246 28.6977 63.3109 27.9462V38.0906H59.9258V13.9754H63.3109V16.3781ZM73.2586 22.0732C73.2586 20.946 73.021 19.977 72.5459 19.1663C72.0906 18.3357 71.4769 17.7128 70.7049 17.2976C69.9526 16.8625 69.1409 16.645 68.2699 16.645C67.4187 16.645 66.607 16.8625 65.835 17.2976C65.0827 17.7326 64.469 18.3654 63.9939 19.1959C63.5386 20.0265 63.3109 21.0053 63.3109 22.1325C63.3109 23.2596 63.5386 24.2484 63.9939 25.0987C64.469 25.9292 65.0827 26.562 65.835 26.997C66.607 27.4321 67.4187 27.6496 68.2699 27.6496C69.1409 27.6496 69.9526 27.4321 70.7049 26.997C71.4769 26.5422 72.0906 25.8897 72.5459 25.0394C73.021 24.189 73.2586 23.2003 73.2586 22.0732Z"/>
<path d="M82.8422 27.5903H89.8204V30.3192H79.457V9.7041H82.8422V27.5903Z"/>
<path d="M93.781 11.8101C93.1673 11.8101 92.6526 11.6025 92.2369 11.1872C91.8212 10.7719 91.6133 10.2578 91.6133 9.64482C91.6133 9.0318 91.8212 8.51766 92.2369 8.10239C92.6526 7.68713 93.1673 7.47949 93.781 7.47949C94.3749 7.47949 94.8797 7.68713 95.2954 8.10239C95.7111 8.51766 95.919 9.0318 95.919 9.64482C95.919 10.2578 95.7111 10.7719 95.2954 11.1872C94.8797 11.6025 94.3749 11.8101 93.781 11.8101ZM95.4439 13.9754V30.3192H92.0587V13.9754H95.4439Z"/>
<path d="M107.548 13.7085C108.835 13.7085 109.983 13.9754 110.993 14.5093C112.022 15.0433 112.824 15.8343 113.398 16.8823C113.972 17.9304 114.259 19.1959 114.259 20.679V30.3192H110.904V21.1833C110.904 19.72 110.537 18.6027 109.805 17.8315C109.072 17.0405 108.073 16.645 106.806 16.645C105.539 16.645 104.529 17.0405 103.777 17.8315C103.045 18.6027 102.678 19.72 102.678 21.1833V30.3192H99.293V13.9754H102.678V15.8441C103.233 15.1718 103.935 14.6478 104.787 14.2721C105.658 13.8963 106.578 13.7085 107.548 13.7085Z"/>
<path d="M124.458 22.1619L132 30.319H127.427L121.369 23.2891V30.319H117.984V8.36914H121.369V21.1238L127.308 13.9752H132L124.458 22.1619Z"/>
<path d="M2.17433 2.17195C-0.724774 5.06788 -0.724775 9.76311 2.17432 12.659L8.25848 18.7365L10.3582 16.6391L4.27404 10.5616C2.53458 8.82406 2.53458 6.00692 4.27404 4.26937C6.0135 2.53181 8.83371 2.53181 10.5732 4.26937L23.1714 16.8539C24.9109 18.5914 24.9109 21.4086 23.1714 23.1461C21.432 24.8837 18.6118 24.8837 16.8723 23.1461L14.9586 21.2345L12.8589 23.332L14.7726 25.2436C17.6717 28.1395 22.3721 28.1395 25.2712 25.2436C28.1702 22.3476 28.1703 17.6524 25.2712 14.7565L12.6729 2.17195C9.77379 -0.723983 5.07342 -0.723983 2.17433 2.17195Z"/>
<path d="M9.52332 19.9998L2.17432 27.3408C-0.724774 30.2367 -0.724773 34.9319 2.17432 37.8279C5.07342 40.7238 9.77378 40.7238 12.6729 37.8279L21.0766 29.4333C19.7907 29.576 18.4813 29.4569 17.2348 29.0761L10.5732 35.7305C8.83371 37.468 6.01349 37.468 4.27403 35.7305C2.53458 33.9929 2.53458 31.1758 4.27403 29.4382L16.8723 16.8537C17.4899 16.2368 18.2437 15.8389 19.0369 15.6601L16.7269 13.3525C16.0215 13.7015 15.3601 14.1694 14.7726 14.7563L11.623 17.9024L11.618 17.8974L9.5183 19.9948L9.52332 19.9998Z"/>
</svg>
