<svg version="1.2" xmlns="http://www.w3.org/2000/svg" viewBox="0 0 1536 301" width="1536" height="301">
	<title>soc104-ai</title>
	<style>
		.s0 { fill: #2c2e35 } 
		.s1 { fill: #ff2e31 } 
		.s2 { fill: #ffffff } 
	</style>
	<g id="Layer 1">
		<g id="&lt;Group&gt;">
			<g id="&lt;Group&gt;">
				<path id="&lt;Path&gt;" class="s0" d="m500.5 34.1c-16.1-6.8-33.4-11.3-48.8-11.3-22.4 0-33.6 4.9-33.6 13.5 0 24.8 100.1 4.9 100.1 57.8 0 21.9-20.5 38.9-61.8 38.9-24.4 0-43.5-5.1-65.5-17l9.1-19.7c19.2 10.7 37.2 15.4 56.6 15.4 24.4 0 37.5-7 37.5-17.6 0-27.1-100.2-6.8-100.2-56.4 0-21.4 20.4-36.2 57.4-36.2 22 0 40.6 4.9 58.4 13.8z"/>
				<path id="&lt;Compound Path&gt;" fill-rule="evenodd" class="s0" d="m612 133.6c-40.4 0-73-29.7-73-66.5 0-36.7 32.6-66.4 73-66.4 40.4 0 73 29.7 73 66.4 0 36.8-32.6 66.5-73 66.5zm48.9-66.3c0-25-21.8-45.2-48.9-45.2-27 0-48.9 20.2-48.9 45.2 0 24.9 21.9 45.1 48.9 45.1 27.1 0 48.9-20.2 48.9-45.1z"/>
				<path id="&lt;Path&gt;" class="s0" d="m780.6 133.5c-42 0-73.7-26.6-73.7-66.5 0-39.2 32.2-66.3 73.7-66.3 24.8 0 42.6 7 58.5 18.7l-12.4 18.5c-11.6-8.9-26.1-15.4-45.4-15.4-30.7 0-49.7 19.3-49.7 44.5 0 25.9 19.2 44.7 50 44.7 19.3 0 34.6-6.2 46.1-15.1l12.4 18.5c-15.9 11.7-34.7 18.4-59.5 18.4z"/>
				<path id="&lt;Path&gt;" class="s0" d="m865.5 4.5h23.3v125.6h-23.3z"/>
				<path id="&lt;Path&gt;" class="s0" d="m923.3 130.1v-125.6h114.4v20.8h-91.1v30.5h70.8v20.7h-70.8v32.8h95.1v20.8z"/>
				<path id="&lt;Path&gt;" class="s0" d="m1128.6 25.2v104.9h-23.2v-104.9h-51.3v-20.7h125.7v20.7z"/>
				<path id="&lt;Path&gt;" class="s0" d="m1198.5 130.1v-125.6h114.4v20.8h-91.1v30.5h70.9v20.7h-70.9v32.8h95.1v20.8z"/>
				<path id="&lt;Path&gt;" class="s0" d="m462.8 278.7c12.7 0 25.9-2.8 35.8-7.5v-36.6h22.6v48.8c-15.9 10.7-37.8 17.3-59.4 17.3-42 0-73.7-26.7-73.7-66.5 0-39.2 32.2-66.3 73.7-66.3 24.3 0 42.5 6.8 58.5 18.6l-12.4 18.4c-11.6-8.9-26.2-14.9-45.5-14.9-30.6-0.7-49.7 19.1-49.7 44.2 0 26 19.3 44.5 50.1 44.5z"/>
				<path id="&lt;Path&gt;" class="s0" d="m551.9 297.3v-125.6h114.4v20.8h-91.1v30.5h70.8v20.7h-70.8v32.8h95.1v20.8z"/>
				<path id="&lt;Path&gt;" class="s0" d="m716 297.3h-22.8v-125.6h23.8l81.9 94.6 0.6-0.1c-1.4-23.8-1.6-43.1-1.6-61.7v-32.8h22.8v125.6h-23.6l-81.6-94.6-0.4 0.2c0.9 18.6 0.9 51 0.9 61.6z"/>
				<path id="&lt;Path&gt;" class="s0" d="m853.5 297.3v-125.6h114.3v20.8h-91.1v30.5h70.9v20.7h-70.9v32.8h95.2v20.8z"/>
				<path id="&lt;Compound Path&gt;" fill-rule="evenodd" class="s0" d="m1057.3 251.1h-37.5v46.2h-23.3v-125.6h80.7c26.8 0 43.4 16.5 43.4 40.1 0 22.4-16.3 35.8-36 38.6l37.3 46.9h-29.1zm17.4-20.9c14.5 0 22.8-7.6 22.8-18.4 0-12-7.3-19.3-20.3-19.3h-57.5v37.7z"/>
				<path id="&lt;Compound Path&gt;" fill-rule="evenodd" class="s0" d="m1169.7 266.8l-14.4 30.5h-25.2l61.2-125.6h24.4l61.3 125.6h-25.1l-14.5-30.5zm9.7-20.4h48.4l-24.1-50.9z"/>
				<path id="&lt;Path&gt;" class="s0" d="m1294.1 297.3v-125.6h23.3v104.8h83.9v20.8z"/>
				<path id="&lt;Path&gt;" class="s0" d="m1417 297.3v-125.6h114.5v20.8h-91.2v30.5h70.9v20.7h-70.9v32.8h95.1v20.8z"/>
			</g>
		</g>
		<path id="&lt;Path&gt;" class="s1" d="m0.6 0.6h300.1v153h-300.1z"/>
		<path id="&lt;Path&gt;" class="s0" d="m0.6 150.6h300.1v150.1h-300.1z"/>
		<path id="&lt;Path&gt;" class="s2" d="m53 141.5h195.3v18.2h-195.3z"/>
	</g>
</svg>