<svg version="1.2" xmlns="http://www.w3.org/2000/svg" viewBox="0 0 1543 316" width="1543" height="316">
	<title>soc104c-ai</title>
	<style>
		.s0 { fill: #ffffff } 
		.s1 { fill: #ff2e31 } 
		.s2 { fill: #2c2e35 } 
	</style>
	<g id="Layer 1">
		<g id="&lt;Group&gt;">
			<g id="&lt;Group&gt;">
				<g id="&lt;Group&gt;">
					<path id="&lt;Path&gt;" class="s0" d="m507.5 41.7c-16.2-6.8-33.4-11.2-48.8-11.2-22.5 0-33.7 4.8-33.7 13.4 0 24.8 100.2 4.9 100.2 57.7 0 21.9-20.6 38.8-61.8 38.8-24.5 0-43.6-5-65.5-16.9l9-19.7c19.3 10.7 37.2 15.4 56.6 15.4 24.5 0 37.6-7.1 37.6-17.6 0-27.1-100.2-6.8-100.2-56.4 0-21.3 20.4-36 57.3-36 22.1 0 40.7 4.8 58.4 13.7z"/>
					<path id="&lt;Compound Path&gt;" fill-rule="evenodd" class="s0" d="m619 141c-40.4 0-73.1-29.6-73.1-66.3 0-36.7 32.7-66.4 73.1-66.4 40.4 0 73 29.7 73 66.4 0 36.7-32.6 66.3-73 66.3zm48.9-66.2c0-24.9-21.9-45.1-48.9-45.1-27.1 0-48.9 20.2-48.9 45.1 0 24.9 21.8 45 48.9 45 27 0 48.9-20.1 48.9-45z"/>
					<path id="&lt;Path&gt;" class="s0" d="m787.6 140.9c-42.1 0-73.7-26.6-73.7-66.4 0-39.1 32.1-66.2 73.7-66.2 24.8 0 42.5 7 58.4 18.8l-12.4 18.3c-11.5-8.8-26-15.3-45.3-15.3-30.7 0-49.8 19.3-49.8 44.4 0 25.9 19.3 44.7 50.1 44.7 19.2 0 34.5-6.2 46-15.1l12.5 18.4c-16 11.7-34.7 18.4-59.5 18.4z"/>
					<path id="&lt;Path&gt;" class="s0" d="m872.4 12.2h23.4v125.3h-23.4z"/>
					<path id="&lt;Path&gt;" class="s0" d="m930.3 137.5v-125.3h114.3v20.7h-91v30.5h70.7v20.6h-70.7v32.8h95.1v20.7z"/>
					<path id="&lt;Path&gt;" class="s0" d="m1135.6 32.8v104.7h-23.3v-104.7h-51.2v-20.6h125.6v20.6z"/>
					<path id="&lt;Path&gt;" class="s0" d="m1205.5 137.5v-125.3h114.4v20.7h-91.1v30.5h70.8v20.6h-70.8v32.8h95.1v20.7z"/>
					<path id="&lt;Path&gt;" class="s0" d="m469.7 285.9c12.8 0 26-2.9 35.9-7.6v-36.4h22.6v48.7c-15.9 10.6-37.8 17.2-59.5 17.2-42 0-73.6-26.6-73.6-66.4 0-39.1 32.1-66.1 73.6-66.1 24.3 0 42.6 6.8 58.5 18.5l-12.4 18.4c-11.6-8.9-26.1-14.9-45.4-14.9-30.7-0.7-49.7 19.1-49.7 44.1 0 25.9 19.2 44.5 50 44.5z"/>
					<path id="&lt;Path&gt;" class="s0" d="m558.9 304.4v-125.3h114.4v20.7h-91.2v30.4h70.9v20.7h-70.9v32.8h95.2v20.7z"/>
					<path id="&lt;Path&gt;" class="s0" d="m723 304.4h-22.8v-125.3h23.7l81.9 94.4 0.6-0.1c-1.4-23.8-1.5-43-1.5-61.6v-32.7h22.7v125.3h-23.6l-81.6-94.4-0.3 0.2c0.9 18.5 0.9 50.9 0.9 61.5z"/>
					<path id="&lt;Path&gt;" class="s0" d="m860.4 304.4v-125.3h114.4v20.7h-91.1v30.4h70.8v20.7h-70.8v32.8h95.1v20.7z"/>
					<path id="&lt;Compound Path&gt;" fill-rule="evenodd" class="s0" d="m1064.3 258.3h-37.6v46.1h-23.3v-125.3h80.8c26.7 0 43.3 16.4 43.3 39.9 0 22.4-16.3 35.8-36 38.6l37.4 46.8h-29.2zm17.4-20.9c14.6 0 22.8-7.5 22.8-18.4 0-11.8-7.2-19.2-20.3-19.2h-57.4v37.6z"/>
					<path id="&lt;Compound Path&gt;" fill-rule="evenodd" class="s0" d="m1176.6 274l-14.4 30.4h-25.2l61.2-125.3h24.5l61.3 125.3h-25.2l-14.4-30.4zm9.7-20.4h48.4l-24.1-50.8z"/>
					<path id="&lt;Path&gt;" class="s0" d="m1301.1 304.4v-125.3h23.2v104.6h83.9v20.7z"/>
					<path id="&lt;Path&gt;" class="s0" d="m1424 304.4v-125.3h114.4v20.7h-91.1v30.4h70.8v20.7h-70.8v32.8h95.1v20.7z"/>
				</g>
			</g>
		</g>
		<path id="&lt;Path&gt;" class="s0" d="m0 0.8h315.2v314.5h-315.2z"/>
		<path id="&lt;Path&gt;" class="s1" d="m7.5 8.2h300.2v152.8h-300.2z"/>
		<path id="&lt;Path&gt;" class="s2" d="m7.5 158h300.2v149.8h-300.2z"/>
		<path id="&lt;Path&gt;" class="s0" d="m59.9 148.9h195.3v18.2h-195.3z"/>
	</g>
</svg>