<svg xmlns="http://www.w3.org/2000/svg" width="149" height="23" fill="none">
    <mask id="kw92m5ht" width="149" height="23" x="0" y="0" maskUnits="userSpaceOnUse" style="mask-type:luminance">
        <path fill="#fff" d="M0 0h149v22.142H0V0Z"/>
    </mask>
    <g mask="url(#kw92m5ht)">
        <path fill="url(#pn47x3vj)"
              d="m25.033 17.458-4.087 4.382a.945.945 0 0 1-.692.302H.879a.476.476 0 0 1-.348-.798l4.082-4.382a.946.946 0 0 1 .692-.302H24.68a.473.473 0 0 1 .353.798Zm-4.087-8.827a.955.955 0 0 0-.692-.302H.879a.475.475 0 0 0-.348.798l4.082 4.385a.956.956 0 0 0 .692.302H24.68a.476.476 0 0 0 .346-.798l-4.08-4.385ZM.879 5.483h19.375a.945.945 0 0 0 .692-.302L25.033.798a.475.475 0 0 0-.09-.724A.473.473 0 0 0 24.68 0H5.305a.946.946 0 0 0-.692.302L.531 4.685a.475.475 0 0 0 .348.798Z"/>
        <path fill="white"
              d="M48.653 9.365H38.288V5.95h13.06V2.538H38.252a3.407 3.407 0 0 0-3.425 3.388v3.46a3.406 3.406 0 0 0 3.425 3.392h10.38v3.414H35.075v3.413h13.578a3.408 3.408 0 0 0 3.425-3.388v-3.46a3.406 3.406 0 0 0-3.425-3.392Zm20.08-6.827H58.33a3.407 3.407 0 0 0-3.434 3.388v10.291a3.405 3.405 0 0 0 3.434 3.389h10.405a3.407 3.407 0 0 0 3.425-3.389V5.926a3.403 3.403 0 0 0-2.12-3.136 3.406 3.406 0 0 0-1.305-.252Zm-.025 13.654H58.354V5.952h10.35l.004 10.24Zm36.468-13.654H95.028a3.407 3.407 0 0 0-3.425 3.388v13.68h3.46v-5.607h10.102v5.607h3.46V5.926a3.413 3.413 0 0 0-2.136-3.143 3.408 3.408 0 0 0-1.313-.246Zm-.025 8.047H95.049V5.951h10.102v4.634Zm40.424-8.047h-10.149a3.406 3.406 0 0 0-3.425 3.388v13.68h3.46v-5.607h10.079v5.607H149V5.926a3.416 3.416 0 0 0-1.011-2.403 3.407 3.407 0 0 0-2.414-.985Zm-.035 8.047h-10.102V5.951h10.102v4.634Zm-20.066 5.607h-1.384l-4.948-12.224a2.274 2.274 0 0 0-2.113-1.43h-3.07a2.27 2.27 0 0 0-2.283 2.26v14.808h3.46V5.95h1.384l4.945 12.225a2.285 2.285 0 0 0 2.122 1.42h3.07a2.27 2.27 0 0 0 2.283-2.26V2.538h-3.466v13.654Zm-46.8-13.654h-3.46v13.68a3.405 3.405 0 0 0 3.438 3.388H89.03v-3.414H78.675V2.538Z"/>
    </g>
    <defs>
        <linearGradient id="pn47x3vj" x1="2.494" x2="22.809" y1="22.671" y2="-.233" gradientUnits="userSpaceOnUse">
            <stop offset=".08" stop-color="#9945FF"/>
            <stop offset=".3" stop-color="#8752F3"/>
            <stop offset=".5" stop-color="#5497D5"/>
            <stop offset=".6" stop-color="#43B4CA"/>
            <stop offset=".72" stop-color="#28E0B9"/>
            <stop offset=".97" stop-color="#19FB9B"/>
        </linearGradient>
    </defs>
</svg>