<svg viewBox="0 0 48 48" fill="none" xmlns="http://www.w3.org/2000/svg">
    <circle cx="24" cy="24" r="24"/>
    <path opacity="0.2" d="M27 12V19H34.001L27 12Z"/>
    <path class="svg-stroke" d="M33 36H14.999C14.7338 36 14.4795 35.8946 14.2919 35.7071C14.1044 35.5196 13.999 35.2652 13.999 35V13C13.999 12.7348 14.1044 12.4804 14.2919 12.2929C14.4795 12.1054 14.7338 12 14.999 12H27L34 19V35C34 35.1313 33.9741 35.2614 33.9239 35.3827C33.8736 35.504 33.8 35.6143 33.7071 35.7071C33.6143 35.8 33.504 35.8736 33.3827 35.9239C33.2614 35.9741 33.1313 36 33 36Z" stroke-width="2" stroke-linecap="round" stroke-linejoin="round"/>
    <path class="svg-stroke" d="M27 12V19H34.001" stroke-width="2" stroke-linecap="round" stroke-linejoin="round"/>
</svg>