<svg width="24" height="24" viewBox="0 0 24 24" fill="none" xmlns="http://www.w3.org/2000/svg">
<path d="M12.1372 10.8505L8.63152 5.80859H6.76172L11.1044 12.0538L11.651 12.8394L15.3681 18.1895H17.2379L12.6815 11.6361L12.1372 10.8505Z" />
<path d="M20.3271 2H3.67292C2.74896 2 2 2.74896 2 3.67292V20.3271C2 21.251 2.74896 22 3.67292 22H20.3271C21.251 22 22 21.251 22 20.3271V3.67292C22 2.74896 21.251 2 20.3271 2ZM14.9412 19.2727L10.9753 13.6245L6.0104 19.2727H4.72727L10.4063 12.8139L4.72727 4.72727H9.05877L12.8134 10.0745L17.5178 4.72727H18.8009L13.3854 10.8869L19.2727 19.2727H14.9412Z" />
</svg>