<svg width="22" height="22" viewBox="0 0 22 22" fill="none" xmlns="http://www.w3.org/2000/svg">
<g id="settings--adjust-carbon">
<path id="Vector" fill-rule="evenodd" clip-rule="evenodd" d="M17.6 5.66667H20.3333V7H17.6C17.2666 8.53333 15.9333 9.66667 14.3333 9.66667C12.7333 9.66667 11.4 8.53333 11.0666 7H1.66663V5.66667H11.0666C11.4 4.13333 12.7333 3 14.3333 3C15.9333 3 17.2666 4.13333 17.6 5.66667ZM12.3333 6.33333C12.3333 7.46667 13.2 8.33333 14.3333 8.33333C15.4666 8.33333 16.3333 7.46667 16.3333 6.33333C16.3333 5.2 15.4666 4.33333 14.3333 4.33333C13.2 4.33333 12.3333 5.2 12.3333 6.33333ZM4.39996 16.3333H1.66663V15H4.39996C4.73329 13.4667 6.06663 12.3333 7.66663 12.3333C9.26663 12.3333 10.6 13.4667 10.9333 15H20.3333V16.3333H10.9333C10.6 17.8667 9.26663 19 7.66663 19C6.06663 19 4.73329 17.8667 4.39996 16.3333ZM9.66663 15.6667C9.66663 14.5333 8.79996 13.6667 7.66663 13.6667C6.53329 13.6667 5.66663 14.5333 5.66663 15.6667C5.66663 16.8 6.53329 17.6667 7.66663 17.6667C8.79996 17.6667 9.66663 16.8 9.66663 15.6667Z" fill="#FFFDFF"/>
</g>
</svg>
