<svg width="152" height="84" viewBox="0 0 152 84" fill="none" xmlns="http://www.w3.org/2000/svg">
<rect width="151" height="83" transform="translate(0.5 0.937012)" fill="#322F43"/>
<g clip-path="url(#clip0_2148_18090)">
<path d="M16.1354 52.6851C13.3579 52.6851 12.0241 50.5368 12.7184 48.0501C14.159 42.899 23.4115 35.2645 29.716 35.2645C34.3191 35.2645 33.9654 39.4016 31.2709 42.9326L29.7807 44.5896C24.4358 49.8666 19.4802 52.6851 16.1354 52.6851ZM38.6731 17.9458C30.6261 17.9491 21.7618 22.9007 16.199 27.5909L16.6379 28.2307C25.2736 22.1415 37.2606 18.18 40.5654 24.1207C42.31 27.2558 39.347 33.5836 35.1763 38.5872C36.1769 36.3771 35.517 32.1358 29.702 32.1358C20.0312 32.1347 1 45.018 1 58.1995C1 63.4818 4.64126 66.9282 10.6396 66.9282C26.7001 66.9282 48.483 40.4503 48.483 27.1517C48.4819 22.4549 45.7949 17.9458 38.6731 17.9458ZM59.3485 52.6851C58.4159 52.6851 57.6374 52.3543 57.1511 51.7589C56.6432 51.1299 56.4923 50.2418 56.7338 49.3211C57.2654 47.3246 59.4035 45.7619 61.5999 45.7619H66.7669L64.9231 52.6861L59.3485 52.6851ZM74.2069 31.9244C72.7264 30.096 70.3359 29.2794 68.6215 29.2794H59.2278L57.6331 35.2601H66.4909L67.3384 35.3501C67.3481 35.3501 68.1546 35.4445 68.6 36.0529C68.9644 36.5593 69.0162 37.3151 68.7563 38.3031L68.3369 39.8755H62.7569C57.9522 39.8755 51.2563 43.3403 49.765 48.9394C49.0221 51.7318 49.6723 54.1501 51.115 55.9276C52.5469 57.6909 55.2458 58.6614 58.1636 58.6614H63.3316L63.3295 58.6636H69.9003L72.9809 47.0904L75.2495 38.5829C76.1402 35.2417 75.1751 33.1162 74.2069 31.9244ZM138.725 29.2794C136.185 29.2794 133.826 30.0352 131.903 31.4678C129.964 32.9123 128.895 34.6496 128.258 37.0419C126.876 42.2277 130.926 44.7306 134.186 46.5037C136.52 47.7779 138.538 48.8754 138.103 50.5021C137.792 51.67 137.287 52.6905 134.413 52.6905H125.643L124.05 58.6723H133.757C136.359 58.6723 138.763 58.1257 140.698 56.6314C142.638 55.1327 143.73 53.0418 144.41 50.4923C145.059 48.0642 144.618 45.7467 143.067 44.0149C141.774 42.565 139.91 41.5553 138.27 40.6639C136.169 39.5253 134.187 38.4517 134.534 37.1492C134.743 36.3641 135.524 35.2645 137.22 35.2645H145.749L147.344 29.2837H138.723V29.2794H138.725ZM87.8241 29.2794C85.2838 29.2794 82.9235 30.0352 81.002 31.4678C79.0633 32.9123 77.9948 34.6496 77.3532 37.0419C75.972 42.2277 80.0262 44.7306 83.2825 46.5037C85.618 47.7779 87.6365 48.8754 87.202 50.5021C86.8904 51.67 86.3847 52.6905 83.51 52.6905H74.7428L73.148 58.6723H82.8555C85.4606 58.6723 87.864 58.1257 89.7973 56.6314C91.7382 55.1327 92.8304 53.0418 93.5087 50.4923C94.1578 48.0642 93.7157 45.7467 92.1684 44.0149C90.8767 42.565 89.0102 41.5553 87.3669 40.6639C85.2676 39.5253 83.2858 38.4517 83.634 37.1492C83.8421 36.3641 84.6239 35.2645 86.3167 35.2645H94.8435L96.4394 29.2837H87.823L87.8241 29.2794ZM101.07 29.2794L93.4569 58.6669H99.8887L107.498 29.2794H101.07ZM124.613 29.2794C113.289 29.3206 107.364 36.9063 105.481 43.9726C103.25 52.3521 107.684 58.668 115.795 58.668H121.232L122.824 52.6861H117.391C114.355 52.6861 110.18 50.2819 111.863 43.9726C113.199 38.9559 118.058 35.2601 123.397 35.2601H126.846L128.441 29.2794H124.613ZM146.894 57.3232H147.456V56.0523H147.903C148.204 56.0523 148.414 56.0848 148.53 56.1542C148.732 56.2746 148.836 56.5229 148.836 56.896V57.153L148.846 57.256C148.85 57.2712 148.851 57.282 148.855 57.294L148.863 57.3232H149.392L149.373 57.2842C149.355 57.23 149.345 57.1733 149.345 57.1161C149.339 57.036 149.336 56.9557 149.336 56.8754V56.639C149.33 56.4584 149.27 56.2841 149.163 56.139C149.046 55.9677 148.861 55.8625 148.608 55.8213C148.806 55.7909 148.962 55.7421 149.074 55.664C149.285 55.5274 149.388 55.3181 149.387 55.0275C149.388 54.623 149.223 54.3508 148.892 54.2109C148.705 54.135 148.414 54.0981 148.015 54.0981H146.894V57.3232ZM148.505 55.5849C148.388 55.6315 148.208 55.6564 147.969 55.6564H147.457V54.4885H147.938C148.252 54.4885 148.48 54.5264 148.622 54.6067C148.766 54.6869 148.837 54.8442 148.837 55.0795C148.837 55.3279 148.726 55.4959 148.505 55.5849ZM150.144 53.6459C149.874 53.3693 149.55 53.1509 149.193 53.0038C148.837 52.8568 148.454 52.7841 148.068 52.7902C147.267 52.7902 146.578 53.0765 146.009 53.6459C145.733 53.9144 145.516 54.2368 145.369 54.5933C145.222 54.9497 145.15 55.3326 145.156 55.7183C145.156 56.5359 145.438 57.2321 146.003 57.8047C146.571 58.3795 147.261 58.668 148.07 58.668C148.88 58.668 149.571 58.3795 150.142 57.8047C150.713 57.2289 151 56.5338 151 55.7183C151 54.9082 150.714 54.2163 150.144 53.6459ZM149.851 53.9311C150.342 54.4245 150.587 55.021 150.587 55.7172C150.587 56.4221 150.342 57.0218 149.851 57.5184C149.364 58.0151 148.77 58.2645 148.073 58.2645C147.375 58.2645 146.783 58.0162 146.291 57.5184C146.055 57.2832 145.869 57.0024 145.744 56.6928C145.618 56.3832 145.557 56.0513 145.562 55.7172C145.562 55.0188 145.808 54.4245 146.295 53.9311C146.524 53.6914 146.8 53.5016 147.106 53.3735C147.411 53.2453 147.739 53.1816 148.07 53.1861C148.402 53.1811 148.731 53.2446 149.037 53.3728C149.344 53.5009 149.62 53.691 149.851 53.9311Z" fill="white"/>
</g>
<defs>
<clipPath id="clip0_2148_18090">
<rect width="150" height="49" fill="white" transform="translate(1 17.937)"/>
</clipPath>
</defs>
</svg>
