<svg width="152" height="84" viewBox="0 0 152 84" fill="none" xmlns="http://www.w3.org/2000/svg">
<g clip-path="url(#clip0_3923_137084)">
<rect width="151" height="83" transform="translate(0.25 0.922852)" fill="#322F43"/>
<g clip-path="url(#clip1_3923_137084)">
<mask id="mask0_3923_137084" style="mask-type:luminance" maskUnits="userSpaceOnUse" x="0" y="28" width="151" height="29">
<path d="M0.25 28.9226H150.252V56.149H0.25V28.9226Z" fill="white"/>
</mask>
<g mask="url(#mask0_3923_137084)">
<path fill-rule="evenodd" clip-rule="evenodd" d="M17.6108 52.6106C13.645 56.8301 6.94216 56.8301 2.97688 52.6106C-0.35193 49.0706 -0.668372 43.6567 2.22224 39.7546L10.2134 28.9627C10.2228 28.9502 10.2349 28.9401 10.2488 28.9332C10.2627 28.9262 10.278 28.9226 10.2936 28.9226C10.3091 28.9226 10.3245 28.9262 10.3384 28.9332C10.3523 28.9401 10.3644 28.9502 10.3737 28.9627L18.3649 39.7546C21.256 43.6587 20.9391 49.0727 17.6108 52.6106ZM116.046 29.2663H116.484C118.264 29.2663 119.99 29.2658 121.687 29.2647C126.95 29.2632 131.944 29.2611 137.463 29.2791C139.572 29.2863 141.654 29.5678 143.608 30.435C146.622 31.7706 148.179 34.1408 148.548 37.3751C148.747 39.1161 148.67 40.8308 148.143 42.4998C147.174 45.5785 144.935 47.3081 141.902 48.0293C140.502 48.3622 139.039 48.561 137.602 48.5775C133.833 48.6237 130.531 48.617 127.03 48.6103H127.03C125.619 48.6073 124.175 48.6047 122.655 48.6052H122.283C122.186 48.6052 122.092 48.644 122.023 48.7129C121.954 48.7819 121.915 48.8755 121.915 48.973V55.0805C121.915 55.178 121.877 55.2714 121.808 55.3404C121.739 55.4093 121.645 55.4481 121.548 55.4483H116.412C116.314 55.4483 116.221 55.4095 116.152 55.3404C116.083 55.2713 116.044 55.1776 116.044 55.0799V29.2683C116.044 29.2683 116.045 29.2663 116.046 29.2663ZM121.934 42.9894C121.934 43.0978 122.018 43.1877 122.127 43.1954C122.242 43.2041 122.349 43.2118 122.455 43.2118C123.833 43.2118 125.145 43.2128 126.426 43.2134C129.902 43.2149 133.151 43.217 136.891 43.2046C137.67 43.2026 138.454 43.1291 139.225 43.0166C141.252 42.7187 142.378 41.6481 142.682 39.7967C143.054 37.5246 142.158 35.7893 140.202 35.1451C139.525 34.9206 138.789 34.7701 138.078 34.7624C133.55 34.7249 129.638 34.7157 125.334 34.7054H125.33L122.414 34.6982C122.306 34.6982 122.198 34.7105 122.09 34.7239C122.047 34.7288 122.008 34.7491 121.979 34.7811C121.95 34.8131 121.934 34.8545 121.934 34.8975V42.9894ZM26.1953 29.2925C26.1562 29.2972 26.1201 29.316 26.0938 29.3454C26.0675 29.3748 26.0528 29.4128 26.0525 29.4522V55.1221C26.0525 55.326 26.2174 55.4904 26.4208 55.4904H46.3038C48.1495 55.4888 49.9803 55.3465 51.7706 54.8647C56.038 53.715 59.0313 51.1814 60.2699 46.8514C61.1257 43.8596 61.1051 40.8329 60.2385 37.8354C59.2779 34.5102 57.1953 32.1425 54.0489 30.7052C51.8297 29.6896 49.4718 29.294 47.062 29.2827C41.7313 29.2596 37.0006 29.2627 31.9842 29.2658C30.2012 29.2668 28.3821 29.2683 26.4871 29.2683C26.3905 29.2683 26.2944 29.2801 26.1953 29.2925ZM32.2493 50.04C32.1928 50.0364 32.1337 50.0323 32.0695 50.0297C32.0701 50.0297 32.0706 50.0295 32.071 50.0291C32.0714 50.0287 32.0716 50.0282 32.0716 50.0277V34.9175C32.0716 34.8097 32.1558 34.7208 32.2637 34.7146C32.4111 34.7059 32.5498 34.6977 32.6901 34.6977L37.4028 34.6972H37.4182C40.3145 34.6972 43.0597 34.6961 46.2822 34.6972C47.8315 34.6972 49.3644 34.8102 50.8233 35.4097C53.1751 36.3754 54.4357 38.1862 54.8256 40.6392C55.1035 42.3909 55.0316 44.1349 54.3766 45.806C53.5136 48.0047 51.8009 49.217 49.5612 49.7015C48.5822 49.9155 47.5838 50.0282 46.5817 50.0379C42.9015 50.0621 39.8064 50.0585 36.4432 50.0554H36.4396C35.1923 50.0539 33.9076 50.0528 32.5426 50.0528C32.4481 50.0528 32.3536 50.0467 32.2493 50.0395V50.04ZM74.8868 47.3877H74.8909C78.6276 47.3882 82.1701 47.3888 85.9762 47.3805C86.0928 47.3805 86.2032 47.436 86.2726 47.5295L92.0276 55.3003C92.0969 55.3943 92.2069 55.4493 92.3235 55.4493H98.6354C98.9374 55.4493 99.1111 55.1051 98.9313 54.8621L93.1731 47.0872C93.0231 46.8848 93.1166 46.594 93.3519 46.5052C93.7449 46.3562 94.1281 46.1831 94.5026 45.9889C94.9495 45.7577 95.3913 45.4814 95.7797 45.1829C96.169 44.8858 96.5276 44.5506 96.8503 44.1822C97.1762 43.8109 97.4612 43.4057 97.7004 42.9735C97.9506 42.5224 98.1551 42.0437 98.3112 41.5526C98.753 40.1707 98.8357 38.7426 98.7016 37.3042C98.4052 34.1393 96.9001 31.8117 93.9653 30.4776C91.8365 29.5098 89.5711 29.2817 87.2712 29.2796C82.0869 29.273 77.1939 29.2745 72.1708 29.275L66.3644 29.276H66.1641C66.0665 29.276 65.9729 29.3148 65.9038 29.3837C65.8348 29.4527 65.7959 29.5463 65.7958 29.6438V55.0805C65.7958 55.2839 65.9607 55.4488 66.1641 55.4488H71.2611C71.464 55.4488 71.6289 55.2844 71.6289 55.0805V47.5829C71.6289 47.4853 71.7059 47.4042 71.8041 47.398H71.8051C71.9083 47.3923 71.9921 47.3877 72.0758 47.3877H74.8868ZM71.8308 42.3442L71.6582 42.3349C71.6571 42.3349 71.6566 42.3339 71.6566 42.3329V34.7249C71.6566 34.6299 71.7311 34.5513 71.8267 34.5451C71.9438 34.5379 72.0542 34.5312 72.1642 34.5312C73.2907 34.5312 74.3921 34.5302 75.4791 34.5292C79.4804 34.5261 83.2854 34.5235 87.431 34.542C88.2611 34.5461 89.1092 34.6288 89.9152 34.8143C91.9762 35.291 92.9163 36.5552 92.8521 38.6157C92.7894 40.5539 91.7296 41.755 89.6964 42.1346C89.0414 42.2558 88.368 42.3385 87.7017 42.3401C83.3249 42.3555 79.3093 42.3544 75.0697 42.3534H72.045C71.9777 42.3534 71.9109 42.3493 71.8308 42.3442ZM109.687 29.3063C109.89 29.3063 110.055 29.4707 110.055 29.6742V34.1531C110.055 34.2507 110.016 34.3443 109.947 34.4132C109.878 34.4822 109.784 34.521 109.687 34.521H104.464C104.367 34.521 104.273 34.4822 104.204 34.4132C104.135 34.3443 104.097 34.2507 104.097 34.1531V29.6742C104.097 29.4712 104.261 29.3063 104.464 29.3063H109.687ZM104.464 39.9601C104.367 39.9601 104.273 39.9988 104.204 40.0678C104.135 40.1368 104.097 40.2303 104.097 40.3279V55.0866C104.097 55.29 104.261 55.4549 104.464 55.4549H109.687C109.89 55.4549 110.055 55.2906 110.055 55.0866V40.3279C110.055 40.2303 110.016 40.1368 109.947 40.0678C109.878 39.9988 109.784 39.9601 109.687 39.9601H104.464Z" fill="white"/>
</g>
</g>
</g>
<defs>
<clipPath id="clip0_3923_137084">
<rect width="151" height="83" fill="white" transform="translate(0.25 0.922852)"/>
</clipPath>
<clipPath id="clip1_3923_137084">
<rect width="150.002" height="27.2263" fill="white" transform="translate(0.25 28.9229)"/>
</clipPath>
</defs>
</svg>
