<?xml version="1.0" encoding="UTF-8"?><svg id="Layer_1" xmlns="http://www.w3.org/2000/svg" viewBox="0 0 300 91.13"><defs><style>.cls-1{fill:#ffffff;}</style></defs><path class="cls-1" d="M278.67,40.72c0-10.69-8.7-19.39-19.39-19.39h-40.72v69.8h-21.33V10.66c0-5.89,4.77-10.66,10.66-10.66h51.38c22.49,0,40.72,18.23,40.72,40.72v50.41h-21.33v-50.41Z"/><path class="cls-1" d="M186.57,0h-21.33v91.13h21.33V0Z"/><path class="cls-1" d="M124.52,91.13c16.6,0,30.05-13.46,30.05-30.05v-31.02c0-16.6-13.46-30.05-30.05-30.05H40.72C18.23,0,0,18.23,0,40.72v50.41h21.33v-50.41c0-10.69,8.7-19.39,19.39-19.39h83.8c4.81,0,8.73,3.92,8.73,8.73v31.02c0,4.81-3.92,8.73-8.73,8.73h-38.78c-4.81,0-8.73-3.92-8.73-8.73s3.92-8.73,8.73-8.73h37.81v-21.33h-37.81c-16.6,0-30.05,13.46-30.05,30.05s13.46,30.05,30.05,30.05h38.78Z"/></svg>