<?xml version="1.0" encoding="UTF-8" standalone="no"?>
<!DOCTYPE svg PUBLIC "-//W3C//DTD SVG 1.1//EN" "http://www.w3.org/Graphics/SVG/1.1/DTD/svg11.dtd">
<svg xmlns="http://www.w3.org/2000/svg" version="1.1" viewBox="0.00 0.00 1773.00 1773.00">
<g stroke-width="2.00" fill="none" stroke-linecap="butt">
<path stroke="#424242" vector-effect="non-scaling-stroke" d="
  M 376.5317 41.5714
  A 4.57 4.10 -88.6 0 0 372.3212 46.0398
  A 4.57 4.10 -88.6 0 0 376.3083 50.7086
  A 4.57 4.10 -88.6 0 0 380.5188 46.2402
  A 4.57 4.10 -88.6 0 0 376.5317 41.5714"
/>
<path stroke="#424242" vector-effect="non-scaling-stroke" d="
  M 1598.56 57.52
  L 1604.82 57.46
  A 1.26 1.26 0.0 0 0 1606.07 56.19
  L 1606.05 54.06
  A 4.23 2.46 89.5 0 0 1603.56 49.85
  L 1599.70 49.89
  A 4.23 2.46 89.5 0 0 1597.27 54.14
  L 1597.29 56.27
  A 1.26 1.26 0.0 0 0 1598.56 57.52"
/>
<path stroke="#424242" vector-effect="non-scaling-stroke" d="
  M 285.4857 177.3902
  A 5.24 5.03 -89.5 0 0 280.4102 182.5861
  A 5.24 5.03 -89.5 0 0 285.3943 187.8698
  A 5.24 5.03 -89.5 0 0 290.4698 182.6739
  A 5.24 5.03 -89.5 0 0 285.4857 177.3902"
/>
<path stroke="#424242" vector-effect="non-scaling-stroke" d="
  M 812.04 392.99
  Q 806.79 391.95 801.25 392.58"
/>
<path stroke="#898989" vector-effect="non-scaling-stroke" d="
  M 801.25 392.58
  Q 775.93 390.98 750.53 393.24
  Q 735.31 394.59 725.53 395.86
  Q 707.51 398.19 687.01 402.85
  Q 667.79 407.22 649.61 414.35
  Q 623.04 424.76 599.53 437.72
  C 583.84 446.36 568.89 456.71 554.50 468.02
  Q 545.90 474.78 537.86 482.36
  Q 528.34 491.34 524.55 495.29
  Q 514.59 505.70 500.98 522.48
  Q 488.45 537.93 459.51 572.25
  C 448.39 585.44 429.37 606.63 415.68 623.46
  C 406.69 634.51 396.40 644.52 387.07 655.81
  Q 378.78 665.86 374.27 671.07
  Q 344.15 705.88 333.01 719.24
  C 330.16 722.65 327.71 725.82 325.01 728.61
  Q 311.92 742.14 302.16 755.89
  A 0.81 0.81 0.0 0 0 302.39 757.05
  Q 302.55 757.15 303.06 757.17
  Q 307.89 757.32 315.51 757.12
  Q 335.60 756.58 361.75 756.09
  C 368.29 755.97 377.59 754.41 385.07 754.07
  Q 403.87 753.23 456.75 751.17
  Q 468.07 750.72 481.50 750.96
  Q 509.21 751.45 537.31 753.32
  Q 546.64 753.94 550.80 755.26
  Q 556.89 757.21 563.26 757.13
  Q 563.51 757.13 563.44 757.36
  A 0.09 0.09 0.0 0 0 563.52 757.47
  L 574.09 758.31
  A 1.52 1.51 -21.7 0 1 574.98 758.69
  L 575.55 759.20
  A 0.33 0.32 -26.8 0 1 575.36 759.76
  Q 574.63 759.87 573.89 759.87
  Q 573.95 759.87 574.00 759.88
  Q 578.11 760.37 582.21 760.98"
/>
<path stroke="#424242" vector-effect="non-scaling-stroke" d="
  M 582.21 760.98
  Q 581.98 760.89 581.79 760.91
  A 0.22 0.22 0.0 0 0 581.78 761.34
  Q 582.05 761.38 582.54 761.22"
/>
<path stroke="#898989" vector-effect="non-scaling-stroke" d="
  M 582.54 761.22
  Q 583.26 761.32 583.68 761.56"
/>
<path stroke="#424242" vector-effect="non-scaling-stroke" d="
  M 583.68 761.56
  Q 587.93 763.02 592.33 763.86
  C 596.74 764.71 600.25 765.91 604.25 767.16
  Q 607.36 768.13 613.65 768.61"
/>
<path stroke="#898989" vector-effect="non-scaling-stroke" d="
  M 613.65 768.61
  L 652.69 782.11
  A 0.82 0.82 0.0 0 1 652.72 783.65
  Q 647.37 785.72 642.32 787.07
  C 631.98 789.85 621.61 794.46 612.77 798.73
  Q 590.99 809.25 574.54 819.29
  Q 563.39 826.10 552.42 833.17
  Q 542.40 839.62 526.11 853.13
  Q 507.91 868.23 488.82 887.57
  Q 477.59 898.95 466.75 912.90
  Q 453.96 929.35 446.68 939.92
  Q 434.06 958.24 420.36 986.33
  C 411.66 1004.15 404.49 1022.79 398.77 1041.48
  Q 394.45 1055.58 392.65 1064.36
  Q 388.31 1085.43 384.95 1111.11
  Q 383.21 1124.45 382.97 1142.05
  Q 382.69 1162.51 383.80 1184.00
  C 384.62 1199.90 387.32 1216.32 390.33 1231.20
  Q 392.46 1241.68 399.42 1266.08
  Q 402.44 1276.69 406.91 1287.63
  C 412.43 1301.18 415.20 1308.68 419.96 1318.54
  Q 424.00 1326.92 436.36 1348.64
  C 441.78 1358.17 447.70 1365.80 454.56 1375.95
  Q 464.62 1390.84 477.97 1405.53
  Q 486.93 1415.38 510.05 1438.38
  Q 518.33 1446.61 526.94 1453.51
  Q 550.22 1472.16 576.53 1488.19
  Q 591.63 1497.40 610.45 1505.99
  Q 629.63 1514.74 641.46 1519.07
  Q 648.82 1521.76 666.64 1527.53
  C 669.50 1528.46 672.64 1529.02 675.29 1530.32
  A 2.65 2.61 60.1 0 0 676.26 1530.59
  Q 680.39 1530.92 685.97 1532.69
  A 11.39 11.28 56.6 0 0 688.07 1533.13
  C 692.83 1533.65 697.38 1534.97 702.63 1535.91
  Q 735.16 1541.71 771.27 1541.96
  Q 797.54 1542.15 821.57 1539.22
  C 837.25 1537.31 852.53 1533.86 868.16 1530.14
  Q 890.21 1524.90 911.12 1516.37
  C 913.27 1515.49 916.05 1513.79 918.46 1512.73
  Q 932.77 1506.45 946.38 1500.03
  C 949.97 1498.34 952.61 1496.49 956.04 1494.86
  Q 959.09 1493.42 963.28 1490.91
  Q 979.97 1480.93 982.23 1479.48
  Q 989.63 1474.73 1000.63 1466.12
  C 1017.11 1453.22 1032.10 1441.17 1045.75 1427.17
  Q 1071.01 1401.28 1088.88 1375.38
  C 1096.30 1364.63 1100.37 1359.57 1105.91 1349.71
  Q 1108.60 1344.92 1113.42 1336.73
  Q 1118.45 1328.15 1125.55 1313.36
  Q 1130.14 1303.79 1132.52 1297.57
  Q 1132.98 1296.36 1138.96 1281.54
  Q 1141.17 1276.07 1142.74 1270.44
  Q 1144.00 1265.94 1146.13 1259.23
  Q 1151.58 1242.02 1156.51 1213.28
  Q 1156.79 1211.67 1157.37 1210.57
  A 0.61 0.61 0.0 0 1 1158.51 1210.75
  Q 1163.82 1238.97 1168.23 1264.76
  Q 1174.05 1298.77 1176.80 1332.54
  C 1177.81 1344.88 1179.27 1357.27 1179.99 1370.29
  Q 1180.69 1382.79 1181.95 1398.66
  Q 1185.28 1440.28 1186.91 1471.00
  Q 1187.66 1485.14 1187.79 1486.31
  C 1188.84 1495.39 1188.63 1504.09 1189.90 1513.16
  A 0.69 0.69 0.0 0 0 1191.11 1513.51
  C 1197.91 1505.59 1203.14 1498.06 1209.58 1490.08
  Q 1239.62 1452.83 1248.53 1440.80
  C 1252.14 1435.91 1255.79 1430.87 1259.33 1426.87
  Q 1264.62 1420.90 1269.33 1414.23
  C 1272.78 1409.35 1277.13 1404.32 1279.96 1401.11
  Q 1282.25 1398.49 1287.74 1391.13
  C 1293.99 1382.74 1300.92 1374.47 1306.58 1366.82
  Q 1310.72 1361.24 1316.13 1354.63
  Q 1319.54 1350.46 1335.22 1329.96
  C 1337.43 1327.07 1340.40 1323.79 1342.90 1320.67
  Q 1366.53 1291.18 1387.59 1259.87
  Q 1407.11 1230.83 1419.85 1199.13
  C 1420.89 1196.53 1422.53 1194.08 1423.53 1191.56
  Q 1426.03 1185.24 1429.21 1176.97
  C 1431.24 1171.68 1432.02 1166.03 1433.77 1160.97
  Q 1435.52 1155.93 1437.30 1149.01
  C 1441.76 1131.68 1445.32 1114.31 1446.87 1096.89
  Q 1447.20 1093.19 1448.01 1086.77
  Q 1448.71 1081.24 1449.13 1073.26
  Q 1449.97 1057.35 1449.91 1049.51
  Q 1449.69 1022.88 1447.09 995.68
  Q 1446.46 989.07 1445.28 981.26
  C 1443.62 970.30 1442.60 962.15 1440.14 951.87
  C 1437.36 940.27 1436.16 933.28 1433.15 923.55
  Q 1431.01 916.63 1427.75 904.49
  Q 1425.75 897.03 1423.26 891.52
  Q 1421.88 888.45 1409.66 860.26
  Q 1406.68 853.38 1404.16 848.75
  Q 1399.50 840.18 1398.29 837.51
  A 1.25 1.25 0.0 0 0 1396.17 837.26
  Q 1392.75 841.65 1386.88 851.03
  C 1383.01 857.22 1377.59 864.69 1374.11 871.85
  A 3.83 3.82 49.7 0 0 1373.89 874.62
  C 1374.67 877.18 1375.91 880.70 1377.16 883.42
  Q 1385.51 901.58 1391.59 920.88
  Q 1393.04 925.48 1397.63 941.57
  Q 1398.97 946.26 1403.19 965.39
  Q 1404.53 971.47 1405.23 976.57
  C 1406.52 986.13 1408.33 995.44 1409.11 1004.76
  Q 1412.59 1046.37 1409.23 1083.51
  Q 1406.81 1110.28 1398.34 1142.73
  Q 1395.74 1152.68 1390.72 1165.82
  Q 1384.16 1182.97 1381.61 1188.37
  C 1371.80 1209.16 1360.19 1230.38 1347.03 1249.51
  C 1342.68 1255.84 1337.44 1261.67 1333.65 1267.30
  Q 1329.23 1273.84 1323.82 1280.77
  Q 1290.42 1323.52 1281.43 1334.69
  Q 1268.31 1350.99 1261.55 1359.94
  C 1254.12 1369.74 1244.17 1381.89 1238.17 1389.11
  C 1235.48 1392.36 1233.24 1395.99 1230.62 1398.76
  C 1228.10 1401.41 1226.45 1404.22 1224.21 1406.66
  A 1.42 1.25 -47.6 0 1 1222.33 1406.87
  Q 1222.13 1406.70 1221.98 1405.98
  Q 1221.86 1405.39 1222.04 1401.32
  Q 1222.12 1399.70 1221.89 1396.67
  Q 1219.39 1363.62 1218.08 1351.82
  Q 1215.82 1331.56 1214.98 1320.22
  C 1213.98 1306.78 1212.52 1295.91 1210.71 1280.47
  C 1210.19 1276.08 1209.02 1271.91 1208.64 1267.59
  Q 1208.23 1262.88 1207.21 1257.90
  Q 1202.71 1235.84 1199.09 1214.35
  C 1197.55 1205.20 1195.50 1195.87 1193.09 1186.91
  C 1191.41 1180.65 1190.75 1175.20 1188.90 1169.18
  Q 1188.62 1168.28 1186.82 1160.60
  C 1183.58 1146.74 1180.07 1133.47 1174.90 1118.16
  Q 1173.63 1114.41 1166.37 1091.09
  Q 1165.66 1088.82 1166.54 1087.49
  C 1170.74 1081.13 1174.13 1074.77 1178.52 1068.76
  C 1184.08 1061.14 1191.21 1049.21 1196.11 1042.03
  Q 1208.85 1023.39 1223.93 999.25
  C 1226.63 994.92 1229.67 990.65 1231.61 987.57
  Q 1235.90 980.77 1237.26 978.74
  Q 1265.87 935.99 1267.63 933.38
  C 1270.85 928.58 1274.58 921.90 1278.52 916.26
  Q 1285.21 906.70 1293.52 894.24
  Q 1296.20 890.21 1296.83 889.12
  C 1299.40 884.63 1302.59 880.90 1305.20 876.41
  C 1307.99 871.60 1311.15 867.42 1313.81 863.05
  Q 1323.38 847.33 1337.91 826.47
  C 1348.95 810.61 1354.59 801.79 1366.74 783.26
  Q 1379.59 763.67 1379.81 763.36
  Q 1385.52 755.37 1392.84 743.42
  Q 1406.99 720.31 1416.66 702.22
  C 1418.72 698.38 1419.97 694.63 1421.99 691.39
  Q 1424.00 688.18 1426.08 683.34
  C 1430.35 673.44 1434.31 665.39 1437.93 655.44
  Q 1445.34 635.09 1445.46 634.73
  Q 1450.51 620.32 1458.51 594.17
  C 1463.28 578.61 1467.73 560.53 1470.61 545.17
  Q 1470.95 543.33 1473.16 529.88
  C 1475.61 514.93 1478.25 494.41 1479.59 484.99
  Q 1480.86 476.03 1483.25 438.25
  C 1484.92 411.82 1483.87 376.71 1483.40 354.79
  C 1483.17 344.01 1481.79 335.61 1481.11 324.82
  Q 1479.68 302.08 1475.97 279.76
  Q 1474.67 271.90 1474.49 270.14
  Q 1473.95 264.72 1473.06 260.50
  Q 1471.79 254.53 1470.18 243.52
  C 1468.62 232.77 1465.99 222.71 1463.77 211.01
  C 1462.91 206.48 1461.51 201.97 1460.20 197.08
  A 2.27 2.26 -4.4 0 0 1458.24 195.41
  C 1452.67 194.84 1446.26 194.97 1441.27 194.45
  C 1412.19 191.47 1382.05 190.17 1352.80 190.79
  C 1343.41 190.99 1334.11 191.73 1324.67 192.21
  Q 1316.30 192.64 1303.63 194.01
  Q 1282.78 196.27 1277.31 197.10
  Q 1264.14 199.11 1239.50 203.38
  C 1229.57 205.11 1216.90 208.68 1208.78 210.06
  Q 1203.10 211.03 1197.51 213.25
  Q 1196.27 213.74 1186.22 216.51
  Q 1177.91 218.80 1153.58 227.12
  Q 1129.00 235.52 1106.46 246.72
  Q 1080.39 259.67 1068.56 266.58
  Q 1052.66 275.87 1037.27 286.27
  Q 1031.97 289.85 1027.95 293.09
  C 1017.40 301.57 999.77 313.90 986.97 325.46
  Q 980.13 331.64 974.25 336.72
  Q 960.76 348.36 953.54 356.30
  Q 929.97 382.21 919.28 394.52
  Q 908.97 406.39 899.50 419.74
  C 897.30 422.83 893.82 426.46 891.46 429.68
  Q 881.08 443.85 873.34 453.66
  C 871.58 455.88 869.93 458.80 868.07 461.08
  Q 835.42 501.12 825.87 514.12
  Q 813.89 530.42 809.62 535.08
  C 807.17 537.75 804.89 541.90 802.81 544.30
  Q 791.38 557.57 783.23 568.41
  Q 772.88 582.19 764.38 592.78
  Q 753.24 606.63 739.81 624.82
  C 735.75 630.32 730.56 636.03 727.12 640.44
  Q 712.19 659.55 697.70 678.58
  Q 692.42 685.51 689.38 689.08
  Q 684.15 695.22 681.04 699.53
  C 678.27 703.37 675.80 706.11 672.95 709.72
  Q 662.95 722.38 651.93 737.62
  A 2.09 2.09 0.0 0 1 649.51 738.36
  C 642.64 735.86 636.85 734.64 630.40 732.41
  Q 628.71 731.83 621.34 729.86
  Q 592.69 722.20 582.29 720.45
  Q 559.59 716.62 544.19 715.14
  Q 513.96 712.23 506.97 711.89
  C 478.95 710.53 446.70 711.78 416.01 712.75
  C 406.96 713.04 399.79 714.06 390.07 715.10
  A 0.60 0.59 16.2 0 1 389.54 714.14
  Q 396.24 705.82 403.40 697.80
  C 414.50 685.36 427.97 668.77 437.13 658.62
  Q 461.28 631.87 480.39 608.23
  C 487.35 599.62 491.70 594.98 499.61 585.94
  C 510.40 573.63 521.47 559.25 531.68 547.90
  C 536.83 542.18 540.31 536.35 545.61 530.66
  Q 558.01 517.35 566.42 510.17
  Q 568.79 508.15 590.39 490.40
  C 594.09 487.37 599.82 484.62 603.86 481.45
  C 608.69 477.68 615.36 474.89 620.33 471.79
  Q 628.53 466.67 639.06 461.84
  Q 655.34 454.39 661.04 452.29
  Q 681.76 444.69 705.44 439.37
  C 721.42 435.78 740.75 433.38 756.26 432.10
  Q 779.94 430.14 804.03 432.28
  Q 816.59 433.40 820.99 433.47
  A 1.30 1.29 22.6 0 0 821.94 433.08
  Q 829.18 425.56 833.99 418.77
  C 838.88 411.88 844.18 406.25 848.85 399.38
  A 1.04 1.04 0.0 0 0 848.13 397.77
  L 812.04 392.99"
/>
<path stroke="#b9b8b8" vector-effect="non-scaling-stroke" d="
  M 613.65 768.61
  Q 611.82 767.06 608.99 767.03
  A 2.27 2.26 58.5 0 1 608.04 766.80
  Q 606.17 765.88 603.48 765.15
  Q 594.73 762.78 586.24 761.46
  Q 584.97 761.26 583.68 761.56"
/>
<path stroke="#b9b8b8" vector-effect="non-scaling-stroke" d="
  M 582.54 761.22
  L 582.21 760.98"
/>
<path stroke="#b9b8b8" vector-effect="non-scaling-stroke" d="
  M 801.25 392.58
  L 812.04 392.99"
/>
<path stroke="#424242" vector-effect="non-scaling-stroke" d="
  M 170.8444 526.0931
  A 4.85 4.41 -69.3 0 0 165.0047 529.0712
  A 4.85 4.41 -69.3 0 0 167.4156 535.1669
  A 4.85 4.41 -69.3 0 0 173.2553 532.1888
  A 4.85 4.41 -69.3 0 0 170.8444 526.0931"
/>
<path stroke="#424242" vector-effect="non-scaling-stroke" d="
  M 232.28 849.86
  L 232.39 844.14
  A 2.09 2.09 0.0 0 0 230.34 842.01
  L 228.44 841.97
  A 4.99 4.27 1.1 0 0 223.37 846.14
  L 223.35 847.50
  A 4.99 4.27 1.1 0 0 228.25 851.87
  L 230.15 851.91
  A 2.09 2.09 0.0 0 0 232.28 849.86"
/>
<path stroke="#424242" vector-effect="non-scaling-stroke" d="
  M 1550.64 858.04
  L 1550.64 854.20
  A 1.72 1.72 0.0 0 0 1548.93 852.47
  L 1546.39 852.47
  A 3.66 3.44 0.1 0 0 1542.72 855.90
  L 1542.72 856.30
  A 3.66 3.44 0.1 0 0 1546.37 859.75
  L 1548.91 859.75
  A 1.72 1.72 0.0 0 0 1550.64 858.04"
/>
<path stroke="#424242" vector-effect="non-scaling-stroke" d="
  M 1646.92 1012.08
  L 1653.66 1012.14
  A 1.35 1.35 0.0 0 0 1655.02 1010.80
  L 1655.06 1007.18
  A 3.45 2.92 -89.5 0 0 1652.17 1003.71
  L 1648.57 1003.67
  A 3.45 2.92 -89.5 0 0 1645.62 1007.10
  L 1645.59 1010.72
  A 1.35 1.35 0.0 0 0 1646.92 1012.08"
/>
<path stroke="#424242" vector-effect="non-scaling-stroke" d="
  M 1576.11 1113.19
  L 1581.69 1113.09
  A 1.72 1.72 0.0 0 0 1583.38 1111.34
  L 1583.32 1108.06
  A 2.98 2.92 -1.0 0 0 1580.29 1105.19
  L 1577.23 1105.25
  A 2.98 2.92 -1.0 0 0 1574.30 1108.22
  L 1574.36 1111.50
  A 1.72 1.72 0.0 0 0 1576.11 1113.19"
/>
<path stroke="#424242" vector-effect="non-scaling-stroke" d="
  M 235.5072 1290.1482
  A 5.42 5.10 -80.9 0 0 229.6142 1294.6934
  A 5.42 5.10 -80.9 0 0 233.7928 1300.8518
  A 5.42 5.10 -80.9 0 0 239.6858 1296.3066
  A 5.42 5.10 -80.9 0 0 235.5072 1290.1482"
/>
<path stroke="#424242" vector-effect="non-scaling-stroke" d="
  M 73.3408 1594.1399
  A 3.57 3.57 0.0 0 0 69.8591 1590.4837
  L 67.2199 1590.4192
  A 3.57 3.57 0.0 0 0 63.5637 1593.9009
  L 63.4992 1596.5401
  A 3.57 3.57 0.0 0 0 66.9809 1600.1963
  L 69.6201 1600.2608
  A 3.57 3.57 0.0 0 0 73.2763 1596.7791
  L 73.3408 1594.1399"
/>
<path stroke="#424242" vector-effect="non-scaling-stroke" d="
  M 377.1467 46.7058
  A 0.96 0.74 -100.4 0 0 376.5922 47.7836
  A 0.96 0.74 -100.4 0 0 377.4933 48.5942
  A 0.96 0.74 -100.4 0 0 378.0478 47.5164
  A 0.96 0.74 -100.4 0 0 377.1467 46.7058"
/>
<path stroke="#898989" vector-effect="non-scaling-stroke" d="
  M 1219.18 248.37
  Q 1205.62 251.38 1191.01 256.31
  Q 1178.86 260.41 1171.53 262.82
  Q 1168.78 263.73 1166.55 264.59
  Q 1163.82 265.65 1161.53 266.31
  Q 1160.36 266.64 1155.64 268.89
  A 3.69 3.32 23.6 0 1 1154.77 269.18
  C 1151.17 269.89 1148.22 271.83 1144.90 273.06
  Q 1118.55 282.80 1094.22 297.39
  Q 1077.85 307.20 1077.62 307.34
  Q 1051.15 323.71 1037.79 334.55
  Q 1034.22 337.44 1016.26 352.01
  C 1011.45 355.92 1007.50 359.96 1002.62 364.38
  Q 999.09 367.57 992.71 373.97
  Q 985.65 381.05 977.96 388.49
  C 970.98 395.25 966.23 401.16 960.21 407.62
  Q 955.13 413.06 947.52 422.54
  Q 932.75 440.92 920.77 456.74
  Q 915.12 464.20 910.96 469.09
  Q 903.71 477.61 901.19 481.47
  Q 898.93 484.93 894.64 489.72
  Q 892.54 492.06 888.01 497.90
  Q 872.50 517.88 860.46 533.78
  Q 853.94 542.40 848.42 549.16
  C 837.63 562.37 833.78 567.21 824.31 579.53
  C 813.63 593.43 802.34 606.77 793.89 618.14
  Q 792.55 619.95 791.11 621.88
  Q 783.89 631.60 773.15 644.67
  Q 771.31 646.91 761.61 659.65
  Q 751.41 673.06 750.13 674.66
  C 744.00 682.27 739.00 689.52 732.75 696.93
  C 724.66 706.52 717.38 716.65 709.45 726.40
  Q 703.73 733.42 695.95 744.72
  Q 693.90 747.70 688.75 753.63
  A 1.14 1.13 25.6 0 0 689.41 755.49
  L 693.35 756.23
  A 3.48 3.37 -27.5 0 1 694.12 756.46
  C 700.15 759.04 708.56 761.71 716.98 765.60
  Q 720.77 767.36 725.51 767.09
  Q 735.97 766.51 745.75 765.60
  Q 756.03 764.64 776.14 764.60
  C 789.64 764.57 803.92 766.28 818.75 767.22
  Q 822.12 767.43 830.70 769.15
  Q 836.64 770.34 842.61 771.30
  Q 858.80 773.90 878.14 779.62
  Q 880.73 780.39 893.77 784.77
  C 908.08 789.59 922.85 796.13 935.65 801.33
  Q 939.05 802.71 941.02 803.87
  Q 945.54 806.51 963.03 815.98
  C 978.37 824.28 992.95 834.82 1006.90 844.88
  C 1009.50 846.76 1012.52 849.77 1015.81 852.19
  C 1022.14 856.84 1027.94 863.41 1033.98 868.73
  C 1041.87 875.69 1050.15 884.27 1056.12 889.71
  Q 1060.87 894.05 1065.58 900.00
  C 1072.46 908.68 1085.84 924.64 1093.99 937.49
  C 1095.45 939.78 1097.75 942.24 1098.79 943.94
  C 1103.69 951.89 1112.05 965.25 1117.91 977.05
  Q 1127.58 996.53 1134.02 1013.55
  Q 1134.54 1014.94 1138.96 1025.60
  Q 1142.84 1034.93 1145.31 1045.25
  A 0.93 0.93 0.0 0 0 1146.78 1045.76
  Q 1147.24 1045.40 1147.71 1044.73
  Q 1161.15 1025.38 1171.95 1007.27
  C 1174.04 1003.76 1176.85 1000.24 1179.37 996.38
  Q 1215.80 940.52 1221.26 932.03
  Q 1238.46 905.26 1259.84 873.82
  C 1266.35 864.24 1272.22 854.43 1278.42 845.06
  Q 1291.11 825.89 1303.69 807.00
  Q 1308.15 800.31 1314.10 791.30
  Q 1316.89 787.08 1338.80 753.91
  C 1341.04 750.53 1343.62 747.27 1346.01 743.53
  Q 1364.73 714.30 1380.27 686.47
  Q 1382.85 681.85 1384.72 678.12
  Q 1388.60 670.36 1388.90 669.64
  Q 1403.67 634.81 1406.71 626.00
  Q 1410.53 614.92 1412.15 610.44
  C 1416.98 597.11 1419.57 586.33 1423.57 573.31
  Q 1426.06 565.22 1428.90 551.59
  C 1435.09 521.94 1439.93 492.29 1442.52 462.42
  Q 1444.24 442.64 1444.45 437.75
  Q 1446.91 381.16 1442.68 325.09
  C 1441.86 314.28 1439.98 302.75 1438.85 292.85
  Q 1437.58 281.74 1435.25 268.75
  Q 1430.25 240.88 1429.48 237.75
  Q 1427.94 231.49 1427.93 231.46
  A 0.92 0.91 80.7 0 0 1426.95 230.75
  C 1419.73 231.47 1412.21 230.31 1404.90 230.10
  C 1386.53 229.57 1369.54 228.83 1353.15 229.49
  C 1332.49 230.33 1316.13 231.74 1296.97 233.83
  C 1272.38 236.52 1250.01 240.76 1226.42 246.65
  Q 1222.30 247.68 1219.18 248.37"
/>
<path stroke="#898989" vector-effect="non-scaling-stroke" d="
  M 429.41 1078.37
  C 428.49 1084.42 427.20 1088.69 426.45 1094.59
  Q 423.22 1120.15 423.05 1122.24
  C 422.17 1132.54 421.13 1149.50 421.91 1164.01
  C 422.41 1173.32 422.69 1186.28 424.72 1198.07
  C 425.25 1201.16 425.34 1205.26 425.80 1207.75
  Q 432.17 1242.33 444.63 1274.63
  Q 448.69 1285.16 456.14 1302.59
  C 457.90 1306.69 460.03 1310.16 461.87 1314.14
  Q 463.40 1317.44 466.46 1322.63
  Q 480.23 1346.00 497.71 1368.51
  Q 511.84 1386.69 527.01 1400.72
  Q 532.53 1405.82 546.14 1418.11
  C 563.30 1433.60 583.16 1447.28 603.83 1458.39
  Q 623.49 1468.97 639.68 1476.02
  Q 656.11 1483.16 681.77 1490.50
  C 688.08 1492.30 693.00 1492.98 699.26 1494.47
  Q 706.22 1496.14 712.40 1497.22
  Q 797.05 1511.99 878.38 1485.70
  C 884.83 1483.61 891.43 1480.89 897.10 1478.94
  Q 902.76 1476.99 910.85 1473.23
  Q 928.77 1464.90 938.94 1459.19
  Q 956.13 1449.53 975.64 1435.87
  Q 977.58 1434.51 980.13 1432.37
  C 983.80 1429.28 986.96 1427.22 991.29 1423.54
  Q 1009.94 1407.68 1022.47 1394.74
  Q 1031.03 1385.90 1049.55 1363.10
  Q 1059.13 1351.29 1066.39 1339.14
  Q 1076.38 1322.42 1080.90 1313.67
  Q 1086.93 1302.01 1094.98 1282.21
  C 1095.98 1279.78 1097.88 1276.37 1098.89 1273.58
  C 1105.77 1254.60 1111.84 1235.93 1115.32 1215.36
  Q 1117.90 1200.16 1119.21 1187.50
  Q 1122.28 1157.95 1119.86 1129.26
  Q 1117.64 1102.91 1115.82 1092.84
  Q 1110.52 1063.49 1099.77 1034.20
  Q 1097.79 1028.81 1096.45 1025.91
  C 1093.44 1019.36 1090.98 1012.21 1087.81 1005.34
  Q 1076.80 981.49 1061.50 958.23
  Q 1058.14 953.12 1055.61 950.09
  C 1050.15 943.53 1045.32 936.55 1040.04 930.38
  Q 1022.56 909.94 1004.75 893.93
  C 998.31 888.15 988.98 881.45 982.95 876.49
  C 971.75 867.27 955.44 857.44 945.85 851.42
  Q 940.62 848.14 936.66 846.12
  Q 917.63 836.39 899.74 828.77
  Q 896.98 827.59 871.87 818.96
  C 858.31 814.30 843.02 811.46 829.74 809.04
  C 816.29 806.60 803.11 805.96 789.50 805.20
  C 758.48 803.45 727.21 806.23 696.58 812.38
  Q 679.55 815.81 664.59 820.87
  Q 660.67 822.20 642.33 829.36
  C 631.06 833.76 622.32 838.19 610.81 843.56
  C 604.64 846.43 598.69 850.42 592.50 853.70
  C 589.31 855.39 585.97 857.93 583.13 859.64
  C 578.57 862.40 574.75 866.21 570.01 868.76
  Q 567.07 870.35 563.67 873.04
  C 555.86 879.20 547.70 885.06 539.96 891.89
  Q 517.72 911.52 498.77 935.02
  Q 493.14 942.01 487.52 949.23
  C 483.99 953.76 481.21 958.35 478.08 962.78
  Q 475.44 966.52 471.75 973.40
  C 469.72 977.19 466.03 983.23 463.58 988.29
  Q 459.82 996.07 458.29 998.36
  Q 454.83 1003.54 453.32 1008.34
  Q 453.25 1008.58 448.00 1020.86
  Q 444.60 1028.80 442.97 1033.47
  Q 434.56 1057.56 431.06 1071.02
  Q 429.80 1075.83 429.41 1078.37"
/>
</g>
<path fill="#121212" d="
  M 1773.00 0.00
  L 1773.00 1773.00
  L 0.00 1773.00
  L 0.00 0.00
  L 1773.00 0.00
  Z
  M 376.5317 41.5714
  A 4.57 4.10 -88.6 0 0 372.3212 46.0398
  A 4.57 4.10 -88.6 0 0 376.3083 50.7086
  A 4.57 4.10 -88.6 0 0 380.5188 46.2402
  A 4.57 4.10 -88.6 0 0 376.5317 41.5714
  Z
  M 1598.56 57.52
  L 1604.82 57.46
  A 1.26 1.26 0.0 0 0 1606.07 56.19
  L 1606.05 54.06
  A 4.23 2.46 89.5 0 0 1603.56 49.85
  L 1599.70 49.89
  A 4.23 2.46 89.5 0 0 1597.27 54.14
  L 1597.29 56.27
  A 1.26 1.26 0.0 0 0 1598.56 57.52
  Z
  M 285.4857 177.3902
  A 5.24 5.03 -89.5 0 0 280.4102 182.5861
  A 5.24 5.03 -89.5 0 0 285.3943 187.8698
  A 5.24 5.03 -89.5 0 0 290.4698 182.6739
  A 5.24 5.03 -89.5 0 0 285.4857 177.3902
  Z
  M 812.04 392.99
  Q 806.79 391.95 801.25 392.58
  Q 775.93 390.98 750.53 393.24
  Q 735.31 394.59 725.53 395.86
  Q 707.51 398.19 687.01 402.85
  Q 667.79 407.22 649.61 414.35
  Q 623.04 424.76 599.53 437.72
  C 583.84 446.36 568.89 456.71 554.50 468.02
  Q 545.90 474.78 537.86 482.36
  Q 528.34 491.34 524.55 495.29
  Q 514.59 505.70 500.98 522.48
  Q 488.45 537.93 459.51 572.25
  C 448.39 585.44 429.37 606.63 415.68 623.46
  C 406.69 634.51 396.40 644.52 387.07 655.81
  Q 378.78 665.86 374.27 671.07
  Q 344.15 705.88 333.01 719.24
  C 330.16 722.65 327.71 725.82 325.01 728.61
  Q 311.92 742.14 302.16 755.89
  A 0.81 0.81 0.0 0 0 302.39 757.05
  Q 302.55 757.15 303.06 757.17
  Q 307.89 757.32 315.51 757.12
  Q 335.60 756.58 361.75 756.09
  C 368.29 755.97 377.59 754.41 385.07 754.07
  Q 403.87 753.23 456.75 751.17
  Q 468.07 750.72 481.50 750.96
  Q 509.21 751.45 537.31 753.32
  Q 546.64 753.94 550.80 755.26
  Q 556.89 757.21 563.26 757.13
  Q 563.51 757.13 563.44 757.36
  A 0.09 0.09 0.0 0 0 563.52 757.47
  L 574.09 758.31
  A 1.52 1.51 -21.7 0 1 574.98 758.69
  L 575.55 759.20
  A 0.33 0.32 -26.8 0 1 575.36 759.76
  Q 574.63 759.87 573.89 759.87
  Q 573.95 759.87 574.00 759.88
  Q 578.11 760.37 582.21 760.98
  Q 581.98 760.89 581.79 760.91
  A 0.22 0.22 0.0 0 0 581.78 761.34
  Q 582.05 761.38 582.54 761.22
  Q 583.26 761.32 583.68 761.56
  Q 587.93 763.02 592.33 763.86
  C 596.74 764.71 600.25 765.91 604.25 767.16
  Q 607.36 768.13 613.65 768.61
  L 652.69 782.11
  A 0.82 0.82 0.0 0 1 652.72 783.65
  Q 647.37 785.72 642.32 787.07
  C 631.98 789.85 621.61 794.46 612.77 798.73
  Q 590.99 809.25 574.54 819.29
  Q 563.39 826.10 552.42 833.17
  Q 542.40 839.62 526.11 853.13
  Q 507.91 868.23 488.82 887.57
  Q 477.59 898.95 466.75 912.90
  Q 453.96 929.35 446.68 939.92
  Q 434.06 958.24 420.36 986.33
  C 411.66 1004.15 404.49 1022.79 398.77 1041.48
  Q 394.45 1055.58 392.65 1064.36
  Q 388.31 1085.43 384.95 1111.11
  Q 383.21 1124.45 382.97 1142.05
  Q 382.69 1162.51 383.80 1184.00
  C 384.62 1199.90 387.32 1216.32 390.33 1231.20
  Q 392.46 1241.68 399.42 1266.08
  Q 402.44 1276.69 406.91 1287.63
  C 412.43 1301.18 415.20 1308.68 419.96 1318.54
  Q 424.00 1326.92 436.36 1348.64
  C 441.78 1358.17 447.70 1365.80 454.56 1375.95
  Q 464.62 1390.84 477.97 1405.53
  Q 486.93 1415.38 510.05 1438.38
  Q 518.33 1446.61 526.94 1453.51
  Q 550.22 1472.16 576.53 1488.19
  Q 591.63 1497.40 610.45 1505.99
  Q 629.63 1514.74 641.46 1519.07
  Q 648.82 1521.76 666.64 1527.53
  C 669.50 1528.46 672.64 1529.02 675.29 1530.32
  A 2.65 2.61 60.1 0 0 676.26 1530.59
  Q 680.39 1530.92 685.97 1532.69
  A 11.39 11.28 56.6 0 0 688.07 1533.13
  C 692.83 1533.65 697.38 1534.97 702.63 1535.91
  Q 735.16 1541.71 771.27 1541.96
  Q 797.54 1542.15 821.57 1539.22
  C 837.25 1537.31 852.53 1533.86 868.16 1530.14
  Q 890.21 1524.90 911.12 1516.37
  C 913.27 1515.49 916.05 1513.79 918.46 1512.73
  Q 932.77 1506.45 946.38 1500.03
  C 949.97 1498.34 952.61 1496.49 956.04 1494.86
  Q 959.09 1493.42 963.28 1490.91
  Q 979.97 1480.93 982.23 1479.48
  Q 989.63 1474.73 1000.63 1466.12
  C 1017.11 1453.22 1032.10 1441.17 1045.75 1427.17
  Q 1071.01 1401.28 1088.88 1375.38
  C 1096.30 1364.63 1100.37 1359.57 1105.91 1349.71
  Q 1108.60 1344.92 1113.42 1336.73
  Q 1118.45 1328.15 1125.55 1313.36
  Q 1130.14 1303.79 1132.52 1297.57
  Q 1132.98 1296.36 1138.96 1281.54
  Q 1141.17 1276.07 1142.74 1270.44
  Q 1144.00 1265.94 1146.13 1259.23
  Q 1151.58 1242.02 1156.51 1213.28
  Q 1156.79 1211.67 1157.37 1210.57
  A 0.61 0.61 0.0 0 1 1158.51 1210.75
  Q 1163.82 1238.97 1168.23 1264.76
  Q 1174.05 1298.77 1176.80 1332.54
  C 1177.81 1344.88 1179.27 1357.27 1179.99 1370.29
  Q 1180.69 1382.79 1181.95 1398.66
  Q 1185.28 1440.28 1186.91 1471.00
  Q 1187.66 1485.14 1187.79 1486.31
  C 1188.84 1495.39 1188.63 1504.09 1189.90 1513.16
  A 0.69 0.69 0.0 0 0 1191.11 1513.51
  C 1197.91 1505.59 1203.14 1498.06 1209.58 1490.08
  Q 1239.62 1452.83 1248.53 1440.80
  C 1252.14 1435.91 1255.79 1430.87 1259.33 1426.87
  Q 1264.62 1420.90 1269.33 1414.23
  C 1272.78 1409.35 1277.13 1404.32 1279.96 1401.11
  Q 1282.25 1398.49 1287.74 1391.13
  C 1293.99 1382.74 1300.92 1374.47 1306.58 1366.82
  Q 1310.72 1361.24 1316.13 1354.63
  Q 1319.54 1350.46 1335.22 1329.96
  C 1337.43 1327.07 1340.40 1323.79 1342.90 1320.67
  Q 1366.53 1291.18 1387.59 1259.87
  Q 1407.11 1230.83 1419.85 1199.13
  C 1420.89 1196.53 1422.53 1194.08 1423.53 1191.56
  Q 1426.03 1185.24 1429.21 1176.97
  C 1431.24 1171.68 1432.02 1166.03 1433.77 1160.97
  Q 1435.52 1155.93 1437.30 1149.01
  C 1441.76 1131.68 1445.32 1114.31 1446.87 1096.89
  Q 1447.20 1093.19 1448.01 1086.77
  Q 1448.71 1081.24 1449.13 1073.26
  Q 1449.97 1057.35 1449.91 1049.51
  Q 1449.69 1022.88 1447.09 995.68
  Q 1446.46 989.07 1445.28 981.26
  C 1443.62 970.30 1442.60 962.15 1440.14 951.87
  C 1437.36 940.27 1436.16 933.28 1433.15 923.55
  Q 1431.01 916.63 1427.75 904.49
  Q 1425.75 897.03 1423.26 891.52
  Q 1421.88 888.45 1409.66 860.26
  Q 1406.68 853.38 1404.16 848.75
  Q 1399.50 840.18 1398.29 837.51
  A 1.25 1.25 0.0 0 0 1396.17 837.26
  Q 1392.75 841.65 1386.88 851.03
  C 1383.01 857.22 1377.59 864.69 1374.11 871.85
  A 3.83 3.82 49.7 0 0 1373.89 874.62
  C 1374.67 877.18 1375.91 880.70 1377.16 883.42
  Q 1385.51 901.58 1391.59 920.88
  Q 1393.04 925.48 1397.63 941.57
  Q 1398.97 946.26 1403.19 965.39
  Q 1404.53 971.47 1405.23 976.57
  C 1406.52 986.13 1408.33 995.44 1409.11 1004.76
  Q 1412.59 1046.37 1409.23 1083.51
  Q 1406.81 1110.28 1398.34 1142.73
  Q 1395.74 1152.68 1390.72 1165.82
  Q 1384.16 1182.97 1381.61 1188.37
  C 1371.80 1209.16 1360.19 1230.38 1347.03 1249.51
  C 1342.68 1255.84 1337.44 1261.67 1333.65 1267.30
  Q 1329.23 1273.84 1323.82 1280.77
  Q 1290.42 1323.52 1281.43 1334.69
  Q 1268.31 1350.99 1261.55 1359.94
  C 1254.12 1369.74 1244.17 1381.89 1238.17 1389.11
  C 1235.48 1392.36 1233.24 1395.99 1230.62 1398.76
  C 1228.10 1401.41 1226.45 1404.22 1224.21 1406.66
  A 1.42 1.25 -47.6 0 1 1222.33 1406.87
  Q 1222.13 1406.70 1221.98 1405.98
  Q 1221.86 1405.39 1222.04 1401.32
  Q 1222.12 1399.70 1221.89 1396.67
  Q 1219.39 1363.62 1218.08 1351.82
  Q 1215.82 1331.56 1214.98 1320.22
  C 1213.98 1306.78 1212.52 1295.91 1210.71 1280.47
  C 1210.19 1276.08 1209.02 1271.91 1208.64 1267.59
  Q 1208.23 1262.88 1207.21 1257.90
  Q 1202.71 1235.84 1199.09 1214.35
  C 1197.55 1205.20 1195.50 1195.87 1193.09 1186.91
  C 1191.41 1180.65 1190.75 1175.20 1188.90 1169.18
  Q 1188.62 1168.28 1186.82 1160.60
  C 1183.58 1146.74 1180.07 1133.47 1174.90 1118.16
  Q 1173.63 1114.41 1166.37 1091.09
  Q 1165.66 1088.82 1166.54 1087.49
  C 1170.74 1081.13 1174.13 1074.77 1178.52 1068.76
  C 1184.08 1061.14 1191.21 1049.21 1196.11 1042.03
  Q 1208.85 1023.39 1223.93 999.25
  C 1226.63 994.92 1229.67 990.65 1231.61 987.57
  Q 1235.90 980.77 1237.26 978.74
  Q 1265.87 935.99 1267.63 933.38
  C 1270.85 928.58 1274.58 921.90 1278.52 916.26
  Q 1285.21 906.70 1293.52 894.24
  Q 1296.20 890.21 1296.83 889.12
  C 1299.40 884.63 1302.59 880.90 1305.20 876.41
  C 1307.99 871.60 1311.15 867.42 1313.81 863.05
  Q 1323.38 847.33 1337.91 826.47
  C 1348.95 810.61 1354.59 801.79 1366.74 783.26
  Q 1379.59 763.67 1379.81 763.36
  Q 1385.52 755.37 1392.84 743.42
  Q 1406.99 720.31 1416.66 702.22
  C 1418.72 698.38 1419.97 694.63 1421.99 691.39
  Q 1424.00 688.18 1426.08 683.34
  C 1430.35 673.44 1434.31 665.39 1437.93 655.44
  Q 1445.34 635.09 1445.46 634.73
  Q 1450.51 620.32 1458.51 594.17
  C 1463.28 578.61 1467.73 560.53 1470.61 545.17
  Q 1470.95 543.33 1473.16 529.88
  C 1475.61 514.93 1478.25 494.41 1479.59 484.99
  Q 1480.86 476.03 1483.25 438.25
  C 1484.92 411.82 1483.87 376.71 1483.40 354.79
  C 1483.17 344.01 1481.79 335.61 1481.11 324.82
  Q 1479.68 302.08 1475.97 279.76
  Q 1474.67 271.90 1474.49 270.14
  Q 1473.95 264.72 1473.06 260.50
  Q 1471.79 254.53 1470.18 243.52
  C 1468.62 232.77 1465.99 222.71 1463.77 211.01
  C 1462.91 206.48 1461.51 201.97 1460.20 197.08
  A 2.27 2.26 -4.4 0 0 1458.24 195.41
  C 1452.67 194.84 1446.26 194.97 1441.27 194.45
  C 1412.19 191.47 1382.05 190.17 1352.80 190.79
  C 1343.41 190.99 1334.11 191.73 1324.67 192.21
  Q 1316.30 192.64 1303.63 194.01
  Q 1282.78 196.27 1277.31 197.10
  Q 1264.14 199.11 1239.50 203.38
  C 1229.57 205.11 1216.90 208.68 1208.78 210.06
  Q 1203.10 211.03 1197.51 213.25
  Q 1196.27 213.74 1186.22 216.51
  Q 1177.91 218.80 1153.58 227.12
  Q 1129.00 235.52 1106.46 246.72
  Q 1080.39 259.67 1068.56 266.58
  Q 1052.66 275.87 1037.27 286.27
  Q 1031.97 289.85 1027.95 293.09
  C 1017.40 301.57 999.77 313.90 986.97 325.46
  Q 980.13 331.64 974.25 336.72
  Q 960.76 348.36 953.54 356.30
  Q 929.97 382.21 919.28 394.52
  Q 908.97 406.39 899.50 419.74
  C 897.30 422.83 893.82 426.46 891.46 429.68
  Q 881.08 443.85 873.34 453.66
  C 871.58 455.88 869.93 458.80 868.07 461.08
  Q 835.42 501.12 825.87 514.12
  Q 813.89 530.42 809.62 535.08
  C 807.17 537.75 804.89 541.90 802.81 544.30
  Q 791.38 557.57 783.23 568.41
  Q 772.88 582.19 764.38 592.78
  Q 753.24 606.63 739.81 624.82
  C 735.75 630.32 730.56 636.03 727.12 640.44
  Q 712.19 659.55 697.70 678.58
  Q 692.42 685.51 689.38 689.08
  Q 684.15 695.22 681.04 699.53
  C 678.27 703.37 675.80 706.11 672.95 709.72
  Q 662.95 722.38 651.93 737.62
  A 2.09 2.09 0.0 0 1 649.51 738.36
  C 642.64 735.86 636.85 734.64 630.40 732.41
  Q 628.71 731.83 621.34 729.86
  Q 592.69 722.20 582.29 720.45
  Q 559.59 716.62 544.19 715.14
  Q 513.96 712.23 506.97 711.89
  C 478.95 710.53 446.70 711.78 416.01 712.75
  C 406.96 713.04 399.79 714.06 390.07 715.10
  A 0.60 0.59 16.2 0 1 389.54 714.14
  Q 396.24 705.82 403.40 697.80
  C 414.50 685.36 427.97 668.77 437.13 658.62
  Q 461.28 631.87 480.39 608.23
  C 487.35 599.62 491.70 594.98 499.61 585.94
  C 510.40 573.63 521.47 559.25 531.68 547.90
  C 536.83 542.18 540.31 536.35 545.61 530.66
  Q 558.01 517.35 566.42 510.17
  Q 568.79 508.15 590.39 490.40
  C 594.09 487.37 599.82 484.62 603.86 481.45
  C 608.69 477.68 615.36 474.89 620.33 471.79
  Q 628.53 466.67 639.06 461.84
  Q 655.34 454.39 661.04 452.29
  Q 681.76 444.69 705.44 439.37
  C 721.42 435.78 740.75 433.38 756.26 432.10
  Q 779.94 430.14 804.03 432.28
  Q 816.59 433.40 820.99 433.47
  A 1.30 1.29 22.6 0 0 821.94 433.08
  Q 829.18 425.56 833.99 418.77
  C 838.88 411.88 844.18 406.25 848.85 399.38
  A 1.04 1.04 0.0 0 0 848.13 397.77
  L 812.04 392.99
  Z
  M 170.8444 526.0931
  A 4.85 4.41 -69.3 0 0 165.0047 529.0712
  A 4.85 4.41 -69.3 0 0 167.4156 535.1669
  A 4.85 4.41 -69.3 0 0 173.2553 532.1888
  A 4.85 4.41 -69.3 0 0 170.8444 526.0931
  Z
  M 232.28 849.86
  L 232.39 844.14
  A 2.09 2.09 0.0 0 0 230.34 842.01
  L 228.44 841.97
  A 4.99 4.27 1.1 0 0 223.37 846.14
  L 223.35 847.50
  A 4.99 4.27 1.1 0 0 228.25 851.87
  L 230.15 851.91
  A 2.09 2.09 0.0 0 0 232.28 849.86
  Z
  M 1550.64 858.04
  L 1550.64 854.20
  A 1.72 1.72 0.0 0 0 1548.93 852.47
  L 1546.39 852.47
  A 3.66 3.44 0.1 0 0 1542.72 855.90
  L 1542.72 856.30
  A 3.66 3.44 0.1 0 0 1546.37 859.75
  L 1548.91 859.75
  A 1.72 1.72 0.0 0 0 1550.64 858.04
  Z
  M 1646.92 1012.08
  L 1653.66 1012.14
  A 1.35 1.35 0.0 0 0 1655.02 1010.80
  L 1655.06 1007.18
  A 3.45 2.92 -89.5 0 0 1652.17 1003.71
  L 1648.57 1003.67
  A 3.45 2.92 -89.5 0 0 1645.62 1007.10
  L 1645.59 1010.72
  A 1.35 1.35 0.0 0 0 1646.92 1012.08
  Z
  M 1576.11 1113.19
  L 1581.69 1113.09
  A 1.72 1.72 0.0 0 0 1583.38 1111.34
  L 1583.32 1108.06
  A 2.98 2.92 -1.0 0 0 1580.29 1105.19
  L 1577.23 1105.25
  A 2.98 2.92 -1.0 0 0 1574.30 1108.22
  L 1574.36 1111.50
  A 1.72 1.72 0.0 0 0 1576.11 1113.19
  Z
  M 235.5072 1290.1482
  A 5.42 5.10 -80.9 0 0 229.6142 1294.6934
  A 5.42 5.10 -80.9 0 0 233.7928 1300.8518
  A 5.42 5.10 -80.9 0 0 239.6858 1296.3066
  A 5.42 5.10 -80.9 0 0 235.5072 1290.1482
  Z
  M 73.3408 1594.1399
  A 3.57 3.57 0.0 0 0 69.8591 1590.4837
  L 67.2199 1590.4192
  A 3.57 3.57 0.0 0 0 63.5637 1593.9009
  L 63.4992 1596.5401
  A 3.57 3.57 0.0 0 0 66.9809 1600.1963
  L 69.6201 1600.2608
  A 3.57 3.57 0.0 0 0 73.2763 1596.7791
  L 73.3408 1594.1399
  Z"
/>
<path fill="#727171" d="
  M 376.5317 41.5714
  A 4.57 4.10 -88.6 0 1 380.5188 46.2402
  A 4.57 4.10 -88.6 0 1 376.3083 50.7086
  A 4.57 4.10 -88.6 0 1 372.3212 46.0398
  A 4.57 4.10 -88.6 0 1 376.5317 41.5714
  Z
  M 377.1467 46.7058
  A 0.96 0.74 -100.4 0 0 376.5922 47.7836
  A 0.96 0.74 -100.4 0 0 377.4933 48.5942
  A 0.96 0.74 -100.4 0 0 378.0478 47.5164
  A 0.96 0.74 -100.4 0 0 377.1467 46.7058
  Z"
/>
<ellipse fill="#121212" cx="0.00" cy="0.00" transform="translate(377.32,47.65) rotate(-100.4)" rx="0.96" ry="0.74"/>
<path fill="#727171" d="
  M 1598.56 57.52
  A 1.26 1.26 0.0 0 1 1597.29 56.27
  L 1597.27 54.14
  A 4.23 2.46 89.5 0 1 1599.70 49.89
  L 1603.56 49.85
  A 4.23 2.46 89.5 0 1 1606.05 54.06
  L 1606.07 56.19
  A 1.26 1.26 0.0 0 1 1604.82 57.46
  L 1598.56 57.52
  Z"
/>
<ellipse fill="#727171" cx="0.00" cy="0.00" transform="translate(285.44,182.63) rotate(-89.5)" rx="5.24" ry="5.03"/>
<path fill="#ffffff" d="
  M 613.65 768.61
  Q 611.82 767.06 608.99 767.03
  A 2.27 2.26 58.5 0 1 608.04 766.80
  Q 606.17 765.88 603.48 765.15
  Q 594.73 762.78 586.24 761.46
  Q 584.97 761.26 583.68 761.56
  Q 583.26 761.32 582.54 761.22
  L 582.21 760.98
  Q 578.11 760.37 574.00 759.88
  Q 573.95 759.87 573.89 759.87
  Q 574.63 759.87 575.36 759.76
  A 0.33 0.32 -26.8 0 0 575.55 759.20
  L 574.98 758.69
  A 1.52 1.51 -21.7 0 0 574.09 758.31
  L 563.52 757.47
  A 0.09 0.09 0.0 0 1 563.44 757.36
  Q 563.51 757.13 563.26 757.13
  Q 556.89 757.21 550.80 755.26
  Q 546.64 753.94 537.31 753.32
  Q 509.21 751.45 481.50 750.96
  Q 468.07 750.72 456.75 751.17
  Q 403.87 753.23 385.07 754.07
  C 377.59 754.41 368.29 755.97 361.75 756.09
  Q 335.60 756.58 315.51 757.12
  Q 307.89 757.32 303.06 757.17
  Q 302.55 757.15 302.39 757.05
  A 0.81 0.81 0.0 0 1 302.16 755.89
  Q 311.92 742.14 325.01 728.61
  C 327.71 725.82 330.16 722.65 333.01 719.24
  Q 344.15 705.88 374.27 671.07
  Q 378.78 665.86 387.07 655.81
  C 396.40 644.52 406.69 634.51 415.68 623.46
  C 429.37 606.63 448.39 585.44 459.51 572.25
  Q 488.45 537.93 500.98 522.48
  Q 514.59 505.70 524.55 495.29
  Q 528.34 491.34 537.86 482.36
  Q 545.90 474.78 554.50 468.02
  C 568.89 456.71 583.84 446.36 599.53 437.72
  Q 623.04 424.76 649.61 414.35
  Q 667.79 407.22 687.01 402.85
  Q 707.51 398.19 725.53 395.86
  Q 735.31 394.59 750.53 393.24
  Q 775.93 390.98 801.25 392.58
  L 812.04 392.99
  L 848.13 397.77
  A 1.04 1.04 0.0 0 1 848.85 399.38
  C 844.18 406.25 838.88 411.88 833.99 418.77
  Q 829.18 425.56 821.94 433.08
  A 1.30 1.29 22.6 0 1 820.99 433.47
  Q 816.59 433.40 804.03 432.28
  Q 779.94 430.14 756.26 432.10
  C 740.75 433.38 721.42 435.78 705.44 439.37
  Q 681.76 444.69 661.04 452.29
  Q 655.34 454.39 639.06 461.84
  Q 628.53 466.67 620.33 471.79
  C 615.36 474.89 608.69 477.68 603.86 481.45
  C 599.82 484.62 594.09 487.37 590.39 490.40
  Q 568.79 508.15 566.42 510.17
  Q 558.01 517.35 545.61 530.66
  C 540.31 536.35 536.83 542.18 531.68 547.90
  C 521.47 559.25 510.40 573.63 499.61 585.94
  C 491.70 594.98 487.35 599.62 480.39 608.23
  Q 461.28 631.87 437.13 658.62
  C 427.97 668.77 414.50 685.36 403.40 697.80
  Q 396.24 705.82 389.54 714.14
  A 0.60 0.59 16.2 0 0 390.07 715.10
  C 399.79 714.06 406.96 713.04 416.01 712.75
  C 446.70 711.78 478.95 710.53 506.97 711.89
  Q 513.96 712.23 544.19 715.14
  Q 559.59 716.62 582.29 720.45
  Q 592.69 722.20 621.34 729.86
  Q 628.71 731.83 630.40 732.41
  C 636.85 734.64 642.64 735.86 649.51 738.36
  A 2.09 2.09 0.0 0 0 651.93 737.62
  Q 662.95 722.38 672.95 709.72
  C 675.80 706.11 678.27 703.37 681.04 699.53
  Q 684.15 695.22 689.38 689.08
  Q 692.42 685.51 697.70 678.58
  Q 712.19 659.55 727.12 640.44
  C 730.56 636.03 735.75 630.32 739.81 624.82
  Q 753.24 606.63 764.38 592.78
  Q 772.88 582.19 783.23 568.41
  Q 791.38 557.57 802.81 544.30
  C 804.89 541.90 807.17 537.75 809.62 535.08
  Q 813.89 530.42 825.87 514.12
  Q 835.42 501.12 868.07 461.08
  C 869.93 458.80 871.58 455.88 873.34 453.66
  Q 881.08 443.85 891.46 429.68
  C 893.82 426.46 897.30 422.83 899.50 419.74
  Q 908.97 406.39 919.28 394.52
  Q 929.97 382.21 953.54 356.30
  Q 960.76 348.36 974.25 336.72
  Q 980.13 331.64 986.97 325.46
  C 999.77 313.90 1017.40 301.57 1027.95 293.09
  Q 1031.97 289.85 1037.27 286.27
  Q 1052.66 275.87 1068.56 266.58
  Q 1080.39 259.67 1106.46 246.72
  Q 1129.00 235.52 1153.58 227.12
  Q 1177.91 218.80 1186.22 216.51
  Q 1196.27 213.74 1197.51 213.25
  Q 1203.10 211.03 1208.78 210.06
  C 1216.90 208.68 1229.57 205.11 1239.50 203.38
  Q 1264.14 199.11 1277.31 197.10
  Q 1282.78 196.27 1303.63 194.01
  Q 1316.30 192.64 1324.67 192.21
  C 1334.11 191.73 1343.41 190.99 1352.80 190.79
  C 1382.05 190.17 1412.19 191.47 1441.27 194.45
  C 1446.26 194.97 1452.67 194.84 1458.24 195.41
  A 2.27 2.26 -4.4 0 1 1460.20 197.08
  C 1461.51 201.97 1462.91 206.48 1463.77 211.01
  C 1465.99 222.71 1468.62 232.77 1470.18 243.52
  Q 1471.79 254.53 1473.06 260.50
  Q 1473.95 264.72 1474.49 270.14
  Q 1474.67 271.90 1475.97 279.76
  Q 1479.68 302.08 1481.11 324.82
  C 1481.79 335.61 1483.17 344.01 1483.40 354.79
  C 1483.87 376.71 1484.92 411.82 1483.25 438.25
  Q 1480.86 476.03 1479.59 484.99
  C 1478.25 494.41 1475.61 514.93 1473.16 529.88
  Q 1470.95 543.33 1470.61 545.17
  C 1467.73 560.53 1463.28 578.61 1458.51 594.17
  Q 1450.51 620.32 1445.46 634.73
  Q 1445.34 635.09 1437.93 655.44
  C 1434.31 665.39 1430.35 673.44 1426.08 683.34
  Q 1424.00 688.18 1421.99 691.39
  C 1419.97 694.63 1418.72 698.38 1416.66 702.22
  Q 1406.99 720.31 1392.84 743.42
  Q 1385.52 755.37 1379.81 763.36
  Q 1379.59 763.67 1366.74 783.26
  C 1354.59 801.79 1348.95 810.61 1337.91 826.47
  Q 1323.38 847.33 1313.81 863.05
  C 1311.15 867.42 1307.99 871.60 1305.20 876.41
  C 1302.59 880.90 1299.40 884.63 1296.83 889.12
  Q 1296.20 890.21 1293.52 894.24
  Q 1285.21 906.70 1278.52 916.26
  C 1274.58 921.90 1270.85 928.58 1267.63 933.38
  Q 1265.87 935.99 1237.26 978.74
  Q 1235.90 980.77 1231.61 987.57
  C 1229.67 990.65 1226.63 994.92 1223.93 999.25
  Q 1208.85 1023.39 1196.11 1042.03
  C 1191.21 1049.21 1184.08 1061.14 1178.52 1068.76
  C 1174.13 1074.77 1170.74 1081.13 1166.54 1087.49
  Q 1165.66 1088.82 1166.37 1091.09
  Q 1173.63 1114.41 1174.90 1118.16
  C 1180.07 1133.47 1183.58 1146.74 1186.82 1160.60
  Q 1188.62 1168.28 1188.90 1169.18
  C 1190.75 1175.20 1191.41 1180.65 1193.09 1186.91
  C 1195.50 1195.87 1197.55 1205.20 1199.09 1214.35
  Q 1202.71 1235.84 1207.21 1257.90
  Q 1208.23 1262.88 1208.64 1267.59
  C 1209.02 1271.91 1210.19 1276.08 1210.71 1280.47
  C 1212.52 1295.91 1213.98 1306.78 1214.98 1320.22
  Q 1215.82 1331.56 1218.08 1351.82
  Q 1219.39 1363.62 1221.89 1396.67
  Q 1222.12 1399.70 1222.04 1401.32
  Q 1221.86 1405.39 1221.98 1405.98
  Q 1222.13 1406.70 1222.33 1406.87
  A 1.42 1.25 -47.6 0 0 1224.21 1406.66
  C 1226.45 1404.22 1228.10 1401.41 1230.62 1398.76
  C 1233.24 1395.99 1235.48 1392.36 1238.17 1389.11
  C 1244.17 1381.89 1254.12 1369.74 1261.55 1359.94
  Q 1268.31 1350.99 1281.43 1334.69
  Q 1290.42 1323.52 1323.82 1280.77
  Q 1329.23 1273.84 1333.65 1267.30
  C 1337.44 1261.67 1342.68 1255.84 1347.03 1249.51
  C 1360.19 1230.38 1371.80 1209.16 1381.61 1188.37
  Q 1384.16 1182.97 1390.72 1165.82
  Q 1395.74 1152.68 1398.34 1142.73
  Q 1406.81 1110.28 1409.23 1083.51
  Q 1412.59 1046.37 1409.11 1004.76
  C 1408.33 995.44 1406.52 986.13 1405.23 976.57
  Q 1404.53 971.47 1403.19 965.39
  Q 1398.97 946.26 1397.63 941.57
  Q 1393.04 925.48 1391.59 920.88
  Q 1385.51 901.58 1377.16 883.42
  C 1375.91 880.70 1374.67 877.18 1373.89 874.62
  A 3.83 3.82 49.7 0 1 1374.11 871.85
  C 1377.59 864.69 1383.01 857.22 1386.88 851.03
  Q 1392.75 841.65 1396.17 837.26
  A 1.25 1.25 0.0 0 1 1398.29 837.51
  Q 1399.50 840.18 1404.16 848.75
  Q 1406.68 853.38 1409.66 860.26
  Q 1421.88 888.45 1423.26 891.52
  Q 1425.75 897.03 1427.75 904.49
  Q 1431.01 916.63 1433.15 923.55
  C 1436.16 933.28 1437.36 940.27 1440.14 951.87
  C 1442.60 962.15 1443.62 970.30 1445.28 981.26
  Q 1446.46 989.07 1447.09 995.68
  Q 1449.69 1022.88 1449.91 1049.51
  Q 1449.97 1057.35 1449.13 1073.26
  Q 1448.71 1081.24 1448.01 1086.77
  Q 1447.20 1093.19 1446.87 1096.89
  C 1445.32 1114.31 1441.76 1131.68 1437.30 1149.01
  Q 1435.52 1155.93 1433.77 1160.97
  C 1432.02 1166.03 1431.24 1171.68 1429.21 1176.97
  Q 1426.03 1185.24 1423.53 1191.56
  C 1422.53 1194.08 1420.89 1196.53 1419.85 1199.13
  Q 1407.11 1230.83 1387.59 1259.87
  Q 1366.53 1291.18 1342.90 1320.67
  C 1340.40 1323.79 1337.43 1327.07 1335.22 1329.96
  Q 1319.54 1350.46 1316.13 1354.63
  Q 1310.72 1361.24 1306.58 1366.82
  C 1300.92 1374.47 1293.99 1382.74 1287.74 1391.13
  Q 1282.25 1398.49 1279.96 1401.11
  C 1277.13 1404.32 1272.78 1409.35 1269.33 1414.23
  Q 1264.62 1420.90 1259.33 1426.87
  C 1255.79 1430.87 1252.14 1435.91 1248.53 1440.80
  Q 1239.62 1452.83 1209.58 1490.08
  C 1203.14 1498.06 1197.91 1505.59 1191.11 1513.51
  A 0.69 0.69 0.0 0 1 1189.90 1513.16
  C 1188.63 1504.09 1188.84 1495.39 1187.79 1486.31
  Q 1187.66 1485.14 1186.91 1471.00
  Q 1185.28 1440.28 1181.95 1398.66
  Q 1180.69 1382.79 1179.99 1370.29
  C 1179.27 1357.27 1177.81 1344.88 1176.80 1332.54
  Q 1174.05 1298.77 1168.23 1264.76
  Q 1163.82 1238.97 1158.51 1210.75
  A 0.61 0.61 0.0 0 0 1157.37 1210.57
  Q 1156.79 1211.67 1156.51 1213.28
  Q 1151.58 1242.02 1146.13 1259.23
  Q 1144.00 1265.94 1142.74 1270.44
  Q 1141.17 1276.07 1138.96 1281.54
  Q 1132.98 1296.36 1132.52 1297.57
  Q 1130.14 1303.79 1125.55 1313.36
  Q 1118.45 1328.15 1113.42 1336.73
  Q 1108.60 1344.92 1105.91 1349.71
  C 1100.37 1359.57 1096.30 1364.63 1088.88 1375.38
  Q 1071.01 1401.28 1045.75 1427.17
  C 1032.10 1441.17 1017.11 1453.22 1000.63 1466.12
  Q 989.63 1474.73 982.23 1479.48
  Q 979.97 1480.93 963.28 1490.91
  Q 959.09 1493.42 956.04 1494.86
  C 952.61 1496.49 949.97 1498.34 946.38 1500.03
  Q 932.77 1506.45 918.46 1512.73
  C 916.05 1513.79 913.27 1515.49 911.12 1516.37
  Q 890.21 1524.90 868.16 1530.14
  C 852.53 1533.86 837.25 1537.31 821.57 1539.22
  Q 797.54 1542.15 771.27 1541.96
  Q 735.16 1541.71 702.63 1535.91
  C 697.38 1534.97 692.83 1533.65 688.07 1533.13
  A 11.39 11.28 56.6 0 1 685.97 1532.69
  Q 680.39 1530.92 676.26 1530.59
  A 2.65 2.61 60.1 0 1 675.29 1530.32
  C 672.64 1529.02 669.50 1528.46 666.64 1527.53
  Q 648.82 1521.76 641.46 1519.07
  Q 629.63 1514.74 610.45 1505.99
  Q 591.63 1497.40 576.53 1488.19
  Q 550.22 1472.16 526.94 1453.51
  Q 518.33 1446.61 510.05 1438.38
  Q 486.93 1415.38 477.97 1405.53
  Q 464.62 1390.84 454.56 1375.95
  C 447.70 1365.80 441.78 1358.17 436.36 1348.64
  Q 424.00 1326.92 419.96 1318.54
  C 415.20 1308.68 412.43 1301.18 406.91 1287.63
  Q 402.44 1276.69 399.42 1266.08
  Q 392.46 1241.68 390.33 1231.20
  C 387.32 1216.32 384.62 1199.90 383.80 1184.00
  Q 382.69 1162.51 382.97 1142.05
  Q 383.21 1124.45 384.95 1111.11
  Q 388.31 1085.43 392.65 1064.36
  Q 394.45 1055.58 398.77 1041.48
  C 404.49 1022.79 411.66 1004.15 420.36 986.33
  Q 434.06 958.24 446.68 939.92
  Q 453.96 929.35 466.75 912.90
  Q 477.59 898.95 488.82 887.57
  Q 507.91 868.23 526.11 853.13
  Q 542.40 839.62 552.42 833.17
  Q 563.39 826.10 574.54 819.29
  Q 590.99 809.25 612.77 798.73
  C 621.61 794.46 631.98 789.85 642.32 787.07
  Q 647.37 785.72 652.72 783.65
  A 0.82 0.82 0.0 0 0 652.69 782.11
  L 613.65 768.61
  Z
  M 1219.18 248.37
  Q 1205.62 251.38 1191.01 256.31
  Q 1178.86 260.41 1171.53 262.82
  Q 1168.78 263.73 1166.55 264.59
  Q 1163.82 265.65 1161.53 266.31
  Q 1160.36 266.64 1155.64 268.89
  A 3.69 3.32 23.6 0 1 1154.77 269.18
  C 1151.17 269.89 1148.22 271.83 1144.90 273.06
  Q 1118.55 282.80 1094.22 297.39
  Q 1077.85 307.20 1077.62 307.34
  Q 1051.15 323.71 1037.79 334.55
  Q 1034.22 337.44 1016.26 352.01
  C 1011.45 355.92 1007.50 359.96 1002.62 364.38
  Q 999.09 367.57 992.71 373.97
  Q 985.65 381.05 977.96 388.49
  C 970.98 395.25 966.23 401.16 960.21 407.62
  Q 955.13 413.06 947.52 422.54
  Q 932.75 440.92 920.77 456.74
  Q 915.12 464.20 910.96 469.09
  Q 903.71 477.61 901.19 481.47
  Q 898.93 484.93 894.64 489.72
  Q 892.54 492.06 888.01 497.90
  Q 872.50 517.88 860.46 533.78
  Q 853.94 542.40 848.42 549.16
  C 837.63 562.37 833.78 567.21 824.31 579.53
  C 813.63 593.43 802.34 606.77 793.89 618.14
  Q 792.55 619.95 791.11 621.88
  Q 783.89 631.60 773.15 644.67
  Q 771.31 646.91 761.61 659.65
  Q 751.41 673.06 750.13 674.66
  C 744.00 682.27 739.00 689.52 732.75 696.93
  C 724.66 706.52 717.38 716.65 709.45 726.40
  Q 703.73 733.42 695.95 744.72
  Q 693.90 747.70 688.75 753.63
  A 1.14 1.13 25.6 0 0 689.41 755.49
  L 693.35 756.23
  A 3.48 3.37 -27.5 0 1 694.12 756.46
  C 700.15 759.04 708.56 761.71 716.98 765.60
  Q 720.77 767.36 725.51 767.09
  Q 735.97 766.51 745.75 765.60
  Q 756.03 764.64 776.14 764.60
  C 789.64 764.57 803.92 766.28 818.75 767.22
  Q 822.12 767.43 830.70 769.15
  Q 836.64 770.34 842.61 771.30
  Q 858.80 773.90 878.14 779.62
  Q 880.73 780.39 893.77 784.77
  C 908.08 789.59 922.85 796.13 935.65 801.33
  Q 939.05 802.71 941.02 803.87
  Q 945.54 806.51 963.03 815.98
  C 978.37 824.28 992.95 834.82 1006.90 844.88
  C 1009.50 846.76 1012.52 849.77 1015.81 852.19
  C 1022.14 856.84 1027.94 863.41 1033.98 868.73
  C 1041.87 875.69 1050.15 884.27 1056.12 889.71
  Q 1060.87 894.05 1065.58 900.00
  C 1072.46 908.68 1085.84 924.64 1093.99 937.49
  C 1095.45 939.78 1097.75 942.24 1098.79 943.94
  C 1103.69 951.89 1112.05 965.25 1117.91 977.05
  Q 1127.58 996.53 1134.02 1013.55
  Q 1134.54 1014.94 1138.96 1025.60
  Q 1142.84 1034.93 1145.31 1045.25
  A 0.93 0.93 0.0 0 0 1146.78 1045.76
  Q 1147.24 1045.40 1147.71 1044.73
  Q 1161.15 1025.38 1171.95 1007.27
  C 1174.04 1003.76 1176.85 1000.24 1179.37 996.38
  Q 1215.80 940.52 1221.26 932.03
  Q 1238.46 905.26 1259.84 873.82
  C 1266.35 864.24 1272.22 854.43 1278.42 845.06
  Q 1291.11 825.89 1303.69 807.00
  Q 1308.15 800.31 1314.10 791.30
  Q 1316.89 787.08 1338.80 753.91
  C 1341.04 750.53 1343.62 747.27 1346.01 743.53
  Q 1364.73 714.30 1380.27 686.47
  Q 1382.85 681.85 1384.72 678.12
  Q 1388.60 670.36 1388.90 669.64
  Q 1403.67 634.81 1406.71 626.00
  Q 1410.53 614.92 1412.15 610.44
  C 1416.98 597.11 1419.57 586.33 1423.57 573.31
  Q 1426.06 565.22 1428.90 551.59
  C 1435.09 521.94 1439.93 492.29 1442.52 462.42
  Q 1444.24 442.64 1444.45 437.75
  Q 1446.91 381.16 1442.68 325.09
  C 1441.86 314.28 1439.98 302.75 1438.85 292.85
  Q 1437.58 281.74 1435.25 268.75
  Q 1430.25 240.88 1429.48 237.75
  Q 1427.94 231.49 1427.93 231.46
  A 0.92 0.91 80.7 0 0 1426.95 230.75
  C 1419.73 231.47 1412.21 230.31 1404.90 230.10
  C 1386.53 229.57 1369.54 228.83 1353.15 229.49
  C 1332.49 230.33 1316.13 231.74 1296.97 233.83
  C 1272.38 236.52 1250.01 240.76 1226.42 246.65
  Q 1222.30 247.68 1219.18 248.37
  Z
  M 429.41 1078.37
  C 428.49 1084.42 427.20 1088.69 426.45 1094.59
  Q 423.22 1120.15 423.05 1122.24
  C 422.17 1132.54 421.13 1149.50 421.91 1164.01
  C 422.41 1173.32 422.69 1186.28 424.72 1198.07
  C 425.25 1201.16 425.34 1205.26 425.80 1207.75
  Q 432.17 1242.33 444.63 1274.63
  Q 448.69 1285.16 456.14 1302.59
  C 457.90 1306.69 460.03 1310.16 461.87 1314.14
  Q 463.40 1317.44 466.46 1322.63
  Q 480.23 1346.00 497.71 1368.51
  Q 511.84 1386.69 527.01 1400.72
  Q 532.53 1405.82 546.14 1418.11
  C 563.30 1433.60 583.16 1447.28 603.83 1458.39
  Q 623.49 1468.97 639.68 1476.02
  Q 656.11 1483.16 681.77 1490.50
  C 688.08 1492.30 693.00 1492.98 699.26 1494.47
  Q 706.22 1496.14 712.40 1497.22
  Q 797.05 1511.99 878.38 1485.70
  C 884.83 1483.61 891.43 1480.89 897.10 1478.94
  Q 902.76 1476.99 910.85 1473.23
  Q 928.77 1464.90 938.94 1459.19
  Q 956.13 1449.53 975.64 1435.87
  Q 977.58 1434.51 980.13 1432.37
  C 983.80 1429.28 986.96 1427.22 991.29 1423.54
  Q 1009.94 1407.68 1022.47 1394.74
  Q 1031.03 1385.90 1049.55 1363.10
  Q 1059.13 1351.29 1066.39 1339.14
  Q 1076.38 1322.42 1080.90 1313.67
  Q 1086.93 1302.01 1094.98 1282.21
  C 1095.98 1279.78 1097.88 1276.37 1098.89 1273.58
  C 1105.77 1254.60 1111.84 1235.93 1115.32 1215.36
  Q 1117.90 1200.16 1119.21 1187.50
  Q 1122.28 1157.95 1119.86 1129.26
  Q 1117.64 1102.91 1115.82 1092.84
  Q 1110.52 1063.49 1099.77 1034.20
  Q 1097.79 1028.81 1096.45 1025.91
  C 1093.44 1019.36 1090.98 1012.21 1087.81 1005.34
  Q 1076.80 981.49 1061.50 958.23
  Q 1058.14 953.12 1055.61 950.09
  C 1050.15 943.53 1045.32 936.55 1040.04 930.38
  Q 1022.56 909.94 1004.75 893.93
  C 998.31 888.15 988.98 881.45 982.95 876.49
  C 971.75 867.27 955.44 857.44 945.85 851.42
  Q 940.62 848.14 936.66 846.12
  Q 917.63 836.39 899.74 828.77
  Q 896.98 827.59 871.87 818.96
  C 858.31 814.30 843.02 811.46 829.74 809.04
  C 816.29 806.60 803.11 805.96 789.50 805.20
  C 758.48 803.45 727.21 806.23 696.58 812.38
  Q 679.55 815.81 664.59 820.87
  Q 660.67 822.20 642.33 829.36
  C 631.06 833.76 622.32 838.19 610.81 843.56
  C 604.64 846.43 598.69 850.42 592.50 853.70
  C 589.31 855.39 585.97 857.93 583.13 859.64
  C 578.57 862.40 574.75 866.21 570.01 868.76
  Q 567.07 870.35 563.67 873.04
  C 555.86 879.20 547.70 885.06 539.96 891.89
  Q 517.72 911.52 498.77 935.02
  Q 493.14 942.01 487.52 949.23
  C 483.99 953.76 481.21 958.35 478.08 962.78
  Q 475.44 966.52 471.75 973.40
  C 469.72 977.19 466.03 983.23 463.58 988.29
  Q 459.82 996.07 458.29 998.36
  Q 454.83 1003.54 453.32 1008.34
  Q 453.25 1008.58 448.00 1020.86
  Q 444.60 1028.80 442.97 1033.47
  Q 434.56 1057.56 431.06 1071.02
  Q 429.80 1075.83 429.41 1078.37
  Z"
/>
<path fill="#121212" d="
  M 1219.18 248.37
  Q 1222.30 247.68 1226.42 246.65
  C 1250.01 240.76 1272.38 236.52 1296.97 233.83
  C 1316.13 231.74 1332.49 230.33 1353.15 229.49
  C 1369.54 228.83 1386.53 229.57 1404.90 230.10
  C 1412.21 230.31 1419.73 231.47 1426.95 230.75
  A 0.92 0.91 80.7 0 1 1427.93 231.46
  Q 1427.94 231.49 1429.48 237.75
  Q 1430.25 240.88 1435.25 268.75
  Q 1437.58 281.74 1438.85 292.85
  C 1439.98 302.75 1441.86 314.28 1442.68 325.09
  Q 1446.91 381.16 1444.45 437.75
  Q 1444.24 442.64 1442.52 462.42
  C 1439.93 492.29 1435.09 521.94 1428.90 551.59
  Q 1426.06 565.22 1423.57 573.31
  C 1419.57 586.33 1416.98 597.11 1412.15 610.44
  Q 1410.53 614.92 1406.71 626.00
  Q 1403.67 634.81 1388.90 669.64
  Q 1388.60 670.36 1384.72 678.12
  Q 1382.85 681.85 1380.27 686.47
  Q 1364.73 714.30 1346.01 743.53
  C 1343.62 747.27 1341.04 750.53 1338.80 753.91
  Q 1316.89 787.08 1314.10 791.30
  Q 1308.15 800.31 1303.69 807.00
  Q 1291.11 825.89 1278.42 845.06
  C 1272.22 854.43 1266.35 864.24 1259.84 873.82
  Q 1238.46 905.26 1221.26 932.03
  Q 1215.80 940.52 1179.37 996.38
  C 1176.85 1000.24 1174.04 1003.76 1171.95 1007.27
  Q 1161.15 1025.38 1147.71 1044.73
  Q 1147.24 1045.40 1146.78 1045.76
  A 0.93 0.93 0.0 0 1 1145.31 1045.25
  Q 1142.84 1034.93 1138.96 1025.60
  Q 1134.54 1014.94 1134.02 1013.55
  Q 1127.58 996.53 1117.91 977.05
  C 1112.05 965.25 1103.69 951.89 1098.79 943.94
  C 1097.75 942.24 1095.45 939.78 1093.99 937.49
  C 1085.84 924.64 1072.46 908.68 1065.58 900.00
  Q 1060.87 894.05 1056.12 889.71
  C 1050.15 884.27 1041.87 875.69 1033.98 868.73
  C 1027.94 863.41 1022.14 856.84 1015.81 852.19
  C 1012.52 849.77 1009.50 846.76 1006.90 844.88
  C 992.95 834.82 978.37 824.28 963.03 815.98
  Q 945.54 806.51 941.02 803.87
  Q 939.05 802.71 935.65 801.33
  C 922.85 796.13 908.08 789.59 893.77 784.77
  Q 880.73 780.39 878.14 779.62
  Q 858.80 773.90 842.61 771.30
  Q 836.64 770.34 830.70 769.15
  Q 822.12 767.43 818.75 767.22
  C 803.92 766.28 789.64 764.57 776.14 764.60
  Q 756.03 764.64 745.75 765.60
  Q 735.97 766.51 725.51 767.09
  Q 720.77 767.36 716.98 765.60
  C 708.56 761.71 700.15 759.04 694.12 756.46
  A 3.48 3.37 -27.5 0 0 693.35 756.23
  L 689.41 755.49
  A 1.14 1.13 25.6 0 1 688.75 753.63
  Q 693.90 747.70 695.95 744.72
  Q 703.73 733.42 709.45 726.40
  C 717.38 716.65 724.66 706.52 732.75 696.93
  C 739.00 689.52 744.00 682.27 750.13 674.66
  Q 751.41 673.06 761.61 659.65
  Q 771.31 646.91 773.15 644.67
  Q 783.89 631.60 791.11 621.88
  Q 792.55 619.95 793.89 618.14
  C 802.34 606.77 813.63 593.43 824.31 579.53
  C 833.78 567.21 837.63 562.37 848.42 549.16
  Q 853.94 542.40 860.46 533.78
  Q 872.50 517.88 888.01 497.90
  Q 892.54 492.06 894.64 489.72
  Q 898.93 484.93 901.19 481.47
  Q 903.71 477.61 910.96 469.09
  Q 915.12 464.20 920.77 456.74
  Q 932.75 440.92 947.52 422.54
  Q 955.13 413.06 960.21 407.62
  C 966.23 401.16 970.98 395.25 977.96 388.49
  Q 985.65 381.05 992.71 373.97
  Q 999.09 367.57 1002.62 364.38
  C 1007.50 359.96 1011.45 355.92 1016.26 352.01
  Q 1034.22 337.44 1037.79 334.55
  Q 1051.15 323.71 1077.62 307.34
  Q 1077.85 307.20 1094.22 297.39
  Q 1118.55 282.80 1144.90 273.06
  C 1148.22 271.83 1151.17 269.89 1154.77 269.18
  A 3.69 3.32 23.6 0 0 1155.64 268.89
  Q 1160.36 266.64 1161.53 266.31
  Q 1163.82 265.65 1166.55 264.59
  Q 1168.78 263.73 1171.53 262.82
  Q 1178.86 260.41 1191.01 256.31
  Q 1205.62 251.38 1219.18 248.37
  Z"
/>
<path fill="#727171" d="
  M 812.04 392.99
  L 801.25 392.58
  Q 806.79 391.95 812.04 392.99
  Z"
/>
<ellipse fill="#727171" cx="0.00" cy="0.00" transform="translate(169.13,530.63) rotate(-69.3)" rx="4.85" ry="4.41"/>
<path fill="#727171" d="
  M 582.21 760.98
  L 582.54 761.22
  Q 582.05 761.38 581.78 761.34
  A 0.22 0.22 0.0 0 1 581.79 760.91
  Q 581.98 760.89 582.21 760.98
  Z"
/>
<path fill="#727171" d="
  M 613.65 768.61
  Q 607.36 768.13 604.25 767.16
  C 600.25 765.91 596.74 764.71 592.33 763.86
  Q 587.93 763.02 583.68 761.56
  Q 584.97 761.26 586.24 761.46
  Q 594.73 762.78 603.48 765.15
  Q 606.17 765.88 608.04 766.80
  A 2.27 2.26 58.5 0 0 608.99 767.03
  Q 611.82 767.06 613.65 768.61
  Z"
/>
<path fill="#121212" d="
  M 429.41 1078.37
  Q 429.80 1075.83 431.06 1071.02
  Q 434.56 1057.56 442.97 1033.47
  Q 444.60 1028.80 448.00 1020.86
  Q 453.25 1008.58 453.32 1008.34
  Q 454.83 1003.54 458.29 998.36
  Q 459.82 996.07 463.58 988.29
  C 466.03 983.23 469.72 977.19 471.75 973.40
  Q 475.44 966.52 478.08 962.78
  C 481.21 958.35 483.99 953.76 487.52 949.23
  Q 493.14 942.01 498.77 935.02
  Q 517.72 911.52 539.96 891.89
  C 547.70 885.06 555.86 879.20 563.67 873.04
  Q 567.07 870.35 570.01 868.76
  C 574.75 866.21 578.57 862.40 583.13 859.64
  C 585.97 857.93 589.31 855.39 592.50 853.70
  C 598.69 850.42 604.64 846.43 610.81 843.56
  C 622.32 838.19 631.06 833.76 642.33 829.36
  Q 660.67 822.20 664.59 820.87
  Q 679.55 815.81 696.58 812.38
  C 727.21 806.23 758.48 803.45 789.50 805.20
  C 803.11 805.96 816.29 806.60 829.74 809.04
  C 843.02 811.46 858.31 814.30 871.87 818.96
  Q 896.98 827.59 899.74 828.77
  Q 917.63 836.39 936.66 846.12
  Q 940.62 848.14 945.85 851.42
  C 955.44 857.44 971.75 867.27 982.95 876.49
  C 988.98 881.45 998.31 888.15 1004.75 893.93
  Q 1022.56 909.94 1040.04 930.38
  C 1045.32 936.55 1050.15 943.53 1055.61 950.09
  Q 1058.14 953.12 1061.50 958.23
  Q 1076.80 981.49 1087.81 1005.34
  C 1090.98 1012.21 1093.44 1019.36 1096.45 1025.91
  Q 1097.79 1028.81 1099.77 1034.20
  Q 1110.52 1063.49 1115.82 1092.84
  Q 1117.64 1102.91 1119.86 1129.26
  Q 1122.28 1157.95 1119.21 1187.50
  Q 1117.90 1200.16 1115.32 1215.36
  C 1111.84 1235.93 1105.77 1254.60 1098.89 1273.58
  C 1097.88 1276.37 1095.98 1279.78 1094.98 1282.21
  Q 1086.93 1302.01 1080.90 1313.67
  Q 1076.38 1322.42 1066.39 1339.14
  Q 1059.13 1351.29 1049.55 1363.10
  Q 1031.03 1385.90 1022.47 1394.74
  Q 1009.94 1407.68 991.29 1423.54
  C 986.96 1427.22 983.80 1429.28 980.13 1432.37
  Q 977.58 1434.51 975.64 1435.87
  Q 956.13 1449.53 938.94 1459.19
  Q 928.77 1464.90 910.85 1473.23
  Q 902.76 1476.99 897.10 1478.94
  C 891.43 1480.89 884.83 1483.61 878.38 1485.70
  Q 797.05 1511.99 712.40 1497.22
  Q 706.22 1496.14 699.26 1494.47
  C 693.00 1492.98 688.08 1492.30 681.77 1490.50
  Q 656.11 1483.16 639.68 1476.02
  Q 623.49 1468.97 603.83 1458.39
  C 583.16 1447.28 563.30 1433.60 546.14 1418.11
  Q 532.53 1405.82 527.01 1400.72
  Q 511.84 1386.69 497.71 1368.51
  Q 480.23 1346.00 466.46 1322.63
  Q 463.40 1317.44 461.87 1314.14
  C 460.03 1310.16 457.90 1306.69 456.14 1302.59
  Q 448.69 1285.16 444.63 1274.63
  Q 432.17 1242.33 425.80 1207.75
  C 425.34 1205.26 425.25 1201.16 424.72 1198.07
  C 422.69 1186.28 422.41 1173.32 421.91 1164.01
  C 421.13 1149.50 422.17 1132.54 423.05 1122.24
  Q 423.22 1120.15 426.45 1094.59
  C 427.20 1088.69 428.49 1084.42 429.41 1078.37
  Z"
/>
<path fill="#727171" d="
  M 232.28 849.86
  A 2.09 2.09 0.0 0 1 230.15 851.91
  L 228.25 851.87
  A 4.99 4.27 1.1 0 1 223.35 847.50
  L 223.37 846.14
  A 4.99 4.27 1.1 0 1 228.44 841.97
  L 230.34 842.01
  A 2.09 2.09 0.0 0 1 232.39 844.14
  L 232.28 849.86
  Z"
/>
<path fill="#727171" d="
  M 1550.64 858.04
  A 1.72 1.72 0.0 0 1 1548.91 859.75
  L 1546.37 859.75
  A 3.66 3.44 0.1 0 1 1542.72 856.30
  L 1542.72 855.90
  A 3.66 3.44 0.1 0 1 1546.39 852.47
  L 1548.93 852.47
  A 1.72 1.72 0.0 0 1 1550.64 854.20
  L 1550.64 858.04
  Z"
/>
<path fill="#727171" d="
  M 1646.92 1012.08
  A 1.35 1.35 0.0 0 1 1645.59 1010.72
  L 1645.62 1007.10
  A 3.45 2.92 -89.5 0 1 1648.57 1003.67
  L 1652.17 1003.71
  A 3.45 2.92 -89.5 0 1 1655.06 1007.18
  L 1655.02 1010.80
  A 1.35 1.35 0.0 0 1 1653.66 1012.14
  L 1646.92 1012.08
  Z"
/>
<path fill="#727171" d="
  M 1576.11 1113.19
  A 1.72 1.72 0.0 0 1 1574.36 1111.50
  L 1574.30 1108.22
  A 2.98 2.92 -1.0 0 1 1577.23 1105.25
  L 1580.29 1105.19
  A 2.98 2.92 -1.0 0 1 1583.32 1108.06
  L 1583.38 1111.34
  A 1.72 1.72 0.0 0 1 1581.69 1113.09
  L 1576.11 1113.19
  Z"
/>
<ellipse fill="#727171" cx="0.00" cy="0.00" transform="translate(234.65,1295.50) rotate(-80.9)" rx="5.42" ry="5.10"/>
<rect fill="#727171" x="-4.89" y="-4.89" transform="translate(68.42,1595.34) rotate(1.4)" width="9.78" height="9.78" rx="3.57"/>
</svg>
