<svg width="289" height="53" viewBox="0 0 289 53" fill="none" xmlns="http://www.w3.org/2000/svg">
<g clip-path="url(#clip0_86_7)">
<path d="M0.273438 0.460938H20.875C24.9531 0.460938 27.9883 0.636719 29.9805 0.988281C31.9961 1.31641 33.7891 2.01953 35.3594 3.09766C36.9531 4.17578 38.2773 5.61719 39.332 7.42188C40.3867 9.20312 40.9141 11.207 40.9141 13.4336C40.9141 15.8477 40.2578 18.0625 38.9453 20.0781C37.6562 22.0938 35.8984 23.6055 33.6719 24.6133C36.8125 25.5273 39.2266 27.0859 40.9141 29.2891C42.6016 31.4922 43.4453 34.082 43.4453 37.0586C43.4453 39.4023 42.8945 41.6875 41.793 43.9141C40.7148 46.1172 39.2266 47.8867 37.3281 49.2227C35.4531 50.5352 33.1328 51.3438 30.3672 51.6484C28.6328 51.8359 24.4492 51.9531 17.8164 52H0.273438V0.460938ZM10.6797 9.03906V20.957H17.5C21.5547 20.957 24.0742 20.8984 25.0586 20.7812C26.8398 20.5703 28.2344 19.9609 29.2422 18.9531C30.2734 17.9219 30.7891 16.5742 30.7891 14.9102C30.7891 13.3164 30.3438 12.0273 29.4531 11.043C28.5859 10.0352 27.2852 9.42578 25.5508 9.21484C24.5195 9.09766 21.5547 9.03906 16.6562 9.03906H10.6797ZM10.6797 29.5352V43.3164H20.3125C24.0625 43.3164 26.4414 43.2109 27.4492 43C28.9961 42.7188 30.25 42.0391 31.2109 40.9609C32.1953 39.8594 32.6875 38.3945 32.6875 36.5664C32.6875 35.0195 32.3125 33.707 31.5625 32.6289C30.8125 31.5508 29.7227 30.7656 28.293 30.2734C26.8867 29.7812 23.8164 29.5352 19.082 29.5352H10.6797Z" fill="white"/>
<path d="M52.3047 52V0.460938H62.7109V20.7461H83.1016V0.460938H93.5078V52H83.1016V29.4648H62.7109V52H52.3047Z" fill="white"/>
<path d="M104.23 0.460938H114.637V28.375C114.637 32.8047 114.766 35.6758 115.023 36.9883C115.469 39.0977 116.523 40.7969 118.188 42.0859C119.875 43.3516 122.172 43.9844 125.078 43.9844C128.031 43.9844 130.258 43.3867 131.758 42.1914C133.258 40.9727 134.16 39.4844 134.465 37.7266C134.77 35.9688 134.922 33.0508 134.922 28.9727V0.460938H145.328V27.5312C145.328 33.7188 145.047 38.0898 144.484 40.6445C143.922 43.1992 142.879 45.3555 141.355 47.1133C139.855 48.8711 137.84 50.2773 135.309 51.332C132.777 52.3633 129.473 52.8789 125.395 52.8789C120.473 52.8789 116.734 52.3164 114.18 51.1914C111.648 50.043 109.645 48.5664 108.168 46.7617C106.691 44.9336 105.719 43.0234 105.25 41.0312C104.57 38.0781 104.23 33.7188 104.23 27.9531V0.460938Z" fill="white"/>
<path d="M167.934 52V9.17969H152.641V0.460938H193.598V9.17969H178.34V52H167.934Z" fill="white"/>
<path d="M241.48 52H230.16L225.66 40.293H205.059L200.805 52H189.766L209.84 0.460938H220.844L241.48 52ZM222.32 31.6094L215.219 12.4844L208.258 31.6094H222.32Z" fill="white"/>
<path d="M247.141 52V0.460938H257.266L278.359 34.8789V0.460938H288.027V52H277.586L256.809 18.3906V52H247.141Z" fill="white"/>
</g>
<defs>
<clipPath id="clip0_86_7">
<rect width="289" height="53" fill="white"/>
</clipPath>
</defs>
</svg>
