<svg width="356" height="54" viewBox="0 0 356 54" fill="none" xmlns="http://www.w3.org/2000/svg">
<g clip-path="url(#clip0_85_2)">
<path d="M12.5508 53L0.246094 1.46094H10.8984L18.668 36.8633L28.0898 1.46094H40.4648L49.5 37.4609L57.4102 1.46094H67.8867L55.3711 53H44.332L34.0664 14.4688L23.8359 53H12.5508Z" fill="white"/>
<path d="M86.7656 53V31.3086L67.8867 1.46094H80.0859L92.2148 21.8516L104.098 1.46094H116.086L97.1367 31.3789V53H86.7656Z" fill="white"/>
<path d="M119.145 27.5469C119.145 22.2969 119.93 17.8906 121.5 14.3281C122.672 11.7031 124.266 9.34766 126.281 7.26172C128.32 5.17578 130.547 3.62891 132.961 2.62109C136.172 1.26172 139.875 0.582031 144.07 0.582031C151.664 0.582031 157.734 2.9375 162.281 7.64844C166.852 12.3594 169.137 18.9102 169.137 27.3008C169.137 35.6211 166.875 42.1367 162.352 46.8477C157.828 51.5352 151.781 53.8789 144.211 53.8789C136.547 53.8789 130.453 51.5469 125.93 46.8828C121.406 42.1953 119.145 35.75 119.145 27.5469ZM129.867 27.1953C129.867 33.0312 131.215 37.4609 133.91 40.4844C136.605 43.4844 140.027 44.9844 144.176 44.9844C148.324 44.9844 151.723 43.4961 154.371 40.5195C157.043 37.5195 158.379 33.0312 158.379 27.0547C158.379 21.1484 157.078 16.7422 154.477 13.8359C151.898 10.9297 148.465 9.47656 144.176 9.47656C139.887 9.47656 136.43 10.9531 133.805 13.9062C131.18 16.8359 129.867 21.2656 129.867 27.1953Z" fill="white"/>
<path d="M177.152 53V1.46094H192.727L202.078 36.6172L211.324 1.46094H226.934V53H217.266V12.4297L207.035 53H197.016L186.82 12.4297V53H177.152Z" fill="white"/>
<path d="M236.953 53V1.46094H247.359V53H236.953Z" fill="white"/>
<path d="M257.414 53V1.46094H267.539L288.633 35.8789V1.46094H298.301V53H287.859L267.082 19.3906V53H257.414Z" fill="white"/>
<path d="M333.316 34.0508V25.3672H355.746V45.8984C353.566 48.0078 350.402 49.8711 346.254 51.4883C342.129 53.082 337.945 53.8789 333.703 53.8789C328.312 53.8789 323.613 52.7539 319.605 50.5039C315.598 48.2305 312.586 44.9961 310.57 40.8008C308.555 36.582 307.547 32 307.547 27.0547C307.547 21.6875 308.672 16.918 310.922 12.7461C313.172 8.57422 316.465 5.375 320.801 3.14844C324.105 1.4375 328.219 0.582031 333.141 0.582031C339.539 0.582031 344.531 1.92969 348.117 4.625C351.727 7.29688 354.047 11 355.078 15.7344L344.742 17.668C344.016 15.1367 342.645 13.1445 340.629 11.6914C338.637 10.2148 336.141 9.47656 333.141 9.47656C328.594 9.47656 324.973 10.918 322.277 13.8008C319.605 16.6836 318.27 20.9609 318.27 26.6328C318.27 32.75 319.629 37.3438 322.348 40.4141C325.066 43.4609 328.629 44.9844 333.035 44.9844C335.215 44.9844 337.395 44.5625 339.574 43.7188C341.777 42.8516 343.664 41.8086 345.234 40.5898V34.0508H333.316Z" fill="white"/>
</g>
<defs>
<clipPath id="clip0_85_2">
<rect width="356" height="54" fill="white"/>
</clipPath>
</defs>
</svg>
