<svg width="970" height="853" viewBox="0 0 970 853" fill="none" xmlns="http://www.w3.org/2000/svg"><g clip-path="url(#clip0_537_4694)" transform="translate(-454.093 -418.943)"><g filter="url(#filter2_f_537_4694)"/><path d="M696.043 452.437c-114.368-83.155-231.182 14.428-210.034 106.755 16.944 73.969 105.527 115.512 135.396 158.907 8.542 12.41-5.175 22.757-19.453 17.951-38.58-12.987-100.961-26.66-95.051 23.397 13.665 115.736 248.561 145.86 281.165 280.133.408 1.68 2.733 2.01 3.559.49 137.858-253.151 39.502-489.415-95.582-587.633Z" fill="url(#paint0_radial_537_4694)"/><path d="M696.043 452.437c-114.368-83.155-231.182 14.428-210.034 106.755 16.944 73.969 105.527 115.512 135.396 158.907 8.542 12.41-5.175 22.757-19.453 17.951-38.58-12.987-100.961-26.66-95.051 23.397 13.665 115.736 248.561 145.86 281.165 280.133.408 1.68 2.733 2.01 3.559.49 137.858-253.151 39.502-489.415-95.582-587.633Z" fill="url(#paint1_linear_537_4694)"/><path d="M1277.77 786.168c61.45 84.273-5.03 174.41-61.45 166.407-15.73-2.231-24.8-14.187-40.2-9.569-9.99 2.995-10.76 16.032-4.38 24.281 22.94 29.66 68.69 94.953 38.19 108.303-63.79 27.91-184.46-184.964-266.133-169.317-1.357.26-2.489-1.198-1.916-2.455 117.339-257.683 274.689-201.573 335.889-117.65Z" fill="url(#paint2_radial_537_4694)"/><path d="M721.098 490.257c0-22.209 18.003-40.212 40.211-40.212h345.131c22.21 0 40.21 18.003 40.21 40.212v726.303H721.098V490.257Z" fill="url(#paint3_radial_537_4694)"/><rect x="733.961" y="463.156" width="399.835" height="795.858" rx="26.878" fill="#020202"/><path d="M742.761 1184.06h-75.757a42.466 42.466 0 0 1-36.866-21.4l-26.952-47.17 228.981 34.28v34.29h-89.406Z" fill="url(#paint4_linear_537_4694)" stroke="#000" stroke-width="2.513" stroke-linecap="round"/><path fill-rule="evenodd" clip-rule="evenodd" d="m842.387 1097.43-9.007-39.7a20.757 20.757 0 0 0-14.623-15.4l-71.724-20.21c-6.606-1.86-7.75-10.74-1.831-14.22l58.256-34.202a25.966 25.966 0 0 0 11.793-29.613l-8.079-27.894c-1.585-5.474 3.051-10.742 8.682-9.863l34.786 5.424a5.192 5.192 0 0 0 5.807-3.753l13.665-49.656c1.799-6.533 9.271-9.623 15.158-6.266 2.8 1.596 11.095 7.387 18.975 12.987 6.115 4.344 14.487-.862 13.241-8.258l-20.037-118.9c-1.013-6.014-7.907-8.964-12.957-5.545l-21.309 14.427c-5.308 3.593-12.394-.655-11.726-7.03l3.096-29.545c.964-9.193-6.949-16.854-16.106-15.593l-60.464 8.326c-4.11.566-6.453-4.546-3.343-7.291l30.271-26.709c3.171-2.798 2.428-7.93-1.405-9.714l-85.33-39.713c-6.626-3.084-6.402-12.581.362-15.348l83.504-34.172c7.873-3.222 12.082-11.832 9.788-20.024l-8.621-30.792c-1.825-6.519 5.199-11.954 11.051-8.55l46.917 27.287c4.418 2.569 10.057.092 11.154-4.899l9.776-44.477c1.32-6.004 8.883-7.99 12.982-3.41l45.464 50.8a25.134 25.134 0 0 0 29.429 5.98l72.568-34.149c5.64-2.655 11.89 2.297 10.59 8.395l-12.74 59.719 117.04-13.781c7.43-.875 11.46 8.45 5.72 13.264L1092 635.087a25.139 25.139 0 0 0-8.62 23.426l11.27 66.908c.94 5.563-4.34 10.148-9.72 8.438l-26-8.268c-28.05-8.916-57.72 8.059-64.245 36.754l-22.399 98.474c-2.039 8.966 3.528 17.9 12.476 20.02l38.488 9.118c9.47 2.242 15.32 11.738 13.06 21.198l-6.44 27.021c-1.54 5.237 1.24 10.773 6.36 12.67l60.47 22.402c6.36 2.357 6.88 11.155.84 14.241l-78.74 40.211c-4.3 2.2-6.52 7.07-5.36 11.75l11.05 44.6c1.29 5.22-2.97 10.14-8.32 9.62l-67.374-6.57a5.08 5.08 0 0 1-1.577-.41l-34.486-15.08a5.171 5.171 0 0 0-4.399.11l-58.565 29.2c-3.013 1.51-6.637-.21-7.382-3.49Zm176.683-177.982c0 6.767-5.49 12.253-12.26 12.253-6.76 0-12.25-5.486-12.25-12.253 0-6.768 5.49-12.254 12.25-12.254 6.77 0 12.26 5.486 12.26 12.254Zm37.56-159.618c0 10.604-8.6 19.2-19.2 19.2-10.61 0-19.2-8.596-19.2-19.2 0-10.605 8.59-19.201 19.2-19.201 10.6 0 19.2 8.596 19.2 19.201ZM802.452 951.534c0 7.778-6.306 14.083-14.084 14.083s-14.083-6.305-14.083-14.083c0-7.778 6.305-14.083 14.083-14.083 7.778 0 14.084 6.305 14.084 14.083Z" fill="url(#paint5_radial_537_4694)"/><path d="m833.38 1057.73-1.225.27 1.225-.27Zm9.007 39.7-1.225.27 1.225-.27Zm-23.63-55.1.341-1.21-.341 1.21Zm-71.724-20.21-.34 1.21.34-1.21Zm-1.831-14.22.636 1.09-.636-1.09Zm58.256-34.202-.637-1.084.637 1.084Zm11.793-29.613 1.207-.35-1.207.35Zm-8.079-27.894-1.207.349 1.207-.349Zm8.682-9.863.194-1.242-.194 1.242Zm34.786 5.424-.193 1.242.193-1.242Zm5.807-3.753 1.212.334-1.212-.334Zm13.665-49.656-1.211-.333 1.211.333Zm15.158-6.266.623-1.092-.623 1.092Zm18.975 12.987-.727 1.024.727-1.024Zm13.241-8.258 1.239-.209-1.239.209Zm-20.037-118.9-1.239.209 1.239-.209Zm-12.957-5.545.704 1.041-.704-1.041Zm-21.309 14.427.704 1.04-.704-1.04Zm-11.726-7.03 1.25.131-1.25-.131Zm3.096-29.545 1.25.131-1.25-.131Zm-16.106-15.593-.172-1.245.172 1.245Zm-60.464 8.326.171 1.245-.171-1.245Zm-3.343-7.291.832.943-.832-.943Zm30.271-26.709-.831-.942.831.942Zm-1.405-9.714-.531 1.139.531-1.139Zm-85.33-39.713.53-1.139-.53 1.139Zm.362-15.348.476 1.163-.476-1.163Zm83.504-34.172-.476-1.163.476 1.163Zm9.788-20.024 1.21-.339-1.21.339Zm-8.621-30.792-1.21.339 1.21-.339Zm11.051-8.55-.632 1.086.632-1.086Zm46.917 27.287-.632 1.086.632-1.086Zm11.154-4.899 1.228.27-1.228-.27Zm9.776-44.477-1.227-.27 1.227.27Zm12.982-3.41-.936.838.936-.838Zm45.464 50.8-.936.838.936-.838Zm29.429 5.98.535 1.137-.535-1.137Zm72.568-34.149.54 1.137-.54-1.137Zm10.59 8.395-1.23-.262 1.23.262Zm-12.74 59.719-1.23-.262-.37 1.716 1.74-.206-.14-1.248Zm117.04-13.781-.15-1.248.15 1.248Zm5.72 13.264.81.962-.81-.962ZM1092 635.087l.81.963-.81-.963Zm-8.62 23.426 1.24-.209-1.24.209Zm11.27 66.908 1.24-.208-1.24.208Zm-9.72 8.438-.38 1.198.38-1.198Zm-26-8.268.38-1.197-.38 1.197Zm-64.245 36.754-1.226-.279 1.226.279Zm-22.399 98.474 1.226.279-1.226-.279Zm12.476 20.02-.29 1.223.29-1.223Zm38.488 9.118-.29 1.223.29-1.223Zm13.06 21.198-1.22-.291 1.22.291Zm-6.44 27.021 1.21.354.01-.031v-.032l-1.22-.291Zm6.36 12.67-.44 1.178.44-1.178Zm60.47 22.402-.43 1.178.43-1.178Zm.84 14.241.57 1.119-.57-1.119Zm-78.74 40.211-.57-1.12.57 1.12Zm-5.36 11.75-1.22.3 1.22-.3Zm11.05 44.6 1.22-.3-1.22.3Zm-8.32 9.62-.12 1.25.12-1.25Zm-67.374-6.57-.122 1.26.122-1.26Zm-1.577-.41.504-1.15-.504 1.15Zm-34.486-15.08-.504 1.15.504-1.15Zm-4.399.11-.56-1.12.56 1.12Zm-58.565 29.2.561 1.13-.561-1.13ZM832.155 1058l9.007 39.7 2.451-.55-9.007-39.7-2.451.55Zm-13.739-14.46a19.515 19.515 0 0 1 13.739 14.46l2.451-.55a22.02 22.02 0 0 0-15.508-16.33l-.682 2.42Zm-71.723-20.21 71.723 20.21.682-2.42-71.724-20.21-.681 2.42Zm-2.127-16.51c-6.874 4.04-5.546 14.35 2.127 16.51l.681-2.42c-5.541-1.56-6.5-9.01-1.536-11.92l-1.272-2.17Zm58.255-34.206-58.255 34.206 1.272 2.17 58.256-34.208-1.273-2.168Zm11.223-28.18a24.709 24.709 0 0 1-11.223 28.18l1.273 2.168c10.736-6.304 15.827-19.088 12.364-31.047l-2.414.699Zm-8.079-27.894 8.079 27.894 2.414-.699-8.079-27.894-2.414.699Zm10.083-11.454c-6.539-1.02-11.924 5.097-10.083 11.454l2.414-.699c-1.329-4.591 2.559-9.008 7.282-8.272l.387-2.483Zm34.786 5.425-34.786-5.425-.387 2.483 34.786 5.425.387-2.483Zm4.402-2.845a3.937 3.937 0 0 1-4.402 2.845l-.387 2.483a6.45 6.45 0 0 0 7.212-4.661l-2.423-.667Zm13.665-49.656-13.665 49.656 2.423.667 13.665-49.656-2.423-.667Zm16.992-7.025c-6.6-3.763-14.976-.299-16.992 7.025l2.423.667c1.581-5.744 8.149-8.459 13.324-5.509l1.245-2.183Zm19.08 13.054c-7.85-5.577-16.211-11.418-19.08-13.054l-1.245 2.183c2.731 1.557 10.958 7.299 18.87 12.92l1.455-2.049Zm11.273-7.025c1.059 6.281-6.06 10.729-11.273 7.025l-1.455 2.049c7.016 4.985 16.641-.979 15.207-9.491l-2.479.417ZM896.21 738.115l20.036 118.899 2.479-.417-20.037-118.9-2.478.418Zm-11.014-4.713c4.293-2.906 10.153-.399 11.014 4.713l2.478-.418c-1.165-6.915-9.093-10.308-14.901-6.376l1.409 2.081Zm-21.309 14.426 21.309-14.426-1.409-2.081-21.309 14.426 1.409 2.081Zm-13.68-8.201c-.779 7.437 7.488 12.393 13.68 8.201l-1.409-2.081c-4.423 2.995-10.328-.545-9.771-5.858l-2.5-.262Zm3.097-29.545-3.097 29.545 2.5.262 3.096-29.545-2.499-.262Zm-14.686-14.217c8.349-1.15 15.564 5.835 14.686 14.217l2.499.262c1.049-10.004-7.563-18.341-17.528-16.969l.343 2.49Zm-60.464 8.326 60.464-8.326-.343-2.49-60.463 8.326.342 2.49Zm-4.345-9.478c-4.044 3.568-.997 10.213 4.345 9.478l-.342-2.49c-2.877.396-4.518-3.182-2.34-5.103l-1.663-1.885Zm30.271-26.709-30.271 26.709 1.663 1.885 30.27-26.71-1.662-1.884Zm-1.105-7.633c3.013 1.402 3.596 5.434 1.105 7.633l1.662 1.884c3.851-3.397 2.949-9.629-1.706-11.795l-1.061 2.278Zm-85.329-39.713 85.329 39.713 1.061-2.278-85.33-39.713-1.06 2.278Zm.416-17.65c-7.778 3.183-8.036 14.104-.416 17.65l1.06-2.278c-5.632-2.621-5.441-10.694.308-13.046l-.952-2.326Zm83.504-34.172-83.504 34.172.952 2.326 83.503-34.172-.951-2.326Zm9.054-18.522c2.122 7.577-1.772 15.542-9.054 18.522l.951 2.326c8.464-3.463 12.989-12.719 10.523-21.526l-2.42.678Zm-8.621-30.792 8.621 30.792 2.42-.678-8.621-30.792-2.42.678Zm12.893-9.976c-6.827-3.97-15.023 2.371-12.893 9.976l2.42-.678c-1.521-5.432 4.333-9.961 9.209-7.125l1.264-2.173Zm46.917 27.288-46.917-27.288-1.264 2.173 46.917 27.287 1.264-2.172Zm9.295-4.083c-.914 4.159-5.614 6.224-9.295 4.083l-1.264 2.172c5.154 2.998 11.734.108 13.014-5.715l-2.455-.54Zm9.776-44.477-9.776 44.477 2.455.54 9.776-44.477-2.455-.54Zm15.146-3.978c-4.783-5.344-13.607-3.026-15.146 3.978l2.455.54c1.099-5.003 7.402-6.659 10.818-2.842l1.873-1.676Zm45.464 50.8-45.464-50.8-1.873 1.676 45.464 50.8 1.873-1.676Zm27.956 5.681a23.874 23.874 0 0 1-27.956-5.681l-1.873 1.676a26.39 26.39 0 0 0 30.9 6.279l-1.071-2.274Zm72.574-34.149-72.574 34.149 1.071 2.274 72.573-34.149-1.07-2.274Zm12.35 9.794c1.51-7.114-5.77-12.892-12.35-9.794l1.07 2.274c4.7-2.213 9.9 1.914 8.82 6.996l2.46.524Zm-12.75 59.72 12.75-59.72-2.46-.524-12.74 59.719 2.45.525Zm115.67-15.292-117.04 13.782.29 2.495 117.04-13.781-.29-2.496Zm6.68 15.474c6.69-5.615 1.99-16.495-6.68-15.474l.29 2.496c6.2-.729 9.56 7.042 4.78 11.053l1.61 1.925Zm-71.16 59.726 71.16-59.726-1.61-1.925-71.16 59.726 1.61 1.925Zm-8.19 22.254a23.87 23.87 0 0 1 8.19-22.254l-1.61-1.925a26.39 26.39 0 0 0-9.06 24.597l2.48-.418Zm11.27 66.909-11.27-66.909-2.48.418 11.27 66.908 2.48-.417Zm-11.34 9.844c6.27 1.994 12.43-3.354 11.34-9.844l-2.48.417c.78 4.636-3.62 8.456-8.1 7.032l-.76 2.395Zm-26-8.268 26 8.268.76-2.395-26-8.268-.76 2.395Zm-62.64 35.835c6.36-27.978 35.29-44.529 62.64-35.835l.76-2.395c-28.75-9.14-59.16 8.26-65.851 37.672l2.451.558Zm-22.398 98.474 22.398-98.474-2.451-.558-22.398 98.474 2.451.558Zm11.539 18.518c-8.276-1.96-13.426-10.225-11.539-18.518l-2.451-.558c-2.192 9.639 3.793 19.243 13.411 21.522l.579-2.446Zm38.489 9.119-38.489-9.119-.579 2.446 38.488 9.118.58-2.445Zm13.99 22.711c2.42-10.136-3.85-20.309-13.99-22.711l-.58 2.445c8.79 2.082 14.22 10.899 12.13 19.684l2.44.582Zm-6.44 27.021 6.44-27.021-2.44-.582-6.44 27.02 2.44.583Zm5.57 11.2a9.12 9.12 0 0 1-5.58-11.137l-2.42-.709c-1.72 5.871 1.39 12.077 7.13 14.203l.87-2.357Zm60.48 22.403-60.48-22.403-.87 2.357 60.48 22.402.87-2.356Zm.97 16.538c7.02-3.583 6.42-13.801-.97-16.538l-.87 2.356c5.33 1.977 5.77 9.356.7 11.944l1.14 2.238Zm-78.74 40.212 78.74-40.212-1.14-2.238-78.74 40.21 1.14 2.24Zm-4.71 10.33c-1.02-4.12.93-8.4 4.71-10.33l-1.14-2.24a11.653 11.653 0 0 0-6.01 13.17l2.44-.6Zm11.05 44.6-11.05-44.6-2.44.6 11.05 44.6 2.44-.6Zm-9.66 11.17c6.21.61 11.16-5.11 9.66-11.17l-2.44.6c1.08 4.38-2.49 8.51-6.98 8.07l-.24 2.5Zm-67.376-6.56 67.376 6.56.24-2.5-67.372-6.57-.244 2.51Zm-1.958-.52c.622.28 1.283.45 1.958.52l.244-2.51a3.813 3.813 0 0 1-1.195-.31l-1.007 2.3Zm-34.487-15.08 34.487 15.08 1.007-2.3-34.487-15.08-1.007 2.3Zm-3.334.08a3.93 3.93 0 0 1 3.334-.08l1.007-2.3a6.409 6.409 0 0 0-5.462.14l1.121 2.24Zm-58.565 29.21 58.565-29.21-1.121-2.24-58.566 29.2 1.122 2.25Zm-9.168-4.35c.925 4.08 5.426 6.21 9.168 4.35l-1.122-2.25a3.934 3.934 0 0 1-5.595-2.65l-2.451.55Zm165.648-164.742c7.46 0 13.51-6.049 13.51-13.51h-2.51c0 6.073-4.92 10.997-11 10.997v2.513Zm-13.507-13.51c0 7.461 6.049 13.51 13.507 13.51v-2.513c-6.07 0-10.994-4.924-10.994-10.997h-2.513Zm13.507-13.51c-7.458 0-13.507 6.048-13.507 13.51h2.513c0-6.074 4.924-10.997 10.994-10.997v-2.513Zm13.51 13.51c0-7.462-6.05-13.51-13.51-13.51v2.513c6.08 0 11 4.923 11 10.997h2.51Zm17.11-139.161c11.3 0 20.45-9.159 20.45-20.457h-2.51c0 9.91-8.03 17.943-17.94 17.943v2.514Zm-20.46-20.457c0 11.298 9.16 20.457 20.46 20.457v-2.514c-9.91 0-17.95-8.033-17.95-17.943h-2.51Zm20.46-20.458c-11.3 0-20.46 9.159-20.46 20.458h2.51c0-9.911 8.04-17.944 17.95-17.944v-2.514Zm20.45 20.458c0-11.299-9.15-20.458-20.45-20.458v2.514c9.91 0 17.94 8.033 17.94 17.944h2.51ZM788.368 966.874c8.472 0 15.34-6.868 15.34-15.34h-2.513c0 7.084-5.743 12.827-12.827 12.827v2.513Zm-15.339-15.34c0 8.472 6.867 15.34 15.339 15.34v-2.513c-7.084 0-12.826-5.743-12.826-12.827h-2.513Zm15.339-15.34c-8.472 0-15.339 6.868-15.339 15.34h2.513c0-7.084 5.742-12.827 12.826-12.827v-2.513Zm15.34 15.34c0-8.472-6.868-15.34-15.34-15.34v2.513c7.084 0 12.827 5.743 12.827 12.827h2.513Z" fill="#000"/><path d="m659.951 1000.48 30.956 10.49v59.11h-30.956v-69.6Z" fill="#9945FF" stroke="#020202" stroke-width="2.513" stroke-linecap="round"/><path d="M615.194 936.004c4.867 4.866 15.806.401 22.39-2.968a7.488 7.488 0 0 1 3.97-.827c38.619 2.792 112.1-4.78 125.073-1.982 16.513 3.562 40.538-32.746 40.538-58.93 0-17.039-14.271-29.272-28.882-25.256 0-8.909-17.092-21.546-64.495-40.714-59.254-23.961-89.954 31.648-89.629 65.97.436 46.192-19.476 54.197-8.965 64.707Z" fill="#000"/><path d="m637.584 933.036.572 1.118-.572-1.118Zm-22.39 2.968.889-.889-.889.889Zm8.965-64.707 1.256-.012-1.256.012Zm142.468 58.93.265-1.228-.265 1.228Zm-125.073 1.982-.091 1.253.091-1.253Zm125.036-56.692a1.257 1.257 0 0 0 1.725 1.829l-1.725-1.829Zm-129.579 56.4c-3.26 1.668-7.528 3.57-11.539 4.465-4.101.914-7.449.673-9.389-1.267l-1.777 1.778c2.927 2.926 7.482 2.885 11.713 1.941 4.321-.963 8.814-2.979 12.137-4.68l-1.145-2.237Zm-20.928 3.198c-1.215-1.214-1.932-2.334-2.318-3.431-.384-1.092-.468-2.244-.297-3.567.356-2.749 1.754-5.977 3.598-10.622 3.647-9.182 8.569-22.899 8.349-46.21l-2.513.024c.216 22.88-4.599 36.263-8.172 45.258-1.765 4.445-3.347 8.076-3.754 11.227-.211 1.627-.123 3.186.418 4.724.539 1.532 1.499 2.962 2.912 4.375l1.777-1.778Zm9.332-63.83c-.159-16.852 7.323-39.004 22.11-53.945 7.375-7.452 16.546-13.089 27.476-15.411 10.927-2.321 23.701-1.347 38.316 4.563l.942-2.33c-15.011-6.07-28.295-7.131-39.78-4.691-11.481 2.438-21.075 8.356-28.74 16.101-15.296 15.454-23.002 38.268-22.837 55.737l2.513-.024Zm87.902-64.793c23.678 9.575 39.712 17.49 49.807 24.091 5.049 3.302 8.559 6.24 10.793 8.851 2.239 2.616 3.11 4.795 3.11 6.607h2.513c0-2.642-1.267-5.383-3.713-8.241-2.452-2.864-6.178-5.953-11.327-9.32-10.302-6.737-26.516-14.724-50.241-24.318l-.942 2.33Zm65.299 40.761c13.644-3.75 27.293 7.654 27.293 24.044h2.513c0-17.687-14.895-30.749-30.472-26.467l.666 2.423Zm27.293 24.044c0 12.767-5.884 28.148-13.861 39.914-3.981 5.874-8.437 10.774-12.858 13.975-4.445 3.219-8.674 4.595-12.298 3.813l-.53 2.457c4.632.999 9.599-.829 14.302-4.234 4.729-3.424 9.376-8.569 13.465-14.6 8.164-12.043 14.293-27.909 14.293-41.325h-2.513Zm-39.017 57.702c-1.751-.378-4.424-.566-7.755-.632-3.356-.067-7.465-.011-12.132.126-9.332.273-20.957.871-33.358 1.468-24.841 1.195-52.784 2.384-72.003.995l-.181 2.506c19.401 1.403 47.508.202 72.305-.991 12.419-.598 24.01-1.194 33.311-1.466 4.65-.136 8.712-.191 12.008-.125 3.322.066 5.782.254 7.275.576l.53-2.457Zm10.135-82.958c0 7.107-.032 19.664-10.437 29.476l1.725 1.829c11.257-10.617 11.225-24.21 11.225-31.305h-2.513Zm-138.871 88.113a6.241 6.241 0 0 1 3.307-.692l.181-2.506a8.74 8.74 0 0 0-4.633.961l1.145 2.237Z" fill="#fff"/><path d="M535.231 896.35c-19.419-4.383-30.456 13.282-23.619 25.052 2.848 4.904 7.922 7.534 13.283 9.381 9.883 3.406 2.507 8.355 2.509 18.808.005 17.446 39.738 7.374 56.077 20.275 1.137.898 3.262-.008 3.087-1.446-4.867-40.004-26.129-66.381-51.337-72.07Z" fill="url(#paint6_radial_537_4694)" stroke="#000" stroke-width="2.513" stroke-linecap="round"/><path d="M1207.11 597.2c22.95-8.845 39.61 10.764 33.37 26.379-2.84 7.097-9.4 11.363-16.26 14.71-10.81 5.277-1.99 9.227 1.6 20.714.18.581.32 1.203.42 1.869 3.18 21.67-48.89 15.978-65.73 35.782-.94 1.103-3.12.562-3.17-.886-1.63-50.419 19.73-86.99 49.77-98.568Z" fill="url(#paint7_radial_537_4694)" stroke="#000" stroke-width="2.513" stroke-linecap="round"/><path d="M550.261 916.364c-11.769-2.656-18.458 8.049-14.315 15.183 1.726 2.971 4.802 4.566 8.05 5.685 5.99 2.064 1.52 5.063 1.521 11.398.003 9.999 21.537 5.083 32.252 11.131 1.261.713 3.537-.351 3.326-1.784-3.413-23.086-15.995-38.264-30.834-41.613Z" fill="url(#paint8_radial_537_4694)" stroke="#000" stroke-width="2.513" stroke-linecap="round"/><path d="M1192.34 624.365c13.91-5.361 24.01 6.523 20.22 15.987-1.57 3.942-5.04 6.443-8.81 8.395-6.96 3.599-.95 6.462.18 14.206 1.85 12.559-26.93 9.952-38.38 20.198-1.08.966-3.4.312-3.42-1.137-.34-29.477 12.42-50.793 30.21-57.649Z" fill="url(#paint9_radial_537_4694)" stroke="#000" stroke-width="2.513" stroke-linecap="round"/><path fill-rule="evenodd" clip-rule="evenodd" d="m1030.72 1029.45 22.41-10.88 10.13 18.2 15.26-8.5-18.43-34.629-18.78 10.019-4.44-11.216-17.26 5.061 11.11 31.945Z" fill="#F2EAD4" stroke="#000" stroke-width="2.513"/><path fill-rule="evenodd" clip-rule="evenodd" d="m846.56 886.366 19.36-6.572 6.39 15.845 13.29-5.359-11.476-30.074-16.306 6.241-2.471-9.583-14.569 2.359 5.782 27.143ZM470.154 601.642l47.076-15.98 15.539 38.531 32.316-13.033-27.905-73.13-39.651 15.176-6.009-23.303-35.427 5.737 14.061 66.002Z" fill="#FFD613" stroke="#000" stroke-width="2.513"/><path d="m865.594 982.624-3.572 11.907a5.2 5.2 0 0 0-.101 2.595l10.698 49.234a62.357 62.357 0 0 0 14.227 28.07l4.381 4.95a52.095 52.095 0 0 0 6.699 8.23l102.994 103c12.63 12.62 31.92 15.77 47.9 7.81l131.79-65.65-36.17-67.52h-4.61c-6.77 0-13.34-2.3-18.63-6.53-14.85-11.87-35.4-13.6-52.02-4.38l-2.85 1.57a51.754 51.754 0 0 0-26.59 42.65l-.77 15.16a19.553 19.553 0 0 1-12.14 17.11 7.809 7.809 0 0 1-8.43-1.67l-80.042-78.75a2.601 2.601 0 0 1-.571-2.86l8.536-20.27a25.923 25.923 0 0 0 1.757-6.27l19.456-39.408c.563-1.141 1.57-2 2.784-2.378a9.282 9.282 0 0 0 6.286-10.97l-.71-3.047c4.991-4.519 5.122-12.316.286-17l-7.764-7.521 4.812-1.991c5.655-2.34 8.269-8.882 5.783-14.475a10.883 10.883 0 0 0-10.769-6.431l-18.214 1.385a57.097 57.097 0 0 0-17.11 4.012l-12.674 5.132-15.795 6.396a5.19 5.19 0 0 0-3.017 3.294l-4.964 16.223c-.808 2.643-3.558 4.137-6.289 3.717-12.753-1.963-15.138 3.861-18.601 12.313-1.377 3.36-2.924 7.136-5.36 11.003a5.591 5.591 0 0 0-.626 1.36Z" fill="url(#paint10_linear_537_4694)"/><path d="m862.022 994.531-1.204-.361 1.204.361Zm3.572-11.907 1.204.361-1.204-.361Zm-3.673 14.502 1.228-.267-1.228.267Zm10.698 49.234-1.228.27 1.228-.27Zm14.227 28.07.941-.84-.941.84Zm4.381 4.95 1.051-.69-.05-.08-.06-.07-.941.84Zm6.699 8.23.889-.89-.889.89Zm102.994 103-.88.88.88-.88Zm47.9 7.81.56 1.12-.56-1.12Zm131.79-65.65.56 1.13 1.16-.58-.61-1.14-1.11.59Zm-36.17-67.52 1.11-.59-.36-.66h-.75v1.25Zm-23.24-6.53.78-.98-.78.98Zm-52.02-4.38.61 1.1-.61-1.1Zm-2.85 1.57-.61-1.1.61 1.1Zm-26.59 42.65-1.26-.07 1.26.07Zm-.77 15.16 1.25.07-1.25-.07Zm-12.14 17.11.47 1.16-.47-1.16Zm-8.43-1.67.88-.89-.88.89Zm-80.042-78.75-.881.89.881-.89Zm-.571-2.86-1.159-.49 1.159.49Zm8.536-20.27 1.159.49-1.159-.49Zm1.757-6.27-1.127-.56-.087.18-.029.2 1.243.18Zm19.456-39.408-1.126-.556 1.126.556Zm2.784-2.378.373 1.2-.373-1.2Zm6.286-10.97-1.224.285 1.224-.285Zm-.424-20.047.874-.903-.874.903Zm-2.952-9.512.48 1.161-.48-1.161Zm5.783-14.475-1.148.511 1.148-.511Zm-10.769-6.431.096 1.253-.096-1.253Zm-18.214 1.385.096 1.253-.096-1.253Zm-17.11 4.012.471 1.164-.471-1.164Zm-28.469 11.528-.472-1.165.472 1.165Zm-3.017 3.294 1.202.367-1.202-.367Zm-4.964 16.223 1.202.368-1.202-.368Zm-6.289 3.717.191-1.242-.191 1.242Zm-18.601 12.313 1.162.477-1.162-.477Zm-5.36 11.003 1.064.67-1.064-.67Zm54.026-52.946-.472-1.165.472 1.165Zm23.005 7.579a1.257 1.257 0 0 0-.948 2.328l.948-2.328Zm21.504 1.755.801-.968-.801.968Zm-8.101-3.649-.194 1.242.194-1.242Zm-93.428 60.889 3.572-11.907-2.407-.723-3.573 11.908 2.408.722Zm-.077 1.967a3.939 3.939 0 0 1 .077-1.967l-2.408-.722a6.449 6.449 0 0 0-.125 3.223l2.456-.534Zm10.698 49.231-10.698-49.231-2.456.534 10.698 49.237 2.456-.54Zm13.94 27.5a61.042 61.042 0 0 1-13.94-27.5l-2.456.54a63.587 63.587 0 0 0 14.514 28.63l1.882-1.67Zm4.381 4.95-4.381-4.95-1.882 1.67 4.381 4.95 1.882-1.67Zm6.647 8.18a50.807 50.807 0 0 1-6.537-8.03l-2.101 1.38c1.97 3 4.261 5.83 6.861 8.43l1.777-1.78Zm102.995 103-102.995-103-1.777 1.78 103.002 102.99 1.77-1.77Zm46.45 7.57c-15.5 7.72-34.2 4.67-46.45-7.57l-1.77 1.77c13.01 13.01 32.87 16.25 49.34 8.05l-1.12-2.25Zm131.79-65.64-131.79 65.64 1.12 2.25 131.79-65.64-1.12-2.25Zm-36.72-65.8 36.17 67.51 2.22-1.18-36.17-67.52-2.22 1.19Zm-3.5.66h4.61V1064h-4.61v2.51Zm-19.42-6.81a31.077 31.077 0 0 0 19.42 6.81V1064c-6.49 0-12.78-2.21-17.85-6.26l-1.57 1.96Zm-50.62-4.26c16.18-8.97 36.17-7.29 50.62 4.26l1.57-1.96c-15.25-12.19-36.34-13.97-53.41-4.5l1.22 2.2Zm-2.85 1.57 2.85-1.57-1.22-2.2-2.85 1.57 1.22 2.2Zm-25.95 41.61a50.532 50.532 0 0 1 25.95-41.61l-1.22-2.2a53.04 53.04 0 0 0-27.24 43.68l2.51.13Zm-.77 15.17.77-15.17-2.51-.13-.77 15.17 2.51.13Zm-12.92 18.2a20.76 20.76 0 0 0 12.92-18.2l-2.51-.13a18.277 18.277 0 0 1-11.36 16.01l.95 2.32Zm-9.79-1.93a9.076 9.076 0 0 0 9.79 1.93l-.95-2.32c-2.42.99-5.21.44-7.07-1.4l-1.77 1.79Zm-80.033-78.76 80.033 78.76 1.77-1.79-80.04-78.76-1.763 1.79Zm-.849-4.24a3.846 3.846 0 0 0 .849 4.24l1.763-1.79a1.332 1.332 0 0 1-.295-1.47l-2.317-.98Zm8.537-20.27-8.537 20.27 2.317.98 8.537-20.27-2.317-.98Zm1.672-5.96a24.632 24.632 0 0 1-1.672 5.96l2.317.98a27.39 27.39 0 0 0 1.841-6.57l-2.486-.37Zm19.573-39.784-19.457 39.404 2.254 1.12 19.456-39.412-2.253-1.112Zm3.537-3.022a5.896 5.896 0 0 0-3.537 3.022l2.253 1.112a3.389 3.389 0 0 1 2.03-1.734l-.746-2.4Zm5.435-9.485a8.026 8.026 0 0 1-5.435 9.485l.746 2.4a10.54 10.54 0 0 0 7.137-12.455l-2.448.57Zm-.709-3.047.709 3.047 2.448-.57-.71-3.047-2.447.57Zm.635-16.383c4.314 4.18 4.197 11.135-.255 15.167l1.687 1.863c5.528-5.007 5.674-13.645.316-18.835l-1.748 1.805Zm-7.764-7.521 7.764 7.521 1.748-1.805-7.763-7.521-1.749 1.805Zm5.205-4.054-4.811 1.991.961 2.322 4.811-1.991-.961-2.322Zm5.116-12.803c2.198 4.946-.114 10.733-5.116 12.803l.961 2.322c6.308-2.61 9.224-9.908 6.451-16.146l-2.296 1.021Zm-9.525-5.689a9.626 9.626 0 0 1 9.525 5.689l2.296-1.021a12.137 12.137 0 0 0-12.012-7.174l.191 2.506Zm-18.214 1.385 18.214-1.385-.191-2.506-18.214 1.385.191 2.506Zm-16.735 3.923a55.882 55.882 0 0 1 16.735-3.923l-.191-2.506a58.352 58.352 0 0 0-17.487 4.1l.943 2.329Zm-30.755 14.025a3.935 3.935 0 0 1 2.286-2.496l-.943-2.33a6.45 6.45 0 0 0-3.746 4.091l2.403.735Zm-4.964 16.224 4.964-16.224-2.403-.735-4.964 16.223 2.403.736Zm-7.682 4.591c3.264.502 6.667-1.274 7.682-4.591l-2.403-.736c-.602 1.968-2.698 3.181-4.897 2.843l-.382 2.484Zm-17.248 11.548c1.768-4.314 3.127-7.558 5.476-9.588 2.234-1.93 5.583-2.912 11.772-1.96l.382-2.484c-6.564-1.01-10.784-.062-13.797 2.542-2.898 2.504-4.463 6.398-6.158 10.537l2.325.953Zm-5.458 11.196c2.501-3.971 4.084-7.842 5.458-11.196l-2.325-.953c-1.379 3.366-2.89 7.046-5.26 10.81l2.127 1.339Zm-.486 1.051c.107-.358.273-.714.486-1.051l-2.127-1.339a6.784 6.784 0 0 0-.766 1.667l2.407.723Zm38.124-47.106 15.796-6.396-.944-2.33-15.795 6.396.943 2.33Zm15.796-6.396 12.673-5.133-.943-2.329-12.674 5.132.944 2.33Zm48.502 10.235-3.664-3.034-1.603 1.936 3.664 3.034 1.603-1.936Zm-12.372-6.957-36.408-5.685-.388 2.483 36.408 5.686.388-2.484Zm20.162 31.864-5.467-10.459-2.227 1.164 5.467 10.459 2.227-1.164Zm-18.897-22.673-14.862-6.055-.948 2.328 14.862 6.055.948-2.328Zm13.43 12.214a26.394 26.394 0 0 0-13.43-12.214l-.948 2.328a23.881 23.881 0 0 1 12.151 11.05l2.227-1.164Zm-5.987-17.482a18.023 18.023 0 0 0-8.708-3.923l-.388 2.484a15.491 15.491 0 0 1 7.493 3.375l1.603-1.936Z" fill="#000"/><path d="M731.401 1065.25h-4.61l-36.17 67.52 136.434 51.75c20.639 7.83 43.946 2.94 59.709-12.51l77.787-76.26c19.076-18.7 25.995-46.55 17.889-72.01l-16.923-53.133-27.34 21.872c-12.358 9.891-16.648 26.781-10.506 41.361l6.457 15.33-84.959 83.6a27.611 27.611 0 0 1-17.167-24.18l-.509-10.03a51.76 51.76 0 0 0-26.594-42.65l-2.844-1.57a46.89 46.89 0 0 0-52.02 4.38 29.833 29.833 0 0 1-18.634 6.53Z" fill="url(#paint11_linear_537_4694)"/><path d="M849.169 1132.77v0a27.611 27.611 0 0 1-17.167-24.18l-.509-10.03a51.76 51.76 0 0 0-26.594-42.65l-2.844-1.57a46.89 46.89 0 0 0-52.02 4.38v0a29.833 29.833 0 0 1-18.634 6.53h-4.61l-36.17 67.52 136.434 51.75c20.639 7.83 43.946 2.94 59.709-12.51l77.787-76.26c19.076-18.7 25.995-46.55 17.889-72.01l-16.923-53.133-27.34 21.872c-12.358 9.891-16.648 26.781-10.506 41.361l6.457 15.33m-84.959 83.6 84.959-83.6m-84.959 83.6c3.956 2.27 5.337 4.15 5.718 8.96m79.241-92.56c1.744-1.82 4.341-4.98 3.53-9.2" stroke="#000" stroke-width="2.513" stroke-linecap="round"/><path d="m803.183 1105.1-35.814.75-13.724 16.35v1.88l34.968-1.12 14.57-17.86Z" fill="#F087FF"/><path d="m810.518 1068.24-35.813.76-14.474 17.67v1.88l35.718-2.45 14.569-17.86Z" fill="#19FB9B"/><path d="M804.686 1105.6h-37.223l-8.271-17.05 36.378-1.5 9.116 18.55Z" fill="#1FCFF1"/><path d="m767.184 1105.7-13.011 16.12c-.76.94-.065 2.34 1.145 2.3l31.6-.97c1.2-.04 2.329-.58 3.106-1.5l14.101-16.61m-36.941.66-8.367-17.2m8.367 17.2 36.941-.66m-45.308-16.54 14.392-17.6a4.239 4.239 0 0 1 3.126-1.56l32.067-1.22c1.22-.04 1.922 1.37 1.146 2.32l-13.319 16.18m-37.412 1.88 37.412-1.88m0 0 7.896 18.42" stroke="#020202" stroke-width="2.513" stroke-linecap="round"/><path d="m853.491 993.226-1.669-3.004c-4.262-7.67-1.914-17.328 5.394-22.185l.594-.394 7.103 3.739a7.076 7.076 0 0 1 3.261 8.923l-5.003 12.331a5.375 5.375 0 0 1-9.68.59Z" fill="#FFD512" stroke="#000" stroke-width="2.513"/><path d="m877.945 961.353 3.786 11.362c2.003 6.007-2.469 12.211-8.801 12.211a9.278 9.278 0 0 1-7.798-4.252l-3.168-4.915c-6.322-9.81-3.54-22.884 6.229-29.27l7.013-4.585 2.439 18.154c.059.44.159.874.3 1.295Z" fill="#FFD512" stroke="#000" stroke-width="2.513"/><path d="m898.576 946.399-2.661 10.113a10.456 10.456 0 0 1-20.549-2.059l-.162-2.802a26.858 26.858 0 0 1 15.754-26.023l2.578-1.164a63.686 63.686 0 0 1 43.113-3.371l1.742.479-26.948 10.432a21.229 21.229 0 0 0-12.867 14.395Z" fill="#FFD512" stroke="#000" stroke-width="2.513"/><path d="M933.593 996.188c-1.8 11.202 1.967 34.902 5.301 43.072 1.323 3.47-3.499 7.77-5.301 9.32l-8.002-25.75h-2.25c-2.201-11.61 7.252-24.225 10.252-26.642Z" fill="#000"/><path d="M1331.58 980.549c-36.36-11.757-88.79.325-109.03 17.928l-27.87 4.963c-.94 2.24-1.52 4.88-1.73 7.98-3.99 16.18-10.64 31.37-19.09 40.02l32.89 65.19 19.21-11.04c5.62 11.04 30.1 22.29 54.75 68.18h131.58c-33-31.02-25.27-175.293-80.71-193.221Z" fill="#F087FF"/><path d="M1194.68 1003.44c-3.6 19.02-10.99 37.94-20.82 48l32.89 65.19 19.21-11.04m-31.28-102.15 27.87-4.963c20.24-17.603 72.67-29.685 109.03-17.928 55.44 17.928 47.71 162.201 80.71 193.221h-131.58c-24.65-45.89-49.13-57.14-54.75-68.18m-31.28-102.15c-6.03 14.35 2.53 45.71 31.28 102.15" stroke="#020202" stroke-width="2.513" stroke-linecap="round"/><path d="m620.989 956.761 16.77-51.92c-17.527-19.211 3.689-49.868 15.84-34.041.746.971 1.773 3.358 2.459 6.152 22.48 10.271 78.767 17.291 107.572 2.007 1.191-.632 2.843.599 2.715 1.941-.636 6.68 1.692 15.111 5.885 20.778 3.486 4.712 8.07 13.62 5.28 18.774l-54.315 100.338c-1.365 2.52-3.913 4.25-6.78 4.25-7.005.01-11.568-1.8-17.99-6.95-42.024 3.96-69.303-37.665-77.29-56.714-.617-1.471-.636-3.097-.146-4.615Z" fill="url(#paint12_linear_537_4694)"/><path d="m637.759 904.841-16.77 51.92c-.49 1.518-.471 3.144.146 4.615 7.987 19.049 35.266 60.674 77.29 56.714m-60.666-113.249c-17.527-19.211 3.689-49.868 15.84-34.041 1.381 1.799 3.729 8.458 3.086 13.555m-18.926 20.486 5.333 4.953m55.333 108.296c6.422 5.15 10.985 6.96 17.99 6.95 2.867 0 5.415-1.73 6.78-4.25l54.315-100.338c2.79-5.154-1.794-14.062-5.28-18.774-4.193-5.667-6.521-14.098-5.885-20.778.128-1.342-1.524-2.573-2.715-1.941-28.805 15.284-85.092 8.264-107.572-2.007m42.367 141.138c6.841-3.01 9.68-5.6 13.496-11.33" stroke="#000" stroke-width="2.513" stroke-linecap="round"/><path d="M610.378 941.196c7.278 12.895 15.61 21.32 24.974 30.786l1.425 1.441c9.495 9.614 20.113 20.634 32.016 38.707-17.551-4.2-29.913-11.41-44.42-19.86-4.101-2.39-8.373-4.88-12.983-7.431-5.14-2.843-7.958-8.663-6.865-14.4a5546.77 5546.77 0 0 0 5.457-29.228c.01-.054.027-.071.037-.08a.234.234 0 0 1 .113-.046.287.287 0 0 1 .151.018.207.207 0 0 1 .095.093Z" fill="url(#paint13_linear_537_4694)" stroke="#000" stroke-width="2.513"/><path d="M573.021 986.971c32.85-14.996 64.554 1.366 85.487 17.509 5.374 4.14 9.458 9.67 12.382 15.8l10.59 22.17 22.711 10.74-18.724 55.55-38.98 50.06a98.978 98.978 0 0 1-20.631 19.79l-30.47 21.74H467.258c31.833-71.24 38.794-182.79 105.763-213.359Z" fill="#9945FF"/><path d="m681.48 1042.45 22.711 10.74-18.724 55.55-38.98 50.06a98.978 98.978 0 0 1-20.631 19.79l-30.47 21.74H467.258c31.833-71.24 38.794-182.79 105.763-213.359 32.85-14.996 64.554 1.366 85.487 17.509 5.374 4.14 9.458 9.67 12.382 15.8l10.59 22.17Zm0 0c-9.941 3.15-16.128 3.36-24.43 1.48-1.446-.33-1.385-2.38.047-2.77 6.623-1.78 9.973-4.02 12.82-8.76" stroke="#020202" stroke-width="2.513" stroke-linecap="round"/><path d="M630.689 1130.83c-36.199-17.99-50.338-58.2-52.218-70.21 7.018 16.38 17.482 34.67 34.866 44.94l57.995 19.31-11.651 17.61-28.992-11.65Z" fill="#000"/><path d="M687.51 1044.24c.569-1.93 2.707-2.89 4.422-2.05l35.166 17.28c2.493 1.22 3.753 4 2.959 6.6-7.674 25.06-24.801 58.27-37.835 74.1-1.533 1.87-4.183 2.36-6.463 1.26l-34.664-16.72c-1.541-.75-2.138-2.61-1.322-4.09 2.029-3.68 4.257-7.62 6.591-11.76 11.381-20.16 25.298-44.81 31.146-64.62Z" fill="url(#paint14_linear_537_4694)" stroke="#000" stroke-width="2.513"/><path d="M887.324 1071.76c-.81 1.15-2.324 1.97-3.921 2.16-1.599.19-2.976-.27-3.725-1.26l-5.986-7.86c-.867-1.14-1.238-2.41-.939-3.54.822-3.11 2.904-6.72 5.995-10.5 3.077-3.77 7.096-7.64 11.693-11.25 9.207-7.24 20.615-13.38 31.221-15.74 2.148-.48 4.37.6 5.554 2.62l5.413 9.25c1.049 1.79.016 4.38-2.187 5.16-6.873 2.43-15.419 7.03-23.335 12.56-7.907 5.53-15.297 12.06-19.783 18.4Z" fill="url(#paint15_linear_537_4694)" stroke="#000" stroke-width="2.513"/><path d="M1138.36 1065.76c-1.2-1.55-.72-3.79.95-4.68l28.14-14.87c2.48-1.31 5.51-.66 7.14 1.55 14.46 19.66 30.56 50.23 36.47 68.63.79 2.44-.38 5.08-2.74 6.33l-28.58 15.1c-1.65.88-3.73.04-4.36-1.78-7.7-22.53-22.93-51.93-37.02-70.28Z" fill="url(#paint16_linear_537_4694)" stroke="#000" stroke-width="2.513"/><path d="m649.51 1119.76-22.69-7.37c-26.096-8.49-44.934-31.29-48.338-58.52l-1.121-8.97" stroke="#020202" stroke-width="2.513" stroke-linecap="round"/><path fill-rule="evenodd" clip-rule="evenodd" d="M716.458 922.91a22.72 22.72 0 0 0-20.044-6.993l-.205.031a7.83 7.83 0 0 1-2.345-15.48l.204-.031a38.376 38.376 0 0 1 33.856 11.812l.141.152a7.827 7.827 0 0 1-.403 11.063 7.827 7.827 0 0 1-11.063-.403l-.141-.151ZM767.009 939.821a22.74 22.74 0 0 0-8.186-1.625l-.207-.002a7.828 7.828 0 0 1 .177-15.655l.207.002a38.346 38.346 0 0 1 15.53 3.475l-7.521 13.805Z" fill="#fff" stroke="#000" stroke-width="2.513" stroke-linecap="round"/><circle cx="718.862" cy="914.404" r="7.914" transform="rotate(4.895 718.862 914.404)" fill="#000"/><path d="M773.321 927.198c-.992 2.301-3.45 9.303-5.755 12.105 0 0-3.266.527-4.487 0-2.864-1.234-3.783-5.488-2.054-9.502 1.73-4.013 5.454-6.267 8.318-5.032 2.864 1.234 5.708-1.585 3.978 2.429Z" fill="#000"/><path d="M741.914 967.685c-14.975-4.814-32.234-14.71-45.474-23.796-1.158-.794-2.65.403-2.123 1.704 4.157 10.248 7.857 17.232 11.203 22.18 7.855 11.614 25.191 10.187 36.752 2.256.899-.617.679-2.011-.358-2.344Z" fill="#fff"/><path fill-rule="evenodd" clip-rule="evenodd" d="M688.293 946.623c-2.649-6.636 4.968-12.204 10.518-8.353 13.309 9.237 30.753 19.267 45.4 23.879 5.478 1.725 6.8 9.125 1.876 12.503l-4.199 2.881c-5.58 3.829-12.541 6.15-19.351 6.159-6.871.009-14.025-2.377-18.968-8.505-4.669-5.787-9.648-14.468-15.276-28.564Zm5.375-2.23c2.468 4.672 17.227 20.853 19.196 23.294 2.154 2.67 5.487 4.067 9.657 4.061 2.752-.003 5.674-.635 8.41-1.782-8.305-3.47-29.374-20.845-37.263-25.573Z" fill="#F087FF" stroke="#000" stroke-width="2.513"/><path d="m647.344 881.5-11.904 6.873M641.391 878.064v13.746" stroke="#020202" stroke-width="2.513" stroke-linecap="round"/><path d="M730.854 821.322c15.713 6.642 49.735 18.99 36.8 35.832" stroke="#fff" stroke-width="2.513" stroke-linecap="round"/><path d="M733.465 965.275c-6.197-4.639-10.193-10.855-17.105-17.007l24.274 6.596-2.205 8.476c-.581 2.234-3.116 3.318-4.964 1.935Z" fill="url(#paint17_linear_537_4694)"/><path d="M788.148 854.678c8.57 5.544 17.896 29.485-4.283 58.466" stroke="#fff" stroke-width="2.513" stroke-linecap="round"/><path d="m716.639 949.544 13.673 13.376c3.169 3.1 8.512 1.518 9.515-2.8 4.082-17.578 7.69-31.181 13.935-51.872" stroke="#020202" stroke-width="2.513" stroke-linecap="round"/><path d="M655.307 876.869c1.336 9.96-2.179 20.184-5.591 27-1.584 3.165-.692 7.176 2.351 8.984 3 1.781 6.879.707 8.536-2.363l18.15-33.621h-23.446Z" fill="#000"/><path d="M1123.8 977.646c-12.76-13.598-36.93-72.011-44.63-95.663 17.76-15.494 62.8-45.256 100.91-40.353 34.05 4.381 74.24 96.564 93.57 141.219 3.86 8.907 4.62 18.811 2.09 28.181-4.14 15.26-10.74 39.4-15.69 56.24-15.2-.99-46.74-30.83-56.78-56.18-4.1 12.36-21.92 30.42-33.6 23.9-11.69-6.51-4.48-23.04-19.76-26.24-1.23-6.39 12.51-15.103 10.27-27.053-2.24-11.949-33.36-.832-36.38-4.051Z" fill="url(#paint18_linear_537_4694)" stroke="#000" stroke-width="2.513"/><path d="M1143.83 1000.95c-3.66-4.425-7.54-9.578-13.15-17.119 4.37-.942 8.51-2.477 12.42-4.407 4.81-2.377 9.28-5.352 13.4-8.552 16.22-12.583 25.71-20.022 31.42-16.803 11.51 6.498 3.53 21.73-2.06 31.596-4.16 7.321-9.81 14.256-16.43 20.235a86.204 86.204 0 0 1-12.33 9.27c-5.48-5.34-9.23-9.34-13.27-14.22Z" fill="#fff"/><path d="M1143.83 1000.95c-3.66-4.425-7.54-9.578-13.15-17.119 4.37-.942 8.51-2.477 12.42-4.407m.73 21.526c4.04 4.88 7.79 8.88 13.27 14.22 4.37-2.7 8.51-5.83 12.33-9.27m-25.6-4.95c3.52-1.689 7.93-4.209 12.61-7.458m31.48-39.423c-4.65 14.442-9.55 19.523-15.68 25.979m15.68-25.979c-5.71-3.219-15.2 4.22-31.42 16.803m31.42-16.803c11.51 6.498 3.53 21.73-2.06 31.596m-29.42 7.827 12.99 12.408m-12.99-12.408-13.34-14.068m13.34 14.068c5.21-3.621 10.77-8.149 15.8-13.444m-2.81 25.852c6.62-5.979 12.27-12.914 16.43-20.235m-42.76-6.241c4.81-2.377 9.28-5.352 13.4-8.552m15.74 9.176 13.62 5.617m-13.62-5.617-15.74-9.176" stroke="#000" stroke-width="2.513"/><path fill-rule="evenodd" clip-rule="evenodd" d="M1183.52 943.002c3.1-.704 6.5-.628 9.67 1.16 4.36 2.459 7.18 5.983 8.5 10.195 1.27 4.026 1.01 8.203.21 11.946-1.58 7.361-5.73 14.913-8.72 20.176-4.83 8.532-11.37 16.541-18.99 23.411a98.86 98.86 0 0 1-14.22 10.7 5.916 5.916 0 0 1-8.13-1.92c-1.71-2.77-.85-6.41 1.92-8.13 4.42-2.73 8.63-5.9 12.52-9.41 6.75-6.091 12.46-13.124 16.63-20.473 3.09-5.436 6.3-11.494 7.44-16.83.56-2.604.51-4.547.08-5.935-.38-1.203-1.16-2.386-3.05-3.451v-.001c-.02-.009-.05-.03-.18-.042-.15-.015-.49-.016-1.07.115-1.23.28-3.03 1.034-5.59 2.551-5.12 3.034-11.69 8.134-20.55 15.006l-.15.118c-4.7 3.643-9.88 7.106-15.55 9.904-4.61 2.274-9.55 4.119-14.83 5.256a5.908 5.908 0 0 1-7.02-4.526 5.9 5.9 0 0 1 4.53-7.013c4.19-.903 8.22-2.389 12.09-4.301 4.78-2.358 9.29-5.348 13.54-8.646.26-.201.52-.402.77-.602 8.32-6.453 15.38-11.934 21.15-15.35 2.98-1.769 6.01-3.231 9-3.908Z" fill="#31BBF4" stroke="#000" stroke-width="2.513" stroke-linecap="round"/><path d="M1067.44 921.458c-17.38-29.161 5.62-48.971 19.95-49.789-9.4-22.778 8.73-39.251 22.11-38.378 4.02-17.169 22.33-15.824 30.98-13.006 19.31-16.677 37.49-4.969 43.44 7.344 11.07-8.294 33.15-4.149 33.94 15.895.71 17.84 35.54 4.073 22.79 38.147 5.46-2.023 17.98-1.757 24.4 15.493 6.42 17.249-8.46 25.745-16.7 27.837-1.85-6.883-10.85-19.492-32.06-14.866-21.21 4.627-30.73-7.515-32.84-14.164-2.81 7.33-16.24 17.147-37.72 5.051-27.16-15.305-36.5 19.115-42.31 25.356-5.8 6.24-27.57 9.183-35.98-4.92Z" fill="#000" stroke="#fff" stroke-width="2.513" stroke-linecap="round"/><path d="M1096.97 1081.28c-2.86 1.14-3.7 1.48-10.86 4.7-7.16 3.22-7.98 3.62-10.72 5.01-2.44 1.23-3.56 2.22-4.25 2.92l25.83-12.63Zm0 0c2.54-1.01 4.02-1.18 5-1.24h.02c1.17-.09 2.34.09 3.43.51h.01c1.19.44 2.02.97 2.94 1.87.69.67 1.67 1.76 2.89 4.16 1.37 2.71 1.76 3.51 4.94 10.57 3.17 7.06 3.51 7.88 4.63 10.7.99 2.51 1.15 3.97 1.2 4.93v.02c.07 1.15-.11 2.31-.55 3.39v.01l-.01.01c-.45 1.18-1 2.01-1.91 2.93-.69.7-1.81 1.69-4.25 2.92-2.75 1.39-3.56 1.79-10.72 5.01-7.16 3.22-8 3.56-10.86 4.7-2.54 1.01-4.02 1.19-5 1.24h-.02c-1.17.09-2.34-.08-3.43-.51h-.01l-.02-.01a7.681 7.681 0 0 1-2.9-1.84l-.01-.01h-.01c-.69-.68-1.67-1.77-2.89-4.17-1.37-2.7-1.76-3.51-4.94-10.57-3.17-7.05-3.51-7.88-4.63-10.7-.99-2.51-1.15-3.97-1.2-4.93v-.02c-.07-1.15.11-2.31.55-3.39v-.01m27.75-15.57-27.75 15.57m0 0 .01-.01m-.01.01.01-.01m0 0c.45-1.18 1-2.01 1.91-2.93l-1.91 2.93Zm-8.35 3.86c.1 2.13.55 4.39 1.73 7.38 1.15 2.9 1.53 3.84 4.77 11.03 3.23 7.19 3.68 8.1 5.09 10.89 1.45 2.86 2.85 4.69 4.37 6.18a15.54 15.54 0 0 0 5.65 3.58c2.11.8 4.38 1.14 6.64.99 2.15-.12 4.44-.59 7.45-1.79 2.95-1.17 3.89-1.55 11.19-4.83 7.29-3.29 8.21-3.73 11.04-5.16 2.89-1.47 4.76-2.87 6.28-4.4a15.67 15.67 0 0 0 3.66-5.62c.83-2.1 1.2-4.35 1.07-6.6-.11-2.13-.55-4.39-1.73-7.38-1.15-2.9-1.53-3.84-4.77-11.03-3.23-7.19-3.68-8.09-5.09-10.89-1.45-2.86-2.85-4.69-4.38-6.18a15.419 15.419 0 0 0-5.64-3.58c-2.11-.8-4.38-1.14-6.64-.99-2.15.13-4.43.59-7.46 1.79-2.94 1.17-3.88 1.56-11.18 4.84-7.27 3.27-8.2 3.72-11.01 5.14l-.03.02c-2.9 1.46-4.76 2.86-6.28 4.39a15.758 15.758 0 0 0-3.66 5.62c-.83 2.1-1.2 4.35-1.07 6.6Zm34.67 14.27a8.54 8.54 0 0 1-3.67-.69 8.294 8.294 0 0 1-4.75-5.41c-.34-1.19-.4-2.45-.19-3.68.22-1.23.71-2.41 1.43-3.44a8.723 8.723 0 0 1 6.36-3.64 8.6 8.6 0 0 1 3.7.51h.01c1.84.68 3.38 1.97 4.35 3.66.97 1.68 1.32 3.66.98 5.59-.33 1.93-1.34 3.69-2.84 4.99-1.5 1.3-3.4 2.04-5.38 2.11Zm3.6-30.49 1.19.42-1.19-.42c-.42 1.18-.36 2.48.17 3.61a4.757 4.757 0 0 0 2.66 2.44c1.17.44 2.47.4 3.62-.1a4.89 4.89 0 0 0 2.55-2.57c.25-.59.38-1.23.37-1.87 0-.64-.13-1.28-.38-1.87-.26-.59-.63-1.12-1.1-1.56-.46-.44-1.02-.78-1.62-1.01-.6-.22-1.24-.32-1.89-.29-.64.02-1.27.18-1.86.45-.58.27-1.1.66-1.54 1.13-.43.48-.76 1.04-.98 1.64Zm-15.64 10.99a16.409 16.409 0 0 0-3.41 5.37c-1.56 4.03-1.45 8.49.32 12.4 1.76 3.92 5.02 6.96 9.07 8.46 4.04 1.51 8.54 1.35 12.49-.43 3.96-1.78 7.06-5.04 8.62-9.06.77-1.99 1.14-4.12 1.09-6.24-.06-2.13-.53-4.22-1.41-6.16-.87-1.94-2.12-3.69-3.68-5.14a16.05 16.05 0 0 0-5.39-3.32c-2-.75-4.14-1.09-6.28-1.02-2.14.08-4.25.57-6.21 1.45a16.64 16.64 0 0 0-5.21 3.69Z" fill="url(#paint19_radial_537_4694)" stroke="#000" stroke-width="2.513"/><mask id="path-65-inside-1_537_4694" fill="#fff"><path fill-rule="evenodd" clip-rule="evenodd" d="M986.444 1142.55a7.266 7.266 0 0 1-5.139-8.9 7.265 7.265 0 0 1 8.9-5.14 7.266 7.266 0 0 1 8.902-5.14 7.278 7.278 0 0 1 5.143 8.9l-3.77 14.04-14.037-3.76h.001Z"/></mask><path fill-rule="evenodd" clip-rule="evenodd" d="M986.444 1142.55a7.266 7.266 0 0 1-5.139-8.9 7.265 7.265 0 0 1 8.9-5.14 7.266 7.266 0 0 1 8.902-5.14 7.278 7.278 0 0 1 5.143 8.9l-3.77 14.04-14.037-3.76h.001Z" fill="#F087FF"/><path d="m986.444 1142.55 2.427.65.651-2.43-2.428-.65-.65 2.43Zm3.761-14.04-.65 2.43 2.428.65.65-2.43-2.428-.65Zm14.045 3.76-2.43-.65-.65 2.43 2.43.65.65-2.43Zm0 0 2.42.65.65-2.42-2.42-.66-.65 2.43Zm-3.77 14.04-.647 2.43 2.427.65.65-2.43-2.43-.65Zm-14.037-3.76-2.427-.65-.651 2.43 2.428.65.65-2.43Zm.651-2.43a4.75 4.75 0 0 1-3.361-5.82l-4.856-1.3a9.782 9.782 0 0 0 6.916 11.98l1.301-4.86Zm-3.361-5.82a4.749 4.749 0 0 1 5.822-3.36l1.301-4.86c-5.218-1.4-10.581 1.7-11.979 6.92l4.856 1.3Zm16.024-13.36c-5.218-1.39-10.581 1.7-11.979 6.92l4.855 1.3a4.75 4.75 0 0 1 5.823-3.36l1.301-4.86Zm6.913 11.98a9.774 9.774 0 0 0-6.913-11.98l-1.301 4.86a4.757 4.757 0 0 1 3.364 5.82l4.85 1.3Zm0 0-4.85-1.3 4.85 1.3Zm-1.77-3.08-1.3 4.86 1.3-4.86Zm-1.99 17.12 3.76-14.04-4.85-1.3-3.764 14.04 4.854 1.3Zm-17.117-1.98 14.04 3.76 1.297-4.85-14.036-3.77-1.301 4.86Zm-1.777-3.08 4.855 1.3-4.855-1.3Z" fill="#000" mask="url(#path-65-inside-1_537_4694)"/><path d="M726.022 1110.14c-1.741 10.72-17.433 18.06-8.594 32.76l12.208 4.59c-10.291-14.86 4.521-22.69-1.965-37.73-.306-.71-1.525-.39-1.649.38Z" fill="#9945FF" stroke="#000" stroke-width="2.513"/><path d="M736.044 1149.68c-7.191-5.81-5.94-16.09-4.415-20.5 6.622 8.83 13.143 5.55 16.556 14.82 1.766 4.79 4.521 10.3 5.677 12.46l-17.818-6.78Z" fill="#9945FF" stroke="#000" stroke-width="2.513"/><path fill-rule="evenodd" clip-rule="evenodd" d="m924.968 1065.06-1.824 1.83a3.693 3.693 0 0 0 3.57 2.78h1.031v-1.04a3.69 3.69 0 0 0-2.777-3.57Zm7.687 4.61v-1.04c0-4.74-3.847-8.59-8.592-8.59h-1.017l-4.924 4.93v1.01c0 4.75 3.847 8.59 8.592 8.59h1.031v1.04c0 4.74 3.847 8.59 8.593 8.59h1.031v1.03c0 4.74 3.847 8.59 8.592 8.59h1.031v1.03c0 4.75 3.847 8.59 8.592 8.59h1.017l4.924-4.92v-1.02c0-4.74-3.847-8.59-8.592-8.59h-1.031v-1.03c0-4.74-3.847-8.59-8.592-8.59h-1.032v-1.03c0-4.75-3.846-8.59-8.592-8.59h-1.031Zm0 4.9v1.04c0 2.03 1.649 3.68 3.683 3.68h1.031v-1.03c0-2.04-1.649-3.69-3.683-3.69h-1.031Zm9.623 9.63v1.03c0 2.03 1.649 3.68 3.683 3.68h1.031v-1.03c0-2.03-1.649-3.68-3.682-3.68h-1.032Zm9.624 9.62v1.03c0 1.72 1.181 3.17 2.777 3.57l1.824-1.82a3.682 3.682 0 0 0-3.57-2.78h-1.031Z" fill="#9A46FF" stroke="#000" stroke-width="2.513"/><path fill-rule="evenodd" clip-rule="evenodd" d="M1128.09 953.49a20.697 20.697 0 0 1 17.44-8.37l.19.008c3.94.152 7.26-2.916 7.41-6.854.15-3.938-2.92-7.255-6.85-7.408l-.19-.007a34.973 34.973 0 0 0-29.47 14.137l-.12.152c-2.34 3.167-1.68 7.636 1.49 9.981 3.17 2.346 7.64 1.68 9.98-1.487l.12-.152Z" fill="#fff" stroke="#000" stroke-width="2.513" stroke-linecap="round"/><circle r="7.214" transform="scale(-1 1) rotate(11.288 -5348.79 -5218.93)" fill="#000"/><path d="M1240.72 903.847c-12.92-10.009-22.47-1.467-27 8.65l21.46 27.032c6.31-4.661 21.66-23.185 5.54-35.682Z" fill="#58A2CC"/><path d="M1213.72 912.497c4.53-10.117 14.08-18.659 27-8.65 16.12 12.497.77 31.021-5.54 35.682" stroke="#000" stroke-width="2.513"/><path d="m1237.77 911.871-9.5 14.233M1229.23 911.314l7.57 15.348" stroke="#020202" stroke-width="2.513" stroke-linecap="round"/><path d="m1032.84 1146.31-15.09-15.91c4.68.81 10-.14 14.51-1.4-1.7 2.08.75 9.51 3.2 15.56.61 1.51-1.5 2.92-2.62 1.75ZM1211.82 978.768l4.32 53.882c-6.65-8.01-10.12-12.82-12.96-25.34 1.16-6.9 3.61-18.691 5.54-28.695.32-1.648 2.97-1.52 3.1.153ZM1173.61 1133.36c-9.48-28.07-17.16-42.52-35.96-68.87-3.98.7-9.37-1.08-10.89-1.62-.18-.13-.32-.18-.41-.15 0 0 .15.05.41.15 4.87 3.33 41.43 58.26 46.85 70.49.22.66.45 1.32.67 1.99-.03-.39-.26-1.07-.67-1.99ZM730.675 1063.03c2.2 26.83-9.49 52.93-24.748 76.03l-9.834-3.43c10.587-10.72 32.859-59.13 34.582-72.6Z" fill="#000"/><path d="M1087.65 879.151c-10.53.601-27.43 15.152-14.65 36.573M1135.73 844.193c-6.42 8.363-6.44 30.662 18.12 34.985M1154.16 879.266c-3.39 4.415-3.4 16.187 9.56 18.469" stroke="#fff" stroke-width="2.513" stroke-linecap="round"/><path d="m885.997 965.653-2.487 10.724-5.395-15.004 7.882 4.28Z" fill="#000"/><path d="m1013.66 854.496-.5-.148v.001-.001l.5.148Zm0 0 .28.439-.28-.439Zm-.9 1.204-.63 2.121a20.347 20.347 0 0 0 2.42 16.842l1.2 1.858-2.12-.629a20.362 20.362 0 0 0-16.841 2.421l-1.859 1.201.629-2.121a20.363 20.363 0 0 0-2.421-16.842l-1.201-1.858 2.122.629a20.363 20.363 0 0 0 16.841-2.421l1.86-1.201Zm-18.23 25.166v-.001.001Zm21.99-3.16v-.002.002Zm.58-.784Z" fill="#31BBF4" stroke="#000" stroke-width="2.513"/><path d="M870.009 763.594c.049-.031.076-.032.091-.031a.178.178 0 0 1 .09.037.165.165 0 0 1 .061.077c.005.013.013.04-.003.095l-3.737 12.604a20.363 20.363 0 0 0 2.421 16.841l7.135 11.041c.032.048.032.076.031.09a.178.178 0 0 1-.037.091.172.172 0 0 1-.077.061c-.013.005-.04.013-.095-.004l-12.604-3.736a20.36 20.36 0 0 0-16.841 2.421l-11.041 7.135c-.048.031-.076.031-.09.031a.187.187 0 0 1-.091-.037.172.172 0 0 1-.061-.077c-.005-.014-.013-.04.004-.095l3.736-12.604a20.363 20.363 0 0 0-2.421-16.842l-7.135-11.04c-.031-.049-.031-.076-.031-.091a.188.188 0 0 1 .037-.09.165.165 0 0 1 .077-.061c.014-.005.04-.013.095.004l12.604 3.736a20.366 20.366 0 0 0 16.842-2.421l11.04-7.135ZM673.483 467.109c.048-.031.076-.031.09-.03a.175.175 0 0 1 .091.036.185.185 0 0 1 .061.077c.005.014.012.04-.004.096l-.532 1.794a20.363 20.363 0 0 0 2.421 16.841l1.016 1.572c.031.048.031.076.03.09a.17.17 0 0 1-.037.091.178.178 0 0 1-.076.061c-.014.005-.04.013-.096-.004l-1.794-.532a20.363 20.363 0 0 0-16.841 2.421l-1.572 1.016c-.048.031-.076.031-.09.03a.175.175 0 0 1-.091-.036.185.185 0 0 1-.061-.077c-.005-.014-.013-.04.004-.096l.532-1.794a20.363 20.363 0 0 0-2.421-16.841l-1.016-1.572c-.031-.048-.031-.076-.03-.09a.175.175 0 0 1 .036-.091.185.185 0 0 1 .077-.061c.014-.005.04-.012.096.004l1.794.532a20.363 20.363 0 0 0 16.841-2.421l1.572-1.016Z" fill="#F087FF" stroke="#000" stroke-width="2.513"/><path d="M1005.77 505.582c.05-.031.08-.031.1-.031.02.002.05.012.09.037.03.026.05.056.06.077 0 .014.01.04-.01.095l-3.73 12.604a20.348 20.348 0 0 0 2.42 16.842l7.13 11.04c.03.049.03.076.03.091a.2.2 0 0 1-.03.091.21.21 0 0 1-.08.06c-.01.005-.04.013-.1-.003l-12.599-3.737a20.366 20.366 0 0 0-16.842 2.421l-11.04 7.135c-.049.032-.076.032-.091.031a.18.18 0 0 1-.091-.037.18.18 0 0 1-.061-.077c-.004-.013-.012-.04.004-.095l3.737-12.604a20.363 20.363 0 0 0-2.421-16.841l-7.135-11.041c-.032-.048-.032-.076-.031-.09a.17.17 0 0 1 .037-.091.172.172 0 0 1 .077-.061c.013-.005.04-.013.095.004l12.604 3.736a20.36 20.36 0 0 0 16.841-2.421l11.036-7.135ZM810.17 995.277l-.001.001.001-.001.5.148-.5-.148Zm-.376 1.318a20.355 20.355 0 0 0 2.219 15.435 20.351 20.351 0 0 0-15.437 2.22c1.338-5.23.54-10.79-2.219-15.436a20.372 20.372 0 0 0 15.437-2.219Z" fill="#F2EAD4" stroke="#000" stroke-width="2.513"/><path d="M1099.02 977.897c-.79-11.643.57-16.404 3.47-37.606 6.65 14.121 10.95 22.216 19.49 35.194l-12.42 7.65c-4.41 2.715-10.2-.073-10.54-5.238Z" fill="#9945FF" stroke="#000" stroke-width="2.513"/><path opacity=".56" d="M1068.58 1068.35a38.24 38.24 0 0 0-7.69 6.81c-7.59 8.77-10.49 19.99-8.93 30.63m3.98 12.25c-.03-.06-.07-.13-.1-.19M803.813 1068.53a38.25 38.25 0 0 1 7.697 6.8c8.185 9.46 10.917 21.79 8.473 33.15" stroke="#fff" stroke-width="8.377" stroke-linecap="round"/><path opacity=".56" d="M719.208 992.815a18.085 18.085 0 0 1-4.674 1.272c-5.846.777-11.411-1.335-15.254-5.236" stroke="#fff" stroke-width="13.404" stroke-linecap="round"/><path opacity=".56" d="M1180.88 1026.98c-.9.32-1.86.52-2.87.59-3.56.24-6.83-1.26-9-3.76" stroke="#fff" stroke-width="9.215" stroke-linecap="round"/><path d="M1332.35 1086.21c-1.54 1.34-3.9.97-4.87-.71l-15.91-27.55c-1.36-2.36-.9-5.31 1.13-7 15.17-12.69 38.87-26.33 53.89-31.32 2.3-.76 4.82.3 6.1 2.52l16.2 28.06c.96 1.66.14 3.84-1.74 4.51-18.1 6.45-40.66 19.19-54.8 31.49Z" fill="url(#paint20_linear_537_4694)" stroke="#000" stroke-width="2.513"/><path d="m1365.2 1019.73-6.83-14.52M1311.41 1050.35l-8.37-13.7" stroke="#000" stroke-width="2.513" stroke-linecap="round"/><path d="M890.176 619.385v-9.181h5.06c3.203 0 5.153 1.764 5.153 4.613 0 2.759-1.95 4.568-5.153 4.568h-5.06Zm5.849 5.381c6.5 0 10.817-4.16 10.817-9.994 0-5.789-4.317-9.995-10.817-9.995h-12.302v32.064h6.406v-12.075h5.896ZM917.27 623.772c.139-2.442 1.671-4.341 4.271-4.341 2.971 0 4.225 1.944 4.225 4.432v12.979h6.175v-14.02c0-4.884-2.693-8.818-8.496-8.818-2.182 0-4.689.723-6.175 2.442V604.1h-6.174v32.742h6.174v-13.07ZM936.818 630.781c0 3.482 2.972 6.693 7.846 6.693 3.389 0 5.571-1.538 6.732-3.301 0 .859.093 2.08.232 2.668h5.664c-.139-.769-.279-2.352-.279-3.528v-10.944c0-4.477-2.692-8.457-9.935-8.457-6.128 0-9.424 3.844-9.795 7.326l5.478 1.131c.186-1.945 1.671-3.618 4.364-3.618 2.6 0 3.853 1.312 3.853 2.894 0 .769-.418 1.402-1.718 1.583l-5.617.814c-3.807.543-6.825 2.759-6.825 6.739Zm9.146 2.216c-1.996 0-2.971-1.267-2.971-2.578 0-1.719 1.253-2.578 2.832-2.804l5.153-.769v.995c0 3.935-2.414 5.156-5.014 5.156ZM969.411 624.042c0-2.578 1.578-4.613 4.271-4.613 2.971 0 4.225 1.945 4.225 4.432v12.979h6.174v-14.019c0-4.885-2.6-8.819-8.263-8.819-2.461 0-5.2 1.04-6.593 3.347v-2.759h-5.989v22.25h6.175v-12.798ZM997.96 607.943h-5.573v3.121c0 1.99-1.113 3.527-3.526 3.527h-1.162v5.337h4.133v10.356c0 4.296 2.784 6.874 7.241 6.874 1.807 0 2.927-.316 3.487-.542v-4.975c-.33.09-1.17.181-1.91.181-1.763 0-2.69-.633-2.69-2.578v-9.316h4.6v-5.337h-4.6v-6.648ZM1017.83 632.047c-3.01 0-5.8-2.171-5.8-6.331 0-4.206 2.79-6.332 5.8-6.332 3.02 0 5.81 2.126 5.81 6.332 0 4.206-2.79 6.331-5.81 6.331Zm0-18.135c-6.82 0-11.97 4.93-11.97 11.804 0 6.829 5.15 11.803 11.97 11.803 6.83 0 11.98-4.974 11.98-11.803 0-6.874-5.15-11.804-11.98-11.804ZM1040.86 636.84v-13.024c0-2.442 1.58-4.387 4.27-4.387 2.79 0 4.04 1.809 4.04 4.206v13.205h6.13v-13.024c0-2.397 1.58-4.387 4.22-4.387 2.84 0 4.04 1.809 4.04 4.206v13.205h5.99v-14.426c0-5.97-4.04-8.457-8.26-8.457-3.02 0-5.43.995-7.24 3.709-1.17-2.397-3.67-3.709-6.78-3.709-2.51 0-5.43 1.176-6.69 3.347v-2.714h-5.89v22.25h6.17Z" fill="#fff"/><path d="M830.177 650.864c17.336 0 31.39-13.69 31.39-30.577 0-16.888-14.054-30.578-31.39-30.578s-31.39 13.69-31.39 30.578c0 16.887 14.054 30.577 31.39 30.577Z" fill="url(#paint21_linear_537_4694)"/><path d="M852.646 620.66h-5.534c0-10.986-9.174-19.89-20.491-19.89-11.177 0-20.264 8.686-20.487 19.484-.23 11.16 10.558 20.852 22.057 20.852h1.447c10.138 0 23.726-7.703 25.849-17.09.392-1.73-1.016-3.356-2.841-3.356Zm-34.248.489c0 1.469-1.238 2.671-2.751 2.671-1.514 0-2.752-1.202-2.752-2.671v-4.32c0-1.469 1.238-2.671 2.752-2.671 1.513 0 2.751 1.202 2.751 2.671v4.32Zm9.553 0c0 1.469-1.238 2.671-2.751 2.671s-2.751-1.202-2.751-2.671v-4.32c0-1.469 1.238-2.671 2.751-2.671s2.751 1.202 2.751 2.671v4.32Z" fill="url(#paint22_linear_537_4694)"/></g><path d="M738.277 817.357c-3.62-6.28-1.14-14.32 5.39-17.47l34.87-16.8-3.88-1.2a13.492 13.492 0 0 1-8.38-7.41 6.766 6.766 0 0 1 3.44-8.95l34.2-15.16c4.65-2.06 9.87-2.43 14.76-1.04l12.31 3.48 27.23 7.3 46.5-53.88-23.3-41.16c17.4-14.18 38.29-24.37 50.49-28.91l32.61 65.44a25.125 25.125 0 0 1-4.39 28.63l-95.97 99.78-32.31 18.16c-11.12 6.24-25.14 3.18-32.64-7.12l-17.5-24.06-25.51 7.53a15.598 15.598 0 0 1-17.92-7.16Z" fill="url(#paint23_linear_537_4694)"/><path d="m904.717 706.227-23.3-41.16c17.4-14.18 38.29-24.37 50.49-28.91l32.61 65.44a25.125 25.125 0 0 1-4.39 28.63l-95.97 99.78-32.31 18.16c-11.12 6.24-25.14 3.18-32.64-7.12l-17.5-24.06m123.01-110.76-46.5 53.88m46.5-53.88c2.52-3.1 8.89-5.55 14.99-2.89m-141.17 79.75-34.87 16.8c-6.53 3.15-9.01 11.19-5.39 17.47 3.61 6.24 11.01 9.2 17.92 7.16l25.51-7.53m-3.17-33.9 35.58-20.54m-35.58 20.54-3.88-1.2a13.492 13.492 0 0 1-8.38-7.41 6.766 6.766 0 0 1 3.44-8.95l34.2-15.16c4.65-2.06 9.87-2.43 14.76-1.04l12.31 3.48 27.23 7.3m-76.51 56.88 9.53-3.59m66.98-53.29 6.56 5.72" stroke="#000" stroke-width="2.513" stroke-linecap="round"/><defs><linearGradient id="paint1_linear_537_4694" x1="793.22" y1="482.129" x2="747.632" y2="916.252" gradientUnits="userSpaceOnUse"><stop stop-color="#C667FF"/><stop offset="1" stop-color="#1FFDC6"/></linearGradient><linearGradient id="paint4_linear_537_4694" x1="717.677" y1="1184.06" x2="712.994" y2="1133.19" gradientUnits="userSpaceOnUse"><stop stop-color="#FFD512"/><stop offset="1" stop-color="#F087FF"/></linearGradient><linearGradient id="paint10_linear_537_4694" x1="1011.3" y1="1130.6" x2="1086.16" y2="1256.45" gradientUnits="userSpaceOnUse"><stop stop-color="#9945FF"/><stop offset="1" stop-color="#19FB9B"/></linearGradient><linearGradient id="paint11_linear_537_4694" x1="826.295" y1="1051.59" x2="757.974" y2="1300.32" gradientUnits="userSpaceOnUse"><stop stop-color="#FFD512"/><stop offset="1" stop-color="#F087FF"/></linearGradient><linearGradient id="paint12_linear_537_4694" x1="746.233" y1="945.727" x2="588.045" y2="844.94" gradientUnits="userSpaceOnUse"><stop stop-color="#FFD512"/><stop offset="1" stop-color="#F087FF"/></linearGradient><linearGradient id="paint13_linear_537_4694" x1="627.727" y1="947.731" x2="604.368" y2="1087.68" gradientUnits="userSpaceOnUse"><stop stop-color="#F087FF"/><stop offset="1" stop-color="#19FB9B"/></linearGradient><linearGradient id="paint14_linear_537_4694" x1="700.381" y1="1059.29" x2="585.289" y2="1187.25" gradientUnits="userSpaceOnUse"><stop stop-color="#F087FF"/><stop offset="1" stop-color="#19FB9B"/></linearGradient><linearGradient id="paint15_linear_537_4694" x1="875.115" y1="1068.74" x2="911.711" y2="1037.45" gradientUnits="userSpaceOnUse"><stop stop-color="#19FB9B"/><stop offset="1" stop-color="#1FCFF1"/></linearGradient><linearGradient id="paint16_linear_537_4694" x1="1154.69" y1="1051.54" x2="1196.39" y2="1130.44" gradientUnits="userSpaceOnUse"><stop stop-color="#1FCFF1"/><stop offset="1" stop-color="#9945FF"/></linearGradient><linearGradient id="paint17_linear_537_4694" x1="728.497" y1="949.365" x2="728.497" y2="967.744" gradientUnits="userSpaceOnUse"><stop stop-color="#FECF26"/><stop offset="1" stop-color="#FFD418"/></linearGradient><linearGradient id="paint18_linear_537_4694" x1="1168.62" y1="1005.46" x2="1316.94" y2="921.519" gradientUnits="userSpaceOnUse"><stop stop-color="#9945FF"/><stop offset="1" stop-color="#19FB9B"/></linearGradient><linearGradient id="paint20_linear_537_4694" x1="1317.48" y1="1070.7" x2="1381" y2="1034.03" gradientUnits="userSpaceOnUse"><stop stop-color="#1FCFF1"/><stop offset="1" stop-color="#9945FF"/></linearGradient><linearGradient id="paint21_linear_537_4694" x1="830.177" y1="589.709" x2="830.177" y2="650.864" gradientUnits="userSpaceOnUse"><stop stop-color="#534BB1"/><stop offset="1" stop-color="#551BF9"/></linearGradient><linearGradient id="paint22_linear_537_4694" x1="830.842" y1="600.77" x2="830.842" y2="641.106" gradientUnits="userSpaceOnUse"><stop stop-color="#fff"/><stop offset="1" stop-color="#fff" stop-opacity=".82"/></linearGradient><linearGradient id="paint23_linear_537_4694" x1="1316.65" y1="1186.31" x2="1389.21" y2="1238.92" gradientUnits="userSpaceOnUse" gradientTransform="translate(-454.093 -418.943)"><stop stop-color="#9945FF"/><stop offset="1" stop-color="#19FB9B"/></linearGradient><radialGradient id="paint0_radial_537_4694" cx="0" cy="0" r="1" gradientUnits="userSpaceOnUse" gradientTransform="rotate(-165.692 604.477 314.741) scale(629.248 1195.11)"><stop stop-color="#FFD512"/><stop offset="1" stop-color="#F087FF"/></radialGradient><radialGradient id="paint2_radial_537_4694" cx="0" cy="0" r="1" gradientUnits="userSpaceOnUse" gradientTransform="matrix(113.8667 185.72407 -220.91898 135.44457 1146.9 768.474)"><stop stop-color="#1FCFF1"/><stop offset="1" stop-color="#19FB9B"/></radialGradient><radialGradient id="paint3_radial_537_4694" cx="0" cy="0" r="1" gradientUnits="userSpaceOnUse" gradientTransform="matrix(166.63048 -1360.43326 872.20586 106.83073 874.416 1871.7)"><stop stop-color="#FFD512"/><stop offset="1" stop-color="#F087FF"/></radialGradient><radialGradient id="paint5_radial_537_4694" cx="0" cy="0" r="1" gradientUnits="userSpaceOnUse" gradientTransform="rotate(-133.074 659.72 226.01) scale(207.995 295.724)"><stop offset=".433" stop-color="#19FB9B"/><stop offset="1" stop-color="#F087FF"/></radialGradient><radialGradient id="paint6_radial_537_4694" cx="0" cy="0" r="1" gradientUnits="userSpaceOnUse" gradientTransform="matrix(-99.74012 15.78836 -29.9865 -189.43433 617.265 912.574)"><stop stop-color="#FFD512"/><stop offset="1" stop-color="#F087FF"/></radialGradient><radialGradient id="paint7_radial_537_4694" cx="0" cy="0" r="1" gradientUnits="userSpaceOnUse" gradientTransform="rotate(.634 -56573.304 100665.85) scale(124.759 236.951)"><stop stop-color="#FFD512"/><stop offset="1" stop-color="#F087FF"/></radialGradient><radialGradient id="paint8_radial_537_4694" cx="0" cy="0" r="1" gradientUnits="userSpaceOnUse" gradientTransform="matrix(49.85046 8.61209 -6.61371 38.28301 523.71 922.878)"><stop stop-color="#F087FF"/><stop offset="1" stop-color="#FFD512"/></radialGradient><radialGradient id="paint9_radial_537_4694" cx="0" cy="0" r="1" gradientUnits="userSpaceOnUse" gradientTransform="rotate(161.837 562.825 411.759) scale(62.5002 47.9975)"><stop stop-color="#F087FF"/><stop offset="1" stop-color="#FFD512"/></radialGradient><radialGradient id="paint19_radial_537_4694" cx="0" cy="0" r="1" gradientUnits="userSpaceOnUse" gradientTransform="rotate(-62.217 1486.865 -319.196) scale(87.0819 90.4872)"><stop stop-color="#F087FF"/><stop offset="1" stop-color="#FFD512"/></radialGradient><clipPath id="clip0_537_4694"><path fill="#fff" transform="translate(-88)" d="M0 0h2840v1171H0z"/></clipPath><filter id="filter2_f_537_4694" x="455.022" y="-65.803" width="2143.9" height="2298.36" filterUnits="userSpaceOnUse" color-interpolation-filters="sRGB"><feFlood flood-opacity="0" result="BackgroundImageFix"/><feBlend in="SourceGraphic" in2="BackgroundImageFix" result="shape"/><feGaussianBlur stdDeviation="356.579" result="effect1_foregroundBlur_537_4694"/></filter></defs></svg>
