<?xml version="1.0" encoding="UTF-8"?>
<svg width="226px" height="47px" viewBox="0 0 226 47" version="1.1" xmlns="http://www.w3.org/2000/svg" xmlns:xlink="http://www.w3.org/1999/xlink">
    <title>allnodes_horizontal_logo_on_black</title>
    <g id="allnodes_horizontal_logo_on_black" stroke="none" stroke-width="1" fill="none" fill-rule="evenodd">
        <g id="allnodes_logo-copy-2" fill="#FFFFFF">
            <path d="M96.3331264,37.5831486 L91.1616851,37.5831486 L91.1616851,8.51884701 L96.3331264,8.51884701 L96.3331264,37.5831486 Z M107.237251,37.5831486 L102.065809,37.5831486 L102.065809,8.51884701 L107.237251,8.51884701 L107.237251,37.5831486 Z M124.11459,16.977561 C126.319468,16.977561 128.123459,17.6991574 129.526563,19.182439 C130.969756,20.6657206 131.691353,22.6701552 131.691353,25.2759202 L131.691353,37.5831486 L126.519911,37.5831486 L126.519911,25.9173392 C126.519911,23.2313969 124.956452,21.788204 122.551131,21.788204 C119.865188,21.788204 118.141375,23.4318404 118.141375,26.7592018 L118.141375,37.5831486 L112.969933,37.5831486 L112.969933,17.5388027 L118.141375,17.5388027 L118.141375,19.7837694 C119.384124,17.8996009 121.388559,16.977561 124.11459,16.977561 Z M153.68,35.0976497 C151.635477,37.1421729 149.109889,38.1443902 146.143326,38.1443902 C143.176763,38.1443902 140.651175,37.1421729 138.606652,35.0976497 C136.562129,33.0531264 135.559911,30.5275388 135.559911,27.5609756 C135.559911,24.5944124 136.562129,22.1089135 138.606652,20.0643902 C140.651175,18.019867 143.176763,16.977561 146.143326,16.977561 C149.109889,16.977561 151.635477,18.019867 153.68,20.0643902 C155.724523,22.1089135 156.766829,24.5944124 156.766829,27.5609756 C156.766829,30.5275388 155.724523,33.0531264 153.68,35.0976497 Z M142.254723,31.5297561 C143.297029,32.5720621 144.579867,33.0932151 146.143326,33.0932151 C147.706785,33.0932151 148.989623,32.5720621 150.031929,31.5297561 C151.074235,30.4874501 151.595388,29.1645233 151.595388,27.5609756 C151.595388,25.9574279 151.074235,24.6345011 150.031929,23.5921951 C148.989623,22.5498891 147.706785,22.0287361 146.143326,22.0287361 C144.579867,22.0287361 143.297029,22.5498891 142.254723,23.5921951 C141.252506,24.6345011 140.731353,25.9574279 140.731353,27.5609756 C140.731353,29.1645233 141.252506,30.4874501 142.254723,31.5297561 Z M176.610732,19.9040355 L176.610732,8.51884701 L181.782173,8.51884701 L181.782173,37.5831486 L176.610732,37.5831486 L176.610732,35.2179157 C175.087361,37.1822616 172.922572,38.1443902 170.116364,38.1443902 C167.430421,38.1443902 165.105277,37.1421729 163.18102,35.0976497 C161.296851,33.0531264 160.334723,30.5275388 160.334723,27.5609756 C160.334723,24.5944124 161.296851,22.1089135 163.18102,20.0643902 C165.105277,18.019867 167.430421,16.977561 170.116364,16.977561 C172.922572,16.977561 175.087361,17.9396896 176.610732,19.9040355 Z M167.069623,31.6500222 C168.152018,32.6923282 169.474945,33.2134812 171.078492,33.2134812 C172.68204,33.2134812 174.004967,32.6923282 175.047273,31.6500222 C176.089579,30.5676275 176.610732,29.204612 176.610732,27.5609756 C176.610732,25.9173392 176.089579,24.5543237 175.047273,23.5120177 C174.004967,22.4296231 172.68204,21.9084701 171.078492,21.9084701 C169.474945,21.9084701 168.152018,22.4296231 167.069623,23.5120177 C166.027317,24.5543237 165.506164,25.9173392 165.506164,27.5609756 C165.506164,29.204612 166.027317,30.5676275 167.069623,31.6500222 Z M206.39663,29.6856763 L191.283193,29.6856763 C191.964701,32.2112639 193.848869,33.4540133 196.935698,33.4540133 C198.900044,33.4540133 200.423415,32.7725055 201.425632,31.4495787 L205.594856,33.8549002 C203.63051,36.7011973 200.704035,38.1443902 196.855521,38.1443902 C193.52816,38.1443902 190.882306,37.1421729 188.877871,35.1377384 C186.873437,33.1333038 185.87122,30.6077162 185.87122,27.5609756 C185.87122,24.5543237 186.873437,22.0287361 188.837783,20.0243016 C190.802129,17.9797783 193.367805,16.977561 196.454634,16.977561 C199.381109,16.977561 201.826519,17.9797783 203.710687,20.0243016 C205.634945,22.0688248 206.597073,24.5543237 206.597073,27.5609756 C206.597073,28.2424834 206.516896,28.9239911 206.39663,29.6856763 Z M191.203016,25.6768071 L201.425632,25.6768071 C200.824302,22.9507761 198.819867,21.6278492 196.454634,21.6278492 C193.688514,21.6278492 191.804346,23.1111308 191.203016,25.6768071 Z M217.701641,16.977561 C220.948825,16.977561 223.755033,18.5009313 225.318492,21.2269623 L220.908736,23.6322838 C220.267317,22.2692683 219.184922,21.5877605 217.701641,21.5877605 C216.378714,21.5877605 215.376497,22.2291796 215.376497,23.2313969 C215.376497,24.3137916 216.980044,24.915122 219.024568,25.4362749 C221.951042,26.0376053 225.759468,27.4407095 225.719379,31.7301996 C225.719379,33.7747228 224.957694,35.3782705 223.394235,36.5007539 C221.870865,37.5831486 219.946608,38.1443902 217.661552,38.1443902 C213.532417,38.1443902 210.726208,36.5408426 209.242927,33.3738359 L213.73286,30.8482483 C214.334191,32.5720621 215.617029,33.4540133 217.661552,33.4540133 C219.505632,33.4540133 220.427672,32.8927716 220.427672,31.7301996 C220.427672,30.6478049 218.824124,30.0464745 216.779601,29.5253215 C213.813038,28.7636364 210.084789,27.5208869 210.084789,23.351663 C210.084789,21.3873171 210.806386,19.8238581 212.249579,18.7013747 C213.73286,17.5388027 215.536851,16.977561 217.701641,16.977561 Z M77.4055369,8.51884701 L87.6195629,37.5831486 L81.3914983,37.5831486 L79.6476402,32.3515743 L68.06344,32.3515743 L66.3195819,37.5831486 L60.1330377,37.5831486 L70.3055432,8.51884701 L77.4055369,8.51884701 Z M73.8763003,15.1205955 L69.8903389,26.9954387 L77.8622616,26.9954387 L73.8763003,15.1205955 Z" id="Allnodes" fill-rule="nonzero"></path>
            <path d="M23.0509978,0 C35.7817123,0 46.1019956,10.3202832 46.1019956,23.0509978 C46.1019956,27.9464758 44.5759192,32.4855195 41.9735415,36.2183541 C41.9540513,36.2463107 41.9329499,36.2762825 41.9102372,36.3082694 C41.7325905,36.5584145 41.3858011,36.6172124 41.1356425,36.4395847 C41.0639019,36.3886446 41.0052872,36.3213924 40.9646246,36.2433657 C40.9646246,36.2433657 40.9646246,36.2433657 40.9646246,36.2433657 C38.2357384,31.0069501 34.142409,23.1523267 28.6846364,12.6794956 C27.9940734,11.3543612 26.6238166,10.5232816 25.1295414,10.5232816 L18.6901171,10.5232816 C18.5288506,10.5232816 18.3699656,10.5621976 18.2269533,10.6367251 C17.7360971,10.8925234 17.545545,11.4978065 17.8013433,11.9886627 C24.8915727,25.5938234 30.2092447,35.7976939 33.7543594,42.6002743 C33.7563717,42.6041356 33.7584097,42.6080462 33.7604734,42.6120061 C33.9538735,42.9831808 33.8097925,43.4408698 33.4386321,43.6342973 C33.4357935,43.6357766 33.4329455,43.637238 33.4300884,43.6386812 C33.4300884,43.6386812 33.4300884,43.6386812 33.4300884,43.6386812 C30.3107095,45.2143878 26.7845096,46.1019956 23.0509978,46.1019956 C19.3813921,46.1019956 15.912062,45.2445139 12.8324459,43.718989 C12.8324459,43.718989 12.8324459,43.718989 12.8324459,43.718989 C12.4414024,43.5252808 12.2814304,43.0512459 12.4751385,42.6602023 C12.4775315,42.6553715 12.4799739,42.6505653 12.4824945,42.6457996 C12.4839009,42.6431007 12.4852958,42.640424 12.486679,42.6377697 C14.5852062,38.610794 17.732997,32.5703304 21.9300514,24.5163789 L21.9635733,24.4455282 C22.1670209,23.9686692 21.9719235,23.4080587 21.5044414,23.1644413 C21.3614291,23.0899138 21.2025441,23.0509978 21.0412776,23.0509978 L14.6018533,23.0509978 L14.4576518,23.0535809 C13.0198817,23.1051299 11.715045,23.9248236 11.0467582,25.2072118 C8.46586845,30.1593762 6.53020111,33.8734995 5.23975622,36.3495817 C5.23975622,36.3495817 5.23975622,36.3495817 5.23975622,36.3495817 C5.09404761,36.6291647 4.74928062,36.7376914 4.46969759,36.5919828 C4.3902475,36.5505762 4.32165883,36.4910506 4.26945952,36.4182355 C4.25888825,36.4034805 4.24872892,36.3892346 4.23898154,36.3754978 C1.56933917,32.6132273 0,28.0153819 0,23.0509978 C0,10.3202832 10.3202832,0 23.0509978,0 Z" id="Combined-Shape"></path>
        </g>
    </g>
</svg>