<svg xmlns="http://www.w3.org/2000/svg" xml:space="preserve" width="800" height="800" viewBox="0 0 508.073 508.073"><path fill="currentColor" d="M470.459 378.925c-.7-2.1-1.9-4-3.4-5.5l-113.9-113.9 149.8-149.8c10-10 2.6-17.3 0-19.9l-85.7-85.7c-5.5-5.5-14.4-5.5-19.9 0l-149.8 149.8-134.7-134.7c-25.5-25.5-67.8-25.6-93.4 0-25.8 25.8-25.8 67.7 0 93.5l134.6 134.7-149.9 149.9c-5.5 5.5-5.5 14.4 0 19.9l85.6 85.7c2.6 2.6 10 10 19.9 0l150-149.9 113.9 113.9c1.5 1.5 3.4 2.7 5.5 3.4l110.4 36.9c6 2 10.7.3 14.4-3.4 3.8-3.8 5.1-9.4 3.4-14.4l-36.8-110.5zm-194.3-213.7 29.9 29.9c5.5 5.5 14.4 5.5 19.9 0 5-5 5.5-14.4 0-19.9l-29.9-29.9 23.7-23.7 13 13c5.5 5.5 14.4 5.5 19.9 0 5.2-5.2 6.2-13.7 0-19.9l-13-13 23.7-23.7 29.4 29.4c5.5 5.5 14.4 5.5 19.9 0 5.6-5.6 5.5-14.4 0-19.9l-29.4-29.5 24-24 65.8 65.7-139.8 139.9-65.8-65.8 8.7-8.6zm-236.8-72.4c-14.8-14.8-14.8-38.8 0-53.6 14.1-14.1 38.8-14.7 53.6 0l15.5 15.5-53.6 53.6-15.5-15.5zm60.4 380.2-65.7-65.7 24-24 13.2 13.2c5.5 5.5 14.4 5.6 19.9 0 5.5-5.5 5.5-14.4 0-19.9l-13.1-13.3 23.7-23.7 29.6 29.6c6.2 6.2 14.7 5.2 19.9 0 5.5-5.5 5.5-14.4 0-19.9l-29.6-29.6 23.7-23.7 13.2 13.2c5.5 5.5 14.9 5 19.9 0 5.5-5.5 5.5-14.4 0-19.9l-13.2-13.2 8.8-8.8 65.8 65.7-140.1 140zm-25-344.8 53.6-53.6 308.7 308.7-53.6 53.6-308.7-308.7zm334.9 322.5 41.3-41.3 20.7 61.9-62-20.6z"/></svg>