<svg width="448" height="89" viewBox="0 0 448 89" fill="none" xmlns="http://www.w3.org/2000/svg">
<g clip-path="url(#clip0_72_34)">
<mask id="mask0_72_34" style="mask-type:luminance" maskUnits="userSpaceOnUse" x="0" y="0" width="92" height="89">
<path d="M91.2764 0H0V88.8831H91.2764V0Z" fill="white"/>
</mask>
<g mask="url(#mask0_72_34)">
<path d="M39.3688 12.6762C37.6818 14.1962 36.0338 15.7033 34.3858 17.1847C26.7167 24.115 19.0346 31.0582 11.3655 37.9885C9.60072 39.573 7.78401 41.1059 5.56503 42.0333C2.9308 43.1412 1.42553 42.4455 0.582063 39.6889C-0.598797 35.8244 0.0370505 32.2305 2.30794 28.907C4.25441 26.0859 6.69398 23.7286 9.21141 21.4485C13.2212 17.803 17.2569 14.1962 21.3444 10.6538C23.1352 9.09501 25.0946 7.67807 27.4823 7.20145C34.6454 5.79736 39.2001 12.483 39.3817 12.6762H39.3688Z" fill="white"/>
<path d="M4.92829 47.9585C9.28839 46.7348 12.5455 44.0425 15.7247 41.2086C25.8724 32.1915 35.994 23.1743 46.1806 14.2217C48.4255 12.2508 50.7872 10.3571 53.2917 8.6954C56.4709 6.59569 59.9226 6.28653 63.3355 8.29607C64.5682 9.01745 65.775 9.85478 66.7742 10.8595C70.2389 14.3504 73.6777 17.9058 77.0126 21.5255C80.5682 25.3642 84.0589 29.2674 87.4587 33.2349C88.6266 34.6003 89.5868 36.1848 90.3651 37.795C91.8319 40.7835 91.4555 43.7463 89.6644 46.5416C88.0686 49.0407 85.9145 51.0888 83.7085 53.0339C75.0532 60.647 66.4109 68.26 57.6517 75.77C55.303 77.7924 52.7206 79.5958 50.0475 81.1932C45.0256 84.2075 39.9907 83.8339 35.41 80.2657C32.7499 78.1917 30.2324 75.8601 27.9486 73.3998C20.5779 65.439 13.3371 57.375 6.04427 49.3369C5.68093 48.9375 5.34354 48.4996 4.90234 47.9715L4.92829 47.9585Z" fill="white"/>
</g>
<path d="M155.758 7.60077H166.84V66.122H155.758V61.1883C152.488 65.2589 147.856 67.2942 141.847 67.2942C135.839 67.2942 131.116 65.1559 127.028 60.8921C122.927 56.6282 120.891 51.3983 120.891 45.2151C120.891 39.032 122.941 33.802 127.028 29.5382C131.128 25.2744 136.06 23.136 141.847 23.136C147.634 23.136 152.501 25.1713 155.758 29.2419V7.58789V7.60077ZM135.359 53.7041C137.63 55.9069 140.472 57.0018 143.911 57.0018C147.35 57.0018 150.178 55.8939 152.424 53.7041C154.655 51.5013 155.771 48.6674 155.771 45.2151C155.771 41.7629 154.655 38.9288 152.424 36.7261C150.192 34.5234 147.362 33.4284 143.911 33.4284C140.459 33.4284 137.63 34.5362 135.359 36.7261C133.101 38.9288 131.959 41.7629 131.959 45.2151C131.959 48.6674 133.088 51.5013 135.359 53.7041Z" fill="white"/>
<path d="M203.888 24.3203H215.748L200.085 66.1855C197.854 72.1626 194.895 76.4908 191.197 79.1959C187.512 81.9011 182.918 83.112 177.429 82.8286V72.8067C180.4 72.8582 182.762 72.2528 184.514 70.9646C186.266 69.6893 187.654 67.6154 188.679 64.7815L171.07 24.3203H183.19L194.39 52.415L203.901 24.3203H203.888Z" fill="white"/>
<path d="M243.917 23.1484C248.615 23.1484 252.495 24.6813 255.557 27.7471C258.62 30.813 260.151 35.051 260.151 40.4484V66.1086H249.069V41.1433C249.069 38.6442 248.291 36.6863 246.746 35.3079C245.202 33.9175 243.139 33.2082 240.557 33.2082C237.688 33.2082 235.405 34.0333 233.692 35.7595C231.979 37.4857 231.11 40.0749 231.11 43.5271V66.0958H220.027V24.3077H231.11V28.9967C233.809 25.0935 238.065 23.1484 243.904 23.1484H243.917Z" fill="white"/>
<path d="M300.497 24.3199H311.579V66.1208H300.497V61.1871C297.175 65.2577 292.504 67.293 286.496 67.293C280.487 67.293 275.855 65.1547 271.767 60.8908C267.68 56.627 265.629 51.3971 265.629 45.2139C265.629 39.0308 267.68 33.8007 271.767 29.537C275.868 25.2732 280.773 23.1348 286.496 23.1348C292.517 23.1348 297.175 25.1701 300.497 29.2407V24.307V24.3199ZM280.046 53.7029C282.278 55.9057 285.12 57.0006 288.558 57.0006C291.997 57.0006 294.852 55.8927 297.11 53.7029C299.368 51.5001 300.51 48.6662 300.51 45.2139C300.51 41.7616 299.381 38.9276 297.11 36.7249C294.852 34.5222 291.997 33.4272 288.558 33.4272C285.12 33.4272 282.291 34.535 280.046 36.7249C277.815 38.9276 276.698 41.7616 276.698 45.2139C276.698 48.6662 277.815 51.5001 280.046 53.7029Z" fill="white"/>
<path d="M366.107 23.1477C371.038 23.1477 374.969 24.7064 377.929 27.8366C380.874 30.9668 382.353 35.1405 382.353 40.3832V66.1336H371.272V41.1433C371.272 38.6442 370.649 36.6863 369.377 35.295C368.119 33.9039 366.341 33.2082 364.044 33.2082C361.526 33.2082 359.554 34.0198 358.152 35.6299C356.751 37.2402 356.05 39.5846 356.05 42.6505V66.1466H344.969V41.1562C344.969 38.6572 344.345 36.6991 343.074 35.3079C341.815 33.9167 340.037 33.2211 337.741 33.2211C335.275 33.2211 333.315 34.0326 331.849 35.6429C330.395 37.2531 329.656 39.5975 329.656 42.6633V66.1594H318.574V24.3328H329.656V28.7641C332.238 25.0284 336.209 23.1606 341.608 23.1606C347.005 23.1606 350.768 25.1701 353.286 29.1763C356.141 25.1572 360.423 23.1606 366.081 23.1606V23.1348L366.107 23.1477Z" fill="white"/>
<path d="M394.873 19.2958C393.044 19.2958 391.447 18.6388 390.111 17.3378C388.762 16.0238 388.086 14.478 388.086 12.7004C388.086 10.9227 388.762 9.35117 390.111 8.01148C391.46 6.67179 393.044 6.00195 394.873 6.00195C396.703 6.00195 398.376 6.67179 399.726 8.01148C401.076 9.35117 401.737 10.9098 401.737 12.7004C401.737 14.4909 401.063 16.0367 399.726 17.3378C398.376 18.6517 396.767 19.2958 394.873 19.2958ZM389.371 66.1205V24.3197H400.453V66.1205H389.371Z" fill="white"/>
<path d="M428.573 67.2808C422.098 67.2808 416.7 65.1683 412.379 60.9302C408.057 56.6921 405.891 51.4622 405.891 45.2146C405.891 38.967 408.057 33.7371 412.379 29.4991C416.7 25.261 422.098 23.1484 428.573 23.1484C432.764 23.1484 436.567 24.1274 440.006 26.0725C443.445 28.0176 446.053 30.6455 447.831 33.9303L438.293 39.3664C437.436 37.6402 436.125 36.2748 434.387 35.27C432.635 34.2652 430.676 33.7628 428.496 33.7628C425.173 33.7628 422.423 34.832 420.243 36.9833C418.062 39.1345 416.985 41.8783 416.985 45.2146C416.985 48.5509 418.075 51.2175 420.243 53.3687C422.423 55.5199 425.173 56.5891 428.496 56.5891C430.728 56.5891 432.712 56.0996 434.465 55.1206C436.217 54.1416 437.514 52.789 438.371 51.0629L447.999 56.4087C446.105 59.6935 443.445 62.3342 440.006 64.3051C436.567 66.289 432.764 67.2679 428.573 67.2679V67.2808Z" fill="white"/>
<path d="M254.889 80.5781H252.999C252.804 80.5781 252.66 80.7334 252.66 80.9146V82.908C252.66 83.1021 252.817 83.2446 252.999 83.2446H254.889C255.086 83.2446 255.229 83.0892 255.229 82.908V80.9146C255.229 80.7205 255.072 80.5781 254.889 80.5781Z" fill="white"/>
</g>
<defs>
<clipPath id="clip0_72_34">
<rect width="448" height="88.8831" fill="white"/>
</clipPath>
</defs>
</svg>
