<svg preserveAspectRatio="none" width="100%" height="100%" overflow="visible" style="display: block;" viewBox="0 0 167.377 48.0001" fill="none" xmlns="http://www.w3.org/2000/svg">
<g id="Group">
<path id="Vector" d="M11.1445 0.820864H0V47.2487H11.0329C19.332 47.2487 40.6028 46.4139 40.6028 24.0278C40.6028 16.9739 37.5621 0.820864 11.1584 0.820864M13.4738 36.5913H11.0608V11.4643H13.4738C18.2022 11.4643 23.363 12.5356 25.6505 14.6365C28.2448 17.0296 29.5001 20.1043 29.5001 24.0278C29.5001 27.9513 28.2309 30.9426 25.6226 33.3217C24.3533 34.4626 22.9167 35.3113 21.4103 35.8122C19.7783 36.3269 16.0542 36.5913 13.4878 36.5913" fill="var(--fill-0, white)"/>
<path id="Vector_2" d="M112.938 10.6575C123.259 10.6575 127.513 17.0853 127.513 17.0853V4.03489L126.258 3.35315C122.157 1.12706 117.819 0.000106812 113.398 0.000106812C105.322 0.000106812 98.6548 2.85228 93.5637 8.48706C89.4351 13.0645 87.3429 18.3653 87.3429 24.2227C87.3429 30.7618 89.8535 36.4384 94.8191 41.0853C99.7846 45.6766 105.866 48.0001 112.882 48.0001C117.54 48.0001 122.032 46.8592 126.244 44.6332L127.527 43.9514V31.5688C127.527 31.5688 120.902 37.3427 112.979 37.3427C109.074 37.3427 105.88 36.1045 103.188 33.5445C100.496 30.9845 99.1848 27.8958 99.1848 24.1392C99.1848 20.3827 100.496 17.1688 103.216 14.5392C105.88 11.9236 109.06 10.6575 112.952 10.6575" fill="var(--fill-0, white)"/>
<path id="Vector_3" d="M152.787 10.6575C163.122 10.6575 167.363 17.0853 167.363 17.0853V4.03489L166.107 3.35315C161.993 1.12706 157.669 0.000106812 153.233 0.000106812C145.171 0.000106812 138.504 2.85228 133.399 8.48706C129.271 13.0645 127.178 18.3653 127.178 24.2227C127.178 30.7618 129.689 36.4384 134.654 41.0853C139.62 45.6766 145.701 48.0001 152.731 48.0001C157.39 48.0001 161.881 46.8592 166.093 44.6332L167.377 43.9514V31.5688C167.377 31.5688 160.751 37.3427 152.829 37.3427C148.923 37.3427 145.715 36.1045 143.037 33.5445C140.345 30.9845 139.034 27.8958 139.034 24.1392C139.034 20.3827 140.345 17.1688 143.065 14.5392C145.715 11.9236 148.909 10.6575 152.801 10.6575" fill="var(--fill-0, white)"/>
<path id="Vector_4" d="M63.8962 26.6713L52.6959 0.820864H41.1888V47.2487H52.6959V27.7426L61.6785 47.2487H65.8071L75.0128 27.84V47.2487H86.6734V0.820864H75.7521L63.8962 26.6713Z" fill="var(--fill-0, white)"/>
</g>
</svg>
