<svg version="1.2" xmlns="http://www.w3.org/2000/svg" viewBox="0 0 1573 426" width="1573" height="426">
	<title>state-street-logo-final-svg</title>
	<style>
		.s0 { fill: #001aff } 
	</style>
	<g id="Logo_00000165924221331983462930000011579409753514673035_">
		<path id="SM" fill-rule="evenodd" class="s0" d="m1547.1 406.6h3c0-1.1-0.3-1.9-0.8-2.8-0.8-0.8-1.4-1.3-2.5-1.9-1.1-0.2-2.2-0.5-3.5-0.5-1.4 0-2.5 0-3.6 0.5-1.1 0.6-1.9 1.1-2.5 1.9-0.5 0.9-0.8 1.7-0.8 2.8 0 1.3 0.6 2.4 1.4 3.3 0.8 0.8 1.9 1.6 3.5 1.9l2.2 0.5c0.6 0.3 1.1 0.3 1.7 0.6 0.5 0.2 0.8 0.5 1.1 0.8 0.2 0.3 0.5 0.5 0.5 1.1 0 0.5-0.3 1.1-0.5 1.3-0.3 0.3-0.8 0.6-1.4 0.9-0.5 0.2-1.1 0.2-1.9 0.2-0.8 0-1.4 0-1.9-0.2-0.6 0-1.1-0.3-1.4-0.9-0.3-0.5-0.5-1-0.5-1.6h-3.3c0.2 1.1 0.5 2.2 1.1 3 0.5 0.8 1.3 1.4 2.4 1.9 1.1 0.3 2.5 0.6 3.9 0.6 1.6 0 2.7-0.3 3.8-0.8 1.1-0.6 1.9-1.1 2.5-2 0.5-0.8 0.8-1.6 0.8-2.7 0-0.8-0.3-1.6-0.6-2.2-0.2-0.8-0.5-1.1-1.1-1.6-0.5-0.6-1.1-0.8-1.6-1.1-0.6-0.3-1.1-0.3-1.9-0.6l-1.7-0.5c-0.2 0-0.8-0.3-1.1-0.3-0.5-0.3-0.8-0.3-1.1-0.5q-0.4-0.4-0.8-0.8c-0.2-0.3-0.2-0.9-0.2-1.1 0-0.6 0-1.1 0.2-1.4 0.3-0.3 0.6-0.6 1.1-0.8 0.6-0.3 1.1-0.3 1.9-0.3 1.1 0 1.9 0 2.5 0.5 0.5 0.6 1.1 1.1 1.1 2zm21.9-6.1l-5.8 13.7-5.7-13.7h-3.8v18.6h3.2v-12.5l5.5 12.5h1.7l5.4-12.5v12.5h3.3v-18.6z"/>
		<path id="Wordmark" fill-rule="evenodd" class="s0" d="m513.7 174.7v-42.9c25.1 17.5 55.8 25.4 75.8 25.4 22.9 0 39.9-4.9 39.9-19.9 0-9.1-7.1-14-21.1-17.8l-39.1-10.1c-28.5-7.4-55-17.5-55-52 0-42.1 42.1-56.6 82.1-56.6 19.1 0 39.1 3 58.8 10.4v37.7c-23.5-9-45.9-11.7-65.4-11.7-23.2 0-36.1 5.2-36.1 16.4 0 7.7 6.3 12.3 22.4 16.7l41.1 10.6c32.3 8.5 51.4 23.6 51.4 53.1 0 38-35.3 60.1-78.2 60.1-31.5-0.2-55-6-76.6-19.4zm225.7-132.9h-61.8v-36.9h163.6v36.9h-61.9v146h-39.9zm330.2 0h-61.8v-36.9h163.6v36.9h-61.8v146.1h-40zm-170.7-37h50.9l77.7 183h-43.2l-17.8-43.5h-84.6l-17.2 43.5h-43.5zm53.1 104.1l-23.5-61.8h-8.5l-23.6 61.8zm247.4-104.1h136.2v36.9h-97.4v33.9h84.3v36.9h-84.3v38.3h101v36.9h-139.8zm-685.4 401.1v-43.2c25.2 17.5 56.1 25.4 75.8 25.4 23 0 39.9-4.6 39.9-20 0-9.3-7.1-13.9-21-17.7l-39.2-10.1c-28.4-7.7-55-17.5-55-52 0-41.8 41.9-56.6 82.1-56.6 19.2 0 39.1 3 58.8 10.4v37.7c-23.5-9-46.2-11.7-65.3-11.7-23.3 0-36.2 5.2-36.2 16.4 0 7.9 6.1 12.3 22.5 16.7l41 10.6c32.6 8.8 51.5 23.5 51.5 53.1 0 38-35.3 60.1-78.3 60.1-31.7-0.3-55.3-5.7-76.6-19.1zm225.4-133.2h-61.8v-36.9h163.6v37.2h-61.8v146h-40zm709.2 146.3v-146.3h-61.8v-36.9h163.6v37.2h-61.5v146zm-393.5-183.2h136.3v37.2h-97.4v33.9h84.2v36.9h-84.2v38.3h100.9v36.9h-139.8zm169.4 0h136.2v37.2h-97.4v33.9h84.3v36.9h-84.3v38.3h101v36.9h-139.8zm-355.4 0.2h82.9c46.2 0 71.6 21.1 71.6 59.1 0 27.6-13.9 46.5-40.4 53.9l51.9 70h-47.3l-49-65.4h-30.3v65.4h-39.4zm87.5 80.9c16.7 0 26.6-8.2 26.6-21.9 0-13.7-10.2-22.1-26.6-22.1h-48.1v44z"/>
		<path id="Symbol" class="s0" d="m202.8 50c66.5-22.9 136.6-48.1 221.7-48.1v58.8c-74.5 0-136 21.9-202.5 44.8-65.7 23-136 48.2-221.1 48.2v-58.8c74.4 0 136-21.9 201.9-44.9zm-201.9 133.2h423.6v59.3h-31-392.6zm0 181.9c74.4 0 136-21.9 201.9-44.9 66.5-23 136.6-48.1 221.7-48.1v58.8c-74.5 0-136 21.8-202.5 44.8-65.9 23-136 48.1-221.1 48.1z"/>
	</g>
</svg>