<svg version="1.2" xmlns="http://www.w3.org/2000/svg" viewBox="0 0 1573 426" width="1573" height="426">
	<title>state-street-logo-final-svg</title>
	<style>
		.s0 { fill: #ffffff } 
	</style>
	<path id="SM" fill-rule="evenodd" class="s0" d="m1547.1 405.8c0-0.9-0.6-1.4-1.1-2-0.6-0.5-1.4-0.5-2.5-0.5-0.8 0-1.3 0-1.9 0.3-0.5 0.2-0.8 0.5-1.1 0.8-0.2 0.3-0.2 0.8-0.2 1.4 0 0.2 0 0.8 0.2 1.1q0.4 0.4 0.8 0.8c0.3 0.2 0.6 0.2 1.1 0.5 0.3 0 0.9 0.3 1.1 0.3l1.7 0.5c0.8 0.3 1.3 0.3 1.9 0.6 0.5 0.3 1.1 0.5 1.6 1.1 0.6 0.5 0.9 0.8 1.1 1.6 0.3 0.6 0.6 1.4 0.6 2.2 0 1.1-0.3 1.9-0.8 2.7-0.6 0.9-1.4 1.4-2.5 2-1.1 0.5-2.2 0.8-3.8 0.8-1.4 0-2.8-0.3-3.9-0.6-1.1-0.5-1.9-1.1-2.4-1.9-0.6-0.8-0.9-1.9-1.1-3h3.3c0 0.6 0.2 1.1 0.5 1.6 0.3 0.6 0.8 0.9 1.4 0.9 0.5 0.2 1.1 0.2 1.9 0.2 0.8 0 1.4 0 1.9-0.2 0.6-0.3 1.1-0.6 1.4-0.9 0.2-0.2 0.5-0.8 0.5-1.3 0-0.6-0.3-0.8-0.5-1.1-0.3-0.3-0.6-0.6-1.1-0.8-0.6-0.3-1.1-0.3-1.7-0.6l-2.2-0.5c-1.6-0.3-2.7-1.1-3.5-1.9-0.8-0.9-1.4-2-1.4-3.3 0-1.1 0.3-1.9 0.8-2.8 0.6-0.8 1.4-1.3 2.5-1.9 1.1-0.5 2.2-0.5 3.6-0.5 1.3 0 2.4 0.3 3.5 0.5 1.1 0.6 1.7 1.1 2.5 1.9 0.5 0.9 0.8 1.7 0.8 2.8h-3zm25.7-5.2v18.6h-3.3v-12.6l-5.4 12.6h-1.7l-5.5-12.6v12.6h-3.2v-18.6h3.8l5.7 13.7 5.8-13.7zm-1059.2-225.9v-42.9c25.2 17.5 55.8 25.4 75.8 25.4 23 0 40-4.9 40-19.9 0-9-7.1-14-21.1-17.8l-39.1-10.1c-28.5-7.4-55-17.5-55-52 0-42.1 42.1-56.6 82.1-56.6 19.1 0 39.1 3.1 58.8 10.4v37.8c-23.5-9.1-46-11.8-65.4-11.8-23.3 0-36.1 5.2-36.1 16.4 0 7.7 6.3 12.3 22.4 16.7l41.1 10.7c32.2 8.4 51.4 23.5 51.4 53 0 38-35.3 60.2-78.3 60.2-31.4-0.3-55-6.1-76.6-19.5zm225.8-132.8h-61.9v-37h163.6v37h-61.8v146h-39.9zm330.2 0h-61.8v-36.9h163.6v36.9h-61.8v146h-40zm-170.7-36.9h50.9l77.7 182.9h-43.3l-17.7-43.5h-84.6l-17.2 43.5h-43.5zm53.1 104.1l-23.6-61.7h-8.5l-23.5 61.7zm247.4-104.1h136.2v36.9h-97.4v33.9h84.3v36.9h-84.3v38.3h101v36.9h-139.8zm-685.4 401.1v-43.2c25.1 17.5 56 25.4 75.7 25.4 23 0 40-4.6 40-19.9 0-9.3-7.1-14-21.1-17.8l-39.1-10.1c-28.5-7.7-55-17.5-55-52 0-41.8 41.9-56.6 82.1-56.6 19.1 0 39.1 3 58.8 10.4v37.8c-23.5-9.1-46.2-11.8-65.4-11.8-23.2 0-36.1 5.2-36.1 16.4 0 7.9 6 12.3 22.4 16.7l41.1 10.6c32.5 8.8 51.4 23.6 51.4 53.1 0 38-35.3 60.1-78.2 60.1-31.8-0.2-55.3-5.7-76.6-19.1zm225.4-133.2h-61.8v-36.9h163.6v37.2h-61.8v146h-40zm709.2 146.3v-146.3h-61.8v-36.9h163.6v37.2h-61.6v146zm-393.4-183.2h136.2v37.2h-97.4v33.9h84.3v36.9h-84.3v38.3h101v36.9h-139.8zm169.3 0h136.3v37.2h-97.4v33.9h84.3v36.9h-84.3v38.3h101v36.9h-139.9zm-355.4 0.3h82.9c46.3 0 71.7 21 71.7 59 0 27.6-13.9 46.5-40.5 53.9l52 70h-47.3l-49-65.4h-30.4v65.4h-39.4zm87.6 80.9c16.7 0 26.5-8.2 26.5-21.9 0-13.6-10.1-22.1-26.5-22.1h-48.2v44zm-753.8-267.1c66.5-23 136.6-48.1 221.7-48.1v58.7c-74.5 0-136 21.9-202.5 44.9-65.7 23-136 48.1-221.1 48.1v-58.8c74.4 0 136-21.9 201.9-44.8zm-201.9 133.1h423.6v59.4h-423.6zm0 181.8c74.4 0 136-21.9 201.9-44.9 66.5-22.9 136.6-48.1 221.7-48.1v58.8c-74.5 0-136 21.9-202.5 44.9-66 22.9-136 48.1-221.1 48.1z"/>
</svg>