<svg version="1.2" xmlns="http://www.w3.org/2000/svg" viewBox="0 0 1521 1515" width="1521" height="1515">
	<title>state-street-logo-final-svg</title>
	<style>
		.s0 { fill: #001aff } 
	</style>
	<g id="Logo_00000165924221331983462930000011579409753514673035_">
		<path id="Symbol" class="s0" d="m724.8 173c238.6-82.4 489.9-172.7 795.3-172.7v211c-267.1 0-488 78.5-726.5 160.9-235.7 82.4-488 172.7-793.3 172.7v-211c267 0 487.9-78.5 724.5-160.9zm-724.5 477.8h1519.8v213h-111-1408.8zm0 652.5c267 0 487.9-78.5 724.5-161 238.6-82.4 489.9-172.6 795.3-172.6v210.9c-267.1 0-488 78.5-726.5 160.9-236.6 82.5-488 172.7-793.3 172.7z"/>
	</g>
</svg>