<?xml version="1.0" encoding="UTF-8"?><svg id="_레이어_1" xmlns="http://www.w3.org/2000/svg" viewBox="0 0 1000 381.62"><defs><style>.cls-1{fill-rule:evenodd;}.cls-1,.cls-2{fill:#fff;stroke-width:0px;}</style></defs><path class="cls-1" d="M262.79,103.68l-49.01-28.3-21.5,12.41-81.15,46.87v118.57l26.33,15.21v-118.57l76.31-44.07,22.67,13.09v114.99l26.33-15.21v-114.99ZM316.43,134.66l-26.33-15.21v118.57l-76.31,44.07-22.67-13.09v-116.2l-26.33,15.21v116.2l49.01,28.3,102.64-59.29v-118.57Z"/><path class="cls-2" d="M479.96,253.84l-71-63.01v63.01h-24.26v-116.84h.95l70.69,64.77v-62.17h24.43v114.25h-.81Z"/><path class="cls-2" d="M558.69,137c-33.02,0-57.12,26.65-57.12,59.72s24.08,59.72,57.12,59.72,57.12-26.18,57.12-59.72-24.25-59.72-57.12-59.72ZM558.69,233.6c-19.69,0-33.64-16.46-33.64-36.88s13.95-36.88,33.64-36.88,33.64,16.63,33.64,36.88-13.95,36.88-33.64,36.88Z"/><path class="cls-2" d="M636.57,253.84v-114.25h34.51c39.29,0,64.16,23.64,64.16,57.11s-24.7,57.11-63.83,57.11h-34.84v.02ZM661.27,160.08v73.31h9.8c24.7,0,39.29-15.87,39.29-36.65s-14.59-36.65-39.63-36.65h-9.5.02Z"/><path class="cls-2" d="M757.43,253.84v-114.25h23.37v114.25h-23.37Z"/><path class="cls-2" d="M864.73,162.43v91.41h-25.22v-91.41h-35.35v-22.84h96.07v22.81h-35.5v.02Z"/></svg>