<svg preserveAspectRatio="none" width="100%" height="100%" overflow="visible" style="display: block;" viewBox="0 0 204.615 40" fill="none" xmlns="http://www.w3.org/2000/svg">
<g id="Frame" clip-path="url(#clip0_0_47)">
<path id="Vector" d="M24.2521 39.2146C2.09749 38.7583 -4.64e-07 30.6094 0 19.9941C4.64e-07 9.3791 2.42521 1.00196 24.2521 0.773853C46.079 0.54574 48.5042 9.3791 48.5042 19.9941C48.5042 30.6094 46.4067 39.6708 24.2521 39.2146Z" fill="var(--fill-0, white)"/>
<path id="Vector_2" fill-rule="evenodd" clip-rule="evenodd" d="M17.4881 32.5411C17.4834 32.5411 17.4788 32.5411 17.4742 32.5411C11.6593 32.5411 6.94531 27.8271 6.94531 22.0121C6.94531 16.9711 10.4879 12.7575 15.2194 11.7251C17.6071 8.39121 21.5133 6.21875 25.9268 6.21875C32.7297 6.21875 38.3271 11.3802 39.0165 18.0008C40.8294 19.5082 41.9834 21.7807 41.9834 24.3227C41.9834 28.8616 38.3039 32.5411 33.765 32.5411C33.7501 32.5411 33.735 32.5411 33.7201 32.5411H25.983C25.9642 32.5411 25.9454 32.5411 25.9268 32.5411C25.9081 32.5411 25.8893 32.5411 25.8705 32.5411H17.4881ZM23.1627 16.8799C24.4107 16.8799 25.4224 15.8682 25.4224 14.6202C25.4224 13.3722 24.4107 12.3606 23.1627 12.3606C21.9147 12.3606 20.9031 13.3722 20.9031 14.6202C20.9031 15.8682 21.9147 16.8799 23.1627 16.8799ZM32.2005 16.8799C33.4485 16.8799 34.4602 15.8682 34.4602 14.6202C34.4602 13.3723 33.4485 12.3606 32.2005 12.3606C30.9525 12.3606 29.941 13.3723 29.941 14.6202C29.941 15.8682 30.9525 16.8799 32.2005 16.8799ZM31.7965 18.9261C32.6544 18.8053 33.3784 18.7034 33.8144 18.7034C34.8839 18.7034 35.7511 19.5705 35.7511 20.6402C35.7511 25.0968 32.1382 28.7098 27.6816 28.7098C23.2248 28.7098 19.6119 25.0968 19.6119 20.6402C19.6119 19.5705 20.4791 18.7034 21.5487 18.7034C21.9847 18.7034 22.7088 18.8053 23.5667 18.9261C24.8136 19.1014 26.3431 19.3167 27.6816 19.3167C29.0201 19.3167 30.5496 19.1014 31.7965 18.9261ZM27.6813 27.0959C29.4499 27.0959 31.0524 26.3845 32.2181 25.2325C32.737 24.7197 32.5664 23.843 31.897 23.5541C30.7659 23.0659 29.2925 22.7705 27.681 22.7705C26.0694 22.7705 24.5961 23.0659 23.465 23.5541C22.7956 23.843 22.6256 24.7201 23.1445 25.2325C24.3105 26.3845 25.9127 27.0959 27.6813 27.0959Z" fill="var(--fill-0, black)"/>
<path id="Vector_3" d="M176.418 32.2311V11.9618H180.726L181.034 14.2695C181.546 13.5772 182.097 13.0516 182.687 12.6926C183.303 12.308 183.931 12.0388 184.572 11.8849C185.238 11.7311 185.866 11.6541 186.457 11.6541C187.738 11.6541 188.827 11.9106 189.726 12.4234C190.649 12.9362 191.366 13.7054 191.88 14.7311C192.392 14.0131 192.969 13.4362 193.611 13.0003C194.251 12.5388 194.931 12.2054 195.649 12.0003C196.366 11.7695 197.123 11.6541 197.918 11.6541C199.481 11.6541 200.738 11.9875 201.687 12.6541C202.635 13.2952 203.327 14.1926 203.764 15.3465C204.2 16.4747 204.418 17.7696 204.418 19.2311V32.2311H199.726V20.7311C199.726 20.2182 199.7 19.6798 199.649 19.1158C199.597 18.5516 199.457 18.0259 199.226 17.5388C199.02 17.0516 198.712 16.6542 198.303 16.3465C197.892 16.0388 197.315 15.885 196.572 15.885C195.827 15.885 195.212 16.0516 194.726 16.385C194.264 16.6927 193.88 17.1158 193.572 17.6542C193.289 18.167 193.084 18.7439 192.957 19.385C192.854 20.0004 192.803 20.6158 192.803 21.2311V32.2311H188.111V20.6927C188.111 20.2055 188.072 19.6927 187.995 19.1542C187.943 18.5901 187.815 18.0644 187.611 17.5773C187.431 17.0644 187.123 16.6542 186.687 16.3465C186.277 16.0388 185.7 15.885 184.957 15.885C183.88 15.885 183.058 16.1798 182.495 16.7696C181.957 17.3593 181.584 18.0773 181.38 18.9235C181.2 19.7696 181.111 20.5773 181.111 21.3465V32.2311H176.418Z" fill="var(--fill-0, white)"/>
<path id="Vector_4" d="M163.968 32.4994C161.045 32.4994 158.802 31.7429 157.237 30.2302C155.699 28.7174 154.93 26.4097 154.93 23.3071V11.9609H159.622V22.9994C159.622 24.0763 159.764 25.0122 160.045 25.8071C160.353 26.602 160.828 27.2174 161.468 27.6532C162.136 28.0636 162.968 28.2686 163.968 28.2686C165.045 28.2686 165.891 28.0506 166.507 27.6148C167.148 27.1532 167.597 26.5251 167.853 25.7302C168.11 24.9352 168.237 24.0251 168.237 22.9994V11.9609H172.93V23.3071C172.93 26.4866 172.136 28.8199 170.545 30.3071C168.982 31.7686 166.79 32.4994 163.968 32.4994Z" fill="var(--fill-0, white)"/>
<path id="Vector_5" d="M147.851 32.4618C145.62 32.4618 143.992 31.8464 142.966 30.6156C141.941 29.3848 141.428 27.6798 141.428 25.5002V16.1156H138.312V11.9618H141.428V6.26953H146.12V11.9618H152.274V16.1156H146.12V24.6156C146.12 25.2824 146.197 25.8848 146.351 26.4233C146.505 26.9618 146.787 27.3848 147.197 27.6925C147.607 28.0002 148.171 28.167 148.889 28.1925C149.505 28.1925 150.031 28.0901 150.466 27.8848C150.902 27.6798 151.261 27.449 151.543 27.1925L153.12 30.7695C152.633 31.1798 152.082 31.5131 151.466 31.7695C150.877 32.0259 150.274 32.2055 149.659 32.3079C149.043 32.4105 148.441 32.4618 147.851 32.4618Z" fill="var(--fill-0, white)"/>
<path id="Vector_6" d="M127.866 32.5004C125.764 32.5004 123.994 32.0773 122.558 31.2311C121.122 30.3594 120.033 29.1414 119.289 27.5773C118.546 26.0133 118.174 24.2056 118.174 22.1542C118.174 20.103 118.558 18.2953 119.328 16.7311C120.097 15.1415 121.225 13.8979 122.712 13.0005C124.199 12.103 126.007 11.6543 128.135 11.6543C129.699 11.6543 131.084 11.9235 132.289 12.462C133.52 13.0005 134.507 13.7953 135.251 14.8466C136.02 15.8722 136.507 17.1542 136.712 18.6927H132.097C131.789 17.7184 131.276 17.0133 130.558 16.5774C129.866 16.1159 129.033 15.8851 128.058 15.8851C126.751 15.8851 125.712 16.2056 124.943 16.8467C124.199 17.4621 123.661 18.2441 123.328 19.1927C122.994 20.1415 122.828 21.1287 122.828 22.1542C122.828 23.2311 123.007 24.2441 123.366 25.1927C123.725 26.1158 124.276 26.8594 125.02 27.4234C125.789 27.9876 126.776 28.2696 127.982 28.2696C128.956 28.2696 129.828 28.0518 130.597 27.6158C131.392 27.1799 131.905 26.4748 132.135 25.5004H136.905C136.725 27.0645 136.199 28.3722 135.328 29.4235C134.482 30.4491 133.405 31.2184 132.097 31.7311C130.789 32.2441 129.379 32.5004 127.866 32.5004Z" fill="var(--fill-0, white)"/>
<path id="Vector_7" d="M96.5352 32.2313V11.962H100.92L101.189 14.5389C101.727 13.821 102.356 13.2569 103.074 12.8466C103.791 12.4363 104.548 12.1415 105.343 11.962C106.138 11.7569 106.881 11.6543 107.574 11.6543C109.497 11.6543 111.009 12.0774 112.112 12.9235C113.24 13.7697 114.035 14.8979 114.497 16.3082C114.958 17.7184 115.189 19.2953 115.189 21.039V32.2313H110.497V21.8082C110.497 21.0645 110.445 20.3467 110.343 19.6544C110.24 18.9364 110.035 18.2953 109.727 17.7313C109.445 17.1671 109.035 16.7184 108.497 16.3851C107.958 16.0518 107.24 15.8851 106.343 15.8851C105.24 15.8851 104.304 16.1799 103.535 16.7698C102.766 17.3594 102.189 18.1544 101.804 19.1544C101.42 20.1287 101.227 21.2441 101.227 22.5004V32.2313H96.5352Z" fill="var(--fill-0, white)"/>
<path id="Vector_8" d="M82.191 32.5004C81.2422 32.5004 80.3448 32.3722 79.4986 32.1158C78.6525 31.8595 77.896 31.4876 77.2294 31.0004C76.5626 30.4876 76.0242 29.8594 75.614 29.1158C75.2294 28.3465 75.0371 27.4491 75.0371 26.4234C75.0371 25.1158 75.2934 24.0518 75.8063 23.2313C76.3191 22.3851 77.0114 21.7441 77.8833 21.3081C78.7806 20.8722 79.7934 20.5773 80.9217 20.4235C82.0499 20.2441 83.2294 20.1542 84.4602 20.1542H88.4217C88.4217 19.2568 88.2806 18.4876 87.9986 17.8467C87.7165 17.1799 87.2679 16.6544 86.6525 16.2698C86.0626 15.8851 85.2934 15.6928 84.3448 15.6928C83.7294 15.6928 83.1525 15.7698 82.614 15.9235C82.1011 16.0518 81.6525 16.2696 81.2679 16.5774C80.9088 16.8594 80.6525 17.2313 80.4986 17.6928H75.691C75.8703 16.6415 76.2294 15.7441 76.7679 15.0005C77.3319 14.2312 78.0114 13.603 78.8063 13.1158C79.6268 12.6287 80.5242 12.2697 81.4986 12.0389C82.473 11.7825 83.4602 11.6543 84.4602 11.6543C87.4088 11.6543 89.5499 12.5005 90.8833 14.1928C92.2422 15.885 92.9217 18.2568 92.9217 21.3081V32.2311H88.7679L88.6525 29.6158C88.0626 30.4876 87.3576 31.1287 86.5371 31.5388C85.7165 31.9491 84.9217 32.2056 84.1525 32.3081C83.3833 32.4364 82.7294 32.5004 82.191 32.5004ZM83.114 28.6927C84.1396 28.6927 85.0499 28.5004 85.8448 28.1158C86.6396 27.7311 87.2679 27.1927 87.7294 26.5004C88.2165 25.8081 88.4602 25.0133 88.4602 24.1158V23.4619H84.7679C84.1525 23.4619 83.5371 23.4876 82.9217 23.5388C82.3319 23.5645 81.7934 23.6671 81.3063 23.8465C80.8191 24.0004 80.4217 24.2441 80.114 24.5773C79.8319 24.9107 79.691 25.385 79.691 26.0004C79.691 26.6158 79.8448 27.1158 80.1525 27.5004C80.4857 27.885 80.9088 28.1799 81.4217 28.385C81.9602 28.5902 82.5242 28.6927 83.114 28.6927Z" fill="var(--fill-0, white)"/>
<path id="Vector_9" d="M64.2953 32.5002C63.321 32.5002 62.3467 32.3978 61.3722 32.1925C60.4236 31.9875 59.5261 31.6541 58.6799 31.1925C57.8338 30.7055 57.1287 30.0516 56.5645 29.231C56.0005 28.4105 55.6287 27.3848 55.4491 26.1541H60.1799C60.3851 26.7182 60.7056 27.1798 61.1415 27.5387C61.603 27.8721 62.1287 28.1285 62.7184 28.3079C63.3338 28.4618 63.9364 28.5387 64.5261 28.5387C64.8851 28.5387 65.2698 28.5131 65.6799 28.4618C66.1159 28.4105 66.5133 28.3079 66.8722 28.1541C67.2568 28.0002 67.5645 27.7824 67.7953 27.5002C68.0261 27.1925 68.1414 26.7951 68.1414 26.3079C68.1414 25.8464 68.0133 25.4875 67.7568 25.2311C67.5005 24.949 67.1544 24.731 66.7184 24.5771C66.2825 24.3978 65.7568 24.2567 65.1414 24.1541C64.039 23.9233 62.8594 23.6798 61.603 23.4233C60.3467 23.1413 59.2568 22.7055 58.3338 22.1156C57.9491 21.8848 57.6159 21.6156 57.3338 21.3079C57.0518 21.0002 56.8082 20.667 56.603 20.3079C56.4236 19.9233 56.2825 19.5131 56.1799 19.0773C56.103 18.6413 56.0645 18.167 56.0645 17.6542C56.0645 16.5773 56.2825 15.667 56.7184 14.9234C57.1799 14.1541 57.7825 13.5388 58.5261 13.0772C59.2953 12.59 60.1671 12.2311 61.1415 12.0003C62.1159 11.7695 63.1159 11.6541 64.1415 11.6541C65.5261 11.6541 66.7825 11.8721 67.9107 12.308C69.039 12.7439 69.9748 13.4106 70.7184 14.308C71.4876 15.2054 71.9491 16.3465 72.103 17.7311H67.6414C67.5133 17.0901 67.1159 16.5773 66.4491 16.1927C65.8082 15.8081 64.9876 15.6158 63.9876 15.6158C63.6287 15.6158 63.2568 15.6542 62.8722 15.7311C62.4876 15.7824 62.1159 15.885 61.7568 16.0387C61.4236 16.167 61.1414 16.3721 60.9107 16.6541C60.7056 16.9362 60.603 17.2824 60.603 17.6927C60.603 18.0773 60.6928 18.4105 60.8722 18.6925C61.0775 18.9747 61.3722 19.2182 61.7568 19.4233C62.1671 19.6028 62.6415 19.7567 63.1799 19.885C64.0518 20.0644 64.9621 20.2439 65.9107 20.4233C66.8594 20.6028 67.6799 20.7824 68.3722 20.9618C69.1928 21.1925 69.9364 21.5259 70.603 21.9618C71.2698 22.3721 71.7825 22.9233 72.1415 23.6156C72.5261 24.2824 72.7184 25.1413 72.7184 26.1927C72.7184 27.4233 72.4621 28.449 71.9491 29.2695C71.4621 30.0901 70.8082 30.731 69.9876 31.1925C69.1671 31.6541 68.2568 31.9875 67.2568 32.1925C66.2568 32.3978 65.2698 32.5002 64.2953 32.5002Z" fill="var(--fill-0, white)"/>
</g>
<defs>
<clipPath id="clip0_0_47">
<rect width="204.615" height="40" fill="white"/>
</clipPath>
</defs>
</svg>
