<svg width="234" height="62" viewBox="0 0 234 62" fill="none" xmlns="http://www.w3.org/2000/svg">
<g clip-path="url(#clip0_880_654)">
<path d="M68.84 59V3H90.76C94.76 3 98.36 3.66666 101.56 5C104.813 6.33333 107.587 8.25333 109.88 10.76C112.173 13.2667 113.933 16.2267 115.16 19.64C116.387 23.0533 117 26.84 117 31C117 35.16 116.387 38.9733 115.16 42.44C113.933 45.8533 112.173 48.8133 109.88 51.32C107.64 53.7733 104.893 55.6667 101.64 57C98.3867 58.3333 94.76 59 90.76 59H68.84ZM77.48 51.56L77.24 50.68H90.36C93.1867 50.68 95.6933 50.2267 97.88 49.32C100.12 48.4133 101.987 47.1333 103.48 45.48C105.027 43.7733 106.2 41.6933 107 39.24C107.8 36.7867 108.2 34.04 108.2 31C108.2 27.96 107.8 25.24 107 22.84C106.2 20.3867 105.027 18.3067 103.48 16.6C101.933 14.8933 100.067 13.5867 97.88 12.68C95.6933 11.7733 93.1867 11.32 90.36 11.32H77L77.48 10.6V51.56ZM137.964 59.8C134.497 59.8 131.324 58.84 128.444 56.92C125.617 55 123.35 52.3867 121.644 49.08C119.937 45.7733 119.084 42.04 119.084 37.88C119.084 33.6667 119.937 29.9333 121.644 26.68C123.404 23.3733 125.75 20.7867 128.684 18.92C131.67 17.0533 135.004 16.12 138.684 16.12C140.87 16.12 142.87 16.44 144.684 17.08C146.497 17.72 148.07 18.6267 149.404 19.8C150.79 20.92 151.91 22.2267 152.764 23.72C153.67 25.2133 154.23 26.8133 154.444 28.52L152.604 27.88V17H160.924V59H152.604V49L154.524 48.44C154.204 49.88 153.537 51.2933 152.524 52.68C151.564 54.0133 150.31 55.2133 148.764 56.28C147.27 57.3467 145.59 58.2 143.724 58.84C141.91 59.48 139.99 59.8 137.964 59.8ZM140.124 52.2C142.63 52.2 144.844 51.5867 146.764 50.36C148.684 49.1333 150.177 47.4533 151.244 45.32C152.364 43.1333 152.924 40.6533 152.924 37.88C152.924 35.16 152.364 32.7333 151.244 30.6C150.177 28.4667 148.684 26.7867 146.764 25.56C144.844 24.3333 142.63 23.72 140.124 23.72C137.67 23.72 135.484 24.3333 133.564 25.56C131.697 26.7867 130.204 28.4667 129.084 30.6C128.017 32.7333 127.484 35.16 127.484 37.88C127.484 40.6533 128.017 43.1333 129.084 45.32C130.204 47.4533 131.697 49.1333 133.564 50.36C135.484 51.5867 137.67 52.2 140.124 52.2ZM167.629 59V17H175.949V30.2L175.149 27C175.735 24.9733 176.722 23.1333 178.109 21.48C179.549 19.8267 181.175 18.52 182.989 17.56C184.855 16.6 186.775 16.12 188.749 16.12C189.655 16.12 190.509 16.2 191.309 16.36C192.162 16.52 192.829 16.7067 193.309 16.92L191.149 25.88C190.509 25.6133 189.789 25.4 188.989 25.24C188.242 25.0267 187.495 24.92 186.749 24.92C185.309 24.92 183.922 25.2133 182.589 25.8C181.309 26.3333 180.162 27.1067 179.149 28.12C178.189 29.08 177.415 30.2267 176.829 31.56C176.242 32.84 175.949 34.2533 175.949 35.8V59H167.629ZM202.614 45.88L202.214 36.92L222.294 17H233.414L202.614 45.88ZM195.094 59V-0.200001H203.334V59H195.094ZM223.414 59L207.574 40.52L213.414 35.16L233.974 59H223.414Z" fill="#262626"/>
<path d="M32.1332 36.2292C32.1231 36.2396 32.1073 36.2448 32.0858 36.2448C24.4245 36.2448 13.7658 36.2522 0.109815 36.2671C0.0806902 36.2671 0.0527608 36.2551 0.0321662 36.2338C0.0115716 36.2125 0 36.1836 0 36.1535V29.3776C0 29.354 0.00907438 29.3314 0.025227 29.3147C0.0413796 29.298 0.063286 29.2886 0.0861293 29.2886C6.87107 29.3309 13.1672 26.6009 17.9755 21.6198C22.7837 16.6364 25.4107 10.1188 25.3569 3.10245C25.3574 3.07959 25.3664 3.05784 25.3821 3.04167C25.3977 3.02551 25.4187 3.01617 25.4408 3.01561L31.9932 3.00002C32.0078 2.99973 32.0223 3.00245 32.0359 3.00802C32.0495 3.01359 32.0618 3.02191 32.0723 3.03248C32.0827 3.04306 32.091 3.05568 32.0966 3.06961C32.1023 3.08353 32.1052 3.09848 32.1052 3.11359C32.1181 17.2354 32.1325 28.2583 32.1483 36.1825C32.1483 36.2033 32.1432 36.2188 32.1332 36.2292Z" fill="#262626"/>
<path d="M26.8668 28.7708C26.8567 28.7812 26.8517 28.7975 26.8517 28.8198C26.8517 36.7424 26.8445 47.7646 26.8302 61.8864C26.8302 61.9166 26.8418 61.9454 26.8624 61.9667C26.883 61.988 26.9109 62 26.94 62H33.4924C33.5152 62 33.5371 61.9906 33.5533 61.9739C33.5695 61.9572 33.5785 61.9346 33.5785 61.9109C33.5376 54.8946 36.1775 48.3837 40.9944 43.4114C45.8134 38.4392 52.116 35.7226 58.9009 35.7782C58.923 35.7777 58.9441 35.7683 58.9597 35.7522C58.9753 35.736 58.9844 35.7143 58.9849 35.6914L59 28.9155C59.0003 28.9004 58.9976 28.8854 58.9922 28.8714C58.9869 28.8573 58.9788 28.8446 58.9686 28.8338C58.9584 28.823 58.9462 28.8144 58.9327 28.8086C58.9192 28.8027 58.9048 28.7997 58.8902 28.7997C45.2342 28.7864 34.5748 28.7715 26.912 28.7552C26.8919 28.7552 26.8768 28.7604 26.8668 28.7708Z" fill="#262626"/>
</g>
<defs>
<clipPath id="clip0_880_654">
<rect width="234" height="62" fill="white"/>
</clipPath>
</defs>
</svg>
