<svg xmlns="http://www.w3.org/2000/svg" width="184" height="208" viewBox="0 0 184 208"><path d="M0 0v-14.497h-4.432v4.832h-4.434v4.833h-4.433V0h-8.868v-33.83h8.868v19.33h4.433v-4.833h4.434v-4.832H0v-9.665h8.868V0zm-70.94 0v-4.832h-4.433v-4.833h-4.434v4.833h-4.433V0h-8.867v-33.83h8.867v19.33h4.433v-9.665h4.434v9.665h4.433v-19.33h8.867V0Zm22.17-.004v-4.833h-4.434v-4.831h-4.433v-14.497h4.433v-4.833h4.434v-4.832h22.17v19.33h-13.3v-4.833h4.434v-9.665h-8.867v4.833h-4.433v14.497h4.433v4.831H-26.6v4.833zm-70.941 0v-4.833h-4.433v-4.831h-4.434v-14.497h4.434v-4.833h4.433v-4.832h22.171v19.33h-13.301v-4.833h4.434v-9.665h-8.868v4.833h-4.433v14.497h4.433v4.831h17.735v4.833z" style="fill:#fff;fill-opacity:1;fill-rule:nonzero;stroke:none" transform="matrix(1.33333 0 0 -1.33333 171.437 162.666)"/><path d="M46.286 149.282h18.891V156H46.286ZM21.201 128.81h12.692v-6.718H21.201ZM39.942 88.068h12.545V81.35H39.942Z" style="fill:#fff;fill-opacity:1;fill-rule:nonzero;stroke:none" transform="matrix(1.33333 0 0 -1.33333 0 208)"/><path d="M21.201 94.744h18.743v-6.718H21.201ZM83.925 149.282h18.89V156h-18.89zM40.123 149.276h6.199v-33.908h-6.199zM15 122.086h6.199v-27.35H15ZM102.813 149.276h6.199v-27.19h-6.199zM96.613 74.613h6.199V60.858h-6.199zM46.286 74.613h6.199V60.858h-6.199zM102.813 60.87h6.199V47.115h-6.199z" style="fill:#fff;fill-opacity:1;fill-rule:nonzero;stroke:none" transform="matrix(1.33333 0 0 -1.33333 0 208)"/><path d="M40.089 60.87h6.199V47.115h-6.199zM109.01 122.118h6.199v-27.19h-6.199zM65.179 149.276h6.199v-20.473h-6.199zM77.724 149.276h6.199v-20.473h-6.199zM33.889 122.118h6.263v-6.787h-6.263zM102.813 94.904h6.263v-6.787h-6.263zM96.613 88.068h6.263v-6.787h-6.263z" style="fill:#fff;fill-opacity:1;fill-rule:nonzero;stroke:none" transform="matrix(1.33333 0 0 -1.33333 0 208)"/><path d="M90.413 81.344h6.263v-6.787h-6.263zM52.487 81.344h6.263v-6.787h-6.263ZM69.902 135.534h9.15v-6.718h-9.15z" style="fill:#fff;fill-opacity:1;fill-rule:nonzero;stroke:none" transform="matrix(1.33333 0 0 -1.33333 0 208)"/></svg>
