<svg width="20" height="20" viewBox="0 0 20 20" fill="none" xmlns="http://www.w3.org/2000/svg">
<path d="M1.69141 9.37508H5.8445C5.90928 7.2547 6.30157 5.32316 6.92211 3.86306C7.26212 3.06305 7.68298 2.37545 8.1822 1.87862C8.18768 1.87316 8.19318 1.86772 8.19869 1.8623C4.66024 2.64274 1.96596 5.67218 1.69141 9.37508Z" fill="white" style="fill:white;fill-opacity:1;"/>
<path d="M1.69141 10.6251C1.96596 14.328 4.66024 17.3574 8.19869 18.1379C8.19318 18.1324 8.18768 18.127 8.1822 18.1215C7.68298 17.6247 7.26212 16.9371 6.92211 16.1371C6.30157 14.677 5.90928 12.7455 5.8445 10.6251H1.69141Z" fill="white" style="fill:white;fill-opacity:1;"/>
<path d="M11.8046 18.1379C15.3431 17.3574 18.0373 14.328 18.3119 10.6251H14.1588C14.094 12.7455 13.7017 14.677 13.0812 16.1371C12.7412 16.9371 12.3203 17.6247 11.8211 18.1215C11.8156 18.127 11.8101 18.1324 11.8046 18.1379Z" fill="white" style="fill:white;fill-opacity:1;"/>
<path d="M18.3119 9.37508C18.0373 5.67218 15.3431 2.64274 11.8046 1.86231C11.8101 1.86772 11.8156 1.87316 11.8211 1.87862C12.3203 2.37545 12.7412 3.06305 13.0812 3.86306C13.7017 5.32316 14.094 7.2547 14.1588 9.37508H18.3119Z" fill="white" style="fill:white;fill-opacity:1;"/>
<path d="M10.9394 2.76462C10.5937 2.4206 10.2774 2.29175 10.0017 2.29175C9.72588 2.29175 9.40964 2.4206 9.06396 2.76462C8.71574 3.11117 8.37344 3.64396 8.07253 4.35199C7.52824 5.63266 7.15966 7.39162 7.09512 9.37508H12.9082C12.8437 7.39162 12.4751 5.63266 11.9308 4.35199C11.6299 3.64396 11.2876 3.11117 10.9394 2.76462Z" fill="white" style="fill:white;fill-opacity:1;"/>
<path d="M11.9308 15.6482C12.4751 14.3675 12.8437 12.6085 12.9082 10.6251L7.09512 10.6251C7.15966 12.6085 7.52824 14.3675 8.07253 15.6482C8.37344 16.3562 8.71574 16.889 9.06396 17.2355C9.40964 17.5796 9.72588 17.7084 10.0017 17.7084C10.2774 17.7084 10.5937 17.5796 10.9394 17.2355C11.2876 16.889 11.6299 16.3562 11.9308 15.6482Z" fill="white" style="fill:white;fill-opacity:1;"/>
</svg>
