<svg width="20" height="20" viewBox="0 0 20 20" fill="none" xmlns="http://www.w3.org/2000/svg">
<path d="M10.0006 1.66675C6.31826 1.66675 3.33316 4.65185 3.33316 8.33415C3.33316 10.4885 4.35558 12.4043 5.93908 13.6221C6.16992 13.7997 6.41278 13.9625 6.66625 14.1091V14.1667H13.3349V14.1091C13.5884 13.9625 13.8312 13.7997 14.062 13.6221C15.6455 12.4043 16.668 10.4885 16.668 8.33415C16.668 4.65185 13.6829 1.66675 10.0006 1.66675Z" fill="white" style="fill:white;fill-opacity:1;"/>
<path d="M6.66625 15.8324V15.4167H13.3349V15.8324C13.3349 17.6739 11.8421 19.1667 10.0006 19.1667C8.15907 19.1667 6.66625 17.6739 6.66625 15.8324Z" fill="white" style="fill:white;fill-opacity:1;"/>
<path d="M2.86426 11.3095L2.4777 10.1205L0.496094 10.7642L0.88265 11.9532L1.47673 11.7595L2.86426 11.3095Z" fill="white" style="fill:white;fill-opacity:1;"/>
<path d="M17.5257 10.1197L17.14 11.3087L17.734 11.5024L19.1208 11.9524L19.5073 10.7634L17.5257 10.1197Z" fill="white" style="fill:white;fill-opacity:1;"/>
<path d="M19.5073 5.90177L19.1208 4.71281L17.734 5.16284L17.14 5.35653L17.5257 6.54549L19.5073 5.90177Z" fill="white" style="fill:white;fill-opacity:1;"/>
<path d="M1.47673 4.90568L0.88265 4.712L0.496094 5.90096L2.4777 6.54468L2.86426 5.35571L1.47673 4.90568Z" fill="white" style="fill:white;fill-opacity:1;"/>
</svg>
