<svg width="221" height="55" viewBox="0 0 221 55" fill="none" xmlns="http://www.w3.org/2000/svg">
<path d="M17.1461 0H0L21.3515 37.0118L29.8937 22.1937L17.1461 0Z" fill="white"/>
<path d="M46.3933 0V0.0643538L44.001 4.14103L52.6048 18.9592L63.5421 0H46.3933Z" fill="url(#paint0_linear_4968_1218)"/>
<path d="M25.0421 7.37543L33.6459 22.1936L31.7713 25.3637L23.229 40.1819L29.8938 51.8299L31.7713 55L40.3107 40.1819L50.7304 22.1936L42.1882 7.37543H25.0421Z" fill="url(#paint1_linear_4968_1218)"/>
<path d="M206.676 9.39294H178.677V45.6073H187.146V16.8384H206.676V9.39294Z" fill="white"/>
<path d="M202.893 24.1661H191.206V31.0128H202.893V24.1661Z" fill="white"/>
<path d="M220.431 20.901H212.504V45.6073H220.431V20.901Z" fill="white"/>
<path d="M220.431 9.39294H212.504V16.8384H220.431V9.39294Z" fill="url(#paint2_linear_4968_1218)"/>
<path d="M99.2224 26.9699C101.164 25.8199 101.959 22.0343 101.959 20.5206V20.459C101.959 17.5241 100.793 14.7094 98.7177 12.6341C96.6424 10.5588 93.8277 9.39294 90.8928 9.39294H75.2856V16.9867H90.2129C91.1267 16.9874 92.0027 17.3509 92.6486 17.9973C93.2944 18.6437 93.6572 19.5201 93.6572 20.4338C93.6572 21.3473 93.2944 22.2234 92.6484 22.8693C92.0025 23.5153 91.1264 23.8781 90.2129 23.8781H75.2856V45.6045H92.6192C95.4475 45.6045 98.16 44.4812 100.16 42.4815C102.16 40.4819 103.284 37.7697 103.285 34.9414V34.919C103.285 32.966 103.285 29.0013 99.2224 26.9699ZM95.2465 34.919C95.2465 35.9498 94.837 36.9383 94.1082 37.6671C93.3794 38.396 92.3908 38.8054 91.3601 38.8054H83.3243V31.0326H91.3601C92.3908 31.0326 93.3794 31.4421 94.1082 32.1709C94.837 32.8998 95.2465 33.8883 95.2465 34.919Z" fill="white"/>
<path d="M127.278 9.39294H136.036L124.29 28.6487V45.6073H116.164V28.6487L127.278 9.39294Z" fill="white"/>
<path d="M141.863 9.39294V45.6045H154.53C159.389 45.6045 164.049 43.6743 167.485 40.2384C170.921 36.8025 172.851 32.1424 172.851 27.2833V26.7517C172.851 24.4724 172.402 22.2155 171.529 20.1098C170.657 18.0042 169.377 16.0912 167.765 14.4802C166.153 12.8691 164.239 11.5916 162.132 10.7206C160.026 9.84965 157.769 9.40231 155.489 9.40415H153.69V16.1753H153.735C156.649 16.1753 159.444 17.3329 161.505 19.3935C163.565 21.4541 164.723 24.2489 164.723 27.163C164.723 28.6731 164.425 30.1685 163.847 31.5637C163.27 32.9589 162.423 34.2267 161.355 35.2945C160.287 36.3624 159.019 37.2094 157.624 37.7873C156.229 38.3653 154.733 38.6627 153.223 38.6627H149.631V9.39294H141.863Z" fill="white"/>
<path d="M113.817 24.5804L122.586 9.39294H105.048L113.817 24.5804Z" fill="url(#paint3_linear_4968_1218)"/>
<defs>
<linearGradient id="paint0_linear_4968_1218" x1="29.6473" y1="45.1484" x2="54.0849" y2="1.51091" gradientUnits="userSpaceOnUse">
<stop stop-color="#FFD41F"/>
<stop offset="1" stop-color="#F8BB37"/>
</linearGradient>
<linearGradient id="paint1_linear_4968_1218" x1="22.9744" y1="41.413" x2="47.412" y2="-2.22727" gradientUnits="userSpaceOnUse">
<stop stop-color="#FFD41F"/>
<stop offset="1" stop-color="#F8BB37"/>
</linearGradient>
<linearGradient id="paint2_linear_4968_1218" x1="216.466" y1="17.0063" x2="216.466" y2="10.0812" gradientUnits="userSpaceOnUse">
<stop stop-color="#FFD41F"/>
<stop offset="1" stop-color="#F8BB37"/>
</linearGradient>
<linearGradient id="paint3_linear_4968_1218" x1="113.82" y1="24.5804" x2="113.82" y2="9.39294" gradientUnits="userSpaceOnUse">
<stop stop-color="#FFD41F"/>
<stop offset="1" stop-color="#F8BB37"/>
</linearGradient>
</defs>
</svg>
