<svg width="1318" height="238" viewBox="0 0 1318 238" fill="none" xmlns="http://www.w3.org/2000/svg">
<path d="M963.198 186.77C955.619 186.77 953.667 181.488 953.667 176.626V129.506H961.897V175.975C961.897 176.435 961.897 176.932 961.935 177.392C961.973 177.851 962.05 178.234 962.165 178.578C962.433 179.153 962.854 179.535 964.002 179.535C965.112 179.535 966.261 179.459 967.371 179.382H968.174V186.579L967.447 186.617C966.031 186.693 964.615 186.77 963.198 186.77Z" fill="black"/>
<path d="M926.184 187.612C912.059 187.612 904.824 175.861 904.824 165.793C904.824 155.765 912.059 144.051 926.184 144.051C940.308 144.051 947.543 155.765 947.543 165.793C947.543 175.861 940.346 187.612 926.184 187.612ZM926.184 180.339C928.595 180.339 930.662 179.688 932.691 178.54C937.361 175.861 939.236 170.502 939.236 165.793C939.236 161.2 937.323 155.65 932.691 153.047C930.777 151.937 928.48 151.286 926.184 151.286C923.887 151.286 921.628 151.937 919.676 153.047C915.083 155.65 913.131 161.2 913.131 165.793C913.131 170.502 915.006 175.861 919.714 178.54C921.705 179.688 923.772 180.339 926.184 180.339Z" fill="black"/>
<path d="M877.342 187.574C863.217 187.574 855.982 175.822 855.982 165.793C855.982 155.765 863.217 144.051 877.342 144.051C886.146 144.051 892.538 148.683 895.907 154.961C897.132 157.219 897.897 159.592 898.433 161.966L898.624 162.731H890.127L890.012 162.195L889.897 161.698C888.978 158.329 887.217 154.922 883.849 153.047C881.897 151.937 879.638 151.286 877.342 151.286C875.045 151.286 872.787 151.937 870.834 153.047C866.241 155.611 864.289 161.2 864.289 165.793C864.289 170.425 866.241 175.937 870.834 178.54C872.825 179.65 875.007 180.301 877.342 180.301C879.715 180.301 881.859 179.65 883.849 178.54C887.294 176.626 888.94 173.258 889.897 169.851L890.012 169.392L890.127 168.894H898.624L898.242 170.425C896.098 179.114 889.591 187.574 877.342 187.574Z" fill="black"/>
<path d="M828.498 187.612C814.373 187.612 807.139 175.861 807.139 165.793C807.139 155.765 814.373 144.051 828.498 144.051C842.623 144.051 849.857 155.765 849.857 165.793C849.857 175.861 842.661 187.612 828.498 187.612ZM828.498 180.339C830.909 180.339 832.977 179.688 835.005 178.54C839.675 175.861 841.551 170.502 841.551 165.793C841.551 161.2 839.637 155.65 835.005 153.047C833.091 151.937 830.795 151.286 828.498 151.286C826.201 151.286 823.943 151.937 821.991 153.047C817.397 155.65 815.445 161.2 815.445 165.793C815.445 170.502 817.321 175.861 822.029 178.54C824.019 179.688 826.086 180.339 828.498 180.339Z" fill="black"/>
<path d="M796.115 186.77C788.536 186.77 786.583 181.526 786.583 176.626V151.286H778.354V144.051H786.583V127.707H794.813V144.051H803.311V151.286H794.813V175.975C794.813 176.511 794.813 177.009 794.851 177.507C794.89 177.966 794.966 178.349 795.081 178.655C795.349 179.153 795.808 179.535 797.186 179.535C798.947 179.535 800.746 179.497 802.507 179.382H803.349V186.502L802.622 186.54C800.44 186.655 798.296 186.77 796.115 186.77Z" fill="black"/>
<path d="M756.227 187.612C742.103 187.612 734.868 175.861 734.868 165.793C734.868 155.765 742.103 144.051 756.227 144.051C770.352 144.051 777.587 155.765 777.587 165.793C777.587 175.861 770.39 187.612 756.227 187.612ZM756.227 180.339C758.639 180.339 760.706 179.688 762.735 178.54C767.405 175.861 769.28 170.502 769.28 165.793C769.28 161.2 767.366 155.65 762.735 153.047C760.821 151.937 758.524 151.286 756.227 151.286C753.931 151.286 751.672 151.937 749.72 153.047C745.127 155.65 743.175 161.2 743.175 165.793C743.175 170.502 745.05 175.861 749.758 178.54C751.749 179.688 753.816 180.339 756.227 180.339Z" fill="black"/>
<path d="M721.434 160.09V186.693H713.204V144.051H721.434V145.927C724.956 144.319 729.128 144.051 732.917 144.051H733.683V151.209H731.731C728.515 151.209 725.721 151.669 723.807 153.659C722.314 155.229 721.434 158.023 721.434 160.09Z" fill="black"/>
<path d="M672.666 183.248V203H664.437V144.051H672.666V148.3C676.226 145.583 680.82 144.013 685.719 144.013C699.882 144.013 707.079 155.765 707.079 165.794C707.079 175.822 699.844 187.574 685.719 187.574C680.781 187.574 676.226 185.966 672.666 183.248ZM685.719 180.301C688.054 180.301 690.274 179.65 692.227 178.54C696.858 175.899 698.772 170.463 698.772 165.794C698.772 161.124 696.897 155.688 692.227 153.047C690.274 151.937 688.054 151.248 685.719 151.248C683.384 151.248 681.202 151.937 679.212 153.047C674.542 155.688 672.666 161.124 672.666 165.794C672.666 170.502 674.542 175.861 679.25 178.54C681.241 179.689 683.308 180.301 685.719 180.301Z" fill="black"/>
<path d="M1289.87 66.7832V93.3866H1281.64V50.7446H1289.87V52.6203C1292.89 51.2805 1296.56 50.7446 1299.82 50.7446C1305.18 50.7446 1309.85 51.7781 1313.48 55.4529C1316.81 58.7831 1318 62.9171 1318 67.0512V93.3866H1309.77V68.0847C1309.77 61.9984 1307.59 57.9027 1299.82 57.9027C1296.76 57.9027 1294.04 58.4386 1292.24 60.3525C1290.75 61.9602 1289.87 64.6779 1289.87 66.7832Z" fill="black"/>
<path d="M1254.15 94.3053C1240.03 94.3053 1232.79 82.5539 1232.79 72.4867C1232.79 62.4578 1240.03 50.7446 1254.15 50.7446C1268.28 50.7446 1275.51 62.4578 1275.51 72.4867C1275.51 82.5539 1268.32 94.3053 1254.15 94.3053ZM1254.15 87.0325C1256.56 87.0325 1258.63 86.3817 1260.66 85.2334C1265.33 82.5539 1267.21 77.1949 1267.21 72.4867C1267.21 67.8933 1265.29 62.343 1260.66 59.74C1258.75 58.63 1256.45 57.9792 1254.15 57.9792C1251.86 57.9792 1249.6 58.63 1247.64 59.74C1243.05 62.343 1241.1 67.8933 1241.1 72.4867C1241.1 77.1949 1242.97 82.5539 1247.68 85.2334C1249.67 86.3817 1251.74 87.0325 1254.15 87.0325Z" fill="black"/>
<path d="M1221.31 45.9981C1217.98 45.9981 1216.03 43.4717 1216.03 41.1368C1216.03 38.7252 1217.9 36.1989 1221.31 36.1989C1224.72 36.1989 1226.67 38.7252 1226.67 41.1368C1226.67 43.51 1224.6 45.9981 1221.31 45.9981ZM1217.21 50.7446H1225.44V93.3866H1217.21V50.7446Z" fill="black"/>
<path d="M1200.41 93.4632C1192.83 93.4632 1190.88 88.2191 1190.88 83.3194V57.9792H1182.65V50.7446H1190.88V34.3998H1199.11V50.7446H1207.61V57.9792H1199.11V82.6687C1199.11 83.2046 1199.11 83.7022 1199.15 84.1998C1199.18 84.6592 1199.26 85.042 1199.38 85.3482C1199.64 85.8458 1200.1 86.2286 1201.48 86.2286C1203.24 86.2286 1205.04 86.1903 1206.8 86.0755H1207.64V93.1952L1206.92 93.2335C1204.74 93.3483 1202.59 93.4632 1200.41 93.4632Z" fill="black"/>
<path d="M1158.99 94.2671C1144.87 94.2671 1137.63 82.5156 1137.63 72.4867C1137.63 62.4578 1144.87 50.7446 1158.99 50.7446C1167.8 50.7446 1174.19 55.3763 1177.56 61.6539C1178.78 63.9124 1179.55 66.2856 1180.09 68.6589L1180.28 69.4244H1171.78L1171.66 68.8885L1171.55 68.3909C1170.63 65.0224 1168.87 61.6157 1165.5 59.74C1163.55 58.63 1161.29 57.9792 1158.99 57.9792C1156.7 57.9792 1154.44 58.63 1152.49 59.74C1147.89 62.3047 1145.94 67.8933 1145.94 72.4867C1145.94 77.1184 1147.89 82.6304 1152.49 85.2334C1154.48 86.3434 1156.66 86.9942 1158.99 86.9942C1161.37 86.9942 1163.51 86.3434 1165.5 85.2334C1168.95 83.3195 1170.59 79.951 1171.55 76.5442L1171.66 76.0849L1171.78 75.5872H1180.28L1179.89 77.1184C1177.75 85.8075 1171.24 94.2671 1158.99 94.2671Z" fill="black"/>
<path d="M1110.57 94.3053C1103.95 94.3053 1097.9 92.3914 1095.14 86.8411C1094.23 84.9654 1093.84 82.9367 1093.84 80.9462C1093.84 74.3623 1097.94 69.7307 1104.37 68.3144C1105.71 68.0081 1107.05 67.8167 1108.43 67.7019C1109.77 67.5871 1111.11 67.5105 1112.41 67.434L1123.28 66.745C1123.24 60.9649 1120.45 57.9027 1113.33 57.9027C1106.24 57.9027 1103.45 60.8501 1103.37 66.477H1095.14C1095.3 57.1754 1101.27 50.7446 1113.33 50.7446C1125.5 50.7446 1131.51 57.4051 1131.51 66.8981V93.3866H1123.28V90.8986C1119.68 93.3101 1115.2 94.3053 1110.57 94.3053ZM1110.57 87.109C1118.3 87.109 1123.28 83.0132 1123.28 76.6208V73.8264L1116.69 74.2475C1114.74 74.4006 1112.75 74.4772 1110.8 74.6686C1109.23 74.8217 1106.86 75.0896 1105.67 75.5872C1103.11 76.659 1102.15 78.4964 1102.15 80.9462C1102.15 85.3482 1105.33 87.109 1110.57 87.109Z" fill="black"/>
<path d="M1071.14 93.9225C1063.49 93.9225 1057.52 90.1713 1055.37 84.085C1054.87 82.5539 1054.65 81.061 1054.57 79.5682L1054.49 78.1902H1062.65L1062.72 78.7643L1062.88 80.0275C1063.41 84.085 1066.17 86.6114 1071.14 86.6114C1074.09 86.6114 1077.5 85.6927 1078.65 83.6257C1079.07 82.8984 1079.3 82.0946 1079.3 81.329C1079.3 79.4916 1078.57 78.3816 1076.69 77.5012C1075.66 77.0035 1074.36 76.6208 1072.94 76.3145C1071.49 76.0466 1070.03 75.8169 1068.77 75.549C1060.58 73.9796 1054.61 71.5297 1054.61 63.3765C1054.61 59.8931 1056.25 56.8692 1059.24 54.4576C1062.57 51.7781 1066.51 50.7446 1071.03 50.7446C1078.72 50.7446 1084.66 54.4576 1086.8 60.5439C1087.3 62.0367 1087.53 63.5296 1087.6 65.0607L1087.68 66.4387H1079.33L1079.37 65.788C1079.49 61.3477 1076.54 58.0558 1071.03 58.0558C1068.04 58.0558 1064.75 58.8979 1063.56 61.0415C1063.14 61.7688 1062.88 62.5343 1062.88 63.2999C1062.88 65.1373 1063.56 66.2473 1065.48 67.1277C1066.63 67.6636 1067.89 68.0081 1069.27 68.2761C1070.65 68.5823 1072.06 68.7737 1073.4 69.0034C1081.59 70.5728 1087.56 73.214 1087.56 81.2524C1087.56 84.6975 1085.88 87.798 1082.93 90.2096C1079.68 92.8125 1075.55 93.9225 1071.14 93.9225Z" fill="black"/>
<path d="M1017.94 66.7832V93.3866H1009.71V50.7446H1017.94V52.6203C1020.96 51.2805 1024.64 50.7446 1027.89 50.7446C1033.25 50.7446 1037.92 51.7781 1041.55 55.4529C1044.88 58.7831 1046.07 62.9171 1046.07 67.0512V93.3866H1037.84V68.0847C1037.84 61.9984 1035.66 57.9027 1027.89 57.9027C1024.83 57.9027 1022.11 58.4386 1020.31 60.3525C1018.82 61.9602 1017.94 64.6779 1017.94 66.7832Z" fill="black"/>
<path d="M980.348 94.3053C973.726 94.3053 967.678 92.3914 964.922 86.8411C964.003 84.9654 963.62 82.9367 963.62 80.9462C963.62 74.3623 967.716 69.7307 974.147 68.3144C975.486 68.0081 976.826 67.8167 978.204 67.7019C979.544 67.5871 980.884 67.5105 982.185 67.434L993.056 66.745C993.018 60.9649 990.224 57.9027 983.104 57.9027C976.022 57.9027 973.228 60.8501 973.151 66.477H964.922C965.075 57.1754 971.046 50.7446 983.104 50.7446C995.276 50.7446 1001.29 57.4051 1001.29 66.8981V93.3866H993.056V90.8986C989.458 93.3101 984.979 94.3053 980.348 94.3053ZM980.348 87.109C988.08 87.109 993.056 83.0132 993.056 76.6208V73.8264L986.472 74.2475C984.52 74.4006 982.53 74.4772 980.577 74.6686C979.008 74.8217 976.635 75.0896 975.448 75.5872C972.883 76.659 971.927 78.4964 971.927 80.9462C971.927 85.3482 975.104 87.109 980.348 87.109Z" fill="black"/>
<path d="M947.504 66.7832V93.3866H939.274V50.7446H947.504V52.6203C951.026 51.0126 955.198 50.7446 958.988 50.7446H959.753V57.9027H957.801C954.586 57.9027 951.791 58.362 949.878 60.3525C948.385 61.9219 947.504 64.7162 947.504 66.7832Z" fill="black"/>
<path d="M923.657 93.4632C916.078 93.4632 914.125 88.2191 914.125 83.3194V57.9792H905.896V50.7446H914.125V34.3998H922.355V50.7446H930.853V57.9792H922.355V82.6687C922.355 83.2046 922.355 83.7022 922.393 84.1998C922.432 84.6592 922.508 85.042 922.623 85.3482C922.891 85.8458 923.35 86.2286 924.728 86.2286C926.489 86.2286 928.288 86.1903 930.049 86.0755H930.891V93.1952L930.164 93.2335C927.982 93.3483 925.839 93.4632 923.657 93.4632Z" fill="black"/>
<path d="M869.532 93.4632C861.953 93.4632 860 88.2191 860 83.3194V57.9792H851.771V50.7446H860V34.3998H868.23V50.7446H876.728V57.9792H868.23V82.6687C868.23 83.2046 868.23 83.7022 868.268 84.1998C868.307 84.6592 868.383 85.042 868.498 85.3482C868.766 85.8458 869.225 86.2286 870.603 86.2286C872.364 86.2286 874.163 86.1903 875.924 86.0755H876.766V93.1952L876.039 93.2335C873.857 93.3483 871.713 93.4632 869.532 93.4632Z" fill="black"/>
<path d="M817.511 66.7832V93.3866H809.281V50.7446H817.511V52.6203C820.535 51.2805 824.21 50.7446 827.463 50.7446C832.822 50.7446 837.492 51.7781 841.129 55.4529C844.459 58.7831 845.646 62.9171 845.646 67.0512V93.3866H837.416V68.0847C837.416 61.9984 835.234 57.9027 827.463 57.9027C824.401 57.9027 821.683 58.4386 819.884 60.3525C818.391 61.9602 817.511 64.6779 817.511 66.7832Z" fill="black"/>
<path d="M778.928 94.3053C764.612 94.3053 756.994 82.8601 756.994 72.4867C756.994 62.1133 764.612 50.7446 778.928 50.7446C793.244 50.7446 800.823 62.1516 800.823 72.4867C800.823 73.3288 800.746 74.1327 800.631 74.9365L800.555 75.5107H765.568C766.602 81.5587 771.157 87.0325 778.928 87.0325C784.095 87.0325 788 84.5826 790.296 80.7931C790.679 80.2189 790.947 79.6065 791.215 78.9557C791.445 78.4198 791.636 77.8839 791.866 77.3863L799.636 79.683C799.56 79.9892 799.445 80.2572 799.33 80.5634C798.756 82.018 798.067 83.4343 797.186 84.774C793.435 90.4392 787.004 94.3053 778.928 94.3053ZM765.836 68.1995H791.942C790.564 62.6492 786.086 57.9792 778.928 57.9792C771.731 57.9792 767.329 62.6492 765.836 68.1995Z" fill="black"/>
<path d="M730.545 109.77C727.291 109.77 724.305 109.31 721.32 108.124C714.965 105.559 711.942 101.349 710.334 95.913L710.104 95.0709L709.874 94.2671H718.678L718.755 94.8412C718.946 96.2958 719.827 97.6738 720.975 98.8987C723.234 101.349 726.908 102.535 730.698 102.535C738.851 102.535 742.679 96.9848 742.679 90.5923V89.9416C739.119 92.7359 734.679 94.3053 729.588 94.3053C715.463 94.3053 708.229 82.5539 708.229 72.4867C708.229 62.4578 715.463 50.7446 729.588 50.7446C734.679 50.7446 739.119 52.314 742.679 55.0701V51.625H750.871V89.3674C750.871 99.6643 744.976 109.77 730.545 109.77ZM729.588 87.0325C731.999 87.0325 734.066 86.3817 736.095 85.2334C740.765 82.5539 742.641 77.1949 742.641 72.4867C742.641 67.8933 740.727 62.343 736.095 59.74C734.181 58.63 731.884 57.9792 729.588 57.9792C727.291 57.9792 725.033 58.63 723.08 59.74C718.487 62.343 716.535 67.8933 716.535 72.4867C716.535 77.1949 718.411 82.5539 723.119 85.2334C725.109 86.3817 727.176 87.0325 729.588 87.0325Z" fill="black"/>
<path d="M681.164 94.3053C674.542 94.3053 668.494 92.3914 665.738 86.8411C664.819 84.9654 664.437 82.9367 664.437 80.9462C664.437 74.3623 668.532 69.7307 674.963 68.3144C676.303 68.0081 677.643 67.8167 679.021 67.7019C680.36 67.5871 681.7 67.5105 683.001 67.434L693.873 66.745C693.834 60.9649 691.04 57.9027 683.92 57.9027C676.839 57.9027 674.044 60.8501 673.968 66.477H665.738C665.891 57.1754 671.863 50.7446 683.92 50.7446C696.093 50.7446 702.102 57.4051 702.102 66.8981V93.3866H693.873V90.8986C690.274 93.3101 685.796 94.3053 681.164 94.3053ZM681.164 87.109C688.896 87.109 693.873 83.0132 693.873 76.6208V73.8264L687.289 74.2475C685.336 74.4006 683.346 74.4772 681.394 74.6686C679.824 74.8217 677.451 75.0896 676.265 75.5872C673.7 76.659 672.743 78.4964 672.743 80.9462C672.743 85.3482 675.92 87.109 681.164 87.109Z" fill="black"/>
<path d="M55.1774 190.334C19.9224 190.334 0.000976562 173.069 0.000976562 146.749C0.000976562 128.88 10.0221 111.252 35.0144 105.578C39.2402 104.612 43.5867 104.008 47.9332 103.646C52.159 103.284 56.3847 103.042 60.6105 102.801L91.8811 100.869C91.1567 86.2597 84.0333 77.8082 63.7496 77.8082C42.8623 77.8082 35.8596 86.3805 35.6181 102.076H4.106C4.46821 73.7032 22.6994 51.2463 63.7496 51.2463C105.645 51.2463 123.514 74.9105 123.514 103.404V187.437H91.8811V182.124C81.0149 187.799 68.2169 190.334 55.1774 190.334ZM55.1774 163.531C78.6002 163.531 91.8811 151.095 91.8811 133.347V127.189L74.4951 128.276C68.4583 128.638 62.3008 129 56.264 129.604C51.5553 130.087 44.5526 130.811 41.2927 132.139C34.1693 135.158 31.7546 140.229 31.7546 146.749C31.7546 158.581 39.7231 163.531 55.1774 163.531Z" fill="black"/>
<path d="M188.82 187.678C162.137 187.678 156.101 169.085 156.101 154.113V78.0495H130.384V51.2461H156.101V0.778381H187.613V51.2461H214.175V78.0495H187.613V152.061C187.613 153.63 187.613 155.2 187.733 156.649C188.096 160.271 188.458 160.874 192.08 160.874C195.943 160.874 199.686 160.754 203.429 160.633C205.24 160.633 206.93 160.392 208.621 160.392H214.295V186.712L211.518 186.833C203.912 187.195 196.426 187.678 188.82 187.678Z" fill="black"/>
<path d="M416.838 51.257L363.639 119.283L416.838 187.308H376.014L322.815 119.283L376.015 51.257H416.838Z" fill="black"/>
<path d="M228.793 51.257L281.992 119.283L228.793 187.308H269.617L322.816 119.283L269.617 51.257H228.793Z" fill="black"/>
<path d="M462.834 179.589V237.783H431.322V51.2462H462.834V61.6295C473.58 54.989 486.619 51.1255 500.746 51.1255C548.678 51.1255 570.289 90.7269 570.289 120.669C570.289 150.612 548.557 190.213 500.746 190.213C486.619 190.213 473.58 186.229 462.834 179.589ZM500.746 163.169C507.386 163.169 513.785 161.358 519.218 158.218C533.103 150.491 538.536 133.95 538.536 120.669C538.536 107.268 533.224 90.8477 519.218 83.1206C513.664 79.9814 507.386 77.9289 500.746 77.9289C494.105 77.9289 487.706 79.9814 482.152 83.1206C468.147 90.8477 462.834 107.389 462.834 120.669C462.834 134.192 468.147 150.25 482.273 158.218C487.947 161.478 493.743 163.169 500.746 163.169Z" fill="black"/>
</svg>
