<?xml version="1.0" encoding="utf-8"?>
<!-- Generator: Adobe Illustrator 26.5.3, SVG Export Plug-In . SVG Version: 6.00 Build 0)  -->
<svg version="1.1" id="Layer_1" xmlns="http://www.w3.org/2000/svg" xmlns:xlink="http://www.w3.org/1999/xlink" x="0px" y="0px"
	 viewBox="0 0 101.3 36.1" style="enable-background:new 0 0 101.3 36.1;" xml:space="preserve">
<style type="text/css">
	.st0{fill:#FFFFFF;}
</style>
<path class="st0" d="M41.2,18.9c-0.8-0.4-1.2-0.8-1.2-1.3c0-0.6,0.5-1,1.4-1c0.7,0,1.3,0.2,1.9,0.4l0.7-2.2c0,0-0.7-0.5-2.6-0.5
	c-2.7,0-4.6,1.5-4.6,3.7c0,1.2,0.9,2.2,2,2.9c0.9,0.5,1.3,0.9,1.3,1.5s-0.5,1.1-1.4,1.1c-1.3,0-2.5-0.7-2.5-0.7l-0.8,2.2
	c0,0,1.1,0.8,3.1,0.8c2.8,0,4.8-1.4,4.8-3.8C43.5,20.5,42.4,19.6,41.2,18.9L41.2,18.9z M52.3,14.3c-1.4,0-2.5,0.6-3.3,1.6l0,0
	l1.2-6.2h-3.1l-3,15.8h3.1l1-5.4c0.4-2,1.5-3.3,2.5-3.3c0.7,0,1,0.5,1,1.1c0,0.5,0,0.9-0.1,1.4l-1.2,6.2h3.1l1.2-6.4
	c0.1-0.7,0.2-1.3,0.2-2C54.8,15.3,53.9,14.3,52.3,14.3L52.3,14.3z M61.8,14.3c-3.7,0-6.2,3.4-6.2,7.1c0,2.4,1.5,4.3,4.3,4.3
	c3.7,0,6.1-3.3,6.1-7.1C66.1,16.4,64.8,14.3,61.8,14.3L61.8,14.3z M60.3,23.3c-1.1,0-1.5-0.9-1.5-2c0-1.8,0.9-4.7,2.6-4.7
	c1.1,0,1.5,0.9,1.5,1.9C62.9,20.4,62,23.3,60.3,23.3L60.3,23.3z M74,14.3c-2.1,0-3.3,1.8-3.3,1.8h0l0.2-1.6h-2.7l-0.6,4.1l-2.2,11.3
	h3.1l0.9-4.6h0.1c0,0,0.6,0.4,1.8,0.4c3.6,0,6-3.7,6-7.5C77.2,16.1,76.2,14.3,74,14.3L74,14.3z M71,23.4c-0.5,0-0.9-0.2-1.3-0.5
	l0.5-2.9c0.4-1.9,1.4-3.2,2.4-3.2c0.9,0,1.2,0.9,1.2,1.7C73.9,20.5,72.8,23.4,71,23.4L71,23.4z M81.6,9.8c-0.5,0-0.9,0.2-1.3,0.5
	s-0.5,0.8-0.5,1.3c0,0.9,0.6,1.5,1.5,1.5h0c1,0,1.8-0.7,1.8-1.7c0,0,0-0.1,0-0.1C83.2,10.5,82.5,9.8,81.6,9.8L81.6,9.8z M77.3,25.5
	h3.1l2.1-11h-3.1 M90.4,14.5h-2.2l0.1-0.5c0.2-1.1,0.8-2,1.8-2c0.3,0,0.7,0.1,1,0.1l0.6-2.4c0,0-0.6-0.3-1.7-0.3c-1.1,0-2.2,0.3-3,1
	c-1.1,0.9-1.6,2.2-1.8,3.5l-0.1,0.5h-1.4l-0.5,2.3h1.4L83,25.5h3.1l1.6-8.7h2.1L90.4,14.5L90.4,14.5z M97.8,14.5L95,22.1h0l-0.8-7.5
	h-3.3l1.9,10.1c0,0.2,0,0.4-0.1,0.5c-0.4,0.7-1,1.4-1.7,1.9c-0.5,0.4-1.1,0.7-1.7,0.9l0.9,2.6c1.1-0.3,2.2-0.9,3-1.7
	c1.4-1.3,2.7-3.4,4.1-6.2l3.8-8.1L97.8,14.5L97.8,14.5z"/>
<path class="st0" d="M27.8,7.1L27.8,7.1c0-0.2-0.2-0.3-0.3-0.3c-0.1,0-2.9-0.2-2.9-0.2l-2.1-2.1c-0.2-0.2-0.6-0.1-0.8-0.1
	c0,0-0.4,0.1-1.1,0.3C20.1,2.9,19,1.3,17,1.3h-0.2c-0.6-0.7-1.3-1.1-1.8-1.1c-4.6,0-6.8,5.7-7.5,8.7l-3.2,1c-1,0.3-1,0.3-1.2,1.3
	L0.5,31.9l20.2,3.8l11-2.4C31.7,33.3,27.8,7.3,27.8,7.1z M16.2,2.7c0.3,1,0.5,2,0.5,3.1V6l-3.5,1.1C13.8,4.5,15.1,3.2,16.2,2.7
	L16.2,2.7z M14.9,1.4L14.9,1.4c0.2,0,0.4,0.1,0.6,0.2c-1.5,0.7-3,2.4-3.7,5.9L8.9,8.4C9.7,5.8,11.6,1.4,14.9,1.4z M17,12.9l-1.4,4
	c-0.8-0.4-1.7-0.6-2.6-0.6c-2.1,0-2.2,1.3-2.2,1.7c0,1.8,4.8,2.5,4.8,6.8c0,3.4-2.2,5.6-5,5.6c-3.5,0-5.3-2.2-5.3-2.2l0.9-3.1
	c0,0,1.8,1.6,3.4,1.6c0.8,0,1.4-0.6,1.4-1.3c0,0,0,0,0-0.1c0-2.4-3.9-2.5-3.9-6.4c0-3.3,2.4-6.5,7.2-6.5C16.1,12.4,17,12.9,17,12.9
	L17,12.9z M17.9,5.6V5.3c0-0.9-0.1-1.9-0.4-2.8c1,0.2,1.7,1.3,2.1,2.6C19.1,5.3,18.5,5.4,17.9,5.6z"/>
</svg>
