<svg width="1809" height="449" viewBox="0 0 1809 449" fill="none" xmlns="http://www.w3.org/2000/svg">
<g>
<path d="M242.703 13.6519C364.164 13.6519 465.16 114.971 471.445 253.261C465.14 253.253 456.965 253.253 447.483 253.249C424.726 253.242 394.389 253.238 364.054 253.249C333.715 253.261 303.367 253.283 280.613 253.296C269.237 253.304 259.755 253.305 253.119 253.309C249.803 253.311 247.194 253.32 245.416 253.321H13.9364C19.962 109.741 120.885 13.6519 242.703 13.6519Z" stroke="#F9FAFB" stroke-width="27.3041" stroke-linejoin="round"/>
<mask id="mask0_2_70" style="mask-type:alpha" maskUnits="userSpaceOnUse" x="-1" y="297" width="487" height="31">
<g>
<path d="M15.1687 312.479H470.236" stroke="url(#paint0_linear_2_70)" stroke-width="30.3378" stroke-linecap="square"/>
</g>
</mask>
<g mask="url(#mask0_2_70)">
<path d="M485.405 230.57C485.405 230.718 242.702 230.567 242.702 230.567L-0.000282288 230.57C-0.000282288 364.611 108.661 473.273 242.702 473.273C376.743 473.273 485.405 364.611 485.405 230.57Z" fill="#F9FAFB"/>
</g>
<mask id="mask1_2_70" style="mask-type:alpha" maskUnits="userSpaceOnUse" x="48" y="339" width="389" height="110">
<g>
<path d="M436.865 339.785C436.865 339.848 242.703 339.784 242.703 339.784L48.5404 339.785C48.5404 396.554 135.469 449 242.703 449C349.936 449 436.865 396.554 436.865 339.785Z" fill="url(#paint1_linear_2_70)"/>
</g>
</mask>
<g mask="url(#mask1_2_70)">
<path d="M42.1411 433.831H443.274" stroke="#F9FAFB" stroke-width="30.3378" stroke-linecap="square"/>
<path d="M40.624 374.672H444.791" stroke="#F9FAFB" stroke-width="27.3041" stroke-linecap="square"/>
</g>
<path d="M757.204 219.434L710.146 222.329C709.342 218.308 707.612 214.688 704.957 211.47C702.303 208.172 698.803 205.557 694.46 203.627C690.196 201.616 685.088 200.61 679.136 200.61C671.172 200.61 664.455 202.3 658.986 205.679C653.515 208.976 650.78 213.4 650.78 218.951C650.78 223.375 652.55 227.115 656.089 230.172C659.629 233.229 665.702 235.683 674.31 237.533L707.854 244.29C725.872 247.99 739.306 253.943 748.155 262.148C757.004 270.353 761.427 281.133 761.427 294.485C761.427 306.632 757.848 317.29 750.688 326.461C743.61 335.631 733.876 342.79 721.488 347.939C709.18 353.007 694.983 355.54 678.895 355.54C654.36 355.54 634.813 350.433 620.253 340.216C605.773 329.919 597.287 315.923 594.793 298.226L645.351 295.571C646.878 303.052 650.58 308.764 656.452 312.706C662.324 316.566 669.845 318.497 679.015 318.497C688.025 318.497 695.265 316.767 700.734 313.309C706.285 309.769 709.1 305.224 709.18 299.674C709.1 295.008 707.129 291.188 703.268 288.211C699.407 285.154 693.454 282.822 685.41 281.213L653.314 274.817C635.215 271.197 621.741 264.924 612.893 255.995C604.124 247.066 599.741 235.683 599.741 221.846C599.741 209.942 602.958 199.685 609.393 191.078C615.91 182.471 625.039 175.835 636.783 171.169C648.609 166.503 662.444 164.17 678.291 164.17C701.7 164.17 720.121 169.118 733.555 179.012C747.069 188.907 754.952 202.38 757.204 219.434ZM912.646 273.008V166.584H964.048V351.92H914.698V318.256H912.768C908.585 329.115 901.627 337.844 891.893 344.439C882.239 351.036 870.455 354.334 856.54 354.334C844.151 354.334 833.251 351.519 823.839 345.887C814.428 340.256 807.067 332.253 801.758 321.875C796.53 311.498 793.875 299.071 793.795 284.591V166.584H845.197V275.421C845.277 286.36 848.214 295.008 854.005 301.363C859.797 307.718 867.56 310.895 877.293 310.895C883.487 310.895 889.279 309.488 894.668 306.672C900.057 303.777 904.402 299.512 907.7 293.882C911.079 288.251 912.728 281.293 912.646 273.008ZM1056.57 244.773V351.92H1005.16V166.584H1054.15V199.283H1056.33C1060.43 188.504 1067.31 179.978 1076.96 173.703C1086.61 167.347 1098.32 164.17 1112.07 164.17C1124.94 164.17 1136.16 166.986 1145.74 172.617C1155.31 178.247 1162.75 186.292 1168.06 196.75C1173.37 207.126 1176.02 219.514 1176.02 233.914V351.92H1124.62V243.083C1124.7 231.741 1121.8 222.892 1115.93 216.538C1110.06 210.102 1101.98 206.885 1091.68 206.885C1084.76 206.885 1078.65 208.373 1073.34 211.349C1068.11 214.326 1064.01 218.669 1061.03 224.381C1058.13 230.012 1056.65 236.809 1056.57 244.773ZM1216.53 351.92V166.584H1266.36V198.921H1268.3C1271.68 187.418 1277.34 178.73 1285.32 172.858C1293.28 166.906 1302.44 163.929 1312.83 163.929C1315.4 163.929 1318.17 164.09 1321.15 164.412C1324.12 164.734 1326.73 165.176 1328.99 165.74V211.349C1326.58 210.625 1323.24 209.982 1318.98 209.419C1314.71 208.856 1310.81 208.574 1307.27 208.574C1299.71 208.574 1292.95 210.223 1287 213.522C1281.13 216.739 1276.46 221.243 1273 227.035C1269.63 232.827 1267.94 239.504 1267.94 247.066V351.92H1216.53ZM1355.57 351.92V166.584H1406.97V351.92H1355.57ZM1381.39 142.692C1373.75 142.692 1367.19 140.159 1361.72 135.091C1356.33 129.943 1353.64 123.79 1353.64 116.63C1353.64 109.551 1356.33 103.478 1361.72 98.4099C1367.19 93.2616 1373.75 90.6875 1381.39 90.6875C1389.04 90.6875 1395.54 93.2616 1400.94 98.4099C1406.4 103.478 1409.14 109.551 1409.14 116.63C1409.14 123.79 1406.4 129.943 1400.94 135.091C1395.54 140.159 1389.04 142.692 1381.39 142.692ZM1602.35 219.434L1555.29 222.329C1554.49 218.308 1552.76 214.688 1550.11 211.47C1547.45 208.172 1543.95 205.557 1539.61 203.627C1535.34 201.616 1530.24 200.61 1524.28 200.61C1516.32 200.61 1509.6 202.3 1504.14 205.679C1498.66 208.976 1495.92 213.4 1495.92 218.951C1495.92 223.375 1497.69 227.115 1501.24 230.172C1504.78 233.229 1510.85 235.683 1519.45 237.533L1552.99 244.29C1571.01 247.99 1584.45 253.943 1593.31 262.148C1602.15 270.353 1606.57 281.133 1606.57 294.485C1606.57 306.632 1602.99 317.29 1595.83 326.461C1588.76 335.631 1579.02 342.79 1566.63 347.939C1554.33 353.007 1540.13 355.54 1524.04 355.54C1499.5 355.54 1479.96 350.433 1465.4 340.216C1450.92 329.919 1442.43 315.923 1439.94 298.226L1490.5 295.571C1492.03 303.052 1495.73 308.764 1501.6 312.706C1507.47 316.566 1514.99 318.497 1524.16 318.497C1533.18 318.497 1540.41 316.767 1545.88 313.309C1551.43 309.769 1554.24 305.224 1554.33 299.674C1554.24 295.008 1552.28 291.188 1548.42 288.211C1544.55 285.154 1538.6 282.822 1530.56 281.213L1498.46 274.817C1480.36 271.197 1466.88 264.924 1458.04 255.995C1449.27 247.066 1444.88 235.683 1444.88 221.846C1444.88 209.942 1448.11 199.685 1454.54 191.078C1461.06 182.471 1470.18 175.835 1481.93 171.169C1493.75 166.503 1507.6 164.17 1523.43 164.17C1546.84 164.17 1565.26 169.118 1578.7 179.012C1592.21 188.907 1600.1 202.38 1602.35 219.434ZM1723.41 355.54C1704.34 355.54 1687.92 351.679 1674.17 343.957C1660.5 336.154 1649.97 325.133 1642.56 310.895C1635.16 296.577 1631.46 279.644 1631.46 260.096C1631.46 241.032 1635.16 224.3 1642.56 209.902C1649.97 195.502 1660.38 184.281 1673.81 176.236C1687.33 168.192 1703.18 164.17 1721.36 164.17C1733.58 164.17 1744.96 166.141 1755.5 170.083C1766.12 173.944 1775.37 179.776 1783.26 187.579C1791.22 195.382 1797.41 205.196 1801.84 217.02C1806.25 228.765 1808.47 242.52 1808.47 258.287V272.404H1651.97V240.549H1760.08C1760.08 233.149 1758.48 226.592 1755.26 220.882C1752.05 215.171 1747.58 210.706 1741.86 207.488C1736.23 204.19 1729.68 202.541 1722.19 202.541C1714.39 202.541 1707.47 204.351 1701.44 207.971C1695.5 211.511 1690.82 216.297 1687.45 222.329C1684.06 228.283 1682.34 234.918 1682.26 242.238V272.525C1682.26 281.696 1683.94 289.619 1687.33 296.295C1690.79 302.972 1695.65 308.12 1701.93 311.74C1708.2 315.36 1715.64 317.17 1724.24 317.17C1729.96 317.17 1735.19 316.366 1739.94 314.757C1744.68 313.147 1748.75 310.735 1752.12 307.517C1755.5 304.3 1758.08 300.357 1759.85 295.692L1807.38 298.829C1804.97 310.252 1800.03 320.227 1792.54 328.753C1785.14 337.199 1775.58 343.796 1763.83 348.542C1752.17 353.208 1738.69 355.54 1723.41 355.54Z" fill="#FAFAFA"/>
</g>
<defs>
<linearGradient id="paint0_linear_2_70" x1="nan" y1="nan" x2="nan" y2="nan" gradientUnits="userSpaceOnUse">
<stop stop-color="#6993B1"/>
<stop offset="1" stop-color="#270D46"/>
</linearGradient>
<linearGradient id="paint1_linear_2_70" x1="242.703" y1="339.784" x2="242.703" y2="442.576" gradientUnits="userSpaceOnUse">
<stop stop-color="#F7A887"/>
<stop offset="1" stop-color="#FE9393"/>
</linearGradient>
</defs>
</svg>
