<svg width="18" height="18" viewBox="0 0 18 18" fill="none" xmlns="http://www.w3.org/2000/svg"><g clip-path="url(#xm4k9w2p)" fill="#fff"><path d="M9.5614 11.2498h-1.125v2.25h1.125v-2.25Zm2.8125-1.125h-1.125v3.375h1.125v-3.375Zm-5.625-2.25004h-1.125v5.62504h1.125V7.87476Z"/><path d="M14.0614 2.81226h-1.6875v-.5625c0-.29837-.1185-.58452-.3295-.7955-.211-.21098-.4971-.3295-.7955-.3295h-4.5c-.29837 0-.58452.11852-.79549.3295-.21098.21098-.32951.49713-.32951.7955v.5625H3.9364c-.29837 0-.58452.11852-.79549.3295-.21098.21098-.32951.49713-.32951.7955V15.7498c0 .2983.11853.5845.32951.7955.21097.2109.49712.3295.79549.3295h10.125c.2984 0 .5845-.1186.7955-.3295.211-.211.3295-.4972.3295-.7955V3.93726c0-.29837-.1185-.58452-.3295-.7955-.211-.21098-.4971-.3295-.7955-.3295Zm-7.3125-.5625h4.5v2.25h-4.5v-2.25Zm7.3125 13.50004H3.9364V3.93726h1.6875v1.6875h6.75v-1.6875h1.6875V15.7498Z"/></g><defs><clipPath id="xm4k9w2p"><rect width="18" height="18" fill="#fff" transform="translate(-.00109863 -.00024414)"/></clipPath></defs></svg>