<svg width="32" height="33" viewBox="0 0 32 33" fill="none" xmlns="http://www.w3.org/2000/svg">
<ellipse cx="18.6667" cy="9.83331" rx="4" ry="4" stroke="white" style="stroke:white;stroke-opacity:1;" stroke-width="2"/>
<path d="M17.1057 5.83335C16.5566 4.27976 15.0749 3.16669 13.3333 3.16669C11.1242 3.16669 9.33331 4.95755 9.33331 7.16669C9.33331 9.37583 11.1242 11.1667 13.3333 11.1667C13.883 11.1667 14.4068 11.0558 14.8835 10.8552" stroke="white" style="stroke:white;stroke-opacity:1;" stroke-width="2"/>
<path d="M5.33331 27.1667H6.66665C6.66665 27.1667 11.4622 28.8202 14.6666 28.5001C18.0885 28.1583 23.6373 24.9996 25.7817 23.7106C26.3386 23.3758 26.6666 22.7733 26.6666 22.1235C26.6666 20.8492 25.4382 19.9352 24.2177 20.3014L14.6666 23.1667" stroke="white" style="stroke:white;stroke-opacity:1;" stroke-width="2" stroke-linecap="square"/>
<path d="M5.33331 19.8333L10.5544 18.093C11.0683 17.9217 11.6117 17.8565 12.1515 17.9015L18.6763 18.4452C19.0272 18.4745 19.2753 18.8016 19.2088 19.1474C18.8756 20.8803 17.6071 22.2845 15.9168 22.7916L14.6666 23.1667" stroke="white" style="stroke:white;stroke-opacity:1;" stroke-width="2" stroke-linecap="square"/>
</svg>
