<svg width="422" height="647" viewBox="0 0 422 647" fill="none" xmlns="http://www.w3.org/2000/svg">
<g clip-path="url(#clip0_142_159)">
<rect width="422" height="647" rx="16" fill="#051537"/>
<rect opacity="0.3" x="-10.5" y="-6.5" width="443" height="660" fill="#0F0A16"/>
<g clip-path="url(#clip1_142_159)">
<mask id="mask0_142_159" style="mask-type:alpha" maskUnits="userSpaceOnUse" x="-233" y="82" width="1440" height="693">
<path d="M1207 82H-233V775H1207V82Z" fill="url(#paint0_linear_142_159)"/>
</mask>
<g mask="url(#mask0_142_159)">
<path d="M741.459 625.934C741.267 625.934 741.113 625.784 741.074 625.595L734.261 553.337L726.563 480.136L719.288 433.121L712.513 403.916L706.239 388.898L700.542 383.578L696.962 383.314L648.731 377.201L602.27 370.598L555.886 361.693L509.58 351.618L463.35 341.393L417.159 331.809L371.044 323.507L325.007 316.942C324.815 316.904 324.661 316.715 324.699 316.527C324.738 316.338 324.93 316.187 325.123 316.225L371.16 322.79L417.313 331.092L463.504 340.676L509.772 350.939L556.079 361.014L602.424 369.918L602.809 369.956L648.846 376.522L650.848 376.748L697.077 382.634L700.773 382.899C700.85 382.899 700.965 382.936 701.004 383.012L706.854 388.483C706.893 388.521 706.931 388.558 706.931 388.596L713.244 403.727C713.244 403.765 713.244 403.765 713.244 403.802L720.019 433.045L727.294 480.098L734.992 553.337L741.806 625.633C741.883 625.746 741.729 625.934 741.459 625.934C741.498 625.934 741.498 625.934 741.459 625.934Z" fill="#1CE7C2"/>
<path d="M216.766 625.935C216.728 625.935 216.689 625.935 216.651 625.935C216.458 625.859 216.343 625.671 216.42 625.444L235.05 569.864L253.988 513.19L270.964 461.496L286.245 410.519L300.141 367.542L312.921 336.035C312.921 336.035 312.921 335.997 312.959 335.997L324.776 316.376C324.892 316.188 325.123 316.15 325.315 316.225C325.508 316.338 325.546 316.565 325.469 316.754L313.691 336.337L300.911 367.806L287.015 410.746L271.734 461.722L254.758 513.416L235.82 570.09L217.189 625.671C217.074 625.859 216.92 625.935 216.766 625.935Z" fill="#1CE7C2"/>
<path d="M284.589 625.934C284.551 625.934 284.512 625.934 284.512 625.934C284.32 625.897 284.166 625.67 284.243 625.482L296.715 576.429L312.304 515.868L326.315 463.458L338.941 413.764L350.45 372.597L361.036 342.411V342.374L370.774 322.979C370.774 322.941 370.813 322.941 370.813 322.904L379.782 311.886C379.897 311.735 380.167 311.697 380.321 311.81C380.475 311.923 380.513 312.188 380.398 312.338L371.467 323.319L361.767 342.638L351.22 372.786L339.711 413.952L327.085 463.646L313.074 516.057L297.484 576.618L285.013 625.67C284.936 625.821 284.782 625.934 284.589 625.934Z" fill="#1CE7C2"/>
<path d="M350.568 625.935C350.529 625.935 350.529 625.935 350.491 625.935C350.298 625.897 350.144 625.708 350.183 625.482L358.497 580.505L370.738 516.246L381.785 463.496L391.755 415.839L400.839 377.39L409.153 349.505V349.468L416.814 331.243C416.814 331.243 416.813 331.205 416.852 331.205L423.896 319.847L430.363 311.131L436.291 299.698L441.757 282.568L446.838 265.097L451.572 251.476C451.572 251.438 451.572 251.438 451.611 251.4L456.037 243.778C456.114 243.665 456.191 243.628 456.307 243.59L475.322 240.798C475.553 240.76 475.746 240.911 475.746 241.099C475.784 241.288 475.63 241.514 475.438 241.514L456.615 244.269L452.265 251.702L447.531 265.248L442.45 282.719L436.984 299.887C436.984 299.925 436.984 299.925 436.945 299.962L430.979 311.471L430.94 311.509L424.474 320.225L417.468 331.545L409.846 349.732L401.532 377.578L392.448 415.99L382.478 463.647L371.431 516.359L359.19 580.618L350.876 625.595C350.914 625.821 350.76 625.935 350.568 625.935Z" fill="#1CE7C2"/>
<path d="M415.35 625.935H415.311C415.119 625.897 414.965 625.708 414.965 625.52L420.469 581.938L429.438 514.284L437.522 461.647L444.835 416.669L451.456 381.767L457.538 357.089L463.081 340.864V340.827L468.162 329.884L472.819 319.81L477.092 305.207L481.057 283.624L484.752 262.192L488.216 246.344C488.216 246.306 488.216 246.306 488.255 246.269L491.45 238.571C491.527 238.383 491.758 238.269 491.95 238.383C492.143 238.458 492.258 238.684 492.143 238.873L488.948 246.533L485.522 262.343L481.827 283.775L477.862 305.358V305.396L473.551 320.036C473.551 320.036 473.551 320.074 473.512 320.074L468.855 330.148L463.774 341.091L458.231 357.278L452.187 381.918L445.567 416.783L438.253 461.722L430.169 514.321L421.201 581.938L415.696 625.52C415.696 625.821 415.542 625.935 415.35 625.935Z" fill="#1CE7C2"/>
<path d="M1352.19 492.965C1352.11 492.965 1352.03 492.965 1351.99 492.927L1312.35 469.797L1256.88 471.533L1201.68 469.948L1146.79 465.495L1092.13 458.704C1092.05 458.704 1091.98 458.666 1091.94 458.59L1067.22 436.63L1015.49 430.14L963.79 422.593L860.71 406.406L809.21 398.973L757.859 392.936L706.548 389.049L655.353 388.219L604.273 389.125L553.309 388.257L502.498 385.88L451.804 382.333L401.224 377.956L350.76 373.088L300.412 368.032L250.179 363.127L200.062 358.674L150.06 354.939L100.212 352.184C99.981 352.184 99.827 351.996 99.865 351.769C99.865 351.543 100.058 351.392 100.289 351.43L150.137 354.184L200.139 357.92L250.256 362.372L300.489 367.24L350.837 372.258L401.301 377.126L451.842 381.503L502.498 385.049L553.309 387.427L604.235 388.294L655.314 387.389L706.548 388.219L757.897 392.105L809.28 398.18L860.75 405.614L912.25 413.726L963.83 421.839L1015.53 429.385L1067.38 435.875C1067.46 435.875 1067.53 435.913 1067.57 435.988L1092.28 457.949L1146.79 464.741L1201.64 469.193L1256.8 470.778L1312.35 469.042C1312.42 469.042 1312.5 469.042 1312.54 469.08L1352.19 492.172L1411.35 484.626C1411.43 484.626 1411.46 484.626 1411.54 484.664L1415.35 486.097C1415.54 486.173 1415.66 486.399 1415.58 486.588C1415.51 486.777 1415.27 486.89 1415.08 486.814L1411.39 485.418L1352.19 492.965Z" fill="#1CE7C2"/>
<path d="M-9.88001 625.935C-9.95701 625.935 -10.034 625.897 -10.111 625.859C-10.265 625.746 -10.303 625.482 -10.188 625.331L18.027 590.353L50.669 541.263L79.693 495.38L105.521 447.686L128.655 397.199L149.749 354.373C149.749 354.373 149.749 354.335 149.788 354.335L169.265 324.602C169.304 324.564 169.304 324.526 169.342 324.526L187.434 309.131C187.472 309.094 187.549 309.056 187.626 309.056L197.865 307.132C198.058 307.094 198.288 307.245 198.327 307.433C198.365 307.622 198.212 307.848 198.019 307.886L187.895 309.773L169.919 325.055L150.481 354.712L129.387 397.501L106.214 448.025L80.347 495.757L51.324 541.678L18.682 590.806L-9.57201 625.784C-9.64901 625.897 -9.76401 625.935 -9.88001 625.935Z" fill="#1CE7C2"/>
<path d="M1411.46 485.418C1411.39 485.418 1411.35 485.418 1411.31 485.38L1368.39 464.363L1312.5 469.797C1312.42 469.797 1312.31 469.797 1312.23 469.721L1276.62 445.007L1244.56 420.216L1194.44 421.159H1144.36L1094.48 420.103L1044.78 417.914L995.24 414.632L945.85 410.33L896.62 405.236L847.51 399.614H847.47L835.46 396.445L788.65 392.634C788.61 392.634 788.61 392.634 788.57 392.634L779.64 390.407L748.542 387.728L735.108 386.747L715.015 384.936L705.815 383.917L700.58 383.427L695.268 382.71L691.188 382.559L651.386 380.144L603.27 377.05L554.693 371.767L506.23 365.051L457.845 357.58L409.537 350.033L361.306 342.864L313.19 336.525L265.189 331.356L217.304 327.545C217.074 327.545 216.92 327.356 216.958 327.13C216.958 326.941 217.15 326.752 217.381 326.79L265.266 330.601L313.305 335.77L361.421 342.11L409.652 349.279L457.961 356.825L506.346 364.296L554.808 371.013L603.347 376.295L652.002 379.427L691.226 381.842L695.345 381.993L700.657 382.71L705.853 383.2L715.053 384.219L735.146 386.03L748.58 387.011L779.72 389.69C779.76 389.69 779.76 389.69 779.8 389.69L788.73 391.917L835.54 395.728C835.57 395.728 835.57 395.728 835.61 395.728L847.62 398.897L896.74 404.482L945.97 409.576L995.36 413.839L1044.86 417.122L1094.55 419.311L1144.4 420.367H1194.44L1244.67 419.424C1244.75 419.424 1244.87 419.462 1244.9 419.499L1277.05 444.365L1312.5 468.967L1368.35 463.533C1368.43 463.533 1368.5 463.533 1368.54 463.571L1411.46 484.55L1415.12 483.796C1415.31 483.758 1415.54 483.871 1415.58 484.098C1415.62 484.286 1415.5 484.513 1415.27 484.55L1411.46 485.343C1411.5 485.38 1411.5 485.418 1411.46 485.418Z" fill="#1CE7C2"/>
<path d="M737.995 387.2C737.956 387.2 737.956 387.2 737.918 387.2L735.031 386.747L723.214 385.125L690.302 381.05L645.805 373.918L601.384 364.825L557.002 353.694L512.697 341.845L468.431 330.45L424.203 320.451L380.013 312.489C379.821 312.452 379.667 312.263 379.705 312.037C379.744 311.848 379.936 311.697 380.167 311.735L424.357 319.696L468.623 329.733L512.928 341.129L557.233 352.977L601.577 364.145L645.959 373.239L690.418 380.371L723.291 384.446L735.108 386.068L737.995 386.521C738.187 386.559 738.341 386.747 738.303 386.936C738.341 387.087 738.149 387.2 737.995 387.2Z" fill="#1CE7C2"/>
<path d="M-397.192 625.934C-397.307 625.934 -397.423 625.859 -397.499 625.746C-397.615 625.557 -397.576 625.331 -397.384 625.217L-361.778 602.389L-303.808 558.318L-252.806 514.925L-207.346 475.494C-207.269 475.419 -207.153 475.381 -207.076 475.381L-150.069 476.777L-92.907 477.721L-35.438 481.871L22.263 488.059L80.117 495.153L138.087 502.134L196.173 508.246L254.374 512.85L312.69 515.491L371.16 515.868L429.823 513.868L488.717 509.529L547.842 503.039L607.236 494.813L666.938 485.456L726.91 479.607L787.04 478.626L847.28 481.343L907.59 486.625L967.99 493.455C968.18 493.493 968.34 493.681 968.34 493.87C968.3 494.059 968.14 494.247 967.91 494.21L907.52 487.38L847.24 482.098L787.04 479.381L726.987 480.362L667.053 486.173L607.351 495.493L547.919 503.869L488.755 510.359L429.862 514.699L371.16 516.698L312.652 516.321L254.297 513.68L196.057 509.076L137.933 502.964L79.963 495.945L22.109 488.889L-35.591 482.701L-93.061 478.551L-150.184 477.607L-207.038 476.211L-252.344 515.529L-303.385 558.959L-361.393 603.068L-396.999 625.897C-397.076 625.934 -397.115 625.934 -397.192 625.934Z" fill="#1CE7C2"/>
<path d="M-328.598 625.934C-328.713 625.934 -328.829 625.859 -328.906 625.784C-329.021 625.595 -328.983 625.368 -328.79 625.255L-294.108 602.578L-240.103 559.789L-192.642 516.774C-192.565 516.698 -192.488 516.661 -192.372 516.661L-132.016 517.755L-71.236 523.075L-10.186 531.301L51.055 541.111L112.413 551.413L173.885 561.185L235.435 569.637L297.1 576.165L358.881 580.278L420.854 581.636L483.02 580.165L545.455 575.863L608.198 568.92L671.249 559.827L734.608 552.96L798.2 549.79L861.94 549.337L925.88 550.658L989.97 552.922L1054.25 555.374L1118.8 557.299L1183.62 558.091C1183.86 558.091 1184.01 558.28 1184.01 558.469C1184.01 558.657 1183.82 558.846 1183.62 558.846L1118.8 558.053L1054.25 556.129L989.97 553.676L925.88 551.413L861.98 550.092L798.27 550.545L734.646 553.676L671.326 560.544L608.275 569.637L545.532 576.58L483.058 580.882L420.854 582.353L358.843 580.995L297.023 576.882L235.32 570.354L173.731 561.902L112.259 552.129L50.901 541.828L-10.34 532.018L-71.351 523.792L-132.093 518.472L-192.257 517.415L-239.603 560.355L-293.646 603.182L-328.367 625.897C-328.444 625.934 -328.521 625.934 -328.598 625.934Z" fill="#1CE7C2"/>
<path d="M165.032 310.603C164.84 310.603 164.686 310.452 164.647 310.263C164.609 310.075 164.763 309.886 164.994 309.848L173.732 308.981L198.021 306.83L204.41 305.924C204.603 305.886 204.834 306.037 204.834 306.226C204.872 306.415 204.718 306.641 204.526 306.641L198.098 307.584L173.77 309.735L165.032 310.603Z" fill="#1CE7C2"/>
<path d="M285.398 303.207C285.244 303.207 285.09 303.132 285.052 302.981C284.975 302.792 285.052 302.566 285.244 302.49L286.438 302L316.116 289.246L350.951 275.021L385.941 262.267L421.085 251.627L456.383 243.59L460.501 242.231C460.694 242.156 460.925 242.269 461.002 242.458C461.079 242.646 460.963 242.873 460.771 242.948L456.614 244.307L421.316 252.344L419.545 252.872L386.211 262.947L385.71 263.135L351.259 275.663L316.462 289.888L285.629 303.132C285.514 303.207 285.475 303.207 285.398 303.207Z" fill="#1CE7C2"/>
<path d="M-165.465 350.071C-165.542 350.071 -165.619 350.071 -165.658 349.996C-165.85 349.883 -165.888 349.656 -165.773 349.467L-149.452 323.922L-128.666 291.925C-128.666 291.925 -128.666 291.887 -128.628 291.887L-108.688 268.003L-89.865 244.684L-71.889 225.214L-71.851 225.176L-54.606 211.97C-54.568 211.932 -54.529 211.932 -54.529 211.932L-37.939 205.367C-37.9 205.367 -37.862 205.329 -37.823 205.329L-21.849 204.159C-21.81 204.159 -21.81 204.159 -21.772 204.159L-6.52902 205.631L19.184 206.348L44.974 209.253L57.985 205.668C58.023 205.668 58.1 205.668 58.139 205.668L83.39 208.385L108.603 212.46L119.727 207.253C119.804 207.215 119.881 207.215 119.958 207.215L144.709 211.328L169.498 215.63L194.249 219.516L219 222.233L230.47 222.573L238.4 222.686L246.214 222.761C246.445 222.761 246.599 222.95 246.599 223.139C246.599 223.365 246.406 223.516 246.214 223.516L238.4 223.44L230.432 223.327L218.923 222.988L194.133 220.271L169.344 216.384L144.555 212.083L119.92 208.008L108.795 213.215C108.718 213.253 108.641 213.253 108.564 213.253L83.236 209.178L58.1 206.461L45.09 210.045C45.051 210.045 44.974 210.045 44.936 210.045L19.069 207.14L-6.64401 206.423L-21.887 204.951L-37.746 206.121L-54.26 212.649L-71.35 225.78L-89.288 245.174L-108.111 268.493L-128.05 292.378L-148.836 324.375L-165.119 349.92C-165.196 350.033 -165.311 350.071 -165.465 350.071Z" fill="#1CE7C2"/>
<path d="M-19.541 325.96C-19.618 325.96 -19.695 325.96 -19.734 325.922C-19.926 325.809 -19.965 325.583 -19.849 325.394L-4.41397 300.302L-4.37497 300.264L12.331 281.171L28.19 264.871C28.267 264.795 28.382 264.758 28.498 264.758L58.022 267.852L87.391 269.701L100.941 261.664C101.018 261.626 101.095 261.588 101.172 261.626L129.964 264.795L158.68 266.229L170.151 263.814L180.967 260.117L191.168 253.815L200.791 244.193L209.875 230.949C209.875 230.912 209.914 230.912 209.914 230.874L218.69 222.384C218.767 222.308 218.844 222.271 218.959 222.271L227.505 222.308C227.736 222.308 227.89 222.497 227.89 222.686C227.89 222.912 227.736 223.063 227.505 223.063L219.113 223.025L210.452 231.402L201.368 244.646L201.33 244.684L191.668 254.381C191.63 254.419 191.63 254.419 191.591 254.419L181.314 260.758C181.275 260.758 181.275 260.796 181.237 260.796L170.343 264.531H170.305L158.757 266.946C158.718 266.946 158.68 266.946 158.641 266.946L129.887 265.512L101.21 262.381L87.661 270.418C87.584 270.455 87.507 270.493 87.43 270.455L57.906 268.606L28.575 265.512L12.831 281.662L-3.83597 300.717L-19.272 325.809C-19.272 325.885 -19.426 325.96 -19.541 325.96Z" fill="#1CE7C2"/>
<path d="M145.631 625.934C145.554 625.934 145.516 625.934 145.439 625.897C145.246 625.783 145.169 625.557 145.285 625.406L148.48 619.369L173.461 561.374L195.749 508.548L215.688 457.949L233.587 406.444L249.908 362.636L264.92 330.827C264.92 330.79 264.958 330.79 264.958 330.752L278.854 311.81C278.893 311.772 278.931 311.735 278.97 311.697L291.826 303.584C291.865 303.547 291.903 303.547 291.98 303.547L299.563 302.302L300.487 302.037C300.526 302.037 300.526 302.037 300.564 302.037L304.336 301.811L311.188 301.207L324.93 297.547L363.846 289.548L402.955 284.379L442.179 282.303L481.518 283.36L520.935 287.322L560.39 293.698L599.845 301.736L639.338 310.452L678.87 318.979L718.44 326.903L758.049 333.884L797.74 339.732L837.54 344.298L877.41 347.543L917.41 349.543C917.49 349.543 917.6 349.581 917.64 349.656L930.73 361.504L944.7 376.446L988.16 372.182L1031.92 367.579C1032.04 367.579 1032.12 367.579 1032.19 367.654L1051.29 382.785L1072.07 400.029L1094.74 419.461L1119.61 441.082L1147.02 464.854L1177.43 490.625L1211.26 518.095L1272.58 519.604C1272.66 519.604 1272.73 519.642 1272.81 519.679L1314.46 554.28L1314.5 554.318L1360.84 603.182L1381.59 625.331C1381.75 625.482 1381.71 625.708 1381.55 625.859C1381.4 626.01 1381.17 625.972 1381.01 625.821L1360.27 603.672L1313.92 554.808L1272.39 520.321L1211.07 518.811C1210.99 518.811 1210.92 518.774 1210.84 518.736L1176.89 491.191L1146.48 465.382L1119.03 441.61L1094.17 419.99L1071.5 400.557L1050.75 383.314L1031.77 368.296L988.16 372.862L944.51 377.163C944.39 377.163 944.28 377.125 944.2 377.05L930.11 361.957L917.14 350.26L877.26 348.26L837.34 345.015L797.58 340.487L757.857 334.638L718.209 327.658L678.639 319.734L639.107 311.206L599.614 302.49L560.159 294.453L520.742 288.076L481.403 284.114L442.14 283.058L402.993 285.133L363.961 290.265L325.084 298.264L311.342 301.924C311.304 301.924 311.304 301.924 311.265 301.924L304.375 302.528L300.603 302.754L299.679 303.018H299.64L292.134 304.226L279.393 312.263L265.574 331.129L250.562 362.862L234.28 406.632L216.381 458.213L196.441 508.85L174.154 561.713L149.134 619.746L145.939 625.783C145.901 625.859 145.747 625.934 145.631 625.934Z" fill="#1CE7C2"/>
<path d="M-4.10501 300.83L-35.169 300.453L-66.233 298.83L-97.296 296.076L-128.36 292.529L-159.385 288.529L-190.41 284.643L-221.32 281.473C-221.512 281.436 -221.666 281.285 -221.666 281.058C-221.628 280.87 -221.474 280.681 -221.243 280.719L-190.333 283.888L-159.308 287.775L-128.283 291.774L-97.219 295.321L-66.156 298.076L-35.131 299.698L-4.10501 300.076L26.92 299.095L57.983 296.831L89.085 293.435L120.226 289.209L151.443 284.53L182.738 279.926L214.109 275.172L245.558 269.512L276.968 263.701L285.86 254.419C285.937 254.344 286.014 254.306 286.091 254.306L316.769 251.023L324.429 248.269L331.666 246.042L338.479 241.816C338.518 241.779 338.595 241.779 338.633 241.741L366.925 239.175L395.333 238.873L423.817 241.1L445.643 244.722C445.835 244.76 445.989 244.948 445.951 245.175C445.912 245.363 445.72 245.514 445.489 245.477L423.702 241.854L395.294 239.666L366.964 239.968L338.787 242.533L332.012 246.759C331.974 246.759 331.935 246.797 331.935 246.797L324.66 249.023L317 251.778C316.962 251.778 316.923 251.778 316.923 251.816L286.322 255.098L277.43 264.381C277.391 264.456 277.314 264.494 277.237 264.494L245.712 270.342L214.263 276.04L182.853 280.794L151.559 285.398L120.341 290.076L89.162 294.303L58.06 297.698L26.958 299.962L-4.10501 300.83Z" fill="#1CE7C2"/>
<path d="M28.46 265.475H28.421L-1.10299 261.286L-30.626 256.306L-60.15 250.834L-89.636 245.326L-119.083 240.269C-119.275 240.232 -119.429 240.043 -119.391 239.817C-119.352 239.628 -119.16 239.477 -118.929 239.515L-89.482 244.571L-59.996 250.08L-30.472 255.551L-0.948997 260.532L28.383 264.682L43.318 251.325C43.395 251.25 43.549 251.212 43.664 251.25L72.457 256.985L101.095 261.588L126.231 248.948C126.308 248.91 126.424 248.91 126.501 248.91L153.869 255.476L181.16 260.041L208.336 261.815L217.767 255.891L226.735 246.005L235.204 232.119C235.204 232.081 235.242 232.081 235.242 232.044L243.441 223.063C243.595 222.912 243.826 222.912 243.98 223.026C244.134 223.176 244.134 223.403 244.019 223.554L235.858 232.496L227.39 246.382C227.39 246.42 227.351 246.42 227.351 246.457L218.344 256.381C218.306 256.419 218.306 256.419 218.267 256.457L208.682 262.456C208.605 262.494 208.528 262.532 208.451 262.532L181.122 260.72H181.083L153.715 256.155L126.462 249.589L101.326 262.23C101.249 262.267 101.172 262.267 101.095 262.267L72.303 257.664L43.664 251.966L28.729 265.324C28.652 265.437 28.575 265.475 28.46 265.475Z" fill="#1CE7C2"/>
<path d="M177.619 625.934C177.58 625.934 177.58 625.934 177.542 625.934L148.749 619.897L83.466 605.332L18.298 590.919L-46.716 577.825L-111.5 567.411L-175.744 561.148L-225.592 602.955C-225.592 602.955 -225.63 602.955 -225.63 602.993L-259.196 625.859C-259.388 625.972 -259.619 625.934 -259.735 625.746C-259.85 625.557 -259.812 625.331 -259.619 625.218L-226.054 602.389L-176.09 560.468C-176.013 560.393 -175.898 560.355 -175.821 560.393L-111.384 566.694L-46.562 577.108L18.49 590.202L83.697 604.615L148.98 619.143L177.773 625.18C177.965 625.218 178.119 625.406 178.081 625.633C177.965 625.821 177.811 625.934 177.619 625.934Z" fill="#1CE7C2"/>
<path d="M75.7289 316.225C75.6519 316.225 75.5749 316.225 75.5369 316.187C75.3439 316.074 75.3059 315.848 75.4209 315.659L88.8169 293.661C88.8169 293.623 88.8549 293.623 88.8549 293.585L103.098 278.832C103.136 278.794 103.136 278.794 103.175 278.756L116.801 270.191L116.84 270.153L129.773 264.758L142.052 260.381L153.6 255.475L164.493 248.834L174.771 239.665L184.51 227.478C184.51 227.44 184.548 227.44 184.548 227.44L193.94 219.629C194.017 219.554 194.094 219.554 194.21 219.554L203.332 219.743C203.563 219.743 203.717 219.931 203.717 220.12C203.717 220.346 203.525 220.497 203.332 220.497L194.364 220.309L185.125 228.006L175.387 240.194L175.348 240.231L164.994 249.438L164.955 249.476L154.023 256.155C154.023 256.155 153.985 256.155 153.985 256.192L142.399 261.135L130.119 265.512L117.224 270.908L103.675 279.436L89.4709 294.114L76.0759 316.112C75.9989 316.187 75.8449 316.225 75.7289 316.225Z" fill="#1CE7C2"/>
<path d="M13.563 321.696C13.486 321.696 13.409 321.696 13.371 321.658C13.178 321.545 13.14 321.319 13.255 321.13L26.651 299.283C26.651 299.245 26.689 299.245 26.689 299.245L42.587 281.662L57.753 267.927L72.149 257.022L85.853 248.344L98.863 241.062L111.181 234.232C111.258 234.194 111.373 234.156 111.489 234.194L138.203 242.005C138.395 242.08 138.51 242.269 138.472 242.458C138.395 242.646 138.203 242.76 138.01 242.722L111.45 234.949L99.286 241.703L86.314 248.985L72.688 257.626L58.33 268.493L43.241 282.152L27.382 299.698L13.987 321.508C13.794 321.658 13.679 321.696 13.563 321.696Z" fill="#1CE7C2"/>
<path d="M69.878 625.934C69.801 625.934 69.724 625.897 69.685 625.859C69.493 625.746 69.454 625.519 69.57 625.331L83.235 604.766L112.027 551.563L137.663 502.36L160.566 453.119L181.045 401.84L199.752 358.108L216.997 326.941C217.112 326.752 217.343 326.677 217.536 326.79C217.728 326.903 217.805 327.13 217.69 327.318L200.445 358.448L181.776 402.104L161.259 453.421L138.356 502.737L112.682 551.941L83.851 605.181L70.186 625.783C70.109 625.897 69.993 625.934 69.878 625.934Z" fill="#1CE7C2"/>
<path d="M2.09397 206.197L-14.766 205.291H-16.845L-21.849 204.914L-29.316 204.763L-48.178 204.574L-60.88 203.971L-64.922 203.669C-65.153 203.669 -65.307 203.48 -65.269 203.254C-65.269 203.027 -65.076 202.876 -64.845 202.914L-60.803 203.216L-48.101 203.82L-29.278 204.008L-21.772 204.159L-16.768 204.537H-14.728L2.13198 205.442L10.177 205.254L21.494 202.499L34.466 198.386C34.504 198.386 34.543 198.348 34.581 198.386L58.524 198.537L82.582 200.273L106.717 203.291C106.909 203.329 107.063 203.518 107.063 203.706C107.025 203.895 106.832 204.046 106.64 204.046L103.329 203.631L82.543 201.027L58.524 199.292L34.658 199.141L21.725 203.254L10.331 206.046C10.293 206.046 10.293 206.046 10.254 206.046L2.09397 206.197Z" fill="#1CE7C2"/>
<path d="M43.548 251.966C43.51 251.966 43.51 251.966 43.471 251.966L14.64 245.476L-14.191 238.647C-14.383 238.609 -14.537 238.383 -14.46 238.194C-14.422 238.005 -14.191 237.854 -13.998 237.93L14.794 244.759L43.433 251.212L57.636 240.722C57.636 240.722 57.675 240.722 57.675 240.684L71.34 232.61L96.745 220.007C96.822 219.969 96.938 219.969 97.015 219.969L123.036 226.723C123.228 226.761 123.382 226.987 123.305 227.176C123.267 227.365 123.036 227.516 122.843 227.44L96.976 220.724L71.725 233.251L58.098 241.288L43.779 251.853C43.702 251.966 43.625 251.966 43.548 251.966Z" fill="#1CE7C2"/>
<path d="M-386.797 365.919C-386.951 365.919 -387.105 365.806 -387.182 365.655C-387.259 365.466 -387.144 365.24 -386.913 365.202L-364.395 358.486L-335.294 336.337L-308.426 306.339L-283.175 276.379C-283.098 276.266 -282.983 276.228 -282.829 276.228L-252.035 278.643L-221.394 280.719L-199.107 256.117C-199.03 256.042 -198.915 255.966 -198.761 256.004L-168.66 259.136L-138.481 263.324L-108.265 267.927L-78.009 272.38L-47.754 276.266L-17.499 279.209L12.718 281.021L42.935 281.549L73.19 280.756L103.445 278.757L133.739 275.7L164.071 271.889L194.48 267.701L224.966 263.286L255.53 258.607L286.131 254.344L294.638 250.872C294.677 250.872 294.677 250.872 294.715 250.834L302.799 249.061H302.837L331.86 246.042L360.845 244.797L366.735 239.326L372.393 229.855C372.47 229.742 372.586 229.666 372.701 229.666L400.339 227.516H400.377L428.054 228.119H428.092L455.845 231.591L483.637 237.817L487.679 239.062C487.871 239.137 487.987 239.326 487.948 239.552C487.871 239.741 487.679 239.854 487.448 239.816L483.406 238.571L455.653 232.383L427.977 228.912L400.339 228.308L372.932 230.459L367.351 239.816C367.351 239.854 367.312 239.892 367.274 239.892L361.23 245.476C361.153 245.552 361.076 245.59 360.999 245.59L331.899 246.835L302.914 249.853L294.869 251.627L286.324 255.098C286.285 255.098 286.247 255.136 286.247 255.136L255.607 259.4L225.043 264.079L194.557 268.493L164.148 272.682L133.777 276.493L103.445 279.549L73.151 281.549L42.896 282.341L12.641 281.813L-17.614 280.002L-47.87 277.021L-78.125 273.134L-108.38 268.682L-138.597 264.079L-168.775 259.89L-198.645 256.758L-220.932 281.36C-221.009 281.436 -221.125 281.473 -221.24 281.473L-252.073 279.36L-282.675 276.945L-307.81 306.792L-334.678 336.827L-334.717 336.865L-363.894 359.089C-363.933 359.127 -363.971 359.127 -364.01 359.165L-386.605 365.919C-386.72 365.919 -386.759 365.919 -386.797 365.919Z" fill="#1CE7C2"/>
<path d="M-443.228 554.242C-443.344 554.242 -443.459 554.205 -443.536 554.091C-443.652 553.903 -443.613 553.676 -443.459 553.563L-431.45 545.262C-431.373 545.224 -431.257 545.187 -431.18 545.187L-367.552 553.11L-313.046 510.133C-312.969 510.057 -312.854 510.057 -312.777 510.057L-252.574 514.849L-192.564 516.623L-150.453 476.89L-112.923 433.875L-79.319 388.407L-48.563 351.618C-48.486 351.543 -48.371 351.467 -48.294 351.467L0.860962 349.807L26.998 326.149C27.075 326.073 27.152 326.035 27.229 326.035L74.421 324.186L96.67 313.697C96.708 313.659 96.747 313.659 96.824 313.659L142.129 310.64L190.014 307.018L198.175 306.49L204.411 305.924L248.1 303.509L285.361 302.452L299.564 302.302L303.837 301.924L314.346 300.981L314.769 300.905L324.816 297.547L334.131 291.85C334.169 291.85 334.169 291.812 334.208 291.812L371.7 280.077L409.384 270.946L447.184 264.833L485.138 261.965L523.168 262.267L561.276 265.512L599.384 271.172L637.53 278.53L675.676 287.473L713.861 297.509L752.046 307.886L790.23 317.998C790.35 318.036 790.46 318.112 790.5 318.225L798.01 339.996L806.05 364.145L814.9 382.785L824.72 391.841L835.57 395.69L882.5 398.52L929.61 400.293L976.84 401.048L1024.27 400.859L1071.84 399.954L1119.57 398.557L1167.46 397.048C1167.54 397.048 1167.65 397.086 1167.73 397.124L1194.71 420.48L1224.35 445.459L1257.15 470.815L1293.71 495.379L1334.67 517.906L1396.95 512.586C1397.03 512.586 1397.11 512.586 1397.18 512.623L1415.54 522.811C1415.74 522.924 1415.77 523.151 1415.7 523.339C1415.58 523.528 1415.35 523.603 1415.16 523.49L1396.91 513.34L1334.63 518.66C1334.56 518.66 1334.48 518.66 1334.4 518.623L1293.29 496.021L1256.68 471.419L1223.85 446.025L1194.21 421.046L1167.34 397.765L1119.61 399.237L1071.88 400.633L1024.3 401.538L976.88 401.727L929.61 400.972L882.5 399.199L835.54 396.369C835.5 396.369 835.46 396.369 835.42 396.331L824.45 392.445C824.41 392.445 824.37 392.407 824.33 392.369L814.4 383.238C814.37 383.2 814.33 383.163 814.33 383.125L805.43 364.409V364.372L797.39 340.223L789.96 318.64L751.969 308.565L713.784 298.189L675.638 288.152L637.491 279.209L599.384 271.851L561.314 266.191L523.284 262.946L485.33 262.645L447.453 265.512L409.692 271.625L372.085 280.756L334.67 292.491L325.354 298.189C325.316 298.189 325.316 298.226 325.278 298.226L315.154 301.622C315.115 301.622 315.115 301.622 315.077 301.622L314.615 301.698L304.068 302.641L299.757 303.018L285.553 303.169L248.292 304.226L204.603 306.641L198.367 307.207L190.168 307.773L142.283 311.395L97.055 314.414L74.806 324.941C74.767 324.979 74.69 324.979 74.652 324.979L27.537 326.828L1.39996 350.486C1.32296 350.562 1.24598 350.599 1.16898 350.599L-47.947 352.26L-78.549 388.898L-112.153 434.404L-149.837 477.456L-192.141 517.302C-192.218 517.378 -192.333 517.415 -192.41 517.415L-252.613 515.604L-312.661 510.812L-367.167 553.79C-367.244 553.865 -367.359 553.865 -367.475 553.865L-431.142 545.941L-443.036 554.129C-443.074 554.205 -443.151 554.242 -443.228 554.242Z" fill="#1CE7C2"/>
<path d="M0.245 206.083C0.0529999 206.083 -0.100995 205.933 -0.139995 205.744C-0.177995 205.555 -0.0239945 205.329 0.207006 205.329L21.532 202.461L46.013 201.178L70.571 201.744L82.504 200.197C82.543 200.197 82.543 200.197 82.581 200.197L94.052 200.839C94.283 200.839 94.437 201.027 94.398 201.254C94.398 201.48 94.206 201.631 93.975 201.593L82.543 200.952L70.648 202.499C70.61 202.499 70.61 202.499 70.571 202.499L46.013 201.933L21.57 203.216L0.284001 206.083H0.245Z" fill="#1CE7C2"/>
<path d="M292.212 196.839C292.02 196.839 291.866 196.688 291.827 196.499C291.789 196.311 291.943 196.084 292.135 196.084L313.383 193.028L334.708 191.783C334.747 191.783 334.747 191.783 334.785 191.783L353.608 193.519C353.839 193.556 353.993 193.707 353.954 193.934C353.916 194.122 353.762 194.273 353.531 194.273L334.747 192.537L313.499 193.783L292.289 196.839C292.251 196.839 292.251 196.839 292.212 196.839Z" fill="#1CE7C2"/>
<path d="M-127.167 343.732C-127.244 343.732 -127.321 343.732 -127.36 343.694C-127.552 343.581 -127.591 343.355 -127.475 343.166L-117.505 326.979L-97.566 295.548C-97.566 295.548 -97.566 295.51 -97.528 295.51L-78.397 272.531L-60.344 250.268L-43.138 231.402L-43.099 231.364L-26.624 217.894C-26.586 217.894 -26.586 217.856 -26.547 217.856L-10.688 210.121C-10.65 210.121 -10.611 210.083 -10.611 210.083L4.59299 207.064C4.63199 207.064 4.63198 207.064 4.66998 207.064L19.182 206.423L32.924 204.763C32.962 204.763 32.962 204.763 33.001 204.763L58.098 205.706L70.493 201.82C70.531 201.82 70.608 201.782 70.647 201.82L95.282 203.97L119.956 207.291L130.772 207.215C130.965 207.215 131.157 207.366 131.157 207.593C131.157 207.819 131.003 207.97 130.772 207.97L119.917 208.046H119.879L95.166 204.725L70.608 202.612L58.214 206.498C58.175 206.498 58.137 206.536 58.098 206.498L32.962 205.517L19.22 207.178L4.70898 207.819L-10.419 210.838L-26.162 218.497L-42.599 231.93L-59.805 250.683L-77.858 272.946L-96.989 295.925L-116.89 327.318L-126.859 343.506C-126.936 343.657 -127.052 343.732 -127.167 343.732Z" fill="#1CE7C2"/>
<path d="M308.149 210.8C308.111 210.8 308.072 210.8 308.034 210.8C307.841 210.725 307.726 210.536 307.764 210.347L313.038 193.33C313.038 193.292 313.038 193.292 313.076 193.254L318.388 183.066C318.427 182.991 318.504 182.916 318.581 182.878L323.777 180.689C323.97 180.614 324.201 180.689 324.278 180.878C324.355 181.067 324.278 181.293 324.085 181.368L319.004 183.519L313.769 193.556L308.496 210.536C308.496 210.687 308.342 210.8 308.149 210.8Z" fill="#1CE7C2"/>
<path d="M1301.87 625.935C1301.76 625.935 1301.64 625.897 1301.57 625.784L1290.21 611.483L1248.45 557.827L1210.99 518.849L1149.98 514.774C1149.91 514.774 1149.79 514.736 1149.75 514.661L1119.3 484.475L1091.97 458.666L1037.66 450.138C1037.58 450.138 1037.51 450.1 1037.47 450.025L1015.26 430.064L995.05 414.481L976.61 401.689L959.75 389.841L944.43 377.201L901.13 380.672L857.78 382.861L814.63 383.389L771.6 381.993L728.719 378.484L685.953 372.748L643.265 364.749L600.654 354.486L558.081 342.751L515.585 330.978L473.089 320.338L430.67 311.697L388.328 305.698L346.179 302.679L336.171 307.018C336.132 307.056 336.055 307.056 335.978 307.056L291.981 304.339H281.126C280.895 304.339 280.741 304.188 280.741 303.962C280.741 303.735 280.895 303.585 281.126 303.585H292.02L335.94 306.301L345.948 301.962C345.986 301.924 346.063 301.924 346.14 301.924L388.444 304.943L430.863 310.98L473.32 319.621L515.816 330.262L558.35 342.034L600.885 353.769L643.458 364.032L686.107 372.032L728.834 377.767L771.68 381.276L814.67 382.672L857.78 382.144L901.09 379.955L944.55 376.484C944.66 376.484 944.74 376.522 944.82 376.559L960.25 389.275L977.11 401.086L995.59 413.915L1015.84 429.498L1037.97 449.421L1092.32 457.949C1092.4 457.949 1092.47 457.987 1092.51 458.062L1119.92 483.947L1150.29 514.02L1211.3 518.095C1211.42 518.095 1211.49 518.132 1211.57 518.208L1249.14 557.337C1249.14 557.337 1249.14 557.374 1249.18 557.374L1290.94 611.068L1302.3 625.369C1302.41 625.52 1302.41 625.784 1302.22 625.897C1302.03 625.935 1301.95 625.935 1301.87 625.935Z" fill="#1CE7C2"/>
<path d="M-417.439 356.41C-417.593 356.41 -417.747 356.297 -417.824 356.146C-417.862 355.958 -417.747 355.731 -417.554 355.693L-398.308 350.637L-368.091 329.922L-340.184 301.736L-313.932 273.587L-313.894 273.549L-288.796 252.08L-264.854 234.76C-264.777 234.723 -264.7 234.685 -264.623 234.685L-235.792 233.515L-213.774 221.063C-213.736 221.026 -213.659 221.026 -213.62 221.026L-185.559 218.045L-165.081 211.592H-165.042L-137.674 207.366L-123.894 206.121L-101.491 204.272L-91.906 203.216L-64.923 202.914L-60.766 203.065L-44.252 203.48L-40.788 203.593L-29.356 203.97L-21.85 204.121L-16.846 204.499H-16.807L-15.306 204.801L4.672 206.951L31.193 211.894L44.935 209.215C44.974 209.215 45.051 209.215 45.089 209.215L71.033 213.932L96.862 219.894L108.448 212.498C108.525 212.46 108.64 212.423 108.717 212.46L134.084 217.403L159.451 222.573L184.817 227.289L210.184 230.723L235.474 231.93L260.763 229.893L286.015 223.818L311.343 214.875L336.709 204.801L362.192 195.028L387.674 186.764L392.254 180.916C392.293 180.84 392.37 180.803 392.485 180.765L417.544 175.331C417.736 175.294 417.967 175.407 418.006 175.633C418.044 175.822 417.929 176.048 417.698 176.086L392.832 181.519L388.251 187.368C388.213 187.444 388.136 187.481 388.059 187.481L362.5 195.745L337.056 205.517L311.651 215.592L286.284 224.535H286.246L260.917 230.61C260.879 230.61 260.879 230.61 260.84 230.61L235.512 232.647H235.474L210.107 231.44L184.702 228.006L159.297 223.29L133.892 218.12L108.679 213.215L97.093 220.611C97.016 220.648 96.9 220.686 96.785 220.648L70.802 214.649L44.974 209.97L31.232 212.649C31.193 212.649 31.116 212.649 31.078 212.649L4.51801 207.706L-15.46 205.555L-16.961 205.253L-21.927 204.876L-29.394 204.725L-40.827 204.348L-44.291 204.235L-60.804 203.82L-64.961 203.669L-91.906 203.97L-101.453 205.027L-123.855 206.876L-137.636 208.121L-164.965 212.347L-185.443 218.799C-185.482 218.799 -185.482 218.799 -185.521 218.799L-213.543 221.78L-235.599 234.232C-235.638 234.27 -235.715 234.27 -235.792 234.27L-264.584 235.439L-288.411 252.646L-313.47 274.078L-339.684 302.226L-367.629 330.45L-367.668 330.488L-397.961 351.241C-398 351.279 -398.038 351.279 -398.077 351.279L-417.362 356.335C-417.362 356.41 -417.4 356.41 -417.439 356.41Z" fill="#1CE7C2"/>
<path d="M228.007 305.396C227.968 305.396 227.891 305.396 227.853 305.358C227.66 305.283 227.583 305.056 227.66 304.867L235.012 289.661L245.328 269.776C245.328 269.738 245.367 269.738 245.367 269.701L255.26 258.758C255.298 258.72 255.337 258.683 255.414 258.645L264.844 254.683C264.883 254.683 264.921 254.645 264.96 254.645L271.888 253.777L280.78 252.495L285.361 251.664L302.76 249.099L310.343 246.193C310.381 246.193 310.381 246.193 310.42 246.155L338.481 241.778L344.832 234.307C344.909 234.232 344.986 234.194 345.063 234.194L372.393 229.704L377.666 216.837C377.743 216.649 377.974 216.535 378.167 216.611C378.359 216.686 378.475 216.913 378.398 217.101L373.047 230.157C373.009 230.27 372.893 230.383 372.739 230.383L345.332 234.873L338.981 242.344C338.904 242.42 338.827 242.458 338.75 242.458L310.574 246.835L302.99 249.74C302.952 249.74 302.952 249.74 302.914 249.778L285.476 252.381L280.896 253.211L271.965 254.494L265.075 255.362L255.76 259.249L245.983 270.116L235.667 289.963L228.315 305.169C228.276 305.283 228.122 305.396 228.007 305.396Z" fill="#1CE7C2"/>
<path d="M150.404 211.479C150.212 211.479 150.02 211.328 150.02 211.102C150.02 210.875 150.174 210.724 150.404 210.724L169.42 210.385L174.693 209.668L189.667 207.706L191.168 207.517L194.402 206.989L206.873 204.612L208.644 204.234L215.034 203.065L235.666 198.688L256.336 194.122L277.084 189.707L297.87 185.783L318.694 182.84H318.733L339.634 182.161C339.673 182.161 339.673 182.161 339.711 182.161L360.651 184.878H360.69L371.198 187.406C371.391 187.443 371.545 187.67 371.468 187.858C371.429 188.047 371.198 188.198 371.006 188.123L360.536 185.594L339.634 182.915L318.81 183.595L298.024 186.538L277.276 190.462L256.567 194.877L235.897 199.442L215.226 203.819L208.836 204.989L207.066 205.366L194.594 207.743L191.322 208.272L189.821 208.46L174.847 210.423L169.574 211.139H169.535L150.404 211.479Z" fill="#1CE7C2"/>
<path d="M-40.711 204.348C-40.904 204.348 -41.058 204.234 -41.096 204.046C-41.135 203.857 -41.019 203.631 -40.827 203.593L-23.043 199.367L0.168003 195.971L23.495 194.688L46.937 195.254L70.456 197.405L94.013 200.838C94.206 200.876 94.36 201.065 94.321 201.253C94.283 201.442 94.09 201.593 93.898 201.555L70.34 198.122L46.86 195.971L23.495 195.405L0.205997 196.688L-22.928 200.084L-40.673 204.31C-40.673 204.348 -40.711 204.348 -40.711 204.348Z" fill="#1CE7C2"/>
<path d="M282.59 303.283C282.513 303.283 282.436 303.283 282.397 303.207C282.205 303.094 282.166 302.868 282.282 302.679L290.943 289.058L299.95 272.493C299.988 272.417 300.104 272.342 300.181 272.304L332.823 264.154L365.58 257.06L398.453 251.476L414.235 249.665C414.466 249.627 414.619 249.778 414.658 250.004C414.696 250.193 414.543 250.382 414.312 250.419L398.568 252.231L365.734 257.815L333.015 264.909L300.566 273.021L291.597 289.473L282.898 303.132C282.821 303.245 282.705 303.283 282.59 303.283Z" fill="#1CE7C2"/>
<path d="M-157.305 609.709C-157.344 609.709 -157.344 609.709 -157.305 609.709L-225.938 603.106L-293.877 603.257L-361.624 603.106L-429.256 598.918L-442.998 607.634C-443.19 607.747 -443.421 607.71 -443.537 607.521C-443.652 607.332 -443.614 607.106 -443.421 606.993L-429.564 598.201C-429.487 598.163 -429.41 598.126 -429.333 598.126L-361.586 602.314L-293.877 602.465L-225.899 602.314H-225.861L-157.421 608.879L-111.73 566.77L-71.544 523.113L-35.822 481.984L-4.10403 437.309L24.265 389.539L50.209 349.958L50.247 349.92L74.228 324.262C74.305 324.187 74.382 324.149 74.498 324.149L121.921 323.545L169.536 324.375L217.113 326.715L232.972 309.395C233.049 309.32 233.164 309.282 233.28 309.282L279.086 311.622L324.854 316.112L335.632 306.339C335.709 306.264 335.824 306.226 335.94 306.226L379.86 311.659L387.982 305.018L395.565 296.981L402.532 284.53L408.999 271.097L415.042 259.626C415.042 259.626 415.042 259.588 415.081 259.588L420.739 251.74C420.778 251.702 420.778 251.664 420.816 251.664L426.128 247.891C426.167 247.853 426.243 247.816 426.282 247.816L460.386 242.156L475.245 240.722L491.604 238.307L527.094 236.005L562.661 236.534L598.267 239.552L633.911 244.608H633.95L669.556 253.476L705.161 266.003C705.277 266.041 705.354 266.116 705.392 266.229L709.626 276.304C709.626 276.342 709.626 276.342 709.665 276.379L714.015 297.736L718.557 327.205L723.445 357.58L728.95 377.956L735.07 385.879L737.919 386.445L749.505 387.577L759.821 388.709L785.53 391.615L788.96 391.954L798.47 393.086C798.51 393.086 798.54 393.086 798.58 393.124L809.32 398.256C809.36 398.293 809.4 398.331 809.44 398.369L821.1 412.066C821.14 412.104 821.14 412.104 821.14 412.141L833.69 438.479L890.5 446.101L947.59 455.421C947.7 455.458 947.82 455.496 947.86 455.609L968.03 493.531L1028.35 500.926L1089.01 508.02L1149.87 513.982C1149.98 513.982 1150.06 514.057 1150.14 514.133L1183.59 558.053L1248.52 557.186L1314.04 554.167L1380.01 548.62C1380.13 548.62 1380.21 548.658 1380.32 548.734L1415.31 579.448C1415.47 579.599 1415.47 579.825 1415.35 579.976C1415.2 580.127 1414.97 580.127 1414.81 580.014L1379.94 549.413L1314.12 554.922L1248.56 557.94L1183.39 558.808C1183.28 558.808 1183.16 558.77 1183.09 558.657L1149.6 514.736L1088.89 508.812L1028.19 501.719L967.91 494.323C967.8 494.323 967.68 494.248 967.6 494.134L947.43 456.175L890.54 446.855L833.53 439.196C833.42 439.196 833.3 439.082 833.23 438.969L820.6 412.481L809.01 398.859L798.39 393.766L788.96 392.634L785.53 392.294L749.543 388.219L737.957 387.087H737.919L734.916 386.483C734.839 386.483 734.762 386.408 734.685 386.332L728.411 378.22C728.372 378.182 728.372 378.144 728.334 378.106L722.829 357.655V357.618L717.941 327.243L713.399 297.811L709.088 276.492L704.93 266.607L669.517 254.155L633.95 245.288L598.344 240.231L562.777 237.251L527.287 236.722L491.835 239.024L475.476 241.439L460.617 242.873L426.628 248.495L421.432 252.155L415.812 259.928L409.769 271.361L403.263 284.794L396.258 297.321C396.258 297.359 396.219 297.359 396.219 297.396L388.598 305.471L388.559 305.509L380.283 312.301C380.206 312.376 380.091 312.414 379.975 312.376L336.055 306.943L325.277 316.715C325.2 316.791 325.085 316.829 324.969 316.829L279.048 312.338L233.434 309.999L217.575 327.318C217.498 327.394 217.382 327.432 217.267 327.432L169.497 325.092L121.921 324.262L74.652 324.866L50.825 350.373L24.919 389.917L-3.48901 437.686L-35.206 482.513L-70.966 523.679L-111.191 567.336L-157.036 609.596C-157.113 609.672 -157.228 609.709 -157.305 609.709Z" fill="#1CE7C2"/>
<path d="M221.579 218.384L199.984 218.196L182.971 217.29C182.74 217.29 182.586 217.101 182.624 216.875C182.624 216.649 182.817 216.498 183.047 216.535L200.023 217.441L221.579 217.63L243.135 216.875L264.729 215.29L286.362 213.102L306.032 210.762C306.262 210.725 306.416 210.876 306.455 211.102C306.493 211.291 306.339 211.479 306.108 211.517L286.4 213.856L264.767 216.083L243.173 217.667L221.579 218.384Z" fill="#1CE7C2"/>
<path d="M213.148 203.593C212.994 203.593 212.802 203.48 212.763 203.291C212.725 203.102 212.84 202.876 213.033 202.838L229.084 198.876L235.705 195.367C235.897 195.254 236.128 195.329 236.244 195.518C236.359 195.707 236.282 195.933 236.09 196.046L229.431 199.593C229.392 199.593 229.354 199.631 229.354 199.631L213.225 203.631C213.187 203.593 213.148 203.593 213.148 203.593Z" fill="#1CE7C2"/>
<path d="M-44.214 204.272C-44.329 204.272 -44.445 204.235 -44.522 204.122C-44.637 203.971 -44.5991 203.706 -44.4451 203.593L-32.666 194.802C-32.628 194.802 -32.627 194.764 -32.589 194.764L-19.425 188.651C-19.386 188.613 -19.309 188.613 -19.271 188.613L0.629959 187.859C0.822959 187.859 1.01495 188.01 1.01495 188.236C1.01495 188.462 0.860959 188.613 0.629959 188.613L-19.194 189.368L-32.243 195.443L-43.983 204.235C-44.021 204.235 -44.098 204.272 -44.214 204.272Z" fill="#1CE7C2"/>
<path d="M122.999 227.478C122.883 227.478 122.768 227.44 122.691 227.365C122.537 227.214 122.575 226.95 122.729 226.836L133.777 217.554L133.815 217.517L144.439 211.404C144.516 211.366 144.555 211.366 144.632 211.366L154.909 211.592C155.14 211.592 155.294 211.781 155.294 211.97C155.294 212.196 155.102 212.347 154.909 212.347L144.747 212.121L134.239 218.158L123.191 227.402C123.153 227.44 123.076 227.478 122.999 227.478Z" fill="#1CE7C2"/>
<path d="M138.011 242.722C137.895 242.722 137.78 242.684 137.703 242.571C137.587 242.42 137.587 242.156 137.78 242.043L148.75 233.553L159.143 222.686C159.143 222.686 159.182 222.648 159.22 222.648L169.228 215.667C169.305 215.63 169.382 215.592 169.459 215.592L178.928 215.856L179.198 215.894C179.39 215.932 179.544 216.082 179.544 216.309C179.506 216.498 179.352 216.648 179.121 216.648L178.89 216.611L169.575 216.347L159.721 223.214L149.328 234.081L149.289 234.119L138.28 242.608C138.165 242.722 138.088 242.722 138.011 242.722Z" fill="#1CE7C2"/>
<path d="M163.417 211.215C163.224 211.215 163.07 211.102 163.032 210.913C162.993 210.724 163.109 210.498 163.34 210.46L177.505 207.404L196.905 203.178L216.344 199.065L235.821 195.292L255.337 192.047C255.53 192.009 255.761 192.16 255.799 192.349C255.838 192.537 255.684 192.764 255.491 192.801L235.975 196.046L216.498 199.82L197.059 203.933L177.659 208.159L163.455 211.215H163.417Z" fill="#1CE7C2"/>
<path d="M165.494 211.63L151.098 211.592C150.867 211.592 150.713 211.404 150.713 211.215C150.713 210.989 150.867 210.838 151.098 210.838L165.456 210.875L186.511 210.045L207.567 208.385L228.661 205.932L249.755 202.876L270.887 199.48L291.904 196.084L297.524 185.934C297.562 185.859 297.601 185.821 297.678 185.783L303.259 182.878C303.298 182.84 303.336 182.84 303.413 182.84L323.853 180.614H323.891L344.369 180.727C344.408 180.727 344.408 180.727 344.446 180.727L365.002 184.01H365.04L374.201 186.425C374.394 186.462 374.509 186.689 374.471 186.877C374.432 187.066 374.201 187.217 374.009 187.142L364.886 184.727L344.408 181.482L323.968 181.368L303.644 183.595L298.217 186.425L292.558 196.612C292.52 196.726 292.404 196.801 292.289 196.801L271.079 200.235L249.908 203.631L228.776 206.687L207.644 209.14L186.55 210.8L165.494 211.63Z" fill="#1CE7C2"/>
<path d="M-429.372 598.918H-429.41L-443.268 597.371C-443.46 597.333 -443.614 597.145 -443.614 596.956C-443.576 596.767 -443.383 596.616 -443.191 596.616L-429.487 598.126L-367.668 553.186C-367.591 553.148 -367.514 553.111 -367.399 553.111L-303.617 558.242L-239.873 559.638L-176.09 560.355L-132.286 517.793L-93.293 477.834L-58.649 434.253L-27.663 387.842L0.705994 349.883C0.782994 349.769 0.898977 349.732 1.01398 349.732L50.516 349.769L100.018 351.279L121.612 323.621C121.65 323.583 121.689 323.545 121.689 323.545L141.898 310.565C141.974 310.527 142.013 310.49 142.09 310.49L187.588 308.905L233.202 309.169L247.983 303.396C248.022 303.396 248.06 303.358 248.137 303.358L281.087 303.396L286.13 303.056L299.91 302L300.526 301.887H300.564L302.335 301.773L302.758 301.698C302.758 301.698 302.797 301.698 302.835 301.698H304.298L345.947 301.773L355.108 297.321L363.615 289.51L371.506 280.077L378.858 270.606C378.897 270.531 378.974 270.493 379.051 270.493L415.388 259.362L451.879 251.098L488.524 245.967L525.246 244.042L562.045 245.212L598.882 249.099L635.758 255.174L672.634 264.267L709.472 276.002L746.271 289.208C746.386 289.246 746.463 289.322 746.502 289.473L752.199 308.037L758.203 334.11L764.67 361.731L771.83 381.352L779.76 389.577L824.45 391.69L869.41 392.181L914.52 391.238L959.83 389.087L1005.29 386.068L1050.9 382.597L1096.67 379.201C1096.78 379.201 1096.86 379.239 1096.94 379.276L1119.69 398.52L1144.52 420.405L1171.73 444.214L1201.79 469.193L1235.24 494.587L1272.62 519.491L1334.4 517.831C1334.48 517.831 1334.55 517.868 1334.63 517.906L1380.28 548.545L1415.12 544.168C1415.31 544.13 1415.5 544.281 1415.54 544.508C1415.58 544.696 1415.43 544.885 1415.2 544.923L1380.21 549.337C1380.13 549.337 1380.01 549.337 1379.94 549.262L1334.28 518.623L1272.5 520.283C1272.43 520.283 1272.35 520.245 1272.27 520.208L1234.78 495.191L1201.29 469.797L1171.19 444.818L1143.98 421.009L1119.19 399.124L1096.59 379.955L1050.98 383.351L1005.36 386.823L959.9 389.841L914.6 391.992L869.45 392.936L824.45 392.445L779.61 390.332C779.49 390.332 779.41 390.294 779.34 390.219L771.25 381.804C771.21 381.767 771.18 381.729 771.18 381.691L763.977 361.995V361.957L757.51 334.299L751.506 308.263L745.847 289.888L709.241 276.757L672.442 265.022L635.604 255.928L598.805 249.853L562.006 245.967L525.246 244.797L488.562 246.722L451.994 251.853L415.542 260.117L379.359 271.172L372.084 280.53L364.154 290.001L364.116 290.039L355.57 297.887C355.532 297.925 355.493 297.925 355.493 297.962L346.216 302.49C346.178 302.528 346.101 302.528 346.063 302.528L304.337 302.453H302.874L302.45 302.528L300.68 302.641L300.064 302.754H300.025L286.206 303.811L281.125 304.151L248.214 304.113L233.433 309.886C233.395 309.886 233.356 309.924 233.279 309.924L187.627 309.66L142.244 311.244L122.228 324.262L100.556 351.996C100.479 352.109 100.364 352.147 100.248 352.147L50.554 350.599L1.245 350.562L-26.97 388.332L-57.995 434.743L-92.677 478.362C-92.677 478.362 -92.677 478.4 -92.715 478.4L-131.747 518.397L-175.667 561.072C-175.744 561.148 -175.821 561.185 -175.936 561.185L-239.873 560.468L-303.617 559.072L-367.283 553.941L-429.141 598.843C-429.218 598.88 -429.295 598.918 -429.372 598.918Z" fill="#1CE7C2"/>
<path d="M-1.60299 205.97C-1.75699 205.97 -1.911 205.895 -1.949 205.744C-2.026 205.555 -1.949 205.329 -1.757 205.253L10.523 200.008L23.418 194.688H23.456L35.851 191.594C35.889 191.594 35.928 191.594 35.928 191.594L47.86 191.519C48.053 191.519 48.245 191.669 48.245 191.896C48.245 192.122 48.091 192.273 47.86 192.273L35.966 192.349L23.649 195.443L10.792 200.725L-1.48699 205.97C-1.48699 205.97 -1.56399 205.97 -1.60299 205.97Z" fill="#1CE7C2"/>
<path d="M268.923 254.796C268.731 254.796 268.577 254.683 268.538 254.494C268.5 254.305 268.654 254.079 268.846 254.041L282.28 251.702L310.303 246.193L317.385 240.609L324.122 231.59L330.511 219.365L336.555 205.027C336.555 204.989 336.593 204.951 336.593 204.951L342.444 197.593C342.56 197.442 342.829 197.405 342.983 197.518C343.137 197.631 343.175 197.895 343.06 198.046L337.248 205.366L331.204 219.667L324.776 231.93L324.737 231.968L317.963 241.061C317.924 241.099 317.924 241.099 317.886 241.137L310.688 246.797C310.649 246.834 310.572 246.872 310.534 246.872L282.396 252.419L268.962 254.758C268.962 254.796 268.923 254.796 268.923 254.796Z" fill="#1CE7C2"/>
<path d="M-372.941 504.02H-372.98L-432.951 496.097L-442.998 502.587C-443.19 502.7 -443.421 502.662 -443.537 502.473C-443.652 502.285 -443.614 502.058 -443.421 501.945L-433.259 495.38C-433.182 495.342 -433.105 495.304 -432.99 495.304L-373.057 503.228L-321.168 467.344C-321.092 467.307 -321.015 467.269 -320.899 467.269L-264.199 471.948L-220.934 432.442C-220.857 432.366 -220.78 432.328 -220.664 432.328L-166.697 433.574L-112.615 433.8L-58.341 434.215L-3.79602 437.271L50.979 442.026L105.869 447.535L160.914 453.006L216.035 457.76L271.272 461.307L326.625 463.231L382.131 463.307L437.83 461.42L493.721 457.609L549.843 452.025L606.197 444.969L662.819 437.007L719.635 432.781L776.57 433.724L833.57 438.592C833.77 438.592 833.96 438.781 833.92 439.007C833.92 439.196 833.73 439.384 833.5 439.347L776.53 434.479L719.635 433.536L662.858 437.762L606.274 445.723L549.92 452.779L493.798 458.364L437.907 462.175L382.208 464.062L326.663 463.986L271.272 462.062L215.997 458.515L160.837 453.761L105.792 448.289L50.94 442.743L-3.79602 437.988L-58.341 434.932L-112.577 434.517L-166.659 434.29L-220.51 433.045L-263.814 472.627C-263.891 472.702 -264.007 472.74 -264.122 472.74L-320.822 468.061L-372.749 503.945C-372.787 503.983 -372.864 504.02 -372.941 504.02Z" fill="#1CE7C2"/>
<path d="M198.253 307.132C198.214 307.132 198.137 307.132 198.099 307.094C197.906 307.018 197.829 306.792 197.906 306.603L202.603 296.944L213.842 275.399C213.842 275.361 213.881 275.361 213.881 275.323L224.659 263.362C224.697 263.324 224.736 263.286 224.813 263.249L235.09 259.06C235.283 258.985 235.514 259.06 235.591 259.249C235.668 259.438 235.591 259.664 235.398 259.739L225.198 263.89L214.535 275.738L203.334 297.208L198.638 306.868C198.561 307.056 198.407 307.132 198.253 307.132Z" fill="#1CE7C2"/>
<path d="M-431.22 545.941C-431.258 545.941 -431.258 545.941 -431.297 545.941L-443.306 544.092C-443.499 544.055 -443.653 543.866 -443.614 543.677C-443.576 543.489 -443.383 543.338 -443.191 543.376L-431.335 545.187L-373.211 503.341C-373.134 503.266 -373.019 503.266 -372.942 503.266L-312.932 510.058L-264.354 472.023C-264.277 471.948 -264.2 471.948 -264.084 471.948L-207.346 475.419L-166.967 433.687L-130.746 389.879C-130.669 389.804 -130.553 389.728 -130.476 389.728L-79.012 388.257L-27.316 387.728L24.611 389.426L76.73 392.709L129.003 396.935L181.391 401.576L233.895 406.142L286.515 410.217L339.25 413.424L392.1 415.537L445.104 416.33L498.263 415.688L551.614 413.575L605.157 409.991L658.892 405.161L712.821 403.35L766.826 405.953L820.91 411.877L875.03 420.103L929.19 429.649C929.3 429.649 929.38 429.725 929.42 429.8L947.86 455.383L1004.86 465.382L1062.14 475.117L1119.57 483.72L1177.2 490.399L1235.09 494.436L1293.37 495.191L1352.07 492.059C1352.15 492.059 1352.18 492.059 1352.26 492.097L1396.87 512.435L1415.12 509.68C1415.31 509.643 1415.54 509.793 1415.54 509.982C1415.58 510.171 1415.43 510.397 1415.23 510.397L1396.87 513.189C1396.8 513.189 1396.72 513.189 1396.64 513.152L1351.99 492.776L1293.33 495.908L1235.01 495.153L1177.04 491.116L1119.38 484.399L1061.95 475.759L1004.67 466.024L947.51 456.024C947.4 456.024 947.32 455.949 947.28 455.874L928.84 430.291L874.84 420.744L820.87 412.707L766.826 406.783L712.859 404.18L658.969 405.991L605.234 410.821L551.69 414.405L498.34 416.518L445.143 417.16L392.1 416.367L339.211 414.254L286.438 411.047L233.78 406.972L181.237 402.406L128.849 397.765L76.576 393.539L24.457 390.256L-27.47 388.559L-79.127 389.087L-130.284 390.521L-166.39 434.215L-206.846 476.098C-206.923 476.174 -207.038 476.211 -207.154 476.211L-263.93 472.74L-312.547 510.737C-312.624 510.812 -312.739 510.812 -312.816 510.812L-372.826 504.02L-430.95 545.866C-431.066 545.941 -431.143 545.941 -431.22 545.941Z" fill="#1CE7C2"/>
<path d="M-196.337 218.422C-196.414 218.422 -196.491 218.384 -196.568 218.346C-196.76 218.233 -196.799 218.007 -196.683 217.818L-190.678 208.951C-190.601 208.838 -190.486 208.8 -190.37 208.8L-167.891 207.593L-145.372 206.197L-122.854 204.574L-100.297 202.65L-77.741 200.386L-55.146 197.744L-32.512 194.726L-9.84 191.632L12.986 190.575L35.89 191.594L58.87 194.311L74.729 197.065L81.272 198.197L81.927 198.273C82.119 198.31 82.273 198.499 82.235 198.688C82.196 198.876 82.004 199.027 81.811 198.99L81.157 198.876L74.613 197.744L58.793 194.99L35.851 192.311L12.986 191.292L-9.763 192.349L-32.396 195.443L-55.03 198.461L-77.625 201.103L-100.221 203.367L-122.777 205.291L-145.334 206.913L-167.852 208.31L-190.139 209.517L-195.99 218.233C-196.067 218.346 -196.183 218.422 -196.337 218.422Z" fill="#1CE7C2"/>
<path d="M331.898 202.272C331.86 202.272 331.821 202.272 331.783 202.272C331.59 202.197 331.475 202.008 331.513 201.82L334.362 192.085C334.362 192.047 334.362 192.047 334.4 192.009L339.289 182.35C339.327 182.274 339.404 182.199 339.52 182.161L344.331 180.765C344.524 180.689 344.755 180.803 344.793 181.029C344.87 181.218 344.755 181.444 344.524 181.482L339.866 182.84L335.055 192.311L332.206 202.008C332.206 202.159 332.052 202.272 331.898 202.272Z" fill="#1CE7C2"/>
<path d="M1415.27 392.671C1415.2 392.671 1415.12 392.634 1415.04 392.596L1410.85 389.464L1382.4 364.07L1356.15 338.11L1319.31 340.374L1282.43 341.657L1245.67 342.374L1208.99 343.091C1208.88 343.091 1208.76 343.053 1208.68 342.977L1188.67 321.055C1188.67 321.055 1188.67 321.017 1188.63 321.017L1170.11 295.962L1152.75 271.512L1136.28 253.777L1104.14 256.23L1071.73 262.23L1039.24 271.927L1006.79 283.247L974.45 294.604L942.24 304.867L910.17 313.244L878.3 319.093L846.58 322.111C846.47 322.111 846.35 322.073 846.27 321.998L838.65 314.301L838.61 314.263L831.49 304.867L831.45 304.83L824.8 292.831V292.793L818.56 278.228L812.71 261.965L807.17 245.703L801.85 231.742L796.81 217.29L792.08 200.838L787.53 185.519L783.15 173.18L778.91 164.879L774.87 160.465L752.237 159.672L729.411 161.483C729.333 161.483 729.218 161.483 729.141 161.408L726.177 159.295L723.329 159.672L712.897 161.936L703.967 163.71L701.465 164.426L697.577 165.709L681.641 170.615L659.315 179.331L640.146 187.708L638.221 188.424L624.557 193.367H624.518L616.204 195.405L606.811 197.178C606.773 197.178 606.773 197.178 606.734 197.178L593.224 197.631L586.68 197.744C586.641 197.744 586.641 197.744 586.603 197.744L569.32 195.216L561.506 194.16H561.467L544.338 189.292L519.78 183.632L518.548 183.331L518.201 183.217L493.027 177.067L467.891 173.709L442.794 173.407L417.889 176.086L413.963 181.406L409.768 196.273L405.341 212.913L400.683 228.006V228.044L395.756 239.401C395.756 239.439 395.718 239.439 395.718 239.477L390.483 246.231C390.444 246.269 390.406 246.306 390.329 246.344L384.747 248.948C384.709 248.985 384.632 248.985 384.555 248.985L354.531 248.08L324.622 249.023L294.79 251.589L288.862 252.344L280.856 253.211L274.35 254.004L257.029 256.57L235.357 259.815L205.718 264.192L196.364 265.286C196.326 265.286 196.326 265.286 196.287 265.286L170.228 264.493L142.128 261.135L114.028 255.815L85.929 249.061L57.791 241.401L29.691 233.402L1.59097 225.591L-26.47 218.497L-54.454 212.687L-82.169 208.687L-100.029 220.875L-118.737 240.156C-118.814 240.231 -118.929 240.269 -119.083 240.269L-148.453 236.232L-177.476 233.93L-198.609 256.607C-198.686 256.683 -198.801 256.721 -198.917 256.721L-228.71 255.098L-251.844 279.247L-276.133 310.527L-302 342.109L-302.039 342.147L-330.1 365.881C-330.177 365.957 -330.331 365.994 -330.446 365.957L-364.32 359.165L-398.232 351.354L-432.067 343.091L-443.153 345.77C-443.345 345.807 -443.576 345.694 -443.615 345.505C-443.653 345.317 -443.538 345.09 -443.345 345.053L-432.182 342.336C-432.105 342.336 -432.067 342.336 -431.99 342.336L-398.078 350.599L-364.166 358.41L-330.485 365.164L-302.578 341.581L-276.749 309.999L-252.422 278.719C-252.422 278.719 -252.422 278.681 -252.383 278.681L-229.095 254.381C-229.018 254.306 -228.903 254.268 -228.787 254.268L-198.994 255.89L-177.861 233.213C-177.784 233.138 -177.669 233.1 -177.553 233.1L-148.299 235.439L-119.122 239.439L-100.53 220.271C-100.53 220.271 -100.491 220.233 -100.453 220.233L-82.438 207.895C-82.361 207.857 -82.246 207.819 -82.169 207.819L-54.261 211.856L-26.239 217.705L1.82199 224.799L29.922 232.609L58.022 240.609L86.121 248.268L114.221 255.023L142.282 260.343L170.305 263.701L196.326 264.493L205.641 263.399L237.705 258.645L264.958 254.57L268.654 254.042L274.273 253.249L280.817 252.419L288.824 251.551L294.751 250.797L324.622 248.231L354.569 247.287L384.516 248.193L389.944 245.665L395.102 239.024L400.029 227.704L404.686 212.649L409.113 196.009L413.347 181.067C413.347 181.029 413.386 180.991 413.424 180.953L417.505 175.444C417.582 175.369 417.659 175.294 417.774 175.294L442.871 172.577H442.91L468.084 172.879H468.122L493.297 176.237H493.335L518.548 182.425L518.894 182.538L520.088 182.84L544.684 188.5L561.813 193.367L569.589 194.424L586.872 196.952L593.416 196.839L606.888 196.386L616.204 194.613L624.48 192.575L638.106 187.67L640.031 186.953L659.2 178.576L681.564 169.86L697.539 164.917L701.426 163.634L703.967 162.917L712.897 161.106L723.329 158.842L726.37 158.427C726.485 158.427 726.562 158.427 726.639 158.503L729.603 160.653L752.314 158.842H752.352L775.18 159.634C775.29 159.634 775.37 159.672 775.45 159.748L779.64 164.313C779.68 164.351 779.68 164.351 779.68 164.389L783.95 172.765V172.803L788.34 185.066L792.89 200.386L797.62 216.837L802.66 231.289L807.97 245.25L813.52 261.513L819.37 277.738L825.57 292.265L832.19 304.226L839.27 313.584L846.74 321.13L878.26 318.149L910.1 312.301L942.08 303.962L974.26 293.699L1006.6 282.341L1039.05 271.021L1071.57 261.324H1071.61L1104.06 255.324H1104.1L1136.43 252.834C1136.55 252.834 1136.66 252.872 1136.74 252.947L1153.37 270.833L1153.41 270.87L1170.77 295.359L1189.28 320.376L1209.14 342.147L1245.64 341.468L1282.4 340.751L1319.27 339.468L1356.26 337.167C1356.38 337.167 1356.49 337.204 1356.57 337.28L1382.94 363.353L1411.35 388.709L1415.54 391.803C1415.7 391.917 1415.73 392.181 1415.62 392.332C1415.5 392.634 1415.39 392.671 1415.27 392.671Z" fill="#1CE7C2"/>
<path d="M1411.08 389.577L1371.58 388.294C1371.51 388.294 1371.43 388.257 1371.35 388.219L1344.14 365.391L1318.96 340.336L1295.68 314.98L1260.19 316.565C1260.07 316.565 1259.96 316.527 1259.88 316.414L1239.25 291.661L1204.95 293.133C1204.83 293.133 1204.72 293.095 1204.64 292.982L1186.17 269.738L1168.54 254.343L1136.43 253.777C1136.39 253.777 1136.32 253.777 1136.28 253.74L1120.19 247.061L1089.47 246.759L1089.01 246.721L1057.75 250.042L1026.31 257.324C1026.19 257.362 1026.07 257.324 1026 257.287L1013.68 249.023L983.39 256.306C983.27 256.343 983.16 256.306 983.08 256.268L972.15 249.061L961.83 244.118L933.31 247.816C933.19 247.816 933.08 247.816 933 247.74L923.95 240.043L915.37 231.402L915.33 231.364L907.4 220.535L881.27 220.761L854.94 223.214L828.61 227.138L802.28 231.93L776.03 236.873L749.813 241.326L723.676 244.646L697.617 246.193L671.634 245.288H671.596L645.729 241.326H645.69L619.861 233.666H619.823L594.033 222.686L568.243 210.838L542.453 199.593L516.663 190.085L490.911 183.142L465.159 179.293L439.446 178.84L413.772 181.708L388.367 187.519L383.594 202.046L378.512 217.177C378.474 217.29 378.359 217.403 378.243 217.441L351.414 224.044L324.7 232.27L298.024 241.099L271.426 249.212L244.827 255.023C244.789 255.023 244.789 255.023 244.75 255.023L218.152 256.683H218.113L191.477 254.57H191.438L164.763 249.665L138.203 242.91L126.732 249.702C126.655 249.74 126.539 249.778 126.424 249.74L99.017 241.892L71.572 233.44L44.165 225.063L16.951 217.403L2.01602 225.667L-13.728 238.722C-13.805 238.798 -13.959 238.835 -14.074 238.798L-42.867 232.081L-71.621 226.006L-100.259 221.063L-128.782 217.894L-157.036 217.064L-177.283 233.93C-177.36 234.006 -177.437 234.006 -177.552 234.006L-206.499 233.779L-228.517 255.06C-228.594 255.136 -228.709 255.174 -228.786 255.174L-258.503 253.891L-282.561 276.945C-282.638 277.021 -282.753 277.058 -282.868 277.058L-313.624 274.342L-344.187 271.663L-371.325 297.434L-400.31 323.658L-400.348 323.696L-431.758 343.128C-431.835 343.166 -431.951 343.204 -432.066 343.166L-443.229 340.449C-443.421 340.412 -443.575 340.185 -443.498 339.997C-443.46 339.808 -443.229 339.657 -443.036 339.732L-432.027 342.411L-400.81 323.092L-371.825 296.906L-344.572 271.021C-344.495 270.946 -344.38 270.908 -344.264 270.908L-313.547 273.625L-282.945 276.304L-258.887 253.249C-258.81 253.174 -258.695 253.136 -258.618 253.136L-228.902 254.419L-206.922 233.138C-206.845 233.062 -206.768 233.025 -206.653 233.025L-177.706 233.251L-157.459 216.384C-157.382 216.309 -157.305 216.309 -157.19 216.309L-128.782 217.139L-100.182 220.346L-71.505 225.289L-42.751 231.364L-14.151 238.043L1.47702 225.101C1.47702 225.101 1.51502 225.063 1.55402 225.063L16.643 216.724C16.72 216.686 16.835 216.649 16.951 216.686L44.319 224.384L71.726 232.76L99.133 241.212L126.385 249.023L137.856 242.231C137.933 242.194 138.049 242.156 138.164 242.194L164.878 248.985L191.515 253.891L218.113 256.004L244.635 254.343L271.195 248.533L297.755 240.42L324.43 231.591L351.183 223.365L377.82 216.837L382.824 201.895L387.674 187.179C387.712 187.066 387.828 186.953 387.943 186.915L413.579 181.029H413.618L439.331 178.161H439.369L465.121 178.614H465.159L490.949 182.463H490.988L516.817 189.443L542.684 198.99L568.512 210.234L594.302 222.082L620.054 233.062L645.844 240.684L671.672 244.646L697.617 245.552L723.638 244.005L749.736 240.684L775.91 236.232L802.16 231.289L828.49 226.497L854.86 222.535L881.23 220.082L907.59 219.818C907.71 219.818 907.83 219.894 907.9 219.969L915.91 230.911L924.42 239.477L933.31 247.061L961.75 243.363C961.83 243.363 961.91 243.363 961.98 243.401L972.42 248.382C972.42 248.382 972.45 248.382 972.45 248.419L983.27 255.551L1013.56 248.269C1013.68 248.231 1013.8 248.269 1013.87 248.306L1026.19 256.57L1057.48 249.325H1057.52L1088.86 246.005H1088.89H1089.13L1089.39 246.042L1120.15 246.344C1120.19 246.344 1120.27 246.344 1120.3 246.382L1136.39 253.061L1168.57 253.627C1168.65 253.627 1168.77 253.664 1168.81 253.74L1186.55 269.248L1186.59 269.286L1204.95 292.378L1239.25 290.906C1239.36 290.906 1239.48 290.944 1239.55 291.057L1260.19 315.81L1295.68 314.225C1295.79 314.225 1295.91 314.263 1295.98 314.338L1319.39 339.808L1344.52 364.825L1371.62 387.54L1410.96 388.823L1415.16 388.596C1415.35 388.596 1415.54 388.747 1415.58 388.936C1415.58 389.162 1415.43 389.313 1415.24 389.351L1411.08 389.577Z" fill="#1CE7C2"/>
<path d="M1368.43 464.363C1368.35 464.363 1368.27 464.363 1368.24 464.326L1329.7 441.611L1295.02 418.556L1244.71 420.216C1244.64 420.216 1244.52 420.178 1244.44 420.141L1215.3 396.671L1167.46 397.803C1167.38 397.803 1167.27 397.765 1167.19 397.728L1142.55 377.314L1096.82 380.069C1096.71 380.069 1096.63 380.031 1096.55 379.993L1075.73 364.108L1031.96 368.334C1031.89 368.334 1031.77 368.334 1031.69 368.258L1014.14 355.807L972.26 359.165L930.38 362.183L888.66 364.372L847.08 365.315L805.63 364.711L764.286 362.372L723.06 358.108L682.027 351.807L640.994 343.619L600.038 333.733L559.12 323.319L518.241 313.659L477.4 305.698L436.637 300.189L395.95 297.585L355.379 298.113L317.117 301.509L314.846 301.698L310.92 302.038C310.727 302.038 310.535 301.887 310.496 301.698C310.458 301.509 310.65 301.321 310.843 301.283L322.968 300.226L355.302 297.359L395.95 296.83L436.714 299.434L477.554 304.943L518.434 312.905L559.351 322.602L600.269 333.016L641.225 342.902L682.22 351.09L723.291 357.316L764.479 361.58L805.78 363.919L847.2 364.523L888.77 363.579L930.5 361.391L972.38 358.372L1014.37 355.014C1014.45 355.014 1014.57 355.014 1014.64 355.09L1032.19 367.541L1075.96 363.315C1076.08 363.315 1076.15 363.315 1076.23 363.391L1097.09 379.276L1142.82 376.522C1142.9 376.522 1143.02 376.56 1143.09 376.597L1167.73 397.011L1215.57 395.879C1215.65 395.879 1215.77 395.916 1215.84 395.954L1244.98 419.424L1295.29 417.764C1295.37 417.764 1295.45 417.801 1295.52 417.839L1330.28 440.969L1368.66 463.571L1415.35 455.723C1415.54 455.685 1415.77 455.836 1415.81 456.024C1415.85 456.213 1415.7 456.44 1415.5 456.477L1368.66 464.363C1368.47 464.363 1368.47 464.363 1368.43 464.363Z" fill="#1CE7C2"/>
<path d="M-377.675 462.93L-434.182 458.024L-443.035 462.515C-443.228 462.628 -443.459 462.552 -443.536 462.364C-443.651 462.175 -443.574 461.949 -443.382 461.873L-434.413 457.307C-434.336 457.27 -434.259 457.27 -434.22 457.27L-377.79 462.175L-328.442 429.046C-328.366 429.008 -328.289 428.97 -328.212 428.97L-274.668 430.631L-233.135 393.237C-233.058 393.162 -232.981 393.124 -232.904 393.124L-181.939 391.351L-146.449 359.278C-146.372 359.24 -146.295 359.203 -146.218 359.165L-97.487 354.75L-66.885 333.884C-66.846 333.846 -66.808 333.846 -66.731 333.809L-54.914 331.28L-54.683 330.979C-54.644 330.903 -54.529 330.828 -54.452 330.828L-47.1 329.318L-45.714 329.167L-44.367 328.941L-38.169 327.696L6.63602 321.508L51.672 317.47C51.865 317.433 52.057 317.621 52.096 317.81C52.134 317.999 51.942 318.187 51.749 318.225L6.75101 322.262L-37.977 328.451L-44.174 329.696L-45.56 329.922L-46.946 330.073L-54.105 331.545L-54.336 331.884C-54.375 331.96 -54.49 331.997 -54.567 332.035L-66.462 334.563L-97.063 355.429C-97.102 355.467 -97.179 355.505 -97.256 355.505L-145.987 359.92L-181.478 391.992C-181.555 392.068 -181.631 392.105 -181.708 392.105L-232.673 393.879L-274.245 431.272C-274.322 431.347 -274.399 431.385 -274.514 431.385L-328.096 429.725L-377.444 462.892C-377.521 462.892 -377.598 462.93 -377.675 462.93Z" fill="#1CE7C2"/>
<path d="M-433.067 496.097H-433.106L-443.268 494.7C-443.46 494.663 -443.614 494.474 -443.614 494.285C-443.576 494.097 -443.383 493.946 -443.191 493.946L-433.144 495.342L-377.869 462.25C-377.792 462.213 -377.715 462.175 -377.638 462.213L-321.054 467.307L-274.786 430.744C-274.709 430.668 -274.632 430.63 -274.516 430.668L-220.857 432.366L-182.057 391.502C-181.98 391.426 -181.903 391.389 -181.787 391.389L-130.63 389.804L-97.604 354.939C-97.527 354.863 -97.45 354.826 -97.334 354.826L-48.372 351.543L-20.003 329.092C-19.926 329.054 -19.849 329.016 -19.772 329.016L27.266 326.149L51.632 317.659C51.671 317.659 51.709 317.659 51.709 317.621L96.823 313.697C97.054 313.659 97.208 313.848 97.246 314.037C97.246 314.225 97.092 314.414 96.9 314.452L51.786 318.3L27.42 326.79C27.382 326.79 27.343 326.79 27.305 326.828L-19.656 329.696L-48.025 352.147C-48.102 352.184 -48.179 352.222 -48.256 352.222L-97.18 355.505L-130.207 390.37C-130.284 390.445 -130.361 390.483 -130.477 390.483L-181.633 392.068L-220.395 432.97C-220.472 433.045 -220.588 433.083 -220.703 433.083L-274.401 431.385L-320.707 467.948C-320.784 468.023 -320.9 468.024 -320.977 468.024L-377.599 462.93L-432.875 496.021C-432.913 496.059 -432.99 496.097 -433.067 496.097Z" fill="#1CE7C2"/>
<path d="M178.93 216.649C178.814 216.649 178.699 216.611 178.622 216.498C178.506 216.347 178.506 216.083 178.699 215.97L186.359 210.159C186.397 210.121 186.436 210.121 186.436 210.121L194.327 207.027C194.519 206.951 194.75 207.027 194.827 207.253C194.904 207.442 194.827 207.668 194.596 207.744L186.744 210.8L179.161 216.573C179.084 216.611 179.007 216.649 178.93 216.649Z" fill="#1CE7C2"/>
<path d="M268.384 254.872C268.192 254.872 268.038 254.721 267.999 254.532C267.961 254.343 268.115 254.117 268.307 254.117L274.196 253.249L282.164 251.664L290.017 247.702L297.446 240.345L304.49 229.327L311.149 215.101C311.149 215.064 311.188 215.064 311.188 215.026L317.616 206.913C317.732 206.763 318.001 206.725 318.155 206.838C318.309 206.951 318.347 207.215 318.232 207.366L311.804 215.441L305.145 229.629C305.145 229.629 305.145 229.666 305.106 229.666L298.023 240.76C298.023 240.797 297.985 240.797 297.985 240.835L290.479 248.268C290.44 248.306 290.402 248.306 290.363 248.344L282.395 252.381C282.357 252.381 282.318 252.419 282.28 252.419L274.235 254.004L268.307 254.872C268.423 254.872 268.384 254.872 268.384 254.872Z" fill="#1CE7C2"/>
<path d="M-434.261 458.024L-443.268 457.345C-443.499 457.345 -443.653 457.156 -443.614 456.93C-443.614 456.704 -443.422 456.553 -443.191 456.59L-434.337 457.232L-381.91 427.687C-381.834 427.649 -381.795 427.649 -381.718 427.649L-328.329 428.932L-284.024 395.275C-283.947 395.237 -283.87 395.199 -283.793 395.199L-232.982 393.162L-194.99 364.334C-194.952 364.296 -194.875 364.259 -194.798 364.259L-146.259 359.202L-113.386 340.713C-113.347 340.676 -113.309 340.676 -113.27 340.676L-90.329 337.016L-81.129 335.959L-66.656 333.846L-19.849 328.941L6.63397 321.583C6.82697 321.507 7.05798 321.658 7.09598 321.847C7.17298 322.036 7.01897 322.262 6.82697 322.3L-19.656 329.695C-19.695 329.695 -19.695 329.695 -19.733 329.695L-66.579 334.601L-81.052 336.714L-90.252 337.77L-113.116 341.393L-145.989 359.882C-146.028 359.919 -146.105 359.919 -146.143 359.919L-194.644 365.013L-232.636 393.841C-232.713 393.879 -232.79 393.916 -232.867 393.916L-283.677 395.954L-327.982 429.611C-328.059 429.649 -328.136 429.687 -328.213 429.687L-381.641 428.404L-434.068 457.949C-434.107 457.986 -434.184 458.024 -434.261 458.024Z" fill="#1CE7C2"/>
<path d="M237.707 259.437C237.591 259.437 237.476 259.362 237.399 259.286C237.283 259.098 237.322 258.871 237.514 258.758L244.366 254.23L252.681 244.269L260.572 230.119C260.572 230.081 260.61 230.081 260.61 230.044L268.232 220.95C268.386 220.799 268.616 220.761 268.77 220.912C268.924 221.063 268.963 221.29 268.809 221.441L261.226 230.496L253.335 244.646C253.335 244.684 253.296 244.684 253.296 244.722L244.905 254.758C244.867 254.796 244.867 254.796 244.828 254.834L237.938 259.4C237.861 259.437 237.784 259.437 237.707 259.437Z" fill="#1CE7C2"/>
<path d="M167.187 309.508C167.11 309.508 167.071 309.508 166.994 309.471C166.802 309.395 166.725 309.131 166.84 308.98L170.343 302.226L182.507 280.19C182.507 280.152 182.545 280.152 182.545 280.115L194.209 267.814C194.247 267.776 194.286 267.738 194.363 267.701L205.526 263.475C205.718 263.399 205.949 263.512 206.026 263.701C206.103 263.89 205.987 264.116 205.795 264.191L194.709 268.38L183.161 280.567L171.036 302.528L167.533 309.282C167.456 309.433 167.341 309.508 167.187 309.508Z" fill="#1CE7C2"/>
<path d="M260.804 222.271C260.727 222.271 260.65 222.271 260.611 222.195C260.419 222.082 260.38 221.856 260.496 221.667L264.422 215.517L270.696 199.745C270.696 199.707 270.696 199.707 270.735 199.669L276.855 189.859C276.893 189.821 276.932 189.745 277.009 189.745L283.014 186.425C283.206 186.312 283.437 186.387 283.553 186.576C283.668 186.764 283.591 186.991 283.399 187.104L277.509 190.387L271.428 200.084L265.153 215.856C265.153 215.894 265.115 215.894 265.115 215.932L261.15 222.12C261.035 222.195 260.919 222.271 260.804 222.271Z" fill="#1CE7C2"/>
<path d="M-29.2421 204.687C-29.3581 204.687 -29.4731 204.649 -29.5501 204.536C-29.6661 204.385 -29.6271 204.121 -29.4731 204.008L-23.1991 199.442L-9.95705 191.632C-9.91905 191.632 -9.91906 191.594 -9.88006 191.594L2.89895 187.707C3.09195 187.632 3.32294 187.745 3.39994 187.972C3.47694 188.16 3.36095 188.387 3.12995 188.462L-9.61105 192.349L-22.775 200.122L-29.0111 204.649C-29.0501 204.687 -29.1651 204.687 -29.2421 204.687Z" fill="#1CE7C2"/>
<path d="M238.516 223.327C238.439 223.327 238.362 223.289 238.285 223.252C238.131 223.138 238.092 222.874 238.208 222.723L242.788 217.101L249.486 203.178C249.486 203.14 249.525 203.14 249.525 203.102L256.068 194.311C256.107 194.273 256.145 194.235 256.184 194.197L261.765 191.141C261.765 191.141 261.804 191.141 261.804 191.103L262.612 190.801C262.805 190.726 263.036 190.801 263.113 191.028C263.189 191.217 263.113 191.443 262.882 191.518L262.112 191.82L256.607 194.801L250.14 203.48L243.404 217.441C243.404 217.478 243.366 217.478 243.366 217.516L238.747 223.176C238.747 223.252 238.631 223.327 238.516 223.327Z" fill="#1CE7C2"/>
<path d="M250.369 304.188C250.215 304.188 250.061 304.075 250.022 303.924C249.945 303.735 250.061 303.509 250.253 303.434L257.644 300.981L291.132 288.907L324.736 276.832L358.494 265.55L392.406 255.74L418.389 249.702L421.43 248.91L422.816 248.646C423.008 248.608 423.239 248.759 423.278 248.948C423.316 249.136 423.162 249.363 422.97 249.4L421.622 249.627L418.581 250.419L392.637 256.456L358.764 266.267L325.044 277.549L291.44 289.623L257.952 301.698L250.561 304.151C250.446 304.188 250.407 304.188 250.369 304.188Z" fill="#1CE7C2"/>
<path d="M-93.714 625.935C-93.83 625.935 -93.945 625.897 -94.022 625.784C-94.138 625.633 -94.138 625.369 -93.984 625.255L-88.556 620.916L-46.984 577.26L-10.57 531.414L21.841 488.286L50.633 442.177L76.385 392.973L99.904 351.618C100.019 351.43 100.25 351.354 100.443 351.467C100.635 351.581 100.712 351.807 100.597 351.996L77.078 393.313L51.326 442.554L22.495 488.701L-9.91599 531.867L-46.368 577.75L-87.979 621.444L-88.017 621.482L-93.483 625.859C-93.56 625.935 -93.637 625.935 -93.714 625.935Z" fill="#1CE7C2"/>
<path d="M300.643 302.755C300.489 302.755 300.373 302.679 300.296 302.528C300.219 302.34 300.296 302.113 300.489 302.038L300.604 302L306.84 299.245L342.869 284.115L378.975 270.682L385.788 262.418L392.255 255.891L392.294 255.853L398.337 251.627C398.375 251.589 398.414 251.589 398.452 251.589L404.149 249.665C404.342 249.589 404.573 249.702 404.65 249.891C404.727 250.08 404.611 250.306 404.419 250.382L398.799 252.268L392.832 256.457L386.443 262.909L379.591 271.21C379.553 271.248 379.475 271.286 379.437 271.323L343.254 284.794L307.263 299.925L300.912 302.755C300.758 302.755 300.681 302.755 300.643 302.755Z" fill="#1CE7C2"/>
<path d="M-363.588 239.137C-363.627 239.137 -363.665 239.137 -363.665 239.137L-382.411 234.647L-385.337 234.043L-390.456 232.534L-396.538 230.496L-406.2 227.214L-411.666 225.402L-437.109 219.252L-443.268 218.12C-443.461 218.082 -443.615 217.894 -443.576 217.667C-443.538 217.479 -443.345 217.328 -443.114 217.365L-436.917 218.497L-411.396 224.648L-405.892 226.459L-404.237 227.025L-390.187 231.742L-385.106 233.251L-382.18 233.855L-363.511 238.307L-341.917 235.93L-321.593 227.591C-321.554 227.553 -321.477 227.553 -321.439 227.553L-298.651 228.836L-280.175 213.819C-280.098 213.781 -280.021 213.743 -279.944 213.743L-257.618 212.272L-235.215 211.026L-212.774 209.894L-190.487 208.762L-174.936 186.877L-174.897 186.84L-159.616 170.539C-159.577 170.501 -159.539 170.464 -159.5 170.464L-144.411 163.37C-144.373 163.332 -144.296 163.332 -144.219 163.332L-122.971 164.276L-101.53 167.03L-80.013 171.332L-58.457 176.69L-36.901 182.425L-23.198 185.783L-6.37601 187.557L0.705994 187.858L3.05399 187.783L25.457 188.764L47.937 191.594L70.493 195.782L81.079 198.16L82.041 198.31L94.282 200.914L106.869 203.253L109.294 203.668L130.888 207.178L161.028 212.649L171.229 214.498L179.235 215.932L203.447 219.743L227.62 222.308L238.475 222.723L243.787 223.025L268.461 220.875L293.173 215.139L317.886 206.838L342.675 197.518L367.58 188.5L392.561 180.878C392.754 180.802 392.985 180.916 393.062 181.142C393.139 181.331 393.023 181.557 392.792 181.633L367.811 189.255L342.944 198.273L318.155 207.593L293.404 215.932L268.654 221.705H268.615L243.864 223.855H243.826L238.514 223.554L227.62 223.139L203.408 220.573L178.966 216.762L171.152 215.328L146.901 210.913L130.811 207.97L109.217 204.461L106.792 204.046L94.205 201.706L81.964 199.103L81.002 198.952L70.416 196.575L47.898 192.386L25.457 189.556L3.13098 188.575L0.78299 188.651L-6.33801 188.349L-23.236 186.576H-23.275L-37.017 183.18L-58.573 177.444L-80.244 172.048L-101.723 167.785L-123.048 165.03L-144.219 164.162L-159.154 171.181L-174.359 187.406L-189.987 209.404C-190.064 209.517 -190.179 209.555 -190.294 209.555L-212.774 210.687L-235.215 211.819L-257.618 213.064L-279.828 214.535L-298.343 229.553C-298.42 229.629 -298.497 229.629 -298.613 229.629L-321.477 228.346L-341.763 236.647C-341.802 236.647 -341.84 236.685 -341.878 236.685L-363.627 239.062C-363.55 239.137 -363.588 239.137 -363.588 239.137Z" fill="#1CE7C2"/>
<path d="M256.953 256.57C256.76 256.57 256.606 256.457 256.568 256.268C256.529 256.079 256.645 255.853 256.876 255.815L262.919 254.608L290.21 247.627L317.579 240.458L344.87 234.194L350.836 223.365L356.572 209.744L362.038 195.216C362.038 195.179 362.076 195.141 362.115 195.103L367.388 188.5C367.504 188.349 367.773 188.311 367.927 188.425C368.081 188.538 368.12 188.802 368.004 188.953L362.769 195.481L357.342 209.97L351.606 223.591V223.629L345.524 234.647C345.486 234.76 345.37 234.798 345.255 234.836L317.81 241.137L290.441 248.306L263.112 255.287L257.068 256.494C256.991 256.57 256.953 256.57 256.953 256.57Z" fill="#1CE7C2"/>
<path d="M217.496 221.969C217.381 221.969 217.304 221.931 217.227 221.856C217.073 221.705 217.111 221.479 217.265 221.328L221.269 217.781L228.428 206.159C228.428 206.121 228.467 206.121 228.467 206.084L235.472 198.801C235.511 198.763 235.549 198.726 235.588 198.726L242.401 195.707C242.594 195.632 242.825 195.707 242.902 195.896C242.978 196.084 242.902 196.311 242.709 196.386L242.517 196.462L235.973 199.329L229.044 206.499L221.885 218.158C221.846 218.196 221.846 218.234 221.808 218.234L217.766 221.818C217.689 221.931 217.612 221.969 217.496 221.969Z" fill="#1CE7C2"/>
<path d="M100.788 314.188C100.596 314.188 100.442 314.074 100.403 313.886C100.365 313.697 100.519 313.471 100.711 313.433L106.254 312.527L138.357 307.018L170.575 302L202.871 296.755L235.205 289.435L267.462 281.058L276.815 263.89C276.854 263.777 276.969 263.701 277.085 263.701L308.61 258.381L316.617 251.136C316.694 251.061 316.771 251.061 316.848 251.023L347.642 249.061L378.551 248.721L384.441 248.193C384.479 248.193 384.479 248.193 384.518 248.193L399.876 249.665L401.3 249.74L404.149 249.627L414.234 249.702L420.701 248.948H420.739H421.432L422.318 248.835L426.359 247.891C426.552 247.854 426.783 247.967 426.821 248.155C426.86 248.344 426.744 248.57 426.552 248.608L422.471 249.551L421.548 249.702C421.509 249.702 421.509 249.702 421.471 249.702H420.778L414.311 250.457H414.272L404.187 250.382L401.339 250.495L399.876 250.419L384.518 248.948L378.628 249.438L347.719 249.778L317.079 251.702L309.072 258.909C309.034 258.947 308.957 258.985 308.88 258.985L277.431 264.305L268.077 281.436C268.039 281.511 267.923 281.587 267.846 281.624L235.436 290.039L203.063 297.472L170.729 302.755L138.511 307.773L106.408 313.282L100.865 314.188C100.827 314.15 100.827 314.188 100.788 314.188Z" fill="#1CE7C2"/>
<path d="M284.168 217.931C284.091 217.931 284.053 217.931 283.976 217.894C283.783 217.781 283.706 217.554 283.822 217.366L285.977 213.328L291.828 196.348C291.905 196.16 292.098 196.047 292.329 196.122C292.521 196.197 292.637 196.386 292.56 196.613L286.709 213.63C286.709 213.668 286.709 213.668 286.67 213.668L284.476 217.743C284.438 217.856 284.322 217.931 284.168 217.931Z" fill="#1CE7C2"/>
<path d="M136.241 311.81C136.164 311.81 136.125 311.81 136.048 311.773C135.856 311.659 135.779 311.433 135.894 311.244L138.088 307.207L151.137 284.756C151.137 284.718 151.176 284.718 151.176 284.68L163.724 271.965C163.763 271.927 163.801 271.889 163.84 271.889L175.849 266.984C176.042 266.908 176.273 266.984 176.35 267.173C176.427 267.361 176.35 267.588 176.157 267.663L164.225 272.531L151.792 285.171L138.743 307.546L136.548 311.584C136.51 311.735 136.395 311.81 136.241 311.81Z" fill="#1CE7C2"/>
<path d="M302.912 302.528C302.796 302.528 302.681 302.453 302.604 302.339C302.489 302.151 302.527 301.924 302.72 301.811L306.761 299.245L315.961 289.322L324.545 276.983L332.59 264.305L340.211 254.079C340.288 254.004 340.365 253.928 340.481 253.928L372.276 250.947L401.299 249.702C401.492 249.702 401.684 249.853 401.684 250.08C401.684 250.306 401.53 250.457 401.299 250.457L372.276 251.702L340.673 254.683L333.167 264.758L325.122 277.398L316.5 289.774L316.461 289.812L307.223 299.773C307.185 299.811 307.185 299.811 307.146 299.849L303.066 302.453C303.066 302.49 302.989 302.528 302.912 302.528Z" fill="#1CE7C2"/>
<path d="M160.913 213.366C160.759 213.366 160.605 213.29 160.566 213.139C160.489 212.951 160.605 212.724 160.797 212.649L165.378 210.913C165.416 210.913 165.455 210.875 165.493 210.875L173.885 210.272L189.667 207.706L191.283 207.442L194.44 207.027L213.07 202.876L216.226 202.272L222.27 200.839L228.852 199.065L237.359 197.028L242.517 195.707L250.062 193.896L255.335 192.122C255.374 192.122 255.374 192.122 255.412 192.122L259.916 191.519L261.956 191.141L262.726 190.839C262.726 190.839 262.764 190.839 262.803 190.839L283.127 186.462L303.528 182.953C303.72 182.916 303.951 183.067 303.99 183.255C304.028 183.444 303.874 183.67 303.682 183.708L283.319 187.217L263.034 191.594L262.264 191.896C262.225 191.896 262.225 191.896 262.187 191.934L260.108 192.311L255.604 192.915L250.331 194.688L242.748 196.537L237.59 197.858L229.083 199.895L222.501 201.669L216.457 203.103L213.301 203.706L194.632 207.857L191.476 208.272L189.859 208.536L174 211.14L165.647 211.743L161.105 213.441C160.99 213.366 160.951 213.366 160.913 213.366Z" fill="#1CE7C2"/>
<path d="M-16.422 205.178C-16.576 205.178 -16.7691 205.064 -16.8071 204.876C-16.8461 204.687 -16.73 204.461 -16.538 204.423L-13.189 203.631L10.6 199.971L34.465 198.31L46.8599 195.254C46.8979 195.254 46.898 195.254 46.937 195.254L58.8689 194.273C58.9079 194.273 58.908 194.273 58.946 194.273L70.4559 195.707C70.6479 195.745 70.802 195.933 70.802 196.122C70.764 196.311 70.571 196.461 70.379 196.461L58.9079 195.028L47.052 195.971L34.6579 199.027C34.6189 199.027 34.619 199.027 34.581 199.027L10.715 200.687L-12.996 204.31L-16.3071 205.102C-16.3451 205.178 -16.384 205.178 -16.422 205.178Z" fill="#1CE7C2"/>
<path d="M256.374 304.038C256.297 304.038 256.258 304.038 256.181 304C255.989 303.887 255.95 303.66 256.027 303.472L257.413 301.17L267.383 281.209C267.421 281.096 267.537 281.021 267.614 281.021L299.986 272.418L308.416 258.532C308.493 258.419 308.57 258.381 308.685 258.343L340.326 254.004L347.448 249.137C347.486 249.099 347.524 249.099 347.563 249.099L354.376 247.325L360.766 244.797C360.804 244.76 360.881 244.76 360.92 244.76L390.097 245.627L419.352 248.721L420.814 248.986C421.007 249.023 421.161 249.212 421.122 249.438C421.084 249.627 420.891 249.778 420.661 249.74L419.236 249.476L390.059 246.42L360.997 245.59L354.646 248.08H354.607L347.871 249.816L340.711 254.683C340.673 254.721 340.596 254.721 340.557 254.759L309.032 259.098L300.602 272.946C300.563 273.021 300.486 273.097 300.371 273.134L267.999 281.738L258.106 301.585L256.72 303.887C256.643 303.962 256.528 304.038 256.374 304.038Z" fill="#1CE7C2"/>
<path d="M197.559 219.554C197.443 219.554 197.289 219.478 197.212 219.365C197.097 219.177 197.174 218.95 197.366 218.837L199.714 217.516L207.336 208.536C207.375 208.498 207.375 208.498 207.413 208.461L214.842 203.102C214.881 203.065 214.919 203.065 214.958 203.065L222.156 200.801L228.776 199.027L237.322 196.914L240.016 196.273C240.209 196.235 240.44 196.348 240.478 196.537C240.517 196.726 240.401 196.952 240.209 196.99L237.514 197.631L228.969 199.744L222.387 201.518L215.265 203.744L207.913 209.026L200.253 218.045C200.215 218.082 200.176 218.12 200.138 218.12L197.713 219.478C197.674 219.554 197.597 219.554 197.559 219.554Z" fill="#1CE7C2"/>
<path d="M-14.728 205.291C-14.882 205.291 -14.998 205.215 -15.075 205.102C-15.19 204.914 -15.113 204.687 -14.921 204.574L-13.227 203.668L0.0530272 196.046C0.0530272 196.046 0.0910368 196.046 0.0910368 196.009L12.871 190.575C12.91 190.575 12.948 190.537 12.948 190.537L25.304 188.651C25.497 188.613 25.728 188.764 25.728 188.953C25.766 189.141 25.612 189.368 25.42 189.368L13.102 191.217L0.361026 196.612L-12.919 204.234L-14.613 205.14C-14.613 205.253 -14.69 205.291 -14.728 205.291Z" fill="#1CE7C2"/>
<path d="M261.341 255.928C261.187 255.928 261.033 255.815 260.995 255.664C260.918 255.476 261.033 255.249 261.226 255.174L262.804 254.646L270.926 248.42L278.586 238.194L285.861 224.044C285.861 224.007 285.9 224.007 285.9 223.969L292.905 215.215C293.021 215.064 293.29 215.026 293.444 215.139C293.598 215.253 293.637 215.517 293.521 215.668L286.515 224.384L279.24 238.534L279.202 238.571L271.465 248.872C271.426 248.91 271.426 248.91 271.388 248.948L263.189 255.249C263.15 255.287 263.112 255.287 263.073 255.325L261.457 255.853C261.418 255.891 261.38 255.928 261.341 255.928Z" fill="#1CE7C2"/>
<path d="M-54.145 331.28C-54.222 331.28 -54.26 331.28 -54.337 331.242C-54.53 331.129 -54.568 330.903 -54.491 330.714L-53.76 329.469L-35.514 299.924L-35.476 299.887L-17.962 279.36L-1.37104 260.682L14.411 244.872L14.449 244.835L29.5 232.76L29.538 232.722L43.935 224.27C43.935 224.27 43.973 224.27 43.973 224.233L57.715 218.535L70.802 214.007L83.159 208.46L95.014 203.97C95.053 203.97 95.091 203.932 95.13 203.932L106.639 203.253C106.678 203.253 106.678 203.253 106.716 203.253L107.524 203.366L109.141 203.668C109.334 203.706 109.488 203.895 109.449 204.121C109.411 204.31 109.218 204.461 108.987 204.423L107.37 204.121L106.601 204.008L95.284 204.649L83.505 209.14L71.1099 214.686L57.984 219.214L44.281 224.912L29.962 233.326L14.95 245.401L-0.794044 261.173L-17.384 279.813L-34.898 300.339L-53.144 329.846L-53.875 331.091C-53.875 331.205 -54.029 331.28 -54.145 331.28Z" fill="#1CE7C2"/>
<path d="M418.238 250.004C418.084 250.004 417.968 249.929 417.891 249.816C417.776 249.627 417.853 249.401 418.045 249.325L419.046 248.835L423.434 241.364L427.63 228.421L431.595 211.517L435.367 193.481L438.947 178.312C438.947 178.275 438.985 178.237 438.985 178.199L442.449 172.841C442.565 172.652 442.796 172.615 442.988 172.728C443.181 172.841 443.219 173.068 443.104 173.256L439.678 178.539L436.098 193.632L432.326 211.668L428.361 228.61L424.165 241.628C424.165 241.665 424.127 241.665 424.127 241.703L419.662 249.325C419.623 249.401 419.585 249.438 419.508 249.476L418.43 250.004C418.392 249.967 418.315 250.004 418.238 250.004Z" fill="#1CE7C2"/>
<path d="M541.143 237.062C541.105 237.062 541.028 237.062 540.989 237.024L540.104 236.647L513.044 226.648L485.983 218.837L458.962 213.819L431.94 211.894L404.995 213.139L378.088 217.29C377.896 217.328 377.665 217.177 377.665 216.988C377.627 216.8 377.781 216.573 377.973 216.573L404.879 212.423H404.918L431.901 211.177H431.94L459 213.102H459.039L486.137 218.12L513.275 225.931L540.412 235.93L541.297 236.307C541.49 236.383 541.567 236.609 541.49 236.798C541.451 236.986 541.297 237.062 541.143 237.062Z" fill="#1CE7C2"/>
<path d="M106.023 313.81C105.946 313.81 105.907 313.81 105.83 313.772C105.638 313.659 105.561 313.433 105.676 313.244L105.984 312.678L119.957 289.435C119.957 289.397 119.996 289.397 119.996 289.359L133.391 275.776C133.43 275.738 133.468 275.738 133.507 275.7L146.325 269.248C146.363 269.21 146.402 269.21 146.479 269.21L176.002 266.946L187.396 265.588C187.589 265.55 187.781 265.701 187.82 265.927C187.858 266.116 187.704 266.305 187.473 266.342L176.041 267.701L146.556 269.965L133.853 276.342L120.534 289.85L106.6 313.055L106.292 313.621C106.292 313.735 106.138 313.81 106.023 313.81Z" fill="#1CE7C2"/>
<path d="M44.9719 318.904C44.8949 318.904 44.818 318.866 44.741 318.829C44.549 318.715 44.51 318.489 44.664 318.3V318.263L57.675 297.019C57.675 296.981 57.713 296.981 57.713 296.944L72.802 280.832L72.841 280.794L87.199 269.738C87.276 269.701 87.353 269.663 87.43 269.663L116.954 270.154L146.4 269.248L158.526 266.192C158.564 266.192 158.603 266.192 158.603 266.192L187.357 265.626H187.472L196.171 264.607C196.364 264.569 196.556 264.72 196.595 264.946C196.633 265.135 196.479 265.324 196.248 265.362L187.395 266.418L158.641 266.984L146.516 270.04C146.477 270.04 146.477 270.04 146.439 270.04L116.915 270.946L87.507 270.455L73.264 281.436L58.329 297.472L45.319 318.715L45.28 318.753C45.203 318.866 45.0879 318.904 44.9719 318.904Z" fill="#1CE7C2"/>
<path d="M8.40505 206.536L8.05805 206.498L2.05405 206.159C1.82305 206.159 1.66905 205.97 1.70705 205.744C1.70705 205.517 1.90006 205.366 2.13006 205.404L8.44304 205.744L32.925 204.687L45.935 201.178L58.4071 198.461H58.4451L70.416 197.405C70.455 197.405 70.4551 197.405 70.4931 197.405L81.6181 198.235C81.8491 198.235 82.003 198.424 81.964 198.65C81.964 198.839 81.772 199.027 81.541 198.99L70.455 198.16L58.5611 199.216L46.128 201.933L33.0791 205.442C33.0401 205.442 33.0401 205.442 33.0021 205.442L8.40505 206.536Z" fill="#1CE7C2"/>
<path d="M302.412 302.641C302.22 302.641 302.066 302.49 302.027 302.302C301.989 302.113 302.143 301.887 302.335 301.887L302.797 301.811L306.608 301.057L311.728 300.075L334.13 291.85L342.714 284.152L350.759 275.096L358.265 265.701L365.348 257.211L365.386 257.173L372.046 251.061C372.084 251.023 372.123 250.985 372.161 250.985L378.435 248.721C378.474 248.721 378.551 248.684 378.589 248.684L399.876 249.627C400.107 249.627 400.261 249.816 400.261 250.004C400.261 250.231 400.068 250.382 399.876 250.382L378.666 249.438L372.507 251.664L365.925 257.702L358.881 266.154L351.337 275.549L343.253 284.643L343.215 284.681L334.554 292.416C334.515 292.453 334.477 292.491 334.438 292.491L311.959 300.755C311.92 300.755 311.92 300.755 311.882 300.755L306.724 301.736L302.874 302.49L302.374 302.566C302.412 302.604 302.412 302.641 302.412 302.641Z" fill="#1CE7C2"/>
<path d="M206.952 205.366C206.759 205.366 206.605 205.253 206.567 205.065C206.528 204.876 206.644 204.65 206.875 204.612L208.645 204.234L216.152 202.235L222.195 200.801C222.387 200.763 222.618 200.876 222.657 201.065C222.695 201.254 222.58 201.48 222.387 201.518L216.344 202.952L208.838 204.951L207.029 205.366C206.99 205.366 206.99 205.366 206.952 205.366Z" fill="#1CE7C2"/>
<path d="M-443.228 322.074C-443.344 322.074 -443.498 321.998 -443.575 321.885C-443.69 321.696 -443.613 321.47 -443.421 321.357L-433.682 315.885L-403.619 291.774L-375.327 268.38C-375.25 268.305 -375.135 268.267 -375.058 268.305L-344.533 270.757L-318.589 251.476C-318.512 251.438 -318.435 251.4 -318.358 251.4L-288.603 252.004L-258.925 253.023L-236.022 233.666C-235.945 233.591 -235.868 233.591 -235.791 233.591L-206.922 232.949L-185.789 218.158C-185.712 218.12 -185.674 218.082 -185.597 218.082L-157.42 216.234L-137.827 207.442C-137.789 207.404 -137.75 207.404 -137.673 207.404L-110.074 206.234H-110.036L-82.36 207.932L-65.038 202.989C-64.999 202.989 -64.961 202.989 -64.922 202.989L-60.842 203.216L-56.069 203.782L-37.785 205.404L-10.532 210.083L16.721 216.535L31.078 212.008C31.155 211.97 31.232 211.97 31.271 212.008L57.908 218.573L84.622 226.195L111.182 234.194L122.729 226.836C122.806 226.761 122.922 226.761 123.037 226.799L149.058 233.591L175.079 239.628L201.062 244.08L226.967 245.929L252.835 244.156L278.702 238.081L304.607 229.214L330.59 219.252L356.688 209.63L382.901 201.556L409.192 195.858H409.23L435.559 193.217H435.598L462.004 193.896H462.042L488.487 197.896H488.525L514.97 204.989L541.453 214.611L567.897 225.893L594.341 237.703L599.538 239.854C599.73 239.93 599.807 240.156 599.73 240.345C599.653 240.533 599.422 240.609 599.23 240.533L593.995 238.383L567.55 226.572L541.106 215.29L514.7 205.668L488.294 198.575L461.927 194.575L435.598 193.896L409.307 196.537L383.055 202.197L356.919 210.272L330.859 219.856L304.838 229.817L278.894 238.722H278.856L252.95 244.797C252.911 244.797 252.911 244.797 252.873 244.797L226.929 246.571H226.89L200.908 244.684L174.848 240.232L148.789 234.157L122.922 227.402L111.374 234.76C111.297 234.836 111.143 234.836 111.066 234.798L84.352 226.723L57.677 219.101L31.155 212.574L16.798 217.101C16.721 217.139 16.644 217.139 16.605 217.101L-10.725 210.649L-37.939 205.97L-56.223 204.348L-60.958 203.782L-64.961 203.555L-82.283 208.498C-82.321 208.498 -82.36 208.498 -82.398 208.498L-110.151 206.8L-137.635 207.97L-157.228 216.762C-157.266 216.8 -157.305 216.8 -157.343 216.8L-185.481 218.648L-206.498 233.628C-206.575 233.666 -206.652 233.704 -206.729 233.704L-235.599 234.345L-258.464 253.702C-258.54 253.778 -258.617 253.815 -258.733 253.778L-288.565 252.759L-318.204 252.155L-344.187 271.474C-344.264 271.512 -344.341 271.55 -344.456 271.55L-374.981 269.097L-403.157 292.378L-433.22 316.489L-433.259 316.527L-443.036 322.036C-443.113 322.074 -443.151 322.074 -443.228 322.074Z" fill="#1CE7C2"/>
</g>
<path d="M370.5 218.494C375.194 218.494 379 215.022 379 210.739C379 206.456 375.194 202.984 370.5 202.984C365.806 202.984 362 206.456 362 210.739C362 215.022 365.806 218.494 370.5 218.494Z" fill="white"/>
<path d="M374.763 210.739C374.763 212.753 372.943 214.539 370.501 214.539C368.059 214.539 366.239 212.753 366.239 210.739C366.239 208.724 368.059 206.938 370.501 206.938C372.943 206.938 374.763 208.724 374.763 210.739Z" fill="white" stroke="#0D2352" stroke-width="2"/>
<path d="M262.5 350.778C265.538 350.778 268 348.531 268 345.76C268 342.989 265.538 340.742 262.5 340.742C259.462 340.742 257 342.989 257 345.76C257 348.531 259.462 350.778 262.5 350.778Z" fill="white"/>
<path d="M264.905 345.76C264.905 346.839 263.917 347.866 262.5 347.866C261.084 347.866 260.096 346.839 260.096 345.76C260.096 344.681 261.084 343.654 262.5 343.654C263.917 343.654 264.905 344.681 264.905 345.76Z" fill="white" stroke="#0D2352" stroke-width="2"/>
<path d="M54.5 283.268C57.5376 283.268 60 281.021 60 278.25C60 275.479 57.5376 273.232 54.5 273.232C51.4624 273.232 49 275.479 49 278.25C49 281.021 51.4624 283.268 54.5 283.268Z" fill="white"/>
<path d="M56.905 278.25C56.905 279.328 55.917 280.356 54.5 280.356C53.084 280.356 52.096 279.328 52.096 278.25C52.096 277.171 53.084 276.143 54.5 276.143C55.917 276.143 56.905 277.171 56.905 278.25Z" fill="white" stroke="#0D2352" stroke-width="2"/>
</g>
</g>
<defs>
<linearGradient id="paint0_linear_142_159" x1="487" y1="82" x2="509.991" y2="612.087" gradientUnits="userSpaceOnUse">
<stop stop-color="#D9D9D9"/>
<stop offset="0.840804" stop-color="#D9D9D9" stop-opacity="0"/>
</linearGradient>
<clipPath id="clip0_142_159">
<rect width="422" height="647" rx="16" fill="white"/>
</clipPath>
<clipPath id="clip1_142_159">
<rect width="1440" height="693" fill="white" transform="translate(-233 82)"/>
</clipPath>
</defs>
</svg>
