<svg width="422" height="647" viewBox="0 0 422 647" fill="none" xmlns="http://www.w3.org/2000/svg">
<g clip-path="url(#clip0_142_424)">
<rect width="422" height="647" rx="16" fill="#1B1622"/>
<rect opacity="0.3" x="-10.5" y="-6.5" width="443" height="660" fill="#0F0A16"/>
<g opacity="0.12" filter="url(#filter0_b_142_424)">
<path d="M795.365 526.839C795.365 484.951 761.409 450.995 719.521 450.995H275.616C233.729 450.995 199.772 484.951 199.772 526.839V526.839C199.772 568.726 233.729 602.682 275.616 602.682H719.521C761.409 602.682 795.365 568.726 795.365 526.839V526.839Z" fill="url(#paint0_linear_142_424)"/>
</g>
<g filter="url(#filter1_f_142_424)">
<path d="M964.964 451.803H274.174C232.471 451.803 198.665 485.579 198.665 527.243C198.665 568.908 232.471 602.684 274.174 602.684H709.117" stroke="url(#paint1_linear_142_424)" stroke-width="5.95701" stroke-linecap="round"/>
</g>
<path d="M893.907 451.802H274.178C232.476 451.802 198.669 485.578 198.669 527.242C198.669 568.907 232.476 602.683 274.178 602.683H361.147H667.094" stroke="url(#paint2_linear_142_424)" stroke-width="1.1914" stroke-linecap="round"/>
<path d="M843.831 451.802H274.179C232.476 451.802 198.67 485.578 198.67 527.242C198.67 568.907 232.476 602.683 274.179 602.683H621.253" stroke="url(#paint3_linear_142_424)" stroke-width="1.1914" stroke-linecap="round"/>
<g filter="url(#filter2_f_142_424)">
<path d="M379.532 452.293C283.787 452.293 371.1 452.293 275.354 452.293" stroke="url(#paint4_linear_142_424)" stroke-width="2.67094" stroke-linecap="round"/>
</g>
<g filter="url(#filter3_f_142_424)">
<path d="M409.984 452.293C314.239 452.293 394.321 452.293 299.587 452.293" stroke="url(#paint5_linear_142_424)" stroke-width="2.67094" stroke-linecap="round"/>
</g>
<g filter="url(#filter4_f_142_424)">
<path d="M350.477 452.146C340.23 452.573 338.951 454.04 334.607 454.04C330.262 454.04 306.048 452.146 306.048 452.146C306.048 452.146 330.262 449.518 334.607 449.518C338.951 449.518 350.477 452.146 350.477 452.146Z" fill="white"/>
</g>
<g style="mix-blend-mode:plus-lighter" filter="url(#filter5_f_142_424)">
<path d="M231.665 587.701C236.752 591.072 242.753 594.27 247.258 595.104C239.415 595.519 236.021 593.269 230.824 590.803C225.339 586.924 219.243 578.331 219.223 577.017C223.691 581.685 227.142 584.705 231.665 587.701Z" fill="white"/>
</g>
<g style="mix-blend-mode:plus-lighter" filter="url(#filter6_f_142_424)">
<path d="M329.878 451.378C323.777 451.165 316.989 451.576 312.713 453.221C319.179 448.768 323.25 448.911 328.97 448.295C335.675 448.733 345.37 452.869 346.076 453.977C339.823 452.336 335.301 451.567 329.878 451.378Z" fill="white"/>
</g>
<g opacity="0.12" filter="url(#filter7_b_142_424)">
<path d="M599.294 476.229C599.294 434.801 565.71 401.217 524.282 401.217H85.2445C43.8164 401.217 10.2322 434.801 10.2322 476.229V476.229C10.2322 517.657 43.8164 551.241 85.2445 551.241H524.282C565.71 551.241 599.294 517.657 599.294 476.229V476.229Z" fill="url(#paint6_linear_142_424)"/>
</g>
<g filter="url(#filter8_f_142_424)">
<path d="M767.034 551.243H83.8187C42.5735 551.243 9.13766 517.837 9.13766 476.629C9.13766 435.422 42.5735 402.016 83.8187 402.016H421.686" stroke="url(#paint7_linear_142_424)" stroke-width="5.63805" stroke-linecap="round"/>
</g>
<path d="M696.756 551.243H83.8228C42.5775 551.243 9.14162 517.837 9.14162 476.629C9.14162 435.422 42.5775 402.016 83.8228 402.016H169.837H276.595" stroke="url(#paint8_linear_142_424)" stroke-width="1.87935" stroke-linecap="round"/>
<path d="M647.226 551.243H83.8195C42.5743 551.243 9.13845 517.837 9.13845 476.629C9.13845 435.422 42.5743 402.016 83.8195 402.016H298.181" stroke="url(#paint9_linear_142_424)" stroke-width="1.17834" stroke-linecap="round"/>
<g filter="url(#filter9_f_142_424)">
<path d="M88.1216 402.084C219.294 402.084 85.6157 402.085 216.788 402.084" stroke="url(#paint10_linear_142_424)" stroke-width="3.65922" stroke-linecap="round"/>
</g>
<g filter="url(#filter10_f_142_424)">
<path d="M168.122 401.946C154.083 402.531 152.33 403.195 146.379 403.195C140.427 403.195 107.253 403.292 107.253 403.292C107.253 403.292 140.427 397 146.379 397C152.33 397 168.122 401.946 168.122 401.946Z" fill="white"/>
</g>
<g style="mix-blend-mode:plus-lighter" filter="url(#filter11_f_142_424)">
<path d="M105.553 551.707C95.5341 553.964 71.9414 551.941 56.0126 546.71C22.966 534.357 11.2529 511.73 5.46509 502.601C12.061 510.53 46.7906 532.617 60.7437 539.366C68.926 543.324 96.5969 552.398 105.553 551.707Z" fill="url(#paint11_linear_142_424)"/>
</g>
<g style="mix-blend-mode:plus-lighter" filter="url(#filter12_f_142_424)">
<path d="M48.7534 537.64C56.6073 541.96 65.7588 546.115 72.4037 547.338C61.1049 547.464 55.8655 544.581 47.9839 541.351C39.4812 536.398 29.4137 525.716 29.1944 524.126C36.339 529.984 41.7722 533.801 48.7534 537.64Z" fill="white"/>
</g>
<g opacity="0.12" filter="url(#filter13_b_142_424)">
<path d="M-176.964 278.403C-176.964 237.764 -144.02 204.82 -103.381 204.82H327.289C367.927 204.82 400.871 237.764 400.871 278.403V278.403C400.871 319.041 367.927 351.985 327.289 351.985H-103.381C-144.019 351.985 -176.964 319.041 -176.964 278.403V278.403Z" fill="url(#paint12_linear_142_424)"/>
</g>
<g filter="url(#filter14_f_142_424)">
<path d="M-341.505 205.604H328.689C369.148 205.604 401.946 238.373 401.946 278.796C401.946 319.218 369.148 351.987 328.689 351.987H-2.73929" stroke="url(#paint13_linear_142_424)" stroke-width="5.77939" stroke-linecap="round"/>
</g>
<path d="M-272.566 205.604H328.684C369.143 205.604 401.942 238.373 401.942 278.796C401.942 319.218 369.143 351.987 328.684 351.987H244.309H139.586" stroke="url(#paint14_linear_142_424)" stroke-width="1.15588" stroke-linecap="round"/>
<path d="M-223.983 205.604H328.684C369.144 205.604 401.942 238.373 401.942 278.796C401.942 319.218 369.144 351.987 328.684 351.987H118.408" stroke="url(#paint15_linear_142_424)" stroke-width="1.15588" stroke-linecap="round"/>
<g filter="url(#filter15_f_142_424)">
<path d="M150.137 351.771C280.472 351.771 161.617 351.771 291.952 351.771" stroke="url(#paint16_linear_142_424)" stroke-width="2.5913" stroke-linecap="round"/>
</g>
<g filter="url(#filter16_f_142_424)">
<path d="M267.028 351.997C267.028 352.603 239.037 354.248 233.123 354.248C227.21 354.248 194.247 352.411 194.247 352.411C194.247 352.411 227.21 349.861 233.123 349.861C239.037 349.861 267.028 351.997 267.028 351.997Z" fill="white"/>
</g>
<g style="mix-blend-mode:plus-lighter" filter="url(#filter17_f_142_424)">
<path d="M400.552 258.128C395.179 247.679 380.499 221.983 363.901 212.648C347.302 203.314 315.323 201.298 304.746 204.892C324.334 207.169 332.169 209.126 355.674 220.085C373.737 228.507 394.537 249.882 400.552 258.128Z" fill="url(#paint17_linear_142_424)"/>
</g>
<g style="mix-blend-mode:plus-lighter" filter="url(#filter18_f_142_424)">
<path d="M351.608 208.269C357.027 210.074 362.846 212.651 366.058 215.49C361.844 209.473 358.227 208.27 353.413 205.862C347.389 204.058 337.534 204.519 336.553 205.261C342.573 205.862 346.79 206.665 351.608 208.269Z" fill="white"/>
</g>
<g opacity="0.13" filter="url(#filter19_b_142_424)">
<path d="M-399.938 229.275C-399.938 187.388 -365.981 153.431 -324.094 153.431H119.812C161.699 153.431 195.655 187.388 195.655 229.275V229.275C195.655 271.163 161.699 305.119 119.811 305.119H-324.094C-365.981 305.119 -399.938 271.163 -399.938 229.275V229.275Z" fill="url(#paint18_linear_142_424)"/>
</g>
<g filter="url(#filter20_f_142_424)">
<path d="M-513 305.122H122.067C163.769 305.122 197.576 271.346 197.576 229.681C197.576 188.016 163.769 154.241 122.067 154.241H-280.416" stroke="url(#paint19_linear_142_424)" stroke-width="5.95701" stroke-linecap="round"/>
</g>
<path d="M-512.322 305.122H122.069C163.771 305.122 197.578 271.346 197.578 229.681C197.578 188.016 163.771 154.241 122.069 154.241H-278.9" stroke="url(#paint20_linear_142_424)" stroke-width="1.1914" stroke-linecap="round"/>
<path d="M-472.594 305.122H122.065C163.767 305.122 197.574 271.346 197.574 229.681C197.574 188.016 163.767 154.241 122.065 154.241H-280.05" stroke="url(#paint21_linear_142_424)" stroke-width="1.1914" stroke-linecap="round"/>
<g filter="url(#filter21_f_142_424)">
<path d="M-191.034 304.939C-21.0672 304.939 -114.557 304.939 55.4098 304.939" stroke="url(#paint22_linear_142_424)" stroke-width="2.67094" stroke-linecap="round"/>
</g>
<g filter="url(#filter22_f_142_424)">
<path d="M22.9039 304.408C22.9039 305.033 -13.5993 306.728 -21.311 306.728C-29.0227 306.728 -72.0085 304.835 -72.0085 304.835C-72.0085 304.835 -29.0227 302.206 -21.311 302.206C-13.5993 302.206 22.9039 304.408 22.9039 304.408Z" fill="white"/>
</g>
<g style="mix-blend-mode:plus-lighter" filter="url(#filter23_f_142_424)">
<path d="M192.916 204.681C187.573 194.293 177.102 167.914 160.6 158.633C144.097 149.353 95.8129 149.195 83.2537 151.753C95.3198 150.868 140.998 162.338 157.421 168.69C167.052 172.414 186.935 196.483 192.916 204.681Z" fill="url(#paint23_linear_142_424)"/>
</g>
<g style="mix-blend-mode:plus-lighter" filter="url(#filter24_f_142_424)">
<path d="M144.256 155.11C149.644 156.905 155.429 159.467 158.622 162.289C154.432 156.307 150.837 155.111 146.05 152.718C140.061 150.923 130.264 151.382 129.288 152.119C135.273 152.718 139.466 153.515 144.256 155.11Z" fill="white"/>
</g>
</g>
<defs>
<filter id="filter0_b_142_424" x="106.843" y="358.065" width="781.451" height="337.546" filterUnits="userSpaceOnUse" color-interpolation-filters="sRGB">
<feFlood flood-opacity="0" result="BackgroundImageFix"/>
<feGaussianBlur in="BackgroundImageFix" stdDeviation="46.4646"/>
<feComposite in2="SourceAlpha" operator="in" result="effect1_backgroundBlur_142_424"/>
<feBlend mode="normal" in="SourceGraphic" in2="effect1_backgroundBlur_142_424" result="shape"/>
</filter>
<filter id="filter1_f_142_424" x="190.921" y="444.059" width="781.787" height="166.369" filterUnits="userSpaceOnUse" color-interpolation-filters="sRGB">
<feFlood flood-opacity="0" result="BackgroundImageFix"/>
<feBlend mode="normal" in="SourceGraphic" in2="BackgroundImageFix" result="shape"/>
<feGaussianBlur stdDeviation="2.3828" result="effect1_foregroundBlur_142_424"/>
</filter>
<filter id="filter2_f_142_424" x="270.68" y="447.619" width="113.527" height="9.34825" filterUnits="userSpaceOnUse" color-interpolation-filters="sRGB">
<feFlood flood-opacity="0" result="BackgroundImageFix"/>
<feBlend mode="normal" in="SourceGraphic" in2="BackgroundImageFix" result="shape"/>
<feGaussianBlur stdDeviation="1.66934" result="effect1_foregroundBlur_142_424"/>
</filter>
<filter id="filter3_f_142_424" x="294.245" y="446.951" width="121.081" height="10.6837" filterUnits="userSpaceOnUse" color-interpolation-filters="sRGB">
<feFlood flood-opacity="0" result="BackgroundImageFix"/>
<feBlend mode="normal" in="SourceGraphic" in2="BackgroundImageFix" result="shape"/>
<feGaussianBlur stdDeviation="2.00321" result="effect1_foregroundBlur_142_424"/>
</filter>
<filter id="filter4_f_142_424" x="298.813" y="442.283" width="58.9001" height="18.9924" filterUnits="userSpaceOnUse" color-interpolation-filters="sRGB">
<feFlood flood-opacity="0" result="BackgroundImageFix"/>
<feBlend mode="normal" in="SourceGraphic" in2="BackgroundImageFix" result="shape"/>
<feGaussianBlur stdDeviation="3.6176" result="effect1_foregroundBlur_142_424"/>
</filter>
<filter id="filter5_f_142_424" x="210.883" y="568.678" width="44.7145" height="34.8161" filterUnits="userSpaceOnUse" color-interpolation-filters="sRGB">
<feFlood flood-opacity="0" result="BackgroundImageFix"/>
<feBlend mode="normal" in="SourceGraphic" in2="BackgroundImageFix" result="shape"/>
<feGaussianBlur stdDeviation="4.1699" result="effect1_foregroundBlur_142_424"/>
</filter>
<filter id="filter6_f_142_424" x="304.373" y="439.956" width="50.0429" height="22.3617" filterUnits="userSpaceOnUse" color-interpolation-filters="sRGB">
<feFlood flood-opacity="0" result="BackgroundImageFix"/>
<feBlend mode="normal" in="SourceGraphic" in2="BackgroundImageFix" result="shape"/>
<feGaussianBlur stdDeviation="4.1699" result="effect1_foregroundBlur_142_424"/>
</filter>
<filter id="filter7_b_142_424" x="-81.6781" y="309.306" width="772.883" height="333.845" filterUnits="userSpaceOnUse" color-interpolation-filters="sRGB">
<feFlood flood-opacity="0" result="BackgroundImageFix"/>
<feGaussianBlur in="BackgroundImageFix" stdDeviation="45.9552"/>
<feComposite in2="SourceAlpha" operator="in" result="effect1_backgroundBlur_142_424"/>
<feBlend mode="normal" in="SourceGraphic" in2="effect1_backgroundBlur_142_424" result="shape"/>
</filter>
<filter id="filter8_f_142_424" x="1.60526" y="394.484" width="772.961" height="164.291" filterUnits="userSpaceOnUse" color-interpolation-filters="sRGB">
<feFlood flood-opacity="0" result="BackgroundImageFix"/>
<feBlend mode="normal" in="SourceGraphic" in2="BackgroundImageFix" result="shape"/>
<feGaussianBlur stdDeviation="2.35667" result="effect1_foregroundBlur_142_424"/>
</filter>
<filter id="filter9_f_142_424" x="80.8032" y="394.766" width="143.303" height="14.6368" filterUnits="userSpaceOnUse" color-interpolation-filters="sRGB">
<feFlood flood-opacity="0" result="BackgroundImageFix"/>
<feBlend mode="normal" in="SourceGraphic" in2="BackgroundImageFix" result="shape"/>
<feGaussianBlur stdDeviation="2.74441" result="effect1_foregroundBlur_142_424"/>
</filter>
<filter id="filter10_f_142_424" x="97.3406" y="387.088" width="80.6938" height="26.1161" filterUnits="userSpaceOnUse" color-interpolation-filters="sRGB">
<feFlood flood-opacity="0" result="BackgroundImageFix"/>
<feBlend mode="normal" in="SourceGraphic" in2="BackgroundImageFix" result="shape"/>
<feGaussianBlur stdDeviation="4.95616" result="effect1_foregroundBlur_142_424"/>
</filter>
<filter id="filter11_f_142_424" x="-2.71741" y="494.419" width="116.453" height="66.384" filterUnits="userSpaceOnUse" color-interpolation-filters="sRGB">
<feFlood flood-opacity="0" result="BackgroundImageFix"/>
<feBlend mode="normal" in="SourceGraphic" in2="BackgroundImageFix" result="shape"/>
<feGaussianBlur stdDeviation="4.09125" result="effect1_foregroundBlur_142_424"/>
</filter>
<filter id="filter12_f_142_424" x="11.7668" y="506.698" width="78.0644" height="58.0716" filterUnits="userSpaceOnUse" color-interpolation-filters="sRGB">
<feFlood flood-opacity="0" result="BackgroundImageFix"/>
<feBlend mode="normal" in="SourceGraphic" in2="BackgroundImageFix" result="shape"/>
<feGaussianBlur stdDeviation="8.71376" result="effect1_foregroundBlur_142_424"/>
</filter>
<filter id="filter13_b_142_424" x="-267.122" y="114.662" width="758.152" height="327.482" filterUnits="userSpaceOnUse" color-interpolation-filters="sRGB">
<feFlood flood-opacity="0" result="BackgroundImageFix"/>
<feGaussianBlur in="BackgroundImageFix" stdDeviation="45.0793"/>
<feComposite in2="SourceAlpha" operator="in" result="effect1_backgroundBlur_142_424"/>
<feBlend mode="normal" in="SourceGraphic" in2="effect1_backgroundBlur_142_424" result="shape"/>
</filter>
<filter id="filter14_f_142_424" x="-349.018" y="198.091" width="758.477" height="161.409" filterUnits="userSpaceOnUse" color-interpolation-filters="sRGB">
<feFlood flood-opacity="0" result="BackgroundImageFix"/>
<feBlend mode="normal" in="SourceGraphic" in2="BackgroundImageFix" result="shape"/>
<feGaussianBlur stdDeviation="2.31176" result="effect1_foregroundBlur_142_424"/>
</filter>
<filter id="filter15_f_142_424" x="145.603" y="347.236" width="150.884" height="9.06957" filterUnits="userSpaceOnUse" color-interpolation-filters="sRGB">
<feFlood flood-opacity="0" result="BackgroundImageFix"/>
<feBlend mode="normal" in="SourceGraphic" in2="BackgroundImageFix" result="shape"/>
<feGaussianBlur stdDeviation="1.61957" result="effect1_foregroundBlur_142_424"/>
</filter>
<filter id="filter16_f_142_424" x="187.228" y="342.841" width="86.8203" height="18.4262" filterUnits="userSpaceOnUse" color-interpolation-filters="sRGB">
<feFlood flood-opacity="0" result="BackgroundImageFix"/>
<feBlend mode="normal" in="SourceGraphic" in2="BackgroundImageFix" result="shape"/>
<feGaussianBlur stdDeviation="3.50974" result="effect1_foregroundBlur_142_424"/>
</filter>
<filter id="filter17_f_142_424" x="297.934" y="196.405" width="109.431" height="68.5352" filterUnits="userSpaceOnUse" color-interpolation-filters="sRGB">
<feFlood flood-opacity="0" result="BackgroundImageFix"/>
<feBlend mode="normal" in="SourceGraphic" in2="BackgroundImageFix" result="shape"/>
<feGaussianBlur stdDeviation="3.40615" result="effect1_foregroundBlur_142_424"/>
</filter>
<filter id="filter18_f_142_424" x="328.461" y="196.515" width="45.6875" height="27.0661" filterUnits="userSpaceOnUse" color-interpolation-filters="sRGB">
<feFlood flood-opacity="0" result="BackgroundImageFix"/>
<feBlend mode="normal" in="SourceGraphic" in2="BackgroundImageFix" result="shape"/>
<feGaussianBlur stdDeviation="4.04558" result="effect1_foregroundBlur_142_424"/>
</filter>
<filter id="filter19_b_142_424" x="-492.867" y="60.5021" width="781.451" height="337.546" filterUnits="userSpaceOnUse" color-interpolation-filters="sRGB">
<feFlood flood-opacity="0" result="BackgroundImageFix"/>
<feGaussianBlur in="BackgroundImageFix" stdDeviation="46.4646"/>
<feComposite in2="SourceAlpha" operator="in" result="effect1_backgroundBlur_142_424"/>
<feBlend mode="normal" in="SourceGraphic" in2="effect1_backgroundBlur_142_424" result="shape"/>
</filter>
<filter id="filter20_f_142_424" x="-520.744" y="146.497" width="726.064" height="166.369" filterUnits="userSpaceOnUse" color-interpolation-filters="sRGB">
<feFlood flood-opacity="0" result="BackgroundImageFix"/>
<feBlend mode="normal" in="SourceGraphic" in2="BackgroundImageFix" result="shape"/>
<feGaussianBlur stdDeviation="2.3828" result="effect1_foregroundBlur_142_424"/>
</filter>
<filter id="filter21_f_142_424" x="-195.708" y="300.265" width="255.792" height="9.34825" filterUnits="userSpaceOnUse" color-interpolation-filters="sRGB">
<feFlood flood-opacity="0" result="BackgroundImageFix"/>
<feBlend mode="normal" in="SourceGraphic" in2="BackgroundImageFix" result="shape"/>
<feGaussianBlur stdDeviation="1.66934" result="effect1_foregroundBlur_142_424"/>
</filter>
<filter id="filter22_f_142_424" x="-79.2438" y="294.971" width="109.383" height="18.9924" filterUnits="userSpaceOnUse" color-interpolation-filters="sRGB">
<feFlood flood-opacity="0" result="BackgroundImageFix"/>
<feBlend mode="normal" in="SourceGraphic" in2="BackgroundImageFix" result="shape"/>
<feGaussianBlur stdDeviation="3.6176" result="effect1_foregroundBlur_142_424"/>
</filter>
<filter id="filter23_f_142_424" x="76.232" y="143.316" width="123.705" height="68.3871" filterUnits="userSpaceOnUse" color-interpolation-filters="sRGB">
<feFlood flood-opacity="0" result="BackgroundImageFix"/>
<feBlend mode="normal" in="SourceGraphic" in2="BackgroundImageFix" result="shape"/>
<feGaussianBlur stdDeviation="3.51083" result="effect1_foregroundBlur_142_424"/>
</filter>
<filter id="filter24_f_142_424" x="120.948" y="143.128" width="46.014" height="27.5004" filterUnits="userSpaceOnUse" color-interpolation-filters="sRGB">
<feFlood flood-opacity="0" result="BackgroundImageFix"/>
<feBlend mode="normal" in="SourceGraphic" in2="BackgroundImageFix" result="shape"/>
<feGaussianBlur stdDeviation="4.1699" result="effect1_foregroundBlur_142_424"/>
</filter>
<linearGradient id="paint0_linear_142_424" x1="244.593" y1="450.995" x2="384.955" y2="629.029" gradientUnits="userSpaceOnUse">
<stop stop-color="#C89EFE"/>
<stop offset="0.933702" stop-color="#888888" stop-opacity="0"/>
</linearGradient>
<linearGradient id="paint1_linear_142_424" x1="294.995" y1="471.508" x2="403.203" y2="719.872" gradientUnits="userSpaceOnUse">
<stop stop-color="#9945FF"/>
<stop offset="0.387173" stop-color="#64A8F2"/>
<stop offset="0.604965" stop-color="#14F195"/>
<stop offset="0.877506" stop-color="#14F195" stop-opacity="0"/>
</linearGradient>
<linearGradient id="paint2_linear_142_424" x1="286.067" y1="471.507" x2="401.382" y2="711.639" gradientUnits="userSpaceOnUse">
<stop stop-color="#9945FF"/>
<stop offset="0.387173" stop-color="#64A8F2"/>
<stop offset="0.604965" stop-color="#14F195"/>
<stop offset="0.877506" stop-color="#14F195" stop-opacity="0"/>
</linearGradient>
<linearGradient id="paint3_linear_142_424" x1="198.669" y1="527.242" x2="989.898" y2="570.629" gradientUnits="userSpaceOnUse">
<stop stop-color="white"/>
<stop offset="0.684276" stop-opacity="0"/>
</linearGradient>
<linearGradient id="paint4_linear_142_424" x1="437.061" y1="452.293" x2="275.354" y2="452.293" gradientUnits="userSpaceOnUse">
<stop stop-opacity="0"/>
<stop offset="0.54" stop-color="white"/>
<stop offset="1" stop-color="white" stop-opacity="0"/>
</linearGradient>
<linearGradient id="paint5_linear_142_424" x1="404.254" y1="452.423" x2="297.285" y2="452.423" gradientUnits="userSpaceOnUse">
<stop stop-color="white" stop-opacity="0"/>
<stop offset="0.71" stop-color="white"/>
<stop offset="1" stop-color="white" stop-opacity="0"/>
</linearGradient>
<linearGradient id="paint6_linear_142_424" x1="54.5616" y1="401.217" x2="193.385" y2="577.299" gradientUnits="userSpaceOnUse">
<stop stop-color="#C89EFE"/>
<stop offset="0.933702" stop-color="#888888" stop-opacity="0"/>
</linearGradient>
<linearGradient id="paint7_linear_142_424" x1="14.5815" y1="551.239" x2="114.951" y2="292.256" gradientUnits="userSpaceOnUse">
<stop stop-color="#14F195"/>
<stop offset="0.387173" stop-color="#64A8F2"/>
<stop offset="0.842968" stop-color="#9945FF"/>
<stop offset="0.989913" stop-color="#9945FF" stop-opacity="0"/>
</linearGradient>
<linearGradient id="paint8_linear_142_424" x1="14.0806" y1="551.239" x2="121.69" y2="299.325" gradientUnits="userSpaceOnUse">
<stop stop-color="#14F195"/>
<stop offset="0.387173" stop-color="#64A8F2"/>
<stop offset="0.842968" stop-color="#9945FF"/>
<stop offset="0.989913" stop-color="#9945FF" stop-opacity="0"/>
</linearGradient>
<linearGradient id="paint9_linear_142_424" x1="9.13834" y1="476.629" x2="739.813" y2="433.353" gradientUnits="userSpaceOnUse">
<stop stop-color="white"/>
<stop offset="0.575398" stop-opacity="0"/>
</linearGradient>
<linearGradient id="paint10_linear_142_424" x1="76.5983" y1="402.084" x2="218.616" y2="402.085" gradientUnits="userSpaceOnUse">
<stop stop-color="white" stop-opacity="0"/>
<stop offset="0.693823" stop-color="white"/>
<stop offset="1" stop-color="white" stop-opacity="0"/>
</linearGradient>
<linearGradient id="paint11_linear_142_424" x1="47.6552" y1="548.779" x2="57.4669" y2="534.571" gradientUnits="userSpaceOnUse">
<stop stop-color="#C297F5"/>
<stop offset="1" stop-color="#71588F" stop-opacity="0"/>
</linearGradient>
<linearGradient id="paint12_linear_142_424" x1="357.387" y1="204.82" x2="221.209" y2="377.546" gradientUnits="userSpaceOnUse">
<stop stop-color="#C89EFE"/>
<stop offset="0.933702" stop-color="#888888" stop-opacity="0"/>
</linearGradient>
<linearGradient id="paint13_linear_142_424" x1="396.606" y1="205.608" x2="300.372" y2="469.865" gradientUnits="userSpaceOnUse">
<stop offset="0.0360926" stop-color="#9945FF"/>
<stop offset="0.387173" stop-color="#64A8F2"/>
<stop offset="0.72535" stop-color="#14F195"/>
<stop offset="0.877506" stop-color="#53B7DF" stop-opacity="0"/>
</linearGradient>
<linearGradient id="paint14_linear_142_424" x1="396.602" y1="205.608" x2="309.592" y2="421.293" gradientUnits="userSpaceOnUse">
<stop offset="0.0105386" stop-color="#9945FF"/>
<stop offset="0.429639" stop-color="#64A8F2"/>
<stop offset="0.711555" stop-color="#14F195"/>
<stop offset="1" stop-opacity="0"/>
</linearGradient>
<linearGradient id="paint15_linear_142_424" x1="401.942" y1="278.796" x2="-314.807" y2="321.247" gradientUnits="userSpaceOnUse">
<stop stop-color="white"/>
<stop offset="0.575398" stop-opacity="0"/>
</linearGradient>
<linearGradient id="paint16_linear_142_424" x1="145.517" y1="351.771" x2="291.952" y2="351.771" gradientUnits="userSpaceOnUse">
<stop stop-color="white" stop-opacity="0"/>
<stop offset="0.45" stop-color="white"/>
<stop offset="1" stop-color="white" stop-opacity="0"/>
</linearGradient>
<linearGradient id="paint17_linear_142_424" x1="361.122" y1="205.955" x2="356.848" y2="226.386" gradientUnits="userSpaceOnUse">
<stop stop-color="#C297F5"/>
<stop offset="1" stop-color="#71588F" stop-opacity="0"/>
</linearGradient>
<linearGradient id="paint18_linear_142_424" x1="134.279" y1="153.431" x2="33.8732" y2="331.017" gradientUnits="userSpaceOnUse">
<stop stop-color="#E8FFF5"/>
<stop offset="0.62911" stop-color="#6F6F6F" stop-opacity="0"/>
</linearGradient>
<linearGradient id="paint19_linear_142_424" x1="307.603" y1="274.857" x2="145.713" y2="-45.1012" gradientUnits="userSpaceOnUse">
<stop stop-color="#14F195"/>
<stop offset="0.604091" stop-color="#6C98F4"/>
<stop offset="0.943012" stop-color="#9945FF" stop-opacity="0"/>
</linearGradient>
<linearGradient id="paint20_linear_142_424" x1="307.501" y1="274.857" x2="145.519" y2="-44.9769" gradientUnits="userSpaceOnUse">
<stop stop-color="#14F195"/>
<stop offset="0.604091" stop-color="#6C98F4"/>
<stop offset="0.943012" stop-color="#9945FF" stop-opacity="0"/>
</linearGradient>
<linearGradient id="paint21_linear_142_424" x1="197.574" y1="229.681" x2="-417.199" y2="231.598" gradientUnits="userSpaceOnUse">
<stop offset="0.295692" stop-color="white"/>
<stop offset="0.707246" stop-opacity="0"/>
</linearGradient>
<linearGradient id="paint22_linear_142_424" x1="-186.832" y1="304.939" x2="55.4098" y2="304.939" gradientUnits="userSpaceOnUse">
<stop stop-color="white" stop-opacity="0"/>
<stop offset="0.54" stop-color="white"/>
<stop offset="1" stop-color="white" stop-opacity="0"/>
</linearGradient>
<linearGradient id="paint23_linear_142_424" x1="153.713" y1="152.812" x2="149.464" y2="173.124" gradientUnits="userSpaceOnUse">
<stop stop-color="#C297F5"/>
<stop offset="1" stop-color="#71588F" stop-opacity="0"/>
</linearGradient>
<clipPath id="clip0_142_424">
<rect width="422" height="647" rx="16" fill="white"/>
</clipPath>
</defs>
</svg>
