<svg preserveAspectRatio="none" width="100%" height="100%" overflow="visible" style="display: block;" viewBox="0 0 273.521 54.8053" fill="none" xmlns="http://www.w3.org/2000/svg">
<g id="Group">
<path id="Vector" d="M200.159 2.6189C199.685 2.61879 199.216 2.71208 198.778 2.89342C198.34 3.07477 197.942 3.34063 197.607 3.6758C197.272 4.01097 197.006 4.40889 196.825 4.84682C196.644 5.28475 196.55 5.75412 196.551 6.2281C196.55 6.70204 196.644 7.17136 196.825 7.60925C197.006 8.04714 197.272 8.44501 197.607 8.78014C197.942 9.11527 198.34 9.38109 198.778 9.56241C199.216 9.74373 199.685 9.837 200.159 9.8369H200.269C200.743 9.837 201.212 9.74373 201.65 9.56241C202.088 9.38109 202.486 9.11527 202.821 8.78014C203.156 8.44501 203.422 8.04714 203.603 7.60925C203.784 7.17136 203.878 6.70204 203.877 6.2281C203.878 5.75412 203.784 5.28475 203.603 4.84682C203.422 4.40889 203.156 4.01097 202.821 3.6758C202.486 3.34063 202.088 3.07477 201.65 2.89342C201.212 2.71208 200.743 2.61879 200.269 2.6189H200.159ZM55.5846 31.9713H60.7142C60.8618 31.9713 60.9858 32.0805 61.0038 32.2281C61.5118 36.0761 63.8238 39.7293 68.2302 39.7293H74.1102C77.9878 39.7293 80.6162 37.0389 80.6162 33.4093C80.6162 30.0929 78.4278 27.6533 75.049 27.2785L66.2898 26.0913C59.7218 25.2141 56.3434 20.8993 56.3434 15.0169C56.3434 8.3217 60.785 3.2541 70.5454 3.2541C80.3058 3.2541 84.9986 7.7101 85.483 16.1389C85.4848 16.1793 85.4784 16.2196 85.4642 16.2574C85.45 16.2952 85.4284 16.3298 85.4005 16.359C85.3726 16.3883 85.3391 16.4116 85.302 16.4276C85.2649 16.4436 85.225 16.4519 85.1846 16.4521H80.0786C80.0043 16.4514 79.9329 16.4227 79.8787 16.3718C79.8246 16.3209 79.7915 16.2515 79.7862 16.1773C79.5086 12.4445 77.3202 8.5697 72.985 8.5697H67.793C64.1638 8.5697 61.8514 11.0093 61.8514 14.5117C61.8514 18.2033 64.5418 20.4537 67.731 20.8937L76.3634 22.0189C83.1202 22.9581 86.1858 27.0869 86.1858 32.9665C86.1858 39.6613 81.995 45.0393 71.0474 45.0393C60.847 45.0393 55.5962 40.7037 55.2922 32.2693C55.2907 32.2296 55.2972 32.1899 55.3114 32.1528C55.3255 32.1156 55.347 32.0817 55.3746 32.053C55.4021 32.0243 55.4352 32.0015 55.4717 31.9859C55.5083 31.9703 55.5476 31.9622 55.5874 31.9621L55.5846 31.9713ZM102.467 44.1709H100.982C100.734 44.1709 100.515 44.0173 100.427 43.7841L89.7066 14.8513C89.69 14.8065 89.6845 14.7584 89.6905 14.7111C89.6966 14.6637 89.714 14.6186 89.7412 14.5794C89.7685 14.5402 89.8048 14.5082 89.8471 14.4861C89.8895 14.464 89.9365 14.4525 89.9842 14.4525H94.9838C95.1078 14.4525 95.2202 14.5293 95.2614 14.6477L104.201 39.1653H105.453L114.641 14.6445C114.662 14.588 114.7 14.5394 114.749 14.5051C114.799 14.4707 114.858 14.4524 114.918 14.4525H119.605C119.653 14.4525 119.7 14.464 119.742 14.4861C119.784 14.5082 119.821 14.5402 119.848 14.5794C119.875 14.6186 119.893 14.6637 119.899 14.7111C119.905 14.7584 119.899 14.8065 119.883 14.8513L105.025 54.6137C105.004 54.6701 104.966 54.7187 104.916 54.7529C104.867 54.7871 104.808 54.8054 104.747 54.8053H99.9986C99.9509 54.8053 99.904 54.7937 99.8617 54.7717C99.8194 54.7496 99.7831 54.7176 99.7559 54.6785C99.7286 54.6394 99.7112 54.5943 99.7051 54.547C99.6991 54.4997 99.7045 54.4516 99.721 54.4069L103.185 45.2077C103.229 45.0917 103.244 44.9668 103.228 44.8438C103.213 44.7207 103.168 44.6032 103.098 44.5013C103.027 44.3994 102.933 44.3161 102.823 44.2585C102.713 44.201 102.591 44.1709 102.467 44.1709ZM125.139 14.4525H129.802C129.964 14.4525 130.097 14.5857 130.097 14.7481V16.5289C130.097 17.2289 130.957 17.5593 131.429 17.0457C133.547 14.7333 136.521 13.5757 140.484 13.5757C148.304 13.5757 152.495 18.0793 152.495 25.7133V43.8725C152.494 43.9508 152.463 44.0259 152.408 44.0813C152.353 44.1367 152.278 44.1679 152.199 44.1681H147.409C147.331 44.1679 147.256 44.1367 147.2 44.0813C147.145 44.0259 147.114 43.9508 147.114 43.8725V26.4633C147.114 21.6465 144.612 18.7673 141.172 18.7673H137.043C133.414 18.7673 130.286 22.0217 130.286 26.4633V43.8725C130.286 43.9508 130.255 44.0259 130.2 44.0813C130.144 44.1367 130.069 44.1679 129.991 44.1681H125.139C125.061 44.168 124.986 44.1368 124.93 44.0814C124.875 44.026 124.844 43.9509 124.843 43.8725V14.7481C124.843 14.5853 124.977 14.4525 125.139 14.4525ZM158.687 29.2809C158.687 19.9605 164.88 13.5785 173.639 13.5785C177.31 13.5785 180.396 14.9905 182.499 16.8657C182.992 17.3057 183.775 16.9541 183.775 16.2925V3.1745C183.775 3.0962 183.806 3.02113 183.862 2.96573C183.917 2.91033 183.992 2.87911 184.07 2.8789H188.86C189.023 2.8789 189.156 3.0121 189.156 3.1745V43.8729C189.156 43.9512 189.124 44.0262 189.069 44.0815C189.014 44.1369 188.938 44.168 188.86 44.1681H184.197C184.119 44.1679 184.044 44.1367 183.988 44.0814C183.933 44.0261 183.902 43.9511 183.902 43.8729V41.9769C183.902 41.3065 183.096 40.9521 182.611 41.4157C180.329 43.6189 177.183 45.0421 173.391 45.0421C164.632 45.0421 158.69 38.6601 158.69 29.2781L158.687 29.2809ZM183.775 32.1569V26.4637C183.775 22.2113 180.771 18.7057 176.705 18.7057H172.201C167.759 18.7057 164.13 23.4605 164.13 29.2781C164.13 35.0957 167.759 39.9129 172.201 39.9129H176.705C180.709 39.9129 183.775 36.4725 183.775 32.1549V32.1569ZM197.788 14.4525H202.64C202.718 14.4527 202.794 14.4839 202.849 14.5393C202.904 14.5947 202.935 14.6698 202.935 14.7481V43.8725C202.935 43.9508 202.904 44.0259 202.849 44.0813C202.794 44.1367 202.718 44.1679 202.64 44.1681H197.788C197.71 44.168 197.635 44.1368 197.579 44.0814C197.524 44.026 197.493 43.9509 197.493 43.8725V14.7481C197.493 14.5857 197.626 14.4525 197.788 14.4525ZM209.211 29.2809C209.211 19.9605 215.466 13.5785 224.601 13.5785C231.565 13.5785 237.255 17.0397 238.499 24.6205C238.505 24.6629 238.503 24.7063 238.491 24.7477C238.48 24.7891 238.459 24.8275 238.432 24.8603C238.404 24.8931 238.369 24.9195 238.33 24.9378C238.292 24.9561 238.249 24.9657 238.206 24.9661H233.419C233.35 24.9655 233.283 24.9407 233.23 24.8959C233.177 24.8511 233.142 24.7892 233.13 24.7209C232.362 20.5157 229.234 18.6489 226.166 18.6489H222.663C218.346 18.6489 214.654 23.4037 214.654 29.2837C214.654 35.1637 218.346 39.9801 222.663 39.9801H226.166C229.234 39.9801 232.424 38.0549 233.133 33.8493C233.144 33.7805 233.179 33.718 233.232 33.6726C233.285 33.6272 233.352 33.602 233.422 33.6013H238.206C238.389 33.6013 238.528 33.7665 238.499 33.9469C237.255 41.5277 231.565 45.0509 224.601 45.0509C215.466 45.0509 209.211 38.6069 209.211 29.2869V29.2809ZM243.055 29.2809C243.055 19.9605 249.248 13.5785 258.007 13.5785C261.69 13.5785 264.871 14.9989 267.003 16.8505C267.499 17.2817 268.267 16.9273 268.267 16.2717V14.7509C268.267 14.6727 268.298 14.5977 268.354 14.5424C268.409 14.4871 268.484 14.4559 268.562 14.4557H273.225C273.304 14.4559 273.379 14.4871 273.434 14.5424C273.489 14.5977 273.52 14.6727 273.521 14.7509V43.8757C273.52 43.9539 273.489 44.0289 273.434 44.0842C273.379 44.1395 273.304 44.1707 273.225 44.1709H268.562C268.484 44.1707 268.409 44.1395 268.354 44.0842C268.298 44.0289 268.267 43.9539 268.267 43.8757V41.9797C268.267 41.3093 267.461 40.9549 266.976 41.4185C264.693 43.6217 261.548 45.0449 257.756 45.0449C248.997 45.0449 243.055 38.6633 243.055 29.2809ZM268.143 32.1569V26.4637C268.143 22.2109 265.139 18.7057 261.073 18.7057H256.569C252.127 18.7057 248.498 23.4605 248.498 29.2781C248.498 35.0957 252.127 39.9129 256.569 39.9129H261.073C265.077 39.9129 268.143 36.4721 268.143 32.1545V32.1569Z" fill="var(--fill-0, white)"/>
<path id="Vector_2" d="M40.8798 15.844C39.7606 18.298 37.2298 19.8012 34.5306 19.8012C29.2826 19.8012 28.4026 20.5188 27.0678 25.5276L26.7902 26.558C26.4403 27.865 25.6689 29.02 24.5956 29.8439C23.5224 30.6678 22.2072 31.1145 20.8542 31.1148H20.4054C14.9358 31.1148 14.0558 31.8504 12.6678 37.0508L12.4494 37.872C12.1001 39.1733 11.3332 40.3238 10.2666 41.1471C9.20005 41.9703 7.89271 42.4206 6.54541 42.4288C3.22061 42.4464 0.571411 39.6232 0.571411 36.298V36.206C0.571411 32.6152 3.48341 29.7032 7.07461 29.7032C12.5378 29.7032 13.4178 28.9532 14.8118 23.7672L15.0306 22.9464C15.3805 21.6395 16.1519 20.4845 17.225 19.6606C18.2982 18.8367 19.6133 18.39 20.9662 18.3896H21.6334C26.899 18.3896 27.7674 17.6096 29.0962 12.6604C29.1762 12.362 29.2558 12.0696 29.3294 11.7924C30.047 9.1192 32.4038 7.1376 35.171 7.0756C39.6422 6.9784 42.8258 11.5704 40.8766 15.8436L40.8798 15.844ZM41.6302 30.542C41.5425 30.324 41.4429 30.111 41.3318 29.904C41.2607 29.7662 41.1808 29.6331 41.0926 29.5056C41.0532 29.4374 41.0088 29.3721 40.9598 29.3104C40.9158 29.2467 40.8695 29.1847 40.821 29.1244C40.685 28.9504 40.5434 28.782 40.3838 28.6196C40.3246 28.5544 40.2598 28.4956 40.1978 28.4364C40.1858 28.4244 40.1742 28.4156 40.1622 28.4008C40.0974 28.3448 40.0354 28.286 39.9674 28.2296C39.9026 28.1764 39.8434 28.1264 39.7814 28.0792C39.7574 28.0584 39.7342 28.0436 39.7106 28.026C39.6454 27.9788 39.5834 27.9316 39.5186 27.8872C39.4534 27.8428 39.3858 27.7952 39.3206 27.7544C39.2851 27.7344 39.2507 27.7127 39.2174 27.6892C39.0846 27.6124 38.9574 27.5388 38.8214 27.4736C38.7682 27.4472 38.7182 27.4264 38.6622 27.4028C38.5822 27.3672 38.5026 27.326 38.4198 27.2908C38.1948 27.199 37.964 27.1219 37.729 27.06H37.7198C37.6254 27.0364 37.5278 27.0128 37.4334 26.992C37.0426 26.9133 36.6449 26.8738 36.2462 26.874C36.1814 26.874 36.1222 26.874 36.0634 26.8772C35.9186 26.88 35.7766 26.8892 35.6322 26.9036C35.5522 26.9124 35.4754 26.9244 35.3958 26.936C35.319 26.948 35.2394 26.96 35.1598 26.9776C32.9798 27.4088 31.2054 29.1128 30.6174 31.3188L30.399 32.1368L30.2718 32.6008C29.1794 36.5104 28.3078 37.4024 24.4482 37.5236C24.1086 37.5356 23.7514 37.5384 23.3642 37.5384H22.7354C21.4189 37.6286 20.1635 38.1279 19.1448 38.9666C18.126 39.8053 17.3948 40.9414 17.0534 42.216C16.9216 42.7073 16.8551 43.2138 16.8554 43.7224C16.8554 46.8204 19.3658 49.4988 22.641 49.4988C23.9146 49.4995 25.1528 49.0795 26.1631 48.3041C27.1735 47.5287 27.8995 46.4413 28.2282 45.2108L28.4822 44.2656L28.5974 43.8344C29.7966 39.5052 30.7266 38.8672 35.517 38.8672C35.765 38.8672 36.007 38.8552 36.249 38.826C36.3165 38.8225 36.3854 38.8145 36.4558 38.802C37.3798 38.6727 38.2674 38.3553 39.0638 37.8692C39.5834 37.5499 40.0547 37.1579 40.4634 36.7052C40.5434 36.6172 40.6202 36.5252 40.691 36.4336C40.7354 36.3804 40.7738 36.3276 40.8178 36.2744C40.865 36.2032 40.9182 36.1264 40.9686 36.0556C41.3592 35.4734 41.6515 34.831 41.8338 34.154C42.1603 32.9603 42.0908 31.6929 41.6358 30.542H41.6302ZM40.1594 28.398C40.2362 28.4688 40.3098 28.5428 40.3838 28.6164L40.1594 28.398ZM24.4454 37.5176H23.1662C23.0214 37.5176 22.8798 37.5204 22.741 37.5324M0.406211 18.9564C0.494611 19.1752 0.592211 19.3876 0.704211 19.5944C0.775011 19.7304 0.855011 19.8664 0.943411 19.9932C0.985011 20.0612 1.02621 20.126 1.07661 20.188C1.12114 20.2531 1.16741 20.3151 1.21541 20.374C1.35141 20.5484 1.49301 20.7168 1.65221 20.8792C1.71141 20.944 1.77621 21.0032 1.83821 21.0624C1.85021 21.0744 1.86221 21.0828 1.87381 21.0976C1.93861 21.1536 2.00061 21.2128 2.06861 21.2688C2.13381 21.322 2.19261 21.3724 2.25461 21.4196C2.27861 21.4404 2.30181 21.4552 2.32581 21.4728C2.39061 21.52 2.45261 21.5672 2.51781 21.6116C2.58301 21.656 2.65061 21.7032 2.71541 21.7444C2.75101 21.7652 2.78621 21.7856 2.81901 21.8092C2.95181 21.886 3.07901 21.96 3.21461 22.0252C3.26781 22.0516 3.31781 22.0724 3.37421 22.096C3.45381 22.1312 3.53341 22.1728 3.61621 22.208C3.84074 22.2995 4.07114 22.3763 4.30741 22.4384H4.31621C4.41061 22.4624 4.50821 22.4856 4.60261 22.5064C4.98061 22.5832 5.37941 22.6244 5.78981 22.6244C5.85461 22.6244 5.91381 22.6244 5.97301 22.6216C6.11741 22.6184 6.25941 22.6096 6.40421 22.5948C6.48381 22.586 6.56021 22.5744 6.64021 22.5628C6.71701 22.5508 6.79661 22.5388 6.87621 22.5212C9.05621 22.09 10.831 20.386 11.4186 18.18L11.637 17.362L11.7642 16.898C12.8566 12.988 13.7282 12.0964 17.5882 11.9752C17.9493 11.964 18.3106 11.9591 18.6718 11.9604H19.3006C20.6171 11.8702 21.8726 11.3708 22.8914 10.5321C23.9101 9.69331 24.6413 8.55713 24.9826 7.2824C25.1186 6.7776 25.1806 6.2696 25.1806 5.7764C25.1806 2.6784 22.6702 1.30659e-06 19.3954 1.30659e-06C18.1217 -0.000854844 16.8833 0.419061 15.8728 1.19449C14.8623 1.96992 14.1362 3.05742 13.8074 4.288L13.5538 5.2328L13.4386 5.664C12.2398 9.9936 11.3094 10.6316 6.51941 10.6316C6.27141 10.6316 6.02901 10.6436 5.78661 10.6728C5.71861 10.6756 5.65061 10.6848 5.58021 10.6964C4.6562 10.8258 3.76856 11.1434 2.97221 11.6296C2.45248 11.9488 1.98105 12.3406 1.57221 12.7932C1.49248 12.882 1.41674 12.9727 1.34501 13.0652C1.30101 13.118 1.26261 13.1712 1.21821 13.2244C1.17101 13.2952 1.11781 13.3724 1.06741 13.4428C0.676762 14.0251 0.384467 14.6677 0.202211 15.3448C-0.123686 16.5386 -0.0542201 17.8058 0.400211 18.9568L0.406211 18.9564ZM1.87661 21.1004C1.80053 21.0291 1.72585 20.9563 1.65261 20.882L1.87661 21.1004ZM17.591 11.9816H18.8694C19.0142 11.9816 19.1562 11.9784 19.295 11.9668" fill="var(--fill-0, white)"/>
</g>
</svg>
