<svg width="2037" height="367" viewBox="0 0 2037 367" fill="none" xmlns="http://www.w3.org/2000/svg">
<g clip-path="url(#clip0_1207_29867)">
<path fill-rule="evenodd" clip-rule="evenodd" d="M394.893 169.905C384.315 186.553 369.08 199.655 351.38 208.25C332.478 217.415 311.383 221.322 290.468 221.322H66.7721V366.615H0V0H290.468C312.915 0 333.23 4.32728 351.38 13.0419C369.741 21.6063 384.255 34.2275 394.923 50.8754C405.621 67.5835 410.91 87.4168 410.91 110.255C410.91 133.093 405.621 152.987 394.923 169.875L394.893 169.905ZM329.143 152.957C317.092 162.813 300.835 167.772 280.401 167.772H64.1277V53.58H280.401C300.835 53.58 317.062 58.5984 329.143 68.6352C341.193 78.5218 347.233 92.5554 347.233 110.796C347.233 129.037 341.193 142.92 329.143 152.957Z" fill="black"/>
<path fill-rule="evenodd" clip-rule="evenodd" d="M1695 0V153.077H1969.75V0H2037V366.615H1969.75V212.006H1695V366.615H1627.95V0H1695Z" fill="black"/>
<path fill-rule="evenodd" clip-rule="evenodd" d="M626.161 0L748.467 162.363H749.879L872.034 0H952.719V11.0586L781.943 228.654V366.495H714.66V228.654L543.943 11.0586V0H626.161Z" fill="black"/>
<path fill-rule="evenodd" clip-rule="evenodd" d="M1494.92 0V57.9373H1323.99V366.615H1256.71V57.9373H1085.78V0H1494.92Z" fill="black"/>
</g>
<defs>
<clipPath id="clip0_1207_29867">
<rect width="2037" height="367" fill="white"/>
</clipPath>
</defs>
</svg>
