<svg width="2501" height="660" viewBox="0 0 2501 660" fill="none" xmlns="http://www.w3.org/2000/svg">
<path d="M836.567 225.78H924.27L1016.49 433.857H967.036L894.804 270.869H881.796V433.857H836.567V225.78Z" fill="white"/>
<path d="M1758.92 433.858H1713.69V225.78H1758.92V433.858Z" fill="white"/>
<path d="M1713.69 433.858L1621.47 225.78H1517.03V433.858H1562.26V270.869H1592.01L1664.24 433.858H1713.69Z" fill="white"/>
<path d="M1108.7 225.78L1016.49 433.857L1065.93 433.858L1138.16 270.869H1151.17V433.858H1196.4V225.78H1108.7Z" fill="white"/>
<path fill-rule="evenodd" clip-rule="evenodd" d="M1315.92 225.78H1398.67L1490.88 433.858H1441.43L1411.39 366.058H1303.2L1273.16 433.858H1223.71L1315.92 225.78ZM1345.39 270.869L1323.19 320.968H1391.41L1369.2 270.869H1345.39Z" fill="white"/>
<path d="M1784.04 270.869V225.78H2040.34V270.869H1934.8V433.858H1889.57V270.869H1784.04Z" fill="white"/>
<path d="M2110.69 225.78H2065.47V433.858H2262.29V388.769H2110.69V225.78Z" fill="white"/>
<path d="M2501 225.78V270.869H2332.65V304.269H2478.59V349.358H2332.65V388.769H2501V433.858H2287.42V225.78H2501Z" fill="white"/>
<path d="M135.835 231.431L35.757 180.478C27.9289 195.858 21.2621 211.982 15.957 228.407L122.819 262.961C126.311 252.158 130.688 241.557 135.843 231.44L135.835 231.431Z" fill="white"/>
<path d="M220.85 141.632L276.281 237.14C284.377 232.445 293.04 228.836 302.055 226.413L273.366 119.769C280.667 117.805 288.086 116.185 295.547 115.007L277.919 4.08496C260.867 6.79179 243.925 10.8771 227.55 16.2156L261.828 121.272C250.926 124.831 240.307 129.251 230.081 134.481L179.696 36.1325C164.374 43.9857 149.553 53.1087 135.626 63.276L201.835 153.988C207.934 149.544 214.308 145.425 220.841 141.624L220.85 141.632Z" fill="white"/>
<path d="M518.301 220.748L422.826 276.23C427.53 284.317 431.139 292.989 433.57 301.987L540.206 273.248C542.169 280.549 543.79 287.96 544.976 295.412L655.882 277.751C653.166 260.708 649.073 243.756 643.717 227.373L538.677 261.718C535.11 250.816 530.69 240.206 525.452 229.98L623.767 179.528C615.914 164.222 606.774 149.402 596.607 135.483L505.919 201.734C510.372 207.832 514.491 214.199 518.292 220.74L518.301 220.748Z" fill="white"/>
<path d="M479.369 35.6758C463.972 27.8561 447.848 21.1976 431.44 15.9009L396.944 122.779C407.738 126.263 418.348 130.641 428.482 135.787L479.369 35.6674V35.6758Z" fill="white"/>
<path d="M439.494 139.672L383.428 236.976C391.548 241.654 399.034 247.386 405.692 254.019L562.939 96.2374C550.742 84.0817 537.492 72.7949 523.557 62.686L458.701 152.128C452.519 147.651 446.119 143.482 439.503 139.664L439.494 139.672Z" fill="white"/>
<path d="M139.736 220.4L237.015 276.525C241.693 268.413 247.441 260.919 254.083 254.252L96.3679 96.9468C84.2039 109.144 72.9087 122.386 62.7998 136.313L152.209 201.21C147.731 207.384 143.554 213.783 139.736 220.4Z" fill="white"/>
<path d="M364.045 113.111L381.012 3.92658C364.245 1.32 347.085 0 330 0H329.741V222.762H330C339.391 222.762 348.681 223.965 357.62 226.338L386.426 117.789C379.057 115.834 371.589 114.289 364.045 113.111V113.111Z" fill="white"/>
<path d="M226.347 302.336L117.814 273.455C115.851 280.823 114.297 288.292 113.119 295.836L3.95165 278.818C1.32836 295.644 0 312.871 0 330.006H222.763C222.763 320.599 223.974 311.284 226.355 302.336H226.347Z" fill="white"/>
<path d="M524.166 428.573L624.243 479.527C632.071 464.146 638.738 448.022 644.043 431.597L537.182 397.043C533.69 407.846 529.312 418.447 524.157 428.565L524.166 428.573Z" fill="white"/>
<path d="M439.152 518.36L383.721 422.852C375.625 427.547 366.962 431.156 357.947 433.579L386.636 540.223C379.326 542.187 371.916 543.807 364.455 544.985L382.075 655.899C399.126 653.192 416.069 649.107 432.444 643.768L398.165 538.711C409.076 535.152 419.687 530.733 429.912 525.503L480.298 623.851C495.62 615.998 510.441 606.875 524.368 596.708L458.159 505.995C452.06 510.44 445.686 514.559 439.152 518.36V518.36Z" fill="white"/>
<path d="M141.701 439.255L237.184 383.773C232.48 375.686 228.871 367.014 226.44 358.016L119.804 386.756C117.841 379.454 116.22 372.043 115.034 364.591L4.12012 382.253C6.83531 399.296 10.929 416.247 16.2842 432.63L121.324 398.285C124.892 409.187 129.311 419.797 134.55 430.023L36.2346 480.475C44.0877 495.781 53.2275 510.602 63.3948 524.52L154.082 458.269C149.629 452.171 145.511 445.805 141.709 439.263L141.701 439.255Z" fill="white"/>
<path d="M180.632 624.328C196.029 632.148 212.153 638.807 228.561 644.103L263.057 537.225C252.263 533.741 241.653 529.364 231.519 524.217L180.632 624.337V624.328Z" fill="white"/>
<path d="M220.509 520.333L276.575 423.029C268.455 418.351 260.969 412.62 254.311 405.986L97.0635 563.768C109.261 575.924 122.511 587.21 136.446 597.319L201.302 507.877C207.484 512.355 213.884 516.524 220.5 520.342L220.509 520.333Z" fill="white"/>
<path d="M520.263 439.6L422.984 383.475C418.306 391.587 412.558 399.081 405.916 405.748L563.623 563.062C575.787 550.865 587.082 537.623 597.191 523.696L507.782 458.799C512.26 452.625 516.437 446.225 520.255 439.609L520.263 439.6Z" fill="white"/>
<path d="M302.38 433.663L273.574 542.212C280.943 544.167 288.412 545.712 295.956 546.89L278.996 656.074C295.764 658.681 312.924 660.001 330.008 660.001H330.267V437.238H330.008C320.618 437.238 311.328 436.035 302.389 433.663H302.38Z" fill="white"/>
<path d="M437.238 330.003C437.238 339.41 436.027 348.717 433.646 357.673L542.178 386.554C544.141 379.186 545.695 371.717 546.873 364.173L656.049 381.199C658.672 364.373 660.001 347.146 660.001 330.012H437.238V330.003Z" fill="white"/>
</svg>
