<svg xmlns="http://www.w3.org/2000/svg" fill="none" height="35" viewBox="0 0 119 35" width="119"><g clip-rule="evenodd" fill="#fff" fill-rule="evenodd"><path d="m114.601 23.4997v-7.8353c0-5.6638-4.746-10.25479-10.601-10.25479-5.8549 0-10.6013 4.59099-10.6013 10.25479v7.8353zm0 11.5003v-7.2954h-21.2023v7.2954h-4.3987v-19.4903c0-8.0159 6.7194-14.513149 15.006-14.5097 8.282.00316 14.994 6.49868 14.994 14.5097v19.4903z"></path><path d="m37.7771 23.3352h14.1561l-7.2492-14.12939zm-1.9872 3.9647-3.8768 7.7001h-4.9131l17.6213-35 18.3787 35h-4.9466l-4.0434-7.7001z"></path><path d="m30 1h-30v4.28978h12.8013v29.71022h4.3974v-29.71022h12.8013z"></path><path d="m70.5887 30.7096v-29.7096h-4.5887v33.9939.0061h19v-4.2904z"></path></g></svg>
