<svg width="246" height="111" viewBox="0 0 246 111" fill="none" xmlns="http://www.w3.org/2000/svg">
<path fill-rule="evenodd" clip-rule="evenodd" d="M108.724 48.9028V56.4249C108.724 56.4822 108.735 56.5395 108.758 56.5929C108.781 56.6464 108.816 56.6961 108.854 56.7381C108.896 56.7801 108.945 56.8107 108.999 56.8336C109.052 56.8565 109.11 56.8642 109.171 56.8642H114.722C115.7 56.8642 116.639 56.4783 117.331 55.7869C118.022 55.0954 118.412 54.1595 118.416 53.1815V52.2341C118.416 51.2332 118.018 50.2743 117.312 49.5675C116.605 48.8608 115.646 48.4635 114.645 48.4635H109.163C109.049 48.4635 108.934 48.5093 108.854 48.5934C108.774 48.6774 108.724 48.7882 108.724 48.9028ZM105.316 68.726V45.7167C105.316 45.6289 105.331 45.5448 105.366 45.4646C105.4 45.3844 105.446 45.3118 105.507 45.2507C105.568 45.1896 105.641 45.1399 105.721 45.1093C105.801 45.0788 105.885 45.0597 105.973 45.0597H114.347C115.329 45.0597 116.299 45.2507 117.205 45.6251C118.11 45.9994 118.932 46.5496 119.627 47.241C120.322 47.9325 120.868 48.7577 121.247 49.663C121.621 50.5684 121.816 51.5388 121.816 52.5206V52.7231C121.816 54.7249 121.021 56.6464 119.604 58.0637C118.187 59.481 116.265 60.2757 114.263 60.2757H109.163C109.049 60.2757 108.934 60.3215 108.854 60.4055C108.774 60.4896 108.724 60.6004 108.724 60.715V68.7298C108.724 68.9056 108.655 69.0736 108.529 69.1959C108.407 69.3181 108.239 69.3907 108.063 69.3907H105.973C105.798 69.3907 105.629 69.322 105.507 69.1959C105.385 69.0736 105.312 68.9056 105.312 68.7298L105.316 68.726ZM131.118 60.9939L135.095 52.5855C135.125 52.5206 135.175 52.4633 135.24 52.4213C135.301 52.3831 135.374 52.3601 135.45 52.3601C135.527 52.3601 135.595 52.3792 135.66 52.4213C135.721 52.4595 135.771 52.5168 135.805 52.5855L139.759 60.9633C139.786 61.0206 139.798 61.0817 139.794 61.1428C139.79 61.204 139.771 61.2651 139.736 61.3186C139.702 61.3721 139.656 61.4141 139.603 61.4446C139.549 61.4752 139.488 61.4905 139.427 61.4905H131.439C131.382 61.4905 131.321 61.479 131.271 61.4485C131.217 61.4217 131.175 61.3797 131.145 61.33C131.114 61.2804 131.095 61.2231 131.091 61.1658C131.091 61.1085 131.099 61.0473 131.126 60.9939H131.118ZM144.103 69.3831H146.487C146.59 69.3831 146.689 69.3563 146.781 69.3067C146.873 69.257 146.945 69.1844 147.003 69.1004C147.056 69.0125 147.09 68.9132 147.098 68.8139C147.106 68.7107 147.087 68.6076 147.041 68.5159L136.275 45.4035C136.226 45.3003 136.149 45.2087 136.05 45.1475C135.951 45.0864 135.84 45.052 135.721 45.052H135.221C135.106 45.052 134.996 45.0864 134.904 45.1475C134.808 45.2087 134.732 45.2965 134.686 45.3997L123.764 68.5121C123.722 68.6038 123.703 68.7069 123.707 68.81C123.711 68.9132 123.745 69.0125 123.802 69.0966C123.856 69.1844 123.932 69.2532 124.024 69.3029C124.116 69.3525 124.215 69.3793 124.318 69.3793H126.786C126.901 69.3793 127.015 69.3449 127.111 69.2838C127.206 69.2226 127.286 69.1348 127.336 69.0278L129.181 65.1312C129.231 65.028 129.311 64.9402 129.407 64.879C129.506 64.8179 129.617 64.7835 129.731 64.7835H141.192C141.307 64.7835 141.417 64.8179 141.513 64.879C141.608 64.9402 141.685 65.028 141.731 65.1312L143.568 69.0278C143.618 69.131 143.694 69.2188 143.79 69.2799C143.885 69.3411 143.996 69.3754 144.111 69.3793L144.103 69.3831ZM163.682 69.3831H166.528C166.593 69.3831 166.654 69.3678 166.711 69.3372C166.768 69.3067 166.814 69.2608 166.849 69.2074C166.883 69.1539 166.902 69.0927 166.906 69.0278C166.91 68.9629 166.898 68.9017 166.872 68.8444L161.718 57.3073C161.649 57.1545 161.615 56.9903 161.615 56.826C161.615 56.6617 161.649 56.4936 161.718 56.3446L166.425 45.8466C166.463 45.7626 166.482 45.6671 166.474 45.5754C166.467 45.4837 166.436 45.392 166.386 45.3156C166.337 45.2354 166.268 45.1743 166.184 45.1284C166.1 45.0826 166.012 45.0597 165.917 45.0597H163.495C163.384 45.0597 163.277 45.094 163.185 45.1552C163.093 45.2163 163.021 45.3042 162.979 45.4073L159.766 53.1471C159.747 53.2044 159.709 53.2502 159.663 53.2846C159.617 53.319 159.556 53.3381 159.499 53.3381C159.441 53.3381 159.38 53.319 159.334 53.2846C159.288 53.2502 159.25 53.2006 159.231 53.1471L156.037 45.4149C155.995 45.308 155.923 45.2201 155.831 45.1552C155.739 45.0902 155.629 45.0597 155.514 45.0597H153.119C153.019 45.0597 152.924 45.0826 152.836 45.1284C152.748 45.1743 152.676 45.243 152.622 45.3271C152.569 45.4111 152.538 45.5066 152.53 45.6021C152.523 45.6976 152.542 45.8008 152.584 45.8887L157.26 56.3676C157.329 56.5165 157.363 56.6808 157.363 56.8451C157.363 57.0094 157.329 57.1736 157.26 57.3226L152.072 68.8597C152.045 68.917 152.034 68.982 152.038 69.0431C152.041 69.108 152.061 69.1692 152.095 69.2226C152.129 69.2761 152.175 69.322 152.232 69.3525C152.29 69.3831 152.351 69.3984 152.412 69.3984H155.262C155.338 69.3984 155.411 69.3754 155.476 69.3334C155.541 69.2914 155.587 69.2303 155.617 69.1615L159.239 60.501C159.262 60.4514 159.296 60.4132 159.338 60.3826C159.38 60.3521 159.434 60.3406 159.487 60.3406C159.541 60.3406 159.59 60.3559 159.632 60.3826C159.674 60.4094 159.709 60.4514 159.732 60.501L163.338 69.1462C163.365 69.2188 163.414 69.2761 163.475 69.322C163.537 69.364 163.613 69.3869 163.689 69.3869L163.682 69.3831ZM209.589 69.9714C208.119 69.9829 206.678 69.5588 205.448 68.7527C204.233 67.9467 203.103 66.6172 202.094 64.7759C202.025 64.6498 202.006 64.5046 202.044 64.3633C202.083 64.2258 202.171 64.1073 202.293 64.0309L204.268 62.8467C204.333 62.8085 204.405 62.7855 204.478 62.7741C204.551 62.7626 204.627 62.7703 204.7 62.7894C204.772 62.8085 204.841 62.8428 204.898 62.8887C204.955 62.9345 205.005 62.9918 205.04 63.0568C206.319 65.41 207.771 66.602 209.364 66.602C210.04 66.602 210.705 66.4377 211.301 66.1244C211.859 65.8417 212.325 65.41 212.646 64.8714C212.947 64.3709 213.108 63.7941 213.104 63.2096C213.089 62.4952 212.848 61.8076 212.416 61.2384C211.729 60.2604 210.43 59.0455 208.558 57.6359C206.556 56.1269 205.326 55.0534 204.829 54.3467C203.966 53.2388 203.492 51.875 203.485 50.4691C203.477 49.3995 203.756 48.3489 204.291 47.4282C204.826 46.5075 205.609 45.7588 206.545 45.2545C207.504 44.7311 208.581 44.4599 209.673 44.4675C210.846 44.4637 212 44.7693 213.02 45.3538C214.051 45.9421 215.094 46.9698 216.214 48.4979C216.302 48.6163 216.336 48.7615 216.317 48.9066C216.298 49.0518 216.221 49.1817 216.103 49.2696L214.22 50.706C214.162 50.7518 214.093 50.7824 214.025 50.8015C213.956 50.8206 213.88 50.8244 213.807 50.8129C213.734 50.8015 213.666 50.7786 213.601 50.7404C213.54 50.7022 213.482 50.6563 213.44 50.5952C212.615 49.4988 211.912 48.7768 211.366 48.4406C210.846 48.1273 210.247 47.963 209.639 47.9669C209.291 47.9516 208.94 48.0051 208.611 48.1235C208.283 48.2419 207.981 48.4291 207.725 48.666C207.492 48.8799 207.305 49.1435 207.183 49.4377C207.057 49.7318 206.999 50.0451 207.007 50.366C207.007 50.7938 207.099 51.2179 207.274 51.6075C207.534 52.1271 207.886 52.5932 208.31 52.9866C208.501 53.17 209.169 53.7201 211.247 55.252C213.326 56.784 214.728 58.1325 215.518 59.3588C216.282 60.4743 216.703 61.7923 216.729 63.1446C216.729 64.0424 216.55 64.9325 216.191 65.7577C215.832 66.5829 215.304 67.324 214.644 67.9314C213.979 68.5885 213.184 69.108 212.317 69.4557C211.446 69.8033 210.518 69.9752 209.582 69.9561L209.589 69.9714ZM180.116 49.1168C181.522 48.2954 183.115 47.8561 184.743 47.8408V47.8523C186.389 47.8523 188.005 48.2839 189.43 49.1129C190.851 49.9114 192.035 51.0765 192.853 52.4862C193.671 53.9264 194.087 55.5577 194.068 57.2118C194.087 58.8851 193.667 60.5316 192.853 61.9909C192.055 63.4044 190.886 64.5734 189.472 65.368C188.032 66.1894 186.401 66.6172 184.746 66.6058C183.528 66.6058 182.321 66.3689 181.197 65.9029C180.07 65.4368 179.05 64.753 178.191 63.8896C177.331 63.0262 176.655 61.9986 176.193 60.8716C175.735 59.7446 175.501 58.5374 175.513 57.3188C175.494 55.6417 175.914 53.9837 176.739 52.5206C177.553 51.1109 178.718 49.9381 180.12 49.1168H180.116ZM175.715 66.2734C178.179 68.7298 181.247 69.9714 184.827 69.9714C186.504 69.9829 188.166 69.6581 189.717 69.0202C191.268 68.3822 192.677 67.4424 193.865 66.2581C195.05 65.07 195.989 63.6604 196.627 62.1094C197.265 60.5584 197.586 58.8927 197.575 57.2156C197.575 53.6476 196.326 50.5952 193.858 48.1541C191.39 45.7129 188.288 44.4752 184.636 44.4752C182.408 44.4675 180.219 45.052 178.298 46.1752C176.376 47.2983 174.783 48.9105 173.691 50.8511C172.568 52.8262 171.987 55.0572 171.998 57.3264C171.975 58.9921 172.292 60.6462 172.93 62.1858C173.568 63.7253 174.516 65.1159 175.715 66.2734ZM34.5617 44.4905L34.6304 44.5057C33.9886 47.8293 33.2628 51.5999 31.5895 55.3628C28.9574 61.2918 28.5563 66.006 30.3862 69.3831C32.0174 72.3934 35.5206 74.4716 40.7963 75.568L40.6702 75.3847C40.6588 75.3656 40.6435 75.3426 40.6282 75.3235C40.6129 75.3006 40.5938 75.2777 40.5824 75.251C40.3493 74.9186 40.1469 74.6053 39.9406 74.2921L39.9291 74.2768C39.8336 74.1278 39.7419 73.975 39.654 73.826C39.4669 73.5051 39.272 73.1651 39.0887 72.8098L39.0046 72.6608C38.9817 72.6112 38.9549 72.5653 38.932 72.5195C38.9091 72.4813 38.89 72.4393 38.8671 72.4011C38.5997 71.8815 38.3857 71.4154 38.1947 70.9838C38.126 70.8997 38.0686 70.8157 38.0075 70.7316C37.9884 70.7087 37.9693 70.682 37.9502 70.6552C37.9349 70.6361 37.9197 70.6132 37.9082 70.5941L37.8089 70.4604C37.786 70.4298 37.763 70.3993 37.7401 70.3687C37.6904 70.2999 37.6408 70.2312 37.5911 70.1624C37.5453 70.0975 37.5033 70.0287 37.4612 69.9599C37.4383 69.9256 37.4154 69.8874 37.3925 69.853L37.2206 69.5817C37.1976 69.5474 37.1785 69.5168 37.1556 69.4824C37.1098 69.4098 37.0601 69.3372 37.0181 69.2608C36.9531 69.1501 36.8958 69.0507 36.8424 68.9476L36.6819 68.6534L36.6743 68.6381C36.617 68.535 36.5597 68.4357 36.5062 68.3287C36.4718 68.2638 36.4374 68.1912 36.4068 68.1224C36.3839 68.0766 36.3648 68.0307 36.3419 67.9849L36.2044 67.6984C36.1471 67.5876 36.0936 67.473 36.0439 67.3622C36.0057 67.2781 35.9675 67.1788 35.9293 67.0833C35.9179 67.0566 35.9064 67.0298 35.8988 66.9993L35.7765 66.6936C35.7574 66.644 35.7383 66.5943 35.7154 66.5447C35.6925 66.4835 35.6657 66.4224 35.6428 66.3651C35.6008 66.2543 35.5549 66.1168 35.5167 65.9984L35.4594 65.8379C35.4518 65.815 35.4442 65.7959 35.4365 65.773C35.425 65.7386 35.4136 65.7004 35.3983 65.666C35.3601 65.559 35.3257 65.4521 35.2952 65.3413C35.2837 65.2954 35.2684 65.2534 35.257 65.2076C35.2302 65.1159 35.2035 65.0242 35.1806 64.9325L35.0965 64.6307C35.0889 64.6002 35.0774 64.5658 35.0698 64.5352C35.0468 64.4512 35.0239 64.3671 35.001 64.2831L34.9895 64.2258C34.959 64.1035 34.9322 63.9775 34.9093 63.8476L34.8406 63.5267C34.8291 63.4617 34.8138 63.4006 34.7985 63.3357C34.7871 63.286 34.7756 63.2402 34.768 63.1905C34.7565 63.1294 34.7489 63.0721 34.7374 63.0109C34.7221 62.9193 34.7068 62.8314 34.6916 62.7397L34.6343 62.415C34.6266 62.3539 34.6152 62.2889 34.6037 62.224C34.5961 62.1743 34.5884 62.1285 34.577 62.0788C34.5655 61.9909 34.554 61.8954 34.5426 61.8037C34.5349 61.7388 34.5273 61.6739 34.5197 61.6089L34.4815 61.2766C34.4815 61.2383 34.4738 61.204 34.47 61.1658C34.4624 61.0932 34.4547 61.0206 34.4509 60.9442C34.4394 60.8334 34.4318 60.7188 34.428 60.6042C34.428 60.5545 34.4241 60.501 34.4203 60.4514L34.3974 60.119C34.3974 60.0655 34.3898 60.0121 34.3859 59.9586C34.3821 59.9013 34.3783 59.844 34.3745 59.7828C34.3745 59.695 34.3707 59.6109 34.3707 59.5269C34.3707 59.4428 34.3707 59.355 34.3668 59.2709V59.1105C34.3668 59.0417 34.3668 58.9806 34.363 58.9157C34.363 58.866 34.363 58.8163 34.363 58.7667C34.363 58.7132 34.363 58.6597 34.363 58.6062C34.363 58.4228 34.3668 58.2433 34.3783 58.0599L34.3898 57.7237C34.3898 57.6206 34.3936 57.5136 34.4012 57.4143C34.4127 57.2195 34.428 57.0246 34.4433 56.826V56.8183L34.4547 56.6808V56.6732C34.4624 56.6121 34.4662 56.5586 34.4662 56.4974C34.47 56.3981 34.4776 56.3026 34.4891 56.2033C34.5044 56.0314 34.5273 55.8633 34.5464 55.6952L34.554 55.6264L34.577 55.4545C34.5808 55.3934 34.5884 55.3399 34.5999 55.2788C34.6113 55.1795 34.6228 55.084 34.6343 54.9846C34.6495 54.8471 34.6725 54.7096 34.6954 54.5759C34.7068 54.4995 34.7221 54.4231 34.7336 54.3467L34.7565 54.1862C34.7603 54.1595 34.7641 54.1289 34.768 54.1022C34.7718 54.0716 34.7756 54.0449 34.7833 54.0143C34.7909 53.9684 34.7985 53.9188 34.8062 53.8729C34.8138 53.8271 34.8215 53.7774 34.8291 53.7316C34.8597 53.552 34.8979 53.3763 34.9322 53.1968C34.9437 53.1318 34.959 53.0669 34.9704 53.0019L34.9857 52.9141C34.9934 52.872 35.001 52.8262 35.0125 52.7842L35.0201 52.7422C35.0277 52.7078 35.0354 52.6696 35.0392 52.6314C35.0468 52.5817 35.0583 52.5359 35.0659 52.49C35.108 52.3066 35.15 52.1195 35.1958 51.9323C35.2149 51.8597 35.2302 51.7833 35.2493 51.7107L35.2722 51.6343C35.2799 51.6037 35.2875 51.5732 35.2913 51.5426C35.299 51.5197 35.3028 51.4968 35.3066 51.4738C35.3143 51.4318 35.3257 51.3898 35.3372 51.3478C35.3448 51.3134 35.3563 51.2752 35.3639 51.2408C35.4365 50.9619 35.5129 50.6907 35.5931 50.4118L35.6084 50.3545C35.6275 50.2972 35.639 50.2399 35.6504 50.1826C35.6619 50.1291 35.681 50.0718 35.6963 50.0145L35.7077 49.9763L35.7154 49.9534C35.7956 49.6898 35.8758 49.4262 35.9599 49.1626L35.9866 49.0671C35.9943 49.0442 36.0019 49.0174 36.0095 48.9945C36.0172 48.9678 36.0248 48.9448 36.0325 48.9219C36.0554 48.8493 36.0745 48.7844 36.1012 48.7118C36.1853 48.4482 36.2846 48.1846 36.3839 47.9287L36.4107 47.8523L36.4259 47.8026L36.4756 47.6536C36.4909 47.6116 36.5062 47.5657 36.5215 47.5199C36.5291 47.497 36.5406 47.4741 36.5482 47.4511C36.6628 47.1417 36.7851 46.8399 36.9226 46.5037C36.9379 46.4617 36.9608 46.4082 36.9799 46.3662C36.999 46.3051 37.0219 46.2478 37.0525 46.1905C37.1594 45.9307 37.274 45.6709 37.3848 45.4341C37.4192 45.3576 37.4536 45.2812 37.4842 45.2125C37.4994 45.1781 37.5147 45.1475 37.5262 45.117L37.5376 45.0864C37.5567 45.0444 37.5797 44.9871 37.6064 44.9374C37.721 44.6776 37.8509 44.4217 37.9731 44.1734C38.0113 44.0931 38.0495 44.0129 38.0877 43.9365C38.103 43.9098 38.1145 43.883 38.126 43.8601C38.126 43.8601 38.1374 43.8334 38.1451 43.8219L38.1603 43.7913C38.1756 43.757 38.1947 43.7188 38.2138 43.6844C38.3628 43.3826 38.5233 43.0846 38.6646 42.8172C38.6952 42.7561 38.7295 42.6988 38.7601 42.6415C38.7754 42.6071 38.7945 42.5727 38.8174 42.5421C38.8327 42.5078 38.8518 42.4695 38.8747 42.439C39.0848 42.0531 39.2988 41.6788 39.4669 41.3922C39.4821 41.3579 39.5012 41.3273 39.5242 41.2967C39.5356 41.2738 39.5509 41.2471 39.5662 41.2203L39.5815 41.1974C39.7648 40.8842 39.9749 40.5365 40.2385 40.1163L40.2806 40.0475C40.2806 40.0475 40.2958 40.0208 40.3035 40.0055C40.3111 39.9902 40.3188 39.9788 40.3264 39.9635L40.3761 39.8871C40.5671 39.5891 40.7734 39.2644 41.037 38.8862L41.1325 38.7448C41.354 38.4125 41.6024 38.061 41.8889 37.6637C41.8965 37.6522 41.9003 37.6446 41.908 37.6331C41.908 37.6331 41.9233 37.6102 41.9309 37.5988C41.9424 37.5873 41.95 37.572 41.9576 37.5567C41.9576 37.5567 41.9691 37.5376 41.9729 37.53C42.2174 37.1862 42.4887 36.8347 42.7828 36.4527L42.8096 36.4145L42.8669 36.3381C43.1534 35.9713 43.459 35.5893 43.7761 35.1996L43.8028 35.1614C44.1352 34.7641 44.4637 34.3783 44.7884 34.0077C44.9412 33.8396 45.0864 33.6754 45.2316 33.5149L45.3462 33.3889L45.4837 33.2361C45.5563 33.152 45.6327 33.0718 45.7053 32.9954C45.7664 32.9266 45.8314 32.8617 45.8925 32.7929L46.0224 32.6516C46.286 32.3689 46.5457 32.0976 46.7941 31.8417L46.9201 31.708C37.0486 31.8608 36.0248 37.1556 34.6113 44.4714H34.5808L34.5617 44.4905ZM48.8532 80.8514C47.0233 79.9575 45.3538 78.7694 43.9098 77.3292C44.4752 77.3941 45.0024 77.4514 45.5105 77.5049L45.648 77.5164C46.1484 77.5584 46.6871 77.6004 47.2907 77.631H47.4168C47.4473 77.6386 47.4779 77.6386 47.5123 77.6424C47.5428 77.6424 47.5772 77.6424 47.6078 77.6462C48.1884 77.6768 48.7844 77.7035 49.388 77.7188L49.7662 77.7303C50.4997 77.7456 51.1109 77.7532 51.6878 77.7532C52.406 77.7532 53.1395 77.7226 53.8691 77.6768C58.7667 77.3406 63.393 75.8355 67.2514 73.337C71.0831 71.0563 74.613 67.9963 77.7379 64.2487C78.1964 63.7024 78.6663 63.1255 79.1285 62.522C79.1591 62.4799 79.1896 62.4379 79.2202 62.3959C79.2737 62.3233 79.3272 62.2469 79.3845 62.1743L79.4112 62.1361C79.4609 62.0673 79.5067 62.0024 79.5602 61.9375L79.6863 61.7694C79.9346 61.4408 80.1829 61.1085 80.4236 60.7761C80.477 60.7035 80.5267 60.6271 80.5802 60.5507C80.6337 60.4743 80.6872 60.3979 80.7368 60.3253L80.9049 60.0846C81.1303 59.7637 81.3863 59.3932 81.6269 59.0303C81.7568 58.8354 81.8829 58.6368 82.0013 58.4458L82.1006 58.293C82.1618 58.1974 82.2191 58.1019 82.2802 58.0064C82.433 57.7619 82.5858 57.5174 82.7348 57.2768C82.8723 57.0514 83.006 56.826 83.1397 56.6006L83.1818 56.5242C83.3422 56.2491 83.5447 55.89 83.751 55.5271C83.8923 55.275 84.026 55.019 84.1597 54.7669C84.2973 54.5071 84.4272 54.2511 84.5532 53.999C84.5914 53.9264 84.6258 53.85 84.664 53.7774C84.7901 53.5253 84.9123 53.2732 85.0269 53.021C85.1759 52.7001 85.3211 52.3754 85.4701 52.0354C85.5809 51.7871 85.684 51.5388 85.7833 51.2981C85.8063 51.2561 85.8215 51.2141 85.8406 51.172L85.8521 51.1491C85.8521 51.1491 85.8597 51.1262 85.8636 51.1186C85.8674 51.1071 85.8712 51.0956 85.8789 51.0842C87.2274 53.6743 88.5492 57.464 87.3878 61.055C86.4786 63.8514 84.2056 66.0518 80.626 67.5952C74.4793 70.2426 70.5865 73.784 67.1559 76.9051L67.1368 76.9204C61.6204 81.944 57.9682 85.2638 48.857 80.8552L48.8532 80.8514ZM57.3799 71.5797C54.6485 71.5912 51.959 70.915 49.5561 69.6123C47.1532 68.3096 45.117 66.43 43.6347 64.1341C38.8289 56.7076 40.9109 47.0462 48.4826 41.6635C52.6199 38.7181 57.5824 37.7286 62.0903 38.932C66.1474 40.017 69.3602 42.737 71.1098 46.5763C75.8087 56.8527 72.0305 65.2343 66.197 68.9858C63.5687 70.682 60.5049 71.5835 57.3799 71.5797ZM42.6147 75.9042L42.97 75.9539L43.1534 75.9806C43.268 75.9959 43.3788 76.015 43.4972 76.0303L43.8792 76.0799L44.1772 76.1182C44.2383 76.1258 44.2994 76.1334 44.3606 76.1411C44.4217 76.1487 44.4828 76.1525 44.5439 76.164C44.6662 76.1793 44.7961 76.1907 44.926 76.2022L45.2621 76.2328L45.6365 76.2633L46.0453 76.2977L46.412 76.3244C46.4693 76.3283 46.5305 76.3321 46.5916 76.3397C46.6489 76.3435 46.71 76.3474 46.7673 76.3512C46.9201 76.3626 47.0768 76.3741 47.2296 76.3779L47.623 76.4009L47.9363 76.4161C48.1006 76.4276 48.2648 76.4314 48.4291 76.4391H48.4368L48.8379 76.4543C48.9372 76.4582 49.0442 76.4658 49.1473 76.4658L49.8655 76.4811H50.1253C50.1711 76.4849 50.217 76.4887 50.2628 76.4887C50.3087 76.4887 50.3545 76.4887 50.4004 76.4887C50.8206 76.4925 51.2484 76.5002 51.684 76.5002C57.166 76.5002 62.3195 75.037 66.5905 72.2712C73.1689 68.0078 76.9663 61.2116 77.0045 53.6285C77.0045 53.1242 76.993 52.6275 76.9739 52.1386C76.9701 52.0813 76.9624 52.0239 76.9586 51.9666V51.9132L76.951 51.8864C76.951 51.8482 76.9433 51.8177 76.9433 51.7756C76.9204 51.4204 76.8937 51.046 76.8555 50.6945C76.8516 50.6601 76.8478 50.6257 76.844 50.5914C76.8364 50.5417 76.8325 50.4882 76.8249 50.4386C76.8173 50.4042 76.8134 50.3736 76.8096 50.3392C76.8096 50.3125 76.802 50.2819 76.7982 50.2514L76.7829 50.1138C76.7523 49.8426 76.7103 49.5675 76.6683 49.3039C76.6606 49.2696 76.6568 49.239 76.6492 49.2046C76.6377 49.1511 76.6301 49.1015 76.6186 49.0518C76.6033 48.983 76.5919 48.9257 76.5804 48.857L76.5537 48.7156L76.546 48.6736C76.5002 48.4406 76.4505 48.1923 76.3932 47.9592C76.3703 47.8675 76.3474 47.772 76.3168 47.6842C76.3054 47.6421 76.2939 47.5963 76.2786 47.5543L76.271 47.5314L76.2633 47.5123V47.497L76.2137 47.3289C76.1907 47.2563 76.1716 47.1799 76.1525 47.1035C76.1143 46.9583 76.0761 46.8132 76.0265 46.6756C75.9959 46.5763 75.9577 46.477 75.9233 46.3776C75.908 46.3356 75.8928 46.2936 75.8775 46.2478L75.8584 46.1905L75.7973 46.0185C75.7323 45.8237 75.6597 45.6251 75.5871 45.4417C75.5604 45.3691 75.5298 45.3042 75.4993 45.2354C75.484 45.2048 75.4687 45.1705 75.4534 45.1399C75.4382 45.1055 75.4229 45.0711 75.4076 45.0367C75.3923 45.0062 75.377 44.9756 75.3656 44.9451L75.2815 44.7579C75.2624 44.7158 75.2471 44.6738 75.228 44.6318C75.1746 44.5057 75.1211 44.3758 75.0561 44.2574C75.0141 44.1696 74.9683 44.0893 74.9224 44.0091L74.911 43.99L74.8957 43.9594C74.8804 43.9289 74.8651 43.9021 74.8498 43.8716C74.8307 43.841 74.8155 43.8066 74.7964 43.7761L74.7008 43.6003C74.6741 43.5507 74.6436 43.4972 74.6168 43.4437C74.5595 43.3367 74.5022 43.2298 74.4411 43.1266C74.422 43.0999 74.4067 43.0693 74.3876 43.0426C74.3456 42.97 74.2997 42.9012 74.2539 42.8287L74.2386 42.8019C74.208 42.7522 74.1737 42.7026 74.1469 42.6491L74.0438 42.4772C73.9559 42.3358 73.8604 42.183 73.7611 42.0417L73.7229 41.9882C73.6656 41.908 73.6044 41.8239 73.5433 41.7437L73.4173 41.5756L73.3026 41.4152C73.2721 41.3731 73.2415 41.3311 73.2071 41.2891C73.1384 41.1936 73.0696 41.0981 72.9932 41.0064C72.9092 40.9071 72.8251 40.8077 72.7411 40.7122C72.7182 40.6855 72.6952 40.6588 72.6723 40.632C72.6494 40.6053 72.6265 40.5785 72.6035 40.5518L72.4737 40.399C72.3705 40.2729 72.2597 40.1468 72.1489 40.0246C72.0534 39.9253 71.9617 39.8298 71.8624 39.7381L71.7134 39.5891L71.5644 39.4401C71.4498 39.3255 71.339 39.2147 71.2244 39.1039C71.1328 39.0237 71.0372 38.9397 70.9417 38.8594L70.8997 38.825C70.873 38.8059 70.8462 38.783 70.8195 38.7601C70.7889 38.7372 70.7622 38.7104 70.7316 38.6875C70.7049 38.6646 70.6781 38.6417 70.6514 38.6188C70.6247 38.5958 70.5979 38.5729 70.5712 38.55C70.4489 38.443 70.3305 38.3399 70.2006 38.2367C70.1013 38.1527 70.0096 38.0877 69.9179 38.019L69.8835 37.9922L69.8453 37.9655C69.8186 37.9464 69.788 37.9235 69.7613 37.9044C69.7307 37.8815 69.6963 37.8585 69.6658 37.8356L69.4939 37.7095C69.3678 37.6102 69.2417 37.5147 69.108 37.423C69.0278 37.3657 68.9438 37.3122 68.8635 37.2588C68.8139 37.2244 68.7604 37.19 68.7107 37.1556C68.6763 37.1365 68.6458 37.1174 68.6152 37.0945C68.5847 37.0716 68.5503 37.0525 68.5197 37.0334C68.4701 37.0066 68.4242 36.9722 68.3784 36.9417C68.3631 36.9302 68.3478 36.9188 68.3325 36.9073C68.2026 36.8194 68.0728 36.7354 67.9352 36.6552C67.9008 36.6361 67.8626 36.6131 67.8244 36.5902C67.7136 36.5253 67.5952 36.4565 67.4806 36.3954L67.2934 36.2922C67.2247 36.254 67.1674 36.2197 67.1062 36.1814L67.0604 36.1547C66.9496 36.0898 66.8426 36.0286 66.7242 35.9675C66.6745 35.9561 66.6211 35.9522 66.5676 35.9446C66.5256 35.937 66.4874 35.9331 66.4453 35.9255L66.2429 35.8949C66.197 35.8873 66.1512 35.8797 66.1053 35.872C66.0595 35.8644 66.0136 35.8567 65.9678 35.8491C65.8876 35.8338 65.7883 35.8262 65.6966 35.8147H65.6545L65.4062 35.7841L65.1388 35.7498C65.0853 35.7459 65.0357 35.7421 64.986 35.7383C64.9363 35.7345 64.8829 35.7307 64.8332 35.7268L64.5811 35.7039C64.5352 35.7039 64.4894 35.6963 64.4435 35.6925C64.3977 35.6886 64.3518 35.6848 64.306 35.681L63.9966 35.6657L63.7177 35.6543C63.6298 35.6504 63.542 35.6428 63.4464 35.6428C63.3357 35.639 63.2211 35.639 63.1103 35.639H62.8581C62.8276 35.639 62.797 35.639 62.7626 35.639C62.7015 35.639 62.6366 35.639 62.5754 35.639C62.4799 35.6428 62.3653 35.6428 62.2622 35.6428H61.9948C61.8993 35.6466 61.8076 35.6543 61.7082 35.6581H61.693L61.3682 35.6734L61.1123 35.7077L60.8143 35.723C60.7608 35.7268 60.7073 35.7307 60.65 35.7345C60.5966 35.7383 60.5431 35.7421 60.4858 35.7459L60.226 35.7689C60.1687 35.7765 60.1152 35.7803 60.0579 35.7841C60.0121 35.7841 59.9662 35.7918 59.9166 35.7956C59.8134 35.8071 59.6835 35.8223 59.5689 35.8376L59.3091 35.872C59.2098 35.8835 59.1143 35.8949 59.015 35.9102C58.9271 35.9217 58.8392 35.937 58.7514 35.9522C58.7246 35.9561 58.6941 35.9637 58.6673 35.9675L58.4076 36.0095L58.1134 36.0592C58.0026 36.0821 57.8918 36.1012 57.781 36.1241L57.4983 36.1814C57.4334 36.1929 57.3685 36.2044 57.2997 36.2197C57.2691 36.2273 57.2386 36.2311 57.2042 36.2388C57.1049 36.2579 56.9826 36.2884 56.8757 36.3152L56.593 36.3801C56.5586 36.3877 56.5242 36.3954 56.4898 36.403C56.4287 36.4183 56.3637 36.4298 56.3064 36.445C56.253 36.4565 56.1956 36.4756 56.1383 36.4909C56.081 36.5062 56.0276 36.5214 55.9703 36.5367L55.7105 36.6093C55.657 36.6246 55.6035 36.6361 55.55 36.6513C55.5004 36.6666 55.4507 36.6781 55.401 36.6934C55.3476 36.7048 55.2941 36.7239 55.2406 36.7392C55.1871 36.7545 55.1336 36.7736 55.0801 36.785L54.7936 36.8729C54.744 36.8844 54.6943 36.9035 54.6485 36.9188C54.5988 36.934 54.5529 36.9493 54.5033 36.9646C54.4307 36.9837 54.3505 37.0143 54.2741 37.041C54.2435 37.0525 54.2129 37.0639 54.1824 37.0754L53.915 37.1709C53.8577 37.19 53.8004 37.2091 53.7431 37.2282C53.6972 37.2435 53.6514 37.2588 53.6055 37.274C53.5291 37.297 53.4451 37.3313 53.361 37.3657C53.3343 37.3772 53.3114 37.3848 53.2846 37.3963L53.0096 37.4994L52.7154 37.6102L52.406 37.7439L52.1386 37.8547C52.0927 37.8738 52.0431 37.8967 51.9934 37.9158C51.9399 37.9388 51.8864 37.9579 51.8329 37.9808C51.7336 38.0228 51.6343 38.0686 51.535 38.1183L51.2637 38.2444C51.172 38.2826 51.0842 38.3246 50.9963 38.3704L50.9581 38.3895C50.9237 38.4086 50.8893 38.4239 50.855 38.4392C50.7977 38.4698 50.7404 38.4965 50.6792 38.5233L50.3927 38.6722C50.2934 38.7219 50.1941 38.7716 50.0947 38.825C49.9954 38.8785 49.9114 38.9244 49.8235 38.974L49.5293 39.1345C49.4338 39.1842 49.3422 39.2376 49.2466 39.2949L48.9716 39.463L48.7042 39.6235C48.6583 39.6502 48.6163 39.677 48.5743 39.7037C48.5208 39.7343 48.4673 39.7686 48.4138 39.803C48.3145 39.8642 48.2305 39.9176 48.1426 39.9788L47.8905 40.1468C47.8561 40.1698 47.8217 40.1927 47.7873 40.2156C47.7224 40.2576 47.6574 40.2997 47.5925 40.3455C47.5084 40.4028 47.4244 40.4601 47.3442 40.5212L47.0844 40.7084C47.0347 40.7466 46.9851 40.7772 46.9392 40.8116C46.8896 40.846 46.8437 40.8803 46.7941 40.9147C46.7177 40.972 46.6451 41.0293 46.5648 41.0904L46.5381 41.1095L46.3012 41.2967C46.2707 41.3197 46.2439 41.3426 46.2134 41.3617C46.1446 41.4152 46.072 41.4686 46.0071 41.526C45.9803 41.5489 45.9574 41.568 45.9307 41.5909C45.881 41.6329 45.8352 41.6711 45.7855 41.717L45.5372 41.9271L45.5219 41.9424C45.4264 42.0226 45.3347 42.099 45.243 42.1754L45.0329 42.374L44.7999 42.588C44.7541 42.6338 44.7044 42.6758 44.6547 42.7217C44.6051 42.7675 44.5592 42.8096 44.5096 42.8554L44.2956 43.0693L44.0702 43.2947C44.0397 43.3253 44.0091 43.352 43.9824 43.3826C43.9212 43.4437 43.8601 43.501 43.799 43.566C43.757 43.608 43.7188 43.65 43.6806 43.6958C43.6576 43.7226 43.6347 43.7455 43.6118 43.7722C43.5927 43.7914 43.5774 43.8105 43.5583 43.8296C43.5392 43.8525 43.5163 43.8754 43.4972 43.8983L43.3826 44.0244L43.375 44.032C43.2871 44.1237 43.1992 44.2192 43.1152 44.3185L43.0961 44.3415C43.0349 44.4102 42.9776 44.479 42.9203 44.5516L42.6988 44.819C42.6147 44.9145 42.5307 45.0138 42.4581 45.1131C42.4161 45.1705 42.3779 45.2163 42.3397 45.2621C42.3091 45.2965 42.2824 45.3347 42.2556 45.3691L42.0493 45.6403L41.992 45.7167C41.9385 45.7855 41.8851 45.8581 41.8316 45.9269C41.7552 46.0262 41.6864 46.1293 41.6176 46.2287L41.5947 46.263L41.5069 46.3967C41.4916 46.4197 41.4725 46.4464 41.4534 46.4693C41.4343 46.4961 41.4152 46.519 41.3999 46.5419C41.3426 46.6183 41.2891 46.6947 41.2318 46.7788C41.037 47.0729 40.846 47.3747 40.6702 47.6727C36.6513 54.339 36.1051 63.0568 39.2453 70.426C39.4669 70.9379 39.6999 71.446 39.9558 71.9465C39.9902 72.0114 40.0246 72.0763 40.0628 72.1413C40.0781 72.168 40.0934 72.191 40.1048 72.2177C40.1163 72.2406 40.1316 72.2635 40.143 72.2865C40.1698 72.3285 40.1927 72.3743 40.2156 72.4163L40.2576 72.5042C40.2958 72.573 40.334 72.6417 40.3722 72.7105C40.4945 72.9359 40.6206 73.1689 40.7581 73.3867C40.8307 73.5089 40.9071 73.6235 40.9873 73.742C41.0102 73.7764 41.0293 73.8069 41.0522 73.8413C41.0752 73.8757 41.0981 73.9062 41.1172 73.9406L41.2165 74.1011C41.354 74.315 41.4992 74.5366 41.6482 74.7467C41.7131 74.8422 41.7857 74.9339 41.8583 75.0217C41.8812 75.0523 41.908 75.0829 41.9309 75.1134C41.9538 75.1478 41.9806 75.1784 42.0035 75.2089C42.0302 75.2395 42.0531 75.2739 42.0761 75.3044L42.1792 75.442C42.3244 75.5948 42.4619 75.7514 42.5918 75.9157L42.6147 75.9042ZM48.6469 31.7767L48.6736 31.7538C48.7462 31.7538 48.815 31.7614 48.8875 31.7653C49.0595 31.7729 49.2314 31.7805 49.4109 31.792C49.9572 31.8226 50.5264 31.8608 51.2026 31.9219L51.6037 31.9563C52.2341 32.0136 52.788 32.0709 53.3076 32.132L53.5177 32.1587C54.0028 32.2199 54.4918 32.2925 55.0114 32.3689H55.1527L55.3781 32.4032C55.9244 32.4911 56.4516 32.5866 56.9444 32.6783L57.1278 32.7089L57.2424 32.7318C57.6894 32.8196 58.144 32.919 58.5795 33.0183L58.6941 33.045C58.7208 33.0489 58.7514 33.0565 58.7781 33.0641C58.8049 33.0718 58.8316 33.0756 58.8622 33.0832C59.3359 33.194 59.8211 33.3201 60.3024 33.4538C60.3482 33.4691 60.3941 33.4805 60.4399 33.4958C60.4629 33.5035 60.4896 33.5111 60.5125 33.5149L60.6157 33.5493C61.0779 33.683 61.4905 33.8091 61.8878 33.9352L61.9604 33.9581C61.9604 33.9581 61.9871 33.9657 62.0024 33.9695C62.0177 33.9734 62.0368 33.9772 62.0482 33.9848C62.3997 34.0994 62.7512 34.2293 63.1294 34.3668C62.7053 34.3554 62.2851 34.3554 61.8763 34.3668C61.842 34.3668 61.8076 34.3668 61.777 34.3668C61.7426 34.3668 61.7121 34.3668 61.6777 34.3668H61.5784C61.0091 34.3936 60.5087 34.4241 60.0464 34.4662C60.0044 34.4662 59.9662 34.47 59.9242 34.4776C59.9089 34.4776 59.8898 34.4814 59.8745 34.4814C59.8745 34.4814 59.8402 34.4814 59.8249 34.4853C59.3664 34.5349 58.9042 34.5961 58.4343 34.6686L58.3197 34.6839C58.2853 34.6916 58.2548 34.6954 58.2204 34.6992C58.1936 34.6992 58.1669 34.7068 58.1363 34.7107C57.697 34.7832 57.2348 34.8711 56.719 34.9857L56.635 35.001C56.5968 35.0086 56.5624 35.0163 56.5242 35.0277C56.4554 35.043 56.3828 35.0583 56.3179 35.0774C55.8709 35.1844 55.4163 35.299 54.9732 35.4327C54.8738 35.4594 54.7745 35.49 54.679 35.5206C54.637 35.532 54.595 35.5473 54.5491 35.5588C54.064 35.7077 53.6361 35.8567 53.2311 36.0019C53.1509 36.0363 53.0631 36.0707 52.979 36.1012L52.8529 36.1509C52.4442 36.3113 52.0469 36.4718 51.6725 36.6361L51.2981 36.8041C50.9237 36.9799 50.5379 37.1671 50.1253 37.3772L49.9916 37.4421C49.9075 37.4803 49.835 37.5185 49.7547 37.5644C49.3689 37.7707 48.9716 37.9999 48.5475 38.252C48.4902 38.2902 48.4291 38.3246 48.3718 38.359C48.3069 38.3972 48.2419 38.4354 48.1808 38.4774C47.772 38.7295 47.3786 38.9893 47.0118 39.2491L46.7788 39.4172L46.6947 39.4783C46.2592 39.7916 45.8772 40.0819 45.5296 40.3608C45.5066 40.3799 45.4837 40.4028 45.4608 40.4219C45.4608 40.4219 45.4341 40.4448 45.4226 40.4563L45.3385 40.5289L45.3118 40.5518C44.9642 40.846 44.6127 41.1439 44.2765 41.4495C44.2498 41.4763 44.2192 41.4992 44.1925 41.5221C44.1619 41.5527 44.1314 41.5833 44.097 41.61C43.757 41.9233 43.4017 42.2709 43.0235 42.6758L42.9624 42.7446C42.9624 42.7446 42.928 42.7828 42.9089 42.8019C42.8745 42.8363 42.8401 42.8707 42.8134 42.9051C42.4772 43.2642 42.1448 43.6424 41.8278 44.032L41.7857 44.0855C41.7361 44.1505 41.6864 44.2078 41.6329 44.2689C41.2967 44.6891 40.9949 45.0826 40.7046 45.4875C40.6855 45.5105 40.6702 45.5372 40.6549 45.5601L40.6397 45.5869L40.5785 45.6709C40.2385 46.1675 39.9367 46.6145 39.6846 47.0385C39.4707 47.3976 39.2491 47.795 39.0084 48.2496C38.9588 48.3374 38.9129 48.4253 38.8709 48.5208L38.8098 48.6354C38.657 48.9448 38.5156 49.2314 38.3857 49.5179C38.317 49.6592 38.252 49.812 38.1909 49.9534C38.0648 50.2475 37.9349 50.557 37.7974 50.9123L37.7401 51.0422C37.7286 51.0765 37.7134 51.1071 37.7019 51.1377C37.6866 51.1759 37.6713 51.2102 37.6561 51.2523C37.4956 51.6916 37.3428 52.1347 37.2129 52.5626C37.2053 52.5932 37.1976 52.6237 37.1862 52.6543C37.1785 52.681 37.1709 52.7116 37.1633 52.7383C37.1594 52.7613 37.1518 52.7804 37.1442 52.8033C37.1365 52.8262 37.1327 52.8491 37.1251 52.8682C37.0219 53.2426 36.9264 53.5864 36.8424 53.915L36.8271 53.9723C36.7927 54.106 36.7583 54.2435 36.7316 54.3772C36.659 54.6981 36.594 55.0152 36.5329 55.3246L36.5176 55.4201C36.4947 55.5347 36.4718 55.6532 36.4489 55.7754C36.3763 56.1651 36.3152 56.5624 36.2655 56.9712L36.254 57.059L36.2388 57.1698C36.1891 57.6053 36.1433 58.0637 36.1127 58.5604C36.1127 58.61 36.1089 58.6597 36.1051 58.7055C36.1051 58.7552 36.1012 58.801 36.0974 58.8507V58.9844C36.0745 59.3435 36.0668 59.6721 36.0592 59.9853C36.0554 60.1458 36.0554 60.31 36.0554 60.4705C36.0554 60.7914 36.0592 61.1314 36.0783 61.4867V61.6357C36.0859 61.6815 36.0859 61.7235 36.0898 61.7694C36.0898 61.8152 36.0898 61.8572 36.0936 61.9031C36.1203 62.4073 36.1547 62.8581 36.2044 63.3051C36.2044 63.328 36.212 63.3548 36.2158 63.3777C36.2158 63.3968 36.2197 63.4159 36.2235 63.435C36.2235 63.4541 36.2273 63.4732 36.2311 63.4923C36.2311 63.5114 36.2349 63.5305 36.2388 63.5496C36.2808 63.9431 36.3343 64.3213 36.3916 64.6842C36.319 64.4359 36.2502 64.1838 36.1853 63.924C36.1776 63.8896 36.17 63.8514 36.1585 63.8094L36.1509 63.7788L36.128 63.6757L36.1203 63.6413C36.063 63.3891 36.0172 63.1752 35.979 62.9689C35.9713 62.9269 35.9637 62.8887 35.9599 62.8467C35.9522 62.8046 35.9446 62.7588 35.937 62.7168L35.9217 62.6175C35.9102 62.5334 35.8949 62.4494 35.8835 62.3653C35.8606 62.2354 35.8415 62.1017 35.8224 61.9718C35.8109 61.8916 35.8033 61.8152 35.7918 61.7388C35.7842 61.693 35.7803 61.6433 35.7727 61.5936C35.7421 61.3797 35.723 61.1619 35.7001 60.9442V60.9327L35.6886 60.8296C35.681 60.7608 35.6734 60.6882 35.6695 60.6157V60.5813C35.6504 60.3521 35.6352 60.1037 35.6237 59.7981C35.6237 59.7828 35.6237 59.7676 35.6237 59.7523C35.6237 59.7332 35.6237 59.7141 35.6237 59.6912C35.6237 59.6721 35.6237 59.6491 35.6237 59.6262C35.6237 59.6033 35.6237 59.5804 35.6237 59.5536C35.6122 59.2213 35.6084 58.866 35.6122 58.5107C35.6161 58.4725 35.6199 58.4305 35.6161 58.3885C35.6199 58.3464 35.6237 58.3082 35.6199 58.2662C35.6237 57.953 35.6352 57.6932 35.6466 57.4449C35.6504 57.3646 35.6581 57.2806 35.6619 57.1965L35.6734 57.0743C35.681 56.9788 35.6886 56.8871 35.6963 56.7916C35.7077 56.6503 35.7192 56.5089 35.7307 56.3637V56.3255C35.7421 56.2033 35.7498 56.0772 35.7651 55.9588C35.7918 55.7219 35.8224 55.4851 35.8529 55.2482L35.8644 55.1527C35.8758 55.0534 35.8873 54.9579 35.9026 54.8586C35.9331 54.6294 35.9752 54.3925 36.0286 54.0907L36.0363 54.0487L36.0592 53.9264C36.0668 53.8691 36.0745 53.8118 36.0859 53.7545C36.1509 53.3916 36.2273 53.0134 36.3113 52.6466C36.319 52.6046 36.3266 52.5664 36.3381 52.5244L36.361 52.4365L36.3686 52.406C36.445 52.0889 36.5138 51.8024 36.5826 51.5311C36.5902 51.4968 36.6017 51.4624 36.6093 51.428C36.6246 51.3707 36.6399 51.3134 36.6552 51.2561L36.6819 51.1453C36.7507 50.897 36.8194 50.6487 36.892 50.4003C36.9302 50.2628 36.9761 50.1177 37.0181 49.9801C37.0907 49.7395 37.1709 49.495 37.2549 49.2505L37.2817 49.1741C37.3161 49.0671 37.3543 48.9525 37.3925 48.8455C37.488 48.5781 37.5873 48.3145 37.6866 48.0471L37.7363 47.9134C37.7477 47.8866 37.7554 47.8599 37.7669 47.8332C37.7821 47.795 37.7974 47.7606 37.8089 47.7186C37.9579 47.3327 38.1069 46.9545 38.2597 46.5916C38.2673 46.5763 38.2749 46.5572 38.2826 46.5419C38.2902 46.5266 38.294 46.5075 38.3017 46.4923L38.3322 46.4158C38.4698 46.0911 38.6073 45.7702 38.7525 45.4608C38.7792 45.3997 38.8136 45.3309 38.8442 45.2621L38.8633 45.2239L38.932 45.0826C38.974 44.9947 39.0161 44.9069 39.0619 44.819C39.1383 44.6585 39.2147 44.4981 39.2949 44.3415L39.3217 44.2842C39.379 44.1619 39.4401 44.0397 39.5051 43.9212C39.5509 43.8372 39.5967 43.7493 39.6388 43.6615C39.719 43.5087 39.7992 43.352 39.8794 43.203L39.9176 43.1266C39.9482 43.0731 39.9788 43.0158 40.0093 42.9585C40.0399 42.9012 40.0705 42.8478 40.101 42.7905C40.2424 42.5345 40.3875 42.2785 40.5365 42.0226L40.6244 41.8698C40.6435 41.8354 40.6626 41.8048 40.6817 41.7704C40.7008 41.7361 40.7199 41.7055 40.739 41.6711C40.9682 41.2853 41.1898 40.9224 41.4114 40.5747L41.4419 40.5174C41.4419 40.5174 41.4687 40.4792 41.4801 40.4601C41.6826 40.1392 41.9003 39.8107 42.1181 39.486C42.1639 39.4134 42.2136 39.3446 42.2671 39.272L42.2976 39.23L42.3702 39.123C42.5383 38.8824 42.7064 38.6417 42.8783 38.401L42.886 38.3895C42.9776 38.2597 43.077 38.1259 43.1725 37.9961L43.226 37.9235C43.375 37.721 43.5239 37.5147 43.6844 37.3161L43.7073 37.2893C43.7646 37.2129 43.8257 37.1365 43.883 37.0639C43.9212 37.0181 43.9556 36.9684 43.9938 36.9226C44.181 36.6781 44.372 36.4412 44.5669 36.2044L44.6509 36.0974C44.6891 36.0516 44.7235 36.0095 44.7617 35.9675C44.7884 35.9331 44.8152 35.9026 44.8457 35.8682C45.159 35.4862 45.4532 35.1462 45.7282 34.8367C45.8925 34.6495 46.0568 34.47 46.2134 34.2943C46.3165 34.1796 46.4197 34.065 46.519 33.9543L46.5687 33.897C46.7024 33.7556 46.8323 33.6181 46.9583 33.4844C47.0691 33.3659 47.1723 33.2513 47.2792 33.1405C47.2907 33.1253 47.3021 33.1138 47.3174 33.1023C47.3289 33.0909 47.3403 33.0794 47.3518 33.0641C47.5084 32.8999 47.6613 32.7432 47.8141 32.5904C47.8714 32.5331 47.9287 32.472 47.986 32.4147L48.07 32.3307C48.2687 32.132 48.4635 31.9448 48.6545 31.7653L48.6469 31.7767ZM70.8042 37.1594C70.8577 37.2053 70.915 37.2473 70.9685 37.2931C71.022 37.339 71.0793 37.381 71.1328 37.4268C71.3429 37.5988 71.5568 37.7821 71.8089 38.0037L71.9159 38.0992C71.9885 38.1603 72.0496 38.2176 72.1146 38.2788L72.1337 38.2979C72.3552 38.5003 72.5653 38.7143 72.7831 38.932C72.8328 38.9817 72.8824 39.0352 72.9321 39.0848C72.9397 39.0963 72.9512 39.1039 72.9588 39.1154C72.9703 39.1268 72.9779 39.1345 72.9894 39.1459L73.0582 39.2147C73.3447 39.5203 73.6235 39.8451 73.9024 40.1812C73.9521 40.2424 73.9979 40.3035 74.04 40.3646C74.0552 40.3875 74.0782 40.4143 74.0973 40.4372C74.0973 40.4372 74.1202 40.4677 74.1355 40.483C74.3494 40.7619 74.5213 40.9873 74.6741 41.2051C74.7047 41.2509 74.7352 41.2967 74.7658 41.3426C74.804 41.3999 74.8422 41.4572 74.8804 41.5145L74.9377 41.5909C75.1058 41.8316 75.2471 42.057 75.3809 42.2785C75.4649 42.4161 75.5451 42.5536 75.6292 42.6988C75.7514 42.9127 75.8775 43.1419 76.0227 43.4208L76.0723 43.5163C76.1296 43.6194 76.1831 43.7264 76.2328 43.8372C76.355 44.0855 76.4734 44.3606 76.6186 44.7044C76.6339 44.7464 76.653 44.7846 76.6759 44.8266C76.6836 44.8496 76.695 44.8725 76.7065 44.8916C76.7256 44.9336 76.7447 44.9756 76.76 45.0176C76.9204 45.4226 77.0694 45.8352 77.2031 46.2439C77.2184 46.2936 77.2337 46.3471 77.2451 46.3967C77.2528 46.4311 77.2604 46.4541 77.268 46.477C77.268 46.4884 77.2757 46.4999 77.2795 46.5114C77.3903 46.8666 77.482 47.199 77.5622 47.5123C77.5851 47.6001 77.6042 47.6842 77.6233 47.772L77.6348 47.8217L77.6654 47.9707C77.7379 48.2916 77.7991 48.5781 77.8487 48.8417C77.8831 49.0136 77.9098 49.1817 77.9366 49.3536C77.9786 49.6363 78.0245 49.9305 78.0627 50.2284V50.2857C78.0818 50.3851 78.0932 50.4882 78.1047 50.5914C78.1123 50.6448 78.1161 50.6983 78.1238 50.748C78.1505 51.023 78.1811 51.3325 78.2002 51.7183L78.2116 51.8711C78.2116 51.9246 78.2193 51.9743 78.2231 52.0278C78.2269 52.0774 78.2307 52.1309 78.2346 52.1806C78.2575 52.704 78.2651 53.1891 78.2651 53.6514C78.2651 54.1595 78.2422 54.6828 78.1964 55.2482C78.1964 55.317 78.1849 55.3819 78.1773 55.4545C78.1734 55.4927 78.1696 55.5309 78.1658 55.5691C78.1658 55.5997 78.1582 55.6341 78.1543 55.6685C78.1505 55.7067 78.1467 55.741 78.1429 55.7792C78.1047 56.1727 78.0703 56.5013 78.0283 56.8336C78.013 56.9482 77.9939 57.059 77.9748 57.1698L77.9671 57.2156C77.9633 57.2424 77.9595 57.2653 77.9557 57.2921L77.9289 57.4449C77.8869 57.7276 77.8258 58.0523 77.7532 58.3885C77.7188 58.5604 77.6768 58.7361 77.6348 58.9042L77.608 59.0112C77.5355 59.3206 77.4552 59.6224 77.375 59.9089C77.3521 59.9891 77.3292 60.0694 77.3062 60.1458C77.2719 60.2718 77.2337 60.3941 77.1916 60.5201C77.1076 60.7914 77.0083 61.0779 76.8898 61.4064L76.8516 61.5172C76.8325 61.5707 76.8134 61.6242 76.7943 61.6777C76.7561 61.7808 76.7218 61.884 76.6797 61.9833C76.5575 62.2966 76.42 62.6136 76.2939 62.9001L76.2824 62.9231L76.271 62.9498C76.2519 62.9918 76.2366 63.0339 76.2137 63.0759C76.1984 63.1141 76.1793 63.1523 76.164 63.1905C76.1334 63.2631 76.1029 63.3318 76.0723 63.4006C75.9119 63.7406 75.7323 64.0959 75.5069 64.5161C75.4916 64.5429 75.4802 64.5658 75.4687 64.5925C75.4649 64.604 75.4573 64.6154 75.4496 64.6269C75.4458 64.6345 75.4382 64.646 75.4343 64.6575C75.4152 64.6918 75.3961 64.7377 75.3732 64.7759C75.2242 65.0433 75.0714 65.3069 74.9071 65.5743C75.0294 65.4482 75.144 65.3222 75.2624 65.1923L75.3044 65.1426C75.3426 65.0968 75.3847 65.0548 75.4229 65.0166L75.4496 64.9898C75.4802 64.9554 75.5107 64.9249 75.5413 64.8943C75.5719 64.8637 75.6024 64.8294 75.633 64.7988C76.0303 64.3557 76.42 63.9049 76.7982 63.4579C77.268 62.8963 77.7418 62.3118 78.1925 61.7197C78.2613 61.6318 78.3263 61.5401 78.3912 61.4523C78.4218 61.4103 78.4523 61.3682 78.4829 61.3262C78.5058 61.2918 78.5325 61.2613 78.5555 61.2307C78.5975 61.1734 78.6357 61.1199 78.6777 61.0703L78.8382 60.8601C79.0597 60.566 79.2813 60.268 79.4952 59.9739C79.5793 59.8554 79.6633 59.7332 79.7436 59.6148C79.7703 59.5727 79.8009 59.5307 79.8276 59.4887C79.8543 59.4467 79.8849 59.4046 79.9116 59.3626C79.946 59.313 79.9766 59.2633 80.011 59.2174L80.1943 58.9577C80.3472 58.7361 80.5 58.5107 80.649 58.2891L80.7024 58.2127L80.7368 58.1592C80.8361 58.0064 80.9355 57.8536 81.0272 57.7008C81.0577 57.655 81.0883 57.6053 81.115 57.5595C81.1456 57.5136 81.1723 57.464 81.2029 57.4181L81.371 57.1507C81.52 56.9177 81.669 56.6846 81.8065 56.4478C81.9096 56.272 82.009 56.0925 82.1083 55.9168L82.1312 55.8747C82.1732 55.7983 82.2152 55.7181 82.2611 55.6455L82.3986 55.4049L82.4521 55.3132C82.5705 55.1069 82.6928 54.9006 82.7997 54.6981C82.8838 54.5453 82.9602 54.3925 83.0404 54.2397L83.0901 54.148L83.3384 53.6628C83.3537 53.6323 83.369 53.6017 83.3842 53.5711L83.411 53.5177C83.5065 53.3305 83.602 53.1471 83.6899 52.9561C83.7777 52.7727 83.8579 52.6008 83.9382 52.4174C83.9535 52.3831 83.9687 52.3448 83.9878 52.3105C84.0108 52.2608 84.0337 52.215 84.0528 52.1653L84.1559 51.9399C84.2667 51.7031 84.3699 51.4662 84.4768 51.2293C84.538 51.088 84.5914 50.9466 84.6449 50.8053L84.664 50.7518L84.6831 50.6983L84.7824 50.4462L84.8321 50.3201C84.8588 50.2514 84.8856 50.1826 84.9123 50.1138C84.9696 49.9687 85.0269 49.8235 85.0804 49.6783C85.0231 49.5828 84.9658 49.4911 84.9047 49.3956L84.8703 49.346C84.8054 49.2466 84.7404 49.1435 84.6793 49.0403L84.6411 48.9792L84.3737 48.5857L84.2896 48.4635C84.2285 48.3718 84.1636 48.2801 84.0986 48.1884L84.0642 48.1388C83.9726 48.0089 83.8732 47.8752 83.7815 47.7529V47.7453L83.7051 47.6498C83.6211 47.5352 83.537 47.4244 83.453 47.3136L83.4148 47.2678C83.3384 47.1684 83.262 47.0691 83.1818 46.9736L83.0519 46.8093C82.9678 46.7024 82.8838 46.5992 82.8036 46.4999C82.7654 46.4541 82.7233 46.4044 82.6813 46.3547C82.6317 46.2974 82.5858 46.2401 82.5361 46.179L82.3833 45.9956L82.3528 45.9574C82.2764 45.8657 82.2 45.7779 82.1159 45.6862L81.8179 45.3538L81.7033 45.2278L81.3977 44.8916C81.3672 44.861 81.3366 44.8266 81.306 44.7961C81.2449 44.7349 81.1838 44.67 81.1265 44.6051L80.9125 44.3835C80.8667 44.3376 80.8247 44.2918 80.7788 44.246C80.733 44.2001 80.691 44.1543 80.6451 44.1084C80.5573 44.0129 80.4465 43.9098 80.3472 43.8143L80.137 43.6118C80.0912 43.566 80.0454 43.5239 80.0033 43.4781C79.9575 43.4322 79.9117 43.3902 79.8696 43.3444C79.7665 43.2451 79.6672 43.1496 79.5602 43.0579L79.3463 42.8592C79.3042 42.821 79.266 42.7828 79.224 42.7484C79.1743 42.6988 79.1209 42.6529 79.0712 42.6071C79.0215 42.5612 78.9719 42.5192 78.9222 42.4734C78.8649 42.4237 78.8076 42.3702 78.7465 42.3167L78.5058 42.1066C78.4714 42.0761 78.4409 42.0493 78.4065 42.0226C78.353 41.9767 78.2995 41.9309 78.246 41.8812C78.1467 41.7972 78.0474 41.717 77.9519 41.6367L77.9175 41.61L77.6501 41.3961C77.6157 41.3693 77.5813 41.3426 77.5469 41.3158C77.4934 41.2738 77.4438 41.2318 77.3903 41.186C77.3215 41.1286 77.2489 41.0752 77.1802 41.0217C77.142 40.9911 77.1 40.9606 77.0618 40.93L76.7867 40.7199C76.6988 40.6511 76.6148 40.59 76.5269 40.5212C76.4391 40.4525 76.3474 40.3875 76.2595 40.3226C76.2251 40.2997 76.1907 40.2729 76.1602 40.25L75.8889 40.0513C75.8049 39.9902 75.7247 39.9291 75.6406 39.8756C75.5031 39.7763 75.3656 39.6808 75.2204 39.5891L74.9797 39.4325C74.9415 39.4095 74.9033 39.3828 74.8651 39.3561C74.8269 39.3293 74.7887 39.3026 74.7467 39.2797L74.7123 39.2567C74.548 39.1498 74.3876 39.0466 74.2233 38.9473L74.0132 38.8174C73.9865 38.7983 73.9597 38.783 73.9292 38.7639C73.8948 38.741 73.8642 38.7219 73.8298 38.699C73.5204 38.5118 73.211 38.3246 72.9015 38.1527C72.4889 37.9235 72.0534 37.6943 71.5644 37.4765C71.4957 37.4421 71.4269 37.4154 71.3581 37.3886C71.3352 37.381 71.3123 37.3695 71.2894 37.3619C71.2512 37.3466 71.213 37.3313 71.1748 37.3161C71.1557 37.3084 71.1328 37.297 71.1098 37.2893C71.0105 37.2549 70.8997 37.2129 70.7966 37.1709L70.8042 37.1594ZM67.133 34.7985C67.133 34.7985 67.1406 34.7985 67.1444 34.7985C67.1483 34.7985 67.1521 34.7985 67.1559 34.7985H67.1826C67.748 34.9093 68.2981 35.0354 68.8062 35.1729L68.8788 35.1958C69.4289 35.3448 69.9599 35.5091 70.4566 35.6886L70.5062 35.7116C71.0372 35.8988 71.5453 36.1089 72.0229 36.3228L72.0458 36.3343C72.5577 36.5635 73.0467 36.8194 73.5128 37.0792C73.7496 37.2129 73.9865 37.3543 74.2348 37.4994C74.3074 37.5415 74.3761 37.5835 74.4525 37.6293C74.4831 37.6484 74.5175 37.6713 74.548 37.6904C74.5824 37.7134 74.6206 37.7325 74.655 37.7554L74.7696 37.828C74.9033 37.912 75.037 37.9961 75.1707 38.0801C75.2395 38.1221 75.3044 38.1641 75.3732 38.21C75.4611 38.2673 75.5489 38.3246 75.6406 38.3857L75.8011 38.4965C75.9195 38.5729 76.0303 38.6493 76.1449 38.7295C76.1946 38.7639 76.2404 38.7945 76.2901 38.8289C76.3932 38.9015 76.4925 38.9702 76.5995 39.0504L76.737 39.1498C76.8096 39.2033 76.886 39.2567 76.9624 39.3102C77.0388 39.3637 77.1152 39.4172 77.1878 39.4707C77.2375 39.5051 77.2833 39.5433 77.333 39.5776C77.3979 39.6273 77.4629 39.677 77.5278 39.7228L77.5889 39.7725C77.7494 39.8947 77.9098 40.0131 78.0703 40.1392C78.1047 40.166 78.1391 40.1965 78.1773 40.2233C78.2728 40.2997 78.3721 40.3799 78.4752 40.4563C78.5211 40.4945 78.5631 40.5289 78.609 40.5633C78.7197 40.6511 78.8267 40.7428 78.9337 40.8383C78.9719 40.8689 79.0101 40.8994 79.0445 40.9338C79.14 41.014 79.2316 41.0904 79.3233 41.1707C79.4723 41.2967 79.6213 41.4304 79.7665 41.5642C79.8391 41.6291 79.9116 41.694 79.9804 41.759C80.0339 41.8086 80.0912 41.8583 80.1447 41.908C80.244 41.9958 80.3433 42.0875 80.4388 42.1792C80.4847 42.2251 80.5343 42.2671 80.5802 42.3091C80.6146 42.3397 80.649 42.374 80.6833 42.4046C80.7712 42.4887 80.8629 42.5727 80.9507 42.6644C81.0921 42.8019 81.2334 42.9394 81.3748 43.0846L81.3977 43.1075C81.4245 43.1343 81.455 43.1648 81.4856 43.1916C81.5696 43.2718 81.6537 43.3558 81.7301 43.4437L81.7415 43.4552C81.8752 43.5927 82.0128 43.734 82.1465 43.8792L82.2114 43.9518C82.2993 44.0473 82.3872 44.139 82.4788 44.2383C82.5896 44.3606 82.7004 44.479 82.8112 44.6051L82.9946 44.8075C83.0251 44.8419 83.0557 44.8801 83.0901 44.9145C83.1283 44.9565 83.1627 44.9985 83.2009 45.0406C83.3155 45.1705 83.4339 45.3118 83.5409 45.4493L83.7242 45.6709C83.7433 45.69 83.7586 45.7129 83.7777 45.732C83.8159 45.7779 83.8541 45.8199 83.8885 45.8657C84.049 46.0606 84.2056 46.263 84.3928 46.5075L84.4386 46.5687L84.4539 46.5916L84.5876 46.7635C84.7901 47.0309 84.9735 47.283 85.1454 47.5237C85.1874 47.5848 85.2332 47.6498 85.2714 47.7109L85.4357 47.9478C85.4815 48.0089 85.5236 48.0738 85.5618 48.135C85.5618 48.135 85.5847 48.1693 85.5962 48.1846C86.8606 44.0435 86.8339 40.5174 85.5121 38.2367C84.6144 36.6857 83.1359 35.7116 81.1227 35.3448C80.3739 35.2073 79.6404 35.0812 78.9528 34.9666C78.6739 34.9208 78.4027 34.8711 78.1429 34.8291C72.955 33.9543 68.4777 33.1902 64.1799 30.1951C59.2748 26.7722 54.6408 26.9021 50.0107 30.5963C50.8091 30.6536 51.5884 30.7109 52.3181 30.7911L52.4556 30.8064L52.5511 30.8178C53.3343 30.9019 54.0831 30.9936 54.7898 31.0929L54.9846 31.1196C55.7449 31.2304 56.4745 31.3565 57.1469 31.4826L57.2997 31.5169C58.0408 31.6583 58.7399 31.8149 59.3855 31.9677L59.4963 31.9945C60.2069 32.1702 60.8793 32.3498 61.5134 32.5446L61.5745 32.5599C62.2584 32.77 62.9116 32.9839 63.519 33.2093C64.1303 33.4347 64.7568 33.683 65.3489 33.9466L65.41 33.9734C65.9678 34.214 66.5256 34.4853 67.0757 34.7718L67.1101 34.7871C67.1101 34.7871 67.133 34.7947 67.1406 34.8023L67.133 34.7985Z" fill="white"/>
</svg>
