<svg width="1221" height="241" viewBox="0 0 1221 241" fill="none" xmlns="http://www.w3.org/2000/svg">
<path d="M0 202.593C0 233.81 16.5879 241 33.8426 241C70.3441 241 97.7844 208.883 114.147 183.505C112.155 189.113 111.047 194.728 111.047 200.126C111.047 214.948 119.457 225.504 136.045 225.504C158.834 225.504 183.166 205.284 195.778 183.497C194.894 186.646 194.452 189.563 194.452 192.254C194.452 202.593 200.204 209.108 211.924 209.108C248.875 209.108 286.035 142.849 286.035 84.8963C286.035 39.7489 263.463 0 206.831 0C107.295 0 0 123.087 0 202.593ZM172.547 79.9558C172.547 68.7252 178.74 60.8686 187.809 60.8686C196.661 60.8686 202.855 68.7252 202.855 79.9558C202.855 91.1864 196.669 99.2759 187.817 99.2759C178.74 99.2759 172.555 91.1864 172.555 79.9558H172.547ZM219.892 79.9558C219.892 68.7252 226.078 60.8686 235.155 60.8686C243.999 60.8686 250.193 68.7252 250.193 79.9558C250.193 91.1864 244.007 99.2759 235.155 99.2759C226.078 99.2759 219.892 91.1864 219.892 79.9558ZM330.272 216.522H363.448V186.197C363.448 170.25 362.348 162.836 355.93 148.239L359.464 146.44C370.092 170.925 385.796 180.581 402.167 180.581C428.491 180.581 449.505 157.22 449.505 121.054C449.505 86.4708 430.258 61.0935 402.609 61.0935C386.238 61.0935 370.092 70.5246 359.472 95.0102L355.938 93.2108C360.356 83.5547 363.448 73.8986 363.448 64.6924H330.272V216.522ZM363.448 120.837C363.448 106.016 374.518 89.6199 390.881 89.6199C404.159 89.6199 414.995 100.626 414.995 120.612C414.995 140.374 404.601 152.055 390.656 152.055C375.176 152.055 363.448 136.109 363.448 120.837ZM459.883 176.99H493.075V137.45C493.075 109.599 502.803 89.8368 520.949 89.8368C532.444 89.8368 535.987 97.6934 535.987 117.23V176.982H569.171V111.848C569.171 76.3568 556.559 61.0774 532.444 61.0774C507.896 61.0774 499.927 77.9314 490.416 97.2435L486.882 95.2271C491.742 83.0968 493.067 75.4651 493.067 64.6764V26.7269H459.891L459.883 176.99ZM616.581 180.581C637.603 180.581 650.207 166.202 659.059 149.139L662.818 151.155C659.284 159.245 655.958 168.909 655.958 176.99H688.483V115.897C688.483 79.5059 673.438 61.0935 638.262 61.0935C603.752 61.0935 586.723 78.6062 583.397 97.0266L615.256 102.65C616.364 92.9858 624.108 86.4708 636.494 86.4708C648.881 86.4708 655.958 92.7609 655.958 100.401C655.958 108.032 648.664 111.631 629.193 111.856C600.435 112.306 579.196 122.862 579.196 145.323C579.196 163.735 593.575 180.581 616.581 180.581ZM612.163 143.299C612.163 125.103 639.812 137.908 655.3 123.978V128.252C655.3 144.198 641.138 155.646 627.867 155.646C620.348 155.646 612.163 152.513 612.163 143.299ZM703.36 176.99H736.536V137.45C736.536 109.599 746.272 89.8368 764.41 89.8368C775.913 89.8368 779.456 97.6934 779.456 117.23V176.982H812.64V111.848C812.64 76.3568 800.028 61.0774 775.913 61.0774C751.365 61.0774 743.396 77.9314 733.885 97.2435L730.351 95.2271C735.211 83.0968 736.536 75.4651 736.536 64.6764H703.36V176.99ZM902.319 177.44V149.581C895.234 152.047 875.545 156.313 875.545 139.925V92.0781H904.97V64.6844H875.545V34.5835L842.145 44.6894V64.6764H822.239V92.0781H842.145L842.37 142.616C842.37 180.131 875.329 185.522 902.319 177.44ZM971.884 180.581C1005.5 180.581 1031.17 154.529 1031.17 120.612C1031.17 86.9207 1005.5 61.0855 971.884 61.0855C938.258 61.0855 912.376 86.9207 912.376 120.612C912.376 154.529 938.258 180.581 971.884 180.581ZM946.661 120.837C946.661 102.2 957.055 89.17 971.884 89.17C986.705 89.17 996.874 102.192 996.874 120.837C996.874 139.475 986.705 152.505 971.884 152.505C957.055 152.505 946.661 139.475 946.661 120.837ZM1042.1 176.99H1075.28V137.45C1075.28 108.474 1083.46 89.8368 1098.06 89.8368C1107.58 89.8368 1111.56 97.4684 1111.56 117.23V176.982H1144.74V137.45C1144.74 110.274 1153.59 89.8368 1167.53 89.8368C1176.82 89.8368 1181.02 98.5931 1181.02 117.23V176.982H1214.2V111.848C1214.2 76.1319 1202.7 61.0774 1180.14 61.0774C1156.69 61.0774 1147.39 77.2566 1141.2 96.7936L1137.44 94.7773C1140.76 83.0968 1138.77 76.8067 1134.78 71.8662C1129.03 64.6764 1120.85 61.0855 1110.45 61.0855C1089.65 61.0855 1080.59 75.907 1072.62 96.5687L1069.08 94.3194C1072.84 84.2215 1075.28 76.1319 1075.28 64.6764H1042.1V176.99Z" fill="white"/>
</svg>
