<svg width="174" height="47" viewBox="0 0 174 47" fill="none" xmlns="http://www.w3.org/2000/svg">
<path fill-rule="evenodd" clip-rule="evenodd" d="M47.0398 25.2449C46.1293 37.3755 35.968 46.9354 23.5666 46.9354C10.5661 46.9354 0.0270996 36.4292 0.0270996 23.4692C0.0270996 10.5091 10.5661 0.00286865 23.5666 0.00286865C35.9476 0.00286865 46.0962 9.53165 47.0353 21.634H35.781C38.2378 16.2204 38.3864 11.3019 35.6997 9.05455C31.7321 5.73572 23.0837 9.49893 16.3828 17.4598C9.68189 25.4208 7.4661 34.5649 11.4337 37.8837C15.4012 41.2025 24.0497 37.4393 30.7506 29.4784C31.9186 28.0908 32.9503 26.6673 33.8368 25.2449H47.0398Z" fill="#F3F5F0"/>
<path d="M25.3347 25.2449H34.7479L31.1129 29.991L25.3347 27.6783V25.2449Z" fill="#F3F5F0"/>
<path d="M124.711 25.2842H127.072V33.402L131.045 29.0686H133.936L130.041 33.0687L134.251 39.3628H131.517L128.429 34.7157L127.072 36.0883V39.3628H124.711V25.2842Z" fill="#F3F5F0"/>
<path d="M122.61 29.0096C122.708 29.0096 122.806 29.0293 122.924 29.0293C123.023 29.0293 123.141 29.0489 123.279 29.0489V31.4019C123.121 31.3822 122.963 31.3626 122.845 31.3626C122.708 31.3626 122.57 31.343 122.413 31.343C121.626 31.343 120.977 31.5979 120.505 32.0685C120.013 32.5391 119.777 33.1666 119.777 33.9509V39.3627H117.417V29.0685H119.777V30.5979C120.013 30.1273 120.367 29.7352 120.879 29.441C121.39 29.1666 121.961 29.0096 122.61 29.0096Z" fill="#F3F5F0"/>
<path d="M114.595 30.4403C115.028 30.9109 115.343 31.4796 115.579 32.1266C115.795 32.7737 115.913 33.4796 115.913 34.2247C115.913 34.9894 115.795 35.6953 115.579 36.3423C115.343 36.9894 115.028 37.5385 114.595 38.0091C114.124 38.5189 113.592 38.911 112.963 39.1855C112.333 39.46 111.665 39.5776 110.937 39.5776C110.19 39.5776 109.521 39.46 108.892 39.1855C108.262 38.911 107.731 38.5189 107.278 38.0091C106.846 37.5385 106.512 36.9894 106.295 36.3423C106.059 35.6953 105.961 34.9894 105.961 34.2247C105.961 33.4796 106.059 32.7737 106.295 32.1266C106.512 31.4796 106.846 30.9109 107.278 30.4403C107.731 29.9305 108.262 29.558 108.892 29.2835C109.521 29.009 110.19 28.8718 110.937 28.8718C111.665 28.8718 112.333 29.009 112.963 29.2835C113.592 29.558 114.124 29.9305 114.595 30.4403ZM110.937 30.8522C110.131 30.8522 109.501 31.1658 109.03 31.7541C108.557 32.362 108.341 33.1855 108.341 34.2247C108.341 35.2835 108.557 36.1071 109.03 36.6953C109.501 37.3031 110.131 37.5973 110.937 37.5973C111.724 37.5973 112.353 37.3031 112.826 36.6953C113.297 36.1071 113.533 35.2835 113.533 34.2247C113.533 33.1855 113.297 32.362 112.826 31.7541C112.353 31.1658 111.724 30.8522 110.937 30.8522Z" fill="#F3F5F0"/>
<path d="M95.8258 35.8922L97.6552 29.0687H99.6019L101.451 35.8922L103.281 29.0687H105.621L102.513 39.3629H100.468L98.5791 32.6177L96.6915 39.3629H94.6458L91.5383 29.0687H93.9573L95.8258 35.8922Z" fill="#F3F5F0"/>
<path d="M88.9242 39.4804C87.8224 39.4804 87.0557 39.2842 86.5835 38.8528C86.1114 38.4215 85.8951 37.7352 85.8951 36.7744V31.0685H84.4592V29.0685H85.8951V26.0488H88.2157V29.0685H90.3794V31.0685H88.2157V36.4019C88.2157 36.7744 88.2947 37.0293 88.4918 37.1862C88.668 37.343 89.0423 37.4214 89.5927 37.4214C89.7499 37.4214 89.888 37.4214 90.026 37.4214C90.1432 37.4214 90.3203 37.4019 90.5565 37.3627V39.3431C90.3203 39.3823 90.0451 39.4215 89.7699 39.4411C89.4747 39.4804 89.1994 39.4804 88.9242 39.4804Z" fill="#F3F5F0"/>
<path d="M79.2256 39.5785C78.4782 39.5785 77.8094 39.4609 77.18 39.1864C76.5505 38.9119 75.9999 38.5393 75.5474 38.0295C75.1147 37.5589 74.7803 36.9903 74.5443 36.3432C74.3083 35.6961 74.21 34.9903 74.21 34.2255C74.21 33.5197 74.3083 32.8334 74.5443 32.1864C74.7803 31.5393 75.0951 30.9707 75.5278 30.4804C75.9802 29.9706 76.5112 29.5589 77.1407 29.2844C77.7504 29.0098 78.4191 28.8726 79.1273 28.8726C80.5238 28.8726 81.6449 29.3432 82.471 30.2844C83.2971 31.2255 83.7102 32.4413 83.7102 33.9511V34.7354H76.4719C76.5505 35.6177 76.8456 36.304 77.3374 36.8138C77.8291 37.3236 78.4585 37.5786 79.2256 37.5786C79.8156 37.5786 80.3074 37.4413 80.7401 37.1472C81.1728 36.853 81.4679 36.4413 81.6252 35.9315L83.6512 36.6962C83.2774 37.5981 82.707 38.3041 81.9202 38.8138C81.1335 39.3236 80.2484 39.5785 79.2256 39.5785ZM79.1076 30.853C78.4782 30.853 77.9274 31.0491 77.4947 31.402C77.062 31.7745 76.7473 32.304 76.59 32.9706H81.3302C81.3105 32.3432 81.1139 31.8334 80.7205 31.4412C80.3271 31.0491 79.7763 30.853 79.1076 30.853Z" fill="#F3F5F0"/>
<path d="M70.2747 25.2842H72.6941V39.3628H70.4911L63.4888 29.0294V39.3628H61.0696V25.2842H63.6659L70.2747 35.1471V25.2842Z" fill="#F3F5F0"/>
<path d="M171.752 11.2776C171.85 11.2776 171.949 11.2972 172.067 11.2972C172.165 11.2972 172.283 11.3169 172.421 11.3169V13.6698C172.263 13.6502 172.106 13.6306 171.988 13.6306C171.85 13.6306 171.713 13.611 171.556 13.611C170.768 13.611 170.12 13.8659 169.647 14.3365C169.156 14.8071 168.92 15.4345 168.92 16.2189V21.6306H166.56V11.3365H168.92V12.8659C169.156 12.3953 169.51 12.0032 170.022 11.709C170.533 11.4345 171.103 11.2776 171.752 11.2776Z" fill="#F3F5F0"/>
<path d="M161.913 20.6504C161.579 21.0229 161.145 21.3171 160.615 21.5132C160.084 21.7092 159.493 21.8073 158.845 21.8073C157.822 21.8073 156.995 21.5328 156.347 20.9642C155.678 20.3955 155.363 19.6701 155.363 18.7681C155.363 17.9249 155.638 17.2386 156.208 16.7092C156.76 16.1798 157.645 15.7877 158.825 15.5328L161.677 14.9445V14.768C161.677 14.2582 161.52 13.866 161.224 13.5916C160.929 13.317 160.497 13.1798 159.906 13.1798C159.356 13.1798 158.924 13.317 158.608 13.5524C158.294 13.7876 158.058 14.1798 157.92 14.6896L155.697 14.1798C155.973 13.2582 156.485 12.5131 157.251 11.9641C158.018 11.415 158.943 11.1406 160.005 11.1406C161.283 11.1406 162.267 11.4543 162.955 12.0621C163.624 12.67 163.978 13.5524 163.978 14.6896V19.121C163.978 19.4152 164.037 19.6112 164.175 19.7093C164.313 19.8269 164.548 19.8465 164.883 19.8073V21.6308C164.037 21.7289 163.368 21.6897 162.897 21.5328C162.424 21.3759 162.09 21.0818 161.913 20.6504ZM159.199 19.925C159.906 19.925 160.497 19.7485 160.969 19.3955C161.441 19.0425 161.677 18.5916 161.677 18.0033V16.7485L159.454 17.2191C158.805 17.3759 158.353 17.5524 158.097 17.7681C157.822 18.0033 157.704 18.2975 157.704 18.67C157.704 19.0622 157.822 19.376 158.097 19.5916C158.372 19.8269 158.726 19.925 159.199 19.925Z" fill="#F3F5F0"/>
<path d="M151.27 7.55225H153.63V21.6308H151.27V7.55225Z" fill="#F3F5F0"/>
<path d="M146.429 7.55225H148.789V21.6308H146.429V7.55225Z" fill="#F3F5F0"/>
<path d="M143.274 12.7092C143.707 13.1798 144.021 13.7484 144.258 14.3955C144.474 15.0425 144.592 15.7485 144.592 16.4935C144.592 17.2583 144.474 17.9641 144.258 18.6112C144.021 19.2582 143.707 19.8073 143.274 20.2779C142.802 20.7877 142.271 21.1799 141.641 21.4543C141.012 21.7289 140.343 21.8465 139.616 21.8465C138.868 21.8465 138.2 21.7289 137.57 21.4543C136.941 21.1799 136.409 20.7877 135.957 20.2779C135.525 19.8073 135.19 19.2582 134.974 18.6112C134.738 17.9641 134.639 17.2583 134.639 16.4935C134.639 15.7485 134.738 15.0425 134.974 14.3955C135.19 13.7484 135.525 13.1798 135.957 12.7092C136.409 12.1994 136.941 11.8269 137.57 11.5523C138.2 11.2778 138.868 11.1406 139.616 11.1406C140.343 11.1406 141.012 11.2778 141.641 11.5523C142.271 11.8269 142.802 12.1994 143.274 12.7092ZM139.616 13.121C138.809 13.121 138.18 13.4347 137.707 14.023C137.236 14.6308 137.02 15.4544 137.02 16.4935C137.02 17.5524 137.236 18.3759 137.707 18.9641C138.18 19.572 138.809 19.8661 139.616 19.8661C140.402 19.8661 141.032 19.572 141.503 18.9641C141.976 18.3759 142.212 17.5524 142.212 16.4935C142.212 15.4544 141.976 14.6308 141.503 14.023C141.032 13.4347 140.402 13.121 139.616 13.121Z" fill="#F3F5F0"/>
<path d="M126.316 21.6308H121.595V7.55225H126.316C127.378 7.55225 128.361 7.72872 129.247 8.04245C130.112 8.35618 130.859 8.82679 131.489 9.45424C132.118 10.0817 132.591 10.8268 132.925 11.6896C133.239 12.5719 133.416 13.5327 133.416 14.5915C133.416 15.6504 133.239 16.6308 132.925 17.4935C132.591 18.3758 132.118 19.1209 131.489 19.7288C130.859 20.3562 130.112 20.8464 129.247 21.1602C128.361 21.4739 127.378 21.6308 126.316 21.6308ZM124.054 9.70915V19.4739H126.316C127.732 19.4739 128.873 19.0425 129.699 18.1601C130.525 17.2974 130.938 16.1013 130.938 14.5915C130.938 13.0817 130.525 11.8856 129.699 11.0229C128.873 10.1601 127.732 9.70915 126.297 9.70915H124.054Z" fill="#F3F5F0"/>
<path d="M112.628 7.55225H114.989V21.6308H112.628V7.55225Z" fill="#F3F5F0"/>
<path d="M108.016 20.6504C107.681 21.0229 107.248 21.3171 106.717 21.5132C106.186 21.7092 105.596 21.8073 104.947 21.8073C103.924 21.8073 103.098 21.5328 102.449 20.9642C101.781 20.3955 101.465 19.6701 101.465 18.7681C101.465 17.9249 101.741 17.2386 102.311 16.7092C102.862 16.1798 103.747 15.7877 104.927 15.5328L107.779 14.9445V14.768C107.779 14.2582 107.622 13.866 107.327 13.5916C107.032 13.317 106.599 13.1798 106.009 13.1798C105.458 13.1798 105.025 13.317 104.711 13.5524C104.396 13.7876 104.16 14.1798 104.022 14.6896L101.8 14.1798C102.075 13.2582 102.586 12.5131 103.354 11.9641C104.12 11.415 105.045 11.1406 106.107 11.1406C107.386 11.1406 108.369 11.4543 109.057 12.0621C109.727 12.67 110.08 13.5524 110.08 14.6896V19.121C110.08 19.4152 110.139 19.6112 110.277 19.7093C110.415 19.8269 110.651 19.8465 110.985 19.8073V21.6308C110.139 21.7289 109.471 21.6897 108.998 21.5328C108.527 21.3759 108.193 21.0818 108.016 20.6504ZM105.301 19.925C106.009 19.925 106.599 19.7485 107.071 19.3955C107.543 19.0425 107.779 18.5916 107.779 18.0033V16.7485L105.557 17.2191C104.907 17.3759 104.455 17.5524 104.199 17.7681C103.924 18.0033 103.806 18.2975 103.806 18.67C103.806 19.0622 103.924 19.376 104.199 19.5916C104.475 19.8269 104.829 19.925 105.301 19.925Z" fill="#F3F5F0"/>
<path d="M99.1322 20.1994C98.7189 20.7484 98.2274 21.1602 97.637 21.4347C97.0466 21.7092 96.418 21.8465 95.7294 21.8465C95.0999 21.8465 94.5486 21.7484 94.0372 21.5132C93.5267 21.2975 93.1134 20.9837 92.7591 20.5523V21.6308H90.3992V7.55225H92.7591V12.4346C93.1134 12.0229 93.5267 11.7091 94.0372 11.4739C94.5486 11.2582 95.0999 11.1405 95.7294 11.1405C96.418 11.1405 97.0466 11.2974 97.637 11.5719C98.2274 11.8464 98.7189 12.2581 99.1322 12.7876C99.4864 13.2778 99.7808 13.8464 99.9778 14.4739C100.174 15.1013 100.273 15.7876 100.273 16.4935C100.273 17.219 100.174 17.9052 99.9778 18.5327C99.7808 19.1601 99.4864 19.7288 99.1322 20.1994ZM95.2571 13.1994C94.4705 13.1994 93.8609 13.4738 93.3886 14.0228C92.9163 14.5719 92.7001 15.2974 92.7001 16.1994V16.8072C92.7001 17.7092 92.9362 18.4347 93.4086 18.9837C93.88 19.5328 94.4904 19.7877 95.2571 19.7877C96.0828 19.7877 96.7123 19.4935 97.1847 18.9053C97.657 18.3171 97.8931 17.5131 97.8931 16.4935C97.8931 15.4739 97.657 14.6699 97.1847 14.0817C96.7123 13.4935 96.0828 13.1994 95.2571 13.1994Z" fill="#F3F5F0"/>
<path d="M87.5567 12.7092C87.9891 13.1798 88.3042 13.7484 88.5404 14.3955C88.7566 15.0425 88.8747 15.7485 88.8747 16.4935C88.8747 17.2583 88.7566 17.9641 88.5404 18.6112C88.3042 19.2582 87.9891 19.8073 87.5567 20.2779C87.0843 20.7877 86.5535 21.1799 85.9241 21.4543C85.2947 21.7289 84.6259 21.8465 83.8982 21.8465C83.1508 21.8465 82.482 21.7289 81.8526 21.4543C81.2231 21.1799 80.6921 20.7877 80.2397 20.2779C79.807 19.8073 79.4726 19.2582 79.2562 18.6112C79.0203 17.9641 78.9219 17.2583 78.9219 16.4935C78.9219 15.7485 79.0203 15.0425 79.2562 14.3955C79.4726 13.7484 79.807 13.1798 80.2397 12.7092C80.6921 12.1994 81.2231 11.8269 81.8526 11.5523C82.482 11.2778 83.1508 11.1406 83.8982 11.1406C84.6259 11.1406 85.2947 11.2778 85.9241 11.5523C86.5535 11.8269 87.0843 12.1994 87.5567 12.7092ZM83.8982 13.121C83.0917 13.121 82.4623 13.4347 81.9902 14.023C81.5182 14.6308 81.3019 15.4544 81.3019 16.4935C81.3019 17.5524 81.5182 18.3759 81.9902 18.9641C82.4623 19.572 83.0917 19.8661 83.8982 19.8661C84.685 19.8661 85.3144 19.572 85.7865 18.9641C86.2584 18.3759 86.4945 17.5524 86.4945 16.4935C86.4945 15.4544 86.2584 14.6308 85.7865 14.023C85.3144 13.4347 84.685 13.121 83.8982 13.121Z" fill="#F3F5F0"/>
<path d="M74.9272 7.55225H77.2875V21.6308H74.9272V7.55225Z" fill="#F3F5F0"/>
<path d="M72.8121 21.6308H70.5107V20.1798C70.1961 20.6896 69.7043 21.1013 69.0355 21.3955C68.3471 21.7092 67.58 21.8464 66.7146 21.8464C65.7704 21.8464 64.8853 21.67 64.0789 21.2778C63.2724 20.9053 62.5841 20.3563 61.994 19.6504C61.4433 19.0229 61.0302 18.2778 60.7548 17.4151C60.4794 16.5523 60.3418 15.6307 60.3418 14.6503C60.3418 13.6699 60.4794 12.7288 60.7745 11.8464C61.0695 10.9836 61.5022 10.1993 62.053 9.53268C62.643 8.82673 63.3708 8.29734 64.1969 7.90518C65.023 7.53263 65.9082 7.33655 66.8719 7.33655C68.2488 7.33655 69.4486 7.6895 70.4321 8.39538C71.4155 9.10128 72.1236 10.0817 72.576 11.3758L70.1764 12.1797C69.96 11.3562 69.5666 10.7091 68.9962 10.2385C68.4258 9.78759 67.7177 9.55224 66.8916 9.55224C65.6918 9.55224 64.728 10.0228 63.9806 10.9641C63.2331 11.9052 62.8594 13.1209 62.8594 14.6111C62.8594 16.1405 63.2331 17.3562 63.9806 18.2974C64.728 19.2386 65.7115 19.6896 66.931 19.6896C67.9144 19.6896 68.7405 19.3758 69.3699 18.7484C69.9993 18.121 70.3534 17.2778 70.3927 16.2386H66.6753V14.0425H72.8121V21.6308Z" fill="#F3F5F0"/>
</svg>
