<svg width="977" height="88" viewBox="0 0 977 88" fill="none" xmlns="http://www.w3.org/2000/svg">
<g clip-path="url(#clip0_113_2812)">
<path d="M741.826 0H696.018C678.416 0 664.155 13.717 664.155 30.6515V57.3485C664.155 74.2885 678.416 88 696.018 88H742.909V87.956C760.006 87.406 773.695 73.931 773.695 57.3485V30.6515C773.695 13.7115 759.434 0 741.826 0ZM736.891 73.381H700.959V14.619H736.891V73.381ZM232.976 0H187.168C169.559 0 155.304 13.717 155.304 30.6515V57.3485C155.304 74.2885 169.559 88 187.168 88H234.058V87.956C251.156 87.406 264.839 73.931 264.839 57.3485V30.6515C264.845 13.7115 250.573 0 232.976 0ZM228.035 73.381H192.103V14.619H228.035V73.381ZM489.366 15.323L462.759 59.6475V0H444.33C432.933 0 422.419 5.841 416.729 15.323L378.171 79.5575L361.201 51.293C373.392 51.1555 383.239 41.613 383.239 29.854V21.4555C383.239 9.6085 373.247 0 360.929 0H273.699V88H310.503V51.315H318.724L340.745 88H390.106L425.955 28.259V88H462.759V87.967L498.453 28.5065V88H535.257V0H516.95C505.559 0 495.039 5.841 489.349 15.323H489.366ZM346.43 36.6905H310.503V14.619H346.43V36.6905ZM618.269 36.685H582.336V0H545.532V88H582.336V51.315H618.269V88H655.073V0H618.269V36.685ZM819.581 0H782.777V57.3485C782.777 74.2885 797.038 88 814.64 88H867.093V73.381H819.581V0ZM977 14.619V0H876.558V88H977V73.381H913.362V51.3095H963.727V36.6905H913.362V14.619H977ZM145.162 0L109.319 59.741V0H72.5145V0.033L36.8207 59.4935V0H0V88H18.3076C29.6986 88 40.2124 82.159 45.9023 72.6715L72.5089 28.3525V88H90.9443C102.341 88 112.855 82.159 118.545 72.6715L162.165 0H145.162Z" fill="white"/>
</g>
<defs>
<clipPath id="clip0_113_2812">
<rect width="977" height="88" fill="white"/>
</clipPath>
</defs>
</svg>
