<svg width="783" height="187" viewBox="0 0 783 187" fill="none" xmlns="http://www.w3.org/2000/svg">
<g clip-path="url(#clip0_113_2766)">
<mask id="mask0_113_2766" style="mask-type:luminance" maskUnits="userSpaceOnUse" x="0" y="0" width="783" height="187">
<path d="M783 0H0V187H783V0Z" fill="white"/>
</mask>
<g mask="url(#mask0_113_2766)">
<path d="M31.1333 9.35059L13.9891 75.4048H81.5524L51.0524 177.651L212.119 75.4048H146.919L164.74 9.35059H31.1333Z" fill="white"/>
<path d="M164.627 9.35059H192.172L175.24 75.4048H146.807L164.627 9.35059Z" fill="white" fill-opacity="0.85"/>
<path d="M212.1 75.364H265.798L51.0103 177.609L212.1 75.364Z" fill="white" fill-opacity="0.85"/>
<path d="M305.003 138.126V119.8L365.025 27.4217H305.564V7.22567H392.886V25.5517L332.49 117.743H393.26V138.126H305.003ZM413.196 138.126V7.22567H497.152V27.6087H437.13V58.8378H488.551V79.2208H437.13V117.743H497.152V138.126H413.196ZM568.678 140.37C556.711 140.37 546.926 138.001 539.322 133.264C531.842 128.402 526.295 121.981 522.68 114.003C519.189 106.024 517.444 97.3598 517.444 88.0098V7.22567H541.378V88.1968C541.378 98.4193 543.809 106.024 548.671 111.011C553.657 115.997 560.513 118.491 569.239 118.491C577.841 118.491 584.632 115.997 589.622 111.011C594.607 106.024 597.102 98.4193 597.102 88.1968V7.22567H621.036V88.0098C621.036 97.8583 619.476 106.149 616.361 112.881C613.241 119.613 609.069 124.973 603.833 128.963C598.72 132.952 593.047 135.882 586.818 137.752C580.707 139.497 574.662 140.37 568.678 140.37ZM688.695 140.37C679.597 140.37 671.306 138.811 663.826 135.695C656.47 132.578 650.615 127.965 646.25 121.857C641.885 115.623 639.582 107.894 639.331 98.6688H664.574C664.825 104.777 667.005 109.889 671.119 114.003C675.355 118.117 681.152 120.174 688.508 120.174C694.866 120.174 699.914 118.678 703.654 115.686C707.394 112.694 709.264 108.642 709.264 103.531C709.264 100.913 708.825 98.6063 707.955 96.6118C707.207 94.6168 705.711 92.7468 703.467 91.0018C701.223 89.2563 698.045 87.5733 693.931 85.9528C689.94 84.2073 684.646 82.2748 678.037 80.1558C669.436 77.2883 662.517 73.9848 657.282 70.2448C652.046 66.5048 648.242 62.3283 645.876 57.7157C643.632 52.9784 642.51 47.867 642.51 42.3817C642.51 34.1537 644.444 27.297 648.306 21.8117C652.297 16.2017 657.591 12.0254 664.2 9.28267C670.932 6.41537 678.347 4.98169 686.451 4.98169C694.679 4.98169 702.094 6.41537 708.703 9.28267C715.434 12.15 720.857 16.3887 724.97 21.9987C729.084 27.6087 731.205 34.5277 731.328 42.7557H705.711C705.588 38.0184 703.718 33.9044 700.101 30.4137C696.613 26.923 691.751 25.1777 685.516 25.1777C680.532 25.1777 676.29 26.4867 672.802 29.1047C669.313 31.7227 667.566 35.5874 667.566 40.6987C667.566 44.4387 668.939 47.6177 671.68 50.2357C674.549 52.8537 678.347 55.16 683.086 57.1547C687.947 59.0248 693.306 61.0193 699.166 63.1388C702.409 64.2608 706.021 65.6943 710.012 67.4398C714.125 69.1848 718.052 71.5538 721.792 74.5458C725.531 77.4128 728.587 81.0908 730.954 85.5788C733.449 89.9418 734.694 95.3648 734.694 101.848C734.694 109.826 732.637 116.683 728.523 122.418C724.532 128.152 719.051 132.578 712.068 135.695C705.214 138.811 697.419 140.37 688.695 140.37Z" fill="white"/>
</g>
</g>
<defs>
<clipPath id="clip0_113_2766">
<rect width="783" height="187" fill="white"/>
</clipPath>
</defs>
</svg>
