<?xml version="1.0" encoding="UTF-8"?>
<svg id="Layer_2" data-name="Layer 2" xmlns="http://www.w3.org/2000/svg" viewBox="0 0 1138.68 365.96">
  <defs>
    <style>
      .cls-1 {
        fill: #fff;
      }
    </style>
  </defs>
  <g id="Content">
    <g>
      <path class="cls-1" d="M478.43,221.2c3.23-4.62,5.54-9.19,6.93-13.74,1.38-4.54,2.08-9.04,2.08-13.5,0-5.85-1.08-11.46-3.23-16.85-2.16-5.39-5.12-10.23-8.89-14.54-3.77-4.31-8.31-7.85-13.62-10.62-5.31-2.77-11.2-4.39-17.66-4.85l-17.31-.23h-53.1v160.91h74.66c10.6,0,19.47-2.5,26.61-7.5,7.14-5,12.64-11.35,16.48-19.05v.23c3.53-7.08,5.3-14.46,5.3-22.16,0-6.77-1.46-13.51-4.39-20.2-2.93-6.7-7.54-12.66-13.84-17.89ZM407.09,177.34h33.48c3.69,0,6.85,1.7,9.47,5.08,2.62,3.39,3.92,7.31,3.92,11.77s-1.31,8.51-3.92,11.66c-2.62,3.16-5.77,4.73-9.47,4.73h-33.48v-33.24ZM458.92,272.11c-2.85,3.62-6.35,5.42-10.5,5.42h-41.32v-36.71h41.32c4.16,0,7.65,1.81,10.5,5.42,2.85,3.62,4.27,7.89,4.27,12.81s-1.42,9.43-4.27,13.04Z"/>
      <path class="cls-1" d="M693.82,170.41c-7.08-7.23-15.39-12.96-24.93-17.2-9.54-4.23-19.78-6.35-30.7-6.35s-20.93,2.12-30.47,6.35c-9.54,4.24-17.89,9.97-25.05,17.2-7.16,7.24-12.81,15.74-16.97,25.51-4.16,9.78-6.23,20.2-6.23,31.28s2.08,21.55,6.23,31.4c4.16,9.85,9.81,18.39,16.97,25.63,7.16,7.24,15.5,12.97,25.05,17.2,9.54,4.23,19.7,6.35,30.47,6.35s21.16-2.11,30.7-6.35c9.54-4.23,17.85-9.96,24.93-17.2,7.08-7.23,12.7-15.77,16.85-25.63,4.16-9.85,6.23-20.32,6.23-31.4s-2.08-21.51-6.23-31.28c-4.16-9.77-9.78-18.27-16.85-25.51ZM679.96,246.71c-2.32,6.08-5.52,11.43-9.61,16.04-4.09,4.62-8.91,8.24-14.47,10.85-5.56,2.62-11.49,3.92-17.82,3.92s-12.04-1.31-17.59-3.92c-5.56-2.62-10.37-6.23-14.47-10.85-4.09-4.62-7.29-9.96-9.61-16.04-2.32-6.08-3.47-12.58-3.47-19.51s1.15-13.43,3.47-19.51c2.32-6.08,5.52-11.39,9.61-15.93,4.09-4.54,8.91-8.12,14.47-10.74,5.56-2.62,11.42-3.92,17.59-3.92s12.26,1.31,17.82,3.92c5.56,2.62,10.37,6.2,14.47,10.74,4.09,4.54,7.29,9.85,9.61,15.93,2.32,6.08,3.47,12.58,3.47,19.51s-1.16,13.43-3.47,19.51Z"/>
      <polygon class="cls-1" points="892.82 250.29 818.71 146.86 787.08 146.86 787.08 307.78 820.56 307.78 820.56 204.81 894.36 307.78 926.29 307.78 926.29 146.86 892.82 146.86 892.82 250.29"/>
      <polygon class="cls-1" points="1138.68 146.86 1096.67 146.86 1040.8 213.35 1040.8 146.86 1007.32 146.86 1007.32 307.78 1040.8 307.78 1040.8 262.99 1049.57 252.37 1096.67 307.78 1138.68 307.78 1070.58 227.67 1138.68 146.86"/>
      <path class="cls-1" d="M162.56,80.53c-5.41.02-9.78,4.42-9.76,9.83.02,5.41,4.42,9.78,9.83,9.76,5.41-.02,9.78-4.42,9.76-9.83-.02-5.41-4.42-9.78-9.83-9.76Z"/>
      <path class="cls-1" d="M153.67,64.76c1.44,3.61,3.13,5.9,6.27,7.45,4.35,1.67,7.09-7.38,7.09-7.38,3.57-13.88,4.36-28.96,3.91-45.46-.15-5.56-1.2-11.53-5.05-15.54-3.01-3.13-7.72-4.51-11.94-3.51s-7.81,4.36-9.09,8.51c-.84,2.74-.57,5.67-.5,8.53.37,15.82,4.32,34.85,9.31,47.39Z"/>
      <path class="cls-1" d="M195.92,107.13c4.92,2.25,10.73.08,12.98-4.84,2.25-4.92.08-10.73-4.84-12.98-4.92-2.25-10.73-.08-12.98,4.84-2.25,4.92-.08,10.73,4.84,12.98Z"/>
      <path class="cls-1" d="M215.92,76.35c9.06-11.11,16.09-24.47,22.59-39.64,2.19-5.11,3.74-10.98,1.92-16.23-1.42-4.1-5.12-7.33-9.38-8.19-4.26-.86-8.92.69-11.81,3.92-1.91,2.13-2.89,4.91-4.03,7.54-6.29,14.52-10.67,33.46-11.39,46.94-.21,3.88.38,6.67,2.58,9.4,3.25,3.34,9.53-3.73,9.53-3.73Z"/>
      <path class="cls-1" d="M217.14,115.26c-4.52,2.98-5.76,9.05-2.78,13.57s9.05,5.76,13.57,2.78c4.52-2.98,5.76-9.05,2.78-13.57s-9.05-5.76-13.57-2.78Z"/>
      <path class="cls-1" d="M281.77,63.52c-2.75.79-5.05,2.63-7.41,4.25-13.03,8.98-26.79,22.71-34.55,33.75-2.23,3.18-3.22,5.85-2.8,9.33.98,4.55,10.06,1.89,10.06,1.89,13.57-4.62,26.62-12.22,40.17-21.63,4.57-3.17,8.99-7.32,10.24-12.74.97-4.23-.45-8.93-3.61-11.91-3.15-2.98-7.92-4.14-12.1-2.94Z"/>
      <path class="cls-1" d="M232.88,196.53c-1.12-.24-2.25-.42-3.38-.57-2.49-6.61-5.47-13.03-8.91-19.2-8.42-15.11-19.55-28.73-32.76-39.89-1.85-1.56-3.74-3.08-5.67-4.54-11.1-8.42-27.53-14.07-40.92-10.2-3.33-11.31-9.83-22.05-16.44-31.81-5.19-7.68-19.68-22.77-26.5-20.53-4.98,1.63-6.4,8.05-7.01,13.26-1.68,14.12-.79,26.37,2.23,40.1,1.48,6.72,3.83,13.17-.27,15.24-1.37.69-16.47,7.43-18.83,8.44-5.45-9.48-12.43-18.08-20.59-25.36-5.43-4.83-11.8-8.5-18.78-10.55-7.11-2.1-14.28-1.1-18.15,5.05-2.33,3.7-3.93,10.31-4.18,14.67-.87,14.88.63,29.89,4.38,44.32.88,3.42,2.66,7.05,3.16,10.51.49,3.4-1.42,7.11-2.44,10.36-2.41,7.66-5.62,15.54-7.83,23.25C3.21,242.87.75,261.02.31,266.76c-.81,10.53.04,17.58,1.6,26.95,3.36,20.24,16.01,28.64,23.77,33.19,8.09,4.73,17.33,7.15,26.6,8.07,3.84.39,9.88-.71,13.28.78,3.73,1.63,7.48,5.9,10.85,8.28,14.82,10.49,31.6,19.06,49.81,21.34,1.45.18,2.9.32,4.35.42,7.29.5,14.64-.06,21.77-1.65,3.94-.88,7.87-2.11,11.27-4.29,2.99-1.91,5.48-4.51,7.86-7.13,6.34-6.99,12.18-14.42,17.5-22.21,12.1-1.79,23.88-5.86,33.7-13.17,3.8-2.83,7.37-5.87,10.41-9.48,3.36-3.98,6.1-8.31,8.6-12.86,8.88-16.17,14-34.18,15.02-52.52.51-9.15.31-18.96-3.3-27.54-3.7-8.76-10.76-16.34-20.52-18.41ZM231.65,211.45c.12.04.24.1.36.14.02.02.04.04.04.05-.25-.11-.44-.19-.59-.25.06.02.13.04.19.06ZM197.45,198.33c.02,4.64-6.9,8.42-15.46,8.45-8.55.03-15.49-3.7-15.51-8.34,0-.25.03-.49.07-.74,1.41.86,3.35,1.39,5.48,1.38,4.33-.02,7.84-2.23,7.83-4.94,0-1.49-1.07-2.82-2.74-3.71,1.52-.28,3.13-.43,4.82-.44,8.55-.03,15.49,3.71,15.51,8.34ZM156.64,169.54c.71-4.91,2.96-8.44,7.19-11.03,1.18-.73,2.48-1.26,3.81-1.64,5.9-1.68,12.59-.28,17.31,3.64,2,1.67,3.69,3.81,4.42,6.31.73,2.49.4,5.37-1.22,7.41-1.6,2.03-4.2,2.98-6.7,3.62-7,1.77-17.26,1.07-21.2-1.35-4.14-2.43-3.61-6.96-3.61-6.96ZM141.36,220.95c.02,4.63-6.9,8.42-15.46,8.45-8.55.02-15.49-3.71-15.51-8.35,0-.24.03-.49.07-.73,1.41.86,3.35,1.38,5.48,1.37,4.33-.01,7.84-2.22,7.83-4.94,0-1.48-1.07-2.81-2.74-3.71,1.52-.27,3.13-.43,4.82-.43,8.55-.03,15.49,3.7,15.51,8.34ZM106.85,85.75c1.47-1.05,5.06-.82,8.91,3.89,7.05,8.63,11.96,18.99,15.16,29.66.72,2.38,1.26,4.78.89,7.12-.53,3.39-3.67,5.9-6.99,6.77-10.65,3.14-13.72-2.44-13.72-2.44-1.65-1.68-4.91-11.46-5.74-18.25-.83-6.79-1.61-13.42-1.11-20.3.17-2.29.73-5.13,2.6-6.45ZM76.75,198.12c1.93-5.59,5.07-10.76,9.14-15.06,2.12-2.23,4.53-4.26,7.35-5.52,2.81-1.27,7.36-2.36,10.23-1.23,4.87,1.93,7.49,5.94,7.02,11.69,0,0-.73,5.65-5.17,13.84-2.93,4.92-7.62,10.13-13.51,12.55-2.27.93-4.7,1.43-7.15,1.38-12.79-.22-8.34-16.4-7.91-17.65ZM32.1,133.43c.2-2.22.6-4.68,2.38-6.02,1.28-.95,3.03-1.09,4.57-.7,1.55.38,2.94,1.23,4.26,2.11,9.29,6.18,17.03,14.65,22.36,24.44,1.43,2.63,2.72,5.46,2.72,8.44,0,4.32-2.72,8.27-6.19,10.83,0,0-7,5.88-16.09,7.87-6.97,1.54-9.65-5.94-10.41-8.36-3.89-12.41-4.78-25.65-3.6-38.61ZM241.32,239.58c-.08,4.01-.12,8.33-.93,12.27.05-.34.22-1.54.03-.3-.08.54-.16,1.07-.25,1.6-.17,1.06-.36,2.12-.56,3.18-.38,2.03-.82,4.05-1.32,6.05-.97,3.92-2.14,7.8-3.52,11.6-.67,1.86-1.4,3.7-2.16,5.52-.01.03-.01.04-.02.06-.03.06-.05.1-.08.17-.22.49-.44.98-.67,1.47-.45.98-.91,1.96-1.39,2.93-2.39,4.82-5.05,9.57-8.27,13.91l-.42.51c-.57.67-1.16,1.32-1.77,1.96-1.37,1.44-2.83,2.81-4.36,4.1-.45.37-.9.74-1.36,1.11-.24.18-.49.36-.72.55.09-.07.17-.14.24-.2-1.1.8-2.23,1.56-3.39,2.28-2.66,1.65-5.44,3.05-8.3,4.32-.43.17-.86.35-1.3.51-.8.3-1.59.58-2.4.85-.82.27-2.22.59-3.89.93-2.22.4-4.55.72-7.02.92-29.58,2.36-59.62,5.5-88.21-2.46-40.06-11.15-45.71-43.79-48.33-54.07-1.45-5.67-2.52-11.78-.51-17.28,2.54-6.96,9.74-11.46,17.08-12.51,7.34-1.04,14.8.85,21.73,3.47,0,0,10.51,4.25,25.17,13.49,3.25,2.19,6.14,3.32,8.54,2.83,3.84-.78,9.99-4.47,13.35-6.48,13.47-8.07,26.93-16.26,41.38-22.39,10.6-4.49,21.83-7.85,33.24-9.05,3.82-.33,7.66-.46,11.5-.35,1.05.03,2.1.07,3.15.14.47.04.94.09,1.41.12.07,0,.12,0,.17.01.03,0,.06,0,.09.02,1.02.2,2.03.39,3.03.7.06.02.27.07.5.14.06.03.14.06.24.11.28.13.56.27.83.42.21.12,1.62,1.15,1.92,1.22.36.31.7.62,1.04.94.55.54,1.04,1.11,1.55,1.67.01,0,.02.02.02.03.35.52.72,1.03,1.05,1.56.41.66.79,1.35,1.14,2.04.06.13.17.3.27.45.14.36.25.74.36,1.06.76,2.13,1.22,4.3,1.65,6.51.02.06.03.1.04.15.04.41.09.82.13,1.23.11,1.13.19,2.25.24,3.38.1,2.19.11,4.4.06,6.6Z"/>
      <path class="cls-1" d="M215.16,304.52c-.06.04-.29.23-.81.67.27-.19.74-.59.81-.67Z"/>
      <path class="cls-1" d="M220.47,222.39c-1.96-1.34-4.62-1.77-7-1.81-9.79-.17-17.73,1.19-25.8,5.97-3.98,2.35-8.86,7.48-9.54,12.05-.53,3.62,1.16,7.31,3.73,9.92,2.57,2.61,5.92,4.3,9.3,5.71,4.47,1.86,9.12,3.31,13.86,4.33,5.49.94,8.07-1.77,8.07-1.77,1.71-1.49,10.65-11.14,12.15-24.59.43-3.89-1.28-7.42-4.77-9.81Z"/>
    </g>
  </g>
</svg>