<svg width="18" height="18" viewBox="0 0 18 18" fill="currentColor" xmlns="http://www.w3.org/2000/svg">
<path fill-rule="evenodd" clip-rule="evenodd" d="M8.7364 15.0363C8.56763 15.205 8.33875 15.2998 8.1001 15.2998C7.86145 15.2998 7.63258 15.205 7.4638 15.0363L2.0638 9.6363C1.89508 9.46753 1.80029 9.23865 1.80029 9C1.80029 8.76135 1.89508 8.53248 2.0638 8.3637L7.4638 2.9637C7.63354 2.79976 7.86088 2.70904 8.09686 2.71109C8.33284 2.71314 8.55857 2.8078 8.72544 2.97466C8.8923 3.14153 8.98696 3.36726 8.98901 3.60324C8.99106 3.83922 8.90034 4.06656 8.7364 4.2363L4.8727 8.1H15.3001C15.5388 8.1 15.7677 8.19482 15.9365 8.36361C16.1053 8.53239 16.2001 8.76131 16.2001 9C16.2001 9.2387 16.1053 9.46761 15.9365 9.6364C15.7677 9.80518 15.5388 9.9 15.3001 9.9H4.8727L8.7364 13.7637C8.90512 13.9325 8.99991 14.1614 8.99991 14.4C8.99991 14.6386 8.90512 14.8675 8.7364 15.0363Z"/>
</svg>
