<svg width="40" height="40" viewBox="0 0 40 40" fill="none" xmlns="http://www.w3.org/2000/svg">
<path d="M15 26.667C9.47715 26.667 5 22.1898 5 16.667C5 11.1441 9.47715 6.66699 15 6.66699C19.0995 6.66699 22.6229 9.13385 24.1667 12.6641M25 20.0003V23.3337M25 23.3337V26.667M25 23.3337H21.6667M25 23.3337H28.3333M35 23.3337C35 28.8565 30.5228 33.3337 25 33.3337C20.6401 33.3337 16.9319 30.5435 15.5635 26.6514C15.1985 25.6132 15 24.4966 15 23.3337C15 17.9999 19.1758 13.6415 24.4365 13.3493C24.623 13.3389 24.8109 13.3337 25 13.3337C30.5228 13.3337 35 17.8108 35 23.3337Z" stroke="currentColor" stroke-width="2" stroke-linecap="square"/>
</svg>
