<svg width="32" height="32" viewBox="0 0 32 32" fill="none" xmlns="http://www.w3.org/2000/svg">
<circle cx="16" cy="16" r="16" fill="#C4C4C4"/>
<path d="M17.9702 14.417C17.957 14.313 17.9298 14.2113 17.886 14.1141C17.8794 14.0993 17.8707 14.0857 17.8633 14.0711C17.8133 13.9722 17.7517 13.8775 17.6689 13.7949C16.902 13.0286 15.895 12.6454 14.8881 12.6454C13.8813 12.6454 12.8743 13.0284 12.1082 13.7949L8.40146 17.5018C6.86878 19.0345 6.86878 21.5289 8.40146 23.0621C9.1678 23.8291 10.1752 24.212 11.1818 24.212C12.1886 24.212 13.1959 23.8291 13.9622 23.0621L16.1444 20.8799C15.3687 20.7443 14.6362 20.4478 13.9873 20.0032L12.4453 21.5452C11.7707 22.2198 10.593 22.2198 9.9184 21.5452C9.22224 20.8485 9.22224 19.7149 9.9184 19.0187L11.946 16.9907C11.9466 16.9901 11.9472 16.9899 11.9476 16.9893L13.6249 15.3116C13.7973 15.1396 13.9966 15.0107 14.2093 14.9238C14.3209 14.8781 14.4358 14.8443 14.5528 14.8221H14.553C15.1146 14.7158 15.7179 14.8787 16.1518 15.3118C16.5709 15.7308 17.2507 15.7308 17.6687 15.3118C17.8143 15.1662 17.9059 14.9883 17.9504 14.8017C17.9516 14.7967 17.9537 14.792 17.9549 14.7867C17.9784 14.6806 17.9834 14.5723 17.9745 14.4644C17.9733 14.4483 17.9722 14.4329 17.9702 14.417Z" fill="black"/>
<path d="M23.5968 8.93993C22.8546 8.19711 21.8672 7.78809 20.8165 7.78809C19.7663 7.78809 18.7787 8.19711 18.0365 8.93993L15.852 11.1244C16.6125 11.2576 17.3489 11.5494 18.01 12.0004L19.5536 10.4569C20.2288 9.7817 21.4059 9.78228 22.0799 10.4569C22.4172 10.7942 22.6032 11.243 22.6032 11.7203C22.6032 12.1976 22.4174 12.6459 22.0795 12.9831L21.3995 13.6636C21.3985 13.6645 21.3979 13.6655 21.3971 13.6665L18.3734 16.6898C17.6988 17.3644 16.5217 17.3644 15.8469 16.6898C15.4289 16.2707 14.7489 16.2707 14.33 16.6898C13.9108 17.1084 13.9108 17.7878 14.33 18.207C15.0722 18.9498 16.0596 19.3588 17.11 19.3588C18.1601 19.3588 19.1477 18.9498 19.8903 18.207L22.9147 15.1832C22.9154 15.1822 22.9166 15.1819 22.9176 15.1809L23.597 14.5005C24.3396 13.758 24.7487 12.7709 24.7487 11.7205C24.7487 10.6701 24.3396 9.68275 23.5968 8.93993Z" fill="black"/>
</svg>
