<svg width="100" height="100" viewBox="0 0 50 50" fill="none" xmlns="http://www.w3.org/2000/svg">
<path d="M31.774 14.8388C31.774 11.1035 28.7351 8.06458 24.9998 8.06458C21.2645 8.06458 18.2256 11.1035 18.2256 14.8388C18.2256 18.5741 21.2645 21.613 24.9998 21.613C28.7351 21.613 31.774 18.5741 31.774 14.8388ZM19.5804 14.8388C19.5804 11.8507 22.0117 9.41941 24.9998 9.41941C27.9879 9.41941 30.4191 11.8507 30.4191 14.8388C30.4191 17.8269 27.9879 20.2581 24.9998 20.2581C22.0117 20.2581 19.5804 17.8269 19.5804 14.8388Z" fill="currentColor"/>
<path d="M28.9933 32.4516L29.1268 31.2485C36.5811 29.3768 41.9354 22.5823 41.9354 14.8387C41.9354 10.9483 40.649 7.28819 38.2157 4.25335L37.1583 5.10148C37.6399 5.70235 38.0633 6.33439 38.446 6.98539C37.2226 6.36758 35.859 6.03226 34.4838 6.03226V7.3871C36.0846 7.3871 37.6704 7.91819 38.9494 8.88216L39.5834 9.35974C39.9912 10.4423 40.2717 11.5688 40.4275 12.7272C39.5333 11.6887 38.402 10.8575 37.1325 10.3318L36.6136 11.5837C38.0931 12.1961 39.3551 13.2935 40.1674 14.6734L40.5589 15.3386C40.5203 16.5228 40.3584 17.6832 40.063 18.7975C39.6349 17.4942 38.9067 16.2918 37.9339 15.3183L36.976 16.2762C38.108 17.4088 38.8538 18.9059 39.0767 20.4911L39.1837 21.2532C38.7035 22.3079 38.0999 23.2976 37.4042 24.2169C37.4997 22.8627 37.287 21.4889 36.766 20.231L35.5142 20.7499C36.1266 22.2294 36.2431 23.8972 35.842 25.4478L35.6551 26.1692C34.8083 26.9693 33.8728 27.6765 32.86 28.274C33.4731 27.0519 33.8064 25.693 33.8064 24.3226H32.4516C32.4516 25.9233 31.9205 27.5098 30.9565 28.7888L30.4891 29.4086C30.0955 29.5577 29.6951 29.6918 29.2866 29.809L29.7378 25.7519L29.7412 24.5698C33.3451 22.8072 35.8386 19.1132 35.8386 14.8387C35.8386 8.86252 30.9761 4 24.9999 4C19.0237 4 14.1612 8.86252 14.1612 14.8387C14.1612 19.1132 16.6548 22.8065 20.258 24.5698V25.6774L20.7146 29.809C20.3054 29.6918 19.9044 29.557 19.5108 29.4086L19.0434 28.7888C18.0794 27.5098 17.5483 25.9233 17.5483 24.3226H16.1935C16.1935 25.693 16.5268 27.0519 17.1405 28.2726C16.1271 27.6758 15.1923 26.9679 14.3455 26.1679L14.1585 25.4464C13.7575 23.8965 13.874 22.228 14.4864 20.7485L13.2345 20.2296C12.7136 21.4883 12.5009 22.8614 12.5964 24.2155C11.9007 23.2963 11.2978 22.3066 10.8168 21.2518L10.9238 20.4897C11.1467 18.9046 11.8925 17.4075 13.0245 16.2748L12.0666 15.317C11.0932 16.2904 10.3656 17.4928 9.93752 18.7962C9.64149 17.6818 9.48026 16.5221 9.44165 15.3373L9.8332 14.6721C10.6454 13.2928 11.9075 12.1954 13.3869 11.5824L12.868 10.3305C11.5979 10.8562 10.4666 11.6874 9.57307 12.7258C9.72887 11.5668 10.0093 10.4402 10.4171 9.35839L11.0512 8.88081C12.3295 7.91819 13.9153 7.3871 15.5161 7.3871V6.03226C14.1409 6.03226 12.7773 6.36758 11.5538 6.98539C11.9366 6.33506 12.3593 5.70235 12.8416 5.10148L11.7842 4.25335C9.35087 7.28819 8.06445 10.9483 8.06445 14.8387C8.06445 22.5823 13.4188 29.3768 20.8738 31.2492L21.0065 32.4516H22.2903V36.5161C20.7959 36.5161 19.5806 37.7314 19.5806 39.2258C19.5806 39.7589 19.7405 40.2535 20.0074 40.6728C17.8355 41.1056 16.1935 43.0255 16.1935 45.3226V46H33.8064V45.3226C33.8064 43.0255 32.1643 41.1056 29.9925 40.6728C30.2594 40.2535 30.4193 39.7589 30.4193 39.2258C30.4193 37.7314 29.204 36.5161 27.7096 36.5161V32.4516H28.9933ZM15.5161 14.8387C15.5161 9.60903 19.7703 5.35484 24.9999 5.35484C30.2296 5.35484 34.4838 9.60903 34.4838 14.8387C34.4838 20.0684 30.2296 24.3226 24.9999 24.3226C19.7703 24.3226 15.5161 20.0684 15.5161 14.8387ZM21.6128 25.6395V25.1274C22.6798 25.4803 23.8165 25.6774 24.9999 25.6774C26.1834 25.6774 27.3201 25.4803 28.387 25.128V25.6402L27.7801 31.0968H22.2191L21.6128 25.6395ZM32.3831 44.6452H17.6167C17.9311 43.1013 19.3001 41.9355 20.9354 41.9355H22.2903H27.7096H29.0645C30.7004 41.9355 32.0688 43.1013 32.3831 44.6452ZM29.0645 39.2258C29.0645 39.973 28.4568 40.5806 27.7096 40.5806H22.2903C21.5431 40.5806 20.9354 39.973 20.9354 39.2258C20.9354 38.4786 21.5431 37.871 22.2903 37.871H27.7096C28.4568 37.871 29.0645 38.4786 29.0645 39.2258ZM26.3548 36.5161H23.6451V32.4516H26.3548V36.5161Z" fill="currentColor"/>
</svg>
