<svg width="136" height="136" viewBox="0 0 136 136" fill="none" xmlns="http://www.w3.org/2000/svg">
<path d="M45.598 63.445L19.2944 19H46.5463L65.4806 55.0726L61.8667 56.9692L44.0799 23.0801H26.4506L49.1084 61.3671L45.598 63.445Z" fill="#DC1FFF"/>
<path d="M47.1199 20.0917L43.5061 21.9885L61.8666 56.9693L65.4805 55.0725L47.1199 20.0917Z" fill="#DC1FFF"/>
<path d="M89.9095 63.445L86.3991 61.3671L109.057 23.0801H91.4275L73.6408 56.9692L70.0269 55.0726L88.9611 19H116.213L89.9095 63.445Z" fill="#DC1FFF"/>
<path d="M88.3865 20.0913L70.0278 55.0731L73.6418 56.9697L92.0005 21.9879L88.3865 20.0913Z" fill="#DC1FFF"/>
<path d="M71.5372 117.074H63.9706C51.4195 117.074 41.2092 105.167 41.2092 90.5296V61.5792L42.1097 60.9646C42.3448 60.8053 65.8553 45.1582 93.2606 60.879L94.2986 61.4737V90.5296C94.2986 105.167 84.0883 117.074 71.5372 117.074ZM45.3372 63.8215V90.5296C45.3372 102.89 53.6966 112.946 63.9706 112.946H71.5372C81.8112 112.946 90.1706 102.89 90.1706 90.5296V63.8793C68.3436 51.9806 49.5886 61.3551 45.3372 63.8215Z" fill="#DC1FFF"/>
<path d="M67.7439 103.11L66.9391 102.76C64.2137 101.574 50.8577 87.9974 50.8577 82.3175C50.8577 76.6864 55.4378 72.1053 61.0679 72.1053C63.5463 72.1053 65.917 73.0127 67.7539 74.6065C69.5947 73.0127 71.9635 72.1053 74.4419 72.1053C80.0719 72.1053 84.6521 76.6864 84.6521 82.3175C84.6521 88.0711 71.2801 101.609 68.5508 102.767L67.7439 103.11ZM61.0679 76.1854C57.6871 76.1854 54.9378 78.9367 54.9378 82.3175C54.9378 85.2372 64.2416 95.6815 67.7559 98.4577C71.1248 95.7572 80.572 85.2431 80.572 82.3175C80.572 78.9367 77.8227 76.1854 74.4419 76.1854C72.4516 76.1854 70.5749 77.1636 69.4214 78.8012L67.7519 81.175L66.0844 78.8002C64.9349 77.1626 63.0582 76.1854 61.0679 76.1854Z" fill="#DC1FFF"/>
</svg>
