<svg width="100" height="100" viewBox="0 0 50 50" fill="none" xmlns="http://www.w3.org/2000/svg">
<path d="M31.1333 39.8387H30.7853C31.0006 39.4574 31.1333 39.0206 31.1333 38.5484C31.1333 37.349 30.3327 36.3477 29.2555 36.0594V24.9084C30.3327 24.62 31.1333 23.6187 31.1333 22.4194C31.1333 21.22 30.3327 20.2187 29.2555 19.9303V17.4865L37 10.9123L32.6981 5H18.3019L14 10.9123L21.7445 17.4865V19.9303C20.6673 20.2187 19.8667 21.22 19.8667 22.4194C19.8667 23.6187 20.6673 24.62 21.7445 24.9084V36.0594C20.6673 36.3477 19.8667 37.349 19.8667 38.5484C19.8667 39.0206 19.9994 39.4574 20.2147 39.8387H19.8667C18.8315 39.8387 17.989 40.7071 17.989 41.7742V45H33.011V41.7742C33.011 40.7071 32.1685 39.8387 31.1333 39.8387ZM28.0037 25V35.9677H22.9963V25H28.0037ZM28.0037 19.8387H26.4846L28.0037 18.5497V19.8387ZM27.7414 11.4516L25.5 17.9213L23.2586 11.4516H27.7414ZM23.4996 10.1613L25.5 6.86258L27.5004 10.1613H23.4996ZM29.0702 11.4516H34.3962L26.8514 17.8555L29.0702 11.4516ZM26.6292 6.29032H30.63L28.6296 9.58903L26.6292 6.29032ZM22.3704 9.58903L20.37 6.29032H24.3708L22.3704 9.58903ZM24.1486 17.8555L16.6038 11.4516H21.9298L24.1486 17.8555ZM34.8888 10.1613H29.7587L32.0903 6.31548L34.8888 10.1613ZM18.9097 6.31548L21.2413 10.1613H16.1112L18.9097 6.31548ZM24.5154 19.8387H22.9963V18.5497L24.5154 19.8387ZM21.1186 22.4194C21.1186 21.7077 21.68 21.129 22.3704 21.129H28.6296C29.32 21.129 29.8814 21.7077 29.8814 22.4194C29.8814 23.131 29.32 23.7097 28.6296 23.7097H22.3704C21.68 23.7097 21.1186 23.131 21.1186 22.4194ZM21.1186 38.5484C21.1186 37.8368 21.68 37.2581 22.3704 37.2581H28.6296C29.32 37.2581 29.8814 37.8368 29.8814 38.5484C29.8814 39.26 29.32 39.8387 28.6296 39.8387H22.3704C21.68 39.8387 21.1186 39.26 21.1186 38.5484ZM31.7592 43.7097H19.2408V41.7742C19.2408 41.4181 19.5212 41.129 19.8667 41.129H22.3704H28.6296H31.1333C31.4788 41.129 31.7592 41.4181 31.7592 41.7742V43.7097Z" fill="#03E1FF"/>
</svg>
