<svg width="20" height="20" viewBox="0 0 20 20" fill="none" xmlns="http://www.w3.org/2000/svg">
<path fill-rule="evenodd" clip-rule="evenodd" d="M2.5 2.5H17.5V17.5H2.5V2.5ZM9.16667 7.08333H14.1667V8.75H9.16667V7.08333ZM9.16667 11.25V12.9167H14.1667V11.25H9.16667ZM7.91667 7.91667C7.91667 8.49196 7.4503 8.95833 6.875 8.95833C6.2997 8.95833 5.83333 8.49196 5.83333 7.91667C5.83333 7.34137 6.2997 6.875 6.875 6.875C7.4503 6.875 7.91667 7.34137 7.91667 7.91667ZM6.875 13.125C7.4503 13.125 7.91667 12.6586 7.91667 12.0833C7.91667 11.508 7.4503 11.0417 6.875 11.0417C6.2997 11.0417 5.83333 11.508 5.83333 12.0833C5.83333 12.6586 6.2997 13.125 6.875 13.125Z" fill="currentColor" />
</svg>
