<svg width="100" height="100" viewBox="0 0 50 50" fill="none" xmlns="http://www.w3.org/2000/svg">
<path d="M25.0338 23.8387C20.5512 23.8387 16.9048 27.4852 16.9048 31.9678C16.9048 36.4504 20.5512 40.0968 25.0338 40.0968C29.5164 40.0968 33.1628 36.4504 33.1628 31.9678C33.1628 27.4852 29.5164 23.8387 25.0338 23.8387ZM31.6346 29.7526L27.181 29.1162L25.4252 25.0198C28.3208 25.1818 30.7462 27.1136 31.6346 29.7526ZM28.2047 36.1786L25.0338 34.8199L21.8629 36.1786L22.7827 32.9601L20.4589 30.6364L23.6972 30.1742L25.0338 27.0549L26.3705 30.1742L29.6087 30.6364L27.285 32.9601L28.2047 36.1786ZM24.6425 25.0198L22.8866 29.1162L18.433 29.7526C19.3214 27.1136 21.7468 25.1818 24.6425 25.0198ZM18.0661 31.9678C18.0661 31.3337 18.1584 30.7217 18.3181 30.1376L21.4785 33.298L20.3811 37.1396C18.9638 35.8633 18.0661 34.0204 18.0661 31.9678ZM21.1481 37.7487L25.0338 36.0834L28.9195 37.7487C27.8087 38.4977 26.4715 38.9355 25.0338 38.9355C23.5961 38.9355 22.2589 38.4977 21.1481 37.7487ZM29.6865 37.1396L28.5891 33.298L31.7496 30.1376C31.9092 30.7217 32.0016 31.3337 32.0016 31.9678C32.0016 34.0204 31.1039 35.8633 29.6865 37.1396Z" fill="#FF852D"/>
<path d="M43.0674 19.3718L41.211 7H8.85632L7 19.3718L14.6703 28.2214C14.2453 29.3932 14.0014 30.6508 14.0014 31.9677C14.0014 38.0512 18.9503 43 25.0337 43C31.1171 43 36.0659 38.0512 36.0659 31.9677C36.0659 30.6508 35.8221 29.3932 35.397 28.2214L43.0674 19.3718ZM34.8878 27.0357C34.6236 26.5097 34.3194 26.0086 33.9774 25.5348L36.1594 23.0618L35.2885 22.2936L33.237 24.6185C32.7626 24.0895 32.2395 23.6082 31.6722 23.1785L40.8563 12.4645L41.3074 15.4722L36.3139 21.1317L37.1848 21.8999L41.5327 16.972L41.8393 19.0147L34.8878 27.0357ZM16.8297 24.6179L8.75994 15.4722L9.2111 12.4645L18.394 23.1779C17.8273 23.6076 17.3041 24.089 16.8297 24.6179ZM19.3619 22.523L9.43871 10.9461L9.73948 8.93994L20.6022 21.8721C20.1725 22.0614 19.7608 22.2826 19.3619 22.523ZM30.6857 18.6129H19.3817L17.4307 16.2903H32.6366L30.6857 18.6129ZM33.6121 15.129H16.4552L13.5288 11.6452H36.5386L33.6121 15.129ZM37.5141 10.4839H12.5533L10.6023 8.16129H39.465L37.5141 10.4839ZM21.7513 21.4343L20.3572 19.7742H29.7102L28.3161 21.4343C27.2785 21.1103 26.1764 20.9355 25.0337 20.9355C23.891 20.9355 22.7889 21.1103 21.7513 21.4343ZM40.3279 8.93994L40.6286 10.9466L30.7054 22.5235C30.3059 22.2826 29.8943 22.0619 29.4646 21.8721L40.3279 8.93994ZM8.22865 19.0153L8.53523 16.9726L16.09 25.5348C15.748 26.0086 15.4443 26.5097 15.1795 27.0357L8.22865 19.0153ZM25.0337 41.8387C19.5907 41.8387 15.1627 37.4107 15.1627 31.9677C15.1627 26.5248 19.5907 22.0968 25.0337 22.0968C30.4766 22.0968 34.9046 26.5248 34.9046 31.9677C34.9046 37.4107 30.4766 41.8387 25.0337 41.8387Z" fill="#FF852D"/>
</svg>
