<?xml version="1.0" encoding="UTF-8"?> <svg xmlns="http://www.w3.org/2000/svg" width="1200" height="670" viewBox="0 0 1200 670" fill="none"><g clip-path="url(#clip0_1289_38050)"><rect width="1200" height="670" fill="#E6EDF6"></rect><g opacity="0.4"><mask id="mask0_1289_38050" style="mask-type:alpha" maskUnits="userSpaceOnUse" x="174" y="563" width="129" height="418"><rect x="174.105" y="563" width="128.12" height="417.071" fill="#162542"></rect></mask><g mask="url(#mask0_1289_38050)"><path fill-rule="evenodd" clip-rule="evenodd" d="M220.446 599.346L214.994 608.433H225.898L220.446 599.346Z" fill="#86B1FF"></path><path fill-rule="evenodd" clip-rule="evenodd" d="M182.282 599.346L176.83 608.433H187.734L182.282 599.346Z" fill="#86B1FF"></path><path fill-rule="evenodd" clip-rule="evenodd" d="M220.446 635.692L214.994 644.779H225.898L220.446 635.692Z" fill="#86B1FF"></path><path fill-rule="evenodd" clip-rule="evenodd" d="M182.282 635.692L176.83 644.779H187.734L182.282 635.692Z" fill="#86B1FF"></path><path fill-rule="evenodd" clip-rule="evenodd" d="M220.446 563L214.994 572.087H225.898L220.446 563Z" fill="#86B1FF"></path><path fill-rule="evenodd" clip-rule="evenodd" d="M182.282 563L176.83 572.087H187.734L182.282 563Z" fill="#86B1FF"></path><path fill-rule="evenodd" clip-rule="evenodd" d="M296.772 599.346L291.32 608.433H302.224L296.772 599.346Z" fill="#86B1FF"></path><path fill-rule="evenodd" clip-rule="evenodd" d="M258.608 599.346L253.156 608.433H264.06L258.608 599.346Z" fill="#86B1FF"></path><path fill-rule="evenodd" clip-rule="evenodd" d="M296.772 635.692L291.32 644.779H302.224L296.772 635.692Z" fill="#86B1FF"></path><path fill-rule="evenodd" clip-rule="evenodd" d="M258.608 635.692L253.156 644.779H264.06L258.608 635.692Z" fill="#86B1FF"></path><path fill-rule="evenodd" clip-rule="evenodd" d="M296.772 563L291.32 572.087H302.224L296.772 563Z" fill="#86B1FF"></path><path fill-rule="evenodd" clip-rule="evenodd" d="M258.608 563L253.156 572.087H264.06L258.608 563Z" fill="#86B1FF"></path></g></g><g opacity="0.4"><mask id="mask1_1289_38050" style="mask-type:alpha" maskUnits="userSpaceOnUse" x="24" y="563" width="129" height="418"><rect x="24" y="563" width="128.12" height="417.071" fill="#162542"></rect></mask><g mask="url(#mask1_1289_38050)"><path fill-rule="evenodd" clip-rule="evenodd" d="M70.3406 599.346L64.8887 608.433H75.7925L70.3406 599.346Z" fill="#86B1FF"></path><path fill-rule="evenodd" clip-rule="evenodd" d="M32.1765 599.346L26.7246 608.433H37.6284L32.1765 599.346Z" fill="#86B1FF"></path><path fill-rule="evenodd" clip-rule="evenodd" d="M70.3406 635.692L64.8887 644.779H75.7925L70.3406 635.692Z" fill="#86B1FF"></path><path fill-rule="evenodd" clip-rule="evenodd" d="M32.1765 635.692L26.7246 644.779H37.6284L32.1765 635.692Z" fill="#86B1FF"></path><path fill-rule="evenodd" clip-rule="evenodd" d="M70.3406 563L64.8887 572.087H75.7925L70.3406 563Z" fill="#86B1FF"></path><path fill-rule="evenodd" clip-rule="evenodd" d="M32.1765 563L26.7246 572.087H37.6284L32.1765 563Z" fill="#86B1FF"></path><path fill-rule="evenodd" clip-rule="evenodd" d="M146.667 599.346L141.215 608.433H152.119L146.667 599.346Z" fill="#86B1FF"></path><path fill-rule="evenodd" clip-rule="evenodd" d="M108.503 599.346L103.051 608.433H113.955L108.503 599.346Z" fill="#86B1FF"></path><path fill-rule="evenodd" clip-rule="evenodd" d="M146.667 635.692L141.215 644.779H152.119L146.667 635.692Z" fill="#86B1FF"></path><path fill-rule="evenodd" clip-rule="evenodd" d="M108.503 635.692L103.051 644.779H113.955L108.503 635.692Z" fill="#86B1FF"></path><path fill-rule="evenodd" clip-rule="evenodd" d="M146.667 563L141.215 572.087H152.119L146.667 563Z" fill="#86B1FF"></path><path fill-rule="evenodd" clip-rule="evenodd" d="M108.503 563L103.051 572.087H113.955L108.503 563Z" fill="#86B1FF"></path></g></g><path d="M130.364 259.455V314H120.403L96.6726 279.669H96.2731V314H84.7408V259.455H94.8615L118.406 293.759H118.885V259.455H130.364ZM150.595 314.772C147.984 314.772 145.658 314.32 143.617 313.414C141.575 312.491 139.959 311.132 138.769 309.339C137.597 307.528 137.011 305.273 137.011 302.574C137.011 300.301 137.429 298.393 138.263 296.848C139.098 295.303 140.234 294.06 141.672 293.119C143.111 292.178 144.744 291.468 146.573 290.989C148.419 290.509 150.355 290.172 152.379 289.977C154.758 289.728 156.676 289.497 158.132 289.284C159.588 289.053 160.644 288.716 161.301 288.272C161.958 287.828 162.287 287.171 162.287 286.301V286.141C162.287 284.455 161.754 283.15 160.689 282.226C159.641 281.303 158.15 280.841 156.214 280.841C154.172 280.841 152.548 281.294 151.34 282.2C150.133 283.087 149.334 284.206 148.943 285.555L138.45 284.703C138.982 282.217 140.03 280.069 141.592 278.258C143.155 276.429 145.17 275.026 147.638 274.05C150.124 273.055 153 272.558 156.267 272.558C158.54 272.558 160.715 272.825 162.793 273.357C164.888 273.89 166.743 274.716 168.359 275.834C169.993 276.953 171.28 278.391 172.221 280.149C173.162 281.889 173.633 283.975 173.633 286.408V314H162.873V308.327H162.553C161.896 309.605 161.017 310.733 159.916 311.71C158.815 312.668 157.493 313.423 155.948 313.973C154.403 314.506 152.619 314.772 150.595 314.772ZM153.844 306.942C155.513 306.942 156.987 306.614 158.265 305.957C159.543 305.282 160.547 304.376 161.275 303.24C162.003 302.104 162.367 300.816 162.367 299.378V295.037C162.011 295.268 161.523 295.481 160.902 295.676C160.298 295.854 159.614 296.022 158.851 296.182C158.087 296.324 157.324 296.457 156.56 296.582C155.797 296.688 155.104 296.786 154.483 296.875C153.151 297.07 151.988 297.381 150.994 297.807C150 298.233 149.227 298.81 148.677 299.538C148.127 300.248 147.851 301.136 147.851 302.201C147.851 303.746 148.411 304.927 149.529 305.744C150.666 306.543 152.104 306.942 153.844 306.942ZM203.445 273.091V281.614H178.809V273.091H203.445ZM184.402 263.29H195.747V301.429C195.747 302.477 195.907 303.293 196.227 303.879C196.546 304.447 196.99 304.847 197.559 305.078C198.144 305.309 198.819 305.424 199.583 305.424C200.115 305.424 200.648 305.38 201.181 305.291C201.713 305.184 202.122 305.104 202.406 305.051L204.19 313.494C203.622 313.672 202.823 313.876 201.793 314.107C200.763 314.355 199.512 314.506 198.038 314.559C195.304 314.666 192.907 314.302 190.847 313.467C188.805 312.633 187.216 311.337 186.079 309.579C184.943 307.821 184.384 305.602 184.402 302.92V263.29ZM210.085 314V273.091H221.431V314H210.085ZM215.785 267.817C214.098 267.817 212.651 267.258 211.444 266.14C210.254 265.003 209.659 263.645 209.659 262.065C209.659 260.502 210.254 259.162 211.444 258.043C212.651 256.907 214.098 256.338 215.785 256.338C217.472 256.338 218.91 256.907 220.1 258.043C221.307 259.162 221.911 260.502 221.911 262.065C221.911 263.645 221.307 265.003 220.1 266.14C218.91 267.258 217.472 267.817 215.785 267.817ZM267.909 273.091L253.607 314H240.823L226.521 273.091H238.506L247.002 302.361H247.428L255.897 273.091H267.909ZM290.29 314.799C286.082 314.799 282.46 313.947 279.424 312.242C276.405 310.52 274.079 308.087 272.446 304.945C270.812 301.784 269.996 298.047 269.996 293.732C269.996 289.524 270.812 285.831 272.446 282.652C274.079 279.474 276.379 276.997 279.344 275.222C282.327 273.446 285.825 272.558 289.838 272.558C292.536 272.558 295.049 272.993 297.375 273.863C299.719 274.716 301.76 276.003 303.501 277.725C305.258 279.447 306.626 281.614 307.602 284.224C308.579 286.816 309.067 289.852 309.067 293.332V296.449H274.523V289.417H298.387C298.387 287.784 298.032 286.337 297.322 285.076C296.611 283.815 295.626 282.83 294.365 282.12C293.122 281.392 291.675 281.028 290.024 281.028C288.302 281.028 286.775 281.427 285.443 282.226C284.129 283.007 283.099 284.064 282.354 285.396C281.608 286.71 281.226 288.174 281.208 289.79V296.475C281.208 298.499 281.581 300.248 282.327 301.722C283.09 303.196 284.165 304.332 285.55 305.131C286.934 305.93 288.577 306.33 290.477 306.33C291.737 306.33 292.892 306.152 293.939 305.797C294.987 305.442 295.883 304.909 296.629 304.199C297.375 303.489 297.943 302.619 298.334 301.589L308.827 302.281C308.295 304.803 307.203 307.004 305.551 308.886C303.918 310.751 301.805 312.207 299.213 313.254C296.638 314.284 293.664 314.799 290.29 314.799ZM96.2731 345.455V400H84.7408V345.455H96.2731ZM116.144 376.349V400H104.798V359.091H115.611V366.309H116.091C116.996 363.929 118.514 362.047 120.645 360.662C122.776 359.26 125.359 358.558 128.396 358.558C131.236 358.558 133.713 359.18 135.826 360.423C137.939 361.665 139.582 363.441 140.753 365.749C141.925 368.04 142.511 370.774 142.511 373.952V400H131.165V375.977C131.183 373.473 130.544 371.52 129.248 370.117C127.952 368.697 126.167 367.987 123.894 367.987C122.367 367.987 121.018 368.315 119.846 368.972C118.692 369.629 117.786 370.588 117.13 371.848C116.49 373.091 116.162 374.592 116.144 376.349ZM172.463 359.091V367.614H147.827V359.091H172.463ZM153.42 349.29H164.766V387.429C164.766 388.477 164.926 389.293 165.245 389.879C165.565 390.447 166.009 390.847 166.577 391.078C167.163 391.309 167.838 391.424 168.601 391.424C169.134 391.424 169.667 391.38 170.199 391.291C170.732 391.184 171.14 391.104 171.424 391.051L173.209 399.494C172.641 399.672 171.842 399.876 170.812 400.107C169.782 400.355 168.53 400.506 167.056 400.559C164.322 400.666 161.925 400.302 159.865 399.467C157.824 398.633 156.234 397.337 155.098 395.579C153.962 393.821 153.402 391.602 153.42 388.92V349.29ZM197.308 400.799C193.1 400.799 189.478 399.947 186.441 398.242C183.423 396.52 181.097 394.087 179.463 390.945C177.83 387.784 177.013 384.047 177.013 379.732C177.013 375.524 177.83 371.831 179.463 368.652C181.097 365.474 183.396 362.997 186.362 361.222C189.344 359.446 192.842 358.558 196.855 358.558C199.554 358.558 202.066 358.993 204.392 359.863C206.736 360.716 208.778 362.003 210.518 363.725C212.276 365.447 213.643 367.614 214.62 370.224C215.596 372.816 216.085 375.852 216.085 379.332V382.449H181.541V375.417H205.404C205.404 373.784 205.049 372.337 204.339 371.076C203.629 369.815 202.643 368.83 201.383 368.12C200.14 367.392 198.693 367.028 197.042 367.028C195.319 367.028 193.792 367.427 192.461 368.226C191.147 369.007 190.117 370.064 189.371 371.396C188.625 372.71 188.244 374.174 188.226 375.79V382.475C188.226 384.499 188.599 386.248 189.344 387.722C190.108 389.196 191.182 390.332 192.567 391.131C193.952 391.93 195.594 392.33 197.494 392.33C198.755 392.33 199.909 392.152 200.957 391.797C202.004 391.442 202.901 390.909 203.647 390.199C204.392 389.489 204.961 388.619 205.351 387.589L215.845 388.281C215.312 390.803 214.22 393.004 212.569 394.886C210.935 396.751 208.822 398.207 206.23 399.254C203.656 400.284 200.681 400.799 197.308 400.799ZM241.169 416.193C237.494 416.193 234.342 415.687 231.714 414.675C229.104 413.681 227.027 412.322 225.482 410.6C223.937 408.878 222.934 406.942 222.472 404.794L232.966 403.382C233.286 404.199 233.792 404.963 234.484 405.673C235.176 406.383 236.091 406.951 237.227 407.377C238.381 407.821 239.784 408.043 241.435 408.043C243.903 408.043 245.936 407.44 247.534 406.232C249.15 405.043 249.958 403.045 249.958 400.24V392.756H249.479C248.982 393.892 248.236 394.966 247.241 395.978C246.247 396.99 244.969 397.816 243.406 398.455C241.844 399.094 239.979 399.414 237.813 399.414C234.741 399.414 231.945 398.704 229.424 397.283C226.92 395.845 224.923 393.652 223.431 390.705C221.957 387.74 221.221 383.993 221.221 379.466C221.221 374.831 221.975 370.961 223.484 367.853C224.994 364.746 227 362.42 229.504 360.875C232.025 359.331 234.786 358.558 237.787 358.558C240.077 358.558 241.995 358.949 243.539 359.73C245.084 360.494 246.327 361.452 247.268 362.607C248.227 363.743 248.964 364.862 249.479 365.962H249.905V359.091H261.171V400.4C261.171 403.88 260.319 406.792 258.614 409.135C256.909 411.479 254.548 413.237 251.529 414.409C248.529 415.598 245.075 416.193 241.169 416.193ZM241.409 390.891C243.238 390.891 244.782 390.439 246.043 389.533C247.321 388.61 248.298 387.296 248.973 385.591C249.665 383.869 250.011 381.809 250.011 379.412C250.011 377.015 249.674 374.938 248.999 373.18C248.325 371.404 247.348 370.028 246.07 369.052C244.791 368.075 243.238 367.587 241.409 367.587C239.544 367.587 237.973 368.093 236.695 369.105C235.416 370.099 234.449 371.484 233.792 373.26C233.135 375.036 232.806 377.086 232.806 379.412C232.806 381.774 233.135 383.816 233.792 385.538C234.466 387.243 235.434 388.565 236.695 389.506C237.973 390.43 239.544 390.891 241.409 390.891ZM269.45 400V359.091H280.449V366.229H280.875C281.621 363.69 282.873 361.772 284.631 360.476C286.388 359.162 288.413 358.505 290.703 358.505C291.271 358.505 291.884 358.54 292.541 358.612C293.198 358.683 293.775 358.78 294.272 358.904V368.972C293.739 368.812 293.002 368.67 292.061 368.546C291.12 368.422 290.259 368.359 289.478 368.359C287.809 368.359 286.317 368.723 285.004 369.451C283.707 370.162 282.678 371.156 281.914 372.434C281.168 373.713 280.795 375.186 280.795 376.855V400H269.45ZM309.882 400.772C307.272 400.772 304.946 400.32 302.904 399.414C300.862 398.491 299.246 397.132 298.056 395.339C296.884 393.528 296.299 391.273 296.299 388.574C296.299 386.301 296.716 384.393 297.55 382.848C298.385 381.303 299.521 380.06 300.959 379.119C302.398 378.178 304.031 377.468 305.86 376.989C307.707 376.509 309.642 376.172 311.666 375.977C314.045 375.728 315.963 375.497 317.419 375.284C318.875 375.053 319.931 374.716 320.588 374.272C321.245 373.828 321.574 373.171 321.574 372.301V372.141C321.574 370.455 321.041 369.15 319.976 368.226C318.928 367.303 317.437 366.841 315.501 366.841C313.459 366.841 311.835 367.294 310.627 368.2C309.42 369.087 308.621 370.206 308.23 371.555L297.737 370.703C298.269 368.217 299.317 366.069 300.88 364.258C302.442 362.429 304.457 361.026 306.925 360.05C309.411 359.055 312.288 358.558 315.555 358.558C317.827 358.558 320.002 358.825 322.08 359.357C324.175 359.89 326.03 360.716 327.646 361.834C329.28 362.953 330.567 364.391 331.508 366.149C332.449 367.889 332.92 369.975 332.92 372.408V400H322.16V394.327H321.84C321.183 395.605 320.304 396.733 319.203 397.71C318.103 398.668 316.78 399.423 315.235 399.973C313.69 400.506 311.906 400.772 309.882 400.772ZM313.131 392.942C314.8 392.942 316.274 392.614 317.552 391.957C318.831 391.282 319.834 390.376 320.562 389.24C321.29 388.104 321.654 386.816 321.654 385.378V381.037C321.299 381.268 320.81 381.481 320.189 381.676C319.585 381.854 318.902 382.022 318.138 382.182C317.375 382.324 316.611 382.457 315.848 382.582C315.084 382.688 314.392 382.786 313.77 382.875C312.438 383.07 311.275 383.381 310.281 383.807C309.287 384.233 308.514 384.81 307.964 385.538C307.414 386.248 307.138 387.136 307.138 388.201C307.138 389.746 307.698 390.927 308.816 391.744C309.953 392.543 311.391 392.942 313.131 392.942ZM362.732 359.091V367.614H338.096V359.091H362.732ZM343.689 349.29H355.035V387.429C355.035 388.477 355.194 389.293 355.514 389.879C355.834 390.447 356.277 390.847 356.846 391.078C357.432 391.309 358.106 391.424 358.87 391.424C359.402 391.424 359.935 391.38 360.468 391.291C361 391.184 361.409 391.104 361.693 391.051L363.477 399.494C362.909 399.672 362.11 399.876 361.08 400.107C360.051 400.355 358.799 400.506 357.325 400.559C354.591 400.666 352.194 400.302 350.134 399.467C348.092 398.633 346.503 397.337 345.367 395.579C344.23 393.821 343.671 391.602 343.689 388.92V349.29ZM369.372 400V359.091H380.718V400H369.372ZM375.072 353.817C373.385 353.817 371.938 353.258 370.731 352.14C369.541 351.003 368.946 349.645 368.946 348.065C368.946 346.502 369.541 345.162 370.731 344.043C371.938 342.907 373.385 342.338 375.072 342.338C376.759 342.338 378.197 342.907 379.387 344.043C380.594 345.162 381.198 346.502 381.198 348.065C381.198 349.645 380.594 351.003 379.387 352.14C378.197 353.258 376.759 353.817 375.072 353.817ZM407.541 400.799C403.404 400.799 399.826 399.92 396.807 398.162C393.807 396.387 391.49 393.919 389.856 390.758C388.222 387.58 387.406 383.896 387.406 379.705C387.406 375.479 388.222 371.786 389.856 368.626C391.49 365.447 393.807 362.979 396.807 361.222C399.826 359.446 403.404 358.558 407.541 358.558C411.678 358.558 415.247 359.446 418.247 361.222C421.266 362.979 423.592 365.447 425.225 368.626C426.859 371.786 427.676 375.479 427.676 379.705C427.676 383.896 426.859 387.58 425.225 390.758C423.592 393.919 421.266 396.387 418.247 398.162C415.247 399.92 411.678 400.799 407.541 400.799ZM407.594 392.01C409.476 392.01 411.047 391.477 412.308 390.412C413.569 389.329 414.519 387.855 415.158 385.991C415.815 384.126 416.143 382.005 416.143 379.625C416.143 377.246 415.815 375.124 415.158 373.26C414.519 371.396 413.569 369.922 412.308 368.839C411.047 367.756 409.476 367.214 407.594 367.214C405.694 367.214 404.096 367.756 402.8 368.839C401.521 369.922 400.554 371.396 399.897 373.26C399.258 375.124 398.938 377.246 398.938 379.625C398.938 382.005 399.258 384.126 399.897 385.991C400.554 387.855 401.521 389.329 402.8 390.412C404.096 391.477 405.694 392.01 407.594 392.01ZM445.649 376.349V400H434.303V359.091H445.116V366.309H445.596C446.501 363.929 448.019 362.047 450.15 360.662C452.281 359.26 454.864 358.558 457.9 358.558C460.741 358.558 463.218 359.18 465.331 360.423C467.444 361.665 469.086 363.441 470.258 365.749C471.43 368.04 472.016 370.774 472.016 373.952V400H460.67V375.977C460.688 373.473 460.049 371.52 458.753 370.117C457.456 368.697 455.672 367.987 453.399 367.987C451.872 367.987 450.523 368.315 449.351 368.972C448.197 369.629 447.291 370.588 446.634 371.848C445.995 373.091 445.667 374.592 445.649 376.349ZM514.246 370.756L503.859 371.396C503.681 370.508 503.3 369.709 502.714 368.999C502.128 368.271 501.355 367.694 500.397 367.267C499.456 366.824 498.328 366.602 497.014 366.602C495.256 366.602 493.774 366.974 492.566 367.72C491.359 368.448 490.755 369.425 490.755 370.65C490.755 371.626 491.146 372.452 491.927 373.127C492.708 373.801 494.049 374.343 495.949 374.751L503.353 376.243C507.33 377.06 510.295 378.374 512.248 380.185C514.202 381.996 515.178 384.375 515.178 387.322C515.178 390.004 514.388 392.356 512.808 394.38C511.245 396.404 509.097 397.985 506.362 399.121C503.646 400.24 500.512 400.799 496.961 400.799C491.545 400.799 487.231 399.672 484.017 397.417C480.821 395.144 478.948 392.054 478.397 388.148L489.557 387.562C489.894 389.213 490.711 390.474 492.007 391.344C493.303 392.196 494.963 392.623 496.987 392.623C498.976 392.623 500.574 392.241 501.782 391.477C503.007 390.696 503.628 389.693 503.646 388.468C503.628 387.438 503.193 386.594 502.341 385.938C501.489 385.263 500.175 384.748 498.399 384.393L491.315 382.981C487.32 382.182 484.345 380.797 482.392 378.826C480.457 376.855 479.489 374.343 479.489 371.289C479.489 368.661 480.199 366.397 481.62 364.498C483.058 362.598 485.073 361.133 487.666 360.103C490.276 359.073 493.33 358.558 496.828 358.558C501.995 358.558 506.061 359.65 509.026 361.834C512.009 364.018 513.749 366.992 514.246 370.756ZM103.011 486.799C98.8743 486.799 95.2965 485.92 92.2781 484.162C89.2773 482.387 86.9602 479.919 85.3267 476.758C83.6932 473.58 82.8764 469.896 82.8764 465.705C82.8764 461.479 83.6932 457.786 85.3267 454.626C86.9602 451.447 89.2773 448.979 92.2781 447.222C95.2965 445.446 98.8743 444.558 103.011 444.558C107.148 444.558 110.717 445.446 113.718 447.222C116.737 448.979 119.062 451.447 120.696 454.626C122.33 457.786 123.146 461.479 123.146 465.705C123.146 469.896 122.33 473.58 120.696 476.758C119.062 479.919 116.737 482.387 113.718 484.162C110.717 485.92 107.148 486.799 103.011 486.799ZM103.065 478.01C104.947 478.01 106.518 477.477 107.779 476.412C109.039 475.329 109.989 473.855 110.629 471.991C111.286 470.126 111.614 468.005 111.614 465.625C111.614 463.246 111.286 461.124 110.629 459.26C109.989 457.396 109.039 455.922 107.779 454.839C106.518 453.756 104.947 453.214 103.065 453.214C101.165 453.214 99.5668 453.756 98.2706 454.839C96.9922 455.922 96.0245 457.396 95.3675 459.26C94.7283 461.124 94.4087 463.246 94.4087 465.625C94.4087 468.005 94.7283 470.126 95.3675 471.991C96.0245 473.855 96.9922 475.329 98.2706 476.412C99.5668 477.477 101.165 478.01 103.065 478.01ZM141.12 462.349V486H129.774V445.091H140.587V452.309H141.066C141.972 449.929 143.49 448.047 145.621 446.662C147.751 445.26 150.335 444.558 153.371 444.558C156.212 444.558 158.689 445.18 160.802 446.423C162.915 447.665 164.557 449.441 165.729 451.749C166.901 454.04 167.487 456.774 167.487 459.952V486H156.141V461.977C156.159 459.473 155.52 457.52 154.223 456.117C152.927 454.697 151.143 453.987 148.87 453.987C147.343 453.987 145.994 454.315 144.822 454.972C143.668 455.629 142.762 456.588 142.105 457.848C141.466 459.091 141.137 460.592 141.12 462.349ZM222.09 447.142C221.877 444.993 220.963 443.324 219.347 442.135C217.731 440.945 215.539 440.35 212.769 440.35C210.887 440.35 209.297 440.616 208.001 441.149C206.705 441.664 205.711 442.383 205.018 443.306C204.344 444.23 204.006 445.277 204.006 446.449C203.971 447.426 204.175 448.278 204.619 449.006C205.08 449.734 205.711 450.364 206.51 450.897C207.309 451.412 208.232 451.865 209.28 452.255C210.327 452.628 211.446 452.948 212.635 453.214L217.536 454.386C219.915 454.919 222.099 455.629 224.088 456.517C226.077 457.404 227.799 458.496 229.255 459.793C230.711 461.089 231.838 462.616 232.637 464.374C233.454 466.131 233.871 468.147 233.889 470.419C233.871 473.757 233.019 476.652 231.332 479.102C229.663 481.534 227.248 483.425 224.088 484.775C220.945 486.107 217.154 486.772 212.715 486.772C208.312 486.772 204.477 486.098 201.21 484.748C197.96 483.399 195.421 481.401 193.593 478.756C191.781 476.092 190.831 472.799 190.743 468.875H201.902C202.026 470.703 202.55 472.23 203.474 473.456C204.415 474.663 205.666 475.577 207.229 476.199C208.809 476.803 210.594 477.104 212.582 477.104C214.535 477.104 216.231 476.82 217.669 476.252C219.125 475.684 220.253 474.894 221.052 473.882C221.851 472.87 222.25 471.707 222.25 470.393C222.25 469.168 221.886 468.138 221.158 467.303C220.448 466.469 219.4 465.759 218.015 465.173C216.648 464.587 214.97 464.054 212.982 463.575L207.042 462.083C202.444 460.964 198.813 459.216 196.149 456.836C193.486 454.457 192.163 451.252 192.181 447.222C192.163 443.919 193.042 441.034 194.818 438.566C196.611 436.098 199.07 434.171 202.195 432.786C205.32 431.401 208.871 430.709 212.849 430.709C216.897 430.709 220.43 431.401 223.449 432.786C226.485 434.171 228.846 436.098 230.533 438.566C232.22 441.034 233.09 443.892 233.143 447.142H222.09ZM259.167 486.799C255.03 486.799 251.452 485.92 248.433 484.162C245.433 482.387 243.116 479.919 241.482 476.758C239.848 473.58 239.032 469.896 239.032 465.705C239.032 461.479 239.848 457.786 241.482 454.626C243.116 451.447 245.433 448.979 248.433 447.222C251.452 445.446 255.03 444.558 259.167 444.558C263.304 444.558 266.873 445.446 269.873 447.222C272.892 448.979 275.218 451.447 276.851 454.626C278.485 457.786 279.302 461.479 279.302 465.705C279.302 469.896 278.485 473.58 276.851 476.758C275.218 479.919 272.892 482.387 269.873 484.162C266.873 485.92 263.304 486.799 259.167 486.799ZM259.22 478.01C261.102 478.01 262.673 477.477 263.934 476.412C265.195 475.329 266.145 473.855 266.784 471.991C267.441 470.126 267.769 468.005 267.769 465.625C267.769 463.246 267.441 461.124 266.784 459.26C266.145 457.396 265.195 455.922 263.934 454.839C262.673 453.756 261.102 453.214 259.22 453.214C257.32 453.214 255.722 453.756 254.426 454.839C253.147 455.922 252.18 457.396 251.523 459.26C250.884 461.124 250.564 463.246 250.564 465.625C250.564 468.005 250.884 470.126 251.523 471.991C252.18 473.855 253.147 475.329 254.426 476.412C255.722 477.477 257.32 478.01 259.22 478.01ZM297.275 431.455V486H285.929V431.455H297.275ZM317.279 486.772C314.669 486.772 312.343 486.32 310.301 485.414C308.259 484.491 306.643 483.132 305.454 481.339C304.282 479.528 303.696 477.273 303.696 474.574C303.696 472.301 304.113 470.393 304.948 468.848C305.782 467.303 306.919 466.06 308.357 465.119C309.795 464.178 311.429 463.468 313.257 462.989C315.104 462.509 317.039 462.172 319.064 461.977C321.443 461.728 323.36 461.497 324.816 461.284C326.272 461.053 327.329 460.716 327.986 460.272C328.643 459.828 328.971 459.171 328.971 458.301V458.141C328.971 456.455 328.439 455.15 327.373 454.226C326.326 453.303 324.834 452.841 322.899 452.841C320.857 452.841 319.232 453.294 318.025 454.2C316.817 455.087 316.018 456.206 315.628 457.555L305.134 456.703C305.667 454.217 306.714 452.069 308.277 450.258C309.839 448.429 311.855 447.026 314.323 446.05C316.809 445.055 319.685 444.558 322.952 444.558C325.225 444.558 327.4 444.825 329.477 445.357C331.572 445.89 333.428 446.716 335.044 447.834C336.677 448.953 337.964 450.391 338.906 452.149C339.847 453.889 340.317 455.975 340.317 458.408V486H329.557V480.327H329.238C328.581 481.605 327.702 482.733 326.601 483.71C325.5 484.668 324.177 485.423 322.632 485.973C321.088 486.506 319.303 486.772 317.279 486.772ZM320.528 478.942C322.197 478.942 323.671 478.614 324.95 477.957C326.228 477.282 327.231 476.376 327.959 475.24C328.687 474.104 329.051 472.816 329.051 471.378V467.037C328.696 467.268 328.208 467.481 327.586 467.676C326.983 467.854 326.299 468.022 325.536 468.182C324.772 468.324 324.009 468.457 323.245 468.582C322.482 468.688 321.789 468.786 321.168 468.875C319.836 469.07 318.673 469.381 317.679 469.807C316.684 470.233 315.912 470.81 315.362 471.538C314.811 472.248 314.536 473.136 314.536 474.201C314.536 475.746 315.095 476.927 316.214 477.744C317.35 478.543 318.788 478.942 320.528 478.942ZM359.715 462.349V486H348.369V445.091H359.183V452.309H359.662C360.568 449.929 362.086 448.047 364.216 446.662C366.347 445.26 368.931 444.558 371.967 444.558C374.808 444.558 377.285 445.18 379.398 446.423C381.51 447.665 383.153 449.441 384.325 451.749C385.497 454.04 386.083 456.774 386.083 459.952V486H374.737V461.977C374.754 459.473 374.115 457.52 372.819 456.117C371.523 454.697 369.738 453.987 367.466 453.987C365.939 453.987 364.589 454.315 363.417 454.972C362.263 455.629 361.358 456.588 360.701 457.848C360.062 459.091 359.733 460.592 359.715 462.349ZM405.94 486.772C403.33 486.772 401.004 486.32 398.962 485.414C396.92 484.491 395.305 483.132 394.115 481.339C392.943 479.528 392.357 477.273 392.357 474.574C392.357 472.301 392.774 470.393 393.609 468.848C394.443 467.303 395.58 466.06 397.018 465.119C398.456 464.178 400.09 463.468 401.919 462.989C403.765 462.509 405.701 462.172 407.725 461.977C410.104 461.728 412.022 461.497 413.478 461.284C414.934 461.053 415.99 460.716 416.647 460.272C417.304 459.828 417.632 459.171 417.632 458.301V458.141C417.632 456.455 417.1 455.15 416.034 454.226C414.987 453.303 413.495 452.841 411.56 452.841C409.518 452.841 407.893 453.294 406.686 454.2C405.479 455.087 404.68 456.206 404.289 457.555L393.795 456.703C394.328 454.217 395.376 452.069 396.938 450.258C398.501 448.429 400.516 447.026 402.984 446.05C405.47 445.055 408.346 444.558 411.613 444.558C413.886 444.558 416.061 444.825 418.138 445.357C420.234 445.89 422.089 446.716 423.705 447.834C425.338 448.953 426.626 450.391 427.567 452.149C428.508 453.889 428.978 455.975 428.978 458.408V486H418.218V480.327H417.899C417.242 481.605 416.363 482.733 415.262 483.71C414.161 484.668 412.838 485.423 411.294 485.973C409.749 486.506 407.964 486.772 405.94 486.772ZM409.19 478.942C410.859 478.942 412.332 478.614 413.611 477.957C414.889 477.282 415.892 476.376 416.62 475.24C417.348 474.104 417.712 472.816 417.712 471.378V467.037C417.357 467.268 416.869 467.481 416.247 467.676C415.644 467.854 414.96 468.022 414.197 468.182C413.433 468.324 412.67 468.457 411.906 468.582C411.143 468.688 410.45 468.786 409.829 468.875C408.497 469.07 407.334 469.381 406.34 469.807C405.345 470.233 404.573 470.81 404.023 471.538C403.472 472.248 403.197 473.136 403.197 474.201C403.197 475.746 403.756 476.927 404.875 477.744C406.011 478.543 407.449 478.942 409.19 478.942Z" fill="url(#paint0_linear_1289_38050)"></path><path d="M1200 675V-4H961.893L522 675H1200Z" fill="url(#paint1_linear_1289_38050)"></path><rect x="88" y="164" width="131" height="46" rx="23" fill="url(#paint2_linear_1289_38050)"></rect><path d="M143.883 181.364V193H142.008L136.525 185.074H136.428V193H134.32V181.364H136.206L141.684 189.295H141.786V181.364H143.883ZM146.659 193V181.364H154.228V183.131H148.767V186.29H153.836V188.057H148.767V191.233H154.273V193H146.659ZM159.307 193L156.023 181.364H158.29L160.387 189.915H160.495L162.733 181.364H164.796L167.04 189.92H167.142L169.239 181.364H171.506L168.222 193H166.142L163.813 184.835H163.722L161.387 193H159.307Z" fill="white"></path></g><circle cx="861.007" cy="334.007" r="206.007" fill="url(#paint3_linear_1289_38050)"></circle><circle cx="862.244" cy="332.767" r="174.982" fill="#192D59"></circle><circle cx="851.075" cy="331.525" r="163.813" fill="url(#paint4_linear_1289_38050)"></circle><path d="M782.476 373.959C783.719 372.722 785.428 372 787.241 372H951.631C954.635 372 956.137 375.608 954.013 377.722L921.539 410.041C920.296 411.278 918.587 412 916.774 412H752.385C749.381 412 747.879 408.392 750.002 406.278L782.476 373.959Z" fill="white"></path><path d="M782.476 252.959C783.771 251.722 785.48 251 787.241 251H951.631C954.635 251 956.137 254.608 954.013 256.722L921.539 289.041C920.296 290.278 918.587 291 916.774 291H752.385C749.381 291 747.879 287.392 750.002 285.278L782.476 252.959Z" fill="white"></path><path d="M921.539 312.959C920.296 311.722 918.587 311 916.774 311H752.385C749.381 311 747.879 314.608 750.002 316.722L782.476 349.041C783.719 350.278 785.428 351 787.241 351H951.631C954.635 351 956.137 347.392 954.013 345.278L921.539 312.959Z" fill="white"></path><defs><linearGradient id="paint0_linear_1289_38050" x1="82.1677" y1="264.829" x2="567.702" y2="329.359" gradientUnits="userSpaceOnUse"><stop stop-color="#0348A2"></stop><stop offset="1" stop-color="#37435A"></stop></linearGradient><linearGradient id="paint1_linear_1289_38050" x1="522" y1="148.459" x2="1284.1" y2="674.48" gradientUnits="userSpaceOnUse"><stop stop-color="#A2BDF0"></stop><stop offset="1" stop-color="#21325B"></stop></linearGradient><linearGradient id="paint2_linear_1289_38050" x1="88" y1="187" x2="328.537" y2="187" gradientUnits="userSpaceOnUse"><stop stop-color="#0348A2"></stop><stop offset="1" stop-color="#193067"></stop></linearGradient><linearGradient id="paint3_linear_1289_38050" x1="861.007" y1="128" x2="861.007" y2="540.014" gradientUnits="userSpaceOnUse"><stop stop-color="#192E5F"></stop><stop offset="1" stop-color="#95B5EF"></stop></linearGradient><linearGradient id="paint4_linear_1289_38050" x1="739.384" y1="130.482" x2="1162.57" y2="428.323" gradientUnits="userSpaceOnUse"><stop stop-color="#8AABE8"></stop><stop offset="0.22" stop-color="#5470A8"></stop><stop offset="0.395" stop-color="#294175" stop-opacity="0.4"></stop><stop offset="0.5" stop-color="#3A558E" stop-opacity="0.8"></stop><stop offset="0.685" stop-color="#5978B9"></stop><stop offset="0.915" stop-color="#375393"></stop></linearGradient><clipPath id="clip0_1289_38050"><rect width="1200" height="670" fill="white"></rect></clipPath></defs></svg> 