<svg width="32" height="33" viewBox="0 0 32 33" fill="none" xmlns="http://www.w3.org/2000/svg">
<path d="M4.66699 9.83333C4.66699 6.88781 7.05481 4.5 10.0003 4.5C12.9458 4.5 15.3337 6.88781 15.3337 9.83333C15.3337 12.7789 12.9458 15.1667 10.0003 15.1667C7.05481 15.1667 4.66699 12.7789 4.66699 9.83333Z" fill="white" style="fill:white;fill-opacity:1;"/>
<path d="M16.667 9.83333C16.667 6.88781 19.0548 4.5 22.0003 4.5C24.9458 4.5 27.3337 6.88781 27.3337 9.83333C27.3337 12.7789 24.9458 15.1667 22.0003 15.1667C19.0548 15.1667 16.667 12.7789 16.667 9.83333Z" fill="white" style="fill:white;fill-opacity:1;"/>
<path d="M9.99997 16.5C14.6275 16.5 18.8532 20.3091 19.33 27.0729L19.4306 28.5H0.569336L0.669933 27.0729C1.14672 20.3091 5.3724 16.5 9.99997 16.5Z" fill="white" style="fill:white;fill-opacity:1;"/>
<path d="M31.4303 28.5H22.1036L21.9898 26.8854C21.7138 22.9708 20.3024 19.7136 18.1722 17.4322C19.3608 16.8176 20.6635 16.5 21.9997 16.5C26.6272 16.5 30.8529 20.3091 31.3297 27.0729L31.4303 28.5Z" fill="white" style="fill:white;fill-opacity:1;"/>
</svg>
