<svg clip-rule="evenodd" fill-rule="evenodd" stroke-linejoin="round" stroke-miterlimit="2" viewBox="0 0 560 400" xmlns="http://www.w3.org/2000/svg"><path d="m17.443 6.87c-2.485-2.029-5.103-2.971-8.432-3.447-2.992-.428-4.801-1.027-7.431-2.873l-1.58 2.396c2.352 1.772 4.56 2.653 7.539 3.178 2.111.367 3.764.391 5.959 1.577-.434.575-.832 1.406-1.061 1.968-1.098-.66-2.714-1.161-4.874-1.186v2.849c1.05.048 1.991.171 3.257.733 1.544.684 2.63 1.699 2.63 1.699 1.23-4.388 3.993-6.894 3.993-6.894zm12.979-.685c3.209-.464 5.513-1.467 7.865-3.239l-1.58-2.396c-2.63 1.846-4.439 2.445-7.431 2.873-3.329.476-6.067 1.491-8.552 3.52-3.86 3.093-5.67 7.628-5.67 12.199v1.431h7.901v-1.431c-.036-4.204 3.1-6.246 3.1-6.246 1.122-.77 2.799-1.626 4.681-1.552v-2.848c-2.111-.025-4.294.66-6.357 2.102-2.268 1.711-3.691 4.278-4.065 7.114h-2.329c1.279-10.341 10.652-11.27 12.437-11.527zm25.284 3.875c1.652-.965 2.485-2.371 2.485-4.205 0-1.393-.579-2.665-1.629-3.557-1.11-.941-2.666-1.442-4.499-1.442h-7.274v19.839h7.72c2.051 0 3.776-.538 4.97-1.577 1.194-1.027 1.833-2.469 1.833-4.193 0-2.603-1.857-4.339-3.606-4.865zm-8.191-6.772h4.789c2.147 0 3.293 1.039 3.293 2.995s-1.134 2.995-3.293 2.995h-4.789zm5.718 14.852h-5.718v-6.442h5.718c2.207 0 3.486 1.174 3.486 3.215 0 2.054-1.279 3.227-3.486 3.227zm18.178-2.127c-1.17 1.736-2.654 2.689-4.149 2.689-1.81 0-2.811-1.026-2.811-2.884v-9.327h-2.521v9.779c0 1.43.41 2.616 1.194 3.423.796.831 1.991 1.271 3.438 1.271 2.111 0 3.921-1.1 4.849-2.078v1.809h2.509v-14.192h-2.509zm5.851 4.682h2.461v-20.695h-2.461zm23.064-8.434c-2.352-.636-3.631-1.186-3.631-2.262 0-.758.736-1.577 2.34-1.577 1.58 0 2.593.831 2.786 2.286v.025h2.485v-.037c-.241-2.861-2.171-4.499-5.271-4.499-1.327 0-2.545.404-3.426 1.137-.856.709-1.327 1.675-1.327 2.702 0 2.139 1.231 3.361 4.126 4.095 2.702.697 3.992 1.259 3.992 2.518 0 .953-.868 1.98-2.786 1.98-1.966 0-3.04-.745-3.45-2.408v-.024h-2.376v.036c.277 2.958 2.436 4.719 5.778 4.719 1.544 0 2.871-.453 3.848-1.32.941-.832 1.447-2.005 1.447-3.289 0-2.017-1.315-3.202-4.535-4.082zm14.885-6.039c-2.087 0-4.017 1.027-5.018 2.078v-8.288h-2.509v20.683h2.509v-9.681c1.074-1.528 2.774-2.518 4.318-2.518 1.87 0 2.98 1.075 2.98 2.884v9.315h2.509v-9.779c0-2.897-1.834-4.694-4.789-4.694zm-25.018-5.256c-.941 0-1.701.77-1.701 1.723 0 .954.76 1.724 1.701 1.724s1.701-.77 1.701-1.724c.012-.953-.76-1.723-1.701-1.723zm-7.129 19.729h2.461v-20.695h-2.461zm5.875 0h2.509v-14.192h-2.509z" fill-rule="nonzero" transform="matrix(4.16667 0 0 4.14999 30 156.5)"/></svg>