<svg xmlns="http://www.w3.org/2000/svg" width="145" height="35" viewBox="0 0 145 35">
    <g fill="none" fill-rule="evenodd">
        <g fill="#17468F" fill-rule="nonzero">
            <g>
                <g>
                    <path d="M16.686 33.418c-.229.55-.412.87-.869.87s-.64-.32-.87-.87L3.466 5.65C2.275 2.767.263 3.957.263 2.95c0-.274.183-.502.549-.502 2.424 0 4.849.091 7.273.091 2.334 0 4.667-.091 7-.091.686 0 1.006.091 1.006.457 0 .869-2.79.366-2.79 2.562 0 .87.732 2.745 6.405 17.064h.09c3.981-10.11 5.49-13.13 5.49-15.234 0-4.574-3.933-3.156-3.933-4.346 0-.366.183-.503.777-.503 1.602 0 3.477.092 4.666.092 2.105 0 3.523-.092 5.078-.092.412 0 .733.092.733.366 0 1.19-3.34-.183-5.948 6.222l-9.973 24.382zM37.68 15.394c0-1.464-.457-1.876-1.372-1.876-1.464 0-2.561.778-2.561 2.15 0 1.053.182 2.196.182 3.294 0 2.058-1.418 3.523-3.888 3.523-2.517 0-3.523-1.098-3.523-2.791 0-3.66 6.725-7.274 12.672-7.274 5.032 0 6.816 2.058 6.816 5.764v12.307c0 .548.275.87.778.87 1.235 0 1.418-1.648 2.104-1.648.229 0 .412.229.412.411 0 .458-1.555 3.797-6.45 3.797-2.974 0-4.3-1.098-4.849-2.928-2.47 1.968-4.62 2.928-6.908 2.928-3.843 0-5.398-2.195-5.398-4.163 0-3.568 2.654-4.666 11.985-7.96v-6.404zm0 7.365c-2.836 1.144-3.66 2.47-3.66 4.53 0 3.019.687 3.796 1.876 3.796.778 0 1.373-.549 1.784-.96v-7.366zM99.77 12.42c5.856 0 9.105 3.934 9.105 6.908 0 2.607-1.556 3.797-3.569 3.797-1.876 0-3.477-1.327-3.477-3.797 0-1.464.275-2.974.275-3.889 0-1.509-.915-2.196-2.288-2.196-2.195 0-3.933 2.929-3.933 6.405 0 6.13 3.66 9.332 7.136 9.332 4.666 0 4.437-2.973 5.444-2.973.32 0 .412.183.412.458 0 1.19-2.745 7.457-10.248 7.457-4.941 0-10.156-3.614-10.156-10.293 0-6.543 5.582-11.209 11.3-11.209zM120.129 30.857c0 2.241 2.653 1.372 2.653 2.333 0 .228-.091.457-.503.457-1.739 0-3.705-.092-6.039-.092-2.332 0-4.3.092-6.038.092-.412 0-.503-.229-.503-.457 0-.961 2.653-.092 2.653-2.333V5.558c0-2.287-2.837-1.692-2.837-2.562 0-1.052 2.745.138 10.614-2.836v30.697zm1.555-8.464c4.118-3.523 5.125-4.437 5.125-5.993 0-3.157-2.654-2.287-2.654-3.294 0-.32.228-.412.64-.412.87 0 2.745.092 4.621.092 2.242 0 3.843-.092 4.758-.092.548 0 .732.184.732.458 0 .915-3.157-.046-7.64 4.94l7.32 12.81c1.325 2.288 3.019 1.235 3.019 2.288 0 .365-.23.457-1.144.457-1.784 0-3.614-.092-5.764-.092-1.876 0-3.706.092-5.582.092-.457 0-.732-.092-.732-.503 0-.732 1.556-.275 1.556-1.601 0-.686-.458-1.51-.87-2.334l-3.385-6.816zM86.227 9.64c.097.276.505.203.503-.09l-.061-6.952c0-.006-.001-.034-.015-.064-.026-.052-.08-.086-.142-.085-5.577.045-11.2.09-17.047.09-3.34 0-5.947-.092-7.731-.092-.504 0-.686.137-.686.55 0 1.463 3.843-.275 3.843 2.927v3.528c0 .286.283.492.55.392.8-.298 1.66-.462 2.557-.462 2.074 0 3.953.866 5.336 2.27.26.262.706.071.706-.297V3.974c0-.235.19-.426.425-.417 2.121.072 5.049.41 6.838 1.286 1.669.818 2.679 1.312 3.625 2.453.715.862 1.075 1.708 1.3 2.344zM63.94 33.647c-.413 0-.504-.229-.504-.457 0-.961 2.287-.092 2.287-2.333V18.002c0-2.013-1.052-2.745-2.15-2.745-1.19 0-2.47.869-3.431 1.784v13.816c0 2.241 2.287 1.372 2.287 2.333 0 .228-.091.457-.502.457-1.373 0-3.34-.092-5.673-.092s-4.3.092-6.039.092c-.412 0-.503-.229-.503-.457 0-.961 2.653-.092 2.653-2.333V17.773c0-3.11-3.019-2.562-3.019-3.431 0-.732 2.882.092 10.796-1.921v3.156c3.203-2.47 5.033-3.156 7.549-3.156 4.575 0 5.81 2.836 5.81 6.816v11.62c0 1.193.751 1.503 1.454 1.679 1.935.131 4.4-.505 5.948-1.273 1.665-.826 2.672-1.326 3.613-2.47.71-.866 1.066-1.714 1.288-2.352.096-.276.504-.204.503.088l-.026 6.952c0 .007 0 .034-.015.064-.025.052-.079.087-.142.087l-22.185.015z" transform="translate(-1 -27) translate(1 27)"/>
                    <path d="M80.987 22.415c.082.556.082 1.079.535 1.079.246 0 .411-.07.411-.453V11.635c0-.383-.165-.452-.411-.452-.453 0-.453.522-.535 1.078-.318 2.086-2.33 3.865-5.05 4.331-.101.018-.149.097-.14.186.033.338.046.47.083.739.008.064.064.116.139.13 2.614.5 4.587 2.29 4.968 4.768z" transform="translate(-1 -27) translate(1 27)"/>
                </g>
                <path d="M137.604 6.005c0-1.982 1.575-3.557 3.566-3.557 1.992 0 3.567 1.575 3.567 3.557s-1.576 3.557-3.567 3.557c-1.99 0-3.566-1.575-3.566-3.557zm.58 0c0 1.675 1.357 2.978 2.986 2.978 1.63 0 2.988-1.303 2.988-2.978 0-1.683-1.358-2.978-2.988-2.978-1.629 0-2.987 1.295-2.987 2.978zm4.616 2.028h-.66l-1.024-1.847h-.742v1.847h-.58V4.032h1.684c.725 0 1.376.217 1.376 1.059 0 .788-.534 1.077-1.068 1.095l1.014 1.847zm-2.426-3.422v.996h.615c.543 0 1.286.09 1.286-.453 0-.507-.425-.543-.906-.543h-.995z" transform="translate(-1 -27) translate(1 27)"/>
            </g>
        </g>
    </g>
</svg>
