<?xml version="1.0" encoding="UTF-8"?>
<svg id="Layer_2" data-name="Layer 2" xmlns="http://www.w3.org/2000/svg" viewBox="0 0 445.38 69.18">
  <defs>
    <style>
      .cls-1 {
        fill: #fff;
      }
    </style>
  </defs>
  <g id="Layer_1" data-name="Layer 1">
    <g>
      <path class="cls-1" d="M133.61,16.15c-15.59,0-24.36,9.56-24.36,26.52s8.77,26.5,24.36,26.5c11.58,0,20.26-4.93,23-15.81.22-.88-.46-1.74-1.35-1.74h-6.92c-.65,0-1.21.44-1.35,1.07-.59,2.52-3.08,8.68-13.38,8.68-7.53,0-12.91-4.93-14.39-13.68-.14-.85.52-1.63,1.38-1.63h35.98c.77,0,1.39-.62,1.39-1.39v-1.52c0-17.34-8.77-27-24.36-27ZM146.74,38.85h-26.15c-.86,0-1.52-.77-1.38-1.61,1.39-8.44,6.52-13.19,14.51-13.19s13.02,4.75,14.4,13.19c.14.85-.52,1.61-1.38,1.61Z"/>
      <path class="cls-1" d="M106.19,17.4h-5.26c-4.78,0-9.19,2.55-11.58,6.69-.66,1.16-2.43.68-2.43-.65v-4.71c0-.77-.62-1.39-1.39-1.39h-7.65c-.77,0-1.39.62-1.39,1.39v47.88c0,.77.62,1.39,1.39,1.39h7.65c.77,0,1.39-.62,1.39-1.39v-29.82c0-5.75,4.66-10.41,10.4-10.41h5.18c.47,0,.9-.26,1.13-.66l3.7-6.36c.51-.87-.12-1.95-1.13-1.95Z"/>
      <rect class="cls-1" x="55.14" y="17.32" width="10.14" height="50.68" rx="1.39" ry="1.39"/>
      <rect class="cls-1" x="54.71" width="10.98" height="11.49" rx="1.47" ry="1.47"/>
      <path class="cls-1" d="M45.45,0H1.39C.62,0,0,.62,0,1.39v65.2c0,.77.62,1.39,1.39,1.39h7.73c.77,0,1.39-.62,1.39-1.39v-29.89c0-.72.59-1.3,1.3-1.3l24.58-.04c.42,0,.81-.18,1.07-.51l3.57-6.18c.75-.91.1-2.28-1.07-2.28h-21.31c-1.07,0-2.09.39-2.9,1.11-.96.86-2.23,1.99-2.82,2.52-.94.83-2.41.16-2.41-1.09V10.84c0-.77.62-1.39,1.39-1.39h29.77c.47,0,.9-.25,1.13-.65l3.75-6.56c.7-.91.05-2.24-1.11-2.24Z"/>
      <path class="cls-1" d="M345.1,49.96h-7.29c-.64,0-1.18.43-1.34,1.04-1.54,6.08-6.08,9.49-12.54,9.49-9.16,0-14.63-6.34-14.63-17.84s5.36-17.84,14.63-17.84,11.78,6.53,12.45,9.11c.16.6.72,1.03,1.34,1.03h7.35c.88,0,1.54-.81,1.38-1.67-2.17-11.03-10.29-17.14-22.91-17.14-15.69,0-24.36,9.55-24.36,26.5s8.68,26.5,24.36,26.5c12.65,0,20.86-6.3,22.94-17.54.16-.86-.51-1.65-1.38-1.65Z"/>
      <path class="cls-1" d="M375.83,40.86h0c-.51-.57-.47-1.44.09-1.95l21.38-19.52c.81-.73.29-2.07-.81-2.07h-9.15c-.34,0-.68.13-.94.36l-19.34,17.67c-.65.6-1.7.13-1.7-.75V1.38c0-.77-.61-1.38-1.38-1.38h-7.38c-.77,0-1.38.61-1.38,1.38v65.24c0,.77.61,1.38,1.38,1.38h7.38c.77,0,1.38-.61,1.38-1.38v-21.08c0-.94,1.16-1.38,1.78-.68l20.13,22.68c.26.29.64.47,1.03.47h9.28c1.03,0,1.57-1.22.88-1.99l-22.64-25.16Z"/>
      <path class="cls-1" d="M425.89,38.1h0c-10.53-1.96-12.96-3.33-12.96-7.52s4.38-6.82,9.85-6.82c9.6,0,11.35,5.61,11.65,8.15.08.7.69,1.21,1.38,1.21h7.05c.82,0,1.46-.7,1.39-1.51-.78-9.71-8.39-15.44-21.47-15.44-11.7,0-19.78,5.65-19.78,14.82,0,7.79,4.1,12.86,19.88,15.5,10.92,1.76,12.37,3.6,12.37,7.9,0,4.78-4.19,7.21-11.01,7.21-10.36.01-12.04-6.18-12.27-8.94-.05-.73-.65-1.29-1.39-1.29h-7.12c-.81,0-1.46.69-1.39,1.5.79,11.41,9.72,16.33,21.96,16.33s21.34-5.46,21.34-15.39c0-8.57-4.29-12.76-19.49-15.69Z"/>
      <rect class="cls-1" x="224.11" width="10.14" height="67.99" rx="1.39" ry="1.39"/>
      <path class="cls-1" d="M267.98,16.15c-15.69,0-25.05,11.4-25.05,26.5s9.36,26.5,25.05,26.5,25.05-11.4,25.05-26.5-9.36-26.5-25.05-26.5ZM267.98,60.88c-10.04,0-14.72-7.7-14.72-18.23s4.67-18.23,14.72-18.23,14.72,7.7,14.72,18.23-4.67,18.23-14.72,18.23Z"/>
      <path class="cls-1" d="M194.71,16.24h0c-6.84.01-12.35,2.6-15.6,7.12-.55.75-1.74.35-1.74-.57V1.39c0-.77-.62-1.39-1.39-1.39h-7.35c-.77,0-1.39.62-1.39,1.39v65.2c0,.77.62,1.39,1.39,1.39h6.96c.77,0,1.39-.62,1.39-1.39v-5.46c0-.91,1.18-1.22,1.67-.46,3.27,5.15,8.89,8.39,15.87,8.39,13.84,0,22.31-9.75,22.31-26.41s-8.57-26.41-22.12-26.41ZM191.89,60.69c-9.07,0-14.43-6.92-14.43-18.03s5.36-18.13,14.43-18.13,14.63,7.01,14.63,18.13-5.46,18.03-14.63,18.03Z"/>
    </g>
  </g>
</svg>