<?xml version="1.0" encoding="UTF-8"?>
<svg id="Layer_2" xmlns="http://www.w3.org/2000/svg" version="1.1" viewBox="0 0 445.4 69.2">
  <!-- Generator: Adobe Illustrator 29.8.1, SVG Export Plug-In . SVG Version: 2.1.1 Build 2)  -->
  <defs>
    <style>
      .st0 {
        fill: #212647;
      }
    </style>
  </defs>
  <g id="Layer_1">
    <g>
      <path class="st0" d="M133.6,16.1c-15.6,0-24.4,9.6-24.4,26.5s8.8,26.5,24.4,26.5,20.3-4.9,23-15.8c.2-.9-.5-1.7-1.4-1.7h-6.9c-.7,0-1.2.4-1.4,1.1-.6,2.5-3.1,8.7-13.4,8.7s-12.9-4.9-14.4-13.7c-.1-.8.5-1.6,1.4-1.6h36c.8,0,1.4-.6,1.4-1.4v-1.5c0-17.3-8.8-27-24.4-27ZM146.7,38.9h-26.2c-.9,0-1.5-.8-1.4-1.6,1.4-8.4,6.5-13.2,14.5-13.2s13,4.7,14.4,13.2c.1.8-.5,1.6-1.4,1.6Z"/>
      <path class="st0" d="M106.2,17.4h-5.3c-4.8,0-9.2,2.6-11.6,6.7-.7,1.2-2.4.7-2.4-.7v-4.7c0-.8-.6-1.4-1.4-1.4h-7.7c-.8,0-1.4.6-1.4,1.4v47.9c0,.8.6,1.4,1.4,1.4h7.7c.8,0,1.4-.6,1.4-1.4v-29.8c0-5.8,4.7-10.4,10.4-10.4h5.2c.5,0,.9-.3,1.1-.7l3.7-6.4c.5-.9-.1-2-1.1-2Z"/>
      <rect class="st0" x="55.1" y="17.3" width="10.1" height="50.7" rx="1.4" ry="1.4"/>
      <rect class="st0" x="54.7" width="11" height="11.5" rx="1.5" ry="1.5"/>
      <path class="st0" d="M45.4,0H1.4C.6,0,0,.6,0,1.4v65.2c0,.8.6,1.4,1.4,1.4h7.7c.8,0,1.4-.6,1.4-1.4v-29.9c0-.7.6-1.3,1.3-1.3h24.6c.4,0,.8-.2,1.1-.5l3.6-6.2c.8-.9.1-2.3-1.1-2.3h-21.3c-1.1,0-2.1.4-2.9,1.1-1,.9-2.2,2-2.8,2.5-.9.8-2.4.2-2.4-1.1V10.8c0-.8.6-1.4,1.4-1.4h29.8c.5,0,.9-.2,1.1-.7l3.7-6.6c.7-.9,0-2.2-1.1-2.2Z"/>
      <path class="st0" d="M345.1,50h-7.3c-.6,0-1.2.4-1.3,1-1.5,6.1-6.1,9.5-12.5,9.5-9.2,0-14.6-6.3-14.6-17.8s5.4-17.8,14.6-17.8,11.8,6.5,12.5,9.1c.2.6.7,1,1.3,1h7.4c.9,0,1.5-.8,1.4-1.7-2.2-11-10.3-17.1-22.9-17.1s-24.4,9.6-24.4,26.5,8.7,26.5,24.4,26.5,20.9-6.3,22.9-17.5c.2-.9-.5-1.7-1.4-1.7Z"/>
      <path class="st0" d="M375.8,40.9h0c-.5-.6-.5-1.4,0-2l21.4-19.5c.8-.7.3-2.1-.8-2.1h-9.1c-.3,0-.7.1-.9.4l-19.3,17.7c-.7.6-1.7.1-1.7-.8V1.4c0-.8-.6-1.4-1.4-1.4h-7.4c-.8,0-1.4.6-1.4,1.4v65.2c0,.8.6,1.4,1.4,1.4h7.4c.8,0,1.4-.6,1.4-1.4v-21.1c0-.9,1.2-1.4,1.8-.7l20.1,22.7c.3.3.6.5,1,.5h9.3c1,0,1.6-1.2.9-2l-22.6-25.2Z"/>
      <path class="st0" d="M425.9,38.1h0c-10.5-2-13-3.3-13-7.5s4.4-6.8,9.8-6.8c9.6,0,11.3,5.6,11.6,8.1,0,.7.7,1.2,1.4,1.2h7.1c.8,0,1.5-.7,1.4-1.5-.8-9.7-8.4-15.4-21.5-15.4s-19.8,5.6-19.8,14.8,4.1,12.9,19.9,15.5c10.9,1.8,12.4,3.6,12.4,7.9s-4.2,7.2-11,7.2c-10.4,0-12-6.2-12.3-8.9,0-.7-.7-1.3-1.4-1.3h-7.1c-.8,0-1.5.7-1.4,1.5.8,11.4,9.7,16.3,22,16.3s21.3-5.5,21.3-15.4-4.3-12.8-19.5-15.7Z"/>
      <rect class="st0" x="224.1" width="10.1" height="68" rx="1.4" ry="1.4"/>
      <path class="st0" d="M268,16.1c-15.7,0-25,11.4-25,26.5s9.4,26.5,25,26.5,25-11.4,25-26.5-9.4-26.5-25-26.5ZM268,60.9c-10,0-14.7-7.7-14.7-18.2s4.7-18.2,14.7-18.2,14.7,7.7,14.7,18.2-4.7,18.2-14.7,18.2Z"/>
      <path class="st0" d="M194.7,16.2h0c-6.8,0-12.3,2.6-15.6,7.1-.5.8-1.7.4-1.7-.6V1.4c0-.8-.6-1.4-1.4-1.4h-7.4c-.8,0-1.4.6-1.4,1.4v65.2c0,.8.6,1.4,1.4,1.4h7c.8,0,1.4-.6,1.4-1.4v-5.5c0-.9,1.2-1.2,1.7-.5,3.3,5.2,8.9,8.4,15.9,8.4,13.8,0,22.3-9.7,22.3-26.4s-8.6-26.4-22.1-26.4ZM191.9,60.7c-9.1,0-14.4-6.9-14.4-18s5.4-18.1,14.4-18.1,14.6,7,14.6,18.1-5.5,18-14.6,18Z"/>
    </g>
  </g>
</svg>