<svg preserveAspectRatio="none" width="100%" height="100%" overflow="visible" style="display: block;" viewBox="0 0 135 36" fill="none" xmlns="http://www.w3.org/2000/svg">
<g id="Frame" clip-path="url(#clip0_0_116)">
<path id="Vector" d="M21 10.5C21 4.701 25.701 0 31.5 0H46.5C52.299 0 57 4.701 57 10.5V25.5C57 31.299 52.299 36 46.5 36H31.5C25.701 36 21 31.299 21 25.5V10.5Z" fill="var(--fill-0, white)"/>
<path id="Vector_2" d="M35.1123 24.75L40.3758 10.5H41.9208L36.6581 24.75H35.1123Z" fill="var(--fill-0, black)"/>
<path id="Vector_3" d="M0 9.75C0 4.365 4.365 0 9.75 0C15.135 0 19.5 4.365 19.5 9.75V26.25C19.5 31.635 15.135 36 9.75 36C4.365 36 0 31.635 0 26.25V9.75Z" fill="var(--fill-0, white)"/>
<path id="Vector_4" d="M8.8125 22.4995V20.6245H10.6875V22.4995H8.8125Z" fill="var(--fill-0, black)"/>
<path id="Vector_5" d="M58.5 18C58.5 8.05875 66.0412 0 75.3442 0H118.156C127.459 0 135 8.05875 135 18C135 27.9413 127.459 36 118.156 36H75.3442C66.0412 36 58.5 27.9413 58.5 18Z" fill="var(--fill-0, white)"/>
<path id="Vector_6" d="M111.08 22.4055V14.0895H112.548V15.3435C113.076 14.4195 114.149 13.875 115.337 13.875C117.135 13.875 118.389 15.0135 118.389 17.2245V22.4055H116.937V17.307C116.937 15.855 116.112 15.096 114.908 15.096C113.604 15.096 112.548 16.1355 112.548 17.604V22.4055H111.08ZM101.821 22.4055L100.287 14.0895H101.673L102.762 20.9535L104.197 16.4325H105.567L106.986 20.904L108.091 14.0895H109.477L107.943 22.4055H106.293L104.89 18.0825L103.471 22.4055H101.821ZM95.3351 22.62C92.8106 22.62 91.3256 20.739 91.3256 18.2475C91.3256 15.7725 92.8106 13.875 95.3351 13.875C97.8596 13.875 99.3446 15.7725 99.3446 18.2475C99.3446 20.739 97.8596 22.62 95.3351 22.62ZM95.3351 21.399C97.1501 21.399 97.8431 19.848 97.8431 18.231C97.8431 16.6305 97.1501 15.096 95.3351 15.096C93.5201 15.096 92.8271 16.6305 92.8271 18.231C92.8271 19.848 93.5201 21.399 95.3351 21.399ZM86.1318 22.62C83.6898 22.62 82.1553 20.7555 82.1553 18.2475C82.1553 15.756 83.6898 13.875 86.1318 13.875C88.1943 13.875 90.0093 15.0465 89.8113 18.627H83.6568C83.7723 20.1615 84.4818 21.4155 86.1318 21.4155C87.2373 21.4155 87.9633 20.739 88.2108 19.9635H89.6628C89.4318 21.3495 88.1283 22.62 86.1318 22.62ZM83.6898 17.5215H88.3923C88.2768 15.855 87.5013 15.0795 86.1318 15.0795C84.6303 15.0795 83.8878 16.1685 83.6898 17.5215ZM75.1113 22.4055V14.0895H76.6128V15.492C77.1408 14.568 78.0483 14.0895 78.9888 14.0895H80.9853V15.492H78.8733C77.5533 15.492 76.6128 16.35 76.6128 18.0165V22.4055H75.1113Z" fill="var(--fill-0, black)"/>
</g>
<defs>
<clipPath id="clip0_0_116">
<rect width="135" height="36" fill="white"/>
</clipPath>
</defs>
</svg>
