<svg width="950" height="395" viewBox="0 0 950 395" fill="none" xmlns="http://www.w3.org/2000/svg"><path d="M862.775 372.005c16.805-15.732 7.073-37.762-8.627-38.866-6.54-.46-12.352 2.686-17.601 6.614-9.676 7.243-9.62-3.027-19.622-9.814-16.378-11.113-32.254 31.573-54.528 40.032-1.914.726-2.525 4.034-.697 4.955 40.979 20.644 79.474 17.3 101.075-2.921Z" fill="url(#paint0_radial_537_5091)" stroke="#000" stroke-width="2" stroke-linecap="round"/><path d="M833.867 373.38c10.184-9.534 4.287-22.885-5.228-23.554-3.964-.278-7.486 1.628-10.667 4.009-5.864 4.389-5.83-1.835-11.892-5.948-9.264-6.286-18.263 15.832-30.398 22.975-1.764 1.039-2.277 4.71-.42 5.572 23.835 11.07 45.981 8.764 58.605-3.054Z" fill="url(#paint1_radial_537_5091)" stroke="#000" stroke-width="2" stroke-linecap="round"/><path d="M748.176 69.67c-37.64-12.013-105.363 38.653-88.111 99.036 9.201 32.202 45.789 58.787 12.031 82.76 36.657 32.168 162.884 21.864 220.093 18.757 10.158-.551 20.599-1.234 29.578-6.014 31.321-16.672 36.705-57.451 11.403-63.291-16.977-3.919-51.487-1.98-34.886-23.361 23.512-30.283 14.192-43.898-12.603-75.731-26.796-31.834 14.388-35.411 4.953-50.639-5.894-9.512-38.284-16.975-58.388 7.667-18.067 22.147-7.652 48.513-17.715 65.779-7.012 12.032-16.925 9.568-23.228 3.167-11.022-11.193-5.487-46.117-43.127-58.13Z" fill="#F087FF" /><path d="M748.176 69.67c-37.64-12.013-105.363 38.653-88.111 99.036 9.201 32.202 45.789 58.787 12.031 82.76 36.657 32.168 162.884 21.864 220.093 18.757 10.158-.551 20.599-1.234 29.578-6.014 31.321-16.672 36.705-57.451 11.403-63.291-16.977-3.919-51.487-1.98-34.886-23.361 23.512-30.283 14.192-43.898-12.603-75.731-26.796-31.834 14.388-35.411 4.953-50.639-5.894-9.512-38.284-16.975-58.388 7.667-18.067 22.147-7.652 48.513-17.715 65.779-7.012 12.032-16.925 9.568-23.228 3.167-11.022-11.193-5.487-46.117-43.127-58.13Z" fill="url(#paint2_radial_537_5091)" /><path d="M748.176 69.67c-37.64-12.013-105.363 38.653-88.111 99.036 9.201 32.202 45.789 58.787 12.031 82.76 36.657 32.168 162.884 21.864 220.093 18.757 10.158-.551 20.599-1.234 29.578-6.014 31.321-16.672 36.705-57.451 11.403-63.291-16.977-3.919-51.487-1.98-34.886-23.361 23.512-30.283 14.192-43.898-12.603-75.731-26.796-31.834 14.388-35.411 4.953-50.639-5.894-9.512-38.284-16.975-58.388 7.667-18.067 22.147-7.652 48.513-17.715 65.779-7.012 12.032-16.925 9.568-23.228 3.167-11.022-11.193-5.487-46.117-43.127-58.13Z" stroke="#000" stroke-width="2" stroke-linecap="round" /><path d="M780.213 158.873c-16.097-10.876-39.614 5.751-18.262 40.191 21.352 34.439 76.451 59.665 118.006 58.557 31.203-.832 48.126-28.988 23.663-40.937-18.718-9.144-36.473-15.751-26.208-40.997 16.041-39.452-12.904-67.193-29.968-56.169-15.49 10.008-11.509 35.201-20.275 50.242-15.203 26.087-41.069-6.91-46.956-10.887Z" fill="#FFD514" /><path d="M780.213 158.873c-16.097-10.876-39.614 5.751-18.262 40.191 21.352 34.439 76.451 59.665 118.006 58.557 31.203-.832 48.126-28.988 23.663-40.937-18.718-9.144-36.473-15.751-26.208-40.997 16.041-39.452-12.904-67.193-29.968-56.169-15.49 10.008-11.509 35.201-20.275 50.242-15.203 26.087-41.069-6.91-46.956-10.887Z" fill="url(#paint3_radial_537_5091)" /><path d="M780.213 158.873c-16.097-10.876-39.614 5.751-18.262 40.191 21.352 34.439 76.451 59.665 118.006 58.557 31.203-.832 48.126-28.988 23.663-40.937-18.718-9.144-36.473-15.751-26.208-40.997 16.041-39.452-12.904-67.193-29.968-56.169-15.49 10.008-11.509 35.201-20.275 50.242-15.203 26.087-41.069-6.91-46.956-10.887Z" stroke="#000" stroke-width="2" stroke-linecap="round" /><path opacity=".5" d="M768.688 193.02c-15.798-21.801.77-31.811 12.45-24.783" stroke="#F2EAD4" stroke-width="11.912" stroke-linecap="round" /><path d="M919.073 168.983c.732 1.15 2.295 2.235 4.517 3.131 2.188.883 4.873 1.526 7.657 1.882 2.782.356 5.625.421 8.12.171 2.521-.253 4.579-.818 5.874-1.642 2.503-1.592 3.498-5.079 3.295-9.203-.201-4.065-1.559-8.344-3.256-11.011-3.279-5.155-10.394-6.601-15.925-3.082-2.812 1.789-6.256 5.523-8.548 9.519-1.141 1.991-1.965 3.991-2.296 5.795-.333 1.808-.154 3.313.562 4.44ZM874.311 16.166c1.529 5.158 5.27 8.149 9.86 10.823 1.146.668 2.334 1.31 3.548 1.961l.346.186c1.099.59 2.218 1.19 3.324 1.817 2.445 1.386 4.875 2.928 7.03 4.869 8.773 7.903 13.298 13.534 16.107 17.03l.489.609c1.42 1.761 2.255 2.724 2.976 3.175.317.199.571.268.823.268.27.001.622-.077 1.13-.313.108-.05.429-.348.638-1.448.194-1.018.235-2.448.098-4.225-.273-3.54-1.237-8.259-2.87-13.393-3.275-10.29-9.163-22.012-17.277-29.122l.659-.752-.659.752c-8.089-7.088-15.44-7.479-20.278-5.069-4.9 2.442-7.434 7.807-5.944 12.832ZM766.49 63.639c-3.891-2.674-5.237-6.777-5.1-11.034.138-4.284 1.786-8.606 3.731-11.435 1.888-2.747 5.298-5.011 8.948-6.11 3.667-1.104 7.327-.963 9.803.739 3.724 2.559 5.246 6.031 5.285 9.712.039 3.726-1.448 7.713-3.857 11.151-2.408 3.438-5.673 6.232-9.067 7.627-3.375 1.386-6.804 1.37-9.743-.65Z" fill="#F087FF" stroke="#000" stroke-width="2" /><path d="M748.658 143.934c-8.499-5.841-5.714-17.913-1.627-23.86 4.087-5.947 14.49-9.513 20.142-5.629 16.032 11.019-5.379 38.517-18.515 29.489Z" fill="url(#paint4_radial_537_5091)" stroke="#000" stroke-width="2" stroke-linecap="round" /><path d="M853.885 95.304c11.279-8.412-4.361-33.736-11.576-16.944-7.215 16.793 4.047 22.56 11.576 16.944Z" fill="url(#paint5_radial_537_5091)" stroke="#000" stroke-width="2" stroke-linecap="round" /><path d="M624.209 261.457a20 20 0 0 0 17.778-9.613l57.34-94.495a10 10 0 0 1 11.765-4.281l135.449 46.003c6.081 2.065 8.666 9.244 5.299 14.712l-85.485 138.824a19.983 19.983 0 0 0-2.205 5.006l-.07.245a5.996 5.996 0 0 1-4.572 4.235l-131.553 26.814-139.656-124.446 1.295-4.545a4.001 4.001 0 0 1 3.983-2.902l130.632 4.443Z" fill="#F087FF" stroke="#000" stroke-width="2" stroke-linecap="round" /><path d="M624.209 261.457a20 20 0 0 0 17.778-9.613l57.359-94.526a10 10 0 0 1 11.723-4.295l133.077 44.545c6.108 2.044 8.718 9.245 5.339 14.729l-76.669 124.428a29.996 29.996 0 0 1-19.576 13.664l-114.764 23.279a11.004 11.004 0 0 0-8.392 7.766l-2.129 7.473-137.918-120.05a5.002 5.002 0 0 1-1.526-5.142l1.083-3.799a4.001 4.001 0 0 1 3.983-2.902l130.632 4.443Z" fill="#9945FF" stroke="#000" stroke-width="2" stroke-linecap="round" /><path d="M651.081 267.282c-4.827-2.831-6.391-9.071-3.472-13.844l54.852-89.668a9.998 9.998 0 0 1 11.9-4.196l114.531 41c5.969 2.137 8.468 9.218 5.163 14.628l-66.57 108.971c-2.842 4.654-8.889 6.172-13.593 3.413l-102.811-60.304Z" fill="#FFD613" stroke="#000" stroke-width="2" stroke-linecap="round" /><g style="mix-blend-mode:multiply" ><path d="M530.351 566.543c-2.281-1.795-.937-5.46 1.963-5.356l103.063 3.714c2.881.104 5.68.984 8.102 2.547l103.653 66.911c2.279 1.472 1.591 4.972-1.076 5.47L654.152 657a15.997 15.997 0 0 1-12.832-3.153l-110.969-87.304Z" fill="url(#paint6_linear_537_5091)" transform="translate(-11.6 -297)"/><path d="M518.751 269.543c-2.28-1.795-.937-5.46 1.963-5.356l103.063 3.714c2.881.104 5.68.984 8.102 2.547l103.653 66.91c2.28 1.473 1.591 4.973-1.076 5.47L642.552 360a15.997 15.997 0 0 1-12.832-3.153l-110.969-87.304Z" stroke="#000" stroke-width="2"/></g><path d="M547.623 245.792a2.673 2.673 0 0 1 1.888-2.758l1.008-.306a2.673 2.673 0 0 1 2.608.611l12.453 11.728a6.338 6.338 0 0 1 1.707 2.733l3.899 12.529a2.667 2.667 0 0 1-.248 2.147l-.625 1.063a2.672 2.672 0 0 1-3.675.939l-14.825-8.875a6.34 6.34 0 0 1-3.067-4.964l-1.123-14.847Z" fill="#1FCFF1" stroke="#000" stroke-width="2" /><path d="M124.667 302.419a2.671 2.671 0 0 1 3.317.408l.736.754c.668.685.919 1.676.657 2.597l-4.686 16.451a6.338 6.338 0 0 1-1.641 2.774l-9.331 9.224a2.665 2.665 0 0 1-2.021.768l-1.231-.066a2.67 2.67 0 0 1-2.524-2.831l1.06-17.246a6.344 6.344 0 0 1 2.997-5.007l12.667-7.826Z" fill="#FFD613" stroke="#000" stroke-width="2" /><path d="M551.947 247.208c-.163-2.161 2.177-3.607 4.036-2.494l11.92 7.135a6.34 6.34 0 0 1 3.067 4.964l.81 10.715c.163 2.16-2.177 3.606-4.036 2.494l-11.92-7.135a6.344 6.344 0 0 1-3.067-4.965l-.81-10.714Z" fill="#1FCFF1" stroke="#000" stroke-width="2" /><path d="M125.401 306.911c1.843-1.139 4.203.274 4.07 2.436l-.852 13.866a6.341 6.341 0 0 1-2.997 5.007l-9.141 5.648c-1.843 1.139-4.204-.274-4.071-2.437l.852-13.865a6.344 6.344 0 0 1 2.997-5.007l9.142-5.648Z" fill="#FFD613" stroke="#000" stroke-width="2" /><path d="M562.82 180.501a4 4 0 0 1-4.126-4.04l.011-1.081a4.001 4.001 0 0 1 1.067-2.677l15.196-16.387a9.011 9.011 0 0 1 4.334-2.591l17.405-4.526a4 4 0 0 1 3.31.6l1.114.785a4 4 0 0 1 1.036 5.473l-13.061 19.8a9 9 0 0 1-7.227 4.04l-19.059.604Z" fill="#9945FF" stroke="#000" stroke-width="2" /><path d="M564.925 175.393c-3.242.103-5.252-3.493-3.466-6.201l10.418-15.792a8.999 8.999 0 0 1 7.227-4.039l14.626-.464c3.242-.103 5.252 3.493 3.466 6.2l-10.418 15.792a9 9 0 0 1-7.227 4.04l-14.626.464Z" fill="#9945FF" stroke="#000" stroke-width="2" /><path d="M677.884 365.675c-2.993-4.835-1.356-11.189 3.599-13.978l1.411-.794c.241-.136.496-.246.76-.329l19.079-6.013a9 9 0 0 1 9.643 2.85l20.003 24.206a3.962 3.962 0 0 1 .875 3.022 9.906 9.906 0 0 1-5.79 7.792l-23.541 10.505a9 9 0 0 1-11.32-3.482l-14.719-23.779Z" fill="#1FCFF1" stroke="#000" stroke-width="2" /><path d="M677.828 365.589c-2.974-4.806-1.378-11.12 3.522-13.935l1.529-.878a3.98 3.98 0 0 1 .809-.352l19.062-5.905a9.002 9.002 0 0 1 9.601 2.864l20.025 24.234a3.954 3.954 0 0 1 .875 3.022 9.908 9.908 0 0 1-5.789 7.792l-23.542 10.505a9.001 9.001 0 0 1-11.32-3.482l-14.772-23.865Z" fill="url(#paint7_linear_537_5091)" stroke="#000" stroke-width="2" /><path d="M684.479 362.348c-3.229-5.15-1.154-11.966 4.397-14.443l17.622-7.864a9.001 9.001 0 0 1 11.294 3.439l13.273 21.175c3.229 5.15 1.154 11.966-4.397 14.443l-17.622 7.864a9.001 9.001 0 0 1-11.294-3.439l-13.273-21.175Z" fill="#1FCFF1" stroke="#000" stroke-width="2" /><path d="M647.491 340.373a5 5 0 0 1-1.182-7.456l7.773-9.26a4 4 0 0 1 5.182-.821l13.028 8.134a5 5 0 0 1 1.182 7.456l-7.772 9.259a4 4 0 0 1-5.182.821l-13.029-8.133Z" fill="#19FB9B" stroke="#000" stroke-width="2" /><path d="M611.368 275.203c-1.747-1.091-.903-3.793 1.155-3.695l9.869.471c2.051.098 4.042.72 5.784 1.807l4.667 2.914c1.748 1.091.904 3.793-1.154 3.695l-9.87-.471a12.007 12.007 0 0 1-5.783-1.807l-4.668-2.914Zm-7.867 9.711c-1.747-1.091-.903-3.793 1.155-3.695l9.869.471a12 12 0 0 1 5.783 1.807l4.668 2.914c1.748 1.091.903 3.793-1.154 3.694l-9.87-.47a12.007 12.007 0 0 1-5.783-1.807l-4.668-2.914Zm33.813 8.343c-1.748-1.091-.904-3.792 1.154-3.694l9.87.471c2.05.098 4.042.72 5.783 1.807l4.667 2.914c1.748 1.091.904 3.792-1.154 3.694l-9.869-.47a11.998 11.998 0 0 1-5.784-1.808l-4.667-2.914Zm-62.745 13.452c-1.747-1.091-.903-3.793 1.155-3.695l9.869.471c2.051.098 4.042.72 5.784 1.807l4.667 2.914c1.748 1.091.904 3.793-1.154 3.694l-9.87-.47a12.007 12.007 0 0 1-5.783-1.807l-4.668-2.914Z" fill="#9945FF" stroke="#000" stroke-width="2" /><path d="M378.51 297.66c-1.966 3.284-.396 7.544 3.23 8.767l4.08 1.377a6.003 6.003 0 0 0 3.367.137l22.469-5.594a10.995 10.995 0 0 0 5.738-3.566l19.527-23.066a5.993 5.993 0 0 0 1.42-3.985l-.066-3.669a6 6 0 0 0-6.451-5.874l-27.918 2.11a11 11 0 0 0-8.609 5.319L378.51 297.66ZM72.162 344.725c3.825.131 6.793-3.304 6.109-7.069l-1.175-6.467a5.996 5.996 0 0 0-1.51-3.013L56.228 307.36a11.005 11.005 0 0 0-5.898-3.296l-36.194-7.239a5.997 5.997 0 0 0-4.174.686l-4.958 2.859a6 6 0 0 0-2.02 8.489l19.352 29.501a11.002 11.002 0 0 0 8.821 4.96l41.005 1.405Z" fill="#F087FF" stroke="#000" stroke-width="2" /><path d="M390.826 307.993c-3.235.245-5.4-3.26-3.734-6.043l15.017-25.086a8.996 8.996 0 0 1 7.043-4.352l23.575-1.782c3.234-.245 5.399 3.26 3.733 6.043l-15.016 25.086a8.997 8.997 0 0 1-7.044 4.352l-23.574 1.782ZM75.81 327.534c1.778 2.712-.24 6.303-3.483 6.192l-37.559-1.288a9 9 0 0 1-7.217-4.058l-16.963-25.859c-1.779-2.712.24-6.303 3.482-6.192l37.56 1.288a8.998 8.998 0 0 1 7.216 4.058l16.963 25.859h.001Z" fill="#F087FF" stroke="#000" stroke-width="2" /><path d="m827.989 300.672 8.257-10.332-39.985-31.01 31.728 41.342Zm50.613-98.746c-1.29-4.232-4.13-14.27-5.165-20.57l-44.973 33.159 50.138-12.589Z" fill="#19FB9B" stroke="#000" stroke-width="2" stroke-linecap="round" /><path d="M834.472 293.583c2.784-3.438 9.512-11.411 14.153-15.795l-52.653-18.702 38.5 34.497Z" fill="#19FB9B" stroke="#000" stroke-width="2" stroke-linecap="round" /><path d="M879.427 121.074a.422.422 0 0 1 .68.407 10.99 10.99 0 0 0 2.235 8.902.421.421 0 0 1-.407.679 10.984 10.984 0 0 0-8.901 2.236.423.423 0 0 1-.68-.407 10.99 10.99 0 0 0-2.235-8.902.422.422 0 0 1 .407-.68c3.151.59 6.402-.227 8.901-2.235Z" fill="#FFD512" /><path d="M870.342 124.292a11.986 11.986 0 0 0 9.712-2.439l-1.253-1.559a9.984 9.984 0 0 1-8.092 2.032l-.367 1.966Zm.556-.929a.577.577 0 0 1-.556.929l.367-1.966c-1.297-.243-2.197 1.26-1.37 2.289l1.559-1.252Zm2.439 9.712a11.986 11.986 0 0 0-2.439-9.712l-1.559 1.252a9.984 9.984 0 0 1 2.032 8.092l1.966.368Zm-.93-.557a.578.578 0 0 1 .93.557l-1.966-.368c-.243 1.298 1.26 2.197 2.289 1.37l-1.253-1.559Zm9.712-2.439a11.987 11.987 0 0 0-9.712 2.439l1.253 1.559a9.99 9.99 0 0 1 8.091-2.032l.368-1.966Zm-.556.93a.578.578 0 0 1 .556-.93l-.368 1.966c1.298.243 2.198-1.26 1.371-2.289l-1.559 1.253Zm-2.439-9.712a11.986 11.986 0 0 0 2.439 9.712l1.559-1.253a9.982 9.982 0 0 1-2.032-8.091l-1.966-.368Zm1.966.368c.243-1.298-1.26-2.198-2.289-1.371l1.253 1.559a.578.578 0 0 1-.93-.556l1.966.368Z" fill="#000" /><path d="M269.4 219.768c.752-.604 1.849.053 1.672 1l-.262 1.398a27 27 0 0 0 5.494 21.881l.891 1.109c.604.751-.053 1.848-1 1.671l-1.398-.262a27.005 27.005 0 0 0-21.881 5.494l-1.108.891c-.752.604-1.849-.052-1.672-1l.262-1.398a27.005 27.005 0 0 0-5.494-21.881l-.891-1.108c-.604-.752.052-1.849 1-1.671l1.398.261a27 27 0 0 0 21.881-5.494l1.108-.891Z" fill="#19FB9B" /><path d="m246.411 226.153.184-.983-.184.983Zm21.881-5.494-.627-.78.627.78Zm-24.279 6.904-.78.626.78-.626Zm1-1.671-.184.982.184-.982Zm5.385 24.66-.983-.184.983.184Zm-5.494-21.881.779-.626-.779.626Zm6.904 24.279.626.78-.626-.78Zm-1.672-1 .983.184-.983-.184Zm24.661-5.385.184-.983-.184.983Zm-21.881 5.494-.626-.779.626.779Zm24.279-6.903.78-.627-.78.627Zm-1 1.671-.184.983.184-.983Zm-5.385-24.661.983.184-.983-.184Zm5.494 21.881-.779.626.779-.626Zm-5.232-23.279-.983-.184.983.184Zm-1.672-1 .627.779-.627-.779Zm.689.816-.262 1.398 1.966.368.261-1.398-1.965-.368Zm5.436 24.089.891 1.109 1.559-1.253-.891-1.109-1.559 1.253Zm.854 1.171-1.398-.262-.368 1.966 1.398.262.368-1.966Zm-24.089 5.436-1.109.891 1.253 1.559 1.109-.891-1.253-1.559Zm-1.171.854.262-1.398-1.966-.368-.262 1.398 1.966.368Zm-5.436-24.089-.891-1.109-1.559 1.253.891 1.109 1.559-1.253Zm-.854-1.171 1.398.262.368-1.966-1.398-.261-.368 1.965Zm24.089-5.436 1.109-.891-1.253-1.559-1.109.891 1.253 1.559Zm-22.691 5.698a27.999 27.999 0 0 0 22.691-5.698l-1.253-1.559a25.997 25.997 0 0 1-21.07 5.291l-.368 1.966Zm-1.435-.2a.067.067 0 0 1-.012-.018c0-.001 0-.001 0 0 0 0 0-.011.009-.025.009-.015.018-.02.018-.021v.001s-.001 0 0 0c0 0 .007-.001.022.001l.368-1.965c-1.86-.348-3.149 1.805-1.964 3.28l1.559-1.253Zm6.589 23.8a27.999 27.999 0 0 0-5.698-22.691l-1.559 1.253a25.998 25.998 0 0 1 5.291 21.07l1.966.368Zm-.2 1.435a.06.06 0 0 1-.019.012h.001c-.001 0-.011 0-.026-.009-.014-.009-.02-.018-.02-.018s0 .001 0 0c0 0-.001-.007.002-.022l-1.966-.368c-.348 1.86 1.806 3.149 3.281 1.964l-1.253-1.559Zm23.8-6.589a28.002 28.002 0 0 0-22.691 5.698l1.253 1.559a26.002 26.002 0 0 1 21.07-5.291l.368-1.966Zm1.435.2a.06.06 0 0 1 .012.019v-.001c0 .001 0 .011-.009.026a.052.052 0 0 1-.019.02h.001s-.007.001-.022-.002l-.368 1.966c1.86.348 3.149-1.806 1.964-3.281l-1.559 1.253Zm-6.589-23.8a27.999 27.999 0 0 0 5.698 22.691l1.559-1.253a25.998 25.998 0 0 1-5.291-21.07l-1.966-.368Zm2.227-1.03c.348-1.86-1.805-3.149-3.28-1.964l1.253 1.559a.067.067 0 0 1 .018-.012c.001 0 .001 0 0 0a.062.062 0 0 1 .026.009c.014.009.019.018.02.019l-.001-.001s.001.007-.001.022l1.965.368Z" fill="#000" /><path d="M619.722 44.247c.525-.422 1.29.037 1.166.698a18.834 18.834 0 0 0 3.834 15.265c.421.524-.037 1.29-.698 1.166a18.84 18.84 0 0 0-15.266 3.833c-.524.421-1.289-.037-1.166-.698a18.83 18.83 0 0 0-3.833-15.265c-.421-.524.037-1.29.698-1.166a18.837 18.837 0 0 0 15.265-3.833Z" fill="#FF40C0" /><path d="M604.273 49.063a19.838 19.838 0 0 0 16.076-4.037l-1.253-1.559a17.84 17.84 0 0 1-14.455 3.63l-.368 1.966Zm.266-.444c.16.2-.014.491-.266.444l.368-1.966c-1.573-.295-2.664 1.528-1.661 2.775l1.559-1.253Zm4.036 16.076a19.837 19.837 0 0 0-4.036-16.076l-1.559 1.253a17.837 17.837 0 0 1 3.629 14.455l1.966.368Zm-.443-.265a.275.275 0 0 1 .443.265l-1.966-.368c-.294 1.574 1.528 2.664 2.776 1.662l-1.253-1.559Zm16.076-4.037a19.838 19.838 0 0 0-16.076 4.037l1.253 1.559a17.833 17.833 0 0 1 14.455-3.63l.368-1.966Zm-.266.443a.275.275 0 0 1 .266-.443l-.368 1.966c1.573.294 2.664-1.528 1.661-2.776l-1.559 1.253Zm-4.036-16.075a19.834 19.834 0 0 0 4.036 16.075l1.559-1.253a17.838 17.838 0 0 1-3.63-14.454l-1.965-.368Zm1.965.368c.295-1.574-1.527-2.665-2.775-1.662l1.253 1.559a.275.275 0 0 1-.443-.265l1.965.368Z" fill="#000" /><path opacity=".5" d="m709.829 293.992-53.917-30.873a4.001 4.001 0 0 1-1.453-5.511l11.77-19.863" stroke="#F2EAD4" stroke-width="11.912" stroke-linecap="round" /><path d="M486.468 305.563c-24.317 16.416-37.13-23.799-77.209-13.788" stroke="#F2EAD4" stroke-width="4.621" stroke-linecap="round" /><path d="m757.984 259.999-46.789-19.747-27.226 13.23-1.088 2.433 45.912 18.771 29.191-14.687Z" fill="#F087FF" /><path d="M788.8 216.546 742.012 196.8l-28.961 14.504-1.087 2.433 47.646 17.496 29.19-14.687Z" fill="#19FB9B" /><path d="m759.636 261.527-48.179-21.536-.839-26.856 47.954 19.1 1.064 29.292Z" fill="#1FCFF1" /><path d="m711.042 239.952-27.313 13.92c-1.078.55-1.014 2.111.105 2.571l43.384 17.808a4.243 4.243 0 0 0 3.447-.098l28.571-13.68m-48.194-20.521-.877-27.105m.877 27.105 48.194 20.521m-49.071-47.626 29.525-14.812a4.247 4.247 0 0 1 3.488-.144l44.173 17.766c1.133.456 1.196 2.036.102 2.58l-27.777 13.821m-49.511-19.211 49.511 19.211m0 0-.44 28.415" stroke="#020202" stroke-width="2.513" stroke-linecap="round" /><defs><radialGradient id="paint0_radial_537_5091" cx="0" cy="0" r="1" gradientUnits="userSpaceOnUse" gradientTransform="matrix(49.67243 -105.66936 200.69595 94.34197 793.98 439.946)"><stop stop-color="#FFD512"/><stop offset="1" stop-color="#F087FF"/></radialGradient><radialGradient id="paint1_radial_537_5091" cx="0" cy="0" r="1" gradientUnits="userSpaceOnUse" gradientTransform="matrix(-40.61373 42.09642 -32.32823 -31.1896 844.88 343.752)"><stop stop-color="#F087FF"/><stop offset="1" stop-color="#FFD512"/></radialGradient><radialGradient id="paint2_radial_537_5091" cx="0" cy="0" r="1" gradientUnits="userSpaceOnUse" gradientTransform="matrix(-62.03295 -443.29571 542.0119 -75.84688 894.525 428.452)"><stop stop-color="#FFD512"/><stop offset=".73" stop-color="#F087FF"/></radialGradient><radialGradient id="paint3_radial_537_5091" cx="0" cy="0" r="1" gradientUnits="userSpaceOnUse" gradientTransform="matrix(102.98679 123.53402 -109.7744 91.51578 800.974 102.897)"><stop stop-color="#F087FF"/><stop offset=".79" stop-color="#FFD512"/><stop offset="1" stop-color="#FFD512"/></radialGradient><radialGradient id="paint4_radial_537_5091" cx="0" cy="0" r="1" gradientUnits="userSpaceOnUse" gradientTransform="matrix(-36.61423 41.90078 -37.0928 -32.41286 780.49 95.678)"><stop stop-color="#F087FF"/><stop offset=".79" stop-color="#FFD512"/><stop offset="1" stop-color="#FFD512"/></radialGradient><radialGradient id="paint5_radial_537_5091" cx="0" cy="0" r="1" gradientUnits="userSpaceOnUse" gradientTransform="matrix(22.51892 23.84025 -21.10468 19.93497 834.036 67.616)"><stop stop-color="#F087FF"/><stop offset=".79" stop-color="#FFD512"/><stop offset="1" stop-color="#FFD512"/></radialGradient><linearGradient id="paint6_linear_537_5091" x1="725.85" y1="483.033" x2="646.323" y2="658.17" gradientUnits="userSpaceOnUse"><stop stop-color="#1FCFF1"/><stop offset="1" stop-color="#1FCFF1" stop-opacity="0"/></linearGradient><linearGradient id="paint7_linear_537_5091" x1="671.965" y1="591.136" x2="724.154" y2="707.251" gradientUnits="userSpaceOnUse" gradientTransform="translate(-11.6 -297)"><stop stop-color="#9945FF"/><stop offset="1" stop-color="#9945FF" stop-opacity="0"/></linearGradient></defs></svg>
