<svg preserveAspectRatio="none" width="100%" height="100%" overflow="visible" style="display: block;" viewBox="0 0 123.221 31.5" fill="none" xmlns="http://www.w3.org/2000/svg">
<g id="Frame" clip-path="url(#clip0_0_160)">
<path id="Vector" d="M32.6417 7.875C31.3851 4.51867 28.5685 1.8585 25.0147 0.671737C23.829 0.276412 22.5616 0.0448875 21.2425 0.0070875C21.2 0.004725 21.1574 0.0039375 21.1149 0.00315C21.0707 0.001575 21.0265 0.000787499 20.9823 0.000787499C20.9365 -7.0106e-10 20.8914 0 20.8456 0C20.7997 0 20.7547 -7.0106e-10 20.7088 0.000787499C20.6646 0.000787499 20.6205 0.000787502 20.5763 0.00315C20.5337 0.0039375 20.4912 0.004725 20.4487 0.0070875C19.1296 0.0448875 17.8622 0.276412 16.6765 0.671737C16.5797 0.704812 16.4839 0.737888 16.388 0.772538C12.9701 2.00419 10.2719 4.61002 9.04949 7.875C8.98778 8.04195 8.92858 8.21126 8.87438 8.38136C8.52585 9.46732 8.33824 10.6195 8.33824 11.8125V14.7656C8.33824 15.309 7.87129 15.75 7.29596 15.75H1.04228C0.918874 15.75 0.800471 15.7705 0.690406 15.8074C0.344369 15.9248 0.0833824 16.2099 0.0166765 16.5587C0.00583676 16.2911 0 16.0216 0 15.75V19.6875C0 21.0679 0.250981 22.3933 0.711252 23.625C1.96782 26.9813 4.78448 29.6415 8.33824 30.8282C9.54228 31.2291 10.8297 31.4622 12.1713 31.4944C12.2147 31.4961 12.258 31.4969 12.3022 31.4977C12.3706 31.4993 12.439 31.5 12.5074 31.5C12.5757 31.5 12.6441 31.4993 12.7125 31.4977C12.7567 31.4969 12.8 31.4961 12.8434 31.4944C14.185 31.4622 15.4724 31.2291 16.6765 30.8282C16.7732 30.7952 16.8691 30.7621 16.965 30.7274C20.3828 29.4959 23.0811 26.89 24.3035 23.625C24.3652 23.458 24.4244 23.2888 24.4786 23.1187C24.8271 22.0327 25.0147 20.8806 25.0147 19.6875V16.7344C25.0147 16.191 25.4816 15.75 26.057 15.75H32.3107C32.4341 15.75 32.5525 15.7295 32.6625 15.6926C33.0077 15.5752 33.2696 15.2908 33.3363 14.942V14.9397C33.3471 14.8829 33.3529 14.8246 33.3529 14.7656V11.8125C33.3529 10.4321 33.102 9.10665 32.6417 7.875ZM25.0147 14.7656C25.0147 14.8246 25.0089 14.8829 24.998 14.9397V14.942C24.9964 14.9491 24.9947 14.957 24.9939 14.9641C24.9172 15.3153 24.6428 15.5988 24.2859 15.7051C24.1867 15.7342 24.0817 15.75 23.9724 15.75H17.7188C17.2151 15.75 16.7949 16.0879 16.6973 16.5359C16.684 16.6005 16.6765 16.6666 16.6765 16.7344V19.6875C16.6765 20.7758 16.2087 21.761 15.4524 22.4737C14.7162 23.1675 13.7072 23.6038 12.5907 23.6234C12.5632 23.625 12.5349 23.625 12.5074 23.625C10.2052 23.625 8.33824 21.8617 8.33824 19.6875V16.7344C8.33824 16.6754 8.34407 16.6171 8.35491 16.5603V16.558C8.35658 16.5509 8.35825 16.543 8.35908 16.5359C8.43579 16.1847 8.71012 15.9012 9.067 15.7949C9.16622 15.7657 9.27128 15.75 9.38052 15.75H15.6342C16.1378 15.75 16.5581 15.4121 16.6556 14.9641C16.669 14.8995 16.6765 14.8333 16.6765 14.7656V11.8125C16.6765 10.7242 17.1442 9.73906 17.9005 9.02632C18.6368 8.33254 19.6457 7.89626 20.7622 7.87658C20.7897 7.875 20.8181 7.875 20.8456 7.875C20.8731 7.875 20.9023 7.875 20.9306 7.87658C22.0713 7.89705 23.0986 8.35144 23.8382 9.072C24.5661 9.78075 25.0147 10.7478 25.0147 11.8125V14.7656Z" fill="var(--fill-0, white)"/>
<path id="Vector_2" d="M50.713 12.9701C50.6709 12.4437 50.4735 12.0331 50.1208 11.7384C49.7733 11.4436 49.2443 11.2962 48.5336 11.2962C48.081 11.2962 47.7098 11.3514 47.4203 11.462C47.1361 11.5673 46.9255 11.712 46.7886 11.8962C46.6518 12.0805 46.5807 12.291 46.5754 12.5279C46.5649 12.7228 46.5992 12.8991 46.6781 13.057C46.7623 13.2096 46.894 13.3491 47.0729 13.4755C47.2519 13.5965 47.4809 13.7071 47.7598 13.8071C48.0389 13.9072 48.3705 13.9966 48.7548 14.0756L50.0813 14.3598C50.9762 14.5493 51.7421 14.7993 52.379 15.11C53.016 15.4205 53.5371 15.7864 53.9425 16.2075C54.3478 16.6234 54.6452 17.0919 54.8347 17.613C55.0295 18.1342 55.1296 18.7027 55.1347 19.3186C55.1296 20.3819 54.8637 21.282 54.3372 22.019C53.8109 22.756 53.0581 23.3166 52.079 23.7009C51.1051 24.0852 49.9339 24.2772 48.5652 24.2772C47.1598 24.2772 45.9332 24.0693 44.8857 23.6534C43.8434 23.2376 43.0327 22.598 42.4537 21.7347C41.8799 20.8662 41.5904 19.7555 41.5851 18.4026H45.7542C45.7806 18.8974 45.9043 19.3133 46.1254 19.6502C46.3464 19.9871 46.6571 20.2424 47.0571 20.4161C47.4624 20.5898 47.9441 20.6767 48.5021 20.6767C48.9706 20.6767 49.3627 20.6188 49.6786 20.503C49.9944 20.3872 50.234 20.2266 50.3971 20.0213C50.5603 19.816 50.6446 19.5818 50.6498 19.3186C50.6446 19.0711 50.563 18.8553 50.405 18.6711C50.2524 18.4816 49.9997 18.3131 49.647 18.1658C49.2944 18.0131 48.818 17.871 48.2178 17.7393L46.607 17.3919C45.1752 17.0813 44.0461 16.5628 43.2196 15.8364C42.3985 15.1047 41.9904 14.1072 41.9957 12.8437C41.9904 11.8173 42.2642 10.9197 42.8169 10.1512C43.375 9.37745 44.1461 8.77468 45.1304 8.34303C46.1201 7.91138 47.2546 7.69556 48.5336 7.69556C49.8391 7.69556 50.9683 7.91401 51.9211 8.35092C52.8739 8.78785 53.6082 9.40376 54.1241 10.1986C54.6452 10.9882 54.9084 11.9121 54.9137 12.9701H50.713ZM62.711 24.3088C61.395 24.3088 60.2685 24.0483 59.3316 23.5272C58.3945 23.0007 57.676 22.269 57.1759 21.3321C56.6758 20.3898 56.4258 19.2975 56.4258 18.0551C56.4258 16.8128 56.6758 15.7232 57.1759 14.7862C57.676 13.844 58.3945 13.1122 59.3316 12.5911C60.2685 12.0647 61.395 11.8015 62.711 11.8015C64.0271 11.8015 65.1536 12.0647 66.0905 12.5911C67.0276 13.1122 67.7461 13.844 68.2462 14.7862C68.7463 15.7232 68.9963 16.8128 68.9963 18.0551C68.9963 19.2975 68.7463 20.3898 68.2462 21.3321C67.7461 22.269 67.0276 23.0007 66.0905 23.5272C65.1536 24.0483 64.0271 24.3088 62.711 24.3088ZM62.7426 21.0873C63.1111 21.0873 63.4296 20.9635 63.698 20.7162C63.9665 20.4687 64.1744 20.1161 64.3218 19.6581C64.4692 19.2001 64.543 18.6553 64.543 18.0236C64.543 17.3866 64.4692 16.8418 64.3218 16.3891C64.1744 15.9311 63.9665 15.5784 63.698 15.331C63.4296 15.0836 63.1111 14.9599 62.7426 14.9599C62.3531 14.9599 62.0188 15.0836 61.7398 15.331C61.4609 15.5784 61.2477 15.9311 61.1003 16.3891C60.9529 16.8418 60.8791 17.3866 60.8791 18.0236C60.8791 18.6553 60.9529 19.2001 61.1003 19.6581C61.2477 20.1161 61.4609 20.4687 61.7398 20.7162C62.0188 20.9635 62.3531 21.0873 62.7426 21.0873ZM75.1236 7.91664V24.0878H70.765V7.91664H75.1236ZM81.703 7.91664V24.0878H77.3444V7.91664H81.703ZM83.8606 24.0878V7.91664H90.8407C92.041 7.91664 93.0914 8.15353 93.991 8.62729C94.8915 9.10105 95.592 9.76694 96.0913 10.625C96.5916 11.483 96.8418 12.4859 96.8418 13.6334C96.8418 14.7915 96.5842 15.7943 96.0682 16.6418C95.5577 17.4893 94.8387 18.1421 93.9123 18.6C92.9913 19.058 91.9146 19.287 90.6829 19.287H86.5137V15.8759H89.7985C90.3143 15.8759 90.7539 15.7864 91.1171 15.6074C91.4856 15.4231 91.7672 15.1626 91.962 14.8257C92.1621 14.4888 92.262 14.0913 92.262 13.6334C92.262 13.1701 92.1621 12.7754 91.962 12.449C91.7672 12.1173 91.4856 11.8647 91.1171 11.6909C90.7539 11.5119 90.3143 11.4225 89.7985 11.4225H88.2509V24.0878H83.8606ZM101.353 24.2772C100.578 24.2772 99.8945 24.151 99.2997 23.8983C98.7095 23.6403 98.2463 23.2508 97.91 22.7297C97.5727 22.2085 97.4041 21.5453 97.4041 20.7399C97.4041 20.0766 97.5172 19.5107 97.7441 19.0422C97.9702 18.5684 98.2861 18.1815 98.691 17.8814C99.0968 17.5814 99.5674 17.3524 100.105 17.1945C100.647 17.0366 101.231 16.9339 101.858 16.8866C102.537 16.834 103.082 16.7708 103.492 16.697C103.908 16.6181 104.208 16.5102 104.392 16.3733C104.577 16.2312 104.669 16.0443 104.669 15.8127V15.7811C104.669 15.4653 104.547 15.2231 104.305 15.0547C104.064 14.8862 103.753 14.802 103.373 14.802C102.958 14.802 102.618 14.8941 102.355 15.0784C102.098 15.2573 101.942 15.5337 101.889 15.9075H97.8785C97.9304 15.1705 98.1648 14.4914 98.5807 13.8703C99.0023 13.2439 99.6156 12.7438 100.421 12.37C101.226 11.991 102.231 11.8015 103.437 11.8015C104.305 11.8015 105.085 11.9041 105.774 12.1094C106.464 12.3095 107.051 12.5911 107.535 12.9544C108.02 13.3123 108.387 13.7334 108.64 14.2177C108.898 14.6967 109.028 15.2178 109.028 15.7811V24.0878H104.953V22.3822H104.859C104.616 22.8349 104.321 23.2008 103.974 23.4798C103.632 23.7588 103.24 23.9614 102.797 24.0878C102.361 24.2141 101.879 24.2772 101.353 24.2772ZM102.774 21.5294C103.106 21.5294 103.416 21.461 103.705 21.3241C104.001 21.1873 104.24 20.9898 104.424 20.7319C104.608 20.474 104.7 20.1608 104.7 19.7923V18.7816C104.584 18.829 104.461 18.8738 104.33 18.9158C104.203 18.958 104.066 18.9975 103.918 19.0343C103.776 19.0711 103.624 19.1054 103.46 19.1369C103.303 19.1685 103.137 19.1975 102.963 19.2238C102.627 19.2764 102.35 19.3633 102.134 19.4843C101.923 19.6001 101.766 19.7449 101.66 19.9186C101.56 20.0871 101.51 20.2766 101.51 20.4871C101.51 20.8241 101.629 21.082 101.866 21.261C102.102 21.4399 102.405 21.5294 102.774 21.5294ZM113.328 28.6359C112.829 28.6359 112.352 28.5964 111.9 28.5174C111.447 28.4438 111.049 28.3411 110.707 28.2095L111.655 25.1143C112.013 25.2406 112.339 25.3222 112.633 25.3591C112.934 25.3959 113.189 25.3748 113.4 25.2959C113.616 25.217 113.771 25.0669 113.866 24.8458L113.96 24.6247L109.697 11.9594H114.245L116.203 20.3609H116.329L118.319 11.9594H122.899L118.477 25.0985C118.256 25.767 117.935 26.3671 117.513 26.8988C117.098 27.4357 116.551 27.8594 115.871 28.17C115.192 28.4806 114.345 28.6359 113.328 28.6359Z" fill="var(--fill-0, white)"/>
</g>
<defs>
<clipPath id="clip0_0_160">
<rect width="123.221" height="31.5" fill="white"/>
</clipPath>
</defs>
</svg>
