<svg preserveAspectRatio="none" width="100%" height="100%" overflow="visible" style="display: block;" viewBox="0 0 167.565 64" fill="none" xmlns="http://www.w3.org/2000/svg">
<g id="image 203 [Vectorized]" clip-path="url(#clip0_0_101)">
<path id="Vector" d="M16.9205 32.8594C17.4431 32.8373 17.966 32.8238 18.489 32.8186C22.4096 32.8113 26.9536 33.429 29.831 36.3345C34.03 40.5746 33.4475 47.8283 33.4476 53.3541L33.4447 63.2907H20.2088H3.69386L3.69119 53.3722C3.69058 42.5981 3.24204 33.8146 16.9205 32.8594ZM30.0678 50.6287C30.7055 49.7127 30.5196 48.1841 30.5078 47.0362H6.61805C6.60785 48.1144 6.40323 49.883 7.16599 50.7146C7.46901 51.0449 8.37773 51.0334 8.80847 51.0684C13.2108 51.0787 17.6137 51.0763 22.0162 51.0764L26.6772 51.0763C27.6973 51.0762 29.2692 51.2695 30.0678 50.6287Z" fill="var(--fill-0, white)"/>
<path id="Vector_2" d="M72.7949 0.709961H85.0153L91.5233 20.0864V0.709961H103.742L103.742 30.4608H91.5353C89.3014 24.091 87.1718 17.4844 85.0252 11.0671L85.0245 30.4608H72.7949V0.709961Z" fill="var(--fill-0, white)"/>
<path id="Vector_3" d="M47.2889 33.5165H62.5459C63.835 36.6786 65.0986 40.2327 66.319 43.4466L73.8511 63.2792H60.9518L59.8113 60.0813L58.8445 57.3952H50.9814L48.8794 63.2792H35.9767C37.1678 60.4204 38.3767 56.9669 39.4885 54.0385L47.2889 33.5165ZM52.2282 53.9146H54.9437H57.6006C56.8474 51.7854 55.7697 48.4534 54.9091 46.4222C54.0228 48.8499 53.0465 51.4739 52.2282 53.9146Z" fill="var(--fill-0, white)"/>
<path id="Vector_4" d="M106.986 0.710069H119.229V13.6026L127.374 0.710069H139.383C138.403 2.22602 137.213 3.88423 136.18 5.39332L129.804 14.7082C131.714 18.0281 133.901 21.506 135.894 24.8019L139.309 30.4609H126.18C125.42 29.1245 124.593 27.4346 123.863 26.0387L119.229 17.1629V30.4609H106.986V0.710069Z" fill="var(--fill-0, white)"/>
<path id="Vector_5" d="M140.774 0.710069H166.749V10.8329H152.992V13.6496H164.167V17.1185H152.992V20.1196C152.99 20.2362 152.982 20.1771 153.053 20.2966C153.365 20.3596 156.521 20.3243 157.085 20.3243L167.506 20.3266V30.4609H140.774V0.710069Z" fill="var(--fill-0, white)"/>
<path id="Vector_6" d="M0 2.92039C2.74122 0.889435 6.16135 -0.144631 9.57464 0.334204C12.8042 0.787269 15.099 2.85278 18.4322 2.89285C20.9242 2.92281 22.6558 1.94348 24.8839 1.06177C29.091 -0.603072 33.464 0.28781 37.0907 2.87193V30.4605H24.8729L24.8702 18.4746L24.8797 14.9799C24.8857 13.333 25.249 11.3156 22.9371 11.365C21.8809 11.3875 20.9644 11.6022 20.8948 12.8672C20.8043 14.8059 20.8452 16.7612 20.8454 18.7032L20.8487 30.4605H16.3012L16.3047 18.7582C16.3047 16.8007 16.3351 14.9122 16.2532 12.8933C16.1803 11.1004 13.8077 10.9784 12.6692 11.8902C12.4292 12.0824 12.3146 12.669 12.2898 12.9666C12.2413 14.771 12.2837 16.6499 12.2821 18.4565L12.2769 30.4605H0V2.92039Z" fill="var(--fill-0, white)"/>
<path id="Vector_7" d="M53.5263 0H56.2892C56.5768 0.0707657 58.0494 0.15701 58.4435 0.198472C60.9974 0.467086 63.3494 1.07657 65.4973 2.53635C68.1224 4.32051 69.6399 7.54475 70.1057 10.6531C70.825 15.4535 70.7865 22.1017 67.9084 26.2273C66.0805 28.8476 62.9664 30.3134 59.89 30.7734C54.949 31.4626 48.5545 31.5124 44.296 28.6019C39.8529 25.4114 39.3401 19.8577 39.3497 14.9615C39.3652 7.17674 42.3101 1.19952 50.716 0.279821C51.5184 0.192018 52.7428 0.131929 53.5263 0ZM55.7075 28.0215C56.5252 27.7094 56.8806 27.3517 56.9114 26.4191C56.9519 25.1894 56.9345 23.9555 56.935 22.7248L56.936 16.1514L56.9338 8.99303C56.933 7.50668 57.0516 5.31581 56.7207 3.87394C56.5322 3.05306 54.891 3.05266 54.1409 3.14506C53.6907 3.30906 53.3053 3.48558 53.0812 3.94125C52.9341 4.24015 52.931 4.6458 52.9188 4.97389C52.7903 8.43642 52.9023 11.9466 52.9026 15.4138C52.9028 17.1647 52.7267 26.2357 53.0705 27.2171C53.1753 27.5164 53.5099 27.771 53.7913 27.8931C54.364 28.1415 55.0998 28.0978 55.7075 28.0215Z" fill="var(--fill-0, white)"/>
<path id="Vector_8" d="M87.6659 64.0026C87.6517 63.9986 87.6375 63.9947 87.6226 63.9907C82.9018 63.8404 77.5538 62.95 74.8944 58.4358C72.2832 54.0047 72.3059 47.1256 73.3643 42.159C73.9993 39.2691 75.702 36.4814 78.3174 34.9482C82.7015 32.3782 89.8253 32.4127 94.6676 33.5041C97.5273 34.1485 100.236 35.8685 101.731 38.4549C104.279 42.8629 104.275 49.9265 103.158 54.7865C102.492 57.683 100.75 60.4073 98.1702 61.8864C95.8787 63.2004 93.4309 63.6835 90.8255 63.8657C90.5214 63.8869 89.0901 63.9341 88.9218 64.0026H87.6659ZM88.6817 60.8888C89.7728 60.6718 90.2409 60.3496 90.2721 59.1701C90.3133 57.5779 90.297 55.9851 90.2977 54.3923L90.2984 45.6509L90.2963 40.4221C90.2955 39.2742 90.3623 37.9911 90.1641 36.8712C90.0157 36.0347 88.7407 35.8766 88.063 35.8917C87.0387 36.0224 86.3554 36.2732 86.3064 37.4456C86.2417 38.9794 86.2666 40.5178 86.2659 42.0534L86.2652 50.3997L86.268 56.1396C86.2687 57.3247 86.2197 58.5206 86.366 59.6964C86.511 60.8621 87.7583 60.9025 88.6817 60.8888Z" fill="var(--fill-0, white)"/>
</g>
<defs>
<clipPath id="clip0_0_101">
<rect width="167.565" height="64" fill="white"/>
</clipPath>
</defs>
</svg>
