<svg preserveAspectRatio="none" width="100%" height="100%" overflow="visible" style="display: block;" viewBox="0 0 279.68 55.2" fill="none" xmlns="http://www.w3.org/2000/svg">
<g id="Frame" clip-path="url(#clip0_0_61)">
<path id="Vector" d="M0.0001297 46.403C0.0001297 53.5532 3.79973 55.2 7.75205 55.2C16.113 55.2 22.3984 47.8437 26.1465 42.0311C25.6902 43.3154 25.4363 44.6016 25.4363 45.8381C25.4363 49.2329 27.3628 51.6506 31.1624 51.6506C36.3824 51.6506 41.9558 47.0194 44.8446 42.0293C44.6422 42.7506 44.541 43.4185 44.541 44.0349C44.541 46.403 45.8584 47.8952 48.543 47.8952C57.007 47.8952 65.5188 32.7189 65.5188 19.4451C65.5188 9.10432 60.3484 0 47.3764 0C24.577 0 0.0001297 28.1925 0.0001297 46.403ZM39.5233 18.3135C39.5233 15.7412 40.942 13.9417 43.0193 13.9417C45.047 13.9417 46.4656 15.7412 46.4656 18.3135C46.4656 20.8858 45.0488 22.7387 43.0212 22.7387C40.942 22.7387 39.5252 20.8858 39.5252 18.3135H39.5233ZM50.3683 18.3135C50.3683 15.7412 51.7851 13.9417 53.8643 13.9417C55.8901 13.9417 57.3088 15.7412 57.3088 18.3135C57.3088 20.8858 55.892 22.7387 53.8643 22.7387C51.7851 22.7387 50.3683 20.8858 50.3683 18.3135ZM75.6517 49.5935H83.2509V42.6475C83.2509 38.9951 82.9988 37.2968 81.5287 33.9535L82.3383 33.5414C84.7726 39.1497 88.3698 41.3614 92.1197 41.3614C98.1494 41.3614 102.963 36.0106 102.963 27.727C102.963 19.8058 98.5542 13.9932 92.2209 13.9932C88.471 13.9932 84.7726 16.1534 82.3401 21.7617L81.5305 21.3495C82.5425 19.1378 83.2509 16.9262 83.2509 14.8175H75.6517V49.5935ZM83.2509 27.6773C83.2509 24.2825 85.7864 20.527 89.5345 20.527C92.576 20.527 95.0582 23.0478 95.0582 27.6258C95.0582 32.1522 92.6772 34.8275 89.483 34.8275C85.9373 34.8275 83.2509 31.1751 83.2509 27.6773ZM105.34 40.5389H112.943V31.4824C112.943 25.1031 115.171 20.5767 119.328 20.5767C121.961 20.5767 122.772 22.3762 122.772 26.8511V40.537H130.373V25.6183C130.373 17.4892 127.485 13.9895 121.961 13.9895C116.338 13.9895 114.513 17.8498 112.334 22.2732L111.524 21.8114C112.638 19.033 112.941 17.285 112.941 14.8138V6.12168H105.342L105.34 40.5389ZM141.233 41.3614C146.048 41.3614 148.935 38.0678 150.963 34.1596L151.824 34.6214C151.014 36.4743 150.253 38.6878 150.253 40.5389H157.703V26.5457C157.703 18.2105 154.257 13.9932 146.199 13.9932C138.295 13.9932 134.394 18.0044 133.632 22.2235L140.929 23.5115C141.183 21.298 142.957 19.8058 145.794 19.8058C148.632 19.8058 150.253 21.2465 150.253 22.9963C150.253 24.7443 148.582 25.5686 144.122 25.6202C137.535 25.7232 132.67 28.141 132.67 33.2856C132.67 37.5029 135.963 41.3614 141.233 41.3614ZM140.221 32.8219C140.221 28.6543 146.554 31.5873 150.102 28.3967V29.3756C150.102 33.028 146.858 35.65 143.818 35.65C142.096 35.65 140.221 34.9324 140.221 32.8219ZM161.111 40.5389H168.71V31.4824C168.71 25.1031 170.94 20.5767 175.095 20.5767C177.729 20.5767 178.541 22.3762 178.541 26.8511V40.537H186.142V25.6183C186.142 17.4892 183.253 13.9895 177.729 13.9895C172.106 13.9895 170.281 17.8498 168.103 22.2732L167.293 21.8114C168.406 19.033 168.71 17.285 168.71 14.8138H161.111V40.5389ZM206.684 40.6419V34.2608C205.061 34.8257 200.551 35.8027 200.551 32.0491V21.0901H207.291V14.8157H200.551V7.9212L192.9 10.2359V14.8138H188.341V21.0901H192.9L192.952 32.6655C192.952 41.2583 200.501 42.493 206.684 40.6419ZM222.618 41.3614C230.318 41.3614 236.197 35.3942 236.197 27.6258C236.197 19.9088 230.318 13.9914 222.618 13.9914C214.916 13.9914 208.987 19.9088 208.987 27.6258C208.987 35.3942 214.916 41.3614 222.618 41.3614ZM216.84 27.6773C216.84 23.4085 219.221 20.424 222.618 20.424C226.013 20.424 228.342 23.4066 228.342 27.6773C228.342 31.9461 226.013 34.9306 222.618 34.9306C219.221 34.9306 216.84 31.9461 216.84 27.6773ZM238.701 40.5389H246.301V31.4824C246.301 24.8455 248.176 20.5767 251.521 20.5767C253.699 20.5767 254.612 22.3247 254.612 26.8511V40.537H262.213V31.4824C262.213 25.2577 264.239 20.5767 267.431 20.5767C269.56 20.5767 270.522 22.5823 270.522 26.8511V40.537H278.123V25.6183C278.123 17.4377 275.489 13.9895 270.32 13.9895C264.949 13.9895 262.82 17.6953 261.402 22.1702L260.54 21.7083C261.3 19.033 260.844 17.5922 259.931 16.4606C258.614 14.8138 256.739 13.9914 254.358 13.9914C249.594 13.9914 247.517 17.3862 245.693 22.1186L244.882 21.6034C245.743 19.2906 246.301 17.4377 246.301 14.8138H238.701V40.5389Z" fill="var(--fill-0, white)"/>
</g>
<defs>
<clipPath id="clip0_0_61">
<rect width="279.68" height="55.2" fill="white"/>
</clipPath>
</defs>
</svg>
