<svg preserveAspectRatio="xMidYMid meet" overflow="visible" style="display: block;" viewBox="0 0 202.69 45.9177" fill="none" xmlns="http://www.w3.org/2000/svg">
<g id="Logo-Design-Mono-White 1" clip-path="url(#clip0_0_100)">
<path id="Vector" d="M36.5671 2.46317e-05H15.015C13.5002 2.46317e-05 12.1006 0.808111 11.3433 2.11989L0.567746 20.7839C-0.189577 22.0956 -0.189589 23.7116 0.56772 25.0234L11.3433 43.688C12.1006 44.9998 13.5003 45.8079 15.015 45.8079H36.5671C38.0819 45.8079 39.4814 44.9998 40.2388 43.688L51.0144 25.0234C51.7716 23.7116 51.7716 22.0956 51.0144 20.7839L40.2388 2.11989C39.4814 0.808118 38.0819 2.46317e-05 36.5671 2.46317e-05ZM28.5446 24.4935H47.6489L38.0971 41.0385L28.5446 24.4935ZM47.6489 21.3139H29.1564C27.6418 21.3139 26.2421 20.5058 25.4848 19.194L16.2386 3.17961H34.7314C36.2461 3.17961 37.6458 3.98771 38.403 5.29949L47.6489 21.3139ZM23.0373 21.3139H3.93318L13.485 4.76937L23.0373 21.3139ZM3.93316 24.4935H22.4253C23.9399 24.4935 25.3395 25.3015 26.0969 26.6133L35.3434 42.6283H16.8507C15.336 42.6283 13.9363 41.8202 13.179 40.5084L3.93316 24.4935Z" fill="var(--fill-0, white)"/>
<path id="Vector_2" d="M184.644 35.3847V10.4232H189.152V35.3847H184.644ZM186.795 35.3847V31.8138H202.604V35.3847H186.795ZM186.795 24.2906V20.7891H201.389V24.2906H186.795ZM186.795 13.9941V10.4232H202.222V13.9941H186.795Z" fill="var(--fill-0, white)"/>
<path id="Vector_3" d="M170.598 35.7314C167.223 35.7314 164.669 34.7722 162.936 32.8539C161.203 30.9355 160.336 28.1851 160.336 24.6027V10.4232H164.843V25.2614C164.843 27.5496 165.351 29.2599 166.369 30.3924C167.385 31.5018 168.808 32.0564 170.633 32.0564C172.459 32.0564 173.88 31.5018 174.898 30.3924C175.914 29.2599 176.422 27.5611 176.422 25.2961V10.4232H180.93V24.6373C180.93 28.1968 180.051 30.9355 178.294 32.8539C176.561 34.7722 173.996 35.7314 170.598 35.7314Z" fill="var(--fill-0, white)"/>
<path id="Vector_4" d="M144.952 35.7313C142.432 35.7313 140.214 35.1882 138.296 34.1019C136.401 32.9926 134.921 31.4671 133.858 29.5257C132.795 27.5842 132.264 25.3423 132.264 22.7999C132.264 20.2807 132.795 18.0734 133.858 16.1781C134.921 14.2598 136.39 12.7691 138.262 11.7059C140.157 10.6196 142.306 10.0765 144.709 10.0765C147.16 10.0765 149.32 10.6196 151.192 11.7059C153.089 12.7691 154.567 14.2598 155.63 16.1781C156.694 18.0965 157.225 20.3153 157.225 22.8346C157.225 24.5218 156.948 26.1166 156.393 27.6188C155.838 29.0981 154.984 30.3577 153.828 31.3978C152.672 32.4379 151.169 33.189 149.32 33.6512L144.952 35.7313ZM144.709 32.2298C146.281 32.2298 147.656 31.8484 148.835 31.0858C150.037 30.2999 150.973 29.1905 151.643 27.7576C152.314 26.3246 152.648 24.6604 152.648 22.7653C152.648 20.9624 152.314 19.3909 151.643 18.0503C150.996 16.6866 150.071 15.635 148.87 14.8954C147.691 14.1328 146.304 13.7513 144.709 13.7513C143.137 13.7513 141.752 14.1328 140.55 14.8954C139.37 15.635 138.457 16.6751 137.811 18.0157C137.163 19.3561 136.839 20.9393 136.839 22.7653C136.839 24.6836 137.163 26.3592 137.811 27.7922C138.481 29.2021 139.406 30.2999 140.583 31.0858C141.786 31.8484 143.161 32.2298 144.709 32.2298ZM144.952 35.7313L144.745 32.6112L158.404 31.8138V35.3847C156.948 35.3847 155.666 35.3962 154.556 35.4194C153.469 35.4656 152.441 35.5118 151.471 35.558C150.522 35.6043 149.529 35.639 148.489 35.6621C147.448 35.7082 146.27 35.7313 144.952 35.7313Z" fill="var(--fill-0, white)"/>
<path id="Vector_5" d="M110.723 35.3847V10.4232H121.262C123.042 10.4232 124.59 10.7236 125.908 11.3245C127.225 11.9255 128.231 12.7691 128.924 13.8554C129.641 14.9416 129.999 16.2128 129.999 17.669C129.999 19.1019 129.641 20.3615 128.924 21.4478C128.231 22.5341 127.225 23.3777 125.908 23.9787C124.59 24.5796 123.042 24.8801 121.262 24.8801H114.259V21.4478H121.124C122.58 21.4478 123.689 21.1127 124.452 20.4425C125.238 19.7722 125.631 18.8476 125.631 17.669C125.631 16.4902 125.249 15.5888 124.486 14.9647C123.724 14.3177 122.603 13.9941 121.124 13.9941H115.23V35.3847H110.723ZM125.006 35.3847L113.878 22.6266H118.939L131.247 35.3847H125.006Z" fill="var(--fill-0, white)"/>
<path id="Vector_6" d="M95.2628 35.7313C93.4601 35.7313 91.796 35.4194 90.2705 34.7953C88.7451 34.1712 87.4162 33.2814 86.2836 32.1258C85.1742 30.9702 84.3075 29.6066 83.6834 28.035C83.0825 26.4402 82.782 24.6952 82.782 22.7999C82.782 20.2807 83.3136 18.0734 84.3768 16.1781C85.4399 14.2598 86.9077 12.7691 88.7797 11.7059C90.675 10.6196 92.8244 10.0765 95.2282 10.0765C97.6781 10.0765 99.8391 10.6196 101.711 11.7059C103.607 12.7691 105.086 14.2598 106.149 16.1781C107.212 18.0965 107.744 20.3153 107.744 22.8346C107.744 24.7298 107.432 26.4633 106.808 28.035C106.207 29.6066 105.34 30.9702 104.207 32.1258C103.098 33.2814 101.781 34.1712 100.255 34.7953C98.7297 35.4194 97.0656 35.7313 95.2628 35.7313ZM95.2282 32.0564C96.7998 32.0564 98.175 31.6635 99.3537 30.8778C100.556 30.0919 101.492 29.0056 102.162 27.6188C102.832 26.209 103.167 24.5911 103.167 22.7653C103.167 20.9624 102.832 19.3909 102.162 18.0503C101.515 16.6866 100.59 15.635 99.3885 14.8954C98.2097 14.1328 96.8229 13.7513 95.2282 13.7513C93.6565 13.7513 92.2697 14.1328 91.0679 14.8954C89.8892 15.635 88.9763 16.6751 88.3291 18.0157C87.6819 19.3561 87.3583 20.9393 87.3583 22.7653C87.3583 24.6142 87.6819 26.2321 88.3291 27.6188C88.9994 29.0056 89.9238 30.0919 91.1026 30.8778C92.3044 31.6635 93.6796 32.0564 95.2282 32.0564Z" fill="var(--fill-0, white)"/>
<path id="Vector_7" d="M69.9423 35.3847V13.9941H61.6565V10.4232H82.7351V13.9941H74.4493V35.3847H69.9423Z" fill="var(--fill-0, white)"/>
</g>
<defs>
<clipPath id="clip0_0_100">
<rect width="202.69" height="45.9177" fill="white"/>
</clipPath>
</defs>
</svg>
