<svg width="151" height="37" viewBox="0 0 151 37" fill="none" xmlns="http://www.w3.org/2000/svg">
<path d="M20.0004 1.125C30.0104 1.125 38.3324 9.475 38.8504 20.87H36.8754C35.0004 20.868 32.5004 20.868 30.0004 20.87C27.5004 20.87 25.0004 20.872 23.1244 20.873L20.8584 20.874L20.2244 20.875H1.14844C1.64544 9.043 9.96244 1.125 20.0004 1.125Z" stroke="white" stroke-width="2.25" stroke-linejoin="round"/>
<mask id="mask0_324_195" style="mask-type:alpha" maskUnits="userSpaceOnUse" x="0" y="24" width="40" height="3">
<path d="M1.25 25.75H38.75" stroke="url(#paint0_linear_324_195)" stroke-width="2.5" stroke-linecap="square"/>
</mask>
<g mask="url(#mask0_324_195)">
<path d="M40 19C40 19.012 20 19 20 19H0C0 30.046 8.954 39 20 39C31.046 39 40 30.046 40 19Z" fill="white"/>
</g>
<mask id="mask1_324_195" style="mask-type:alpha" maskUnits="userSpaceOnUse" x="4" y="28" width="32" height="9">
<path d="M36 28C36 28.005 20 28 20 28H4C4 32.678 11.163 37 20 37C28.837 37 36 32.678 36 28Z" fill="url(#paint1_linear_324_195)"/>
</mask>
<g mask="url(#mask1_324_195)">
<path d="M3.47266 35.75H36.5277" stroke="white" stroke-width="2.5" stroke-linecap="square"/>
<path d="M3.34766 30.875H36.6527" stroke="white" stroke-width="2.25" stroke-linecap="square"/>
</g>
<path d="M62.3986 18.082L58.5206 18.321C58.4554 17.9915 58.3082 17.6837 58.0926 17.426C57.8597 17.1451 57.5632 16.9237 57.2276 16.78C56.8763 16.614 56.4556 16.531 55.9656 16.531C55.309 16.531 54.7553 16.6704 54.3046 16.949C53.8546 17.2204 53.6293 17.585 53.6286 18.043C53.6286 18.407 53.7743 18.715 54.0656 18.967C54.3576 19.219 54.8583 19.4214 55.5676 19.574L58.3316 20.131C59.8163 20.4357 60.9233 20.926 61.6526 21.602C62.382 22.278 62.7466 23.1664 62.7466 24.267C62.7466 25.2684 62.4516 26.1467 61.8616 26.902C61.2783 27.658 60.4763 28.248 59.4557 28.672C58.4403 29.09 57.2703 29.2987 55.9456 29.298C53.9236 29.298 52.3126 28.8774 51.1126 28.036C49.9193 27.1874 49.22 26.034 49.0146 24.576L53.1806 24.356C53.3066 24.9734 53.6116 25.444 54.0956 25.768C54.5796 26.0867 55.1997 26.246 55.9557 26.246C56.6977 26.246 57.2943 26.1034 57.7456 25.818C58.203 25.526 58.4346 25.1517 58.4406 24.695C58.434 24.3097 58.2716 23.9947 57.9536 23.75C57.6356 23.498 57.145 23.3057 56.4816 23.173L53.8377 22.646C52.3457 22.348 51.2353 21.8314 50.5066 21.096C49.784 20.3594 49.4226 19.421 49.4226 18.281C49.4226 17.301 49.6876 16.456 50.2176 15.746C50.755 15.036 51.5073 14.4894 52.4746 14.106C53.45 13.7207 54.59 13.528 55.8946 13.528C57.8246 13.528 59.343 13.9357 60.4496 14.751C61.563 15.567 62.2126 16.6774 62.3986 18.082ZM75.2076 22.497V13.727H79.4436V29H75.3766V26.226H75.2177C74.8845 27.1077 74.2828 27.8626 73.4977 28.384C72.7017 28.9274 71.7306 29.199 70.5846 29.199C69.5633 29.199 68.665 28.967 67.8896 28.503C67.1143 28.039 66.5076 27.3794 66.0696 26.524C65.639 25.6687 65.4203 24.6447 65.4137 23.452V13.727H69.6497V22.696C69.6557 23.5974 69.8976 24.31 70.3756 24.834C70.853 25.358 71.4926 25.6197 72.2946 25.619C72.8046 25.619 73.2816 25.503 73.7256 25.271C74.1703 25.033 74.5283 24.6817 74.7997 24.217C75.079 23.753 75.215 23.1797 75.2076 22.497ZM87.0676 20.171V29H82.8307V13.727H86.8676V16.422H87.0466C87.3689 15.5532 87.9658 14.8131 88.7467 14.314C89.5427 13.79 90.5073 13.528 91.6406 13.528C92.7006 13.528 93.6253 13.76 94.4146 14.224C95.204 14.688 95.8173 15.3514 96.2546 16.214C96.692 17.068 96.9107 18.0887 96.9107 19.276V29H92.6747V20.031C92.6813 19.0964 92.4426 18.3674 91.9586 17.844C91.4746 17.3134 90.8083 17.048 89.9596 17.048C89.3896 17.048 88.886 17.1707 88.4486 17.416C88.0173 17.6614 87.6793 18.0194 87.4346 18.49C87.1953 18.954 87.0727 19.514 87.0667 20.17M100.25 29V13.727H104.356V16.392H104.516C104.794 15.444 105.261 14.728 105.918 14.244C106.574 13.754 107.329 13.509 108.185 13.509C108.396 13.509 108.625 13.5224 108.871 13.549C109.115 13.575 109.331 13.6114 109.517 13.658V17.416C109.246 17.3421 108.97 17.2889 108.692 17.257C108.372 17.2115 108.05 17.1881 107.727 17.187C107.103 17.187 106.547 17.323 106.057 17.595C105.578 17.8547 105.179 18.2398 104.903 18.709C104.625 19.1864 104.486 19.7364 104.486 20.359V29H100.25ZM111.707 29V13.727H115.943V29H111.707ZM113.835 11.758C113.205 11.758 112.664 11.5494 112.214 11.132C111.77 10.708 111.548 10.201 111.548 9.61102C111.548 9.02769 111.77 8.52702 112.214 8.10902C112.649 7.69091 113.231 7.46221 113.835 7.47302C114.464 7.47302 115.001 7.68502 115.446 8.10902C115.896 8.52636 116.122 9.02702 116.122 9.61102C116.122 10.201 115.896 10.708 115.446 11.132C115.012 11.5453 114.433 11.7697 113.835 11.758ZM132.043 18.083L128.165 18.322C128.1 17.9926 127.953 17.6848 127.738 17.427C127.505 17.1461 127.208 16.9247 126.873 16.781C126.521 16.615 126.1 16.532 125.61 16.532C124.954 16.532 124.4 16.6714 123.95 16.95C123.498 17.2214 123.273 17.586 123.273 18.044C123.273 18.408 123.419 18.716 123.711 18.968C124.003 19.22 124.503 19.4224 125.212 19.575L127.976 20.132C129.46 20.4367 130.568 20.927 131.298 21.603C132.026 22.279 132.391 23.1674 132.391 24.268C132.391 25.2694 132.096 26.1477 131.506 26.903C130.922 27.659 130.12 28.249 129.1 28.673C128.086 29.091 126.916 29.2997 125.59 29.299C123.568 29.299 121.957 28.8784 120.758 28.037C119.564 27.1884 118.865 26.035 118.66 24.577L122.826 24.357C122.952 24.9744 123.257 25.445 123.741 25.769C124.224 26.0877 124.844 26.247 125.6 26.247C126.342 26.247 126.939 26.1044 127.39 25.819C127.847 25.527 128.079 25.1527 128.086 24.696C128.085 24.5112 128.04 24.3293 127.956 24.165C127.871 24.0008 127.749 23.8589 127.599 23.751C127.28 23.499 126.789 23.3067 126.127 23.174L123.482 22.647C121.99 22.349 120.88 21.8324 120.151 21.097C119.428 20.3604 119.067 19.422 119.067 18.282C119.067 17.302 119.332 16.457 119.863 15.747C120.399 15.037 121.152 14.4904 122.12 14.107C123.094 13.7217 124.234 13.529 125.54 13.529C127.469 13.529 128.987 13.9367 130.094 14.752C131.208 15.568 131.857 16.6784 132.043 18.083ZM142.019 29.299C140.447 29.299 139.095 28.981 137.962 28.345C136.845 27.7121 135.939 26.7644 135.357 25.62C134.747 24.44 134.442 23.0447 134.442 21.434C134.442 19.8634 134.747 18.4847 135.357 17.298C135.967 16.1114 136.825 15.1867 137.932 14.524C139.046 13.8607 140.352 13.529 141.85 13.529C142.856 13.529 143.794 13.6917 144.664 14.017C145.522 14.3248 146.303 14.8166 146.951 15.458C147.607 16.1014 148.117 16.9104 148.482 17.885C148.846 18.8517 149.028 19.985 149.029 21.285V22.448H136.132V19.823H145.041C145.041 19.213 144.908 18.673 144.644 18.203C144.386 17.7394 144.003 17.3571 143.54 17.099C143.076 16.827 142.535 16.691 141.919 16.691C141.276 16.691 140.706 16.8404 140.209 17.139C139.719 17.4304 139.334 17.8247 139.056 18.322C138.774 18.8228 138.627 19.3876 138.628 19.962V22.458C138.628 23.214 138.767 23.8674 139.046 24.418C139.33 24.968 139.731 25.392 140.249 25.69C140.765 25.988 141.378 26.137 142.088 26.137C142.559 26.137 142.99 26.071 143.381 25.939C143.755 25.8157 144.098 25.6119 144.385 25.342C144.668 25.0694 144.886 24.736 145.022 24.367L148.939 24.626C148.753 25.5406 148.331 26.3908 147.716 27.092C147.106 27.788 146.317 28.3314 145.35 28.722C144.388 29.1067 143.278 29.299 142.019 29.299Z" fill="white"/>
<defs>
<linearGradient id="paint0_linear_324_195" x1="nan" y1="nan" x2="nan" y2="nan" gradientUnits="userSpaceOnUse">
<stop stop-color="#6993B1"/>
<stop offset="1" stop-color="#270D46"/>
</linearGradient>
<linearGradient id="paint1_linear_324_195" x1="20" y1="28" x2="20" y2="36.471" gradientUnits="userSpaceOnUse">
<stop stop-color="#F7A887"/>
<stop offset="1" stop-color="#FE9393"/>
</linearGradient>
</defs>
</svg>
