<svg preserveAspectRatio="xMidYMid meet" overflow="visible" style="display: block;" viewBox="0 0 202.69 42.8666" fill="none" xmlns="http://www.w3.org/2000/svg">
<g id="realms new logo Light 1" clip-path="url(#clip0_0_38)">
<path id="Vector" d="M31.9441 38.816C22.4134 38.816 14.6874 30.9883 14.6874 21.3324C14.6874 11.6763 22.4134 3.84878 31.9441 3.84878H32.5082C32.6948 3.84878 32.7689 3.60246 32.613 3.49884C29.2313 1.2448 25.1707 -0.04936 20.8086 0.00146816C9.08651 0.137662 -0.210808 9.85497 0.00337359 21.7299C0.21241 33.3285 9.55796 42.6652 21.0556 42.6652C25.3238 42.6652 29.2948 41.3782 32.6125 39.1666C32.7681 39.0623 32.6948 38.816 32.5077 38.816H31.9441Z" fill="var(--fill-0, white)"/>
<path id="Vector_2" d="M30.6324 8.95372C27.2095 8.9016 24.104 10.2766 21.8561 12.5287C21.7931 12.5919 21.8381 12.7013 21.9268 12.7013C26.631 12.7013 30.4454 16.5656 30.4454 21.3317C30.4454 26.0978 26.631 29.9622 21.9268 29.9622H21.9243C21.8362 29.9622 21.7918 30.0702 21.8542 30.1329C24.0616 32.3445 27.0954 33.7109 30.4454 33.7109C37.2225 33.7109 42.7108 28.1205 42.6639 21.2431C42.6181 14.6511 37.1384 9.05213 30.6324 8.95372Z" fill="var(--fill-0, white)"/>
<path id="Vector_3" d="M77.2683 33.1285C74.3568 33.1285 71.8486 31.3069 68.2205 24.6868L67.2798 22.954C72.6996 22.643 75.8796 19.1774 75.8796 14.3346C75.8796 8.86973 72.1174 5.62634 65.6226 5.62634H52.8124V36.5052H56.6196V22.9984H63.0247L64.8611 26.3307C69.1162 34.328 72.0724 36.5941 77.1339 36.5941C77.4921 36.5941 77.8057 36.5496 78.1193 36.5052V32.9951C77.8954 33.0841 77.6266 33.1285 77.2683 33.1285ZM65.6226 8.95858C69.8778 8.95858 71.938 10.8691 71.938 14.3346C71.938 17.7113 69.9225 19.6662 65.6226 19.6662H56.6196V8.95858H65.6226Z" fill="var(--fill-0, white)"/>
<path id="Vector_4" d="M99.3913 29.13C97.9132 32.0624 95.8974 33.8395 92.4485 33.8395C88.1934 33.8395 85.5957 31.0849 85.3716 26.6863H101.989C102.034 26.4197 102.034 25.8865 102.034 25.4866C102.034 18.9999 98.2715 14.6457 92.0903 14.6457C85.9987 14.6457 81.4747 19.222 81.4747 25.8421C81.4747 32.4177 86.1331 37.0383 92.4485 37.0383C97.5547 37.0383 100.556 34.2393 102.258 30.9071L99.3913 29.13ZM92.0455 17.8003C95.808 17.8003 97.8682 19.8885 98.1818 23.7094H85.4613C85.954 20.0217 88.4622 17.8003 92.0455 17.8003Z" fill="var(--fill-0, white)"/>
<path id="Vector_5" d="M115.592 37.0383C118.101 37.0383 120.519 35.8833 122.087 33.7506V36.5051H125.805V23.1319C125.805 17.6225 122.222 14.6457 117.07 14.6457C112.143 14.6457 108.605 17.4448 107.485 21.9767L110.844 22.9097C111.651 19.5774 113.532 17.8447 117.026 17.8447C120.206 17.8447 122.087 19.8885 122.087 23.2651V26.0642C120.698 24.7758 118.504 23.5317 115.592 23.5317C110.8 23.5317 107.351 26.5529 107.351 30.285C107.351 34.4616 110.8 37.0383 115.592 37.0383ZM115.951 33.9728C113.129 33.9728 111.292 32.4622 111.292 30.285C111.292 28.1525 113.129 26.6419 115.951 26.6419C118.548 26.6419 120.743 28.0636 122.087 29.6187V30.4183C120.654 32.4622 118.548 33.9728 115.951 33.9728Z" fill="var(--fill-0, white)"/>
<path id="Vector_6" d="M137.146 36.5052V5.62634H133.429V36.5052H137.146Z" fill="var(--fill-0, white)"/>
<path id="Vector_7" d="M170.082 14.6457C166.902 14.6457 164.125 15.6676 162.243 18.4667C161.034 15.8453 158.571 14.6457 155.39 14.6457C152.524 14.6457 150.105 15.8009 148.627 17.8447V15.1789H144.909V36.5051H148.627V23.6206C148.627 19.8885 151.225 17.8447 154.539 17.8447C157.854 17.8447 159.601 19.8885 159.601 23.665V36.5051H163.318V23.665C163.318 19.8885 165.916 17.8447 169.231 17.8447C172.545 17.8447 174.337 19.8885 174.337 23.665V36.5051H178.055V23.3096C178.055 17.978 175.188 14.6457 170.082 14.6457Z" fill="var(--fill-0, white)"/>
<path id="Vector_8" d="M193.804 37.0383C198.731 37.0383 202.449 34.728 202.449 30.5073C202.449 26.1086 199.045 24.9535 195.461 24.3315L192.908 23.8871C189.907 23.3984 188.788 22.6431 188.788 20.7326C188.788 18.8221 190.534 17.7114 193.491 17.7114C196.94 17.7114 198.507 19.6663 198.955 21.7101L202.314 20.8215C201.687 17.3115 198.91 14.6457 193.625 14.6457C188.385 14.6457 185.159 17.045 185.159 20.777C185.159 25.3533 188.653 26.5085 192.326 27.175L194.834 27.5749C197.567 28.0636 198.597 28.7299 198.597 30.5517C198.597 32.862 196.581 33.9728 193.894 33.9728C190.49 33.9728 187.892 32.6842 187.533 28.8632L184.084 29.4853C184.174 34.6836 188.653 37.0383 193.804 37.0383Z" fill="var(--fill-0, white)"/>
</g>
<defs>
<clipPath id="clip0_0_38">
<rect width="202.69" height="42.8666" fill="white"/>
</clipPath>
</defs>
</svg>
