<svg preserveAspectRatio="xMidYMid meet" overflow="visible" style="display: block;" viewBox="0 0 194.12 41.2453" fill="none" xmlns="http://www.w3.org/2000/svg">
<g id="Portals_Logo_White 1" clip-path="url(#clip0_0_91)">
<path id="Vector" fill-rule="evenodd" clip-rule="evenodd" d="M34.9482 19.4015C33.9323 12.8505 29.6095 8.64297 25.0887 6.8409C22.7509 5.90766 20.0449 5.35397 16.9962 5.76661C9.992 6.70905 6.01199 11.6309 4.77049 16.5883C4.12425 19.1679 4.1341 22.3925 5.59673 25.4646C8.14359 30.8291 13.8129 33.635 19.5209 32.3008C22.8828 31.5135 25.0243 29.602 26.4084 27.1445C27.9687 24.3768 28.5622 19.3898 25.5047 15.9464C22.9567 13.0694 17.0023 11.469 13.4652 15.4295C12.1783 16.8679 11.1106 19.5959 12.2741 22.2515C13.2717 24.5301 15.9058 25.8998 18.2076 25.047C19.5681 24.5469 20.3538 23.5691 20.329 22.1834C20.3172 21.5323 20.0961 21.5151 19.7673 22.0767C19.5695 22.412 19.2021 22.7844 18.7843 22.9825C16.3653 24.1628 14.5372 22.1251 14.5967 19.8185C14.6367 17.9606 16.1964 16.2818 18.4711 16.0395C20.8152 15.7845 23.0562 17.1469 24.049 19.2041C25.9042 23.0707 23.6944 27.6627 19.6217 29.1005C15.1883 30.6641 10.8618 28.4051 8.84327 24.9826C6.94941 21.7769 7.29279 18.5241 8.28364 15.9335C9.67318 12.3005 13.3675 8.87045 18.8563 8.76806C24.0943 8.66687 29.84 11.775 31.5606 18.6217C32.1435 20.9337 32.1005 22.6312 31.7652 24.5496C31.1686 27.9686 29.6009 31.0934 26.4053 33.6342C23.251 36.136 18.3519 37.3728 14.5126 36.7976C10.9263 36.2643 7.60669 34.6816 5.08379 32.1307C2.28875 29.3152 0.300892 25.1892 0.120289 20.7197C-0.0308277 17.0458 0.952045 13.3374 2.74395 10.3212C4.4443 7.45652 7.7572 4.38516 11.4958 2.81301L13.671 2.05699C22.3975 0.173959 29.6735 2.64684 34.5544 8.5749C37.2346 11.8406 39.1764 16.3743 39.4505 20.7394C39.4768 21.1999 36.3789 22.3847 34.9503 19.4021" fill="var(--fill-0, white)"/>
<path id="Vector_2" d="M184.187 32.8346C181.2 32.8346 178.732 32.1418 176.697 30.7998C174.663 29.4578 173.58 27.5529 173.407 25.172L177.823 24.4792C178.126 27.2067 180.723 29.1114 184.317 29.1114C187.39 29.1114 189.728 27.7694 189.728 25.8645C189.728 24.4359 188.213 23.4836 184.793 22.9209L181.243 22.3147C176.568 21.4057 174.533 19.5874 174.533 16.1674C174.533 12.0114 178.126 9.19751 183.278 9.19751C188.17 9.19751 191.936 11.7517 192.672 15.4314L188.429 16.3838C188.126 14.3059 186.005 12.834 183.191 12.834C180.723 12.834 178.862 14.2626 178.862 15.8643C178.862 17.1198 180.074 17.8557 182.845 18.4185L186.438 19.0679C191.849 20.1069 194.101 22.0117 194.101 25.475C194.101 29.7609 189.901 32.8346 184.187 32.8346Z" fill="var(--fill-0, white)"/>
<path id="Vector_3" d="M166.259 32.0119V0.0630965H170.978V32.0119H166.259Z" fill="var(--fill-0, white)"/>
<path id="Vector_4" d="M150.119 32.8346C145.27 32.8346 141.72 30.0207 141.72 26.1243C141.72 22.3581 144.967 19.5874 151.244 18.8947L156.309 18.332C157.478 18.2021 158.214 17.5527 158.214 16.5137C158.214 14.5656 156.006 13.0504 152.76 13.0504C149.296 13.0504 146.742 15.3882 146.482 17.6393L142.153 16.2107C142.586 12.4444 147.002 9.15425 152.846 9.15425C158.82 9.15425 162.803 12.4877 162.803 17.3363V32.0119H158.82L158.171 28.765H158.128C156.526 31.3194 153.712 32.8346 150.119 32.8346ZM151.374 28.9815C155.314 28.9815 158.128 26.4707 158.128 22.9642V21.5787L152.024 22.2715C148.171 22.6611 146.396 24.0464 146.396 25.8214C146.396 27.7261 148.474 28.9815 151.374 28.9815Z" fill="var(--fill-0, white)"/>
<path id="Vector_5" d="M132.403 32.8778C127.858 32.8778 124.741 29.8907 124.741 25.5616V13.6998H120.108V10.02H124.741V3.65621L129.459 2.61722V10.02H139.027V13.6998H129.459V24.9121C129.459 27.2933 130.975 28.9815 133.096 28.9815C135.217 28.9815 137.165 27.4663 137.728 24.8688L140.542 26.9902C139.676 30.6266 136.256 32.8778 132.403 32.8778Z" fill="var(--fill-0, white)"/>
<path id="Vector_6" d="M112.81 9.19751C116.663 9.19751 119.26 11.795 119.736 16.254L115.71 17.5094C115.494 14.7821 113.978 13.137 111.857 13.137C108.61 13.137 106.749 15.7778 106.749 20.28V32.0119H102.03V10.0201H105.883L106.489 13.44H106.532C107.745 10.7993 110.082 9.19751 112.81 9.19751Z" fill="var(--fill-0, white)"/>
<path id="Vector_7" d="M87.2496 32.8779C80.02 32.8779 75.3012 28.1591 75.3012 21.016C75.3012 13.873 80.02 9.15425 87.2496 9.15425C94.3926 9.15425 99.1978 13.873 99.1978 21.016C99.1978 28.1591 94.3926 32.8779 87.2496 32.8779ZM87.2496 28.8083C91.622 28.8083 94.5223 25.7348 94.5223 21.016C94.5223 16.2973 91.7084 13.2669 87.2496 13.2669C82.7906 13.2669 79.9767 16.2973 79.9767 21.016C79.9767 25.7348 82.8772 28.8083 87.2496 28.8083Z" fill="var(--fill-0, white)"/>
<path id="Vector_8" d="M49.9641 41.1031V10.0201H53.9468L54.553 13.4833H54.5963C56.5012 10.7127 59.2285 9.19751 62.5618 9.19751C68.7525 9.19751 73.2981 14.176 73.2981 21.016C73.2981 27.856 68.7525 32.8346 62.6051 32.8346C59.2718 32.8346 56.5878 31.3627 54.7262 28.6353H54.6829V41.1031H49.9641ZM61.5661 28.6786C65.5922 28.6786 68.6226 25.3019 68.6226 21.016C68.6226 16.6436 65.5489 13.3535 61.5661 13.3535C57.4968 13.3535 54.5097 16.7302 54.5097 21.016C54.5097 25.3019 57.4968 28.6786 61.5661 28.6786Z" fill="var(--fill-0, white)"/>
</g>
<defs>
<clipPath id="clip0_0_91">
<rect width="194.12" height="41.2453" fill="white"/>
</clipPath>
</defs>
</svg>
