<svg fill="none" height="204" viewBox="0 0 1024 204" width="1024" xmlns="http://www.w3.org/2000/svg"><g fill="#000"><path d="m95.4932 14.0509c-4.0852-7.08905-6.1323-10.63358-8.8003-11.82108-2.3305-1.03907-4.9895-1.03907-7.3201-.0045-2.6725 1.18751-4.7196 4.72754-8.8183 11.81208l-63.41523 109.6556c-4.09421 7.084-6.145816 10.625-5.83988 13.53.26545 2.537 1.5927 4.84 3.6578 6.343 2.36204 1.718 6.45621 1.722 14.64021 1.727l22.7746.013c3.0279 0 4.5441 0 5.8983-.436 1.2013-.387 2.3036-1.025 3.2439-1.867 1.0573-.953 1.8177-2.262 3.3339-4.885l23.2965-40.2848c.1349-.2339.2834-.4543.4409-.6568 2.371-3.0452 7.2166-2.8248 9.2277.6613l27.5618 47.7973c.247.427.427.868.549 1.309.954 3.418-1.584 7.062-5.39 7.057l-45.6484-.031c-3.0279 0-4.5441 0-5.8983.436-1.2013.387-2.3036 1.026-3.2439 1.867-1.0573.954-1.8177 2.262-3.3339 4.885l-11.4008 19.711c-4.0942 7.084-6.1458 10.624-5.8398 13.53.2654 2.537 1.5927 4.84 3.6578 6.342 2.362 1.719 6.4562 1.723 14.6401 1.728l125.8092.081c8.184.004 12.274.009 14.64-1.71 2.065-1.497 3.397-3.8 3.663-6.333.305-2.906-1.737-6.45-5.822-13.539z"/><path clip-rule="evenodd" d="m261.007 160.15c-1.822 0-3.054-1.856-2.345-3.532l47.655-112.5678c.398-.9408 1.322-1.5522 2.345-1.5522h27.879c1.023 0 1.947.6114 2.345 1.5522l47.655 112.5678c.71 1.676-.523 3.532-2.345 3.532h-29.214c-1.034 0-1.966-.625-2.357-1.582l-7.231-17.697c-.391-.956-1.323-1.581-2.357-1.581h-41.693c-1.041 0-1.977.632-2.364 1.597l-7.077 17.665c-.386.965-1.322 1.598-2.363 1.598zm49.523-49.539c-.663 1.668.568 3.479 2.367 3.479h18.759c1.793 0 3.024-1.802 2.37-3.469l-9.32-23.7408c-.843-2.1473-3.884-2.1539-4.736-.0103z" fill-rule="evenodd"/><path d="m467.36 162.319c-33.26 0-54.153-16.855-54.153-53.402v-63.0427c0-1.4039 1.14-2.5419 2.546-2.5419h27.835c1.406 0 2.546 1.138 2.546 2.5419v62.3757c0 16.855 8.524 24.865 21.56 24.865 13.037 0 21.561-7.677 21.561-24.031v-63.2097c0-1.4039 1.14-2.5419 2.546-2.5419h27.835c1.406 0 2.545 1.138 2.545 2.5419v62.2087c0 37.715-21.56 54.236-54.821 54.236z"/><path clip-rule="evenodd" d="m563.973 160.15c-1.406 0-2.546-1.138-2.546-2.542v-111.7337c0-1.4039 1.14-2.5419 2.546-2.5419h42.582c41.784 0 66.019 24.031 66.019 57.7416v.333c0 33.711-24.569 58.743-66.688 58.743zm29.879-31.246c0 1.404 1.14 2.542 2.546 2.542h10.658c19.388 0 32.258-10.68 32.258-29.538v-.334c0-18.6905-12.87-29.5378-32.258-29.5378h-10.658c-1.406 0-2.546 1.138-2.546 2.5418z" fill-rule="evenodd"/><path d="m712.5 160.15c-1.406 0-2.545-1.138-2.545-2.542v-111.7337c0-1.4039 1.139-2.5419 2.545-2.5419h27.501c1.406 0 2.545 1.138 2.545 2.5419v111.7337c0 1.404-1.139 2.542-2.545 2.542z"/><path d="m836.67 162.319c-33.261 0-54.153-16.855-54.153-53.402v-63.0427c0-1.4039 1.14-2.5419 2.546-2.5419h27.835c1.406 0 2.545 1.138 2.545 2.5419v62.3757c0 16.855 8.525 24.865 21.561 24.865 13.037 0 21.561-7.677 21.561-24.031v-63.2097c0-1.4039 1.14-2.5419 2.546-2.5419h27.834c1.406 0 2.546 1.138 2.546 2.5419v62.2087c0 37.715-21.561 54.236-54.821 54.236z"/><path d="m976.7 162.153c-19.843 0-38.766-5.967-52.957-17.752-1.055-.877-1.165-2.441-.283-3.492l14.874-17.74c.888-1.058 2.456-1.212 3.565-.387 11.021 8.195 23.199 12.503 35.971 12.503 8.691 0 13.371-3.004 13.371-8.011v-.334c0-4.839-3.844-7.509-19.722-11.181-24.904-5.674-44.124-12.683-44.124-36.7138v-.3338c0-21.6946 17.215-37.3816 45.294-37.3816 18.911 0 33.891 4.828 46.241 14.0536 1.08.8055 1.29 2.3224.51 3.4196l-13.36 18.842c-.81 1.1431-2.39 1.4118-3.57.6462-10.112-6.5925-20.969-10.0933-30.657-10.0933-7.855 0-11.699 3.3376-11.699 7.5097v.3337c0 5.3403 4.011 7.6766 20.223 11.348 26.913 5.8409 43.623 14.5187 43.623 36.3807v.333c0 23.865-18.89 38.05-47.3 38.05z"/></g></svg>