<svg preserveAspectRatio="xMidYMid meet" overflow="visible" style="display: block;" viewBox="0 0 136.861 66.3775" fill="none" xmlns="http://www.w3.org/2000/svg">
<g id="KYD logo white 1" clip-path="url(#clip0_0_29)">
<path id="Vector" d="M5.46373 31.7413V46.4206L12.3449 39.293H18.8046L11.3066 46.5735L19.6476 59.106H13.0345L7.5748 50.2519L5.4599 52.2839V59.106H0.000166719V31.7413H5.46373Z" fill="var(--fill-0, white)"/>
<path id="Vector_2" d="M29.1478 65.0072C28.0978 65.6987 26.6343 66.0424 24.7645 66.0424C24.2014 66.0424 23.642 66.0233 23.0941 65.985C22.5423 65.9469 21.9869 65.901 21.4236 65.8514V61.3671C21.9369 61.4167 22.462 61.4703 22.9983 61.5198C23.5347 61.5694 24.075 61.5848 24.6113 61.5579C25.3278 61.4817 25.8602 61.1991 26.2053 60.714C26.55 60.2288 26.7225 59.6902 26.7225 59.1059C26.7225 58.6703 26.6458 58.2616 26.4924 57.8796L19.5347 39.2928H25.3393L29.8373 52.8606H29.9139L34.2588 39.2928H39.91L31.6074 61.5618C31.0173 63.1699 30.1974 64.3198 29.1478 65.0072Z" fill="var(--fill-0, white)"/>
<path id="Vector_3" d="M53.8677 56.5773C53.2279 57.6506 52.3887 58.4223 51.3505 58.8959C50.3121 59.3694 49.1397 59.6063 47.8332 59.6063C46.3466 59.6063 45.0401 59.3198 43.9138 58.7431C42.7874 58.1663 41.8563 57.391 41.1283 56.4053C40.3967 55.4238 39.8448 54.293 39.4771 53.0135C39.1054 51.7376 38.9177 50.4084 38.9177 49.0256C38.9177 47.6965 39.1015 46.413 39.4771 45.1755C39.8485 43.9377 40.4004 42.8453 41.1283 41.898C41.8602 40.9546 42.7759 40.1908 43.8755 39.6177C44.9789 39.0409 46.2586 38.7544 47.7183 38.7544C48.8983 38.7544 50.0171 39.0028 51.0822 39.5031C52.1436 39.9997 52.9866 40.7369 53.5996 41.707H53.6761V31.7413H59.136V59.106H53.9444V56.5773H53.8677ZM53.6378 46.7836C53.4847 46.031 53.2203 45.3663 52.8486 44.7896C52.4769 44.2128 51.9979 43.7507 51.4079 43.3915C50.8179 43.0325 50.0746 42.8529 49.1781 42.8529C48.2816 42.8529 47.5267 43.0325 46.9099 43.3915C46.293 43.7507 45.8027 44.2204 45.431 44.8086C45.0592 45.3968 44.7912 46.0693 44.6226 46.8217C44.454 47.5741 44.3734 48.3611 44.3734 49.1786C44.3734 49.9463 44.4616 50.7102 44.6417 51.4779C44.8218 52.2457 45.1092 52.9294 45.5077 53.5291C45.9061 54.1289 46.4042 54.614 47.0057 54.9845C47.6072 55.3549 48.3313 55.542 49.1781 55.542C50.0746 55.542 50.8257 55.3627 51.4272 55.0073C52.0287 54.6484 52.5115 54.1709 52.8677 53.5712C53.2279 52.9714 53.4847 52.2878 53.6378 51.52C53.791 50.7522 53.8677 49.9615 53.8677 49.1441C53.8677 48.3228 53.791 47.5399 53.6378 46.7836Z" fill="var(--fill-0, white)"/>
<path id="Vector_4" d="M75.5501 31.7413V59.106H70.09V31.7413H75.5501Z" fill="var(--fill-0, white)"/>
<path id="Vector_5" d="M77.6255 45.3854C77.7022 44.1095 78.0238 43.0476 78.587 42.2036C79.1502 41.3594 79.8666 40.6832 80.7405 40.1715C81.6102 39.6595 82.5908 39.2967 83.683 39.0791C84.771 38.8612 85.8666 38.7544 86.9697 38.7544C87.9702 38.7544 88.9816 38.827 90.008 38.9644C91.031 39.1057 91.9699 39.3807 92.813 39.7894C93.6595 40.1981 94.3492 40.7672 94.8892 41.4969C95.4298 42.2264 95.698 43.1891 95.698 44.3921V54.7017C95.698 55.5956 95.748 56.451 95.8513 57.2686C95.9546 58.086 96.1346 58.7009 96.3878 59.1097H90.8511C90.7477 58.8041 90.6636 58.4908 90.602 58.17C90.537 57.849 90.4911 57.5244 90.4679 57.1922C89.5981 58.086 88.5717 58.7123 87.3912 59.0714C86.2115 59.4305 85.0085 59.6061 83.7788 59.6061C82.8283 59.6061 81.9469 59.4916 81.1271 59.2624C80.3073 59.0333 79.5909 58.6742 78.9743 58.1891C78.3571 57.7039 77.878 57.0891 77.5332 56.348C77.1883 55.607 77.0158 54.7247 77.0158 53.7048C77.0158 52.5816 77.2149 51.6536 77.6139 50.9279C78.0122 50.1982 78.522 49.6176 79.1502 49.1822C79.7784 48.7466 80.4948 48.422 81.3037 48.2043C82.1118 47.9867 82.9241 47.8148 83.7439 47.6887C84.5637 47.5627 85.3725 47.4595 86.1656 47.3831C86.9588 47.3067 87.6636 47.1921 88.2802 47.0394C88.8974 46.8865 89.3839 46.6612 89.7405 46.3671C90.1004 46.073 90.2653 45.645 90.2379 45.0837C90.2379 44.4955 90.1421 44.0294 89.9512 43.6857C89.7596 43.3417 89.5023 43.0706 89.1807 42.8796C88.8591 42.6886 88.4875 42.5588 88.066 42.4977C87.6444 42.4328 87.1887 42.4023 86.7021 42.4023C85.625 42.4023 84.7786 42.6314 84.1654 43.0935C83.5489 43.5518 83.1923 44.3196 83.089 45.3929H77.6255V45.3854ZM90.2345 49.4075C90.0046 49.6139 89.7172 49.7704 89.3689 49.885C89.024 49.9996 88.6524 50.0951 88.2535 50.1716C87.8552 50.2478 87.4412 50.3127 87.0046 50.3623C86.5673 50.4122 86.1349 50.4771 85.6983 50.5533C85.2884 50.6298 84.886 50.7329 84.487 50.8589C84.0888 50.9889 83.7439 51.1609 83.449 51.3746C83.154 51.5925 82.9166 51.8673 82.7366 52.1998C82.5566 52.532 82.4684 52.9522 82.4684 53.464C82.4684 53.9491 82.5566 54.3578 82.7366 54.6902C82.9166 55.0225 83.1581 55.2824 83.4681 55.477C83.7747 55.6681 84.1346 55.8017 84.5445 55.8782C84.9544 55.9546 85.376 55.9927 85.8132 55.9927C86.8896 55.9927 87.7211 55.8132 88.3109 55.458C88.9008 55.0989 89.334 54.6712 89.6173 54.1745C89.9013 53.6779 90.0737 53.1737 90.1346 52.662C90.1996 52.15 90.2304 51.7413 90.2304 51.4357V49.4075H90.2345Z" fill="var(--fill-0, white)"/>
<path id="Vector_6" d="M103.38 31.7413V41.707H103.457C104.124 40.6872 105.028 39.9386 106.166 39.465C107.308 38.9913 108.492 38.7544 109.721 38.7544C110.721 38.7544 111.706 38.9608 112.683 39.3695C113.656 39.7781 114.533 40.4045 115.315 41.2487C116.097 42.0929 116.733 43.17 117.219 44.4879C117.706 45.8058 117.951 47.368 117.951 49.1822C117.951 50.9967 117.706 52.5628 117.219 53.8768C116.733 55.1946 116.097 56.2717 115.315 57.1159C114.533 57.9602 113.656 58.5865 112.683 58.9952C111.71 59.4038 110.721 59.6102 109.721 59.6102C108.262 59.6102 106.955 59.3809 105.802 58.9187C104.648 58.4605 103.775 57.6812 103.189 56.5812H103.112V59.1097H97.9204V31.7413H103.38ZM112.223 46.8026C112.043 46.0349 111.763 45.3587 111.377 44.7705C110.993 44.1822 110.51 43.7162 109.936 43.3725C109.357 43.0288 108.66 42.8568 107.84 42.8568C107.047 42.8568 106.354 43.0288 105.764 43.3725C105.173 43.7162 104.687 44.1822 104.304 44.7705C103.92 45.3587 103.637 46.0349 103.457 46.8026C103.277 47.5704 103.189 48.3724 103.189 49.2167C103.189 50.034 103.277 50.8247 103.457 51.5925C103.637 52.3603 103.917 53.0365 104.304 53.6247C104.687 54.2129 105.173 54.679 105.764 55.0227C106.354 55.3664 107.043 55.5383 107.84 55.5383C108.66 55.5383 109.357 55.3664 109.936 55.0227C110.514 54.679 110.993 54.2129 111.377 53.6247C111.76 53.0365 112.043 52.3603 112.223 51.5925C112.403 50.8247 112.491 50.034 112.491 49.2167C112.491 48.3763 112.403 47.5704 112.223 46.8026Z" fill="var(--fill-0, white)"/>
<path id="Vector_7" d="M124.003 54.1821C124.245 54.6023 124.562 54.9499 124.946 55.2174C125.329 55.4846 125.774 55.6832 126.271 55.8132C126.769 55.9431 127.291 56.0042 127.827 56.0042C128.21 56.0042 128.616 55.9583 129.038 55.8706C129.459 55.7827 129.846 55.6412 130.191 55.4504C130.536 55.2594 130.827 55.0034 131.057 54.6826C131.286 54.3617 131.402 53.9606 131.402 53.4755C131.402 52.6581 130.857 52.0432 129.769 51.6345C128.681 51.2256 127.161 50.8169 125.214 50.4083C124.421 50.2287 123.643 50.0186 122.889 49.7741C122.133 49.5335 121.459 49.2127 120.869 48.8155C120.279 48.4181 119.804 47.9217 119.448 47.322C119.087 46.7223 118.907 45.989 118.907 45.1179C118.907 43.8422 119.156 42.7918 119.659 41.9743C120.157 41.1569 120.819 40.5115 121.639 40.0378C122.46 39.5642 123.383 39.2317 124.406 39.0407C125.429 38.8499 126.482 38.7544 127.559 38.7544C128.635 38.7544 129.678 38.8575 130.693 39.06C131.705 39.2662 132.609 39.6099 133.402 40.095C134.195 40.5802 134.858 41.2258 135.383 42.0316C135.908 42.8375 136.222 43.8537 136.325 45.0798H131.134C131.057 44.0333 130.658 43.3227 129.942 42.9521C129.225 42.5817 128.379 42.3945 127.406 42.3945C127.099 42.3945 126.766 42.4137 126.405 42.4518C126.045 42.4899 125.72 42.5739 125.425 42.7C125.13 42.8299 124.881 43.0134 124.674 43.2577C124.467 43.5022 124.367 43.8269 124.367 44.2356C124.367 44.7207 124.547 45.1179 124.904 45.4235C125.264 45.7291 125.731 45.9812 126.306 46.1722C126.884 46.3632 127.543 46.5352 128.287 46.6879C129.03 46.8406 129.785 47.0088 130.555 47.1845C131.348 47.364 132.126 47.5817 132.881 47.8377C133.636 48.0935 134.31 48.4296 134.9 48.8537C135.49 49.2738 135.965 49.8009 136.322 50.4237C136.682 51.05 136.861 51.8216 136.861 52.7421C136.861 54.0446 136.597 55.137 136.072 56.0194C135.548 56.902 134.861 57.6084 134.015 58.1471C133.168 58.6818 132.203 59.0599 131.111 59.2778C130.023 59.4955 128.911 59.6024 127.785 59.6024C126.632 59.6024 125.505 59.4879 124.402 59.2585C123.299 59.0294 122.317 58.6437 121.459 58.1089C120.601 57.5742 119.896 56.8636 119.345 55.9812C118.792 55.0989 118.494 53.995 118.44 52.6657H123.632C123.639 53.2541 123.762 53.7583 124.003 54.1821Z" fill="var(--fill-0, white)"/>
<path id="Vector_8" d="M80.1919 17.1888V13.0752H69.9827L77.1878 5.892L74.3062 2.9448L67.1008 10.128V2.05151e-06H62.9L62.9242 10.056L55.7696 2.9448L52.8134 5.892L60.0425 13.0752H49.809V17.1888H80.1919Z" fill="var(--fill-0, white)"/>
</g>
<defs>
<clipPath id="clip0_0_29">
<rect width="136.861" height="66.3775" fill="white"/>
</clipPath>
</defs>
</svg>
