<svg
  xmlns="http://www.w3.org/2000/svg"
  width="88.1135"
  height="524.456"
  viewBox="0 0 88.1135 524.456"
  fill="none"
  preserveAspectRatio="xMidYMid meet"
>
  <title>Shanghai World Financial Center</title>
  <style>
    .swfc-window-band {
      animation: swfc-window-shimmer 8s ease-in-out infinite;
    }

    .swfc-window-band:nth-child(3n + 1) {
      animation-delay: -2.7s;
    }

    .swfc-window-band:nth-child(3n + 2) {
      animation-delay: -5.4s;
    }

    @keyframes swfc-window-shimmer {
      0%,
      100% {
        opacity: 0.12;
      }
      48% {
        opacity: 0.52;
      }
    }

    @media (prefers-reduced-motion: reduce) {
      .swfc-window-band {
        animation: none;
      }
    }
  </style>

  <defs>
    <linearGradient id="swfc-body" x1="0" y1="262" x2="88" y2="262" gradientUnits="userSpaceOnUse">
      <stop stop-color="#2D1B49" />
      <stop offset="0.48" stop-color="#3B245A" />
      <stop offset="1" stop-color="#180B26" />
    </linearGradient>
    <linearGradient id="swfc-facet" x1="16" y1="0" x2="75" y2="524" gradientUnits="userSpaceOnUse">
      <stop stop-color="#704B92" stop-opacity="0.52" />
      <stop offset="1" stop-color="#28153D" stop-opacity="0.08" />
    </linearGradient>
    <clipPath id="swfc-clip">
      <path d="M12 0H76L88.1135 524.456H0L12 0Z" />
    </clipPath>
  </defs>

  <path
    fill-rule="evenodd"
    clip-rule="evenodd"
    d="M12 0H76L88.1135 524.456H0L12 0ZM21.5 18H66.5L61 79H27L21.5 18Z"
    fill="url(#swfc-body)"
  />

  <g clip-path="url(#swfc-clip)">
    <path d="M12 0H31L41 524H0L12 0Z" fill="url(#swfc-facet)" />
    <path d="M76 0H65L54 524H88.1L76 0Z" fill="#11071B" fill-opacity="0.18" />
    <g stroke="#8A61AD" stroke-width="1.1" stroke-linecap="round">
      <path class="swfc-window-band" d="M9.8 112H78.2" />
      <path class="swfc-window-band" d="M8.8 158H79.3" />
      <path class="swfc-window-band" d="M7.7 204H80.4" />
      <path class="swfc-window-band" d="M6.7 250H81.4" />
      <path class="swfc-window-band" d="M5.6 296H82.5" />
      <path class="swfc-window-band" d="M4.6 342H83.5" />
      <path class="swfc-window-band" d="M3.5 388H84.6" />
      <path class="swfc-window-band" d="M2.5 434H85.6" />
      <path class="swfc-window-band" d="M1.4 480H86.7" />
    </g>
  </g>

  <path d="M12 0L0 524.456M76 0L88.1135 524.456" stroke="#75509A" stroke-width="1.2" stroke-opacity="0.42" />
  <path d="M21.5 18H66.5L61 79H27L21.5 18Z" stroke="#674489" stroke-width="1.6" stroke-opacity="0.7" />
</svg>
