<svg width="347" height="77" viewBox="0 0 347 77" fill="none" xmlns="http://www.w3.org/2000/svg">
<path d="M125.716 64.4334C119.571 64.4334 112.796 62.3823 105.393 58.2801V49.408C112.361 54.0349 119.159 56.3483 125.789 56.3483C128.837 56.3483 131.257 55.7998 133.047 54.7027C134.886 53.5578 135.805 51.9838 135.805 49.9804C135.805 48.1678 134.958 46.7368 133.265 45.6874C131.571 44.5903 128.958 43.6124 125.426 42.7538C119.087 41.132 114.78 39.7487 112.506 38.6039C107.473 36.0758 104.957 32.2837 104.957 27.2275C104.957 22.8868 106.82 19.4524 110.546 16.9243C114.272 14.3962 118.869 13.1321 124.337 13.1321C131.015 13.1321 137.039 15.0401 142.41 18.8561V27.7283C136.265 23.3399 130.24 21.1457 124.337 21.1457C121.24 21.1457 118.675 21.7181 116.643 22.8629C114.611 24.0077 113.595 25.6057 113.595 27.6568C113.595 28.897 114.175 29.9702 115.337 30.8765C116.498 31.7351 117.756 32.4029 119.111 32.8799C120.514 33.3092 122.595 33.8578 125.353 34.5256C128.257 35.2411 130.652 35.9327 132.539 36.6005C134.475 37.2683 136.434 38.1985 138.418 39.391C140.402 40.5358 141.878 41.9906 142.846 43.7555C143.862 45.5204 144.37 47.6192 144.37 50.0519C144.37 54.5834 142.604 58.1132 139.072 60.6413C135.587 63.1694 131.136 64.4334 125.716 64.4334Z" fill="#0D0B33"/>
<path d="M161.846 64.4334C160.152 64.4334 158.507 64.2426 156.91 63.861C155.362 63.4794 153.862 62.8832 152.41 62.0723C150.958 61.2137 149.773 59.9973 148.853 58.4232C147.934 56.8014 147.474 54.9173 147.474 52.7708C147.426 48.9071 148.781 45.9736 151.539 43.9702C154.297 41.9191 158.241 40.8935 163.37 40.8935H175.056V38.6039C175.056 36.5051 174.185 34.931 172.443 33.8816C170.701 32.7845 168.451 32.236 165.693 32.236C160.418 32.236 157.346 33.9532 156.475 37.3876L148.49 37.5307C148.587 33.7624 150.257 30.7811 153.499 28.5869C156.789 26.3927 160.806 25.2956 165.548 25.2956C170.338 25.2956 174.427 26.4404 177.814 28.73C181.25 31.0196 182.968 33.977 182.968 37.6022V63.861H175.056V58.1371C173.943 59.6634 172.25 61.0944 169.975 62.43C167.749 63.7656 165.04 64.4334 161.846 64.4334ZM162.499 57.6362C165.693 57.6362 168.572 56.563 171.137 54.4165C173.75 52.27 175.056 49.7419 175.056 46.8322H164.822C161.677 46.8322 159.33 47.4284 157.781 48.6209C156.281 49.7657 155.628 51.2206 155.821 52.9855C155.967 54.6073 156.692 55.7998 157.999 56.563C159.305 57.2785 160.806 57.6362 162.499 57.6362Z" fill="#0D0B33"/>
<path d="M189.353 63.861L189.208 33.023V25.9396V24.6517C189.208 20.1202 191.095 16.7096 194.869 14.42C198.644 12.1304 203.628 11.7488 209.822 13.2752L209.749 19.5716C205.733 18.5222 202.684 18.5222 200.603 19.5716C198.571 20.5733 197.555 22.2905 197.555 24.7232V25.9396H209.459V33.023H197.555L197.628 63.861H189.353Z" fill="#0D0B33"/>
<path d="M231.404 64.4334C225.888 64.4334 221.218 62.5254 217.396 58.7094C213.573 54.8457 211.661 50.2189 211.661 44.8288C211.661 39.391 213.597 34.7879 217.468 31.0196C221.339 27.2036 225.985 25.2956 231.404 25.2956C236.195 25.2956 240.405 26.8459 244.034 29.9464C247.711 32.9992 249.962 36.839 250.784 41.4659C251.268 43.7078 251.292 45.8543 250.857 47.9054H219.936C220.42 50.7197 221.726 52.9616 223.855 54.6311C225.985 56.2529 228.501 57.0638 231.404 57.0638C235.856 57.0638 239.413 55.5136 242.074 52.4131H249.562C249.562 52.4131 248.697 57.4262 242.074 61.7146C238.687 63.5271 235.13 64.4334 231.404 64.4334ZM219.936 41.5375H242.655C242.171 39.0094 240.889 36.8867 238.808 35.1695C236.775 33.4523 234.283 32.5937 231.332 32.5937C228.38 32.5937 225.864 33.4762 223.783 35.2411C221.702 36.9583 220.42 39.0571 219.936 41.5375Z" fill="#0D0B33"/>
<path d="M311.47 64.4334C309.777 64.4334 308.132 64.2426 306.535 63.861C304.986 63.4794 303.486 62.8832 302.034 62.0723C300.583 61.2137 299.397 59.9973 298.478 58.4232C297.559 56.8014 297.099 54.9173 297.099 52.7708C297.05 48.9071 298.405 45.9736 301.163 43.9702C303.922 41.9191 307.865 40.8935 312.995 40.8935H324.681V38.6039C324.681 36.5051 323.81 34.931 322.068 33.8816C320.326 32.7845 318.076 32.236 315.317 32.236C310.043 32.236 306.97 33.9532 306.099 37.3876L298.115 37.5307C298.212 33.7624 299.881 30.7811 303.123 28.5869C306.414 26.3927 310.43 25.2956 315.172 25.2956C319.963 25.2956 324.052 26.4404 327.439 28.73C330.875 31.0196 332.592 33.977 332.592 37.6022V63.861H324.681V58.1371C323.568 59.6634 321.874 61.0944 319.6 62.43C317.374 63.7656 314.664 64.4334 311.47 64.4334ZM312.124 57.6362C315.317 57.6362 318.197 56.563 320.761 54.4165C323.374 52.27 324.681 49.7419 324.681 46.8322H314.446C311.301 46.8322 308.954 47.4284 307.406 48.6209C305.906 49.7657 305.252 51.2206 305.446 52.9855C305.591 54.6073 306.317 55.7998 307.623 56.563C308.93 57.2785 310.43 57.6362 312.124 57.6362Z" fill="#0D0B33"/>
<path d="M338.653 63.861V14.42H347V63.861H338.653Z" fill="#0D0B33"/>
<path fill-rule="evenodd" clip-rule="evenodd" d="M255.708 14.42H277.773C282.661 14.42 286.725 16.0657 289.967 19.357C293.21 22.6006 294.831 26.5358 294.831 31.1627C294.831 35.8373 293.21 39.7726 289.967 42.9685C286.774 46.1167 282.709 47.7146 277.773 47.7623L264.345 47.8339V63.861H255.708V14.42ZM277.193 40.1065L264.345 40.178V22.1474L277.193 22.0759C280.048 22.0759 282.298 22.9106 283.943 24.5801C285.637 26.2496 286.483 28.3484 286.483 30.8765C286.483 33.4523 285.637 35.6465 283.943 37.4591C282.249 39.224 279.999 40.1065 277.193 40.1065Z" fill="#0D0B33"/>
<path d="M33.8052 0.396484C31.4584 0.396484 29.2076 1.31536 27.5481 2.95095L1.48095 28.643C0.49364 29.6161 -8.08323e-06 30.8915 0 32.1669C8.08343e-06 33.4423 0.493672 34.7178 1.48098 35.6909L18.5636 52.5274V22.7206C18.5636 20.4962 20.3789 18.6929 22.6358 18.6929C32.171 18.6929 55.3809 18.6929 58.5468 18.6929L77.1104 0.396744L33.8052 0.396484Z" fill="#4A21EF"/>
<path d="M18.5636 58.1002H54.4602C56.7172 58.1002 58.5468 56.2969 58.5468 54.0725V24.2656L75.6294 41.1023C76.6167 42.0754 77.1104 43.3508 77.1104 44.6262C77.1104 45.9016 76.6168 47.177 75.6294 48.1501L49.5623 73.8422C47.9028 75.4778 45.652 76.3966 43.3052 76.3966L0 76.3964L18.5636 58.1002Z" fill="#4A21EF"/>
</svg>
