<svg width="864" height="192" viewBox="0 0 864 192" fill="none" xmlns="http://www.w3.org/2000/svg">
<path d="M313.022 161.778C297.72 161.778 280.852 156.596 262.418 146.233V123.819C279.768 135.508 296.696 141.352 313.203 141.352C320.793 141.352 326.817 139.966 331.275 137.195C335.854 134.303 338.143 130.326 338.143 125.265C338.143 120.686 336.035 117.07 331.818 114.419C327.601 111.648 321.094 109.177 312.299 107.008C296.515 102.911 285.792 99.4164 280.129 96.5242C267.599 90.1375 261.334 80.5573 261.334 67.7838C261.334 56.8178 265.972 48.1414 275.25 41.7546C284.527 35.3679 295.973 32.1745 309.588 32.1745C326.215 32.1745 341.215 36.9947 354.589 46.6351V69.0491C339.288 57.9626 324.287 52.4193 309.588 52.4193C301.877 52.4193 295.491 53.8654 290.431 56.7575C285.37 59.6497 282.84 63.6866 282.84 68.8683C282.84 72.0014 284.286 74.7128 287.178 77.0024C290.069 79.1715 293.202 80.8586 296.576 82.0636C300.07 83.1482 305.251 84.534 312.118 86.2211C319.347 88.0286 325.311 89.776 330.01 91.463C334.83 93.1501 339.709 95.5 344.649 98.5126C349.589 101.405 353.264 105.08 355.674 109.539C358.204 113.998 359.469 119.3 359.469 125.446C359.469 136.894 355.071 145.811 346.276 152.198C337.601 158.584 326.516 161.778 313.022 161.778Z" fill="#F7F6FF"/>
<path d="M402.982 161.778C398.765 161.778 394.669 161.296 390.693 160.332C386.837 159.368 383.102 157.861 379.487 155.813C375.873 153.644 372.921 150.571 370.632 146.594C368.342 142.497 367.198 137.737 367.198 132.314C367.077 122.553 370.451 115.142 377.319 110.081C384.186 104.899 394.006 102.309 406.777 102.309H435.874V96.5242C435.874 91.222 433.706 87.2453 429.368 84.5942C425.031 81.8226 419.428 80.4368 412.561 80.4368C399.428 80.4368 391.777 84.775 389.608 93.4514L369.728 93.8129C369.969 84.293 374.126 76.7614 382.198 71.2181C390.391 65.6749 400.392 62.9033 412.199 62.9033C424.127 62.9033 434.308 65.7954 442.742 71.5797C451.297 77.3639 455.574 84.8352 455.574 93.9936V160.332H435.874V145.871C433.103 149.727 428.886 153.342 423.224 156.717C417.681 160.091 410.934 161.778 402.982 161.778ZM404.609 144.606C412.561 144.606 419.729 141.894 426.115 136.472C432.621 131.049 435.874 124.662 435.874 117.311H410.392C402.56 117.311 396.717 118.818 392.861 121.83C389.126 124.722 387.5 128.398 387.982 132.857C388.343 136.954 390.15 139.966 393.403 141.894C396.657 143.702 400.392 144.606 404.609 144.606Z" fill="#F7F6FF"/>
<path d="M471.472 160.332L471.111 82.4251V61.2765C471.111 49.8285 475.81 41.2124 485.207 35.4281C494.605 29.6438 507.015 28.6798 522.437 32.536L522.257 48.4427C512.256 45.7916 504.666 45.7916 499.485 48.4427C494.425 50.9733 491.894 55.3115 491.894 61.4572V64.5301H521.534V82.4251H491.894L492.075 160.332H471.472Z" fill="#F7F6FF"/>
<path d="M576.176 161.778C562.441 161.778 550.814 156.958 541.296 147.317C531.777 137.556 527.018 125.867 527.018 112.25C527.018 98.5126 531.838 86.8838 541.476 77.3639C551.115 67.7235 562.682 62.9033 576.176 62.9033C588.104 62.9033 598.586 66.8197 607.623 74.6525C616.78 82.3649 622.382 92.0656 624.431 103.755C625.635 109.418 625.696 114.841 624.611 120.023H547.621C548.826 127.133 552.079 132.796 557.38 137.014C562.682 141.111 568.947 143.16 576.176 143.16C587.261 143.16 596.117 139.243 602.743 131.411H621.388C621.388 131.411 619.233 144.075 602.743 154.909C594.309 159.488 585.454 161.778 576.176 161.778ZM547.621 103.935H604.189C602.984 97.5485 599.791 92.1861 594.61 87.8479C589.55 83.5097 583.345 81.3406 575.995 81.3406C568.646 81.3406 562.381 83.5699 557.2 88.0286C552.019 92.3668 548.826 97.6691 547.621 103.935Z" fill="#F7F6FF"/>
<path d="M775.534 161.778C771.317 161.778 767.221 161.296 763.245 160.332C759.389 159.368 755.654 157.861 752.039 155.813C748.425 153.644 745.473 150.571 743.184 146.594C740.895 142.497 739.75 137.737 739.75 132.314C739.63 122.553 743.003 115.142 749.871 110.081C756.738 104.899 766.558 102.309 779.329 102.309H808.427V96.5242C808.427 91.222 806.258 87.2453 801.92 84.5942C797.583 81.8226 791.98 80.4368 785.113 80.4368C771.98 80.4368 764.329 84.775 762.16 93.4514L742.28 93.8129C742.521 84.293 746.678 76.7614 754.75 71.2181C762.943 65.6749 772.944 62.9033 784.751 62.9033C796.679 62.9033 806.86 65.7954 815.294 71.5797C823.849 77.3639 828.126 84.8352 828.126 93.9936V160.332H808.427V145.871C805.655 149.727 801.438 153.342 795.776 156.717C790.233 160.091 783.486 161.778 775.534 161.778ZM777.161 144.606C785.113 144.606 792.282 141.894 798.667 136.472C805.173 131.049 808.427 124.662 808.427 117.311H782.944C775.112 117.311 769.269 118.818 765.413 121.83C761.678 124.722 760.052 128.398 760.534 132.857C760.895 136.954 762.702 139.966 765.956 141.894C769.209 143.702 772.944 144.606 777.161 144.606Z" fill="#F7F6FF"/>
<path d="M843.217 160.332V35.4281H864V160.332H843.217Z" fill="#F7F6FF"/>
<path fill-rule="evenodd" clip-rule="evenodd" d="M636.69 35.4281H691.631C703.8 35.4281 713.921 39.5855 721.994 47.9004C730.066 56.0947 734.102 66.0364 734.102 77.7254C734.102 89.5349 730.066 99.4766 721.994 107.55C714.042 115.504 703.921 119.541 691.631 119.661L658.197 119.842V160.332H636.69V35.4281ZM690.185 100.32L658.197 100.501V54.95L690.185 54.7692C697.294 54.7692 702.897 56.878 706.993 61.0957C711.21 65.3134 713.319 70.6156 713.319 77.0024C713.319 83.5097 711.21 89.0529 706.993 93.6321C702.776 98.0908 697.174 100.32 690.185 100.32Z" fill="#F7F6FF"/>
<path d="M84.1721 0C78.3286 -5.40858e-07 72.7245 2.32136 68.5925 6.45339L3.68745 71.3596C1.22912 73.818 -2.01265e-05 77.0401 2.51021e-10 80.2622C2.0127e-05 83.4843 1.2292 86.7064 3.68752 89.1647L46.2218 131.699V56.3978C46.2218 50.7782 50.7417 46.2226 56.3613 46.2226C80.1029 46.2226 137.894 46.2226 145.776 46.2226L191.998 0.000655068L84.1721 0Z" fill="#4A21EF"/>
<path d="M46.2238 145.777H135.603C141.223 145.777 145.778 141.222 145.778 135.602V60.3007L188.313 102.835C190.771 105.294 192 108.516 192 111.738C192 114.96 190.771 118.182 188.313 120.64L123.408 185.547C119.276 189.679 113.672 192 107.828 192L0.00201613 191.999L46.2238 145.777Z" fill="#4A21EF"/>
</svg>
