<svg width="160" height="36" viewBox="0 0 160 36" fill="none" xmlns="http://www.w3.org/2000/svg">
<path d="M57.9669 30.181C55.1333 30.181 52.0096 29.2214 48.5958 27.3023V23.1515C51.8088 25.3161 54.9436 26.3985 58.0004 26.3985C59.406 26.3985 60.5216 26.1418 61.3472 25.6286C62.195 25.093 62.619 24.3566 62.619 23.4193C62.619 22.5713 62.2285 21.9018 61.4476 21.4109C60.6667 20.8976 59.4618 20.4401 57.833 20.0385C54.9101 19.2797 52.9244 18.6326 51.8757 18.097C49.5552 16.9143 48.395 15.1402 48.395 12.7747C48.395 10.7439 49.254 9.1372 50.9721 7.95447C52.6901 6.77173 54.8097 6.18036 57.331 6.18036C60.4101 6.18036 63.1879 7.07299 65.6646 8.85826V13.009C62.8309 10.9559 60.0531 9.92942 57.331 9.92942C55.903 9.92942 54.7205 10.1972 53.7834 10.7328C52.8463 11.2684 52.3777 12.0159 52.3777 12.9755C52.3777 13.5557 52.6455 14.0578 53.181 14.4818C53.7165 14.8835 54.2966 15.1959 54.9213 15.4191C55.5684 15.6199 56.5278 15.8766 57.7996 16.189C59.1383 16.5237 60.2427 16.8473 61.1129 17.1597C62.0054 17.4721 62.909 17.9073 63.8238 18.4652C64.7386 19.0008 65.4191 19.6814 65.8654 20.5071C66.3339 21.3328 66.5682 22.3147 66.5682 23.4528C66.5682 25.5728 65.7538 27.2241 64.125 28.4069C62.5186 29.5896 60.4659 30.181 57.9669 30.181Z" fill="#0D0B33"/>
<path d="M74.6262 30.181C73.8453 30.181 73.0867 30.0917 72.3504 29.9132C71.6364 29.7347 70.9447 29.4557 70.2753 29.0764C69.606 28.6747 69.0593 28.1056 68.6354 27.3692C68.2115 26.6105 67.9995 25.729 67.9995 24.7248C67.9772 22.9172 68.6019 21.5448 69.8737 20.6075C71.1455 19.6479 72.9639 19.1681 75.329 19.1681H80.7174V18.097C80.7174 17.1151 80.3158 16.3787 79.5125 15.8877C78.7093 15.3745 77.6718 15.1178 76.4 15.1178C73.968 15.1178 72.5512 15.9212 72.1496 17.5279L68.4681 17.5949C68.5127 15.8319 69.2825 14.4372 70.7774 13.4107C72.2946 12.3842 74.1465 11.8709 76.3331 11.8709C78.542 11.8709 80.4273 12.4065 81.9892 13.4776C83.5733 14.5488 84.3654 15.9324 84.3654 17.6284V29.9132H80.7174V27.2353C80.2042 27.9494 79.4233 28.6189 78.3746 29.2437C77.3483 29.8686 76.0988 30.181 74.6262 30.181ZM74.9274 27.001C76.4 27.001 77.7276 26.4989 78.9101 25.4947C80.115 24.4905 80.7174 23.3077 80.7174 21.9465H75.9984C74.5481 21.9465 73.466 22.2254 72.752 22.7833C72.0603 23.3189 71.7591 23.9995 71.8483 24.8252C71.9153 25.5839 72.25 26.1418 72.8524 26.4989C73.4548 26.8336 74.1465 27.001 74.9274 27.001Z" fill="#0D0B33"/>
<path d="M87.3096 29.9132L87.2426 15.486V12.1722V11.5696C87.2426 9.44963 88.1128 7.85405 89.8531 6.78289C91.5935 5.71173 93.8916 5.53321 96.7476 6.24731L96.7141 9.19299C94.8622 8.70205 93.4565 8.70205 92.4971 9.19299C91.56 9.66162 91.0915 10.465 91.0915 11.6031V12.1722H96.5802V15.486H91.0915L91.1249 29.9132H87.3096Z" fill="#0D0B33"/>
<path d="M106.699 30.181C104.156 30.181 102.003 29.2884 100.24 27.5031C98.4772 25.6955 97.5959 23.5309 97.5959 21.0092C97.5959 18.4652 98.4884 16.3117 100.273 14.5488C102.058 12.7635 104.2 11.8709 106.699 11.8709C108.908 11.8709 110.849 12.5961 112.523 14.0467C114.218 15.4749 115.256 17.2713 115.635 19.4359C115.858 20.4848 115.869 21.489 115.669 22.4486H101.411C101.634 23.7652 102.237 24.814 103.219 25.5951C104.2 26.3538 105.36 26.7332 106.699 26.7332C108.752 26.7332 110.392 26.0079 111.619 24.5574H115.072C115.072 24.5574 114.673 26.9027 111.619 28.909C110.057 29.757 108.417 30.181 106.699 30.181ZM101.411 19.4694H111.887C111.664 18.2867 111.072 17.2936 110.113 16.4903C109.176 15.6869 108.027 15.2852 106.666 15.2852C105.305 15.2852 104.144 15.698 103.185 16.5237C102.226 17.3271 101.634 18.309 101.411 19.4694Z" fill="#0D0B33"/>
<path d="M143.617 30.181C142.836 30.181 142.078 30.0917 141.341 29.9132C140.628 29.7347 139.936 29.4557 139.266 29.0764C138.597 28.6747 138.05 28.1056 137.627 27.3692C137.203 26.6105 136.991 25.729 136.991 24.7248C136.968 22.9172 137.593 21.5448 138.865 20.6075C140.137 19.6479 141.955 19.1681 144.32 19.1681H149.709V18.097C149.709 17.1151 149.307 16.3787 148.504 15.8877C147.7 15.3745 146.663 15.1178 145.391 15.1178C142.959 15.1178 141.542 15.9212 141.141 17.5279L137.459 17.5949C137.504 15.8319 138.274 14.4372 139.768 13.4107C141.286 12.3842 143.138 11.8709 145.324 11.8709C147.533 11.8709 149.418 12.4065 150.98 13.4776C152.564 14.5488 153.357 15.9324 153.357 17.6284V29.9132H149.709V27.2353C149.195 27.9494 148.414 28.6189 147.366 29.2437C146.339 29.8686 145.09 30.181 143.617 30.181ZM143.919 27.001C145.391 27.001 146.719 26.4989 147.901 25.4947C149.106 24.4905 149.709 23.3077 149.709 21.9465H144.99C143.539 21.9465 142.457 22.2254 141.743 22.7833C141.051 23.3189 140.75 23.9995 140.839 24.8252C140.906 25.5839 141.241 26.1418 141.844 26.4989C142.446 26.8336 143.138 27.001 143.919 27.001Z" fill="#0D0B33"/>
<path d="M156.151 29.9132V6.78289H160V29.9132H156.151Z" fill="#0D0B33"/>
<path fill-rule="evenodd" clip-rule="evenodd" d="M117.905 6.78289H128.08C130.333 6.78289 132.207 7.55278 133.702 9.09257C135.197 10.61 135.945 12.4511 135.945 14.6157C135.945 16.8027 135.197 18.6437 133.702 20.1389C132.23 21.6117 130.356 22.3593 128.08 22.3816L121.888 22.4151V29.9132H117.905V6.78289ZM127.812 18.7999L121.888 18.8334V10.398L127.812 10.3646C129.128 10.3646 130.166 10.7551 130.925 11.5362C131.705 12.3172 132.096 13.2991 132.096 14.4818C132.096 15.6869 131.705 16.7134 130.925 17.5614C130.144 18.3871 129.106 18.7999 127.812 18.7999Z" fill="#0D0B33"/>
<path d="M15.5874 0.222168C14.5053 0.222168 13.4675 0.652049 12.7023 1.41724L0.682861 13.4369C0.227615 13.8922 -3.72714e-06 14.4889 0 15.0855C3.72723e-06 15.6822 0.22763 16.2789 0.682874 16.7342L8.55959 24.6109V10.6662C8.55959 9.62554 9.39661 8.7819 10.4373 8.7819C14.8339 8.7819 25.5359 8.7819 26.9956 8.7819L35.5552 0.222289L15.5874 0.222168Z" fill="#4A21EF"/>
<path d="M8.55996 27.218H25.1117C26.1524 27.218 26.996 26.3743 26.996 25.3336V11.3889L34.8727 19.2657C35.328 19.721 35.5556 20.3176 35.5556 20.9143C35.5556 21.511 35.328 22.1077 34.8727 22.5629L22.8533 34.5826C22.0881 35.3478 21.0503 35.7777 19.9682 35.7777L0.000366211 35.7776L8.55996 27.218Z" fill="#4A21EF"/>
</svg>
