<svg width="0" height="0" class="hidden">
  <symbol xmlns="http://www.w3.org/2000/svg" viewBox="0 0 14 14" id="arrow-down-left">
    <path d="M13 1L1 13M1 13H9M1 13V5" stroke-width="1.5" stroke-linecap="round" stroke-linejoin="round"></path>
  </symbol>
  <symbol xmlns="http://www.w3.org/2000/svg" viewBox="0 0 14 14" id="arrow-down-right">
    <path d="M1 1L13 13M13 13V5M13 13H5" stroke-width="1.5" stroke-linecap="round" stroke-linejoin="round"></path>
  </symbol>
  <symbol fill="none" xmlns="http://www.w3.org/2000/svg" viewBox="0 0 18 14" id="arrow-right">
    <path d="M1 7H17M17 7L11 1M17 7L11 13" stroke-width="1.5" stroke-linecap="round" stroke-linejoin="round"></path>
  </symbol>
  <symbol fill="none" xmlns="http://www.w3.org/2000/svg" viewBox="0 0 12 12" id="arrow-up-right">
    <path d="M1 11L11 1M11 1H1M11 1V11" stroke-width="1.5" stroke-linecap="round" stroke-linejoin="round"></path>
  </symbol>
  <symbol xmlns="http://www.w3.org/2000/svg" viewBox="0 0 16 16" id="carbon-for-ibm">
    <g id="carbon-for-ibm-product-carbon">
      <path id="Vector" fill-rule="evenodd" clip-rule="evenodd" d="M8.9565 3.146C8.696 3.3635 8.3655 3.5 8 3.5C7.173 3.5 6.5 2.827 6.5 2C6.5 1.173 7.173 0.5 8 0.5C8.827 0.5 9.5 1.173 9.5 2C9.5 2.099 9.489 2.195 9.471 2.2885L13.7545 4.8195C13.9065 4.9095 14 5.073 14 5.25V9H13V5.5355L8.9565 3.146ZM8.5 2C8.5 1.724 8.2755 1.5 8 1.5C7.7245 1.5 7.5 1.724 7.5 2C7.5 2.276 7.7245 2.5 8 2.5C8.2755 2.5 8.5 2.276 8.5 2ZM3 5.5348V10.0918C3.5805 10.2988 4 10.8488 4 11.4998C4 12.3268 3.327 12.9998 2.5 12.9998C1.673 12.9998 1 12.3268 1 11.4998C1 10.8488 1.4195 10.2988 2 10.0918V5.2498C2 5.0728 2.0935 4.9093 2.2455 4.8193L5.5915 2.8418L6.1 3.7028L3 5.5348ZM2 11.4998C2 11.7758 2.2245 11.9998 2.5 11.9998C2.7755 11.9998 3 11.7758 3 11.4998C3 11.2238 2.7755 10.9998 2.5 10.9998C2.2245 10.9998 2 11.2238 2 11.4998ZM8.2545 4.5695L11.2545 6.3445C11.4065 6.4345 11.5 6.598 11.5 6.775V10.225C11.5 10.402 11.4065 10.5655 11.2545 10.655L8.2545 12.43C8.176 12.477 8.088 12.5 8 12.5C7.912 12.5 7.824 12.477 7.7455 12.43L4.7455 10.655C4.5935 10.5655 4.5 10.402 4.5 10.225V6.775C4.5 6.598 4.5935 6.4345 4.7455 6.345L7.7455 4.57C7.824 4.523 7.912 4.5 8 4.5C8.088 4.5 8.176 4.523 8.2545 4.5695ZM8 11.419L10.5 9.94V7.06L8 5.581L5.5 7.06V9.94L8 11.419ZM13.5 10C12.673 10 12 10.673 12 11.5C12 11.6765 12.036 11.8435 12.0925 12.001L8 14.419L4.798 12.527L4.2895 13.388L7.7455 15.43C7.824 15.477 7.912 15.5 8 15.5C8.088 15.5 8.176 15.477 8.2545 15.4305L12.7345 12.783C12.9595 12.9175 13.2195 13 13.5 13C14.327 13 15 12.327 15 11.5C15 10.673 14.327 10 13.5 10ZM13.5 12C13.2245 12 13 11.776 13 11.5C13 11.224 13.2245 11 13.5 11C13.7755 11 14 11.224 14 11.5C14 11.776 13.7755 12 13.5 12Z"></path>
    </g>
  </symbol>
  <symbol fill="none" xmlns="http://www.w3.org/2000/svg" viewBox="0 0 24 24" id="check-circle">
    <g id="check-circle">
      <path id="Icon" d="M7.5 12L10.5 15L16.5 9M22 12C22 17.5228 17.5228 22 12 22C6.47715 22 2 17.5228 2 12C2 6.47715 6.47715 2 12 2C17.5228 2 22 6.47715 22 12Z" stroke-width="1.5" stroke-linecap="round" stroke-linejoin="round"></path>
    </g>
  </symbol>
  <symbol fill="none" xmlns="http://www.w3.org/2000/svg" viewBox="0 0 14 8" id="chevron">
    <path d="M1 1L7 7L13 1" stroke-width="1.5" stroke-linecap="round" stroke-linejoin="round"></path>
  </symbol>
  <symbol fill="none" xmlns="http://www.w3.org/2000/svg" viewBox="0 0 22 22" id="circle">
    <path d="M11 21C16.5228 21 21 16.5228 21 11C21 5.47715 16.5228 1 11 1C5.47715 1 1 5.47715 1 11C1 16.5228 5.47715 21 11 21Z" stroke-width="1.5" stroke-linecap="round" stroke-linejoin="round"></path>
  </symbol>
  <symbol xmlns="http://www.w3.org/2000/svg" viewBox="0 0 16 16" id="content-delivery-network">
    <path fill-rule="evenodd" clip-rule="evenodd" d="M12.9437 3.05631C14.2553 4.36789 14.9946 6.14521 15 8.00005C15.0082 8.16828 14.9913 8.33678 14.95 8.50005H6C6.04509 10.4557 6.63374 12.3601 7.7 14.0001C8.58989 14.0547 9.48024 13.9006 10.3 13.5501L10.6 14.5001C9.77535 14.8385 8.89134 15.0085 8 15.0001C7.08072 15.0002 6.17041 14.8192 5.32108 14.4674C4.47175 14.1157 3.70004 13.6001 3.05 12.9501C2.39997 12.3 1.88436 11.5283 1.53262 10.679C1.18087 9.82964 0.999889 8.91934 1 8.00005C0.999929 6.76968 1.32786 5.56154 1.95 4.50005L2.7 5.15005C2.29514 5.87172 2.05602 6.67448 2 7.50005H5C5.06273 5.67268 5.52345 3.88101 6.35 2.25005C5.94141 2.3953 5.54084 2.5622 5.15 2.75005L4.6 1.90005C5.62952 1.29433 6.80563 0.983007 8 1.00005C9.85484 1.00549 11.6322 1.74473 12.9437 3.05631ZM3.75 12.2501C4.49713 12.9706 5.40573 13.502 6.4 13.8001C5.54696 12.1587 5.0688 10.3485 5 8.50005H2C2.14079 9.91245 2.75794 11.2349 3.75 12.2501ZM7.65 2.00005C6.61023 3.6493 6.03977 5.55081 6 7.50005H10C9.96023 5.55081 9.38977 3.6493 8.35 2.00005H7.65ZM9.6 2.20005C10.482 3.83006 10.962 5.64712 11 7.50005H13.95C13.8468 6.28008 13.3757 5.12017 12.599 4.17378C11.8222 3.2274 10.7764 2.53914 9.6 2.20005ZM4.5 3.5C4.5 4.05228 4.05228 4.5 3.5 4.5C2.94772 4.5 2.5 4.05228 2.5 3.5C2.5 2.94772 2.94772 2.5 3.5 2.5C4.05228 2.5 4.5 2.94772 4.5 3.5ZM11.5 10.5C11.5 11.0523 11.0523 11.5 10.5 11.5C9.94771 11.5 9.5 11.0523 9.5 10.5C9.5 9.94771 9.94771 9.5 10.5 9.5C11.0523 9.5 11.5 9.94771 11.5 10.5ZM13.5 15.5C13.1044 15.5 12.7178 15.3827 12.3889 15.1629C12.06 14.9432 11.8036 14.6308 11.6522 14.2654C11.5009 13.8999 11.4613 13.4978 11.5384 13.1098C11.6156 12.7219 11.8061 12.3655 12.0858 12.0858C12.3655 11.8061 12.7219 11.6156 13.1098 11.5384C13.4978 11.4613 13.8999 11.5009 14.2654 11.6522C14.6308 11.8036 14.9432 12.06 15.1629 12.3889C15.3827 12.7178 15.5 13.1044 15.5 13.5C15.4984 14.03 15.2872 14.5378 14.9125 14.9125C14.5378 15.2872 14.03 15.4984 13.5 15.5ZM13.5 12.5C13.3022 12.5 13.1089 12.5587 12.9444 12.6685C12.78 12.7784 12.6518 12.9346 12.5761 13.1173C12.5004 13.3 12.4806 13.5011 12.5192 13.6951C12.5578 13.8891 12.653 14.0673 12.7929 14.2071C12.9327 14.347 13.1109 14.4422 13.3049 14.4808C13.4989 14.5194 13.7 14.4996 13.8827 14.4239C14.0654 14.3482 14.2216 14.22 14.3315 14.0556C14.4414 13.8911 14.5 13.6978 14.5 13.5C14.4992 13.235 14.3936 12.9811 14.2062 12.7938C14.0189 12.6064 13.765 12.5008 13.5 12.5Z"></path>
  </symbol>
  <symbol stroke="none" xmlns="http://www.w3.org/2000/svg" viewBox="0 0 20 20" id="discord-green">
    <path fill-rule="evenodd" clip-rule="evenodd" d="M4.55626 2.5H15.4438C15.663 2.50052 15.88 2.54423 16.0824 2.62863C16.2848 2.71303 16.4686 2.83647 16.6232 2.99189C16.7779 3.14732 16.9004 3.33168 16.9839 3.53447C17.0673 3.73725 17.1099 3.95448 17.1094 4.17375V18.75L15.3625 17.2063L14.3794 16.2962L13.3394 15.3294L13.77 16.8325H4.55626C4.33699 16.832 4.11997 16.7883 3.91759 16.7039C3.71522 16.6195 3.53145 16.496 3.37678 16.3406C3.22211 16.1852 3.09957 16.0008 3.01615 15.798C2.93274 15.5952 2.89009 15.378 2.89063 15.1587V4.17375C2.89009 3.95448 2.93274 3.73725 3.01615 3.53447C3.09957 3.33168 3.22211 3.14732 3.37678 2.99189C3.53145 2.83647 3.71522 2.71303 3.91759 2.62863C4.11997 2.54423 4.33699 2.50052 4.55626 2.5ZM11.7713 12.4531C12.015 12.7619 12.3075 13.1112 12.3075 13.1112C12.7912 13.1235 13.2705 13.0174 13.7038 12.8021C14.1371 12.5869 14.5113 12.269 14.7938 11.8763C14.7674 10.2291 14.3673 8.6094 13.6238 7.13938C12.9694 6.62546 12.1716 6.32736 11.3406 6.28625L11.2269 6.41625C11.9667 6.61312 12.6563 6.96483 13.25 7.44812C12.4935 7.03112 11.6627 6.76615 10.8044 6.66812C10.2586 6.60798 9.7076 6.61344 9.16313 6.68437C9.1167 6.68577 9.07049 6.69121 9.02501 6.70062C8.38711 6.77316 7.76466 6.94591 7.18063 7.2125C6.88001 7.35063 6.70126 7.44812 6.70126 7.44812C7.32669 6.94064 8.05629 6.57723 8.83813 6.38375L8.75688 6.28625C7.92586 6.32736 7.1281 6.62546 6.47375 7.13938C5.73019 8.6094 5.33013 10.2291 5.30376 11.8763C5.58398 12.2694 5.95655 12.5877 6.38868 12.803C6.82081 13.0184 7.29924 13.1242 7.78188 13.1112C7.78188 13.1112 8.08251 12.7456 8.32625 12.4369C7.75503 12.2928 7.25209 11.9537 6.90438 11.4781C6.90438 11.4781 6.98563 11.535 7.13188 11.6163C7.14114 11.6263 7.15216 11.6345 7.16438 11.6406C7.17657 11.6487 7.18875 11.6548 7.20094 11.6609C7.21313 11.667 7.22532 11.6731 7.2375 11.6813C7.42865 11.7868 7.62682 11.8791 7.83063 11.9575C8.21728 12.1101 8.61707 12.2271 9.02501 12.3069C9.71986 12.4404 10.4335 12.4431 11.1294 12.315C11.5342 12.2442 11.9295 12.127 12.3075 11.9656C12.6361 11.8416 12.9495 11.6808 13.2419 11.4862C12.8811 11.972 12.3602 12.3145 11.7713 12.4531ZM8.0071 9.43112C8.16572 9.34132 8.34775 9.30151 8.52938 9.31689C8.64303 9.32163 8.75464 9.34873 8.85781 9.39663C8.96099 9.44453 9.05371 9.5123 9.13068 9.59606C9.20765 9.67982 9.26735 9.77793 9.30638 9.88477C9.34541 9.99162 9.36299 10.1051 9.35813 10.2188C9.35813 10.401 9.30311 10.5791 9.20025 10.7295C9.09739 10.88 8.95149 10.9959 8.78166 11.0621C8.61182 11.1283 8.42596 11.1417 8.24841 11.1005C8.07085 11.0593 7.90987 10.9654 7.78654 10.8312C7.6632 10.697 7.58327 10.5287 7.55719 10.3483C7.53111 10.1679 7.56011 9.98381 7.64039 9.82016C7.72066 9.65651 7.84847 9.52092 8.0071 9.43112ZM10.9727 9.43112C11.1313 9.34132 11.3134 9.30151 11.495 9.31689C11.6087 9.32163 11.7203 9.34873 11.8234 9.39663C11.9266 9.44453 12.0193 9.5123 12.0963 9.59606C12.1733 9.67982 12.233 9.77793 12.272 9.88477C12.311 9.99162 12.3286 10.1051 12.3238 10.2188C12.3238 10.401 12.2687 10.5791 12.1659 10.7295C12.063 10.88 11.9171 10.9959 11.7473 11.0621C11.5774 11.1283 11.3916 11.1417 11.214 11.1005C11.0365 11.0593 10.8755 10.9654 10.7522 10.8312C10.6288 10.697 10.5489 10.5287 10.5228 10.3483C10.4967 10.1679 10.5257 9.98381 10.606 9.82016C10.6863 9.65651 10.8141 9.52092 10.9727 9.43112Z" fill="#14F195"></path>
  </symbol>
  <symbol xmlns="http://www.w3.org/2000/svg" viewBox="0 0 16 16" id="discord">
    <path fill-rule="evenodd" clip-rule="evenodd" d="M3.91719 2.04614H12.0828C12.2473 2.04654 12.41 2.07932 12.5618 2.14262C12.7136 2.20592 12.8514 2.29849 12.9674 2.41506C13.0834 2.53163 13.1753 2.66991 13.2379 2.82199C13.3005 2.97408 13.3324 3.137 13.332 3.30146V14.2336L12.0219 13.0758L11.2845 12.3933L10.5045 11.6682L10.8275 12.7955H3.91719C3.75274 12.7951 3.58998 12.7623 3.43819 12.699C3.28641 12.6357 3.14859 12.5432 3.03258 12.4266C2.91658 12.31 2.82468 12.1718 2.76212 12.0197C2.69956 11.8676 2.66757 11.7047 2.66797 11.5402V3.30146C2.66757 3.137 2.69956 2.97408 2.76212 2.82199C2.82468 2.66991 2.91658 2.53163 3.03258 2.41506C3.14859 2.29849 3.28641 2.20592 3.43819 2.14262C3.58998 2.07932 3.75274 2.04654 3.91719 2.04614ZM9.32844 9.51099C9.51125 9.74255 9.73063 10.0046 9.73063 10.0046C10.0934 10.0137 10.4529 9.93416 10.7779 9.77273C11.1028 9.6113 11.3835 9.37292 11.5953 9.07833C11.5755 7.84295 11.2755 6.62819 10.7178 5.52567C10.2271 5.14024 9.62874 4.91666 9.00547 4.88583L8.92016 4.98333C9.47502 5.13098 9.99221 5.39477 10.4375 5.75724C9.8701 5.44448 9.24699 5.24575 8.60329 5.17224C8.19396 5.12713 7.7807 5.13122 7.37235 5.18442C7.33753 5.18547 7.30287 5.18955 7.26875 5.19661C6.79033 5.25101 6.3235 5.38057 5.88547 5.58052C5.66 5.68411 5.52594 5.75724 5.52594 5.75724C5.99502 5.37663 6.54222 5.10407 7.1286 4.95896L7.06766 4.88583C6.4444 4.91666 5.84608 5.14024 5.35532 5.52567C4.79764 6.62819 4.4976 7.84295 4.47782 9.07833C4.68799 9.37321 4.96742 9.61191 5.29151 9.77342C5.6156 9.93494 5.97443 10.0143 6.33641 10.0046C6.33641 10.0046 6.56188 9.73036 6.74469 9.4988C6.31627 9.39074 5.93907 9.1364 5.67828 8.77974C5.67828 8.77974 5.73922 8.82239 5.84891 8.88333C5.85586 8.89085 5.86412 8.89705 5.87329 8.90161C5.88243 8.90771 5.89157 8.91228 5.90071 8.91685C5.90985 8.92142 5.91899 8.92599 5.92813 8.93208C6.07148 9.01126 6.22012 9.08049 6.37297 9.13927C6.66296 9.25373 6.9628 9.34143 7.26875 9.4013C7.7899 9.50141 8.32514 9.50348 8.84703 9.40739C9.15066 9.35429 9.44714 9.26637 9.73063 9.14536C9.97705 9.05237 10.2121 8.93176 10.4314 8.78583C10.1608 9.15012 9.77015 9.40699 9.32844 9.51099ZM6.50532 7.24448C6.62429 7.17713 6.76082 7.14727 6.89704 7.15881C6.98228 7.16236 7.06598 7.18269 7.14336 7.21861C7.22074 7.25454 7.29028 7.30537 7.34801 7.36819C7.40574 7.43101 7.45051 7.50459 7.47978 7.58472C7.50906 7.66486 7.52224 7.74998 7.5186 7.83522C7.5186 7.97192 7.47733 8.10544 7.40019 8.21831C7.32304 8.33117 7.21362 8.41811 7.08624 8.46774C6.95887 8.51738 6.81947 8.52741 6.68631 8.49651C6.55314 8.4656 6.4324 8.39522 6.3399 8.29455C6.2474 8.19389 6.18745 8.06765 6.16789 7.93235C6.14834 7.79705 6.17008 7.659 6.23029 7.53626C6.2905 7.41353 6.38636 7.31183 6.50532 7.24448ZM8.72954 7.24448C8.84851 7.17713 8.98504 7.14727 9.12125 7.15881C9.20649 7.16236 9.2902 7.18269 9.36758 7.21861C9.44496 7.25454 9.5145 7.30537 9.57223 7.36819C9.62996 7.43101 9.67473 7.50459 9.704 7.58472C9.73327 7.66486 9.74646 7.74998 9.74282 7.83522C9.74282 7.97192 9.70155 8.10544 9.6244 8.21831C9.54726 8.33117 9.43784 8.41811 9.31046 8.46774C9.18309 8.51738 9.04369 8.52741 8.91052 8.49651C8.77736 8.4656 8.65662 8.39522 8.56412 8.29455C8.47162 8.19389 8.41167 8.06765 8.39211 7.93235C8.37255 7.79705 8.3943 7.659 8.45451 7.53626C8.51472 7.41353 8.61058 7.31183 8.72954 7.24448Z"></path>
  </symbol>
  <symbol stroke="none" xmlns="http://www.w3.org/2000/svg" viewBox="0 0 24 24" id="facebook-share">
    <g>
      <path id="Vector" d="M20.0025 3H3.9975C3.73355 3.00196 3.48097 3.10769 3.29433 3.29433C3.10769 3.48097 3.00196 3.73355 3 3.9975V20.0025C3.00196 20.2664 3.10769 20.519 3.29433 20.7057C3.48097 20.8923 3.73355 20.998 3.9975 21H12.615V14.04H10.275V11.3175H12.615V9.315C12.615 6.99 14.0325 5.7225 16.1175 5.7225C16.815 5.7225 17.5125 5.7225 18.21 5.8275V8.25H16.7775C15.645 8.25 15.4275 8.79 15.4275 9.5775V11.31H18.1275L17.775 14.0325H15.4275V21H20.0025C20.2664 20.998 20.519 20.8923 20.7057 20.7057C20.8923 20.519 20.998 20.2664 21 20.0025V3.9975C20.998 3.73355 20.8923 3.48097 20.7057 3.29433C20.519 3.10769 20.2664 3.00196 20.0025 3Z"></path>
    </g>
  </symbol>
  <symbol xmlns="http://www.w3.org/2000/svg" viewBox="0 0 16 16" id="github">
    <path fill-rule="evenodd" clip-rule="evenodd" d="M8.00011 1.10868C6.44212 1.10889 4.93502 1.66339 3.7484 2.67299C2.56179 3.68259 1.77308 5.08143 1.52334 6.61928C1.27361 8.15712 1.57916 9.73366 2.38532 11.0669C3.19149 12.4001 4.44568 13.403 5.92355 13.8962C6.25167 13.9571 6.3923 13.7556 6.3923 13.5821C6.3923 13.4087 6.3923 13.0149 6.3923 12.4665C4.56886 12.8602 4.18448 11.5852 4.18448 11.5852C4.05626 11.1834 3.78638 10.8419 3.42511 10.6243C2.8298 10.2212 3.47198 10.2259 3.47198 10.2259C3.67992 10.2552 3.8784 10.3318 4.05225 10.4496C4.22611 10.5674 4.37074 10.7233 4.47511 10.9056C4.65668 11.2312 4.96014 11.4714 5.31878 11.5734C5.67742 11.6754 6.06187 11.6307 6.38761 11.4493C6.41407 11.1167 6.5607 10.8051 6.80011 10.5727C5.34698 10.404 3.81417 9.8415 3.81417 7.329C3.80354 6.67645 4.04537 6.04501 4.48917 5.56649C4.28829 5.00127 4.31178 4.38054 4.5548 3.83212C4.5548 3.83212 5.10323 3.65399 6.35948 4.50243C7.43361 4.20944 8.5666 4.20944 9.64073 4.50243C10.8923 3.65399 11.4407 3.83212 11.4407 3.83212C11.6837 4.38054 11.7072 5.00127 11.5064 5.56649C11.9502 6.04501 12.192 6.67645 12.1814 7.329C12.1814 9.85087 10.6485 10.404 9.18605 10.5681C9.34271 10.7269 9.46352 10.9174 9.54034 11.1268C9.61715 11.3362 9.64819 11.5597 9.63136 11.7821C9.63136 12.6587 9.63136 13.3665 9.63136 13.5821C9.63136 13.7977 9.74854 13.9618 10.1001 13.8962C11.5799 13.4024 12.8354 12.3975 13.6414 11.0619C14.4475 9.7262 14.7513 8.14708 14.4985 6.60768C14.2457 5.06827 13.4528 3.66927 12.2619 2.66154C11.071 1.65382 9.56013 1.10329 8.00011 1.10868Z"></path>
  </symbol>
  <symbol xmlns="http://www.w3.org/2000/svg" viewBox="0 0 14 14" id="home">
    <path d="M6.92187 1.25575C6.84791 1.19803 6.75679 1.16669 6.66298 1.16669C6.56916 1.16669 6.47804 1.19803 6.40408 1.25575L0.416748 5.92475L0.93454 6.57962L1.66675 6.0087V11.1667C1.6672 11.3875 1.75514 11.5992 1.91132 11.7554C2.06751 11.9116 2.27921 11.9995 2.50008 12H10.8334C11.0543 11.9996 11.266 11.9117 11.4222 11.7555C11.5784 11.5993 11.6663 11.3875 11.6667 11.1667V6.0125L12.399 6.58333L12.9167 5.92841L6.92187 1.25575ZM7.50008 11.1667H5.83342V7.83333H7.50008V11.1667ZM8.33342 11.1667V7.83333C8.33316 7.61239 8.24528 7.40058 8.08906 7.24435C7.93283 7.08813 7.72102 7.00025 7.50008 7H5.83342C5.61247 7.00022 5.40064 7.08808 5.2444 7.24432C5.08817 7.40055 5.0003 7.61238 5.00008 7.83333V11.1667H2.50008V5.35895L6.66675 2.11312L10.8334 5.36333V11.1667H8.33342Z"></path>
  </symbol>
  <symbol stroke="none" xmlns="http://www.w3.org/2000/svg" viewBox="0 0 24 24" id="link">
    <g>
      <path id="Vector" fill-rule="evenodd" clip-rule="evenodd" d="M20.4757 4.09062C21.0227 4.31774 21.5195 4.65061 21.9376 5.07013C22.7823 5.91189 23.2583 7.05452 23.2611 8.24703C23.2639 9.43953 22.7933 10.5844 21.9526 11.4301L15.9526 17.4301C15.5324 17.8508 15.0331 18.184 14.4834 18.4106C13.9337 18.6372 13.3446 18.7526 12.7501 18.7501C11.5576 18.757 10.4112 18.2904 9.56256 17.4526C9.14304 17.0346 8.81018 16.5378 8.58305 15.9908C8.35593 15.4438 8.23901 14.8574 8.23901 14.2651C8.23901 13.6729 8.35593 13.0864 8.58305 12.5394C8.81018 11.9925 9.14304 11.4957 9.56256 11.0776L10.6276 10.0126L11.6851 11.0776L10.6276 12.1426C10.0646 12.7065 9.74879 13.471 9.74949 14.2678C9.7502 15.0646 10.0674 15.8285 10.6313 16.3914C11.1952 16.9543 11.9597 17.2702 12.7565 17.2694C13.5533 17.2687 14.3171 16.9515 14.8801 16.3876L20.8801 10.3876C21.1593 10.1084 21.3808 9.77692 21.5319 9.4121C21.683 9.04728 21.7608 8.65626 21.7608 8.26138C21.7608 7.8665 21.683 7.47548 21.5319 7.11066C21.3808 6.74584 21.1593 6.41435 20.8801 6.13513C20.6008 5.85591 20.2694 5.63442 19.9045 5.4833C19.5397 5.33219 19.1487 5.25441 18.7538 5.25441C18.3589 5.25441 17.9679 5.33219 17.6031 5.4833C17.2383 5.63442 16.9068 5.85591 16.6276 6.13513L15.5626 5.07013C15.9806 4.65061 16.4774 4.31774 17.0244 4.09062C17.5714 3.8635 18.1578 3.74658 18.7501 3.74658C19.3423 3.74658 19.9288 3.8635 20.4757 4.09062ZM2.48856 17.6401C2.64019 18.005 2.86242 18.3364 3.14248 18.6151C3.42123 18.8952 3.75257 19.1174 4.11745 19.269C4.48234 19.4207 4.87359 19.4987 5.26873 19.4987C5.66387 19.4987 6.05512 19.4207 6.42 19.269C6.78489 19.1174 7.11622 18.8952 7.39498 18.6151L8.45998 19.6801C7.60627 20.5267 6.4523 21.0013 5.24998 21.0001C4.05815 21.015 2.90909 20.5565 2.05498 19.7251C1.63433 19.3069 1.30051 18.8097 1.07272 18.262C0.844929 17.7143 0.727661 17.127 0.727661 16.5339C0.727661 15.9407 0.844929 15.3534 1.07272 14.8057C1.30051 14.258 1.63433 13.7608 2.05498 13.3426L8.05498 7.34261C8.90135 6.49624 10.0493 6.02075 11.2462 6.02075C12.4432 6.02075 13.5911 6.49624 14.4375 7.34261C15.2838 8.18898 15.7593 9.33691 15.7593 10.5339C15.7593 11.7308 15.2838 12.8787 14.4375 13.7251L12.8475 15.3151L11.7825 14.2501L13.3725 12.6376C13.6528 12.357 13.8746 12.0236 14.0253 11.6567C14.1759 11.2898 14.2523 10.8967 14.25 10.5001C14.2577 10.1047 14.1861 9.71184 14.0392 9.34467C13.8923 8.97751 13.6733 8.64356 13.395 8.36261C13.1162 8.08256 12.7849 7.86033 12.42 7.70869C12.0551 7.55705 11.6639 7.47899 11.2687 7.47899C10.8736 7.47899 10.4823 7.55705 10.1175 7.70869C9.75257 7.86033 9.42123 8.08256 9.14248 8.36261L3.14248 14.3626C2.86242 14.6414 2.64019 14.9727 2.48856 15.3376C2.33692 15.7025 2.25886 16.0937 2.25886 16.4889C2.25886 16.884 2.33692 17.2752 2.48856 17.6401Z"></path>
    </g>
  </symbol>
  <symbol xmlns="http://www.w3.org/2000/svg" viewBox="0 0 24 24" id="linkedin-share">
    <g>
      <path id="Vector" d="M19.6575 3.00002H4.3425C3.99354 2.99793 3.65764 3.13255 3.40671 3.37506C3.15579 3.61757 3.0098 3.9487 3 4.29752V19.65C3.00788 19.9995 3.15327 20.3317 3.40461 20.5747C3.65596 20.8176 3.99297 20.9516 4.3425 20.9475H19.6575C20.007 20.9516 20.344 20.8176 20.5954 20.5747C20.8467 20.3317 20.9921 19.9995 21 19.65V4.29752C20.9902 3.9487 20.8442 3.61757 20.5933 3.37506C20.3424 3.13255 20.0065 2.99793 19.6575 3.00002ZM8.3325 18.3075H5.6925V9.75002H8.3325V18.3075ZM7.0425 8.55752C6.63717 8.55764 6.24786 8.39923 5.95777 8.11615C5.66767 7.83306 5.49979 7.44774 5.49 7.04252C5.48266 6.83667 5.5178 6.63151 5.59322 6.43983C5.66864 6.24815 5.78273 6.07406 5.92839 5.92841C6.07404 5.78276 6.24813 5.66867 6.43981 5.59324C6.63149 5.51782 6.83665 5.48268 7.0425 5.49002C7.43463 5.51733 7.80181 5.69236 8.06993 5.9798C8.33805 6.26725 8.48716 6.64569 8.48716 7.03877C8.48716 7.43186 8.33805 7.8103 8.06993 8.09774C7.80181 8.38519 7.43463 8.56022 7.0425 8.58752V8.55752ZM18.36 18.255H15.75V14.07C15.75 13.0725 15.75 11.775 14.355 11.775C12.96 11.775 12.75 12.87 12.75 13.9725V18.21H10.08V9.75002H12.57V10.875H12.6225C12.8777 10.4318 13.2499 10.0672 13.6983 9.82122C14.1467 9.5752 14.6541 9.45717 15.165 9.48002C17.8575 9.48002 18.36 11.28 18.36 13.5675V18.255Z"></path>
    </g>
  </symbol>
  <symbol fill="none" xmlns="http://www.w3.org/2000/svg" viewBox="0 0 24 24" id="menu-01">
    <path d="M3 12H21M3 6H21M3 18H21" stroke-width="1.5" stroke-linecap="round" stroke-linejoin="round"></path>
  </symbol>
  <symbol fill="none" xmlns="http://www.w3.org/2000/svg" viewBox="0 0 24 24" id="play">
    <path d="M5 4.98951C5 4.01835 5 3.53277 5.20249 3.2651C5.37889 3.03191 5.64852 2.88761 5.9404 2.87018C6.27544 2.85017 6.67946 3.11953 7.48752 3.65823L18.0031 10.6686C18.6708 11.1137 19.0046 11.3363 19.1209 11.6168C19.2227 11.8621 19.2227 12.1377 19.1209 12.383C19.0046 12.6635 18.6708 12.886 18.0031 13.3312L7.48752 20.3415C6.67946 20.8802 6.27544 21.1496 5.9404 21.1296C5.64852 21.1122 5.37889 20.9679 5.20249 20.7347C5 20.467 5 19.9814 5 19.0103V4.98951Z" stroke-width="1.5" stroke-linecap="round" stroke-linejoin="round"></path>
  </symbol>
  <symbol xmlns="http://www.w3.org/2000/svg" viewBox="0 0 16 16" id="reddit">
    <path fill-rule="evenodd" clip-rule="evenodd" d="M14.5625 7.67114C14.5625 11.2955 11.6244 14.2336 8 14.2336C4.37563 14.2336 1.4375 11.2955 1.4375 7.67114C1.4375 4.04677 4.37563 1.10864 8 1.10864C11.6244 1.10864 14.5625 4.04677 14.5625 7.67114ZM11.4158 6.7117C11.9454 6.7117 12.3753 7.14153 12.3753 7.67113C12.3753 8.06258 12.1373 8.4003 11.8226 8.55381C11.838 8.64591 11.8457 8.73802 11.8457 8.8378C11.8457 10.3115 10.134 11.5012 8.01561 11.5012C5.89719 11.5012 4.18557 10.3115 4.18557 8.8378C4.18557 8.73802 4.19324 8.63824 4.20859 8.54613C3.87087 8.39262 3.64061 8.06258 3.64061 7.67113C3.64061 7.14153 4.07044 6.7117 4.60004 6.7117C4.85333 6.7117 5.09127 6.81916 5.26013 6.98034C5.92022 6.49679 6.83359 6.19745 7.85443 6.16675L8.33798 3.87947C8.35333 3.83341 8.37636 3.79504 8.41473 3.77201C8.45311 3.74898 8.49916 3.74131 8.54522 3.74898L10.134 4.0867C10.2415 3.85644 10.4718 3.70293 10.7404 3.70293C11.1165 3.70293 11.4235 4.00995 11.4235 4.38604C11.4235 4.76214 11.1165 5.06916 10.7404 5.06916C10.372 5.06916 10.0726 4.77749 10.0573 4.41675L8.63732 4.1174L8.19982 6.16675C9.19763 6.20512 10.1033 6.51214 10.7557 6.98034C10.9246 6.81148 11.1549 6.7117 11.4158 6.7117ZM6.49587 7.67113C6.11978 7.67113 5.81276 7.97815 5.81276 8.35425C5.81276 8.73034 6.11978 9.03736 6.49587 9.03736C6.87197 9.03736 7.17899 8.73034 7.17899 8.35425C7.17899 7.97815 6.87197 7.67113 6.49587 7.67113ZM8.00794 10.6569C8.2689 10.6569 9.15925 10.6262 9.62745 10.158C9.69653 10.0889 9.69653 9.98144 9.6428 9.90469C9.57372 9.83561 9.45859 9.83561 9.38951 9.90469C9.09017 10.1964 8.46846 10.3038 8.01561 10.3038C7.56276 10.3038 6.93337 10.1964 6.64171 9.90469C6.57263 9.83561 6.4575 9.83561 6.38842 9.90469C6.31934 9.97376 6.31934 10.0889 6.38842 10.158C6.84894 10.6185 7.74697 10.6569 8.00794 10.6569ZM8.82153 8.35425C8.82153 8.73034 9.12855 9.03736 9.50465 9.03736C9.88074 9.03736 10.1878 8.73034 10.1878 8.35425C10.1878 7.97815 9.88074 7.67113 9.50465 7.67113C9.12855 7.67113 8.82153 7.97815 8.82153 8.35425Z"></path>
  </symbol>
  <symbol fill="none" xmlns="http://www.w3.org/2000/svg" viewBox="0 0 24 24" id="search">
    <path d="M21 21L15.0001 15M17 10C17 13.866 13.866 17 10 17C6.13401 17 3 13.866 3 10C3 6.13401 6.13401 3 10 3C13.866 3 17 6.13401 17 10Z" stroke-width="1.5" stroke-linecap="round" stroke-linejoin="round"></path>
  </symbol>
  <symbol fill="none" xmlns="http://www.w3.org/2000/svg" viewBox="0 0 21 20" id="slash">
    <path d="M6.1665 18.3334L14.4998 1.66669" stroke-width="1.66667" stroke-linecap="round" stroke-linejoin="round"></path>
  </symbol>
  <symbol stroke="none" xmlns="http://www.w3.org/2000/svg" viewBox="0 0 20 20" id="solana-green">
    <path d="M17.4227 13.3409L14.9466 16.0627C14.8927 16.1219 14.8276 16.169 14.7552 16.2012C14.6829 16.2334 14.6048 16.25 14.5259 16.25H2.78747C2.73146 16.25 2.67667 16.2332 2.62983 16.2017C2.58299 16.1703 2.54615 16.1254 2.52382 16.0728C2.5015 16.0202 2.49467 15.962 2.50416 15.9054C2.51366 15.8488 2.53908 15.7963 2.57729 15.7543L5.05536 13.0325C5.10904 12.9735 5.17397 12.9265 5.24611 12.8943C5.31825 12.8621 5.39607 12.8454 5.47476 12.8452H17.2125C17.2685 12.8452 17.3233 12.862 17.3702 12.8935C17.417 12.925 17.4538 12.9698 17.4762 13.0224C17.4985 13.0751 17.5053 13.1333 17.4958 13.1898C17.4863 13.2464 17.4609 13.2989 17.4227 13.3409ZM14.9466 7.85988C14.8927 7.80075 14.8276 7.75361 14.7552 7.7214C14.6829 7.68918 14.6048 7.67258 14.5259 7.67262H2.78747C2.73146 7.67262 2.67667 7.68939 2.62983 7.72087C2.58299 7.75235 2.54615 7.79717 2.52382 7.84982C2.5015 7.90247 2.49467 7.96065 2.50416 8.01723C2.51366 8.0738 2.53908 8.1263 2.57729 8.16827L5.05536 10.8901C5.10904 10.9491 5.17397 10.9961 5.24611 11.0283C5.31825 11.0606 5.39607 11.0772 5.47476 11.0774H17.2125C17.2685 11.0774 17.3233 11.0606 17.3702 11.0291C17.417 10.9976 17.4538 10.9528 17.4762 10.9002C17.4985 10.8475 17.5053 10.7893 17.4958 10.7328C17.4863 10.6762 17.4609 10.6237 17.4227 10.5817L14.9466 7.85988ZM2.78747 5.90476H14.5259C14.6048 5.9048 14.6829 5.8882 14.7552 5.85598C14.8276 5.82377 14.8927 5.77663 14.9466 5.7175L17.4227 2.99565C17.4609 2.95368 17.4863 2.90118 17.4958 2.84461C17.5053 2.78804 17.4985 2.72985 17.4762 2.6772C17.4538 2.62455 17.417 2.57973 17.3702 2.54825C17.3233 2.51677 17.2685 2.5 17.2125 2.5H5.47476C5.39607 2.50014 5.31825 2.51683 5.24611 2.54904C5.17397 2.58125 5.10904 2.62829 5.05536 2.68726L2.57793 5.40911C2.53975 5.45104 2.51435 5.50348 2.50483 5.55999C2.49531 5.61651 2.50209 5.67464 2.52434 5.72726C2.54658 5.77989 2.58333 5.82471 2.63007 5.85624C2.67681 5.88777 2.73151 5.90463 2.78747 5.90476Z" fill="#14F195"></path>
  </symbol>
  <symbol xmlns="http://www.w3.org/2000/svg" viewBox="0 0 20 20" id="solana">
    <path d="M17.4227 13.3409L14.9466 16.0627C14.8927 16.1219 14.8276 16.169 14.7552 16.2012C14.6829 16.2334 14.6048 16.25 14.5259 16.25H2.78747C2.73146 16.25 2.67667 16.2332 2.62983 16.2017C2.58299 16.1703 2.54615 16.1254 2.52382 16.0728C2.5015 16.0202 2.49467 15.962 2.50416 15.9054C2.51366 15.8488 2.53908 15.7963 2.57729 15.7543L5.05536 13.0325C5.10904 12.9735 5.17397 12.9265 5.24611 12.8943C5.31825 12.8621 5.39607 12.8454 5.47476 12.8452H17.2125C17.2685 12.8452 17.3233 12.862 17.3702 12.8935C17.417 12.925 17.4538 12.9698 17.4762 13.0224C17.4985 13.0751 17.5053 13.1333 17.4958 13.1898C17.4863 13.2464 17.4609 13.2989 17.4227 13.3409ZM14.9466 7.85988C14.8927 7.80075 14.8276 7.75361 14.7552 7.7214C14.6829 7.68918 14.6048 7.67258 14.5259 7.67262H2.78747C2.73146 7.67262 2.67667 7.68939 2.62983 7.72087C2.58299 7.75235 2.54615 7.79717 2.52382 7.84982C2.5015 7.90247 2.49467 7.96065 2.50416 8.01723C2.51366 8.0738 2.53908 8.1263 2.57729 8.16827L5.05536 10.8901C5.10904 10.9491 5.17397 10.9961 5.24611 11.0283C5.31825 11.0606 5.39607 11.0772 5.47476 11.0774H17.2125C17.2685 11.0774 17.3233 11.0606 17.3702 11.0291C17.417 10.9976 17.4538 10.9528 17.4762 10.9002C17.4985 10.8475 17.5053 10.7893 17.4958 10.7328C17.4863 10.6762 17.4609 10.6237 17.4227 10.5817L14.9466 7.85988ZM2.78747 5.90476H14.5259C14.6048 5.9048 14.6829 5.8882 14.7552 5.85598C14.8276 5.82377 14.8927 5.77663 14.9466 5.7175L17.4227 2.99565C17.4609 2.95368 17.4863 2.90118 17.4958 2.84461C17.5053 2.78804 17.4985 2.72985 17.4762 2.6772C17.4538 2.62455 17.417 2.57973 17.3702 2.54825C17.3233 2.51677 17.2685 2.5 17.2125 2.5H5.47476C5.39607 2.50014 5.31825 2.51683 5.24611 2.54904C5.17397 2.58125 5.10904 2.62829 5.05536 2.68726L2.57793 5.40911C2.53975 5.45104 2.51435 5.50348 2.50483 5.55999C2.49531 5.61651 2.50209 5.67464 2.52434 5.72726C2.54658 5.77989 2.58333 5.82471 2.63007 5.85624C2.67681 5.88777 2.73151 5.90463 2.78747 5.90476Z"></path>
  </symbol>
  <symbol xmlns="http://www.w3.org/2000/svg" viewBox="0 0 15 14" id="star">
    <path id="Vector" d="M7.51991 0L5.24491 4.61L0.159912 5.345L3.83991 8.935L2.96991 14L7.51991 11.61L12.0699 14L11.1999 8.935L14.8799 5.35L9.79491 4.61L7.51991 0Z"></path>
  </symbol>
  <symbol xmlns="http://www.w3.org/2000/svg" viewBox="0 0 16 16" id="sub-volume-carbon">
    <path d="M14.7369 9.56024L11.8402 8.00024L14.7369 6.44024C14.8164 6.39742 14.8828 6.3339 14.9291 6.2564C14.9753 6.1789 14.9998 6.09032 14.9998 6.00006C14.9998 5.9098 14.9753 5.82122 14.9291 5.74372C14.8828 5.66623 14.8164 5.6027 14.7369 5.55989L8.23694 2.05989C8.16411 2.02058 8.08265 2 7.99989 2C7.91713 2 7.83567 2.02058 7.76284 2.05989L1.26284 5.55989C1.18338 5.6027 1.11698 5.66623 1.07071 5.74372C1.02443 5.82122 1 5.9098 1 6.00006C1 6.09032 1.02443 6.1789 1.07071 6.2564C1.11698 6.3339 1.18338 6.39742 1.26284 6.44024L4.15954 8.00024L1.26284 9.56024C1.18338 9.60305 1.11698 9.66658 1.07071 9.74407C1.02443 9.82157 1 9.91015 1 10.0004C1 10.0907 1.02443 10.1793 1.07071 10.2568C1.11698 10.3342 1.18338 10.3978 1.26284 10.4406L7.76284 13.9406C7.83568 13.9798 7.91714 14.0004 7.99989 14.0004C8.08264 14.0004 8.16409 13.9798 8.23694 13.9406L14.7369 10.4406C14.8164 10.3978 14.8828 10.3342 14.9291 10.2568C14.9753 10.1793 14.9998 10.0907 14.9998 10.0004C14.9998 9.91015 14.9753 9.82157 14.9291 9.74407C14.8828 9.66658 14.8164 9.60305 14.7369 9.56024ZM7.99989 3.06819L13.4452 6.00024L7.99989 8.93239L2.55459 6.00024L7.99989 3.06819ZM7.99989 12.9324L2.55459 10.0002L5.21424 8.56814L7.76284 9.94024C7.83568 9.97949 7.91714 10 7.99989 10C8.08264 10 8.16409 9.97949 8.23694 9.94024L10.7855 8.56794L13.4452 10.0002L7.99989 12.9324Z"></path>
  </symbol>
  <symbol stroke="none" xmlns="http://www.w3.org/2000/svg" viewBox="0 0 24 24" id="telegram-share">
    <g>
      <g id="g13">
        <path id="Exclude" fill-rule="evenodd" clip-rule="evenodd" d="M22.4133 12C22.4133 17.7512 17.751 22.4135 11.9997 22.4135C6.24849 22.4135 1.58618 17.7512 1.58618 12C1.58618 6.24873 6.24849 1.58643 11.9997 1.58643C17.751 1.58643 22.4133 6.24873 22.4133 12ZM12.3732 9.27408C11.3604 9.69537 9.33603 10.5673 6.30027 11.89C5.80731 12.086 5.54908 12.2778 5.52557 12.4653C5.48584 12.7822 5.8827 12.907 6.42314 13.0769C6.49665 13.1001 6.57281 13.124 6.6509 13.1494C7.1826 13.3222 7.89783 13.5244 8.26964 13.5325C8.60692 13.5397 8.98335 13.4007 9.39895 13.1153C12.2354 11.2007 13.6995 10.2329 13.7915 10.212C13.8563 10.1973 13.9462 10.1788 14.0071 10.2329C14.068 10.287 14.062 10.3895 14.0555 10.417C14.0162 10.5846 12.4583 12.033 11.6522 12.7825C11.4008 13.0161 11.2226 13.1819 11.1861 13.2197C11.1045 13.3045 11.0213 13.3847 10.9413 13.4618C10.4474 13.938 10.0769 14.2951 10.9618 14.8782C11.3871 15.1584 11.7274 15.3902 12.0668 15.6213C12.4376 15.8738 12.8074 16.1256 13.2858 16.4393C13.4077 16.5192 13.5241 16.6022 13.6375 16.683C14.0689 16.9906 14.4566 17.2669 14.9354 17.2229C15.2137 17.1972 15.5011 16.9356 15.6471 16.1552C15.9921 14.311 16.6702 10.315 16.8269 8.6684C16.8407 8.52413 16.8234 8.3395 16.8095 8.25845C16.7956 8.1774 16.7667 8.06192 16.6613 7.97644C16.5365 7.8752 16.3439 7.85384 16.2578 7.85529C15.8661 7.86227 15.2652 8.07122 12.3732 9.27408Z"></path>
      </g>
    </g>
  </symbol>
  <symbol xmlns="http://www.w3.org/2000/svg" viewBox="0 0 16 16" id="telegram">
    <path fill-rule="evenodd" clip-rule="evenodd" d="M14.5084 7.67126C14.5084 11.2658 11.5945 14.1797 7.99993 14.1797C4.4054 14.1797 1.49146 11.2658 1.49146 7.67126C1.49146 4.07672 4.4054 1.16278 7.99993 1.16278C11.5945 1.16278 14.5084 4.07672 14.5084 7.67126ZM8.23337 5.9675C7.60032 6.2308 6.33512 6.77578 4.43777 7.60243C4.12967 7.72495 3.96827 7.84481 3.95358 7.96201C3.92875 8.16008 4.17679 8.23808 4.51456 8.34429C4.56051 8.35873 4.60811 8.3737 4.65691 8.38957C4.98923 8.49759 5.43624 8.62396 5.66863 8.62898C5.87943 8.63354 6.1147 8.54663 6.37445 8.36827C8.1472 7.17161 9.06231 6.56676 9.11976 6.55372C9.16029 6.54452 9.21646 6.53295 9.25452 6.56678C9.29257 6.6006 9.28883 6.66466 9.2848 6.68185C9.26023 6.7866 8.28657 7.69179 7.78271 8.16023C7.62563 8.30627 7.51421 8.40986 7.49143 8.43351C7.44041 8.48651 7.38841 8.53664 7.33843 8.58482C7.0297 8.88243 6.79819 9.10562 7.35125 9.47007C7.61702 9.64521 7.82969 9.79004 8.04186 9.93453C8.27358 10.0923 8.50469 10.2497 8.80372 10.4457C8.8799 10.4957 8.95266 10.5475 9.02353 10.5981C9.29319 10.7903 9.53545 10.963 9.83476 10.9355C10.0087 10.9195 10.1883 10.7559 10.2796 10.2682C10.4952 9.11555 10.919 6.61809 11.0169 5.58895C11.0255 5.49878 11.0147 5.38339 11.006 5.33273C10.9974 5.28207 10.9793 5.2099 10.9134 5.15647C10.8354 5.0932 10.7151 5.07985 10.6612 5.08076C10.4164 5.08511 10.0408 5.21571 8.23337 5.9675Z"></path>
  </symbol>
  <symbol xmlns="http://www.w3.org/2000/svg" fill="currentColor" viewBox="0 0 16 16" id="twitter-share">
    <path d="M12.6.75h2.454l-5.36 6.142L16 15.25h-4.937l-3.867-5.07-4.425 5.07H.316l5.733-6.57L0 .75h5.063l3.495 4.633L12.601.75Zm-.86 13.028h1.36L4.323 2.145H2.865l8.875 11.633Z"></path>
  </symbol>
  <symbol xmlns="http://www.w3.org/2000/svg" fill="currentColor" viewBox="0 0 16 16" id="twitter">
    <path d="M12.6.75h2.454l-5.36 6.142L16 15.25h-4.937l-3.867-5.07-4.425 5.07H.316l5.733-6.57L0 .75h5.063l3.495 4.633L12.601.75Zm-.86 13.028h1.36L4.323 2.145H2.865l8.875 11.633Z"></path>
  </symbol>
  <symbol fill="none" xmlns="http://www.w3.org/2000/svg" viewBox="0 0 20 20" id="x-close">
    <path d="M15 5L5 15M5 5L15 15" stroke-width="1.66667" stroke-linecap="round" stroke-linejoin="round"></path>
  </symbol>
  <symbol stroke="none" xmlns="http://www.w3.org/2000/svg" viewBox="0 0 18 14" id="youtube">
    <path d="M17.3812 2.7875C17.2816 2.41753 17.0866 2.0802 16.8157 1.80927C16.5448 1.53835 16.2075 1.34334 15.8375 1.24375C14.475 0.875 8.99998 0.875 8.99998 0.875C8.99998 0.875 3.52498 0.875 2.16248 1.24375C1.79251 1.34334 1.45518 1.53835 1.18425 1.80927C0.91333 2.0802 0.718317 2.41753 0.618732 2.7875C0.364323 4.17704 0.240865 5.58739 0.249982 7C0.240865 8.41261 0.364323 9.82296 0.618732 11.2125C0.718317 11.5825 0.91333 11.9198 1.18425 12.1907C1.45518 12.4617 1.79251 12.6567 2.16248 12.7563C3.52498 13.125 8.99998 13.125 8.99998 13.125C8.99998 13.125 14.475 13.125 15.8375 12.7563C16.2075 12.6567 16.5448 12.4617 16.8157 12.1907C17.0866 11.9198 17.2816 11.5825 17.3812 11.2125C17.6356 9.82296 17.7591 8.41261 17.75 7C17.7591 5.58739 17.6356 4.17704 17.3812 2.7875ZM7.24998 9.625V4.375L11.7937 7L7.24998 9.625Z"></path>
  </symbol>
</svg>