<svg width="20" height="20" viewBox="0 0 20 20" fill="none" xmlns="http://www.w3.org/2000/svg">
<path d="M11.668 5L14.5123 2.15567C13.7659 1.84076 12.9456 1.66667 12.0846 1.66667C8.63286 1.66667 5.83464 4.46489 5.83464 7.91667C5.83464 8.77765 6.00873 9.59797 6.32363 10.3443L1.66797 15L5.0013 18.3333L9.65697 13.6777C10.4033 13.9926 11.2237 14.1667 12.0846 14.1667C15.5364 14.1667 18.3346 11.3685 18.3346 7.91667C18.3346 7.05569 18.1605 6.23538 17.8456 5.489L15.0013 8.33334C14.0808 9.25381 12.5884 9.25381 11.668 8.33334C10.7475 7.41286 10.7475 5.92048 11.668 5Z" fill="white" style="fill:white;fill-opacity:1;"/>
</svg>
