<svg width="238" height="153" viewBox="0 0 238 153" fill="none" xmlns="http://www.w3.org/2000/svg">
<g clip-path="url(#clip0_6260_9660)">
<path d="M0 0H340V153H0V0Z" fill="#F0850B"/>
<path d="M0 0H340V153H0V0Z" fill="black" fill-opacity="0.2"/>
<g style="mix-blend-mode:color-dodge" opacity="0.34">
<rect width="238" height="153" fill="url(#paint0_linear_6260_9660)"/>
</g>
<g clip-path="url(#clip1_6260_9660)">
<path d="M87.2979 75.9502L94.4676 68.7805L101.637 75.9502L94.4676 83.12L87.2979 75.9502Z" fill="white"/>
<path d="M99.5889 63.6593L119.05 44.1984L138.511 63.6593L131.341 70.8291L119.05 58.538L106.759 70.8291L99.5889 63.6593Z" fill="white"/>
<path d="M111.88 75.9502L119.05 68.7805L126.219 75.9502L119.05 83.12L111.88 75.9502Z" fill="white"/>
<path d="M106.759 81.0717L99.5889 88.2414L119.05 107.702L138.511 88.2414L131.341 81.0717L119.05 93.3627L106.759 81.0717Z" fill="white"/>
<path d="M136.463 75.9502L143.632 68.7805L150.802 75.9502L143.632 83.12L136.463 75.9502Z" fill="white"/>
</g>
</g>
<defs>
<linearGradient id="paint0_linear_6260_9660" x1="0" y1="76.5" x2="238" y2="76.5" gradientUnits="userSpaceOnUse">
<stop stop-color="#504D61"/>
<stop offset="0.496118" stop-color="white"/>
<stop offset="1" stop-color="#504D61"/>
</linearGradient>
<clipPath id="clip0_6260_9660">
<rect width="238" height="153" rx="16" fill="white"/>
</clipPath>
<clipPath id="clip1_6260_9660">
<rect width="64" height="64" fill="white" transform="translate(87 44)"/>
</clipPath>
</defs>
</svg>
