<svg width="238" height="153" viewBox="0 0 238 153" fill="none" xmlns="http://www.w3.org/2000/svg">
<g clip-path="url(#clip0_6260_9644)">
<path d="M0 0H340V153H0V0Z" fill="#0052FF"/>
<path d="M0 0H340V153H0V0Z" fill="black" fill-opacity="0.2"/>
<g style="mix-blend-mode:color-dodge" opacity="0.34">
<rect width="238" height="153" fill="url(#paint0_linear_6260_9644)"/>
</g>
<g clip-path="url(#clip1_6260_9644)">
<path fill-rule="evenodd" clip-rule="evenodd" d="M93 76C93 90.3594 104.641 102 119 102C133.359 102 145 90.3594 145 76C145 61.6406 133.359 50 119 50C104.641 50 93 61.6406 93 76ZM112.356 67.6222C111.398 67.6222 110.622 68.3983 110.622 69.3555V82.6445C110.622 83.6017 111.398 84.3778 112.356 84.3778H125.644C126.602 84.3778 127.378 83.6017 127.378 82.6445V69.3555C127.378 68.3983 126.602 67.6222 125.644 67.6222H112.356Z" fill="white"/>
</g>
</g>
<defs>
<linearGradient id="paint0_linear_6260_9644" x1="0" y1="76.5" x2="238" y2="76.5" gradientUnits="userSpaceOnUse">
<stop stop-color="#504D61"/>
<stop offset="0.496118" stop-color="white"/>
<stop offset="1" stop-color="#504D61"/>
</linearGradient>
<clipPath id="clip0_6260_9644">
<rect width="238" height="153" rx="16" fill="white"/>
</clipPath>
<clipPath id="clip1_6260_9644">
<rect width="52" height="52" fill="white" transform="translate(93 50)"/>
</clipPath>
</defs>
</svg>
