<svg width="238" height="153" viewBox="0 0 238 153" fill="none" xmlns="http://www.w3.org/2000/svg">
<g clip-path="url(#clip0_6260_9701)">
<path d="M0 0H340V153H0V0Z" fill="url(#paint0_linear_6260_9701)"/>
<path d="M0 0H340V153H0V0Z" fill="black" fill-opacity="0.2"/>
<g clip-path="url(#clip1_6260_9701)">
<mask id="mask0_6260_9701" style="mask-type:luminance" maskUnits="userSpaceOnUse" x="91" y="56" width="216" height="41">
<path d="M306.26 56.6053H91V96.019H306.26V56.6053Z" fill="white"/>
</mask>
<g mask="url(#mask0_6260_9701)">
<path d="M110.578 96.019C99.7843 96.019 91 87.1769 91 76.3121C91 65.4474 99.7843 56.6053 110.578 56.6053C121.372 56.6053 130.156 65.4474 130.156 76.3121H124.666C124.666 68.4979 118.341 62.1316 110.578 62.1316C102.815 62.1316 96.4902 68.4979 96.4902 76.3121C96.4902 84.1263 102.815 90.4927 110.578 90.4927C113.049 90.4927 115.475 89.8405 117.595 88.6137L120.329 93.3995C117.375 95.1127 114.004 96.019 110.567 96.019H110.578Z" fill="white"/>
<path d="M127.355 96.019C123.732 96.019 120.196 95.0132 117.133 93.1232C111.28 89.509 107.777 83.22 107.777 76.3121C107.777 69.4042 111.544 62.7395 117.594 59.2248C120.548 57.5116 123.919 56.6053 127.355 56.6053C138.149 56.6053 146.933 65.4474 146.933 76.3121C146.933 87.1769 138.149 96.019 127.355 96.019ZM127.355 62.1316C124.885 62.1316 122.458 62.7837 120.339 64.0105C115.98 66.5416 113.268 71.25 113.268 76.3121C113.268 81.3742 115.782 85.8063 119.999 88.4148C122.206 89.7742 124.753 90.4927 127.355 90.4927C135.119 90.4927 141.443 84.1263 141.443 76.3121C141.443 68.4979 135.119 62.1316 127.355 62.1316Z" fill="white"/>
</g>
</g>
</g>
<defs>
<linearGradient id="paint0_linear_6260_9701" x1="170" y1="0" x2="170" y2="153" gradientUnits="userSpaceOnUse">
<stop stop-color="#1F2138"/>
<stop offset="1" stop-color="#575D9E"/>
</linearGradient>
<clipPath id="clip0_6260_9701">
<rect width="238" height="153" rx="16" fill="white"/>
</clipPath>
<clipPath id="clip1_6260_9701">
<rect width="56" height="39.7895" fill="white" transform="translate(91 56.6053)"/>
</clipPath>
</defs>
</svg>
