<svg width="238" height="153" viewBox="0 0 238 153" fill="none" xmlns="http://www.w3.org/2000/svg">
<g clip-path="url(#clip0_6260_9680)">
<path d="M0 0H340V153H0V0Z" fill="#141A33"/>
<path d="M0 0H340V153H0V0Z" fill="black" fill-opacity="0.2"/>
<g style="mix-blend-mode:color-dodge" opacity="0.34">
<rect width="238" height="153" fill="url(#paint0_linear_6260_9680)"/>
</g>
<path d="M95.4898 72.6529C94.699 72.2863 94.3507 71.3593 94.7121 70.5685C95.0708 69.7777 96.003 69.4295 96.7912 69.7908L149.337 93.7059C150.123 94.0646 150.476 94.9968 150.115 95.785C149.756 96.5758 148.824 96.9241 148.036 96.5653L95.4898 72.6529Z" fill="#D426FC"/>
<path d="M121.528 41.5711C121.528 40.707 122.23 40 123.099 40C123.964 40 124.671 40.707 124.671 41.5711V99.2993C124.671 100.169 123.964 100.87 123.099 100.87C122.23 100.87 121.528 100.169 121.528 99.2993V41.5711Z" fill="#3AC4BA"/>
<path d="M113.411 54.3653C113.411 53.5012 114.113 52.7942 114.982 52.7942C115.846 52.7942 116.553 53.5012 116.553 54.3653V112.096C116.553 112.96 115.846 113.667 114.982 113.667C114.113 113.667 113.411 112.96 113.411 112.096V54.3653Z" fill="#4FB0C1"/>
<path d="M87.2047 59.9608C86.4191 59.602 86.0682 58.6698 86.427 57.879C86.7883 57.0935 87.7205 56.7426 88.5087 57.1013L141.052 81.019C141.838 81.3777 142.189 82.3099 141.83 83.1007C141.474 83.8863 140.542 84.2346 139.753 83.8758L87.2047 59.9608Z" fill="#9C60E2"/>
<path d="M149.584 60.6655C150.317 60.1994 151.286 60.4168 151.757 61.1474C152.22 61.8805 152.003 62.8494 151.273 63.3207L102.568 94.3111C101.835 94.7824 100.866 94.5651 100.4 93.8319C99.9284 93.0987 100.146 92.1298 100.879 91.6637L149.584 60.6655Z" fill="#609DC9"/>
<path d="M134.432 60.686C135.165 60.2199 136.134 60.4372 136.6 61.1678C137.066 61.901 136.849 62.8699 136.118 63.3412L87.4138 94.3315C86.6806 94.795 85.7117 94.5803 85.2456 93.8471C84.7795 93.1139 84.9969 92.145 85.7274 91.6789L134.432 60.686Z" fill="#7884D6"/>
</g>
<defs>
<linearGradient id="paint0_linear_6260_9680" x1="0" y1="76.5" x2="238" y2="76.5" gradientUnits="userSpaceOnUse">
<stop stop-color="#504D61"/>
<stop offset="0.496118" stop-color="white"/>
<stop offset="1" stop-color="#504D61"/>
</linearGradient>
<clipPath id="clip0_6260_9680">
<rect width="238" height="153" rx="16" fill="white"/>
</clipPath>
</defs>
</svg>
