<svg width="111" height="36" viewBox="0 0 111 36" fill="none" xmlns="http://www.w3.org/2000/svg">
<path fill-rule="evenodd" clip-rule="evenodd" d="M11.0368 8.44282C11.0368 8.55139 11.1211 8.64145 11.2298 8.65366C14.3749 9.00689 16.8187 11.6557 16.8187 14.871C16.8187 18.0863 14.3749 20.7351 11.2298 21.0884C11.1211 21.1006 11.0368 21.1906 11.0368 21.2992V26.1753C11.0368 26.2661 11.096 26.3466 11.1833 26.3739C11.8093 26.5701 12.4344 26.7568 13.0504 26.9409C14.0755 27.2472 15.0753 27.546 16.0115 27.8676C16.1288 27.9079 16.1848 28.0402 16.1282 28.1498C15.0834 30.1728 12.961 31.5573 10.5128 31.5573C7.53167 31.5573 5.03372 29.5046 4.37604 26.7459C4.34942 26.6343 4.23957 26.561 4.12606 26.583L0.411881 27.3056C0.297728 27.3278 0.223315 27.4382 0.248305 27.5509C1.2854 32.2286 5.48715 35.7289 10.5128 35.7289C16.3291 35.7289 20.9415 30.9386 21.0216 25.35C21.0229 25.2617 20.9666 25.1825 20.8826 25.153L16.7306 23.694C16.5674 23.6366 16.5394 23.4178 16.6795 23.3169C19.3112 21.4216 21.0227 18.3446 21.0227 14.871C21.0227 12.673 20.3374 10.6339 19.1674 8.9524C19.0689 8.81091 19.1697 8.60641 19.3396 8.57238C20.2997 8.38004 21.0227 7.53824 21.0227 6.52891V4.65066C21.0227 4.53546 20.9286 4.44208 20.8124 4.44208H11.247C11.1309 4.44208 11.0368 4.53546 11.0368 4.65066V8.44282ZM34.4772 21.1284C37.9603 21.1284 40.784 18.3269 40.784 14.871C40.784 11.4152 37.9603 8.61365 34.4772 8.61365C30.994 8.61365 28.1704 11.4152 28.1704 14.871C28.1704 18.3269 30.994 21.1284 34.4772 21.1284ZM34.4772 25.2999C40.2824 25.2999 44.9885 20.6307 44.9885 14.871C44.9885 9.11127 40.2824 4.44208 34.4772 4.44208C28.6719 4.44208 23.9658 9.11127 23.9658 14.871C23.9658 20.6307 28.6719 25.2999 34.4772 25.2999ZM62.3695 4.57372C62.4013 4.49426 62.4788 4.44208 62.565 4.44208H66.6522C66.7932 4.44208 66.8898 4.58323 66.8378 4.71332L58.6555 25.1683C58.6237 25.2478 58.5462 25.2999 58.46 25.2999H54.2215C54.1353 25.2999 54.0578 25.2478 54.026 25.1683L45.8437 4.71332C45.7917 4.58323 45.8883 4.44208 46.0294 4.44208H50.1165C50.2027 4.44208 50.2802 4.49426 50.312 4.57372L56.243 19.4008C56.2781 19.4885 56.4034 19.4885 56.4385 19.4008L62.3695 4.57372Z" fill="white"/>
<path fill-rule="evenodd" clip-rule="evenodd" d="M5.44521 11.1465C5.38012 11.2336 5.25972 11.2606 5.16509 11.2064L1.87495 9.32173C1.77078 9.26205 1.73808 9.12782 1.80554 9.029C3.56407 6.45319 6.45287 4.69911 9.76518 4.46805C9.88506 4.45969 9.98588 4.55485 9.98588 4.67409V8.44315C9.98588 8.55168 9.90191 8.64169 9.79323 8.65394C8.01408 8.85453 6.45955 9.78978 5.44521 11.1465Z" fill="white"/>
<path fill-rule="evenodd" clip-rule="evenodd" d="M4.74018 17.3521C4.78488 17.4519 4.7485 17.57 4.65319 17.6246L1.35013 19.5167C1.24593 19.5764 1.11241 19.5374 1.05991 19.4299C0.368382 18.0153 0.000237745 16.4487 0 14.8724C0 14.8716 0.000640341 14.871 0.00143038 14.871C0.00222041 14.871 0.00286085 14.8704 0.00286095 14.8696C0.00308163 13.2348 0.382369 11.6879 1.05825 10.3107C1.11087 10.2035 1.24423 10.1647 1.34831 10.2243L4.6386 12.1091C4.7333 12.1633 4.76991 12.2804 4.72634 12.3799C4.39212 13.1432 4.20682 13.9857 4.20682 14.871C4.20682 15.7489 4.3981 16.5887 4.74018 17.3521Z" fill="white"/>
<path fill-rule="evenodd" clip-rule="evenodd" d="M9.79449 21.086C9.90277 21.0988 9.98623 21.1887 9.98623 21.2969V25.6938C9.98623 25.8368 9.8446 25.9373 9.70855 25.8904C6.6564 24.8361 3.7395 23.4318 1.93465 20.8974C1.89103 20.8364 1.84811 20.7749 1.80589 20.713C1.73852 20.6142 1.77128 20.4801 1.87539 20.4205L5.18957 18.522C5.28376 18.4681 5.40358 18.4945 5.46885 18.5809C6.49319 19.9357 8.05006 20.8799 9.79449 21.086Z" fill="white"/>
<path fill-rule="evenodd" clip-rule="evenodd" d="M80.3058 0.270508C80.4219 0.270508 80.516 0.363892 80.516 0.479086V10.6221C80.516 11.0104 80.8333 11.3252 81.2246 11.3252C81.446 11.3252 81.6547 11.2225 81.7887 11.0477L86.7893 4.5244C86.829 4.47254 86.8909 4.44209 86.9566 4.44209H91.7108C91.8847 4.44209 91.9834 4.63961 91.8781 4.77693L85.3563 13.2847C85.2991 13.3593 85.2991 13.4626 85.3563 13.5372L94.1423 24.9986C94.237 25.1222 94.1482 25.2999 93.9917 25.2999H89.1951C89.1294 25.2999 89.0675 25.2695 89.0278 25.2176L81.7887 15.7742C81.6547 15.5994 81.446 15.4967 81.2246 15.4967C80.8333 15.4967 80.516 15.8115 80.516 16.1998V25.0914C80.516 25.2065 80.4219 25.2999 80.3058 25.2999H76.5217C76.4056 25.2999 76.3115 25.2065 76.3115 25.0914V0.479086C76.3115 0.363891 76.4056 0.270508 76.5217 0.270508H80.3058Z" fill="white"/>
<path fill-rule="evenodd" clip-rule="evenodd" d="M103.611 8.9262C103.691 8.78715 103.59 8.61365 103.429 8.61365H95.4429C95.3268 8.61365 95.2326 8.52027 95.2326 8.40507V4.65066C95.2326 4.53546 95.3268 4.44208 95.4429 4.44208H110.918C110.981 4.44208 111.02 4.50974 110.989 4.56397L101.57 20.8158C101.49 20.9549 101.591 21.1284 101.753 21.1284H110.789C110.906 21.1284 111 21.2217 111 21.3369V25.0914C111 25.2066 110.906 25.2999 110.789 25.2999H94.2633C94.2002 25.2999 94.1607 25.2323 94.1922 25.178L103.611 8.9262Z" fill="white"/>
<path d="M71.0569 23.2142C71.0569 24.3661 70.1157 25.2999 68.9547 25.2999C67.7936 25.2999 66.8524 24.3661 66.8524 23.2142C66.8524 22.0622 67.7936 21.1284 68.9547 21.1284C70.1157 21.1284 71.0569 22.0622 71.0569 23.2142Z" fill="white"/>
</svg>
