<svg preserveAspectRatio="none" width="100%" height="100%" overflow="visible" style="display: block;" viewBox="0 0 166.213 18" fill="none" xmlns="http://www.w3.org/2000/svg">
<g id="wc-logo 1" clip-path="url(#clip0_0_173)">
<path id="Vector" d="M49.2008 1.79883L46.4385 13.5962L43.4395 1.79883H40.8458L37.8912 13.5756L35.1052 1.79883H32.4287L36.306 16.7595H39.1748L42.153 5.19523L45.1105 16.7595H47.9793L51.8567 1.79883H49.2008Z" fill="var(--fill-0, white)"/>
<path id="Vector_2" d="M60.9569 14.3219V9.70391C60.9569 7.09538 59.4988 5.7085 56.5857 5.7085C54.0156 5.7085 52.108 6.9685 51.8093 9.36456H54.2936C54.4444 8.19014 55.2784 7.59112 56.565 7.59112C57.8515 7.59112 58.4933 8.29636 58.4933 9.17276C58.4933 9.66555 58.301 10.0698 57.5084 10.1996L55.4293 10.4977C53.6074 10.7957 51.4248 11.3947 51.4248 13.9177C51.4248 15.7973 52.7971 17.0396 54.9176 17.0396C56.3313 17.0396 57.745 16.5262 58.6885 15.16V15.396C58.6885 16.2311 59.3746 16.7652 60.4659 16.7652H62.0512V14.8206H61.4715C61.1728 14.8206 60.9569 14.6288 60.9569 14.3278V14.3219ZM58.4933 11.9731C58.4933 13.7465 57.4433 15.157 55.7309 15.157C54.6603 15.157 53.9535 14.6229 53.9535 13.661C53.9535 12.699 54.5538 12.2298 55.9025 11.9937L57.5084 11.7164C57.8722 11.6308 58.1738 11.5659 58.4933 11.3947V11.9731Z" fill="var(--fill-0, white)"/>
<path id="Vector_3" d="M65.5575 1.79883H63.0732V16.7595H65.5575V1.79883Z" fill="var(--fill-0, white)"/>
<path id="Vector_4" d="M69.7909 1.79883H67.3066V16.7595H69.7909V1.79883Z" fill="var(--fill-0, white)"/>
<path id="Vector_5" d="M76.2271 5.70925C73.0123 5.70925 70.9775 8.14663 70.9775 11.3748C70.9775 14.603 73.0123 17.0374 76.2271 17.0374C79.0545 17.0374 80.7255 15.4352 81.0686 13.3814H78.6257C78.2826 14.4938 77.4693 15.0899 76.2478 15.0899C74.4497 15.0899 73.6127 13.765 73.4618 11.9915H81.1958C81.3673 7.3322 79.0545 5.7063 76.2271 5.7063V5.70925ZM73.5062 10.3273C73.7428 8.81056 74.5768 7.63318 76.2271 7.63318C77.7266 7.63318 78.6257 8.44466 78.7558 10.3273H73.5062Z" fill="var(--fill-0, white)"/>
<path id="Vector_6" d="M85.5754 13.5551V7.89247H87.8882V5.98919H85.5754V2.4187H83.0911V5.45509C83.0911 5.79738 82.8989 5.98919 82.5765 5.98919H81.3994V7.89247H83.0911V14.0921C83.0911 15.9512 84.0109 16.7626 85.812 16.7626H88.1485V14.818H86.6934C85.8564 14.818 85.5784 14.4551 85.5784 13.558L85.5754 13.5551Z" fill="var(--fill-0, white)"/>
<path id="Vector_7" d="M96.0508 14.8147C93.46 14.8147 91.8097 12.5278 91.8097 9.27895C91.8097 6.03009 93.4157 3.74321 96.0508 3.74321C98.0856 3.74321 99.3485 5.08878 99.7152 7.05698H102.415C102.072 3.87305 99.8453 1.52124 96.0538 1.52124C92.0493 1.52124 89.0918 4.55764 89.0918 9.27895C89.0918 14.0003 92.0049 17.0367 96.0538 17.0367C99.4372 17.0367 101.966 15.1983 102.546 11.436H99.8453C99.523 13.4662 98.0886 14.8117 96.0538 14.8117L96.0508 14.8147Z" fill="var(--fill-0, white)"/>
<path id="Vector_8" d="M108.607 5.7085C105.244 5.7085 103.295 8.14587 103.295 11.3741C103.295 14.6023 105.244 17.0367 108.607 17.0367C111.969 17.0367 113.898 14.6229 113.898 11.3741C113.898 8.12522 111.969 5.7085 108.607 5.7085ZM108.607 15.0272C106.613 15.0272 105.844 13.2951 105.844 11.3505C105.844 9.40587 106.616 7.718 108.607 7.718C110.597 7.718 111.369 9.42653 111.369 11.3505C111.369 13.2744 110.597 15.0272 108.607 15.0272Z" fill="var(--fill-0, white)"/>
<path id="Vector_9" d="M121.118 5.7085C119.662 5.7085 118.269 6.39309 117.539 7.61178V5.98882H115.055V16.7623H117.539V10.6924C117.539 9.02522 118.695 7.78587 120.216 7.78587C121.588 7.78587 122.487 8.68292 122.487 10.3088V16.7652H124.971V10.0108C124.971 7.27538 123.537 5.7144 121.115 5.7144L121.118 5.7085Z" fill="var(--fill-0, white)"/>
<path id="Vector_10" d="M132.696 5.7085C131.241 5.7085 129.848 6.39309 129.117 7.61178V5.98882H126.633V16.7623H129.117V10.6924C129.117 9.02522 130.274 7.78587 131.794 7.78587C133.166 7.78587 134.065 8.68292 134.065 10.3088V16.7652H136.549V10.0108C136.549 7.27538 135.115 5.7144 132.693 5.7144L132.696 5.7085Z" fill="var(--fill-0, white)"/>
<path id="Vector_11" d="M142.881 5.70925C139.667 5.70925 137.632 8.14663 137.632 11.3748C137.632 14.603 139.667 17.0374 142.881 17.0374C145.709 17.0374 147.38 15.4352 147.723 13.3814H145.28C144.937 14.4938 144.124 15.0899 142.902 15.0899C141.104 15.0899 140.267 13.765 140.116 11.9915H147.85C148.022 7.3322 145.709 5.7063 142.881 5.7063V5.70925ZM140.161 10.3273C140.397 8.81056 141.231 7.63318 142.881 7.63318C144.381 7.63318 145.28 8.44466 145.41 10.3273H140.161Z" fill="var(--fill-0, white)"/>
<path id="Vector_12" d="M153.782 7.718C154.983 7.718 155.861 8.48817 156.119 9.83374H158.624C158.301 7.22522 156.482 5.7085 153.803 5.7085C150.547 5.7085 148.491 8.14587 148.491 11.3741C148.491 14.6023 150.547 17.0367 153.803 17.0367C156.61 17.0367 158.281 15.4551 158.624 13.1475H156.139C155.796 14.4075 155.004 15.0272 153.782 15.0272C151.919 15.0272 151.041 13.3393 151.041 11.3505C151.041 9.36161 151.919 7.718 153.782 7.718Z" fill="var(--fill-0, white)"/>
<path id="Vector_13" d="M164.21 14.8151C163.373 14.8151 163.095 14.4521 163.095 13.5551V7.89247H165.408V5.98919H163.095V2.4187H160.611V5.45509C160.611 5.79738 160.418 5.98919 160.096 5.98919H158.919V7.89247H160.611V14.0921C160.611 15.9512 161.53 16.7626 163.332 16.7626H165.665V14.818H164.21V14.8151Z" fill="var(--fill-0, white)"/>
<path id="Vector_14" d="M21.2083 6.84738L23.7547 4.30672C17.9994 -1.43557 10.8481 -1.43557 5.09277 4.30672L7.6392 6.84738C12.0163 2.48016 16.8341 2.48016 21.2113 6.84738H21.2083Z" fill="var(--fill-0, white)"/>
<path id="Vector_15" d="M20.3596 12.7668L14.4209 6.84155L8.48215 12.7668L2.54345 6.84155L-2.09808e-05 9.37926L8.48215 17.8452L14.4209 11.9199L20.3596 17.8452L28.8417 9.37926L26.2983 6.84155L20.3596 12.7668Z" fill="var(--fill-0, white)"/>
</g>
<defs>
<clipPath id="clip0_0_173">
<rect width="166.213" height="18" fill="white"/>
</clipPath>
</defs>
</svg>
