<svg width="1119" height="120" viewBox="0 0 1119 120" fill="none" xmlns="http://www.w3.org/2000/svg">
<path d="M331.159 11.9028L312.566 89.9798L292.381 11.9028H274.924L255.037 89.8431L236.285 11.9028H218.27L244.367 110.915H263.676L283.722 34.3807L303.629 110.915H322.938L349.035 11.9028H331.159Z" fill="#202020"/>
<path d="M410.273 94.784V64.2211C410.273 46.9574 400.459 37.7788 380.851 37.7788C363.552 37.7788 350.713 46.1177 348.702 61.9752H365.423C366.439 54.2027 372.052 50.2383 380.712 50.2383C389.371 50.2383 393.69 54.9057 393.69 60.7059C393.69 63.9672 392.397 66.6427 387.062 67.502L373.067 69.4744C360.805 71.4468 346.114 75.4112 346.114 92.1085C346.114 104.548 355.351 112.77 369.624 112.77C379.139 112.77 388.654 109.372 395.004 100.33V101.893C395.004 107.419 399.623 110.954 406.968 110.954H417.638V98.0844H413.736C411.726 98.0844 410.273 96.815 410.273 94.823V94.784ZM393.69 79.2389C393.69 90.9758 386.624 100.311 375.098 100.311C367.892 100.311 363.134 96.7759 363.134 90.4095C363.134 84.043 367.175 80.9379 376.252 79.3756L387.062 77.5399C389.51 76.9735 391.541 76.5439 393.69 75.4112V79.2389Z" fill="#202020"/>
<path d="M441.248 11.9028H424.527V110.915H441.248V11.9028Z" fill="#202020"/>
<path d="M469.747 11.9028H453.025V110.915H469.747V11.9028Z" fill="#202020"/>
<path d="M513.063 37.7788C491.425 37.7788 477.729 53.9098 477.729 75.2745C477.729 96.6392 491.425 112.751 513.063 112.751C532.094 112.751 543.341 102.146 545.65 88.5542H529.207C526.898 95.9166 521.424 99.8615 513.203 99.8615C501.1 99.8615 495.466 91.093 494.451 79.3561H546.506C547.661 48.5198 532.094 37.7593 513.063 37.7593V37.7788ZM494.749 68.3417C496.342 58.3038 501.956 50.5117 513.063 50.5117C523.156 50.5117 529.207 55.8822 530.083 68.3417H494.749Z" fill="#202020"/>
<path d="M575.992 89.7064V52.2302H591.558V39.634H575.992V16.0039H559.27V36.0992C559.27 38.3646 557.976 39.634 555.806 39.634H547.884V52.2302H559.27V93.2606C559.27 105.564 565.461 110.934 577.584 110.934H593.31V98.0648H583.516C577.883 98.0648 576.011 95.6627 576.011 89.7259L575.992 89.7064Z" fill="#202020"/>
<path d="M646.496 98.045C629.058 98.045 617.95 82.9101 617.95 61.4086C617.95 39.9072 628.759 24.7722 646.496 24.7722C660.192 24.7722 668.692 33.6775 671.16 46.7033H689.335C687.025 25.6315 672.036 10.0669 646.516 10.0669C619.563 10.0669 599.656 30.1622 599.656 61.4086C599.656 92.655 619.264 112.75 646.516 112.75C669.289 112.75 686.309 100.584 690.21 75.6843H672.036C669.866 89.1203 660.211 98.0255 646.516 98.0255L646.496 98.045Z" fill="#202020"/>
<path d="M731.005 37.7788C708.372 37.7788 695.253 53.9098 695.253 75.2745C695.253 96.6392 708.372 112.751 731.005 112.751C753.639 112.751 766.618 96.7759 766.618 75.2745C766.618 53.7731 753.639 37.7788 731.005 37.7788ZM731.005 99.4514C717.588 99.4514 712.413 87.9879 712.413 75.1183C712.413 62.2486 717.608 51.0781 731.005 51.0781C744.402 51.0781 749.598 62.3853 749.598 75.1183C749.598 87.8512 744.402 99.4514 731.005 99.4514Z" fill="#202020"/>
<path d="M815.205 37.7788C805.411 37.7788 796.035 42.3095 791.118 50.375V39.6341H774.396V110.934H791.118V70.7633C791.118 59.7294 798.901 51.5272 809.133 51.5272C818.37 51.5272 824.421 57.464 824.421 68.2245V110.954H841.143V66.2521C841.143 48.1487 831.488 37.8179 815.185 37.8179L815.205 37.7788Z" fill="#202020"/>
<path d="M893.143 37.7788C883.349 37.7788 873.973 42.3095 869.056 50.375V39.6341H852.335V110.934H869.056V70.7633C869.056 59.7294 876.84 51.5272 887.072 51.5272C896.308 51.5272 902.36 57.464 902.36 68.2245V110.954H919.081V66.2521C919.081 48.1487 909.426 37.8179 893.123 37.8179L893.143 37.7788Z" fill="#202020"/>
<path d="M961.696 37.7788C940.057 37.7788 926.362 53.9098 926.362 75.2745C926.362 96.6392 940.057 112.751 961.696 112.751C980.726 112.751 991.973 102.146 994.282 88.5542H977.84C975.531 95.9166 970.056 99.8615 961.835 99.8615C949.732 99.8615 944.098 91.093 943.083 79.3561H995.138C996.293 48.5198 980.726 37.7593 961.696 37.7593V37.7788ZM943.382 68.3417C944.974 58.3038 950.588 50.5117 961.696 50.5117C971.788 50.5117 977.84 55.8822 978.716 68.3417H943.382Z" fill="#202020"/>
<path d="M1035.07 51.0781C1043.15 51.0781 1049.06 56.1751 1050.79 65.0804H1067.65C1065.48 47.8167 1053.24 37.7788 1035.21 37.7788C1013.29 37.7788 999.455 53.9098 999.455 75.2745C999.455 96.6392 1013.29 112.751 1035.21 112.751C1054.1 112.751 1065.35 102.283 1067.65 87.0114H1050.93C1048.62 95.3503 1043.29 99.4514 1035.07 99.4514C1022.53 99.4514 1016.61 88.2808 1016.61 75.1183C1016.61 61.9557 1022.53 51.0781 1035.07 51.0781Z" fill="#202020"/>
<path d="M1105.26 98.0452C1099.63 98.0452 1097.76 95.6432 1097.76 89.7064V52.2302H1113.32V39.634H1097.76V16.0039H1081.03V36.0992C1081.03 38.3646 1079.74 39.634 1077.57 39.634H1069.65V52.2302H1081.03V93.2606C1081.03 105.564 1087.23 110.934 1099.35 110.934H1115.05V98.0648H1105.26V98.0452Z" fill="#202020"/>
<path d="M142.746 45.317L159.886 28.5026C121.148 -9.50086 73.0142 -9.50086 34.2764 28.5026L51.4158 45.317C80.8772 16.4141 113.305 16.4141 142.766 45.317H142.746Z" fill="#202020"/>
<path d="M137.035 84.4921L97.0635 45.2778L57.0915 84.4921L17.1195 45.2778L0 62.0728L57.0915 118.101L97.0635 78.8872L137.035 118.101L194.127 62.0728L177.007 45.2778L137.035 84.4921Z" fill="#202020"/>
</svg>
