<svg width="300" height="76" viewBox="0 0 300 76" fill="none" xmlns="http://www.w3.org/2000/svg">
<path d="M290.321 47.6482C292.251 47.6482 293.7 47.0083 294.66 45.7284C295.62 44.4484 296.15 42.9285 296.23 41.1587C296.26 40.8587 296.27 40.3287 296.27 39.5888C296.27 38.8488 296.26 38.2788 296.23 37.9789C296.17 36.299 295.64 34.8491 294.64 33.6192C293.63 32.3892 292.191 31.7793 290.321 31.7793C288.341 31.7793 286.891 32.3992 285.981 33.6392C285.071 34.8791 284.571 36.509 284.491 38.5188L284.451 39.7188C284.451 45.0084 286.411 47.6582 290.321 47.6582V47.6482ZM289.541 50.868C286.651 50.868 284.481 49.9281 283.031 48.0582C281.581 46.1883 280.801 43.8185 280.691 40.9487L280.651 39.7088L280.691 38.4688C280.801 35.629 281.591 33.2692 283.051 31.3793C284.511 29.4894 286.671 28.5495 289.541 28.5495C292.411 28.5495 294.64 29.5694 296.24 31.6093V22.0599C296.24 21.7799 296.33 21.56 296.51 21.38C296.69 21.2 296.92 21.11 297.19 21.11H299.05C299.33 21.11 299.55 21.2 299.73 21.38C299.91 21.56 300 21.7899 300 22.0599V49.8881C300 50.1681 299.91 50.388 299.73 50.568C299.55 50.748 299.32 50.838 299.05 50.838H297.27C296.99 50.838 296.77 50.748 296.61 50.568C296.44 50.388 296.36 50.1581 296.36 49.8881V47.7282C294.79 49.8181 292.521 50.868 289.541 50.868ZM273.012 38.1789V38.0589C273.012 36.129 272.492 34.5591 271.442 33.3492C270.392 32.1393 268.992 31.5293 267.222 31.5293C265.452 31.5293 264.022 32.1393 263.003 33.3492C261.983 34.5591 261.473 36.129 261.473 38.0589V38.1789H273.002H273.012ZM267.222 50.868C264.412 50.868 262.163 49.9881 260.483 48.2382C258.803 46.4883 257.883 44.0985 257.713 41.0687L257.673 39.6588L257.713 38.2988C257.883 35.319 258.803 32.9492 260.483 31.1893C262.163 29.4294 264.412 28.5395 267.222 28.5395C270.252 28.5395 272.602 29.4994 274.272 31.4293C275.942 33.3592 276.772 35.979 276.772 39.2788V40.0187C276.772 40.2987 276.682 40.5187 276.502 40.6987C276.322 40.8787 276.092 40.9687 275.822 40.9687H261.483V41.3386C261.563 43.1285 262.113 44.6584 263.132 45.9283C264.152 47.1982 265.502 47.8282 267.182 47.8282C268.482 47.8282 269.532 47.5782 270.342 47.0683C271.152 46.5583 271.772 46.0283 272.182 45.4784C272.432 45.1484 272.622 44.9484 272.762 44.8784C272.902 44.8084 273.132 44.7784 273.462 44.7784H275.282C275.532 44.7784 275.742 44.8484 275.922 44.9884C276.102 45.1284 276.192 45.3084 276.192 45.5284C276.192 46.1383 275.822 46.8683 275.072 47.7182C274.332 48.5682 273.272 49.3081 271.912 49.9281C270.552 50.548 268.982 50.858 267.222 50.858V50.868ZM234.954 50.838C234.674 50.838 234.454 50.748 234.274 50.568C234.094 50.388 234.004 50.1581 234.004 49.8881V29.5294C234.004 29.2494 234.094 29.0295 234.274 28.8495C234.454 28.6695 234.684 28.5795 234.954 28.5795H236.734C237.034 28.5795 237.274 28.6595 237.434 28.8295C237.604 28.9995 237.684 29.2295 237.684 29.5294V31.7293C238.514 30.7094 239.464 29.9194 240.554 29.3694C241.644 28.8195 243.004 28.5395 244.624 28.5395C247.274 28.5395 249.323 29.3894 250.783 31.0793C252.243 32.7692 252.973 35.0091 252.973 37.7989V49.8781C252.973 50.1581 252.883 50.378 252.703 50.558C252.523 50.738 252.293 50.828 252.023 50.828H250.123C249.843 50.828 249.623 50.738 249.443 50.558C249.263 50.378 249.173 50.1481 249.173 49.8781V38.0489C249.173 36.069 248.693 34.5191 247.724 33.4192C246.764 32.3192 245.384 31.7693 243.594 31.7693C241.804 31.7693 240.424 32.3292 239.374 33.4392C238.324 34.5591 237.804 36.089 237.804 38.0489V49.8781C237.804 50.1581 237.714 50.378 237.534 50.558C237.354 50.738 237.124 50.828 236.854 50.828H234.954V50.838ZM225.045 50.848C224.765 50.848 224.545 50.758 224.365 50.578C224.185 50.398 224.095 50.1681 224.095 49.8981V29.5394C224.095 29.2594 224.185 29.0395 224.365 28.8595C224.545 28.6795 224.775 28.5895 225.045 28.5895H226.865C227.145 28.5895 227.365 28.6795 227.545 28.8595C227.725 29.0395 227.815 29.2694 227.815 29.5394V49.8981C227.815 50.1781 227.725 50.398 227.545 50.578C227.365 50.758 227.135 50.848 226.865 50.848H225.045ZM225.965 21L228.605 23.6398L225.965 26.2796L223.325 23.6398L225.965 21ZM193.307 50.838C193.027 50.838 192.807 50.748 192.627 50.568C192.447 50.388 192.357 50.1581 192.357 49.8881V22.1299C192.357 21.8299 192.437 21.59 192.607 21.41C192.777 21.23 193.007 21.14 193.307 21.14H195.247C195.747 21.14 196.087 21.35 196.277 21.7599L205.076 38.6688L213.966 21.7599C214.186 21.35 214.516 21.14 214.956 21.14H216.896C217.196 21.14 217.436 21.23 217.596 21.41C217.766 21.59 217.846 21.8299 217.846 22.1299V49.8881C217.846 50.1681 217.756 50.388 217.576 50.568C217.396 50.748 217.166 50.838 216.896 50.838H214.996C214.716 50.838 214.496 50.748 214.336 50.568C214.166 50.388 214.086 50.1581 214.086 49.8881V28.5795L207.016 42.2586C206.736 42.8385 206.296 43.1285 205.696 43.1285H204.456C203.876 43.1285 203.436 42.8385 203.136 42.2586L196.107 28.5795V49.8881C196.107 50.1681 196.017 50.388 195.837 50.568C195.657 50.748 195.427 50.838 195.157 50.838H193.297H193.307ZM168.569 50.838C168.289 50.838 168.069 50.748 167.889 50.568C167.709 50.388 167.619 50.1581 167.619 49.8881V29.5294C167.619 29.2494 167.709 29.0295 167.889 28.8495C168.069 28.6695 168.299 28.5795 168.569 28.5795H170.349C170.649 28.5795 170.889 28.6595 171.049 28.8295C171.219 28.9995 171.299 29.2295 171.299 29.5294V31.7293C172.129 30.7094 173.078 29.9194 174.168 29.3694C175.258 28.8195 176.618 28.5395 178.238 28.5395C180.888 28.5395 182.938 29.3894 184.398 31.0793C185.858 32.7692 186.588 35.0091 186.588 37.7989V49.8781C186.588 50.1581 186.498 50.378 186.318 50.558C186.138 50.738 185.908 50.828 185.638 50.828H183.738C183.458 50.828 183.238 50.738 183.058 50.558C182.878 50.378 182.788 50.1481 182.788 49.8781V38.0489C182.788 36.069 182.308 34.5191 181.338 33.4192C180.378 32.3192 178.998 31.7693 177.208 31.7693C175.418 31.7693 174.038 32.3292 172.989 33.4392C171.939 34.5591 171.419 36.089 171.419 38.0489V49.8781C171.419 50.1581 171.329 50.378 171.149 50.558C170.969 50.738 170.739 50.828 170.469 50.828H168.569V50.838ZM159.199 38.1789V38.0589C159.199 36.129 158.679 34.5591 157.63 33.3492C156.58 32.1393 155.18 31.5293 153.41 31.5293C151.64 31.5293 150.21 32.1393 149.19 33.3492C148.17 34.5591 147.66 36.129 147.66 38.0589V38.1789H159.189H159.199ZM153.41 50.868C150.6 50.868 148.35 49.9881 146.67 48.2382C144.99 46.4883 144.07 44.0985 143.9 41.0687L143.86 39.6588L143.9 38.2988C144.07 35.319 144.99 32.9492 146.67 31.1893C148.35 29.4294 150.6 28.5395 153.41 28.5395C156.44 28.5395 158.789 29.4994 160.459 31.4293C162.129 33.3592 162.959 35.979 162.959 39.2788V40.0187C162.959 40.2987 162.869 40.5187 162.689 40.6987C162.509 40.8787 162.279 40.9687 162.009 40.9687H147.67V41.3386C147.75 43.1285 148.3 44.6584 149.32 45.9283C150.34 47.1982 151.69 47.8282 153.37 47.8282C154.67 47.8282 155.72 47.5782 156.53 47.0683C157.34 46.5583 157.959 46.0283 158.369 45.4784C158.619 45.1484 158.809 44.9484 158.949 44.8784C159.089 44.8084 159.319 44.7784 159.649 44.7784H161.469C161.719 44.7784 161.929 44.8484 162.109 44.9884C162.289 45.1284 162.379 45.3084 162.379 45.5284C162.379 46.1383 162.009 46.8683 161.259 47.7182C160.519 48.5682 159.459 49.3081 158.099 49.9281C156.74 50.548 155.17 50.858 153.41 50.858V50.868ZM130.061 47.6482C132.041 47.6482 133.491 47.0283 134.401 45.7883C135.311 44.5484 135.811 42.9185 135.891 40.9087C135.921 40.6287 135.931 40.2287 135.931 39.7088C135.931 34.4191 133.971 31.7693 130.061 31.7693C128.131 31.7693 126.682 32.4092 125.702 33.6892C124.722 34.9691 124.212 36.479 124.152 38.2188C124.122 38.5188 124.112 39.0588 124.112 39.8287C124.112 40.5987 124.122 41.1387 124.152 41.4386C124.212 43.1185 124.742 44.5684 125.742 45.7983C126.752 47.0283 128.191 47.6382 130.061 47.6382V47.6482ZM121.342 58.3075C121.062 58.3075 120.842 58.2275 120.662 58.0575C120.482 57.8875 120.392 57.6576 120.392 57.3576V29.5294C120.392 29.2295 120.482 28.9895 120.662 28.8295C120.842 28.6595 121.072 28.5795 121.342 28.5795H123.082C123.382 28.5795 123.622 28.6595 123.782 28.8295C123.952 28.9995 124.032 29.2295 124.032 29.5294V31.7293C125.632 29.6094 127.901 28.5495 130.851 28.5495C133.801 28.5495 135.911 29.4694 137.361 31.2993C138.811 33.1292 139.571 35.469 139.651 38.3088C139.681 38.6088 139.691 39.0788 139.691 39.7188C139.691 40.3587 139.681 40.8187 139.651 41.1287C139.571 43.9385 138.801 46.2683 137.361 48.1182C135.911 49.9681 133.741 50.888 130.851 50.888C127.961 50.888 125.672 49.8381 124.152 47.7482V57.3776C124.152 57.6576 124.062 57.8775 123.882 58.0575C123.702 58.2375 123.472 58.3275 123.202 58.3275H121.342V58.3075ZM103.323 47.4382C105.523 47.4382 107.293 46.7683 108.613 45.4384C109.933 44.0985 110.653 42.0586 110.763 39.2988C110.823 37.6489 110.843 36.539 110.843 35.989C110.843 35.379 110.813 34.2791 110.763 32.6792C110.653 29.9194 109.933 27.8695 108.613 26.5196C107.293 25.1697 105.523 24.4898 103.323 24.4898C101.123 24.4898 99.3534 25.1697 98.0135 26.5196C96.6736 27.8695 95.9636 29.9194 95.8836 32.6792C95.8536 33.4792 95.8436 34.5791 95.8436 35.989C95.8436 37.3989 95.8536 38.4688 95.8836 39.2988C95.9636 42.0586 96.6736 44.0985 97.9935 45.4384C99.3134 46.7783 101.093 47.4382 103.323 47.4382ZM103.323 50.868C99.7434 50.868 96.9736 49.9281 95.0137 48.0382C93.0538 46.1483 92.0239 43.3085 91.9139 39.4988C91.8839 38.6688 91.8739 37.4989 91.8739 35.989C91.8739 34.4791 91.8839 33.3192 91.9139 32.5192C92.0239 28.7695 93.0938 25.9297 95.1137 23.9998C97.1436 22.0699 99.8734 21.11 103.313 21.11C106.753 21.11 109.483 22.0699 111.493 23.9998C113.502 25.9297 114.562 28.7695 114.672 32.5192C114.732 34.1191 114.752 35.279 114.752 35.989C114.752 36.699 114.722 37.8489 114.672 39.4988C114.562 43.2985 113.532 46.1483 111.593 48.0382C109.653 49.9281 106.883 50.868 103.303 50.868H103.323Z" fill="#272532"/>
<path d="M34.0321 2.28862L22.4106 22.4106L37.995 13.4147L62.5754 37.995L41.9679 2.28862C40.2044 -0.762873 35.7956 -0.762873 34.0321 2.28862Z" fill="#F0AC74"/>
<path d="M53.5794 22.4106L62.5754 37.995L38.0049 62.5655L73.7114 41.9481C76.7629 40.1846 76.7629 35.7758 73.7114 34.0122L53.5794 22.3908V22.4106Z" fill="#F0AC74"/>
<path d="M38.0049 13.4147L2.28862 34.0321C-0.762873 35.7956 -0.762873 40.2044 2.28862 41.9679L22.4106 53.5894L13.4147 38.0049L38.0049 13.4147Z" fill="#F0AC74"/>
<path d="M38.0049 62.5754L13.4345 38.0049L34.0519 73.7114C35.8154 76.7629 40.2242 76.7629 41.9877 73.7114L53.6092 53.5794L38.0248 62.5754H38.0049Z" fill="#F0AC74"/>
<path d="M38.0049 38.0049H52.7472L38.0049 23.2627V38.0049Z" fill="#F0AC74"/>
<path d="M38.0049 38.0049L23.2627 38.0049L38.005 52.7472L38.0049 38.0049Z" fill="#F0AC74"/>
<path d="M38.0049 38.0049L38.005 52.7472L52.7472 38.0049H38.0049Z" fill="#F0AC74"/>
<path d="M38.0049 38.0049V23.2627L23.2627 38.0049L38.0049 38.0049Z" fill="#F0AC74"/>
<path d="M34.0372 2.28617L22.4209 22.4087L38.0015 13.413V13.4191L62.5809 37.9985L41.9658 2.28921C40.2026 -0.763071 35.7974 -0.763071 34.0342 2.28921L34.0372 2.28617Z" fill="url(#paint0_linear_175_650)"/>
<path d="M53.5851 22.4087L62.5839 37.9954L62.5748 37.9985L38.0015 62.5718L73.7107 41.9597C76.763 40.1965 76.763 35.7913 73.7107 34.0281L53.5851 22.4087Z" fill="url(#paint1_linear_175_650)"/>
<path d="M13.4221 37.9924L38.0015 13.413L2.29226 34.025C-0.760019 35.7883 -0.760019 40.1935 2.29226 41.9567L22.4264 53.5761L13.4191 37.9954L13.4221 37.9924Z" fill="url(#paint2_linear_175_650)"/>
<path d="M38.0046 62.5748V62.5687L13.4313 37.9954H13.4252L34.0402 73.7047C35.8035 76.757 40.2086 76.757 41.9719 73.7047L53.5943 53.576L38.0106 62.5748H38.0046Z" fill="url(#paint3_linear_175_650)"/>
<path d="M38.0045 37.9985V52.74L52.7461 37.9985H38.0045Z" fill="url(#paint4_linear_175_650)"/>
<path d="M38.0046 37.9985H23.2631L38.0046 52.74V37.9985Z" fill="url(#paint5_linear_175_650)"/>
<path d="M38.0046 37.9985V23.2569L23.2631 37.9985H38.0046Z" fill="url(#paint6_linear_175_650)"/>
<path d="M38.0045 37.9985H52.7461L38.0045 23.2569V37.9985Z" fill="url(#paint7_linear_175_650)"/>
<defs>
<linearGradient id="paint0_linear_175_650" x1="22.4179" y1="18.9947" x2="62.5839" y2="18.9947" gradientUnits="userSpaceOnUse">
<stop stop-color="#E6AF7B"/>
<stop offset="0.42" stop-color="#F3C07A"/>
<stop offset="0.8" stop-color="#C5A48A"/>
<stop offset="1" stop-color="#87A9A0"/>
</linearGradient>
<linearGradient id="paint1_linear_175_650" x1="57.0053" y1="22.4087" x2="57.0053" y2="62.5748" gradientUnits="userSpaceOnUse">
<stop stop-color="#BACC9B"/>
<stop offset="0.29" stop-color="#9FCFA1"/>
<stop offset="0.52" stop-color="#81BEA5"/>
<stop offset="0.79" stop-color="#7EA3A3"/>
<stop offset="1" stop-color="#8D7997"/>
</linearGradient>
<linearGradient id="paint2_linear_175_650" x1="19.0008" y1="53.5791" x2="19.0008" y2="13.413" gradientUnits="userSpaceOnUse">
<stop stop-color="#A85684"/>
<stop offset="0.27" stop-color="#C35074"/>
<stop offset="0.53" stop-color="#E27D69"/>
<stop offset="1" stop-color="#C9BC8F"/>
</linearGradient>
<linearGradient id="paint3_linear_175_650" x1="13.4191" y1="56.9962" x2="53.5882" y2="56.9962" gradientUnits="userSpaceOnUse">
<stop stop-color="#F6796C"/>
<stop offset="0.25" stop-color="#C5707C"/>
<stop offset="0.49" stop-color="#927393"/>
<stop offset="0.78" stop-color="#757FA3"/>
<stop offset="1" stop-color="#60A4AF"/>
</linearGradient>
<linearGradient id="paint4_linear_175_650" x1="34.3199" y1="49.0554" x2="49.0614" y2="34.3138" gradientUnits="userSpaceOnUse">
<stop stop-color="#757FA3"/>
<stop offset="1" stop-color="#60A4AF"/>
</linearGradient>
<linearGradient id="paint5_linear_175_650" x1="41.6923" y1="49.0524" x2="26.9507" y2="34.3108" gradientUnits="userSpaceOnUse">
<stop stop-color="#C5707C"/>
<stop offset="1" stop-color="#ED986C"/>
</linearGradient>
<linearGradient id="paint6_linear_175_650" x1="26.9477" y1="41.6831" x2="41.6892" y2="26.9416" gradientUnits="userSpaceOnUse">
<stop stop-color="#F3C07A"/>
<stop offset="1" stop-color="#ED986C"/>
</linearGradient>
<linearGradient id="paint7_linear_175_650" x1="34.3199" y1="26.9416" x2="49.0614" y2="41.6831" gradientUnits="userSpaceOnUse">
<stop stop-color="#5CB6A5"/>
<stop offset="1" stop-color="#99CC99"/>
</linearGradient>
</defs>
</svg>
