<svg width="24" height="24" viewBox="0 0 24 24" fill="none" xmlns="http://www.w3.org/2000/svg">
<path d="M10.747 0.722722L7.07704 7.07704L11.9984 4.23621L19.7607 11.9984L13.253 0.722722C12.6961 -0.240907 11.3039 -0.240907 10.747 0.722722Z" fill="#F0AC74"/>
<path d="M16.9198 7.07704L19.7607 11.9984L12.0016 19.7575L23.2773 13.2468C24.2409 12.6899 24.2409 11.2976 23.2773 10.7407L16.9198 7.07079V7.07704Z" fill="#F0AC74"/>
<path d="M12.0016 4.23621L0.722722 10.747C-0.240907 11.3039 -0.240907 12.6961 0.722722 13.253L7.07704 16.923L4.23621 12.0016L12.0016 4.23621Z" fill="#F0AC74"/>
<path d="M12.0016 19.7607L4.24247 12.0016L10.7532 23.2773C11.3101 24.2409 12.7024 24.2409 13.2593 23.2773L16.9292 16.9198L12.0078 19.7607H12.0016Z" fill="#F0AC74"/>
<path d="M12.0016 12.0016H16.657L12.0016 7.34611V12.0016Z" fill="#F0AC74"/>
<path d="M12.0016 12.0016L7.34611 12.0016L12.0016 16.657L12.0016 12.0016Z" fill="#F0AC74"/>
<path d="M12.0016 12.0016L12.0016 16.657L16.657 12.0016H12.0016Z" fill="#F0AC74"/>
<path d="M12.0016 12.0016V7.34611L7.34611 12.0016L12.0016 12.0016Z" fill="#F0AC74"/>
<path d="M10.7486 0.721949L7.08028 7.07644L12.0005 4.23569V4.23761L19.7624 11.9995L13.2524 0.722909C12.6955 -0.24097 11.3044 -0.24097 10.7476 0.722909L10.7486 0.721949Z" fill="url(#paint0_linear_421_1527)"/>
<path d="M16.9216 7.07644L19.7633 11.9986L19.7605 11.9995L12.0005 19.7595L23.2771 13.2504C24.241 12.6936 24.241 11.3025 23.2771 10.7457L16.9216 7.07644Z" fill="url(#paint1_linear_421_1527)"/>
<path d="M4.23857 11.9976L12.0005 4.23569L0.72387 10.7447C-0.240008 11.3016 -0.240008 12.6927 0.72387 13.2495L7.08203 16.9188L4.23761 11.9986L4.23857 11.9976Z" fill="url(#paint2_linear_421_1527)"/>
<path d="M12.0014 19.7605V19.7585L4.24145 11.9986H4.23953L10.7496 23.2752C11.3064 24.239 12.6975 24.239 13.2543 23.2752L16.9245 16.9188L12.0034 19.7605H12.0014Z" fill="url(#paint3_linear_421_1527)"/>
<path d="M12.0014 11.9995V16.6547L16.6567 11.9995H12.0014Z" fill="url(#paint4_linear_421_1527)"/>
<path d="M12.0014 11.9995H7.34622L12.0014 16.6547V11.9995Z" fill="url(#paint5_linear_421_1527)"/>
<path d="M12.0014 11.9995V7.34429L7.34622 11.9995H12.0014Z" fill="url(#paint6_linear_421_1527)"/>
<path d="M12.0014 11.9995H16.6567L12.0014 7.34429V11.9995Z" fill="url(#paint7_linear_421_1527)"/>
<defs>
<linearGradient id="paint0_linear_421_1527" x1="7.07932" y1="5.99832" x2="19.7633" y2="5.99832" gradientUnits="userSpaceOnUse">
<stop stop-color="#E6AF7B"/>
<stop offset="0.42" stop-color="#F3C07A"/>
<stop offset="0.8" stop-color="#C5A48A"/>
<stop offset="1" stop-color="#87A9A0"/>
</linearGradient>
<linearGradient id="paint1_linear_421_1527" x1="18.0017" y1="7.07644" x2="18.0017" y2="19.7605" gradientUnits="userSpaceOnUse">
<stop stop-color="#BACC9B"/>
<stop offset="0.29" stop-color="#9FCFA1"/>
<stop offset="0.52" stop-color="#81BEA5"/>
<stop offset="0.79" stop-color="#7EA3A3"/>
<stop offset="1" stop-color="#8D7997"/>
</linearGradient>
<linearGradient id="paint2_linear_421_1527" x1="6.00024" y1="16.9197" x2="6.00024" y2="4.23569" gradientUnits="userSpaceOnUse">
<stop stop-color="#A85684"/>
<stop offset="0.27" stop-color="#C35074"/>
<stop offset="0.53" stop-color="#E27D69"/>
<stop offset="1" stop-color="#C9BC8F"/>
</linearGradient>
<linearGradient id="paint3_linear_421_1527" x1="4.23761" y1="17.9988" x2="16.9226" y2="17.9988" gradientUnits="userSpaceOnUse">
<stop stop-color="#F6796C"/>
<stop offset="0.25" stop-color="#C5707C"/>
<stop offset="0.49" stop-color="#927393"/>
<stop offset="0.78" stop-color="#757FA3"/>
<stop offset="1" stop-color="#60A4AF"/>
</linearGradient>
<linearGradient id="paint4_linear_421_1527" x1="10.8379" y1="15.4912" x2="15.4931" y2="10.836" gradientUnits="userSpaceOnUse">
<stop stop-color="#757FA3"/>
<stop offset="1" stop-color="#60A4AF"/>
</linearGradient>
<linearGradient id="paint5_linear_421_1527" x1="13.166" y1="15.4902" x2="8.51075" y2="10.835" gradientUnits="userSpaceOnUse">
<stop stop-color="#C5707C"/>
<stop offset="1" stop-color="#ED986C"/>
</linearGradient>
<linearGradient id="paint6_linear_421_1527" x1="8.50979" y1="13.1631" x2="13.165" y2="8.50786" gradientUnits="userSpaceOnUse">
<stop stop-color="#F3C07A"/>
<stop offset="1" stop-color="#ED986C"/>
</linearGradient>
<linearGradient id="paint7_linear_421_1527" x1="10.8379" y1="8.50786" x2="15.4931" y2="13.1631" gradientUnits="userSpaceOnUse">
<stop stop-color="#5CB6A5"/>
<stop offset="1" stop-color="#99CC99"/>
</linearGradient>
</defs>
</svg>
