<svg width="277" height="108" viewBox="0 0 277 108" fill="none" xmlns="http://www.w3.org/2000/svg">
<path d="M48.3121 102.002L41.0423 106.824C40.8842 106.93 40.693 107.014 40.4805 107.072C40.2679 107.131 40.0385 107.161 39.8061 107.163H5.34429C5.18004 107.162 5.01964 107.132 4.88258 107.076C4.74553 107.02 4.63771 106.94 4.57224 106.847C4.50677 106.754 4.48646 106.651 4.51379 106.55C4.54112 106.45 4.6149 106.357 4.72617 106.282L11.996 101.453C12.1541 101.348 12.3453 101.263 12.5578 101.205C12.7704 101.147 12.9998 101.116 13.2322 101.114H47.694C47.8604 101.114 48.0234 101.143 48.1627 101.2C48.302 101.256 48.4114 101.337 48.4773 101.431C48.5432 101.526 48.5626 101.631 48.5333 101.732C48.5039 101.834 48.427 101.927 48.3121 102.002ZM41.0423 92.2766C40.8848 92.1707 40.6938 92.0859 40.4811 92.0276C40.2684 91.9693 40.0387 91.9387 39.8061 91.9378H5.34429C5.18004 91.9375 5.01927 91.9671 4.88175 92.0227C4.74423 92.0783 4.63597 92.1577 4.57029 92.2509C4.50461 92.3442 4.48437 92.4473 4.51206 92.5476C4.53976 92.6479 4.61418 92.741 4.72617 92.8154L11.996 97.651C12.1535 97.757 12.3445 97.8418 12.5572 97.9001C12.7699 97.9584 12.9997 97.9889 13.2322 97.9899H47.694C47.8583 97.9901 48.019 97.9606 48.1566 97.9049C48.2941 97.8493 48.4023 97.77 48.468 97.6767C48.5337 97.5835 48.5539 97.4803 48.5262 97.38C48.4985 97.2797 48.4241 97.1867 48.3121 97.1122L41.0423 92.2766ZM5.34429 88.8067H39.8061C40.0385 88.8051 40.2679 88.7743 40.4805 88.716C40.693 88.6578 40.8842 88.5733 41.0423 88.4678L48.3121 83.6458C48.4234 83.5709 48.4972 83.4777 48.5245 83.3773C48.5518 83.277 48.5315 83.1739 48.4661 83.0806C48.4006 82.9873 48.2928 82.9077 48.1557 82.8517C48.0187 82.7956 47.8583 82.7654 47.694 82.7647H13.2322C12.9998 82.7663 12.7704 82.7971 12.5578 82.8554C12.3453 82.9136 12.1541 82.9981 11.996 83.1036L4.72617 87.9256C4.6149 88.0005 4.54112 88.0937 4.51379 88.194C4.48646 88.2944 4.50677 88.3975 4.57224 88.4908C4.63771 88.5841 4.74553 88.6636 4.88258 88.7197C5.01964 88.7758 5.18004 88.806 5.34429 88.8067Z" fill="black"/>
<path d="M85.8039 93.0817H67.9631V89.3174H90.4495V85.5531H67.9207C66.3585 85.5531 64.8602 85.9469 63.7555 86.6478C62.6509 87.3487 62.0303 88.2993 62.0303 89.2905V93.1086C62.0303 93.5994 62.1826 94.0854 62.4787 94.5388C62.7747 94.9923 63.2086 95.4043 63.7555 95.7513C64.8602 96.4522 66.3585 96.846 67.9207 96.846H85.7615V100.61H62.454V104.375H85.8039C87.3661 104.375 88.8644 103.981 89.969 103.28C91.0737 102.579 91.6943 101.628 91.6943 100.637V96.8191C91.6943 96.3283 91.5419 95.8423 91.2459 95.3889C90.9499 94.9354 90.516 94.5234 89.969 94.1764C89.4221 93.8293 88.7727 93.554 88.058 93.3662C87.3434 93.1784 86.5774 93.0817 85.8039 93.0817Z" fill="black"/>
<path d="M123.742 85.5531H106.396C104.881 85.5531 103.428 85.9469 102.357 86.6478C101.285 87.3487 100.684 88.2993 100.684 89.2905V100.637C100.684 101.628 101.285 102.579 102.357 103.28C103.428 103.981 104.881 104.375 106.396 104.375H123.742C124.492 104.375 125.234 104.278 125.927 104.09C126.62 103.902 127.249 103.627 127.779 103.28C128.309 102.933 128.729 102.521 129.016 102.067C129.302 101.614 129.449 101.128 129.449 100.637V89.2905C129.449 88.7999 129.302 88.3139 129.016 87.8605C128.729 87.4071 128.309 86.9951 127.779 86.648C127.249 86.3009 126.62 86.0255 125.927 85.8377C125.234 85.6498 124.492 85.5531 123.742 85.5531ZM123.696 100.61H106.437V89.3174H123.696V100.61Z" fill="black"/>
<path d="M193.79 85.5531H176.593C175.832 85.5531 175.079 85.6498 174.376 85.8376C173.672 86.0254 173.034 86.3007 172.496 86.6478C171.957 86.9948 171.531 87.4068 171.239 87.8603C170.948 88.3137 170.798 88.7997 170.798 89.2905V104.375H176.635V98.1904H193.727V104.375H199.563V89.2905C199.563 88.3016 198.956 87.353 197.874 86.6525C196.791 85.952 195.323 85.5567 193.79 85.5531ZM193.748 94.4261H176.656V89.3174H193.748V94.4261Z" fill="black"/>
<path d="M270.176 85.5531H252.979C251.446 85.5567 249.978 85.952 248.895 86.6525C247.813 87.353 247.206 88.3016 247.206 89.2905V104.375H253.042V98.1904H270.134V104.375H275.971V89.2905C275.971 88.7997 275.821 88.3137 275.53 87.8603C275.238 87.4068 274.812 86.9948 274.273 86.6478C273.735 86.3007 273.097 86.0254 272.394 85.8376C271.69 85.6498 270.937 85.5531 270.176 85.5531ZM270.134 94.4261H253.042V89.3174H270.134V94.4261Z" fill="black"/>
<path d="M232.274 100.61H229.903L221.437 87.1194C221.143 86.6544 220.635 86.2564 219.981 85.9771C219.326 85.6978 218.554 85.5501 217.765 85.5531H212.473C211.433 85.5531 210.436 85.8155 209.701 86.2826C208.965 86.7496 208.552 87.3831 208.552 88.0436V104.375H214.479V89.3174H216.849L225.347 102.808C225.639 103.272 226.144 103.67 226.796 103.949C227.448 104.228 228.217 104.377 229.004 104.375H234.295C234.81 104.375 235.32 104.31 235.796 104.185C236.272 104.06 236.704 103.876 237.068 103.645C237.432 103.414 237.721 103.139 237.918 102.837C238.115 102.535 238.216 102.211 238.216 101.884V85.5531H232.29L232.274 100.61Z" fill="black"/>
<path d="M144.28 85.5531H138.438V100.637C138.438 101.628 139.049 102.579 140.137 103.28C141.225 103.981 142.7 104.375 144.239 104.375H161.809V100.61H144.28V85.5531Z" fill="black"/>
<path d="M0.32373 61.8823H276.493" stroke="#898989" stroke-width="1.04412" stroke-dasharray="5.22 4.18"/>
<path d="M178.462 32.3865L165.882 40.4344C165.608 40.6105 165.277 40.7515 164.91 40.8487C164.542 40.9459 164.145 40.9974 163.743 41H104.108C103.824 40.9989 103.546 40.9485 103.309 40.8549C103.072 40.7613 102.885 40.6286 102.772 40.4728C102.659 40.3171 102.624 40.145 102.671 39.9776C102.718 39.8101 102.846 39.6545 103.038 39.5295L115.618 31.4703C115.892 31.2942 116.223 31.1532 116.591 31.056C116.958 30.9588 117.356 30.9073 117.758 30.9047H177.392C177.68 30.9037 177.962 30.9534 178.203 31.0476C178.444 31.1417 178.634 31.2762 178.748 31.4341C178.862 31.5921 178.895 31.7666 178.845 31.936C178.794 32.1053 178.661 32.262 178.462 32.3865ZM165.882 16.1548C165.609 15.9779 165.279 15.8364 164.911 15.7391C164.543 15.6418 164.145 15.5908 163.743 15.5892H104.108C103.824 15.5888 103.546 15.6381 103.308 15.731C103.07 15.8238 102.882 15.9563 102.769 16.1119C102.655 16.2676 102.62 16.4397 102.668 16.6071C102.716 16.7744 102.845 16.9298 103.038 17.054L115.618 25.1246C115.891 25.3015 116.222 25.443 116.59 25.5403C116.958 25.6376 117.355 25.6886 117.758 25.6902H177.392C177.676 25.6906 177.955 25.6413 178.193 25.5484C178.431 25.4556 178.618 25.3232 178.732 25.1675C178.845 25.0119 178.88 24.8398 178.832 24.6724C178.784 24.505 178.656 24.3496 178.462 24.2254L165.882 16.1548ZM104.108 10.3634H163.743C164.145 10.3608 164.542 10.3094 164.91 10.2121C165.277 10.1149 165.608 9.97394 165.882 9.79786L178.462 1.74988C178.654 1.62497 178.782 1.46932 178.829 1.30187C178.877 1.13441 178.842 0.962353 178.728 0.806604C178.615 0.650855 178.428 0.518121 178.191 0.424533C177.954 0.330944 177.676 0.28053 177.392 0.279419L117.758 0.279419C117.356 0.282001 116.958 0.333477 116.591 0.430709C116.223 0.527942 115.892 0.668896 115.618 0.844983L103.038 8.89295C102.846 9.01787 102.718 9.17352 102.671 9.34097C102.624 9.50843 102.659 9.68049 102.772 9.83624C102.885 9.99198 103.072 10.1247 103.309 10.2183C103.546 10.3119 103.824 10.3623 104.108 10.3634Z" fill="black"/>
</svg>
