<svg width="235" height="32" viewBox="0 0 235 32" fill="none" xmlns="http://www.w3.org/2000/svg">
<path d="M69.5306 12.2H53.6918V8.59999H73.8901H74.8901V7.59999V2V1H73.8901H52.6529C50.9128 1 49.2439 1.69126 48.0135 2.9217C46.7831 4.15214 46.0918 5.82099 46.0918 7.5611V13.2389C46.0918 14.979 46.7831 16.6478 48.0135 17.8783C49.2439 19.1087 50.9128 19.8 52.6529 19.8H68.4917V23.3999H47.4924H46.4924V24.3999V29.9999V30.9999H47.4924H69.5306C71.2707 30.9999 72.9396 30.3087 74.17 29.0782C75.4005 27.8478 76.0917 26.1789 76.0917 24.4388V18.7611C76.0917 17.021 75.4005 15.3521 74.17 14.1217C72.9396 12.8912 71.2707 12.2 69.5306 12.2Z" fill="black" stroke="white" stroke-width="2"/>
<path d="M103.139 1.07663V1H102.139H85.2379C84.3764 1 83.5233 1.16976 82.7275 1.49958C81.9316 1.82939 81.2086 2.3128 80.5996 2.92218C79.9906 3.53156 79.5077 4.25497 79.1785 5.05105C78.8493 5.84693 78.6802 6.69985 78.6807 7.5611L103.139 1.07663ZM103.139 1.07663C104.509 1.28787 105.786 1.92948 106.778 2.9217C108.009 4.15215 108.7 5.82099 108.7 7.5611V24.4388C108.7 26.1789 108.009 27.8478 106.778 29.0782C105.548 30.3087 103.879 30.9999 102.139 30.9999H85.2379C84.3764 30.9999 83.5233 30.8302 82.7275 30.5004C81.9316 30.1705 81.2086 29.6871 80.5996 29.0777C79.9906 28.4684 79.5077 27.745 79.1785 26.9489C78.8493 26.153 78.6802 25.3001 78.6807 24.4388L103.139 1.07663ZM78.6807 7.56144V24.4385V7.56144ZM101.1 23.3999H86.3001V8.59999H101.1V23.3999Z" fill="black" stroke="white" stroke-width="2"/>
<path d="M145.846 21.7988V29.9999V30.9999H144.846H139.246H138.246V29.9999V7.5611C138.246 5.82099 138.937 4.15215 140.168 2.9217C141.398 1.69126 143.067 1 144.807 1H161.288L145.846 21.7988ZM145.846 21.7988H160.249V29.9999V30.9999H161.249H166.849H167.849V29.9999V7.5618V7.5611H166.849L145.846 21.7988ZM160.249 14.1989H145.846V8.59999H160.249V14.1989Z" fill="black" stroke="white" stroke-width="2"/>
<path d="M211.405 21.7989V29.9999V30.9999H210.405H204.805H203.805V29.9999V7.56111C203.805 6.69834 203.975 5.84404 204.305 5.04711C204.636 4.25017 205.121 3.52627 205.731 2.91684C206.342 2.30741 207.067 1.82441 207.864 1.49549C208.662 1.16671 209.516 0.998347 210.378 1.00001M211.405 21.7989H225.816M211.405 21.7989H225.816M211.405 21.7989H225.816M210.378 1.00001C210.379 1.00001 210.379 1.00001 210.38 1.00001L210.377 2.00001V1.00001H210.378ZM210.378 1.00001H226.855C228.595 1.00001 230.264 1.69127 231.494 2.92171C232.724 4.15216 233.416 5.821 233.416 7.56111V29.9999V30.9999H232.416H226.816H225.816V29.9999V21.7989M225.816 14.1989H211.416V8.6H225.816V14.1989Z" fill="black" stroke="white" stroke-width="2"/>
<path d="M193.231 23.3999L193.223 2.00035L193.223 1H194.223H199.823H200.823V2V26.2938C200.823 27.542 200.327 28.739 199.445 29.6215C198.562 30.5041 197.365 30.9999 196.117 30.9999H191.132C191.132 30.9999 191.132 30.9999 191.132 30.9999C190.191 31 189.271 30.7176 188.492 30.1891C187.714 29.6607 187.112 28.9108 186.765 28.0365C186.765 28.0362 186.765 28.036 186.764 28.0357L178.994 8.59999H178.431V29.9999V30.9999H177.431H171.831H170.831V29.9999V5.7061C170.831 4.45796 171.327 3.26095 172.209 2.37839C173.092 1.49582 174.289 1 175.537 1H180.523H180.523C181.464 1.00021 182.384 1.28264 183.163 1.81082C183.942 2.3388 184.544 3.08809 184.893 3.96194L193.231 23.3999ZM193.231 23.3999H192.668L184.893 3.96292L193.231 23.3999Z" fill="black" stroke="white" stroke-width="2"/>
<path d="M119.262 2V1H118.262H112.662H111.662V2V24.4388C111.662 26.1789 112.353 27.8478 113.584 29.0782C114.814 30.3087 116.483 30.9999 118.223 30.9999H135.062H136.062V29.9999V24.3999V23.3999H135.062H119.262V2Z" fill="black" stroke="white" stroke-width="2"/>
<mask id="path-7-outside-1_174_4450" maskUnits="userSpaceOnUse" x="0" y="0" width="36" height="32" fill="black">
<rect fill="white" width="36" height="32"/>
<path fill-rule="evenodd" clip-rule="evenodd" d="M7.34354 23.3499C7.44296 23.2423 7.56309 23.1558 7.69673 23.0956C7.83038 23.0355 7.97479 23.0029 8.12132 22.9999H32.559C32.6624 23.0014 32.7632 23.0327 32.8492 23.0901C32.9353 23.1475 33.0029 23.2285 33.044 23.3234C33.0851 23.4183 33.0978 23.523 33.0808 23.625C33.0638 23.727 33.0176 23.8219 32.9479 23.8983L27.7679 29.6499C27.6685 29.7576 27.5484 29.8441 27.4147 29.9043C27.2811 29.9644 27.1367 29.9969 26.9902 29.9999H2.53689C2.43349 29.9985 2.33271 29.9672 2.24668 29.9098C2.16065 29.8524 2.09303 29.7714 2.05195 29.6765C2.01086 29.5816 1.99807 29.4769 2.01511 29.3749C2.03215 29.2729 2.0783 29.178 2.148 29.1016L7.34354 23.3499ZM32.9713 18.5822C33.041 18.6586 33.0871 18.7535 33.1041 18.8555C33.1212 18.9575 33.1084 19.0622 33.0673 19.1571C33.0262 19.252 32.9586 19.333 32.8726 19.3904C32.7865 19.4478 32.6858 19.4791 32.5824 19.4805L8.13687 19.5C7.99035 19.497 7.84594 19.4644 7.71229 19.4043C7.57864 19.3441 7.45851 19.2576 7.3591 19.15L2.14022 13.4177C2.07052 13.3414 2.02438 13.2465 2.00734 13.1445C1.9903 13.0425 2.00309 12.9377 2.04417 12.8428C2.08525 12.7479 2.15287 12.6669 2.2389 12.6095C2.32493 12.5522 2.42571 12.5209 2.52911 12.5194L26.9746 12.5C27.1211 12.503 27.2655 12.5355 27.3992 12.5957C27.5328 12.6558 27.653 12.7423 27.7524 12.85L32.9713 18.5822ZM7.34354 2.35C7.44296 2.24232 7.56309 2.15582 7.69673 2.09568C7.83038 2.03554 7.97479 2.003 8.12132 2L32.5746 2.01944C32.678 2.0209 32.7788 2.0522 32.8648 2.10957C32.9508 2.16695 33.0184 2.24796 33.0595 2.34285C33.1006 2.43775 33.1134 2.5425 33.0964 2.64449C33.0793 2.74649 33.0332 2.84139 32.9635 2.91778L27.7679 8.64998C27.6685 8.75766 27.5484 8.84416 27.4147 8.9043C27.2811 8.96444 27.1367 8.99699 26.9902 8.99998H2.53689C2.43349 8.99853 2.33271 8.96723 2.24668 8.90985C2.16065 8.85248 2.09303 8.77147 2.05195 8.67657C2.01086 8.58168 1.99807 8.47693 2.01511 8.37493C2.03215 8.27294 2.0783 8.17804 2.148 8.10165L7.34354 2.35Z"/>
</mask>
<path fill-rule="evenodd" clip-rule="evenodd" d="M7.34354 23.3499C7.44296 23.2423 7.56309 23.1558 7.69673 23.0956C7.83038 23.0355 7.97479 23.0029 8.12132 22.9999H32.559C32.6624 23.0014 32.7632 23.0327 32.8492 23.0901C32.9353 23.1475 33.0029 23.2285 33.044 23.3234C33.0851 23.4183 33.0978 23.523 33.0808 23.625C33.0638 23.727 33.0176 23.8219 32.9479 23.8983L27.7679 29.6499C27.6685 29.7576 27.5484 29.8441 27.4147 29.9043C27.2811 29.9644 27.1367 29.9969 26.9902 29.9999H2.53689C2.43349 29.9985 2.33271 29.9672 2.24668 29.9098C2.16065 29.8524 2.09303 29.7714 2.05195 29.6765C2.01086 29.5816 1.99807 29.4769 2.01511 29.3749C2.03215 29.2729 2.0783 29.178 2.148 29.1016L7.34354 23.3499ZM32.9713 18.5822C33.041 18.6586 33.0871 18.7535 33.1041 18.8555C33.1212 18.9575 33.1084 19.0622 33.0673 19.1571C33.0262 19.252 32.9586 19.333 32.8726 19.3904C32.7865 19.4478 32.6858 19.4791 32.5824 19.4805L8.13687 19.5C7.99035 19.497 7.84594 19.4644 7.71229 19.4043C7.57864 19.3441 7.45851 19.2576 7.3591 19.15L2.14022 13.4177C2.07052 13.3414 2.02438 13.2465 2.00734 13.1445C1.9903 13.0425 2.00309 12.9377 2.04417 12.8428C2.08525 12.7479 2.15287 12.6669 2.2389 12.6095C2.32493 12.5522 2.42571 12.5209 2.52911 12.5194L26.9746 12.5C27.1211 12.503 27.2655 12.5355 27.3992 12.5957C27.5328 12.6558 27.653 12.7423 27.7524 12.85L32.9713 18.5822ZM7.34354 2.35C7.44296 2.24232 7.56309 2.15582 7.69673 2.09568C7.83038 2.03554 7.97479 2.003 8.12132 2L32.5746 2.01944C32.678 2.0209 32.7788 2.0522 32.8648 2.10957C32.9508 2.16695 33.0184 2.24796 33.0595 2.34285C33.1006 2.43775 33.1134 2.5425 33.0964 2.64449C33.0793 2.74649 33.0332 2.84139 32.9635 2.91778L27.7679 8.64998C27.6685 8.75766 27.5484 8.84416 27.4147 8.9043C27.2811 8.96444 27.1367 8.99699 26.9902 8.99998H2.53689C2.43349 8.99853 2.33271 8.96723 2.24668 8.90985C2.16065 8.85248 2.09303 8.77147 2.05195 8.67657C2.01086 8.58168 1.99807 8.47693 2.01511 8.37493C2.03215 8.27294 2.0783 8.17804 2.148 8.10165L7.34354 2.35Z" fill="black"/>
<path d="M7.34354 23.3499L5.87409 21.9932L5.8667 22.0012L5.8594 22.0093L7.34354 23.3499ZM8.12132 22.9999V20.9999H8.10087L8.08043 21.0004L8.12132 22.9999ZM32.559 22.9999L32.5872 21.0001L32.5731 20.9999H32.559V22.9999ZM32.9479 23.8983L31.4704 22.5502L31.4618 22.5598L32.9479 23.8983ZM27.7679 29.6499L29.2374 31.0067L29.2458 30.9976L29.2541 30.9884L27.7679 29.6499ZM26.9902 29.9999V31.9999H27.0106L27.031 31.9995L26.9902 29.9999ZM2.53689 29.9999L2.50872 31.9997L2.5228 31.9999H2.53689V29.9999ZM2.148 29.1016L3.62546 30.4496L3.63214 30.4422L2.148 29.1016ZM32.9713 18.5822L31.4924 19.9286L31.4938 19.9302L32.9713 18.5822ZM32.5824 19.4805L32.584 21.4805L32.5972 21.4805L32.6105 21.4803L32.5824 19.4805ZM8.13687 19.5L8.09599 21.4995L8.11722 21.5L8.13846 21.5L8.13687 19.5ZM7.3591 19.15L5.88018 20.4964L5.88964 20.5067L7.3591 19.15ZM2.14022 13.4177L3.6191 12.0713L3.61766 12.0697L2.14022 13.4177ZM2.52911 12.5194L2.52752 10.5194L2.51423 10.5194L2.50094 10.5196L2.52911 12.5194ZM26.9746 12.5L27.0155 10.5004L26.9942 10.5L26.973 10.5L26.9746 12.5ZM27.7524 12.85L29.2313 11.5035L29.2218 11.4932L27.7524 12.85ZM7.34354 2.35L5.87409 0.993274L5.8667 1.00127L5.8594 1.00936L7.34354 2.35ZM8.12132 2L8.12291 5.96046e-07L8.10167 -1.62125e-05L8.08043 0.000417948L8.12132 2ZM32.5746 2.01944L32.6028 0.0196427L32.5895 0.0194556L32.5762 0.0194451L32.5746 2.01944ZM32.9635 2.91778L31.486 1.56974L31.4816 1.57463L32.9635 2.91778ZM27.7679 8.64998L29.2374 10.0067L29.2436 9.99995L29.2498 9.99313L27.7679 8.64998ZM26.9902 8.99998V11H27.0106L27.031 10.9996L26.9902 8.99998ZM2.53689 8.99998L2.50872 10.9998L2.5228 11H2.53689V8.99998ZM2.148 8.10165L3.62546 9.44969L3.63214 9.4423L2.148 8.10165ZM8.81299 24.7067C8.72981 24.7968 8.62929 24.8692 8.51746 24.9195L6.87601 21.2718C6.49689 21.4424 6.15611 21.6878 5.87409 21.9932L8.81299 24.7067ZM8.51746 24.9195C8.40564 24.9698 8.28481 24.997 8.1622 24.9995L8.08043 21.0004C7.66477 21.0089 7.25512 21.1012 6.87601 21.2718L8.51746 24.9195ZM8.12132 24.9999H32.559V20.9999H8.12132V24.9999ZM32.5309 24.9997C32.2489 24.9958 31.9741 24.9104 31.7396 24.754L33.9589 21.4262C33.5523 21.155 33.0759 21.007 32.5872 21.0001L32.5309 24.9997ZM31.7396 24.754C31.505 24.5976 31.3206 24.3767 31.2086 24.1179L34.8794 22.5288C34.6852 22.0802 34.3655 21.6973 33.9589 21.4262L31.7396 24.754ZM31.2086 24.1179C31.0965 23.8591 31.0617 23.5735 31.1081 23.2954L35.0535 23.9546C35.134 23.4725 35.0736 22.9774 34.8794 22.5288L31.2086 24.1179ZM31.1081 23.2954C31.1546 23.0173 31.2804 22.7586 31.4705 22.5503L34.4254 25.2463C34.7548 24.8852 34.9729 24.4367 35.0535 23.9546L31.1081 23.2954ZM31.4618 22.5598L26.2818 28.3115L29.2541 30.9884L34.4341 25.2367L31.4618 22.5598ZM26.2985 28.2932C26.3817 28.2031 26.4822 28.1307 26.594 28.0804L28.2355 31.7281C28.6146 31.5575 28.9554 31.3121 29.2374 31.0067L26.2985 28.2932ZM26.594 28.0804C26.7058 28.0301 26.8267 28.0029 26.9493 28.0003L27.031 31.9995C27.4467 31.991 27.8563 31.8987 28.2355 31.7281L26.594 28.0804ZM26.9902 27.9999H2.53689V31.9999H26.9902V27.9999ZM2.56505 28.0001C2.84698 28.0041 3.12176 28.0894 3.35636 28.2459L1.13701 31.5737C1.54366 31.8449 2.02 31.9928 2.50872 31.9997L2.56505 28.0001ZM3.35636 28.2459C3.59095 28.4023 3.77533 28.6232 3.88735 28.882L0.216544 30.4711C0.41072 30.9196 0.730352 31.3025 1.13701 31.5737L3.35636 28.2459ZM3.88735 28.882C3.99936 29.1407 4.03424 29.4263 3.98777 29.7045L0.0424562 29.0453C-0.0380883 29.5274 0.0223646 30.0225 0.216544 30.4711L3.88735 28.882ZM3.98777 29.7045C3.94131 29.9826 3.81548 30.2413 3.62544 30.4496L0.670557 27.7536C0.341118 28.1146 0.123002 28.5632 0.0424562 29.0453L3.98777 29.7045ZM3.63214 30.4422L8.82768 24.6906L5.8594 22.0093L0.663857 27.761L3.63214 30.4422ZM31.4938 19.9302C31.3038 19.7219 31.1779 19.4631 31.1315 19.185L35.0768 18.5259C34.9963 18.0438 34.7781 17.5952 34.4487 17.2342L31.4938 19.9302ZM31.1315 19.185C31.085 18.9069 31.1199 18.6213 31.2319 18.3626L34.9027 19.9516C35.0969 19.5031 35.1573 19.008 35.0768 18.5259L31.1315 19.185ZM31.2319 18.3626C31.3439 18.1038 31.5283 17.8829 31.7629 17.7265L33.9822 21.0543C34.3889 20.7831 34.7085 20.4002 34.9027 19.9516L31.2319 18.3626ZM31.7629 17.7265C31.9975 17.57 32.2723 17.4847 32.5542 17.4807L32.6105 21.4803C33.0993 21.4734 33.5756 21.3255 33.9822 21.0543L31.7629 17.7265ZM32.5808 17.4805L8.13528 17.5L8.13846 21.5L32.584 21.4805L32.5808 17.4805ZM8.17776 17.5004C8.30036 17.5029 8.4212 17.5301 8.53302 17.5804L6.89156 21.2281C7.27067 21.3987 7.68033 21.491 8.09599 21.4995L8.17776 17.5004ZM8.53302 17.5804C8.64485 17.6308 8.74536 17.7031 8.82855 17.7932L5.88964 20.5067C6.17166 20.8121 6.51244 21.0575 6.89156 21.2281L8.53302 17.5804ZM8.83798 17.8035L3.6191 12.0713L0.661339 14.7642L5.88021 20.4964L8.83798 17.8035ZM3.61766 12.0697C3.80771 12.278 3.93353 12.5368 3.98 12.8149L0.0346785 13.474C0.115223 13.9561 0.333334 14.4047 0.66278 14.7658L3.61766 12.0697ZM3.98 12.8149C4.02646 13.093 3.99159 13.3786 3.87957 13.6374L0.208767 12.0483C0.0145869 12.4968 -0.045866 12.9919 0.0346785 13.474L3.98 12.8149ZM3.87957 13.6374C3.76755 13.8961 3.58316 14.117 3.34858 14.2735L1.12923 10.9456C0.722585 11.2168 0.402948 11.5997 0.208767 12.0483L3.87957 13.6374ZM3.34858 14.2735C3.114 14.4299 2.83922 14.5152 2.55727 14.5192L2.50094 10.5196C2.0122 10.5265 1.53587 10.6744 1.12923 10.9456L3.34858 14.2735ZM2.5307 14.5194L26.9762 14.5L26.973 10.5L2.52752 10.5194L2.5307 14.5194ZM26.9337 14.4996C26.8111 14.497 26.6903 14.4698 26.5785 14.4195L28.2199 10.7718C27.8408 10.6012 27.4311 10.5089 27.0155 10.5004L26.9337 14.4996ZM26.5785 14.4195C26.4666 14.3692 26.3661 14.2968 26.2829 14.2067L29.2218 11.4932C28.9398 11.1878 28.599 10.9424 28.2199 10.7718L26.5785 14.4195ZM26.2735 14.1964L31.4924 19.9286L34.4501 17.2357L29.2313 11.5035L26.2735 14.1964ZM8.81299 3.70672C8.72981 3.79682 8.62929 3.8692 8.51746 3.91952L6.87601 0.271837C6.49689 0.44244 6.15611 0.687819 5.87409 0.993274L8.81299 3.70672ZM8.51746 3.91952C8.40564 3.96984 8.2848 3.99708 8.1622 3.99958L8.08043 0.000417948C7.66478 0.00891626 7.25512 0.101233 6.87601 0.271837L8.51746 3.91952ZM8.11973 4L32.573 4.01944L32.5762 0.0194451L8.12291 5.96046e-07L8.11973 4ZM32.5464 4.01925C32.2645 4.01528 31.9897 3.92993 31.7551 3.77349L33.9745 0.445656C33.5678 0.174465 33.0915 0.0265261 32.6028 0.0196427L32.5464 4.01925ZM31.7551 3.77349C31.5205 3.61704 31.3361 3.39615 31.2241 3.1374L34.8949 1.54831C34.7008 1.09976 34.3811 0.716857 33.9745 0.445656L31.7551 3.77349ZM31.2241 3.1374C31.1121 2.87866 31.0772 2.59305 31.1237 2.31492L35.069 2.97407C35.1496 2.49195 35.0891 1.99685 34.8949 1.54831L31.2241 3.1374ZM31.1237 2.31492C31.1702 2.03682 31.296 1.77805 31.486 1.56975L34.4409 4.2658C34.7704 3.90472 34.9885 3.45615 35.069 2.97407L31.1237 2.31492ZM31.4816 1.57463L26.2861 7.30684L29.2498 9.99313L34.4454 4.26092L31.4816 1.57463ZM26.2985 7.29326C26.3817 7.20316 26.4822 7.13078 26.594 7.08046L28.2355 10.7281C28.6146 10.5575 28.9554 10.3122 29.2374 10.0067L26.2985 7.29326ZM26.594 7.08046C26.7058 7.03014 26.8267 7.00291 26.9493 7.0004L27.031 10.9996C27.4467 10.9911 27.8563 10.8987 28.2355 10.7281L26.594 7.08046ZM26.9902 6.99998H2.53689V11H26.9902V6.99998ZM2.56505 7.00018C2.84699 7.00415 3.12177 7.08949 3.35636 7.24594L1.13701 10.5738C1.54365 10.845 2.01999 10.9929 2.50872 10.9998L2.56505 7.00018ZM3.35636 7.24594C3.59094 7.40238 3.77533 7.62327 3.88735 7.88203L0.216544 9.47112C0.410723 9.91967 0.730358 10.3026 1.13701 10.5738L3.35636 7.24594ZM3.88735 7.88203C3.99936 8.14079 4.03424 8.4264 3.98777 8.70451L0.0424562 8.04536C-0.0380883 8.52746 0.0223646 9.02256 0.216544 9.47112L3.88735 7.88203ZM3.98777 8.70451C3.94131 8.98262 3.81549 9.24138 3.62544 9.44968L0.670557 6.75363C0.341113 7.1147 0.123001 7.56326 0.0424562 8.04536L3.98777 8.70451ZM3.63214 9.4423L8.82768 3.69064L5.8594 1.00936L0.663857 6.76101L3.63214 9.4423Z" fill="white" mask="url(#path-7-outside-1_174_4450)"/>
</svg>
