<svg width="251" height="41" viewBox="0 0 251 41" fill="none" xmlns="http://www.w3.org/2000/svg">
<g filter="url(#filter0_f_407_2430)">
<path d="M43.269 31.0789L36.5029 38.3236C36.3557 38.4822 36.1777 38.609 35.9799 38.6966C35.7821 38.7841 35.5686 38.8304 35.3523 38.8328H3.27799C3.12512 38.8318 2.97583 38.7864 2.84827 38.7021C2.7207 38.6179 2.62036 38.4984 2.55942 38.3582C2.49849 38.218 2.47959 38.0631 2.50502 37.9124C2.53045 37.7616 2.59912 37.6215 2.70269 37.5091L9.46883 30.2542C9.61602 30.0956 9.79394 29.9688 9.99175 29.8812C10.1896 29.7937 10.4031 29.7474 10.6194 29.745H42.6937C42.8486 29.7442 43.0003 29.7889 43.1299 29.8737C43.2595 29.9584 43.3613 30.0794 43.4227 30.2216C43.484 30.3638 43.5021 30.521 43.4748 30.6734C43.4475 30.8258 43.3759 30.9669 43.269 31.0789ZM36.5029 16.4673C36.3562 16.3081 36.1784 16.1807 35.9805 16.0931C35.7825 16.0056 35.5687 15.9596 35.3523 15.9582H3.27799C3.12512 15.9579 2.97548 16.0022 2.84749 16.0858C2.7195 16.1694 2.61874 16.2886 2.55761 16.4287C2.49647 16.5688 2.47764 16.7238 2.50341 16.8744C2.52919 17.0251 2.59846 17.165 2.70269 17.2768L9.46883 24.5419C9.61545 24.7011 9.79326 24.8285 9.9912 24.9161C10.1891 25.0036 10.403 25.0496 10.6194 25.051H42.6937C42.8466 25.0513 42.9962 25.007 43.1242 24.9234C43.2522 24.8398 43.3529 24.7206 43.4141 24.5805C43.4752 24.4404 43.494 24.2854 43.4683 24.1348C43.4425 23.9841 43.3732 23.8442 43.269 23.7324L36.5029 16.4673ZM3.27799 11.254H35.3523C35.5686 11.2517 35.7821 11.2053 35.9799 11.1178C36.1777 11.0303 36.3557 10.9034 36.5029 10.7449L43.269 3.50015C43.3726 3.3877 43.4412 3.24759 43.4667 3.09685C43.4921 2.94611 43.4732 2.79122 43.4123 2.65102C43.3513 2.51082 43.251 2.39133 43.1234 2.30708C42.9958 2.22283 42.8466 2.17745 42.6937 2.17645H10.6194C10.4031 2.17878 10.1896 2.22512 9.99175 2.31264C9.79394 2.40017 9.61602 2.52706 9.46883 2.68557L2.70269 9.93028C2.59912 10.0427 2.53045 10.1828 2.50502 10.3336C2.47959 10.4843 2.49849 10.6392 2.55942 10.7794C2.62036 10.9196 2.7207 11.0391 2.84827 11.1233C2.97583 11.2076 3.12512 11.253 3.27799 11.254Z" fill="black"/>
<path d="M82.1603 17.6536H65.0133V11.9515H86.6252V6.24937H64.9725C63.4711 6.24937 62.0311 6.84584 60.9694 7.90755C59.9076 8.96926 59.3112 10.4093 59.3112 11.9107V17.6943C59.3112 18.4377 59.4576 19.1739 59.7421 19.8608C60.0266 20.5477 60.4437 21.1718 60.9694 21.6975C62.0311 22.7592 63.4711 23.3556 64.9725 23.3556H82.1195V29.0577H59.7185V34.7598H82.1603C83.6618 34.7598 85.1018 34.1634 86.1635 33.1017C87.2252 32.0399 87.8216 30.6 87.8216 29.0985V23.3149C87.8216 22.5715 87.6752 21.8353 87.3907 21.1484C87.1062 20.4615 86.6892 19.8374 86.1635 19.3117C85.6378 18.786 85.0137 18.369 84.3268 18.0845C83.6399 17.8 82.9037 17.6536 82.1603 17.6536Z" fill="black"/>
<path d="M115.344 6.24937H98.1516C96.6501 6.24937 95.2101 6.84584 94.1484 7.90755C93.0867 8.96926 92.4902 10.4093 92.4902 11.9107V29.0985C92.4902 30.6 93.0867 32.0399 94.1484 33.1017C95.2101 34.1634 96.6501 34.7598 98.1516 34.7598H115.344C116.088 34.7598 116.824 34.6134 117.51 34.3288C118.197 34.0442 118.821 33.6271 119.346 33.1013C119.871 32.5756 120.288 31.9514 120.572 31.2646C120.856 30.5778 121.001 29.8417 121.001 29.0985V11.9107C121.001 11.1675 120.856 10.4315 120.572 9.74461C120.288 9.05777 119.871 8.43363 119.346 7.90786C118.821 7.38209 118.197 6.96499 117.51 6.68042C116.824 6.39585 116.088 6.24937 115.344 6.24937ZM115.299 29.0577H98.1923V11.9515H115.299V29.0577Z" fill="black"/>
<path d="M175.588 6.24937H158.787C158.044 6.24937 157.308 6.39581 156.621 6.68032C155.934 6.96483 155.31 7.38184 154.784 7.90755C154.258 8.43326 153.841 9.05736 153.557 9.74423C153.272 10.4311 153.126 11.1673 153.126 11.9107V34.7598H158.828V25.3921H175.527V34.7598H181.229V11.9107C181.229 10.4128 180.635 8.97586 179.578 7.91473C178.521 6.8536 177.086 6.25476 175.588 6.24937ZM175.547 19.69H158.848V11.9515H175.547V19.69Z" fill="black"/>
<path d="M242.353 6.24937H225.553C224.055 6.25476 222.62 6.8536 221.563 7.91473C220.505 8.97586 219.912 10.4128 219.912 11.9107V34.7598H225.614V25.3921H242.313V34.7598H248.015V11.9107C248.015 11.1673 247.868 10.4311 247.584 9.74423C247.299 9.05736 246.882 8.43326 246.357 7.90755C245.831 7.38184 245.207 6.96483 244.52 6.68032C243.833 6.39581 243.097 6.24937 242.353 6.24937ZM242.313 19.69H225.614V11.9515H242.313V19.69Z" fill="black"/>
<path d="M209.134 29.0577H206.853L198.707 8.6218C198.424 7.91752 197.936 7.31464 197.306 6.89154C196.676 6.46843 195.933 6.24466 195.174 6.24932H190.083C189.082 6.24932 188.122 6.64679 187.415 7.35427C186.708 8.06176 186.31 9.02133 186.31 10.0219V34.7598H192.012V11.9514H194.293L202.469 32.3873C202.75 33.09 203.236 33.6919 203.863 34.115C204.491 34.5381 205.231 34.7628 205.987 34.7598H211.078C211.574 34.7598 212.064 34.6622 212.522 34.4726C212.98 34.283 213.396 34.0051 213.746 33.6548C214.096 33.3045 214.374 32.8886 214.564 32.4309C214.753 31.9732 214.851 31.4827 214.851 30.9872V6.24932H209.149L209.134 29.0577Z" fill="black"/>
<path d="M131.779 6.24937H126.077V29.0985C126.077 30.6 126.673 32.0399 127.735 33.1017C128.796 34.1634 130.236 34.7598 131.738 34.7598H148.885V29.0577H131.779V6.24937Z" fill="black"/>
</g>
<defs>
<filter id="filter0_f_407_2430" x="0.403952" y="0.0882173" width="249.699" height="40.8328" filterUnits="userSpaceOnUse" color-interpolation-filters="sRGB">
<feFlood flood-opacity="0" result="BackgroundImageFix"/>
<feBlend mode="normal" in="SourceGraphic" in2="BackgroundImageFix" result="shape"/>
<feGaussianBlur stdDeviation="1.04412" result="effect1_foregroundBlur_407_2430"/>
</filter>
</defs>
</svg>
