<svg width="239" height="36" viewBox="0 0 239 36" fill="none" xmlns="http://www.w3.org/2000/svg">
<g filter="url(#filter0_d_174_4500)">
<path d="M71.5306 11.2H54.6918V5.59999H75.8901V0H54.6529C53.178 0 51.7635 0.5859 50.7206 1.62881C49.6777 2.67172 49.0918 4.0862 49.0918 5.5611V11.2389C49.0918 12.7138 49.6777 14.1282 50.7206 15.1712C51.7635 16.2141 53.178 16.8 54.6529 16.8H71.4917V22.3999H49.4924V27.9999H71.5306C73.0055 27.9999 74.42 27.414 75.4629 26.3711C76.5058 25.3282 77.0917 23.9137 77.0917 22.4388V16.7611C77.0917 15.2862 76.5058 13.8717 75.4629 12.8288C74.42 11.7859 73.0055 11.2 71.5306 11.2Z" fill="white"/>
<path d="M104.139 0H87.2379C86.5078 -1.7877e-07 85.7848 0.14387 85.1103 0.423389C84.4358 0.702908 83.823 1.1126 83.307 1.62904C82.7909 2.14549 82.3816 2.75857 82.1026 3.43325C81.8235 4.10793 81.6802 4.83099 81.6807 5.5611V22.4388C81.6802 23.1689 81.8235 23.892 82.1026 24.5667C82.3816 25.2414 82.7909 25.8544 83.307 26.3709C83.823 26.8873 84.4358 27.297 85.1103 27.5765C85.7848 27.8561 86.5078 27.9999 87.2379 27.9999H104.139C105.614 27.9999 107.028 27.414 108.071 26.3711C109.114 25.3282 109.7 23.9137 109.7 22.4388V5.5611C109.7 4.0862 109.114 2.67172 108.071 1.62881C107.028 0.5859 105.614 0 104.139 0V0ZM104.1 22.3999H87.3001V5.59999H104.1V22.3999Z" fill="white"/>
<path d="M163.288 1.36178e-06H146.807C145.332 1.36178e-06 143.918 0.585901 142.875 1.62881C141.832 2.67172 141.246 4.0862 141.246 5.5611V27.9999H146.846V18.7988H163.249V27.9999H168.849V5.5611C168.85 4.83066 168.706 4.10729 168.427 3.43235C168.148 2.75742 167.738 2.14417 167.222 1.62767C166.705 1.11117 166.092 0.701563 165.417 0.422273C164.742 0.142983 164.019 -0.00050997 163.288 1.36178e-06ZM163.249 13.1989H146.846V5.59999H163.249V13.1989Z" fill="white"/>
<path d="M228.855 1.22388e-05H212.377C211.646 -0.00152191 210.922 0.141188 210.246 0.419972C209.57 0.698757 208.955 1.10814 208.438 1.62469C207.92 2.14124 207.509 2.75481 207.229 3.43027C206.949 4.10574 206.805 4.82983 206.805 5.56111V27.9999H212.405V18.7989H228.816V27.9999H234.416V5.56111C234.416 4.08622 233.83 2.67173 232.787 1.62882C231.744 0.585912 230.33 1.22388e-05 228.855 1.22388e-05ZM228.816 13.1989H212.416V5.6H228.816V13.1989Z" fill="white"/>
<path d="M196.231 22.3999H193.991L185.964 2.33333C185.69 1.64483 185.215 1.05447 184.602 0.63853C183.988 0.222586 183.264 0.000164771 182.523 0L177.537 0C176.554 0 175.612 0.390463 174.917 1.08549C174.222 1.78052 173.831 2.72318 173.831 3.7061V27.9999H179.431V5.59999H181.671L189.694 25.6666C189.967 26.3551 190.441 26.9456 191.054 27.3616C191.667 27.7777 192.391 28 193.132 27.9999H198.117C199.1 27.9999 200.043 27.6095 200.738 26.9144C201.433 26.2194 201.823 25.2767 201.823 24.2938V0H196.223L196.231 22.3999Z" fill="white"/>
<path d="M120.262 0H114.662V22.4388C114.662 23.9137 115.248 25.3282 116.291 26.3711C117.334 27.414 118.748 27.9999 120.223 27.9999H137.062V22.3999H120.262V0Z" fill="white"/>
<path fill-rule="evenodd" clip-rule="evenodd" d="M9.34354 21.3499C9.44296 21.2423 9.56309 21.1558 9.69673 21.0956C9.83038 21.0355 9.97479 21.0029 10.1213 20.9999H34.559C34.6624 21.0014 34.7632 21.0327 34.8492 21.0901C34.9353 21.1475 35.0029 21.2285 35.044 21.3234C35.0851 21.4183 35.0978 21.523 35.0808 21.625C35.0638 21.727 35.0176 21.8219 34.9479 21.8983L29.7679 27.6499C29.6685 27.7576 29.5484 27.8441 29.4147 27.9043C29.2811 27.9644 29.1367 27.9969 28.9902 27.9999H4.53689C4.43349 27.9985 4.33271 27.9672 4.24668 27.9098C4.16065 27.8524 4.09303 27.7714 4.05195 27.6765C4.01086 27.5816 3.99807 27.4769 4.01511 27.3749C4.03215 27.2729 4.0783 27.178 4.148 27.1016L9.34354 21.3499ZM34.9713 16.5822C35.041 16.6586 35.0871 16.7535 35.1041 16.8555C35.1212 16.9575 35.1084 17.0622 35.0673 17.1571C35.0262 17.252 34.9586 17.333 34.8726 17.3904C34.7865 17.4478 34.6858 17.4791 34.5824 17.4805L10.1369 17.5C9.99035 17.497 9.84594 17.4644 9.71229 17.4043C9.57864 17.3441 9.45851 17.2576 9.3591 17.15L4.14022 11.4177C4.07052 11.3414 4.02438 11.2465 4.00734 11.1445C3.9903 11.0425 4.00309 10.9377 4.04417 10.8428C4.08525 10.7479 4.15287 10.6669 4.2389 10.6095C4.32493 10.5522 4.42571 10.5209 4.52911 10.5194L28.9746 10.5C29.1211 10.503 29.2655 10.5355 29.3992 10.5957C29.5328 10.6558 29.653 10.7423 29.7524 10.85L34.9713 16.5822ZM9.34354 0.349999C9.44296 0.242321 9.56309 0.155821 9.69673 0.0956799C9.83038 0.0355391 9.97479 0.00299582 10.1213 0L34.5746 0.0194444C34.678 0.0209006 34.7788 0.0521984 34.8648 0.109573C34.9508 0.166948 35.0184 0.247956 35.0595 0.342854C35.1006 0.437752 35.1134 0.542497 35.0964 0.644492C35.0793 0.746486 35.0332 0.841386 34.9635 0.917775L29.7679 6.64998C29.6685 6.75766 29.5484 6.84416 29.4147 6.9043C29.2811 6.96444 29.1367 6.99699 28.9902 6.99998H4.53689C4.43349 6.99853 4.33271 6.96723 4.24668 6.90985C4.16065 6.85248 4.09303 6.77147 4.05195 6.67657C4.01086 6.58168 3.99807 6.47693 4.01511 6.37493C4.03215 6.27294 4.0783 6.17804 4.148 6.10165L9.34354 0.349999Z" fill="white"/>
</g>
<defs>
<filter id="filter0_d_174_4500" x="0" y="0" width="238.416" height="36" filterUnits="userSpaceOnUse" color-interpolation-filters="sRGB">
<feFlood flood-opacity="0" result="BackgroundImageFix"/>
<feColorMatrix in="SourceAlpha" type="matrix" values="0 0 0 0 0 0 0 0 0 0 0 0 0 0 0 0 0 0 127 0" result="hardAlpha"/>
<feOffset dy="4"/>
<feGaussianBlur stdDeviation="2"/>
<feComposite in2="hardAlpha" operator="out"/>
<feColorMatrix type="matrix" values="0 0 0 0 0 0 0 0 0 0 0 0 0 0 0 0 0 0 0.95 0"/>
<feBlend mode="normal" in2="BackgroundImageFix" result="effect1_dropShadow_174_4500"/>
<feBlend mode="normal" in="SourceGraphic" in2="effect1_dropShadow_174_4500" result="shape"/>
</filter>
</defs>
</svg>
