<svg width="248" height="37" viewBox="0 0 248 37" fill="none" xmlns="http://www.w3.org/2000/svg">
<g clip-path="url(#clip0_407_2388)">
<g clip-path="url(#clip1_407_2388)">
<path d="M42.269 29.1378L35.5029 36.3825C35.3557 36.541 35.1777 36.6679 34.9799 36.7554C34.7821 36.8429 34.5686 36.8893 34.3523 36.8916H2.27799C2.12512 36.8906 1.97583 36.8452 1.84827 36.761C1.7207 36.6767 1.62036 36.5572 1.55942 36.417C1.49849 36.2768 1.47959 36.1219 1.50502 35.9712C1.53045 35.8204 1.59912 35.6803 1.70269 35.5679L8.46883 28.313C8.61602 28.1545 8.79394 28.0276 8.99175 27.9401C9.18957 27.8525 9.40313 27.8062 9.61943 27.8039H41.6937C41.8486 27.803 42.0003 27.8478 42.1299 27.9325C42.2595 28.0173 42.3613 28.1383 42.4227 28.2805C42.484 28.4227 42.5021 28.5798 42.4748 28.7322C42.4475 28.8847 42.3759 29.0257 42.269 29.1378ZM35.5029 14.5262C35.3562 14.3669 35.1784 14.2396 34.9805 14.152C34.7825 14.0644 34.5687 14.0185 34.3523 14.017H2.27799C2.12512 14.0167 1.97548 14.0611 1.84749 14.1446C1.7195 14.2282 1.61874 14.3474 1.55761 14.4875C1.49647 14.6277 1.47764 14.7826 1.50341 14.9333C1.52919 15.084 1.59846 15.2238 1.70269 15.3356L8.46883 22.6007C8.61545 22.76 8.79326 22.8873 8.9912 22.9749C9.18914 23.0625 9.40298 23.1084 9.61943 23.1098H41.6937C41.8466 23.1102 41.9962 23.0658 42.1242 22.9822C42.2522 22.8986 42.3529 22.7795 42.4141 22.6393C42.4752 22.4992 42.494 22.3443 42.4683 22.1936C42.4425 22.0429 42.3732 21.9031 42.269 21.7912L35.5029 14.5262ZM2.27799 9.31282H34.3523C34.5686 9.31049 34.7821 9.26415 34.9799 9.17663C35.1777 9.0891 35.3557 8.96221 35.5029 8.8037L42.269 1.55899C42.3726 1.44654 42.4412 1.30643 42.4667 1.15569C42.4921 1.00495 42.4732 0.850062 42.4123 0.709858C42.3513 0.569654 42.251 0.450168 42.1234 0.36592C41.9958 0.281673 41.8466 0.236291 41.6937 0.235291L9.61943 0.235291C9.40313 0.237615 9.18957 0.283953 8.99175 0.371481C8.79394 0.459009 8.61602 0.585894 8.46883 0.744406L1.70269 7.98912C1.59912 8.10157 1.53045 8.24168 1.50502 8.39242C1.47959 8.54316 1.49849 8.69805 1.55942 8.83825C1.62036 8.97845 1.7207 9.09794 1.84827 9.18219C1.97583 9.26643 2.12512 9.31182 2.27799 9.31282Z" fill="#727272"/>
<path d="M81.1606 15.7124H64.0136V10.0103H85.6256V4.30823H63.9729C62.4714 4.30823 61.0314 4.90469 59.9697 5.9664C58.908 7.02811 58.3115 8.4681 58.3115 9.96959V15.7531C58.3115 16.4966 58.458 17.2328 58.7425 17.9196C59.027 18.6065 59.444 19.2306 59.9697 19.7563C61.0314 20.818 62.4714 21.4145 63.9729 21.4145H81.1199V27.1166H58.7188V32.8187H81.1606C82.6621 32.8187 84.1021 32.2222 85.1638 31.1605C86.2255 30.0988 86.822 28.6588 86.822 27.1573V21.3738C86.822 20.6303 86.6755 19.8941 86.391 19.2073C86.1065 18.5204 85.6895 17.8963 85.1638 17.3706C84.6381 16.8449 84.014 16.4279 83.3271 16.1434C82.6403 15.8588 81.9041 15.7124 81.1606 15.7124Z" fill="#727272"/>
<path d="M114.344 4.30823H97.1516C95.6501 4.30823 94.2101 4.90469 93.1484 5.9664C92.0867 7.02811 91.4902 8.4681 91.4902 9.96959V27.1573C91.4902 28.6588 92.0867 30.0988 93.1484 31.1605C94.2101 32.2222 95.6501 32.8187 97.1516 32.8187H114.344C115.088 32.8187 115.824 32.6722 116.51 32.3876C117.197 32.1031 117.821 31.686 118.346 31.1602C118.871 30.6344 119.288 30.0103 119.572 29.3234C119.856 28.6366 120.001 27.9005 120.001 27.1573V9.96959C120.001 9.22637 119.856 8.4903 119.572 7.80346C119.288 7.11663 118.871 6.49248 118.346 5.96671C117.821 5.44094 117.197 5.02384 116.51 4.73927C115.824 4.4547 115.088 4.30823 114.344 4.30823ZM114.299 27.1166H97.1923V10.0103H114.299V27.1166Z" fill="#727272"/>
<path d="M174.588 4.30823H157.787C157.044 4.30823 156.308 4.45466 155.621 4.73917C154.934 5.02368 154.31 5.4407 153.784 5.9664C153.258 6.49211 152.841 7.11621 152.557 7.80308C152.272 8.48995 152.126 9.22613 152.126 9.96959V32.8187H157.828V23.451H174.527V32.8187H180.229V9.96959C180.229 8.47162 179.635 7.03471 178.578 5.97358C177.521 4.91246 176.086 4.31362 174.588 4.30823ZM174.547 17.7489H157.848V10.0103H174.547V17.7489Z" fill="#727272"/>
<path d="M241.353 4.30823H224.553C223.055 4.31362 221.62 4.91246 220.563 5.97358C219.505 7.03471 218.912 8.47162 218.912 9.96959V32.8187H224.614V23.451H241.313V32.8187H247.015V9.96959C247.015 9.22613 246.868 8.48995 246.584 7.80308C246.299 7.11621 245.882 6.49211 245.357 5.9664C244.831 5.4407 244.207 5.02368 243.52 4.73917C242.833 4.45466 242.097 4.30823 241.353 4.30823ZM241.313 17.7489H224.614V10.0103H241.313V17.7489Z" fill="#727272"/>
<path d="M208.134 27.1166H205.853L197.707 6.68072C197.424 5.97644 196.936 5.37356 196.306 4.95045C195.676 4.52735 194.933 4.30358 194.174 4.30824H189.083C188.082 4.30824 187.123 4.7057 186.415 5.41319C185.708 6.12068 185.31 7.08024 185.31 8.08078V32.8187H191.012V10.0103H193.293L201.469 30.4462C201.75 31.1489 202.236 31.7509 202.863 32.1739C203.491 32.597 204.231 32.8217 204.987 32.8187H210.079C210.574 32.8187 211.065 32.7211 211.522 32.5315C211.98 32.3419 212.396 32.0641 212.746 31.7137C213.096 31.3634 213.374 30.9475 213.564 30.4898C213.753 30.0321 213.851 29.5416 213.851 29.0462V4.30824H208.149L208.134 27.1166Z" fill="#727272"/>
<path d="M130.779 4.30823H125.077V27.1573C125.077 28.6588 125.673 30.0988 126.735 31.1605C127.797 32.2222 129.237 32.8187 130.738 32.8187H147.885V27.1166H130.779V4.30823Z" fill="#727272"/>
</g>
</g>
<defs>
<clipPath id="clip0_407_2388">
<rect width="246.412" height="36.6563" fill="white" transform="translate(0.603027 0.235291)"/>
</clipPath>
<clipPath id="clip1_407_2388">
<rect width="246.412" height="36.6563" fill="white" transform="translate(0.603027 0.235291)"/>
</clipPath>
</defs>
</svg>
