<svg width="151" height="84" viewBox="0 0 151 84" fill="none" xmlns="http://www.w3.org/2000/svg">
<g clip-path="url(#clip0_3080_119276)">
<rect width="151" height="83" transform="translate(0 0.137695)" fill="#322F43"/>
<g clip-path="url(#clip1_3080_119276)">
<path d="M62.899 68.4958H66.952C67.0342 68.4958 67.1439 68.6049 67.1439 68.6867V69.8594C67.1439 69.9412 67.0342 70.0503 66.952 70.0503H61.2031C61.1209 70.0503 61.0387 69.9684 61.0387 69.8866V62.0428C61.0387 61.961 61.1209 61.8792 61.2031 61.8792H62.738C62.8202 61.8792 62.9024 61.961 62.9024 62.0428V68.4992L62.899 68.4958Z" fill="#76BC21"/>
<path d="M70.9331 69.8832C70.9331 69.965 70.8509 70.0468 70.7686 70.0468H69.2338C69.1515 70.0468 69.0693 69.965 69.0693 69.8832V62.0394C69.0693 61.9575 69.1515 61.8757 69.2338 61.8757H70.7686C70.8509 61.8757 70.9331 61.9575 70.9331 62.0394V69.8832Z" fill="#76BC21"/>
<path d="M76.6683 65.9868C76.9561 66.5732 77.2027 67.3368 77.2027 67.3368H77.285C77.285 67.3368 77.5316 66.5732 77.8194 65.9868L79.7209 62.0496C79.8031 61.886 79.8442 61.8723 80.0087 61.8723H81.6497C81.732 61.8723 81.7594 61.9132 81.7594 61.9541C81.7594 61.995 81.7183 62.0769 81.6772 62.1587L77.8845 70.0434H76.5963L72.8037 62.1587C72.7626 62.0769 72.7215 61.995 72.7215 61.9541C72.7215 61.9132 72.7489 61.8723 72.8311 61.8723H74.4722C74.6366 61.8723 74.6777 61.886 74.76 62.0496L76.6614 65.9868H76.6683Z" fill="#76BC21"/>
<path d="M85.1032 66.6414V68.4924H89.9202C90.0025 68.4924 90.1121 68.6015 90.1121 68.6833V69.8559C90.1121 69.9377 90.0025 70.0468 89.9202 70.0468H83.4039C83.3217 70.0468 83.2394 69.965 83.2394 69.8832V62.0394C83.2394 61.9575 83.3217 61.8757 83.4039 61.8757H89.838C89.9202 61.8757 90.0299 61.9848 90.0299 62.0666V63.2393C90.0299 63.3211 89.9202 63.4302 89.838 63.4302H85.1032V65.0903H89.4303C89.5125 65.0903 89.6222 65.1994 89.6222 65.2812V66.4539C89.6222 66.5357 89.5125 66.6448 89.4303 66.6448H85.1032V66.6414Z" fill="#76BC21"/>
<path d="M4.73842 52.7127L4.75213 54.6013C4.79667 56.5546 4.91315 56.7352 6.60219 56.783C7.2874 56.8068 7.37991 57.0318 7.37991 57.3522C7.37991 57.5806 7.2874 57.8056 6.85572 57.8056C5.98893 57.8056 5.00566 57.6931 3.47764 57.6931C2.10722 57.6931 1.10339 57.8295 0.329103 57.8295C-0.150544 57.8295 -0.332125 57.6931 -0.332125 57.3522C-0.332125 57.1238 -0.219065 56.875 0.216043 56.8307C1.67554 56.7864 1.92907 56.6705 1.92907 54.4922L1.9736 44.6575C1.99759 42.6804 1.81258 42.5679 0.421606 42.4997C-0.263604 42.4759 -0.493149 42.2952 -0.493149 42.0225C-0.493149 41.7054 -0.356107 41.4771 0.12354 41.4771C0.558648 41.4771 2.06268 41.5691 4.00525 41.5691C5.0776 41.5691 7.06471 41.5009 7.839 41.5009C8.75375 41.5009 9.77814 41.7054 10.6004 42.0463C12.0393 42.7042 13.3172 44.0917 13.3172 45.9086C13.3172 49.747 10.4188 51.1549 8.38717 51.1549C6.35552 51.1549 5.81763 50.739 5.52299 50.589C5.52299 50.589 5.1427 50.2515 5.24205 50.0674C5.37567 49.8152 5.98551 49.9243 6.32811 49.9379C9.08608 50.0504 10.3263 48.7209 10.3263 46.1336C10.3263 44.9064 9.8912 44.0201 9.14089 43.4065C8.38716 42.7486 7.54436 42.4315 6.08143 42.4315C4.8275 42.4315 4.71102 43.069 4.71102 44.1121L4.735 48.7687C4.735 48.9016 4.74185 49.0209 4.75898 49.1266C4.75556 49.58 4.7487 50.272 4.74528 50.964C4.73842 51.0288 4.735 51.1003 4.735 51.1753L4.74185 52.2491C4.74185 52.4196 4.74185 52.5764 4.74185 52.7127" fill="white"/>
<path d="M18.3433 52.5933C18.3433 51.782 18.4495 51.7104 19.1415 51.7104C19.4259 51.7104 19.8165 51.782 20.5805 51.782H23.8695C24.4553 51.782 24.7739 51.7479 24.9521 51.7479C25.3255 51.7479 25.3975 51.8195 25.3975 52.3649V55.0852C25.3975 56.7283 25.3084 56.7999 24.0134 56.8681C23.4618 56.9226 23.3042 57.134 23.3042 57.3283C23.3042 57.5942 23.4446 57.751 23.9243 57.751C24.5444 57.751 25.5208 57.6453 26.5692 57.6453C27.8471 57.6453 28.5392 57.7339 29.125 57.7339C29.3923 57.7339 29.4985 57.5567 29.4985 57.3453C29.4985 57.134 29.3751 56.9567 28.8784 56.9226C27.7409 56.834 27.6176 56.5885 27.6176 55.2079V47.5243C27.6176 45.9869 27.6347 45.2574 28.9674 45.2574C29.4299 45.2574 29.5019 45.0801 29.5019 44.8517C29.5019 44.6574 29.3614 44.4631 29.1661 44.4631C28.8304 44.4631 27.0351 44.5347 26.254 44.5347C25.2056 44.5347 24.7465 44.5006 24.1949 44.5006C23.8935 44.5006 23.7496 44.6779 23.7496 44.9233C23.7496 45.1517 23.9277 45.2779 24.4588 45.329C25.2947 45.3835 25.4009 46.1642 25.4009 47.5959V50.3878C25.4009 50.8105 25.329 50.865 24.887 50.865C24.6026 50.865 23.9997 50.8105 22.917 50.8105C22.386 50.8105 21.2623 50.8275 19.5389 50.8275C19.3779 50.8275 19.025 50.8446 18.8126 50.8446C18.4049 50.8446 18.3501 50.773 18.3501 50.173V47.5073C18.3501 46.0414 18.4049 45.4006 19.6109 45.3119C20.0734 45.2779 20.1796 45.1722 20.1796 44.9233C20.1796 44.729 20.1077 44.5177 19.6657 44.5177C19.1141 44.5177 18.7784 44.5347 17.288 44.5347C16.2397 44.5347 15.3523 44.5006 14.8727 44.5006C14.5164 44.5006 14.4102 44.6234 14.4102 44.8892C14.4102 45.1006 14.5506 45.2949 15.1022 45.3324C16.0067 45.421 16.1506 46.1335 16.1506 47.705V55.1602C16.1506 56.8033 16.0101 56.8544 14.7836 56.9431C14.2526 56.9601 14.1258 57.1544 14.1258 57.3862C14.1258 57.6351 14.2868 57.7748 14.7116 57.7748C15.3866 57.7748 16.363 57.6521 17.3908 57.6521C18.1891 57.6521 19.2546 57.6862 19.8781 57.6862C20.2516 57.6862 20.3406 57.5089 20.3406 57.3146C20.3406 57.0862 20.2516 56.926 19.7377 56.8715C18.5488 56.7999 18.3535 56.5885 18.3535 55.2114V52.5967L18.3433 52.5933Z" fill="white"/>
<path d="M37.4675 44.4631C33.3836 44.4631 30.2179 47.4868 30.2179 51.2741C30.2179 55.0614 33.3493 58.085 37.4126 58.085C41.4759 58.085 44.7889 55.0443 44.7889 51.2741C44.7889 47.5039 41.6575 44.4631 37.4675 44.4631ZM37.4675 45.2642C40.2871 45.2642 42.1166 47.797 42.1166 51.2741C42.1166 54.7512 40.5235 57.284 37.6148 57.284C34.7061 57.284 32.8731 54.608 32.8731 51.2741C32.8731 47.9402 34.6478 45.2642 37.4675 45.2642Z" fill="white"/>
<path d="M56.4854 44.9063C55.8276 44.9063 53.539 44.9609 51.7986 44.9609C49.2599 44.9609 48.6398 44.9063 47.9991 44.9063C47.0056 44.9063 47.2728 44.0575 46.7212 44.0575C46.2244 44.0575 45.9949 44.9745 45.8167 45.7006C45.5495 46.8119 45.2309 47.2721 45.2309 47.7493C45.2309 47.9436 45.3199 48.0493 45.5152 48.0493C46.0668 48.0493 46.4917 46.8835 47.0432 46.4062C47.5058 45.9835 48.4993 45.8063 50.2021 45.8063C50.6817 45.8063 50.7331 45.9835 50.7331 47.0607L50.716 54.4648C50.716 56.5852 50.5378 56.851 49.2085 56.9192C48.6569 56.9363 48.5164 57.1681 48.5164 57.3965C48.5164 57.6453 48.6227 57.8021 49.0304 57.8021C49.7395 57.8021 50.7879 57.6419 51.9425 57.6419C52.7065 57.6419 54.2688 57.7476 54.7313 57.7476C55.139 57.7476 55.2829 57.5874 55.2829 57.2703C55.2829 57.0215 55.1767 56.8647 54.8204 56.8647C52.9737 56.8647 52.9223 56.5306 52.9223 55.0273V46.9857C52.9223 45.9801 52.9943 45.7653 53.4739 45.7653C55.8893 45.7653 56.3689 45.9051 56.7766 46.2937C57.3796 46.8937 57.0062 47.8652 57.592 47.8652C58.0546 47.8652 58.106 47.3368 58.106 45.6938C58.106 45.3767 58.1231 45.0393 58.1231 44.7563C58.1231 44.4018 58.0511 44.1189 57.7154 44.1189C57.1467 44.1189 57.4858 44.8961 56.4889 44.8961" fill="white"/>
<path d="M66.0064 44.4631C61.9226 44.4631 58.7569 47.4868 58.7569 51.2741C58.7569 55.0614 61.8883 58.085 65.9516 58.085C70.0149 58.085 73.3279 55.0443 73.3279 51.2741C73.3279 47.5039 70.1965 44.4631 66.0064 44.4631ZM66.0064 45.2642C68.8261 45.2642 70.6556 47.797 70.6556 51.2741C70.6556 54.7512 69.0625 57.284 66.1537 57.284C63.245 57.284 61.4121 54.608 61.4121 51.2741C61.4121 47.9402 63.1868 45.2642 66.0064 45.2642Z" fill="white"/>
<path d="M89.3892 56.7148C87.2205 56.6023 87.0389 56.3739 87.0389 54.5331V50.6947C87.0389 49.764 87.2 49.672 87.7002 49.672L90.6705 49.6959C91.993 49.7197 92.4521 50.3333 92.6782 51.5367C92.7467 52.0139 92.9077 52.1503 93.2264 52.1503C93.5005 52.1503 93.706 52.0139 93.706 51.673C93.706 51.4003 93.593 50.5617 93.593 49.355C93.593 48.0153 93.6855 47.2415 93.6855 46.5836C93.6855 46.4233 93.4114 46.287 93.2298 46.287C93.0688 46.287 92.7262 46.4233 92.6576 46.7199C92.339 48.0596 91.8354 48.5607 90.9241 48.5812L87.7036 48.6732C87.1554 48.6732 87.0424 48.5368 87.0424 47.446V43.5837C87.0424 42.7213 87.1554 42.5849 88.8445 42.5849C91.0577 42.5849 93.1167 43.0179 93.5964 43.4474C94.2576 43.9928 94.3741 45.5609 94.8983 45.5609C95.1963 45.5609 95.3779 45.3325 95.3779 45.1518V42.2236C95.3779 41.7463 95.1484 41.4975 94.7167 41.4975C94.1685 41.4975 92.315 41.5657 87.9777 41.5657C86.6072 41.5657 82.705 41.4736 82.3178 41.4736C81.9992 41.4736 81.7936 41.702 81.7936 42.0429C81.7936 42.3156 81.9752 42.4963 82.6604 42.5202C84.0514 42.5645 84.1885 42.7486 84.1885 44.678V54.4444C84.1885 56.6261 84.0514 56.6943 82.1123 56.7625C81.6566 56.7864 81.5196 57.1034 81.5196 57.2841C81.5196 57.5806 81.6566 57.8295 82.1123 57.8295C83.003 57.8295 84.3049 57.6488 85.6719 57.6488C87.1794 57.6488 89.3686 57.7613 89.8037 57.7613C90.0778 57.7613 90.1909 57.5329 90.1909 57.2602C90.1909 56.9875 90.0538 56.7591 89.3926 56.7148" fill="white"/>
<path d="M100.452 47.5243C100.452 46.0926 100.49 45.254 101.713 45.1449C102.192 45.1108 102.333 44.9847 102.333 44.7563C102.333 44.5449 102.244 44.3677 102.031 44.3677C101.696 44.3677 100.257 44.4393 99.4583 44.4393H97.0601C96.6353 44.4393 96.5291 44.6165 96.5291 44.8824C96.5291 45.0938 96.6901 45.271 97.2383 45.3051C98.1599 45.3938 98.2318 46.2528 98.2318 47.6641V55.1909C98.2318 56.7113 98.177 56.834 96.8819 56.9056C96.3509 56.9397 96.1728 57.1544 96.1728 57.3487C96.1728 57.6317 96.2961 57.7919 96.6867 57.7919C97.2006 57.7919 98.2832 57.6521 99.3316 57.6521C100.469 57.6521 101.586 57.7919 101.994 57.7919C102.312 57.7919 102.401 57.5976 102.401 57.4203C102.401 57.1715 102.312 57.0146 101.781 56.9601C100.609 56.8715 100.448 56.7113 100.448 55.3341V47.5277L100.452 47.5243Z" fill="white"/>
<path d="M117.024 44.5859C116.013 44.5859 115.105 44.5518 114.91 44.5518C114.358 44.5518 114.183 44.7121 114.183 44.9404C114.183 45.2745 114.396 45.4347 115.105 45.4347C116.349 45.4347 116.438 46.4131 116.438 47.3471V54.2365C116.438 54.3762 116.349 54.4137 116.297 54.4137C116.225 54.4137 116.191 54.3422 116.102 54.2365L108.702 46.9756C107.78 45.9324 107.53 44.4802 107.085 44.4802C106.855 44.4802 106.581 44.5143 106.067 44.5143C105.498 44.5143 104.221 44.4427 104.025 44.4427C103.494 44.4427 103.299 44.6541 103.299 44.9029C103.299 45.22 103.477 45.3972 103.83 45.3972C105.533 45.3972 105.659 46.2154 105.57 47.7698C105.481 49.0072 105.392 53.899 105.392 55.8421C105.392 56.6363 105.269 56.9534 104.06 56.9534C103.35 56.9534 103.206 57.1818 103.206 57.4136C103.206 57.6454 103.367 57.8022 103.614 57.8022C103.95 57.8022 105.444 57.642 106.047 57.642C106.687 57.642 108.39 57.7647 108.692 57.7647C108.904 57.7647 109.116 57.676 109.116 57.4306C109.116 57.1477 108.938 56.9875 108.476 56.9875C107.074 56.9704 106.663 56.5818 106.595 55.5728C106.523 54.5126 106.382 50.7867 106.471 47.6232C106.471 47.5346 106.506 47.446 106.595 47.446C106.65 47.446 106.718 47.5346 106.79 47.6062L115.598 57.0386C116.397 57.8499 116.575 58.4533 117.02 58.4533C117.356 58.4533 117.411 58.2044 117.394 57.959C117.198 55.2557 117.322 50.2208 117.5 47.2721C117.572 46.2665 117.678 45.3597 118.973 45.3052C119.257 45.3052 119.487 45.1995 119.487 44.8825C119.487 44.6541 119.364 44.5109 118.829 44.5109C118.617 44.5109 117.568 44.5825 117.017 44.5825" fill="white"/>
<path d="M124.386 47.5244C124.386 46.0926 124.441 45.3631 125.664 45.2575C126.144 45.2234 126.284 45.0972 126.284 44.8688C126.284 44.6575 126.195 44.4802 125.983 44.4802C125.647 44.4802 124.208 44.5518 123.41 44.5518H121.012C120.587 44.5518 120.481 44.7291 120.481 44.995C120.481 45.2063 120.642 45.3836 121.19 45.4177C122.111 45.5063 122.166 46.2528 122.166 47.6675V55.1944C122.166 56.7147 122.111 56.8374 120.816 56.909C120.285 56.9431 120.107 57.1579 120.107 57.3522C120.107 57.6351 120.23 57.7953 120.621 57.7953C121.135 57.7953 122.218 57.6556 123.266 57.6556C124.403 57.6556 125.52 57.7953 125.928 57.7953C126.247 57.7953 126.336 57.601 126.336 57.4238C126.336 57.1749 126.247 57.0181 125.716 56.9636C124.544 56.8749 124.383 56.7147 124.383 55.3375V47.5312L124.386 47.5244Z" fill="white"/>
<path d="M134.935 45.012C134.88 44.712 133.959 44.2893 132.167 44.2893C129.734 44.2893 127.905 45.3495 127.905 47.7357C127.905 49.6242 129.289 50.6844 131.046 51.4821C133.054 52.365 134.277 53.5887 134.277 55.0921C134.277 56.4863 133.212 57.1749 131.704 57.1749C130.197 57.1749 128.72 55.992 128.491 54.4376C128.456 54.1376 128.295 54.0319 128.083 54.0319C127.799 54.0319 127.638 54.3148 127.62 54.5807C127.586 54.741 127.566 55.1466 127.566 55.5864C127.566 56.1863 127.62 56.8749 127.744 57.0181C128.028 57.3726 129.556 58.0442 131.348 58.0442C134.401 58.0442 135.894 56.4727 135.894 54.1751C135.894 51.8775 134.387 50.3367 132.629 49.5424C130.783 48.7106 129.505 48.2879 129.505 46.9619C129.505 45.7074 130.694 45.0904 131.831 45.0904C133.058 45.0904 133.729 45.8335 133.962 46.4165C134.212 47.0539 134.246 47.5482 134.688 47.5482C134.867 47.5482 134.973 47.4084 134.973 47.2482C134.973 47.0198 135.028 45.5881 134.938 45.0222" fill="white"/>
<path d="M140.955 52.5933C140.955 51.782 141.061 51.7104 141.753 51.7104C142.037 51.7104 142.428 51.782 143.192 51.782H145.871C146.457 51.782 146.775 51.7479 146.954 51.7479C147.327 51.7479 147.399 51.8195 147.399 52.3649V55.0852C147.399 56.7283 147.31 56.7999 146.015 56.8681C145.463 56.9226 145.306 57.134 145.306 57.3283C145.306 57.5942 145.446 57.751 145.926 57.751C146.546 57.751 147.522 57.6453 148.571 57.6453C149.849 57.6453 150.541 57.7339 151.127 57.7339C151.394 57.7339 151.5 57.5567 151.5 57.3453C151.5 57.134 151.377 56.9567 150.88 56.9226C149.742 56.834 149.619 56.5885 149.619 55.2079V47.5243C149.619 45.9869 149.636 45.2574 150.969 45.2574C151.431 45.2574 151.5 45.0801 151.5 44.8517C151.5 44.6574 151.36 44.4631 151.164 44.4631C150.828 44.4631 149.033 44.5347 148.252 44.5347C147.204 44.5347 146.741 44.5006 146.193 44.5006C145.892 44.5006 145.748 44.6779 145.748 44.9233C145.748 45.1517 145.926 45.2779 146.457 45.329C147.293 45.3835 147.399 46.1642 147.399 47.5959V50.3878C147.399 50.8105 147.327 50.865 146.885 50.865C146.601 50.865 145.998 50.8105 144.915 50.8105C144.384 50.8105 143.867 50.8275 142.147 50.8275C141.986 50.8275 141.633 50.8446 141.421 50.8446C141.013 50.8446 140.958 50.773 140.958 50.173V47.5073C140.958 46.0414 141.013 45.4006 142.219 45.3119C142.681 45.2779 142.788 45.1722 142.788 44.9233C142.788 44.729 142.716 44.5177 142.274 44.5177C141.722 44.5177 141.386 44.5347 139.896 44.5347C138.848 44.5347 137.96 44.5006 137.481 44.5006C137.124 44.5006 137.018 44.6234 137.018 44.8892C137.018 45.1006 137.159 45.2949 137.71 45.3324C138.615 45.421 138.759 46.1335 138.759 47.705V55.1602C138.759 56.8033 138.618 56.8544 137.392 56.9431C136.861 56.9601 136.734 57.1544 136.734 57.3862C136.734 57.6351 136.895 57.7748 137.32 57.7748C137.995 57.7748 138.971 57.6521 139.999 57.6521C140.797 57.6521 141.863 57.6862 142.486 57.6862C142.86 57.6862 142.949 57.5089 142.949 57.3146C142.949 57.0862 142.86 56.926 142.346 56.8715C141.157 56.7999 140.961 56.5885 140.961 55.2114V52.5967L140.955 52.5933Z" fill="white"/>
<path d="M0.986908 36.517L53.3026 34.7137L56.1086 36.4591L53.4157 38.0545L0.986908 36.517Z" fill="#5B6670"/>
<path d="M0.986908 65.5608L53.3026 63.7574L56.1086 65.5062L53.4157 67.0982L0.986908 65.5608Z" fill="#5B6670"/>
<path d="M150.205 36.517L97.8892 34.7137L95.0833 36.4591L97.7762 38.0545L150.205 36.517Z" fill="#5B6670"/>
<path d="M150.205 65.5608L97.8892 63.7574L95.0833 65.5062L97.7762 67.0982L150.205 65.5608Z" fill="#5B6670"/>
<path d="M82.9003 27.9164H82.9653C83.445 27.9164 84.2022 27.5789 85.158 26.9551C84.3735 25.3189 83.7568 22.9701 83.3662 20.2533C83.976 20.2839 84.5139 19.8374 84.579 19.2238C84.6475 18.5897 84.185 18.0204 83.5478 17.9523C82.9105 17.8841 82.3384 18.3443 82.2699 18.9783C82.2048 19.5919 82.633 20.1408 83.236 20.2396C82.3692 22.5508 81.3962 24.5314 80.3958 25.9495C81.242 27.1358 82.0986 27.8278 82.9003 27.9164Z" fill="#B78B1E"/>
<path d="M68.0689 27.9198H68.134C68.9357 27.8278 69.7888 27.1324 70.6384 25.9495C69.638 24.5314 68.665 22.5508 67.7982 20.2396C68.4012 20.1408 68.8295 19.5919 68.7644 18.9783C68.6959 18.3443 68.1237 17.8841 67.4865 17.9523C66.8492 18.0204 66.3867 18.5897 66.4552 19.2238C66.5203 19.8374 67.0582 20.2839 67.6681 20.2533C67.2741 22.9701 66.6608 25.3189 65.8762 26.9551C66.8321 27.5789 67.5893 27.9198 68.0689 27.9198Z" fill="#B78B1E"/>
<path d="M57.2426 21.5691C57.4345 21.5691 57.6195 21.535 57.7942 21.4736L64.033 37.3625C67.531 37.0045 71.3545 36.8034 75.363 36.8034C79.3714 36.8034 83.4107 37.0113 86.9875 37.3931L93.2401 21.4736C93.4114 21.535 93.5964 21.5691 93.7917 21.5691C94.7133 21.5691 95.4601 20.826 95.4601 19.909C95.4601 18.992 94.7133 18.2488 93.7917 18.2488C92.8701 18.2488 92.1232 18.992 92.1232 19.909C92.1232 20.4987 92.4315 21.0134 92.8975 21.3066C91.5339 22.7008 88.2072 25.9836 85.5554 27.688C84.5482 28.3357 83.6369 28.755 82.9688 28.755C82.914 28.755 82.8591 28.755 82.8078 28.7448C81.8005 28.6323 80.8104 27.8823 79.8716 26.6381C78.2306 24.4666 76.7505 20.7919 75.6131 16.3637C76.4901 16.316 77.189 15.5933 77.189 14.707C77.189 13.8207 76.4422 13.0469 75.5206 13.0469C74.5989 13.0469 73.8521 13.79 73.8521 14.707C73.8521 15.624 74.5476 16.3126 75.4281 16.3637C74.294 20.7919 72.8106 24.4666 71.1695 26.6381C70.2307 27.8789 69.2406 28.6323 68.2334 28.7448C68.182 28.7516 68.1271 28.755 68.0723 28.755C67.4042 28.755 66.4929 28.3357 65.4857 27.688C62.8339 25.987 59.5072 22.7008 58.1436 21.3066C58.6062 21.01 58.9179 20.4953 58.9179 19.909C58.9179 18.992 58.1711 18.2488 57.2494 18.2488C56.3278 18.2488 55.581 18.992 55.581 19.909C55.581 20.826 56.3278 21.5691 57.2494 21.5691H57.2426Z" fill="#B78B1E"/>
</g>
</g>
<defs>
<clipPath id="clip0_3080_119276">
<rect width="151" height="83" fill="white" transform="translate(0 0.137695)"/>
</clipPath>
<clipPath id="clip1_3080_119276">
<rect width="152" height="57" fill="white" transform="translate(-0.5 13.0469)"/>
</clipPath>
</defs>
</svg>
