<svg width="32" height="33" viewBox="0 0 32 33" fill="none" xmlns="http://www.w3.org/2000/svg">
<g style="mix-blend-mode:screen">
<path d="M15.9998 3.16669C13.7871 3.16669 11.9617 4.82515 11.6989 6.96685C8.49255 8.23553 5.98292 10.8822 4.89966 14.178L4.69149 14.8113L5.95816 15.2276L6.16632 14.5943C7.07627 11.8258 9.12494 9.57233 11.7577 8.389C12.1678 10.3558 13.9112 11.8334 15.9998 11.8334C18.393 11.8334 20.3331 9.89325 20.3331 7.50002C20.3331 5.10679 18.393 3.16669 15.9998 3.16669Z" fill="white" style="fill:white;fill-opacity:1;"/>
<path d="M24.7967 10.1599L24.3588 9.65724L23.3535 10.5332L23.7915 11.0358C25.3748 12.8528 26.333 15.2267 26.333 17.8259C26.333 18.321 26.2982 18.8077 26.2311 19.2836C24.4155 18.8513 22.4576 19.6346 21.4767 21.3337C20.2803 23.406 20.9903 26.0558 23.0626 27.2523C25.1349 28.4487 27.7847 27.7387 28.9812 25.6664C30.1576 23.6288 29.4909 21.033 27.4984 19.8092C27.6089 19.1642 27.6663 18.5015 27.6663 17.8259C27.6663 14.8925 26.5835 12.2104 24.7967 10.1599Z" fill="white" style="fill:white;fill-opacity:1;"/>
<path d="M10.5124 21.3337C11.4522 22.9614 11.2158 24.9455 10.0667 26.3017C11.7448 27.4772 13.7873 28.1667 15.9923 28.1667C16.6558 28.1667 17.3041 28.1043 17.9318 27.9852L18.5868 27.861L18.8353 29.1709L18.1803 29.2952C17.471 29.4297 16.7395 29.5 15.9923 29.5C13.3816 29.5 10.9696 28.6423 9.02493 27.1938C8.99249 27.2136 8.9597 27.2331 8.92656 27.2523C6.85425 28.4487 4.2044 27.7387 3.00796 25.6664C1.81151 23.5941 2.52153 20.9442 4.59384 19.7478C6.66615 18.5513 9.316 19.2614 10.5124 21.3337Z" fill="white" style="fill:white;fill-opacity:1;"/>
</g>
</svg>
