<svg width="176" height="28" viewBox="0 0 176 28" fill="none" xmlns="http://www.w3.org/2000/svg">
<path d="M74.0089 26.2852C68.5771 26.2852 65.0381 19.6051 65.0381 13.4261C65.0381 6.91302 68.4125 2.4875 73.4328 2.4875C79.1939 2.4875 82.4859 9.25104 82.4859 15.2631C82.4859 21.8596 79.1938 26.2852 74.0089 26.2852ZM73.762 1.06799C66.6018 1.06799 60.8408 6.9965 60.8408 14.4281C60.8408 21.7761 66.6018 27.7047 73.762 27.7047C80.9221 27.7047 86.7656 21.7761 86.7656 14.4281C86.7656 6.9965 80.9221 1.06799 73.762 1.06799Z" fill="white"/>
<path d="M8.74424 15.9312C10.3903 11.4221 12.5301 5.74408 12.5301 5.74408C12.5301 5.74408 14.6699 11.1716 16.5628 15.9312H8.74424ZM26.8503 25.9513C25.945 25.9513 24.9575 25.9512 24.3814 25.1997C23.9699 24.5317 23.3114 22.9453 22.7353 21.4422C22.1592 19.9392 14.5876 0.817505 14.5876 0.817505L12.4477 1.98649C12.4477 1.98649 5.69914 19.1877 5.36993 19.8557C5.12303 20.6073 4.6292 21.9432 4.1354 23.0287C3.2301 25.1163 2.73622 25.7008 0.596391 25.9513H0.51416V27.2037C0.51416 27.2037 2.81859 27.0367 4.95842 27.0367C7.09822 27.0367 9.32033 27.2037 9.32033 27.2037V25.9513H8.0858C6.9336 25.8679 6.02837 25.7842 6.02837 24.5318C6.02837 24.0308 6.11062 23.1957 6.85139 21.1082C6.93362 20.9411 7.42741 19.5217 8.0858 17.6846H17.3036C18.2912 20.1897 19.1141 22.2772 19.361 22.8617C19.6902 23.7802 20.0195 24.5317 20.0195 24.8657C20.0195 25.7007 19.361 25.9513 18.1265 25.9513H17.3858V27.2037C17.3858 27.2037 20.6779 27.0367 22.7355 27.0367C24.793 27.0367 26.9328 27.2037 26.9328 27.2037V25.9513H26.8503Z" fill="white"/>
<path d="M114.583 21.2751C113.431 24.7822 112.032 25.7006 107.999 25.7006C102.979 25.7006 102.485 24.6151 102.485 22.0266V5.32644C102.485 2.90493 103.719 2.90489 105.612 2.82138H105.777V1.56885H105.201C101.909 1.65228 99.0282 1.65228 95.7362 1.56885H95.4894V2.82138H95.5716C97.4645 2.90481 98.699 2.90485 98.699 5.32644V23.6131C98.699 24.3646 98.5343 24.9491 98.1229 25.3666C97.6291 25.7841 96.8061 26.0347 95.6538 25.9512H95.4893V27.2036H95.5715C98.7812 27.0365 101.991 27.0366 105.036 27.0366C108.163 27.0366 111.126 27.0365 114.171 27.2036H114.254L115.653 21.3586L114.583 21.1915L114.583 21.2751Z" fill="white"/>
<path d="M142.401 21.2751C141.331 24.7822 139.85 25.7006 135.817 25.7006C130.796 25.7006 130.385 24.6151 130.385 22.0266V5.32644C130.385 2.90493 131.619 2.90489 133.43 2.82138H133.595V1.56885H133.019C129.727 1.65228 126.846 1.65228 123.554 1.56885H123.307V2.82138H123.472C125.365 2.90481 126.599 2.90485 126.599 5.32644V23.6131C126.599 24.3646 126.352 24.9491 125.941 25.3666C125.447 25.7841 124.624 26.0347 123.472 25.9512H123.307V27.2036H123.472C126.599 27.0365 129.809 27.0366 132.936 27.0366C135.981 27.0366 138.944 27.0365 141.989 27.2036H142.072L143.471 21.3586L142.401 21.1915V21.2751Z" fill="white"/>
<path d="M162.729 26.2852C157.297 26.2852 153.758 19.6051 153.758 13.4261C153.758 6.91302 157.132 2.4875 162.153 2.4875C167.914 2.4875 171.288 9.25104 171.288 15.2631C171.288 21.8596 167.914 26.2852 162.729 26.2852ZM162.482 1.06799C155.404 1.06799 149.561 6.9965 149.561 14.4281C149.561 21.7761 155.404 27.7047 162.482 27.7047C169.642 27.7047 175.486 21.7761 175.486 14.4281C175.486 6.9965 169.642 1.06799 162.482 1.06799Z" fill="white"/>
<path d="M41.4177 23.5295C41.4177 24.5316 41.6646 25.9512 44.2159 25.9512C44.792 25.9512 44.9566 25.9512 44.9566 25.9512V27.2036C42.8168 27.0365 40.7592 27.0366 39.2778 27.0366C37.7141 27.0366 36.2328 27.0365 34.5867 27.2036V25.9512C34.5867 25.9512 34.9159 25.9512 35.1628 25.9512C36.3973 25.9512 37.6319 25.6171 37.6319 23.5295V5.49342C37.6319 3.8234 37.3026 3.15543 35.9035 2.90493C35.1628 2.73786 34.5044 2.8215 34.5044 2.8215V1.56897C34.5044 1.56897 38.9486 1.6524 42.076 1.6524C45.8619 1.6524 49.0716 1.98644 50.8822 3.15546C52.6105 4.24096 53.9274 6.2449 53.9274 8.91693C53.9274 12.424 51.0468 14.3446 49.4831 15.1796C47.7548 15.9311 45.7797 16.3486 44.2159 16.3486L44.1337 15.263C48.2487 14.5115 49.7301 12.257 49.7301 8.91693C49.7301 5.1594 47.3434 3.32241 44.2983 3.07191C42.3231 2.90484 41.4177 3.15534 41.4177 3.15534V23.5295Z" fill="white"/>
</svg>
