<svg width="201" height="35" viewBox="0 0 201 35" fill="none" xmlns="http://www.w3.org/2000/svg">
<path d="M29.217 11.4697C25.0547 8.08219 20.6695 6.50949 15.0934 5.7148C10.0818 5.00024 7.05175 4.00019 2.6465 0.918241L0 4.91843C3.9396 7.87684 7.638 9.34769 12.6278 10.2242C16.1637 10.8369 18.9325 10.877 22.6091 12.857C21.8822 13.817 21.2155 15.2044 20.832 16.1427C18.9928 15.0408 16.286 14.2043 12.668 14.1626V18.9191C14.4268 18.9992 16.0029 19.2046 18.1235 20.1429C20.7097 21.2848 22.5287 22.9794 22.5287 22.9794C24.589 15.6535 29.217 11.4697 29.217 11.4697ZM50.9568 10.326C56.3319 9.55137 60.1911 7.87684 64.1307 4.91843L61.4842 0.918241C57.079 4.00019 54.0489 5.00024 49.0373 5.7148C43.4612 6.50949 38.8751 8.20406 34.7127 11.5915C28.2472 16.7554 25.2154 24.3267 25.2154 31.9581V34.3472H38.4496V31.9581C38.3893 24.9394 43.6421 21.5302 43.6421 21.5302C45.5215 20.2447 48.3304 18.8156 51.4828 18.9391V14.1843C47.9469 14.1426 44.2903 15.2862 40.8348 17.6937C37.0359 20.5502 34.6524 24.8359 34.0259 29.5707H30.1249C32.2672 12.3061 47.967 10.7551 50.9568 10.326ZM93.3075 16.7955C96.0746 15.1844 97.4699 12.837 97.4699 9.77509C97.4699 7.44944 96.5001 5.3258 94.7413 3.83658C92.8821 2.26555 90.2758 1.42912 87.2055 1.42912H75.0216V34.5509H87.9526C91.388 34.5509 94.2774 33.6527 96.2773 31.918C98.2773 30.2034 99.3476 27.796 99.3476 24.9177C99.3476 20.5719 96.2371 17.6736 93.3075 16.7955ZM79.5876 5.48941H87.6092C91.2054 5.48941 93.125 7.22405 93.125 10.4896C93.125 13.7552 91.2255 15.4899 87.6092 15.4899H79.5876V5.48941ZM89.1653 30.2852H79.5876V19.5301H89.1653C92.862 19.5301 95.0043 21.4902 95.0043 24.8977C95.0043 28.3269 92.862 30.2852 89.1653 30.2852ZM119.613 26.7342C117.654 29.6325 115.168 31.2235 112.664 31.2235C109.632 31.2235 107.955 29.5106 107.955 26.4086V10.8369H103.733V27.1632C103.733 29.5507 104.419 31.5307 105.733 32.878C107.066 34.2654 109.068 35 111.491 35C115.027 35 118.059 33.1635 119.613 31.5307V34.5509H123.816V10.8569H119.613V26.7342ZM129.414 34.5509H133.536V0H129.414V34.5509ZM168.046 20.4701C164.106 19.4083 161.964 18.49 161.964 16.6936C161.964 15.4281 163.197 14.0608 165.884 14.0608C168.53 14.0608 170.227 15.4481 170.55 17.8773V17.9191H174.713V17.8573C174.309 13.0808 171.076 10.3461 165.884 10.3461C163.661 10.3461 161.621 11.0206 160.145 12.2443C158.711 13.428 157.922 15.0408 157.922 16.7554C157.922 20.3265 159.984 22.3667 164.833 23.5921C169.359 24.7558 171.52 25.694 171.52 27.796C171.52 29.387 170.066 31.1016 166.853 31.1016C163.56 31.1016 161.761 29.8579 161.075 27.0814V27.0414H157.095V27.1015C157.559 32.0399 161.175 34.98 166.773 34.98C169.359 34.98 171.582 34.2237 173.218 32.7762C174.795 31.3871 175.642 29.4288 175.642 27.2851C175.642 23.9177 173.44 21.9393 168.046 20.4701ZM192.978 10.3878C189.483 10.3878 186.25 12.1024 184.573 13.8571V0.0200343H180.371V34.5509H184.573V18.3882C186.372 15.8371 189.22 14.1843 191.806 14.1843C194.938 14.1843 196.797 15.9791 196.797 18.9992V34.5509H201V18.2246C201 13.388 197.928 10.3878 192.978 10.3878ZM151.073 1.61276C149.497 1.61276 148.224 2.8983 148.224 4.48936C148.224 6.08209 149.497 7.36763 151.073 7.36763C152.649 7.36763 153.922 6.08209 153.922 4.48936C153.943 2.8983 152.649 1.61276 151.073 1.61276ZM139.132 34.5509H143.254V0H139.132V34.5509ZM148.973 34.5509H153.175V10.8569H148.973V34.5509Z" fill="white"/>
</svg>
