<svg xmlns="http://www.w3.org/2000/svg" xmlns:xlink="http://www.w3.org/1999/xlink" version="1.1" viewBox="-168 72 780 516" width="780px" height="516px"><defs><style>text{font-family:Diatype,Inter,ui-sans-serif,system-ui,sans-serif}</style><g><filter id="white-fill-shadow" y="-50%" height="200%"><feDropShadow dx="0" dy="2" stdDeviation="6" flood-opacity="0.03" flood-color="#000000"></feDropShadow></filter><filter id="light-gray-fill-shadow" y="-50%" height="200%"><feDropShadow dx="0" dy="2" stdDeviation="6" flood-opacity="0.09" flood-color="#000000"></feDropShadow></filter><filter id="yellow-fill-shadow" y="-50%" height="200%"><feDropShadow dx="0" dy="2" stdDeviation="6" flood-opacity="0.12" flood-color="#000000"></feDropShadow></filter><filter id="fill-shadow" y="-50%" height="200%"><feDropShadow dx="0" dy="2" stdDeviation="6" flood-opacity="0.16" flood-color="#000000"></feDropShadow></filter><filter id="frame-shadow" y="-50%" height="200%"><feDropShadow dx="0" dy="3" stdDeviation="8" flood-opacity="0.06" flood-color="#000000"></feDropShadow></filter><filter id="button-shadow" y="-50%" height="200%"><feDropShadow dx="0" dy="2" stdDeviation="6" flood-opacity="0.03" flood-color="#000000"></feDropShadow></filter><filter id="button-hover-shadow" y="-50%" height="200%"><feDropShadow dx="0" dy="2" stdDeviation="6" flood-opacity="0.08" flood-color="#000000"></feDropShadow></filter><filter id="badge-shadow" y="-50%" height="200%"><feDropShadow dx="0" dy="2" stdDeviation="6" flood-opacity="0.08" flood-color="#000000"></feDropShadow></filter></g></defs><g><rect x="-168" y="72" width="780" height="516" rx="8" ry="8" fill="#ffffff" filter="url(#white-fill-shadow)"></rect><g><rect x="-168" y="72" width="780" height="516" rx="8" ry="8" fill="#ffffff"></rect></g><g><g><g class="content"><g><g><g><g><g></g><text fill="#172033" hover-props="{}"><tspan x="96" y="348.5" font-family="Diatype,Inter,ui-sans-serif,system-ui,sans-serif" font-size="18" font-style="normal" font-weight="normal">Account</tspan></text></g></g></g></g></g></g><g><g class="content"><g><g><g><g><g></g><text fill="#172033" hover-props="{}"><tspan x="-132" y="258.5" font-family="Diatype,Inter,ui-sans-serif,system-ui,sans-serif" font-size="18" font-style="normal" font-weight="normal">Address</tspan></text></g></g></g></g></g></g><g><g class="content"><g><g><g><g><g></g><text fill="#172033" hover-props="{}"><tspan x="-132" y="114.5" font-family="Diatype,Inter,ui-sans-serif,system-ui,sans-serif" font-size="18" font-style="normal" font-weight="normal">Address</tspan></text></g></g></g></g></g></g><g><g class="content"><g><g><g><g><g></g><text fill="#172033" hover-props="{}"><tspan x="96" y="204.5" font-family="Diatype,Inter,ui-sans-serif,system-ui,sans-serif" font-size="18" font-style="normal" font-weight="normal">Account</tspan></text></g></g></g></g></g></g><g><g><path d="M84,210c-6.62741,0 -12,5.37259 -12,12c0,6.62741 0,41.37259 0,48c0,6.62741 -5.37259,12 -12,12c-6.62741,0 0,0 0,0c0,0 -6.62741,0 0,0c6.62741,0 12,5.37259 12,12c0,6.62741 0,41.37259 0,48c0,6.62741 5.37259,12 12,12" fill="rgba(0,0,0,0)"></path><path d="M84,210c-6.62741,0 -12,5.37259 -12,12c0,6.62741 0,41.37259 0,48c0,6.62741 -5.37259,12 -12,12c-6.62741,0 0,0 0,0c0,0 -6.62741,0 0,0c6.62741,0 12,5.37259 12,12c0,6.62741 0,41.37259 0,48c0,6.62741 5.37259,12 12,12" fill="none" stroke="#6b778c" stroke-linecap="round" stroke-linejoin="round" stroke-width="2"></path></g></g><g><g><rect x="96" y="210" width="240" height="36" rx="8" ry="8" fill="#f8fafc"></rect><rect y="210" rx="8" stroke="#c9d2de" fill="none" stroke-linejoin="round" width="240" stroke-linecap="round" stroke-width="2" x="96" ry="8" height="36"></rect><g class="content"><g><g><g><g><g></g><text fill="#172033" hover-props="{}"><tspan x="108" y="234.5" font-family="Diatype,Inter,ui-sans-serif,system-ui,sans-serif" font-size="18" font-style="normal" font-weight="normal">Data:</tspan></text></g></g></g></g></g></g></g><g><g><rect x="96" y="246" width="240" height="36" rx="8" ry="8" fill="#f8fafc"></rect><rect y="246" rx="8" stroke="#c9d2de" fill="none" stroke-linejoin="round" width="240" stroke-linecap="round" stroke-width="2" x="96" ry="8" height="36"></rect><g class="content"><g><g><g><g><g></g><text fill="#172033" hover-props="{}"><tspan x="108" y="270.5" font-family="Diatype,Inter,ui-sans-serif,system-ui,sans-serif" font-size="18" font-style="normal" font-weight="normal">Executable: True</tspan></text></g></g></g></g></g></g></g><g><g><rect x="96" y="282" width="240" height="36" rx="8" ry="8" fill="#f8fafc"></rect><rect y="282" rx="8" stroke="#c9d2de" fill="none" stroke-linejoin="round" width="240" stroke-linecap="round" stroke-width="2" x="96" ry="8" height="36"></rect><g class="content"><g><g><g><g><g></g><text fill="#172033" hover-props="{}"><tspan x="108" y="306.5" font-family="Diatype,Inter,ui-sans-serif,system-ui,sans-serif" font-size="18" font-style="normal" font-weight="normal">Lamports: Number</tspan></text></g></g></g></g></g></g></g><g><g><rect x="96" y="318" width="240" height="36" rx="8" ry="8" fill="#f8fafc"></rect><rect y="318" rx="8" stroke="#c9d2de" fill="none" stroke-linejoin="round" width="240" stroke-linecap="round" stroke-width="2" x="96" ry="8" height="36"></rect><g class="content"><g><g><g><g><g></g><text fill="#172033" hover-props="{}"><tspan x="108" y="342.5" font-family="Diatype,Inter,ui-sans-serif,system-ui,sans-serif" font-size="18" font-style="normal" font-weight="normal">Owner: BPF Loader</tspan></text></g></g></g></g></g></g></g><g><g><rect x="-132" y="120" width="180" height="36" rx="8" ry="8" fill="#fae8ff"></rect><rect y="120" rx="8" stroke="#a21caf" fill="none" stroke-linejoin="round" width="180" stroke-linecap="round" stroke-width="2" x="-132" ry="8" height="36"></rect><g class="content"><g><g><g><g><g></g><text fill="#172033" hover-props="{}"><tspan x="-89.384765625" y="144.5" font-family="Diatype,Inter,ui-sans-serif,system-ui,sans-serif" font-size="18" font-style="normal" font-weight="normal">BPF Loader </tspan></text></g></g></g></g></g></g></g><g><g><path d="M360,210c-2.48528,0 -4.5,2.01472 -4.5,4.5c0,2.48528 0,6.51472 0,9c0,2.48528 -2.01472,4.5 -4.5,4.5c-2.48528,0 0,0 0,0c0,0 -2.48528,0 0,0c2.48528,0 4.5,2.01472 4.5,4.5c0,2.48528 0,6.51472 0,9c0,2.48528 2.01472,4.5 4.5,4.5" fill="rgba(0,0,0,0)"></path><path d="M360,210c-2.48528,0 -4.5,2.01472 -4.5,4.5c0,2.48528 0,6.51472 0,9c0,2.48528 -2.01472,4.5 -4.5,4.5c-2.48528,0 0,0 0,0c0,0 -2.48528,0 0,0c2.48528,0 4.5,2.01472 4.5,4.5c0,2.48528 0,6.51472 0,9c0,2.48528 2.01472,4.5 4.5,4.5" fill="none" stroke="#6b778c" stroke-linecap="round" stroke-linejoin="round" stroke-width="2"></path></g></g><g><g><rect x="372" y="210" width="192" height="36" rx="8" ry="8" fill="#f8fafc"></rect><rect y="210" rx="8" stroke="#c9d2de" fill="none" stroke-linejoin="round" width="192" stroke-linecap="round" stroke-width="2" x="372" ry="8" height="36"></rect><g class="content"><g><g><g><g><g></g><text fill="#172033" hover-props="{}"><tspan x="412.640625" y="234.5" font-family="Diatype,Inter,ui-sans-serif,system-ui,sans-serif" font-size="18" font-style="normal" font-weight="normal">Program Code</tspan></text></g></g></g></g></g></g></g><g><g class="content"><g><g><g><g><g></g><text fill="#172033" hover-props="{}"><tspan x="372" y="408.5" font-family="Diatype,Inter,ui-sans-serif,system-ui,sans-serif" font-size="18" font-style="normal" font-weight="normal">Account Data</tspan></text></g></g></g></g></g></g><g><g class="content"><g><g><g><g><g></g><text fill="#172033" hover-props="{}"><tspan x="372" y="204.5" font-family="Diatype,Inter,ui-sans-serif,system-ui,sans-serif" font-size="18" font-style="normal" font-weight="normal">Account Data</tspan></text></g></g></g></g></g></g><g><g><path d="M-42,164v23M-42,215v39" fill="none" stroke="#6b778c" stroke-linecap="round" stroke-linejoin="round" stroke-width="4"></path><polygon points="-36.45905,250.9079 -42,258 -47.54095,250.9079" fill="#6b778c" stroke="#6b778c" stroke-width="2" stroke-linecap="round" stroke-linejoin="round"></polygon><g class="content"><g><g><g><g><g></g><text fill="#172033" hover-props="{}"><tspan x="-66.5068359375" y="207.5" font-family="Diatype,Inter,ui-sans-serif,system-ui,sans-serif" font-size="18" font-style="normal" font-weight="normal">owner</tspan></text></g></g></g></g></g></g></g><g><g class="content"><g><g><g><g><g></g><text fill="#172033" hover-props="{}"><tspan x="-132" y="462.5" font-family="Diatype,Inter,ui-sans-serif,system-ui,sans-serif" font-size="18" font-style="normal" font-weight="normal">Address</tspan></text></g></g></g></g></g></g><g><g><rect x="-132" y="468" width="180" height="36" rx="8" ry="8" fill="#e8f2ff"></rect><rect y="468" rx="8" stroke="#2563eb" fill="none" stroke-linejoin="round" width="180" stroke-linecap="round" stroke-width="2" x="-132" ry="8" height="36"></rect><g class="content"><g><g><g><g><g></g><text fill="#172033" hover-props="{}"><tspan x="-92.87744140625" y="492.5" font-family="Diatype,Inter,ui-sans-serif,system-ui,sans-serif" font-size="18" font-style="normal" font-weight="normal">Data Account</tspan></text></g></g></g></g></g></g></g><g><g><path d="M84,414c-6.62741,0 -12,5.37259 -12,12c0,6.62741 0,41.37259 0,48c0,6.62741 -5.37259,12 -12,12c-6.62741,0 0,0 0,0c0,0 -6.62741,0 0,0c6.62741,0 12,5.37259 12,12c0,6.62741 0,41.37259 0,48c0,6.62741 5.37259,12 12,12" fill="rgba(0,0,0,0)"></path><path d="M84,414c-6.62741,0 -12,5.37259 -12,12c0,6.62741 0,41.37259 0,48c0,6.62741 -5.37259,12 -12,12c-6.62741,0 0,0 0,0c0,0 -6.62741,0 0,0c6.62741,0 12,5.37259 12,12c0,6.62741 0,41.37259 0,48c0,6.62741 5.37259,12 12,12" fill="none" stroke="#6b778c" stroke-linecap="round" stroke-linejoin="round" stroke-width="2"></path></g></g><g><g><rect x="96" y="414" width="240" height="36" rx="8" ry="8" fill="#f8fafc"></rect><rect y="414" rx="8" stroke="#c9d2de" fill="none" stroke-linejoin="round" width="240" stroke-linecap="round" stroke-width="2" x="96" ry="8" height="36"></rect><g class="content"><g><g><g><g><g></g><text fill="#172033" hover-props="{}"><tspan x="108" y="438.5" font-family="Diatype,Inter,ui-sans-serif,system-ui,sans-serif" font-size="18" font-style="normal" font-weight="normal">Data:</tspan></text></g></g></g></g></g></g></g><g><g><rect x="96" y="450" width="240" height="36" rx="8" ry="8" fill="#f8fafc"></rect><rect y="450" rx="8" stroke="#c9d2de" fill="none" stroke-linejoin="round" width="240" stroke-linecap="round" stroke-width="2" x="96" ry="8" height="36"></rect><g class="content"><g><g><g><g><g></g><text fill="#172033" hover-props="{}"><tspan x="108" y="474.5" font-family="Diatype,Inter,ui-sans-serif,system-ui,sans-serif" font-size="18" font-style="normal" font-weight="normal">Executable: </tspan></text></g><g id="12-1"><g><g><g><path d="M 243.1796875 457.5 L 243.1796875 457.5 L 243.1796875 478.5 C 243.1796875 478.5  243.1796875 478.5  243.1796875 478.5 L 243.1796875 478.5 L 201.671875 478.5 C 201.671875 478.5  201.671875 478.5  201.671875 478.5 L 201.671875 478.5 L 201.671875 457.5 C 201.671875 457.5  201.671875 457.5  201.671875 457.5 L 201.671875 457.5 L 243.1796875 457.5 C 243.1796875 457.5  243.1796875 457.5  243.1796875 457.5 L 243.1796875 457.5 z" fill="rgba(247,195,36,0.35)"></path></g></g><g></g><text fill="#172033" hover-props="{}"><tspan x="201.671875" y="474.5" font-family="Diatype,Inter,ui-sans-serif,system-ui,sans-serif" font-size="18" font-style="normal" font-weight="normal">False</tspan></text></g></g></g></g></g></g></g></g><g><g><rect x="96" y="486" width="240" height="36" rx="8" ry="8" fill="#f8fafc"></rect><rect y="486" rx="8" stroke="#c9d2de" fill="none" stroke-linejoin="round" width="240" stroke-linecap="round" stroke-width="2" x="96" ry="8" height="36"></rect><g class="content"><g><g><g><g><g></g><text fill="#172033" hover-props="{}"><tspan x="108" y="510.5" font-family="Diatype,Inter,ui-sans-serif,system-ui,sans-serif" font-size="18" font-style="normal" font-weight="normal">Lamports: Number</tspan></text></g></g></g></g></g></g></g><g><g><rect x="96" y="522" width="240" height="36" rx="8" ry="8" fill="#f8fafc"></rect><rect y="522" rx="8" stroke="#c9d2de" fill="none" stroke-linejoin="round" width="240" stroke-linecap="round" stroke-width="2" x="96" ry="8" height="36"></rect><g class="content"><g><g><g><g><g></g><text fill="#172033" hover-props="{}"><tspan x="108" y="546.5" font-family="Diatype,Inter,ui-sans-serif,system-ui,sans-serif" font-size="18" font-style="normal" font-weight="normal">Owner: </tspan></text></g><g id="12-1"><g><g><g><path d="M 235.673828125 529.5 L 235.673828125 529.5 L 235.673828125 550.5 C 235.673828125 550.5  235.673828125 550.5  235.673828125 550.5 L 235.673828125 550.5 L 167.6513671875 550.5 C 167.6513671875 550.5  167.6513671875 550.5  167.6513671875 550.5 L 167.6513671875 550.5 L 167.6513671875 529.5 C 167.6513671875 529.5  167.6513671875 529.5  167.6513671875 529.5 L 167.6513671875 529.5 L 235.673828125 529.5 C 235.673828125 529.5  235.673828125 529.5  235.673828125 529.5 L 235.673828125 529.5 z" fill="rgba(247,195,36,0.35)"></path></g></g><g></g><text fill="#172033" hover-props="{}"><tspan x="167.6513671875" y="546.5" font-family="Diatype,Inter,ui-sans-serif,system-ui,sans-serif" font-size="18" font-style="normal" font-weight="normal">Program</tspan></text></g></g></g></g></g></g></g></g><g><g class="content"><g><g><g><g><g></g><text fill="#172033" hover-props="{}"><tspan x="96" y="408.5" font-family="Diatype,Inter,ui-sans-serif,system-ui,sans-serif" font-size="18" font-style="normal" font-weight="normal">Account</tspan></text></g></g></g></g></g></g><g><g><path d="M-42,300v60M-42,388v68" fill="none" stroke="#6b778c" stroke-linecap="round" stroke-linejoin="round" stroke-width="4"></path><polygon points="-36.45905,452.9079 -42,460 -47.54095,452.9079" fill="#6b778c" stroke="#6b778c" stroke-width="2" stroke-linecap="round" stroke-linejoin="round"></polygon><g class="content"><g><g><g><g><g></g><text fill="#172033" hover-props="{}"><tspan x="-66.5068359375" y="380.5" font-family="Diatype,Inter,ui-sans-serif,system-ui,sans-serif" font-size="18" font-style="normal" font-weight="normal">owner</tspan></text></g></g></g></g></g></g></g><g><g><path d="M360,414c-2.48528,0 -4.5,2.01472 -4.5,4.5c0,2.48528 0,6.51472 0,9c0,2.48528 -2.01472,4.5 -4.5,4.5c-2.48528,0 0,0 0,0c0,0 -2.48528,0 0,0c2.48528,0 4.5,2.01472 4.5,4.5c0,2.48528 0,6.51472 0,9c0,2.48528 2.01472,4.5 4.5,4.5" fill="rgba(0,0,0,0)"></path><path d="M360,414c-2.48528,0 -4.5,2.01472 -4.5,4.5c0,2.48528 0,6.51472 0,9c0,2.48528 -2.01472,4.5 -4.5,4.5c-2.48528,0 0,0 0,0c0,0 -2.48528,0 0,0c2.48528,0 4.5,2.01472 4.5,4.5c0,2.48528 0,6.51472 0,9c0,2.48528 2.01472,4.5 4.5,4.5" fill="none" stroke="#6b778c" stroke-linecap="round" stroke-linejoin="round" stroke-width="2"></path></g></g><g><g><rect x="372" y="414" width="192" height="36" rx="8" ry="8" fill="#f8fafc"></rect><rect y="414" rx="8" stroke="#c9d2de" fill="none" stroke-linejoin="round" width="192" stroke-linecap="round" stroke-width="2" x="372" ry="8" height="36"></rect><g class="content"><g><g><g><g><g></g><text fill="#172033" hover-props="{}"><tspan x="411.54248046875" y="438.5" font-family="Diatype,Inter,ui-sans-serif,system-ui,sans-serif" font-size="18" font-style="normal" font-weight="normal">Program State</tspan></text></g></g></g></g></g></g></g><g><g><rect x="-132" y="264" width="180" height="36" rx="8" ry="8" fill="#fae8ff"></rect><rect y="264" rx="8" stroke="#a21caf" fill="none" stroke-linejoin="round" width="180" stroke-linecap="round" stroke-width="2" x="-132" ry="8" height="36"></rect><g class="content"><g><g><g><g><g></g><text fill="#172033" hover-props="{}"><tspan x="-76.01123046875" y="288.5" font-family="Diatype,Inter,ui-sans-serif,system-ui,sans-serif" font-size="18" font-style="normal" font-weight="normal">Program</tspan></text></g></g></g></g></g></g></g></g></g></svg>