<svg width="489" height="276" viewBox="0 0 489 276" fill="none" xmlns="http://www.w3.org/2000/svg">
<path d="M318.684 52.4928L312.793 58.3406C312.534 58.5943 312.174 58.7411 311.8 58.7411H283.886C283.512 58.7411 283.209 58.4474 283.209 58.1003C283.209 57.9401 283.281 57.7932 283.397 57.673L289.273 51.8252C289.532 51.5716 289.892 51.4247 290.267 51.4247H318.18C318.555 51.4247 318.871 51.6917 318.871 52.0388C318.871 52.1991 318.814 52.3593 318.684 52.4794M312.793 40.6904C312.534 40.4367 312.174 40.2898 311.8 40.2898H283.886C283.512 40.3032 283.209 40.5836 283.209 40.9307C283.209 41.0909 283.281 41.2378 283.397 41.3579L289.273 47.2191C289.532 47.4728 289.892 47.6196 290.267 47.6196H318.18C318.555 47.6196 318.857 47.3259 318.857 46.9788C318.857 46.8185 318.785 46.6717 318.67 46.5515L312.793 40.6904ZM283.886 36.4981H311.785C312.16 36.4981 312.52 36.3512 312.779 36.0976L318.684 30.2498C318.943 29.9961 318.929 29.5956 318.655 29.3552C318.627 29.3285 318.598 29.3018 318.555 29.2885C318.439 29.2217 318.31 29.1817 318.18 29.195H290.267C289.892 29.195 289.532 29.3419 289.273 29.5956L283.397 35.4434C283.137 35.697 283.152 36.0976 283.44 36.3379C283.569 36.4447 283.728 36.5115 283.901 36.5115" fill="white"/>
<path d="M350.106 42.2282H335.853V37.7554H353.804V33.2827H335.798C333.214 33.2827 331.111 35.2633 331.097 37.7292V42.2675C331.097 44.7334 333.214 46.7271 335.798 46.714H350.065V51.1868H331.427V55.6595H350.092C352.677 55.6595 354.78 53.6789 354.793 51.213V46.6747C354.793 44.2088 352.677 42.2151 350.092 42.2282M377.693 33.2696H363.398C360.814 33.2565 358.697 35.2371 358.683 37.703V51.1999C358.683 53.6658 360.8 55.6595 363.384 55.6464C363.384 55.6464 363.384 55.6464 363.398 55.6464H377.693C380.277 55.6464 382.393 53.6658 382.407 51.1999V37.7161C382.407 35.906 381.253 34.2796 379.493 33.5975C378.93 33.3745 378.311 33.2696 377.693 33.2696ZM377.651 51.1736H363.425V37.7423H377.651V51.1736ZM427.793 33.2696H413.842C411.258 33.2696 409.155 35.2502 409.127 37.7161V55.6595H413.883V48.3011H427.766V55.6595H432.522V37.7161C432.522 35.906 431.353 34.2664 429.58 33.5975C429.003 33.3745 428.398 33.2696 427.78 33.2696H427.793ZM427.752 43.8284H413.87V37.7554H427.752V43.8284ZM483.31 33.2696H469.358C466.774 33.2565 464.671 35.2502 464.644 37.7161V55.6595H469.4V48.3011H483.255V55.6595H488.01V37.7161C488.01 36.5356 487.502 35.3945 486.622 34.5681C485.742 33.7287 484.547 33.2696 483.31 33.2827M483.255 43.8415H469.372V37.7686H483.255V43.8415ZM455.668 51.1999H453.771L446.968 35.1715C446.5 34.0435 445.346 33.2958 444.067 33.2958H439.848C438.13 33.2958 436.714 34.6075 436.714 36.2602V55.6857H441.47V37.7423H443.366L450.156 53.7707C450.638 54.8987 451.792 55.6333 453.07 55.6333H457.29C459.008 55.6333 460.424 54.3216 460.424 52.6689V33.2696H455.654V51.1736L455.668 51.1999ZM391.369 33.2696H386.613V51.213C386.613 53.6789 388.73 55.6726 391.314 55.6595C391.314 55.6595 391.328 55.6595 391.341 55.6595H405.609V51.1868H391.383V33.2696H391.369Z" fill="white"/>
<path d="M121.106 210.217H101.513C102.312 211.744 103.377 213.185 104.733 214.538C105.978 215.781 107.553 216.707 109.449 217.34H89.8559C90.655 218.868 91.7204 220.308 93.0757 221.662C94.3213 222.904 95.8959 223.83 97.7918 224.464H78.1989C78.998 225.991 80.0634 227.432 81.4187 228.785C82.6643 230.028 84.2389 230.954 86.1348 231.587H66.5498C67.3489 233.115 68.4143 234.555 69.7696 235.909C71.0152 237.151 72.5898 238.077 74.4856 238.711H54.8928C55.6919 240.238 56.7573 241.679 58.1126 243.032C59.3582 244.275 60.9328 245.201 62.8286 245.834C64.7636 246.475 67.0355 246.792 69.652 246.792H70.4354C73.1538 246.792 75.5197 246.467 77.5174 245.834C79.4445 245.225 81.0505 244.322 82.3274 243.119C83.5339 241.979 84.5131 240.768 85.2887 239.502C86.7067 239.344 88.0071 239.09 89.1744 238.718C91.1015 238.109 92.7075 237.207 93.9844 236.004C95.1909 234.864 96.1701 233.653 96.9457 232.386C98.1365 232.26 99.2332 232.046 100.252 231.769C100.447 231.714 100.651 231.666 100.839 231.603C102.766 230.993 104.372 230.091 105.649 228.888C106.856 227.748 107.835 226.537 108.611 225.271C109.801 225.136 110.898 224.931 111.916 224.653C112.112 224.598 112.316 224.551 112.504 224.487C113.546 224.155 114.494 223.735 115.34 223.229C116.061 222.801 116.727 222.319 117.306 221.772C118.513 220.633 119.492 219.422 120.267 218.155C121.458 218.029 122.555 217.815 123.573 217.538C123.769 217.483 123.973 217.435 124.161 217.372C125.203 217.039 126.151 216.62 126.989 216.113C127.71 215.686 128.376 215.203 128.955 214.657C130.162 213.517 131.141 212.306 131.917 211.04C132.136 210.62 132.191 210.248 132.191 210.248H121.067C121.067 210.248 121.09 210.256 121.098 210.264L121.106 210.217Z" fill="url(#paint0_linear_510_3343)"/>
<path d="M57.8619 65.5539C54.2896 114.089 50.2472 168.742 46.6436 217.348V72.6774H46.2206C43.134 114.556 38.0811 182.823 35.0023 224.479V79.793H34.5793C32.3152 110.543 25.6407 200.719 23.361 231.587V86.9086H22.9379L11.7118 238.695V94.0321H11.2888L0 245.826H15.2293L15.8012 238.711H26.8863C27.0273 236.969 27.3171 233.352 27.4582 231.595H38.5433C38.6843 229.854 38.9741 226.237 39.1151 224.471H50.2002C50.3412 222.73 50.6311 219.113 50.7721 217.356H61.8572C61.9982 215.615 62.2881 211.982 62.4291 210.224H58.3006V65.5539H57.8619Z" fill="url(#paint1_linear_510_3343)"/>
<path d="M73.9764 210.217L74.4856 217.348H62.3273L62.8365 224.464H50.6781L51.1873 231.587H39.029L39.5382 238.703H27.3798L27.889 245.818H43.275L42.7501 238.703H54.9241L54.3993 231.579H66.5733C66.4558 229.957 66.1738 226.118 66.0484 224.464H78.2224C78.1049 222.841 77.8229 219.002 77.6976 217.348H89.8716C89.7541 215.725 89.3467 210.224 89.3467 210.224H73.9764V210.217Z" fill="url(#paint2_linear_510_3343)"/>
<path d="M363.325 210.217L362.596 217.34H351.676L350.947 224.464H340.019L339.29 231.579H328.37L327.641 238.695H316.713L315.984 245.818H331.213L331.942 238.695H342.87L343.027 237.143L343.599 231.579H354.52L354.684 230.028L355.248 224.464H366.177L366.333 222.904L366.905 217.34H377.826L377.982 215.789L378.554 210.217H363.325Z" fill="url(#paint3_linear_510_3343)"/>
<path d="M389.788 210.217L390.29 215.559L390.462 217.34H378.123L378.805 224.456H366.474L367.156 231.571H354.817L355.499 238.695H343.168L343.85 245.81H359.236L358.507 238.695H370.893L370.164 231.571L370.172 231.587H382.557L381.829 224.464H394.207L393.478 217.348H405.864L405.135 210.217H389.788Z" fill="url(#paint4_linear_510_3343)"/>
<path d="M167.647 210.232H148.055C148.854 211.76 149.919 213.2 151.274 214.554C152.52 215.797 154.095 216.723 155.991 217.356H136.398C137.197 218.883 138.262 220.324 139.617 221.677C140.863 222.92 142.438 223.846 144.334 224.479H124.741C125.54 226.007 126.605 227.448 127.96 228.801C129.206 230.044 130.781 230.97 132.677 231.603H113.092C113.891 233.13 114.956 234.571 116.311 235.924C117.557 237.167 119.132 238.093 121.027 238.726H101.435C102.234 240.254 103.299 241.695 104.654 243.048C105.9 244.291 107.475 245.217 109.37 245.85C111.305 246.491 113.577 246.808 116.194 246.808H116.977C119.696 246.808 122.061 246.483 124.059 245.85C125.986 245.24 127.592 244.338 128.869 243.135C130.076 241.995 131.055 240.784 131.83 239.518C133.248 239.36 134.549 239.106 135.716 238.734C137.643 238.125 139.249 237.223 140.526 236.019C141.733 234.88 142.712 233.669 143.487 232.402C144.678 232.276 145.775 232.062 146.793 231.785C146.989 231.73 147.193 231.682 147.381 231.619C149.308 231.009 150.914 230.107 152.191 228.904C153.397 227.764 154.377 226.553 155.152 225.287C156.343 225.152 157.44 224.946 158.458 224.669C158.654 224.614 158.858 224.566 159.046 224.503C160.088 224.171 161.036 223.751 161.882 223.245C162.602 222.817 163.268 222.334 163.848 221.788C165.054 220.649 166.034 219.438 166.809 218.171C168 218.044 169.097 217.831 170.115 217.554C170.311 217.498 170.515 217.451 170.703 217.388C171.745 217.055 172.693 216.636 173.531 216.129C174.252 215.702 174.917 215.219 175.497 214.673C176.704 213.533 177.683 212.322 178.458 211.056C178.678 210.636 178.733 210.264 178.733 210.264H167.608C167.608 210.264 167.632 210.272 167.64 210.28L167.647 210.232Z" fill="url(#paint5_linear_510_3343)"/>
<path d="M193.421 210.217V217.348H181.772V224.464H170.123V231.579H158.474V238.703H146.817V245.818H175.544V238.703H187.193V231.579H198.85V224.464H210.499V217.348H222.149V210.217H193.413H193.421Z" fill="url(#paint6_linear_510_3343)"/>
<path d="M234.652 210.217V217.348H222.995V224.464H211.346V231.579H199.689V238.703H188.039V245.818H216.539V238.703H228.189V231.579H239.846V224.464H251.495V217.348H263.144V210.217H234.644H234.652Z" fill="url(#paint7_linear_510_3343)"/>
<path d="M274.033 210.217V217.348H262.384V224.464H250.735V231.579H239.086V238.703H227.429V245.818H256.156V238.703H267.813V231.579H279.462V224.464H291.119V217.348H302.768V210.217H274.033Z" fill="url(#paint8_linear_510_3343)"/>
<path d="M418.688 210.217V217.348H407.039V224.464H395.382V231.587H383.733V238.703H372.076V245.826H387.305V238.703H398.962V231.587H410.611V224.464H422.268V217.348H433.917V210.217H418.688Z" fill="url(#paint9_linear_510_3343)"/>
<path d="M451.175 210.217V217.348H439.518V224.464H427.869V231.587H416.22V238.703H404.563V245.826H433.298V238.703H444.955V231.587H456.604V224.464H468.261V217.348H479.91V210.217H451.175Z" fill="url(#paint10_linear_510_3343)"/>
<path d="M339.408 222.809C339.384 221.567 339.369 219.746 339.345 217.348H351.096L350.994 210.217H335.318V217.348H330.297V210.217H315.232V217.356H303.583V224.471H291.926V231.587H280.277V238.703H268.628V245.818H283.7V238.703H288.722V245.818H304.5C304.468 244.948 304.437 242.565 304.398 238.703H316.149C316.117 237.816 316.086 235.442 316.047 231.571H327.798C327.767 230.701 327.735 228.318 327.696 224.456H339.447C339.439 224.123 339.423 223.561 339.416 222.793L339.408 222.809ZM300.355 238.703H295.334V231.579H300.355V238.703ZM312.012 231.587H306.991V224.471H312.012V231.587ZM323.661 224.464H318.64V217.348H323.661V224.464Z" fill="url(#paint11_linear_510_3343)"/>
<path d="M220.213 193.837V151.404H233.872V135.804H220.213V93.3715L233.872 94.7825V79.6555L205.136 76.1162V210.225H233.872V193.837H220.213Z" fill="white"/>
<path d="M261.526 193.837V83.1791L245.579 81.2163V210.225H274.087V193.837H261.526Z" fill="white"/>
<path d="M298.646 157.3H312.305V141.771H298.646V103.982L312.305 105.314V89.8637L283.561 86.3007V210.233H312.305V193.845H298.646V157.3Z" fill="white"/>
<path d="M442.143 123.286L451.719 124.248V107.032L417.326 102.752V120.764L426.909 121.797V210.225H442.143V123.286Z" fill="white"/>
<path d="M488.149 193.837H474.483V169.085H488.149V153.871H474.483V126.692L488.149 128.071V111.675L459.406 108.112V210.225H488.149V193.837Z" fill="white"/>
<path d="M192.896 128.458V97.0448C192.896 91.0067 192.653 85.1813 191.211 81.8312C187.858 74.043 181.205 72.4744 175.147 72.4744C165.446 72.4744 161.504 75.927 158.707 83.0688C157.304 86.6475 157.398 95.0663 157.398 99.8117V183.897C157.398 188.642 157.312 197.069 158.707 200.64C161.504 207.781 165.446 211.234 175.147 211.234C181.197 211.234 187.858 209.665 191.211 201.877C192.653 198.535 192.896 192.702 192.896 186.664V147.944L178.054 151.885V187.673C178.054 187.673 178.047 192.694 177.326 193.892C176.949 194.523 175.868 194.814 175.147 194.814C174.489 194.814 173.549 194.507 173.204 193.868C172.334 192.3 172.561 187.807 172.561 187.807V95.894C172.561 95.894 172.334 91.4008 173.204 89.8321C173.556 89.2015 174.489 88.8862 175.147 88.8862C175.868 88.8862 176.949 89.1858 177.326 89.8085C178.047 91.0067 178.054 96.028 178.054 96.028V132.399L192.896 128.458Z" fill="white"/>
<path d="M145.558 125.194V91.1328C145.558 85.0946 145.315 79.2693 143.873 75.9191C140.519 68.131 133.866 66.5623 127.809 66.5623C118.107 66.5623 114.166 70.015 111.368 77.1567C109.965 80.7355 110.06 89.1542 110.06 93.8996V183.897C110.06 188.642 109.973 197.069 111.368 200.64C114.166 207.781 118.107 211.234 127.809 211.234C133.858 211.234 140.519 209.665 143.873 201.877C145.315 198.535 145.558 192.702 145.558 186.664V145.279L130.716 149.221V187.68C130.716 187.68 130.708 192.702 129.987 193.9C129.611 194.531 128.529 194.822 127.809 194.822C127.15 194.822 126.21 194.515 125.865 193.876C124.995 192.308 125.223 187.814 125.223 187.814V89.9819C125.223 89.9819 124.995 85.4888 125.865 83.9201C126.218 83.2895 127.15 82.9742 127.809 82.9742C128.529 82.9742 129.611 83.2737 129.987 83.8964C130.708 85.0946 130.716 90.1159 130.716 90.1159V129.135L145.558 125.194Z" fill="white"/>
<path d="M69.5227 59.058C65.9416 107.45 61.9059 161.762 58.3013 210.225H73.5192C74.3263 200.222 75.4626 185.986 76.2619 176.006H83.722C84.1608 182.163 85.728 204.187 86.159 210.225H101.549C98.1093 163.843 93.9561 108.081 90.5238 61.6593L69.5149 59.058H69.5227ZM76.5832 159.602C77.2101 149.867 79.4904 100.127 79.5688 91.1407H80.1957C80.3759 105.085 82.6954 145.153 83.3458 159.602H76.5832Z" fill="white"/>
<path d="M361.289 193.38C361.289 192.82 361.289 192.245 361.281 191.653C361.218 182.706 361.156 175.651 361.109 170.465C361.101 169.369 361.093 168.344 361.077 167.406C361.077 166.224 360.944 165.112 360.709 164.048C360.552 163.339 360.356 162.653 360.098 161.999C359.737 161.092 359.298 160.296 358.805 159.586C358.405 159.011 357.958 158.499 357.473 158.057C357.175 157.789 356.869 157.568 356.556 157.371C355.709 156.843 354.816 156.583 353.86 156.583V155.945C354.894 155.945 355.874 155.629 356.806 155.014C357.237 154.723 357.653 154.384 358.068 153.958C358.46 153.548 358.828 153.107 359.165 152.65C359.471 152.248 359.753 151.814 360.019 151.373C360.207 151.057 360.403 150.726 360.576 150.379C360.787 149.969 360.983 149.544 361.163 149.102C361.947 147.195 362.339 145.437 362.339 143.852V112.251C362.339 102.823 358.468 95.4919 343.79 93.671L325.587 91.4166V210.233H340.656V162.881H342.85C343.015 162.881 343.164 162.897 343.312 162.913C344.041 163.023 344.574 163.394 344.927 164.048C344.982 164.158 345.036 164.269 345.083 164.387C345.123 164.489 345.146 164.568 345.185 164.671C345.507 165.546 345.679 166.255 345.679 166.783V210.233H361.461C361.453 209.902 361.438 209.342 361.43 208.593C361.391 206.008 361.336 200.939 361.281 193.395L361.289 193.38ZM346.549 145.193C346.549 145.831 346.353 146.438 345.961 147.021C345.569 147.605 344.77 147.896 343.563 147.896H340.656V111.202H343.485C344.746 111.202 345.569 111.518 345.953 112.156C346.345 112.795 346.541 113.433 346.541 114.064V145.185L346.549 145.193Z" fill="white"/>
<path d="M408.839 159.169L402.883 101.27L382.251 98.7081L371.695 201.475L371.617 202.264L370.802 210.209H385.503L387.854 187.286H397.045L399.24 210.209H414.066L408.831 159.153L408.839 159.169ZM389.35 172.104L392.015 126.44L392.093 122.538H392.72L392.79 126.392L395.557 172.104H389.342H389.35Z" fill="white"/>
<defs>
<linearGradient id="paint0_linear_510_3343" x1="45.9174" y1="241.316" x2="137.566" y2="83.6157" gradientUnits="userSpaceOnUse">
<stop stop-color="#9945FF"/>
<stop offset="1" stop-color="#19FB9B"/>
</linearGradient>
<linearGradient id="paint1_linear_510_3343" x1="45.9174" y1="241.316" x2="137.566" y2="83.6157" gradientUnits="userSpaceOnUse">
<stop stop-color="#9945FF"/>
<stop offset="1" stop-color="#19FB9B"/>
</linearGradient>
<linearGradient id="paint2_linear_510_3343" x1="45.9174" y1="241.316" x2="137.566" y2="83.6157" gradientUnits="userSpaceOnUse">
<stop stop-color="#9945FF"/>
<stop offset="1" stop-color="#19FB9B"/>
</linearGradient>
<linearGradient id="paint3_linear_510_3343" x1="45.9174" y1="241.316" x2="137.566" y2="83.6157" gradientUnits="userSpaceOnUse">
<stop stop-color="#9945FF"/>
<stop offset="1" stop-color="#19FB9B"/>
</linearGradient>
<linearGradient id="paint4_linear_510_3343" x1="45.9174" y1="241.316" x2="137.566" y2="83.6157" gradientUnits="userSpaceOnUse">
<stop stop-color="#9945FF"/>
<stop offset="1" stop-color="#19FB9B"/>
</linearGradient>
<linearGradient id="paint5_linear_510_3343" x1="45.9174" y1="241.316" x2="137.566" y2="83.6157" gradientUnits="userSpaceOnUse">
<stop stop-color="#9945FF"/>
<stop offset="1" stop-color="#19FB9B"/>
</linearGradient>
<linearGradient id="paint6_linear_510_3343" x1="45.9174" y1="241.316" x2="137.566" y2="83.6157" gradientUnits="userSpaceOnUse">
<stop stop-color="#9945FF"/>
<stop offset="1" stop-color="#19FB9B"/>
</linearGradient>
<linearGradient id="paint7_linear_510_3343" x1="45.9174" y1="241.316" x2="137.566" y2="83.6157" gradientUnits="userSpaceOnUse">
<stop stop-color="#9945FF"/>
<stop offset="1" stop-color="#19FB9B"/>
</linearGradient>
<linearGradient id="paint8_linear_510_3343" x1="45.9174" y1="241.316" x2="137.566" y2="83.6157" gradientUnits="userSpaceOnUse">
<stop stop-color="#9945FF"/>
<stop offset="1" stop-color="#19FB9B"/>
</linearGradient>
<linearGradient id="paint9_linear_510_3343" x1="45.9174" y1="241.316" x2="137.566" y2="83.6157" gradientUnits="userSpaceOnUse">
<stop stop-color="#9945FF"/>
<stop offset="1" stop-color="#19FB9B"/>
</linearGradient>
<linearGradient id="paint10_linear_510_3343" x1="45.9174" y1="241.316" x2="137.566" y2="83.6157" gradientUnits="userSpaceOnUse">
<stop stop-color="#9945FF"/>
<stop offset="1" stop-color="#19FB9B"/>
</linearGradient>
<linearGradient id="paint11_linear_510_3343" x1="45.9174" y1="241.316" x2="137.566" y2="83.6157" gradientUnits="userSpaceOnUse">
<stop stop-color="#9945FF"/>
<stop offset="1" stop-color="#19FB9B"/>
</linearGradient>
</defs>
</svg>
