<svg width="24" height="24" viewBox="0 0 24 24" fill="none" xmlns="http://www.w3.org/2000/svg">
<path d="M12.75 3H11.25V7H12.75V3Z" fill="white" style="fill:white;fill-opacity:1;"/>
<path d="M6.78317 4.62346L5.6341 5.58764L8.20525 8.65182L9.35432 7.68763L6.78317 4.62346Z" fill="white" style="fill:white;fill-opacity:1;"/>
<path d="M18.354 5.58773L17.205 4.62355L14.6338 7.68773L15.7829 8.65191L18.354 5.58773Z" fill="white" style="fill:white;fill-opacity:1;"/>
<path d="M5.22073 9C4.33013 9 3.52687 9.5355 3.18434 10.3576L2.78846 11.3077C2.61378 11.7269 2.20416 12 1.75 12H1V20H7.38937C9.39779 20 11.0763 18.4715 11.2637 16.4719L11.4255 14.746C11.6391 12.468 9.84697 10.5 7.559 10.5C7.43697 10.5 7.36518 10.465 7.0134 10.029L6.9947 10.0058C6.7034 9.64423 6.18439 9 5.22073 9Z" fill="white" style="fill:white;fill-opacity:1;"/>
<path d="M18.722 9C17.7584 9 17.2394 9.64422 16.9481 10.0058L16.9294 10.029C16.5776 10.465 16.5058 10.5 16.3838 10.5C14.0958 10.5 12.3037 12.468 12.5172 14.746L12.679 16.4719C12.8665 18.4715 14.545 20 16.5534 20H22.9428V12H22.1928C21.7386 12 21.329 11.7269 21.1543 11.3077L20.7584 10.3576C20.4159 9.5355 19.6126 9 18.722 9Z" fill="white" style="fill:white;fill-opacity:1;"/>
</svg>
