<svg width="20" height="20" viewBox="0 0 20 20" fill="none" xmlns="http://www.w3.org/2000/svg">
<path d="M1.69141 9.375H5.8445C5.90928 7.25462 6.30157 5.32309 6.92211 3.86298C7.26212 3.06298 7.68298 2.37537 8.1822 1.87854C8.18768 1.87309 8.19318 1.86765 8.19869 1.86223C4.66024 2.64267 1.96596 5.67211 1.69141 9.375Z" fill="white" style="fill:white;fill-opacity:1;"/>
<path d="M1.69141 10.625C1.96596 14.3279 4.66024 17.3573 8.19869 18.1378C8.19318 18.1324 8.18768 18.1269 8.1822 18.1215C7.68298 17.6246 7.26212 16.937 6.92211 16.137C6.30157 14.6769 5.90928 12.7454 5.8445 10.625H1.69141Z" fill="white" style="fill:white;fill-opacity:1;"/>
<path d="M11.8046 18.1378C15.3431 17.3573 18.0373 14.3279 18.3119 10.625H14.1588C14.094 12.7454 13.7017 14.6769 13.0812 16.137C12.7412 16.937 12.3203 17.6246 11.8211 18.1215C11.8156 18.1269 11.8101 18.1324 11.8046 18.1378Z" fill="white" style="fill:white;fill-opacity:1;"/>
<path d="M18.3119 9.375C18.0373 5.67211 15.3431 2.64267 11.8046 1.86223C11.8101 1.86765 11.8156 1.87309 11.8211 1.87854C12.3203 2.37537 12.7412 3.06298 13.0812 3.86298C13.7017 5.32309 14.094 7.25462 14.1588 9.375H18.3119Z" fill="white" style="fill:white;fill-opacity:1;"/>
<path d="M10.9394 2.76455C10.5937 2.42052 10.2774 2.29167 10.0017 2.29167C9.72588 2.29167 9.40964 2.42052 9.06396 2.76455C8.71574 3.1111 8.37344 3.64388 8.07253 4.35191C7.52824 5.63258 7.15966 7.39155 7.09512 9.375H12.9082C12.8437 7.39155 12.4751 5.63258 11.9308 4.35191C11.6299 3.64388 11.2876 3.1111 10.9394 2.76455Z" fill="white" style="fill:white;fill-opacity:1;"/>
<path d="M11.9308 15.6481C12.4751 14.3674 12.8437 12.6085 12.9082 10.625L7.09512 10.625C7.15966 12.6085 7.52824 14.3674 8.07253 15.6481C8.37344 16.3561 8.71574 16.8889 9.06396 17.2355C9.40964 17.5795 9.72588 17.7083 10.0017 17.7083C10.2774 17.7083 10.5937 17.5795 10.9394 17.2355C11.2876 16.8889 11.6299 16.3561 11.9308 15.6481Z" fill="white" style="fill:white;fill-opacity:1;"/>
</svg>
