<svg width="24" height="24" viewBox="0 0 24 24" fill="none" xmlns="http://www.w3.org/2000/svg">
<path fill-rule="evenodd" clip-rule="evenodd" d="M22 10V5.75C22 4.24646 20.7535 3 19.25 3H8.75035C8.02211 3 7.32262 3.28775 6.80645 3.80312C6.28957 4.31843 6 5.01757 6 5.7464V15H3V18.2175C3 18.9551 3.29283 19.6631 3.81503 20.1851C4.33701 20.7069 5.04485 21 5.7829 21H15.25C16.7688 21 18 19.7684 18 18.2496V10H22ZM18 8.5H20.5V5.75C20.5 5.07489 19.9251 4.5 19.25 4.5C18.9185 4.50007 18.6003 4.63183 18.3662 4.86609C18.1317 5.10061 18 5.41854 18 5.75V8.5ZM12.8 19.5C12.6082 19.1249 12.5 18.6999 12.5 18.2496L12.5 16.5H4.5V18.2175C4.5 18.5576 4.63507 18.8839 4.8755 19.1243C5.11615 19.3648 5.44252 19.5 5.7829 19.5H12.8ZM10 7H13.5V8.5H10V7ZM10 10V11.5H12.5V10H10Z" fill="white" style="fill:white;fill-opacity:1;"/>
</svg>
