<svg width="1728" height="1557" viewBox="0 0 1728 1557" fill="none" xmlns="http://www.w3.org/2000/svg">
<g opacity="0.4" filter="url(#filter0_f_28_4120)">
<path d="M1223.33 598.669L1134.88 697.208C1099.4 736.74 1086.3 791.528 1100.07 842.834L1152.32 1037.55C1164.65 1083.53 1197.17 1121.43 1240.74 1140.61L1368.33 1196.77C1425.27 1221.83 1491.63 1210.93 1537.56 1168.97L1601.16 1110.86C1622.86 1091.03 1649.69 1077.69 1678.6 1072.35L1833.52 1043.76C1926.41 1026.62 1983.27 931.957 1954.77 841.9L1949.74 826.028C1929.08 760.732 1868.48 716.355 1799.99 716.355H1634.29C1590.35 716.355 1548.41 697.946 1518.67 665.596L1455.85 597.276C1393.11 529.045 1285.24 529.692 1223.33 598.669Z" fill="url(#paint0_linear_28_4120)"/>
<path d="M1223.33 598.669L1134.88 697.208C1099.4 736.74 1086.3 791.528 1100.07 842.834L1152.32 1037.55C1164.65 1083.53 1197.17 1121.43 1240.74 1140.61L1368.33 1196.77C1425.27 1221.83 1491.63 1210.93 1537.56 1168.97L1601.16 1110.86C1622.86 1091.03 1649.69 1077.69 1678.6 1072.35L1833.52 1043.76C1926.41 1026.62 1983.27 931.957 1954.77 841.9L1949.74 826.028C1929.08 760.732 1868.48 716.355 1799.99 716.355H1634.29C1590.35 716.355 1548.41 697.946 1518.67 665.596L1455.85 597.276C1393.11 529.045 1285.24 529.692 1223.33 598.669Z" stroke="black" stroke-width="0.826695"/>
</g>
<g filter="url(#filter1_f_28_4120)">
<path d="M-327.669 378.669L-416.116 477.208C-451.599 516.74 -464.697 571.528 -450.93 622.834L-398.683 817.554C-386.346 863.53 -353.825 901.432 -310.257 920.609L-182.672 976.768C-125.734 1001.83 -59.3701 990.928 -13.4436 948.966L50.157 890.857C71.86 871.027 98.6924 857.686 127.602 852.352L282.521 823.764C375.414 806.623 432.273 711.957 403.767 621.9L398.743 606.028C378.075 540.732 317.482 496.355 248.994 496.355H83.291C39.3456 496.355 -2.59 477.946 -32.3341 445.596L-95.1524 377.276C-157.888 309.045 -265.756 309.692 -327.669 378.669Z" fill="url(#paint1_linear_28_4120)"/>
<path d="M-327.669 378.669L-416.116 477.208C-451.599 516.74 -464.697 571.528 -450.93 622.834L-398.683 817.554C-386.346 863.53 -353.825 901.432 -310.257 920.609L-182.672 976.768C-125.734 1001.83 -59.3701 990.928 -13.4436 948.966L50.157 890.857C71.86 871.027 98.6924 857.686 127.602 852.352L282.521 823.764C375.414 806.623 432.273 711.957 403.767 621.9L398.743 606.028C378.075 540.732 317.482 496.355 248.994 496.355H83.291C39.3456 496.355 -2.59 477.946 -32.3341 445.596L-95.1524 377.276C-157.888 309.045 -265.756 309.692 -327.669 378.669Z" stroke="black" stroke-width="0.826695"/>
</g>
<g opacity="0.2" filter="url(#filter2_f_28_4120)">
<path d="M631.686 514.388L333.686 685.531C260.652 727.474 233.696 819.555 272.583 894.262L351.423 1045.72C372.735 1086.67 410.978 1116.16 455.993 1126.38L895.185 1226.03C929.365 1233.79 965.158 1229.89 996.867 1214.95L1257.53 1092.19C1273.93 1084.46 1291.54 1079.64 1309.58 1077.92L1757.19 1035.34C1872.9 1024.34 1936.99 895.834 1876.17 796.786L1872.76 791.237C1844.19 744.709 1793.51 716.355 1738.91 716.355H1189.43C1162.53 716.355 1136.08 709.447 1112.61 696.292L786.723 513.587C738.504 486.553 679.624 486.858 631.686 514.388Z" fill="url(#paint2_linear_28_4120)"/>
<path d="M631.686 514.388L333.686 685.531C260.652 727.474 233.696 819.555 272.583 894.262L351.423 1045.72C372.735 1086.67 410.978 1116.16 455.993 1126.38L895.185 1226.03C929.365 1233.79 965.158 1229.89 996.867 1214.95L1257.53 1092.19C1273.93 1084.46 1291.54 1079.64 1309.58 1077.92L1757.19 1035.34C1872.9 1024.34 1936.99 895.834 1876.17 796.786L1872.76 791.237C1844.19 744.709 1793.51 716.355 1738.91 716.355H1189.43C1162.53 716.355 1136.08 709.447 1112.61 696.292L786.723 513.587C738.504 486.553 679.624 486.858 631.686 514.388Z" stroke="black" stroke-width="0.826695"/>
</g>
<defs>
<filter id="filter0_f_28_4120" x="768.57" y="220.385" width="1519.72" height="1315.83" filterUnits="userSpaceOnUse" color-interpolation-filters="sRGB">
<feFlood flood-opacity="0" result="BackgroundImageFix"/>
<feBlend mode="normal" in="SourceGraphic" in2="BackgroundImageFix" result="shape"/>
<feGaussianBlur stdDeviation="162.859" result="effect1_foregroundBlur_28_4120"/>
</filter>
<filter id="filter1_f_28_4120" x="-782.43" y="0.385193" width="1519.72" height="1315.83" filterUnits="userSpaceOnUse" color-interpolation-filters="sRGB">
<feFlood flood-opacity="0" result="BackgroundImageFix"/>
<feBlend mode="normal" in="SourceGraphic" in2="BackgroundImageFix" result="shape"/>
<feGaussianBlur stdDeviation="162.859" result="effect1_foregroundBlur_28_4120"/>
</filter>
<filter id="filter2_f_28_4120" x="-71.3195" y="167.393" width="2297.02" height="1388.66" filterUnits="userSpaceOnUse" color-interpolation-filters="sRGB">
<feFlood flood-opacity="0" result="BackgroundImageFix"/>
<feBlend mode="normal" in="SourceGraphic" in2="BackgroundImageFix" result="shape"/>
<feGaussianBlur stdDeviation="162.859" result="effect1_foregroundBlur_28_4120"/>
</filter>
<linearGradient id="paint0_linear_28_4120" x1="1156.52" y1="1256.32" x2="1852.25" y2="406.455" gradientUnits="userSpaceOnUse">
<stop offset="0.08" stop-color="#9945FF"/>
<stop offset="0.3" stop-color="#8752F3"/>
<stop offset="0.5" stop-color="#5497D5"/>
<stop offset="0.6" stop-color="#43B4CA"/>
<stop offset="0.72" stop-color="#28E0B9"/>
<stop offset="0.97" stop-color="#14F195"/>
</linearGradient>
<linearGradient id="paint1_linear_28_4120" x1="-473" y1="634" x2="457.446" y2="634" gradientUnits="userSpaceOnUse">
<stop stop-color="#64A8F2"/>
<stop offset="0.496118" stop-color="#9945FF"/>
<stop offset="1" stop-color="#EB54BC"/>
</linearGradient>
<linearGradient id="paint2_linear_28_4120" x1="2008" y1="854" x2="203" y2="853.996" gradientUnits="userSpaceOnUse">
<stop stop-color="#9945FF"/>
<stop offset="0.505714" stop-color="#EB54BC"/>
<stop offset="1" stop-color="#FF754A"/>
</linearGradient>
</defs>
</svg>
