<svg width="1728" height="1138" viewBox="0 0 1728 1138" fill="none" xmlns="http://www.w3.org/2000/svg">
<g filter="url(#filter0_f_6472_12704)">
<path d="M-240.921 377.303L-317.669 460.339C-354.559 500.251 -368.195 556.398 -353.72 608.784L-307.184 777.21C-294.458 823.268 -261.459 861.028 -217.522 879.809L-100.395 929.876C-44.5143 953.762 20.1319 943.27 65.5898 902.936L123.327 851.707C144.941 832.53 171.426 819.686 199.868 814.589L340.715 789.349C432.833 772.842 489.131 678.751 460.13 589.773C439.443 526.305 380.268 483.354 313.515 483.354H157.789C114.643 483.354 73.3956 465.605 43.7308 434.274L-11.5147 375.925C-73.9874 309.943 -179.246 310.575 -240.921 377.303Z" fill="url(#paint0_linear_6472_12704)"/>
<path d="M-240.921 377.303L-317.669 460.339C-354.559 500.251 -368.195 556.398 -353.72 608.784L-307.184 777.21C-294.458 823.268 -261.459 861.028 -217.522 879.809L-100.395 929.876C-44.5143 953.762 20.1319 943.27 65.5898 902.936L123.327 851.707C144.941 832.53 171.426 819.686 199.868 814.589L340.715 789.349C432.833 772.842 489.131 678.751 460.13 589.773C439.443 526.305 380.268 483.354 313.515 483.354H157.789C114.643 483.354 73.3956 465.605 43.7308 434.274L-11.5147 375.925C-73.9874 309.943 -179.246 310.575 -240.921 377.303Z" stroke="black" stroke-width="0.826695"/>
</g>
<g filter="url(#filter1_f_6472_12704)">
<path d="M990.74 396.502L1077.81 489.766C1115.19 529.804 1129.02 586.423 1114.29 639.181L1064.57 817.342C1051.71 863.42 1018.55 901.126 974.491 919.77L844.983 974.576C789.466 998.069 725.401 987.717 680.109 947.933L614.889 890.644C593.31 871.689 566.947 859.013 538.667 853.996L386.426 826.988C292.273 810.284 234.766 714.037 264.669 623.211L265.83 619.684C287.04 555.264 347.202 511.732 415.024 511.732H583.774C626.647 511.732 667.657 494.207 697.289 463.223L762.413 395.13C824.785 329.913 929.156 330.54 990.74 396.502Z" fill="url(#paint1_linear_6472_12704)"/>
<path d="M990.74 396.502L1077.81 489.766C1115.19 529.804 1129.02 586.423 1114.29 639.181L1064.57 817.342C1051.71 863.42 1018.55 901.126 974.491 919.77L844.983 974.576C789.466 998.069 725.401 987.717 680.109 947.933L614.889 890.644C593.31 871.689 566.947 859.013 538.667 853.996L386.426 826.988C292.273 810.284 234.766 714.037 264.669 623.211L265.83 619.684C287.04 555.264 347.202 511.732 415.024 511.732H583.774C626.647 511.732 667.657 494.207 697.289 463.223L762.413 395.13C824.785 329.913 929.156 330.54 990.74 396.502Z" stroke="black" stroke-width="0.826695"/>
</g>
<g opacity="0.2" filter="url(#filter2_f_6472_12704)">
<path d="M1298.59 439.857L1078.79 594.539C1018.25 637.149 995.675 716.256 1024.62 784.402L1093.96 947.626C1112.65 991.638 1150.38 1024.74 1196.45 1037.55L1519.41 1127.34C1560.03 1138.64 1603.49 1133.13 1640 1112.05L1827.69 1003.73C1846.23 993.034 1866.76 986.236 1888.02 983.758L2225.32 944.441C2333.57 931.823 2396.39 815.492 2347.57 718.057L2343.56 710.059C2316.93 656.914 2262.58 623.355 2203.13 623.355H1795.26C1763.51 623.355 1732.5 613.73 1706.32 595.748L1477.93 438.844C1423.82 401.667 1352.29 402.071 1298.59 439.857Z" fill="url(#paint2_linear_6472_12704)"/>
<path d="M1298.59 439.857L1078.79 594.539C1018.25 637.149 995.675 716.256 1024.62 784.402L1093.96 947.626C1112.65 991.638 1150.38 1024.74 1196.45 1037.55L1519.41 1127.34C1560.03 1138.64 1603.49 1133.13 1640 1112.05L1827.69 1003.73C1846.23 993.034 1866.76 986.236 1888.02 983.758L2225.32 944.441C2333.57 931.823 2396.39 815.492 2347.57 718.057L2343.56 710.059C2316.93 656.914 2262.58 623.355 2203.13 623.355H1795.26C1763.51 623.355 1732.5 613.73 1706.32 595.748L1477.93 438.844C1423.82 401.667 1352.29 402.071 1298.59 439.857Z" stroke="black" stroke-width="0.826695"/>
</g>
<g opacity="0.4" filter="url(#filter3_f_6472_12704)">
<path d="M596.876 840.809L512.037 878.364C453.123 904.443 432.125 977.452 468.183 1030.85C483.904 1054.13 508.417 1070.01 536.088 1074.85L741.543 1110.78C768.585 1115.51 796.396 1113.07 822.201 1103.7L934.666 1062.87C948.224 1057.95 962.395 1054.92 976.779 1053.87L1209.85 1036.78C1260.41 1033.07 1286.15 974.251 1254.56 934.603C1242.6 919.585 1224.44 910.836 1205.24 910.836H918.589C897.159 910.836 875.955 906.451 856.283 897.95L722.762 840.252C682.558 822.879 636.925 823.08 596.876 840.809Z" fill="url(#paint3_linear_6472_12704)"/>
<path d="M596.876 840.809L512.037 878.364C453.123 904.443 432.125 977.452 468.183 1030.85C483.904 1054.13 508.417 1070.01 536.088 1074.85L741.543 1110.78C768.585 1115.51 796.396 1113.07 822.201 1103.7L934.666 1062.87C948.224 1057.95 962.395 1054.92 976.779 1053.87L1209.85 1036.78C1260.41 1033.07 1286.15 974.251 1254.56 934.603C1242.6 919.585 1224.44 910.836 1205.24 910.836H918.589C897.159 910.836 875.955 906.451 856.283 897.95L722.762 840.252C682.558 822.879 636.925 823.08 596.876 840.809Z" stroke="black" stroke-width="0.826695"/>
</g>
<defs>
<filter id="filter0_f_6472_12704" x="-685.527" y="0.713654" width="1479.45" height="1267.94" filterUnits="userSpaceOnUse" color-interpolation-filters="sRGB">
<feFlood flood-opacity="0" result="BackgroundImageFix"/>
<feBlend mode="normal" in="SourceGraphic" in2="BackgroundImageFix" result="shape"/>
<feGaussianBlur stdDeviation="162.859" result="effect1_foregroundBlur_6472_12704"/>
</filter>
<filter id="filter1_f_6472_12704" x="-69.4101" y="20.4895" width="1515.62" height="1292.64" filterUnits="userSpaceOnUse" color-interpolation-filters="sRGB">
<feFlood flood-opacity="0" result="BackgroundImageFix"/>
<feBlend mode="normal" in="SourceGraphic" in2="BackgroundImageFix" result="shape"/>
<feGaussianBlur stdDeviation="162.859" result="effect1_foregroundBlur_6472_12704"/>
</filter>
<filter id="filter2_f_6472_12704" x="685.974" y="85.1053" width="2004.51" height="1374.11" filterUnits="userSpaceOnUse" color-interpolation-filters="sRGB">
<feFlood flood-opacity="0" result="BackgroundImageFix"/>
<feBlend mode="normal" in="SourceGraphic" in2="BackgroundImageFix" result="shape"/>
<feGaussianBlur stdDeviation="162.859" result="effect1_foregroundBlur_6472_12704"/>
</filter>
<filter id="filter3_f_6472_12704" x="124.303" y="501.234" width="1470.22" height="938.027" filterUnits="userSpaceOnUse" color-interpolation-filters="sRGB">
<feFlood flood-opacity="0" result="BackgroundImageFix"/>
<feBlend mode="normal" in="SourceGraphic" in2="BackgroundImageFix" result="shape"/>
<feGaussianBlur stdDeviation="162.859" result="effect1_foregroundBlur_6472_12704"/>
</filter>
<linearGradient id="paint0_linear_6472_12704" x1="69" y1="254" x2="69" y2="969" gradientUnits="userSpaceOnUse">
<stop stop-color="#FDE486"/>
<stop offset="0.5" stop-color="#CAB66B"/>
<stop offset="1" stop-color="#978850"/>
</linearGradient>
<linearGradient id="paint1_linear_6472_12704" x1="1138" y1="644" x2="208" y2="644" gradientUnits="userSpaceOnUse">
<stop stop-color="#FFA845"/>
<stop offset="0.5" stop-color="#DAAF7E"/>
<stop offset="0.75" stop-color="#C19460"/>
</linearGradient>
<linearGradient id="paint2_linear_6472_12704" x1="1696" y1="412.5" x2="1382.58" y2="1145" gradientUnits="userSpaceOnUse">
<stop offset="0.431391" stop-color="#FF1C1C"/>
<stop offset="0.715695" stop-color="#A0ECF1"/>
<stop offset="1" stop-color="white"/>
</linearGradient>
<linearGradient id="paint3_linear_6472_12704" x1="477.486" y1="1125.28" x2="544.972" y2="736.5" gradientUnits="userSpaceOnUse">
<stop offset="0.317393" stop-color="#26C7F0"/>
<stop offset="0.83116" stop-color="#5293C6"/>
</linearGradient>
</defs>
</svg>
