<svg width="390" height="1301" viewBox="0 0 390 1301" fill="none" xmlns="http://www.w3.org/2000/svg">
<g filter="url(#filter0_f_6477_20812)">
<path d="M79.1362 420.425L149.546 524.962C173.002 559.786 181.539 602.552 173.251 643.713L115.258 931.739C106.429 975.586 79.327 1013.59 40.7479 1036.22L-45.218 1086.64C-111.86 1125.74 -197.035 1110.56 -246.071 1050.85L-283.595 1005.16C-305.117 978.96 -334.54 960.424 -367.468 952.327L-503.587 918.854C-587.355 898.255 -638.834 813.955 -618.9 730.027L-599.15 646.879C-582.334 576.083 -519.095 526.105 -446.33 526.105H-336.802C-285.172 526.105 -236.838 500.732 -207.517 458.235L-180.426 418.97C-117.563 327.86 17.2984 328.616 79.1362 420.425Z" fill="url(#paint0_linear_6477_20812)"/>
<path d="M79.1362 420.425L149.546 524.962C173.002 559.786 181.539 602.552 173.251 643.713L115.258 931.739C106.429 975.586 79.327 1013.59 40.7479 1036.22L-45.218 1086.64C-111.86 1125.74 -197.035 1110.56 -246.071 1050.85L-283.595 1005.16C-305.117 978.96 -334.54 960.424 -367.468 952.327L-503.587 918.854C-587.355 898.255 -638.834 813.955 -618.9 730.027L-599.15 646.879C-582.334 576.083 -519.095 526.105 -446.33 526.105H-336.802C-285.172 526.105 -236.838 500.732 -207.517 458.235L-180.426 418.97C-117.563 327.86 17.2984 328.616 79.1362 420.425Z" stroke="black" stroke-width="0.826695"/>
</g>
<g opacity="0.2" filter="url(#filter1_f_6477_20812)">
<path d="M303.862 462.908L107.345 654.606C65.2419 695.677 49.6127 756.829 66.8465 813.066L150.739 1086.82C164.873 1132.94 199.418 1170.01 244.431 1187.36L504.427 1287.56C556.548 1307.65 615.415 1298.54 659.033 1263.65L803.12 1148.38C824.274 1131.46 849.445 1120.3 876.188 1115.98L1183.9 1066.26C1281.08 1050.56 1340.03 950.37 1306.57 857.798L1274.72 769.713C1252.23 707.495 1193.17 666.041 1127.01 666.041H799.377C759.048 666.041 720.264 650.529 691.059 622.718L521.861 461.596C460.67 403.327 364.347 403.907 303.862 462.908Z" fill="url(#paint1_linear_6477_20812)"/>
<path d="M303.862 462.908L107.345 654.606C65.2419 695.677 49.6127 756.829 66.8465 813.066L150.739 1086.82C164.873 1132.94 199.418 1170.01 244.431 1187.36L504.427 1287.56C556.548 1307.65 615.415 1298.54 659.033 1263.65L803.12 1148.38C824.274 1131.46 849.445 1120.3 876.188 1115.98L1183.9 1066.26C1281.08 1050.56 1340.03 950.37 1306.57 857.798L1274.72 769.713C1252.23 707.495 1193.17 666.041 1127.01 666.041H799.377C759.048 666.041 720.264 650.529 691.059 622.718L521.861 461.596C460.67 403.327 364.347 403.907 303.862 462.908Z" stroke="black" stroke-width="0.826695"/>
</g>
<g opacity="0.4" filter="url(#filter2_f_6477_20812)">
<path d="M-327.551 953.591L-373.466 981.764C-435.131 1019.6 -457.997 1098.07 -426.31 1163.11C-407.965 1200.76 -373.781 1228.27 -333.075 1238.14L-191.105 1272.56C-154.906 1281.33 -116.768 1276.96 -83.4956 1260.22L-5.10526 1220.77C12.0096 1212.16 30.5557 1206.75 49.617 1204.81L236.343 1185.84C293.941 1179.98 326.389 1116.73 297.54 1066.53C283.288 1041.73 256.867 1026.44 228.264 1026.44H1.82526C-26.6033 1026.44 -54.4989 1018.73 -78.8871 1004.12L-164.692 952.722C-214.901 922.647 -277.666 922.982 -327.551 953.591Z" fill="url(#paint2_linear_6477_20812)"/>
<path d="M-327.551 953.591L-373.466 981.764C-435.131 1019.6 -457.997 1098.07 -426.31 1163.11C-407.965 1200.76 -373.781 1228.27 -333.075 1238.14L-191.105 1272.56C-154.906 1281.33 -116.768 1276.96 -83.4956 1260.22L-5.10526 1220.77C12.0096 1212.16 30.5557 1206.75 49.617 1204.81L236.343 1185.84C293.941 1179.98 326.389 1116.73 297.54 1066.53C283.288 1041.73 256.867 1026.44 228.264 1026.44H1.82526C-26.6033 1026.44 -54.4989 1018.73 -78.8871 1004.12L-164.692 952.722C-214.901 922.647 -277.666 922.982 -327.551 953.591Z" stroke="black" stroke-width="0.826695"/>
</g>
<defs>
<filter id="filter0_f_6477_20812" x="-949.318" y="24.9693" width="1451.79" height="1409.4" filterUnits="userSpaceOnUse" color-interpolation-filters="sRGB">
<feFlood flood-opacity="0" result="BackgroundImageFix"/>
<feBlend mode="normal" in="SourceGraphic" in2="BackgroundImageFix" result="shape"/>
<feGaussianBlur stdDeviation="162.859" result="effect1_foregroundBlur_6477_20812"/>
</filter>
<filter id="filter1_f_6477_20812" x="-266.183" y="92.1416" width="1908.32" height="1532.06" filterUnits="userSpaceOnUse" color-interpolation-filters="sRGB">
<feFlood flood-opacity="0" result="BackgroundImageFix"/>
<feBlend mode="normal" in="SourceGraphic" in2="BackgroundImageFix" result="shape"/>
<feGaussianBlur stdDeviation="162.859" result="effect1_foregroundBlur_6477_20812"/>
</filter>
<filter id="filter2_f_6477_20812" x="-766.658" y="604.267" width="1401.04" height="998.845" filterUnits="userSpaceOnUse" color-interpolation-filters="sRGB">
<feFlood flood-opacity="0" result="BackgroundImageFix"/>
<feBlend mode="normal" in="SourceGraphic" in2="BackgroundImageFix" result="shape"/>
<feGaussianBlur stdDeviation="162.859" result="effect1_foregroundBlur_6477_20812"/>
</filter>
<linearGradient id="paint0_linear_6477_20812" x1="186.204" y1="691.923" x2="-654.911" y2="691.923" gradientUnits="userSpaceOnUse">
<stop stop-color="#FFA845"/>
<stop offset="0.5" stop-color="#DAAF7E"/>
<stop offset="0.75" stop-color="#C19460"/>
</linearGradient>
<linearGradient id="paint1_linear_6477_20812" x1="690.873" y1="401.703" x2="214.199" y2="1205.41" gradientUnits="userSpaceOnUse">
<stop offset="0.431391" stop-color="#FF1C1C"/>
<stop offset="0.715695" stop-color="#A0ECF1"/>
<stop offset="1" stop-color="white"/>
</linearGradient>
<linearGradient id="paint2_linear_6477_20812" x1="-411.182" y1="1295.27" x2="-296.988" y2="820.675" gradientUnits="userSpaceOnUse">
<stop offset="0.317393" stop-color="#26C7F0"/>
<stop offset="0.83116" stop-color="#5293C6"/>
</linearGradient>
</defs>
</svg>
