<?xml version="1.0" encoding="UTF-8" standalone="no"?>
<!-- Created with Inkscape (http://www.inkscape.org/) -->

<svg
   xmlns:dc="http://purl.org/dc/elements/1.1/"
   xmlns:cc="http://creativecommons.org/ns#"
   xmlns:rdf="http://www.w3.org/1999/02/22-rdf-syntax-ns#"
   xmlns:svg="http://www.w3.org/2000/svg"
   xmlns="http://www.w3.org/2000/svg"
   xmlns:sodipodi="http://sodipodi.sourceforge.net/DTD/sodipodi-0.dtd"
   xmlns:inkscape="http://www.inkscape.org/namespaces/inkscape"
   width="342.15991"
   height="53.519989"
   viewBox="0 0 90.529807 14.160497"
   version="1.1"
   id="svg3476"
   inkscape:version="0.92.0 r15299"
   sodipodi:docname="apollo global.svg">
  <defs
     id="defs3470" />
  <sodipodi:namedview
     id="base"
     pagecolor="#ffffff"
     bordercolor="#666666"
     borderopacity="1.0"
     inkscape:pageopacity="0.0"
     inkscape:pageshadow="2"
     inkscape:zoom="2.2293155"
     inkscape:cx="201.18283"
     inkscape:cy="-31.740936"
     inkscape:document-units="mm"
     inkscape:current-layer="layer1"
     showgrid="false"
     fit-margin-top="0"
     fit-margin-left="0"
     fit-margin-right="0"
     fit-margin-bottom="0"
     units="px"
     inkscape:window-width="1280"
     inkscape:window-height="744"
     inkscape:window-x="-4"
     inkscape:window-y="-4"
     inkscape:window-maximized="1" />
  <metadata
     id="metadata3473">
    <rdf:RDF>
      <cc:Work
         rdf:about="">
        <dc:format>image/svg+xml</dc:format>
        <dc:type
           rdf:resource="http://purl.org/dc/dcmitype/StillImage" />
        <dc:title></dc:title>
      </cc:Work>
    </rdf:RDF>
  </metadata>
  <g
     inkscape:label="Layer 1"
     inkscape:groupmode="layer"
     id="layer1"
     transform="translate(32.52711,-141.48851)">
    <g
       transform="translate(-544.31717,-373.14158)"
       id="g3423"
       style="fill:#007d55;fill-opacity:1">
      <path
         d="m 549.85829,527.80633 c -2.794,0 -4.61433,-3.38667 -4.61433,-6.51933 0,-3.302 1.73566,-5.54567 4.318,-5.54567 2.96333,0 4.65666,3.429 4.65666,6.477 0,3.34433 -1.69333,5.588 -4.36033,5.588 z m -0.127,-12.78467 c -3.683,0 -6.64633,3.00567 -6.64633,6.77334 0,3.72533 2.96333,6.731 6.64633,6.731 3.683,0 6.68867,-3.00567 6.68867,-6.731 0,-3.76767 -3.00567,-6.77334 -6.68867,-6.77334 z"
         style="fill:#007d55;fill-opacity:1;fill-rule:nonzero;stroke:none;stroke-width:0.26458332"
         id="path3168"
         inkscape:connector-curvature="0" />
      <path
         d="m 516.28795,522.557 c 0.84667,-2.286 1.94733,-5.16467 1.94733,-5.16467 0,0 1.10067,2.75167 2.07434,5.16467 z m 9.31333,5.08 c -0.46566,0 -0.97366,0 -1.27,-0.381 -0.21166,-0.33867 -0.55033,-1.143 -0.84666,-1.905 -0.29634,-0.762 -4.191,-10.45633 -4.191,-10.45633 l -1.10067,0.59266 c 0,0 -3.47133,8.72067 -3.64067,9.05934 -0.127,0.381 -0.381,1.05833 -0.635,1.60866 -0.46566,1.05834 -0.71966,1.35467 -1.82033,1.48167 h -0.0423 v 0.635 c 0,0 1.18533,-0.0847 2.286,-0.0847 1.10066,0 2.24366,0.0847 2.24366,0.0847 v -0.635 h -0.635 c -0.59266,-0.0423 -1.05833,-0.0847 -1.05833,-0.71967 0,-0.254 0.0423,-0.67733 0.42333,-1.73566 0.0423,-0.0847 0.29634,-0.80434 0.635,-1.73567 h 4.74134 c 0.508,1.27 0.93133,2.32833 1.05833,2.62467 0.16933,0.46566 0.33867,0.84666 0.33867,1.016 0,0.42333 -0.33867,0.55033 -0.97367,0.55033 h -0.381 v 0.635 c 0,0 1.69333,-0.0847 2.75167,-0.0847 1.05833,0 2.159,0.0847 2.159,0.0847 v -0.635 z"
         style="fill:#007d55;fill-opacity:1;fill-rule:nonzero;stroke:none;stroke-width:0.26458332"
         id="path3172"
         inkscape:connector-curvature="0" />
      <path
         d="m 570.72862,525.26633 c -0.59267,1.778 -1.31233,2.24367 -3.38667,2.24367 -2.58233,0 -2.83633,-0.55034 -2.83633,-1.86267 v -8.46667 c 0,-1.22766 0.635,-1.22766 1.60867,-1.27 h 0.0847 v -0.635 h -0.29633 c -1.69333,0.0423 -3.175,0.0423 -4.86833,0 h -0.127 v 0.635 h 0.0423 c 0.97367,0.0423 1.60867,0.0423 1.60867,1.27 v 9.271 c 0,0.381 -0.0847,0.67734 -0.29634,0.889 -0.254,0.21167 -0.67733,0.33867 -1.27,0.29634 h -0.0847 v 0.635 h 0.0423 c 1.651,-0.0847 3.302,-0.0847 4.86833,-0.0847 1.60867,0 3.13267,0 4.699,0.0847 h 0.0423 l 0.71966,-2.96334 -0.55033,-0.0847 z"
         style="fill:#007d55;fill-opacity:1;fill-rule:nonzero;stroke:none;stroke-width:0.26458332"
         id="path3176"
         inkscape:connector-curvature="0" />
      <path
         d="m 585.03728,525.26633 c -0.55033,1.778 -1.31233,2.24367 -3.38667,2.24367 -2.58233,0 -2.794,-0.55034 -2.794,-1.86267 v -8.46667 c 0,-1.22766 0.635,-1.22766 1.56634,-1.27 h 0.0847 v -0.635 h -0.29633 c -1.69333,0.0423 -3.175,0.0423 -4.86833,0 h -0.127 v 0.635 h 0.0847 c 0.97367,0.0423 1.60867,0.0423 1.60867,1.27 v 9.271 c 0,0.381 -0.127,0.67734 -0.33867,0.889 -0.254,0.21167 -0.67733,0.33867 -1.27,0.29634 h -0.0847 v 0.635 h 0.0847 c 1.60867,-0.0847 3.25967,-0.0847 4.86834,-0.0847 1.56633,0 3.09033,0 4.65666,0.0847 h 0.0423 l 0.71966,-2.96334 -0.55033,-0.0847 z"
         style="fill:#007d55;fill-opacity:1;fill-rule:nonzero;stroke:none;stroke-width:0.26458332"
         id="path3180"
         inkscape:connector-curvature="0" />
      <path
         d="m 595.49362,527.80633 c -2.794,0 -4.61433,-3.38667 -4.61433,-6.51933 0,-3.302 1.73566,-5.54567 4.318,-5.54567 2.96333,0 4.699,3.429 4.699,6.477 0,3.34433 -1.73567,5.588 -4.40267,5.588 z m -0.127,-12.78467 c -3.64067,0 -6.64633,3.00567 -6.64633,6.77334 0,3.72533 3.00566,6.731 6.64633,6.731 3.683,0 6.68867,-3.00567 6.68867,-6.731 0,-3.76767 -3.00567,-6.77334 -6.68867,-6.77334 z"
         style="fill:#007d55;fill-opacity:1;fill-rule:nonzero;stroke:none;stroke-width:0.26458332"
         id="path3184"
         inkscape:connector-curvature="0" />
      <path
         d="m 533.09428,526.40933 c 0,0.508 0.127,1.22767 1.43933,1.22767 0.29634,0 0.381,0 0.381,0 v 0.635 c -1.10066,-0.0847 -2.159,-0.0847 -2.921,-0.0847 -0.80433,0 -1.56633,0 -2.413,0.0847 v -0.635 c 0,0 0.16934,0 0.29634,0 0.635,0 1.27,-0.16934 1.27,-1.22767 v -9.144 c 0,-0.84667 -0.16934,-1.18533 -0.889,-1.31233 -0.381,-0.0847 -0.71967,-0.0423 -0.71967,-0.0423 v -0.635 c 0,0 2.286,0.0423 3.89467,0.0423 1.94733,0 3.59833,0.16933 4.52966,0.762 0.889,0.55033 1.56634,1.56633 1.56634,2.921 0,1.778 -1.48167,2.75166 -2.286,3.175 -0.889,0.381 -1.905,0.59266 -2.70934,0.59266 l -0.0423,-0.55033 c 2.11667,-0.381 2.87867,-1.524 2.87867,-3.21733 0,-1.905 -1.22767,-2.83634 -2.794,-2.96334 -1.016,-0.0847 -1.48167,0.0423 -1.48167,0.0423 z"
         style="fill:#007d55;fill-opacity:1;fill-rule:nonzero;stroke:none;stroke-width:0.26458332"
         id="path3188"
         inkscape:connector-curvature="0" />
    </g>
  </g>
</svg>
