<?xml version="1.0" encoding="UTF-8"?><svg id="Pageinfo_s" xmlns="http://www.w3.org/2000/svg" viewBox="0 0 798.91 216.29"><defs><style>.cls-1{fill:#fff;}</style></defs><path class="cls-1" d="M25.71,25.72h45.93c20.33,0,29.48,7.77,29.48,30.39v22.62c0,13.94-8.23,21.94-14.39,23.77,8.69,2.51,16.91,8.45,16.91,26.74v28.34c0,26.74-9.37,38.16-27.88,38.16H25.72V25.73h0ZM56.11,51.77v40.44h6.85c5.26,0,8.23-2.05,8.23-10.05v-21.25c0-6.17-2.06-9.14-7.77-9.14h-7.32ZM56.11,119.64v49.13h8.45c5.26,0,7.77-1.37,7.77-11.2v-27.65c0-7.08-1.83-10.29-8.91-10.29h-7.31Z"/><path class="cls-1" d="M142.03,25.72v139.39h32.22v30.62h-62.61V25.72h30.4,0Z"/><path class="cls-1" d="M259.03,156.89c0,24.91-13.26,41.36-36.1,41.36h-6.85c-23.99,0-36.79-14.63-36.79-41.36v-89.8c0-26.28,10.29-43.42,36.56-43.42h6.85c26.74,0,36.34,17.14,36.34,43.19v90.04ZM227.27,64.57c0-7.54-2.74-11.2-8-11.2-6.17,0-8.23,3.66-8.23,11.2v93.23c0,5.25,2.06,10.05,8.45,10.05s7.77-4.8,7.77-10.05v-93.23h0Z"/><path class="cls-1" d="M314.34,120.79h30.16v38.39c0,20.11-8.45,39.3-35.19,39.3h-6.17c-29.25,0-35.88-18.97-35.88-40.22V62.28c0-20.57,9.14-38.62,35.88-38.62h6.17c29.25,0,35.19,18.05,35.19,37.47v28.56h-30.16v-27.43c0-6.4-2.06-9.83-7.77-9.83s-7.54,3.2-7.54,9.83v95.98c0,6.85,2.51,10.29,7.77,10.29s7.54-4.11,7.54-10.29v-37.47h0Z"/><path class="cls-1" d="M383.35,195.74h-30.39V25.72h30.39v65.36l19.88-65.36h29.93l-23.99,77.24,26.51,92.77h-31.99l-20.33-71.98v71.98Z"/><path class="cls-1" d="M529.38,25.72v26.96l-37.02,113.35h39.53v29.71h-72.21v-27.43l37.02-113.34h-34.5v-29.25h67.18Z"/><path class="cls-1" d="M602.28,25.72v29.93h-33.13v37.02h26.05v30.62h-26.05v41.82h34.73v30.62h-65.12V25.72h63.52Z"/><path class="cls-1" d="M641.13,195.74h-30.39V25.72h47.99c18.51,0,27.88,10.05,27.88,28.34v27.19c0,14.17-7.77,20.33-13.48,22.85,4.8,1.83,13.02,7.54,13.02,20.11v57.81c0,7.31,1.37,10.51,2.51,12.57v1.14h-30.39c-1.6-1.83-2.74-5.48-2.74-13.02v-49.59c0-8-1.83-10.05-8-10.05h-6.4v72.67ZM641.13,94.96h5.94c6.17,0,8.45-2.29,8.45-10.29v-23.08c0-7.31-1.37-9.6-7.54-9.6h-6.85v42.96h0Z"/><path class="cls-1" d="M773.21,156.89c0,24.91-13.26,41.36-36.1,41.36h-5.71c-8.91,0-16.23-2.74-21.94-8l-2.28,5.48h-16.91l7.54-18.74c-2.06-5.48-3.43-12.11-3.43-20.1v-89.8c0-26.28,10.29-43.42,36.56-43.42h5.71c8.69,0,15.77,2.51,21.25,7.54l2.28-5.48h16.91l-7.54,18.97c2.51,5.48,3.66,12.8,3.66,22.17v90.04h0ZM725.22,64.57v51.19l17.14-47.76v-3.43c0-7.54-2.74-11.2-8.45-11.2-6.4,0-8.69,3.66-8.69,11.2ZM742.36,157.81v-52.1l-17.14,47.07v5.03c0,5.25,1.83,10.05,8.91,10.05,6.63,0,8.23-4.8,8.23-10.05Z"/></svg>