<svg xmlns="http://www.w3.org/2000/svg" width="36" height="181" fill="none"><circle cx="-.575" cy="1.708" r="1.708" fill="#fff" opacity=".06"/><circle cx="6.255" cy="1.708" r="1.708" fill="#fff" opacity=".23"/><circle cx="13.085" cy="1.708" r="1.708" fill="#fff" opacity=".32"/><circle cx="19.915" cy="1.708" r="1.708" fill="#fff" opacity=".49"/><circle cx="26.745" cy="1.708" r="1.708" fill="#fff" opacity=".44"/><circle cx="33.575" cy="1.708" r="1.708" fill="#fff" opacity=".45"/><circle cx="-.575" cy="8.538" r="1.708" fill="#fff" opacity=".27"/><circle cx="6.255" cy="8.538" r="1.708" fill="#fff" opacity=".06"/><circle cx="13.085" cy="8.538" r="1.708" fill="#fff" opacity=".21"/><circle cx="19.915" cy="8.538" r="1.708" fill="#fff" opacity=".54"/><circle cx="26.745" cy="8.538" r="1.708" fill="#fff" opacity=".35"/><circle cx="33.575" cy="8.538" r="1.708" fill="#fff" opacity=".1"/><circle cx="-.575" cy="15.368" r="1.708" fill="#fff" opacity=".23"/><circle cx="6.255" cy="15.368" r="1.708" fill="#fff" opacity=".31"/><circle cx="13.085" cy="15.368" r="1.708" fill="#fff" opacity=".33"/><circle cx="19.915" cy="15.368" r="1.708" fill="#fff" opacity=".34"/><circle cx="26.745" cy="15.368" r="1.708" fill="#fff" opacity=".09"/><circle cx="33.575" cy="15.368" r="1.708" fill="#fff" opacity=".23"/><circle cx="-.575" cy="22.198" r="1.708" fill="#fff" opacity=".29"/><circle cx="6.255" cy="22.198" r="1.708" fill="#fff" opacity=".11"/><circle cx="13.085" cy="22.198" r="1.708" fill="#fff" opacity=".08"/><circle cx="19.915" cy="22.198" r="1.708" fill="#fff" opacity=".29"/><circle cx="26.745" cy="22.198" r="1.708" fill="#fff" opacity=".1"/><circle cx="33.575" cy="22.198" r="1.708" fill="#fff" opacity=".06"/><circle cx="-.575" cy="29.028" r="1.708" fill="#fff" opacity=".13"/><circle cx="6.255" cy="29.028" r="1.708" fill="#fff" opacity=".18"/><circle cx="13.085" cy="29.028" r="1.708" fill="#fff" opacity=".46"/><circle cx="19.915" cy="29.028" r="1.708" fill="#fff" opacity=".23"/><circle cx="26.745" cy="29.028" r="1.708" fill="#fff" opacity=".16"/><circle cx="33.575" cy="29.028" r="1.708" fill="#fff" opacity=".47"/><circle cx="-.575" cy="35.858" r="1.708" fill="#fff" opacity=".18"/><circle cx="6.255" cy="35.858" r="1.708" fill="#fff" opacity=".29"/><circle cx="13.085" cy="35.858" r="1.708" fill="#fff" opacity=".45"/><circle cx="19.915" cy="35.858" r="1.708" fill="#fff" opacity=".07"/><circle cx="26.745" cy="35.858" r="1.708" fill="#fff" opacity=".38"/><circle cx="33.575" cy="35.858" r="1.708" fill="#fff" opacity=".44"/><circle cx="-.575" cy="42.689" r="1.708" fill="#fff" opacity=".24"/><circle cx="6.255" cy="42.689" r="1.708" fill="#fff" opacity=".28"/><circle cx="13.085" cy="42.689" r="1.708" fill="#fff" opacity=".22"/><circle cx="19.915" cy="42.689" r="1.708" fill="#fff" opacity=".43"/><circle cx="26.745" cy="42.689" r="1.708" fill="#fff" opacity=".25"/><circle cx="33.575" cy="42.689" r="1.708" fill="#fff" opacity=".26"/><circle cx="-.575" cy="49.519" r="1.708" fill="#fff" opacity=".36"/><circle cx="6.255" cy="49.519" r="1.708" fill="#fff" opacity=".2"/><circle cx="13.085" cy="49.519" r="1.708" fill="#fff" opacity=".47"/><circle cx="19.915" cy="49.519" r="1.708" fill="#fff" opacity=".33"/><circle cx="26.745" cy="49.519" r="1.708" fill="#fff" opacity=".26"/><circle cx="33.575" cy="49.519" r="1.708" fill="#fff" opacity=".2"/><circle cx="-.575" cy="56.349" r="1.708" fill="#fff" opacity=".25"/><circle cx="6.255" cy="56.349" r="1.708" fill="#fff" opacity=".54"/><circle cx="13.085" cy="56.349" r="1.708" fill="#fff" opacity=".49"/><circle cx="19.915" cy="56.349" r="1.708" fill="#fff" opacity=".48"/><circle cx="26.745" cy="56.349" r="1.708" fill="#fff" opacity=".4"/><circle cx="33.575" cy="56.349" r="1.708" fill="#fff" opacity=".3"/><circle cx="-.575" cy="63.179" r="1.708" fill="#fff" opacity=".19"/><circle cx="6.255" cy="63.179" r="1.708" fill="#fff" opacity=".31"/><circle cx="13.085" cy="63.179" r="1.708" fill="#fff" opacity=".31"/><circle cx="19.915" cy="63.179" r="1.708" fill="#fff" opacity=".51"/><circle cx="26.745" cy="63.179" r="1.708" fill="#fff" opacity=".19"/><circle cx="33.575" cy="63.179" r="1.708" fill="#fff" opacity=".2"/><circle cx="-.575" cy="70.009" r="1.708" fill="#fff" opacity=".45"/><circle cx="6.255" cy="70.009" r="1.708" fill="#fff" opacity=".21"/><circle cx="13.085" cy="70.009" r="1.708" fill="#fff" opacity=".45"/><circle cx="19.915" cy="70.009" r="1.708" fill="#fff" opacity=".06"/><circle cx="26.745" cy="70.009" r="1.708" fill="#fff" opacity=".05"/><circle cx="33.575" cy="70.009" r="1.708" fill="#fff" opacity=".23"/><circle cx="-.575" cy="76.84" r="1.708" fill="#fff" opacity=".07"/><circle cx="6.255" cy="76.84" r="1.708" fill="#fff" opacity=".47"/><circle cx="13.085" cy="76.84" r="1.708" fill="#fff" opacity=".11"/><circle cx="19.915" cy="76.84" r="1.708" fill="#fff" opacity=".27"/><circle cx="26.745" cy="76.84" r="1.708" fill="#fff" opacity=".46"/><circle cx="33.575" cy="76.84" r="1.708" fill="#fff" opacity=".18"/><circle cx="-.575" cy="83.67" r="1.708" fill="#fff" opacity=".13"/><circle cx="6.255" cy="83.67" r="1.708" fill="#fff" opacity=".06"/><circle cx="13.085" cy="83.67" r="1.708" fill="#fff" opacity=".27"/><circle cx="19.915" cy="83.67" r="1.708" fill="#fff" opacity=".23"/><circle cx="26.745" cy="83.67" r="1.708" fill="#fff" opacity=".48"/><circle cx="33.575" cy="83.67" r="1.708" fill="#fff" opacity=".24"/><circle cx="-.575" cy="90.5" r="1.708" fill="#fff" opacity=".5"/><circle cx="6.255" cy="90.5" r="1.708" fill="#fff" opacity=".46"/><circle cx="13.085" cy="90.5" r="1.708" fill="#fff" opacity=".12"/><circle cx="19.915" cy="90.5" r="1.708" fill="#fff" opacity=".46"/><circle cx="26.745" cy="90.5" r="1.708" fill="#fff" opacity=".46"/><circle cx="33.575" cy="90.5" r="1.708" fill="#fff" opacity=".26"/><circle cx="-.575" cy="97.33" r="1.708" fill="#fff" opacity=".06"/><circle cx="6.255" cy="97.33" r="1.708" fill="#fff" opacity=".05"/><circle cx="13.085" cy="97.33" r="1.708" fill="#fff" opacity=".54"/><circle cx="19.915" cy="97.33" r="1.708" fill="#fff" opacity=".11"/><circle cx="26.745" cy="97.33" r="1.708" fill="#fff" opacity=".32"/><circle cx="33.575" cy="97.33" r="1.708" fill="#fff" opacity=".33"/><circle cx="-.575" cy="104.16" r="1.708" fill="#fff" opacity=".22"/><circle cx="6.255" cy="104.16" r="1.708" fill="#fff" opacity=".38"/><circle cx="13.085" cy="104.16" r="1.708" fill="#fff" opacity=".22"/><circle cx="19.915" cy="104.16" r="1.708" fill="#fff" opacity=".2"/><circle cx="26.745" cy="104.16" r="1.708" fill="#fff" opacity=".54"/><circle cx="33.575" cy="104.16" r="1.708" fill="#fff" opacity=".42"/><circle cx="-.575" cy="110.991" r="1.708" fill="#fff" opacity=".28"/><circle cx="6.255" cy="110.991" r="1.708" fill="#fff" opacity=".06"/><circle cx="13.085" cy="110.991" r="1.708" fill="#fff" opacity=".07"/><circle cx="19.915" cy="110.991" r="1.708" fill="#fff" opacity=".47"/><circle cx="26.745" cy="110.991" r="1.708" fill="#fff" opacity=".11"/><circle cx="33.575" cy="110.991" r="1.708" fill="#fff" opacity=".29"/><circle cx="-.575" cy="117.821" r="1.708" fill="#fff" opacity=".52"/><circle cx="6.255" cy="117.821" r="1.708" fill="#fff" opacity=".26"/><circle cx="13.085" cy="117.821" r="1.708" fill="#fff" opacity=".17"/><circle cx="19.915" cy="117.821" r="1.708" fill="#fff" opacity=".47"/><circle cx="26.745" cy="117.821" r="1.708" fill="#fff" opacity=".33"/><circle cx="33.575" cy="117.821" r="1.708" fill="#fff" opacity=".07"/><circle cx="-.575" cy="124.651" r="1.708" fill="#fff" opacity=".35"/><circle cx="6.255" cy="124.651" r="1.708" fill="#fff" opacity=".21"/><circle cx="13.085" cy="124.651" r="1.708" fill="#fff" opacity=".44"/><circle cx="19.915" cy="124.651" r="1.708" fill="#fff" opacity=".32"/><circle cx="26.745" cy="124.651" r="1.708" fill="#fff" opacity=".16"/><circle cx="33.575" cy="124.651" r="1.708" fill="#fff" opacity=".3"/><circle cx="-.575" cy="131.481" r="1.708" fill="#fff" opacity=".15"/><circle cx="6.255" cy="131.481" r="1.708" fill="#fff" opacity=".06"/><circle cx="13.085" cy="131.481" r="1.708" fill="#fff" opacity=".37"/><circle cx="19.915" cy="131.481" r="1.708" fill="#fff" opacity=".42"/><circle cx="26.745" cy="131.481" r="1.708" fill="#fff" opacity=".12"/><circle cx="33.575" cy="131.481" r="1.708" fill="#fff" opacity=".24"/><circle cx="-.575" cy="138.311" r="1.708" fill="#fff" opacity=".5"/><circle cx="6.255" cy="138.311" r="1.708" fill="#fff" opacity=".22"/><circle cx="13.085" cy="138.311" r="1.708" fill="#fff" opacity=".34"/><circle cx="19.915" cy="138.311" r="1.708" fill="#fff" opacity=".54"/><circle cx="26.745" cy="138.311" r="1.708" fill="#fff" opacity=".4"/><circle cx="33.575" cy="138.311" r="1.708" fill="#fff" opacity=".06"/><circle cx="-.575" cy="145.142" r="1.708" fill="#fff" opacity=".09"/><circle cx="6.255" cy="145.142" r="1.708" fill="#fff" opacity=".53"/><circle cx="13.085" cy="145.142" r="1.708" fill="#fff" opacity=".22"/><circle cx="19.915" cy="145.142" r="1.708" fill="#fff" opacity=".18"/><circle cx="26.745" cy="145.142" r="1.708" fill="#fff" opacity=".36"/><circle cx="33.575" cy="145.142" r="1.708" fill="#fff" opacity=".3"/><circle cx="-.575" cy="151.972" r="1.708" fill="#fff" opacity=".29"/><circle cx="6.255" cy="151.972" r="1.708" fill="#fff" opacity=".42"/><circle cx="13.085" cy="151.972" r="1.708" fill="#fff" opacity=".37"/><circle cx="19.915" cy="151.972" r="1.708" fill="#fff" opacity=".54"/><circle cx="26.745" cy="151.972" r="1.708" fill="#fff" opacity=".21"/><circle cx="33.575" cy="151.972" r="1.708" fill="#fff" opacity=".24"/><circle cx="-.575" cy="158.802" r="1.708" fill="#fff" opacity=".24"/><circle cx="6.255" cy="158.802" r="1.708" fill="#fff" opacity=".39"/><circle cx="13.085" cy="158.802" r="1.708" fill="#fff" opacity=".24"/><circle cx="19.915" cy="158.802" r="1.708" fill="#fff" opacity=".21"/><circle cx="26.745" cy="158.802" r="1.708" fill="#fff" opacity=".1"/><circle cx="33.575" cy="158.802" r="1.708" fill="#fff" opacity=".2"/><circle cx="-.575" cy="165.632" r="1.708" fill="#fff" opacity=".11"/><circle cx="6.255" cy="165.632" r="1.708" fill="#fff" opacity=".34"/><circle cx="13.085" cy="165.632" r="1.708" fill="#fff" opacity=".51"/><circle cx="19.915" cy="165.632" r="1.708" fill="#fff" opacity=".53"/><circle cx="26.745" cy="165.632" r="1.708" fill="#fff" opacity=".23"/><circle cx="33.575" cy="165.632" r="1.708" fill="#fff" opacity=".05"/><circle cx="-.575" cy="172.462" r="1.708" fill="#fff" opacity=".22"/><circle cx="6.255" cy="172.462" r="1.708" fill="#fff" opacity=".37"/><circle cx="13.085" cy="172.462" r="1.708" fill="#fff" opacity=".46"/><circle cx="19.915" cy="172.462" r="1.708" fill="#fff" opacity=".52"/><circle cx="26.745" cy="172.462" r="1.708" fill="#fff" opacity=".06"/><circle cx="33.575" cy="172.462" r="1.708" fill="#fff" opacity=".28"/><circle cx="-.575" cy="179.293" r="1.708" fill="#fff" opacity=".39"/><circle cx="6.255" cy="179.293" r="1.708" fill="#fff" opacity=".49"/><circle cx="13.085" cy="179.293" r="1.708" fill="#fff" opacity=".53"/><circle cx="19.915" cy="179.293" r="1.708" fill="#fff" opacity=".34"/><circle cx="26.745" cy="179.293" r="1.708" fill="#fff" opacity=".52"/><circle cx="33.575" cy="179.293" r="1.708" fill="#fff" opacity=".48"/></svg>