<svg width="1127" height="257" viewBox="0 0 1127 257" fill="none" xmlns="http://www.w3.org/2000/svg">
<g opacity="0.15" filter="url(#filter0_di_1938_20733)">
<path d="M901.13 1.5L902.191 1.51953C907.492 1.68258 912.716 2.85662 917.582 4.98242C922.77 7.24921 927.443 10.5497 931.313 14.6836V14.6846L1115.72 212.957V212.958C1118.36 215.803 1120.11 219.354 1120.76 223.178C1121.41 227.001 1120.94 230.932 1119.4 234.49C1117.86 238.049 1115.31 241.083 1112.08 243.22C1108.84 245.357 1105.06 246.505 1101.18 246.526H225.521C219.857 246.497 214.26 245.312 209.069 243.045C203.879 240.777 199.205 237.474 195.334 233.338L10.8213 35.0684H10.8223C8.18215 32.2171 6.43036 28.6576 5.78125 24.8252C5.13213 20.9927 5.61401 17.0538 7.16797 13.4912C8.72189 9.92897 11.2799 6.8973 14.5293 4.76758C17.5758 2.7709 21.1062 1.64803 24.7363 1.51367L25.4639 1.5H901.13Z" stroke="white" style="stroke:white;stroke-opacity:1;" stroke-width="3" shape-rendering="crispEdges"/>
</g>
<defs>
<filter id="filter0_di_1938_20733" x="0" y="0" width="1126.55" height="256.026" filterUnits="userSpaceOnUse" color-interpolation-filters="sRGB">
<feFlood flood-opacity="0" result="BackgroundImageFix"/>
<feColorMatrix in="SourceAlpha" type="matrix" values="0 0 0 0 0 0 0 0 0 0 0 0 0 0 0 0 0 0 127 0" result="hardAlpha"/>
<feOffset dy="4"/>
<feGaussianBlur stdDeviation="2"/>
<feComposite in2="hardAlpha" operator="out"/>
<feColorMatrix type="matrix" values="0 0 0 0 0 0 0 0 0 0 0 0 0 0 0 0 0 0 0.36 0"/>
<feBlend mode="normal" in2="BackgroundImageFix" result="effect1_dropShadow_1938_20733"/>
<feBlend mode="normal" in="SourceGraphic" in2="effect1_dropShadow_1938_20733" result="shape"/>
<feColorMatrix in="SourceAlpha" type="matrix" values="0 0 0 0 0 0 0 0 0 0 0 0 0 0 0 0 0 0 127 0" result="hardAlpha"/>
<feOffset dx="2" dy="5"/>
<feGaussianBlur stdDeviation="1"/>
<feComposite in2="hardAlpha" operator="arithmetic" k2="-1" k3="1"/>
<feColorMatrix type="matrix" values="0 0 0 0 0.139548 0 0 0 0 0.139548 0 0 0 0 0.184085 0 0 0 1 0"/>
<feBlend mode="normal" in2="shape" result="effect2_innerShadow_1938_20733"/>
</filter>
</defs>
</svg>
