<svg width="1411" height="283" viewBox="0 0 1411 283" fill="none" xmlns="http://www.w3.org/2000/svg">
<g style="mix-blend-mode:overlay">
<rect width="1145" height="8" transform="matrix(1 0 0 -1 246 283)" fill="white" style="fill:white;fill-opacity:1;"/>
<rect width="1177" height="8" transform="matrix(1 0 0 -1 234 272)" fill="white" style="fill:white;fill-opacity:1;"/>
<rect width="1190" height="8" transform="matrix(1 0 0 -1 221 261)" fill="white" style="fill:white;fill-opacity:1;"/>
<rect width="1198" height="8" transform="matrix(1 0 0 -1 213 250)" fill="white" style="fill:white;fill-opacity:1;"/>
<rect width="1188" height="8" transform="matrix(1 0 0 -1 203 239)" fill="white" style="fill:white;fill-opacity:1;"/>
<rect width="1194" height="8" transform="matrix(1 0 0 -1 191 228)" fill="white" style="fill:white;fill-opacity:1;"/>
<rect width="1193" height="8" transform="matrix(1 0 0 -1 180 217)" fill="white" style="fill:white;fill-opacity:1;"/>
<rect width="1191" height="8" transform="matrix(1 0 0 -1 169 206)" fill="white" style="fill:white;fill-opacity:1;"/>
<rect width="1196" height="8" transform="matrix(1 0 0 -1 158 195)" fill="white" style="fill:white;fill-opacity:1;"/>
<rect width="1194" height="8" transform="matrix(1 0 0 -1 147 184)" fill="white" style="fill:white;fill-opacity:1;"/>
<rect width="1193" height="8" transform="matrix(1 0 0 -1 136 173)" fill="white" style="fill:white;fill-opacity:1;"/>
<rect width="1196" height="8" transform="matrix(1 0 0 -1 126 162)" fill="white" style="fill:white;fill-opacity:1;"/>
<rect width="1197" height="8" transform="matrix(1 0 0 -1 114 151)" fill="white" style="fill:white;fill-opacity:1;"/>
<rect width="1194" height="8" transform="matrix(1 0 0 -1 102 140)" fill="white" style="fill:white;fill-opacity:1;"/>
<rect width="1194" height="8" transform="matrix(1 0 0 -1 91 129)" fill="white" style="fill:white;fill-opacity:1;"/>
<rect width="1197" height="8" transform="matrix(1 0 0 -1 81 118)" fill="white" style="fill:white;fill-opacity:1;"/>
<rect width="1193" height="8" transform="matrix(1 0 0 -1 71 107)" fill="white" style="fill:white;fill-opacity:1;"/>
<rect width="1194" height="8" transform="matrix(1 0 0 -1 59 96)" fill="white" style="fill:white;fill-opacity:1;"/>
<rect width="1198" height="8" transform="matrix(1 0 0 -1 48 85)" fill="white" style="fill:white;fill-opacity:1;"/>
<rect width="1196" height="8" transform="matrix(1 0 0 -1 37 74)" fill="white" style="fill:white;fill-opacity:1;"/>
<rect width="1195" height="8" transform="matrix(1 0 0 -1 26 63)" fill="white" style="fill:white;fill-opacity:1;"/>
<rect width="1194" height="8" transform="matrix(1 0 0 -1 15 52)" fill="white" style="fill:white;fill-opacity:1;"/>
<rect width="1195" height="8" transform="matrix(1 0 0 -1 1 41)" fill="white" style="fill:white;fill-opacity:1;"/>
<rect width="1189" height="8" transform="matrix(1 0 0 -1 1 30)" fill="white" style="fill:white;fill-opacity:1;"/>
<rect width="1175" height="8" transform="matrix(1 0 0 -1 1 19)" fill="white" style="fill:white;fill-opacity:1;"/>
<rect width="1149" height="8" transform="matrix(1 0 0 -1 15 8)" fill="white" style="fill:white;fill-opacity:1;"/>
</g>
</svg>
