<svg width="162" height="33" viewBox="0 0 162 33" fill="none" xmlns="http://www.w3.org/2000/svg">
<g clip-path="url(#clip0_111_1213)">
<path d="M16.9438 18.6611H9.31905L-9.15527e-05 32.4945H7.62466L16.9438 18.6611Z" fill="white"/>
<path d="M33.8879 4.82788H26.2631L16.944 18.6613H24.5687L33.8879 4.82788Z" fill="white"/>
<path d="M9.31856 9.15102C6.97909 9.15102 5.08258 7.21557 5.08258 4.82808C5.08258 2.44058 6.97909 0.505127 9.31856 0.505127C11.658 0.505127 13.5545 2.44058 13.5545 4.82808C13.5545 7.21557 11.658 9.15102 9.31856 9.15102Z" fill="white"/>
<path d="M156.953 26.2709C155.67 26.2709 154.724 25.9265 154.118 25.2376C153.51 24.5487 153.207 23.6566 153.207 22.5614V15.2747H149.304L151.127 12.5985H151.958C152.496 12.5985 152.877 12.4926 153.103 12.2806C153.328 12.0509 153.441 11.6535 153.441 11.0883V7.77612H156.537V12.5985H162V15.2747H156.537V23.5947H162V26.2709H156.953Z" fill="white"/>
<path d="M134.861 26.2711V12.5987H138.191V15.01H138.321C138.616 14.268 139.067 13.6321 139.673 13.1022C140.298 12.5546 141.157 12.2808 142.249 12.2808C143.567 12.2808 144.634 12.7312 145.449 13.6321C146.282 14.5153 146.698 15.7872 146.698 17.4476V26.2711H143.368V17.9246C143.368 15.9461 142.527 14.957 140.845 14.957C140.498 14.957 140.168 15.0011 139.856 15.0895C139.544 15.1777 139.257 15.319 138.997 15.5134C138.755 15.69 138.556 15.9109 138.399 16.1758C138.26 16.4407 138.191 16.7588 138.191 17.1297V26.2711H134.861Z" fill="white"/>
<path d="M125.706 26.589C124.631 26.589 123.677 26.4213 122.845 26.0857C122.012 25.75 121.31 25.2731 120.738 24.6548C120.183 24.0366 119.757 23.2946 119.463 22.4291C119.168 21.5458 119.02 20.5566 119.02 19.4615C119.02 18.3485 119.168 17.3505 119.463 16.4672C119.775 15.5841 120.208 14.8333 120.764 14.2151C121.319 13.5967 121.986 13.1198 122.767 12.7842C123.564 12.4485 124.458 12.2808 125.446 12.2808C126.418 12.2808 127.294 12.4485 128.074 12.7842C128.854 13.1022 129.513 13.5615 130.051 14.1621C130.605 14.7627 131.031 15.4869 131.325 16.3348C131.62 17.1827 131.768 18.1189 131.768 19.1434V20.2563H122.35V20.6008C122.35 21.59 122.654 22.3937 123.261 23.0121C123.868 23.6127 124.718 23.913 125.81 23.913C126.642 23.913 127.354 23.7451 127.944 23.4095C128.551 23.0562 129.053 22.5969 129.452 22.0316L131.352 23.9659C130.866 24.6901 130.155 25.3084 129.218 25.8207C128.299 26.333 127.128 26.589 125.706 26.589ZM125.472 14.7714C124.535 14.7714 123.781 15.0717 123.209 15.6723C122.636 16.2729 122.35 17.0678 122.35 18.0571V18.2425H128.438V18.0041C128.438 17.0148 128.169 16.2288 127.632 15.6458C127.111 15.063 126.391 14.7714 125.472 14.7714Z" fill="white"/>
<path d="M105.383 23.5946H109.806V15.2746H105.383L107.206 12.5984H113.136V23.5946H117.245V26.2708H105.383V23.5946Z" fill="white"/>
<path d="M108.799 8.60603C108.799 7.38654 109.77 6.39795 110.967 6.39795C112.165 6.39795 113.136 7.38654 113.136 8.60603C113.136 9.82551 112.165 10.8141 110.967 10.8141C109.77 10.8141 108.799 9.82551 108.799 8.60603Z" fill="white"/>
<path d="M98.1655 23.8597H97.9834C97.6192 24.69 97.1162 25.3523 96.4746 25.8469C95.8502 26.3416 95.0177 26.5889 93.977 26.5889C93.2139 26.5889 92.5115 26.4475 91.8698 26.165C91.2455 25.8647 90.7079 25.423 90.2569 24.8401C89.8059 24.2395 89.4591 23.4888 89.2163 22.5879C88.9735 21.687 88.8521 20.6359 88.8521 19.4347C88.8521 17.0323 89.3203 15.2394 90.2569 14.0558C91.1935 12.8722 92.4335 12.2805 93.977 12.2805C95.0177 12.2805 95.8502 12.5278 96.4746 13.0224C97.1162 13.5171 97.6192 14.1795 97.9834 15.0097H98.1655V6.39795H101.495V26.2709H98.1655V23.8597ZM95.3819 23.8862C95.7635 23.8862 96.119 23.8421 96.4485 23.7537C96.7954 23.6477 97.0903 23.5064 97.3331 23.3297C97.5932 23.1354 97.7926 22.8969 97.9313 22.6144C98.0875 22.3141 98.1655 21.9696 98.1655 21.5809V17.2885C98.1655 16.8998 98.0875 16.5642 97.9313 16.2816C97.7926 15.9813 97.5932 15.7428 97.3331 15.5662C97.0903 15.3718 96.7954 15.2305 96.4485 15.1422C96.119 15.0362 95.7635 14.9832 95.3819 14.9832C94.4107 14.9832 93.6562 15.2835 93.1185 15.8841C92.5983 16.4847 92.3381 17.3061 92.3381 18.3483V20.521C92.3381 21.5633 92.5983 22.3847 93.1185 22.9853C93.6562 23.5859 94.4107 23.8862 95.3819 23.8862Z" fill="white"/>
<path d="M84.4385 26.2711C83.6234 26.2711 82.9904 26.068 82.5394 25.6617C82.1058 25.2377 81.8456 24.6548 81.759 23.913H81.6288C81.3861 24.7608 80.9091 25.4232 80.198 25.9002C79.4869 26.3595 78.6111 26.589 77.5704 26.589C76.2177 26.589 75.1424 26.227 74.3446 25.5027C73.5468 24.7785 73.1479 23.7716 73.1479 22.4821C73.1479 19.7264 75.1338 18.3485 79.1054 18.3485H81.4727V17.4476C81.4727 16.5821 81.2647 15.9285 80.8484 15.4869C80.4322 15.0452 79.7557 14.8244 78.8193 14.8244C77.9694 14.8244 77.2843 14.9922 76.764 15.3279C76.2438 15.6636 75.8015 16.0963 75.4372 16.6262L73.5382 14.9835C73.9544 14.2238 74.6221 13.588 75.5413 13.0756C76.4779 12.5457 77.6832 12.2808 79.1574 12.2808C80.9265 12.2808 82.3053 12.7047 83.2938 13.5526C84.2997 14.3829 84.8027 15.6282 84.8027 17.2887V23.7274H86.3896V26.2711H84.4385ZM78.6892 24.2574C79.4869 24.2574 80.146 24.0719 80.6663 23.7009C81.2039 23.3124 81.4727 22.7912 81.4727 22.1377V20.3094H79.1835C77.3624 20.3094 76.4518 20.8922 76.4518 22.0581V22.5881C76.4518 23.1357 76.6513 23.5508 77.0502 23.8334C77.449 24.116 77.9954 24.2574 78.6892 24.2574Z" fill="white"/>
<path d="M57.8571 23.5949H61.1871V15.2748H57.8571L59.6771 12.5986H64.517V16.3346H64.7251C64.8465 15.8578 65.0113 15.3985 65.2194 14.9569C65.4449 14.4976 65.7224 14.1001 66.0519 13.7645C66.3987 13.4112 66.815 13.1286 67.3006 12.9166C67.7863 12.7046 68.3672 12.5986 69.0436 12.5986H70.5005V15.7783H67.7428C66.7369 15.7783 65.9479 16.0786 65.3755 16.6792C64.8031 17.2798 64.517 18.0482 64.517 18.9843V23.5949H69.1737V26.271H57.8571V23.5949Z" fill="white"/>
<path d="M50.6272 23.5517H50.3966C50.2236 23.9434 50.0122 24.3259 49.7625 24.699C49.5126 25.0721 49.2051 25.3985 48.84 25.6784C48.4749 25.9583 48.0424 26.1821 47.5429 26.35C47.0624 26.5179 46.5051 26.6019 45.8709 26.6019C43.8339 26.6019 42.287 25.7344 41.23 23.9994C40.1923 22.2458 39.6734 19.7925 39.6734 16.6398C39.6734 13.3192 40.2884 10.782 41.5183 9.02838C42.7482 7.27476 44.641 6.39795 47.1969 6.39795C48.1962 6.39795 49.0706 6.52854 49.8201 6.78972C50.5888 7.0509 51.2421 7.41468 51.7802 7.88106C52.3375 8.34746 52.7891 8.90711 53.135 9.56006C53.5001 10.1943 53.7884 10.8846 53.9998 11.6308L50.5407 12.5823C50.4062 12.1718 50.2524 11.7708 50.0795 11.379C49.9258 10.9872 49.7144 10.6514 49.4453 10.3716C49.1955 10.0731 48.8881 9.83989 48.5229 9.67199C48.1577 9.48544 47.7062 9.39215 47.1681 9.39215C45.919 9.39215 45.0254 9.8772 44.4873 10.8473C43.9492 11.8174 43.6802 13.1419 43.6802 14.8209V17.9551C43.6802 18.7945 43.7378 19.5688 43.8531 20.2776C43.9877 20.9679 44.1991 21.5649 44.4873 22.0685C44.7756 22.5723 45.1503 22.9641 45.6115 23.2438C46.0727 23.505 46.6492 23.6356 47.3411 23.6356C48.4172 23.6356 49.2339 23.3278 49.7912 22.7122C50.3485 22.0779 50.6272 21.2757 50.6272 20.3056V18.7106H46.9056L48.7036 16.0522H53.9998V26.266H50.6272V23.5517Z" fill="white"/>
</g>
<defs>
<clipPath id="clip0_111_1213">
<rect width="162" height="33" fill="white"/>
</clipPath>
</defs>
</svg>
