<svg width="1440" height="598" viewBox="0 0 1440 598" fill="none" xmlns="http://www.w3.org/2000/svg">
<g style="mix-blend-mode:screen" filter="url(#filter0_f_111_116)">
<path d="M572.11 301.147C388.499 400.342 966.587 228.593 476.001 340.523C-14.585 452.454 761.459 213.68 388.499 329.297C359.171 338.388 334.527 345.973 313.907 352.268M313.907 352.268C72.2999 426.028 383.167 322.695 186.24 390.624C-27.4952 464.35 431.533 286.401 160.419 378.895C-110.694 471.388 292.39 241.862 313.907 352.268ZM431.533 345.215C388.499 471.388 519.035 252.722 589.323 354.431C659.612 456.14 308.169 213.345 531.945 335.497C755.721 457.648 467.394 224.436 716.991 352.268C966.587 480.101 448.746 275.175 760.024 365.155C1071.3 455.134 47.0968 238.479 589.323 335.497C1131.55 432.514 358.375 187.708 817.403 329.297C1276.43 470.885 82.9584 221.388 716.991 329.297C979.395 373.957 981.11 363.884 930.187 345.215M930.187 345.215C355.864 223.064 1513.12 464.853 988.104 345.215C961.104 339.062 937.84 333.786 917.915 329.297M930.187 345.215C864.397 321.095 710.745 282.624 917.915 329.297M1163.11 378.895C1521.72 460.161 912.632 86.5718 1209.57 207.215C1506.5 327.859 397.305 229.096 917.915 329.297M1163.11 365.155C1198.12 418.594 1067.98 399.746 969.389 380.598M969.389 380.598C882.189 363.663 819.667 346.494 917.915 378.895C1127.25 447.929 851.83 262.44 1022.53 365.155C1159.09 447.326 1044 409.689 969.389 380.598Z" stroke="url(#paint0_linear_111_116)" stroke-width="20"/>
</g>
<defs>
<filter id="filter0_f_111_116" x="-115.1" y="0.900024" width="1577.2" height="596.2" filterUnits="userSpaceOnUse" color-interpolation-filters="sRGB">
<feFlood flood-opacity="0" result="BackgroundImageFix"/>
<feBlend mode="normal" in="SourceGraphic" in2="BackgroundImageFix" result="shape"/>
<feGaussianBlur stdDeviation="86.05" result="effect1_foregroundBlur_111_116"/>
</filter>
<linearGradient id="paint0_linear_111_116" x1="67" y1="345.327" x2="1264.62" y2="345.327" gradientUnits="userSpaceOnUse">
<stop stop-color="#4E00EE"/>
<stop offset="0.5" stop-color="#5791FF"/>
<stop offset="1" stop-color="#00B790"/>
</linearGradient>
</defs>
</svg>
