<svg width="40" height="238" viewBox="0 0 40 238" fill="none"
    xmlns="http://www.w3.org/2000/svg">
    <circle opacity="0.35" cx="38.4957" cy="1.60666" r="1.5" transform="rotate(90.163 38.4957 1.60666)" fill="#D2D6DB"/>
    <circle opacity="0.31" cx="38.4701" cy="10.6066" r="1.5" transform="rotate(90.163 38.4701 10.6066)" fill="#D2D6DB"/>
    <circle opacity="0.51" cx="38.4445" cy="19.6066" r="1.5" transform="rotate(90.163 38.4445 19.6066)" fill="#D2D6DB"/>
    <circle opacity="0.71" cx="38.4188" cy="28.6066" r="1.5" transform="rotate(90.163 38.4188 28.6066)" fill="#D2D6DB"/>
    <circle opacity="0.66" cx="38.3934" cy="37.6065" r="1.5" transform="rotate(90.163 38.3934 37.6065)" fill="#D2D6DB"/>
    <circle opacity="0.68" cx="38.3678" cy="46.6065" r="1.5" transform="rotate(90.163 38.3678 46.6065)" fill="#D2D6DB"/>
    <circle opacity="0.11" cx="38.3422" cy="55.6064" r="1.5" transform="rotate(90.163 38.3422 55.6064)" fill="#D2D6DB"/>
    <circle opacity="0.62" cx="38.3165" cy="64.6064" r="1.5" transform="rotate(90.163 38.3165 64.6064)" fill="#D2D6DB"/>
    <circle opacity="0.06" cx="38.2909" cy="73.6064" r="1.5" transform="rotate(90.163 38.2909 73.6064)" fill="#D2D6DB"/>
    <circle opacity="0.54" cx="38.2653" cy="82.6063" r="1.5" transform="rotate(90.163 38.2653 82.6063)" fill="#D2D6DB"/>
    <circle opacity="0.64" cx="38.2396" cy="91.6063" r="1.5" transform="rotate(90.163 38.2396 91.6063)" fill="#D2D6DB"/>
    <circle opacity="0.16" cx="38.2142" cy="100.606" r="1.5" transform="rotate(90.163 38.2142 100.606)" fill="#D2D6DB"/>
    <circle opacity="0.55" cx="38.1886" cy="109.606" r="1.5" transform="rotate(90.163 38.1886 109.606)" fill="#D2D6DB"/>
    <circle opacity="0.45" cx="38.163" cy="118.606" r="1.5" transform="rotate(90.163 38.163 118.606)" fill="#D2D6DB"/>
    <circle opacity="0.26" cx="38.1373" cy="127.606" r="1.5" transform="rotate(90.163 38.1373 127.606)" fill="#D2D6DB"/>
    <circle opacity="0.54" cx="38.1117" cy="136.606" r="1.5" transform="rotate(90.163 38.1117 136.606)" fill="#D2D6DB"/>
    <circle opacity="0.25" cx="38.0861" cy="145.606" r="1.5" transform="rotate(90.163 38.0861 145.606)" fill="#D2D6DB"/>
    <circle opacity="0.22" cx="38.0604" cy="154.606" r="1.5" transform="rotate(90.163 38.0604 154.606)" fill="#D2D6DB"/>
    <circle opacity="0.22" cx="38.035" cy="163.606" r="1.5" transform="rotate(90.163 38.035 163.606)" fill="#D2D6DB"/>
    <circle opacity="0.13" cx="38.0094" cy="172.606" r="1.5" transform="rotate(90.163 38.0094 172.606)" fill="#D2D6DB"/>
    <circle opacity="0.6" cx="37.9838" cy="181.606" r="1.5" transform="rotate(90.163 37.9838 181.606)" fill="#D2D6DB"/>
    <circle opacity="0.63" cx="37.9581" cy="190.606" r="1.5" transform="rotate(90.163 37.9581 190.606)" fill="#D2D6DB"/>
    <circle opacity="0.33" cx="37.9325" cy="199.606" r="1.5" transform="rotate(90.163 37.9325 199.606)" fill="#D2D6DB"/>
    <circle opacity="0.5" cx="37.9069" cy="208.606" r="1.5" transform="rotate(90.163 37.9069 208.606)" fill="#D2D6DB"/>
    <circle opacity="0.74" cx="37.8812" cy="217.606" r="1.5" transform="rotate(90.163 37.8812 217.606)" fill="#D2D6DB"/>
    <circle opacity="0.62" cx="37.8556" cy="226.606" r="1.5" transform="rotate(90.163 37.8556 226.606)" fill="#D2D6DB"/>
    <circle opacity="0.47" cx="37.8302" cy="235.606" r="1.5" transform="rotate(90.163 37.8302 235.606)" fill="#D2D6DB"/>
    <circle opacity="0.54" cx="29.4957" cy="1.58105" r="1.5" transform="rotate(90.163 29.4957 1.58105)" fill="#D2D6DB"/>
    <circle opacity="0.36" cx="29.4701" cy="10.581" r="1.5" transform="rotate(90.163 29.4701 10.581)" fill="#D2D6DB"/>
    <circle opacity="0.72" cx="29.4445" cy="19.581" r="1.5" transform="rotate(90.163 29.4445 19.581)" fill="#D2D6DB"/>
    <circle opacity="0.29" cx="29.4191" cy="28.5809" r="1.5" transform="rotate(90.163 29.4191 28.5809)" fill="#D2D6DB"/>
    <circle opacity="0.61" cx="29.3934" cy="37.5809" r="1.5" transform="rotate(90.163 29.3934 37.5809)" fill="#D2D6DB"/>
    <circle opacity="0.5" cx="29.3678" cy="46.5809" r="1.5" transform="rotate(90.163 29.3678 46.5809)" fill="#D2D6DB"/>
    <circle opacity="0.26" cx="29.3422" cy="55.5808" r="1.5" transform="rotate(90.163 29.3422 55.5808)" fill="#D2D6DB"/>
    <circle opacity="0.74" cx="29.3165" cy="64.5808" r="1.5" transform="rotate(90.163 29.3165 64.5808)" fill="#D2D6DB"/>
    <circle opacity="0.29" cx="29.2909" cy="73.5808" r="1.5" transform="rotate(90.163 29.2909 73.5808)" fill="#D2D6DB"/>
    <circle opacity="0.28" cx="29.2653" cy="82.5807" r="1.5" transform="rotate(90.163 29.2653 82.5807)" fill="#D2D6DB"/>
    <circle opacity="0.22" cx="29.2399" cy="91.5807" r="1.5" transform="rotate(90.163 29.2399 91.5807)" fill="#D2D6DB"/>
    <circle opacity="0.44" cx="29.2142" cy="100.581" r="1.5" transform="rotate(90.163 29.2142 100.581)" fill="#D2D6DB"/>
    <circle opacity="0.37" cx="29.1886" cy="109.581" r="1.5" transform="rotate(90.163 29.1886 109.581)" fill="#D2D6DB"/>
    <circle opacity="0.37" cx="29.163" cy="118.581" r="1.5" transform="rotate(90.163 29.163 118.581)" fill="#D2D6DB"/>
    <circle opacity="0.09" cx="29.1373" cy="127.581" r="1.5" transform="rotate(90.163 29.1373 127.581)" fill="#D2D6DB"/>
    <circle opacity="0.59" cx="29.1117" cy="136.581" r="1.5" transform="rotate(90.163 29.1117 136.581)" fill="#D2D6DB"/>
    <circle opacity="0.16" cx="29.0861" cy="145.58" r="1.5" transform="rotate(90.163 29.0861 145.58)" fill="#D2D6DB"/>
    <circle opacity="0.6" cx="29.0607" cy="154.58" r="1.5" transform="rotate(90.163 29.0607 154.58)" fill="#D2D6DB"/>
    <circle opacity="0.35" cx="29.035" cy="163.58" r="1.5" transform="rotate(90.163 29.035 163.58)" fill="#D2D6DB"/>
    <circle opacity="0.28" cx="29.0094" cy="172.58" r="1.5" transform="rotate(90.163 29.0094 172.58)" fill="#D2D6DB"/>
    <circle opacity="0.22" cx="28.9838" cy="181.58" r="1.5" transform="rotate(90.163 28.9838 181.58)" fill="#D2D6DB"/>
    <circle opacity="0.63" cx="28.9581" cy="190.58" r="1.5" transform="rotate(90.163 28.9581 190.58)" fill="#D2D6DB"/>
    <circle opacity="0.21" cx="28.9325" cy="199.58" r="1.5" transform="rotate(90.163 28.9325 199.58)" fill="#D2D6DB"/>
    <circle opacity="0.63" cx="28.9069" cy="208.58" r="1.5" transform="rotate(90.163 28.9069 208.58)" fill="#D2D6DB"/>
    <circle opacity="0.54" cx="28.8812" cy="217.58" r="1.5" transform="rotate(90.163 28.8812 217.58)" fill="#D2D6DB"/>
    <circle opacity="0.56" cx="28.8558" cy="226.58" r="1.5" transform="rotate(90.163 28.8558 226.58)" fill="#D2D6DB"/>
    <circle opacity="0.1" cx="28.8302" cy="235.58" r="1.5" transform="rotate(90.163 28.8302 235.58)" fill="#D2D6DB"/>
    <circle opacity="0.58" cx="20.4957" cy="1.55545" r="1.5" transform="rotate(90.163 20.4957 1.55545)" fill="#D2D6DB"/>
    <circle opacity="0.11" cx="20.4701" cy="10.5554" r="1.5" transform="rotate(90.163 20.4701 10.5554)" fill="#D2D6DB"/>
    <circle opacity="0.27" cx="20.4447" cy="19.5554" r="1.5" transform="rotate(90.163 20.4447 19.5554)" fill="#D2D6DB"/>
    <circle opacity="0.63" cx="20.4191" cy="28.5553" r="1.5" transform="rotate(90.163 20.4191 28.5553)" fill="#D2D6DB"/>
    <circle opacity="0.58" cx="20.3934" cy="37.5553" r="1.5" transform="rotate(90.163 20.3934 37.5553)" fill="#D2D6DB"/>
    <circle opacity="0.35" cx="20.3678" cy="46.5553" r="1.5" transform="rotate(90.163 20.3678 46.5553)" fill="#D2D6DB"/>
    <circle opacity="0.54" cx="20.3422" cy="55.5552" r="1.5" transform="rotate(90.163 20.3422 55.5552)" fill="#D2D6DB"/>
    <circle opacity="0.13" cx="20.3165" cy="64.5552" r="1.5" transform="rotate(90.163 20.3165 64.5552)" fill="#D2D6DB"/>
    <circle opacity="0.46" cx="20.2909" cy="73.5552" r="1.5" transform="rotate(90.163 20.2909 73.5552)" fill="#D2D6DB"/>
    <circle opacity="0.24" cx="20.2655" cy="82.5551" r="1.5" transform="rotate(90.163 20.2655 82.5551)" fill="#D2D6DB"/>
    <circle opacity="0.35" cx="20.2399" cy="91.5551" r="1.5" transform="rotate(90.163 20.2399 91.5551)" fill="#D2D6DB"/>
    <circle opacity="0.12" cx="20.2142" cy="100.555" r="1.5" transform="rotate(90.163 20.2142 100.555)" fill="#D2D6DB"/>
    <circle opacity="0.58" cx="20.1886" cy="109.555" r="1.5" transform="rotate(90.163 20.1886 109.555)" fill="#D2D6DB"/>
    <circle opacity="0.05" cx="20.163" cy="118.555" r="1.5" transform="rotate(90.163 20.163 118.555)" fill="#D2D6DB"/>
    <circle opacity="0.31" cx="20.1373" cy="127.555" r="1.5" transform="rotate(90.163 20.1373 127.555)" fill="#D2D6DB"/>
    <circle opacity="0.35" cx="20.1117" cy="136.555" r="1.5" transform="rotate(90.163 20.1117 136.555)" fill="#D2D6DB"/>
    <circle opacity="0.5" cx="20.0863" cy="145.555" r="1.5" transform="rotate(90.163 20.0863 145.555)" fill="#D2D6DB"/>
    <circle opacity="0.17" cx="20.0607" cy="154.555" r="1.5" transform="rotate(90.163 20.0607 154.555)" fill="#D2D6DB"/>
    <circle opacity="0.05" cx="20.035" cy="163.555" r="1.5" transform="rotate(90.163 20.035 163.555)" fill="#D2D6DB"/>
    <circle opacity="0.27" cx="20.0094" cy="172.555" r="1.5" transform="rotate(90.163 20.0094 172.555)" fill="#D2D6DB"/>
    <circle opacity="0.6" cx="19.9838" cy="181.555" r="1.5" transform="rotate(90.163 19.9838 181.555)" fill="#D2D6DB"/>
    <circle opacity="0.52" cx="19.9581" cy="190.555" r="1.5" transform="rotate(90.163 19.9581 190.555)" fill="#D2D6DB"/>
    <circle opacity="0.28" cx="19.9325" cy="199.555" r="1.5" transform="rotate(90.163 19.9325 199.555)" fill="#D2D6DB"/>
    <circle opacity="0.07" cx="19.9071" cy="208.555" r="1.5" transform="rotate(90.163 19.9071 208.555)" fill="#D2D6DB"/>
    <circle opacity="0.41" cx="19.8815" cy="217.555" r="1.5" transform="rotate(90.163 19.8815 217.555)" fill="#D2D6DB"/>
    <circle opacity="0.62" cx="19.8558" cy="226.555" r="1.5" transform="rotate(90.163 19.8558 226.555)" fill="#D2D6DB"/>
    <circle opacity="0.17" cx="19.8302" cy="235.555" r="1.5" transform="rotate(90.163 19.8302 235.555)" fill="#D2D6DB"/>
    <circle opacity="0.74" cx="11.4957" cy="1.52986" r="1.5" transform="rotate(90.163 11.4957 1.52986)" fill="#D2D6DB"/>
    <circle opacity="0.33" cx="11.4703" cy="10.5298" r="1.5" transform="rotate(90.163 11.4703 10.5298)" fill="#D2D6DB"/>
    <circle opacity="0.43" cx="11.4447" cy="19.5298" r="1.5" transform="rotate(90.163 11.4447 19.5298)" fill="#D2D6DB"/>
    <circle opacity="0.44" cx="11.4191" cy="28.5298" r="1.5" transform="rotate(90.163 11.4191 28.5298)" fill="#D2D6DB"/>
    <circle opacity="0.39" cx="11.3934" cy="37.5297" r="1.5" transform="rotate(90.163 11.3934 37.5297)" fill="#D2D6DB"/>
    <circle opacity="0.72" cx="11.3678" cy="46.5297" r="1.5" transform="rotate(90.163 11.3678 46.5297)" fill="#D2D6DB"/>
    <circle opacity="0.71" cx="11.3422" cy="55.5296" r="1.5" transform="rotate(90.163 11.3422 55.5296)" fill="#D2D6DB"/>
    <circle opacity="0.74" cx="11.3165" cy="64.5296" r="1.5" transform="rotate(90.163 11.3165 64.5296)" fill="#D2D6DB"/>
    <circle opacity="0.06" cx="11.2911" cy="73.5296" r="1.5" transform="rotate(90.163 11.2911 73.5296)" fill="#D2D6DB"/>
    <circle opacity="0.46" cx="11.2655" cy="82.5295" r="1.5" transform="rotate(90.163 11.2655 82.5295)" fill="#D2D6DB"/>
    <circle opacity="0.23" cx="11.2399" cy="91.5295" r="1.5" transform="rotate(90.163 11.2399 91.5295)" fill="#D2D6DB"/>
    <circle opacity="0.68" cx="11.2142" cy="100.529" r="1.5" transform="rotate(90.163 11.2142 100.529)" fill="#D2D6DB"/>
    <circle opacity="0.45" cx="11.1886" cy="109.529" r="1.5" transform="rotate(90.163 11.1886 109.529)" fill="#D2D6DB"/>
    <circle opacity="0.58" cx="11.163" cy="118.529" r="1.5" transform="rotate(90.163 11.163 118.529)" fill="#D2D6DB"/>
    <circle opacity="0.36" cx="11.1373" cy="127.529" r="1.5" transform="rotate(90.163 11.1373 127.529)" fill="#D2D6DB"/>
    <circle opacity="0.21" cx="11.1119" cy="136.529" r="1.5" transform="rotate(90.163 11.1119 136.529)" fill="#D2D6DB"/>
    <circle opacity="0.47" cx="11.0863" cy="145.529" r="1.5" transform="rotate(90.163 11.0863 145.529)" fill="#D2D6DB"/>
    <circle opacity="0.69" cx="11.0607" cy="154.529" r="1.5" transform="rotate(90.163 11.0607 154.529)" fill="#D2D6DB"/>
    <circle opacity="0.43" cx="11.035" cy="163.529" r="1.5" transform="rotate(90.163 11.035 163.529)" fill="#D2D6DB"/>
    <circle opacity="0.73" cx="11.0094" cy="172.529" r="1.5" transform="rotate(90.163 11.0094 172.529)" fill="#D2D6DB"/>
    <circle opacity="0.22" cx="10.9838" cy="181.529" r="1.5" transform="rotate(90.163 10.9838 181.529)" fill="#D2D6DB"/>
    <circle opacity="0.5" cx="10.9581" cy="190.529" r="1.5" transform="rotate(90.163 10.9581 190.529)" fill="#D2D6DB"/>
    <circle opacity="0.51" cx="10.9328" cy="199.529" r="1.5" transform="rotate(90.163 10.9328 199.529)" fill="#D2D6DB"/>
    <circle opacity="0.72" cx="10.9071" cy="208.529" r="1.5" transform="rotate(90.163 10.9071 208.529)" fill="#D2D6DB"/>
    <circle opacity="0.75" cx="10.8815" cy="217.529" r="1.5" transform="rotate(90.163 10.8815 217.529)" fill="#D2D6DB"/>
    <circle opacity="0.5" cx="10.8558" cy="226.529" r="1.5" transform="rotate(90.163 10.8558 226.529)" fill="#D2D6DB"/>
    <circle opacity="0.43" cx="10.8302" cy="235.529" r="1.5" transform="rotate(90.163 10.8302 235.529)" fill="#D2D6DB"/>
    <circle opacity="0.34" cx="2.49598" cy="1.50426" r="1.5" transform="rotate(90.163 2.49598 1.50426)" fill="#D2D6DB"/>
    <circle opacity="0.55" cx="2.47035" cy="10.5042" r="1.5" transform="rotate(90.163 2.47035 10.5042)" fill="#D2D6DB"/>
    <circle opacity="0.12" cx="2.44471" cy="19.5042" r="1.5" transform="rotate(90.163 2.44471 19.5042)" fill="#D2D6DB"/>
    <circle opacity="0.22" cx="2.41908" cy="28.5042" r="1.5" transform="rotate(90.163 2.41908 28.5042)" fill="#D2D6DB"/>
    <circle opacity="0.52" cx="2.39344" cy="37.5041" r="1.5" transform="rotate(90.163 2.39344 37.5041)" fill="#D2D6DB"/>
    <circle opacity="0.53" cx="2.36781" cy="46.5041" r="1.5" transform="rotate(90.163 2.36781 46.5041)" fill="#D2D6DB"/>
    <circle opacity="0.71" cx="2.34217" cy="55.504" r="1.5" transform="rotate(90.163 2.34217 55.504)" fill="#D2D6DB"/>
    <circle opacity="0.74" cx="2.31678" cy="64.504" r="1.5" transform="rotate(90.163 2.31678 64.504)" fill="#D2D6DB"/>
    <circle opacity="0.1" cx="2.29115" cy="73.504" r="1.5" transform="rotate(90.163 2.29115 73.504)" fill="#D2D6DB"/>
    <circle opacity="0.14" cx="2.26551" cy="82.5039" r="1.5" transform="rotate(90.163 2.26551 82.5039)" fill="#D2D6DB"/>
    <circle opacity="0.72" cx="2.23988" cy="91.5039" r="1.5" transform="rotate(90.163 2.23988 91.5039)" fill="#D2D6DB"/>
    <circle opacity="0.06" cx="2.21425" cy="100.504" r="1.5" transform="rotate(90.163 2.21425 100.504)" fill="#D2D6DB"/>
    <circle opacity="0.45" cx="2.18861" cy="109.504" r="1.5" transform="rotate(90.163 2.18861 109.504)" fill="#D2D6DB"/>
    <circle opacity="0.37" cx="2.16298" cy="118.504" r="1.5" transform="rotate(90.163 2.16298 118.504)" fill="#D2D6DB"/>
    <circle opacity="0.06" cx="2.13758" cy="127.504" r="1.5" transform="rotate(90.163 2.13758 127.504)" fill="#D2D6DB"/>
    <circle opacity="0.22" cx="2.11195" cy="136.504" r="1.5" transform="rotate(90.163 2.11195 136.504)" fill="#D2D6DB"/>
    <circle opacity="0.51" cx="2.08632" cy="145.504" r="1.5" transform="rotate(90.163 2.08632 145.504)" fill="#D2D6DB"/>
    <circle opacity="0.66" cx="2.06068" cy="154.504" r="1.5" transform="rotate(90.163 2.06068 154.504)" fill="#D2D6DB"/>
    <circle opacity="0.26" cx="2.03505" cy="163.504" r="1.5" transform="rotate(90.163 2.03505 163.504)" fill="#D2D6DB"/>
    <circle opacity="0.15" cx="2.00941" cy="172.504" r="1.5" transform="rotate(90.163 2.00941 172.504)" fill="#D2D6DB"/>
    <circle opacity="0.47" cx="1.98378" cy="181.504" r="1.5" transform="rotate(90.163 1.98378 181.504)" fill="#D2D6DB"/>
    <circle opacity="0.47" cx="1.95839" cy="190.503" r="1.5" transform="rotate(90.163 1.95839 190.503)" fill="#D2D6DB"/>
    <circle opacity="0.19" cx="1.93275" cy="199.503" r="1.5" transform="rotate(90.163 1.93275 199.503)" fill="#D2D6DB"/>
    <circle opacity="0.73" cx="1.90712" cy="208.503" r="1.5" transform="rotate(90.163 1.90712 208.503)" fill="#D2D6DB"/>
    <circle opacity="0.25" cx="1.88148" cy="217.503" r="1.5" transform="rotate(90.163 1.88148 217.503)" fill="#D2D6DB"/>
    <circle opacity="0.12" cx="1.85585" cy="226.503" r="1.5" transform="rotate(90.163 1.85585 226.503)" fill="#D2D6DB"/>
    <circle opacity="0.08" cx="1.83021" cy="235.503" r="1.5" transform="rotate(90.163 1.83021 235.503)" fill="#D2D6DB"/>
</svg>
