<svg width="50" height="18" viewBox="0 0 50 18" fill="none" xmlns="http://www.w3.org/2000/svg">
<g clip-path="url(#clip0_21_1502)">
<path d="M50 0H0V18H50V0Z" fill="black" fill-opacity="0.01"/>
<path d="M4.17174 6.36407H0V17.9992H4.17174V6.36407Z" fill="white"/>
<path d="M0 0.000854492V3.63682L4.0242 6.44995L4.17174 6.36412V0.000854492H0Z" fill="white"/>
<path d="M28.4688 0L4.17163 0.000825629L10.24 4.24278H28.4688C29.1774 4.24278 29.7578 4.83311 29.7578 5.55371V8.71971L33.9296 11.6367V5.55371C33.9296 2.49983 31.4732 0 28.4688 0Z" fill="white"/>
<path d="M15.7026 18H40.0002L33.9315 13.7572H15.7026C14.9957 13.7572 14.4136 13.1652 14.4136 12.4463V9.28029L10.2419 6.36328V12.4446C10.2403 15.5051 12.6934 18 15.7026 18Z" fill="white"/>
<path d="M47.0382 5.47727L45.4174 1.81818H46.0737L47.2072 4.50284L48.3407 1.81818H48.997L47.3763 5.47727H47.0382ZM45.2981 5.47727V1.81818H45.9345V5.47727H45.2981ZM48.4799 5.47727V1.81818H49.1163V5.47727H48.4799ZM42.9118 5.47727V2.13636H43.5481V5.47727H42.9118ZM41.7981 2.375V1.81818H44.6618V2.375H41.7981Z" fill="white"/>
</g>
<defs>
<clipPath id="clip0_21_1502">
<rect width="50" height="18" fill="white"/>
</clipPath>
</defs>
</svg>
