<svg width="137" height="21" viewBox="0 0 137 21" fill="none" xmlns="http://www.w3.org/2000/svg">
<g clip-path="url(#clip0_25_1177)">
<path fill-rule="evenodd" clip-rule="evenodd" d="M6.54226 1.22597C8.537 0.548211 10.758 0.548211 12.7527 1.22597H12.7538C13.1388 1.3577 13.3448 1.77651 13.2142 2.16156C13.0825 2.5466 12.6638 2.75262 12.2788 2.62203C10.5902 2.04784 8.70584 2.04784 7.01732 2.62203C6.93848 2.64905 6.85858 2.66143 6.77978 2.66143C6.47247 2.66143 6.18655 2.46891 6.08186 2.16156C5.95015 1.77538 6.15728 1.35657 6.54226 1.22597ZM17.8501 6.79777C17.465 6.92837 17.2579 7.34719 17.3896 7.73332C17.6767 8.57775 17.8219 9.46264 17.8219 10.3645C17.8219 11.2662 17.6767 12.1512 17.3896 12.9956C17.259 13.3806 17.465 13.7995 17.8501 13.9312C17.9288 13.9582 18.0088 13.9706 18.0875 13.9706C18.3948 13.9706 18.6808 13.7769 18.7855 13.4707C19.1243 12.4732 19.2965 11.4284 19.2965 10.3645C19.2965 9.30055 19.1243 8.25688 18.7855 7.25937C18.6549 6.87433 18.235 6.6683 17.8501 6.7989V6.79777ZM1.47466 10.3645C1.47466 11.2651 1.61987 12.1512 1.90692 12.9956V12.9934C2.03862 13.3795 1.8315 13.7983 1.44651 13.9289C1.36771 13.9559 1.28779 13.9683 1.20899 13.9683C0.901679 13.9683 0.615753 13.7758 0.511063 13.4685C0.172231 12.4709 0 11.4002 0 10.3634C0 9.32646 0.164351 8.30526 0.487424 7.32805C0.615753 6.94188 1.03338 6.73247 1.41949 6.85969C1.8056 6.98804 2.01611 7.40573 1.88778 7.7919C1.61311 8.61938 1.47466 9.46381 1.47466 10.3645ZM7.01629 18.107C8.70598 18.6812 10.5893 18.68 12.2778 18.107H12.2755C12.6616 17.9753 13.0804 18.1813 13.211 18.5675C13.3427 18.9536 13.1356 19.3724 12.7505 19.503C11.7532 19.8419 10.7085 20.0142 9.64593 20.0142C8.58324 20.0142 7.53861 19.8419 6.54126 19.503C6.15627 19.3713 5.95027 18.9525 6.08085 18.5675C6.21256 18.1824 6.63131 17.9764 7.01629 18.107ZM15.8543 15.5288C15.5662 15.2406 15.1002 15.2406 14.812 15.5288C14.5237 15.8171 14.5237 16.2831 14.812 16.5713L16.4228 18.1825C16.5669 18.3266 16.7549 18.3987 16.944 18.3987C17.1331 18.3987 17.3211 18.3266 17.4652 18.1825C17.7534 17.8943 17.7534 17.4281 17.4652 17.1399L15.8543 15.5288ZM1.8299 2.54671C2.11807 2.25849 2.58411 2.25849 2.87228 2.54671L4.48314 4.1578C4.77132 4.44602 4.77132 4.91212 4.48314 5.20034C4.33906 5.34445 4.15107 5.4165 3.96195 5.4165C3.77284 5.4165 3.58485 5.34445 3.44076 5.20034L1.8299 3.58925C1.54172 3.30103 1.54172 2.83493 1.8299 2.54671ZM3.44247 15.5288L1.83161 17.1399C1.54343 17.4281 1.54343 17.8943 1.83161 18.1825C1.9757 18.3266 2.16369 18.3987 2.35281 18.3987C2.54192 18.3987 2.72991 18.3266 2.874 18.1825L4.48486 16.5713C4.77304 16.2831 4.77304 15.8171 4.48486 15.5288C4.19669 15.2406 3.73065 15.2406 3.44247 15.5288ZM15.8755 5.17895C15.7314 5.32306 15.5434 5.39511 15.3543 5.39511C15.1652 5.39511 14.9771 5.32306 14.8331 5.17895C14.5449 4.89073 14.5449 4.42463 14.8331 4.13641L16.4225 2.54671C16.7107 2.25849 17.1767 2.25849 17.465 2.54671C17.7531 2.83493 17.7531 3.30103 17.465 3.58925L15.8755 5.17895Z" fill="white"/>
</g>
<g clip-path="url(#clip1_25_1177)">
<path fill-rule="evenodd" clip-rule="evenodd" d="M83.3408 1.81173C83.3408 1.20849 83.8314 0.717651 84.4346 0.717651C85.0378 0.717651 85.5284 1.20849 85.5284 1.81173V18.4431C85.5284 19.0463 85.0378 19.5371 84.4346 19.5371C83.8314 19.5371 83.3408 19.0463 83.3408 18.4431V1.81173ZM71.134 0.719758C70.5308 0.719758 70.0399 1.2106 70.0399 1.81384V11.2721C70.0399 14.0283 68.2216 16.4838 65.516 17.383C65.2386 17.4754 65.0138 17.6697 64.8828 17.931C64.7518 18.1924 64.7305 18.489 64.8229 18.7664C64.9719 19.2147 65.3889 19.5153 65.8611 19.5153C65.9782 19.5153 66.0946 19.4967 66.2063 19.4594C69.8085 18.2622 72.2288 14.9721 72.2288 11.2721V1.81384C72.2288 1.2106 71.7379 0.719758 71.1347 0.719758H71.134ZM56.642 11.2702C56.642 14.0124 58.4331 16.4706 61.0995 17.3878C61.3755 17.4829 61.5983 17.6797 61.7267 17.9424C61.8543 18.2052 61.873 18.5018 61.7779 18.7784C61.6263 19.2201 61.2105 19.5167 60.7436 19.5167C60.6226 19.5167 60.5029 19.4961 60.3878 19.4569C56.8382 18.2357 54.4538 14.9462 54.4538 11.2702V1.84052C54.4538 1.23728 54.9447 0.746445 55.548 0.746445C56.1512 0.746445 56.642 1.23728 56.642 1.84052V11.2702ZM35.1067 17.214C35.2783 17.2812 35.4552 17.3431 35.6322 17.3976V17.3969C36.2088 17.5752 36.5327 18.1884 36.3551 18.765C36.2128 19.2266 35.7924 19.5365 35.3096 19.5365C35.2005 19.5365 35.0921 19.5206 34.987 19.488C34.7582 19.4175 34.5301 19.3377 34.3086 19.2512C30.5482 17.7781 28.1179 14.1905 28.1179 10.1767C28.1179 6.16284 30.6366 2.50416 34.3858 1.07289C34.5686 1.00305 34.7569 0.937872 34.9444 0.878678C35.5204 0.698438 36.1356 1.02034 36.3159 1.59565C36.4961 2.17096 36.1748 2.78616 35.5989 2.9664C35.4539 3.0123 35.3083 3.06284 35.1666 3.11672C32.2595 4.22676 30.3061 7.04344 30.3061 10.1767C30.3061 13.3099 32.1903 16.0721 35.1067 17.214ZM43.8043 4.99084C43.5236 4.99084 43.2562 4.88443 43.0521 4.69089H43.0527C42.2719 3.9513 41.3641 3.39728 40.3551 3.04412C40.0791 2.94768 39.8576 2.74948 39.7306 2.4861C39.6036 2.22273 39.5869 1.92609 39.6834 1.65008C39.7798 1.37473 39.978 1.15326 40.2414 1.02622C40.5054 0.899191 40.802 0.882564 41.0774 0.979003C42.3797 1.43459 43.5502 2.1489 44.5565 3.10198C44.7687 3.30284 44.8897 3.57486 44.8977 3.86684C44.9057 4.15881 44.7993 4.43682 44.5984 4.64898C44.3929 4.86647 44.1036 4.99084 43.8043 4.99084ZM43.201 15.5186C42.4581 16.2622 41.5875 16.8322 40.6145 17.2133C40.3424 17.3197 40.1283 17.5259 40.0112 17.7939C39.8942 18.0619 39.8888 18.3592 39.9952 18.6312C40.1608 19.0536 40.5605 19.3263 41.0142 19.3263C41.1512 19.3263 41.2855 19.301 41.4132 19.2504C42.6682 18.7583 43.7909 18.0233 44.7487 17.0656C45.175 16.6393 45.175 15.9449 44.7487 15.5179C44.3223 15.0916 43.628 15.0916 43.2016 15.5179L43.201 15.5186ZM91.5655 0.717651H89.2439C88.6407 0.717651 88.15 1.20849 88.15 1.81173C88.15 2.41497 88.6407 2.90581 89.2439 2.90581H91.5655C95.486 2.90581 98.6749 6.09493 98.6749 10.015V10.2398C98.6749 14.1598 95.486 17.349 91.5655 17.349H89.2439C88.6407 17.349 88.15 17.8398 88.15 18.4431C88.15 19.0463 88.6407 19.5371 89.2439 19.5371H91.5655C96.6923 19.5371 100.863 15.3663 100.863 10.2398V10.015C100.863 4.88845 96.6923 0.717651 91.5655 0.717651ZM133.938 15.7895C134.232 15.2627 134.899 15.0725 135.427 15.3658L135.427 15.3651C135.954 15.6584 136.144 16.3262 135.851 16.8529C134.859 18.636 132.735 19.6184 129.874 19.6184C126.56 19.6184 124.307 18.1645 123.531 15.5248C123.449 15.2441 123.481 14.9488 123.62 14.692C123.76 14.436 123.992 14.2491 124.272 14.1666C124.851 13.997 125.46 14.3289 125.631 14.9076C126.109 16.5344 127.616 17.4302 129.874 17.4302C130.848 17.4302 131.733 17.2832 132.433 17.0046C133.14 16.7226 133.647 16.3142 133.938 15.7895ZM125.864 9.66193C127.001 10.3643 128.43 10.7453 129.577 11.0506L130.111 11.193L130.116 11.1943C131.466 11.5531 132.997 11.9595 133.743 12.8224C133.951 13.0632 134.253 13.2009 134.571 13.2009C134.834 13.2009 135.088 13.1064 135.287 12.9342C135.743 12.5398 135.793 11.8474 135.398 11.3912C134.21 10.0171 132.331 9.51825 130.673 9.07862L130.141 8.93693C127.608 8.26188 125.947 7.69853 125.947 6.08304C125.947 5.25035 126.26 4.4968 126.827 3.96073C127.549 3.27834 128.649 2.9325 130.096 2.9325C133.054 2.9325 133.789 5.07543 133.818 5.16521C134 5.73786 134.614 6.05777 135.188 5.87886C135.763 5.69862 136.085 5.08341 135.905 4.50611C135.872 4.40435 135.564 3.48319 134.707 2.58266C133.909 1.74397 132.461 0.744338 130.096 0.744338C128.02 0.744338 126.33 1.34226 125.209 2.47358C124.274 3.41735 123.759 4.69899 123.759 6.08304C123.759 7.59411 124.467 8.7986 125.865 9.66193H125.864ZM110.3 1.81173C110.3 1.20849 110.791 0.717651 111.394 0.717651C111.997 0.717651 112.488 1.20849 112.488 1.81173V18.4431C112.488 19.0463 111.997 19.5371 111.394 19.5371C110.791 19.5371 110.3 19.0463 110.3 18.4431V1.81173Z" fill="white"/>
</g>
<defs>
<clipPath id="clip0_25_1177">
<rect width="19.2965" height="19.2965" fill="white" transform="translate(0 0.717651)"/>
</clipPath>
<clipPath id="clip1_25_1177">
<rect width="108.061" height="19.2965" fill="white" transform="translate(28.1179 0.717651)"/>
</clipPath>
</defs>
</svg>
