<svg width="177" height="36" viewBox="0 0 177 36" fill="none" xmlns="http://www.w3.org/2000/svg">
<g clip-path="url(#clip0_25_1121)">
<path d="M18.5127 20.3577H10.182L0 35.4486H8.33075L18.5127 20.3577Z" fill="white"/>
<path d="M37.0257 5.26685H28.695L18.5129 20.3579H26.8437L37.0257 5.26685Z" fill="white"/>
<path d="M10.1814 9.98279C7.62529 9.98279 5.55318 7.87139 5.55318 5.26685C5.55318 2.6623 7.62529 0.550903 10.1814 0.550903C12.7375 0.550903 14.8096 2.6623 14.8096 5.26685C14.8096 7.87139 12.7375 9.98279 10.1814 9.98279Z" fill="white"/>
<path d="M171.485 28.6593C170.084 28.6593 169.05 28.2836 168.388 27.5321C167.724 26.7805 167.393 25.8073 167.393 24.6126V16.6634H163.129L165.12 13.744H166.028C166.616 13.744 167.033 13.6284 167.279 13.3971C167.525 13.1466 167.649 12.713 167.649 12.0964V8.48315H171.031V13.744H177V16.6634H171.031V25.7398H177V28.6593H171.485Z" fill="white"/>
<path d="M147.348 28.6595V13.7442H150.987V16.3747H151.128C151.451 15.5652 151.944 14.8715 152.606 14.2934C153.289 13.696 154.227 13.3973 155.42 13.3973C156.861 13.3973 158.026 13.8887 158.916 14.8715C159.827 15.835 160.281 17.2226 160.281 19.0339V28.6595H156.643V19.5542C156.643 17.3959 155.724 16.3168 153.886 16.3168C153.507 16.3168 153.147 16.365 152.805 16.4614C152.465 16.5577 152.151 16.7118 151.867 16.9239C151.603 17.1165 151.385 17.3575 151.213 17.6465C151.062 17.9355 150.987 18.2824 150.987 18.6871V28.6595H147.348Z" fill="white"/>
<path d="M137.345 29.0064C136.17 29.0064 135.128 28.8233 134.219 28.4573C133.31 28.0911 132.542 27.5708 131.917 26.8963C131.311 26.2219 130.846 25.4125 130.524 24.4682C130.202 23.5047 130.041 22.4256 130.041 21.2308C130.041 20.0167 130.202 18.928 130.524 17.9644C130.865 17.0009 131.338 16.1819 131.946 15.5075C132.552 14.833 133.281 14.3126 134.134 13.9466C135.006 13.5804 135.981 13.3973 137.061 13.3973C138.123 13.3973 139.08 13.5804 139.933 13.9466C140.785 14.2934 141.505 14.7945 142.092 15.4497C142.698 16.1049 143.163 16.895 143.485 17.8199C143.807 18.7449 143.968 19.7662 143.968 20.8839V22.098H133.679V22.4737C133.679 23.5528 134.011 24.4297 134.674 25.1042C135.337 25.7594 136.266 26.087 137.459 26.087C138.369 26.087 139.146 25.9039 139.79 25.5378C140.454 25.1524 141.003 24.6513 141.438 24.0347L143.514 26.1447C142.983 26.9348 142.206 27.6094 141.183 28.1681C140.178 28.727 138.9 29.0064 137.345 29.0064ZM137.09 16.1144C136.067 16.1144 135.242 16.442 134.617 17.0972C133.991 17.7524 133.679 18.6196 133.679 19.6988V19.9011H140.33V19.641C140.33 18.5618 140.037 17.7043 139.449 17.0683C138.881 16.4325 138.094 16.1144 137.09 16.1144Z" fill="white"/>
<path d="M115.141 25.7396H119.973V16.6633H115.141L117.132 13.7438H123.611V25.7396H128.101V28.6591H115.141V25.7396Z" fill="white"/>
<path d="M118.873 9.38843C118.873 8.05807 119.934 6.97961 121.242 6.97961C122.55 6.97961 123.611 8.05807 123.611 9.38843C123.611 10.7188 122.55 11.7972 121.242 11.7972C119.934 11.7972 118.873 10.7188 118.873 9.38843Z" fill="white"/>
<path d="M107.255 26.0288H107.056C106.658 26.9345 106.108 27.6571 105.407 28.1967C104.725 28.7363 103.816 29.0061 102.679 29.0061C101.845 29.0061 101.077 28.8519 100.376 28.5436C99.6942 28.216 99.1068 27.7342 98.614 27.0983C98.1213 26.4431 97.7424 25.6241 97.477 24.6413C97.2117 23.6585 97.0791 22.5119 97.0791 21.2015C97.0791 18.5807 97.5907 16.6248 98.614 15.3336C99.6373 14.0425 100.992 13.397 102.679 13.397C103.816 13.397 104.725 13.6667 105.407 14.2063C106.108 14.7459 106.658 15.4685 107.056 16.3743H107.255V6.97961H110.893V28.6592H107.255V26.0288ZM104.214 26.0577C104.63 26.0577 105.019 26.0096 105.379 25.9131C105.758 25.7975 106.08 25.6434 106.345 25.4507C106.63 25.2387 106.848 24.9785 106.999 24.6702C107.17 24.3426 107.255 23.9669 107.255 23.5429V18.8602C107.255 18.4362 107.17 18.0701 106.999 17.7617C106.848 17.4341 106.63 17.174 106.345 16.9813C106.08 16.7693 105.758 16.6151 105.379 16.5188C105.019 16.4032 104.63 16.3454 104.214 16.3454C103.152 16.3454 102.328 16.673 101.741 17.3282C101.172 17.9834 100.888 18.8794 100.888 20.0163V22.3866C100.888 23.5236 101.172 24.4197 101.741 25.0749C102.328 25.7301 103.152 26.0577 104.214 26.0577Z" fill="white"/>
<path d="M92.2569 28.6595C91.3663 28.6595 90.6746 28.4379 90.1819 27.9948C89.7082 27.5322 89.4239 26.8963 89.3292 26.087H89.1871C88.9218 27.012 88.4006 27.7346 87.6237 28.2549C86.8468 28.756 85.8899 29.0064 84.7529 29.0064C83.2749 29.0064 82.1 28.6114 81.2284 27.8213C80.3567 27.0312 79.9209 25.9328 79.9209 24.5261C79.9209 21.5198 82.0906 20.0167 86.43 20.0167H89.0165V19.0339C89.0165 18.0897 88.7892 17.3767 88.3344 16.895C87.8796 16.4131 87.1405 16.1723 86.1173 16.1723C85.1887 16.1723 84.4403 16.3553 83.8718 16.7215C83.3034 17.0877 82.8202 17.5597 82.4221 18.1379L80.3472 16.3457C80.802 15.5171 81.5316 14.8234 82.5359 14.2645C83.5591 13.6864 84.8761 13.3973 86.4868 13.3973C88.4197 13.3973 89.9262 13.8598 91.0062 14.7848C92.1052 15.6905 92.6548 17.0491 92.6548 18.8606V25.8846H94.3886V28.6595H92.2569ZM85.9752 26.4628C86.8468 26.4628 87.567 26.2604 88.1354 25.8557C88.7228 25.4318 89.0165 24.8632 89.0165 24.1503V22.1558H86.5153C84.5256 22.1558 83.5307 22.7917 83.5307 24.0636V24.6417C83.5307 25.2391 83.7486 25.6919 84.1845 26.0003C84.6202 26.3085 85.2172 26.4628 85.9752 26.4628Z" fill="white"/>
<path d="M63.2141 25.7398H66.8525V16.6634H63.2141L65.2026 13.7439H70.4907V17.8195H70.718C70.8507 17.2993 71.0308 16.7983 71.2581 16.3165C71.5045 15.8155 71.8077 15.3819 72.1677 15.0157C72.5467 14.6303 73.0014 14.322 73.532 14.0907C74.0627 13.8595 74.6974 13.7439 75.4364 13.7439H77.0282V17.2126H74.0152C72.9161 17.2126 72.054 17.5402 71.4287 18.1954C70.8033 18.8506 70.4907 19.6888 70.4907 20.7101V25.7398H75.5786V28.6593H63.2141V25.7398Z" fill="white"/>
<path d="M55.315 25.6928H55.063C54.874 26.1201 54.6431 26.5374 54.3702 26.9444C54.0971 27.3515 53.7612 27.7075 53.3622 28.0128C52.9633 28.3182 52.4909 28.5623 51.945 28.7454C51.4201 28.9287 50.8112 29.0203 50.1183 29.0203C47.8926 29.0203 46.2025 28.0739 45.0477 26.1812C43.9139 24.2682 43.3469 21.5919 43.3469 18.1526C43.3469 14.5301 44.0189 11.7622 45.3626 9.84917C46.7064 7.93613 48.7745 6.97961 51.567 6.97961C52.6589 6.97961 53.6143 7.12207 54.4331 7.407C55.273 7.69192 55.9868 8.08877 56.5747 8.59756C57.1837 9.10635 57.6771 9.71688 58.055 10.4292C58.4539 11.1211 58.7688 11.8742 58.9998 12.6882L55.2204 13.7261C55.0735 13.2784 54.9055 12.8409 54.7165 12.4135C54.5486 11.9861 54.3176 11.6198 54.0237 11.3145C53.7507 10.9889 53.4148 10.7345 53.0158 10.5513C52.6169 10.3478 52.1235 10.246 51.5356 10.246C50.1708 10.246 49.1944 10.7752 48.6066 11.8334C48.0186 12.8917 47.7247 14.3367 47.7247 16.1683V19.5874C47.7247 20.5031 47.7876 21.3478 47.9136 22.1211C48.0607 22.8741 48.2916 23.5253 48.6066 24.0748C48.9215 24.6243 49.331 25.0517 49.8349 25.3569C50.3388 25.6419 50.9687 25.7843 51.7246 25.7843C52.9004 25.7843 53.7927 25.4485 54.4016 24.777C55.0104 24.085 55.315 23.2099 55.315 22.1516V20.4116H51.2488L53.2132 17.5115H58.9998V28.6539H55.315V25.6928Z" fill="white"/>
</g>
<defs>
<clipPath id="clip0_25_1121">
<rect width="177" height="36" fill="white"/>
</clipPath>
</defs>
</svg>
