<svg width="139" height="33" viewBox="0 0 139 33" fill="none" xmlns="http://www.w3.org/2000/svg">
<path d="M30.308 24.2612L25.0345 21.9421L23.4627 22.6331L28.6709 24.9244L15.3677 30.7758L2.06437 24.9244L7.27262 22.6331L5.70074 21.9421L0.428572 24.2612C0.264365 24.3347 0.132748 24.4666 0.0600463 24.634C-0.0978933 25.0004 0.0663137 25.4264 0.428572 25.5874L15.0818 32.0336C15.1733 32.0742 15.2699 32.0945 15.3677 32.0945C15.4654 32.0945 15.562 32.0742 15.6535 32.0336L30.3067 25.5874C30.4709 25.5139 30.6025 25.382 30.6753 25.2147C30.8332 24.8483 30.669 24.4222 30.3067 24.2612H30.308Z" fill="white"/>
<path d="M30.308 16.0067L24.8904 13.6243L22.5326 14.6614L27.099 16.6698L15.3677 21.8303L3.63625 16.6686L8.2027 14.6602L5.84489 13.623L0.428572 16.0067C0.264365 16.0803 0.132748 16.2122 0.0600463 16.3795C-0.0978933 16.7459 0.0663137 17.172 0.428572 17.333L15.0818 23.7792C15.1733 23.8198 15.2699 23.84 15.3677 23.84C15.4654 23.84 15.562 23.8198 15.6535 23.7792L30.3067 17.333C30.4709 17.2595 30.6025 17.1276 30.6753 16.9602C30.8332 16.5937 30.669 16.1678 30.3067 16.0067H30.308Z" fill="white"/>
<path d="M15.3694 3.36558L25.5289 7.83505L15.3694 12.3045L5.20861 7.83505L15.3694 3.36558ZM15.3694 0.666138C15.2716 0.666138 15.1751 0.686425 15.0836 0.726999L0.429061 7.17192C0.264853 7.24546 0.133237 7.37733 0.0605346 7.54469C-0.0974051 7.91113 0.0668022 8.33715 0.429061 8.49818L15.0823 14.9444C15.1738 14.985 15.2704 15.0053 15.3681 15.0053C15.4659 15.0053 15.5625 14.985 15.654 14.9444L30.3072 8.49818C30.4714 8.42463 30.603 8.29277 30.6757 8.1254C30.8337 7.75897 30.6695 7.33295 30.3072 7.17192L15.6552 0.726999C15.5637 0.686425 15.4671 0.666138 15.3694 0.666138Z" fill="white"/>
<path d="M74.7003 19.5752H74.61L72.1631 12.6307H68.3789L72.2835 22.1795L73.5583 21.7092L72.6433 23.6947L70.5988 28.5839H74.383L80.91 12.6307H77.1258L74.7003 19.5752Z" fill="white"/>
<path d="M50.395 14.2119L48.1513 13.8454C46.2936 13.5474 45.7496 13.0657 45.7496 12.2174C45.7496 11.1625 46.4979 10.5437 48.219 10.5437C49.94 10.5437 50.7572 11.1625 50.8249 12.5382H54.4738C54.3385 9.19212 52.2076 7.28894 48.1964 7.28894C44.1852 7.28894 42.0555 9.21493 42.0555 12.1946C42.0555 14.7393 43.5059 16.3204 46.6107 16.8251L48.8544 17.1915C50.3499 17.4439 50.9616 18.0854 50.9616 18.9565C50.9616 20.0114 50.1456 20.6758 48.4007 20.6758C46.6559 20.6758 45.7947 20.0571 45.6355 18.6585H41.9866C42.1684 22.0046 44.3883 23.9306 48.422 23.9306C52.4557 23.9306 54.6544 22.1428 54.6544 18.8196C54.6544 16.2748 53.3169 14.6937 50.3937 14.2119H50.395Z" fill="white"/>
<path d="M92.1136 7.58691H79.5374V11.0256H82.8716L83.9685 9.91611V11.0256H83.9785V23.6326H87.6725V11.0256H92.1136V7.58691Z" fill="white"/>
<path d="M63.4914 12.6308L59.5491 16.5271V7.58691H56.1045V23.6326H59.5491V20.5845L60.6359 19.5296L63.6956 23.6326H67.7068L62.9022 17.3298L67.7068 12.6308H63.4914Z" fill="white"/>
<path d="M138.083 18.1309C138.083 14.6923 135.681 12.3314 132.305 12.3314C128.928 12.3314 126.436 14.8292 126.436 18.1765C126.436 21.5239 128.814 23.9305 132.396 23.9305C135.409 23.9305 137.381 22.234 137.88 20.0341H134.617C134.367 20.7682 133.643 21.226 132.441 21.226C130.99 21.226 130.13 20.5616 129.88 19.0945H137.993C138.06 18.7738 138.083 18.453 138.083 18.1321V18.1309ZM129.948 16.939C130.242 15.6331 131.104 15.0358 132.372 15.0358C133.573 15.0358 134.322 15.5633 134.593 16.939H129.948Z" fill="white"/>
<path d="M94.9653 13.8632V12.547H91.9319V23.5755H95.4268V15.9882H99.4312V12.547H96.2667L94.9653 13.8632Z" fill="white"/>
<path d="M121.594 13.843H121.526C120.892 12.7424 119.714 12.1921 118.332 12.1921C115.386 12.1921 113.233 14.6215 113.233 17.9917C113.233 21.3619 115.385 23.7912 118.377 23.7912C119.782 23.7912 120.96 23.2409 121.572 22.1404H121.663L121.798 23.4932H125.038V7.44751H121.593L121.594 13.843ZM119.215 20.629C117.697 20.629 116.745 19.5056 116.745 17.9929C116.745 16.4803 117.696 15.3797 119.215 15.3797C120.734 15.3797 121.708 16.4803 121.708 17.9929C121.708 19.5056 120.757 20.629 119.215 20.629Z" fill="white"/>
<path d="M108.752 13.9822H108.662C108.051 12.8817 106.873 12.3314 105.444 12.3314C102.477 12.3314 100.3 14.7607 100.3 18.1309C100.3 21.5011 102.477 23.9305 105.444 23.9305C106.873 23.9305 108.051 23.3802 108.662 22.2796H108.752L108.888 23.6325H112.083V12.6293H108.888L108.752 13.9822ZM106.304 20.767C104.786 20.767 103.834 19.6435 103.834 18.1309C103.834 16.6183 104.785 15.5177 106.304 15.5177C107.824 15.5177 108.798 16.6183 108.798 18.1309C108.798 19.6435 107.846 20.767 106.304 20.767Z" fill="white"/>
</svg>
