<svg width="170" height="43" viewBox="0 0 170 43" fill="none" xmlns="http://www.w3.org/2000/svg">
<path d="M53.6577 20.0488V28.7751H50.1201V16.2057C50.1201 14.8619 50.8433 14.0234 51.9685 14.0234C52.5082 14.0234 52.8941 14.2035 53.396 14.6657L62.2387 22.7713V14.0449H65.7736V26.7944C65.7736 28.1382 65.0315 28.9767 63.9252 28.9767C63.6554 28.9772 63.3887 28.9201 63.1429 28.8093C62.8972 28.6985 62.6781 28.5366 62.5004 28.3344L53.6577 20.0488Z" fill="white"/>
<path d="M75.6093 28.7751C71.3674 28.7751 68.2534 25.5743 68.2534 21.3495C68.2534 17.0657 71.3674 14.225 75.6093 14.225H79.2845C83.6479 14.225 86.662 17.1275 86.662 21.3495C86.662 25.5716 83.5669 28.7751 79.2845 28.7751H75.6093ZM79.2845 25.0744C81.4568 25.0744 82.9652 23.5909 82.9652 21.5296C82.9652 19.4683 81.4352 17.9068 79.2845 17.9068H75.6093C75.1279 17.8931 74.6487 17.9774 74.2011 18.1546C73.7536 18.3318 73.3471 18.5982 73.0065 18.9374C72.666 19.2765 72.3985 19.6814 72.2206 20.1272C72.0427 20.5729 71.958 21.0501 71.9718 21.5296C71.9718 23.6124 73.4775 25.0744 75.6093 25.0744H79.2845Z" fill="white"/>
<path d="M89.2016 28.7751V25.0744H100.314C101.177 25.0744 101.701 24.6713 101.701 23.951C101.701 23.2308 101.177 22.7712 100.314 22.7712H93.8024C90.8098 22.7712 88.9614 21.0485 88.9614 18.5277C88.9614 16.0659 90.6884 14.2277 93.8429 14.2277H104.475V17.9095H93.8429C93.7042 17.8981 93.5648 17.9172 93.4345 17.9657C93.3042 18.0141 93.1862 18.0906 93.089 18.1897C92.9918 18.2888 92.9178 18.4081 92.8723 18.539C92.8267 18.6699 92.8108 18.8092 92.8256 18.9469C92.8118 19.0852 92.8285 19.2247 92.8747 19.3559C92.9209 19.487 92.9953 19.6064 93.0928 19.7058C93.1903 19.8052 93.3084 19.8821 93.4389 19.9311C93.5694 19.9802 93.7092 20.0002 93.8483 19.9897H100.324C103.519 19.9897 105.23 21.3334 105.23 24.2897C105.23 26.8508 103.611 28.7724 100.324 28.7724L89.2016 28.7751Z" fill="white"/>
<path d="M110.303 16.8238C110.5 16.1155 110.885 15.4731 111.418 14.964C111.941 14.4722 112.659 14.225 113.576 14.225H117.937C118.748 14.1834 119.546 14.4472 120.171 14.964C120.73 15.4607 121.136 16.1058 121.34 16.8238L124.937 28.7751H120.924L119.945 25.2813L118.962 21.7876L117.837 17.716H113.789L110.702 28.7724H106.69L110.303 16.8238Z" fill="white"/>
<path d="M148.38 16.8238C148.577 16.1158 148.961 15.4734 149.492 14.964C150.016 14.4722 150.733 14.225 151.651 14.225H156.011C156.823 14.1834 157.62 14.4472 158.246 14.964C158.805 15.4607 159.21 16.1058 159.414 16.8238L163.003 28.7751H159.001L158.022 25.2813L157.039 21.7876L155.914 17.7187H151.867L148.78 28.7751H144.767L148.38 16.8238Z" fill="white"/>
<path d="M130.703 20.0488V28.7751H127.166V16.2057C127.166 14.8619 127.891 14.0234 129.017 14.0234C129.556 14.0234 129.939 14.2035 130.441 14.6657L139.284 22.7713V14.0449H142.822V26.7944C142.822 28.1382 142.077 28.9767 140.973 28.9767C140.703 28.9765 140.436 28.9191 140.19 28.8084C139.944 28.6977 139.724 28.5361 139.546 28.3344L130.703 20.0488Z" fill="white"/>
<path d="M15.9826 10.054C15.5039 9.10145 14.7163 8.33783 13.7474 7.88689C12.7784 7.43596 11.685 7.32416 10.6443 7.5696C9.60354 7.81504 8.67655 8.40334 8.01355 9.23914C7.35054 10.0749 6.99039 11.1093 6.99146 12.1744V35.5557H10.127V12.1744C10.1326 11.8157 10.2582 11.469 10.4838 11.1894C10.7095 10.9097 11.0223 10.713 11.3729 10.6303C11.7234 10.5477 12.0916 10.5838 12.4192 10.733C12.7468 10.8822 13.0151 11.136 13.1816 11.4542L23.7459 32.4328H20.238L14.7305 21.5001H11.2226L18.3059 35.5557H28.8297L15.9826 10.054Z" fill="white"/>
<path d="M35.8431 7.44446V30.8257C35.8364 31.1835 35.7104 31.529 35.4849 31.8076C35.2594 32.0862 34.9472 32.2823 34.5976 32.3648C34.2479 32.4473 33.8807 32.4116 33.5536 32.2634C33.2266 32.1151 32.9583 31.8627 32.7911 31.546L22.2269 10.5673H25.7348L31.2423 21.5001H34.7502L27.6696 7.44446H17.1458L29.9875 32.9461C30.4671 33.8978 31.255 34.6605 32.2239 35.1107C33.1927 35.561 34.2857 35.6725 35.3261 35.4272C36.3665 35.1819 37.2933 34.5942 37.9567 33.7591C38.62 32.9241 38.981 31.8905 38.9813 30.8257V7.44446H35.8431Z" fill="white"/>
</svg>
