<svg width="69" height="24" viewBox="0 0 69 24" fill="none" xmlns="http://www.w3.org/2000/svg">
<g clip-path="url(#clip0_25_1134)">
<path d="M69 0H0V24H69V0Z" fill="black" fill-opacity="0.01"/>
<path d="M5.757 8.48547H0V23.999H5.757V8.48547Z" fill="white"/>
<path d="M0 0.00109863V4.84905L5.5534 8.59989L5.757 8.48545V0.00109863H0Z" fill="white"/>
<path d="M39.2872 0L5.75708 0.00110084L14.1314 5.65704H39.2872C40.265 5.65704 41.066 6.44415 41.066 7.40495V11.6263L46.8231 15.5156V7.40495C46.8231 3.33311 43.4332 0 39.2872 0Z" fill="white"/>
<path d="M21.6696 24H55.2002L46.8254 18.3429H21.6696C20.694 18.3429 19.8907 17.5536 19.8907 16.5951V12.3737L14.1338 8.48438V16.5928C14.1316 20.6735 17.5169 24 21.6696 24Z" fill="white"/>
<path d="M64.9125 7.30298L62.6758 2.42419H63.5815L65.1457 6.00374L66.7099 2.42419H67.6156L65.3791 7.30298H64.9125ZM62.5112 7.30298V2.42419H63.3894V7.30298H62.5112ZM66.902 7.30298V2.42419H67.7803V7.30298H66.902ZM59.2181 7.30298V2.84843H60.0962V7.30298H59.2181ZM57.6812 3.16662V2.42419H61.6331V3.16662H57.6812Z" fill="white"/>
</g>
<defs>
<clipPath id="clip0_25_1134">
<rect width="69" height="24" fill="white"/>
</clipPath>
</defs>
</svg>
