<svg width="94" height="29" viewBox="0 0 94 29" fill="none" xmlns="http://www.w3.org/2000/svg">
<g clip-path="url(#clip0_25_1141)">
<path d="M40.6628 6.50891H42.5998L48.9965 14.8812C49.3437 15.3712 49.5879 15.8026 49.7289 16.1753H49.7615C49.7507 15.8878 49.7453 15.4084 49.7453 14.7374V6.50891H51.1776V17.853H49.3383L42.8439 9.36891C42.475 8.84698 42.2308 8.43155 42.1114 8.12264H42.0789C42.1006 8.65525 42.1114 9.11859 42.1114 9.51272V17.853H40.6628V6.50891Z" fill="white"/>
<path d="M59.7936 7.88299H59.8262L55.4153 17.853H53.7388L59.0124 6.50891H60.6238L65.8975 17.853H64.2209L59.7936 7.88299ZM59.7936 7.88299L60.64 9.64052C60.2711 8.94815 59.9998 8.36228 59.8262 7.88299H59.7936C59.696 8.17055 59.5875 8.44223 59.4681 8.69782C59.3596 8.94281 59.2023 9.25706 58.9961 9.64052L59.8262 7.88299H59.7936Z" fill="white"/>
<path d="M75.6077 7.81906H71.1971V17.853H69.6018V7.81906H65.1909V6.50891H75.6077V7.81906Z" fill="white"/>
<path d="M78.0032 17.853V6.50891H79.5978V17.853H78.0032Z" fill="white"/>
<path d="M86.9153 11.9093L82.3905 6.50891H84.3759L87.4847 10.3276C87.6908 10.6045 87.8372 10.8175 87.9244 10.9667H87.9567C88.0003 10.8708 88.0547 10.775 88.1198 10.6791C88.1957 10.5832 88.2877 10.4714 88.3965 10.3435L91.4723 6.50891H93.3932L88.9175 11.9732L93.8162 17.853H91.7979L88.4126 13.6509C88.2823 13.4805 88.1796 13.342 88.103 13.2355C88.0272 13.129 87.962 13.0171 87.9083 12.8999H87.8754C87.7781 13.0917 87.6042 13.342 87.3544 13.6509L83.9362 17.853H82.032L86.9153 11.9093Z" fill="white"/>
<path d="M40.6682 21.495H41.5107L44.2933 25.1369C44.4443 25.35 44.5505 25.5377 44.6119 25.6999H44.6261C44.6214 25.5748 44.619 25.3663 44.619 25.0743V21.495H45.2421V26.4296H44.442L41.6169 22.7391C41.4565 22.5121 41.3502 22.3313 41.2983 22.1969H41.2842C41.2936 22.4286 41.2983 22.6302 41.2983 22.8017V26.4296H40.6682V21.495ZM50.2078 24.8728H46.9367C46.9461 25.2203 47.0736 25.496 47.319 25.6999C47.5692 25.9037 47.9068 26.0056 48.3316 26.0056C48.6478 26.0056 48.9145 25.9478 49.1316 25.8319C49.3535 25.7161 49.5234 25.5447 49.6414 25.3176L50.1653 25.5539C49.8207 26.2073 49.2001 26.5339 48.3032 26.5339C47.6801 26.5339 47.1893 26.3764 46.8305 26.0613C46.4765 25.7462 46.2995 25.3037 46.2995 24.7338C46.2995 24.1407 46.4765 23.6797 46.8305 23.3507C47.1893 23.0171 47.6707 22.8503 48.2749 22.8503C48.8838 22.8503 49.3582 22.9962 49.6981 23.2881C50.0379 23.58 50.2078 23.9924 50.2078 24.5253V24.8728ZM49.5635 24.3446C49.5635 24.0203 49.4431 23.7677 49.2024 23.587C48.9664 23.4063 48.6549 23.316 48.2678 23.316C47.8713 23.316 47.5551 23.4132 47.319 23.6079C47.083 23.7978 46.9556 24.0596 46.9367 24.3932H49.5635V24.3446ZM50.5613 22.9546H51.4109V22.0441L52.0411 21.7869V22.9546H53.3014V23.455H52.0411V25.2481C52.0411 25.4844 52.0977 25.6582 52.211 25.7694C52.3243 25.8759 52.5013 25.9292 52.742 25.9292C52.9215 25.9292 53.1103 25.906 53.3085 25.8597V26.4088C53.1244 26.469 52.8955 26.4991 52.6217 26.4991C52.1638 26.4991 51.8476 26.3926 51.6729 26.1794C51.4983 25.9617 51.4109 25.6628 51.4109 25.2829V23.455H50.5613V22.9546ZM53.9018 22.9546H54.5532L55.4311 25.5192C55.4641 25.6211 55.4925 25.7392 55.516 25.8736H55.5302C55.535 25.818 55.5491 25.7531 55.5727 25.679C55.5963 25.6048 55.6129 25.5516 55.6223 25.5192L56.5711 22.9546H57.2508L58.1995 25.5192C58.2562 25.723 58.2868 25.8412 58.2915 25.8736H58.3057C58.3246 25.7624 58.3506 25.6443 58.3836 25.5192L59.2615 22.9546H59.92L58.6738 26.4296H57.9517L57.0029 23.865C56.9557 23.7399 56.9274 23.6264 56.918 23.5245H56.9038C56.885 23.631 56.8566 23.7446 56.8188 23.865L55.863 26.4296H55.1479L53.9018 22.9546ZM62.3259 26.5339C61.9248 26.5339 61.5707 26.4597 61.264 26.3115C60.9571 26.1585 60.7188 25.9431 60.5488 25.6651C60.3836 25.3871 60.301 25.0627 60.301 24.6921C60.301 24.3214 60.3836 23.9971 60.5488 23.7191C60.7188 23.441 60.9571 23.2279 61.264 23.0797C61.5707 22.9268 61.9248 22.8503 62.3259 22.8503C62.7272 22.8503 63.0788 22.9268 63.3809 23.0797C63.6877 23.2279 63.9237 23.441 64.089 23.7191C64.2589 23.9971 64.3439 24.3214 64.3439 24.6921C64.3439 25.0627 64.2589 25.3871 64.089 25.6651C63.9237 25.9431 63.6877 26.1585 63.3809 26.3115C63.0788 26.4597 62.7272 26.5339 62.3259 26.5339ZM62.3259 26.0056C62.7461 26.0056 63.0765 25.8921 63.3172 25.6651C63.5627 25.4334 63.6854 25.1091 63.6854 24.6921C63.6854 24.2751 63.5627 23.953 63.3172 23.726C63.0765 23.4944 62.7461 23.3785 62.3259 23.3785C61.9011 23.3785 61.5684 23.4944 61.3277 23.726C61.0869 23.953 60.9666 24.2751 60.9666 24.6921C60.9666 25.1091 61.0869 25.4334 61.3277 25.6651C61.5684 25.8921 61.9011 26.0056 62.3259 26.0056ZM65.9174 23.8372C66.0118 23.5453 66.1723 23.309 66.3989 23.1283C66.6254 22.9476 66.8921 22.8572 67.1987 22.8572C67.2934 22.8572 67.3833 22.8642 67.4679 22.8781V23.4758C67.3733 23.4666 67.3008 23.4619 67.2484 23.4619C67.0361 23.4619 66.8544 23.4897 66.7033 23.5453C66.557 23.6009 66.4296 23.6843 66.321 23.7955C66.1794 23.9391 66.0827 24.1129 66.0307 24.3168C65.9835 24.516 65.9599 24.75 65.9599 25.0187V26.4296H65.3368V22.9546H65.9174V23.8372ZM69.9173 24.6295L68.9545 25.3732V26.4296H68.3314V21.3907H68.9545V24.6991L71.0218 22.9546H71.886L70.392 24.2472L71.9853 26.4296H71.2065L69.9173 24.6295Z" fill="white"/>
<path d="M5.74888 22.5506C4.83636 21.9684 4.1976 21.0726 3.92384 20.0872L1.91629 11.8911L0 10.6371L2.37255 20.4455C2.73756 21.834 3.60446 23.0433 4.83636 23.8494L12.6384 28.9552V27.0741L5.74888 22.5506ZM28.6531 11.8016L26.6456 20.0872C26.3718 21.1173 25.7331 22.0131 24.8206 22.5954L17.8854 27.1189V29L25.6874 23.8942C26.9194 23.088 27.7863 21.8788 28.1513 20.4903L30.5694 10.5475L28.6531 11.8016ZM17.6573 0.47027C16.1516 -0.156757 14.4179 -0.156757 12.9122 0.47027L0.501886 5.71042L2.05317 6.74052L13.5509 1.90347C14.6459 1.41081 15.9235 1.41081 17.0185 1.90347L28.5162 6.78534L30.0676 5.75521L17.6573 0.47027Z" fill="white"/>
<path d="M13.825 13.9067C13.3231 13.9067 12.7756 13.7723 12.3193 13.4588L9.94678 11.8912L11.3612 10.9506L13.1862 12.1599C13.5513 12.3839 14.0532 12.3839 14.4182 12.1599L19.2089 9.02478L20.6233 9.96537L15.285 13.4588C14.8744 13.7723 14.3269 13.9067 13.825 13.9067Z" fill="white"/>
<path d="M16.7448 15.0262C17.2466 15.0262 17.7941 15.1606 18.2504 15.4741L20.623 17.0417L19.1629 17.9822L17.3379 16.773C16.9729 16.549 16.471 16.549 16.106 16.773L11.3152 19.9081L9.90088 18.9675L15.2391 15.4741C15.6954 15.1606 16.2429 15.0262 16.7448 15.0262Z" fill="white"/>
</g>
<defs>
<clipPath id="clip0_25_1141">
<rect width="94" height="29" fill="white"/>
</clipPath>
</defs>
</svg>
