<svg width="110" height="27" viewBox="0 0 110 27" fill="none" xmlns="http://www.w3.org/2000/svg">
<g clip-path="url(#clip0_129_1386)">
<mask id="mask0_129_1386" style="mask-type:luminance" maskUnits="userSpaceOnUse" x="0" y="0" width="110" height="27">
<path d="M110 0H0V27H110V0Z" fill="white"/>
</mask>
<g mask="url(#mask0_129_1386)">
<path d="M14.662 0.890687V4.91783C14.662 5.17002 14.4567 5.37492 14.204 5.37492H8.1008C6.348 5.37492 5.1163 6.52554 5.1163 8.18053V26.1096C5.1163 26.3618 4.91101 26.5667 4.65836 26.5667H0.45794C0.205284 26.5667 0 26.3618 0 26.1096V8.18053C0 3.68841 3.40297 0.433594 8.1008 0.433594H14.204C14.4567 0.433594 14.662 0.638497 14.662 0.890687Z" fill="white"/>
<path d="M27.9189 0C20.134 0 14.2676 5.80823 14.2676 13.5C14.2676 21.1918 20.134 27 27.9189 27C35.6802 27 41.5308 21.1918 41.5308 13.5C41.5308 5.80823 35.6802 0 27.9189 0ZM27.9189 22.0587C23.1816 22.0587 19.605 18.3783 19.605 13.5C19.605 8.62172 23.1816 4.94133 27.9189 4.94133C32.6326 4.94133 36.1855 8.62172 36.1855 13.5C36.1855 18.3783 32.6326 22.0587 27.9189 22.0587Z" fill="white"/>
<path d="M65.4144 0.890543V2.34851C65.4144 2.7268 64.9802 2.94746 64.6801 2.71103C62.4536 0.95359 59.6744 0 56.7136 0C49.0549 0 43.2754 5.80823 43.2754 13.5C43.2754 21.1918 49.0549 27 56.7136 27C59.7218 27 62.4931 26.007 64.6723 24.1944C64.9644 23.9501 65.4144 24.1629 65.4144 24.549V26.1095C65.4144 26.3616 65.6197 26.5666 65.8724 26.5666H70.0807C70.3333 26.5666 70.5386 26.3616 70.5386 26.1095V0.890543C70.5386 0.638354 70.3333 0.43345 70.0807 0.43345H65.8724C65.6197 0.43345 65.4144 0.638354 65.4144 0.890543ZM56.9346 22.0587C52.1894 22.0587 48.6207 18.3783 48.6207 13.5C48.6207 8.62172 52.1894 4.94133 56.9346 4.94133C61.6483 4.94133 65.2013 8.62172 65.2013 13.5C65.2013 18.3783 61.6483 22.0587 56.9346 22.0587Z" fill="white"/>
<path d="M110 10.1979V26.1095C110 26.3616 109.795 26.5665 109.542 26.5665H105.334C105.082 26.5665 104.876 26.3616 104.876 26.1095V10.2846C104.876 6.99037 102.894 4.94133 99.6968 4.94133C96.507 4.94133 94.5252 6.99037 94.5252 10.2846V26.1095C94.5252 26.3616 94.3199 26.5665 94.0673 26.5665H89.8589C89.6063 26.5665 89.401 26.3616 89.401 26.1095V10.2846C89.401 6.99037 87.4192 4.94133 84.2215 4.94133C81.0318 4.94133 79.05 6.99037 79.05 10.2846V26.1095C79.05 26.3616 78.8447 26.5665 78.592 26.5665H74.3837C74.1311 26.5665 73.9258 26.3616 73.9258 26.1095V10.1979C73.9258 4.28722 78.2604 0 84.2215 0C87.1587 0 89.7642 1.02452 91.6354 2.90018C91.817 3.08144 92.1013 3.08144 92.2829 2.90018C94.1541 1.02452 96.7596 0 99.6968 0C105.666 0 110 4.28722 110 10.1979Z" fill="white"/>
</g>
</g>
<defs>
<clipPath id="clip0_129_1386">
<rect width="110" height="27" fill="white"/>
</clipPath>
</defs>
</svg>
