<svg width="663" height="177" viewBox="0 0 663 177" fill="none" xmlns="http://www.w3.org/2000/svg">
<path d="M170.228 118.289H149.187L124.997 68.5583C123.477 65.4731 118.765 65.3005 117.137 68.6446L93.0776 118.267H85L111.252 64.4375C114.705 57.0373 127.364 57.3393 131.077 64.4375L153.79 111.191H158.654L135.572 63.855C134.573 62.0427 134.052 60.6619 132.38 59.1948C132.38 59.1948 140.74 58.267 143.606 63.7039L170.228 118.289Z" fill="#6D45FF"/>
<path d="M125.041 78.3749L105.976 118.267H97.8764L120.177 71.9887C121.154 70.0038 120.937 69.9823 121.892 71.9456L125.041 78.3749Z" fill="#6D45FF"/>
<path d="M561.977 70.8037C563.557 68.5656 566.071 67.1588 568.811 66.9989C568.972 66.9989 569.133 66.9989 569.326 66.9989C570.003 66.9989 570.648 67.0629 571.325 67.2227C575.192 68.086 578.029 71.4431 578.254 75.3757V75.4397C578.287 75.7274 578.287 75.9832 578.287 76.271V110.162H571.905V76.271C571.905 76.1431 571.905 75.9832 571.873 75.8553C571.873 74.6723 571.035 73.6492 569.874 73.3934C569.681 73.3615 569.487 73.3295 569.294 73.3295C568.52 73.3295 567.811 73.6492 567.328 74.2567L567.135 74.4805L554.177 102.712C553.275 104.695 551.825 108.212 549.955 109.459C549.085 110.034 548.086 110.194 547.054 110.194C546.023 110.194 545.024 110.034 544.154 109.459C542.284 108.244 540.834 104.695 539.931 102.712L526.974 74.4805L526.781 74.2567C526.297 73.6812 525.588 73.3295 524.815 73.3295C524.621 73.3295 524.428 73.3615 524.235 73.3934C523.074 73.6492 522.236 74.6723 522.236 75.8553C522.204 75.9832 522.204 76.1431 522.204 76.271V110.162H515.822V76.271C515.822 75.9832 515.822 75.7274 515.854 75.4397V75.3757C516.08 71.4431 518.884 68.118 522.784 67.2227C523.429 67.0629 524.106 66.9989 524.782 66.9989C524.944 66.9989 525.105 66.9989 525.298 66.9989C528.038 67.1588 530.584 68.5656 532.131 70.8037L532.518 71.3792L547.022 102.968L561.526 71.3792L561.977 70.8037Z" fill="black"/>
<path d="M492.551 66.9669V94.3355C492.551 103.128 485.299 110.322 476.435 110.322H459.772C450.908 110.322 443.656 103.128 443.656 94.3355V66.9669H450.038V94.3355C450.038 99.6429 454.421 103.991 459.772 103.991H476.435C481.786 103.991 486.169 99.6429 486.169 94.3355V66.9669H492.551Z" fill="black"/>
<path d="M420.449 66.9669V110.322H414.068V66.9669H420.449Z" fill="black"/>
<path d="M362.239 110.322C353.376 110.322 346.124 103.128 346.124 94.3355V82.9532C346.124 74.1608 353.376 66.9669 362.239 66.9669H390.764V73.2975H362.239C356.889 73.2975 352.506 77.6458 352.506 82.9532V94.3355C352.506 99.6429 356.889 103.991 362.239 103.991H390.764V110.322H362.239Z" fill="black"/>
<path d="M278.18 110.322V97.9164C278.18 92.6729 281.564 87.9729 286.528 86.2144C287.882 85.7348 289.268 85.511 290.686 85.511H310.25C313.602 85.511 316.374 82.7934 316.406 79.4682C316.406 79.4362 316.406 79.4362 316.406 79.4043C316.406 79.3723 316.406 79.3723 316.406 79.3403C316.374 76.0152 313.634 73.2975 310.25 73.2975H278.148V66.9669H310.25C311.668 66.9669 313.087 67.2227 314.408 67.6703C319.372 69.4288 322.756 74.1288 322.756 79.3723C322.756 81.5464 322.176 83.6566 321.112 85.4791C319.823 87.7491 317.792 89.6035 315.311 90.7226L315.182 90.7865C315.117 90.8185 315.02 90.8505 314.956 90.8824L322.756 110.322H315.891L308.445 91.8096H290.589C287.237 91.8096 284.465 94.5273 284.433 97.8525C284.433 97.8844 284.433 97.8844 284.433 97.9164V110.322H278.18Z" fill="black"/>
<path d="M200.019 110.322L213.685 76.3349C216.006 70.5798 221.324 66.9669 227.577 66.9669C233.83 66.9669 239.18 70.5479 241.468 76.3349L255.134 110.322H248.269L235.57 78.6689C234.216 75.3118 231.219 73.2975 227.577 73.2975C223.935 73.2975 220.937 75.3118 219.583 78.6689L206.884 110.322H200.019Z" fill="black"/>
</svg>
