<svg width="410" height="109" viewBox="0 0 410 109" fill="none" xmlns="http://www.w3.org/2000/svg">
<path d="M350.499 39.3503C351.826 37.4693 353.939 36.287 356.241 36.1526C356.377 36.1526 356.512 36.1526 356.675 36.1526C357.244 36.1526 357.786 36.2064 358.354 36.3407C361.605 37.0662 363.989 39.8877 364.178 43.1928V43.2466C364.205 43.4884 364.206 43.7034 364.206 43.9452V72.4285H358.842V43.9452C358.842 43.8377 358.842 43.7034 358.815 43.5959C358.815 42.6017 358.111 41.7418 357.135 41.5268C356.973 41.5 356.81 41.4731 356.648 41.4731C355.998 41.4731 355.402 41.7418 354.995 42.2524L354.833 42.4404L343.943 66.1676C343.185 67.8336 341.966 70.7894 340.395 71.8374C339.663 72.321 338.824 72.4554 337.957 72.4554C337.09 72.4554 336.25 72.321 335.519 71.8374C333.948 70.8163 332.729 67.8336 331.97 66.1676L321.081 42.4404L320.918 42.2524C320.512 41.7687 319.916 41.4731 319.266 41.4731C319.103 41.4731 318.941 41.5 318.778 41.5268C317.803 41.7418 317.099 42.6017 317.099 43.5959C317.071 43.7034 317.071 43.8377 317.071 43.9452V72.4285H311.708V43.9452C311.708 43.7034 311.708 43.4884 311.735 43.2466V43.1928C311.925 39.8877 314.281 37.0931 317.559 36.3407C318.101 36.2064 318.67 36.1526 319.239 36.1526C319.374 36.1526 319.509 36.1526 319.672 36.1526C321.974 36.287 324.114 37.4693 325.415 39.3503L325.74 39.834L337.93 66.3825L350.119 39.834L350.499 39.3503Z" fill="black"/>
<path d="M292.15 36.1257V59.1273C292.15 66.5169 286.055 72.5629 278.606 72.5629H264.601C257.152 72.5629 251.057 66.5169 251.057 59.1273V36.1257H256.42V59.1273C256.42 63.5879 260.104 67.2424 264.601 67.2424H278.606C283.102 67.2424 286.786 63.5879 286.786 59.1273V36.1257H292.15Z" fill="black"/>
<path d="M231.553 36.1257V72.5629H226.189V36.1257H231.553Z" fill="black"/>
<path d="M182.631 72.5629C175.182 72.5629 169.087 66.5169 169.087 59.1273V49.5612C169.087 42.1717 175.182 36.1257 182.631 36.1257H206.604V41.4462H182.631C178.134 41.4462 174.45 45.1007 174.45 49.5612V59.1273C174.45 63.5879 178.134 67.2424 182.631 67.2424H206.604V72.5629H182.631Z" fill="black"/>
<path d="M111.984 72.5629V62.1369C111.984 57.73 114.828 53.78 119 52.3021C120.138 51.899 121.303 51.7109 122.494 51.7109H138.937C141.754 51.7109 144.084 49.4269 144.111 46.6323C144.111 46.6054 144.111 46.6054 144.111 46.5786C144.111 46.5517 144.111 46.5517 144.111 46.5248C144.084 43.7302 141.782 41.4462 138.937 41.4462H111.957V36.1257H138.937C140.129 36.1257 141.321 36.3407 142.432 36.7169C146.603 38.1948 149.448 42.1448 149.448 46.5517C149.448 48.3789 148.96 50.1524 148.066 51.6841C146.983 53.5919 145.276 55.1504 143.19 56.0909L143.082 56.1447C143.028 56.1715 142.946 56.1984 142.892 56.2253L149.448 72.5629H143.678L137.42 57.0045H122.413C119.596 57.0045 117.266 59.2886 117.239 62.0832C117.239 62.11 117.239 62.11 117.239 62.1369V72.5629H111.984Z" fill="black"/>
<path d="M46.2944 72.5629L57.78 43.9989C59.7303 39.1622 64.2 36.1257 69.4551 36.1257C74.7103 36.1257 79.207 39.1353 81.1303 43.9989L92.6158 72.5629H86.846L76.1731 45.9605C75.0354 43.1391 72.5161 41.4462 69.4551 41.4462C66.3941 41.4462 63.8749 43.1391 62.7372 45.9605L52.0643 72.5629H46.2944Z" fill="black"/>
</svg>
