<svg width="239" height="154" viewBox="0 0 239 154" fill="none" xmlns="http://www.w3.org/2000/svg">
<g clip-path="url(#clip0_3892_32989)">
<path d="M0.929688 1.36719H340.93V154.367H0.929688V1.36719Z" fill="#1434CB"/>
<path d="M0.929688 1.36719H340.93V154.367H0.929688V1.36719Z" fill="black" fill-opacity="0.2"/>
<g style="mix-blend-mode:color-dodge" opacity="0.34">
<rect width="238" height="153" transform="translate(0.929688 1.36719)" fill="url(#paint0_linear_3892_32989)"/>
</g>
<g style="mix-blend-mode:overlay" opacity="0.9" clip-path="url(#clip1_3892_32989)" filter="url(#filter0_i_3892_32989)">
<path d="M139.55 57.4319C130.442 57.4319 122.302 62.1762 122.302 70.9398C122.302 80.9911 136.738 81.6853 136.738 86.7355C136.738 88.8618 134.313 90.765 130.171 90.765C124.293 90.765 119.9 88.1057 119.9 88.1057L118.02 96.9506C118.02 96.9506 123.081 99.197 129.799 99.197C139.758 99.197 147.595 94.2204 147.595 85.3058C147.595 74.6842 133.098 74.0107 133.098 69.3244C133.098 67.6587 135.089 65.8342 139.218 65.8342C143.878 65.8342 147.679 67.7683 147.679 67.7683L149.52 59.2267C149.52 59.2267 145.382 57.4319 139.548 57.4319H139.55ZM56.215 58.077L55.9941 59.366C55.9941 59.366 59.8259 60.0705 63.2776 61.4769C67.7219 63.0885 68.0378 64.0278 68.7864 66.9413L76.9418 98.5312H87.8747L104.717 58.077H93.8098L82.9874 85.582L78.5713 62.2666C78.1668 59.5983 76.1148 58.0757 73.6044 58.0757H56.2163L56.215 58.077ZM109.104 58.077L100.548 98.5312H110.949L119.474 58.077H109.104ZM167.114 58.077C164.606 58.077 163.277 59.4267 162.303 61.784L147.064 98.5312H157.972L160.081 92.4063H173.369L174.652 98.5312H184.276L175.881 58.077H167.114ZM168.533 69.007L171.767 84.1872H163.105L168.535 69.007H168.533Z" fill="black"/>
</g>
</g>
<defs>
<filter id="filter0_i_3892_32989" x="55.9297" y="57.3674" width="128.41" height="41.8928" filterUnits="userSpaceOnUse" color-interpolation-filters="sRGB">
<feFlood flood-opacity="0" result="BackgroundImageFix"/>
<feBlend mode="normal" in="SourceGraphic" in2="BackgroundImageFix" result="shape"/>
<feColorMatrix in="SourceAlpha" type="matrix" values="0 0 0 0 0 0 0 0 0 0 0 0 0 0 0 0 0 0 127 0" result="hardAlpha"/>
<feOffset dy="0.910715"/>
<feComposite in2="hardAlpha" operator="arithmetic" k2="-1" k3="1"/>
<feColorMatrix type="matrix" values="0 0 0 0 0.0588235 0 0 0 0 0.0392157 0 0 0 0 0.0862745 0 0 0 1 0"/>
<feBlend mode="normal" in2="shape" result="effect1_innerShadow_3892_32989"/>
</filter>
<linearGradient id="paint0_linear_3892_32989" x1="0" y1="76.5" x2="238" y2="76.5" gradientUnits="userSpaceOnUse">
<stop stop-color="#504D61"/>
<stop offset="0.496118" stop-color="white"/>
<stop offset="1" stop-color="#504D61"/>
</linearGradient>
<clipPath id="clip0_3892_32989">
<rect x="0.929688" y="0.932617" width="238" height="153" rx="16" fill="white"/>
</clipPath>
<clipPath id="clip1_3892_32989">
<rect width="128.411" height="41.8929" fill="white" transform="translate(55.9297 57.3674)"/>
</clipPath>
</defs>
</svg>
