<svg width="24" height="24" viewBox="0 0 24 24" fill="none" xmlns="http://www.w3.org/2000/svg">
<path d="M22.25 12.75H23V11.25H22.25V12V12.75ZM1.75 11.25H1V12.75H1.75V12V11.25ZM12 20.25V19.5C7.85786 19.5 4.5 16.1421 4.5 12H3.75H3C3 16.9706 7.02944 21 12 21V20.25ZM3.75 12H4.5C4.5 7.85786 7.85786 4.5 12 4.5V3.75V3C7.02944 3 3 7.02944 3 12H3.75ZM17.25 12H16.5C16.5 14.4853 14.4853 16.5 12 16.5V17.25V18C15.3137 18 18 15.3137 18 12H17.25ZM12 17.25V16.5C9.51472 16.5 7.5 14.4853 7.5 12H6.75H6C6 15.3137 8.68629 18 12 18V17.25ZM6.75 12H7.5C7.5 9.51472 9.51472 7.5 12 7.5V6.75V6C8.68629 6 6 8.68629 6 12H6.75ZM12 6.75V7.5C14.4853 7.5 16.5 9.51472 16.5 12H17.25H18C18 8.68629 15.3137 6 12 6V6.75ZM12 3.75V4.5C15.3487 4.5 18.1867 6.69523 19.1496 9.72703L19.8644 9.5L20.5792 9.27297C19.4242 5.63638 16.021 3 12 3V3.75ZM19.8644 14.5L19.1496 14.273C18.1867 17.3048 15.3487 19.5 12 19.5V20.25V21C16.021 21 19.4242 18.3636 20.5792 14.727L19.8644 14.5ZM17.25 12V12.75H22.25V12V11.25H17.25V12ZM3.75 12V11.25H1.75V12V12.75H3.75V12Z" fill="white" style="fill:white;fill-opacity:1;"/>
</svg>
