<svg width="20" height="20" viewBox="0 0 20 20" fill="none" xmlns="http://www.w3.org/2000/svg">
<path fill-rule="evenodd" clip-rule="evenodd" d="M4.74807 13.7529C4.7992 13.6979 4.86098 13.6537 4.92971 13.623C4.99847 13.5923 5.07271 13.5757 5.14807 13.5742H17.7159C17.7691 13.5749 17.8209 13.5909 17.8651 13.6202C17.9094 13.6495 17.9442 13.6908 17.9653 13.7393C17.9864 13.7878 17.993 13.8412 17.9842 13.8933C17.9755 13.9454 17.9517 13.9938 17.9159 14.0328L15.2519 16.9696C15.2008 17.0246 15.139 17.0688 15.0703 17.0995C15.0015 17.1302 14.9273 17.1468 14.8519 17.1483H2.27612C2.22295 17.1476 2.1711 17.1316 2.12689 17.1023C2.08263 17.073 2.04785 17.0316 2.02671 16.9832C2.0056 16.9347 1.99903 16.8812 2.00778 16.8292C2.01653 16.7771 2.04029 16.7286 2.07613 16.6896L4.74807 13.7529ZM17.9279 11.3185C17.9637 11.3575 17.9875 11.4059 17.9962 11.458C18.005 11.5101 17.9984 11.5636 17.9773 11.612C17.9562 11.6605 17.9214 11.7018 17.8771 11.7311C17.8329 11.7604 17.7811 11.7764 17.7279 11.7771L5.15607 11.7871C5.08071 11.7855 5.00647 11.7689 4.93771 11.7382C4.86898 11.7075 4.8072 11.6633 4.75607 11.6084L2.07212 8.68155C2.03627 8.64254 2.01255 8.59406 2.00376 8.54198C1.99502 8.4899 2.00159 8.43643 2.02272 8.38799C2.04386 8.33952 2.07862 8.29816 2.12287 8.26888C2.16712 8.23957 2.21893 8.22361 2.2721 8.22286L14.8439 8.21292C14.9193 8.21445 14.9936 8.23107 15.0623 8.26177C15.131 8.29247 15.1928 8.33666 15.2439 8.39163L17.9279 11.3185ZM4.74807 3.03039C4.7992 2.97542 4.86098 2.93123 4.92971 2.90053C4.99847 2.86983 5.07271 2.85322 5.14807 2.85168L17.7239 2.86162C17.7771 2.86237 17.8289 2.87834 17.8731 2.90765C17.9174 2.93692 17.9521 2.97828 17.9733 3.02675C17.9944 3.07519 18.001 3.12866 17.9922 3.18075C17.9835 3.23283 17.9597 3.2813 17.9239 3.32031L15.2519 6.24714C15.2008 6.30211 15.139 6.34629 15.0703 6.377C15.0015 6.4077 14.9273 6.42431 14.8519 6.42584H2.27612C2.22295 6.42509 2.1711 6.40913 2.12689 6.37982C2.08263 6.35051 2.04785 6.30916 2.02671 6.26072C2.0056 6.21224 1.99903 6.15877 2.00778 6.10669C2.01653 6.05461 2.04029 6.00617 2.07613 5.96716L4.74807 3.03039Z" fill="white" style="fill:white;fill-opacity:1;"/>
</svg>
