<svg width="20" height="20" viewBox="0 0 329 329" fill="none" xmlns="http://www.w3.org/2000/svg">
<path d="M306.8,205.3c7.6-26.7,7.6-54.9,0-81.6l-44.2,12.7c5.3,18.4,5.3,37.9,0,56.2l44.2,12.7Z" fill="white" style="fill:white;fill-opacity:1;"/>
<path d="M293.9,92.8c-13.4-24.3-33.4-44.2-57.7-57.7l-22.3,40.2c16.7,9.3,30.5,23,39.8,39.8l40.2-22.3Z" fill="white" style="fill:white;fill-opacity:1;"/>
<path d="M205.3,22.2c-26.7-7.6-54.9-7.6-81.6,0l12.7,44.2c18.4-5.3,37.9-5.3,56.2,0l12.7-44.2Z" fill="white" style="fill:white;fill-opacity:1;"/>
<path d="M92.8,35.1c-24.3,13.4-44.2,33.4-57.7,57.7l40.2,22.3c9.3-16.7,23-30.5,39.8-39.8l-22.3-40.2Z" fill="white" style="fill:white;fill-opacity:1;"/>
<path d="M22.2,123.7c-7.6,26.7-7.6,54.9,0,81.6l44.2-12.7c-5.3-18.4-5.3-37.9,0-56.2l-44.2-12.7Z" fill="white" style="fill:white;fill-opacity:1;"/>
<path d="M35.1,236.2c13.4,24.3,33.4,44.2,57.7,57.7l22.3-40.2c-16.7-9.3-30.5-23-39.8-39.8l-40.2,22.3Z" fill="white" style="fill:white;fill-opacity:1;"/>
<path d="M123.7,306.8c26.7,7.6,54.9,7.6,81.6,0l-12.7-44.2c-18.4,5.3-37.9,5.3-56.2,0l-12.7,44.2Z" fill="white" style="fill:white;fill-opacity:1;"/>
<path d="M236.2,293.9c24.3-13.4,44.2-33.4,57.7-57.7l-40.2-22.3c-9.3,16.7-23,30.5-39.8,39.8l22.3,40.2Z" fill="white" style="fill:white;fill-opacity:1;"/>
</svg>
