<svg width="20" height="20" viewBox="0 0 20 20" fill="none" xmlns="http://www.w3.org/2000/svg">
<path d="M10.0311 6.44388C12.0138 6.46188 13.5786 8.06309 13.5506 10.0438C13.5225 12.0251 11.9064 13.5882 9.93157 13.5443C7.97913 13.5011 6.44807 11.9344 6.45314 9.98549C6.4582 8.00549 8.05332 6.42588 10.0311 6.44388Z" fill="white" style="fill:white;fill-opacity:1;"/>
<path d="M14.6419 17.5734C11.5445 20.0659 6.00983 19.1739 3.14303 15.8195C-0.0105039 12.1296 0.357738 6.59374 3.97453 3.31568C7.5473 0.0779416 13.0748 0.256501 16.4444 3.71887C19.7154 7.07971 19.8603 12.6559 16.799 15.803C16.0842 15.0548 15.3688 14.3054 14.6188 13.5206C15.7795 11.8992 16.139 10.0439 15.4452 8.05172C14.4092 5.07746 11.1274 3.50792 8.13451 4.52164C5.17697 5.52313 3.5581 8.70467 4.48169 11.6998C5.41541 14.728 8.58268 16.448 11.6224 15.515C12.2275 15.3292 12.5633 15.4379 12.9545 15.8879C13.4718 16.484 14.0705 17.0096 14.6419 17.5734Z" fill="white" style="fill:white;fill-opacity:1;"/>
</svg>
