<svg width="20" height="20" viewBox="0 0 20 20" fill="none" xmlns="http://www.w3.org/2000/svg">
<path d="M3.5 9.94579C3.51708 7.43782 4.5183 5.0372 6.28349 3.26816C8.04959 1.4991 10.4376 0.504457 12.9281 0.499908H13.6183V2.00961H12.938C10.843 2.01053 8.8333 2.845 7.34585 4.33105C5.85837 5.81712 5.01443 7.83461 4.99735 9.94492H3.5V9.94579Z" fill="white" style="fill:white;fill-opacity:1;"/>
<path d="M6.375 19.4999V17.9902H7.06525C9.16029 17.9875 11.169 17.1521 12.6547 15.6652C14.1404 14.1782 14.9834 12.1607 14.9996 10.0513H16.4996C16.4825 12.5602 15.4814 14.9617 13.7144 16.7308C11.9474 18.4999 9.55756 19.4945 7.06617 19.4972L6.375 19.4999Z" fill="white" style="fill:white;fill-opacity:1;"/>
<path d="M6.375 16.6034V15.0937H7.06525C8.39723 15.0919 9.67528 14.5622 10.6226 13.6186C11.5699 12.6749 12.1091 11.3935 12.1244 10.0513H13.6236C13.6074 11.7931 12.9091 13.4575 11.6813 14.6833C10.4536 15.9091 8.79451 16.5979 7.06525 16.5998L6.375 16.6034Z" fill="white" style="fill:white;fill-opacity:1;"/>
<path d="M6.375 9.94586C6.39118 8.20318 7.08952 6.53693 8.31812 5.31028C9.54764 4.08357 11.2077 3.3947 12.9378 3.39378H13.6281V4.9035H12.9378C11.6049 4.9035 10.3251 5.43313 9.37691 6.37679C8.42867 7.32045 7.88855 8.60269 7.87323 9.94586H6.375Z" fill="white" style="fill:white;fill-opacity:1;"/>
<path d="M6.375 13.7079V12.1982H7.06524C7.63508 12.1982 8.18243 11.9734 8.58958 11.5721C8.99763 11.1707 9.23308 10.6257 9.24747 10.0524V9.99682C9.24925 9.01221 9.63936 8.06942 10.3314 7.37507C11.0234 6.67984 11.9609 6.29037 12.9387 6.29125H13.629V7.80095H12.9387C12.368 7.80008 11.8198 8.02394 11.4108 8.42525C11.0019 8.82657 10.7655 9.37258 10.7511 9.94675V10.0023C10.7502 10.986 10.362 11.9288 9.6708 12.624C8.98054 13.3193 8.044 13.7106 7.06708 13.7115L6.375 13.7079Z" fill="white" style="fill:white;fill-opacity:1;"/>
</svg>
