<svg preserveAspectRatio="none" width="100%" height="100%" overflow="visible" style="display: block;" viewBox="0 0 218.182 40" fill="none" xmlns="http://www.w3.org/2000/svg">
<g id="Frame" clip-path="url(#clip0_0_65)">
<path id="Vector" d="M42.0718 29.1284C41.5644 29.1284 41.2057 29.0234 40.9957 28.8135C40.8033 28.6035 40.707 28.271 40.707 27.8161V12.62C40.707 12.1649 40.8119 11.8325 41.022 11.6226C41.232 11.3951 41.5818 11.2813 42.0718 11.2813H48.502C50.9515 11.2813 52.7537 11.7976 53.9087 12.8299C55.0634 13.8622 55.6408 15.4019 55.6408 17.449C55.6408 19.4787 55.0634 21.0097 53.9087 22.042C52.7712 23.057 50.9691 23.5644 48.502 23.5644H46.0086V27.8161C46.0086 28.271 45.9037 28.6035 45.6937 28.8135C45.4837 29.0234 45.125 29.1284 44.6176 29.1284H42.0718ZM48.0821 19.7587C48.7995 19.7587 49.3507 19.5663 49.7356 19.1813C50.1379 18.7964 50.3392 18.219 50.3392 17.4492C50.3392 16.6618 50.1379 16.0755 49.7356 15.6906C49.3507 15.3057 48.7995 15.1132 48.0821 15.1132H46.0086V19.7587H48.0821ZM61.839 29.5221C60.1944 29.5221 58.8734 28.9971 57.8759 27.9474C56.8961 26.88 56.4062 25.3841 56.4062 23.4593C56.4062 21.9896 56.7387 20.7035 57.4035 19.6012C58.086 18.4989 59.0396 17.6503 60.2644 17.0554C61.5067 16.4431 62.9326 16.1368 64.5423 16.1368C65.8722 16.1368 67.0445 16.2855 68.0593 16.5831C69.0916 16.8629 70.0364 17.2741 70.8938 17.8165V28.3148C70.8938 28.6473 70.8326 28.866 70.71 28.9709C70.5876 29.076 70.3426 29.1284 69.9752 29.1284H67.2981C67.1057 29.1284 66.957 29.1022 66.8521 29.0496C66.747 28.9798 66.6596 28.8747 66.5896 28.7347L66.2483 27.9474C65.7409 28.4897 65.1286 28.8835 64.4112 29.1284C63.7113 29.3909 62.8539 29.5221 61.839 29.5221ZM63.8076 25.9526C64.4899 25.9526 65.0235 25.7864 65.4084 25.4541C65.7933 25.1216 65.9858 24.6492 65.9858 24.0367V19.9425C65.6535 19.7849 65.2335 19.7063 64.7261 19.7063C63.7987 19.7063 63.0551 20.0299 62.4952 20.6773C61.9528 21.3247 61.6816 22.2345 61.6816 23.4068C61.6816 25.1041 62.3901 25.9526 63.8076 25.9526ZM74.5463 29.1284C74.0388 29.1284 73.6801 29.0234 73.4702 28.8135C73.2602 28.6035 73.1553 28.271 73.1553 27.8161V17.3441C73.1553 17.0291 73.2078 16.8191 73.3127 16.7142C73.4352 16.5916 73.6801 16.5304 74.0476 16.5304H76.751C76.9608 16.5304 77.1184 16.5655 77.2233 16.6355C77.3457 16.688 77.4157 16.7929 77.4333 16.9505L77.5644 17.7379C78.0544 17.2478 78.6932 16.8629 79.4804 16.5831C80.2853 16.2855 81.1776 16.1368 82.1575 16.1368C83.5747 16.1368 84.7208 16.5393 85.5956 17.3441C86.4705 18.1315 86.9079 19.3038 86.9079 20.861V27.8161C86.9079 28.271 86.803 28.6035 86.593 28.8135C86.4005 29.0234 86.0505 29.1284 85.5431 29.1284H82.9973C82.49 29.1284 82.1226 29.0234 81.895 28.8135C81.685 28.6035 81.5801 28.271 81.5801 27.8161V21.2022C81.5801 20.6773 81.4663 20.3012 81.2389 20.0736C81.0114 19.8463 80.6527 19.7325 80.1629 19.7325C79.6379 19.7325 79.2179 19.8725 78.903 20.1523C78.6056 20.4323 78.4569 20.8173 78.4569 21.3073V27.8161C78.4569 28.271 78.3518 28.6035 78.142 28.8135C77.9495 29.0234 77.5995 29.1284 77.0921 29.1284H74.5463ZM96.185 29.5221C93.7354 29.5221 91.8457 28.9534 90.5158 27.8161C89.1861 26.6789 88.5212 25.0254 88.5212 22.8557C88.5212 21.526 88.8274 20.3537 89.4398 19.3389C90.0522 18.3239 90.9359 17.5365 92.0906 16.9767C93.263 16.4168 94.6453 16.1368 96.2375 16.1368C97.4447 16.1368 98.4596 16.2506 99.282 16.478C100.122 16.7055 100.865 17.0554 101.513 17.5278C101.705 17.6505 101.802 17.8079 101.802 18.0003C101.802 18.1403 101.732 18.3239 101.592 18.5515L100.515 20.4148C100.393 20.6599 100.244 20.7824 100.069 20.7824C99.9643 20.7824 99.798 20.7123 99.5707 20.5723C99.0982 20.275 98.6521 20.0563 98.2321 19.9163C97.8296 19.7763 97.3222 19.7063 96.7099 19.7063C95.835 19.7063 95.1264 19.9863 94.584 20.5461C94.059 21.106 93.7966 21.8758 93.7966 22.8557C93.7966 23.8531 94.0677 24.6229 94.6102 25.1652C95.1527 25.6902 95.8963 25.9526 96.8411 25.9526C97.4009 25.9526 97.9085 25.8739 98.3634 25.7164C98.8183 25.559 99.282 25.3403 99.7544 25.0603C99.9993 24.9203 100.174 24.8503 100.279 24.8503C100.437 24.8503 100.577 24.9728 100.699 25.2179L101.88 27.2387C101.968 27.4136 102.012 27.5537 102.012 27.6586C102.012 27.8161 101.906 27.9648 101.697 28.1048C100.962 28.5773 100.157 28.9271 99.282 29.1547C98.4246 29.3996 97.3922 29.5221 96.185 29.5221ZM108.666 29.5221C107.021 29.5221 105.7 28.9971 104.703 27.9474C103.723 26.88 103.233 25.3841 103.233 23.4593C103.233 21.9896 103.566 20.7035 104.23 19.6012C104.913 18.4989 105.866 17.6503 107.091 17.0554C108.334 16.4431 109.76 16.1368 111.369 16.1368C112.699 16.1368 113.871 16.2855 114.886 16.5831C115.918 16.8629 116.863 17.2741 117.721 17.8165V28.3148C117.721 28.6473 117.659 28.866 117.537 28.9709C117.415 29.076 117.17 29.1284 116.802 29.1284H114.125C113.933 29.1284 113.784 29.1022 113.679 29.0496C113.574 28.9798 113.486 28.8747 113.416 28.7347L113.075 27.9474C112.568 28.4897 111.955 28.8835 111.238 29.1284C110.538 29.3909 109.681 29.5221 108.666 29.5221ZM110.634 25.9526C111.317 25.9526 111.85 25.7864 112.235 25.4541C112.62 25.1216 112.813 24.6492 112.813 24.0367V19.9425C112.48 19.7849 112.06 19.7063 111.553 19.7063C110.626 19.7063 109.882 20.0299 109.322 20.6773C108.78 21.3247 108.508 22.2345 108.508 23.4068C108.508 25.1041 109.217 25.9526 110.634 25.9526ZM134.207 28.131C134.33 28.271 134.391 28.4286 134.391 28.6035C134.391 28.7609 134.339 28.8922 134.233 28.9971C134.129 29.0847 133.989 29.1284 133.814 29.1284H129.745C129.501 29.1284 129.317 29.1109 129.194 29.076C129.089 29.0234 128.976 28.9271 128.853 28.7873L125.284 23.9318V27.8161C125.284 28.271 125.179 28.6035 124.969 28.8135C124.759 29.0234 124.4 29.1284 123.893 29.1284H121.347C120.84 29.1284 120.481 29.0234 120.271 28.8135C120.078 28.6035 119.982 28.271 119.982 27.8161V12.62C119.982 12.1649 120.087 11.8325 120.297 11.6226C120.507 11.3951 120.857 11.2813 121.347 11.2813H123.893C124.4 11.2813 124.759 11.3951 124.969 11.6226C125.179 11.8325 125.284 12.1649 125.284 12.6199V21.4122L128.748 16.898C128.853 16.758 128.967 16.6618 129.089 16.6093C129.212 16.5567 129.396 16.5304 129.641 16.5304H133.709C133.884 16.5304 134.015 16.5831 134.102 16.688C134.207 16.7755 134.26 16.898 134.26 17.0554C134.26 17.2305 134.199 17.3878 134.076 17.5278L129.588 22.6721L134.207 28.131ZM142.729 29.5221C141.26 29.5221 139.947 29.2771 138.792 28.7873C137.655 28.2973 136.754 27.5623 136.089 26.5826C135.424 25.6028 135.092 24.4042 135.092 22.987C135.092 20.7648 135.722 19.0676 136.982 17.8952C138.241 16.7229 140.052 16.1368 142.414 16.1368C144.724 16.1368 146.474 16.7142 147.663 17.869C148.871 19.0064 149.475 20.5899 149.475 22.6194C149.475 23.4944 149.09 23.9318 148.32 23.9318H140.079C140.079 24.6841 140.358 25.2616 140.918 25.6639C141.496 26.0664 142.362 26.2676 143.517 26.2676C144.234 26.2676 144.829 26.2064 145.301 26.0839C145.791 25.9439 146.281 25.7428 146.771 25.4803C146.981 25.3928 147.121 25.349 147.191 25.349C147.349 25.349 147.48 25.4541 147.585 25.6639L148.477 27.3436C148.565 27.5187 148.608 27.6499 148.608 27.7374C148.608 27.8948 148.503 28.0437 148.293 28.1835C147.576 28.656 146.762 28.9971 145.853 29.2071C144.943 29.4171 143.902 29.5221 142.729 29.5221ZM144.75 21.3335C144.75 20.6686 144.558 20.1523 144.173 19.7849C143.788 19.4176 143.21 19.2338 142.441 19.2338C141.671 19.2338 141.085 19.4263 140.682 19.8112C140.28 20.1787 140.079 20.6861 140.079 21.3335H144.75ZM158.47 29.5221C157 29.5221 155.609 29.3734 154.297 29.076C152.985 28.7609 151.926 28.3235 151.121 27.7637C150.824 27.5712 150.675 27.3699 150.675 27.16C150.675 27.02 150.728 26.8713 150.833 26.7138L152.119 24.6667C152.259 24.4567 152.399 24.3518 152.539 24.3518C152.626 24.3518 152.775 24.4129 152.985 24.5354C153.632 24.9029 154.367 25.2003 155.189 25.4277C156.012 25.6552 156.825 25.769 157.63 25.769C158.453 25.769 159.056 25.6466 159.441 25.4015C159.844 25.1565 160.045 24.7629 160.045 24.2205C160.045 23.6955 159.826 23.2844 159.389 22.987C158.969 22.6894 158.173 22.3134 157 21.8584C155.233 21.1935 153.851 20.4499 152.854 19.6274C151.874 18.7877 151.384 17.6503 151.384 16.2155C151.384 14.4834 152.005 13.1623 153.247 12.2525C154.49 11.3425 156.143 10.8877 158.208 10.8877C159.642 10.8877 160.867 11.0188 161.882 11.2813C162.914 11.5264 163.789 11.9113 164.507 12.4361C164.804 12.6636 164.953 12.8736 164.953 13.0661C164.953 13.1886 164.9 13.3284 164.795 13.4859L163.509 15.5332C163.352 15.743 163.212 15.8481 163.089 15.8481C163.002 15.8481 162.853 15.7868 162.643 15.6644C161.628 14.9994 160.421 14.6671 159.021 14.6671C158.269 14.6671 157.691 14.7896 157.289 15.0345C156.887 15.2794 156.685 15.6819 156.685 16.2418C156.685 16.6267 156.79 16.9418 157 17.1867C157.21 17.4316 157.49 17.6503 157.84 17.8428C158.208 18.0177 158.768 18.2452 159.52 18.5253L160.019 18.7089C161.313 19.2164 162.328 19.7063 163.063 20.1787C163.816 20.6335 164.384 21.2022 164.769 21.8847C165.154 22.5494 165.346 23.3893 165.346 24.4042C165.346 25.9615 164.76 27.2038 163.588 28.131C162.433 29.0584 160.727 29.5221 158.47 29.5221ZM170.923 29.1284C170.661 29.1284 170.46 29.0847 170.319 28.9971C170.179 28.9098 170.074 28.7347 170.004 28.4722L166.619 17.1341C166.584 17.0291 166.566 16.9505 166.566 16.898C166.566 16.6531 166.741 16.5304 167.091 16.5304H170.555C170.783 16.5304 170.948 16.5742 171.054 16.6616C171.16 16.7318 171.229 16.8541 171.264 17.0291L172.681 22.987L174.466 18.1839C174.554 17.9741 174.641 17.8341 174.728 17.7641C174.833 17.6765 175.009 17.6329 175.254 17.6329H176.906C177.152 17.6329 177.318 17.6765 177.405 17.7641C177.511 17.8339 177.606 17.9741 177.695 18.1839L179.453 22.987L180.897 17.0291C180.948 16.8542 181.018 16.7318 181.106 16.6618C181.193 16.5742 181.352 16.5306 181.578 16.5306H185.07C185.419 16.5306 185.594 16.6531 185.594 16.898C185.594 16.9505 185.577 17.0291 185.542 17.1341L182.13 28.4722C182.06 28.7347 181.955 28.9098 181.815 28.9971C181.692 29.0847 181.5 29.1284 181.238 29.1284H178.666C178.42 29.1284 178.237 29.0847 178.114 28.9971C177.991 28.8922 177.887 28.7173 177.799 28.4722L176.067 23.7218L174.334 28.4722C174.265 28.7173 174.159 28.8922 174.019 28.9971C173.897 29.0847 173.714 29.1284 173.469 29.1284H170.923ZM192.247 29.5221C190.602 29.5221 189.282 28.9971 188.284 27.9474C187.304 26.88 186.814 25.3841 186.814 23.4593C186.814 21.9896 187.146 20.7035 187.812 19.6012C188.493 18.4989 189.447 17.6503 190.672 17.0554C191.915 16.4431 193.341 16.1368 194.95 16.1368C196.28 16.1368 197.452 16.2855 198.467 16.5831C199.499 16.8629 200.445 17.2741 201.301 17.8165V28.3148C201.301 28.6473 201.24 28.866 201.118 28.9709C200.995 29.076 200.751 29.1284 200.383 29.1284H197.706C197.514 29.1284 197.365 29.1022 197.26 29.0496C197.154 28.9798 197.067 28.8747 196.997 28.7347L196.657 27.9474C196.149 28.4897 195.536 28.8835 194.819 29.1284C194.119 29.3909 193.262 29.5221 192.247 29.5221ZM194.216 25.9526C194.897 25.9526 195.432 25.7864 195.817 25.4541C196.202 25.1216 196.394 24.6492 196.394 24.0367V19.9425C196.061 19.7849 195.642 19.7063 195.134 19.7063C194.206 19.7063 193.463 20.0299 192.903 20.6773C192.361 21.3247 192.089 22.2345 192.089 23.4068C192.089 25.1041 192.799 25.9526 194.216 25.9526ZM204.928 34.43C204.42 34.43 204.062 34.3251 203.851 34.1151C203.659 33.9051 203.563 33.5726 203.563 33.1177V18.079C204.35 17.5192 205.34 17.0554 206.529 16.688C207.719 16.3206 208.961 16.1368 210.255 16.1368C215.54 16.1368 218.182 18.3766 218.182 22.8557C218.182 24.8854 217.622 26.5038 216.503 27.7112C215.382 28.9184 213.8 29.5221 211.752 29.5221C211.175 29.5221 210.615 29.4521 210.071 29.3121C209.547 29.1722 209.109 28.9798 208.76 28.7347V33.1177C208.76 33.5726 208.654 33.9051 208.445 34.1151C208.235 34.3251 207.876 34.43 207.368 34.43H204.928ZM210.623 25.9789C211.376 25.9789 211.936 25.699 212.303 25.139C212.687 24.5616 212.88 23.7918 212.88 22.8294C212.88 21.6922 212.653 20.896 212.199 20.441C211.761 19.9687 211.078 19.7325 210.151 19.7325C209.555 19.7325 209.083 19.8112 208.734 19.9687V24.1418C208.734 24.7367 208.899 25.1916 209.232 25.5066C209.565 25.8215 210.029 25.9789 210.623 25.9789Z" fill="var(--fill-0, white)"/>
<path id="Vector_2" fill-rule="evenodd" clip-rule="evenodd" d="M16.6159 36.8788C11.6439 36.875 7.63858 35.6819 4.8402 33.539C2.00826 31.3703 0.505859 28.2925 0.505859 24.81C0.505859 21.4545 2.00486 19.0349 3.70109 17.3993C5.03045 16.1176 6.49726 15.2969 7.51868 14.8245C7.28772 14.1157 6.99954 13.1878 6.74167 12.2292C6.39677 10.9467 6.05834 9.44171 6.05834 8.33905C6.05834 7.03387 6.34278 5.72291 7.11007 4.70439C7.9208 3.6283 9.14133 3.05176 10.6095 3.05176C11.757 3.05176 12.7312 3.47739 13.4937 4.21165C14.2227 4.91337 14.7081 5.84554 15.0431 6.81723C15.6318 8.52453 15.861 10.6696 15.9252 12.8103H17.3316C17.396 10.6696 17.625 8.52453 18.2138 6.81723C18.5489 5.84554 19.0339 4.91354 19.7631 4.21165C20.5258 3.47756 21.4999 3.05176 22.6473 3.05176C24.1157 3.05176 25.336 3.6283 26.1467 4.70439C26.914 5.72291 27.1986 7.03387 27.1986 8.33905C27.1986 9.44171 26.86 10.9467 26.5151 12.2292C26.2573 13.1878 25.9691 14.1157 25.7381 14.8245C26.7596 15.2969 28.2265 16.1176 29.5557 17.3995C31.252 19.0349 32.7509 21.4545 32.7509 24.81C32.7509 28.2925 31.2487 31.3703 28.4166 33.539C25.6182 35.6819 21.6129 36.875 16.6409 36.8788H16.6159Z" fill="var(--fill-0, white)"/>
<path id="Vector_3" d="M10.6087 4.29492C8.45841 4.29492 7.4685 5.9157 7.4685 8.15696C7.4685 9.93852 8.61868 13.5064 9.09047 14.8954C9.19675 15.2079 9.02983 15.5501 8.72564 15.6712C7.00216 16.3578 1.91602 18.8714 1.91602 24.6281C1.91602 30.692 7.08476 35.2643 16.6165 35.2716L16.6277 35.2715L16.6391 35.2716C26.1706 35.2643 31.3394 30.692 31.3394 24.6281C31.3394 18.8714 26.2533 16.3578 24.5298 15.6712C24.2256 15.5503 24.0588 15.2079 24.1649 14.8954C24.6369 13.5066 25.7871 9.93852 25.7871 8.15696C25.7871 5.91553 24.7972 4.29492 22.6467 4.29492C19.5513 4.29492 18.7795 8.72447 18.7245 13.4787C18.721 13.796 18.4668 14.0535 18.1528 14.0535H15.1028C14.7886 14.0535 14.5346 13.796 14.5309 13.4787C14.4759 8.72447 13.7043 4.29492 10.6087 4.29492Z" fill="var(--fill-0, black)"/>
<path id="Vector_4" opacity="0.5" d="M16.6391 33.3291C9.63584 33.3291 1.92811 29.542 1.91602 24.6396V24.6625C1.91602 30.7314 7.09294 35.306 16.6391 35.306C26.1853 35.306 31.3622 30.7314 31.3622 24.6625V24.6396C31.3501 29.542 23.6424 33.3291 16.6391 33.3291Z" fill="var(--fill-0, white)"/>
<path id="Vector_5" d="M12.7499 23.1334C12.7499 24.7886 11.9756 25.6506 11.0205 25.6506C10.0653 25.6506 9.29102 24.7886 9.29102 23.1334C9.29102 21.4782 10.0653 20.6162 11.0205 20.6162C11.9756 20.6162 12.7499 21.4782 12.7499 23.1334ZM23.9913 23.1334C23.9913 24.7886 23.217 25.6506 22.2618 25.6506C21.3067 25.6506 20.5324 24.7886 20.5324 23.1334C20.5324 21.4782 21.3067 20.6162 22.2618 20.6162C23.217 20.6162 23.9913 21.4782 23.9913 23.1334Z" fill="var(--fill-0, white)"/>
</g>
<defs>
<clipPath id="clip0_0_65">
<rect width="218.182" height="40" fill="white"/>
</clipPath>
</defs>
</svg>
