<svg preserveAspectRatio="none" width="100%" height="100%" overflow="visible" style="display: block;" viewBox="0 0 140 30" fill="none" xmlns="http://www.w3.org/2000/svg">
<g id="Frame" clip-path="url(#clip0_0_73)">
<path id="Vector" d="M43.8461 15.9556V15.6066C43.8461 14.7296 43.546 14.0584 42.9457 13.5931C42.3636 13.1098 41.5996 12.8682 40.6536 12.8682C39.926 12.8682 39.353 12.9935 38.9346 13.2441C38.5344 13.4767 38.1524 13.8347 37.7886 14.318C37.6795 14.4611 37.5612 14.5596 37.4339 14.6133C37.3065 14.667 37.1337 14.6938 36.9154 14.6938H36.0969C35.8968 14.6938 35.7149 14.6222 35.5511 14.479C35.4056 14.3359 35.3419 14.1658 35.3601 13.9689C35.4147 13.432 35.6785 12.904 36.1514 12.385C36.6426 11.848 37.2884 11.4095 38.0888 11.0694C38.8891 10.7294 39.7441 10.5593 40.6536 10.5593C42.3454 10.5593 43.7097 11.0247 44.7466 11.9554C45.8016 12.8861 46.3292 14.1927 46.3292 15.8751V24.0635C46.3292 24.2604 46.2564 24.4304 46.1109 24.5736C45.9653 24.7168 45.7925 24.7884 45.5924 24.7884H44.5829C44.3828 24.7884 44.2099 24.7168 44.0644 24.5736C43.9189 24.4304 43.8461 24.2604 43.8461 24.0635V22.9628C43.5551 23.6071 42.9366 24.1172 41.9907 24.4931C41.0447 24.8689 40.0988 25.0569 39.1529 25.0569C38.2252 25.0569 37.3975 24.8958 36.6699 24.5736C35.9422 24.2335 35.3783 23.7771 34.9781 23.2044C34.5961 22.6317 34.4051 21.9873 34.4051 21.2714C34.4051 19.929 34.9145 18.882 35.9331 18.1303C36.9518 17.3606 38.307 16.8416 39.9988 16.5731L43.8461 15.9556ZM43.8461 18.1034L40.6264 18.6135C39.444 18.7925 38.5253 19.0878 37.8705 19.4995C37.2156 19.8932 36.8882 20.3944 36.8882 21.0029C36.8882 21.4504 37.0974 21.8531 37.5157 22.211C37.9341 22.569 38.5708 22.748 39.4258 22.748C40.7355 22.748 41.7997 22.3811 42.6182 21.6473C43.4368 20.9134 43.8461 19.9559 43.8461 18.7746V18.1034Z" fill="var(--fill-0, white)"/>
<path id="Vector_2" d="M52.7934 24.0635C52.7934 24.2604 52.7204 24.4304 52.5749 24.5736C52.4294 24.7168 52.2569 24.7884 52.0564 24.7884H51.0469C50.8469 24.7884 50.6739 24.7168 50.5284 24.5736C50.3829 24.4304 50.3104 24.2604 50.3104 24.0635V6.45171C50.3104 6.25481 50.3829 6.08481 50.5284 5.94161C50.6739 5.79841 50.8469 5.72681 51.0469 5.72681H52.0564C52.2569 5.72681 52.4294 5.79841 52.5749 5.94161C52.7204 6.08481 52.7934 6.25481 52.7934 6.45171V24.0635Z" fill="var(--fill-0, white)"/>
<path id="Vector_3" d="M62.621 22.748C64.44 22.748 65.668 22.05 66.305 20.6539C66.432 20.3854 66.5595 20.1975 66.687 20.0901C66.814 19.9827 66.987 19.929 67.205 19.929H68.024C68.224 19.929 68.3965 20.0006 68.542 20.1438C68.688 20.2691 68.7605 20.4212 68.7605 20.6002C68.7605 21.2087 68.515 21.862 68.024 22.5601C67.5325 23.2581 66.823 23.8487 65.8955 24.332C64.968 24.8152 63.8765 25.0569 62.621 25.0569C61.3295 25.0569 60.211 24.7884 59.265 24.2514C58.319 23.7145 57.5915 22.9807 57.082 22.05C56.5725 21.1014 56.291 20.0454 56.236 18.882C56.218 18.6672 56.209 18.2556 56.209 17.647C56.209 17.2175 56.218 16.9132 56.236 16.7342C56.4 14.9086 57.0275 13.423 58.119 12.2776C59.2105 11.1321 60.711 10.5593 62.621 10.5593C63.8765 10.5593 64.9585 10.801 65.868 11.2842C66.796 11.7496 67.4965 12.3313 67.969 13.0293C68.4605 13.7094 68.724 14.3538 68.7605 14.9623C68.7785 15.1592 68.706 15.3292 68.542 15.4724C68.3965 15.6156 68.224 15.6872 68.024 15.6872H67.205C66.987 15.6872 66.814 15.6335 66.687 15.5261C66.5595 15.4187 66.432 15.2308 66.305 14.9623C65.668 13.5662 64.44 12.8682 62.621 12.8682C61.6205 12.8682 60.7475 13.1993 60.0015 13.8616C59.256 14.5238 58.8285 15.5261 58.719 16.8684C58.701 17.0653 58.692 17.3875 58.692 17.8349C58.692 18.2466 58.701 18.5509 58.719 18.7478C58.8465 20.0901 59.274 21.0924 60.0015 21.7546C60.7475 22.4169 61.6205 22.748 62.621 22.748Z" fill="var(--fill-0, white)"/>
<path id="Vector_4" d="M84.6342 24.0635C84.6342 24.2604 84.5617 24.4304 84.4157 24.5736C84.2702 24.7168 84.0977 24.7884 83.8977 24.7884H82.8877C82.6877 24.7884 82.5152 24.7168 82.3697 24.5736C82.2237 24.4304 82.1512 24.2604 82.1512 24.0635V16.9758C82.1512 15.6335 81.8147 14.6133 81.1417 13.9152C80.4687 13.2172 79.5317 12.8682 78.3312 12.8682C77.1487 12.8682 76.2117 13.2172 75.5207 13.9152C74.8477 14.6133 74.5112 15.6335 74.5112 16.9758V24.0635C74.5112 24.2604 74.4382 24.4304 74.2927 24.5736C74.1472 24.7168 73.9742 24.7884 73.7742 24.7884H72.7647C72.5647 24.7884 72.3917 24.7168 72.2462 24.5736C72.1007 24.4304 72.0282 24.2604 72.0282 24.0635V6.45171C72.0282 6.25481 72.1007 6.08481 72.2462 5.94161C72.3917 5.79841 72.5647 5.72681 72.7647 5.72681H73.7742C73.9742 5.72681 74.1472 5.79841 74.2927 5.94161C74.4382 6.08481 74.5112 6.25481 74.5112 6.45171V12.385C74.9112 11.8659 75.4572 11.4364 76.1482 11.0963C76.8577 10.7383 77.7217 10.5593 78.7402 10.5593C79.8862 10.5593 80.9052 10.801 81.7967 11.2842C82.6877 11.7675 83.3792 12.4655 83.8702 13.3783C84.3797 14.2732 84.6342 15.3382 84.6342 16.5731V24.0635Z" fill="var(--fill-0, white)"/>
<path id="Vector_5" d="M94.1954 10.5593C96.1419 10.5593 97.6789 11.1679 98.8069 12.385C99.9349 13.602 100.499 15.2576 100.499 17.3517V18.0766C100.499 18.2735 100.426 18.4435 100.28 18.5867C100.135 18.7299 99.9619 18.8014 99.7619 18.8014H90.3754V18.9625C90.4119 20.1438 90.7759 21.0745 91.4669 21.7546C92.1764 22.4169 93.0859 22.748 94.1954 22.748C95.1049 22.748 95.8054 22.6317 96.2964 22.399C96.8059 22.1663 97.2609 21.8352 97.6609 21.4056C97.8064 21.2624 97.9339 21.164 98.0429 21.1103C98.1704 21.0566 98.3339 21.0298 98.5339 21.0298H99.3529C99.5709 21.0298 99.7529 21.1014 99.8984 21.2445C100.044 21.3877 100.107 21.5578 100.089 21.7546C100.016 22.2379 99.7439 22.739 99.2709 23.2581C98.8159 23.7592 98.1519 24.1888 97.2789 24.5468C96.4239 24.8868 95.3964 25.0569 94.1954 25.0569C93.0314 25.0569 91.9944 24.7973 91.0849 24.2783C90.1754 23.7413 89.4479 23.0075 88.9019 22.0768C88.3744 21.1461 88.0564 20.0991 87.9469 18.9357C87.9109 18.3987 87.8924 17.9871 87.8924 17.7007C87.8924 17.4143 87.9109 17.0027 87.9469 16.4657C88.0564 15.356 88.3744 14.3538 88.9019 13.4588C89.4479 12.5639 90.1664 11.857 91.0579 11.3379C91.9674 10.8189 93.0134 10.5593 94.1954 10.5593ZM98.0429 16.5463V16.4657C98.0429 15.3739 97.6884 14.5059 96.9789 13.8616C96.2874 13.1993 95.3599 12.8682 94.1954 12.8682C93.1404 12.8682 92.2399 13.1993 91.4944 13.8616C90.7664 14.5238 90.3939 15.3918 90.3754 16.4657V16.5463H98.0429Z" fill="var(--fill-0, white)"/>
<path id="Vector_6" d="M106.272 12.385C106.708 11.8301 107.2 11.3916 107.745 11.0694C108.291 10.7294 109.019 10.5593 109.928 10.5593C112.057 10.5593 113.548 11.3379 114.403 12.8951C114.931 12.1433 115.531 11.5706 116.204 11.1768C116.877 10.7652 117.759 10.5593 118.851 10.5593C120.633 10.5593 121.952 11.0873 122.807 12.1433C123.68 13.1993 124.117 14.6938 124.117 16.6268V24.0635C124.117 24.2604 124.044 24.4304 123.899 24.5736C123.753 24.7168 123.58 24.7884 123.38 24.7884H122.371C122.171 24.7884 121.998 24.7168 121.852 24.5736C121.707 24.4304 121.634 24.2604 121.634 24.0635V16.8953C121.634 14.2106 120.561 12.8682 118.414 12.8682C117.432 12.8682 116.65 13.1904 116.068 13.8347C115.485 14.479 115.194 15.4366 115.194 16.7074V24.0635C115.194 24.2604 115.122 24.4304 114.976 24.5736C114.831 24.7168 114.658 24.7884 114.458 24.7884H113.448C113.248 24.7884 113.075 24.7168 112.93 24.5736C112.784 24.4304 112.711 24.2604 112.711 24.0635V16.8953C112.711 14.2106 111.638 12.8682 109.492 12.8682C108.509 12.8682 107.727 13.1904 107.145 13.8347C106.563 14.479 106.272 15.4366 106.272 16.7074V24.0635C106.272 24.2604 106.199 24.4304 106.054 24.5736C105.908 24.7168 105.735 24.7884 105.535 24.7884H104.526C104.325 24.7884 104.153 24.7168 104.007 24.5736C103.862 24.4304 103.789 24.2604 103.789 24.0635V11.5527C103.789 11.3558 103.862 11.1858 104.007 11.0426C104.153 10.8994 104.325 10.8278 104.526 10.8278H105.535C105.735 10.8278 105.908 10.8994 106.054 11.0426C106.199 11.1858 106.272 11.3558 106.272 11.5527V12.385Z" fill="var(--fill-0, white)"/>
<path id="Vector_7" d="M131.76 29.2446C131.596 29.6741 131.333 29.8889 130.969 29.8889H129.85C129.668 29.8889 129.513 29.8263 129.386 29.701C129.259 29.5757 129.195 29.4236 129.195 29.2446C129.195 29.173 129.204 29.1103 129.222 29.0566L131.842 23.4456L126.439 11.6596C126.421 11.6059 126.412 11.5433 126.412 11.4717C126.412 11.2927 126.476 11.1406 126.603 11.0153C126.73 10.89 126.885 10.8274 127.067 10.8274H128.186C128.549 10.8274 128.813 11.0421 128.977 11.4717L133.179 20.5998L137.436 11.4717C137.599 11.0421 137.863 10.8274 138.227 10.8274H139.346C139.528 10.8274 139.682 10.89 139.809 11.0153C139.937 11.1406 140 11.2927 140 11.4717C140 11.5433 139.991 11.6059 139.973 11.6596L131.76 29.2446Z" fill="var(--fill-0, white)"/>
<path id="Vector_8" d="M24.0872 15.9066L14.9251 0.365688C14.8807 0.28895 14.8165 0.225027 14.7388 0.18037C14.6612 0.135713 14.5729 0.111902 14.4829 0.111338C14.3928 0.110775 14.3042 0.133479 14.226 0.177161C14.1478 0.220842 14.0827 0.283956 14.0374 0.360133L11.2934 5.01685C11.2035 5.16925 11.1562 5.3422 11.1562 5.5182C11.1562 5.6942 11.2035 5.86715 11.2934 6.01955L17.2677 16.1579C17.3576 16.3105 17.4871 16.4372 17.6429 16.5252C17.7988 16.6132 17.9755 16.6595 18.1554 16.6593H23.6434C23.7332 16.659 23.8214 16.6357 23.8992 16.5916C23.9769 16.5475 24.0415 16.4841 24.0864 16.4079C24.1314 16.3318 24.1551 16.2454 24.1552 16.1574C24.1554 16.0694 24.1319 15.9829 24.0872 15.9066Z" fill="var(--fill-0, white)"/>
<path id="Vector_9" d="M0.07065 24.0288L9.2328 8.48795C9.27775 8.4118 9.3424 8.3486 9.4202 8.30465C9.49795 8.2607 9.58615 8.23755 9.67595 8.23755C9.76575 8.23755 9.854 8.2607 9.93175 8.30465C10.0096 8.3486 10.0741 8.4118 10.1191 8.48795L12.8645 13.1404C12.9544 13.2931 13.0016 13.4663 13.0016 13.6425C13.0016 13.8187 12.9544 13.9919 12.8645 14.1446L6.89015 24.2829C6.80055 24.4355 6.6714 24.5622 6.5158 24.6502C6.3602 24.7383 6.1836 24.7845 6.00385 24.7843H0.514505C0.424079 24.7847 0.335149 24.7617 0.256754 24.7176C0.17836 24.6734 0.113307 24.6098 0.068209 24.533C0.0231109 24.4563 -0.000424564 24.3691 5.79785e-06 24.2806C0.00043616 24.192 0.0248077 24.1051 0.07065 24.0288Z" fill="var(--fill-0, white)"/>
<path id="Vector_10" d="M10.1178 24.781H28.4422C28.532 24.7809 28.6203 24.7577 28.6981 24.7136C28.7759 24.6695 28.8405 24.6061 28.8853 24.5298C28.9302 24.4535 28.9537 24.367 28.9536 24.2789C28.9535 24.1909 28.9297 24.1044 28.8846 24.0283L26.1435 19.373C26.0535 19.2204 25.9241 19.0937 25.7683 19.0057C25.6124 18.9177 25.4356 18.8714 25.2557 18.8716H13.3071C13.1272 18.8714 12.9504 18.9177 12.7946 19.0057C12.6387 19.0937 12.5093 19.2204 12.4194 19.373L9.67545 24.0283C9.63035 24.1044 9.60655 24.1909 9.60645 24.2789C9.6063 24.367 9.6298 24.4535 9.67465 24.5298C9.7195 24.6061 9.7841 24.6695 9.8619 24.7136C9.9397 24.7577 10.0279 24.7809 10.1178 24.781Z" fill="var(--fill-0, white)"/>
</g>
<defs>
<clipPath id="clip0_0_73">
<rect width="140" height="30" fill="white"/>
</clipPath>
</defs>
</svg>
