<svg width="316" height="68" viewBox="0 0 316 68" fill="none" xmlns="http://www.w3.org/2000/svg">
<path d="M98.7854 35.7303V34.9433C98.7854 32.9655 98.1091 31.4519 96.7566 30.4024C95.4451 29.3126 93.7237 28.7677 91.5925 28.7677C89.953 28.7677 88.662 29.0502 87.7194 29.6153C86.8177 30.1401 85.957 30.9473 85.1373 32.0371C84.8914 32.36 84.625 32.582 84.3381 32.7031C84.0512 32.8242 83.6618 32.8847 83.17 32.8847H81.3257C80.8748 32.8847 80.465 32.7233 80.0961 32.4004C79.7682 32.0775 79.6248 31.694 79.6658 31.25C79.7887 30.0391 80.383 28.8484 81.4486 27.6779C82.5552 26.467 84.0102 25.4781 85.8135 24.7112C87.6169 23.9443 89.5432 23.5609 91.5925 23.5609C95.4041 23.5609 98.478 24.6103 100.814 26.7092C103.191 28.8081 104.38 31.7546 104.38 35.5487V54.0148C104.38 54.4588 104.216 54.8423 103.888 55.1652C103.56 55.4881 103.171 55.6496 102.72 55.6496H100.445C99.9944 55.6496 99.6051 55.4881 99.2772 55.1652C98.9493 54.8423 98.7854 54.4588 98.7854 54.0148V51.5325C98.1296 52.9856 96.7361 54.1359 94.6049 54.9836C92.4737 55.8312 90.3424 56.255 88.2112 56.255C86.1209 56.255 84.2561 55.8917 82.6167 55.1652C80.9773 54.3983 79.7067 53.369 78.8051 52.0774C77.9444 50.7858 77.514 49.3327 77.514 47.7182C77.514 44.691 78.6616 42.3297 80.9568 40.6345C83.252 38.8989 86.3054 37.7283 90.117 37.1229L98.7854 35.7303ZM98.7854 40.5739L91.531 41.7243C88.8669 42.1279 86.7972 42.7939 85.3217 43.7222C83.8462 44.6102 83.1085 45.7404 83.1085 47.1128C83.1085 48.1218 83.5798 49.03 84.5225 49.8373C85.4652 50.6445 86.8997 51.0482 88.826 51.0482C91.7769 51.0482 94.1745 50.2207 96.0189 48.5658C97.8632 46.9109 98.7854 44.7515 98.7854 42.0875V40.5739Z" fill="black"/>
<path d="M118.944 54.0148C118.944 54.4588 118.78 54.8423 118.452 55.1652C118.124 55.4881 117.735 55.6496 117.284 55.6496H115.009C114.558 55.6496 114.169 55.4881 113.841 55.1652C113.513 54.8423 113.349 54.4588 113.349 54.0148V14.2975C113.349 13.8535 113.513 13.4701 113.841 13.1472C114.169 12.8243 114.558 12.6628 115.009 12.6628H117.284C117.735 12.6628 118.124 12.8243 118.452 13.1472C118.78 13.4701 118.944 13.8535 118.944 14.2975V54.0148Z" fill="black"/>
<path d="M141.089 51.0482C145.187 51.0482 147.954 49.474 149.388 46.3257C149.675 45.7202 149.962 45.2964 150.249 45.0542C150.536 44.812 150.925 44.691 151.417 44.691H153.262C153.712 44.691 154.102 44.8524 154.43 45.1753C154.757 45.4579 154.921 45.8009 154.921 46.2046C154.921 47.5769 154.368 49.0502 153.262 50.6243C152.155 52.1985 150.556 53.5305 148.466 54.6203C146.376 55.7101 143.917 56.255 141.089 56.255C138.179 56.255 135.658 55.6496 133.527 54.4387C131.396 53.2278 129.756 51.5729 128.609 49.474C127.461 47.3348 126.826 44.9533 126.703 42.3297C126.662 41.8454 126.642 40.917 126.642 39.5447C126.642 38.5759 126.662 37.8898 126.703 37.4861C127.072 33.3691 128.486 30.019 130.945 27.4357C133.404 24.8525 136.785 23.5609 141.089 23.5609C143.917 23.5609 146.356 24.1058 148.405 25.1956C150.495 26.245 152.073 27.5568 153.139 29.131C154.245 30.6648 154.839 32.1178 154.921 33.4902C154.962 33.9342 154.798 34.3176 154.43 34.6405C154.102 34.9634 153.712 35.1249 153.262 35.1249H151.417C150.925 35.1249 150.536 35.0038 150.249 34.7616C149.962 34.5195 149.675 34.0956 149.388 33.4902C147.954 30.3419 145.187 28.7677 141.089 28.7677C138.835 28.7677 136.867 29.5144 135.187 31.0079C133.507 32.5013 132.543 34.7616 132.298 37.7889C132.257 38.2329 132.236 38.9594 132.236 39.9685C132.236 40.8968 132.257 41.583 132.298 42.027C132.584 45.0542 133.548 47.3146 135.187 48.808C136.867 50.3014 138.835 51.0482 141.089 51.0482Z" fill="black"/>
<path d="M190.682 54.0148C190.682 54.4588 190.518 54.8423 190.191 55.1652C189.863 55.4881 189.473 55.6496 189.022 55.6496H186.748C186.297 55.6496 185.908 55.4881 185.58 55.1652C185.252 54.8423 185.088 54.4588 185.088 54.0148V38.031C185.088 35.0038 184.33 32.7031 182.813 31.1289C181.297 29.5548 179.186 28.7677 176.481 28.7677C173.817 28.7677 171.706 29.5548 170.149 31.1289C168.632 32.7031 167.874 35.0038 167.874 38.031V54.0148C167.874 54.4588 167.71 54.8423 167.382 55.1652C167.054 55.4881 166.665 55.6496 166.214 55.6496H163.939C163.489 55.6496 163.099 55.4881 162.771 55.1652C162.444 54.8423 162.28 54.4588 162.28 54.0148V14.2975C162.28 13.8535 162.444 13.4701 162.771 13.1472C163.099 12.8243 163.489 12.6628 163.939 12.6628H166.214C166.665 12.6628 167.054 12.8243 167.382 13.1472C167.71 13.4701 167.874 13.8535 167.874 14.2975V27.6779C168.776 26.5074 170.005 25.5387 171.563 24.7717C173.161 23.9645 175.108 23.5609 177.403 23.5609C179.985 23.5609 182.28 24.1058 184.289 25.1956C186.297 26.2854 187.854 27.8595 188.961 29.9181C190.109 31.9362 190.682 34.3378 190.682 37.1229V54.0148Z" fill="black"/>
<path d="M212.226 23.5609C216.611 23.5609 220.074 24.9332 222.615 27.6779C225.156 30.4226 226.427 34.1562 226.427 38.8787V40.5134C226.427 40.9574 226.263 41.3408 225.935 41.6637C225.607 41.9866 225.218 42.1481 224.767 42.1481H203.619V42.5114C203.701 45.1753 204.52 47.2742 206.078 48.808C207.676 50.3014 209.725 51.0482 212.226 51.0482C214.275 51.0482 215.853 50.7858 216.959 50.2611C218.107 49.7364 219.132 48.9896 220.033 48.0209C220.361 47.698 220.648 47.476 220.894 47.3549C221.181 47.2338 221.55 47.1733 222.001 47.1733H223.845C224.337 47.1733 224.747 47.3348 225.074 47.6577C225.402 47.9806 225.546 48.364 225.505 48.808C225.341 49.8978 224.726 51.028 223.66 52.1985C222.636 53.3287 221.14 54.2974 219.173 55.1047C217.246 55.8716 214.931 56.255 212.226 56.255C209.602 56.255 207.266 55.6697 205.217 54.4992C203.168 53.2883 201.528 51.6334 200.299 49.5345C199.11 47.4357 198.393 45.0744 198.147 42.4508C198.065 41.2399 198.024 40.3116 198.024 39.6658C198.024 39.0199 198.065 38.0916 198.147 36.8807C198.393 34.3782 199.11 32.1178 200.299 30.0997C201.528 28.0815 203.147 26.4872 205.156 25.3167C207.205 24.1461 209.561 23.5609 212.226 23.5609ZM220.894 37.0623V36.8807C220.894 34.4185 220.095 32.4609 218.496 31.0079C216.939 29.5144 214.849 28.7677 212.226 28.7677C209.848 28.7677 207.82 29.5144 206.139 31.0079C204.5 32.5013 203.66 34.4589 203.619 36.8807V37.0623H220.894Z" fill="black"/>
<path d="M239.438 27.6779C240.422 26.4266 241.528 25.4377 242.758 24.7112C243.988 23.9443 245.627 23.5609 247.676 23.5609C252.471 23.5609 255.832 25.3167 257.759 28.8282C258.947 27.133 260.3 25.8414 261.816 24.9534C263.333 24.025 265.32 23.5609 267.779 23.5609C271.796 23.5609 274.767 24.7516 276.694 27.133C278.661 29.5144 279.645 32.8847 279.645 37.244V54.0148C279.645 54.4588 279.481 54.8423 279.153 55.1652C278.825 55.4881 278.436 55.6496 277.985 55.6496H275.71C275.259 55.6496 274.87 55.4881 274.542 55.1652C274.214 54.8423 274.05 54.4588 274.05 54.0148V37.8494C274.05 31.7949 271.632 28.7677 266.796 28.7677C264.583 28.7677 262.82 29.4942 261.509 30.9473C260.197 32.4004 259.541 34.5598 259.541 37.4256V54.0148C259.541 54.4588 259.378 54.8423 259.05 55.1652C258.722 55.4881 258.332 55.6496 257.882 55.6496H255.607C255.156 55.6496 254.767 55.4881 254.439 55.1652C254.111 54.8423 253.947 54.4588 253.947 54.0148V37.8494C253.947 31.7949 251.529 28.7677 246.693 28.7677C244.479 28.7677 242.717 29.4942 241.405 30.9473C240.094 32.4004 239.438 34.5598 239.438 37.4256V54.0148C239.438 54.4588 239.274 54.8423 238.946 55.1652C238.618 55.4881 238.229 55.6496 237.778 55.6496H235.504C235.053 55.6496 234.663 55.4881 234.336 55.1652C234.008 54.8423 233.844 54.4588 233.844 54.0148V25.801C233.844 25.357 234.008 24.9736 234.336 24.6507C234.663 24.3278 235.053 24.1663 235.504 24.1663H237.778C238.229 24.1663 238.618 24.3278 238.946 24.6507C239.274 24.9736 239.438 25.357 239.438 25.801V27.6779Z" fill="black"/>
<path d="M296.863 65.7C296.494 66.6687 295.9 67.153 295.08 67.153H292.559C292.15 67.153 291.801 67.0118 291.514 66.7292C291.227 66.4467 291.084 66.1036 291.084 65.7C291.084 65.5385 291.104 65.3972 291.145 65.2762L297.047 52.6223L284.875 26.0432C284.834 25.9221 284.813 25.7808 284.813 25.6194C284.813 25.2157 284.957 24.8727 285.244 24.5901C285.53 24.3076 285.879 24.1663 286.289 24.1663H288.809C289.629 24.1663 290.223 24.6507 290.592 25.6194L300.06 46.2046L309.65 25.6194C310.019 24.6507 310.613 24.1663 311.433 24.1663H313.954C314.364 24.1663 314.712 24.3076 314.999 24.5901C315.286 24.8727 315.429 25.2157 315.429 25.6194C315.429 25.7808 315.409 25.9221 315.368 26.0432L296.863 65.7Z" fill="black"/>
<path d="M54.2702 35.6207L33.6271 0.573622C33.5272 0.400565 33.3824 0.256409 33.2075 0.155701C33.0325 0.0549927 32.8336 0.00129377 32.6307 2.30874e-05C32.4278 -0.0012476 32.2282 0.0499544 32.052 0.148463C31.8758 0.246971 31.7292 0.389303 31.627 0.561094L25.4446 11.0627C25.2421 11.4065 25.1356 11.7964 25.1356 12.1933C25.1356 12.5903 25.2421 12.9802 25.4446 13.324L38.9052 36.1876C39.1079 36.5317 39.3995 36.8174 39.7506 37.0159C40.1018 37.2144 40.5 37.3187 40.9053 37.3183H53.2702C53.4726 37.3177 53.6713 37.265 53.8465 37.1655C54.0216 37.0661 54.1671 36.9233 54.2683 36.7515C54.3695 36.5796 54.423 36.3848 54.4233 36.1863C54.4236 35.9879 54.3708 35.7929 54.2702 35.6207Z" fill="black"/>
<path d="M0.15918 53.9376L20.8023 18.8905C20.9036 18.7189 21.0492 18.5763 21.2244 18.4772C21.3997 18.3781 21.5984 18.3259 21.8007 18.3259C22.0031 18.3259 22.2019 18.3781 22.3771 18.4772C22.5524 18.5763 22.6979 18.7189 22.7992 18.8905L28.9848 29.3827C29.1872 29.7271 29.2938 30.1175 29.2938 30.515C29.2938 30.9124 29.1872 31.3028 28.9848 31.6472L15.5241 54.5108C15.3222 54.8548 15.0313 55.1406 14.6806 55.3391C14.33 55.5376 13.9321 55.6419 13.5272 55.6414H1.15923C0.955485 55.6424 0.755118 55.5905 0.578489 55.491C0.401859 55.3914 0.25529 55.2478 0.15368 55.0747C0.0520708 54.9015 -0.000956578 54.7051 1.3063e-05 54.5054C0.000982704 54.3057 0.0558938 54.1098 0.15918 53.9376Z" fill="black"/>
<path d="M22.7962 55.6339H64.0824C64.285 55.6337 64.4839 55.5813 64.6592 55.4818C64.8345 55.3824 64.9799 55.2394 65.081 55.0674C65.182 54.8953 65.2351 54.7002 65.2348 54.5017C65.2345 54.3031 65.1809 54.1082 65.0793 53.9364L58.9033 43.4379C58.7006 43.0938 58.4091 42.8081 58.058 42.6097C57.7069 42.4112 57.3085 42.3069 56.9032 42.3073H29.9819C29.5765 42.3069 29.1783 42.4112 28.8272 42.6097C28.476 42.8081 28.1844 43.0938 27.9818 43.4379L21.7994 53.9364C21.6979 54.1082 21.6443 54.3031 21.644 54.5017C21.6437 54.7002 21.6967 54.8953 21.7977 55.0674C21.8987 55.2394 22.0443 55.3824 22.2195 55.4818C22.3948 55.5813 22.5937 55.6337 22.7962 55.6339Z" fill="black"/>
</svg>
