<svg width="315" height="67" viewBox="0 0 315 67" fill="none" xmlns="http://www.w3.org/2000/svg">
<path d="M98.651 35.6489V34.8636C98.651 32.8903 97.9756 31.3802 96.625 30.3331C95.3152 29.2458 93.5962 28.7021 91.4679 28.7021C89.8307 28.7021 88.5414 28.984 87.6 29.5478C86.6996 30.0714 85.84 30.8768 85.0215 31.9641C84.7759 32.2863 84.5098 32.5078 84.2233 32.6286C83.9368 32.7494 83.548 32.8098 83.0568 32.8098H81.215C80.7648 32.8098 80.3555 32.6487 79.9871 32.3265C79.6597 32.0044 79.5164 31.6218 79.5574 31.1788C79.6802 29.9707 80.2736 28.7827 81.3378 27.6148C82.4429 26.4067 83.8959 25.42 85.6968 24.6549C87.4977 23.8897 89.4214 23.5072 91.4679 23.5072C95.2743 23.5072 98.344 24.5542 100.677 26.6483C103.051 28.7424 104.238 31.6822 104.238 35.4677V53.8917C104.238 54.3347 104.074 54.7173 103.747 55.0395C103.419 55.3616 103.03 55.5227 102.58 55.5227H100.309C99.8584 55.5227 99.4696 55.3616 99.1421 55.0395C98.8147 54.7173 98.651 54.3347 98.651 53.8917V51.4151C97.9961 52.8648 96.6045 54.0126 94.4762 54.8583C92.3478 55.7039 90.2195 56.1268 88.0912 56.1268C86.0038 56.1268 84.1415 55.7644 82.5043 55.0395C80.8671 54.2743 79.5983 53.2474 78.6978 51.9587C77.8383 50.6701 77.4086 49.2203 77.4086 47.6094C77.4086 44.5891 78.5546 42.2332 80.8466 40.5419C83.1387 38.8102 86.1879 37.6423 89.9944 37.0383L98.651 35.6489ZM98.651 40.4814L91.4065 41.6292C88.746 42.0319 86.6791 42.6964 85.2056 43.6226C83.7322 44.5086 82.9954 45.6362 82.9954 47.0054C82.9954 48.0122 83.4661 48.9183 84.4075 49.7237C85.3489 50.5291 86.7814 50.9318 88.7051 50.9318C91.652 50.9318 94.0464 50.1063 95.8882 48.4551C97.7301 46.804 98.651 44.6495 98.651 41.9916V40.4814Z" fill="#0C0C0E"/>
<path d="M118.782 53.8917C118.782 54.3347 118.618 54.7173 118.291 55.0395C117.963 55.3616 117.575 55.5227 117.124 55.5227H114.853C114.403 55.5227 114.014 55.3616 113.686 55.0395C113.359 54.7173 113.195 54.3347 113.195 53.8917V14.2649C113.195 13.8219 113.359 13.4394 113.686 13.1172C114.014 12.795 114.403 12.6339 114.853 12.6339H117.124C117.575 12.6339 117.963 12.795 118.291 13.1172C118.618 13.4394 118.782 13.8219 118.782 14.2649V53.8917Z" fill="#0C0C0E"/>
<path d="M140.897 50.9318C144.99 50.9318 147.753 49.3612 149.185 46.2201C149.472 45.616 149.758 45.1932 150.045 44.9515C150.331 44.7099 150.72 44.5891 151.211 44.5891H153.053C153.503 44.5891 153.892 44.7502 154.219 45.0724C154.547 45.3543 154.711 45.6966 154.711 46.0993C154.711 47.4685 154.158 48.9384 153.053 50.509C151.948 52.0795 150.352 53.4085 148.264 54.4958C146.177 55.5831 143.721 56.1268 140.897 56.1268C137.991 56.1268 135.474 55.5227 133.345 54.3146C131.217 53.1065 129.58 51.4553 128.434 49.3612C127.288 47.2269 126.653 44.8509 126.531 42.2332C126.49 41.75 126.469 40.8238 126.469 39.4545C126.469 38.488 126.49 37.8034 126.531 37.4007C126.899 33.293 128.311 29.9505 130.767 27.3732C133.223 24.7958 136.599 23.5072 140.897 23.5072C143.721 23.5072 146.156 24.0508 148.203 25.1381C150.29 26.1852 151.866 27.494 152.93 29.0646C154.035 30.5949 154.629 32.0446 154.711 33.4139C154.752 33.8568 154.588 34.2394 154.219 34.5616C153.892 34.8838 153.503 35.0448 153.053 35.0448H151.211C150.72 35.0448 150.331 34.924 150.045 34.6824C149.758 34.4408 149.472 34.0179 149.185 33.4139C147.753 30.2727 144.99 28.7021 140.897 28.7021C138.646 28.7021 136.681 29.4472 135.003 30.9372C133.325 32.4272 132.363 34.6824 132.118 37.7027C132.077 38.1457 132.056 38.8706 132.056 39.8774C132.056 40.8036 132.077 41.4882 132.118 41.9312C132.404 44.9515 133.366 47.2067 135.003 48.6968C136.681 50.1868 138.646 50.9318 140.897 50.9318Z" fill="#0C0C0E"/>
<path d="M190.423 53.8917C190.423 54.3347 190.259 54.7173 189.932 55.0395C189.604 55.3616 189.215 55.5227 188.765 55.5227H186.494C186.043 55.5227 185.655 55.3616 185.327 55.0395C185 54.7173 184.836 54.3347 184.836 53.8917V37.9444C184.836 34.924 184.079 32.6286 182.564 31.058C181.05 29.4874 178.942 28.7021 176.241 28.7021C173.58 28.7021 171.473 29.4874 169.917 31.058C168.403 32.6286 167.646 34.924 167.646 37.9444V53.8917C167.646 54.3347 167.482 54.7173 167.155 55.0395C166.827 55.3616 166.438 55.5227 165.988 55.5227H163.716C163.266 55.5227 162.877 55.3616 162.55 55.0395C162.222 54.7173 162.059 54.3347 162.059 53.8917V14.2649C162.059 13.8219 162.222 13.4394 162.55 13.1172C162.877 12.795 163.266 12.6339 163.716 12.6339H165.988C166.438 12.6339 166.827 12.795 167.155 13.1172C167.482 13.4394 167.646 13.8219 167.646 14.2649V27.6148C168.546 26.447 169.774 25.4804 171.329 24.7153C172.926 23.9099 174.87 23.5072 177.162 23.5072C179.74 23.5072 182.032 24.0508 184.038 25.1381C186.043 26.2255 187.599 27.796 188.704 29.8499C189.85 31.8634 190.423 34.2596 190.423 37.0383V53.8917Z" fill="#0C0C0E"/>
<path d="M211.937 23.5072C216.316 23.5072 219.775 24.8764 222.312 27.6148C224.85 30.3533 226.119 34.0783 226.119 38.7901V40.421C226.119 40.864 225.955 41.2466 225.628 41.5688C225.3 41.8909 224.911 42.052 224.461 42.052H203.342V42.4145C203.423 45.0724 204.242 47.1665 205.797 48.6968C207.394 50.1868 209.44 50.9318 211.937 50.9318C213.983 50.9318 215.559 50.6701 216.664 50.1465C217.81 49.623 218.833 48.878 219.734 47.9115C220.061 47.5893 220.348 47.3678 220.593 47.247C220.88 47.1262 221.248 47.0658 221.698 47.0658H223.54C224.031 47.0658 224.441 47.2269 224.768 47.549C225.096 47.8712 225.239 48.2538 225.198 48.6968C225.034 49.7841 224.42 50.9117 223.356 52.0795C222.333 53.2071 220.839 54.1736 218.874 54.9791C216.951 55.7442 214.638 56.1268 211.937 56.1268C209.317 56.1268 206.984 55.5429 204.938 54.375C202.891 53.1669 201.254 51.5157 200.026 49.4216C198.839 47.3275 198.123 44.9717 197.878 42.3541C197.796 41.1459 197.755 40.2197 197.755 39.5753C197.755 38.931 197.796 38.0048 197.878 36.7966C198.123 34.2998 198.839 32.0446 200.026 30.0311C201.254 28.0175 202.871 26.4268 204.876 25.259C206.923 24.0911 209.276 23.5072 211.937 23.5072ZM220.593 36.9779V36.7966C220.593 34.3401 219.795 32.3869 218.199 30.9372C216.644 29.4472 214.556 28.7021 211.937 28.7021C209.563 28.7021 207.537 29.4472 205.859 30.9372C204.222 32.4272 203.383 34.3804 203.342 36.7966V36.9779H220.593Z" fill="#0C0C0E"/>
<path d="M239.112 27.6148C240.095 26.3664 241.2 25.3798 242.428 24.6549C243.656 23.8897 245.293 23.5072 247.339 23.5072C252.128 23.5072 255.484 25.2589 257.408 28.7625C258.595 27.0712 259.946 25.7825 261.46 24.8965C262.974 23.9703 264.959 23.5072 267.415 23.5072C271.426 23.5072 274.394 24.6952 276.317 27.0712C278.282 29.4471 279.264 32.8098 279.264 37.1591V53.8917C279.264 54.3347 279.101 54.7173 278.773 55.0395C278.446 55.3616 278.057 55.5227 277.607 55.5227H275.335C274.885 55.5227 274.496 55.3616 274.169 55.0395C273.841 54.7173 273.677 54.3347 273.677 53.8917V37.7631C273.677 31.7225 271.262 28.7021 266.433 28.7021C264.223 28.7021 262.463 29.427 261.153 30.8768C259.843 32.3265 259.188 34.481 259.188 37.3403V53.8917C259.188 54.3347 259.025 54.7173 258.697 55.0395C258.37 55.3616 257.981 55.5227 257.531 55.5227H255.259C254.809 55.5227 254.42 55.3616 254.093 55.0395C253.765 54.7173 253.601 54.3347 253.601 53.8917V37.7631C253.601 31.7225 251.187 28.7021 246.357 28.7021C244.147 28.7021 242.387 29.427 241.077 30.8768C239.767 32.3265 239.112 34.481 239.112 37.3403V53.8917C239.112 54.3347 238.949 54.7173 238.621 55.0395C238.294 55.3616 237.905 55.5227 237.455 55.5227H235.183C234.733 55.5227 234.344 55.3616 234.017 55.0395C233.689 54.7173 233.525 54.3347 233.525 53.8917V25.7422C233.525 25.2992 233.689 24.9166 234.017 24.5945C234.344 24.2723 234.733 24.1112 235.183 24.1112H237.455C237.905 24.1112 238.294 24.2723 238.621 24.5945C238.949 24.9166 239.112 25.2992 239.112 25.7422V27.6148Z" fill="#0C0C0E"/>
<path d="M296.459 65.5502C296.091 66.5168 295.497 67 294.679 67H292.161C291.752 67 291.404 66.8591 291.118 66.5772C290.831 66.2953 290.688 65.953 290.688 65.5502C290.688 65.3892 290.708 65.2482 290.749 65.1274L296.643 52.5024L284.487 25.9838C284.446 25.863 284.426 25.7221 284.426 25.561C284.426 25.1583 284.569 24.816 284.855 24.5341C285.142 24.2522 285.49 24.1112 285.899 24.1112H288.416C289.235 24.1112 289.828 24.5945 290.197 25.561L299.651 46.0993L309.229 25.561C309.597 24.5945 310.191 24.1112 311.009 24.1112H313.527C313.936 24.1112 314.284 24.2522 314.57 24.5341C314.857 24.816 315 25.1583 315 25.561C315 25.7221 314.98 25.863 314.939 25.9838L296.459 65.5502Z" fill="#0C0C0E"/>
<path d="M54.1964 35.5395L33.5814 0.572315C33.4816 0.399652 33.337 0.255825 33.1623 0.155346C32.9876 0.0548674 32.7889 0.00129082 32.5863 2.30348e-05C32.3837 -0.00124475 32.1844 0.0498405 32.0084 0.148125C31.8324 0.246409 31.686 0.388416 31.584 0.559815L25.41 11.0375C25.2078 11.3805 25.1014 11.7695 25.1014 12.1656C25.1014 12.5616 25.2078 12.9507 25.41 13.2936L38.8523 36.1051C39.0547 36.4484 39.3459 36.7335 39.6966 36.9315C40.0472 37.1296 40.4449 37.2336 40.8497 37.2332H53.1977C53.3999 37.2326 53.5983 37.1801 53.7732 37.0809C53.9481 36.9816 54.0934 36.8392 54.1945 36.6677C54.2956 36.4963 54.3489 36.3019 54.3493 36.1039C54.3496 35.9059 54.2969 35.7113 54.1964 35.5395Z" fill="#363FF9"/>
<path d="M0.158963 53.8147L20.774 18.8475C20.8751 18.6762 21.0206 18.534 21.1956 18.4351C21.3706 18.3362 21.569 18.2842 21.7711 18.2842C21.9731 18.2842 22.1716 18.3362 22.3467 18.4351C22.5217 18.534 22.667 18.6762 22.7682 18.8475L28.9454 29.3158C29.1475 29.6593 29.2539 30.0489 29.2539 30.4454C29.2539 30.8419 29.1475 31.2315 28.9454 31.5751L15.503 54.3866C15.3013 54.7298 15.0108 55.0149 14.6607 55.213C14.3105 55.4111 13.9131 55.5151 13.5088 55.5146H1.15765C0.954184 55.5156 0.754091 55.4638 0.577702 55.3645C0.401313 55.2652 0.254943 55.1219 0.153471 54.9492C0.0519999 54.7764 -0.000955276 54.5805 1.30453e-05 54.3812C0.000981367 54.1819 0.0558177 53.9865 0.158963 53.8147Z" fill="#363FF9"/>
<path d="M22.7652 55.5072H63.9953C64.1975 55.507 64.3962 55.4546 64.5712 55.3554C64.7463 55.2562 64.8915 55.1135 64.9924 54.9419C65.0933 54.7702 65.1463 54.5755 65.146 54.3775C65.1457 54.1794 65.0922 53.9849 64.9908 53.8135L58.8232 43.3389C58.6208 42.9956 58.3296 42.7106 57.979 42.5126C57.6283 42.3145 57.2306 42.2105 56.8258 42.2109H29.9411C29.5363 42.2105 29.1386 42.3145 28.7879 42.5126C28.4373 42.7106 28.1461 42.9956 27.9437 43.3389L21.7698 53.8135C21.6684 53.9849 21.6148 54.1794 21.6145 54.3775C21.6142 54.5755 21.6671 54.7702 21.768 54.9419C21.8689 55.1135 22.0143 55.2562 22.1893 55.3554C22.3644 55.4546 22.563 55.507 22.7652 55.5072Z" fill="#363FF9"/>
</svg>
