<svg width="210" height="64" viewBox="0 0 210 64" fill="none" xmlns="http://www.w3.org/2000/svg">
<g clip-path="url(#clip0_203_40)">
<path d="M119.1 27.1899H126.6V34.3699H119.1V27.1899Z" fill="white"/>
<path d="M24.49 16.91L27.58 9.54004H20.25L17.46 16.91H24.49Z" fill="white"/>
<path d="M16.5702 19.25L13.9502 26.17L11.2802 19.25H4.16016L10.6502 34.36H17.1802L23.5102 19.25H16.5702Z" fill="white"/>
<path d="M10.38 16.91L7.54 9.54004H0L3.16 16.91H10.38Z" fill="white"/>
<path d="M195.68 16.9099H202.76V14.9399H209.86V9.53995H202.64V3.06995H201.29L190.95 13.4899V14.9399H195.68V16.9099Z" fill="white"/>
<path d="M202.75 24.61V19.25H195.68V25.5C195.68 31.01 199.22 34.36 204.98 34.36H210.01V28.39H206.8C204.22 28.39 202.77 27.01 202.77 24.61H202.75Z" fill="white"/>
<path d="M170.73 16.91C171.87 15.41 173.61 14.57 175.8 14.57C177.99 14.57 179.82 15.38 181.04 16.91H188.4C186.5 12.19 181.87 8.83997 175.8 8.83997C169.73 8.83997 165.15 12.08 163.19 16.91H170.73Z" fill="white"/>
<path d="M182.27 19.25H162.49C162.32 20.12 162.23 21.02 162.23 21.95C162.23 29.39 168.08 35.06 175.8 35.06C181.88 35.06 186.88 31.61 188.79 26.2H181.35C180.27 27.98 178.26 29.08 175.8 29.08C172.37 29.08 170.02 27.22 169.41 23.83H189.22C189.31 23.18 189.36 22.52 189.36 21.86C189.36 20.97 189.27 20.09 189.11 19.24H182.29L182.27 19.25Z" fill="white"/>
<path d="M36.7002 16.91C37.8402 15.41 39.5802 14.57 41.7702 14.57C43.9602 14.57 45.7902 15.38 47.0102 16.91H54.3702C52.4702 12.19 47.8402 8.83997 41.7702 8.83997C35.7002 8.83997 31.1202 12.08 29.1602 16.91H36.6902H36.7002Z" fill="white"/>
<path d="M48.25 19.25H28.47C28.3 20.12 28.21 21.02 28.21 21.95C28.21 29.39 34.06 35.06 41.79 35.06C47.87 35.06 52.88 31.61 54.78 26.2H47.34C46.26 27.98 44.25 29.08 41.79 29.08C38.36 29.08 36.01 27.22 35.4 23.83H55.21C55.3 23.18 55.35 22.52 55.35 21.86C55.35 20.97 55.26 20.09 55.1 19.24H48.28L48.25 19.25Z" fill="white"/>
<path d="M132.88 19.25V34.36H139.95V21.32C139.95 20.57 140.03 19.89 140.18 19.25H132.88Z" fill="white"/>
<path d="M141.25 16.91C142.26 15.59 143.83 14.85 145.82 14.85C147.69 14.85 148.98 15.53 149.7 16.91H157.26C156.42 12.01 152.94 8.94995 147.78 8.94995C144.22 8.94995 141.09 10.37 139.11 12.61L137.73 9.53995H132.88V16.9H141.26L141.25 16.91Z" fill="white"/>
<path d="M150.33 19.25C150.37 19.62 150.39 20 150.39 20.41V34.36H157.47V19.25H150.34H150.33Z" fill="white"/>
<path d="M65.5097 0.599976H58.4297V16.91H65.5097V0.599976Z" fill="white"/>
<path d="M65.5097 19.25H58.4297V34.36H65.5097V19.25Z" fill="white"/>
<path d="M79.3798 9.55005H72.2998V16.91H79.3798V9.55005Z" fill="white"/>
<path d="M79.3596 0H72.3096V6.24H79.3596V0Z" fill="white"/>
<path d="M79.3798 19.25H72.2998V34.36H79.3798V19.25Z" fill="white"/>
<path d="M93.8004 16.91C95.0604 15.78 96.7804 15.11 98.7504 15.11C100.72 15.11 102.44 15.78 103.7 16.91H112.81V9.50997H107.53L106.77 11.88C104.51 9.96997 101.53 8.83997 98.1704 8.83997C92.1804 8.83997 87.3704 12.07 85.4004 16.91H93.8004Z" fill="white"/>
<path d="M105.35 19.25C105.69 20.06 105.87 20.96 105.87 21.92C105.87 25.82 102.86 28.72 98.7502 28.72C94.6402 28.72 91.6202 25.81 91.6202 21.92C91.6202 20.96 91.8002 20.06 92.1402 19.25H84.7102C84.5402 20.11 84.4502 20.99 84.4502 21.92C84.4502 29.43 90.3002 35.07 98.1802 35.07C101.48 35.07 104.41 33.98 106.66 32.11L107.27 34.33H112.82V19.26H105.37L105.35 19.25Z" fill="white"/>
<path d="M210 36V63.71H0V36H210ZM9.05176 48.7119V57.2803H10.1318V56.5C10.3283 56.7635 10.5763 56.9754 10.876 57.1357C11.228 57.3117 11.6198 57.4004 12.0518 57.4004C12.5718 57.4004 13.0401 57.2716 13.4561 57.0156C13.8799 56.7517 14.2122 56.3961 14.4521 55.9482C14.6921 55.5004 14.8115 54.9963 14.8115 54.4365C14.8115 53.8765 14.6921 53.3718 14.4521 52.9238C14.2122 52.476 13.8799 52.1204 13.4561 51.8564C13.0401 51.5924 12.5718 51.46 12.0518 51.46C11.6278 51.46 11.2397 51.5523 10.8877 51.7363C10.5868 51.8903 10.3348 52.0991 10.1318 52.3633V48.7119H9.05176ZM18.4609 51.46C17.933 51.46 17.4572 51.5925 17.0332 51.8564C16.6173 52.1204 16.2851 52.4759 16.0371 52.9238C15.7972 53.3717 15.6768 53.8757 15.6768 54.4355C15.6768 54.9955 15.7971 55.5002 16.0371 55.9482C16.2851 56.3961 16.6211 56.7517 17.0449 57.0156C17.4689 57.2716 17.9409 57.4004 18.4609 57.4004C18.9009 57.4004 19.289 57.3117 19.625 57.1357C19.923 56.9763 20.1665 56.7655 20.3564 56.5039V57.2803H21.4492V51.5801H20.3564V52.3594C20.16 52.097 19.9118 51.8895 19.6123 51.7363C19.2764 51.5524 18.8928 51.46 18.4609 51.46ZM30.2178 51.46C29.6658 51.46 29.1657 51.5925 28.7178 51.8564C28.2778 52.1124 27.9251 52.4641 27.6611 52.9121C27.4052 53.36 27.2774 53.864 27.2773 54.4238C27.2773 54.9918 27.4098 55.5002 27.6738 55.9482C27.9377 56.3959 28.2973 56.7517 28.7529 57.0156C29.2089 57.2716 29.7212 57.4003 30.2891 57.4004C30.7371 57.4004 31.1578 57.3164 31.5498 57.1484C31.9497 56.9804 32.2857 56.736 32.5576 56.416L31.8613 55.708C31.6693 55.932 31.437 56.0999 31.165 56.2119C30.9011 56.3238 30.609 56.3799 30.2891 56.3799C29.9052 56.3798 29.5655 56.2996 29.2695 56.1396C28.9736 55.9717 28.745 55.7403 28.585 55.4443C28.4871 55.2583 28.4198 55.054 28.3818 54.832H32.8457C32.8697 54.712 32.8856 54.6075 32.8936 54.5195C32.9015 54.4237 32.9053 54.3357 32.9053 54.2559C32.9053 53.7201 32.7894 53.2403 32.5576 52.8164C32.3336 52.3925 32.0173 52.0603 31.6094 51.8203C31.2095 51.5804 30.7456 51.46 30.2178 51.46ZM49.4131 51.46C48.8611 51.46 48.3611 51.5925 47.9131 51.8564C47.4731 52.1124 47.1204 52.4641 46.8564 52.9121C46.6005 53.36 46.4727 53.864 46.4727 54.4238C46.4727 54.9918 46.6051 55.5002 46.8691 55.9482C47.133 56.3959 47.4926 56.7517 47.9482 57.0156C48.4042 57.2716 48.9165 57.4003 49.4844 57.4004C49.9324 57.4004 50.3531 57.3164 50.7451 57.1484C51.145 56.9804 51.481 56.736 51.7529 56.416L51.0566 55.708C50.8646 55.932 50.6323 56.0999 50.3604 56.2119C50.0964 56.3238 49.8043 56.3799 49.4844 56.3799C49.1005 56.3798 48.7608 56.2996 48.4648 56.1396C48.1689 55.9717 47.9403 55.7403 47.7803 55.4443C47.6824 55.2583 47.6151 55.054 47.5771 54.832H52.041C52.065 54.712 52.0809 54.6075 52.0889 54.5195C52.0968 54.4237 52.1006 54.3357 52.1006 54.2559C52.1006 53.7201 51.9847 53.2403 51.7529 52.8164C51.529 52.3925 51.2126 52.0603 50.8047 51.8203C50.4048 51.5804 49.9409 51.46 49.4131 51.46ZM59.7695 51.46C59.2416 51.46 58.7658 51.5925 58.3418 51.8564C57.9259 52.1204 57.5937 52.4759 57.3457 52.9238C57.1058 53.3717 56.9854 53.8757 56.9854 54.4355C56.9854 54.9955 57.1057 55.5002 57.3457 55.9482C57.5937 56.3961 57.9296 56.7517 58.3535 57.0156C58.7775 57.2716 59.2495 57.4004 59.7695 57.4004C60.2095 57.4004 60.5976 57.3117 60.9336 57.1357C61.2316 56.9763 61.4751 56.7655 61.665 56.5039V57.2803H62.7578V51.5801H61.665V52.3594C61.4686 52.097 61.2204 51.8895 60.9209 51.7363C60.585 51.5524 60.2014 51.46 59.7695 51.46ZM71.3457 51.46C70.9219 51.46 70.5578 51.5282 70.2539 51.6641C69.9579 51.8 69.7256 51.996 69.5576 52.252C69.3897 52.4999 69.3057 52.7958 69.3057 53.1396C69.3057 53.4836 69.3775 53.7598 69.5215 53.9678C69.6735 54.1758 69.8657 54.34 70.0977 54.46C70.3295 54.5799 70.5733 54.6798 70.8291 54.7598C71.0931 54.8318 71.3413 54.9083 71.5732 54.9883C71.8052 55.0603 71.9937 55.1564 72.1377 55.2764C72.2894 55.3883 72.3652 55.5481 72.3652 55.7559C72.3652 55.9638 72.2737 56.1281 72.0898 56.248C71.9059 56.36 71.6455 56.416 71.3096 56.416C70.9736 56.416 70.6694 56.3563 70.3975 56.2363C70.1256 56.1084 69.8857 55.916 69.6777 55.6602L68.9814 56.3564C69.1574 56.5723 69.3656 56.76 69.6055 56.9199C69.8455 57.0719 70.1057 57.1923 70.3857 57.2803C70.6736 57.3602 70.978 57.4004 71.2979 57.4004C71.9377 57.4003 72.4454 57.2436 72.8213 56.9316C73.2052 56.6197 73.3974 56.196 73.3975 55.6602C73.3975 55.3082 73.3219 55.0236 73.1699 54.8076C73.0259 54.5916 72.8374 54.42 72.6055 54.292C72.3735 54.164 72.129 54.0642 71.873 53.9922C71.6173 53.9123 71.3697 53.8356 71.1299 53.7637C70.8979 53.6917 70.7094 53.604 70.5654 53.5C70.4214 53.396 70.3496 53.2477 70.3496 53.0557C70.3497 52.8638 70.4299 52.7163 70.5898 52.6123C70.7578 52.5004 70.9976 52.4443 71.3096 52.4443C71.6055 52.4444 71.8696 52.5003 72.1016 52.6123C72.3414 52.7243 72.5413 52.884 72.7012 53.0918L73.3975 52.3955C73.1735 52.0837 72.8851 51.8521 72.5332 51.7002C72.1893 51.5403 71.7935 51.46 71.3457 51.46ZM77.1748 51.46C76.6228 51.46 76.1228 51.5925 75.6748 51.8564C75.2348 52.1124 74.8822 52.4641 74.6182 52.9121C74.3623 53.36 74.2344 53.864 74.2344 54.4238C74.2344 54.9918 74.3669 55.5002 74.6309 55.9482C74.8947 56.3959 75.2543 56.7517 75.71 57.0156C76.1659 57.2716 76.6782 57.4003 77.2461 57.4004C77.6941 57.4004 78.1148 57.3164 78.5068 57.1484C78.9067 56.9804 79.2427 56.736 79.5146 56.416L78.8184 55.708C78.6264 55.932 78.3941 56.0999 78.1221 56.2119C77.8581 56.3238 77.566 56.3799 77.2461 56.3799C76.8622 56.3798 76.5225 56.2996 76.2266 56.1396C75.9306 55.9717 75.702 55.7403 75.542 55.4443C75.4441 55.2583 75.3769 55.054 75.3389 54.832H79.8027C79.8267 54.712 79.8426 54.6075 79.8506 54.5195C79.8586 54.4237 79.8623 54.3357 79.8623 54.2559C79.8623 53.7201 79.7465 53.2403 79.5146 52.8164C79.2907 52.3925 78.9743 52.0603 78.5664 51.8203C78.1665 51.5804 77.7026 51.46 77.1748 51.46ZM94.2256 51.46C93.6736 51.46 93.1736 51.5925 92.7256 51.8564C92.2856 52.1124 91.9329 52.4641 91.6689 52.9121C91.413 53.36 91.2852 53.864 91.2852 54.4238C91.2852 54.9918 91.4176 55.5002 91.6816 55.9482C91.9455 56.3959 92.3051 56.7517 92.7607 57.0156C93.2167 57.2716 93.729 57.4003 94.2969 57.4004C94.7449 57.4004 95.1656 57.3164 95.5576 57.1484C95.9575 56.9804 96.2935 56.736 96.5654 56.416L95.8691 55.708C95.6771 55.932 95.4448 56.0999 95.1729 56.2119C94.9089 56.3238 94.6168 56.3799 94.2969 56.3799C93.913 56.3798 93.5733 56.2996 93.2773 56.1396C92.9814 55.9717 92.7528 55.7403 92.5928 55.4443C92.4949 55.2583 92.4276 55.054 92.3896 54.832H96.8535C96.8775 54.712 96.8934 54.6075 96.9014 54.5195C96.9093 54.4237 96.9131 54.3357 96.9131 54.2559C96.9131 53.7201 96.7972 53.2403 96.5654 52.8164C96.3415 52.3925 96.0251 52.0603 95.6172 51.8203C95.2173 51.5804 94.7534 51.46 94.2256 51.46ZM104.639 51.46C104.215 51.46 103.851 51.5282 103.547 51.6641C103.251 51.8 103.019 51.996 102.851 52.252C102.683 52.4999 102.599 52.7958 102.599 53.1396C102.599 53.4836 102.671 53.7598 102.814 53.9678C102.966 54.1758 103.159 54.34 103.391 54.46C103.622 54.5799 103.866 54.6798 104.122 54.7598C104.386 54.8318 104.634 54.9083 104.866 54.9883C105.098 55.0603 105.287 55.1564 105.431 55.2764C105.582 55.3883 105.658 55.5481 105.658 55.7559C105.658 55.9638 105.567 56.1281 105.383 56.248C105.199 56.36 104.938 56.416 104.603 56.416C104.267 56.416 103.962 56.3563 103.69 56.2363C103.419 56.1084 103.179 55.916 102.971 55.6602L102.274 56.3564C102.45 56.5723 102.659 56.76 102.898 56.9199C103.138 57.0719 103.399 57.1923 103.679 57.2803C103.967 57.3602 104.271 57.4004 104.591 57.4004C105.231 57.4003 105.738 57.2436 106.114 56.9316C106.498 56.6197 106.69 56.196 106.69 55.6602C106.69 55.3082 106.615 55.0236 106.463 54.8076C106.319 54.5916 106.13 54.42 105.898 54.292C105.666 54.164 105.422 54.0642 105.166 53.9922C104.91 53.9123 104.663 53.8356 104.423 53.7637C104.191 53.6917 104.002 53.604 103.858 53.5C103.714 53.396 103.643 53.2477 103.643 53.0557C103.643 52.8638 103.723 52.7163 103.883 52.6123C104.051 52.5004 104.291 52.4443 104.603 52.4443C104.898 52.4444 105.163 52.5003 105.395 52.6123C105.634 52.7243 105.834 52.884 105.994 53.0918L106.69 52.3955C106.466 52.0837 106.178 51.8521 105.826 51.7002C105.482 51.5403 105.087 51.46 104.639 51.46ZM25.6484 51.46C25.0165 51.46 24.5323 51.6764 24.1963 52.1084C24.1622 52.1522 24.1312 52.1983 24.1006 52.2451V51.5801H23.0205V57.2803H24.1006V54.0283C24.1006 53.5085 24.2285 53.1203 24.4844 52.8643C24.7404 52.6083 25.0688 52.4795 25.4688 52.4795C25.6606 52.4795 25.8287 52.5075 25.9727 52.5635C26.1166 52.6194 26.2482 52.712 26.3682 52.8398L27.0762 52.1084C26.8762 51.8765 26.6606 51.7122 26.4287 51.6162C26.1967 51.5122 25.9364 51.46 25.6484 51.46ZM43.1787 51.46C42.7789 51.46 42.4111 51.5524 42.0752 51.7363C41.7393 51.9123 41.463 52.1597 41.2471 52.4795C41.2439 52.4843 41.2404 52.4893 41.2373 52.4941C41.2323 52.4855 41.2278 52.4763 41.2227 52.4678C41.0387 52.1479 40.783 51.8996 40.4551 51.7236C40.1351 51.5477 39.7749 51.46 39.375 51.46C38.9671 51.46 38.5994 51.5524 38.2715 51.7363C38.031 51.8654 37.8266 52.0328 37.6592 52.2393V51.5801H36.5791V57.2803H37.6592V53.8242C37.6592 53.5442 37.7236 53.3035 37.8516 53.1035C37.9795 52.9038 38.1477 52.7476 38.3555 52.6357C38.5634 52.5239 38.7996 52.4678 39.0635 52.4678C39.4553 52.4679 39.7792 52.5919 40.0352 52.8398C40.2992 53.0798 40.4307 53.4119 40.4307 53.8359V57.2803H41.5107V53.8242C41.5107 53.5442 41.5751 53.3035 41.7031 53.1035C41.8311 52.9037 41.9991 52.7477 42.207 52.6357C42.4229 52.5238 42.6629 52.4678 42.9268 52.4678C43.3106 52.4678 43.6308 52.592 43.8867 52.8398C44.1507 53.0798 44.2832 53.4119 44.2832 53.8359V57.2803H45.375V53.6201C45.375 53.1721 45.2752 52.7878 45.0752 52.4678C44.8832 52.1478 44.6229 51.8996 44.2949 51.7236C43.967 51.5477 43.5946 51.46 43.1787 51.46ZM53.9795 49.1924V51.5801H52.5752V52.5645H53.9795V57.2803H55.0596V52.5645H56.4629V51.5801H55.0596V49.1924H53.9795ZM64.3291 48.7119V57.2803H65.4092V48.7119H64.3291ZM83.668 51.46C83.036 51.46 82.5518 51.6764 82.2158 52.1084C82.1818 52.1522 82.1507 52.1983 82.1201 52.2451V51.5801H81.04V57.2803H82.1201V54.0283C82.1201 53.5085 82.248 53.1203 82.5039 52.8643C82.7599 52.6083 83.0883 52.4795 83.4883 52.4795C83.6802 52.4795 83.8483 52.5075 83.9922 52.5635C84.1361 52.6194 84.2678 52.712 84.3877 52.8398L85.0957 52.1084C84.8958 51.8765 84.6801 51.7122 84.4482 51.6162C84.2162 51.5122 83.956 51.46 83.668 51.46ZM85.0908 51.5801L87.707 57.2803H88.3428L90.959 51.5801H89.8066L88.043 55.5957L86.291 51.5801H85.0908ZM100.719 51.46C100.087 51.46 99.6026 51.6764 99.2666 52.1084C99.2326 52.1522 99.2015 52.1983 99.1709 52.2451V51.5801H98.0908V57.2803H99.1709V54.0283C99.1709 53.5085 99.2988 53.1203 99.5547 52.8643C99.8107 52.6083 100.139 52.4795 100.539 52.4795C100.731 52.4795 100.899 52.5075 101.043 52.5635C101.187 52.6194 101.319 52.712 101.438 52.8398L102.146 52.1084C101.947 51.8765 101.731 51.7122 101.499 51.6162C101.267 51.5122 101.007 51.46 100.719 51.46ZM11.8838 52.4805C12.2357 52.4805 12.5474 52.5645 12.8193 52.7324C13.0913 52.8924 13.3078 53.12 13.4678 53.416C13.6277 53.712 13.708 54.0479 13.708 54.4238C13.708 54.8078 13.6278 55.1483 13.4678 55.4443C13.3078 55.7322 13.0913 55.96 12.8193 56.1279C12.5475 56.2958 12.2318 56.3798 11.8721 56.3799C11.5201 56.3799 11.2038 56.2959 10.9238 56.1279C10.6519 55.96 10.4401 55.7322 10.2881 55.4443C10.1441 55.1485 10.0714 54.8123 10.0713 54.4365C10.0713 54.0525 10.1478 53.712 10.2998 53.416C10.4517 53.1202 10.6637 52.8924 10.9355 52.7324C11.2075 52.5644 11.5238 52.4805 11.8838 52.4805ZM18.6289 52.4795C18.9888 52.4795 19.3052 52.5644 19.5771 52.7324C19.8489 52.8924 20.0573 53.1202 20.2012 53.416C20.353 53.7039 20.4287 54.0438 20.4287 54.4355C20.4287 55.0035 20.2645 55.4718 19.9365 55.8398C19.6085 56.1998 19.1766 56.3799 18.6406 56.3799C18.2807 56.3799 17.9606 56.2959 17.6807 56.1279C17.4008 55.96 17.1805 55.7322 17.0205 55.4443C16.8685 55.1483 16.793 54.8078 16.793 54.4238C16.793 54.0479 16.8685 53.7157 17.0205 53.4277C17.1805 53.1318 17.397 52.9004 17.6689 52.7324C17.9489 52.5644 18.2689 52.4795 18.6289 52.4795ZM59.9375 52.4795C60.2974 52.4795 60.6138 52.5644 60.8857 52.7324C61.1575 52.8924 61.3659 53.1202 61.5098 53.416C61.6616 53.7039 61.7373 54.0438 61.7373 54.4355C61.7373 55.0035 61.5731 55.4718 61.2451 55.8398C60.9171 56.1998 60.4852 56.3799 59.9492 56.3799C59.5893 56.3799 59.2692 56.2959 58.9893 56.1279C58.7094 55.96 58.4891 55.7322 58.3291 55.4443C58.1771 55.1483 58.1016 54.8078 58.1016 54.4238C58.1016 54.0479 58.1771 53.7157 58.3291 53.4277C58.4891 53.1318 58.7056 52.9004 58.9775 52.7324C59.2575 52.5644 59.5775 52.4795 59.9375 52.4795ZM30.1934 52.4561C30.5454 52.4561 30.8458 52.5316 31.0938 52.6836C31.3415 52.8275 31.533 53.0359 31.6689 53.3076C31.7616 53.4875 31.8201 53.696 31.8496 53.9316H28.3838C28.4206 53.7258 28.4837 53.5379 28.5732 53.3682C28.7252 53.0802 28.9417 52.8563 29.2217 52.6963C29.5017 52.5363 29.8254 52.4561 30.1934 52.4561ZM49.3887 52.4561C49.7407 52.4561 50.0411 52.5316 50.2891 52.6836C50.5369 52.8275 50.7283 53.0359 50.8643 53.3076C50.9569 53.4875 51.0154 53.696 51.0449 53.9316H47.5791C47.6159 53.7258 47.679 53.5379 47.7686 53.3682C47.9206 53.0802 48.137 52.8563 48.417 52.6963C48.697 52.5363 49.0207 52.4561 49.3887 52.4561ZM77.1504 52.4561C77.5024 52.4561 77.8028 52.5316 78.0508 52.6836C78.2986 52.8275 78.49 53.0359 78.626 53.3076C78.7187 53.4875 78.7771 53.696 78.8066 53.9316H75.3408C75.3776 53.7258 75.4407 53.5379 75.5303 53.3682C75.6823 53.0802 75.8987 52.8563 76.1787 52.6963C76.4587 52.5363 76.7824 52.4561 77.1504 52.4561ZM94.2012 52.4561C94.5532 52.4561 94.8536 52.5316 95.1016 52.6836C95.3494 52.8275 95.5408 53.0359 95.6768 53.3076C95.7694 53.4875 95.8279 53.696 95.8574 53.9316H92.3916C92.4284 53.7258 92.4915 53.5379 92.5811 53.3682C92.7331 53.0802 92.9495 52.8563 93.2295 52.6963C93.5095 52.5363 93.8332 52.4561 94.2012 52.4561Z" fill="#24AEE4"/>
</g>
<defs>
<clipPath id="clip0_203_40">
<rect width="210" height="63.71" fill="white"/>
</clipPath>
</defs>
</svg>
