<svg width="210" height="64" viewBox="0 0 210.01 63.71" fill="none" xmlns="http://www.w3.org/2000/svg">
<path d="M119.1,27.19h7.5v7.18h-7.5s0-7.18,0-7.18Z" fill="white"/>
<path d="M24.49,16.91l3.09-7.37h-7.33l-2.79,7.37h7.03Z" fill="white"/>
<path d="M16.57,19.25l-2.62,6.92-2.67-6.92h-7.12l6.49,15.11h6.53l6.33-15.11h-6.94Z" fill="white"/>
<path d="M10.38,16.91l-2.84-7.37H0l3.16,7.37h7.22Z" fill="white"/>
<path d="M195.68,16.91h7.08v-1.97h7.1v-5.4h-7.22V3.07h-1.35l-10.34,10.42v1.45h4.73v1.97Z" fill="white"/>
<path d="M202.75,24.61v-5.36h-7.07v6.25c0,5.51,3.54,8.86,9.3,8.86h5.03v-5.97h-3.21c-2.58,0-4.03-1.38-4.03-3.78h-.02Z" fill="white"/>
<path d="M170.73,16.91c1.14-1.5,2.88-2.34,5.07-2.34s4.02.81,5.24,2.34h7.36c-1.9-4.72-6.53-8.07-12.6-8.07s-10.65,3.24-12.61,8.07h7.54Z" fill="white"/>
<path d="M182.27,19.25h-19.78c-.17.87-.26,1.77-.26,2.7,0,7.44,5.85,13.11,13.57,13.11,6.08,0,11.08-3.45,12.99-8.86h-7.44c-1.08,1.78-3.09,2.88-5.55,2.88-3.43,0-5.78-1.86-6.39-5.25h19.81c.09-.65.14-1.31.14-1.97,0-.89-.09-1.77-.25-2.62h-6.84Z" fill="white"/>
<path d="M36.7,16.91c1.14-1.5,2.88-2.34,5.07-2.34s4.02.81,5.24,2.34h7.36c-1.9-4.72-6.53-8.07-12.6-8.07s-10.65,3.24-12.61,8.07h7.54Z" fill="white"/>
<path d="M48.25,19.25h-19.78c-.17.87-.26,1.77-.26,2.7,0,7.44,5.85,13.11,13.58,13.11,6.08,0,11.09-3.45,12.99-8.86h-7.44c-1.08,1.78-3.09,2.88-5.55,2.88-3.43,0-5.78-1.86-6.39-5.25h19.81c.09-.65.14-1.31.14-1.97,0-.89-.09-1.77-.25-2.62h-6.85Z" fill="white"/>
<path d="M132.88,19.25v15.11h7.07v-13.04c0-.75.08-1.43.23-2.07h-7.3Z" fill="white"/>
<path d="M141.25,16.91c1.01-1.32,2.58-2.06,4.57-2.06,1.87,0,3.16.68,3.88,2.06h7.56c-.84-4.9-4.32-7.96-9.48-7.96-3.56,0-6.69,1.42-8.67,3.66l-1.38-3.07h-4.85v7.36h8.38-.01Z" fill="white"/>
<path d="M150.33,19.25c.04.37.06.75.06,1.16v13.95h7.08v-15.11h-7.14Z" fill="white"/>
<path d="M65.51.6h-7.08v16.31h7.08V.6Z" fill="white"/>
<path d="M65.51,19.25h-7.08v15.11h7.08v-15.11Z" fill="white"/>
<path d="M79.38,9.55h-7.08v7.36h7.08s0-7.36,0-7.36Z" fill="white"/>
<path d="M79.36,0h-7.05v6.24h7.05V0Z" fill="white"/>
<path d="M79.38,19.25h-7.08v15.11h7.08v-15.11Z" fill="white"/>
<path d="M93.8,16.91c1.26-1.13,2.98-1.8,4.95-1.8s3.69.67,4.95,1.8h9.11v-7.4h-5.28l-.76,2.37c-2.26-1.91-5.24-3.04-8.6-3.04-5.99,0-10.8,3.23-12.77,8.07h8.4Z" fill="white"/>
<path d="M105.35,19.25c.34.81.52,1.71.52,2.67,0,3.9-3.01,6.8-7.12,6.8s-7.13-2.91-7.13-6.8c0-.96.18-1.86.52-2.67h-7.43c-.17.86-.26,1.74-.26,2.67,0,7.51,5.85,13.15,13.73,13.15,3.3,0,6.23-1.09,8.48-2.96l.61,2.22h5.55v-15.07h-7.47Z" fill="white"/>
<path fill-rule="evenodd" clip-rule="evenodd" d="M0 36H210V63.71H0V36Z M10.13,57.28v-16.23h.72v8.12l-.23,2.59.23,2.66v2.87h-.72ZM15.47,57.51c-.81,0-1.55-.16-2.23-.47-.68-.31-1.25-.75-1.73-1.32-.47-.57-.8-1.23-.99-1.99v-3.66c.19-.79.52-1.47,1-2.03.48-.56,1.07-.99,1.75-1.28.68-.29,1.42-.44,2.19-.44,1.03,0,1.94.24,2.74.73.8.49,1.43,1.16,1.9,2,.47.85.7,1.81.7,2.88s-.23,2-.69,2.84c-.46.84-1.09,1.5-1.9,1.99-.81.49-1.73.73-2.75.73ZM15.33,56.84c.93,0,1.75-.21,2.46-.63.71-.42,1.26-1,1.67-1.75.4-.75.61-1.59.61-2.54s-.2-1.82-.61-2.55-.96-1.32-1.66-1.74-1.5-.63-2.4-.63-1.69.21-2.38.63c-.68.42-1.22,1-1.61,1.74s-.58,1.6-.58,2.58.19,1.79.57,2.53c.38.74.91,1.32,1.59,1.74.68.42,1.46.63,2.34.63Z M28.69,57.51c-1.06,0-2-.25-2.83-.73-.83-.49-1.49-1.15-1.97-1.99-.48-.84-.72-1.79-.72-2.84s.24-2.01.72-2.86c.48-.85,1.13-1.52,1.96-2.02.82-.5,1.76-.75,2.8-.75.82,0,1.57.15,2.23.45.66.3,1.21.73,1.66,1.29.44.56.75,1.23.92,2v3.66c-.19.78-.5,1.45-.94,2.02s-.99,1-1.63,1.31c-.64.3-1.37.46-2.18.46ZM28.78,56.84c1.34,0,2.4-.45,3.2-1.34.79-.89,1.19-2.08,1.19-3.56,0-1-.18-1.86-.55-2.6s-.88-1.31-1.55-1.73c-.67-.41-1.45-.62-2.33-.62-.93,0-1.76.21-2.48.64-.72.43-1.29,1.01-1.71,1.75s-.63,1.58-.63,2.53.21,1.79.63,2.53,1,1.32,1.74,1.75,1.57.64,2.51.64ZM33.14,57.28v-2.87l.21-2.66-.21-2.59v-2.61h.72v10.73h-.72Z M37.27,57.28v-10.73h.72v10.73h-.72ZM37.99,50.73l-.49-.14c0-1.37.36-2.42,1.08-3.16.72-.74,1.63-1.11,2.72-1.11.53,0,1.02.09,1.48.28.46.19.88.48,1.27.89l-.49.54c-.33-.36-.68-.61-1.06-.77-.38-.16-.82-.23-1.32-.23-.95,0-1.72.32-2.31.97-.59.65-.89,1.56-.89,2.74Z M51.19,57.51c-1.07,0-2.03-.25-2.88-.73-.85-.49-1.52-1.16-2.01-2.01s-.73-1.81-.73-2.88.24-2.01.71-2.85c.47-.84,1.13-1.5,1.96-1.99.83-.49,1.77-.73,2.81-.73.96,0,1.81.21,2.55.64.74.43,1.32,1.02,1.74,1.78s.63,1.64.63,2.63c0,.06,0,.16-.01.29,0,.13-.03.3-.06.5h-9.82v-.68h9.35l-.21.16c.06-.92-.08-1.73-.42-2.42-.34-.7-.84-1.25-1.48-1.64-.65-.4-1.41-.59-2.3-.59-.93,0-1.75.21-2.46.62-.71.41-1.26.98-1.66,1.7s-.59,1.57-.59,2.53.21,1.87.62,2.61c.41.75.99,1.33,1.74,1.75.75.42,1.62.63,2.61.63.75,0,1.43-.14,2.06-.42.63-.28,1.16-.7,1.6-1.26l.49.49c-.48.58-1.09,1.03-1.83,1.36-.74.33-1.54.5-2.41.5Z M64.27,57.28v-10.73h.72v10.73h-.72ZM71.92,57.28v-6.76c0-1.06-.31-1.91-.93-2.57-.62-.65-1.42-.98-2.4-.98-.65,0-1.25.15-1.8.44-.54.29-.98.7-1.31,1.22-.33.52-.49,1.13-.49,1.83l-.49-.02c0-.82.18-1.55.55-2.17.36-.62.86-1.1,1.49-1.45.63-.34,1.33-.51,2.11-.51s1.44.17,2.04.51,1.07.82,1.42,1.45c.35.62.52,1.35.52,2.19v6.81h-.72ZM79.57,57.28v-6.76c0-1.06-.31-1.91-.93-2.57-.62-.65-1.42-.98-2.4-.98-.65,0-1.25.15-1.8.44-.54.29-.98.7-1.31,1.22-.33.52-.49,1.13-.49,1.83l-.49-.02c0-.84.19-1.57.56-2.18.37-.61.87-1.09,1.5-1.43.63-.34,1.33-.51,2.09-.51s1.44.17,2.04.51c.6.34,1.07.83,1.42,1.46.35.63.52,1.36.52,2.2v6.79h-.72Z M88.71,57.51c-1.07,0-2.03-.25-2.88-.73-.85-.49-1.52-1.16-2.01-2.01s-.73-1.81-.73-2.88.24-2.01.71-2.85c.47-.84,1.13-1.5,1.96-1.99.83-.49,1.77-.73,2.81-.73.96,0,1.81.21,2.55.64.74.43,1.32,1.02,1.74,1.78s.63,1.64.63,2.63c0,.06,0,.16-.01.29,0,.13-.03.3-.06.5h-9.82v-.68h9.35l-.21.16c.06-.92-.08-1.73-.42-2.42-.34-.7-.84-1.25-1.48-1.64-.65-.4-1.41-.59-2.3-.59-.93,0-1.75.21-2.46.62-.71.41-1.26.98-1.66,1.7s-.59,1.57-.59,2.53.21,1.87.62,2.61c.41.75.99,1.33,1.74,1.75.75.42,1.62.63,2.61.63.75,0,1.43-.14,2.06-.42.63-.28,1.16-.7,1.6-1.26l.49.49c-.48.58-1.09,1.03-1.83,1.36-.74.33-1.54.5-2.41.5Z M95.28,47.18v-.63h6.39v.63h-6.39ZM98.13,57.28v-15.3h.72v15.3h-.72Z M109.09,57.51c-1.06,0-2-.25-2.83-.73-.83-.49-1.49-1.15-1.97-1.99-.48-.84-.72-1.79-.72-2.84s.24-2.01.72-2.86c.48-.85,1.13-1.52,1.96-2.02.82-.5,1.76-.75,2.8-.75.82,0,1.57.15,2.23.45.66.3,1.21.73,1.66,1.29.44.56.75,1.23.92,2v3.66c-.19.78-.5,1.45-.94,2.02-.44.57-.99,1-1.63,1.31-.65.3-1.37.46-2.18.46ZM109.18,56.84c1.34,0,2.4-.45,3.19-1.34.79-.89,1.19-2.08,1.19-3.56,0-1-.18-1.86-.55-2.6s-.88-1.31-1.55-1.73c-.67-.41-1.45-.62-2.33-.62-.93,0-1.76.21-2.48.64-.72.43-1.29,1.01-1.71,1.75-.42.74-.63,1.58-.63,2.53s.21,1.79.63,2.53c.42.74,1,1.32,1.74,1.75.74.43,1.57.64,2.51.64ZM113.54,57.28v-2.87l.21-2.66-.21-2.59v-2.61h.72v10.73h-.72Z M118,57.28v-16.23h.72v16.23h-.72Z M130.89,57.51c-.58,0-1.12-.08-1.62-.25-.51-.16-.96-.39-1.36-.68-.41-.29-.76-.62-1.07-.99l.49-.51c.47.61,1,1.05,1.61,1.34.61.29,1.27.43,1.98.43.89,0,1.59-.19,2.12-.57s.79-.91.79-1.57c0-.59-.15-1.06-.46-1.4-.3-.34-.7-.61-1.18-.79-.48-.19-.99-.36-1.53-.51-.54-.16-1.04-.34-1.53-.55-.48-.21-.87-.5-1.18-.89-.3-.38-.45-.9-.45-1.55,0-.53.14-1,.42-1.4.28-.4.68-.72,1.19-.96.51-.23,1.12-.35,1.82-.35.76,0,1.46.14,2.1.41.64.27,1.13.67,1.49,1.18l-.49.49c-.31-.44-.75-.78-1.31-1.04-.56-.26-1.18-.38-1.87-.38-.87,0-1.53.19-1.98.58-.45.39-.68.87-.68,1.45,0,.54.15.97.46,1.28.3.31.7.55,1.18.72.48.17.99.33,1.53.48s1.04.33,1.53.56c.48.23.87.54,1.18.93.3.4.45.94.45,1.64,0,.89-.33,1.59-.99,2.11-.66.52-1.54.78-2.65.78Z M142.46,57.51c-1.07,0-2.03-.25-2.88-.73-.85-.49-1.52-1.16-2.01-2.01-.49-.85-.73-1.81-.73-2.88s.24-2.01.71-2.85c.47-.84,1.13-1.5,1.96-1.99.83-.49,1.77-.73,2.81-.73.96,0,1.81.21,2.55.64.74.43,1.32,1.02,1.74,1.78s.63,1.64.63,2.63c0,.06,0,.16-.01.29,0,.13-.03.3-.06.5h-9.82v-.68h9.35l-.21.16c.06-.92-.08-1.73-.42-2.42-.34-.7-.84-1.25-1.48-1.64s-1.41-.59-2.3-.59c-.93,0-1.75.21-2.46.62-.71.41-1.26.98-1.66,1.7s-.59,1.57-.59,2.53.21,1.87.62,2.61c.41.75.99,1.33,1.74,1.75.75.42,1.62.63,2.61.63.75,0,1.43-.14,2.06-.42.63-.28,1.16-.7,1.6-1.26l.49.49c-.48.58-1.09,1.03-1.83,1.36-.74.33-1.54.5-2.41.5Z M150.64,57.28v-10.73h.72v10.73h-.72ZM151.36,50.73l-.49-.14c0-1.37.36-2.42,1.08-3.16s1.63-1.11,2.72-1.11c.53,0,1.02.09,1.48.28s.88.48,1.27.89l-.49.54c-.33-.36-.68-.61-1.06-.77s-.82-.23-1.32-.23c-.95,0-1.72.32-2.31.97-.59.65-.89,1.56-.89,2.74Z M163.69,57.28l-5.04-10.73h.79l4.66,10.07h-.4l4.69-10.07h.79l-5.08,10.73h-.42Z M176.7,57.51c-1.07,0-2.03-.25-2.88-.73-.85-.49-1.52-1.16-2.01-2.01-.49-.85-.73-1.81-.73-2.88s.24-2.01.71-2.85c.47-.84,1.13-1.5,1.96-1.99.83-.49,1.77-.73,2.81-.73.96,0,1.81.21,2.55.64.74.43,1.32,1.02,1.74,1.78s.63,1.64.63,2.63c0,.06,0,.16-.01.29,0,.13-.03.3-.06.5h-9.82v-.68h9.35l-.21.16c.06-.92-.08-1.73-.42-2.42-.34-.7-.84-1.25-1.48-1.64s-1.41-.59-2.3-.59c-.93,0-1.75.21-2.46.62-.71.41-1.26.98-1.66,1.7s-.59,1.57-.59,2.53.21,1.87.62,2.61c.41.75.99,1.33,1.74,1.75.75.42,1.62.63,2.61.63.75,0,1.43-.14,2.06-.42.63-.28,1.16-.7,1.6-1.26l.49.49c-.48.58-1.09,1.03-1.83,1.36-.74.33-1.54.5-2.41.5Z M184.21,57.28v-10.73h.72v10.73h-.72ZM184.93,50.73l-.49-.14c0-1.37.36-2.42,1.08-3.16s1.63-1.11,2.72-1.11c.53,0,1.02.09,1.48.28s.88.48,1.27.89l-.49.54c-.33-.36-.68-.61-1.06-.77-.38-.16-.82-.23-1.32-.23-.95,0-1.72.32-2.31.97-.59.65-.89,1.56-.89,2.74Z M196.4,57.51c-.58,0-1.12-.08-1.62-.25-.51-.16-.96-.39-1.36-.68-.41-.29-.76-.62-1.07-.99l.49-.51c.47.61,1,1.05,1.61,1.34.61.29,1.27.43,1.98.43.89,0,1.59-.19,2.12-.57.53-.38.79-.91.79-1.57,0-.59-.15-1.06-.46-1.4-.3-.34-.7-.61-1.18-.79-.48-.19-.99-.36-1.53-.51-.54-.16-1.04-.34-1.53-.55-.48-.21-.87-.5-1.18-.89-.3-.38-.45-.9-.45-1.55,0-.53.14-1,.42-1.4s.68-.72,1.19-.96c.51-.23,1.12-.35,1.82-.35.76,0,1.46.14,2.1.41.64.27,1.13.67,1.49,1.18l-.49.49c-.31-.44-.75-.78-1.31-1.04-.56-.26-1.18-.38-1.87-.38-.87,0-1.53.19-1.98.58s-.68.87-.68,1.45c0,.54.15.97.45,1.28.3.31.7.55,1.18.72.48.17.99.33,1.53.48s1.05.33,1.53.56.87.54,1.18.93.45.94.45,1.64c0,.89-.33,1.59-.99,2.11-.66.52-1.54.78-2.65.78Z" fill="white"/>
</svg>
