<svg width="143" height="23" viewBox="0 0 143 23" fill="none" xmlns="http://www.w3.org/2000/svg">
<path d="M14.3105 22.7803V21.3901H0.390137V22.7803H14.3105ZM26.4699 20V18.6099H27.86V17.2197H29.2501V15.8296H25.0702V17.2197H20.8903V15.8296H19.5001V13.7349H29.2501V8.85986H27.86V7.46973H26.4699V6.07959H19.5001V7.46973H18.11V8.85986H16.7199V17.2197H18.11V18.6099H19.5001V20H26.4699ZM19.5001 11.6497V10.25H20.8903V8.85986H25.0702V10.25H26.4699V11.6497H19.5001ZM34.4207 20V10.25H35.8108V8.85986H39.2957V10.25H40.6858V20H43.4756V8.85986H42.0855V7.46973H40.6858V6.07959H35.8108V7.46973H34.4207V6.07959H31.6404V20H34.4207ZM52.1501 20V17.2197H49.3698V8.16479H52.1501V6.07959H49.3698V1.89966H46.58V6.07959H44.4948V8.16479H46.58V18.6099H47.9701V20H52.1501ZM63.6143 20V18.6099H65.0045V17.2197H66.3946V15.8296H62.2147V17.2197H58.0347V15.8296H56.6446V13.7349H66.3946V8.85986H65.0045V7.46973H63.6143V6.07959H56.6446V7.46973H55.2545V8.85986H53.8643V17.2197H55.2545V18.6099H56.6446V20H63.6143ZM56.6446 11.6497V10.25H58.0347V8.85986H62.2147V10.25H63.6143V11.6497H56.6446ZM71.5651 20V10.25H72.9553V8.85986H76.4401V6.07959H72.9553V7.46973H71.5651V6.07959H68.7849V20H71.5651ZM93.0654 20V18.6099H94.4555V17.2197H95.8457V15.8296H91.6657V17.2197H87.4858V15.8296H86.0957V13.7349H95.8457V8.85986H94.4555V7.46973H93.0654V6.07959H86.0957V7.46973H84.7055V8.85986H83.3154V17.2197H84.7055V18.6099H86.0957V20H93.0654ZM86.0957 11.6497V10.25H87.4858V8.85986H91.6657V10.25H93.0654V11.6497H86.0957ZM101.016 20V10.25H102.406V8.85986H105.196V10.25H106.586V20H109.376V10.25H110.766V8.85986H113.556V10.25H114.946V20H117.736V8.85986H116.336V7.46973H114.946V6.07959H109.376V7.46973H106.586V6.07959H102.406V7.46973H101.016V6.07959H98.236V20H101.016ZM128.477 20V18.6099H129.876V20H132.657V8.85986H131.266V7.46973H129.876V6.07959H122.907V7.46973H121.516V8.85986H120.126V10.25H124.297V8.85986H128.477V10.25H129.876V11.6497H124.297V13.0398H121.516V14.4299H120.126V17.2197H121.516V18.6099H122.907V20H128.477ZM123.602 17.2197V14.4299H128.477V13.0398H129.876V15.8296H128.477V17.2197H123.602ZM137.827 3.98486V1.20459H135.047V3.98486H137.827ZM137.827 20V6.07959H135.047V20H137.827ZM142.998 20V0.5H140.217V20H142.998Z" fill="black"/>
<path d="M14.3105 22.7803V22.9303H14.4605V22.7803H14.3105ZM14.3105 21.3901H14.4605V21.2401H14.3105V21.3901ZM0.390137 21.3901V21.2401H0.240137V21.3901H0.390137ZM0.390137 22.7803H0.240137V22.9303H0.390137V22.7803ZM14.4605 22.7803V21.3901H14.1605V22.7803H14.4605ZM14.3105 21.2401H0.390137V21.5401H14.3105V21.2401ZM0.240137 21.3901V22.7803H0.540137V21.3901H0.240137ZM0.390137 22.9303H14.3105V22.6303H0.390137V22.9303ZM26.4699 20V20.15H26.6199V20H26.4699ZM26.4699 18.6099V18.4599H26.3199V18.6099H26.4699ZM27.86 18.6099V18.7599H28.01V18.6099H27.86ZM27.86 17.2197V17.0697H27.71V17.2197H27.86ZM29.2501 17.2197V17.3697H29.4001V17.2197H29.2501ZM29.2501 15.8296H29.4001V15.6796H29.2501V15.8296ZM25.0702 15.8296V15.6796H24.9202V15.8296H25.0702ZM25.0702 17.2197V17.3697H25.2202V17.2197H25.0702ZM20.8903 17.2197H20.7403V17.3697H20.8903V17.2197ZM20.8903 15.8296H21.0403V15.6796H20.8903V15.8296ZM19.5001 15.8296H19.3501V15.9796H19.5001V15.8296ZM19.5001 13.7349V13.5849H19.3501V13.7349H19.5001ZM29.2501 13.7349V13.8849H29.4001V13.7349H29.2501ZM29.2501 8.85986H29.4001V8.70986H29.2501V8.85986ZM27.86 8.85986H27.71V9.00986H27.86V8.85986ZM27.86 7.46973H28.01V7.31973H27.86V7.46973ZM26.4699 7.46973H26.3199V7.61973H26.4699V7.46973ZM26.4699 6.07959H26.6199V5.92959H26.4699V6.07959ZM19.5001 6.07959V5.92959H19.3501V6.07959H19.5001ZM19.5001 7.46973V7.61973H19.6501V7.46973H19.5001ZM18.11 7.46973V7.31973H17.96V7.46973H18.11ZM18.11 8.85986V9.00986H18.26V8.85986H18.11ZM16.7199 8.85986V8.70986H16.5699V8.85986H16.7199ZM16.7199 17.2197H16.5699V17.3697H16.7199V17.2197ZM18.11 17.2197H18.26V17.0697H18.11V17.2197ZM18.11 18.6099H17.96V18.7599H18.11V18.6099ZM19.5001 18.6099H19.6501V18.4599H19.5001V18.6099ZM19.5001 20H19.3501V20.15H19.5001V20ZM19.5001 11.6497H19.3501V11.7997H19.5001V11.6497ZM19.5001 10.25V10.1H19.3501V10.25H19.5001ZM20.8903 10.25V10.4H21.0403V10.25H20.8903ZM20.8903 8.85986V8.70986H20.7403V8.85986H20.8903ZM25.0702 8.85986H25.2202V8.70986H25.0702V8.85986ZM25.0702 10.25H24.9202V10.4H25.0702V10.25ZM26.4699 10.25H26.6199V10.1H26.4699V10.25ZM26.4699 11.6497V11.7997H26.6199V11.6497H26.4699ZM26.6199 20V18.6099H26.3199V20H26.6199ZM26.4699 18.7599H27.86V18.4599H26.4699V18.7599ZM28.01 18.6099V17.2197H27.71V18.6099H28.01ZM27.86 17.3697H29.2501V17.0697H27.86V17.3697ZM29.4001 17.2197V15.8296H29.1001V17.2197H29.4001ZM29.2501 15.6796H25.0702V15.9796H29.2501V15.6796ZM24.9202 15.8296V17.2197H25.2202V15.8296H24.9202ZM25.0702 17.0697H20.8903V17.3697H25.0702V17.0697ZM21.0403 17.2197V15.8296H20.7403V17.2197H21.0403ZM20.8903 15.6796H19.5001V15.9796H20.8903V15.6796ZM19.6501 15.8296V13.7349H19.3501V15.8296H19.6501ZM19.5001 13.8849H29.2501V13.5849H19.5001V13.8849ZM29.4001 13.7349V8.85986H29.1001V13.7349H29.4001ZM29.2501 8.70986H27.86V9.00986H29.2501V8.70986ZM28.01 8.85986V7.46973H27.71V8.85986H28.01ZM27.86 7.31973H26.4699V7.61973H27.86V7.31973ZM26.6199 7.46973V6.07959H26.3199V7.46973H26.6199ZM26.4699 5.92959H19.5001V6.22959H26.4699V5.92959ZM19.3501 6.07959V7.46973H19.6501V6.07959H19.3501ZM19.5001 7.31973H18.11V7.61973H19.5001V7.31973ZM17.96 7.46973V8.85986H18.26V7.46973H17.96ZM18.11 8.70986H16.7199V9.00986H18.11V8.70986ZM16.5699 8.85986V17.2197H16.8699V8.85986H16.5699ZM16.7199 17.3697H18.11V17.0697H16.7199V17.3697ZM17.96 17.2197V18.6099H18.26V17.2197H17.96ZM18.11 18.7599H19.5001V18.4599H18.11V18.7599ZM19.3501 18.6099V20H19.6501V18.6099H19.3501ZM19.5001 20.15H26.4699V19.85H19.5001V20.15ZM19.6501 11.6497V10.25H19.3501V11.6497H19.6501ZM19.5001 10.4H20.8903V10.1H19.5001V10.4ZM21.0403 10.25V8.85986H20.7403V10.25H21.0403ZM20.8903 9.00986H25.0702V8.70986H20.8903V9.00986ZM24.9202 8.85986V10.25H25.2202V8.85986H24.9202ZM25.0702 10.4H26.4699V10.1H25.0702V10.4ZM26.3199 10.25V11.6497H26.6199V10.25H26.3199ZM26.4699 11.4997H19.5001V11.7997H26.4699V11.4997ZM34.4207 20V20.15H34.5707V20H34.4207ZM34.4207 10.25V10.1H34.2707V10.25H34.4207ZM35.8108 10.25V10.4H35.9608V10.25H35.8108ZM35.8108 8.85986V8.70986H35.6608V8.85986H35.8108ZM39.2957 8.85986H39.4457V8.70986H39.2957V8.85986ZM39.2957 10.25H39.1457V10.4H39.2957V10.25ZM40.6858 10.25H40.8358V10.1H40.6858V10.25ZM40.6858 20H40.5358V20.15H40.6858V20ZM43.4756 20V20.15H43.6256V20H43.4756ZM43.4756 8.85986H43.6256V8.70986H43.4756V8.85986ZM42.0855 8.85986H41.9355V9.00986H42.0855V8.85986ZM42.0855 7.46973H42.2355V7.31973H42.0855V7.46973ZM40.6858 7.46973H40.5358V7.61973H40.6858V7.46973ZM40.6858 6.07959H40.8358V5.92959H40.6858V6.07959ZM35.8108 6.07959V5.92959H35.6608V6.07959H35.8108ZM35.8108 7.46973V7.61973H35.9608V7.46973H35.8108ZM34.4207 7.46973H34.2707V7.61973H34.4207V7.46973ZM34.4207 6.07959H34.5707V5.92959H34.4207V6.07959ZM31.6404 6.07959V5.92959H31.4904V6.07959H31.6404ZM31.6404 20H31.4904V20.15H31.6404V20ZM34.5707 20V10.25H34.2707V20H34.5707ZM34.4207 10.4H35.8108V10.1H34.4207V10.4ZM35.9608 10.25V8.85986H35.6608V10.25H35.9608ZM35.8108 9.00986H39.2957V8.70986H35.8108V9.00986ZM39.1457 8.85986V10.25H39.4457V8.85986H39.1457ZM39.2957 10.4H40.6858V10.1H39.2957V10.4ZM40.5358 10.25V20H40.8358V10.25H40.5358ZM40.6858 20.15H43.4756V19.85H40.6858V20.15ZM43.6256 20V8.85986H43.3256V20H43.6256ZM43.4756 8.70986H42.0855V9.00986H43.4756V8.70986ZM42.2355 8.85986V7.46973H41.9355V8.85986H42.2355ZM42.0855 7.31973H40.6858V7.61973H42.0855V7.31973ZM40.8358 7.46973V6.07959H40.5358V7.46973H40.8358ZM40.6858 5.92959H35.8108V6.22959H40.6858V5.92959ZM35.6608 6.07959V7.46973H35.9608V6.07959H35.6608ZM35.8108 7.31973H34.4207V7.61973H35.8108V7.31973ZM34.5707 7.46973V6.07959H34.2707V7.46973H34.5707ZM34.4207 5.92959H31.6404V6.22959H34.4207V5.92959ZM31.4904 6.07959V20H31.7904V6.07959H31.4904ZM31.6404 20.15H34.4207V19.85H31.6404V20.15ZM52.1501 20V20.15H52.3001V20H52.1501ZM52.1501 17.2197H52.3001V17.0697H52.1501V17.2197ZM49.3698 17.2197H49.2198V17.3697H49.3698V17.2197ZM49.3698 8.16479V8.0148H49.2198V8.16479H49.3698ZM52.1501 8.16479V8.31479H52.3001V8.16479H52.1501ZM52.1501 6.07959H52.3001V5.92959H52.1501V6.07959ZM49.3698 6.07959H49.2198V6.22959H49.3698V6.07959ZM49.3698 1.89966H49.5198V1.74966H49.3698V1.89966ZM46.58 1.89966V1.74966H46.43V1.89966H46.58ZM46.58 6.07959V6.22959H46.73V6.07959H46.58ZM44.4948 6.07959V5.92959H44.3448V6.07959H44.4948ZM44.4948 8.16479H44.3448V8.31479H44.4948V8.16479ZM46.58 8.16479H46.73V8.0148H46.58V8.16479ZM46.58 18.6099H46.43V18.7599H46.58V18.6099ZM47.9701 18.6099H48.1201V18.4599H47.9701V18.6099ZM47.9701 20H47.8201V20.15H47.9701V20ZM52.3001 20V17.2197H52.0001V20H52.3001ZM52.1501 17.0697H49.3698V17.3697H52.1501V17.0697ZM49.5198 17.2197V8.16479H49.2198V17.2197H49.5198ZM49.3698 8.31479H52.1501V8.0148H49.3698V8.31479ZM52.3001 8.16479V6.07959H52.0001V8.16479H52.3001ZM52.1501 5.92959H49.3698V6.22959H52.1501V5.92959ZM49.5198 6.07959V1.89966H49.2198V6.07959H49.5198ZM49.3698 1.74966H46.58V2.04966H49.3698V1.74966ZM46.43 1.89966V6.07959H46.73V1.89966H46.43ZM46.58 5.92959H44.4948V6.22959H46.58V5.92959ZM44.3448 6.07959V8.16479H44.6448V6.07959H44.3448ZM44.4948 8.31479H46.58V8.0148H44.4948V8.31479ZM46.43 8.16479V18.6099H46.73V8.16479H46.43ZM46.58 18.7599H47.9701V18.4599H46.58V18.7599ZM47.8201 18.6099V20H48.1201V18.6099H47.8201ZM47.9701 20.15H52.1501V19.85H47.9701V20.15ZM63.6143 20V20.15H63.7643V20H63.6143ZM63.6143 18.6099V18.4599H63.4643V18.6099H63.6143ZM65.0045 18.6099V18.7599H65.1544V18.6099H65.0045ZM65.0045 17.2197V17.0697H64.8545V17.2197H65.0045ZM66.3946 17.2197V17.3697H66.5446V17.2197H66.3946ZM66.3946 15.8296H66.5446V15.6796H66.3946V15.8296ZM62.2147 15.8296V15.6796H62.0647V15.8296H62.2147ZM62.2147 17.2197V17.3697H62.3647V17.2197H62.2147ZM58.0347 17.2197H57.8847V17.3697H58.0347V17.2197ZM58.0347 15.8296H58.1847V15.6796H58.0347V15.8296ZM56.6446 15.8296H56.4946V15.9796H56.6446V15.8296ZM56.6446 13.7349V13.5849H56.4946V13.7349H56.6446ZM66.3946 13.7349V13.8849H66.5446V13.7349H66.3946ZM66.3946 8.85986H66.5446V8.70986H66.3946V8.85986ZM65.0045 8.85986H64.8545V9.00986H65.0045V8.85986ZM65.0045 7.46973H65.1544V7.31973H65.0045V7.46973ZM63.6143 7.46973H63.4643V7.61973H63.6143V7.46973ZM63.6143 6.07959H63.7643V5.92959H63.6143V6.07959ZM56.6446 6.07959V5.92959H56.4946V6.07959H56.6446ZM56.6446 7.46973V7.61973H56.7946V7.46973H56.6446ZM55.2545 7.46973V7.31973H55.1045V7.46973H55.2545ZM55.2545 8.85986V9.00986H55.4045V8.85986H55.2545ZM53.8643 8.85986V8.70986H53.7143V8.85986H53.8643ZM53.8643 17.2197H53.7143V17.3697H53.8643V17.2197ZM55.2545 17.2197H55.4045V17.0697H55.2545V17.2197ZM55.2545 18.6099H55.1045V18.7599H55.2545V18.6099ZM56.6446 18.6099H56.7946V18.4599H56.6446V18.6099ZM56.6446 20H56.4946V20.15H56.6446V20ZM56.6446 11.6497H56.4946V11.7997H56.6446V11.6497ZM56.6446 10.25V10.1H56.4946V10.25H56.6446ZM58.0347 10.25V10.4H58.1847V10.25H58.0347ZM58.0347 8.85986V8.70986H57.8847V8.85986H58.0347ZM62.2147 8.85986H62.3647V8.70986H62.2147V8.85986ZM62.2147 10.25H62.0647V10.4H62.2147V10.25ZM63.6143 10.25H63.7643V10.1H63.6143V10.25ZM63.6143 11.6497V11.7997H63.7643V11.6497H63.6143ZM63.7643 20V18.6099H63.4643V20H63.7643ZM63.6143 18.7599H65.0045V18.4599H63.6143V18.7599ZM65.1544 18.6099V17.2197H64.8545V18.6099H65.1544ZM65.0045 17.3697H66.3946V17.0697H65.0045V17.3697ZM66.5446 17.2197V15.8296H66.2446V17.2197H66.5446ZM66.3946 15.6796H62.2147V15.9796H66.3946V15.6796ZM62.0647 15.8296V17.2197H62.3647V15.8296H62.0647ZM62.2147 17.0697H58.0347V17.3697H62.2147V17.0697ZM58.1847 17.2197V15.8296H57.8847V17.2197H58.1847ZM58.0347 15.6796H56.6446V15.9796H58.0347V15.6796ZM56.7946 15.8296V13.7349H56.4946V15.8296H56.7946ZM56.6446 13.8849H66.3946V13.5849H56.6446V13.8849ZM66.5446 13.7349V8.85986H66.2446V13.7349H66.5446ZM66.3946 8.70986H65.0045V9.00986H66.3946V8.70986ZM65.1544 8.85986V7.46973H64.8545V8.85986H65.1544ZM65.0045 7.31973H63.6143V7.61973H65.0045V7.31973ZM63.7643 7.46973V6.07959H63.4643V7.46973H63.7643ZM63.6143 5.92959H56.6446V6.22959H63.6143V5.92959ZM56.4946 6.07959V7.46973H56.7946V6.07959H56.4946ZM56.6446 7.31973H55.2545V7.61973H56.6446V7.31973ZM55.1045 7.46973V8.85986H55.4045V7.46973H55.1045ZM55.2545 8.70986H53.8643V9.00986H55.2545V8.70986ZM53.7143 8.85986V17.2197H54.0143V8.85986H53.7143ZM53.8643 17.3697H55.2545V17.0697H53.8643V17.3697ZM55.1045 17.2197V18.6099H55.4045V17.2197H55.1045ZM55.2545 18.7599H56.6446V18.4599H55.2545V18.7599ZM56.4946 18.6099V20H56.7946V18.6099H56.4946ZM56.6446 20.15H63.6143V19.85H56.6446V20.15ZM56.7946 11.6497V10.25H56.4946V11.6497H56.7946ZM56.6446 10.4H58.0347V10.1H56.6446V10.4ZM58.1847 10.25V8.85986H57.8847V10.25H58.1847ZM58.0347 9.00986H62.2147V8.70986H58.0347V9.00986ZM62.0647 8.85986V10.25H62.3647V8.85986H62.0647ZM62.2147 10.4H63.6143V10.1H62.2147V10.4ZM63.4643 10.25V11.6497H63.7643V10.25H63.4643ZM63.6143 11.4997H56.6446V11.7997H63.6143V11.4997ZM71.5651 20V20.15H71.7151V20H71.5651ZM71.5651 10.25V10.1H71.4151V10.25H71.5651ZM72.9553 10.25V10.4H73.1053V10.25H72.9553ZM72.9553 8.85986V8.70986H72.8053V8.85986H72.9553ZM76.4401 8.85986V9.00986H76.5901V8.85986H76.4401ZM76.4401 6.07959H76.5901V5.92959H76.4401V6.07959ZM72.9553 6.07959V5.92959H72.8053V6.07959H72.9553ZM72.9553 7.46973V7.61973H73.1053V7.46973H72.9553ZM71.5651 7.46973H71.4151V7.61973H71.5651V7.46973ZM71.5651 6.07959H71.7151V5.92959H71.5651V6.07959ZM68.7849 6.07959V5.92959H68.6349V6.07959H68.7849ZM68.7849 20H68.6349V20.15H68.7849V20ZM71.7151 20V10.25H71.4151V20H71.7151ZM71.5651 10.4H72.9553V10.1H71.5651V10.4ZM73.1053 10.25V8.85986H72.8053V10.25H73.1053ZM72.9553 9.00986H76.4401V8.70986H72.9553V9.00986ZM76.5901 8.85986V6.07959H76.2901V8.85986H76.5901ZM76.4401 5.92959H72.9553V6.22959H76.4401V5.92959ZM72.8053 6.07959V7.46973H73.1053V6.07959H72.8053ZM72.9553 7.31973H71.5651V7.61973H72.9553V7.31973ZM71.7151 7.46973V6.07959H71.4151V7.46973H71.7151ZM71.5651 5.92959H68.7849V6.22959H71.5651V5.92959ZM68.6349 6.07959V20H68.9349V6.07959H68.6349ZM68.7849 20.15H71.5651V19.85H68.7849V20.15ZM93.0654 20V20.15H93.2154V20H93.0654ZM93.0654 18.6099V18.4599H92.9154V18.6099H93.0654ZM94.4555 18.6099V18.7599H94.6055V18.6099H94.4555ZM94.4555 17.2197V17.0697H94.3055V17.2197H94.4555ZM95.8457 17.2197V17.3697H95.9957V17.2197H95.8457ZM95.8457 15.8296H95.9957V15.6796H95.8457V15.8296ZM91.6657 15.8296V15.6796H91.5157V15.8296H91.6657ZM91.6657 17.2197V17.3697H91.8158V17.2197H91.6657ZM87.4858 17.2197H87.3358V17.3697H87.4858V17.2197ZM87.4858 15.8296H87.6358V15.6796H87.4858V15.8296ZM86.0957 15.8296H85.9457V15.9796H86.0957V15.8296ZM86.0957 13.7349V13.5849H85.9457V13.7349H86.0957ZM95.8457 13.7349V13.8849H95.9957V13.7349H95.8457ZM95.8457 8.85986H95.9957V8.70986H95.8457V8.85986ZM94.4555 8.85986H94.3055V9.00986H94.4555V8.85986ZM94.4555 7.46973H94.6055V7.31973H94.4555V7.46973ZM93.0654 7.46973H92.9154V7.61973H93.0654V7.46973ZM93.0654 6.07959H93.2154V5.92959H93.0654V6.07959ZM86.0957 6.07959V5.92959H85.9457V6.07959H86.0957ZM86.0957 7.46973V7.61973H86.2457V7.46973H86.0957ZM84.7055 7.46973V7.31973H84.5555V7.46973H84.7055ZM84.7055 8.85986V9.00986H84.8555V8.85986H84.7055ZM83.3154 8.85986V8.70986H83.1654V8.85986H83.3154ZM83.3154 17.2197H83.1654V17.3697H83.3154V17.2197ZM84.7055 17.2197H84.8555V17.0697H84.7055V17.2197ZM84.7055 18.6099H84.5555V18.7599H84.7055V18.6099ZM86.0957 18.6099H86.2457V18.4599H86.0957V18.6099ZM86.0957 20H85.9457V20.15H86.0957V20ZM86.0957 11.6497H85.9457V11.7997H86.0957V11.6497ZM86.0957 10.25V10.1H85.9457V10.25H86.0957ZM87.4858 10.25V10.4H87.6358V10.25H87.4858ZM87.4858 8.85986V8.70986H87.3358V8.85986H87.4858ZM91.6657 8.85986H91.8158V8.70986H91.6657V8.85986ZM91.6657 10.25H91.5157V10.4H91.6657V10.25ZM93.0654 10.25H93.2154V10.1H93.0654V10.25ZM93.0654 11.6497V11.7997H93.2154V11.6497H93.0654ZM93.2154 20V18.6099H92.9154V20H93.2154ZM93.0654 18.7599H94.4555V18.4599H93.0654V18.7599ZM94.6055 18.6099V17.2197H94.3055V18.6099H94.6055ZM94.4555 17.3697H95.8457V17.0697H94.4555V17.3697ZM95.9957 17.2197V15.8296H95.6957V17.2197H95.9957ZM95.8457 15.6796H91.6657V15.9796H95.8457V15.6796ZM91.5157 15.8296V17.2197H91.8158V15.8296H91.5157ZM91.6657 17.0697H87.4858V17.3697H91.6657V17.0697ZM87.6358 17.2197V15.8296H87.3358V17.2197H87.6358ZM87.4858 15.6796H86.0957V15.9796H87.4858V15.6796ZM86.2457 15.8296V13.7349H85.9457V15.8296H86.2457ZM86.0957 13.8849H95.8457V13.5849H86.0957V13.8849ZM95.9957 13.7349V8.85986H95.6957V13.7349H95.9957ZM95.8457 8.70986H94.4555V9.00986H95.8457V8.70986ZM94.6055 8.85986V7.46973H94.3055V8.85986H94.6055ZM94.4555 7.31973H93.0654V7.61973H94.4555V7.31973ZM93.2154 7.46973V6.07959H92.9154V7.46973H93.2154ZM93.0654 5.92959H86.0957V6.22959H93.0654V5.92959ZM85.9457 6.07959V7.46973H86.2457V6.07959H85.9457ZM86.0957 7.31973H84.7055V7.61973H86.0957V7.31973ZM84.5555 7.46973V8.85986H84.8555V7.46973H84.5555ZM84.7055 8.70986H83.3154V9.00986H84.7055V8.70986ZM83.1654 8.85986V17.2197H83.4654V8.85986H83.1654ZM83.3154 17.3697H84.7055V17.0697H83.3154V17.3697ZM84.5555 17.2197V18.6099H84.8555V17.2197H84.5555ZM84.7055 18.7599H86.0957V18.4599H84.7055V18.7599ZM85.9457 18.6099V20H86.2457V18.6099H85.9457ZM86.0957 20.15H93.0654V19.85H86.0957V20.15ZM86.2457 11.6497V10.25H85.9457V11.6497H86.2457ZM86.0957 10.4H87.4858V10.1H86.0957V10.4ZM87.6358 10.25V8.85986H87.3358V10.25H87.6358ZM87.4858 9.00986H91.6657V8.70986H87.4858V9.00986ZM91.5157 8.85986V10.25H91.8158V8.85986H91.5157ZM91.6657 10.4H93.0654V10.1H91.6657V10.4ZM92.9154 10.25V11.6497H93.2154V10.25H92.9154ZM93.0654 11.4997H86.0957V11.7997H93.0654V11.4997ZM101.016 20V20.15H101.166V20H101.016ZM101.016 10.25V10.1H100.866V10.25H101.016ZM102.406 10.25V10.4H102.556V10.25H102.406ZM102.406 8.85986V8.70986H102.256V8.85986H102.406ZM105.196 8.85986H105.346V8.70986H105.196V8.85986ZM105.196 10.25H105.046V10.4H105.196V10.25ZM106.586 10.25H106.736V10.1H106.586V10.25ZM106.586 20H106.436V20.15H106.586V20ZM109.376 20V20.15H109.526V20H109.376ZM109.376 10.25V10.1H109.226V10.25H109.376ZM110.766 10.25V10.4H110.916V10.25H110.766ZM110.766 8.85986V8.70986H110.616V8.85986H110.766ZM113.556 8.85986H113.706V8.70986H113.556V8.85986ZM113.556 10.25H113.406V10.4H113.556V10.25ZM114.946 10.25H115.096V10.1H114.946V10.25ZM114.946 20H114.796V20.15H114.946V20ZM117.736 20V20.15H117.886V20H117.736ZM117.736 8.85986H117.886V8.70986H117.736V8.85986ZM116.336 8.85986H116.186V9.00986H116.336V8.85986ZM116.336 7.46973H116.486V7.31973H116.336V7.46973ZM114.946 7.46973H114.796V7.61973H114.946V7.46973ZM114.946 6.07959H115.096V5.92959H114.946V6.07959ZM109.376 6.07959V5.92959H109.226V6.07959H109.376ZM109.376 7.46973V7.61973H109.526V7.46973H109.376ZM106.586 7.46973H106.436V7.61973H106.586V7.46973ZM106.586 6.07959H106.736V5.92959H106.586V6.07959ZM102.406 6.07959V5.92959H102.256V6.07959H102.406ZM102.406 7.46973V7.61973H102.556V7.46973H102.406ZM101.016 7.46973H100.866V7.61973H101.016V7.46973ZM101.016 6.07959H101.166V5.92959H101.016V6.07959ZM98.236 6.07959V5.92959H98.086V6.07959H98.236ZM98.236 20H98.086V20.15H98.236V20ZM101.166 20V10.25H100.866V20H101.166ZM101.016 10.4H102.406V10.1H101.016V10.4ZM102.556 10.25V8.85986H102.256V10.25H102.556ZM102.406 9.00986H105.196V8.70986H102.406V9.00986ZM105.046 8.85986V10.25H105.346V8.85986H105.046ZM105.196 10.4H106.586V10.1H105.196V10.4ZM106.436 10.25V20H106.736V10.25H106.436ZM106.586 20.15H109.376V19.85H106.586V20.15ZM109.526 20V10.25H109.226V20H109.526ZM109.376 10.4H110.766V10.1H109.376V10.4ZM110.916 10.25V8.85986H110.616V10.25H110.916ZM110.766 9.00986H113.556V8.70986H110.766V9.00986ZM113.406 8.85986V10.25H113.706V8.85986H113.406ZM113.556 10.4H114.946V10.1H113.556V10.4ZM114.796 10.25V20H115.096V10.25H114.796ZM114.946 20.15H117.736V19.85H114.946V20.15ZM117.886 20V8.85986H117.586V20H117.886ZM117.736 8.70986H116.336V9.00986H117.736V8.70986ZM116.486 8.85986V7.46973H116.186V8.85986H116.486ZM116.336 7.31973H114.946V7.61973H116.336V7.31973ZM115.096 7.46973V6.07959H114.796V7.46973H115.096ZM114.946 5.92959H109.376V6.22959H114.946V5.92959ZM109.226 6.07959V7.46973H109.526V6.07959H109.226ZM109.376 7.31973H106.586V7.61973H109.376V7.31973ZM106.736 7.46973V6.07959H106.436V7.46973H106.736ZM106.586 5.92959H102.406V6.22959H106.586V5.92959ZM102.256 6.07959V7.46973H102.556V6.07959H102.256ZM102.406 7.31973H101.016V7.61973H102.406V7.31973ZM101.166 7.46973V6.07959H100.866V7.46973H101.166ZM101.016 5.92959H98.236V6.22959H101.016V5.92959ZM98.086 6.07959V20H98.386V6.07959H98.086ZM98.236 20.15H101.016V19.85H98.236V20.15ZM128.477 20V20.15H128.627V20H128.477ZM128.477 18.6099V18.4599H128.327V18.6099H128.477ZM129.876 18.6099H130.026V18.4599H129.876V18.6099ZM129.876 20H129.726V20.15H129.876V20ZM132.656 20V20.15H132.807V20H132.656ZM132.656 8.85986H132.807V8.70986H132.656V8.85986ZM131.266 8.85986H131.116V9.00986H131.266V8.85986ZM131.266 7.46973H131.416V7.31973H131.266V7.46973ZM129.876 7.46973H129.726V7.61973H129.876V7.46973ZM129.876 6.07959H130.026V5.92959H129.876V6.07959ZM122.907 6.07959V5.92959H122.757V6.07959H122.907ZM122.907 7.46973V7.61973H123.057V7.46973H122.907ZM121.516 7.46973V7.31973H121.366V7.46973H121.516ZM121.516 8.85986V9.00986H121.666V8.85986H121.516ZM120.126 8.85986V8.70986H119.976V8.85986H120.126ZM120.126 10.25H119.976V10.4H120.126V10.25ZM124.297 10.25V10.4H124.447V10.25H124.297ZM124.297 8.85986V8.70986H124.147V8.85986H124.297ZM128.477 8.85986H128.627V8.70986H128.477V8.85986ZM128.477 10.25H128.327V10.4H128.477V10.25ZM129.876 10.25H130.026V10.1H129.876V10.25ZM129.876 11.6497V11.7997H130.026V11.6497H129.876ZM124.297 11.6497V11.4997H124.147V11.6497H124.297ZM124.297 13.0398V13.1898H124.447V13.0398H124.297ZM121.516 13.0398V12.8898H121.366V13.0398H121.516ZM121.516 14.4299V14.5799H121.666V14.4299H121.516ZM120.126 14.4299V14.2799H119.976V14.4299H120.126ZM120.126 17.2197H119.976V17.3697H120.126V17.2197ZM121.516 17.2197H121.666V17.0697H121.516V17.2197ZM121.516 18.6099H121.366V18.7599H121.516V18.6099ZM122.907 18.6099H123.057V18.4599H122.907V18.6099ZM122.907 20H122.757V20.15H122.907V20ZM123.602 17.2197H123.452V17.3697H123.602V17.2197ZM123.602 14.4299V14.2799H123.452V14.4299H123.602ZM128.477 14.4299V14.5799H128.627V14.4299H128.477ZM128.477 13.0398V12.8898H128.327V13.0398H128.477ZM129.876 13.0398H130.026V12.8898H129.876V13.0398ZM129.876 15.8296V15.9796H130.026V15.8296H129.876ZM128.477 15.8296V15.6796H128.327V15.8296H128.477ZM128.477 17.2197V17.3697H128.627V17.2197H128.477ZM128.627 20V18.6099H128.327V20H128.627ZM128.477 18.7599H129.876V18.4599H128.477V18.7599ZM129.726 18.6099V20H130.026V18.6099H129.726ZM129.876 20.15H132.656V19.85H129.876V20.15ZM132.807 20V8.85986H132.507V20H132.807ZM132.656 8.70986H131.266V9.00986H132.656V8.70986ZM131.416 8.85986V7.46973H131.116V8.85986H131.416ZM131.266 7.31973H129.876V7.61973H131.266V7.31973ZM130.026 7.46973V6.07959H129.726V7.46973H130.026ZM129.876 5.92959H122.907V6.22959H129.876V5.92959ZM122.757 6.07959V7.46973H123.057V6.07959H122.757ZM122.907 7.31973H121.516V7.61973H122.907V7.31973ZM121.366 7.46973V8.85986H121.666V7.46973H121.366ZM121.516 8.70986H120.126V9.00986H121.516V8.70986ZM119.976 8.85986V10.25H120.276V8.85986H119.976ZM120.126 10.4H124.297V10.1H120.126V10.4ZM124.447 10.25V8.85986H124.147V10.25H124.447ZM124.297 9.00986H128.477V8.70986H124.297V9.00986ZM128.327 8.85986V10.25H128.627V8.85986H128.327ZM128.477 10.4H129.876V10.1H128.477V10.4ZM129.726 10.25V11.6497H130.026V10.25H129.726ZM129.876 11.4997H124.297V11.7997H129.876V11.4997ZM124.147 11.6497V13.0398H124.447V11.6497H124.147ZM124.297 12.8898H121.516V13.1898H124.297V12.8898ZM121.366 13.0398V14.4299H121.666V13.0398H121.366ZM121.516 14.2799H120.126V14.5799H121.516V14.2799ZM119.976 14.4299V17.2197H120.276V14.4299H119.976ZM120.126 17.3697H121.516V17.0697H120.126V17.3697ZM121.366 17.2197V18.6099H121.666V17.2197H121.366ZM121.516 18.7599H122.907V18.4599H121.516V18.7599ZM122.757 18.6099V20H123.057V18.6099H122.757ZM122.907 20.15H128.477V19.85H122.907V20.15ZM123.752 17.2197V14.4299H123.452V17.2197H123.752ZM123.602 14.5799H128.477V14.2799H123.602V14.5799ZM128.627 14.4299V13.0398H128.327V14.4299H128.627ZM128.477 13.1898H129.876V12.8898H128.477V13.1898ZM129.726 13.0398V15.8296H130.026V13.0398H129.726ZM129.876 15.6796H128.477V15.9796H129.876V15.6796ZM128.327 15.8296V17.2197H128.627V15.8296H128.327ZM128.477 17.0697H123.602V17.3697H128.477V17.0697ZM137.827 3.98486V4.13486H137.977V3.98486H137.827ZM137.827 1.20459H137.977V1.05459H137.827V1.20459ZM135.047 1.20459V1.05459H134.897V1.20459H135.047ZM135.047 3.98486H134.897V4.13486H135.047V3.98486ZM137.827 20V20.15H137.977V20H137.827ZM137.827 6.07959H137.977V5.92959H137.827V6.07959ZM135.047 6.07959V5.92959H134.897V6.07959H135.047ZM135.047 20H134.897V20.15H135.047V20ZM137.977 3.98486V1.20459H137.677V3.98486H137.977ZM137.827 1.05459H135.047V1.35459H137.827V1.05459ZM134.897 1.20459V3.98486H135.197V1.20459H134.897ZM135.047 4.13486H137.827V3.83486H135.047V4.13486ZM137.977 20V6.07959H137.677V20H137.977ZM137.827 5.92959H135.047V6.22959H137.827V5.92959ZM134.897 6.07959V20H135.197V6.07959H134.897ZM135.047 20.15H137.827V19.85H135.047V20.15ZM142.998 20V20.15H143.148V20H142.998ZM142.998 0.5H143.148V0.35H142.998V0.5ZM140.217 0.5V0.35H140.067V0.5H140.217ZM140.217 20H140.067V20.15H140.217V20ZM143.148 20V0.5H142.848V20H143.148ZM142.998 0.35H140.217V0.65H142.998V0.35ZM140.067 0.5V20H140.367V0.5H140.067ZM140.217 20.15H142.998V19.85H140.217V20.15Z" fill="black"/>
</svg>
