<svg width="13" height="21" viewBox="0 0 13 21" fill="none" xmlns="http://www.w3.org/2000/svg">
<path d="M1.00072 19.2977V1.12466H2.98655V2.82485H4.67098V4.5237H6.35407V6.23466H8.04916V7.93485H9.73359V9.6337H11.3193V10.7887H9.73359V12.4889H8.04916V14.1877H6.35407V15.8987H4.67098V17.5975H2.98655V19.2977H1.00072Z" fill="black"/>
<path d="M3.67026 3.83478V5.53363H5.35335V7.24459H7.04844V8.94478H8.73287V11.4796H7.04844V13.1784H5.35335V14.8894H3.67026V16.5882H2.0005V3.83478H3.67026ZM3.98634 0.115356H0V20.3077H3.98634V18.6075H5.67076V16.9086H7.35385V15.1977H9.04895V13.4988H10.7334V11.7986H12.3191V8.6244H10.7334V6.92555H9.04895V5.22536H7.35385V3.51439H5.67076V1.81555H3.98634V0.115356Z" fill="black"/>
</svg>
