<svg xmlns="http://www.w3.org/2000/svg" width="313" height="201" viewBox="0 0 313 201" fill="currentColor"><path d="M227.299 115.645h53.592v24.49h-14.007v14.072h-14.007v13.992h-52.248v-13.992H186.53v-14.072h-14.006V60.05h14.006V45.965h14.099v-13.98h52.261l-.013 13.98h14.007v14.058h45.982v-17.98H298.86V28.064h-14.099V14.085h-14.007V0H182.66v14.085h-13.993v13.98H154.66v13.978h-14.007v116.085h14.007v13.979h14.007v13.992h13.993v13.979H256.748v-13.979h14.006v-13.992h10.137v27.971h31.975V84.993h-85.567v30.652Z"/><path d="M86.957 115.645h53.592v24.49h-14.007v14.072h-14.007v13.992H60.287v-13.992H46.188v-14.072H32.182V60.05h14.006V45.965h14.1v-13.98h52.247v13.98h14.007v14.058h45.982v-17.98h-14.007V28.064h-14.111V14.085h-13.994V0H42.318v14.085H28.312v13.98H14.304v13.978H.298v116.085h14.007v13.979H28.31v13.992h14.007v13.979H116.406v-13.979h14.006v-13.992h10.137v27.971h31.975V84.993H86.957v30.652Z"/></svg>