<svg xmlns="http://www.w3.org/2000/svg" width="345" height="52" fill="none" viewBox="0 0 345 52"><g clip-path="url(#clip0_2031_141)"><g clip-path="url(#clip1_2031_141)"><path fill="url(#paint0_linear_2031_141)" d="M58.336 40.466 48.863 50.61a2.23 2.23 0 0 1-1.61.713H2.344a1.104 1.104 0 0 1-.805-1.853l9.473-10.157a2.23 2.23 0 0 1 1.61-.713h44.908a1.105 1.105 0 0 1 .805 1.867ZM48.863 20.01a2.209 2.209 0 0 0-1.61-.713H2.344a1.098 1.098 0 0 0-.805 1.846l9.473 10.172a2.208 2.208 0 0 0 1.61.713h44.908a1.099 1.099 0 0 0 .805-1.847L48.863 20.01Zm-46.518-7.3h44.907a2.23 2.23 0 0 0 1.611-.712l9.473-10.144A1.105 1.105 0 0 0 57.531 0H12.624a2.231 2.231 0 0 0-1.611.713L1.54 10.856a1.105 1.105 0 0 0 .805 1.853Z"/><path fill="#000" d="M112.788 21.67H88.781v-7.984h30.258V5.703H88.723a7.926 7.926 0 0 0-7.926 7.926v8.098a7.925 7.925 0 0 0 7.926 7.926h24.008v7.983H81.367v7.984h31.421a7.928 7.928 0 0 0 7.926-7.927v-8.097a7.933 7.933 0 0 0-2.321-5.605 7.925 7.925 0 0 0-5.605-2.322ZM159.249 5.703h-24.072a7.928 7.928 0 0 0-7.926 7.926v24.064a7.928 7.928 0 0 0 7.926 7.927h24.072a7.92 7.92 0 0 0 7.919-7.927V13.63a7.91 7.91 0 0 0-2.317-5.604 7.917 7.917 0 0 0-5.602-2.322Zm-.064 31.933h-23.951v-23.95h23.951v23.95ZM243.596 5.703h-23.523a7.922 7.922 0 0 0-7.323 4.893 7.934 7.934 0 0 0-.604 3.033v31.99h7.984V32.505h23.38V45.62h7.984V13.629a7.928 7.928 0 0 0-7.898-7.926Zm-.057 18.818h-23.381V13.686h23.381v10.835ZM337.074 5.703h-23.523a7.928 7.928 0 0 0-7.898 7.926v31.99h7.983V32.505h23.38V45.62H345V13.629a7.933 7.933 0 0 0-2.322-5.605 7.931 7.931 0 0 0-5.604-2.321Zm-.058 18.818h-23.38V13.686h23.38v10.835ZM290.563 37.636h-3.194L275.964 9.024a5.29 5.29 0 0 0-4.947-3.322h-7.128a5.283 5.283 0 0 0-5.282 5.282V45.62h7.984V13.686h3.193l11.448 28.612a5.278 5.278 0 0 0 4.926 3.322h7.128a5.284 5.284 0 0 0 5.282-5.282V5.702h-7.984l-.021 31.934ZM182.258 5.703h-7.983v31.99a7.925 7.925 0 0 0 7.926 7.927h24.008v-7.984h-23.951V5.703Z"/></g></g><defs><clipPath id="clip0_2031_141"><path fill="#fff" d="M0 0h345v51.322H0z"/></clipPath><clipPath id="clip1_2031_141"><path fill="#fff" d="M0 0h345v51.322H0z"/></clipPath><linearGradient id="paint0_linear_2031_141" x1="6.087" x2="53.183" y1="52.548" y2="-.542" gradientUnits="userSpaceOnUse"><stop offset=".08" stop-color="#9945FF"/><stop offset=".3" stop-color="#8752F3"/><stop offset=".5" stop-color="#5497D5"/><stop offset=".6" stop-color="#43B4CA"/><stop offset=".72" stop-color="#28E0B9"/><stop offset=".97" stop-color="#19FB9B"/></linearGradient></defs></svg>