<svg xmlns="http://www.w3.org/2000/svg" width="162.19" height="42.86" viewBox="0 0 162.19 42.86">
  <g transform="translate(-54.18,-93.25)">
    <g transform="matrix(1.954,0,0,1.937,53.2,91.38)">
      <path d="m 24.7,7.1 c -4.4,0 -8,3.6 -8,8 0,4.4 3.6,8 8,8 4.4,0 8,-3.6 8,-8 0,-4.4 -3.6,-8 -8,-8 z m 3.9,7.9 c 0,2.2 -1.7,4 -3.8,4 -2.1,0 -3.8,-1.8 -3.8,-4 0,-2.2 1.7,-4 3.8,-4 2.1,0 3.8,1.8 3.8,4 z M 52.7,7.4 C 52.6,7.3 52.5,7.3 52.4,7.3 h -3.2 c -0.2,0 -0.4,0.2 -0.4,0.4 v 14.5 c 0,0.1 0,0.2 0.1,0.3 0.1,0.1 0.2,0.1 0.3,0.1 h 3.2 c 0.2,0 0.4,-0.2 0.4,-0.4 V 7.7 c 0,-0.1 0,-0.2 -0.1,-0.3 z m -1.9,-2 C 52,5.4 53,4.4 53,3.2 53.1,2 52,1 50.8,1 c -1.2,0 -2.2,1 -2.2,2.2 0,1.3 1,2.2 2.2,2.2 z M 46.5,1.3 H 34.8 c -0.2,0 -0.4,0.2 -0.4,0.4 v 20.5 c 0,0.1 0,0.2 0.1,0.3 0.1,0.1 0.2,0.1 0.3,0.1 H 38 c 0.2,0 0.4,-0.2 0.4,-0.4 v -8.3 h 7.2 c 0.1,0 0.2,0 0.3,-0.1 C 46,13.7 46,13.6 46,13.5 v -3 c 0,-0.2 -0.2,-0.4 -0.4,-0.4 h -7.2 v -5 h 8.1 c 0.1,0 0.2,0 0.3,-0.1 0.1,-0.1 0.1,-0.2 0.1,-0.3 v -3 C 46.9,1.5 46.7,1.3 46.5,1.3 Z M 9.2,10.2 C 6,8.8 5,8.2 5,7 5,5.4 6.5,4.9 7.9,4.9 c 1.5,0 3.1,0.8 3.1,3 0,0.2 0.1,0.3 0.3,0.3 h 3.5 C 14.9,8.1 15,8 15,7.9 15,3.9 12.1,1 7.9,1 3.7,1 1,3.4 1,7 c 0,4.3 3.2,5.6 6.3,6.8 l 0.2,0.1 c 2.9,1.1 3.9,1.6 3.9,3 0,1.9 -2,2.2 -3.1,2.2 -2.1,0 -3.7,-1.5 -3.7,-3.5 V 15.4 C 4.6,15.2 4.5,15.1 4.3,15.1 H 0.8 c -0.1,0 -0.3,0.1 -0.3,0.3 v 0.3 c 0,4.4 3.2,7.4 7.7,7.4 4.3,0 7.2,-2.5 7.2,-6.1 0.1,-3.7 -1.8,-5 -6.2,-6.8 z M 83.5,22 c 0,0.6 -0.4,1 -1,1 -0.6,0 -1,-0.4 -1,-1 0,-0.6 0.4,-1 1,-1 0.6,0 1,0.4 1,1 z m -1.8,0 c 0,0.5 0.3,0.8 0.8,0.8 0.5,0 0.8,-0.3 0.8,-0.8 0,-0.5 -0.3,-0.8 -0.8,-0.8 -0.5,0 -0.8,0.3 -0.8,0.8 z m 1.2,-0.2 c 0,0.1 -0.1,0.2 -0.2,0.3 l 0.2,0.4 h -0.3 l -0.2,-0.4 h -0.1 v 0.4 h -0.2 v -1 h 0.4 c 0.2,0 0.4,0.1 0.4,0.3 z M 82.4,21.7 V 22 h 0.1 c 0.1,0 0.2,-0.1 0.2,-0.1 0,-0.1 -0.1,-0.1 -0.2,-0.1 H 82.4 Z M 78.3,1.9 c 1.4,0 2.5,1.1 2.5,2.5 0,1.4 -1.1,2.5 -2.5,2.5 -1.4,0 -2.5,-1.1 -2.5,-2.5 0,-1.4 1.1,-2.5 2.5,-2.5 M 78.3,1 C 76.4,1 74.8,2.6 74.8,4.5 74.8,6.4 76.4,8 78.3,8 80.2,8 81.8,6.4 81.8,4.5 81.8,2.6 80.2,1 78.3,1 Z" fill="currentColor"/>
      <circle transform="rotate(-28.538,78.28,12.007)" cx="78.3" cy="12" r="3.5" fill="currentColor"/>
      <circle transform="rotate(-28.538,78.278,19.517)" cx="78.3" cy="19.5" r="3.5" fill="currentColor"/>
      <path d="m 70.8,9.5 c 0.7,0 1.3,0.3 1.8,0.7 0.5,0.5 0.7,1.1 0.7,1.8 0,1.4 -1.1,2.5 -2.5,2.5 -0.7,0 -1.3,-0.3 -1.8,-0.7 -0.5,-0.5 -0.7,-1.1 -0.7,-1.8 -0.1,-1.4 1.1,-2.5 2.5,-2.5 m 0,-1 c -1.9,0 -3.5,1.6 -3.5,3.5 0,1.9 1.6,3.5 3.5,3.5 1.9,0 3.5,-1.6 3.5,-3.5 0,-1.9 -1.6,-3.5 -3.5,-3.5 z" fill="currentColor"/>
      <circle transform="rotate(-66.11,63.267,12.004)" cx="63.3" cy="12" r="3.5" fill="currentColor"/>
      <circle transform="rotate(-66.11,70.777,4.494)" cx="70.8" cy="4.5" r="3.5" fill="currentColor"/>
      <circle transform="rotate(-66.11,63.267,4.494)" cx="63.3" cy="4.5" r="3.5" fill="currentColor"/>
      <circle transform="rotate(-66.11,70.777,19.514)" cx="70.8" cy="19.5" r="3.5" fill="currentColor"/>
      <path d="m 63.3,17 c 0.7,0 1.3,0.3 1.8,0.7 0.5,0.5 0.7,1.1 0.7,1.8 0,1.4 -1.1,2.5 -2.5,2.5 -1.4,0 -2.5,-1.1 -2.5,-2.5 -0.1,-1.4 1.1,-2.5 2.5,-2.5 m 0,-1 c -1.9,0 -3.5,1.6 -3.5,3.5 0,1.9 1.6,3.5 3.5,3.5 1.9,0 3.5,-1.6 3.5,-3.5 0,-1.9 -1.6,-3.5 -3.5,-3.5 z" fill="currentColor"/>
    </g>
  </g>
</svg>
