<svg width="1250" height="500" viewBox="0 0 1250 500" fill="none" xmlns="http://www.w3.org/2000/svg">
<rect width="1250" height="500" fill="white"/>
<path d="M273.635 145.93H409.795L387.4 187.386H251.241L273.635 145.93Z" fill="#084D3E"/>
<path d="M250.345 311.757H365.005L342.611 353.213H227.95L250.345 311.757Z" fill="#084D3E"/>
<path d="M229.45 228.842H409.796L387.694 270.298H207.348L229.45 228.842Z" fill="#084D3E"/>
<path d="M201.973 187.387L251.241 187.386L228.846 228.843H179.578L201.973 187.387Z" fill="#084D3E"/>
<path d="M387.4 270.299H431.293L408.899 311.756L365.005 311.757L387.4 270.299Z" fill="#084D3E"/>
<path d="M573.414 269.43V296.46L554.178 307.57H511.063V293.143H557.329V272.747H530.299L511.063 261.636V235.767L530.299 224.657H571.756V239.084H527.148V258.32H554.178L573.414 269.43ZM670.445 297.289L651.209 308.399H619.204L599.968 297.289V234.938L619.204 223.828H651.209L670.445 234.938V297.289ZM616.053 238.255V293.973H654.359V238.255H616.053ZM716.206 307.57L696.97 296.46V186.517H713.056V293.143H732.955V307.57H716.206ZM762.37 273.576V293.973H795.701V273.576H762.37ZM765.52 308.399L746.284 297.289V270.259L765.52 259.149H795.701V239.084H754.576V224.657H792.55L811.786 235.767V308.399H807.475L795.701 301.601L783.927 308.399H765.52ZM845.972 340.736L860.399 303.756L828.395 224.657H844.48L868.027 283.691H868.359L891.741 224.657H907.826L861.726 340.736H845.972ZM989.836 293.143V307.57H943.57L924.335 296.46V234.938L943.57 223.828H970.6L989.836 234.938V271.752H940.42V293.143H989.836ZM940.42 238.255V257.325H973.751V238.255H940.42ZM1062.58 239.084H1032.4V307.57H1016.32V224.657H1028.42L1032.4 231.456L1044.18 224.657H1062.58V239.084Z" fill="#084D3E"/>
</svg>
