<svg width="500" height="140" viewBox="0 0 500 140" fill="none" xmlns="http://www.w3.org/2000/svg">
<path d="M56.5265 75.2688V99.8065L39.0874 109.892H0V96.7957H41.9438V78.2796H17.439L0 68.1936V44.7097L17.439 34.6237H55.0231V47.7204H14.5826V65.1828H39.0874L56.5265 75.2688ZM144.493 100.559L127.054 110.645H98.0391L80.6001 100.559V43.957L98.0391 33.871H127.054L144.493 43.957V100.559ZM95.1827 46.9677V97.5484H129.91V46.9677H95.1827ZM185.98 109.892L168.541 99.8065V0H183.123V96.7957H201.164V109.892H185.98ZM227.831 79.0323V97.5484H258.049V79.0323H227.831ZM230.688 110.645L213.248 100.559V76.0215L230.688 65.9355H258.049V47.7204H220.765V34.6237H255.192L272.631 44.7097V110.645H268.723L258.049 104.473L247.375 110.645H230.688ZM303.624 140L316.703 106.43L287.688 34.6237H302.271L323.619 88.2151H323.92L345.117 34.6237H359.7L317.906 140H303.624ZM434.049 96.7957V109.892H392.105L374.666 99.8065V43.957L392.105 33.871H416.61L434.049 43.957V77.3763H389.249V96.7957H434.049ZM389.249 46.9677V64.2796H419.467V46.9677H389.249ZM500 47.7204H472.639V109.892H458.056V34.6237H469.031L472.639 40.7957L483.313 34.6237H500V47.7204Z" fill="#E7D2F9"/>
</svg>
