<svg width="1112" height="501" viewBox="0 0 1112 501" fill="none" xmlns="http://www.w3.org/2000/svg">
<rect width="1112" height="500" transform="translate(0 0.351562)" fill="white"/>
<path d="M240 280.648V321.398L211 338.148H146V316.398H215.75V285.648H175L146 268.898V229.898L175 213.148H237.5V234.898H170.25V263.898H211L240 280.648ZM386.283 322.648L357.283 339.398H309.033L280.033 322.648V228.648L309.033 211.898H357.283L386.283 228.648V322.648ZM304.283 233.648V317.648H362.033V233.648H304.283ZM455.273 338.148L426.273 321.398V155.648H450.523V316.398H480.523V338.148H455.273ZM524.869 286.898V317.648H575.119V286.898H524.869ZM529.619 339.398L500.619 322.648V281.898L529.619 265.148H575.119V234.898H513.119V213.148H570.369L599.369 229.898V339.398H592.869L575.119 329.148L557.369 339.398H529.619ZM650.908 388.148L672.658 332.398L624.408 213.148H648.658L684.158 302.148H684.658L719.908 213.148H744.158L674.658 388.148H650.908ZM867.797 316.398V338.148H798.047L769.047 321.398V228.648L798.047 211.898H838.797L867.797 228.648V284.148H793.297V316.398H867.797ZM793.297 233.648V262.398H843.547V233.648H793.297ZM977.469 234.898H931.969V338.148H907.719V213.148H925.969L931.969 223.398L949.719 213.148H977.469V234.898Z" fill="#084D3E"/>
</svg>
