<svg width="2000" height="393" viewBox="0 0 2000 393" fill="none" xmlns="http://www.w3.org/2000/svg">
<path fill-rule="evenodd" clip-rule="evenodd" d="M287.017 9.95269C286.222 9.15648 285.39 8.4055 284.531 7.69976C278.481 2.72841 270.898 0.00762606 263.07 7.60324e-07H128.814C120.982 -0.00165862 113.392 2.71289 107.334 7.68167C106.473 8.39563 105.649 9.15365 104.866 9.95269L9.94421 104.956C3.58699 111.31 0.0103082 119.931 0 128.924V263.294C0.00273117 267.75 0.882324 272.161 2.58856 276.277C4.29479 280.392 6.79425 284.131 9.94421 287.28L104.866 382.283C105.656 383.076 106.485 383.828 107.352 384.536C113.41 389.504 121 392.219 128.832 392.217H263.07C270.895 392.215 278.479 389.501 284.531 384.536C285.39 383.83 286.222 383.079 287.017 382.283L381.939 287.28C385.089 284.131 387.589 280.392 389.295 276.277C391.001 272.161 391.881 267.75 391.883 263.294V128.924C391.881 124.468 391.001 120.056 389.295 115.941C387.589 111.825 385.089 108.086 381.939 104.938L287.017 9.95269ZM340.083 196.113V308.796C340.084 312.943 339.269 317.05 337.684 320.881C336.099 324.713 333.775 328.194 330.845 331.127C327.915 334.059 324.436 336.385 320.608 337.972C316.78 339.558 312.676 340.374 308.533 340.373H83.3235C79.1807 340.373 75.0784 339.556 71.2511 337.969C67.4237 336.382 63.9463 334.056 61.0173 331.124C58.0883 328.191 55.7651 324.71 54.1806 320.879C52.596 317.048 51.7811 312.942 51.7822 308.796V83.3945C51.7822 75.0221 55.1053 66.9926 61.0205 61.0725C66.9356 55.1523 74.9582 51.8264 83.3235 51.8264H308.533C312.676 51.8252 316.778 52.6408 320.606 54.2268C324.434 55.8127 327.912 58.1378 330.842 61.0693C333.772 64.0007 336.096 67.4812 337.681 71.3118C339.267 75.1424 340.083 79.2481 340.083 83.3945V196.113ZM682.377 294.433C593.458 294.433 583.197 256.097 583.197 233.73V231.224H638.604C639.282 241.493 645.213 258.151 688.985 258.151H692.176C736.862 258.151 741.898 249.247 741.898 240.127C741.898 230.31 736.654 224.149 697.438 223.009L668.256 222.321C604.875 220.511 585.493 199.05 585.493 172.557V170.504C585.493 145.169 600.545 118.704 677.83 118.704H693.569C773.818 118.704 792.053 146.753 792.053 172.322V174.629H736.907C735.768 168.233 732.387 154.317 687.891 154.317H684.275C643.233 154.317 640.268 161.619 640.268 168.92C640.268 176.222 644.833 182.836 679.484 183.524L707.979 183.985C771.821 185.125 797.585 200.642 797.585 234.409V237.603C797.585 265.651 783.446 294.424 698.143 294.424L682.377 294.433ZM809.814 209.545C809.814 238.073 821.901 289.447 913.777 293.971V326.806H990.844L964.393 293.266C1047.38 285.05 1058.33 237.567 1058.33 209.518V202.678C1058.33 171.87 1044.86 118.704 939.089 118.704H929.28C822.353 118.704 809.814 171.87 809.814 202.678V209.545ZM934.072 159.8C991.522 159.8 1002.7 183.994 1002.7 204.298V207.464C1002.7 227.551 991.025 253.102 934.072 253.102C876.612 253.102 865.448 227.089 865.448 207.012V204.298C865.448 183.759 875.708 159.8 934.072 159.8ZM1182.12 293.974C1091.16 293.974 1076.35 236.067 1076.35 204.074V121.738H1129.69V200.871C1129.69 222.776 1139.49 249.929 1185.74 249.929C1231.33 249.929 1241.37 222.785 1241.37 200.871V121.702H1294.55V204.038C1294.55 235.986 1277.22 293.938 1190.36 293.938L1182.12 293.974ZM1356.31 260.433H1459.13L1475.09 291.468H1532.31L1441.57 121.702H1372.72L1287 291.468H1341.03L1356.31 260.433ZM1375.23 222.097L1406.7 158.436L1439.52 222.097H1375.23ZM1542.81 121.702H1655.21C1753.47 121.702 1774.91 163.91 1774.91 202.02V208.869C1774.91 245.378 1754.61 291.468 1655.44 291.468H1542.81V121.702ZM1595.94 250.635H1651.08C1711.27 250.635 1719.24 224.16 1719.24 206.816V205.449C1719.24 188.114 1712.18 161.866 1651.08 161.866H1595.94V250.635ZM1785.61 233.73C1785.61 256.097 1795.87 294.433 1884.78 294.433L1900.6 294.424C1985.87 294.424 2000 265.651 2000 237.603V234.409C2000 200.642 1974.24 185.125 1910.4 183.985L1881.91 183.524C1847.21 182.836 1842.69 176.222 1842.69 168.92C1842.69 161.619 1845.66 154.317 1886.69 154.317H1890.31C1934.8 154.317 1938.18 168.233 1939.32 174.629H1994.47V172.322C1994.47 146.753 1976.23 118.704 1895.97 118.704H1880.24C1802.96 118.704 1787.91 145.169 1787.91 170.504V172.557C1787.91 199.05 1807.29 220.511 1870.67 222.321L1899.85 223.009C1939.07 224.149 1944.31 230.31 1944.31 240.127C1944.31 249.247 1939.28 258.151 1894.59 258.151H1891.4C1847.63 258.151 1841.7 241.493 1841.01 231.224H1785.61V233.73Z" fill="white"/>
</svg>
