<svg preserveAspectRatio="none" width="100%" height="100%" overflow="visible" style="display: block;" viewBox="0 0 168.75 27" fill="none" xmlns="http://www.w3.org/2000/svg">
<g id="logoLight 1" clip-path="url(#clip0_0_123)">
<path id="Vector" d="M79.228 23.8017C78.7623 23.8017 78.0968 23.6894 77.5773 23.1566C77.0803 22.6455 76.8276 21.8664 76.8276 20.8419V20.4023C76.8276 20.4023 75.3605 23.8017 72.111 23.8017C70.1016 23.8017 68.6984 22.3267 68.6984 20.2142V12.7505C68.6984 11.4668 68.3742 10.3386 67.8223 9.66975C69.136 9.58331 70.5338 9.18133 71.7199 8.54918V19.6241C71.7199 20.3341 71.9456 20.9359 72.3756 21.365C72.7646 21.7539 73.2906 21.969 73.8546 21.969C74.7047 21.969 75.4836 21.513 75.9902 20.7188C76.5219 19.89 76.8265 18.6646 76.8265 17.3571V12.7527C76.8265 11.4333 76.5219 10.3278 75.9839 9.66867C77.2985 9.58223 78.6975 9.18025 79.8836 8.5481V20.1125C79.8836 21.9042 80.708 22.3645 81.2914 22.4651C81.0027 23.1036 80.4151 23.8028 79.228 23.8028V23.8017Z" fill="var(--fill-0, white)"/>
<path id="Vector_2" d="M88.9623 23.8006C88.3206 23.8006 87.3419 23.5229 86.5826 23.1263C86.1589 22.909 85.5596 22.7178 84.8821 22.7178C83.7867 22.7178 82.997 23.2366 82.2657 23.6406V7.35506C82.2667 6.03242 81.9535 4.92698 81.4014 4.27107C82.727 4.18569 84.0935 3.79129 85.2916 3.14941V11.3943C85.2916 11.3943 86.8915 8.3773 90.0123 8.3773C91.1942 8.3773 92.1859 8.75875 93.0438 9.54326C94.3541 10.7665 95.1362 13.0314 95.1362 15.6C95.1708 17.8768 94.4967 20.1234 93.3322 21.6125C92.2334 23.0431 90.7233 23.7995 88.9645 23.7995L88.9623 23.8006ZM88.3985 9.86312C88.3672 9.86312 88.3357 9.86312 88.3033 9.8642C86.7824 9.9031 85.2894 11.7866 85.2894 13.6041V19.2784C85.2894 21.2838 86.844 23.4213 89.2811 23.4213C89.4161 23.4213 89.5544 23.4105 89.6894 23.3889C90.7773 23.2215 91.5582 22.4152 92.012 20.9922C92.3956 19.7299 92.5047 17.8606 92.3112 15.8636C92.1341 14.4902 91.7452 12.5949 90.8961 11.3435C90.262 10.3742 89.3976 9.86096 88.3985 9.86096V9.86312Z" fill="var(--fill-0, white)"/>
<path id="Vector_3" d="M160.464 23.8073C159.116 23.8073 157.786 23.4463 156.616 22.7646C154.829 21.7488 153.551 20.0966 153.018 18.1115C152.482 16.1221 152.76 14.0463 153.796 12.2676C155.173 9.88494 157.727 8.40454 160.462 8.40454C161.809 8.40454 163.145 8.76545 164.326 9.44838C167.993 11.5545 169.256 16.2637 167.145 19.9463C165.769 22.329 163.21 23.8083 160.465 23.8083L160.464 23.8073ZM158.191 9.29603C157.66 9.29603 157.175 9.42028 156.749 9.66667C154.657 10.8758 154.622 14.753 156.669 18.3092C158.255 21.0636 160.698 22.9158 162.75 22.9158C163.281 22.9158 163.767 22.7916 164.192 22.5452C166.281 21.3338 166.317 17.4577 164.272 13.9026C162.685 11.1471 160.241 9.29603 158.191 9.29603Z" fill="var(--fill-0, white)"/>
<path id="Vector_4" d="M35.1504 23.7988C35.709 23.1115 36.0244 22.0114 36.0254 20.732V6.06302C36.0254 4.78145 35.7099 3.68139 35.1515 2.99414C37.7409 2.99414 40.8349 2.99414 43.3152 2.99738C45.8301 2.99738 47.8881 4.0099 49.2677 5.9247C50.5769 7.74225 51.2683 10.327 51.2683 13.3981C51.2683 16.4691 50.5758 19.0539 49.2665 20.8715C47.8869 22.7862 45.829 23.7977 43.3152 23.7977H35.1504V23.7988ZM39.2609 23.5298H41.6764C43.744 23.5298 45.3365 22.674 46.4092 20.986C47.4885 19.2872 48.0361 16.7338 48.0361 13.397C48.0361 10.059 47.4894 7.50562 46.4103 5.80801C45.3376 4.12012 43.7451 3.26321 41.6764 3.26321H39.2609L39.2598 23.5307L39.2609 23.5298Z" fill="var(--fill-0, white)"/>
<path id="Vector_5" d="M59.6998 23.8007C58.3517 23.8007 57.0218 23.4399 55.8519 22.758C54.0652 21.7411 52.7871 20.0889 52.2534 18.1038C51.7188 16.1145 51.9953 14.0397 53.0323 12.2611C54.4086 9.87837 56.9624 8.39795 59.6978 8.39795C61.0448 8.39795 62.3801 8.75887 63.5619 9.44181C67.2284 11.5479 68.4923 16.2571 66.3804 19.9397C65.0052 22.3224 62.446 23.8019 59.7009 23.8019L59.6998 23.8007ZM57.427 9.28945C56.8955 9.28945 56.4105 9.41371 55.9848 9.66008C53.8945 10.8693 53.8578 14.7464 55.9049 18.3026C57.4897 21.0572 59.9343 22.9092 61.9859 22.9092C62.5173 22.9092 63.0024 22.785 63.4281 22.5386C65.5173 21.3272 65.5529 17.4511 63.5079 13.896C61.9209 11.1405 59.4773 9.28945 57.427 9.28945Z" fill="var(--fill-0, white)"/>
<path id="Vector_6" d="M98.9189 23.8003C98.2415 23.8003 97.6722 23.5778 97.2725 23.1562C96.7939 22.6505 96.5509 21.8714 96.5509 20.8385V7.46827L96.553 7.36237C96.553 6.07646 96.2278 4.94725 95.6748 4.27728C97.0045 4.193 98.3754 3.79965 99.5768 3.15454V20.1069C99.5757 20.8547 99.7291 21.4426 100.031 21.8543C100.275 22.1848 100.614 22.3933 101.018 22.4615C100.727 23.1002 100.132 23.8003 98.9167 23.8003H98.9189Z" fill="var(--fill-0, white)"/>
<path id="Vector_7" d="M143.379 23.802C143.886 23.1624 144.187 22.1444 144.219 20.9514L144.221 20.8445V20.7365L144.224 12.7379C144.224 11.4196 143.919 10.3141 143.38 9.65392C144.696 9.56748 146.097 9.16441 147.284 8.53118V12.0096L147.687 11.3159C148.78 9.43348 150.171 8.41772 151.408 8.41772C151.978 8.41772 152.497 8.61114 152.865 8.96234C153.204 9.28543 153.399 9.72631 153.399 10.1715C153.399 11.3105 152.454 12.1944 151.642 12.1944C151.187 12.1944 150.884 11.8734 150.486 11.4574C150.064 11.0165 149.589 10.5994 149.086 10.5994C148.545 10.5994 147.918 11.7254 147.346 12.5845L147.285 12.6742V20.7354C147.285 22.0245 147.589 23.1235 148.127 23.802H143.379Z" fill="var(--fill-0, white)"/>
<path id="Vector_8" d="M129.623 2.88794H115.01L114.422 6.63651C116.041 3.75672 117.822 3.3688 120.963 3.36988H125.643L113.676 23.9032H128.289L128.871 20.2649C127.259 23.0345 125.47 23.4256 122.33 23.4246H117.651L129.623 2.88794Z" fill="var(--fill-0, white)"/>
<path id="Vector_9" d="M108.73 23.8058C106.664 23.8058 104.726 23.0019 103.272 21.5421C101.821 20.0865 101.021 18.1511 101.021 16.0937C101.021 11.8415 104.48 8.38257 108.73 8.38257C110.04 8.38257 111.449 8.83425 112.503 9.58634C113.328 10.1763 114.319 11.2148 114.345 12.8141V12.88C114.345 14.0146 113.822 14.6694 112.653 15.0066C112.511 15.0477 112.356 15.0855 112.192 15.119C111.797 15.1989 111.373 15.253 110.963 15.3059L110.934 15.3091C110.654 15.3448 110.365 15.3805 110.092 15.4259C109.473 15.5382 108.855 15.6582 108.257 15.776L108.168 15.7932C107.68 15.8883 107.221 15.978 106.806 16.0537C106.647 16.0872 106.505 16.1228 106.371 16.165C105.742 16.3335 105.17 16.5929 104.72 16.9138C104.509 17.0662 104.332 17.224 104.192 17.3839L104.146 17.4368L104.175 17.5006C104.226 17.6108 104.281 17.721 104.337 17.8302C104.395 17.9426 104.454 18.0539 104.515 18.163C104.864 18.7929 105.265 19.3754 105.708 19.893L105.732 19.92L105.759 19.9265C105.862 20.0573 105.973 20.188 106.088 20.3144C106.14 20.3718 106.193 20.428 106.247 20.4831C106.428 20.6689 106.618 20.8451 106.812 21.006C108.023 22.0089 109.391 22.5383 110.769 22.5383C111.708 22.5383 112.642 22.2942 113.546 21.8111C113.556 21.8057 113.567 21.8035 113.581 21.8035C113.606 21.8035 113.632 21.8154 113.649 21.8359C113.662 21.8521 113.668 21.8748 113.666 21.8996C113.664 21.9203 113.652 21.9407 113.634 21.9569C112.25 23.096 110.37 23.8047 108.73 23.8047V23.8058ZM105.503 9.79597C105.294 9.85973 105.093 9.94295 104.906 10.0424C104.321 10.3708 103.871 10.869 103.566 11.5217C103.26 12.1754 103.12 12.9448 103.152 13.8071C103.152 13.8244 103.152 13.8471 103.154 13.8698C103.163 14.0622 103.18 14.2621 103.206 14.4598C103.295 15.1103 103.428 15.5912 103.608 16.1596C103.686 16.4114 103.775 16.6621 103.879 16.9236L103.952 17.1094C103.952 17.1094 104.64 16.2439 106.141 15.6506C106.156 15.6441 106.582 15.4885 106.582 15.4885C106.977 15.3556 108.636 15.012 108.636 15.012C109.972 14.7505 110.805 14.1389 110.982 13.2917C111.029 13.0669 111.028 12.8303 110.98 12.5904C110.832 11.8383 110.219 11.0592 109.3 10.453C108.497 9.93753 107.557 9.64902 106.653 9.64038H106.61C106.225 9.64038 105.858 9.69116 105.518 9.79165L105.508 9.79381L105.501 9.79705L105.503 9.79597Z" fill="var(--fill-0, white)"/>
<path id="Vector_10" d="M136.791 23.8058C134.724 23.8058 132.786 23.0019 131.332 21.5421C129.881 20.0865 129.082 18.1511 129.082 16.0937C129.082 11.8415 132.54 8.38257 136.791 8.38257C138.1 8.38257 139.51 8.83425 140.563 9.58634C141.389 10.1763 142.379 11.2148 142.405 12.8141V12.88C142.405 14.0146 141.882 14.6694 140.713 15.0066C140.572 15.0477 140.416 15.0855 140.252 15.119C139.858 15.1989 139.433 15.253 139.024 15.3059L138.995 15.3091C138.715 15.3448 138.425 15.3805 138.152 15.4259C137.533 15.5382 136.915 15.6582 136.318 15.776L136.228 15.7932C135.741 15.8883 135.282 15.978 134.867 16.0537C134.707 16.0872 134.565 16.1228 134.432 16.165C133.803 16.3335 133.23 16.5929 132.781 16.9138C132.569 17.0662 132.392 17.224 132.253 17.3839L132.206 17.4368L132.235 17.5006C132.286 17.6108 132.341 17.721 132.397 17.8302C132.456 17.9426 132.514 18.0539 132.576 18.163C132.925 18.7929 133.325 19.3754 133.768 19.893L133.792 19.92L133.819 19.9265C133.923 20.0573 134.033 20.188 134.149 20.3144C134.2 20.3718 134.253 20.428 134.307 20.4831C134.489 20.6689 134.679 20.8451 134.872 21.006C136.083 22.0089 137.451 22.5383 138.829 22.5383C139.768 22.5383 140.703 22.2942 141.607 21.8111C141.617 21.8057 141.627 21.8035 141.641 21.8035C141.666 21.8035 141.692 21.8154 141.709 21.8359C141.722 21.8521 141.729 21.8748 141.727 21.8996C141.725 21.9203 141.713 21.9407 141.694 21.9569C140.31 23.096 138.431 23.8047 136.791 23.8047V23.8058ZM133.563 9.53556C133.355 9.60148 133.154 9.68792 132.967 9.79057C132.381 10.131 131.932 10.6464 131.626 11.3228C131.32 12.0004 131.181 12.7968 131.212 13.6894C131.212 13.7066 131.212 13.7315 131.214 13.7542C131.223 13.953 131.24 14.1605 131.266 14.3647C131.356 15.039 131.489 15.5361 131.668 16.125C131.746 16.3865 131.836 16.6448 131.939 16.9171L132.013 17.1094C132.013 17.1094 132.701 16.2136 134.201 15.5988C134.216 15.5923 134.642 15.4313 134.642 15.4313C135.037 15.2929 136.697 14.9374 136.697 14.9374C138.032 14.6662 138.865 14.033 139.042 13.1555C139.09 12.9232 139.089 12.6779 139.04 12.4283C138.892 11.6492 138.28 10.842 137.36 10.2153C136.557 9.68144 135.618 9.38319 134.713 9.37347H134.67C134.286 9.37347 133.918 9.42641 133.578 9.53014L133.568 9.53232L133.562 9.53556H133.563Z" fill="var(--fill-0, white)"/>
<path id="Vector_11" d="M18.4581 5.95985V2.98022H3.5625V23.8351H8.03318V22.3466H11.0103V20.8555H13.9899V19.3669H18.4581V17.8783H19.9493V16.3873H18.4581V17.8758V19.3645H13.9899V17.8758V11.9166H21.4378V16.3848V7.44841H18.4581V5.95736V5.95985ZM18.4606 16.3898H19.9493V17.8783H18.4606V16.3898ZM12.5014 20.8555H11.0103V22.3466H5.05355V13.4077H6.54213V14.8987H8.03318V16.3873H9.52173V17.8783H11.0103V19.3669H12.5014V20.8555ZM13.9899 10.428H12.5014V11.9191H8.03318V10.428H12.5014H6.54213V5.95985H8.03318V4.4713H12.5014V5.95985H13.9899V10.428Z" fill="var(--fill-0, #D7D7D7)"/>
<path id="Vector_12" d="M11.0084 5.95972H8.03125V8.93932H11.0084V5.95972Z" fill="var(--fill-0, white)"/>
<path id="Vector_13" d="M12.4978 5.95926H12.5002V4.4707H8.03207V5.95926H11.0092V8.93889H8.03207H8.02957V5.95926H8.03207H6.54102V10.4274H12.5002H12.4978V5.95926Z" fill="var(--fill-0, black)"/>
<path id="Vector_14" d="M18.4572 13.407H15.4775V16.3866H18.4572V13.407Z" fill="var(--fill-0, white)"/>
<path id="Vector_15" d="M13.9893 17.878H14.5481H18.4574V16.3869H15.4778V13.4073H18.4574V16.3869H19.9484V11.9187H13.9893V17.878Z" fill="var(--fill-0, black)"/>
<path id="Vector_16" d="M9.51938 19.3672V17.8786H8.03334H8.03082V16.3875H6.53975V14.8989H5.05371V20.8557H11.0105V19.3672H9.51938Z" fill="var(--fill-0, black)"/>
<path id="Vector_17" d="M6.54114 14.8979V13.407H5.05273V14.8979H6.53863H6.54114Z" fill="var(--fill-0, white)"/>
<path id="Vector_18" d="M11.0099 17.8784H9.52148V19.3668H11.0099V17.8784Z" fill="var(--fill-0, white)"/>
<path id="Vector_19" d="M11.0098 19.366V20.8543H12.5007V19.366H11.0098Z" fill="var(--fill-0, white)"/>
<path id="Vector_20" d="M9.51714 17.8774H9.51966V16.3865H8.03125V17.8774H9.51714Z" fill="var(--fill-0, white)"/>
<path id="Vector_21" d="M8.0329 14.8982H6.54199V16.3866H8.0329V14.8982Z" fill="var(--fill-0, white)"/>
<path id="Vector_22" d="M22.9249 2.98004H21.4365V4.47096H22.9249V2.98004Z" fill="var(--fill-0, white)"/>
<path id="Vector_23" d="M24.4158 4.4707H22.9248V5.95909H24.4158V4.4707Z" fill="var(--fill-0, white)"/>
<path id="Vector_24" d="M18.457 5.95926H19.9481V2.97963H21.4366V1.49107H19.9481V0H18.457V2.97963V5.95926Z" fill="var(--fill-0, white)"/>
<path id="Vector_25" d="M11.0095 20.855H5.05273V22.3461H11.0095V20.855Z" fill="var(--fill-0, white)"/>
<path id="Vector_26" d="M24.4163 5.95953H18.457V7.44809H21.4367V7.45059H22.9252V11.9188H24.4163V5.95953Z" fill="var(--fill-0, white)"/>
<path id="Vector_27" d="M22.9256 25.3262H13.9893V26.8173H24.4167V26.7246V25.3262V17.8784H22.9256V25.3262Z" fill="var(--fill-0, white)"/>
<path id="Vector_28" d="M2.07407 1.49107H18.4582V0H0.583008V0.00250462V26.8141V26.8167H5.0512V25.3255H2.07407V1.49107Z" fill="var(--fill-0, white)"/>
<path id="Vector_29" d="M19.9482 11.9187V16.3894V16.3869L21.437 16.3894V11.9187H19.9482Z" fill="var(--fill-0, white)"/>
<path id="Vector_30" d="M13.9893 17.8784V19.367H18.4574V17.8784H14.5481H13.9893Z" fill="var(--fill-0, white)"/>
<path id="Vector_31" d="M19.9483 16.3894H18.46V17.8778H19.9483V16.3894Z" fill="var(--fill-0, white)"/>
<path id="Vector_32" d="M8.0293 11.9185H12.5V10.4275H8.0293V11.9185Z" fill="var(--fill-0, white)"/>
<path id="Vector_33" d="M13.9895 5.95972H12.501V10.4279H13.9895V5.95972Z" fill="var(--fill-0, white)"/>
<path id="Vector_34" d="M19.9403 19.4319V22.3872H15.5059V23.8636H21.4167V19.4319H19.9403Z" fill="var(--fill-0, white)"/>
</g>
<defs>
<clipPath id="clip0_0_123">
<rect width="168.75" height="27" fill="white"/>
</clipPath>
</defs>
</svg>
