<svg width="49" height="29" viewBox="0 0 49 29" fill="none" xmlns="http://www.w3.org/2000/svg">
<path d="M32.3411 11.6202L33.8091 9.0486L39.0814 0.00391006L37.7898 0.00482011L33.8508 0L29.5064 7.47759L13.2317 7.46141L6.02619 19.7839L0.746094 28.8267L2.03775 28.8258L4.50683 28.8205L4.66961 28.8602L5.96126 28.8594L10.3037 21.3894L21.162 21.3887L18.766 25.5274L40.2792 25.5494L48.3835 11.6445L32.3411 11.6202ZM37.184 21.822L26.4187 21.813L27.2636 20.3473L29.0809 17.2361L13.5227 17.2164L16.7849 11.6254L26.8627 11.6531L24.7059 15.3633L40.9575 15.3738L37.184 21.822Z" fill="#008735"/>
</svg>
