<svg preserveAspectRatio="none" width="100%" height="100%" overflow="visible" style="display: block;" viewBox="0 0 153.931 36" fill="none" xmlns="http://www.w3.org/2000/svg">
<g id="Frame" clip-path="url(#clip0_0_58)">
<path id="Vector" d="M42.384 17.5574C42.8843 15.9882 43.5954 14.6493 44.5075 13.5312C45.4245 12.4181 46.5083 11.5304 47.7588 10.8831C49.0094 10.2309 50.3383 9.90723 51.736 9.90723C53.7711 9.90723 55.5023 10.5153 56.9391 11.7315C58.3711 12.9477 59.4696 14.5267 60.2444 16.4589H60.7447V10.1524H67.8996V35.1625H60.7447V28.856H60.2444C59.4794 30.7931 58.376 32.3673 56.9391 33.5835C55.5072 34.7996 53.7711 35.4077 51.736 35.4077C50.3335 35.4077 49.0192 35.084 47.7834 34.4318C46.5475 33.7796 45.4687 32.8969 44.532 31.7837C43.6002 30.6704 42.8793 29.3219 42.3792 27.7576C41.8789 26.1883 41.6289 24.4866 41.6289 22.6575C41.6289 20.8283 41.8789 19.1218 42.3792 17.5574H42.384ZM49.4115 25.2369C49.6959 26.0216 50.0981 26.7032 50.613 27.2868C51.1328 27.8704 51.7458 28.3313 52.4666 28.6648C53.1827 28.9982 53.9575 29.165 54.7911 29.165C55.6248 29.165 56.4438 28.9982 57.1402 28.6648C57.8414 28.3313 58.4398 27.8802 58.9399 27.3162C59.4402 26.7473 59.8471 26.0706 60.1659 25.2909C60.4847 24.5063 60.6416 23.6333 60.6416 22.6623C60.6416 21.6914 60.4847 20.8233 60.1659 20.0338C59.8471 19.2493 59.4402 18.5774 58.9399 18.0085C58.4398 17.4397 57.8414 16.9934 57.1402 16.66C56.4389 16.3264 55.6543 16.1597 54.7911 16.1597C53.9281 16.1597 53.1827 16.3264 52.4666 16.66C51.7507 16.9934 51.1328 17.4544 50.613 18.0379C50.0931 18.6215 49.6959 19.3031 49.4115 20.0878C49.1271 20.8724 48.9848 21.7307 48.9848 22.6673C48.9848 23.6039 49.1271 24.4572 49.4115 25.2467V25.2369Z" fill="var(--fill-0, white)"/>
<path id="Vector_2" d="M71.5098 0H78.8657V35.1662H71.5098V0Z" fill="var(--fill-0, white)"/>
<path id="Vector_3" d="M82.4794 10.1573H89.5805V16.4637H90.2327C90.8015 14.5611 91.8216 13.0115 93.3075 11.81C94.7934 10.6085 96.8678 9.97587 99.5356 9.90723V17.7633H97.2846C96.0194 17.7633 94.9161 17.9154 93.9843 18.2145C93.0525 18.5136 92.2777 18.9745 91.6598 19.5925C91.0419 20.2103 90.5809 21 90.2818 21.9709C89.9826 22.937 89.8306 24.1384 89.8306 25.5704V35.1723H82.4746V10.1573H82.4794Z" fill="var(--fill-0, white)"/>
<path id="Vector_4" d="M102.066 10.1563H109.368V23.2106C109.368 25.1476 109.741 26.5992 110.496 27.5604C111.247 28.5264 112.335 29.0119 113.772 29.0119C114.439 29.0119 115.082 28.8795 115.699 28.6098C116.317 28.3449 116.881 27.9036 117.401 27.2808C117.921 26.663 118.343 25.8391 118.676 24.8044C119.01 23.7745 119.176 22.4701 119.176 20.9057V10.1514H126.581V35.1614H119.426V28.9089H118.774C118.475 29.875 118.073 30.7626 117.573 31.5571C117.073 32.3564 116.464 33.0479 115.749 33.6314C115.032 34.215 114.214 34.6759 113.297 35.0094C112.379 35.3429 111.404 35.5097 110.369 35.5097C109.133 35.5097 108.01 35.3086 106.995 34.9065C105.98 34.5043 105.112 33.8619 104.396 32.9792C103.68 32.0965 103.111 30.9686 102.694 29.6053C102.277 28.237 102.071 26.6041 102.071 24.7013V10.1514L102.066 10.1563Z" fill="var(--fill-0, white)"/>
<path id="Vector_5" d="M136.504 26.8593C136.636 28.0608 137.112 28.9632 137.931 29.5614C138.746 30.1646 139.991 30.4588 141.658 30.4588C142.193 30.4588 142.688 30.4098 143.159 30.3068C143.624 30.2088 144.031 30.0665 144.385 29.8802C144.738 29.6987 145.022 29.4535 145.238 29.1543C145.454 28.8552 145.562 28.5021 145.562 28.1049C145.562 27.6685 145.469 27.3448 145.286 27.129C145.1 26.9133 144.861 26.7122 144.561 26.5258C144.262 26.3444 143.938 26.2022 143.586 26.0992C143.232 25.9963 142.825 25.8982 142.359 25.8001L137.858 25.0497C136.891 24.883 135.92 24.633 134.954 24.2994C133.989 23.966 133.12 23.5247 132.355 22.9705C131.59 22.4164 130.962 21.7053 130.482 20.8177C129.996 19.935 129.755 18.8757 129.755 17.6449C129.755 16.0755 130.079 14.7613 130.732 13.6972C131.384 12.6331 132.232 11.7797 133.282 11.1471C134.331 10.5145 135.508 10.0634 136.808 9.79854C138.107 9.52882 139.422 9.39642 140.755 9.39642C142.859 9.39642 144.625 9.63671 146.057 10.1222C147.489 10.6077 148.665 11.2501 149.583 12.0494C150.5 12.8488 151.192 13.7854 151.657 14.8496C152.123 15.9138 152.442 17.0319 152.608 18.2039H145.155C145.057 17.174 144.655 16.3649 143.953 15.7765C143.257 15.1929 142.183 14.9036 140.75 14.9036C140.25 14.9036 139.79 14.9378 139.372 15.0016C138.955 15.0703 138.578 15.2027 138.245 15.4037C137.911 15.6048 137.642 15.855 137.446 16.154C137.245 16.4532 137.147 16.8062 137.147 17.2035C137.147 17.5026 137.22 17.787 137.371 18.0518C137.524 18.3216 137.725 18.5275 137.975 18.6746C138.225 18.8267 138.515 18.9493 138.852 19.0474C139.186 19.1455 139.554 19.2484 139.951 19.3465L144.655 20.1949C145.655 20.3617 146.646 20.6019 147.631 20.9207C148.612 21.2394 149.505 21.6857 150.309 22.2693C151.113 22.8529 151.735 23.5688 152.182 24.4221C152.628 25.2754 152.859 26.3149 152.859 27.5459C152.859 29.0122 152.57 30.2823 151.986 31.3464C151.403 32.4106 150.603 33.2884 149.588 33.975C148.572 34.6566 147.386 35.1666 146.037 35.5C144.688 35.8336 143.227 36.0003 141.658 36.0003C139.588 36.0003 137.798 35.76 136.278 35.2745C134.758 34.789 133.493 34.1319 132.478 33.2982C131.462 32.4645 130.678 31.4936 130.129 30.3705C129.574 29.2574 129.237 28.0804 129.104 26.8446H136.509L136.504 26.8593Z" fill="var(--fill-0, white)"/>
<path id="Vector_6" d="M14.8934 28.7667L16.649 10.1514H25.1526L26.9083 28.7667L27.8939 28.9579C28.8355 26.7561 31.925 19.7043 32.5773 10.1563H41.782L34.8772 35.1663H22.8919L21.1705 22.6613H20.6507L18.9294 35.1663H6.92934L0 10.1563H9.22442C9.87665 19.7091 12.9612 26.7561 13.9077 28.9579L14.8934 28.7667Z" fill="var(--fill-0, white)"/>
</g>
<defs>
<clipPath id="clip0_0_58">
<rect width="153.931" height="36" fill="white"/>
</clipPath>
</defs>
</svg>
