<svg version="1.2" xmlns="http://www.w3.org/2000/svg" viewBox="0 0 1008 1552" width="1008" height="1552">
	<title>Bitmap (28)-svg</title>
	<style>
		.s0 { fill: #ffffff } 
	</style>
	<g id="#000000ff">
		<path id="Layer" fill-rule="evenodd" class="s0" d="m345.4 25.7c73-24.2 151.5-31.1 227.6-20.8 61.8 8.5 122 28.6 176.4 59.1 63.4 35.4 119.1 84.8 161.8 143.6 33.8 46.3 59.6 98.6 75.8 153.6 20.8 70.9 25.6 146.4 14.4 219.3-9.6 62.8-31.4 123.7-63.7 178.4-21.6 36.5-47.8 70.3-77.8 100.2 0 47.5 0 95 0 142.4q-355.9 0-711.8 0 0-71.2 0-142.3c-28.5-28.8-53.8-60.7-74.7-95.4-31.5-51.8-53.5-109.4-64.4-169.1-13.6-74.5-10.4-152 9.7-225.1 14.6-53.1 38.1-103.8 69.2-149.3 27.9-41 61.9-77.8 100.6-108.9 46.6-37.6 100-66.8 156.9-85.7zm-197.1 122.2q0 355.6 0 711.2 355.7-0.1 711.4 0 0-355.6 0-711.2-355.7 0-711.4 0zm261.5 1069.4c1-0.7 2.4-0.4 3.6-0.5 8.8 0.1 17.6 0 26.4 0.1 1.6-0.3 3.3 0.8 3.1 2.6-0.2 42.1-0.8 84.1-1 126.2 0.2 43.2 0.8 86.4 1 129.6 0.2 1.4-1 2.7-2.4 2.6-9.6 0.1-19.2 0-28.7 0.1-1.4 0.1-2.9-0.6-3-2.1-0.4-6.7 0.3-13.4 0.1-20q0.4-44.6 0.8-89.2c-0.2-9.8 0.5-19.6 0-29.4-0.2-39.1-0.6-78.2-1-117.2 0-1 0.1-2.2 1.1-2.8zm-144 66.2c15.4-2.7 31.8-1.7 46.2 4.6 12.4 5.3 22.5 14.9 29.5 26.3-0.2-8.4-0.6-16.9-0.7-25.3-0.3-1.6 0.8-3.6 2.7-3.2 9.9 0 19.7-0.1 29.6 0 1.7-0.1 2.4 1.8 2.3 3.2-0.3 20.7-0.6 41.4-0.8 62.1-0.9 41.6 0.6 83.2 0.7 124.7-0.1 1.5-1.7 2.2-3 2-9.6 0-19.1 0.1-28.7 0-1.5 0.1-2.6-1.2-2.4-2.6 0.1-9.3 0.5-18.5 0.7-27.8-6.3 10.1-14.7 19.1-25 25-14.6 8.5-32.2 10.7-48.7 8.4-13.6-1.8-26.7-7.5-37-16.7-10.8-9.5-18.4-22.1-23.2-35.6-5-13.9-7.1-28.7-7.5-43.4-0.2-16.2 2-32.6 7.4-47.9 4.2-11.7 10.3-22.7 18.7-31.8 10.3-11.3 24.2-19.2 39.2-22zm16.9 24.1c-9.1 0.9-18.1 4.2-25.2 10.2-9.5 7.9-15.3 19.4-18.4 31.1-4 15.8-4.3 32.3-2.7 48.4 1.8 15.4 6 31.2 16.2 43.3 6.8 8.2 16.7 13.8 27.3 15.3 14.8 2.3 31.2-0.9 42.4-11.3 11.1-10.3 16.4-25.3 18.7-39.9 2.3-15.4 2.2-31.2-0.3-46.5-2.5-14.7-8.1-29.6-19.5-39.7-10.3-9.3-24.9-12.6-38.5-10.9zm245.1-22.8c15.2-4 31.5-3.7 46.4 1.2 14.7 4.8 27.1 15.3 35.1 28.5-0.4-8.7-0.6-17.4-0.8-26.1-0.2-1.9 1.8-2.8 3.4-2.5 9.5 0 19.1-0.1 28.7 0 1.4-0.1 2.5 1.1 2.4 2.5-0.2 21.4-0.5 42.9-0.7 64.4q-0.6 28.2 0 56.5c0.1 22.2 0.6 44.4 0.7 66.7-0.1 1.5-1.9 2.1-3.2 2-9.5-0.1-19.1 0-28.6-0.1-1.9 0.2-2.6-2-2.4-3.4 0.3-9 0.5-18.1 0.8-27.1-6.8 11-16.1 20.6-27.7 26.6-14.2 7.4-31 9.1-46.8 6.8-14.6-2.1-28.6-8.8-39-19.3-17.6-17.2-25.4-42.1-27.3-66.1-1.4-16.6-0.2-33.6 4.2-49.7 3.6-13.3 9.6-26.1 18.3-36.8 9.4-11.5 22.2-20.2 36.5-24.1zm22.5 22.8c-9.2 0.9-18.2 4.3-25.3 10.3-9.4 7.8-15 19.2-18.1 30.8-4.1 15.7-4.4 32.2-2.8 48.2 1.7 15.3 5.8 31.1 15.7 43.2 7.4 9.1 18.5 14.9 30.1 16.1 14.2 1.7 29.8-1.8 40.3-11.9 11.2-10.4 16.4-25.6 18.6-40.4 2.4-16.8 2.2-34-1.4-50.6-3-13.5-8.9-27.1-19.9-36-10.2-8.5-24.2-11.4-37.2-9.7zm-479.9-24c15.6-2 32.1-0.3 46.2 7 10.7 5.5 19.4 14.4 25.8 24.6-0.4-9-0.9-17.9-1.1-26.8-0.1-1.7 1.4-2.8 2.9-2.5 9.6 0 19.2-0.1 28.8 0 1.8-0.2 2.6 1.7 2.5 3.2-0.2 20.7-0.5 41.4-0.6 62.1-0.6 19.4 0.2 38.8 0 58.2-0.2 15.5 0.2 31 0.2 46.5 0 7.8 0.2 15.5-0.7 23.2-1.5 15.8-6.5 31.6-16.4 44.1-8.6 11-20.9 18.8-34.2 23-15.1 4.9-31.3 5.5-47.1 4.6-17.5-1.3-35.6-6.1-49.4-17.5-12.8-10.3-20.1-26.3-21-42.5-0.1-1.6 1.5-2.7 3-2.5 8.8-0.1 17.6 0 26.4-0.1 1.4 0.1 3.4-0.1 4.2 1.4 1.1 2.6 1.2 5.4 2 8.1 2.5 8.7 8.4 16.4 16.2 21 9.1 5.4 19.8 7.5 30.3 7.5 12.2 0.4 25-2.3 34.8-10 9.8-7.4 15.5-19.1 17.9-30.9 3-13.8 1.7-28 2-41.9-6.7 11.4-16.6 21.1-28.6 26.9-14.3 6.9-30.8 7.9-46.3 5.5-14.9-2.3-29.3-8.8-40.1-19.4-8.6-8.2-15-18.5-19.3-29.6-5.8-14.9-7.8-31-7.8-47 0.3-15.7 2.7-31.5 8.7-46.2 4.9-12.3 12.3-23.7 22.3-32.6 10.7-9.5 24.3-15.5 38.4-17.4zm12.2 24c-8.2 0.9-16.2 3.8-22.9 8.7-9.2 6.8-15.3 17-18.8 27.7-5 15-5.9 31.1-4.9 46.8 1.1 15 4.4 30.5 13.4 42.8 6.8 9.5 17.5 15.8 28.9 17.8 14.6 2.7 30.9 0.9 42.8-8.5 11.9-9.4 17.8-24.1 20.2-38.6 2.6-16.2 2.5-32.8-0.6-48.9-2.8-14.2-8.7-28.5-20.1-37.9-10.4-8.7-24.7-11.6-38-9.9zm583.7-20.1c0.1-0.4 0.5-1.2 0.7-1.6 11.4-0.1 22.8 0 34.2 0 1.8-0.2 3.6 0.8 4.5 2.5 14.3 23.3 28.7 46.6 43 70 13.8-23.2 27.6-46.4 41.3-69.5 1-1.8 2.8-3.3 4.9-3 10.2 0 20.4-0.2 30.6 0.1-0.2 2.7-2.1 4.8-3.4 7.1-17.4 28-34.8 56.1-52.3 84.1q25.7 41 51.3 81.9c3.5 5.7 7.3 11.2 10.5 17 1.1 1.8-1.4 2-2.5 1.9-10.9-0.1-21.8 0-32.7-0.1-2.9 0.2-4.1-2.9-5.4-5q-23-37.6-46-75.2c-15.9 25.9-31.7 51.9-47.6 77.8-0.9 1.8-2.9 2.6-4.8 2.5-10.1-0.1-20.2 0.1-30.3-0.1-1.7 0.2-1.1-2.3-0.3-3 20.6-32.9 41.3-65.8 61.9-98.8-19.2-29.5-38.4-59.1-57.6-88.6zm166.4-1.6q17.5-0.1 35.1 0c1.8-0.1 3 1.4 3.5 3 18.2 48.2 36.4 96.4 54.6 144.6 15.5-48.2 30.8-96.5 46.2-144.7 0.4-1.6 1.7-3.1 3.5-2.9 10.1 0 20.2-0.1 30.4 0 2.1 0 1.8 2.6 1.1 3.9-28.9 82.9-58 165.8-86.9 248.8-0.5 1.5-1.8 2.9-3.5 2.7-9.6 0.1-19.3 0-28.9 0-0.3-1.2-0.7-2.4-0.2-3.6 6.9-19.8 13.8-39.6 20.6-59.4-25-63.1-50.2-126.1-75.2-189.2-0.5-1-0.4-2.1-0.3-3.2z"/>
	</g>
</svg>