<svg width="163" height="35" viewBox="0 0 163 35" fill="none" xmlns="http://www.w3.org/2000/svg">
<path d="M9.08676 34.3853C4.50322 34.4623 0.883118 32.5052 0.53626 28.2068C0.535444 28.1712 0.541869 28.1359 0.555147 28.1029C0.568425 28.0699 0.588276 28.0399 0.613499 28.0148C0.638723 27.9897 0.668793 27.97 0.701881 27.9568C0.734969 27.9437 0.770385 27.9374 0.805984 27.9383H3.73465C3.88891 27.9383 4.00438 28.0532 4.04317 28.2068C4.38958 30.7013 6.39222 31.8538 9.16526 31.8538C12.4006 31.8538 14.6342 29.935 14.6342 25.483V23.2574C13.3631 25.4456 11.245 26.7494 8.47291 26.7494C2.92684 26.7494 0 22.5667 0 16.9253C0 11.3221 3.00397 6.79395 8.35745 6.79395C11.1305 6.79395 13.2486 7.98332 14.5584 10.1711L14.4425 7.36926C14.4417 7.3337 14.4481 7.29834 14.4614 7.26533C14.4747 7.23233 14.4945 7.20236 14.5198 7.17725C14.545 7.15214 14.5751 7.13241 14.6081 7.11926C14.6412 7.10611 14.6766 7.09981 14.7122 7.10075H17.6788C17.7144 7.09981 17.7498 7.10611 17.7829 7.11926C17.816 7.13241 17.8461 7.15214 17.8713 7.17725C17.8965 7.20236 17.9164 7.23233 17.9296 7.26533C17.9429 7.29834 17.9493 7.3337 17.9485 7.36926L17.8714 15.0061L17.9097 25.5217C17.9449 31.2014 14.7478 34.3853 9.08676 34.3853ZM9.24056 24.2544C12.4759 24.2544 14.594 21.9513 14.6324 17.0776C14.6712 12.3574 12.8223 9.51779 9.54863 9.28712H8.89188C5.34891 9.40246 3.53886 12.3187 3.53886 16.809C3.54068 21.5688 5.4662 24.2936 9.24056 24.2553V24.2544Z" fill="black"/>
<path d="M35.1823 26.8621C35.1468 26.863 35.1114 26.8567 35.0784 26.8435C35.0453 26.8303 35.0153 26.8106 34.9901 26.7855C34.965 26.7603 34.9451 26.7304 34.9319 26.6974C34.9186 26.6645 34.9122 26.6291 34.913 26.5936L34.9897 23.676C33.642 25.9021 31.5211 27.2455 28.6349 27.2455C23.2814 27.2455 20.4313 22.7552 20.4313 17.0371C20.4313 11.3191 23.474 6.71387 28.7121 6.71387C31.5234 6.71387 33.6411 7.9037 34.9514 10.091L34.8743 7.36622C34.8734 7.33066 34.8799 7.2953 34.8931 7.2623C34.9064 7.22929 34.9263 7.19933 34.9515 7.17422C34.9767 7.14911 35.0068 7.12938 35.0399 7.11623C35.073 7.10308 35.1084 7.09678 35.144 7.09771H38.1461C38.1817 7.09678 38.2171 7.10308 38.2502 7.11623C38.2833 7.12938 38.3134 7.14911 38.3386 7.17422C38.3638 7.19933 38.3837 7.22929 38.397 7.2623C38.4102 7.2953 38.4167 7.33066 38.4158 7.36622L38.3004 16.8069L38.42 26.595C38.4206 26.6308 38.4139 26.6663 38.4003 26.6995C38.3867 26.7326 38.3665 26.7626 38.3408 26.7876C38.3152 26.8126 38.2847 26.8322 38.2512 26.845C38.2177 26.8578 38.1819 26.8636 38.1461 26.8621H35.1823ZM29.5231 24.6739C32.9506 24.6739 35.0308 22.1411 35.0691 17.152C35.1075 12.3549 33.2591 9.51521 29.9854 9.28454H29.3305C25.7104 9.39988 24.0158 12.4301 24.0158 16.7682C24.0135 21.4906 25.7848 24.6739 29.5203 24.6739H29.5231Z" fill="black"/>
<path d="M42.029 26.8634C41.9934 26.8642 41.9581 26.8579 41.925 26.8447C41.892 26.8315 41.862 26.8118 41.8368 26.7867C41.8116 26.7616 41.7918 26.7317 41.7786 26.6987C41.7653 26.6657 41.7589 26.6304 41.7597 26.5949L41.8752 13.2783L41.7597 0.268601C41.7589 0.233078 41.7653 0.197761 41.7786 0.164787C41.7918 0.131812 41.8116 0.101867 41.8368 0.0767636C41.862 0.0516604 41.892 0.0319212 41.925 0.0187422C41.9581 0.00556319 41.9934 -0.000782045 42.029 9.0861e-05H44.9955C45.0311 -0.000844804 45.0666 0.00545424 45.0996 0.0186052C45.1327 0.0317561 45.1628 0.0514848 45.188 0.0765946C45.2132 0.101704 45.2331 0.131672 45.2464 0.164677C45.2597 0.197683 45.2661 0.233039 45.2653 0.268601L45.1498 13.24L45.2653 26.5971C45.2661 26.6327 45.2597 26.6681 45.2464 26.7011C45.2331 26.7341 45.2132 26.764 45.188 26.7891C45.1628 26.8143 45.1327 26.834 45.0996 26.8471C45.0666 26.8603 45.0311 26.8666 44.9955 26.8657L42.029 26.8634Z" fill="black"/>
<path d="M62.5258 26.8621C62.4902 26.863 62.4549 26.8567 62.4218 26.8435C62.3887 26.8303 62.3587 26.8106 62.3335 26.7855C62.3083 26.7604 62.2884 26.7304 62.2751 26.6975C62.2618 26.6645 62.2553 26.6292 62.2561 26.5936L62.3332 23.676C60.9855 25.9021 58.8669 27.2455 55.9784 27.2455C50.6249 27.2455 47.7748 22.7552 47.7748 17.0371C47.7748 11.3191 50.8175 6.71387 56.0556 6.71387C58.8669 6.71387 60.9846 7.9037 62.2944 10.091L62.2178 7.36622C62.2169 7.33066 62.2234 7.2953 62.2366 7.2623C62.2499 7.22929 62.2698 7.19933 62.295 7.17422C62.3202 7.14911 62.3503 7.12938 62.3834 7.11623C62.4165 7.10308 62.4519 7.09678 62.4875 7.09771H65.4915C65.5271 7.09678 65.5625 7.10308 65.5956 7.11623C65.6287 7.12938 65.6587 7.14911 65.6839 7.17422C65.7092 7.19933 65.729 7.22929 65.7423 7.2623C65.7556 7.2953 65.762 7.33066 65.7612 7.36622L65.6453 16.8069L65.7612 26.5932C65.7619 26.6287 65.7555 26.664 65.7422 26.697C65.7289 26.73 65.709 26.7599 65.6838 26.785C65.6586 26.8101 65.6285 26.8298 65.5955 26.843C65.5624 26.8562 65.527 26.8625 65.4915 26.8617L62.5258 26.8621ZM56.8666 24.6739C60.2941 24.6739 62.3743 22.1411 62.4126 17.152C62.451 12.3549 60.6026 9.51521 57.3289 9.28454H56.674C53.0534 9.39988 51.3593 12.4301 51.3593 16.7682C51.357 21.4906 53.1283 24.6739 56.8643 24.6739H56.8666Z" fill="black"/>
<path d="M81.5083 26.8621C81.3541 26.8621 81.1615 26.7851 81.0843 26.6342L76.1553 18.5752L71.2249 26.6342C71.1478 26.7873 70.9552 26.8621 70.8009 26.8621H67.6815C67.6546 26.863 67.6281 26.8562 67.6049 26.8425C67.5818 26.8289 67.5631 26.8089 67.551 26.7849C67.5388 26.761 67.5338 26.7341 67.5365 26.7074C67.5391 26.6807 67.5494 26.6553 67.566 26.6342L73.9979 16.3875L68.105 7.32974C68.0877 7.30869 68.0768 7.28307 68.0737 7.25598C68.0707 7.22889 68.0756 7.2015 68.0878 7.17713C68.1 7.15276 68.1191 7.13246 68.1426 7.11868C68.1662 7.10491 68.1932 7.09825 68.2205 7.09952H71.6484C71.8022 7.09952 71.9953 7.17611 72.072 7.32974L76.5396 14.5827L80.8534 7.32974C80.9008 7.26074 80.9639 7.20392 81.0375 7.16391C81.1111 7.12391 81.1932 7.10184 81.2769 7.09952H84.2809C84.3082 7.09825 84.3352 7.10491 84.3587 7.11868C84.3823 7.13246 84.4013 7.15276 84.4135 7.17713C84.4258 7.2015 84.4306 7.22889 84.4276 7.25598C84.4245 7.28307 84.4137 7.30869 84.3964 7.32974L78.6965 16.5019L85.0513 26.6342C85.0679 26.6553 85.0782 26.6807 85.0808 26.7074C85.0835 26.7341 85.0785 26.761 85.0663 26.7849C85.0542 26.8089 85.0355 26.8289 85.0123 26.8425C84.9892 26.8562 84.9627 26.863 84.9358 26.8621H81.5083Z" fill="black"/>
<path d="M94.846 33.1184C94.8245 33.1943 94.7793 33.2615 94.7168 33.3099C94.6544 33.3583 94.5781 33.3854 94.4991 33.3873H91.6877C91.6558 33.386 91.6247 33.3774 91.5966 33.3623C91.5685 33.3471 91.5443 33.3257 91.5257 33.2998C91.5071 33.2739 91.4947 33.2441 91.4894 33.2126C91.4841 33.1812 91.4861 33.1489 91.4951 33.1184L93.652 26.9016L85.8724 7.36788C85.7948 7.21425 85.8724 7.09937 86.0262 7.09937H89.4537C89.5326 7.10125 89.6089 7.12833 89.6713 7.17665C89.7337 7.22497 89.779 7.29198 89.8005 7.36788L95.4621 22.3347L100.238 7.36788C100.259 7.29206 100.304 7.2251 100.367 7.17679C100.429 7.12847 100.505 7.10134 100.584 7.09937H103.666C103.82 7.09937 103.897 7.21425 103.858 7.36788L94.846 33.1184Z" fill="black"/>
<path d="M159.361 20.1942H162.247C162.403 20.1942 162.52 20.3113 162.481 20.4673C161.896 24.602 158.854 27.6445 153.666 27.6445C147.425 27.6445 144.07 23.3148 144.07 17.1907C144.07 10.9106 147.659 6.61987 153.471 6.61987C159.322 6.61987 162.754 10.6376 162.832 17.3467C162.832 17.5028 162.715 17.6198 162.559 17.6198H147.62C147.737 22.4566 149.765 25.0311 153.705 25.0311C156.708 25.0311 158.464 23.4318 159.049 20.4673C159.088 20.3113 159.205 20.1942 159.361 20.1942ZM159.01 15.1234C158.893 11.9248 157.059 9.19432 153.51 9.19432C150.194 9.19432 148.244 11.3397 147.737 15.1234H159.01Z" fill="#9B69FF"/>
<path d="M128.538 27.1764H125.418C125.262 27.1764 125.145 27.0594 125.145 26.9034L125.262 18.0099L125.184 7.361C125.184 7.20497 125.301 7.08795 125.457 7.08795H128.382C128.538 7.08795 128.655 7.20497 128.655 7.361L128.577 10.4815C129.786 8.45319 132.049 6.61987 135.247 6.61987C139.382 6.61987 141.995 9.35035 141.995 14.5773V18.595L142.073 26.9034C142.073 27.0594 141.956 27.1764 141.8 27.1764H138.719C138.563 27.1764 138.446 27.0594 138.446 26.9034L138.524 18.595V14.7333C138.524 11.1057 136.808 9.46737 134.272 9.46737C131.659 9.46737 129.513 11.5737 128.733 15.5524V18.595L128.811 26.9034C128.811 27.0594 128.694 27.1764 128.538 27.1764Z" fill="#9B69FF"/>
<path d="M123.003 17.1478C123.003 23.5007 119.591 27.736 113.434 27.736C107.316 27.736 103.865 23.5792 103.865 17.2263C103.865 10.8341 107.316 6.59888 113.434 6.59888C119.591 6.59888 123.003 10.7949 123.003 17.1478ZM107.473 17.2263C107.473 22.285 109.473 25.1086 113.434 25.1086C117.395 25.1086 119.316 22.285 119.316 17.2263C119.316 12.1675 117.356 9.22631 113.434 9.22631C109.434 9.26553 107.473 12.1675 107.473 17.2263Z" fill="#9B69FF"/>
</svg>
