<?xml version="1.0" encoding="UTF-8" standalone="no"?>
<!-- Created with Inkscape (http://www.inkscape.org/) -->

<svg
   version="1.1"
   id="svg1"
   width="4802.6665"
   height="1374.6934"
   viewBox="0 0 4802.6665 1374.6934"
   sodipodi:docname="Galaxy_Lockup_Horizontal_White.pdf"
   xmlns:inkscape="http://www.inkscape.org/namespaces/inkscape"
   xmlns:sodipodi="http://sodipodi.sourceforge.net/DTD/sodipodi-0.dtd"
   xmlns="http://www.w3.org/2000/svg"
   xmlns:svg="http://www.w3.org/2000/svg">
  <defs
     id="defs1" />
  <sodipodi:namedview
     id="namedview1"
     pagecolor="#ffffff"
     bordercolor="#000000"
     borderopacity="0.25"
     inkscape:showpageshadow="2"
     inkscape:pageopacity="0.0"
     inkscape:pagecheckerboard="0"
     inkscape:deskcolor="#d1d1d1">
    <inkscape:page
       x="0"
       y="0"
       inkscape:label="1"
       id="page1"
       width="4802.6665"
       height="1374.6934"
       margin="0"
       bleed="0" />
  </sodipodi:namedview>
  <g
     id="g1"
     inkscape:groupmode="layer"
     inkscape:label="1">
    <g
       id="group-R5">
      <path
         id="path2"
         d="m 15276.4,3472.35 c 708.9,0 1173,505.11 1181.4,1574.24 8.5,1035.41 -396.6,1658.36 -1113.9,1708.88 -25.3,0 -109.7,0 -143.5,0 -776.3,-25.26 -1172.9,-665.01 -1172.9,-1649.96 0,-1043.87 421.9,-1641.56 1248.9,-1633.16 z m -33.7,-2222.39 c -1004.3,-16.86 -1797.5,412.46 -1873.5,1355.34 0,33.66 25.4,58.93 59.1,58.93 h 641.3 c 33.8,0 59.1,-25.27 67.6,-58.93 75.9,-547.22 514.7,-799.77 1122.3,-799.77 708.9,0 1198.3,420.92 1198.3,1397.46 v 488.25 c -278.5,-479.84 -742.6,-766.06 -1350.2,-766.06 -1215.2,0 -1856.5,917.57 -1856.5,2155.07 0,1229.04 658.2,2222.39 1831.2,2222.39 607.6,0 1071.7,-260.95 1358.7,-740.79 l -25.4,614.54 c 0,33.66 25.4,58.93 59.1,58.93 h 649.8 c 33.7,0 59.1,-25.27 59.1,-58.93 l -16.9,-1675.22 8.4,-2306.63 c 8.5,-1245.9 -692,-1944.58 -1932.4,-1944.58"
         style="fill:#ffffff;fill-opacity:1;fill-rule:nonzero;stroke:none"
         transform="matrix(0.13333333,0,0,-0.13333333,0,1374.6933)" />
      <path
         id="path3"
         d="m 19720.1,3379.77 c 751,0 1206.8,555.62 1215.2,1649.96 8.4,1052.27 -396.6,1675.22 -1113.9,1725.74 -25.3,0 -109.7,0 -143.5,0 -793.2,-25.26 -1164.5,-690.27 -1164.5,-1641.56 0,-1035.41 388.1,-1734.14 1206.7,-1734.14 z m 1240.5,-479.85 c -33.7,0 -59,25.26 -59,58.92 l 16.8,639.81 c -295.3,-488.3 -759.5,-782.91 -1392.4,-782.91 -1173,0 -1797.5,984.94 -1797.5,2239.25 0,1254.3 666.7,2264.51 1814.4,2264.51 616,0 1080.2,-260.96 1367.1,-740.8 l -16.9,597.69 c 0,33.66 25.3,58.93 59.1,58.93 h 658.2 c 33.8,0 59.1,-25.27 59.1,-58.93 l -25.3,-2070.88 25.3,-2146.67 c 0,-33.66 -25.3,-58.92 -59.1,-58.92 h -649.8"
         style="fill:#ffffff;fill-opacity:1;fill-rule:nonzero;stroke:none"
         transform="matrix(0.13333333,0,0,-0.13333333,0,1374.6933)" />
      <path
         id="path4"
         d="m 22460.7,2899.92 c -33.7,0 -59,25.26 -59,58.92 l 25.3,2921.13 -25.3,2853.8 c 0,33.66 25.3,58.93 59,58.93 h 649.8 c 33.8,0 59.1,-25.27 59.1,-58.93 l -25.3,-2845.4 25.3,-2929.53 c 0,-33.66 -25.3,-58.92 -59.1,-58.92 h -649.8"
         style="fill:#ffffff;fill-opacity:1;fill-rule:nonzero;stroke:none"
         transform="matrix(0.13333333,0,0,-0.13333333,0,1374.6933)" />
      <path
         id="path5"
         d="m 25711.3,3379.77 c 751,0 1206.8,555.62 1215.2,1649.96 8.4,1052.27 -396.6,1675.22 -1113.9,1725.74 -25.3,0 -109.8,0 -143.5,0 -793.3,-25.26 -1164.5,-690.27 -1164.5,-1641.56 0,-1035.41 388.1,-1734.14 1206.7,-1734.14 z m 1240.5,-479.85 c -33.7,0 -59.1,25.26 -59.1,58.92 l 16.9,639.81 c -295.3,-488.3 -759.5,-782.91 -1392.4,-782.91 -1173,0 -1797.5,984.94 -1797.5,2239.25 0,1254.3 666.7,2264.51 1814.4,2264.51 616,0 1080.2,-260.96 1367,-740.8 l -16.8,597.69 c 0,33.66 25.3,58.93 59.1,58.93 h 658.2 c 33.7,0 59.1,-25.27 59.1,-58.93 l -25.4,-2070.88 25.4,-2146.67 c 0,-33.66 -25.4,-58.92 -59.1,-58.92 h -649.8"
         style="fill:#ffffff;fill-opacity:1;fill-rule:nonzero;stroke:none"
         transform="matrix(0.13333333,0,0,-0.13333333,0,1374.6933)" />
      <path
         id="path6"
         d="m 31111.1,2899.92 c -33.8,0 -76,16.86 -92.9,50.52 L 29938,4718.25 28857.9,2950.44 c -16.9,-33.66 -59.1,-50.52 -92.9,-50.52 h -683.5 c -25.3,0 -42.2,25.26 -25.3,50.52 l 1409.3,2247.66 -1291.2,1986.69 c -16.9,25.26 0,50.53 25.3,50.53 h 751.1 c 33.7,0 76,-16.86 92.8,-50.53 l 978.9,-1591.04 945.2,1591.04 c 25.3,33.67 59,50.53 92.8,50.53 h 658.2 c 25.3,0 42.2,-25.27 25.3,-50.53 L 30495,5172.84 31887.4,2950.44 c 16.9,-25.26 0,-50.52 -25.3,-50.52 h -751"
         style="fill:#ffffff;fill-opacity:1;fill-rule:nonzero;stroke:none"
         transform="matrix(0.13333333,0,0,-0.13333333,0,1374.6933)" />
      <path
         id="path7"
         d="m 34033.2,1527.77 c -8.4,-33.72 -42.2,-58.92 -76,-58.92 h -616 c -25.3,0 -50.6,25.2 -42.2,58.92 l 472.6,1363.75 -1704.6,4284.87 c -17,33.66 0,58.93 33.7,58.93 h 751 c 33.8,0 67.5,-25.27 76,-58.93 l 1240.5,-3283.12 1046.4,3283.12 c 8.5,33.66 42.2,58.93 75.9,58.93 h 675.2 c 33.7,0 50.6,-25.27 42.1,-58.93 L 34033.2,1527.77"
         style="fill:#ffffff;fill-opacity:1;fill-rule:nonzero;stroke:none"
         transform="matrix(0.13333333,0,0,-0.13333333,0,1374.6933)" />
      <path
         id="path8"
         d="m 1527.55,8792.66 h 7327.2 V 1465.92 c 937.55,937.49 1517.55,2232.49 1517.55,3663.13 0,2861.48 -2319.68,5181.15 -5181.15,5181.15 C 2329.68,10310.2 10,7990.53 10,5129.05 10,3698.72 590.359,2404.59 1527.55,1467.16 v 7325.5"
         style="fill:#ffffff;fill-opacity:1;fill-rule:nonzero;stroke:none"
         transform="matrix(0.13333333,0,0,-0.13333333,0,1374.6933)" />
      <path
         id="path9"
         d="m 1529.21,1465.45 h -1.66 V 0 h 7327.2 v 1465.45 h -0.45 -7325.09"
         style="fill:#ffffff;fill-opacity:1;fill-rule:nonzero;stroke:none"
         transform="matrix(0.13333333,0,0,-0.13333333,0,1374.6933)" />
    </g>
  </g>
</svg>
