<svg version="1.2" xmlns="http://www.w3.org/2000/svg" viewBox="0 0 1556 1549" width="1556" height="1549">
	<title>Bitmap (28)-svg</title>
	<style>
		.s0 { fill: #ffffff } 
	</style>
	<g id="#000000ff">
		<path id="Layer" fill-rule="evenodd" class="s0" d="m532.9 39.8c112.7-37.5 234.1-48.2 351.7-32.2 95.5 13 188.6 44.2 272.7 91.3 98.1 54.8 184 131.1 250.1 222 52.2 71.7 92.1 152.4 117.1 237.5 32.2 109.6 39.6 226.2 22.3 339.1-14.8 97-48.5 191.2-98.5 275.7-33.3 56.4-73.8 108.6-120.2 155 0 73.3 0 146.7 0 220q-550.1 0.1-1100.1 0c-0.1-73.3 0-146.7-0.1-220-44.1-44.4-83.1-93.9-115.5-147.4-48.7-80.2-82.6-169.2-99.4-261.4-21.1-115.2-16.1-235.1 14.9-348 22.6-82.1 58.9-160.5 107-230.8 43.1-63.4 95.7-120.3 155.4-168.3 72.1-58.2 154.7-103.4 242.6-132.5zm-304.6 188.8q0 549.7 0 1099.4 549.7 0 1099.5 0 0-549.7 0-1099.4-549.8 0-1099.5 0z"/>
	</g>
</svg>