<svg preserveAspectRatio="none" width="100%" height="100%" overflow="visible" style="display: block;" viewBox="0 0 111.13 36" fill="none" xmlns="http://www.w3.org/2000/svg">
<g id="dRPC_fullcollor_white.0c615983 1" clip-path="url(#clip0_0_59)">
<path id="Vector" d="M102.603 26.3066C100.594 26.3066 98.9037 26.0029 97.5325 25.3954C96.1622 24.7723 95.126 23.8454 94.4248 22.6148C93.74 21.3841 93.3972 19.8419 93.3972 17.9881C93.3972 15.2931 94.1838 13.2368 95.7568 11.8193C97.3463 10.4017 99.6284 9.69287 102.603 9.69287C104.254 9.69287 105.719 9.94996 106.997 10.464C108.289 10.9625 109.294 11.6946 110.01 12.6604C110.743 13.6263 111.109 14.8024 111.109 16.1888H107.324C107.324 15.4567 107.121 14.8414 106.716 14.3429C106.327 13.8288 105.773 13.4394 105.057 13.1745C104.34 12.8941 103.507 12.754 102.557 12.754C101.45 12.754 100.508 12.9487 99.7293 13.3381C98.9506 13.7275 98.3582 14.2883 97.9536 15.0206C97.5482 15.7527 97.3463 16.6328 97.3463 17.661V18.3153C97.3463 19.3434 97.5482 20.2313 97.9536 20.979C98.3582 21.7112 98.9428 22.272 99.7058 22.6615C100.485 23.0509 101.435 23.2456 102.557 23.2456C103.57 23.2456 104.434 23.121 105.15 22.8718C105.882 22.6069 106.443 22.2253 106.833 21.7268C107.238 21.2127 107.44 20.5896 107.44 19.8575H111.109C111.109 21.2283 110.751 22.3966 110.034 23.3625C109.333 24.3127 108.343 25.0448 107.066 25.5589C105.789 26.0575 104.301 26.3066 102.603 26.3066Z" fill="var(--fill-0, white)"/>
<path id="Vector_2" d="M56.158 26.0263V9.97339H67.6311C68.7994 9.97339 69.7574 10.1992 70.5052 10.651C71.2685 11.1028 71.8371 11.7103 72.211 12.4737C72.5848 13.2369 72.7717 14.0937 72.7717 15.044C72.7717 16.041 72.5303 16.9522 72.0474 17.7779C71.5645 18.588 70.8479 19.2266 69.8977 19.6939L73.2157 26.0263H68.9163L66.0889 20.3482H60.0135V26.0263H56.158ZM60.0135 17.3339H66.6964C67.3663 17.3339 67.8881 17.1314 68.262 16.7264C68.6515 16.3214 68.8462 15.7839 68.8462 15.1141C68.8462 14.6779 68.7605 14.304 68.5892 13.9925C68.4333 13.6809 68.1919 13.4472 67.8648 13.2915C67.5376 13.1201 67.1481 13.0344 66.6964 13.0344H60.0135V17.3339Z" fill="var(--fill-0, white)"/>
<path id="Vector_3" d="M74.9988 26.0263V9.97339H86.472C87.6404 9.97339 88.5983 10.1992 89.3457 10.651C90.1096 11.1028 90.6777 11.7103 91.0518 12.4737C91.4259 13.2369 91.6122 14.0937 91.6122 15.044C91.6122 16.041 91.3711 16.9522 90.8883 17.7779C90.4054 18.588 89.6885 19.2266 88.7384 19.6939C88.7384 19.6939 87.3094 20.3482 84.9295 20.3482C82.5503 20.3482 78.8541 20.3482 78.8541 20.3482V26.0263H74.9988ZM78.8541 17.3339H85.5376C86.2067 17.3339 86.7287 17.1314 87.1028 16.7264C87.4925 16.3214 87.6866 15.7839 87.6866 15.1141C87.6866 14.6779 87.6013 14.304 87.4299 13.9925C87.2742 13.6809 87.0323 13.4472 86.7052 13.2915C86.3781 13.1201 85.9891 13.0344 85.5376 13.0344H78.8541V17.3339Z" fill="var(--fill-0, white)"/>
<path id="Vector_4" d="M45.0619 26.2936C43.8157 26.2936 42.7252 26.0599 41.7905 25.5926C40.8559 25.1252 40.1237 24.4164 39.5941 23.4662C39.0644 22.5159 38.7996 21.3164 38.7996 19.8678C38.7996 18.3878 39.0567 17.1806 39.5707 16.2459C40.1003 15.2957 40.8247 14.5869 41.7438 14.1195C42.6629 13.6522 43.7144 13.4185 44.8984 13.4185C45.5059 13.4185 46.09 13.4886 46.6509 13.6288C47.2273 13.7535 47.7491 13.9482 48.2164 14.213C48.6993 14.4778 49.1122 14.8049 49.4549 15.1944H49.6184V9.98364H53.2403V26.0299H50.0157V24.0971H49.8287C49.2523 24.9072 48.5513 25.4758 47.7257 25.8029C46.9157 26.13 46.0277 26.2936 45.0619 26.2936ZM46.0666 23.3961C46.83 23.3961 47.4764 23.2637 48.0061 22.9989C48.5358 22.7185 48.9408 22.3212 49.2212 21.8072C49.5016 21.2931 49.6418 20.6778 49.6418 19.9612V19.7742C49.6418 19.2291 49.5639 18.7461 49.4081 18.3255C49.2523 17.8893 49.0186 17.5233 48.7071 17.2273C48.3955 16.9313 48.0139 16.7055 47.5621 16.5497C47.1104 16.3939 46.5963 16.316 46.0199 16.316C45.2722 16.316 44.6335 16.4484 44.1039 16.7132C43.5898 16.9781 43.1926 17.3597 42.9122 17.8582C42.6473 18.3567 42.5149 18.9564 42.5149 19.6575V20.0546C42.5149 20.7557 42.6473 21.3554 42.9122 21.8539C43.1926 22.3524 43.5976 22.7341 44.1273 22.9989C44.6568 23.2637 45.3034 23.3961 46.0666 23.3961Z" fill="var(--fill-0, white)"/>
<path id="Vector_5" d="M0.0222282 26.6121L4.99051 23.7415L9.9588 26.6121L4.99051 29.4826L0.0222282 26.6121Z" fill="var(--fill-0, #B6B6B6)"/>
<path id="Vector_6" d="M4.99098 6.54565L9.95929 9.38864V26.612L4.99098 23.7414V6.54565Z" fill="var(--fill-0, white)"/>
<path id="Vector_7" d="M4.99051 6.54565L0.0222282 9.38864V26.6118L4.99051 23.7413V6.54565Z" fill="var(--fill-0, #4F4F4F)"/>
<path id="Vector_8" d="M14.9269 0.783691L14.9287 6.52164L9.9586 9.38903L9.9568 3.65107L14.9269 0.783691Z" fill="var(--fill-0, #B6B6B6)"/>
<path id="Vector_9" d="M29.8223 15.1188L29.8444 9.39463L14.9285 0.782959L14.93 6.52069L29.8223 15.1188Z" fill="var(--fill-0, #4F4F4F)"/>
<path id="Vector_10" d="M29.8201 15.1185L24.8738 17.9996L9.95801 9.38798L9.95863 9.38681L14.9284 6.52075L29.8201 15.1185Z" fill="var(--fill-0, white)"/>
<path id="Vector_11" d="M24.8748 18.0007L24.873 23.7387L29.8432 26.6061L29.845 20.8681L24.8748 18.0007Z" fill="var(--fill-0, #B6B6B6)"/>
<path id="Vector_12" d="M9.98024 32.3356L14.9265 35.2168L29.8424 26.6051L24.8724 23.7378L9.98024 32.3356Z" fill="var(--fill-0, white)"/>
<path id="Vector_13" d="M9.9818 32.3362L9.95973 26.6121L24.875 18.0007L24.8731 23.7383L9.9818 32.3362Z" fill="var(--fill-0, #4F4F4F)"/>
</g>
<defs>
<clipPath id="clip0_0_59">
<rect width="111.13" height="36" fill="white"/>
</clipPath>
</defs>
</svg>
