<svg width="722" height="177" viewBox="0 0 722 177" fill="none" xmlns="http://www.w3.org/2000/svg">
<path fill-rule="evenodd" clip-rule="evenodd" d="M518.55 17.1001C518.55 24.3001 512.58 30.0901 505.38 30.0901C498.01 30.0901 491.86 24.3001 491.86 17.1001C491.86 9.90011 498.01 4.11011 505.38 4.11011C512.58 4.11011 518.55 9.90011 518.55 17.1001ZM513.63 132.25H496.78C495.37 132.25 494.5 131.37 494.5 129.97V46.7601C494.5 45.3601 495.38 44.4801 496.78 44.4801H513.63C515.21 44.4801 515.91 45.3601 515.91 46.7601V129.97C515.91 131.37 515.03 132.25 513.63 132.25ZM339.99 78.8801H383C384.06 78.8801 384.76 78.1801 384.58 77.1301C383 66.9501 373.17 59.75 360.88 59.75C348.94 59.75 339.46 66.9401 338.06 76.9501C337.88 78.0001 338.76 78.8801 339.99 78.8801ZM316.3 87.84C316.3 61.68 335.26 42.55 361.06 42.55C386.16 42.55 406.88 59.58 405.11 91.33C405.11 93.27 403.71 94.6701 401.6 94.6701H339.46C338.23 94.6701 337.7 95.55 337.88 96.78C338.76 108.02 348.94 116.62 361.4 116.62C370.52 116.62 378.25 112.41 382.11 105.39C382.64 104.16 383.34 103.63 384.57 103.63H401.25C402.66 103.63 403.54 104.68 403.01 106.44C397.92 122.95 381.77 134.18 362.99 134.18C335.43 134.18 316.3 115.22 316.3 87.84ZM306.75 132.25H236.18C234.77 132.25 233.89 131.37 233.92 129.97V119.61C233.92 118.2 234.27 116.8 235.32 115.57L278.85 64.66C279.73 63.6 279.03 62.2 277.8 62.2H237.6C236.2 62.2 235.32 61.32 235.32 59.92V46.75C235.32 45.35 236.2 44.47 237.6 44.47H305.18C306.58 44.47 307.46 45.35 307.46 46.75V56.76C307.46 58.52 306.93 59.75 305.7 61.15L261.99 112.06C261.11 113.12 261.99 114.52 263.22 114.52H306.75C308.15 114.52 309.03 115.4 309.03 116.8V129.97C309.03 131.37 308.15 132.25 306.75 132.25ZM477.65 44.48H466.06C455.35 44.48 448.51 48.34 444.82 56.59C443.77 58.87 440.78 58.35 440.78 56.06V46.76C440.78 45.36 439.9 44.48 438.5 44.48H423.75C422.35 44.48 421.47 45.36 421.47 46.76V129.97C421.47 131.37 422.35 132.25 423.75 132.25H440.6C442.18 132.25 442.88 131.2 442.88 129.97V70.64C442.88 68.53 444.46 66.43 446.74 66.43H477.63C479.03 66.43 479.91 65.55 479.91 64.15V46.77C479.93 45.36 479.05 44.48 477.65 44.48ZM577.13 115.75C562.56 115.75 552.2 104.16 552.2 88.0101C552.2 72.2101 562.56 60.9801 577.13 60.9801C591.7 60.9801 602.23 72.2101 602.23 88.0101C602.23 104.16 591.69 115.75 577.13 115.75ZM577.3 134.18C604.33 134.18 623.64 114.87 623.64 87.84C623.64 61.51 604.33 42.55 577.3 42.55C550.09 42.55 530.61 61.51 530.61 87.84C530.61 114.87 550.09 134.18 577.3 134.18ZM721.84 78.5401V129.97C721.84 131.37 720.96 132.25 719.55 132.25H702.7C701.3 132.25 700.42 131.37 700.42 129.97V82.4C700.42 68.7 693.57 60.9801 681.46 60.9801C667.42 60.9801 659.87 69.06 659.87 84.68V129.97C659.87 131.37 658.99 132.25 657.59 132.25H640.74C639.34 132.25 638.46 131.37 638.46 129.97V46.7601C638.46 45.3601 639.34 44.4801 640.74 44.4801H655.49C656.89 44.4801 657.77 45.36 657.77 46.94V53.6101C657.77 55.7201 659.88 56.25 661.28 54.49C667.25 46.76 676.55 42.55 687.61 42.55C707.97 42.55 721.84 55.1901 721.84 78.5401Z M126.8 0H49.99C22.38 0 0 22.38 0 49.99V126.8C0 154.41 22.38 176.79 49.99 176.79H126.8C154.41 176.79 176.79 154.41 176.79 126.8V49.99C176.79 22.38 154.41 0 126.8 0Z M101.01 86.06C83.83 76.78 62.9301 64.74 47.2001 54.93C42.5601 51.59 44.91 44.49 50.52 44.49H128.35C132.69 44.49 135.59 49.33 133.42 52.99C128.2 62.03 120.56 73.5 114.18 82.59C110.76 87.47 105.18 88.31 101.01 86.06Z M75.96 89.0799C92.56 97.9299 115.84 111.4 132.38 121.58C137.49 124.73 135.45 132.3 129.49 132.29C119.726 132.29 103.858 132.292 88.0699 132.295C72.4414 132.297 56.8918 132.3 47.42 132.3C42.65 132.3 40.2 127.36 42.23 123.9C49.08 112.23 56.78 100.45 63.17 91.6599C66.02 87.7399 71.8 86.8599 75.96 89.0799Z" fill="currentColor"/>
</svg>
