<svg width="384" height="82" viewBox="0 0 384 82" fill="none" xmlns="http://www.w3.org/2000/svg">
<g clip-path="url(#clip0_97_11)">
<mask id="path-1-inside-1_97_11" fill="white">
<path d="M90.2538 65H80.1288L98.5635 12.6364H110.274L128.734 65H118.609L104.623 23.375H104.214L90.2538 65ZM90.5862 44.4688H118.2V52.0881H90.5862V44.4688Z"/>
<path d="M135.222 65V25.7273H144.068V32.4006H144.529C145.347 30.1506 146.702 28.3949 148.594 27.1335C150.486 25.8551 152.745 25.2159 155.37 25.2159C158.029 25.2159 160.27 25.8636 162.094 27.1591C163.935 28.4375 165.23 30.1847 165.98 32.4006H166.389C167.259 30.2187 168.725 28.4801 170.787 27.1847C172.867 25.8722 175.33 25.2159 178.176 25.2159C181.79 25.2159 184.739 26.358 187.023 28.642C189.307 30.9261 190.449 34.2585 190.449 38.6392V65H181.168V40.071C181.168 37.6335 180.52 35.8523 179.225 34.7273C177.929 33.5852 176.344 33.0142 174.469 33.0142C172.236 33.0142 170.489 33.7131 169.228 35.1108C167.983 36.4915 167.361 38.2898 167.361 40.5057V65H158.284V39.6875C158.284 37.6591 157.671 36.0398 156.443 34.8295C155.233 33.6193 153.648 33.0142 151.688 33.0142C150.358 33.0142 149.148 33.3551 148.057 34.0369C146.966 34.7017 146.097 35.6477 145.449 36.875C144.801 38.0852 144.478 39.5 144.478 41.1193V65H135.222Z"/>
<path d="M199.839 79.7273V25.7273H208.941V32.2216H209.478C209.956 31.267 210.629 30.2528 211.498 29.179C212.367 28.0881 213.544 27.1591 215.027 26.392C216.51 25.608 218.402 25.2159 220.703 25.2159C223.737 25.2159 226.473 25.9915 228.91 27.5426C231.365 29.0767 233.308 31.3523 234.74 34.3693C236.188 37.3693 236.913 41.0511 236.913 45.4148C236.913 49.7273 236.206 53.392 234.791 56.4091C233.376 59.4261 231.45 61.7273 229.012 63.3125C226.575 64.8977 223.813 65.6903 220.728 65.6903C218.478 65.6903 216.612 65.3153 215.129 64.5653C213.646 63.8153 212.453 62.9119 211.549 61.8551C210.663 60.7812 209.973 59.767 209.478 58.8125H209.095V79.7273H199.839ZM208.916 45.3636C208.916 47.9034 209.274 50.1278 209.99 52.0369C210.723 53.946 211.771 55.4375 213.135 56.5114C214.515 57.5682 216.186 58.0966 218.146 58.0966C220.191 58.0966 221.904 57.5511 223.285 56.4602C224.666 55.3523 225.706 53.8438 226.404 51.9347C227.12 50.0085 227.478 47.8182 227.478 45.3636C227.478 42.9261 227.129 40.7614 226.43 38.8693C225.731 36.9773 224.691 35.4943 223.311 34.4205C221.93 33.3466 220.208 32.8097 218.146 32.8097C216.169 32.8097 214.49 33.3295 213.109 34.3693C211.728 35.4091 210.68 36.8665 209.964 38.7415C209.265 40.6165 208.916 42.8239 208.916 45.3636Z"/>
<path d="M263.108 65V12.6364H282.744C286.767 12.6364 290.142 13.3864 292.869 14.8864C295.613 16.3864 297.684 18.4489 299.082 21.0739C300.497 23.6818 301.204 26.6477 301.204 29.9716C301.204 33.3295 300.497 36.3125 299.082 38.9205C297.667 41.5284 295.579 43.5824 292.818 45.0824C290.056 46.5653 286.656 47.3068 282.616 47.3068H269.602V39.5085H281.338C283.69 39.5085 285.616 39.0994 287.116 38.2812C288.616 37.4631 289.724 36.3381 290.44 34.9062C291.173 33.4744 291.539 31.8295 291.539 29.9716C291.539 28.1136 291.173 26.4773 290.44 25.0625C289.724 23.6477 288.608 22.5483 287.09 21.7642C285.59 20.9631 283.656 20.5625 281.286 20.5625H272.593V65H263.108Z"/>
<path d="M319.632 65.7926C317.144 65.7926 314.902 65.3494 312.908 64.4631C310.931 63.5597 309.362 62.2301 308.203 60.4744C307.061 58.7188 306.49 56.554 306.49 53.9801C306.49 51.7642 306.899 49.9318 307.718 48.483C308.536 47.0341 309.652 45.875 311.067 45.0057C312.482 44.1364 314.076 43.4801 315.848 43.0369C317.638 42.5767 319.487 42.2443 321.397 42.0398C323.698 41.8011 325.564 41.5881 326.996 41.4006C328.428 41.196 329.468 40.8892 330.115 40.4801C330.78 40.054 331.112 39.3977 331.112 38.5114V38.358C331.112 36.4318 330.541 34.9403 329.399 33.8835C328.257 32.8267 326.612 32.2983 324.465 32.2983C322.198 32.2983 320.399 32.7926 319.07 33.7812C317.757 34.7699 316.871 35.9375 316.411 37.2841L307.769 36.0568C308.451 33.6705 309.576 31.6761 311.144 30.0739C312.712 28.4545 314.63 27.2443 316.897 26.4432C319.164 25.625 321.669 25.2159 324.414 25.2159C326.306 25.2159 328.189 25.4375 330.064 25.8807C331.939 26.3239 333.652 27.0568 335.203 28.0795C336.755 29.0852 337.999 30.4574 338.936 32.196C339.891 33.9347 340.368 36.108 340.368 38.7159V65H331.47V59.6051H331.164C330.601 60.696 329.809 61.7188 328.786 62.6733C327.78 63.6108 326.51 64.3693 324.976 64.9489C323.459 65.5114 321.678 65.7926 319.632 65.7926ZM322.036 58.9915C323.894 58.9915 325.505 58.625 326.868 57.892C328.232 57.142 329.28 56.1534 330.013 54.9261C330.763 53.6989 331.138 52.3608 331.138 50.9119V46.2841C330.848 46.5227 330.354 46.7443 329.655 46.9489C328.973 47.1534 328.206 47.3324 327.354 47.4858C326.502 47.6392 325.658 47.7756 324.823 47.8949C323.987 48.0142 323.263 48.1165 322.649 48.2017C321.269 48.3892 320.033 48.696 318.942 49.1222C317.851 49.5483 316.99 50.1449 316.36 50.9119C315.729 51.6619 315.414 52.6335 315.414 53.8267C315.414 55.5312 316.036 56.8182 317.28 57.6875C318.524 58.5568 320.11 58.9915 322.036 58.9915Z"/>
<path d="M354.022 79.7273C352.76 79.7273 351.593 79.625 350.519 79.4205C349.462 79.233 348.618 79.0114 347.987 78.7557L350.135 71.5455C351.482 71.9375 352.684 72.125 353.74 72.108C354.797 72.0909 355.726 71.7585 356.527 71.1108C357.345 70.4801 358.036 69.4233 358.598 67.9403L359.391 65.8182L345.149 25.7273H354.968L364.019 55.3864H364.428L373.505 25.7273H383.348L367.624 69.7557C366.891 71.8352 365.919 73.6165 364.709 75.0994C363.499 76.5994 362.016 77.7415 360.26 78.5256C358.522 79.3267 356.442 79.7273 354.022 79.7273Z"/>
<path d="M19.8032 0C19.4281 0 19.0846 0.2099 18.9134 0.543653L0.111524 37.2042C-0.22976 37.8697 0.253465 38.6605 1.00133 38.6605H16.9192C17.6274 38.6605 18.1112 39.3765 17.847 40.0336L1.90496 79.6821C1.47527 80.7507 2.89534 81.5792 3.61415 80.6792L44.0675 30.0277C44.5906 29.3728 44.1243 28.4037 43.2862 28.4037H24.967C24.1805 28.4037 23.7018 27.5376 24.1202 26.8717L40.0401 1.53198C40.4585 0.866018 39.9798 0 39.1933 0H19.8032Z"/>
</mask>
<path d="M90.2538 65H80.1288L98.5635 12.6364H110.274L128.734 65H118.609L104.623 23.375H104.214L90.2538 65ZM90.5862 44.4688H118.2V52.0881H90.5862V44.4688Z" fill="white"/>
<path d="M135.222 65V25.7273H144.068V32.4006H144.529C145.347 30.1506 146.702 28.3949 148.594 27.1335C150.486 25.8551 152.745 25.2159 155.37 25.2159C158.029 25.2159 160.27 25.8636 162.094 27.1591C163.935 28.4375 165.23 30.1847 165.98 32.4006H166.389C167.259 30.2187 168.725 28.4801 170.787 27.1847C172.867 25.8722 175.33 25.2159 178.176 25.2159C181.79 25.2159 184.739 26.358 187.023 28.642C189.307 30.9261 190.449 34.2585 190.449 38.6392V65H181.168V40.071C181.168 37.6335 180.52 35.8523 179.225 34.7273C177.929 33.5852 176.344 33.0142 174.469 33.0142C172.236 33.0142 170.489 33.7131 169.228 35.1108C167.983 36.4915 167.361 38.2898 167.361 40.5057V65H158.284V39.6875C158.284 37.6591 157.671 36.0398 156.443 34.8295C155.233 33.6193 153.648 33.0142 151.688 33.0142C150.358 33.0142 149.148 33.3551 148.057 34.0369C146.966 34.7017 146.097 35.6477 145.449 36.875C144.801 38.0852 144.478 39.5 144.478 41.1193V65H135.222Z" fill="white"/>
<path d="M199.839 79.7273V25.7273H208.941V32.2216H209.478C209.956 31.267 210.629 30.2528 211.498 29.179C212.367 28.0881 213.544 27.1591 215.027 26.392C216.51 25.608 218.402 25.2159 220.703 25.2159C223.737 25.2159 226.473 25.9915 228.91 27.5426C231.365 29.0767 233.308 31.3523 234.74 34.3693C236.188 37.3693 236.913 41.0511 236.913 45.4148C236.913 49.7273 236.206 53.392 234.791 56.4091C233.376 59.4261 231.45 61.7273 229.012 63.3125C226.575 64.8977 223.813 65.6903 220.728 65.6903C218.478 65.6903 216.612 65.3153 215.129 64.5653C213.646 63.8153 212.453 62.9119 211.549 61.8551C210.663 60.7812 209.973 59.767 209.478 58.8125H209.095V79.7273H199.839ZM208.916 45.3636C208.916 47.9034 209.274 50.1278 209.99 52.0369C210.723 53.946 211.771 55.4375 213.135 56.5114C214.515 57.5682 216.186 58.0966 218.146 58.0966C220.191 58.0966 221.904 57.5511 223.285 56.4602C224.666 55.3523 225.706 53.8438 226.404 51.9347C227.12 50.0085 227.478 47.8182 227.478 45.3636C227.478 42.9261 227.129 40.7614 226.43 38.8693C225.731 36.9773 224.691 35.4943 223.311 34.4205C221.93 33.3466 220.208 32.8097 218.146 32.8097C216.169 32.8097 214.49 33.3295 213.109 34.3693C211.728 35.4091 210.68 36.8665 209.964 38.7415C209.265 40.6165 208.916 42.8239 208.916 45.3636Z" fill="white"/>
<path d="M263.108 65V12.6364H282.744C286.767 12.6364 290.142 13.3864 292.869 14.8864C295.613 16.3864 297.684 18.4489 299.082 21.0739C300.497 23.6818 301.204 26.6477 301.204 29.9716C301.204 33.3295 300.497 36.3125 299.082 38.9205C297.667 41.5284 295.579 43.5824 292.818 45.0824C290.056 46.5653 286.656 47.3068 282.616 47.3068H269.602V39.5085H281.338C283.69 39.5085 285.616 39.0994 287.116 38.2812C288.616 37.4631 289.724 36.3381 290.44 34.9062C291.173 33.4744 291.539 31.8295 291.539 29.9716C291.539 28.1136 291.173 26.4773 290.44 25.0625C289.724 23.6477 288.608 22.5483 287.09 21.7642C285.59 20.9631 283.656 20.5625 281.286 20.5625H272.593V65H263.108Z" fill="white"/>
<path d="M319.632 65.7926C317.144 65.7926 314.902 65.3494 312.908 64.4631C310.931 63.5597 309.362 62.2301 308.203 60.4744C307.061 58.7188 306.49 56.554 306.49 53.9801C306.49 51.7642 306.899 49.9318 307.718 48.483C308.536 47.0341 309.652 45.875 311.067 45.0057C312.482 44.1364 314.076 43.4801 315.848 43.0369C317.638 42.5767 319.487 42.2443 321.397 42.0398C323.698 41.8011 325.564 41.5881 326.996 41.4006C328.428 41.196 329.468 40.8892 330.115 40.4801C330.78 40.054 331.112 39.3977 331.112 38.5114V38.358C331.112 36.4318 330.541 34.9403 329.399 33.8835C328.257 32.8267 326.612 32.2983 324.465 32.2983C322.198 32.2983 320.399 32.7926 319.07 33.7812C317.757 34.7699 316.871 35.9375 316.411 37.2841L307.769 36.0568C308.451 33.6705 309.576 31.6761 311.144 30.0739C312.712 28.4545 314.63 27.2443 316.897 26.4432C319.164 25.625 321.669 25.2159 324.414 25.2159C326.306 25.2159 328.189 25.4375 330.064 25.8807C331.939 26.3239 333.652 27.0568 335.203 28.0795C336.755 29.0852 337.999 30.4574 338.936 32.196C339.891 33.9347 340.368 36.108 340.368 38.7159V65H331.47V59.6051H331.164C330.601 60.696 329.809 61.7188 328.786 62.6733C327.78 63.6108 326.51 64.3693 324.976 64.9489C323.459 65.5114 321.678 65.7926 319.632 65.7926ZM322.036 58.9915C323.894 58.9915 325.505 58.625 326.868 57.892C328.232 57.142 329.28 56.1534 330.013 54.9261C330.763 53.6989 331.138 52.3608 331.138 50.9119V46.2841C330.848 46.5227 330.354 46.7443 329.655 46.9489C328.973 47.1534 328.206 47.3324 327.354 47.4858C326.502 47.6392 325.658 47.7756 324.823 47.8949C323.987 48.0142 323.263 48.1165 322.649 48.2017C321.269 48.3892 320.033 48.696 318.942 49.1222C317.851 49.5483 316.99 50.1449 316.36 50.9119C315.729 51.6619 315.414 52.6335 315.414 53.8267C315.414 55.5312 316.036 56.8182 317.28 57.6875C318.524 58.5568 320.11 58.9915 322.036 58.9915Z" fill="white"/>
<path d="M354.022 79.7273C352.76 79.7273 351.593 79.625 350.519 79.4205C349.462 79.233 348.618 79.0114 347.987 78.7557L350.135 71.5455C351.482 71.9375 352.684 72.125 353.74 72.108C354.797 72.0909 355.726 71.7585 356.527 71.1108C357.345 70.4801 358.036 69.4233 358.598 67.9403L359.391 65.8182L345.149 25.7273H354.968L364.019 55.3864H364.428L373.505 25.7273H383.348L367.624 69.7557C366.891 71.8352 365.919 73.6165 364.709 75.0994C363.499 76.5994 362.016 77.7415 360.26 78.5256C358.522 79.3267 356.442 79.7273 354.022 79.7273Z" fill="white"/>
<path d="M19.8032 0C19.4281 0 19.0846 0.2099 18.9134 0.543653L0.111524 37.2042C-0.22976 37.8697 0.253465 38.6605 1.00133 38.6605H16.9192C17.6274 38.6605 18.1112 39.3765 17.847 40.0336L1.90496 79.6821C1.47527 80.7507 2.89534 81.5792 3.61415 80.6792L44.0675 30.0277C44.5906 29.3728 44.1243 28.4037 43.2862 28.4037H24.967C24.1805 28.4037 23.7018 27.5376 24.1202 26.8717L40.0401 1.53198C40.4585 0.866018 39.9798 0 39.1933 0H19.8032Z" fill="white"/>
</g>
<defs>
<clipPath id="clip0_97_11">
<rect width="383.348" height="81.0627" fill="white"/>
</clipPath>
</defs>
</svg>
