<svg width="268" height="26" viewBox="0 0 268 26" fill="none" xmlns="http://www.w3.org/2000/svg">
<g clip-path="url(#clip0_1092_9987)">
<path fill-rule="evenodd" clip-rule="evenodd" d="M19.6808 18.7099C19.8616 18.4428 19.8829 18.0902 19.7127 17.8123L9.38845 0.341953C9.2396 0.0855066 8.97378 -0.0640869 8.67607 -0.0640869H1.42461C0.786656 -0.0640869 0.382616 0.630455 0.712228 1.18609L14.2795 24.4586C14.5772 24.9821 15.3321 25.0142 15.6723 24.512L19.6808 18.7099ZM7.14497 24.0953C7.47458 24.6509 7.07054 25.3561 6.43258 25.3561H6.42195H1.45651C0.999309 25.3561 0.627167 24.9821 0.627167 24.5227V16.1027C0.627167 15.2479 1.74359 14.9487 2.1689 15.6753L7.14497 24.0953Z" fill="#FFFFFC"/>
<path d="M39.1173 24.3303C39.4363 24.886 39.0429 25.5805 38.4049 25.5805H31.196C30.8983 25.5805 30.6325 25.4202 30.4836 25.1638L16.5017 1.18609C16.1827 0.630455 16.5761 -0.0640869 17.2141 -0.0640869H24.4549C24.7526 -0.0640869 25.0184 0.0961918 25.1673 0.352638L39.1173 24.3303Z" fill="#FFFFFC"/>
</g>
<g clip-path="url(#clip1_1092_9987)">
<path d="M62.6221 24.5548H66.4577V9.27364L75.3784 24.5548H78.6426L87.5633 9.27364V24.5548H91.3989V1.44531H87.6311L77.025 19.6729L66.3899 1.44531H62.6221V24.5548Z" fill="#FFFFFC"/>
<path d="M100.329 24.5548H115.178V20.7898H104.165V14.8777H115.178V11.1128H104.165V5.21023H115.178V1.44531H100.329V24.5548Z" fill="#FFFFFC"/>
<path d="M129.861 24.5548H133.697V5.21023H142.588V1.44531H120.94V5.21023H129.861V24.5548Z" fill="#FFFFFC"/>
<path d="M165.525 24.5548H169.738L158.793 1.44531H155.054L144.109 24.5548H148.313L150.202 20.5299H163.597L165.515 24.5548H165.525ZM151.994 16.7649L156.904 6.3657L161.815 16.7649H151.984H151.994Z" fill="#FFFFFC"/>
<path d="M176.383 24.5548H180.218V17.2945H185.168C189.885 17.2945 193.285 13.9629 193.285 9.36992C193.285 4.77692 189.885 1.44531 185.168 1.44531H176.383V24.5548ZM180.218 13.5296V5.21023H185.168C187.657 5.21023 189.439 6.96269 189.439 9.36992C189.439 11.7772 187.657 13.5296 185.168 13.5296H180.218Z" fill="#FFFFFC"/>
<path d="M200.54 24.5548H215.592V20.7898H204.376V1.44531H200.54V24.5548Z" fill="#FFFFFC"/>
<path d="M222.333 24.5548H237.182V20.7898H226.169V14.8777H237.182V11.1128H226.169V5.21023H237.182V1.44531H222.333V24.5548Z" fill="#FFFFFC"/>
<path d="M243.187 24.5548H248.136L255.207 16.0043L262.239 24.5548H267.188L257.657 13L267.188 1.44531H262.277L255.207 9.99581L248.136 1.44531H243.187L252.717 13L243.187 24.5548Z" fill="#FFFFFC"/>
</g>
<defs>
<clipPath id="clip0_1092_9987">
<rect width="39.1884" height="26" fill="white"/>
</clipPath>
<clipPath id="clip1_1092_9987">
<rect width="204" height="24" fill="white" transform="translate(63.1885 1)"/>
</clipPath>
</defs>
</svg>
