<svg width="105" height="70" viewBox="0 0 105 70" fill="none" xmlns="http://www.w3.org/2000/svg">
<g clip-path="url(#clip0_1092_9968)">
<path fill-rule="evenodd" clip-rule="evenodd" d="M51.6516 50.8233C52.1313 50.1143 52.1877 49.1786 51.7363 48.4413L24.3372 2.07757C23.9422 1.397 23.2367 1 22.4466 1H3.20239C1.50935 1 0.437092 2.84321 1.31183 4.31777L37.3172 66.0793C38.1073 67.4688 40.1107 67.5539 41.0137 66.2211L51.6516 50.8233ZM18.3833 65.1152C19.2581 66.5898 18.1858 68.4613 16.4928 68.4613H16.4646H3.28705C2.0737 68.4613 1.08609 67.4688 1.08609 66.2495V43.9042C1.08609 41.6356 4.04891 40.8416 5.17761 42.7699L18.3833 65.1152Z" fill="#FFFFFC"/>
<path d="M103.233 65.7391C104.079 67.2136 103.035 69.0568 101.342 69.0568H82.211C81.4209 69.0568 80.7155 68.6315 80.3205 67.9509L43.2146 4.31777C42.3681 2.84321 43.4121 1 45.1052 1H64.3212C65.1113 1 65.8167 1.42536 66.2118 2.10592L103.233 65.7391Z" fill="#FFFFFC"/>
</g>
<defs>
<clipPath id="clip0_1092_9968">
<rect width="104" height="69" fill="white" transform="translate(0.5 0.669922)"/>
</clipPath>
</defs>
</svg>
