<svg width="255" height="30" viewBox="0 0 255 30" fill="none" xmlns="http://www.w3.org/2000/svg">
<g clip-path="url(#clip0_1092_9981)">
<path d="M-0.708008 29.4434H4.08652V10.342L15.2374 29.4434H19.3176L30.4685 10.342V29.4434H35.263V0.556641H30.5533L17.2957 23.3411L4.00176 0.556641H-0.708008V29.4434Z" fill="#161715"/>
<path d="M46.4258 29.4434H64.9864V24.7373H51.2203V17.3471H64.9864V12.641H51.2203V5.26278H64.9864V0.556641H46.4258V29.4434Z" fill="#161715"/>
<path d="M83.3404 29.4434H88.1349V5.26278H99.2495V0.556641H72.1895V5.26278H83.3404V29.4434Z" fill="#161715"/>
<path d="M127.921 29.4434H133.188L119.506 0.556641H114.833L101.151 29.4434H106.406L108.767 24.4123H125.511L127.909 29.4434H127.921ZM111.007 19.7062L117.145 6.70712L123.284 19.7062H110.995H111.007Z" fill="#161715"/>
<path d="M141.493 29.4434H146.288V20.3682H152.475C158.371 20.3682 162.621 16.2037 162.621 10.4624C162.621 4.72115 158.371 0.556641 152.475 0.556641H141.493V29.4434ZM146.288 15.662V5.26278H152.475C155.586 5.26278 157.814 7.45336 157.814 10.4624C157.814 13.4714 155.586 15.662 152.475 15.662H146.288Z" fill="#161715"/>
<path d="M171.689 29.4434H190.504V24.7373H176.484V0.556641H171.689V29.4434Z" fill="#161715"/>
<path d="M198.931 29.4434H217.491V24.7373H203.725V17.3471H217.491V12.641H203.725V5.26278H217.491V0.556641H198.931V29.4434Z" fill="#161715"/>
<path d="M224.998 29.4434H231.185L240.023 18.7553L248.813 29.4434H255L243.086 15L255 0.556641H248.862L240.023 11.2448L231.185 0.556641H224.998L236.912 15L224.998 29.4434Z" fill="#161715"/>
</g>
<defs>
<clipPath id="clip0_1092_9981">
<rect width="255" height="30" fill="white"/>
</clipPath>
</defs>
</svg>
