<svg width="24" height="24" viewBox="0 0 48 48" fill="none" xmlns="http://www.w3.org/2000/svg">
<path fill-rule="evenodd" clip-rule="evenodd" d="M24 48C37.2548 48 48 37.2548 48 24C48 10.7452 37.2548 0 24 0C10.7452 0 0 10.7452 0 24C0 37.2548 10.7452 48 24 48ZM35.9452 15.8003C36.791 16.6462 37.1535 18.5795 37.1535 18.8212C37.1535 18.8397 37.1592 18.9098 37.1685 19.023C37.2193 19.6455 37.3766 21.5724 37.2743 23.4128V25.467C37.2743 27.3344 37.1145 29.1219 37.0548 29.789C37.0411 29.942 37.0327 30.0361 37.0327 30.0587C37.0327 30.3003 36.6702 32.2337 35.8244 33.2003C34.8456 34.1791 33.769 34.3748 33.123 34.4923C33.0512 34.5053 32.9848 34.5174 32.9243 34.5295H32.8035C29.0577 34.7712 23.3785 34.7712 23.3785 34.7712C23.1368 34.7712 16.491 34.7712 14.316 34.5295H13.9535C13.902 34.5209 13.848 34.5123 13.7918 34.5034C13.058 34.3866 11.9515 34.2105 11.0535 33.2003C10.2077 32.3545 9.84518 30.4212 9.84518 30.1795C9.84518 30.1569 9.83677 30.0629 9.82308 29.9098C9.7634 29.2427 9.60352 27.4552 9.60352 25.5878V23.5337C9.60352 21.6662 9.7634 19.8788 9.82308 19.2117C9.83677 19.0586 9.84518 18.9645 9.84518 18.942C9.84518 18.7003 10.2077 16.767 11.0535 15.8003C12.141 14.592 13.3493 14.4712 13.9535 14.4712H14.0743C17.8202 14.2295 23.4993 14.2295 23.4993 14.2295C23.6202 14.2295 29.1785 14.2295 32.9243 14.4712H33.0452C33.6493 14.4712 34.8577 14.592 35.9452 15.8003ZM20.9618 28.6087L28.2118 24.742C28.4535 24.6212 28.6952 24.3795 28.6952 24.1378C28.6952 23.8962 28.5744 23.7753 28.3327 23.6545L21.0827 19.7878C20.841 19.667 20.5993 19.667 20.4785 19.7878C20.3577 19.9087 20.2368 20.0295 20.2368 20.2712V28.1253C20.2368 28.367 20.3577 28.4878 20.4785 28.6087C20.4785 28.7295 20.5993 28.7295 20.7202 28.7295C20.7806 28.7295 20.8108 28.6993 20.841 28.6691C20.8712 28.6389 20.9014 28.6087 20.9618 28.6087Z"/>
</svg>
