<svg viewBox="0 0 48 48" fill="none" xmlns="http://www.w3.org/2000/svg">
    <path fill-rule="evenodd" clip-rule="evenodd" d="M24.0002 0C10.747 0 0 11.0166 0 24.6074C0 35.4798 6.87679 44.7039 16.4128 47.9577C17.6123 48.1855 18.0526 47.4239 18.0526 46.7739C18.0526 46.1871 18.0304 44.2487 18.02 42.1925C11.3431 43.681 9.93424 39.2891 9.93424 39.2891C8.84249 36.4447 7.26945 35.6884 7.26945 35.6884C5.09191 34.1611 7.43359 34.1925 7.43359 34.1925C9.84363 34.3657 11.1126 36.7284 11.1126 36.7284C13.2532 40.4904 16.7272 39.4028 18.0967 38.774C18.3121 37.1839 18.9341 36.0976 19.6205 35.4835C14.2897 34.8612 8.6859 32.7512 8.6859 23.3222C8.6859 20.6356 9.62345 18.4404 11.1587 16.7171C10.9095 16.0969 10.088 13.5944 11.3912 10.2049C11.3912 10.2049 13.4066 9.54354 17.993 12.7273C19.9074 12.1821 21.9606 11.9086 24.0002 11.8993C26.0398 11.9086 28.0946 12.1821 30.0126 12.7273C34.5934 9.54354 36.606 10.2049 36.606 10.2049C37.9123 13.5944 37.0905 16.0969 36.8413 16.7171C38.3801 18.4404 39.3113 20.6356 39.3113 23.3222C39.3113 32.7736 33.6968 34.8547 28.3525 35.4639C29.2133 36.2275 29.9804 37.7251 29.9804 40.0209C29.9804 43.3131 29.9526 45.963 29.9526 46.7739C29.9526 47.4288 30.3846 48.1961 31.6011 47.9544C41.132 44.6969 48 35.4761 48 24.6074C48 11.0166 37.2546 0 24.0002 0Z" />
    <path fill-rule="evenodd" clip-rule="evenodd" d="M9.09009 35.3311C9.03723 35.4537 8.84965 35.49 8.67875 35.406C8.50467 35.3258 8.40691 35.1591 8.46334 35.0364C8.51501 34.9105 8.70299 34.8759 8.87667 34.9594C9.05114 35.0401 9.1505 35.2084 9.09009 35.3311Z" />
    <path fill-rule="evenodd" clip-rule="evenodd" d="M10.0622 36.4427C9.94775 36.5515 9.724 36.501 9.57218 36.329C9.41519 36.1575 9.38578 35.928 9.50183 35.8176C9.61987 35.7088 9.83687 35.7597 9.99425 35.9313C10.1512 36.1049 10.1818 36.3327 10.0622 36.4427Z" />
    <path fill-rule="evenodd" clip-rule="evenodd" d="M11.0085 37.86C10.8615 37.9647 10.621 37.8665 10.4724 37.6477C10.3253 37.4288 10.3253 37.1664 10.4755 37.0613C10.6246 36.9561 10.8615 37.0507 11.0121 37.2679C11.1587 37.49 11.1587 37.7528 11.0085 37.86Z" />
    <path fill-rule="evenodd" clip-rule="evenodd" d="M12.3049 39.2292C12.1734 39.3779 11.8932 39.338 11.6881 39.135C11.4783 38.9366 11.4198 38.655 11.5518 38.5063C11.6849 38.3571 11.9667 38.3991 12.1734 38.6004C12.3816 38.7984 12.4452 39.0821 12.3049 39.2292Z" />
    <path fill-rule="evenodd" clip-rule="evenodd" d="M14.0934 40.0242C14.0354 40.2169 13.7655 40.3045 13.4937 40.2226C13.2222 40.1383 13.0446 39.9125 13.0994 39.7177C13.1558 39.5238 13.4269 39.4325 13.7007 39.5201C13.9718 39.604 14.1498 39.8282 14.0934 40.0242Z" />
    <path fill-rule="evenodd" clip-rule="evenodd" d="M16.0575 40.1717C16.0643 40.3746 15.8337 40.5429 15.5484 40.5462C15.2614 40.5531 15.0293 40.3889 15.0262 40.1892C15.0262 39.9842 15.2515 39.8176 15.5384 39.8127C15.8238 39.807 16.0575 39.97 16.0575 40.1717Z" />
    <path fill-rule="evenodd" clip-rule="evenodd" d="M17.8853 39.8526C17.9195 40.0507 17.7212 40.254 17.4378 40.3078C17.1592 40.3604 16.9012 40.2381 16.8659 40.0417C16.8313 39.8388 17.0332 39.6354 17.3114 39.5829C17.5952 39.5323 17.8491 39.6513 17.8853 39.8526Z" />
</svg>