<svg preserveAspectRatio="none" width="100%" height="100%" overflow="visible" style="display: block;" viewBox="0 0 118.607 27" fill="none" xmlns="http://www.w3.org/2000/svg">
<g id="Frame" clip-path="url(#clip0_0_47)">
<path id="Vector" d="M37.8638 20.4906H32.8704V26.725H27.8894V9.08789H39.8278C45.4524 9.08789 47.0837 11.9953 47.0837 14.6829C47.0837 16.651 46.0959 18.9573 43.1386 19.8978L47.7856 26.7332H42.1257L37.8638 20.4906ZM32.8692 17.2904H39.4734C41.889 17.2904 42.6035 16.0733 42.6035 14.8329C42.6035 13.5925 41.8902 12.4463 39.4974 12.4463H32.8692V17.2904Z" fill="var(--fill-0, white)"/>
<path id="Vector_2" d="M69.3874 23.2248V26.725H51.5262V9.08789H69.2148V12.5881H56.5082V16.1441H68.7919V19.4235H56.5162V23.2248H69.3886H69.3874Z" fill="var(--fill-0, white)"/>
<path id="Vector_3" d="M89.0745 23.1771H79.3081L77.6848 26.7332H72.3357L81.0824 9.08789H87.3025L96.033 26.7332H90.7069L89.0756 23.1771H89.0745ZM80.7829 19.9687H87.5917L84.1644 12.0906L80.7839 19.9687H80.7829Z" fill="var(--fill-0, white)"/>
<path id="Vector_4" d="M118.558 14.9514C118.558 18.7283 115.647 21.1382 111.129 21.1382H104.32V26.7332H99.3398V9.08789H111.255C115.819 9.08789 118.558 11.3001 118.558 14.9514ZM114.11 15.077C114.11 13.3856 112.925 12.4451 110.831 12.4451H104.32V17.7867H110.798C112.902 17.7867 114.108 16.7916 114.108 15.0758L114.11 15.077Z" fill="var(--fill-0, white)"/>
<path id="Vector_5" d="M17.1228 5.82767C17.4475 5.18598 17.5092 5.06276 17.8339 4.42106L15.0056 0.266357H11.0308C10.7049 0.910373 10.6432 1.03127 10.3174 1.67412L12.4986 4.87792L11.8652 6.12991H6.32646C5.99721 6.76347 5.93205 6.89018 5.60281 7.5249L8.79233 12.2085L7.80232 14.1662H0.720212C0.392115 14.8032 0.328097 14.9276 0 15.5646L7.59311 26.7245L16.1145 26.7174C16.4495 26.0676 16.5146 25.9397 16.8495 25.2899L9.34563 14.2522L9.72858 13.4954L15.2286 13.4896C15.5543 12.8468 15.616 12.7258 15.9419 12.083L12.7866 7.44585L13.5972 5.84279L17.124 5.82767H17.1228Z" fill="var(--fill-0, white)"/>
</g>
<defs>
<clipPath id="clip0_0_47">
<rect width="118.607" height="27" fill="white"/>
</clipPath>
</defs>
</svg>
