<svg xmlns="http://www.w3.org/2000/svg" width="25" height="24" viewBox="0 0 25 24" fill="none">
  <path d="M21.87 7.44C21.87 7.44 21.86 7.38 21.84 7.35C21.84 7.34 21.82 7.33 21.82 7.32C21.81 7.3 21.8 7.27 21.79 7.25C21.65 7.02 21.46 6.83 21.22 6.7L12.97 2.18C12.53 1.94 11.97 1.94 11.53 2.18L3.28 6.7C3.05 6.83 2.85 7.02 2.71 7.25C2.7 7.27 2.69 7.3 2.68 7.32C2.68 7.32 2.66 7.33 2.66 7.34C2.64 7.37 2.64 7.4 2.63 7.43C2.55 7.61 2.5 7.8 2.5 8V16.97C2.5 17.24 2.57 17.5 2.71 17.74C2.85 17.97 3.04 18.16 3.28 18.29L11.53 22.81C11.74 22.93 11.98 22.99 12.23 22.99C12.23 22.99 12.25 22.99 12.26 22.99C12.27 22.99 12.28 22.99 12.29 22.99C12.53 22.99 12.77 22.93 12.98 22.81L21.23 18.29C21.47 18.16 21.66 17.97 21.8 17.74C21.94 17.51 22.01 17.25 22.01 16.97V8.01C22.01 7.81 21.96 7.62 21.88 7.44H21.87ZM12.25 3.5L19.78 7.62L12.25 11.74L4.72 7.62L12.25 3.5ZM4 8.94L11.5 13.04V21.08L4 16.98V8.94ZM13 21.08V13.04L20.5 8.94V16.98L13 21.09V21.08Z" fill="#A2A1B2" stroke="#A2A1B2" strokeWidth="0.25"/>
</svg>