<svg width="17" height="16" viewBox="0 0 17 16" fill="none" xmlns="http://www.w3.org/2000/svg">
<path d="M14.7466 4.95992C14.7466 4.95992 14.7399 4.91992 14.7266 4.89992C14.7266 4.89325 14.7133 4.88659 14.7133 4.87992C14.7066 4.86659 14.6999 4.84659 14.6933 4.83325C14.5999 4.67992 14.4733 4.55325 14.3133 4.46659L8.81325 1.45325C8.51992 1.29325 8.14659 1.29325 7.85325 1.45325L2.35325 4.46659C2.19992 4.55325 2.06659 4.67992 1.97325 4.83325C1.96659 4.84659 1.95992 4.86659 1.95325 4.87992C1.95325 4.87992 1.93992 4.88659 1.93992 4.89325C1.92659 4.91325 1.92659 4.93325 1.91992 4.95325C1.86659 5.07325 1.83325 5.19992 1.83325 5.33325V11.3133C1.83325 11.4933 1.87992 11.6666 1.97325 11.8266C2.06659 11.9799 2.19325 12.1066 2.35325 12.1933L7.85325 15.2066C7.99325 15.2866 8.15325 15.3266 8.31992 15.3266C8.31992 15.3266 8.33325 15.3266 8.33992 15.3266C8.34659 15.3266 8.35325 15.3266 8.35992 15.3266C8.51992 15.3266 8.67992 15.2866 8.81992 15.2066L14.3199 12.1933C14.4799 12.1066 14.6066 11.9799 14.6999 11.8266C14.7933 11.6733 14.8399 11.4999 14.8399 11.3133V5.33992C14.8399 5.20659 14.8066 5.07992 14.7533 4.95992H14.7466ZM8.33325 2.33325L13.3533 5.07992L8.33325 7.82659L3.31325 5.07992L8.33325 2.33325ZM2.83325 5.95992L7.83325 8.69325V14.0533L2.83325 11.3199V5.95992ZM8.83325 14.0533V8.69325L13.8333 5.95992V11.3199L8.83325 14.0599V14.0533Z" fill="#80ECFF" stroke="#80ECFF" stroke-width="0.5"/>
</svg>
