<svg width="64" height="64" viewBox="0 0 64 64" fill="none" xmlns="http://www.w3.org/2000/svg">
<rect width="64" height="64" rx="8" fill="#101114"/>
<mask id="mask0_2875_650" style="mask-type:luminance" maskUnits="userSpaceOnUse" x="20" y="15" width="24" height="34">
<path d="M43.4375 15.0039H20.0651V49.0001H43.4375V15.0039Z" fill="white"/>
</mask>
<g mask="url(#mask0_2875_650)">
<path fill-rule="evenodd" clip-rule="evenodd" d="M33.9653 17.677C35.2009 17.677 36.36 17.8426 37.4331 18.1498C36.3824 15.7012 34.2011 15.0039 31.7733 15.0039C29.3408 15.0039 27.1556 15.7039 26.1074 18.1642C27.1726 17.8462 28.3266 17.677 29.5581 17.677H33.9653ZM29.2754 20.1353C23.4081 20.1353 20.0651 24.7511 20.0651 30.445V36.294C20.0651 36.8634 20.5407 37.3139 21.1274 37.3139H42.3751C42.9618 37.3139 43.4374 36.8634 43.4374 36.294V30.445C43.4374 24.7511 39.55 20.1353 33.6826 20.1353H29.2754ZM31.743 30.4956C33.7965 30.4956 35.4613 28.8308 35.4613 26.7773C35.4613 24.7236 33.7965 23.0589 31.743 23.0589C29.6894 23.0589 28.0246 24.7236 28.0246 26.7773C28.0246 28.8308 29.6894 30.4956 31.743 30.4956ZM20.0651 40.7518C20.0651 40.1824 20.5407 39.7209 21.1274 39.7209H42.3751C42.9618 39.7209 43.4374 40.1824 43.4374 40.7518V46.9376C43.4374 48.0764 42.4862 48.9996 41.3127 48.9996H22.1898C21.0163 48.9996 20.0651 48.0764 20.0651 46.9376V40.7518Z" fill="#E33E3F"/>
</g>
</svg>
