<svg width="64" height="64" viewBox="0 0 64 64" fill="none" xmlns="http://www.w3.org/2000/svg">
<rect width="64" height="64" rx="8" fill="#17191D"/>
<g clip-path="url(#clip0_2875_639)">
<path d="M15.1628 32.4727L19.0838 28.5518L23.0048 32.4727L19.0838 36.3937L15.1628 32.4727Z" fill="#F0B90B"/>
<path d="M21.8845 25.7511L32.5272 15.1084L43.1699 25.7511L39.2489 29.672L32.5272 22.9504L25.8055 29.672L21.8845 25.7511Z" fill="#F0B90B"/>
<path d="M28.6062 32.4727L32.5272 28.5518L36.4482 32.4727L32.5272 36.3937L28.6062 32.4727Z" fill="#F0B90B"/>
<path d="M25.8055 35.2737L21.8845 39.1947L32.5272 49.8373L43.1699 39.1947L39.2489 35.2737L32.5272 41.9954L25.8055 35.2737Z" fill="#F0B90B"/>
<path d="M42.0496 32.4727L45.9704 28.5518L49.8915 32.4727L45.9704 36.3937L42.0496 32.4727Z" fill="#F0B90B"/>
</g>
<defs>
<clipPath id="clip0_2875_639">
<rect width="35" height="35" fill="white" transform="translate(15 15)"/>
</clipPath>
</defs>
</svg>
