<svg width="64" height="64" viewBox="0 0 64 64" fill="none" xmlns="http://www.w3.org/2000/svg">
<g clip-path="url(#clip0_2875_653)">
<rect width="64" height="64" rx="8" fill="white"/>
<g clip-path="url(#clip1_2875_653)">
<g filter="url(#filter0_f_2875_653)">
<path d="M38.0108 46.8848C53.7592 55.9772 73.8967 50.5814 82.989 34.833C92.0814 19.0846 86.6856 -1.05288 70.9372 -10.1452C55.1887 -19.2376 35.0513 -13.8418 25.959 1.90664C16.8666 17.6551 22.2624 37.7925 38.0108 46.8848Z" fill="white"/>
</g>
<g filter="url(#filter1_f_2875_653)">
<path d="M28.394 104.699C44.1424 113.791 64.2798 108.396 73.3722 92.6472C82.4646 76.8988 77.0688 56.7613 61.3203 47.669C45.5719 38.5766 25.4345 43.9724 16.3421 59.7208C7.24978 75.4693 12.6456 95.6067 28.394 104.699Z" fill="#A878FF"/>
</g>
<g filter="url(#filter2_f_2875_653)">
<path d="M-5.36734 28.1773C10.3811 37.2697 30.5185 31.8739 39.6109 16.1254C48.7032 0.377026 43.3074 -19.7604 27.559 -28.8528C11.8106 -37.9451 -8.32686 -32.5493 -17.4192 -16.8009C-26.5116 -1.05246 -21.1158 19.085 -5.36734 28.1773Z" fill="#00FFF0"/>
</g>
<g filter="url(#filter3_f_2875_653)">
<ellipse cx="51" cy="6" rx="21" ry="18" fill="#27BFFF"/>
</g>
</g>
<g clip-path="url(#clip2_2875_653)">
<path d="M30.4949 26.6934L40.7702 36.9687L27.6429 50.096H36.9518L48.2351 38.8127C49.243 37.8048 49.243 36.1683 48.2351 35.1544L39.7682 26.6875H30.489L30.4949 26.6934Z" fill="black"/>
<path d="M34.005 36.9509L23.7238 26.6756L36.851 13.5483H27.5422L16.2589 24.8316C15.2509 25.8396 15.2509 27.476 16.2589 28.4899L24.7258 36.9568H34.005V36.9509Z" fill="black"/>
</g>
</g>
<defs>
<filter id="filter0_f_2875_653" x="-22.0092" y="-58.1133" width="152.966" height="152.966" filterUnits="userSpaceOnUse" color-interpolation-filters="sRGB">
<feFlood flood-opacity="0" result="BackgroundImageFix"/>
<feBlend mode="normal" in="SourceGraphic" in2="BackgroundImageFix" result="shape"/>
<feGaussianBlur stdDeviation="21.7756" result="effect1_foregroundBlur_2875_653"/>
</filter>
<filter id="filter1_f_2875_653" x="-50.2908" y="-18.9639" width="190.296" height="190.296" filterUnits="userSpaceOnUse" color-interpolation-filters="sRGB">
<feFlood flood-opacity="0" result="BackgroundImageFix"/>
<feBlend mode="normal" in="SourceGraphic" in2="BackgroundImageFix" result="shape"/>
<feGaussianBlur stdDeviation="31.1081" result="effect1_foregroundBlur_2875_653"/>
</filter>
<filter id="filter2_f_2875_653" x="-84.0522" y="-95.4857" width="190.296" height="190.296" filterUnits="userSpaceOnUse" color-interpolation-filters="sRGB">
<feFlood flood-opacity="0" result="BackgroundImageFix"/>
<feBlend mode="normal" in="SourceGraphic" in2="BackgroundImageFix" result="shape"/>
<feGaussianBlur stdDeviation="31.1081" result="effect1_foregroundBlur_2875_653"/>
</filter>
<filter id="filter3_f_2875_653" x="-0.799999" y="-42.8" width="103.6" height="97.6" filterUnits="userSpaceOnUse" color-interpolation-filters="sRGB">
<feFlood flood-opacity="0" result="BackgroundImageFix"/>
<feBlend mode="normal" in="SourceGraphic" in2="BackgroundImageFix" result="shape"/>
<feGaussianBlur stdDeviation="15.4" result="effect1_foregroundBlur_2875_653"/>
</filter>
<clipPath id="clip0_2875_653">
<rect width="64" height="64" rx="8" fill="white"/>
</clipPath>
<clipPath id="clip1_2875_653">
<rect width="257.886" height="226.156" fill="white" transform="translate(-23.6289 -130.478) rotate(30)"/>
</clipPath>
<clipPath id="clip2_2875_653">
<rect width="33.5" height="36.5535" fill="white" transform="translate(15.5 13.5483)"/>
</clipPath>
</defs>
</svg>
