<svg width="64" height="64" viewBox="0 0 64 64" fill="none" xmlns="http://www.w3.org/2000/svg">
<rect width="64" height="64" rx="8" fill="#27272F"/>
<g clip-path="url(#clip0_2875_628)">
<path fill-rule="evenodd" clip-rule="evenodd" d="M44.6617 24.0335L45.4017 22.2182C45.4017 22.2182 44.4594 21.2094 43.3162 20.0676C42.1729 18.9243 39.7507 19.5964 39.7507 19.5964L36.9917 16.4702H27.3054L24.5478 19.5964C24.5478 19.5964 22.1255 18.9243 20.9823 20.0676C19.8391 21.2108 18.8968 22.2182 18.8968 22.2182L19.6368 24.0335L18.6945 26.7232C18.6945 26.7232 21.4645 37.2063 21.7888 38.4867C22.4276 41.0074 22.8655 41.9816 24.6808 43.2592C26.4975 44.5368 29.7928 46.7554 30.3318 47.0907C30.8695 47.4275 31.543 47.9998 32.1485 47.9998C32.7541 47.9998 33.4262 47.4275 33.9652 47.0907C34.5029 46.754 37.7996 44.5368 39.6162 43.2592C41.4329 41.9816 41.8695 41.0074 42.5083 38.4867C42.8325 37.2063 45.6026 26.7232 45.6026 26.7232L44.6603 24.0349L44.6617 24.0335Z" fill="url(#paint0_linear_2875_628)"/>
<path d="M35.5796 22.1522C35.9828 22.1522 38.9774 21.5812 38.9774 21.5812C38.9774 21.5812 42.5249 25.8673 42.5249 26.7833C42.5249 27.5399 42.22 27.8364 41.8611 28.1856C41.7863 28.2591 41.7087 28.3339 41.6297 28.417L38.9705 31.2398C38.9441 31.2675 38.915 31.2966 38.8832 31.3285C38.6171 31.5959 38.2263 31.9881 38.5021 32.6408C38.5201 32.6837 38.5395 32.7281 38.5589 32.7738C38.861 33.4805 39.2351 34.3535 38.7598 35.2376C38.254 36.1785 37.3879 36.8063 36.8337 36.7023C36.278 36.5984 34.9754 35.918 34.4959 35.6076C34.0165 35.2972 32.4977 34.0445 32.4977 33.5664C32.4977 33.1673 33.5897 32.5022 34.1218 32.1793C34.2271 32.1156 34.3102 32.0643 34.3587 32.0324C34.4142 31.995 34.5056 31.9382 34.6179 31.8689C35.1029 31.5682 35.9773 31.025 35.9994 30.7839C36.0258 30.4873 36.0161 30.4 35.6253 29.667C35.5422 29.5104 35.4452 29.3441 35.344 29.1709C34.9726 28.5321 34.5555 27.8156 34.6484 27.3029C34.7523 26.7237 35.6599 26.3925 36.429 26.1112C36.5246 26.0765 36.6189 26.0419 36.7089 26.0073C36.9334 25.9227 37.2147 25.8174 37.5099 25.7066C38.2776 25.4197 39.1298 25.0996 39.2712 25.0345C39.4665 24.9444 39.4153 24.8599 38.8263 24.8031C38.7487 24.7961 38.6517 24.785 38.5395 24.774C37.8092 24.6964 36.4623 24.5536 35.8082 24.7352C35.6793 24.7712 35.5352 24.81 35.3842 24.8516C34.6484 25.0511 33.7476 25.295 33.6603 25.435C33.6451 25.4599 33.6298 25.4807 33.616 25.5001C33.5328 25.6179 33.4788 25.6941 33.5703 26.1943C33.598 26.3426 33.6534 26.6364 33.7227 26.9981C33.9264 28.0581 34.2423 29.7127 34.2825 30.0841C34.2881 30.1367 34.2936 30.1866 34.3005 30.2351C34.3518 30.6495 34.3851 30.9252 33.9042 31.0361C33.864 31.0458 33.8225 31.0555 33.7781 31.0652C33.2349 31.1899 32.4381 31.3728 32.1499 31.3728C31.8616 31.3728 31.0649 31.1899 30.5203 31.0652C30.4773 31.0555 30.4343 31.0458 30.3955 31.0361C29.9133 30.9266 29.948 30.6508 29.9978 30.2351C30.0034 30.1866 30.0103 30.1367 30.0159 30.0841C30.056 29.7127 30.3734 28.054 30.5771 26.9939C30.6464 26.6336 30.7018 26.3426 30.7295 26.1943C30.821 25.6941 30.7669 25.6179 30.6838 25.5001C30.6699 25.4807 30.6547 25.4585 30.6394 25.435C30.5535 25.295 29.6514 25.0511 28.9156 24.8516C28.7645 24.81 28.6204 24.7712 28.4915 24.7352C27.8375 24.5522 26.4906 24.6964 25.7603 24.774C25.6494 24.7864 25.5524 24.7961 25.4734 24.8031C24.8831 24.8585 24.8332 24.9444 25.0286 25.0345C25.1699 25.0996 26.0222 25.4183 26.7899 25.7052C27.085 25.816 27.3663 25.9213 27.5908 26.0059C27.6809 26.0405 27.7751 26.0738 27.8707 26.1098C28.6398 26.3911 29.5475 26.7223 29.6514 27.3015C29.7429 27.8143 29.3271 28.5307 28.9558 29.1695C28.8546 29.3427 28.7576 29.509 28.6745 29.6656C28.2837 30.3986 28.274 30.4859 28.3003 30.7825C28.3225 31.0236 29.1969 31.5654 29.6819 31.8675C29.7941 31.9382 29.887 31.995 29.941 32.031C29.9895 32.0629 30.0727 32.1142 30.178 32.1779C30.7087 32.5008 31.8021 33.166 31.8021 33.565C31.8021 34.0445 30.2833 35.2958 29.8038 35.6062C29.3244 35.9166 28.0218 36.597 27.4661 36.701C26.9118 36.8049 26.0443 36.1771 25.5399 35.2362C25.0646 34.3521 25.4374 33.4791 25.7409 32.7724C25.7603 32.7281 25.7797 32.6823 25.7977 32.6394C26.0734 31.9867 25.6827 31.5945 25.4166 31.3271C25.3861 31.2966 25.3556 31.2661 25.3293 31.2384L22.6687 28.4157C22.5911 28.3325 22.5135 28.2577 22.4387 28.1842C22.0798 27.835 21.7749 27.5385 21.7749 26.7819C21.7749 25.8659 25.3224 21.5798 25.3224 21.5798C25.3224 21.5798 28.3156 22.1508 28.7202 22.1508C29.0417 22.1508 29.6639 21.9374 30.3124 21.7143C30.4759 21.6574 30.6422 21.6006 30.8057 21.5466C31.6136 21.2778 32.1513 21.2764 32.1513 21.2764C32.1513 21.2764 32.6889 21.2778 33.4968 21.5466C33.6603 21.6006 33.8252 21.6574 33.9901 21.7143C34.6387 21.9374 35.2608 22.1508 35.5823 22.1508L35.5796 22.1522Z" fill="white"/>
<path d="M35.0654 37.3108C35.6987 37.6365 36.1476 37.8679 36.3167 37.9746C36.5356 38.1118 36.4026 38.3709 36.2031 38.5123C36.0035 38.6536 33.3152 40.7336 33.0533 40.9636C33.02 40.9927 32.984 41.0246 32.948 41.0579C32.6958 41.2837 32.3757 41.5733 32.1484 41.5733C31.9212 41.5733 31.5997 41.2837 31.3488 41.0579C31.3114 41.0246 31.2768 40.9927 31.2435 40.9636C30.983 40.7336 28.2947 38.6536 28.0938 38.5123C27.8942 38.3709 27.7598 38.1118 27.9787 37.9746C28.1492 37.8679 28.5982 37.6365 29.2314 37.3108C29.4171 37.2152 29.6181 37.1113 29.8329 37.0004C30.7807 36.5099 31.9627 36.0928 32.147 36.0928C32.3313 36.0928 33.5134 36.5099 34.4612 37.0004C34.676 37.1113 34.8783 37.2152 35.064 37.3108H35.0654Z" fill="white"/>
</g>
<defs>
<linearGradient id="paint0_linear_2875_628" x1="18.6945" y1="32.2357" x2="45.6026" y2="32.2357" gradientUnits="userSpaceOnUse">
<stop stop-color="#FF5601"/>
<stop offset="0.5" stop-color="#FF4000"/>
<stop offset="1" stop-color="#FF1F01"/>
</linearGradient>
<clipPath id="clip0_2875_628">
<rect width="26.9082" height="31.5296" fill="white" transform="translate(18.6945 16.4702)"/>
</clipPath>
</defs>
</svg>
