<svg width="64" height="64" viewBox="0 0 64 64" fill="none" xmlns="http://www.w3.org/2000/svg">
<g clip-path="url(#clip0_2875_641)">
<rect width="64" height="64" rx="8" fill="black"/>
<mask id="mask0_2875_641" style="mask-type:alpha" maskUnits="userSpaceOnUse" x="0" y="0" width="64" height="64">
<path d="M64 0H0V64H64V0Z" fill="#D9D9D9"/>
</mask>
<g mask="url(#mask0_2875_641)">
<path d="M32.1417 -32.508L-32.5079 32.1416L32.1417 96.7912L96.7913 32.1416L32.1417 -32.508Z" fill="black"/>
</g>
<path d="M42.6145 27.6133C42.3381 28.5647 41.2815 29.0359 40.3607 28.657C39.5306 28.3154 39.1146 27.4005 39.3184 26.5312C39.4478 25.9788 39.5412 25.4527 39.5983 24.9528C39.7107 24.0007 39.7095 23.1543 39.5947 22.4137C39.4799 21.6732 39.2525 21.0596 38.9127 20.5731C38.5835 20.0771 38.1533 19.7198 37.6224 19.5013C36.6791 19.113 35.6358 19.2661 34.4926 19.9604C33.3544 20.6429 32.1819 21.8521 30.9751 23.588C29.7732 25.3121 28.6023 27.5412 27.4625 30.2753C26.3029 33.0567 25.5321 35.4851 25.15 37.5604C24.7785 39.6261 24.7519 41.2931 25.0703 42.5612C25.3993 43.8198 26.0327 44.642 26.9704 45.0279C27.49 45.2418 28.035 45.2997 28.6054 45.2016C29.1863 45.094 29.7759 44.8306 30.3743 44.4112C30.9783 43.9942 31.5773 43.4226 32.1712 42.6963C32.4824 42.3207 32.7855 41.9044 33.0807 41.4475C33.5683 40.6925 34.5214 40.344 35.3516 40.6966C36.2654 41.0847 36.6673 42.1593 36.1755 43.0173C35.5712 44.0713 34.9246 45.0518 34.2359 45.9588C33.2145 47.3134 32.1457 48.4405 31.0295 49.3398C29.9181 50.2276 28.8032 50.823 27.6844 51.1251C26.5707 51.4155 25.497 51.3481 24.4633 50.9224C22.9381 50.295 21.8851 48.9951 21.3044 47.0226C20.7237 45.0502 20.671 42.5256 21.1464 39.4487C21.6218 36.3718 22.6737 32.8805 24.302 28.9746C25.9353 25.0569 27.6792 21.8502 29.5335 19.3547C31.3929 16.8474 33.2297 15.1004 35.044 14.1137C36.8583 13.127 38.5224 12.9452 40.0363 13.5683C41.0022 13.9658 41.7819 14.6195 42.3755 15.5293C42.969 16.4392 43.3611 17.5781 43.5517 18.9462C43.7474 20.3025 43.7236 21.8596 43.4804 23.6177C43.3144 24.8658 43.0257 26.1976 42.6145 27.6133Z" fill="white"/>
<path d="M36.7021 33.5315C37.107 32.5603 38.2276 32.0991 39.2051 32.5013L39.299 32.54C40.2765 32.9423 40.7407 34.0557 40.3358 35.0269C39.9309 35.9981 38.8102 36.4593 37.8327 36.057L37.7389 36.0184C36.7614 35.6161 36.2972 34.5027 36.7021 33.5315Z" fill="white"/>
</g>
<defs>
<clipPath id="clip0_2875_641">
<rect width="64" height="64" rx="8" fill="white"/>
</clipPath>
</defs>
</svg>
