<svg width="64" height="64" viewBox="0 0 64 64" fill="none" xmlns="http://www.w3.org/2000/svg">
<rect width="64" height="64" rx="8" fill="#1D192A"/>
<path d="M47.0022 23.6331L46.2625 22.3491C46.2047 22.2484 46.1241 22.1624 46.0274 22.098C45.9311 22.0332 45.8206 21.9919 45.7051 21.9764C45.5896 21.961 45.4721 21.9724 45.3616 22.0093C45.2515 22.0466 45.1511 22.1084 45.0688 22.1903L43.3792 23.8695C43.2546 23.9931 43.177 24.156 43.1599 24.3299C43.1424 24.5042 43.1864 24.6788 43.2841 24.8242C43.9016 25.761 44.3959 26.7727 44.7552 27.8341C45.4264 29.8172 45.6134 31.9309 45.3005 34.0003C44.9875 36.0694 44.1837 38.035 42.9554 39.7347C41.7271 41.4344 40.1097 42.8192 38.2367 43.7751C36.3634 44.7307 34.2883 45.23 32.1826 45.2317C30.0135 45.2378 27.8763 44.7106 25.9617 43.6969L28.8259 40.8518C30.2607 41.3914 31.8056 41.5771 33.3283 41.3928C34.8511 41.2081 36.3057 40.6594 37.5679 39.7928C38.83 38.9265 39.8619 37.7687 40.5744 36.4189C41.2869 35.0691 41.6593 33.5675 41.6593 32.043C41.6586 31.7173 41.6405 31.392 41.6052 31.0683C41.4928 29.981 41.1906 28.9216 40.7117 27.9378C40.6583 27.831 40.5801 27.7384 40.4834 27.6672C40.387 27.596 40.2749 27.549 40.1564 27.5292C40.0378 27.5094 39.9166 27.5181 39.8021 27.554C39.6873 27.59 39.5832 27.6524 39.4976 27.736L37.7827 29.4404C37.6914 29.5307 37.6246 29.6429 37.5893 29.7661C37.5537 29.8894 37.5504 30.0196 37.5796 30.1446L37.7237 30.7567C37.9772 31.8278 37.9103 32.949 37.5316 33.9825C37.1528 35.0163 36.4786 35.9179 35.5918 36.5764C34.7047 37.2345 33.6436 37.6213 32.5386 37.6888C31.4335 37.7563 30.3328 37.5018 29.3712 36.9565L28.617 36.527C28.4726 36.4441 28.3051 36.4112 28.1399 36.4327C27.9747 36.4542 27.8212 36.5294 27.703 36.6462L20.7065 43.5908C20.6302 43.6667 20.571 43.7577 20.533 43.8581C20.495 43.9585 20.4789 44.0656 20.486 44.1727C20.493 44.2798 20.523 44.3839 20.5739 44.4786C20.6247 44.5729 20.6954 44.6559 20.781 44.721L21.8114 45.5064C24.7827 47.782 28.4313 49.0109 32.1826 48.9995C41.5908 48.9995 49.2455 41.3924 49.2455 32.043C49.2462 29.0936 48.4732 26.1948 47.0022 23.6331Z" fill="url(#paint0_linear_2875_630)"/>
<path d="M42.5525 18.5797C39.5818 16.3041 35.9336 15.0752 32.1826 15.0865C22.7732 15.0865 15.1184 22.6935 15.1184 32.0439C15.1179 34.9934 15.8911 37.8921 17.3618 40.4541L18.1015 41.7381C18.1592 41.8399 18.24 41.9268 18.3373 41.992C18.4347 42.0575 18.546 42.0994 18.6624 42.1149C18.7789 42.13 18.8974 42.1182 19.0084 42.0803C19.1195 42.042 19.2202 41.9789 19.3025 41.8956L20.991 40.2177C21.1154 40.0938 21.1929 39.9313 21.2102 39.757C21.2274 39.5831 21.1835 39.4085 21.0859 39.2628C20.4689 38.3256 19.9746 37.3143 19.6147 36.2532C18.9433 34.2701 18.7562 32.1567 19.0688 30.0876C19.3813 28.0186 20.1847 26.0533 21.4124 24.3536C22.6401 22.6539 24.2571 21.2688 26.1299 20.3125C28.0025 19.3563 30.077 18.8564 32.1826 18.8542C34.3514 18.8482 36.488 19.3755 38.4023 20.389L35.5344 23.2351C34.0999 22.6952 32.5547 22.5095 31.0319 22.6938C29.5095 22.8778 28.0542 23.4268 26.7924 24.2935C25.5302 25.1598 24.4985 26.3179 23.7861 27.6677C23.0737 29.0179 22.7018 30.5195 22.7023 32.0439C22.7023 32.2004 22.7444 32.9139 22.7576 33.0368C22.8735 34.1173 23.1757 35.1696 23.6511 36.1481C23.7038 36.2566 23.7818 36.3509 23.8788 36.4234C23.9757 36.496 24.0886 36.544 24.2081 36.5645C24.3277 36.5846 24.4503 36.5762 24.5659 36.5396C24.6815 36.503 24.7866 36.4396 24.8724 36.3546L26.5872 34.6515C26.6789 34.5602 26.7457 34.4474 26.781 34.3231C26.8162 34.1992 26.8193 34.068 26.789 33.9427L26.6473 33.3353C26.5479 32.9119 26.4969 32.4787 26.4962 32.0439C26.4959 31.0547 26.7575 30.0829 27.2541 29.226C27.7507 28.3688 28.4652 27.6563 29.3262 27.1597C30.1868 26.663 31.1639 26.4001 32.1591 26.3964C33.1544 26.3931 34.1332 26.6496 34.9975 27.1402L35.753 27.5696C35.897 27.6523 36.0646 27.6852 36.2294 27.6637C36.3946 27.6422 36.5478 27.567 36.6656 27.4504L43.6575 20.5022C43.7337 20.4263 43.7928 20.3353 43.8311 20.2346C43.869 20.1342 43.8852 20.0271 43.8781 19.92C43.8711 19.8128 43.8412 19.7084 43.7901 19.6137C43.7391 19.519 43.6686 19.4363 43.583 19.3709L42.5525 18.5797Z" fill="url(#paint1_linear_2875_630)"/>
<defs>
<linearGradient id="paint0_linear_2875_630" x1="26.1648" y1="50.0793" x2="50.0353" y2="26.0588" gradientUnits="userSpaceOnUse">
<stop stop-color="#B090F5"/>
<stop offset="1" stop-color="#5FBFFF"/>
</linearGradient>
<linearGradient id="paint1_linear_2875_630" x1="15.1184" y1="28.6022" x2="43.8798" y2="28.6022" gradientUnits="userSpaceOnUse">
<stop stop-color="#68D7FA"/>
<stop offset="1" stop-color="#7EF1B3"/>
</linearGradient>
</defs>
</svg>
