<svg width="64" height="64" viewBox="0 0 64 64" fill="none" xmlns="http://www.w3.org/2000/svg">
<g clip-path="url(#clip0_2875_648)">
<rect width="64" height="64" rx="8" fill="white"/>
<g clip-path="url(#clip1_2875_648)">
<path fill-rule="evenodd" clip-rule="evenodd" d="M13 32C13 42.4934 21.5066 51 32 51C42.4934 51 51 42.4934 51 32C51 21.5066 42.4934 13 32 13C21.5066 13 13 21.5066 13 32ZM27.1444 25.8778C26.4449 25.8778 25.8778 26.4449 25.8778 27.1444V36.8556C25.8778 37.5551 26.4449 38.1222 27.1444 38.1222H36.8556C37.5551 38.1222 38.1222 37.5551 38.1222 36.8556V27.1444C38.1222 26.4449 37.5551 25.8778 36.8556 25.8778H27.1444Z" fill="#0052FF"/>
</g>
</g>
<defs>
<clipPath id="clip0_2875_648">
<rect width="64" height="64" rx="8" fill="white"/>
</clipPath>
<clipPath id="clip1_2875_648">
<rect width="38" height="38" fill="white" transform="translate(13 13)"/>
</clipPath>
</defs>
</svg>
