<svg width="64" height="64" viewBox="0 0 64 64" fill="none" xmlns="http://www.w3.org/2000/svg">
<g clip-path="url(#clip0_2875_644)">
<rect width="64" height="64" rx="8" fill="white"/>
<rect width="64" height="64" rx="8" fill="url(#paint0_linear_2875_644)"/>
<mask id="mask0_2875_644" style="mask-type:luminance" maskUnits="userSpaceOnUse" x="12" y="13" width="40" height="38">
<path d="M51.111 13.9873H12.8889V50.9999H51.111V13.9873Z" fill="white"/>
</mask>
<g mask="url(#mask0_2875_644)">
<path d="M49.9765 47.0465C49.9765 47.0465 50.3439 47.0421 50.5886 47.2186C50.5886 47.2186 51.3181 45.7773 48.698 43.2117C48.698 43.2117 49.0607 43.053 49.5366 43.2073C49.5366 43.2073 49.4624 41.0107 46.7426 39.0008C46.7426 39.0008 47.1432 38.8585 47.3423 38.9317C47.3423 38.9317 46.2862 36.9701 43.5389 35.9212C43.5389 35.9212 43.9466 35.6949 44.4635 35.7038C44.4635 35.7038 42.4143 33.3353 38.8544 33.5412C38.8544 33.5412 39.0417 33.3296 39.4223 33.1973C39.4223 33.1973 38.8478 32.8187 37.4787 32.6532C36.7498 32.4953 35.826 32.4536 35.826 32.4536C36.1241 32.4455 36.7479 32.2748 37.1115 32.1682C38.615 32.0113 40.0694 31.6334 40.7707 30.8124C40.7707 30.8124 40.4684 30.9064 40.0365 30.504C40.0365 30.504 43.1525 30.2129 45.4251 27.3095C45.4251 27.3095 44.6393 27.6135 44.1702 27.2939C44.1702 27.2939 46.9922 26.1942 47.663 24.1842C47.663 24.1842 47.1283 24.5191 46.5049 24.4466C46.5049 24.4466 48.2298 23.2896 48.8735 21.2971C48.8735 21.2971 48.343 21.5718 47.9259 21.4075C47.9259 21.4075 49.9115 20.0324 49.644 17.9737C49.644 17.9737 49.3314 18.4409 48.6785 18.2778C48.6785 18.2778 50.7563 16.0723 49.8799 13.9977C49.8799 13.9977 48.3387 13.8037 46.9425 15.0908C46.9425 15.0908 46.9379 14.7336 47.1194 14.4957C47.1194 14.4957 45.6372 13.7862 42.9987 16.334C42.9987 16.334 42.8356 15.9813 42.9942 15.5186C42.9942 15.5186 40.7353 15.5906 38.6682 18.2354C38.6682 18.2354 38.5218 17.8459 38.5971 17.6523C38.5971 17.6523 36.5797 18.6791 35.5011 21.3506C35.5011 21.3506 35.2683 20.9541 35.2775 20.4516C35.2775 20.4516 32.8416 22.4441 33.0533 25.9057C33.0533 25.9057 32.8358 25.7236 32.6998 25.3534C32.6998 25.3534 32.4147 25.7623 32.2255 26.7141C32.0401 27.5507 31.9525 28.7226 31.9525 28.7226C31.9576 28.0993 31.6204 27.0095 31.4836 26.5932C31.2798 25.4095 30.8931 24.3392 30.1924 23.7731C30.1924 23.7731 30.2892 24.0671 29.8752 24.4871C29.8752 24.4871 29.576 21.4573 26.59 19.2474C26.59 19.2474 26.9027 20.0116 26.574 20.4676C26.574 20.4676 25.443 17.7236 23.3759 17.0714C23.3759 17.0714 23.7203 17.5913 23.6458 18.1975C23.6458 18.1975 22.4559 16.5202 20.4068 15.8943C20.4068 15.8943 20.6893 16.4102 20.52 16.8156C20.52 16.8156 19.1057 14.8849 16.9886 15.145C16.9886 15.145 17.4691 15.449 17.3013 16.0838C17.3013 16.0838 15.0332 14.0635 12.8996 14.9157C12.8996 14.9157 12.7001 16.4143 14.0237 17.7719C14.0237 17.7719 13.6564 17.7764 13.4118 17.5999C13.4118 17.5999 12.6821 19.0411 15.3023 21.6067C15.3023 21.6067 14.9395 21.7654 14.4637 21.6112C14.4637 21.6112 14.5378 23.8077 17.2577 25.8177C17.2577 25.8177 16.8571 25.9599 16.658 25.8867C16.658 25.8867 17.7141 27.8484 20.4615 28.8972C20.4615 28.8972 20.0536 29.1235 19.5369 29.1146C19.5369 29.1146 21.586 31.4833 25.146 31.2774C25.146 31.2774 24.9587 31.4888 24.578 31.6211C24.578 31.6211 24.8502 31.8003 25.464 31.9656C26.2766 32.2648 28.9735 32.3593 28.9735 32.3593C28.5565 32.428 27.9396 32.5937 27.3028 32.7844C25.6716 32.9164 24.0307 33.2858 23.2716 34.1745C23.2716 34.1745 23.5739 34.0803 24.0058 34.4829C24.0058 34.4829 20.8899 34.774 18.6173 37.6773C18.6173 37.6773 19.4031 37.3733 19.8721 37.6929C19.8721 37.6929 17.0502 38.7927 16.3794 40.8027C16.3794 40.8027 16.9141 40.4677 17.5375 40.5402C17.5375 40.5402 15.8125 41.6972 15.1689 43.6897C15.1689 43.6897 15.6994 43.415 16.1164 43.5793C16.1164 43.5793 14.1308 44.9544 14.3983 47.013C14.3983 47.013 14.711 46.5459 15.3638 46.709C15.3638 46.709 13.286 48.9145 14.1625 50.9891C14.1625 50.9891 15.7036 51.1831 17.0998 49.896C17.0998 49.896 17.1044 50.2532 16.9229 50.4911C16.9229 50.4911 18.4051 51.2006 21.0436 48.6529C21.0436 48.6529 21.2068 49.0056 21.0482 49.4683C21.0482 49.4683 23.3071 49.3962 25.3742 46.7514C25.3742 46.7514 25.5206 47.141 25.4452 47.3346C25.4452 47.3346 27.4626 46.3077 28.5412 43.6361C28.5412 43.6361 28.774 44.0328 28.7648 44.5352C28.7648 44.5352 31.2008 42.5427 30.989 39.0811C30.989 39.0811 31.2065 39.2633 31.3425 39.6334C31.3425 39.6334 32.0757 38.582 31.969 35.9249C32.1162 36.4765 32.2706 37.0079 32.4128 37.4763C32.5733 38.9421 32.9616 40.3611 33.8082 41.0445C33.8082 41.0445 33.7116 40.7506 34.1255 40.3306C34.1255 40.3306 34.4248 43.3604 37.4107 45.5703C37.4107 45.5703 37.0981 44.8062 37.4268 44.3501C37.4268 44.3501 38.5577 47.0941 40.6248 47.7464C40.6248 47.7464 40.2804 47.2264 40.355 46.6202C40.355 46.6202 41.5447 48.2975 43.5939 48.9234C43.5939 48.9234 43.3114 48.4075 43.4807 48.002C43.4807 48.002 44.8949 49.9328 47.012 49.6727C47.012 49.6727 46.5316 49.3687 46.6995 48.7339C46.6995 48.7339 48.9675 50.7543 51.1011 49.902C51.1011 49.902 51.3001 48.4042 49.9765 47.0465ZM31.984 33.2267C27.4576 36.0175 18.4181 45.755 18.4181 45.755C19.7177 42.6133 26.7536 35.0396 31.5114 32.4403C28.5956 28.0215 18.6624 19.3032 18.6624 19.3032C21.8872 20.5642 29.6519 27.3819 32.3398 32.008C37.1787 29.3332 45.8589 19.3076 45.8589 19.3076C45.4545 21.7833 37.111 30.3843 32.7679 32.7847C35.4693 37.4789 45.8612 45.9858 45.8612 45.9858C43.3092 45.5915 34.4283 37.4413 31.984 33.2267Z" fill="white"/>
<path d="M49.9765 47.0465C49.9765 47.0465 50.3439 47.0421 50.5886 47.2186C50.5886 47.2186 51.3181 45.7773 48.698 43.2117C48.698 43.2117 49.0607 43.053 49.5366 43.2073C49.5366 43.2073 49.4624 41.0107 46.7426 39.0008C46.7426 39.0008 47.1432 38.8585 47.3423 38.9317C47.3423 38.9317 46.2862 36.9701 43.5389 35.9212C43.5389 35.9212 43.9466 35.6949 44.4635 35.7038C44.4635 35.7038 42.4143 33.3353 38.8544 33.5412C38.8544 33.5412 39.0417 33.3296 39.4223 33.1973C39.4223 33.1973 38.8478 32.8187 37.4787 32.6532C36.7498 32.4953 35.826 32.4536 35.826 32.4536C36.1241 32.4455 36.7479 32.2748 37.1115 32.1682C38.615 32.0113 40.0694 31.6334 40.7707 30.8124C40.7707 30.8124 40.4684 30.9064 40.0365 30.504C40.0365 30.504 43.1525 30.2129 45.4251 27.3095C45.4251 27.3095 44.6393 27.6135 44.1702 27.2939C44.1702 27.2939 46.9922 26.1942 47.663 24.1842C47.663 24.1842 47.1283 24.5191 46.5049 24.4466C46.5049 24.4466 48.2298 23.2896 48.8735 21.2971C48.8735 21.2971 48.343 21.5718 47.9259 21.4075C47.9259 21.4075 49.9115 20.0324 49.644 17.9737C49.644 17.9737 49.3314 18.4409 48.6785 18.2778C48.6785 18.2778 50.7563 16.0723 49.8799 13.9977C49.8799 13.9977 48.3387 13.8037 46.9425 15.0908C46.9425 15.0908 46.9379 14.7336 47.1194 14.4957C47.1194 14.4957 45.6372 13.7862 42.9987 16.334C42.9987 16.334 42.8356 15.9813 42.9942 15.5186C42.9942 15.5186 40.7353 15.5906 38.6682 18.2354C38.6682 18.2354 38.5218 17.8459 38.5971 17.6523C38.5971 17.6523 36.5797 18.6791 35.5011 21.3506C35.5011 21.3506 35.2683 20.9541 35.2775 20.4516C35.2775 20.4516 32.8416 22.4441 33.0533 25.9057C33.0533 25.9057 32.8358 25.7236 32.6998 25.3534C32.6998 25.3534 32.4147 25.7623 32.2255 26.7141C32.0401 27.5507 31.9525 28.7226 31.9525 28.7226C31.9576 28.0993 31.6204 27.0095 31.4836 26.5932C31.2798 25.4095 30.8931 24.3392 30.1924 23.7731C30.1924 23.7731 30.2892 24.0671 29.8752 24.4871C29.8752 24.4871 29.576 21.4573 26.59 19.2474C26.59 19.2474 26.9027 20.0116 26.574 20.4676C26.574 20.4676 25.443 17.7236 23.3759 17.0714C23.3759 17.0714 23.7203 17.5913 23.6458 18.1975C23.6458 18.1975 22.4559 16.5202 20.4068 15.8943C20.4068 15.8943 20.6893 16.4102 20.52 16.8156C20.52 16.8156 19.1057 14.8849 16.9886 15.145C16.9886 15.145 17.4691 15.449 17.3013 16.0838C17.3013 16.0838 15.0332 14.0635 12.8996 14.9157C12.8996 14.9157 12.7001 16.4143 14.0237 17.7719C14.0237 17.7719 13.6564 17.7764 13.4118 17.5999C13.4118 17.5999 12.6821 19.0411 15.3023 21.6067C15.3023 21.6067 14.9395 21.7654 14.4637 21.6112C14.4637 21.6112 14.5378 23.8077 17.2577 25.8177C17.2577 25.8177 16.8571 25.9599 16.658 25.8867C16.658 25.8867 17.7141 27.8484 20.4615 28.8972C20.4615 28.8972 20.0536 29.1235 19.5369 29.1146C19.5369 29.1146 21.586 31.4833 25.146 31.2774C25.146 31.2774 24.9587 31.4888 24.578 31.6211C24.578 31.6211 24.8502 31.8003 25.464 31.9656C26.2766 32.2648 28.9735 32.3593 28.9735 32.3593C28.5565 32.428 27.9396 32.5937 27.3028 32.7844C25.6716 32.9164 24.0307 33.2858 23.2716 34.1745C23.2716 34.1745 23.5739 34.0803 24.0058 34.4829C24.0058 34.4829 20.8899 34.774 18.6173 37.6773C18.6173 37.6773 19.4031 37.3733 19.8721 37.6929C19.8721 37.6929 17.0502 38.7927 16.3794 40.8027C16.3794 40.8027 16.9141 40.4677 17.5375 40.5402C17.5375 40.5402 15.8125 41.6972 15.1689 43.6897C15.1689 43.6897 15.6994 43.415 16.1164 43.5793C16.1164 43.5793 14.1308 44.9544 14.3983 47.013C14.3983 47.013 14.711 46.5459 15.3638 46.709C15.3638 46.709 13.286 48.9145 14.1625 50.9891C14.1625 50.9891 15.7036 51.1831 17.0998 49.896C17.0998 49.896 17.1044 50.2532 16.9229 50.4911C16.9229 50.4911 18.4051 51.2006 21.0436 48.6529C21.0436 48.6529 21.2068 49.0056 21.0482 49.4683C21.0482 49.4683 23.3071 49.3962 25.3742 46.7514C25.3742 46.7514 25.5206 47.141 25.4452 47.3346C25.4452 47.3346 27.4626 46.3077 28.5412 43.6361C28.5412 43.6361 28.774 44.0328 28.7648 44.5352C28.7648 44.5352 31.2008 42.5427 30.989 39.0811C30.989 39.0811 31.2065 39.2633 31.3425 39.6334C31.3425 39.6334 32.0757 38.582 31.969 35.9249C32.1162 36.4765 32.2706 37.0079 32.4128 37.4763C32.5733 38.9421 32.9616 40.3611 33.8082 41.0445C33.8082 41.0445 33.7116 40.7506 34.1255 40.3306C34.1255 40.3306 34.4248 43.3604 37.4107 45.5703C37.4107 45.5703 37.0981 44.8062 37.4268 44.3501C37.4268 44.3501 38.5577 47.0941 40.6248 47.7464C40.6248 47.7464 40.2804 47.2264 40.355 46.6202C40.355 46.6202 41.5447 48.2975 43.5939 48.9234C43.5939 48.9234 43.3114 48.4075 43.4807 48.002C43.4807 48.002 44.8949 49.9328 47.012 49.6727C47.012 49.6727 46.5316 49.3687 46.6995 48.7339C46.6995 48.7339 48.9675 50.7543 51.1011 49.902C51.1011 49.902 51.3001 48.4042 49.9765 47.0465ZM31.984 33.2267C27.4576 36.0175 18.4181 45.755 18.4181 45.755C19.7177 42.6133 26.7536 35.0396 31.5114 32.4403C28.5956 28.0215 18.6624 19.3032 18.6624 19.3032C21.8872 20.5642 29.6519 27.3819 32.3398 32.008C37.1787 29.3332 45.8589 19.3076 45.8589 19.3076C45.4545 21.7833 37.111 30.3843 32.7679 32.7847C35.4693 37.4789 45.8612 45.9858 45.8612 45.9858C43.3092 45.5915 34.4283 37.4413 31.984 33.2267Z" fill="white"/>
</g>
</g>
<defs>
<linearGradient id="paint0_linear_2875_644" x1="-5.17552e-06" y1="15.4782" x2="63.1946" y2="64.0287" gradientUnits="userSpaceOnUse">
<stop stop-color="#32E1CC"/>
<stop offset="1" stop-color="#2CC785"/>
</linearGradient>
<clipPath id="clip0_2875_644">
<rect width="64" height="64" rx="8" fill="white"/>
</clipPath>
</defs>
</svg>
