<svg width="64" height="64" viewBox="0 0 64 64" fill="none" xmlns="http://www.w3.org/2000/svg">
<rect width="64" height="64" rx="8" fill="#4779FF"/>
<path d="M29.2528 19.2521C28.609 19.8522 27.9762 20.4411 27.3435 21.0273C24.4044 23.7553 21.4654 26.4861 18.5236 29.2086C17.8492 29.8337 17.1499 30.4337 16.3034 30.8004C15.296 31.2366 14.7187 30.9643 14.394 29.8781C13.9417 28.3585 14.1831 26.9417 15.0573 25.6361C15.8011 24.5248 16.7391 23.5998 17.7021 22.6997C19.2369 21.2662 20.7827 19.8466 22.348 18.452C23.0335 17.8409 23.7828 17.2825 24.6986 17.0964C27.4406 16.5435 29.1891 19.1716 29.2557 19.2493L29.2528 19.2521Z" fill="white"/>
<path d="M16.0592 33.1311C17.7271 32.6505 18.9788 31.592 20.1971 30.4781C24.0825 26.9333 27.9624 23.3857 31.8644 19.8604C32.7247 19.0826 33.6295 18.338 34.587 17.688C35.8053 16.8601 37.1291 16.7407 38.4334 17.5296C38.9053 17.813 39.3687 18.1436 39.7517 18.5381C41.0811 19.9132 42.3938 21.3105 43.6732 22.7329C45.0331 24.2442 46.3707 25.7776 47.6723 27.3389C48.1191 27.8751 48.4855 28.5001 48.7881 29.1335C49.3514 30.3114 49.2071 31.4753 48.5216 32.5727C47.9082 33.5562 47.0868 34.3618 46.2404 35.1257C42.9266 38.1205 39.6129 41.1152 36.2605 44.0682C35.3613 44.8627 34.3705 45.5739 33.3491 46.2018C31.4258 47.388 29.4971 47.2407 27.7431 45.8351C26.7218 45.0183 25.7616 44.1043 24.8846 43.132C22.0594 40.0012 19.2868 36.8259 16.4949 33.6645C16.3534 33.5062 16.2257 33.334 16.0592 33.1283V33.1311Z" fill="white"/>
</svg>
