<svg width="64" height="64" viewBox="0 0 64 64" fill="none" xmlns="http://www.w3.org/2000/svg">
<rect width="64" height="64" rx="8" fill="#1D1D2D"/>
<g clip-path="url(#clip0_2875_643)">
<path d="M47.8084 24.9349L34.1813 16V20.9955L42.9232 26.6762L41.8948 29.9305H34.1813V34.0695H41.8948L42.9232 37.3238L34.1813 43.0045V48L47.8084 39.0937L45.5801 32.0143L47.8084 24.9349Z" fill="url(#paint0_linear_2875_643)"/>
<path d="M22.3254 34.0695H30.0102V29.9305H22.2968L21.2969 26.6762L30.0102 20.9955V16L16.3832 24.9349L18.6115 32.0143L16.3832 39.0937L30.0388 48V43.0045L21.2969 37.3238L22.3254 34.0695Z" fill="url(#paint1_linear_2875_643)"/>
<mask id="mask0_2875_643" style="mask-type:alpha" maskUnits="userSpaceOnUse" x="16" y="16" width="32" height="32">
<path d="M47.8085 24.9349L34.1814 16V20.9955L42.9233 26.6762L41.8948 29.9305H34.1814V34.0695H41.8948L42.9233 37.3238L34.1814 43.0045V48L47.8085 39.0937L45.5801 32.0143L47.8085 24.9349Z" fill="url(#paint2_linear_2875_643)"/>
<path d="M22.3254 34.0695H30.0103V29.9305H22.2968L21.2969 26.6762L30.0103 20.9955V16L16.3832 24.9349L18.6115 32.0143L16.3832 39.0937L30.0389 48V43.0045L21.2969 37.3238L22.3254 34.0695Z" fill="url(#paint3_linear_2875_643)"/>
</mask>
<g mask="url(#mask0_2875_643)">
<path d="M47.6001 16H16.4001V48H47.6001V16Z" fill="url(#paint4_linear_2875_643)"/>
</g>
</g>
<defs>
<linearGradient id="paint0_linear_2875_643" x1="43.4" y1="50.2" x2="34.272" y2="12.4858" gradientUnits="userSpaceOnUse">
<stop stop-color="#0B46F9"/>
<stop offset="1" stop-color="#BBFBE0"/>
</linearGradient>
<linearGradient id="paint1_linear_2875_643" x1="43.4" y1="50.2" x2="34.272" y2="12.4858" gradientUnits="userSpaceOnUse">
<stop stop-color="#0B46F9"/>
<stop offset="1" stop-color="#BBFBE0"/>
</linearGradient>
<linearGradient id="paint2_linear_2875_643" x1="43.4001" y1="50.2" x2="34.2721" y2="12.4858" gradientUnits="userSpaceOnUse">
<stop stop-color="#0B46F9"/>
<stop offset="1" stop-color="#BBFBE0"/>
</linearGradient>
<linearGradient id="paint3_linear_2875_643" x1="43.3999" y1="50.2" x2="34.2719" y2="12.4858" gradientUnits="userSpaceOnUse">
<stop stop-color="#0B46F9"/>
<stop offset="1" stop-color="#BBFBE0"/>
</linearGradient>
<linearGradient id="paint4_linear_2875_643" x1="18.4001" y1="23.2" x2="34.2001" y2="35" gradientUnits="userSpaceOnUse">
<stop offset="0.119792" stop-color="#8952FF" stop-opacity="0.87"/>
<stop offset="1" stop-color="#DABDFF" stop-opacity="0"/>
</linearGradient>
<clipPath id="clip0_2875_643">
<rect width="32" height="32" fill="white" transform="translate(16 16)"/>
</clipPath>
</defs>
</svg>
