<svg xmlns="http://www.w3.org/2000/svg" width="21" height="20" viewBox="0 0 21 20" fill="none">
  <path d="M19.3167 10.8335C19.3167 10.9085 19.3083 10.9751 19.2833 11.0418C19.2833 11.0835 19.2667 11.1168 19.25 11.1585C19.2083 11.2585 19.15 11.3501 19.075 11.4251L16.575 13.9251C16.4083 14.0835 16.2 14.1668 15.9833 14.1668C15.7667 14.1668 15.5583 14.0835 15.3917 13.9251C15.0667 13.6001 15.0667 13.0668 15.3917 12.7418L16.475 11.6668H13.775C13.6417 11.0585 13.375 10.4918 13 10.0001H16.475L15.3917 8.92513C15.0667 8.60013 15.0667 8.0668 15.3917 7.7418C15.725 7.4168 16.25 7.4168 16.575 7.7418L19.075 10.2418C19.15 10.3168 19.2083 10.4085 19.25 10.5085C19.275 10.5585 19.2917 10.6085 19.3 10.6668C19.3083 10.7251 19.3167 10.7751 19.3167 10.8335Z" fill="#A2A1B2" stroke="#A2A1B2" stroke-width="0.208333"/>
  <path d="M12.1667 13.0469C12.1667 13.9656 11.8167 14.8375 11.1767 15.5031C10.5267 16.1781 9.60666 16.5625 8.66666 16.5625H8.16666C8.16666 17.0781 7.71666 17.5 7.16666 17.5C6.61666 17.5 6.16666 17.0781 6.16666 16.5625H5.66666C4.72666 16.5625 3.81666 16.1781 3.15666 15.5031C2.51666 14.8469 2.16666 13.975 2.16666 13.0469C2.16666 12.5312 2.61666 12.1094 3.16666 12.1094C3.71666 12.1094 4.16666 12.5312 4.16666 13.0469C4.16666 13.4969 4.33666 13.9281 4.63666 14.2469C4.91666 14.5281 5.28666 14.6875 5.66666 14.6875H8.66666C9.04666 14.6875 9.41666 14.5281 9.69666 14.2375C9.99666 13.9281 10.1667 13.4969 10.1667 13.0469C10.1667 12.5969 9.99666 12.1656 9.69666 11.8562C9.41666 11.5656 9.04666 11.4062 8.66666 11.4062H6.16666C5.22666 11.4062 4.31666 11.0219 3.65666 10.3469C3.01666 9.69062 2.66666 8.81875 2.66666 7.89062C2.66666 6.9625 3.01666 6.1 3.65666 5.44375C4.31666 4.76875 5.22666 4.375 6.16666 4.375V3.4375C6.16666 2.92188 6.61666 2.5 7.16666 2.5C7.71666 2.5 8.16666 2.92188 8.16666 3.4375V4.375C8.64666 4.375 9.10666 4.46875 9.53666 4.65625C9.96666 4.84375 10.3467 5.10625 10.6767 5.44375C10.9967 5.77188 11.2467 6.14687 11.4167 6.57812C11.5867 7 11.6667 7.44063 11.6667 7.89062C11.6667 8.40625 11.2167 8.82812 10.6667 8.82812C10.1167 8.82812 9.66666 8.40625 9.66666 7.89062C9.66666 7.66563 9.62666 7.45 9.54666 7.23438C9.45666 7.0375 9.34666 6.85 9.19666 6.7C9.05666 6.55937 8.88666 6.4375 8.70666 6.3625C8.53666 6.2875 8.35666 6.25 8.16666 6.25H6.16666C5.78666 6.25 5.41666 6.40937 5.13666 6.7C4.83666 7.00938 4.66666 7.44063 4.66666 7.89062C4.66666 8.34062 4.83666 8.77187 5.13666 9.08125C5.41666 9.37187 5.78666 9.53125 6.16666 9.53125H8.66666C9.27666 9.53125 9.87666 9.7 10.4067 10C10.6867 10.1594 10.9467 10.3656 11.1767 10.6C11.5367 10.9656 11.7967 11.3969 11.9667 11.875C12.0967 12.25 12.1667 12.6438 12.1667 13.0469Z" fill="#A2A1B2" stroke="#A2A1B2" stroke-width="0.208333"/>
</svg>