<svg width="17" height="16" viewBox="0 0 17 16" fill="none" xmlns="http://www.w3.org/2000/svg">
<path d="M15.5533 8.66662C15.5533 8.72662 15.5467 8.77996 15.5267 8.83329C15.5267 8.86662 15.5133 8.89329 15.5 8.92662C15.4667 9.00662 15.42 9.07996 15.36 9.13996L13.36 11.14C13.2267 11.2666 13.06 11.3333 12.8867 11.3333C12.7133 11.3333 12.5467 11.2666 12.4133 11.14C12.1533 10.88 12.1533 10.4533 12.4133 10.1933L13.28 9.33329H11.12C11.0133 8.84662 10.8 8.39329 10.5 7.99996H13.28L12.4133 7.13996C12.1533 6.87996 12.1533 6.45329 12.4133 6.19329C12.68 5.93329 13.1 5.93329 13.36 6.19329L15.36 8.19329C15.42 8.25329 15.4667 8.32662 15.5 8.40662C15.52 8.44662 15.5333 8.48662 15.54 8.53329C15.5467 8.57996 15.5533 8.61996 15.5533 8.66662Z" fill="#80ECFF" stroke="#80ECFF" stroke-width="0.5"/>
<path d="M9.83325 10.4375C9.83325 11.1725 9.55325 11.87 9.04125 12.4025C8.52125 12.9425 7.78525 13.25 7.03325 13.25H6.63325C6.63325 13.6625 6.27325 14 5.83325 14C5.39325 14 5.03325 13.6625 5.03325 13.25H4.63325C3.88125 13.25 3.15325 12.9425 2.62525 12.4025C2.11325 11.8775 1.83325 11.18 1.83325 10.4375C1.83325 10.025 2.19325 9.6875 2.63325 9.6875C3.07325 9.6875 3.43325 10.025 3.43325 10.4375C3.43325 10.7975 3.56925 11.1425 3.80925 11.3975C4.03325 11.6225 4.32925 11.75 4.63325 11.75H7.03325C7.33725 11.75 7.63325 11.6225 7.85725 11.39C8.09725 11.1425 8.23325 10.7975 8.23325 10.4375C8.23325 10.0775 8.09725 9.7325 7.85725 9.485C7.63325 9.2525 7.33725 9.125 7.03325 9.125H5.03325C4.28125 9.125 3.55325 8.8175 3.02525 8.2775C2.51325 7.7525 2.23325 7.055 2.23325 6.3125C2.23325 5.57 2.51325 4.88 3.02525 4.355C3.55325 3.815 4.28125 3.5 5.03325 3.5V2.75C5.03325 2.3375 5.39325 2 5.83325 2C6.27325 2 6.63325 2.3375 6.63325 2.75V3.5C7.01725 3.5 7.38525 3.575 7.72925 3.725C8.07325 3.875 8.37725 4.085 8.64125 4.355C8.89725 4.6175 9.09725 4.9175 9.23325 5.2625C9.36925 5.6 9.43325 5.9525 9.43325 6.3125C9.43325 6.725 9.07325 7.0625 8.63325 7.0625C8.19325 7.0625 7.83325 6.725 7.83325 6.3125C7.83325 6.1325 7.80125 5.96 7.73725 5.7875C7.66525 5.63 7.57725 5.48 7.45725 5.36C7.34525 5.2475 7.20925 5.15 7.06525 5.09C6.92925 5.03 6.78525 5 6.63325 5H5.03325C4.72925 5 4.43325 5.1275 4.20925 5.36C3.96925 5.6075 3.83325 5.9525 3.83325 6.3125C3.83325 6.6725 3.96925 7.0175 4.20925 7.265C4.43325 7.4975 4.72925 7.625 5.03325 7.625H7.03325C7.52125 7.625 8.00125 7.76 8.42525 8C8.64925 8.1275 8.85725 8.2925 9.04125 8.48C9.32925 8.7725 9.53725 9.1175 9.67325 9.5C9.77725 9.8 9.83325 10.115 9.83325 10.4375Z" fill="#80ECFF" stroke="#80ECFF" stroke-width="0.5"/>
</svg>
