<svg width="64" height="64" viewBox="0 0 64 64" fill="none" xmlns="http://www.w3.org/2000/svg">
<g clip-path="url(#clip0_2875_649)">
<rect width="64" height="64" rx="8" fill="#F1F1F1"/>
<g clip-path="url(#clip1_2875_649)">
<path d="M44.593 47.4372C47.5792 47.4372 50 45.0648 50 42.1385C50 39.2121 47.5792 36.8398 44.593 36.8398C41.6066 36.8398 39.1857 39.2121 39.1857 42.1385C39.1857 45.0648 41.6066 47.4372 44.593 47.4372Z" fill="#1F1E1E"/>
<path d="M44.5345 15.5122C43.1963 15.5116 41.9049 15.9955 40.9083 16.8709C32.9995 22.6002 27.3531 17.8527 26.1023 16.6175C26.0248 16.532 25.8405 16.342 25.8405 16.342C24.9463 15.4924 23.8165 14.9199 22.5922 14.6959C21.3679 14.4718 20.1034 14.6063 18.9565 15.0823C17.8097 15.5584 16.8315 16.355 16.144 17.3727C15.4564 18.3904 15.0901 19.584 15.0908 20.8045C15.1006 21.6483 15.2784 22.482 15.6144 23.259C16.0216 24.2408 16.9848 25.1593 17.5019 25.9384C18.4715 27.3731 18.9919 28.6463 18.9919 30.4674C18.9752 32.7773 18.0664 34.9953 16.4483 36.675C16.2737 36.8777 15.511 37.7297 15.5013 37.736C14.6681 38.8172 14.1592 40.1047 14.0317 41.4537C13.9042 42.8027 14.1631 44.1599 14.7794 45.3727C15.3957 46.5855 16.3449 47.6059 17.5204 48.3191C18.6959 49.0323 20.0511 49.41 21.4337 49.41C22.8163 49.41 24.1714 49.0323 25.3469 48.3191C26.5224 47.6059 27.4717 46.5855 28.088 45.3727C28.7043 44.1599 28.9632 42.8027 28.8357 41.4537C28.7082 40.1047 28.1992 38.8172 27.3661 37.736L26.6938 36.9854C25.0354 35.4006 24.0299 33.2733 23.869 31.0089C23.708 28.7444 24.4029 26.5011 25.8212 24.7064C26.1413 24.2998 26.4971 23.9215 26.8845 23.5757C26.898 23.5604 26.9131 23.5466 26.9298 23.5345C28.741 21.919 31.1232 21.0584 33.5711 21.1352C36.019 21.2121 38.3402 22.2204 40.0421 23.9463C40.2166 24.1268 40.7467 24.681 40.8307 24.7507C42.0589 25.7927 43.0705 26.2361 44.5283 26.2361C45.9795 26.2361 47.3711 25.6712 48.3974 24.6656C49.4234 23.6601 50 22.2962 50 20.8741C50 19.452 49.4234 18.0882 48.3974 17.0827C47.3711 16.0771 45.9795 15.5122 44.5283 15.5122H44.5345Z" fill="#1F1E1E"/>
</g>
</g>
<defs>
<clipPath id="clip0_2875_649">
<rect width="64" height="64" rx="8" fill="white"/>
</clipPath>
<clipPath id="clip1_2875_649">
<rect width="36" height="36" fill="white" transform="translate(14 14)"/>
</clipPath>
</defs>
</svg>
