<svg width="64" height="64" viewBox="0 0 64 64" fill="none" xmlns="http://www.w3.org/2000/svg">
<rect width="64" height="64" rx="8" fill="url(#paint0_linear_2875_634)"/>
<path fill-rule="evenodd" clip-rule="evenodd" d="M32.3655 23.1567C37.5631 23.1567 42.3375 21.3498 46.0964 18.3304C42.5562 14.866 37.7093 12.73 32.3655 12.73C27.0216 12.73 22.1747 14.8649 18.6345 18.3293C22.3934 21.3498 27.1678 23.1567 32.3655 23.1567ZM46.4407 46.0544C49.8813 42.5175 52 37.6889 52 32.3646C52 27.0402 49.8813 22.2117 46.4396 18.6748C43.4397 22.4283 41.6458 27.1864 41.6458 32.3646C41.6458 37.5428 43.4397 42.302 46.4407 46.0544ZM46.0909 46.405C42.5507 49.8662 37.7071 52 32.3654 52C27.0237 52 22.1801 49.8673 18.6399 46.4061C22.3977 43.3888 27.171 41.583 32.3654 41.583C37.5598 41.583 42.3331 43.3888 46.0909 46.405ZM18.3272 46.0932C21.3455 42.3354 23.1524 37.561 23.1524 32.3644C23.1524 27.1689 21.3466 22.3956 18.3272 18.6367C14.8638 22.1769 12.73 27.0206 12.73 32.3644C12.73 37.7082 14.8638 42.553 18.3272 46.0932Z" fill="url(#paint1_linear_2875_634)"/>
<defs>
<linearGradient id="paint0_linear_2875_634" x1="0" y1="0" x2="64" y2="64" gradientUnits="userSpaceOnUse">
<stop stop-color="#7715FD"/>
<stop offset="1" stop-color="#E95EFF"/>
</linearGradient>
<linearGradient id="paint1_linear_2875_634" x1="22.5" y1="22.5" x2="52" y2="52" gradientUnits="userSpaceOnUse">
<stop stop-color="white"/>
<stop offset="1" stop-color="white" stop-opacity="0.8"/>
</linearGradient>
</defs>
</svg>
