<svg width="64" height="64" viewBox="0 0 64 64" fill="none" xmlns="http://www.w3.org/2000/svg">
<g clip-path="url(#clip0_2875_652)">
<rect width="64" height="64" rx="8" fill="black"/>
<path d="M41.5906 28.1697C40.9964 28.764 40.264 29.1361 39.4969 29.2864C40.5659 32.1635 39.8725 35.4559 37.6779 37.6504C36.1633 39.165 34.1251 39.9667 32.0616 39.9667C31.1327 39.9667 30.1991 39.8019 29.3056 39.4686C29.1568 40.2398 28.7839 40.9764 28.1867 41.5737C26.596 43.1644 24.017 43.1644 22.4263 41.5737C20.8356 39.9831 20.8356 37.404 22.4263 35.8133C23.0201 35.2196 23.7518 34.8477 24.5182 34.6971C23.4285 31.8109 24.1175 28.4989 26.322 26.2944C28.5244 24.0918 31.8327 23.4021 34.7171 24.4877C34.8693 23.7262 35.24 22.9998 35.8302 22.4093C37.4209 20.8187 39.9999 20.8187 41.5906 22.4093C43.1813 24 43.1813 26.5791 41.5906 28.1697ZM32 14C22.0589 14 14 22.0589 14 32C14 41.9411 22.0589 50 32 50C41.9411 50 50 41.9411 50 32C50 22.0589 41.9411 14 32 14ZM34.1266 34.099C32.963 35.2628 31.0761 35.2628 29.9124 34.099C28.7487 32.9353 28.7487 31.0485 29.9124 29.8848C31.0761 28.7211 32.963 28.7211 34.1266 29.8848C35.2904 31.0485 35.2904 32.9353 34.1266 34.099ZM36.7846 23.3638C36.172 23.9764 35.8911 24.8532 36.0333 25.7093C36.0829 25.9895 36.0529 26.2778 35.9283 26.5468C35.7676 26.8939 35.4815 27.1431 35.1488 27.2655C34.8154 27.3882 34.4352 27.3836 34.0876 27.2225C32.1364 26.3189 29.8037 26.7342 28.2827 28.2553C26.7619 29.776 26.3468 32.1085 27.2498 34.0594C27.413 34.4121 27.4148 34.7978 27.2868 35.1344C27.1625 35.4611 26.9161 35.7416 26.5739 35.9C26.3855 35.9872 26.1873 36.0286 25.9923 36.0286C25.8997 36.0286 25.8086 36.0161 25.7187 35.998C24.8282 35.876 23.9955 36.1526 23.3914 36.757C22.8833 37.265 22.6035 37.9405 22.6035 38.6592C22.6035 39.3776 22.8833 40.0531 23.3914 40.5614C24.4404 41.6099 26.1469 41.6099 27.1957 40.5614C27.8082 39.9485 28.0891 39.0717 27.9469 38.216C27.9392 38.169 27.941 38.1234 27.9469 38.0787C27.9307 37.8522 27.9694 37.6185 28.0716 37.3979C28.2317 37.0521 28.5164 36.8036 28.8475 36.6808C29.1817 36.5567 29.5633 36.5606 29.9123 36.7222C31.8636 37.626 34.1962 37.2102 35.7172 35.6895C37.2381 34.1687 37.6532 31.8362 36.7501 29.8854C36.5907 29.5411 36.585 29.1651 36.704 28.8342C36.8252 28.4973 37.0754 28.207 37.426 28.0447C37.6722 27.9306 37.9346 27.8964 38.1853 27.929C38.2241 27.9245 38.2636 27.923 38.3041 27.9288C39.1523 28.0496 39.9845 27.7725 40.5888 27.168C41.6376 26.1192 41.6376 24.4126 40.5888 23.3638C39.54 22.3148 37.8334 22.3148 36.7846 23.3638Z" fill="white"/>
</g>
<defs>
<clipPath id="clip0_2875_652">
<rect width="64" height="64" rx="8" fill="white"/>
</clipPath>
</defs>
</svg>
