<svg width="399" height="793" viewBox="0 0 399 793" fill="none" xmlns="http://www.w3.org/2000/svg">
<g clip-path="url(#clip0_115_2125)" filter="url(#filter0_d_115_2125)">
<rect width="391" height="785" transform="translate(4)" fill="#0F0A16"/>
<rect width="1577.74" height="819" transform="translate(-589.87)" fill="#0F0A16"/>
<g opacity="0.4" filter="url(#filter1_f_115_2125)">
<path d="M478.925 146.078L413.031 219.49C386.596 248.942 376.838 289.759 387.094 327.983L426.019 473.051C435.21 507.304 459.438 535.541 491.898 549.829L586.95 591.668C629.369 610.339 678.811 602.217 713.027 570.955L760.41 527.662C776.579 512.889 796.569 502.95 818.107 498.976L933.524 477.678C1002.73 464.908 1045.09 394.381 1023.85 327.287L1020.11 315.462C1004.71 266.816 959.57 233.755 908.545 233.755H785.095C752.355 233.755 721.113 220.039 698.953 195.939L652.153 145.039C605.414 94.2068 525.051 94.6885 478.925 146.078Z" fill="url(#paint0_linear_115_2125)"/>
<path d="M478.925 146.078L413.031 219.49C386.596 248.942 376.838 289.759 387.094 327.983L426.019 473.051C435.21 507.304 459.438 535.541 491.898 549.829L586.95 591.668C629.369 610.339 678.811 602.217 713.027 570.955L760.41 527.662C776.579 512.889 796.569 502.95 818.107 498.976L933.524 477.678C1002.73 464.908 1045.09 394.381 1023.85 327.287L1020.11 315.462C1004.71 266.816 959.57 233.755 908.545 233.755H785.095C752.355 233.755 721.113 220.039 698.953 195.939L652.153 145.039C605.414 94.2068 525.051 94.6885 478.925 146.078Z" stroke="black" stroke-width="0.615897"/>
</g>
<g opacity="0.2" filter="url(#filter2_f_115_2125)">
<path d="M104.767 116.157L-117.246 243.66C-171.658 274.908 -191.74 343.509 -162.769 399.167L-104.032 512.007C-88.1542 542.511 -59.6625 564.487 -26.126 572.096L301.076 646.338C326.541 652.116 353.207 649.211 376.831 638.085L571.027 546.623C583.243 540.869 596.364 537.273 609.806 535.994L943.278 504.274C1029.48 496.074 1077.23 400.338 1031.92 326.546L1029.38 322.412C1008.09 287.748 970.335 266.624 929.658 266.624H520.289C500.249 266.624 480.544 261.478 463.063 251.677L220.271 115.56C184.347 95.4196 140.481 95.6463 104.767 116.157Z" fill="url(#paint1_linear_115_2125)"/>
<path d="M104.767 116.157L-117.246 243.66C-171.658 274.908 -191.74 343.509 -162.769 399.167L-104.032 512.007C-88.1542 542.511 -59.6625 564.487 -26.126 572.096L301.076 646.338C326.541 652.116 353.207 649.211 376.831 638.085L571.027 546.623C583.243 540.869 596.364 537.273 609.806 535.994L943.278 504.274C1029.48 496.074 1077.23 400.338 1031.92 326.546L1029.38 322.412C1008.09 287.748 970.335 266.624 929.658 266.624H520.289C500.249 266.624 480.544 261.478 463.063 251.677L220.271 115.56C184.347 95.4196 140.481 95.6463 104.767 116.157Z" stroke="black" stroke-width="0.615897"/>
</g>
</g>
<defs>
<filter id="filter0_d_115_2125" x="0" y="0" width="399" height="793" filterUnits="userSpaceOnUse" color-interpolation-filters="sRGB">
<feFlood flood-opacity="0" result="BackgroundImageFix"/>
<feColorMatrix in="SourceAlpha" type="matrix" values="0 0 0 0 0 0 0 0 0 0 0 0 0 0 0 0 0 0 127 0" result="hardAlpha"/>
<feOffset dy="4"/>
<feGaussianBlur stdDeviation="2"/>
<feComposite in2="hardAlpha" operator="out"/>
<feColorMatrix type="matrix" values="0 0 0 0 0 0 0 0 0 0 0 0 0 0 0 0 0 0 0.25 0"/>
<feBlend mode="normal" in2="BackgroundImageFix" result="effect1_dropShadow_115_2125"/>
<feBlend mode="normal" in="SourceGraphic" in2="effect1_dropShadow_115_2125" result="shape"/>
</filter>
<filter id="filter1_f_115_2125" x="140.123" y="-135.748" width="1132.2" height="980.306" filterUnits="userSpaceOnUse" color-interpolation-filters="sRGB">
<feFlood flood-opacity="0" result="BackgroundImageFix"/>
<feBlend mode="normal" in="SourceGraphic" in2="BackgroundImageFix" result="shape"/>
<feGaussianBlur stdDeviation="121.332" result="effect1_foregroundBlur_115_2125"/>
</filter>
<filter id="filter2_f_115_2125" x="-418.98" y="-142.359" width="1711.3" height="1034.57" filterUnits="userSpaceOnUse" color-interpolation-filters="sRGB">
<feFlood flood-opacity="0" result="BackgroundImageFix"/>
<feBlend mode="normal" in="SourceGraphic" in2="BackgroundImageFix" result="shape"/>
<feGaussianBlur stdDeviation="121.332" result="effect1_foregroundBlur_115_2125"/>
</filter>
<linearGradient id="paint0_linear_115_2125" x1="429.153" y1="636.034" x2="947.479" y2="2.87598" gradientUnits="userSpaceOnUse">
<stop offset="0.08" stop-color="#9945FF"/>
<stop offset="0.3" stop-color="#8752F3"/>
<stop offset="0.5" stop-color="#5497D5"/>
<stop offset="0.6" stop-color="#43B4CA"/>
<stop offset="0.72" stop-color="#28E0B9"/>
<stop offset="0.97" stop-color="#14F195"/>
</linearGradient>
<linearGradient id="paint1_linear_115_2125" x1="1130.14" y1="369.171" x2="-214.609" y2="369.168" gradientUnits="userSpaceOnUse">
<stop stop-color="#9945FF"/>
<stop offset="0.505714" stop-color="#EB54BC"/>
<stop offset="1" stop-color="#FF754A"/>
</linearGradient>
<clipPath id="clip0_115_2125">
<rect width="391" height="785" fill="white" transform="translate(4)"/>
</clipPath>
</defs>
</svg>
