<svg width="2062" height="1134" viewBox="0 0 2062 1134" fill="none" xmlns="http://www.w3.org/2000/svg">
<rect width="1728" height="897" transform="translate(0 156)" fill="#0F0A16"/>
<g opacity="0.4" filter="url(#filter0_f_114_1535)">
<path d="M1170.59 315.99L1098.42 396.394C1069.46 428.65 1058.78 473.355 1070.01 515.219L1112.64 674.104C1122.71 711.619 1149.24 742.545 1184.79 758.193L1288.9 804.017C1335.36 824.467 1389.51 815.571 1426.98 781.331L1478.88 733.916C1496.59 717.736 1518.48 706.85 1542.07 702.497L1668.48 679.171C1744.28 665.184 1790.67 587.941 1767.41 514.457L1763.31 501.506C1746.45 448.227 1697.01 412.017 1641.12 412.017H1505.91C1470.06 412.017 1435.84 396.995 1411.57 370.599L1360.31 314.852C1309.12 259.179 1221.1 259.706 1170.59 315.99Z" fill="url(#paint0_linear_114_1535)"/>
<path d="M1170.59 315.99L1098.42 396.394C1069.46 428.65 1058.78 473.355 1070.01 515.219L1112.64 674.104C1122.71 711.619 1149.24 742.545 1184.79 758.193L1288.9 804.017C1335.36 824.467 1389.51 815.571 1426.98 781.331L1478.88 733.916C1496.59 717.736 1518.48 706.85 1542.07 702.497L1668.48 679.171C1744.28 665.184 1790.67 587.941 1767.41 514.457L1763.31 501.506C1746.45 448.227 1697.01 412.017 1641.12 412.017H1505.91C1470.06 412.017 1435.84 396.995 1411.57 370.599L1360.31 314.852C1309.12 259.179 1221.1 259.706 1170.59 315.99Z" stroke="black" stroke-width="0.674554"/>
</g>
<g opacity="0.2" filter="url(#filter1_f_114_1535)">
<path d="M760.793 283.219L517.635 422.865C458.042 457.09 436.047 532.224 467.777 593.182L532.107 716.77C549.498 750.179 580.703 774.247 617.433 782.581L975.798 863.894C1003.69 870.223 1032.89 867.041 1058.77 854.855L1271.46 754.682C1284.84 748.38 1299.21 744.442 1313.93 743.041L1679.16 708.3C1773.57 699.319 1825.87 594.465 1776.24 513.646L1773.46 509.118C1750.15 471.152 1708.8 448.017 1664.24 448.017H1215.89C1193.94 448.017 1172.36 442.38 1153.21 431.646L887.297 282.565C847.952 260.507 799.908 260.755 760.793 283.219Z" fill="url(#paint1_linear_114_1535)"/>
<path d="M760.793 283.219L517.635 422.865C458.042 457.09 436.047 532.224 467.777 593.182L532.107 716.77C549.498 750.179 580.703 774.247 617.433 782.581L975.798 863.894C1003.69 870.223 1032.89 867.041 1058.77 854.855L1271.46 754.682C1284.84 748.38 1299.21 744.442 1313.93 743.041L1679.16 708.3C1773.57 699.319 1825.87 594.465 1776.24 513.646L1773.46 509.118C1750.15 471.152 1708.8 448.017 1664.24 448.017H1215.89C1193.94 448.017 1172.36 442.38 1153.21 431.646L887.297 282.565C847.952 260.507 799.908 260.755 760.793 283.219Z" stroke="black" stroke-width="0.674554"/>
</g>
<defs>
<filter id="filter0_f_114_1535" x="799.516" y="7.32336" width="1240.03" height="1073.67" filterUnits="userSpaceOnUse" color-interpolation-filters="sRGB">
<feFlood flood-opacity="0" result="BackgroundImageFix"/>
<feBlend mode="normal" in="SourceGraphic" in2="BackgroundImageFix" result="shape"/>
<feGaussianBlur stdDeviation="132.887" result="effect1_foregroundBlur_114_1535"/>
</filter>
<filter id="filter1_f_114_1535" x="187.165" y="0.083374" width="1874.28" height="1133.1" filterUnits="userSpaceOnUse" color-interpolation-filters="sRGB">
<feFlood flood-opacity="0" result="BackgroundImageFix"/>
<feBlend mode="normal" in="SourceGraphic" in2="BackgroundImageFix" result="shape"/>
<feGaussianBlur stdDeviation="132.887" result="effect1_foregroundBlur_114_1535"/>
</filter>
<linearGradient id="paint0_linear_114_1535" x1="1116.07" y1="852.609" x2="1683.76" y2="159.15" gradientUnits="userSpaceOnUse">
<stop offset="0.08" stop-color="#9945FF"/>
<stop offset="0.3" stop-color="#8752F3"/>
<stop offset="0.5" stop-color="#5497D5"/>
<stop offset="0.6" stop-color="#43B4CA"/>
<stop offset="0.72" stop-color="#28E0B9"/>
<stop offset="0.97" stop-color="#14F195"/>
</linearGradient>
<linearGradient id="paint1_linear_114_1535" x1="1883.82" y1="560.33" x2="411" y2="560.327" gradientUnits="userSpaceOnUse">
<stop stop-color="#9945FF"/>
<stop offset="0.505714" stop-color="#EB54BC"/>
<stop offset="1" stop-color="#FF754A"/>
</linearGradient>
</defs>
</svg>
