<svg width="64" height="64" viewBox="0 0 64 64" fill="none" xmlns="http://www.w3.org/2000/svg">
<rect width="64" height="64" rx="8" fill="#131313"/>
<path d="M36.6285 26.6709H27.3857C26.993 26.6709 26.6747 26.9892 26.6747 27.3819V36.6246C26.6747 37.0173 26.993 37.3356 27.3857 37.3356H36.6285C37.0211 37.3356 37.3394 37.0173 37.3394 36.6246V27.3819C37.3394 26.9892 37.0211 26.6709 36.6285 26.6709Z" fill="white"/>
<path d="M25.9585 16.0039H16.7157C16.3231 16.0039 16.0048 16.3222 16.0048 16.7149V25.9577C16.0048 26.3503 16.3231 26.6686 16.7157 26.6686H25.9585C26.3512 26.6686 26.6695 26.3503 26.6695 25.9577V16.7149C26.6695 16.3222 26.3512 16.0039 25.9585 16.0039Z" fill="white"/>
<path d="M47.289 16.0044H38.0462C37.6535 16.0044 37.3352 16.3227 37.3352 16.7154V25.9581C37.3352 26.3508 37.6535 26.6691 38.0462 26.6691H47.289C47.6816 26.6691 48 26.3508 48 25.9581V16.7154C48 16.3227 47.6816 16.0044 47.289 16.0044Z" fill="white"/>
<path d="M25.9585 37.3315H16.7157C16.3231 37.3315 16.0048 37.6499 16.0048 38.0425V47.2853C16.0048 47.6779 16.3231 47.9962 16.7157 47.9962H25.9585C26.3512 47.9962 26.6695 47.6779 26.6695 47.2853V38.0425C26.6695 37.6499 26.3512 37.3315 25.9585 37.3315Z" fill="white"/>
<path d="M47.289 37.3315H38.0462C37.6535 37.3315 37.3352 37.6499 37.3352 38.0425V47.2853C37.3352 47.6779 37.6535 47.9962 38.0462 47.9962H47.289C47.6816 47.9962 48 47.6779 48 47.2853V38.0425C48 37.6499 47.6816 37.3315 47.289 37.3315Z" fill="white"/>
</svg>
