<svg width="64" height="64" viewBox="0 0 64 64" fill="none" xmlns="http://www.w3.org/2000/svg">
<rect width="64" height="64" rx="8" fill="#E3AFBE"/>
<path d="M25.4103 15.107L20.0794 18.193C19.9232 18.2849 19.8726 18.4825 19.9599 18.6387L25.7067 28.6204H14.2132C14.0339 28.6204 13.8892 28.7674 13.8892 28.9444V35.1162C13.8892 35.2955 14.0339 35.4402 14.2132 35.4402H25.709L27.6737 32.0303L29.6383 28.6204L31.6006 25.2104L25.8538 15.2265C25.7642 15.0702 25.5666 15.0197 25.4103 15.107Z" fill="#171717"/>
<path d="M37.4919 35.4424H25.7088L19.9619 45.424C19.8723 45.5803 19.9252 45.7778 20.0814 45.8697L25.4122 48.9556C25.5685 49.0476 25.7662 48.9925 25.8558 48.8362L31.6025 38.8546L37.3494 48.8362C37.439 48.9925 37.6389 49.043 37.7928 48.9556L43.1238 45.8697C43.2799 45.7778 43.3306 45.5803 43.2432 45.424L37.4964 35.4424H37.4941H37.4919Z" fill="#171717"/>
<path d="M37.4919 28.62L43.2387 18.6383C43.3282 18.4821 43.2754 18.2845 43.1191 18.1925L37.7905 15.1066C37.6344 15.0147 37.4367 15.0698 37.3471 15.2261L31.6003 25.2077L33.5649 28.6177L35.5296 32.0276L37.4941 35.4375H48.9901C49.1693 35.4375 49.3141 35.2904 49.3141 35.1135V28.9417C49.3141 28.7625 49.1693 28.6177 48.9901 28.6177H37.4941H37.4965L37.4919 28.62Z" fill="#171717"/>
</svg>
