<svg width="64" height="64" viewBox="0 0 64 64" fill="none" xmlns="http://www.w3.org/2000/svg">
<rect width="64" height="64" rx="8" fill="#F5F3FF"/>
<g clip-path="url(#clip0_2875_633)">
<path d="M16.4303 49.2663C21.569 49.2663 25.4308 44.7973 27.7354 41.2659C27.4551 42.0472 27.2994 42.8284 27.2994 43.5785C27.2994 45.6411 28.4829 47.1099 30.8186 47.1099C34.0264 47.1099 37.4522 44.2973 39.2274 41.2659C39.1028 41.7034 39.0406 42.1097 39.0406 42.4847C39.0406 43.9222 39.8503 44.8286 41.5009 44.8286C46.7019 44.8286 51.934 35.6094 51.934 27.5465C51.934 21.2649 48.7573 15.7334 40.7846 15.7334C26.77 15.7334 11.6653 32.8592 11.6653 43.9222C11.6653 48.2662 14.0011 49.2663 16.4303 49.2663ZM35.9573 26.859C35.9573 25.2964 36.8294 24.2026 38.1062 24.2026C39.3519 24.2026 40.224 25.2964 40.224 26.859C40.224 28.4215 39.3519 29.5466 38.1062 29.5466C36.8294 29.5466 35.9573 28.4215 35.9573 26.859ZM42.6221 26.859C42.6221 25.2964 43.4941 24.2026 44.7709 24.2026C46.0167 24.2026 46.8888 25.2964 46.8888 26.859C46.8888 28.4215 46.0167 29.5466 44.7709 29.5466C43.4941 29.5466 42.6221 28.4215 42.6221 26.859Z" fill="#AB9FF2"/>
</g>
<defs>
<clipPath id="clip0_2875_633">
<rect width="40.3347" height="33.5329" fill="white" transform="translate(11.6653 15.7334)"/>
</clipPath>
</defs>
</svg>
