<svg width="64" height="64" viewBox="0 0 64 64" fill="none" xmlns="http://www.w3.org/2000/svg">
<rect width="64" height="64" rx="8" fill="white"/>
<g clip-path="url(#clip0_2875_631)">
<path d="M16.7965 24.8734V22.6871C16.948 22.6163 16.9201 22.4608 16.9441 22.3412C17.4425 19.7701 18.8273 17.7383 20.8032 16.0903C23.5977 13.7585 26.8577 12.5502 30.4597 12.2321C35.245 11.8094 39.4182 13.2062 42.8876 16.5499C46.9671 20.4799 48.1126 26.1904 45.8675 31.2888C44.388 34.6475 41.8557 37.0422 38.7413 38.8596C35.1284 40.9691 31.1994 42.0259 27.0381 42.2502C24.8608 42.3678 22.7473 42.1116 20.7733 41.0898C18.3188 39.8196 17.0687 37.5805 17.2561 34.8299C17.4316 32.2558 18.4933 30.0914 20.213 28.2142C20.3097 28.1085 20.4932 28.0168 20.4453 27.8623C20.3915 27.6928 20.1871 27.7696 20.0495 27.7446C18.4893 27.4585 17.3698 26.6619 16.9211 25.0738C16.8992 24.996 16.8872 24.9103 16.7965 24.8744V24.8734ZM43.3073 25.345C43.3123 24.6162 43.1976 24.033 42.9344 23.4897C42.4579 22.5057 41.7251 21.8178 40.5976 21.7151C39.5448 21.6194 38.7473 22.1248 38.1531 22.9603C37.2309 24.2583 37.2598 26.1994 38.2039 27.4874C39.3843 29.0985 41.4968 29.0646 42.6324 27.4186C43.089 26.7567 43.2844 26.0159 43.3073 25.344V25.345ZM34.9668 25.2034C34.9419 24.3381 34.7206 23.5186 34.1713 22.8117C32.9989 21.3044 30.9621 21.3223 29.8675 22.8865C28.9164 24.2444 28.8506 25.7148 29.6461 27.1534C30.7757 29.1972 33.2671 29.1842 34.4425 27.1654C34.7914 26.5652 34.9379 25.9083 34.9668 25.2024V25.2034Z" fill="#FE8271"/>
<path d="M28.8137 51.1122C28.2644 50.9098 27.6832 50.9706 27.1169 50.9168C24.8439 50.6985 22.5808 50.4313 20.3995 49.7095C19.8651 49.533 19.3447 49.3187 18.8861 48.9837C18.1434 48.4424 18.1354 47.8622 18.8742 47.3089C19.2869 46.9988 19.7615 46.7994 20.247 46.6299C22.212 45.9411 24.2577 45.6539 26.3154 45.4486C29.8456 45.0946 33.3807 45.0697 36.9159 45.3588C39.2248 45.5473 41.5198 45.8324 43.736 46.5532C44.3033 46.7376 44.8566 46.9589 45.3401 47.3198C46.0579 47.8552 46.0599 48.4205 45.3431 48.9638C44.7938 49.3795 44.1537 49.6118 43.5057 49.8102C41.3922 50.4572 39.2109 50.7184 37.0196 50.9238C36.4035 50.9816 35.7744 50.9208 35.1723 51.1132H28.8157L28.8137 51.1122Z" fill="#FE8271"/>
</g>
<defs>
<clipPath id="clip0_2875_631">
<rect width="30.2035" height="38.9537" fill="white" transform="translate(16.7965 12.1582)"/>
</clipPath>
</defs>
</svg>
