<svg width="64" height="64" viewBox="0 0 64 64" fill="none" xmlns="http://www.w3.org/2000/svg">
<rect width="64" height="64" rx="8" fill="#00C109"/>
<path d="M31.5897 41.5798L31.3683 41.6526C29.9431 42.1257 27.8357 42.8565 25.9435 43.7267C25.8434 43.7753 25.7767 43.9087 25.7767 43.9087C25.7403 43.9905 25.6979 44.0906 25.6494 44.2028L25.6433 44.218C25.431 44.7001 25.1399 45.4248 25.0126 45.722L24.9155 45.9555C24.9004 45.9919 24.9095 46.0343 24.9398 46.0616C24.958 46.0798 24.9792 46.0889 25.0035 46.0889C25.0156 46.0889 25.0308 46.0859 25.0459 46.0798L25.2733 45.9707C25.7919 45.725 26.4469 45.3521 27.1322 45.0246L27.1564 45.0124C28.4634 44.3938 29.9371 43.6934 30.8255 43.2689C30.8255 43.2689 30.9681 43.193 31.0408 43.0505L31.7049 41.7163C31.7231 41.6829 31.717 41.6405 31.6928 41.6102C31.6685 41.5798 31.6261 41.5677 31.5897 41.5798Z" fill="white"/>
<path d="M26.2771 39.5121C26.3711 39.3302 26.8017 38.4993 26.8987 38.3143L26.9169 38.281C29.8037 32.841 33.3212 27.7042 37.3693 23.0223L37.4815 22.8919C37.5149 22.8525 37.521 22.7918 37.4967 22.7463C37.4694 22.6978 37.4179 22.6736 37.3663 22.6796L37.1965 22.7039C34.5402 23.0708 31.8505 23.5772 29.2002 24.211C28.9364 24.2837 28.7666 24.4566 28.7302 24.496C26.7501 26.8673 24.8701 29.369 23.1477 31.9282C23.0628 32.0586 23.0325 32.2284 23.0537 32.3679C23.0719 32.5044 23.4873 35.7035 24.118 38.1597C22.5534 42.6627 21.1555 48.597 21.1555 48.597C21.1433 48.6364 21.1524 48.6758 21.1737 48.7092C21.1979 48.7425 21.2343 48.7607 21.2768 48.7607H22.1683C22.2259 48.7607 22.2744 48.7274 22.2956 48.6758L22.3563 48.509C23.266 46.0286 24.303 43.5785 25.4492 41.189C25.7161 40.6371 26.2771 39.5121 26.2771 39.5121Z" fill="white"/>
<path d="M38.6764 23.9959L38.6734 23.8261C38.6703 23.7715 38.637 23.726 38.5885 23.7078C38.5399 23.6896 38.4823 23.7048 38.4459 23.7442L38.3337 23.8716C33.6124 29.3328 29.6431 35.3914 26.538 41.8836L26.4652 42.0352C26.4409 42.0838 26.45 42.1414 26.4864 42.1808C26.5107 42.2051 26.544 42.2202 26.5774 42.2202C26.5926 42.2202 26.6108 42.2172 26.6289 42.2111L26.7836 42.1474C29.4369 41.0497 32.1448 40.0976 34.8344 39.3183C34.9952 39.2728 35.1316 39.1576 35.2074 39.009C36.387 36.7105 39.1252 32.259 39.1252 32.259C39.1949 32.1589 39.1767 32.0104 39.1767 32.0104C39.1767 32.0104 38.7067 26.6886 38.6764 23.9959Z" fill="white"/>
<path d="M44.7804 16.3178C44.1103 15.7356 43.1369 15.4627 41.6268 15.4294C40.2562 15.399 38.6278 15.6962 36.7811 16.3027C36.5052 16.3997 36.2838 16.5543 36.0867 16.7454C34.2097 18.5072 32.3842 20.3781 30.6588 22.3067L30.5254 22.4522C30.489 22.4947 30.483 22.5553 30.5102 22.6008C30.5375 22.6493 30.5952 22.6736 30.6497 22.6615L30.8438 22.619C33.6245 22.0247 36.4324 21.5698 39.1888 21.2696C39.3707 21.2484 39.5587 21.309 39.6921 21.4334C39.8286 21.5577 39.9044 21.7366 39.9014 21.9216C39.8559 24.6567 39.956 27.404 40.1985 30.0876L40.2137 30.2635C40.2198 30.3181 40.2562 30.3606 40.3107 30.3757C40.3198 30.3788 40.3289 30.3788 40.3411 30.3818C40.3805 30.3818 40.4229 30.3636 40.4502 30.3272L40.5503 30.1847C42.1029 27.9711 43.7919 25.8181 45.5688 23.7804C45.7689 23.553 45.8205 23.4105 45.8569 23.2043C46.4179 19.6322 45.5536 16.988 44.7804 16.3178Z" fill="white"/>
</svg>
