<svg width="17" height="16" viewBox="0 0 17 16" fill="none" xmlns="http://www.w3.org/2000/svg">
<path d="M8.33334 8C7.36667 8 6.58667 8.78667 6.58667 9.74667C6.58667 10.5333 7.11334 11.2 7.84 11.4133V12.4933C7.84 12.7667 8.06667 12.9933 8.34 12.9933C8.61334 12.9933 8.84 12.7667 8.84 12.4933V11.4133C9.56 11.1933 10.0933 10.5333 10.0933 9.74667C10.0933 8.78 9.30667 8 8.34667 8H8.33334ZM8.33334 10.5C7.92 10.5 7.58667 10.1667 7.58667 9.75333C7.58667 9.34 7.92 9.00667 8.33334 9.00667C8.74667 9.00667 9.08 9.34 9.08 9.75333C9.08 10.1667 8.74667 10.5 8.33334 10.5Z" fill="#80ECFF" stroke="#80ECFF" stroke-width="0.5"/>
<path d="M12.5734 5.33325H10.8334V4.05325C10.8334 3.33325 10.5801 2.65992 10.1201 2.14659C9.65342 1.62659 9.00008 1.33325 8.33341 1.33325C7.66675 1.33325 7.01341 1.63325 6.54675 2.14659C6.08675 2.65992 5.83341 3.33325 5.83341 4.05325V5.33325H4.09341C3.58675 5.33325 3.16675 5.79992 3.16675 6.37325V13.9599C3.16675 14.5333 3.58008 14.9999 4.09341 14.9999H12.5801C13.0867 14.9999 13.5067 14.5333 13.5067 13.9599V6.37325C13.5067 5.79992 13.0934 5.33325 12.5801 5.33325H12.5734ZM6.83341 4.05325C6.83341 3.59325 7.00008 3.13992 7.29341 2.81992C7.86008 2.19325 8.81341 2.19325 9.38008 2.81992C9.67341 3.13992 9.84008 3.59325 9.84008 4.05325V5.33325H6.84008V4.05325H6.83341ZM12.5001 13.9599C12.5001 13.9599 12.5001 13.9933 12.5001 13.9999H4.17341C4.17341 13.9999 4.17341 13.9733 4.17341 13.9599V6.37325C4.17341 6.37325 4.17341 6.33992 4.17341 6.33325H12.5001C12.5001 6.33325 12.5001 6.35992 12.5001 6.37325V13.9599Z" fill="#80ECFF" stroke="#80ECFF" stroke-width="0.5"/>
</svg>
