<svg width="25" height="24" viewBox="0 0 25 24" fill="none" xmlns="http://www.w3.org/2000/svg">
<path d="M12.25 12C10.8 12 9.63 13.18 9.63 14.62C9.63 15.8 10.42 16.8 11.51 17.12V18.74C11.51 19.15 11.85 19.49 12.26 19.49C12.67 19.49 13.01 19.15 13.01 18.74V17.12C14.09 16.79 14.89 15.8 14.89 14.62C14.89 13.17 13.71 12 12.27 12H12.25ZM12.25 15.75C11.63 15.75 11.13 15.25 11.13 14.63C11.13 14.01 11.63 13.51 12.25 13.51C12.87 13.51 13.37 14.01 13.37 14.63C13.37 15.25 12.87 15.75 12.25 15.75Z" fill="#A2A1B2" stroke="#A2A1B2" stroke-width="0.25"/>
<path d="M18.61 8H16V6.08C16 5 15.62 3.99 14.93 3.22C14.23 2.44 13.25 2 12.25 2C11.25 2 10.27 2.45 9.57 3.22C8.88 3.99 8.5 5 8.5 6.08V8H5.89C5.13 8 4.5 8.7 4.5 9.56V20.94C4.5 21.8 5.12 22.5 5.89 22.5H18.62C19.38 22.5 20.01 21.8 20.01 20.94V9.56C20.01 8.7 19.39 8 18.62 8H18.61ZM10 6.08C10 5.39 10.25 4.71 10.69 4.23C11.54 3.29 12.97 3.29 13.82 4.23C14.26 4.71 14.51 5.39 14.51 6.08V8H10.01V6.08H10ZM18.5 20.94C18.5 20.94 18.5 20.99 18.5 21H6.01C6.01 21 6.01 20.96 6.01 20.94V9.56C6.01 9.56 6.01 9.51 6.01 9.5H18.5C18.5 9.5 18.5 9.54 18.5 9.56V20.94Z" fill="#A2A1B2" stroke="#A2A1B2" stroke-width="0.25"/>
</svg>
