<svg width="25" height="24" viewBox="0 0 25 24" fill="none" xmlns="http://www.w3.org/2000/svg">
<g clip-path="url(#clip0_3509_16447)">
<path d="M18.9675 4.96994L13.7175 10.2199C13.4275 10.5099 13.4275 10.9899 13.7175 11.2799C13.8675 11.4299 14.0575 11.4999 14.2475 11.4999C14.4375 11.4999 14.6275 11.4299 14.7775 11.2799L20.0275 6.02994C20.3175 5.73994 20.3175 5.25994 20.0275 4.96994C19.7375 4.67994 19.2575 4.67994 18.9675 4.96994Z" fill="#A2A1B2" stroke="#A2A1B2" stroke-width="0.25"/>
<path d="M23.6375 3.92C23.3975 3.34 23.0575 2.83 22.6175 2.39C22.1775 1.95 21.6575 1.6 21.0875 1.36C19.9375 0.88 18.6175 0.88 17.4675 1.36C16.8875 1.6 16.3775 1.94 15.9375 2.38L10.9475 7.37C10.6675 7.65 10.5075 8.03 10.5075 8.43V9.99H8.9275C8.6075 9.99 8.2775 10.1 8.0175 10.29C7.9875 10.31 7.9675 10.33 7.9375 10.36L7.1875 11.11C7.0475 11.25 6.9375 11.41 6.8575 11.6C6.7775 11.78 6.7475 11.98 6.7475 12.17C6.7475 12.36 6.7875 12.56 6.8575 12.75C6.9375 12.93 7.0475 13.1 7.1875 13.24L8.9375 14.99L1.7175 22.22C1.4275 22.51 1.4275 22.99 1.7175 23.28C1.8675 23.43 2.0575 23.5 2.2475 23.5C2.4375 23.5 2.6275 23.43 2.7775 23.28L9.9975 16.06L11.7475 17.81C11.8875 17.95 12.0475 18.06 12.2375 18.14C12.4175 18.22 12.6175 18.25 12.8075 18.25C12.9975 18.25 13.1975 18.21 13.3875 18.13C13.5675 18.05 13.7375 17.94 13.8675 17.81L14.6175 17.06C14.6175 17.06 14.6675 17.01 14.6875 16.98C14.8875 16.72 14.9875 16.4 14.9875 16.07V14.49H16.5475C16.9475 14.49 17.3275 14.33 17.6075 14.05L22.5975 9.06C23.0375 8.62 23.3875 8.1 23.6175 7.53C23.8575 6.95 23.9775 6.35 23.9775 5.72C23.9775 5.09 23.8575 4.49 23.6175 3.91L23.6375 3.92ZM22.2475 6.96C22.0875 7.35 21.8475 7.71 21.5475 8.01L16.5575 13H14.9975C14.5975 13 14.2175 13.16 13.9375 13.44C13.6575 13.72 13.4975 14.11 13.4975 14.5V16.07L12.8175 16.75L8.2475 12.18L8.9275 11.5H10.4975C10.8975 11.5 11.2775 11.34 11.5575 11.06C11.8375 10.78 11.9975 10.4 11.9975 10V8.44L16.9875 3.45C17.2875 3.15 17.6375 2.91 18.0375 2.75C18.8275 2.42 19.7175 2.42 20.5075 2.75C20.8975 2.91 21.2575 3.15 21.5575 3.45C21.8575 3.75 22.0975 4.1 22.2575 4.5C22.4175 4.89 22.5075 5.31 22.5075 5.73C22.5075 6.15 22.4275 6.57 22.2575 6.97L22.2475 6.96Z" fill="#A2A1B2" stroke="#A2A1B2" stroke-width="0.25"/>
</g>
<defs>
<clipPath id="clip0_3509_16447">
<rect width="24" height="24" fill="white" transform="translate(0.5)"/>
</clipPath>
</defs>
</svg>
