<svg width="17" height="16" viewBox="0 0 17 16" fill="none" xmlns="http://www.w3.org/2000/svg">
<g clip-path="url(#clip0_3892_13315)">
<path d="M12.8117 3.31321L9.31175 6.81321C9.11841 7.00655 9.11841 7.32654 9.31175 7.51988C9.41175 7.61988 9.53841 7.66655 9.66508 7.66655C9.79175 7.66655 9.91841 7.61988 10.0184 7.51988L13.5184 4.01988C13.7117 3.82654 13.7117 3.50655 13.5184 3.31321C13.3251 3.11988 13.0051 3.11988 12.8117 3.31321Z" fill="#80ECFF" stroke="#80ECFF" stroke-width="0.5"/>
<path d="M15.9251 2.61341C15.7651 2.22675 15.5384 1.88675 15.2451 1.59341C14.9517 1.30008 14.6051 1.06675 14.2251 0.906748C13.4584 0.586748 12.5784 0.586748 11.8117 0.906748C11.4251 1.06675 11.0851 1.29341 10.7917 1.58675L7.46508 4.91342C7.27842 5.10008 7.17175 5.35341 7.17175 5.62008V6.66008H6.11841C5.90508 6.66008 5.68508 6.73341 5.51175 6.86008C5.49175 6.87341 5.47841 6.88675 5.45841 6.90675L4.95841 7.40675C4.86508 7.50008 4.79175 7.60675 4.73841 7.73341C4.68508 7.85341 4.66508 7.98675 4.66508 8.11341C4.66508 8.24008 4.69175 8.37341 4.73841 8.50008C4.79175 8.62008 4.86508 8.73341 4.95841 8.82675L6.12508 9.99341L1.31175 14.8134C1.11841 15.0067 1.11841 15.3267 1.31175 15.5201C1.41175 15.6201 1.53841 15.6667 1.66508 15.6667C1.79175 15.6667 1.91841 15.6201 2.01841 15.5201L6.83175 10.7067L7.99842 11.8734C8.09175 11.9667 8.19842 12.0401 8.32508 12.0934C8.44508 12.1467 8.57842 12.1667 8.70508 12.1667C8.83175 12.1667 8.96508 12.1401 9.09175 12.0867C9.21175 12.0334 9.32508 11.9601 9.41175 11.8734L9.91175 11.3734C9.91175 11.3734 9.94508 11.3401 9.95841 11.3201C10.0917 11.1467 10.1584 10.9334 10.1584 10.7134V9.66008H11.1984C11.4651 9.66008 11.7184 9.55342 11.9051 9.36675L15.2317 6.04008C15.5251 5.74675 15.7584 5.40008 15.9117 5.02008C16.0717 4.63341 16.1517 4.23342 16.1517 3.81342C16.1517 3.39342 16.0717 2.99342 15.9117 2.60675L15.9251 2.61341ZM14.9984 4.64008C14.8917 4.90008 14.7317 5.14008 14.5317 5.34008L11.2051 8.66675H10.1651C9.89842 8.66675 9.64508 8.77342 9.45841 8.96008C9.27175 9.14675 9.16508 9.40675 9.16508 9.66675V10.7134L8.71175 11.1667L5.66508 8.12008L6.11841 7.66675H7.16508C7.43175 7.66675 7.68508 7.56008 7.87175 7.37341C8.05842 7.18675 8.16508 6.93341 8.16508 6.66675V5.62675L11.4917 2.30008C11.6917 2.10008 11.9251 1.94008 12.1917 1.83341C12.7184 1.61341 13.3117 1.61341 13.8384 1.83341C14.0984 1.94008 14.3384 2.10008 14.5384 2.30008C14.7384 2.50008 14.8984 2.73341 15.0051 3.00008C15.1117 3.26008 15.1717 3.54008 15.1717 3.82008C15.1717 4.10008 15.1184 4.38008 15.0051 4.64675L14.9984 4.64008Z" fill="#80ECFF" stroke="#80ECFF" stroke-width="0.5"/>
</g>
<defs>
<clipPath id="clip0_3892_13315">
<rect width="16" height="16" fill="white" transform="translate(0.5)"/>
</clipPath>
</defs>
</svg>
