<svg width="64" height="64" viewBox="0 0 64 64" fill="none" xmlns="http://www.w3.org/2000/svg">
<g clip-path="url(#clip0_2875_629)">
<rect width="64" height="64" rx="8" fill="#14161D"/>
<path d="M32.136 55.3088C32.6708 55.3088 33.1043 55.7376 33.1043 56.2665C33.1043 56.7955 32.6708 57.2243 32.136 57.2243C31.6012 57.2243 31.1677 56.7955 31.1677 56.2665C31.1677 55.7376 31.6012 55.3088 32.136 55.3088ZM31.084 9.55823C31.5572 9.5973 31.9395 9.95589 32.0035 10.4208L33.1552 18.7892C33.5421 21.5541 36.8766 22.7519 38.935 20.8731L50.4746 10.3699C50.753 10.1166 51.1865 10.1341 51.443 10.4091C51.6782 10.6615 51.6853 11.0478 51.4595 11.3083L41.3967 22.916C39.5441 25.0491 40.9109 28.38 43.735 28.6178L52.6138 29.4737C53.056 29.5163 53.3795 29.9051 53.3363 30.342C53.3007 30.7023 53.0232 30.9933 52.6612 31.0498L43.3315 32.5065C40.6227 32.8758 39.396 36.0835 41.158 38.1674L44.4378 42.0341C44.702 42.3456 44.6606 42.8098 44.3453 43.0708C44.0782 43.2921 43.6915 43.3007 43.4145 43.0915L39.3713 40.038C37.1894 38.3972 34.0444 39.7918 33.8138 42.5073L32.9228 53.0982C32.886 53.5357 32.4972 53.8608 32.0545 53.8245C31.6787 53.7936 31.375 53.509 31.324 53.1398L29.9112 42.9094C29.5325 40.1447 26.198 38.9467 24.1314 40.8256L11.8554 52.0036C11.6013 52.2349 11.2055 52.219 10.9713 51.9679C10.7565 51.7375 10.7499 51.3848 10.9561 51.1469L21.6698 38.7827C23.5223 36.6497 22.1638 33.3187 19.3396 33.0809L10.4589 32.2248C10.0167 32.1822 9.6932 31.7934 9.73634 31.3566C9.77192 30.9962 10.0494 30.7052 10.4114 30.6487L19.7349 29.1921C22.4437 28.8229 23.6787 25.6152 21.9168 23.5312L19.6841 20.8991C19.3564 20.5129 19.4077 19.9373 19.7987 19.6136C20.1301 19.3392 20.6098 19.3287 20.9532 19.5883L23.6951 21.6607C25.877 23.3016 29.022 21.9069 29.2526 19.1913L29.9901 10.4723C30.0367 9.92143 30.5265 9.51219 31.084 9.55823ZM7.46565 30.3778C8.00045 30.3778 8.434 30.8067 8.434 31.3356C8.434 31.8645 8.00045 32.2933 7.46565 32.2933C6.93086 32.2933 6.49731 31.8645 6.49731 31.3356C6.49731 30.8067 6.93086 30.3778 7.46565 30.3778ZM56.0317 29.4053C56.5664 29.4053 57 29.8342 57 30.3631C57 30.8921 56.5664 31.3208 56.0317 31.3208C55.4968 31.3208 55.0633 30.8921 55.0633 30.3631C55.0633 29.8342 55.4968 29.4053 56.0317 29.4053ZM30.9442 6.50781C31.479 6.50781 31.9125 6.93661 31.9125 7.46556C31.9125 7.99451 31.479 8.42331 30.9442 8.42331C30.4094 8.42331 29.9758 7.99451 29.9758 7.46556C29.9758 6.93661 30.4094 6.50781 30.9442 6.50781Z" fill="url(#paint0_linear_2875_629)"/>
<path d="M31.5253 39.8958C36.5771 39.8958 40.6724 35.8453 40.6724 30.8488C40.6724 25.8522 36.5771 21.8018 31.5253 21.8018C26.4735 21.8018 22.3782 25.8522 22.3782 30.8488C22.3782 35.8453 26.4735 39.8958 31.5253 39.8958Z" fill="url(#paint1_radial_2875_629)"/>
</g>
<defs>
<linearGradient id="paint0_linear_2875_629" x1="18.036" y1="18.0465" x2="47.0818" y2="45.5007" gradientUnits="userSpaceOnUse">
<stop stop-color="#FFBE0C"/>
<stop offset="1" stop-color="#FB432D"/>
</linearGradient>
<radialGradient id="paint1_radial_2875_629" cx="0" cy="0" r="1" gradientUnits="userSpaceOnUse" gradientTransform="translate(29.1768 27.5956) rotate(59.8586) scale(14.263 14.4208)">
<stop stop-color="#FFBE0C"/>
<stop offset="1" stop-color="#FB432D"/>
</radialGradient>
<clipPath id="clip0_2875_629">
<rect width="64" height="64" rx="8" fill="white"/>
</clipPath>
</defs>
</svg>
