<svg width="64" height="64" viewBox="0 0 64 64" fill="none" xmlns="http://www.w3.org/2000/svg">
<rect width="64" height="64" rx="8" fill="#007CBF"/>
<g clip-path="url(#clip0_2875_626)">
<mask id="mask0_2875_626" style="mask-type:luminance" maskUnits="userSpaceOnUse" x="16" y="16" width="32" height="32">
<path d="M48 16H16V48H48V16Z" fill="white"/>
</mask>
<g mask="url(#mask0_2875_626)">
<mask id="mask1_2875_626" style="mask-type:luminance" maskUnits="userSpaceOnUse" x="16" y="16" width="32" height="32">
<path d="M48 16H16V48H48V16Z" fill="white"/>
</mask>
<g mask="url(#mask1_2875_626)">
<path d="M24.1375 17.7376C21.8207 20.0543 21.8207 23.8105 24.1375 26.1272L28.9995 30.9892L30.6774 29.3113L25.8154 24.4493C24.4254 23.0592 24.4254 20.8055 25.8154 19.4155C27.2055 18.0254 29.4592 18.0254 30.8492 19.4155L40.9168 29.4831C42.3068 30.8731 42.3068 33.1268 40.9168 34.5169C39.5268 35.9069 37.273 35.9069 35.883 34.5169L34.3537 32.9876L32.6758 34.6655L34.2051 36.1948C36.5218 38.5115 40.278 38.5115 42.5947 36.1948C44.9116 33.8781 44.9116 30.1219 42.5947 27.8051L32.5271 17.7376C30.2104 15.4208 26.4542 15.4208 24.1375 17.7376Z" fill="white"/>
<path d="M30.0103 31.9999L24.1375 37.8727C21.8207 40.1894 21.8207 43.9457 24.1375 46.2622C26.4542 48.5791 30.2104 48.5791 32.5271 46.2622L39.2428 39.5467C38.2152 39.6608 37.1688 39.5656 36.1727 39.261L30.8492 44.5843C29.4591 45.9745 27.2055 45.9745 25.8154 44.5843C24.4254 43.1944 24.4254 40.9406 25.8154 39.5506L35.883 29.483C36.3765 28.9895 36.9789 28.6712 37.6128 28.5281L35.7668 26.6821C35.2031 26.9613 34.6745 27.3356 34.2051 27.8051L31.6882 30.322L31.6842 30.318L30.0062 31.9959L30.0103 31.9999Z" fill="white"/>
</g>
</g>
</g>
<defs>
<clipPath id="clip0_2875_626">
<rect width="32" height="32" fill="white" transform="translate(16 16)"/>
</clipPath>
</defs>
</svg>
