<svg width="64" height="64" viewBox="0 0 64 64" fill="none" xmlns="http://www.w3.org/2000/svg">
<rect width="64" height="64" rx="8" fill="#047C44"/>
<path d="M40.442 23.4819C40.442 19.2674 36.7377 15.771 32.2282 15.771C27.7179 15.771 24.0129 19.269 24.0129 23.481V25.9465H20.6322V43.6731L32.2258 49L43.8259 43.6747V26.0247H40.4452L40.4428 23.481L40.442 23.4819ZM28.2004 23.4819C28.2004 21.4949 29.9731 19.9048 32.2282 19.9048C34.4834 19.9048 36.2544 21.4949 36.2544 23.4819V25.9465H28.2013L28.2004 23.4819ZM39.1542 40.8123L32.225 43.9942L25.2982 40.8148V30.1601H39.1534L39.1542 40.8123Z" fill="white"/>
</svg>
