<svg width="64" height="64" viewBox="0 0 64 64" fill="none" xmlns="http://www.w3.org/2000/svg">
<rect width="64" height="64" rx="8" fill="black"/>
<mask id="mask0_2875_637" style="mask-type:luminance" maskUnits="userSpaceOnUse" x="23" y="16" width="18" height="32">
<path d="M23.54 16.4287H41V47.1782H23.54V16.4287Z" fill="white"/>
</mask>
<g mask="url(#mask0_2875_637)">
<path d="M33.1743 30.0629L41.0012 47.1782H23.54L31.367 30.0629C31.4464 29.89 31.5737 29.7434 31.7339 29.6407C31.8941 29.538 32.0804 29.4834 32.2706 29.4834C32.4609 29.4834 32.6472 29.538 32.8074 29.6407C32.9675 29.7434 33.0949 29.89 33.1743 30.0629ZM32.27 27.4103C33.7272 27.4112 35.1251 26.8334 36.1562 25.8038C37.1874 24.7742 37.7673 23.3772 37.7686 21.9201C37.7681 21.1984 37.6255 20.4838 37.3488 19.8172C37.0722 19.1507 36.6669 18.5451 36.1562 18.0352C35.6455 17.5252 35.0393 17.1209 34.3723 16.8453C33.7053 16.5696 32.9905 16.4281 32.2688 16.4287C30.8117 16.4281 29.4139 17.0062 28.383 18.036C27.3521 19.0658 26.7724 20.4629 26.7715 21.9201C26.7727 23.3772 27.3527 24.7742 28.3839 25.8038C29.415 26.8334 30.8129 27.4112 32.27 27.4103Z" fill="white"/>
</g>
</svg>
