<svg width="17" height="17" viewBox="0 0 17 17" fill="none" xmlns="http://www.w3.org/2000/svg">
<path d="M14 14.1667H4C3.60667 14.1667 3.22 14.0067 2.94 13.7267C2.65333 13.4467 2.5 13.0667 2.5 12.6667V4.66675C2.5 4.26675 2.65333 3.88675 2.94 3.60675C3.22 3.32675 3.60667 3.16675 4 3.16675H12.5C12.7733 3.16675 13 3.39341 13 3.66675C13 3.94008 12.7733 4.16675 12.5 4.16675H4C3.86667 4.16675 3.74 4.22008 3.64667 4.31341C3.55333 4.40675 3.5 4.53341 3.5 4.66675C3.5 4.80008 3.55333 4.92675 3.64667 5.02008C3.74 5.11341 3.86667 5.16675 4 5.16675H14C14.2667 5.16675 14.52 5.27341 14.7067 5.46008C14.8933 5.64675 15 5.90008 15 6.16675V13.1667C15 13.4334 14.8933 13.6867 14.7067 13.8734C14.52 14.0601 14.2667 14.1667 14 14.1667ZM3.49333 6.08008V12.6667C3.49333 12.8001 3.54667 12.9267 3.64 13.0201C3.73333 13.1134 3.86 13.1667 3.99333 13.1667H13.9933V6.16675H4C3.82667 6.16675 3.66 6.14008 3.5 6.08008H3.49333Z" fill="#80ECFF" stroke="#80ECFF" stroke-width="0.5"/>
</svg>
