<svg xmlns="http://www.w3.org/2000/svg" width="21" height="20" viewBox="0 0 21 20" fill="none">
  <path d="M17.375 17.0835H4.875C4.38333 17.0835 3.9 16.8835 3.55 16.5335C3.19167 16.1835 3 15.7085 3 15.2085V5.2085C3 4.7085 3.19167 4.2335 3.55 3.8835C3.9 3.5335 4.38333 3.3335 4.875 3.3335H15.5C15.8417 3.3335 16.125 3.61683 16.125 3.9585C16.125 4.30016 15.8417 4.5835 15.5 4.5835H4.875C4.70833 4.5835 4.55 4.65016 4.43333 4.76683C4.31667 4.8835 4.25 5.04183 4.25 5.2085C4.25 5.37516 4.31667 5.5335 4.43333 5.65016C4.55 5.76683 4.70833 5.8335 4.875 5.8335H17.375C17.7083 5.8335 18.025 5.96683 18.2583 6.20016C18.4917 6.4335 18.625 6.75016 18.625 7.0835V15.8335C18.625 16.1668 18.4917 16.4835 18.2583 16.7168C18.025 16.9502 17.7083 17.0835 17.375 17.0835ZM4.24167 6.97516V15.2085C4.24167 15.3752 4.30833 15.5335 4.425 15.6502C4.54167 15.7668 4.7 15.8335 4.86667 15.8335H17.3667V7.0835H4.875C4.65833 7.0835 4.45 7.05016 4.25 6.97516H4.24167Z" fill="#A2A1B2" stroke="#A2A1B2" stroke-width="0.208333"/>
</svg>