<svg width="64" height="64" viewBox="0 0 64 64" fill="none" xmlns="http://www.w3.org/2000/svg">
<rect width="64" height="64" rx="8" fill="#0364FF"/>
<path fill-rule="evenodd" clip-rule="evenodd" d="M30.2619 42.2743C30.1963 42.5191 30.3807 42.7594 30.6341 42.7594H32.8533C33.1066 42.7594 33.2911 42.5191 33.2255 42.2743L32.1159 38.1333C32.0139 37.7525 31.4735 37.7525 31.3715 38.1333L30.2619 42.2743Z" fill="white"/>
<path fill-rule="evenodd" clip-rule="evenodd" d="M28.0522 44.9246C27.8822 45.5588 27.3075 45.9998 26.6509 45.9998H23.6472C22.6933 45.9998 21.999 45.095 22.2459 44.1736L28.408 21.1765C28.5938 20.4829 29.2224 20.0005 29.9406 20.0005H33.5154C34.2336 20.0005 34.8622 20.4829 35.0481 21.1765L41.2101 44.1736C41.457 45.095 40.7627 45.9998 39.8089 45.9998H36.8051C36.1485 45.9998 35.5737 45.5588 35.4038 44.9246L32.4068 33.7393C32.2207 33.0449 31.2353 33.0449 31.0493 33.7393L28.0522 44.9246Z" fill="white"/>
<path fill-rule="evenodd" clip-rule="evenodd" d="M43.1613 40.5912C42.9692 41.3079 41.9521 41.3079 41.76 40.5912L39.5229 32.2422C39.4796 32.0808 39.4796 31.9108 39.5229 31.7494L42.3739 21.1093C42.5492 20.4553 43.1419 20.0005 43.819 20.0005H46.7288C47.7125 20.0005 48.4285 20.9336 48.1739 21.8837L43.1613 40.5912ZM23.9673 32.2283C24.0105 32.0668 24.0105 31.8969 23.9673 31.7354L21.12 21.1093C20.9447 20.4553 20.352 20.0005 19.6749 20.0005H16.765C15.7814 20.0005 15.0654 20.9336 15.32 21.8837L20.3289 40.5772C20.5209 41.294 21.5381 41.294 21.7301 40.5772L23.9673 32.2283Z" fill="white"/>
</svg>
