<svg width="294" height="294" viewBox="0 0 294 294" fill="none"
     xmlns="http://www.w3.org/2000/svg">
    <g clip-path="url(#clip0_710_610)">
        <circle cx="147.068" cy="147.067" r="146.932" fill="url(#paint0_linear_710_610)"/>
        <mask id="mask0_710_610" style="mask-type:alpha" maskUnits="userSpaceOnUse" x="0" y="0" width="294"
              height="294">
            <circle cx="147.068" cy="147.067" r="146.932" fill="#D9D9D9"/>
        </mask>
        <g mask="url(#mask0_710_610)">
            <path d="M174.536 123.755C87.8989 73.3723 4.62611 103.329 -26.1807 124.322V354.106H382.056V116.379C348.982 139.263 261.173 174.137 174.536 123.755Z"
                  fill="url(#paint1_linear_710_610)"/>
            <path d="M150.699 144.125C242.651 90.8077 331.033 122.51 363.729 144.725V387.895H-69.5528V136.319C-34.4489 160.536 58.7469 197.442 150.699 144.125Z"
                  fill="url(#paint2_linear_710_610)"/>
            <path d="M269.421 239.673C164.358 178.856 63.3747 215.018 26.0159 240.358V517.736H521.077V230.77C480.968 258.393 374.484 300.491 269.421 239.673Z"
                  fill="url(#paint3_linear_710_610)"/>
            <path fill-rule="evenodd" clip-rule="evenodd"
                  d="M147.068 275.302C217.891 275.302 275.303 217.89 275.303 147.067C275.303 76.2438 217.891 18.8316 147.068 18.8316C76.2448 18.8316 18.8326 76.2438 18.8326 147.067C18.8326 217.89 76.2448 275.302 147.068 275.302ZM147.068 296C229.32 296 296 229.32 296 147.067C296 64.8144 229.32 -1.86523 147.068 -1.86523C64.8154 -1.86523 -1.86426 64.8144 -1.86426 147.067C-1.86426 229.32 64.8154 296 147.068 296Z"
                  fill="white"/>
        </g>
    </g>
    <defs>
        <linearGradient id="paint0_linear_710_610" x1="109.608" y1="44.0529" x2="147.068" y2="293.999"
                        gradientUnits="userSpaceOnUse">
            <stop stop-color="#DFDCF2"/>
            <stop offset="0.286458" stop-color="white"/>
        </linearGradient>
        <linearGradient id="paint1_linear_710_610" x1="177.938" y1="96.1406" x2="177.938" y2="354.106"
                        gradientUnits="userSpaceOnUse">
            <stop stop-color="#3311FF"/>
            <stop offset="1"/>
        </linearGradient>
        <linearGradient id="paint2_linear_710_610" x1="147.088" y1="114.902" x2="147.088" y2="387.895"
                        gradientUnits="userSpaceOnUse">
            <stop stop-color="#A12CFF"/>
            <stop offset="1"/>
        </linearGradient>
        <linearGradient id="paint3_linear_710_610" x1="273.547" y1="206.34" x2="273.547" y2="517.736"
                        gradientUnits="userSpaceOnUse">
            <stop stop-color="#F606FF"/>
            <stop offset="1"/>
        </linearGradient>
        <clipPath id="clip0_710_610">
            <rect width="294" height="294" fill="white"/>
        </clipPath>
    </defs>
</svg>