<svg width="201" height="73" viewBox="0 0 201 73" fill="none" xmlns="http://www.w3.org/2000/svg">
<g clip-path="url(#clip0_81_795)">
<path d="M25.6371 -3.24249e-05L27.2934 6.32463L32.8996 3.13218L28.3169 10.2353L29.9732 16.5599L25.4882 14.6231L20.9102 21.7216L22.7154 13.4231L18.2304 11.4863L23.832 8.29848L25.6371 -3.24249e-05Z" fill="url(#paint0_linear_81_795)"/>
<path d="M24.0832 19.9145L25.7395 26.2392L31.341 23.0467L26.763 30.1452L28.4193 36.4698L23.9297 34.5331L19.3517 41.6361L21.1568 33.3376L16.6718 31.4009L22.2734 28.2084L24.0832 19.9145Z" fill="url(#paint1_linear_81_795)"/>
<path d="M22.5805 39.7967L24.2367 46.1213L29.8383 42.9289L25.2603 50.032L26.9166 56.3566L22.4316 54.4198L17.8489 61.5183L19.6541 53.2198L15.1691 51.283L20.7707 48.0952L22.5805 39.7967Z" fill="url(#paint2_linear_81_795)"/>
<path d="M10.9679 8.35408L12.6242 14.6787L18.2304 11.4863L13.6477 18.5847L15.304 24.9094L10.819 22.9726L6.24102 30.0711L8.04617 21.7772L3.5612 19.8404L9.16276 16.648L10.9679 8.35408Z" fill="url(#paint3_linear_81_795)"/>
<path d="M9.40934 28.264L11.0703 34.5887L16.6718 31.4009L12.0938 38.4993L13.7501 44.824L9.26046 42.8872L4.68244 49.9856L6.4876 41.6917L2.00262 39.755L7.60419 36.5625L9.40934 28.264Z" fill="url(#paint4_linear_81_795)"/>
<path d="M7.91125 48.1508L9.56752 54.4754L15.1691 51.283L10.5911 58.3814L12.2473 64.7061L7.75772 62.7693L3.1797 69.8677L4.98485 61.5739L0.499878 59.6371L6.10144 56.4446L7.91125 48.1508Z" fill="url(#paint5_linear_81_795)"/>
<path d="M27.2713 58.8265L27.0666 61.588H22.2838L22.0791 64.3496H17.2964L17.0917 67.1111H12.309L12.1043 69.868H7.32153L7.11682 72.6295H13.165L13.3604 69.868H18.1478L18.3432 67.1065H23.1306C23.1771 66.4763 23.2795 64.989 23.326 64.3449H28.1134C28.1599 63.7148 28.2623 62.2274 28.3088 61.588H33.0962C33.1427 60.9579 33.2916 58.8265 33.2916 58.8265H27.248H27.2713Z" fill="url(#paint6_linear_81_795)"/>
<path d="M56.2422 58.8265H48.5377C48.8494 59.4196 49.2728 59.9802 49.8032 60.4992C50.2917 60.981 50.9104 61.3425 51.6548 61.5834H43.9504C44.2621 62.1765 44.6854 62.7371 45.2158 63.2561C45.7043 63.7379 46.3231 64.0994 47.0675 64.3403H39.363C39.6747 64.9334 40.0981 65.494 40.6285 66.013C41.117 66.4949 41.7358 66.8563 42.4802 67.0972H34.7804C35.0921 67.6903 35.5154 68.2509 36.0458 68.7699C36.5343 69.2518 37.1531 69.6132 37.8975 69.8541H30.193C30.5047 70.4472 30.9281 71.0078 31.4585 71.5268C31.947 72.0087 32.5658 72.3701 33.3102 72.611C34.0732 72.8612 34.9665 72.9817 35.9946 72.9817H36.3064C37.3764 72.9817 38.3023 72.8566 39.0932 72.611C39.8515 72.3747 40.4843 72.0226 40.9821 71.5592C41.4566 71.119 41.8428 70.6464 42.1452 70.1553C42.7035 70.095 43.2106 69.9977 43.6712 69.8495C44.4296 69.6132 45.0623 69.2657 45.5601 68.7977C46.0347 68.3575 46.4208 67.8895 46.7232 67.3937C47.1931 67.3428 47.6258 67.264 48.0213 67.1528C48.1003 67.1343 48.1748 67.1157 48.2539 67.0879C49.0122 66.8516 49.645 66.4995 50.1428 66.0361C50.6173 65.596 51.0035 65.1234 51.3059 64.6322C51.7711 64.5812 52.2085 64.5025 52.6039 64.3913C52.683 64.3727 52.7575 64.3542 52.8366 64.3264C53.246 64.1967 53.6182 64.0345 53.9485 63.8399C54.2323 63.6731 54.4928 63.4877 54.7208 63.2746C55.1954 62.8344 55.5815 62.3664 55.8839 61.8707C56.3492 61.8197 56.7865 61.7409 57.182 61.6297C57.261 61.6112 57.3355 61.5927 57.4146 61.5649C57.824 61.4351 58.1962 61.273 58.5265 61.0784C58.8103 60.9115 59.0709 60.7262 59.2988 60.5131C59.7734 60.0729 60.1595 59.6049 60.4619 59.1091C60.5457 58.947 60.5689 58.7987 60.5689 58.7987H56.1956C56.1956 58.7987 56.2049 58.7987 56.2096 58.8033L56.2422 58.8265Z" fill="url(#paint7_linear_81_795)"/>
<path d="M37.7068 58.8265L37.9068 61.588H33.1241L33.3241 64.3496H28.5414L28.7415 67.1111H23.9587L24.1588 69.868H19.3761L19.5761 72.6295H25.6243L25.4196 69.868H30.207L30.0023 67.1065H34.7897C34.7431 66.4763 34.6315 64.989 34.585 64.3449H39.3723C39.3258 63.7148 39.2141 62.2274 39.1676 61.588H43.955C43.9085 60.9579 43.7503 58.8265 43.7503 58.8265H37.7068Z" fill="url(#paint8_linear_81_795)"/>
<path d="M151.478 58.8265L151.19 61.588H146.895L146.607 64.3496H142.313L142.024 67.1065H137.73L137.446 69.868H133.147L132.864 72.6249H138.851L139.14 69.868H143.434L143.494 69.2657L143.718 67.1065H148.017L148.077 66.5041L148.3 64.3496H152.599L152.66 63.7472L152.883 61.588H157.177L157.242 60.9857L157.466 58.8265H151.478Z" fill="url(#paint9_linear_81_795)"/>
<path d="M161.881 58.8265L162.081 60.8976L162.146 61.588H157.294L157.563 64.3449H152.716L152.981 67.1065H148.133L148.398 69.8634H143.55L143.82 72.6249H149.868L149.58 69.8634H154.451L154.163 67.1065L154.167 67.1111H159.038L158.75 64.3496H163.621L163.333 61.5927H168.199L167.915 58.8265H161.881Z" fill="url(#paint10_linear_81_795)"/>
<path d="M74.5356 58.8358H66.8312C67.1429 59.4288 67.5662 59.9895 68.0966 60.5084C68.5851 60.9903 69.2039 61.3517 69.9483 61.5927H62.2438C62.5555 62.1857 62.9789 62.7464 63.5093 63.2653C63.9978 63.7472 64.6166 64.1086 65.361 64.3496H57.6565C57.9682 64.9426 58.3916 65.5033 58.922 66.0222C59.4105 66.5041 60.0293 66.8655 60.7737 67.1065H53.0738C53.3855 67.6995 53.8089 68.2602 54.3393 68.7791C54.8278 69.261 55.4466 69.6224 56.191 69.8634H48.4865C48.7982 70.4565 49.2216 71.0171 49.752 71.536C50.2405 72.0179 50.8593 72.3793 51.6037 72.6203C52.3667 72.8705 53.2599 72.9909 54.2881 72.9909H54.5998C55.6699 72.9909 56.5957 72.8658 57.3867 72.6203C58.145 72.384 58.7777 72.0318 59.2756 71.5685C59.7501 71.1283 60.1363 70.6557 60.4387 70.1645C60.997 70.1043 61.5041 70.007 61.9647 69.8587C62.723 69.6224 63.3558 69.2749 63.8536 68.8069C64.3281 68.3668 64.7143 67.8988 65.0167 67.403C65.4866 67.352 65.9193 67.2733 66.3147 67.1621C66.3938 67.1435 66.4683 67.125 66.5474 67.0972C67.3057 66.8609 67.9384 66.5087 68.4363 66.0454C68.9108 65.6052 69.297 65.1326 69.5994 64.6415C70.0646 64.5905 70.5019 64.5117 70.8974 64.4005C70.9765 64.382 71.0509 64.3635 71.13 64.3357C71.5394 64.2059 71.9116 64.0438 72.242 63.8492C72.5258 63.6823 72.7863 63.497 73.0143 63.2839C73.4888 62.8437 73.875 62.3757 74.1774 61.8799C74.6426 61.829 75.08 61.7502 75.4754 61.639C75.5545 61.6205 75.629 61.6019 75.708 61.5741C76.1175 61.4444 76.4897 61.2822 76.82 61.0876C77.1038 60.9208 77.3643 60.7355 77.5923 60.5223C78.0668 60.0822 78.453 59.6142 78.7554 59.1184C78.8392 58.9562 78.8624 58.808 78.8624 58.808H74.4891C74.4891 58.808 74.4984 58.808 74.5031 58.8126L74.5356 58.8358Z" fill="url(#paint11_linear_81_795)"/>
<path d="M84.6733 58.8265V61.588H80.0907V64.3496H75.508V67.1065H70.9253V69.868H66.3427V72.6295H77.6388V69.868H82.2215V67.1065H86.8042V64.3496H91.3868V61.588H95.9695V58.8265H84.6733Z" fill="url(#paint12_linear_81_795)"/>
<path d="M100.883 58.8265V61.588H96.2999V64.3449H91.7172V67.1065H87.1345V69.868H82.5518V72.6249H93.755V69.868H98.3376V67.1065H102.92V64.3449H107.503V61.588H112.086V58.8265H100.883Z" fill="url(#paint13_linear_81_795)"/>
<path d="M116.371 58.8265V61.588H111.788V64.3496H107.205V67.1065H102.623V69.868H98.0399V72.6295H109.336V69.868H113.919V67.1065H118.501V64.3496H123.084V61.588H127.667V58.8265H116.371Z" fill="url(#paint14_linear_81_795)"/>
<path d="M173.242 58.8265V61.5927H168.664V64.3496H164.082V67.1111H159.499V69.868H154.916V72.6295H160.904V69.868H165.487V67.1111H170.069V64.3496H174.652V61.5927H179.235V58.8265H173.242Z" fill="url(#paint15_linear_81_795)"/>
<path d="M186.018 58.8265V61.5927H181.435V64.3496H176.853V67.1111H172.275V69.868H167.692V72.6295H178.988V69.868H183.571V67.1111H188.153V64.3496H192.736V61.5927H197.319V58.8265H186.018Z" fill="url(#paint16_linear_81_795)"/>
<path d="M142.071 63.7055C142.061 63.2236 142.057 62.5193 142.047 61.588H146.667L146.63 58.8265H140.466V61.588H138.493V58.8265H132.57V61.5927H127.988V64.3542H123.405V67.1111H118.822V69.8726H114.24V72.6342H120.167V69.8726H122.144V72.6342H128.346C128.337 72.2959 128.323 71.3739 128.309 69.8726H132.929C132.919 69.5298 132.905 68.6077 132.891 67.1111H137.511C137.502 66.7729 137.488 65.8508 137.474 64.3542H142.094C142.094 64.2245 142.085 64.0067 142.08 63.7101L142.071 63.7055ZM126.718 69.868H124.74V67.1065H126.718V69.868ZM131.3 67.1111H129.323V64.3542H131.3V67.1111ZM135.883 64.3496H133.91V61.588H135.883V64.3496Z" fill="url(#paint17_linear_81_795)"/>
<path d="M126.01 38.2305H131.379V32.1885H126.01V17.482L131.379 18.0009V11.9867L120.083 10.6013V58.8309H131.379V52.4552H126.01V38.2305Z" fill="white"/>
<path d="M95.1782 52.4506V35.937H100.547V29.8672H95.1782V13.3536L100.547 13.9003V8.01121L89.2509 6.63508V58.8262H100.547V52.4506H95.1782Z" fill="white"/>
<path d="M111.42 52.4506V9.3873L105.153 8.62278V58.8262H116.356V52.4506H111.42Z" fill="white"/>
<path d="M182.416 24.9974L186.18 25.3727V18.6681L172.66 17.0047V24.0151L176.429 24.4136V58.8262H182.416V24.9974Z" fill="white"/>
<path d="M200.501 52.4506H195.127V42.8176H200.501V36.8961H195.127V26.3226L200.501 26.86V20.4798L189.2 19.0898V58.8262H200.501V52.4506Z" fill="white"/>
<path d="M84.4449 27.0083V14.7853C84.4449 12.4361 84.3472 10.1657 83.7843 8.86371C82.463 5.83343 79.8483 5.22182 77.4709 5.22182C73.6559 5.22182 72.1066 6.56552 71.0086 9.34559C70.4596 10.7356 70.4922 14.0161 70.4922 15.8602V48.5816C70.4922 50.4304 70.4596 53.7062 71.0086 55.0963C72.1066 57.8763 73.6605 59.22 77.4709 59.22C79.8483 59.22 82.4676 58.613 83.7843 55.5781C84.3519 54.2761 84.4449 52.0058 84.4449 49.6566V34.5886L78.6108 36.1223V50.0504C78.6108 50.0504 78.6108 52.0058 78.3223 52.4691C78.1734 52.7147 77.75 52.8305 77.4662 52.8305C77.2057 52.8305 76.8382 52.71 76.7032 52.4645C76.359 51.8529 76.452 50.106 76.452 50.106V14.3358C76.452 14.3358 76.3636 12.589 76.7032 11.9774C76.8428 11.7318 77.2104 11.6113 77.4662 11.6113C77.75 11.6113 78.1734 11.7272 78.3223 11.9728C78.6061 12.4407 78.6108 14.3914 78.6108 14.3914V28.542L84.4449 27.0083Z" fill="white"/>
<path d="M65.835 25.7388V12.4825C65.835 10.1333 65.7373 7.86291 65.1743 6.56091C63.853 3.53063 61.2384 2.91902 58.861 2.91902C55.0459 2.91902 53.4967 4.26272 52.3987 7.04279C51.8497 8.43282 51.8823 11.7133 51.8823 13.5574V48.5817C51.8823 50.4304 51.8497 53.7063 52.3987 55.0963C53.4967 57.8764 55.0506 59.2201 58.861 59.2201C61.2384 59.2201 63.8577 58.6131 65.1743 55.5782C65.7419 54.2762 65.835 52.0058 65.835 49.6566V33.5508L60.0008 35.0844V50.0505C60.0008 50.0505 60.0008 52.0058 59.7124 52.4691C59.5635 52.7147 59.1401 52.8305 58.8563 52.8305C58.5958 52.8305 58.2282 52.7101 58.0933 52.4645C57.749 51.8529 57.8421 50.1061 57.8421 50.1061V12.033C57.8421 12.033 57.7537 10.2862 58.0933 9.67459C58.2329 9.42901 58.6004 9.30854 58.8563 9.30854C59.1401 9.30854 59.5635 9.42438 59.7124 9.66995C59.9962 10.1379 60.0008 12.0886 60.0008 12.0886V27.2724L65.835 25.7388Z" fill="white"/>
<path d="M35.9475 -5.09992e-05C34.5425 18.8303 32.956 39.9681 31.537 58.8262H37.5201C37.8364 54.9341 38.2831 49.3925 38.5994 45.5097H41.5305C41.7026 47.9052 42.3167 56.4771 42.4889 58.8262H48.5417C47.1879 40.7789 45.5549 19.0759 44.2056 1.01004L35.9475 -0.00468445V-5.09992e-05ZM38.725 39.1294C38.9716 35.3393 39.8695 15.9807 39.8975 12.4871H40.144C40.2138 17.9129 41.1257 33.5091 41.3816 39.1294H38.725Z" fill="white"/>
<path d="M150.635 52.2745C150.635 52.0568 150.635 51.8344 150.635 51.6027C150.612 48.1183 150.589 45.3753 150.57 43.3598C150.57 42.9335 150.561 42.535 150.561 42.169C150.561 41.7103 150.51 41.2747 150.417 40.8624C150.356 40.5844 150.277 40.3202 150.175 40.0654C150.031 39.7133 149.863 39.4028 149.668 39.1294C149.51 38.907 149.333 38.7078 149.142 38.5317C149.026 38.4298 148.905 38.3418 148.784 38.263C148.453 38.0591 148.1 37.9572 147.723 37.9572V37.707C148.132 37.707 148.514 37.5819 148.881 37.3456C149.049 37.2344 149.216 37.1 149.375 36.9332C149.528 36.7757 149.672 36.6042 149.807 36.4235C149.928 36.266 150.04 36.0992 150.142 35.9277C150.217 35.8026 150.291 35.6775 150.361 35.5432C150.445 35.381 150.519 35.2188 150.594 35.0474C150.901 34.306 151.054 33.6203 151.054 33.004V20.7069C151.054 17.0372 149.533 14.183 143.764 13.474L136.608 12.5937V58.8309H142.531V40.4036H143.396C143.461 40.4036 143.517 40.4083 143.578 40.4175C143.866 40.4593 144.075 40.6075 144.21 40.8577C144.234 40.8994 144.252 40.9411 144.271 40.9921C144.285 41.0292 144.294 41.0616 144.308 41.1033C144.434 41.4415 144.499 41.7196 144.499 41.9234V58.8309H150.701C150.701 58.7011 150.691 58.4834 150.687 58.1915C150.668 57.186 150.649 55.2122 150.631 52.2745H150.635ZM144.843 33.5183C144.843 33.7685 144.764 34.0049 144.61 34.2319C144.457 34.4589 144.145 34.5701 143.671 34.5701H142.526V20.2898H143.638C144.131 20.2898 144.457 20.4149 144.61 20.6605C144.764 20.9107 144.843 21.1563 144.843 21.4019V33.5183Z" fill="white"/>
<path d="M169.324 38.9627L168.357 29.6262L168.068 26.8694L166.989 16.4302L158.88 15.434L154.725 55.4299L154.692 55.7357L154.371 58.8262H160.15L161.076 49.9069H164.691L165.556 58.8262H171.385L169.324 38.958V38.9627ZM161.662 43.9946L162.709 26.2207L162.741 24.7009H162.988L163.016 26.2021L164.1 43.9899H161.657L161.662 43.9946Z" fill="white"/>
</g>
<defs>
<linearGradient id="paint0_linear_81_795" x1="6.27677" y1="2.57877" x2="21.6943" y2="57.5609" gradientUnits="userSpaceOnUse">
<stop stop-color="#04DCF1"/>
<stop offset="1" stop-color="#0260E8"/>
</linearGradient>
<linearGradient id="paint1_linear_81_795" x1="6.27677" y1="2.57877" x2="21.6943" y2="57.5609" gradientUnits="userSpaceOnUse">
<stop stop-color="#04DCF1"/>
<stop offset="1" stop-color="#0260E8"/>
</linearGradient>
<linearGradient id="paint2_linear_81_795" x1="6.27677" y1="2.57877" x2="21.6943" y2="57.5609" gradientUnits="userSpaceOnUse">
<stop stop-color="#04DCF1"/>
<stop offset="1" stop-color="#0260E8"/>
</linearGradient>
<linearGradient id="paint3_linear_81_795" x1="6.27677" y1="2.57877" x2="21.6943" y2="57.5609" gradientUnits="userSpaceOnUse">
<stop stop-color="#04DCF1"/>
<stop offset="1" stop-color="#0260E8"/>
</linearGradient>
<linearGradient id="paint4_linear_81_795" x1="6.27677" y1="2.57877" x2="21.6943" y2="57.5609" gradientUnits="userSpaceOnUse">
<stop stop-color="#04DCF1"/>
<stop offset="1" stop-color="#0260E8"/>
</linearGradient>
<linearGradient id="paint5_linear_81_795" x1="6.27677" y1="2.57877" x2="21.6943" y2="57.5609" gradientUnits="userSpaceOnUse">
<stop stop-color="#04DCF1"/>
<stop offset="1" stop-color="#0260E8"/>
</linearGradient>
<linearGradient id="paint6_linear_81_795" x1="7.11682" y1="65.8948" x2="197.319" y2="65.8948" gradientUnits="userSpaceOnUse">
<stop stop-color="#990134"/>
<stop offset="0.33" stop-color="#FF0156"/>
<stop offset="0.815" stop-color="white"/>
</linearGradient>
<linearGradient id="paint7_linear_81_795" x1="7.11682" y1="65.8948" x2="197.319" y2="65.8948" gradientUnits="userSpaceOnUse">
<stop stop-color="#990134"/>
<stop offset="0.33" stop-color="#FF0156"/>
<stop offset="0.815" stop-color="white"/>
</linearGradient>
<linearGradient id="paint8_linear_81_795" x1="7.11682" y1="65.8948" x2="197.319" y2="65.8948" gradientUnits="userSpaceOnUse">
<stop stop-color="#990134"/>
<stop offset="0.33" stop-color="#FF0156"/>
<stop offset="0.815" stop-color="white"/>
</linearGradient>
<linearGradient id="paint9_linear_81_795" x1="7.11682" y1="65.8948" x2="197.319" y2="65.8948" gradientUnits="userSpaceOnUse">
<stop stop-color="#990134"/>
<stop offset="0.33" stop-color="#FF0156"/>
<stop offset="0.815" stop-color="white"/>
</linearGradient>
<linearGradient id="paint10_linear_81_795" x1="7.11682" y1="65.8948" x2="197.319" y2="65.8948" gradientUnits="userSpaceOnUse">
<stop stop-color="#990134"/>
<stop offset="0.33" stop-color="#FF0156"/>
<stop offset="0.815" stop-color="white"/>
</linearGradient>
<linearGradient id="paint11_linear_81_795" x1="7.11682" y1="65.8948" x2="197.319" y2="65.8948" gradientUnits="userSpaceOnUse">
<stop stop-color="#990134"/>
<stop offset="0.33" stop-color="#FF0156"/>
<stop offset="0.815" stop-color="white"/>
</linearGradient>
<linearGradient id="paint12_linear_81_795" x1="7.11682" y1="65.8948" x2="197.319" y2="65.8948" gradientUnits="userSpaceOnUse">
<stop stop-color="#990134"/>
<stop offset="0.33" stop-color="#FF0156"/>
<stop offset="0.815" stop-color="white"/>
</linearGradient>
<linearGradient id="paint13_linear_81_795" x1="7.11682" y1="65.8948" x2="197.319" y2="65.8948" gradientUnits="userSpaceOnUse">
<stop stop-color="#990134"/>
<stop offset="0.33" stop-color="#FF0156"/>
<stop offset="0.815" stop-color="white"/>
</linearGradient>
<linearGradient id="paint14_linear_81_795" x1="7.11682" y1="65.8948" x2="197.319" y2="65.8948" gradientUnits="userSpaceOnUse">
<stop stop-color="#990134"/>
<stop offset="0.33" stop-color="#FF0156"/>
<stop offset="0.815" stop-color="white"/>
</linearGradient>
<linearGradient id="paint15_linear_81_795" x1="7.11682" y1="65.8948" x2="197.319" y2="65.8948" gradientUnits="userSpaceOnUse">
<stop stop-color="#990134"/>
<stop offset="0.33" stop-color="#FF0156"/>
<stop offset="0.815" stop-color="white"/>
</linearGradient>
<linearGradient id="paint16_linear_81_795" x1="7.11682" y1="65.8948" x2="197.319" y2="65.8948" gradientUnits="userSpaceOnUse">
<stop stop-color="#990134"/>
<stop offset="0.33" stop-color="#FF0156"/>
<stop offset="0.815" stop-color="white"/>
</linearGradient>
<linearGradient id="paint17_linear_81_795" x1="7.11682" y1="65.8948" x2="197.319" y2="65.8948" gradientUnits="userSpaceOnUse">
<stop stop-color="#990134"/>
<stop offset="0.33" stop-color="#FF0156"/>
<stop offset="0.815" stop-color="white"/>
</linearGradient>
<clipPath id="clip0_81_795">
<rect width="200" height="73" fill="white" transform="translate(0.5)"/>
</clipPath>
</defs>
</svg>
