<svg preserveAspectRatio="none" width="100%" height="100%" overflow="visible" style="display: block;" viewBox="0 0 230.648 55.2" fill="none" xmlns="http://www.w3.org/2000/svg">
<g id="Frame" clip-path="url(#clip0_0_49)">
<path id="Vector" d="M210.4 33.7797V21.2088C214.578 21.5957 218.242 23.0138 220.428 24.6256V29.267L210.528 36.2935C210.464 35.4554 210.4 34.6173 210.4 33.7797ZM199.729 36.7447C199.729 48.8643 207.057 55.1815 215.285 55.1815C220.363 55.1815 223.513 52.8607 230.649 45.77V41.2573C228.399 43.5781 226.149 45.4473 223.513 47.3169C217.599 47.0593 213.549 44.6095 211.621 40.2904L230.649 26.6884V18.5013C226.47 15.2781 221.006 13.0862 215.542 13.0862C211.749 15.6649 207.507 19.8551 204.293 23.4651C200.885 27.2684 199.729 30.5563 199.729 36.7447ZM151.773 38.8078L162.38 31.2653V46.93H160.194C154.859 46.93 151.966 44.0292 151.773 38.8078ZM142.388 28.4289H151.516V20.9511C156.98 20.5643 160.388 22.5626 162.38 25.2701V26.4951L142.71 40.548C140.974 49.2507 146.759 55.1815 152.545 55.1815C155.63 55.1815 159.294 53.4412 161.737 49.8312H162.38V54.5369H174.915C173.437 53.1831 172.601 51.8938 172.601 45.125L172.537 21.2732C169.516 15.1492 163.28 13.0862 160.194 13.0862C156.788 13.0862 148.945 18.9525 146.181 20.9511C143.095 23.2071 142.388 25.5281 142.388 28.4289ZM126.639 10.4434H126.896C128.503 10.4434 129.66 11.4748 129.66 15.0204V44.545C129.66 51.3781 128.824 52.9253 127.346 54.5369H142.195C140.717 52.9253 139.881 51.3781 139.881 44.545V0.580238H139.11L126.639 10.4434ZM101.183 27.0751H108.382V44.545C108.382 51.3781 107.547 52.9253 106.068 54.5369H121.56C119.696 52.9253 118.603 51.3781 118.603 44.545V27.0751H125.803V19.3394H118.153L113.075 9.60531H120.789C122.653 9.60531 123.875 9.21847 124.967 8.31596L134.738 0.580199H118.667L108.382 9.86299V20.0486L101.183 27.0751ZM87.0405 10.4434H87.2973C88.9046 10.4434 90.0614 11.4748 90.0614 15.0204V44.545C90.0614 51.3781 89.2262 52.9253 87.7474 54.5369H102.597C101.119 52.9253 100.283 51.3781 100.283 44.545V0.580238H99.5112L87.0405 10.4434ZM64.0267 34.1661V21.2088C71.4196 20.9511 76.9479 24.8833 76.9479 34.1015V47.0593C69.2982 47.3169 64.0267 43.3847 64.0267 34.1661ZM53.2917 36.7447C53.2917 49.96 61.841 55.5684 71.8693 55.1815C75.598 52.5386 79.9049 48.3483 83.1189 44.8028C86.5263 40.9992 87.6831 37.7116 87.6831 31.5232C87.6831 18.308 79.1334 12.6994 69.1051 13.0862C65.4409 15.7937 61.07 19.9194 57.8557 23.4651C54.4486 27.2684 53.2917 30.5563 53.2917 36.7447ZM26.0999 29.7827L29.8924 26.1082L36.9637 28.4289C41.5922 29.9758 43.9062 32.8122 43.9062 36.8092C43.9062 39.839 42.7493 41.8373 40.4351 44.4162L39.7278 45.1897L39.9852 43.3847C41.0138 36.8092 39.0851 33.9727 32.7211 31.9099L26.0999 29.7827ZM16.5859 7.28466L35.8711 13.7311L31.6925 17.7276L21.6643 14.3755C18.1932 13.2154 17.0359 11.3459 16.5859 7.41348L16.5859 7.28466ZM15.429 40.0323L19.8001 35.8423L28.0283 38.5497C32.3354 39.968 33.8139 41.8373 33.3638 46.5436L15.429 40.0323ZM9.90071 21.3376C9.90071 20.1131 10.5434 18.9525 11.6361 17.9856C12.7933 19.6618 14.786 21.1444 17.9359 22.1757L24.7499 24.432L20.9573 28.1065L14.2718 25.9146C11.1861 24.8833 9.90071 23.3362 9.90071 21.3376ZM0.000976562 48.2838L2.82936 51.3138L7.39344 47.1236L30.0855 55.1815C44.2278 45.77 51.813 39.3878 51.813 31.5232C51.813 26.3015 48.7275 23.4007 41.9135 21.1444L36.7711 19.4038L50.8487 5.86648L48.0203 2.83652L43.8419 6.51095L24.1072 0.00012207C18.0001 1.9984 10.286 7.86472 10.286 13.7311C10.286 14.3755 10.3506 15.0204 10.5433 15.7293C5.46501 18.6301 3.40782 21.3376 3.40782 24.69C3.40782 27.8489 5.07926 31.0075 10.4148 32.7477L14.6574 34.1661L0.000976562 48.2838ZM177.872 54.5369H194.007C191.757 53.0543 190.407 51.5714 190.407 44.4804V23.5939L195.679 24.9477C197.8 25.4634 198.764 25.2701 200.5 23.4651L209.757 13.7311H197.415L190.793 20.6287H190.215L189.122 13.0862H188.351L174.208 25.9146H178.708C179.544 25.9146 180.186 26.5596 180.186 27.3975V44.4804C180.186 51.5714 179.351 53.0543 177.872 54.5369Z" fill="var(--fill-0, white)"/>
</g>
<defs>
<clipPath id="clip0_0_49">
<rect width="230.648" height="55.2" fill="white"/>
</clipPath>
</defs>
</svg>
