<svg width="320" height="134" viewBox="0 0 320 134" fill="none" xmlns="http://www.w3.org/2000/svg">
<path d="M252.334 72.8213V60.9792C256.393 61.3436 259.951 62.6796 262.074 64.198V68.5702L252.459 75.1894C252.397 74.3999 252.334 73.6103 252.334 72.8213ZM241.971 75.6144C241.971 87.0315 249.088 92.9824 257.079 92.9824C262.011 92.9824 265.07 90.7962 272 84.1165V79.8655C269.815 82.0517 267.63 83.8126 265.07 85.5738C259.327 85.3311 255.393 83.0233 253.521 78.9546L272 66.1411V58.4287C267.942 55.3923 262.636 53.3275 257.329 53.3275C253.645 55.7567 249.525 59.7039 246.404 63.1047C243.094 66.6875 241.971 69.7848 241.971 75.6144ZM195.398 77.5579L205.699 70.4527V85.2093H203.576C198.395 85.2093 195.585 82.4767 195.398 77.5579ZM186.283 67.7807H195.148V60.7365C200.455 60.372 203.764 62.2545 205.699 64.805V65.959L186.595 79.1973C184.91 87.3955 190.528 92.9824 196.147 92.9824C199.144 92.9824 202.702 91.3431 205.075 87.9423H205.699V92.3753H217.873C216.437 91.0999 215.625 89.8854 215.625 83.5089L215.563 61.0398C212.629 55.2709 206.573 53.3275 203.576 53.3275C200.268 53.3275 192.651 58.8537 189.966 60.7365C186.97 62.8616 186.283 65.0481 186.283 67.7807ZM170.988 50.8379H171.238C172.798 50.8379 173.922 51.8095 173.922 55.1495V82.9625C173.922 89.3995 173.11 90.857 171.674 92.3753H186.096C184.66 90.857 183.848 89.3995 183.848 82.9625V41.5465H183.099L170.988 50.8379ZM146.265 66.5054H153.258V82.9625C153.258 89.3995 152.446 90.857 151.01 92.3753H166.056C164.245 90.857 163.184 89.3995 163.184 82.9625V66.5054H170.176V59.2181H162.747L157.815 50.0484H165.307C167.117 50.0484 168.303 49.6839 169.364 48.8338L178.854 41.5464H163.246L153.258 50.2911V59.8863L146.265 66.5054ZM132.531 50.8379H132.78C134.341 50.8379 135.465 51.8095 135.465 55.1495V82.9625C135.465 89.3995 134.654 90.857 133.217 92.3753H147.639C146.203 90.857 145.391 89.3995 145.391 82.9625V41.5465H144.642L132.531 50.8379ZM110.18 73.1853V60.9792C117.36 60.7365 122.729 64.4407 122.729 73.1245V85.3311C115.3 85.5738 110.18 81.8695 110.18 73.1853ZM99.7548 75.6144C99.7548 88.0637 108.058 93.3469 117.797 92.9824C121.418 90.4928 125.601 86.5454 128.722 83.2054C132.031 79.6223 133.155 76.5253 133.155 70.6957C133.155 58.2466 124.852 52.9631 115.112 53.3275C111.554 55.878 107.309 59.7646 104.187 63.1047C100.878 66.6875 99.7548 69.7848 99.7548 75.6144ZM73.3467 69.0561L77.0299 65.5945L83.8974 67.7807C88.3925 69.2379 90.6398 71.91 90.6398 75.6752C90.6398 78.5294 89.5163 80.4118 87.2687 82.8412L86.5819 83.5699L86.8318 81.8696C87.8307 75.6752 85.9577 73.0032 79.777 71.0599L73.3467 69.0561ZM64.1069 47.8622L82.8363 53.9349L78.7781 57.6998L69.0389 54.5421C65.6679 53.4492 64.544 51.6881 64.107 47.9836L64.1069 47.8622ZM62.9834 78.7115L67.2284 74.7644L75.2195 77.3148C79.4025 78.6509 80.8384 80.4118 80.4012 84.8453L62.9834 78.7115ZM57.6144 61.1006C57.6144 59.947 58.2386 58.8537 59.2998 57.9428C60.4237 59.5219 62.3589 60.9185 65.418 61.8901L72.0356 64.0155L68.3523 67.477L61.8595 65.4122C58.8627 64.4406 57.6144 62.9833 57.6144 61.1006ZM48 86.4846L50.7469 89.339L55.1794 85.3916L77.2174 92.9824C90.9521 84.1165 98.3187 78.1043 98.3187 70.6957C98.3187 65.7767 95.3221 63.044 88.7046 60.9185L83.7104 59.2788L97.3822 46.5263L94.6353 43.672L90.5774 47.1334L71.4114 41C65.4803 42.8824 57.9886 48.4087 57.9886 53.9349C57.9886 54.5421 58.0514 55.1495 58.2385 55.8174C53.3066 58.5499 51.3087 61.1006 51.3087 64.2586C51.3087 67.2344 52.9319 70.2098 58.1137 71.8492L62.234 73.1853L48 86.4846ZM220.745 92.3753H236.414C234.23 90.9786 232.918 89.5817 232.918 82.9017V63.2261L238.038 64.5014C240.098 64.9871 241.035 64.8051 242.72 63.1047L251.71 53.935H239.724L233.293 60.4328H232.731L231.67 53.3275H230.921L217.186 65.4122H221.556C222.368 65.4122 222.992 66.0198 222.992 66.8091V82.9017C222.992 89.5817 222.18 90.9786 220.745 92.3753Z" fill="#B3B2BC"/>
</svg>
