<svg width="890" height="213" viewBox="0 0 890 213" fill="none" xmlns="http://www.w3.org/2000/svg">
<path d="M811.864 130.345V81.838C827.988 83.3307 842.127 88.8029 850.56 95.0224V112.932L812.361 140.045C812.112 136.811 811.864 133.577 811.864 130.345ZM770.688 141.786C770.688 188.552 798.966 212.928 830.716 212.928C850.312 212.928 862.466 203.973 890 176.612V159.199C881.318 168.154 872.636 175.367 862.466 182.581C839.646 181.587 824.018 172.134 816.577 155.468L890 102.982V71.3905C873.877 58.9531 852.793 50.4953 831.709 50.4953C817.073 60.4457 800.702 76.6142 788.3 90.5443C775.152 105.22 770.688 117.907 770.688 141.786ZM585.644 149.747L626.572 120.643V181.088H618.138C597.551 181.088 586.388 169.895 585.644 149.747ZM549.428 109.698H584.651V80.8436C605.735 79.3509 618.883 87.0616 626.572 97.5091V102.236L550.669 156.462C543.971 190.043 566.296 212.928 588.62 212.928C600.526 212.928 614.665 206.213 624.092 192.283H626.572V210.441H674.941C669.236 205.217 666.011 200.242 666.011 174.123L665.763 82.0863C654.106 58.4557 630.044 50.4952 618.138 50.4952C604.992 50.4952 574.73 73.1315 564.063 80.8436C552.157 89.5486 549.428 98.5047 549.428 109.698ZM488.657 40.2976H489.649C495.85 40.2976 500.315 44.2773 500.315 57.9587V171.885C500.315 198.252 497.09 204.222 491.385 210.441H548.685C542.979 204.222 539.755 198.252 539.755 171.885V2.23849H536.778L488.657 40.2976ZM390.429 104.474H418.211V171.885C418.211 198.252 414.986 204.222 409.28 210.441H469.06C461.867 204.222 457.65 198.252 457.65 171.885V104.474H485.432V74.6243H455.914L436.318 37.0635H466.084C473.278 37.0635 477.991 35.5708 482.207 32.0883L519.91 2.23834H457.898L418.211 38.0578V77.361L390.429 104.474ZM335.859 40.2976H336.85C343.052 40.2976 347.516 44.2773 347.516 57.9587V171.885C347.516 198.252 344.293 204.222 338.587 210.441H395.886C390.182 204.222 386.957 198.252 386.957 171.885V2.23849H383.98L335.859 40.2976ZM247.056 131.836V81.8379C275.583 80.8436 296.915 96.0166 296.915 131.587V181.587C267.397 182.581 247.056 167.408 247.056 131.836ZM205.633 141.786C205.633 192.78 238.622 214.421 277.318 212.928C291.706 202.73 308.325 186.561 320.727 172.88C333.875 158.203 338.339 145.517 338.339 121.638C338.339 70.6446 305.348 49.0025 266.652 50.4952C252.513 60.9427 235.647 76.8626 223.244 90.5441C210.097 105.22 205.633 117.907 205.633 141.786ZM100.708 114.922L115.342 100.743L142.628 109.698C160.488 115.667 169.417 126.612 169.417 142.035C169.417 153.726 164.953 161.437 156.023 171.388L153.294 174.373L154.287 167.408C158.256 142.035 150.814 131.09 126.257 123.13L100.708 114.922ZM63.9964 28.1088L138.412 52.9835L122.288 68.4049L83.5922 55.4704C70.1984 50.9937 65.7328 43.78 63.9965 28.6059L63.9964 28.1088ZM59.5322 154.472L76.3988 138.304L108.149 148.751C124.769 154.224 130.474 161.437 128.737 179.597L59.5322 154.472ZM38.2002 82.335C38.2002 77.6097 40.6802 73.1315 44.8965 69.4005C49.362 75.8684 57.0509 81.5893 69.2055 85.5689L95.4987 94.2752L80.8643 108.454L55.0668 99.9962C43.1601 96.0165 38.2002 90.047 38.2002 82.335ZM0.000145844 186.312L10.914 198.004L28.5254 181.835L116.087 212.928C170.658 176.612 199.927 151.985 199.927 121.638C199.927 101.489 188.021 90.2956 161.728 81.5893L141.885 74.8729L196.206 22.6365L185.292 10.9448L169.169 25.1233L93.0186 0C69.4531 7.71074 39.6871 30.3471 39.6871 52.9835C39.6871 55.4704 39.9363 57.9587 40.6799 60.6942C21.0842 71.8873 13.1461 82.335 13.1461 95.2708C13.1461 107.46 19.5957 119.648 40.1841 126.363L56.555 131.836L0.000145844 186.312ZM686.352 210.441H748.611C739.93 204.72 734.72 198.998 734.72 171.636V91.0414L755.061 96.2652C763.247 98.255 766.968 97.5092 773.665 90.5443L809.384 52.9836H761.759L736.209 79.5996H733.977L729.76 50.4953H726.784L672.213 99.9962H689.576C692.801 99.9962 695.281 102.485 695.281 105.718V171.636C695.281 198.998 692.056 204.72 686.352 210.441Z" fill="#02050A"/>
</svg>
