<svg width="581" height="80" viewBox="0 0 581 80" fill="none" xmlns="http://www.w3.org/2000/svg">
<path d="M191.183 18.4182C195.133 18.4183 198.555 19.386 201.447 21.3225C204.364 23.2332 206.623 25.8542 208.224 29.1848C209.825 32.4898 210.625 36.2598 210.625 40.4944C210.625 44.6772 209.838 48.4341 208.263 51.7649C206.688 55.0958 204.467 57.7297 201.601 59.6663C198.735 61.6027 195.379 62.5715 191.532 62.5715C187.452 62.5715 184.031 61.6027 181.268 59.6663C181.098 59.5468 180.929 59.4248 180.764 59.3V80.0002H171.352V19.5793H179.602V22.5696C180.092 22.1251 180.609 21.7089 181.152 21.3225C183.863 19.3861 187.207 18.4182 191.183 18.4182ZM236.088 18.4182C240.426 18.4182 244.105 19.438 247.126 21.4778C250.173 23.4918 252.433 26.345 253.905 30.0374C255.376 33.7296 255.931 38.0801 255.57 43.0891H225.297C225.611 46.0925 226.495 48.5073 227.955 50.3323C229.814 52.6561 232.525 53.8176 236.088 53.8176C238.386 53.8176 240.362 53.3147 242.014 52.3079C243.692 51.2751 244.983 49.7901 245.887 47.8538L255.105 50.6418C253.504 54.4115 251.026 57.3424 247.669 59.4338C244.339 61.5253 240.658 62.5715 236.63 62.5715C232.396 62.5715 228.678 61.6547 225.476 59.8215C222.274 57.9883 219.77 55.4449 217.962 52.1917C216.181 48.9383 215.289 45.1938 215.289 40.9592C215.289 36.389 216.167 32.4253 217.923 29.0686C219.679 25.6861 222.119 23.0654 225.244 21.2063C228.368 19.3472 231.983 18.4182 236.088 18.4182ZM349.146 18.4182C353.484 18.4182 357.164 19.438 360.185 21.4778C363.232 23.4918 365.491 26.3452 366.962 30.0374C368.434 33.7296 368.989 38.0801 368.627 43.0891H338.356C338.669 46.0926 339.553 48.5073 341.013 50.3323C342.872 52.6559 345.583 53.8176 349.146 53.8176C351.444 53.8176 353.419 53.3147 355.072 52.3079C356.75 51.2751 358.041 49.7901 358.945 47.8538L368.164 50.6418C366.563 54.4116 364.084 57.3424 360.727 59.4338C357.396 61.5252 353.717 62.5715 349.689 62.5715C345.454 62.5715 341.735 61.6548 338.534 59.8215C335.332 57.9883 332.827 55.4449 331.02 52.1917C329.238 48.9383 328.348 45.1938 328.348 40.9592C328.348 36.389 329.226 32.4253 330.982 29.0686C332.738 25.6864 335.177 23.0653 338.301 21.2063C341.425 19.3473 345.041 18.4183 349.146 18.4182ZM485.276 18.4182C489.485 18.4182 493.152 19.3605 496.276 21.2454C499.4 23.1302 501.827 25.7379 503.557 29.0686C505.287 32.3736 506.152 36.1824 506.152 40.4944C506.152 44.8322 505.274 48.6665 503.518 51.9973C501.788 55.3024 499.361 57.8976 496.237 59.7825C493.112 61.6415 489.459 62.5715 485.276 62.5715C481.093 62.5715 477.439 61.6283 474.315 59.7434C471.191 57.8586 468.764 55.264 467.034 51.9592C465.329 48.6284 464.478 44.8064 464.478 40.4944C464.478 36.1049 465.356 32.2574 467.112 28.9524C468.868 25.6476 471.307 23.0653 474.431 21.2063C477.555 19.3473 481.17 18.4183 485.276 18.4182ZM387.959 19.5793H400.237V26.8997H387.959V43.7864C387.959 45.4645 387.972 46.9363 387.997 48.2014C388.049 49.4664 388.321 50.4997 388.811 51.3C389.74 52.8492 391.225 53.715 393.265 53.8958C395.305 54.0765 397.629 53.9725 400.237 53.5852V61.4094C397.474 61.9258 394.762 62.1451 392.103 62.0676C389.47 62.0159 387.107 61.5377 385.016 60.634C382.925 59.7045 381.336 58.2462 380.251 56.2581C379.296 54.4506 378.793 52.6039 378.742 50.719C378.69 48.8342 378.664 46.7037 378.664 44.3284V26.8997H371.073V19.5793H378.664V7.96021H387.959V19.5793ZM126.39 5.63696C126.932 5.63696 127.63 5.66247 128.482 5.71411C129.334 5.73994 130.121 5.81745 130.844 5.94653C134.072 6.43712 136.731 7.50886 138.823 9.16138C140.94 10.8139 142.502 12.9054 143.509 15.4358C144.542 17.9404 145.058 20.7294 145.058 23.802C145.058 26.8486 144.542 29.637 143.509 32.1672C142.476 34.6718 140.901 36.751 138.784 38.4036C136.692 40.0559 134.046 41.1269 130.844 41.6174C130.121 41.7207 129.321 41.7982 128.443 41.8499C127.591 41.9015 126.906 41.928 126.39 41.928H112.679V61.4094H103.345V5.63696H126.39ZM311.944 44.9485V5.63696H321.394V61.4094H311.944L286.071 22.0979V61.4094H276.621V5.63696H286.071L311.944 44.9485ZM412.951 19.5793L421.122 46.4202L429.411 19.5793H437.273L445.523 46.4202L453.734 19.5793H462.874L450.093 61.4094H442.812L433.323 32.6321L423.872 61.4094H416.591L403.81 19.5022L412.951 19.5793ZM551.977 39.72L567.276 19.5803H578.934L562.706 40.4944L580.328 61.4094H567.973L551.977 41.2688V61.4094H542.45L542.527 5.63696H551.977V39.72ZM161.377 61.4084H152.043V19.5793H161.377V61.4084ZM532.851 19.425C534.168 19.3218 535.446 19.3728 536.685 19.5793V28.2942C535.446 27.9327 534.013 27.8165 532.386 27.9456C530.785 28.0747 529.339 28.5265 528.048 29.301C526.757 29.9981 525.699 30.8887 524.872 31.9729C524.072 33.0574 523.478 34.2973 523.09 35.6917C522.703 37.0601 522.509 38.5449 522.509 40.1458V61.4084H513.137V19.5793H521.386V26.2649C521.701 25.702 522.049 25.1643 522.432 24.6536C523.31 23.4916 524.356 22.5362 525.57 21.7874C526.603 21.0903 527.739 20.5477 528.978 20.1604C530.243 19.7473 531.534 19.5025 532.851 19.425ZM189.789 26.7834C187.413 26.7834 185.477 27.3648 183.979 28.5266C182.481 29.6627 181.371 31.2637 180.648 33.3293C179.951 35.3691 179.602 37.7575 179.602 40.4944C179.602 43.2055 179.951 45.5938 180.648 47.6594C181.371 49.725 182.494 51.3393 184.017 52.5012C185.566 53.6373 187.594 54.2053 190.098 54.2053C192.525 54.2053 194.526 53.5984 196.101 52.385C197.676 51.1714 198.839 49.5317 199.587 47.4661C200.362 45.3746 200.749 43.0506 200.749 40.4944C200.749 37.9642 200.362 35.6663 199.587 33.6008C198.813 31.5094 197.612 29.8564 195.985 28.6428C194.358 27.4036 192.293 26.7835 189.789 26.7834ZM485.276 27.1711C482.771 27.1712 480.706 27.7393 479.08 28.8752C477.479 29.9855 476.291 31.5478 475.516 33.5618C474.741 35.5499 474.354 37.8607 474.354 40.4944C474.354 44.5482 475.271 47.7889 477.104 50.2161C478.963 52.6172 481.687 53.8176 485.276 53.8176C488.994 53.8176 491.757 52.5786 493.565 50.0999C495.372 47.6211 496.276 44.4191 496.276 40.4944C496.276 36.4406 495.359 33.2131 493.526 30.8118C491.693 28.3846 488.942 27.1711 485.276 27.1711ZM236.476 26.5901C232.655 26.5901 229.814 27.7781 227.955 30.1536C226.76 31.6629 225.952 33.6254 225.525 36.0403H246.093C245.756 33.3173 245.031 31.2123 243.913 29.7268C242.338 27.6354 239.858 26.5901 236.476 26.5901ZM349.534 26.5901C345.712 26.5901 342.872 27.7781 341.013 30.1536C339.819 31.6629 339.011 33.6253 338.583 36.0403H359.151C358.814 33.3173 358.089 31.2123 356.97 29.7268C355.395 27.6355 352.916 26.5901 349.534 26.5901ZM112.679 33.2131H126.002C126.519 33.2131 127.1 33.1876 127.746 33.136C128.391 33.0843 128.986 32.9804 129.528 32.8254C131.077 32.4381 132.291 31.7538 133.168 30.7727C134.072 29.7917 134.704 28.6817 135.066 27.4426C135.453 26.2034 135.647 24.9896 135.647 23.802C135.647 22.6143 135.453 21.3998 135.066 20.1604C134.704 18.8954 134.072 17.7723 133.168 16.7913C132.291 15.8102 131.077 15.1259 129.528 14.7385C128.986 14.5836 128.391 14.4929 127.746 14.467C127.1 14.4154 126.519 14.3899 126.002 14.3899H112.679V33.2131ZM161.377 13.2278H152.043V4.66821H161.377V13.2278Z" fill="white"/>
<path d="M69.33 34.665H59.2822C59.2822 21.0693 48.2607 10.0478 34.665 10.0478V0L69.33 1.51526e-06V34.665Z" fill="#E7FE7F"/>
<path d="M69.33 69.33H59.2822C59.2822 55.7343 48.2607 44.7128 34.665 44.7128V34.665H69.33V69.33Z" fill="#E7FE7F"/>
<path d="M34.665 34.665H24.6172C24.6172 21.0693 13.5957 10.0478 0 10.0478L4.39204e-07 0H34.665V34.665Z" fill="#E7FE7F"/>
<path d="M34.665 69.33H24.6172C24.6172 55.7343 13.5957 44.7128 0 44.7128L4.39204e-07 34.665H34.665V69.33Z" fill="#E7FE7F"/>
</svg>
