<svg preserveAspectRatio="none" width="100%" height="100%" overflow="visible" style="display: block;" viewBox="0 0 197 99" fill="none" xmlns="http://www.w3.org/2000/svg">
<g id="Acc USA">
<g id="Group 1597878732">
<g id="Vector">
<path d="M48.874 60.8033H40.9671C41.2895 61.4176 41.7195 61.997 42.2665 62.5413C42.7691 63.0411 43.4046 63.4135 44.1697 63.6682H36.2627C36.5852 64.2825 37.0152 64.8619 37.5621 65.4062C38.0648 65.906 38.7003 66.2784 39.4653 66.5331H31.5584C31.8808 67.1474 32.3108 67.7268 32.8577 68.2711C33.3604 68.7708 33.9959 69.1433 34.761 69.3979H26.8572C27.1796 70.0123 27.6096 70.5917 28.1566 71.136C28.6592 71.6357 29.2947 72.0082 30.0598 72.2628H22.1528C22.4753 72.8772 22.9053 73.4565 23.4522 74.0009C23.9549 74.5006 24.5904 74.8731 25.3554 75.1277C26.1363 75.3856 27.0532 75.5129 28.1091 75.5129H28.4253C29.5223 75.5129 30.4771 75.3824 31.2833 75.1277C32.061 74.8826 32.7092 74.5197 33.2245 74.0359C33.7114 73.5775 34.1066 73.0905 34.4195 72.5812C34.9918 72.5175 35.5166 72.4156 35.9877 72.266C36.7654 72.0209 37.4135 71.658 37.9288 71.1742C38.4157 70.7158 38.8109 70.2288 39.1239 69.7195C39.6044 69.6685 40.0471 69.5826 40.4581 69.4712C40.5371 69.4489 40.6193 69.4298 40.6952 69.4043C41.4729 69.1592 42.121 68.7963 42.6364 68.3125C43.1232 67.8541 43.5184 67.367 43.8314 66.8577C44.312 66.8036 44.7546 66.7209 45.1656 66.6094C45.2446 66.5872 45.3268 66.5681 45.4027 66.5426C45.8232 66.4089 46.2057 66.2402 46.5472 66.0365C46.838 65.8646 47.1068 65.6704 47.3407 65.4508C47.8276 64.9924 48.2228 64.5053 48.5358 63.996C49.0163 63.9451 49.4589 63.8592 49.8699 63.7478C49.949 63.7255 50.0312 63.7064 50.107 63.6809C50.5275 63.5472 50.9101 63.3785 51.2484 63.1748C51.5392 63.0029 51.8079 62.8087 52.0419 62.5891C52.5288 62.1307 52.924 61.6436 53.237 61.1343C53.3255 60.9656 53.3476 60.816 53.3476 60.816H48.8582C48.8582 60.816 48.8677 60.8192 48.8709 60.8224L48.874 60.8033Z" fill="url(#paint0_linear_9544_171)"/>
<path d="M23.351 2.62373C21.9094 22.1432 20.278 44.1232 18.8237 63.6713V5.48862H18.653C17.4074 22.331 15.3682 49.7862 14.1257 66.5394V8.35033H13.955C13.0413 20.7171 10.3477 56.9834 9.42767 69.3979V11.212H9.25695L4.72648 72.2565V14.0769H4.55576L0 75.1245H6.14601L6.3768 72.2628H10.8504C10.9073 71.5625 11.0242 70.1078 11.0812 69.4011H15.5547C15.6116 68.7008 15.7286 67.2461 15.7855 66.5362H20.2591C20.316 65.8359 20.4329 64.3812 20.4899 63.6745H24.9634C25.0203 62.9742 25.1373 61.5131 25.1942 60.8065H23.5281V2.62373H23.351Z" fill="url(#paint1_linear_9544_171)"/>
<path d="M29.8543 60.8033L30.0598 63.6713H25.1531L25.3586 66.5331H20.4519L20.6574 69.3979H15.7507L15.9562 72.2597H11.0495L11.255 75.1214H17.4643L17.2525 72.2597H22.1655L21.9536 69.3948H26.8667C26.8192 68.7422 26.7054 67.1983 26.6548 66.5331H31.5678C31.5204 65.8805 31.4066 64.3366 31.356 63.6713H36.269C36.2216 63.0188 36.0572 60.8065 36.0572 60.8065H29.8543V60.8033Z" fill="url(#paint2_linear_9544_171)"/>
<path d="M146.625 60.8033L146.331 63.6682H141.924L141.63 66.5331H137.22L136.926 69.3948H132.519L132.225 72.2565H127.814L127.52 75.1214H133.666L133.96 72.2565H138.371L138.434 71.6326L138.665 69.3948H143.072L143.138 68.7709L143.366 66.5331H147.776L147.839 65.906L148.07 63.6682H152.477L152.54 63.0443L152.771 60.8033H146.625Z" fill="url(#paint3_linear_9544_171)"/>
<path d="M157.305 60.8033L157.507 62.9519L157.577 63.6682H152.597L152.872 66.5299H147.896L148.171 69.3916H143.192L143.467 72.2565H138.491L138.766 75.1182H144.975L144.681 72.2565H149.679L149.385 69.3916L149.388 69.3979H154.387L154.093 66.5331H159.088L158.794 63.6713H163.792L163.498 60.8033H157.305Z" fill="url(#paint4_linear_9544_171)"/>
<path d="M67.6567 60.8096H59.7497C60.0722 61.424 60.5021 62.0034 61.0491 62.5477C61.5518 63.0474 62.1872 63.4199 62.9523 63.6745H55.0453C55.3678 64.2889 55.7978 64.8682 56.3447 65.4126C56.8474 65.9123 57.4829 66.2848 58.248 66.5394H50.341C50.6635 67.1538 51.0934 67.7331 51.6404 68.2775C52.1431 68.7772 52.7785 69.1497 53.5436 69.4043H45.6398C45.9623 70.0187 46.3922 70.598 46.9392 71.1423C47.4419 71.6421 48.0773 72.0145 48.8424 72.2692H40.9354C41.2579 72.8836 41.6879 73.4629 42.2348 74.0072C42.7375 74.507 43.373 74.8794 44.1381 75.1341C44.919 75.3919 45.8358 75.5193 46.8918 75.5193H47.2079C48.305 75.5193 49.2598 75.3888 50.0659 75.1341C50.8437 74.889 51.4918 74.5261 52.0071 74.0423C52.494 73.5839 52.8892 73.0968 53.2022 72.5875C53.7744 72.5239 54.2992 72.422 54.7703 72.2724C55.548 72.0273 56.1961 71.6644 56.7115 71.1805C57.1983 70.7222 57.5935 70.2351 57.9065 69.7258C58.3871 69.6749 58.8297 69.5889 59.2407 69.4775C59.3197 69.4552 59.4019 69.4361 59.4778 69.4107C60.2555 69.1656 60.9037 68.8027 61.419 68.3188C61.9059 67.8605 62.3011 67.3734 62.614 66.8641C63.0946 66.81 63.5372 66.7272 63.9482 66.6158C64.0272 66.5935 64.1094 66.5744 64.1853 66.549C64.6058 66.4153 64.9884 66.2466 65.3298 66.0428C65.6207 65.871 65.8894 65.6768 66.1233 65.4571C66.6102 64.9988 67.0054 64.5117 67.3184 64.0024C67.7989 63.9515 68.2416 63.8655 68.6526 63.7541C68.7316 63.7318 68.8138 63.7127 68.8897 63.6873C69.3102 63.5536 69.6927 63.3849 70.031 63.1811C70.3218 63.0092 70.5906 62.8151 70.8245 62.5954C71.3114 62.137 71.7066 61.65 72.0196 61.1407C72.1081 60.972 72.1302 60.8224 72.1302 60.8224H67.6409C67.6409 60.8224 67.6504 60.8256 67.6535 60.8287L67.6567 60.8096Z" fill="url(#paint5_linear_9544_171)"/>
<path d="M78.0581 60.8033V63.6713H73.3569V66.5331H68.6557V69.3948H63.9545V72.2597H59.2502V75.1214H70.8435V72.2597H75.5447V69.3948H80.249V66.5331H84.9502V63.6713H89.6514V60.8033H78.0549H78.0581Z" fill="url(#paint6_linear_9544_171)"/>
<path d="M94.6972 60.8033V63.6713H89.9929V66.5331H85.2917V69.3948H80.5873V72.2597H75.8861V75.1214H87.3878V72.2597H92.089V69.3948H96.7933V66.5331H101.494V63.6713H106.196V60.8033H94.6941H94.6972Z" fill="url(#paint7_linear_9544_171)"/>
<path d="M110.59 60.8033V63.6713H105.889V66.5331H101.188V69.3948H96.4866V72.2597H91.7823V75.1214H103.376V72.2597H108.08V69.3948H112.781V66.5331H117.486V63.6713H122.187V60.8033H110.59Z" fill="url(#paint8_linear_9544_171)"/>
<path d="M168.968 60.8033V63.6713H164.267V66.5331H159.562V69.3979H154.861V72.2597H150.157V75.1245H156.303V72.2597H161.007V69.3979H165.708V66.5331H170.413V63.6713H175.114V60.8033H168.968Z" fill="url(#paint9_linear_9544_171)"/>
<path d="M182.079 60.8033V63.6713H177.374V66.5331H172.673V69.3979H167.972V72.2597H163.268V75.1245H174.864V72.2597H179.568V69.3979H184.27V66.5331H188.974V63.6713H193.675V60.8033H182.079Z" fill="url(#paint10_linear_9544_171)"/>
<path d="M136.973 65.8678C136.964 65.368 136.957 64.6359 136.948 63.6713H141.69L141.649 60.8033H135.323V63.6713H133.296V60.8033H127.217V63.6745H122.515V66.5362H117.811V69.3979H113.11V72.2597H108.409V75.1214H114.492V72.2597H116.518V75.1214H122.885C122.873 74.7712 122.86 73.8131 122.844 72.2597H127.587C127.574 71.9031 127.561 70.9482 127.545 69.3916H132.288C132.275 69.0414 132.262 68.0833 132.247 66.5299H136.989C136.986 66.3962 136.979 66.1702 136.976 65.8614L136.973 65.8678ZM121.213 72.2597H119.186V69.3948H121.213V72.2597ZM125.917 69.3979H123.891V66.5362H125.917V69.3979ZM130.618 66.5331H128.592V63.6713H130.618V66.5331Z" fill="url(#paint11_linear_9544_171)"/>
</g>
<g id="Vector_2">
<path d="M88.8704 54.2158V37.1504H94.3825V30.8766H88.8704V13.8112L94.3825 14.3787V8.29502L82.7859 6.87159V60.8067H94.3825V54.2158H88.8704Z" fill="var(--fill-0, white)"/>
<path d="M105.543 54.2158V9.71212L99.1071 8.92273V60.8067H110.612V54.2158H105.543Z" fill="var(--fill-0, white)"/>
<path d="M120.523 39.5218H126.035V33.2764H120.523V18.0783L126.035 18.6141V12.4005L114.435 10.9675V60.8099H126.035V54.2189H120.523V39.5218Z" fill="var(--fill-0, white)"/>
<path d="M178.433 25.8422L182.298 26.229V19.3052L168.418 17.5838V24.8278L172.286 25.2431V60.8067H178.433V25.8422Z" fill="var(--fill-0, white)"/>
<path d="M197 54.2158H191.485V44.2613H197V38.1427H191.485V27.2118L197 27.7666V21.1725L185.4 19.7395V60.8067H197V54.2158Z" fill="var(--fill-0, white)"/>
<path d="M77.8462 27.9219V15.2885C77.8462 12.8602 77.7481 10.5174 77.1662 9.17001C75.8127 6.03782 73.1278 5.40695 70.6833 5.40695C66.7682 5.40695 65.1775 6.79551 64.0485 9.66773C63.4824 11.107 63.5204 14.4928 63.5204 16.4013V50.2181C63.5204 52.1266 63.4856 55.5156 64.0485 56.9517C65.1775 59.8239 66.7682 61.2125 70.6833 61.2125C73.1246 61.2125 75.8127 60.5816 77.1662 57.4494C77.7481 56.1052 77.8462 53.7593 77.8462 51.3309V35.7587L71.8565 37.3438V51.7367C71.8565 51.7367 71.8534 53.7561 71.5624 54.238C71.4106 54.4916 70.9742 54.6089 70.6833 54.6089C70.4176 54.6089 70.0381 54.4852 69.899 54.2285C69.5479 53.5976 69.6397 51.7906 69.6397 51.7906V14.8257C69.6397 14.8257 69.5479 13.0187 69.899 12.3878C70.0413 12.1342 70.4176 12.0074 70.6833 12.0074C70.9742 12.0074 71.4106 12.1278 71.5624 12.3783C71.8534 12.8602 71.8565 14.8796 71.8565 14.8796V29.507L77.8462 27.9219Z" fill="var(--fill-0, white)"/>
<path d="M58.7419 26.6094V12.9109C58.7419 10.4825 58.6439 8.13968 58.062 6.79234C56.7085 3.66015 54.0236 3.02928 51.5791 3.02928C47.664 3.02928 46.0733 4.41784 44.9443 7.29006C44.3782 8.72935 44.4162 12.1151 44.4162 14.0236V50.2181C44.4162 52.1266 44.3814 55.5156 44.9443 56.9517C46.0733 59.8239 47.664 61.2125 51.5791 61.2125C54.0204 61.2125 56.7085 60.5816 58.062 57.4494C58.6439 56.1052 58.7419 53.7593 58.7419 51.3309V34.6872L52.7523 36.2723V51.7398C52.7523 51.7398 52.7492 53.7593 52.4582 54.2411C52.3064 54.4947 51.87 54.6121 51.5791 54.6121C51.3134 54.6121 50.9339 54.4884 50.7948 54.2316C50.4437 53.6007 50.5355 51.7937 50.5355 51.7937V12.448C50.5355 12.448 50.4437 10.641 50.7948 10.0101C50.9371 9.7565 51.3134 9.62969 51.5791 9.62969C51.87 9.62969 52.3064 9.75016 52.4582 10.0006C52.7492 10.4825 52.7523 12.5019 52.7523 12.5019V28.1945L58.7419 26.6094Z" fill="var(--fill-0, white)"/>
<path d="M28.0569 0.0112192C26.6117 19.4732 24.9831 41.3161 23.5283 60.8067H29.6698C29.9955 56.7837 30.454 51.0582 30.7766 47.0447H33.7872C33.9643 49.5207 34.5968 58.3783 34.7708 60.8067H40.9818C39.5935 42.1531 37.9174 19.7269 36.5322 1.05739L28.0538 0.0112192H28.0569ZM30.9063 40.4475C31.1593 36.5322 32.0795 16.5281 32.1112 12.914H32.3642C32.4369 18.5222 33.373 34.6365 33.6355 40.4475H30.9063Z" fill="var(--fill-0, white)"/>
<path d="M145.804 54.0319C145.804 53.8068 145.804 53.5754 145.8 53.3376C145.775 49.7394 145.75 46.9021 145.731 44.8161C145.728 44.3754 145.724 43.9633 145.718 43.586C145.718 43.1105 145.664 42.6635 145.569 42.2355C145.506 41.9502 145.427 41.6744 145.323 41.4112C145.177 41.0466 145 40.7265 144.801 40.4411C144.64 40.2097 144.459 40.0036 144.263 39.8261C144.143 39.7183 144.02 39.6296 143.893 39.5503C143.552 39.3379 143.191 39.2333 142.806 39.2333V38.9765C143.223 38.9765 143.618 38.8497 143.995 38.6024C144.169 38.4851 144.336 38.3488 144.504 38.1776C144.662 38.0127 144.811 37.8352 144.946 37.6513C145.07 37.4897 145.184 37.3153 145.291 37.1378C145.367 37.011 145.446 36.8778 145.516 36.7383C145.601 36.5735 145.68 36.4023 145.753 36.2247C146.069 35.4575 146.227 34.7506 146.227 34.1134V21.4039C146.227 17.6123 144.665 14.664 138.742 13.9317L131.395 13.025V60.8099H137.477V41.7663H138.362C138.429 41.7663 138.489 41.7726 138.549 41.779C138.843 41.8234 139.058 41.9724 139.2 42.2355C139.223 42.2799 139.245 42.3243 139.264 42.3718C139.279 42.413 139.289 42.4447 139.305 42.4859C139.434 42.8378 139.504 43.1232 139.504 43.3356V60.8099H145.873C145.87 60.6767 145.864 60.4516 145.86 60.1504C145.845 59.1106 145.822 57.0722 145.8 54.0382L145.804 54.0319ZM139.855 34.6523C139.855 34.9091 139.776 35.1532 139.618 35.3878C139.46 35.6224 139.137 35.7397 138.65 35.7397H137.477V20.9823H138.618C139.128 20.9823 139.46 21.1091 139.615 21.3659C139.773 21.6227 139.852 21.8795 139.852 22.1331V34.6491L139.855 34.6523Z" fill="var(--fill-0, white)"/>
<path d="M164.993 40.2731L162.59 16.9878L154.263 15.9575L150.003 57.2877L149.972 57.6047L149.643 60.8003H155.575L156.524 51.5813H160.234L161.119 60.8003H167.102L164.99 40.2668L164.993 40.2731ZM157.128 45.4755L158.203 27.1103L158.235 25.5411H158.488L158.516 27.0913L159.633 45.4755H157.125H157.128Z" fill="var(--fill-0, white)"/>
</g>
</g>
<path id="Vector_3" d="M196.943 89.7712C196.943 89.1552 196.797 88.558 196.343 88.0837C195.931 87.6514 195.324 87.403 194.68 87.403H185.893C185.27 87.403 184.676 87.6442 184.263 88.0623C183.795 88.5375 183.646 89.1555 183.646 89.7406L183.644 98.999H186.231L186.232 95.19H194.339L194.338 99L196.944 98.9959L196.943 89.7712ZM186.233 92.8792L186.232 89.7896H194.339L194.34 92.8782H186.233V92.8792Z" fill="var(--fill-0, white)"/>
<path id="Subtract" d="M150.507 96.6132H158.614L158.615 87.4042H161.201L161.199 96.6626C161.144 97.2512 161.051 97.8655 160.582 98.3407C160.17 98.7588 159.576 99 158.953 99H150.166C149.521 99 148.915 98.7516 148.503 98.3193C148.049 97.845 147.961 97.2502 147.903 96.6318V96.6152L147.904 96.6164L147.902 87.407L150.508 87.403L150.507 96.6132Z" fill="var(--fill-0, white)"/>
<path id="Union" d="M179.544 89.7975L167.778 89.7962L167.772 92.0289L177.146 92.0293C177.759 92.0293 178.385 92.1809 178.875 92.6603C179.305 93.0822 179.554 93.6906 179.554 94.3279V96.6824C179.554 97.3419 179.298 97.9622 178.852 98.384C178.364 98.8482 177.759 98.998 177.114 98.998L165.333 98.9992L165.316 96.6516L177.082 96.6533L177.074 94.3271L167.701 94.3267C167.095 94.2701 166.462 94.2209 165.972 93.7415C165.541 93.3196 165.293 92.7115 165.293 92.0742V89.7198C165.293 89.0603 165.549 88.44 165.994 88.0182C166.483 87.5539 167.096 87.4635 167.733 87.4038H167.75L167.749 87.405L179.514 87.403L179.544 89.7975Z" fill="var(--fill-0, white)"/>
</g>
<defs>
<linearGradient id="paint0_linear_9544_171" x1="18.5306" y1="73.3106" x2="55.326" y2="9.77735" gradientUnits="userSpaceOnUse">
<stop stop-color="#9945FF"/>
<stop offset="1" stop-color="#19FB9B"/>
</linearGradient>
<linearGradient id="paint1_linear_9544_171" x1="18.5306" y1="73.3106" x2="55.326" y2="9.77735" gradientUnits="userSpaceOnUse">
<stop stop-color="#9945FF"/>
<stop offset="1" stop-color="#19FB9B"/>
</linearGradient>
<linearGradient id="paint2_linear_9544_171" x1="18.5306" y1="73.3106" x2="55.326" y2="9.77735" gradientUnits="userSpaceOnUse">
<stop stop-color="#9945FF"/>
<stop offset="1" stop-color="#19FB9B"/>
</linearGradient>
<linearGradient id="paint3_linear_9544_171" x1="18.5306" y1="73.3106" x2="55.326" y2="9.77735" gradientUnits="userSpaceOnUse">
<stop stop-color="#9945FF"/>
<stop offset="1" stop-color="#19FB9B"/>
</linearGradient>
<linearGradient id="paint4_linear_9544_171" x1="18.5306" y1="73.3106" x2="55.326" y2="9.77735" gradientUnits="userSpaceOnUse">
<stop stop-color="#9945FF"/>
<stop offset="1" stop-color="#19FB9B"/>
</linearGradient>
<linearGradient id="paint5_linear_9544_171" x1="18.5306" y1="73.3106" x2="55.326" y2="9.77735" gradientUnits="userSpaceOnUse">
<stop stop-color="#9945FF"/>
<stop offset="1" stop-color="#19FB9B"/>
</linearGradient>
<linearGradient id="paint6_linear_9544_171" x1="18.5306" y1="73.3106" x2="55.326" y2="9.77735" gradientUnits="userSpaceOnUse">
<stop stop-color="#9945FF"/>
<stop offset="1" stop-color="#19FB9B"/>
</linearGradient>
<linearGradient id="paint7_linear_9544_171" x1="18.5306" y1="73.3106" x2="55.326" y2="9.77735" gradientUnits="userSpaceOnUse">
<stop stop-color="#9945FF"/>
<stop offset="1" stop-color="#19FB9B"/>
</linearGradient>
<linearGradient id="paint8_linear_9544_171" x1="18.5306" y1="73.3106" x2="55.326" y2="9.77735" gradientUnits="userSpaceOnUse">
<stop stop-color="#9945FF"/>
<stop offset="1" stop-color="#19FB9B"/>
</linearGradient>
<linearGradient id="paint9_linear_9544_171" x1="18.5306" y1="73.3106" x2="55.326" y2="9.77735" gradientUnits="userSpaceOnUse">
<stop stop-color="#9945FF"/>
<stop offset="1" stop-color="#19FB9B"/>
</linearGradient>
<linearGradient id="paint10_linear_9544_171" x1="18.5306" y1="73.3106" x2="55.326" y2="9.77735" gradientUnits="userSpaceOnUse">
<stop stop-color="#9945FF"/>
<stop offset="1" stop-color="#19FB9B"/>
</linearGradient>
<linearGradient id="paint11_linear_9544_171" x1="18.5306" y1="73.3106" x2="55.326" y2="9.77735" gradientUnits="userSpaceOnUse">
<stop stop-color="#9945FF"/>
<stop offset="1" stop-color="#19FB9B"/>
</linearGradient>
</defs>
</svg>
