<svg preserveAspectRatio="none" width="100%" height="100%" overflow="visible" style="display: block;" viewBox="0 0 197 100.128" fill="none" xmlns="http://www.w3.org/2000/svg">
<g id="Frame 1597880224">
<path id="Vector" d="M196.991 90.78V88.4615H186.054C184.572 88.4615 183.347 89.4883 183.347 90.7717V97.8015C183.347 99.0849 184.563 100.128 186.054 100.12H197V97.8015L186.081 97.7849V90.7882L197 90.7717L196.991 90.78ZM142.07 88.4615H134.049C132.559 88.4615 131.352 89.4965 131.333 90.78V100.128H134.068V96.2945H142.042V100.128H144.776V90.78C144.776 90.1672 144.484 89.5711 143.981 89.1405C143.469 88.7017 142.783 88.4615 142.07 88.4615ZM142.042 93.9678H134.059V90.8048H142.042V93.9678ZM176.486 88.4615H168.466C166.984 88.4615 165.768 89.4965 165.75 90.78V100.128H168.484V96.2945H176.449V100.128H179.184V90.78C179.184 90.1672 178.891 89.5711 178.388 89.1405C177.885 88.7017 177.199 88.4615 176.486 88.4615ZM176.458 93.9678H168.475V90.8048H176.458V93.9678ZM159.282 88.4615H151.646H148.93V100.12H151.674L151.646 95.4582H159.282C160.773 95.4582 161.989 94.4232 161.989 93.1398V90.78C161.989 89.4965 160.773 88.4615 159.282 88.4615ZM159.255 93.1315H151.646V90.8048H159.255V93.1315Z" fill="var(--fill-0, white)"/>
<g id="Group 1597878721">
<g id="Vector_2">
<path d="M48.874 61.1572H40.9671C41.2895 61.7752 41.7195 62.3581 42.2664 62.9056C42.7691 63.4084 43.4046 63.7831 44.1697 64.0393H36.2627C36.5852 64.6573 37.0152 65.2401 37.5621 65.7877C38.0648 66.2905 38.7002 66.6652 39.4653 66.9214H31.5584C31.8808 67.5394 32.3108 68.1222 32.8577 68.6698C33.3604 69.1726 33.9959 69.5473 34.761 69.8035H26.8572C27.1796 70.4215 27.6096 71.0043 28.1566 71.5519C28.6592 72.0547 29.2947 72.4294 30.0598 72.6856H22.1528C22.4753 73.3036 22.9053 73.8864 23.4522 74.434C23.9549 74.9368 24.5904 75.3115 25.3554 75.5677C26.1363 75.827 27.0532 75.9551 28.1091 75.9551H28.4253C29.5223 75.9551 30.4771 75.8238 31.2833 75.5677C32.061 75.3211 32.7092 74.956 33.2245 74.4693C33.7114 74.0081 34.1065 73.5182 34.4195 73.0058C34.9918 72.9417 35.5166 72.8393 35.9877 72.6888C36.7654 72.4422 37.4135 72.0771 37.9288 71.5904C38.4157 71.1292 38.8109 70.6393 39.1239 70.1269C39.6044 70.0757 40.0471 69.9892 40.4581 69.8771C40.5371 69.8547 40.6193 69.8355 40.6952 69.8099C41.4729 69.5633 42.121 69.1982 42.6363 68.7115C43.1232 68.2503 43.5184 67.7604 43.8314 67.248C44.312 67.1936 44.7546 67.1103 45.1656 66.9982C45.2446 66.9758 45.3268 66.9566 45.4027 66.931C45.8232 66.7965 46.2057 66.6268 46.5472 66.4218C46.838 66.2489 47.1067 66.0535 47.3407 65.8326C47.8276 65.3714 48.2228 64.8815 48.5358 64.3691C49.0163 64.3179 49.4589 64.2314 49.8699 64.1193C49.949 64.0969 50.0312 64.0777 50.107 64.0521C50.5275 63.9176 50.9101 63.7479 51.2483 63.5429C51.5392 63.37 51.8079 63.1746 52.0419 62.9537C52.5288 62.4926 52.924 62.0026 53.237 61.4902C53.3255 61.3205 53.3476 61.17 53.3476 61.17H48.8582C48.8582 61.17 48.8677 61.1732 48.8709 61.1764L48.874 61.1572Z" fill="url(#paint0_linear_7467_5543)"/>
<path d="M23.351 2.62821C21.9094 22.2649 20.278 44.377 18.8237 64.0425V5.5103H18.653C17.4074 22.4538 15.3682 50.0739 14.1257 66.9278V8.38919H13.955C13.0413 20.8302 10.3477 57.3144 9.42767 69.8035V11.2681H9.25695L4.72648 72.6792V14.1502H4.55576L0 75.5645H6.14601L6.3768 72.6856H10.8504C10.9073 71.981 11.0242 70.5176 11.0812 69.8067H15.5547C15.6116 69.1021 15.7286 67.6387 15.7855 66.9246H20.2591C20.316 66.2201 20.4329 64.7566 20.4899 64.0457H24.9634C25.0203 63.3412 25.1373 61.8713 25.1942 61.1604H23.5281V2.62821H23.351Z" fill="url(#paint1_linear_7467_5543)"/>
<path d="M29.8543 61.1572L30.0598 64.0425H25.1531L25.3586 66.9214H20.4519L20.6574 69.8035H15.7507L15.9562 72.6824H11.0495L11.255 75.5613H17.4643L17.2525 72.6824H22.1655L21.9536 69.8003H26.8667C26.8192 69.1438 26.7054 67.5907 26.6548 66.9214H31.5678C31.5204 66.2649 31.4066 64.7118 31.356 64.0425H36.269C36.2216 63.386 36.0572 61.1604 36.0572 61.1604H29.8543V61.1572Z" fill="url(#paint2_linear_7467_5543)"/>
<path d="M146.625 61.1572L146.331 64.0393H141.924L141.63 66.9214H137.22L136.926 69.8003H132.519L132.225 72.6792H127.814L127.52 75.5613H133.666L133.96 72.6792H138.371L138.434 72.0515L138.665 69.8003H143.072L143.138 69.1726L143.366 66.9214H147.776L147.839 66.2905L148.07 64.0393H152.477L152.54 63.4116L152.771 61.1572H146.625Z" fill="url(#paint3_linear_7467_5543)"/>
<path d="M157.305 61.1572L157.507 63.3187L157.577 64.0393H152.597L152.872 66.9182H147.896L148.171 69.7971H143.192L143.467 72.6792H138.491L138.766 75.5581H144.975L144.681 72.6792H149.679L149.385 69.7971L149.388 69.8035H154.387L154.093 66.9214H159.088L158.794 64.0425H163.792L163.498 61.1572H157.305Z" fill="url(#paint4_linear_7467_5543)"/>
<path d="M67.6567 61.1636H59.7497C60.0722 61.7816 60.5021 62.3645 61.0491 62.9121C61.5518 63.4148 62.1872 63.7895 62.9523 64.0457H55.0453C55.3678 64.6637 55.7978 65.2466 56.3447 65.7942C56.8474 66.2969 57.4829 66.6716 58.248 66.9278H50.341C50.6635 67.5458 51.0934 68.1287 51.6404 68.6762C52.1431 69.179 52.7785 69.5537 53.5436 69.8099H45.6398C45.9623 70.4279 46.3922 71.0107 46.9392 71.5583C47.4419 72.0611 48.0773 72.4358 48.8424 72.692H40.9354C41.2579 73.31 41.6879 73.8928 42.2348 74.4404C42.7375 74.9432 43.373 75.3179 44.1381 75.5741C44.919 75.8335 45.8358 75.9615 46.8918 75.9615H47.2079C48.305 75.9615 49.2597 75.8303 50.0659 75.5741C50.8437 75.3275 51.4918 74.9624 52.0071 74.4757C52.494 74.0145 52.8892 73.5246 53.2022 73.0122C53.7744 72.9482 54.2992 72.8457 54.7703 72.6952C55.548 72.4486 56.1961 72.0835 56.7115 71.5968C57.1983 71.1356 57.5935 70.6457 57.9065 70.1333C58.3871 70.0821 58.8297 69.9956 59.2407 69.8835C59.3197 69.8611 59.4019 69.8419 59.4778 69.8163C60.2555 69.5697 60.9037 69.2046 61.419 68.7179C61.9059 68.2567 62.3011 67.7668 62.614 67.2544C63.0946 67.2 63.5372 67.1167 63.9482 67.0046C64.0272 66.9822 64.1094 66.963 64.1853 66.9374C64.6058 66.8029 64.9883 66.6332 65.3298 66.4282C65.6207 66.2553 65.8894 66.0599 66.1233 65.839C66.6102 65.3779 67.0054 64.8879 67.3184 64.3755C67.7989 64.3243 68.2416 64.2378 68.6526 64.1257C68.7316 64.1033 68.8138 64.0841 68.8897 64.0585C69.3101 63.924 69.6927 63.7543 70.031 63.5493C70.3218 63.3764 70.5906 63.181 70.8245 62.9601C71.3114 62.499 71.7066 62.009 72.0196 61.4966C72.1081 61.3269 72.1302 61.1764 72.1302 61.1764H67.6409C67.6409 61.1764 67.6504 61.1796 67.6535 61.1828L67.6567 61.1636Z" fill="url(#paint5_linear_7467_5543)"/>
<path d="M78.0581 61.1572V64.0425H73.3569V66.9214H68.6557V69.8003H63.9545V72.6824H59.2502V75.5613H70.8435V72.6824H75.5447V69.8003H80.249V66.9214H84.9502V64.0425H89.6514V61.1572H78.0549H78.0581Z" fill="url(#paint6_linear_7467_5543)"/>
<path d="M94.6972 61.1572V64.0425H89.9929V66.9214H85.2917V69.8003H80.5873V72.6824H75.8861V75.5613H87.3878V72.6824H92.089V69.8003H96.7933V66.9214H101.494V64.0425H106.196V61.1572H94.694H94.6972Z" fill="url(#paint7_linear_7467_5543)"/>
<path d="M110.59 61.1572V64.0425H105.889V66.9214H101.188V69.8003H96.4866V72.6824H91.7823V75.5613H103.376V72.6824H108.08V69.8003H112.781V66.9214H117.485V64.0425H122.187V61.1572H110.59Z" fill="url(#paint8_linear_7467_5543)"/>
<path d="M168.968 61.1572V64.0425H164.267V66.9214H159.562V69.8035H154.861V72.6824H150.157V75.5645H156.303V72.6824H161.007V69.8035H165.708V66.9214H170.413V64.0425H175.114V61.1572H168.968Z" fill="url(#paint9_linear_7467_5543)"/>
<path d="M182.079 61.1572V64.0425H177.374V66.9214H172.673V69.8035H167.972V72.6824H163.268V75.5645H174.864V72.6824H179.568V69.8035H184.27V66.9214H188.974V64.0425H193.675V61.1572H182.079Z" fill="url(#paint10_linear_7467_5543)"/>
<path d="M136.973 66.2521C136.964 65.7493 136.957 65.0128 136.948 64.0425H141.69L141.649 61.1572H135.323V64.0425H133.296V61.1572H127.217V64.0457H122.515V66.9246H117.811V69.8035H113.11V72.6824H108.409V75.5613H114.492V72.6824H116.518V75.5613H122.885C122.873 75.209 122.86 74.2451 122.844 72.6824H127.587C127.574 72.3237 127.561 71.363 127.545 69.7971H132.288C132.275 69.4448 132.262 68.4809 132.247 66.9182H136.989C136.986 66.7837 136.979 66.5563 136.976 66.2457L136.973 66.2521ZM121.213 72.6824H119.186V69.8003H121.213V72.6824ZM125.917 69.8035H123.891V66.9246H125.917V69.8035ZM130.618 66.9214H128.592V64.0425H130.618V66.9214Z" fill="url(#paint11_linear_7467_5543)"/>
</g>
<g id="Vector_3">
<path d="M88.8704 54.5301V37.3623H94.3825V31.0507H88.8704V13.8829L94.3825 14.4538V8.33356L82.7859 6.90158V61.1606H94.3825V54.5301H88.8704Z" fill="var(--fill-0, white)"/>
<path d="M105.543 54.5301V9.75916L99.1071 8.96503V61.1606H110.612V54.5301H105.543Z" fill="var(--fill-0, white)"/>
<path d="M120.523 39.7479H126.035V33.465H120.523V18.1756L126.035 18.7146V12.4637L114.435 11.0221V61.1638H126.035V54.5333H120.523V39.7479Z" fill="var(--fill-0, white)"/>
<path d="M178.433 25.9862L182.298 26.3753V19.4099L168.418 17.6781V24.9656L172.286 25.3834V61.1606H178.433V25.9862Z" fill="var(--fill-0, white)"/>
<path d="M197 54.5301H191.485V44.5158H197V38.3605H191.485V27.3639L197 27.922V21.2884L185.4 19.8468V61.1606H197V54.5301Z" fill="var(--fill-0, white)"/>
<path d="M77.8462 28.0783V15.3691C77.8462 12.9261 77.7481 10.5692 77.1662 9.2138C75.8127 6.0628 73.1278 5.42814 70.6833 5.42814C66.7682 5.42814 65.1775 6.82503 64.0485 9.71451C63.4824 11.1624 63.5204 14.5686 63.5204 16.4885V50.5084C63.5204 52.4284 63.4856 55.8377 64.0485 57.2825C65.1775 60.1719 66.7682 61.5688 70.6833 61.5688C73.1246 61.5688 75.8127 60.9342 77.1662 57.7832C77.7481 56.4309 77.8462 54.0709 77.8462 51.6279V35.9622L71.8565 37.5568V52.0361C71.8565 52.0361 71.8534 54.0677 71.5624 54.5524C71.4106 54.8076 70.9742 54.9256 70.6833 54.9256C70.4176 54.9256 70.0381 54.8012 69.899 54.5429C69.5479 53.9082 69.6397 52.0903 69.6397 52.0903V14.9035C69.6397 14.9035 69.5479 13.0856 69.899 12.4509C70.0413 12.1958 70.4176 12.0682 70.6833 12.0682C70.9742 12.0682 71.4106 12.1894 71.5624 12.4413C71.8534 12.9261 71.8565 14.9577 71.8565 14.9577V29.673L77.8462 28.0783Z" fill="var(--fill-0, white)"/>
<path d="M58.7419 26.758V12.9771C58.7419 10.5342 58.6439 8.17728 58.062 6.82184C56.7085 3.67085 54.0236 3.03618 51.5791 3.03618C47.664 3.03618 46.0733 4.43308 44.9443 7.32256C44.3782 8.77049 44.4162 12.1766 44.4162 14.0966V50.5084C44.4162 52.4284 44.3814 55.8377 44.9443 57.2824C46.0733 60.1719 47.664 61.5688 51.5791 61.5688C54.0204 61.5688 56.7085 60.9342 58.062 57.7832C58.6439 56.4309 58.7419 54.0709 58.7419 51.6279V34.8842L52.7523 36.4789V52.0393C52.7523 52.0393 52.7492 54.0709 52.4582 54.5556C52.3064 54.8108 51.87 54.9288 51.5791 54.9288C51.3134 54.9288 50.9339 54.8044 50.7948 54.5461C50.4437 53.9114 50.5355 52.0935 50.5355 52.0935V12.5115C50.5355 12.5115 50.4437 10.6936 50.7948 10.059C50.9371 9.80381 51.3134 9.67624 51.5791 9.67624C51.87 9.67624 52.3064 9.79743 52.4582 10.0494C52.7492 10.5342 52.7523 12.5657 52.7523 12.5657V28.3526L58.7419 26.758Z" fill="var(--fill-0, white)"/>
<path d="M28.0569 0C26.6117 19.5789 24.9831 41.553 23.5283 61.1606H29.6698C29.9955 57.1134 30.454 51.3536 30.7766 47.316H33.7872C33.9643 49.8068 34.5968 58.7176 34.7708 61.1606H40.9818C39.5935 42.395 37.9174 19.8341 36.5322 1.05246L28.0538 0H28.0569ZM30.9063 40.6791C31.1593 36.7404 32.0795 16.6161 32.1112 12.9803H32.3642C32.4369 18.6221 33.373 34.8332 33.6355 40.6791H30.9063Z" fill="var(--fill-0, white)"/>
<path d="M145.804 54.3451C145.804 54.1187 145.804 53.8859 145.8 53.6467C145.775 50.0269 145.75 47.1725 145.731 45.0739C145.728 44.6306 145.724 44.216 145.718 43.8365C145.718 43.3581 145.664 42.9084 145.569 42.4779C145.506 42.1908 145.427 41.9134 145.323 41.6487C145.177 41.2819 145 40.9598 144.801 40.6727C144.64 40.4399 144.459 40.2326 144.263 40.054C144.143 39.9456 144.02 39.8563 143.893 39.7766C143.552 39.5629 143.191 39.4576 142.806 39.4576V39.1993C143.223 39.1993 143.618 39.0717 143.995 38.823C144.169 38.705 144.336 38.5678 144.504 38.3956C144.662 38.2298 144.811 38.0512 144.946 37.8662C145.07 37.7035 145.184 37.5281 145.291 37.3495C145.367 37.222 145.446 37.088 145.516 36.9477C145.601 36.7818 145.68 36.6096 145.753 36.431C146.069 35.6592 146.227 34.948 146.227 34.307V21.5212C146.227 17.7068 144.665 14.7408 138.742 14.0041L131.395 13.0919V61.1638H137.477V42.0059H138.362C138.429 42.0059 138.489 42.0122 138.549 42.0186C138.843 42.0633 139.058 42.2132 139.2 42.4779C139.223 42.5225 139.245 42.5672 139.264 42.615C139.279 42.6565 139.289 42.6884 139.305 42.7298C139.434 43.0838 139.504 43.3709 139.504 43.5845V61.1638H145.873C145.87 61.0298 145.864 60.8034 145.86 60.5004C145.845 59.4543 145.822 57.4036 145.8 54.3515L145.804 54.3451ZM139.855 34.8491C139.855 35.1075 139.776 35.353 139.618 35.589C139.46 35.8251 139.137 35.9431 138.65 35.9431H137.477V21.097H138.618C139.128 21.097 139.46 21.2246 139.615 21.4829C139.773 21.7412 139.852 21.9996 139.852 22.2547V34.846L139.855 34.8491Z" fill="var(--fill-0, white)"/>
<path d="M164.993 40.5037L162.59 17.0785L154.263 16.042L150.003 57.6205L149.972 57.9394L149.643 61.1542H155.575L156.524 51.8798H160.234L161.119 61.1542H167.102L164.99 40.4973L164.993 40.5037ZM157.128 45.7373L158.203 27.2619L158.235 25.6832H158.488L158.516 27.2427L159.633 45.7373H157.125H157.128Z" fill="var(--fill-0, white)"/>
</g>
</g>
</g>
<defs>
<linearGradient id="paint0_linear_7467_5543" x1="18.5306" y1="73.7396" x2="55.657" y2="10.0176" gradientUnits="userSpaceOnUse">
<stop stop-color="#9945FF"/>
<stop offset="1" stop-color="#19FB9B"/>
</linearGradient>
<linearGradient id="paint1_linear_7467_5543" x1="18.5306" y1="73.7396" x2="55.657" y2="10.0176" gradientUnits="userSpaceOnUse">
<stop stop-color="#9945FF"/>
<stop offset="1" stop-color="#19FB9B"/>
</linearGradient>
<linearGradient id="paint2_linear_7467_5543" x1="18.5306" y1="73.7396" x2="55.657" y2="10.0176" gradientUnits="userSpaceOnUse">
<stop stop-color="#9945FF"/>
<stop offset="1" stop-color="#19FB9B"/>
</linearGradient>
<linearGradient id="paint3_linear_7467_5543" x1="18.5306" y1="73.7396" x2="55.657" y2="10.0176" gradientUnits="userSpaceOnUse">
<stop stop-color="#9945FF"/>
<stop offset="1" stop-color="#19FB9B"/>
</linearGradient>
<linearGradient id="paint4_linear_7467_5543" x1="18.5306" y1="73.7396" x2="55.657" y2="10.0176" gradientUnits="userSpaceOnUse">
<stop stop-color="#9945FF"/>
<stop offset="1" stop-color="#19FB9B"/>
</linearGradient>
<linearGradient id="paint5_linear_7467_5543" x1="18.5306" y1="73.7396" x2="55.657" y2="10.0176" gradientUnits="userSpaceOnUse">
<stop stop-color="#9945FF"/>
<stop offset="1" stop-color="#19FB9B"/>
</linearGradient>
<linearGradient id="paint6_linear_7467_5543" x1="18.5306" y1="73.7396" x2="55.657" y2="10.0176" gradientUnits="userSpaceOnUse">
<stop stop-color="#9945FF"/>
<stop offset="1" stop-color="#19FB9B"/>
</linearGradient>
<linearGradient id="paint7_linear_7467_5543" x1="18.5306" y1="73.7396" x2="55.657" y2="10.0176" gradientUnits="userSpaceOnUse">
<stop stop-color="#9945FF"/>
<stop offset="1" stop-color="#19FB9B"/>
</linearGradient>
<linearGradient id="paint8_linear_7467_5543" x1="18.5306" y1="73.7396" x2="55.657" y2="10.0176" gradientUnits="userSpaceOnUse">
<stop stop-color="#9945FF"/>
<stop offset="1" stop-color="#19FB9B"/>
</linearGradient>
<linearGradient id="paint9_linear_7467_5543" x1="18.5306" y1="73.7396" x2="55.657" y2="10.0176" gradientUnits="userSpaceOnUse">
<stop stop-color="#9945FF"/>
<stop offset="1" stop-color="#19FB9B"/>
</linearGradient>
<linearGradient id="paint10_linear_7467_5543" x1="18.5306" y1="73.7396" x2="55.657" y2="10.0176" gradientUnits="userSpaceOnUse">
<stop stop-color="#9945FF"/>
<stop offset="1" stop-color="#19FB9B"/>
</linearGradient>
<linearGradient id="paint11_linear_7467_5543" x1="18.5306" y1="73.7396" x2="55.657" y2="10.0176" gradientUnits="userSpaceOnUse">
<stop stop-color="#9945FF"/>
<stop offset="1" stop-color="#19FB9B"/>
</linearGradient>
</defs>
</svg>
