<svg width="36" height="36" viewBox="0 0 36 36" fill="none" xmlns="http://www.w3.org/2000/svg">
<circle cx="18" cy="18" r="18" transform="rotate(90 18 18)" fill="#9945FF"/>
<path d="M17.4447 26.7899L10.2256 20.0682C10.0752 19.9282 10 19.7558 10 19.5512C10 19.3465 10.0752 19.1741 10.2256 19.0341C10.376 18.8941 10.5611 18.8241 10.7809 18.8241C11.0007 18.8241 11.1858 18.8941 11.3362 19.0341L17.2191 24.5117L17.2017 9.72711C17.2133 9.63016 17.2364 9.5386 17.2712 9.45242C17.3059 9.36625 17.3637 9.28546 17.4447 9.21006C17.5951 9.07002 17.7802 9 18 9C18.2198 9 18.4049 9.07002 18.5553 9.21006C18.6363 9.28546 18.6941 9.36625 18.7289 9.45242C18.7636 9.5386 18.7867 9.63016 18.7983 9.72711L18.7809 24.5117L24.6638 19.0341C24.8142 18.8941 24.9993 18.8241 25.2191 18.8241C25.4389 18.8241 25.624 18.8941 25.7744 19.0341C25.9248 19.1741 26 19.3465 26 19.5512C26 19.7558 25.9248 19.9282 25.7744 20.0682L18.5553 26.7899C18.4049 26.93 18.2198 27 18 27C17.7802 27 17.5951 26.93 17.4447 26.7899Z" fill="black"/>
</svg>
