<svg preserveAspectRatio="none" width="100%" height="100%" overflow="visible" style="display: block;" viewBox="0 0 1187 932" fill="none" xmlns="http://www.w3.org/2000/svg">
<g id="HK Skyline" clip-path="url(#clip0_7467_176)">
<path id="Vector" d="M849.186 386.806L843.834 385.228L843.753 185.583L837.034 183.028V66.5645L831.584 63.5699L831.194 41.8592C828.363 41.1594 823.792 41.55 823.695 39.9713L823.304 33.5264L822.767 25.0472C822.67 23.615 819.042 22.9965 817.757 22.2153L812.877 10.7578C811.12 6.64023 808.907 3.67819 804.206 0.96028L801.912 16.0471C800.204 12.19 800.302 9.14657 800.123 3.61309L797.634 3.23877L797.715 14.3057C797.308 14.4847 795.503 15.2497 795.373 15.2985C794.51 9.24422 794.136 6.18453 792.851 2.1158L790.004 17.2027L786.686 0.89518L784.734 12.0923C784.571 13.0688 784.311 14.5824 784.294 14.6312C784.294 14.68 782.977 14.1755 782.668 14.0779L781.301 2.3762L777.543 15.9983L774.404 2.1158L772.077 14.3545L770.239 0.0163342C765.554 4.05252 763.244 7.5679 760.576 12.5318L755.517 21.9061C754.378 22.785 750.311 25.2587 750.295 26.8537L750.051 40.3782L741.022 41.9731L740.665 63.7164C737.736 65.702 735.394 68.5501 735.394 72.5211L735.426 183.207C733.1 183.793 728.806 186.283 728.806 187.975V385.309L720.054 387.262V931.984L850.243 931.902V391.965C850.129 389.736 850.162 387.083 849.219 386.806H849.186Z" fill="url(#paint0_linear_7467_176)"/>
<path id="Vector_2" d="M601.87 492.105L589.799 469.955L475.356 469.825L465.661 491.796L456.648 493.586L456.713 931.935L615.453 932L615.29 492.968L601.87 492.105Z" fill="url(#paint1_linear_7467_176)"/>
<path id="Vector_3" d="M1180.43 805.479L1180.35 609.366C1177.19 607.234 1176.07 606.681 1173.22 605.167L1173.35 491.568L1168.32 485.156L1167.9 463.641C1150.82 466.033 1167.58 450.539 1154.61 444.973L1149.57 433.841C1147.5 429.284 1144.48 425.346 1140.51 423.36L1138.41 437.926L1135.64 423.49L1132.42 439.554L1129.61 423.214L1126.48 438.252L1123.46 422.4L1120.3 438.74L1117.31 423.49L1114.38 436.413C1116.07 439.733 1113.97 437.796 1112.53 435.973C1112.56 431.042 1112.53 427.478 1110.88 423.295L1108.64 438.203L1107.14 422.888C1102.47 425.834 1100.13 428.975 1097.9 433.467L1092.26 444.892C1091.07 445.787 1087.23 448.423 1087.15 450.035L1086.56 462.957L1077.36 465.935L1077.39 486.491L1071.95 490.917L1072.08 605.428L1065.06 608.39V807.693L1056.7 808.962L1056.66 929.755L1186.76 929.917L1186.89 811.387C1188.06 809.922 1180.44 808.913 1180.44 805.495L1180.43 805.479Z" fill="url(#paint2_linear_7467_176)"/>
<path id="Vector_4" d="M918.536 724.999L918.259 678.388L857.808 678.778L858.004 931.805L966.59 931.561L966.281 725.064L918.536 724.999Z" fill="url(#paint3_linear_7467_176)"/>
<path id="Vector_5" d="M984.906 618.919C982.027 618.919 980.075 622.776 980.628 625.722C981.279 630.784 980.4 634.348 976.171 637.831L976.057 896.179L975.91 928.501L1046.15 927.98L1046.25 800.303L1054.99 798.269L1054.84 618.903H984.923L984.906 618.919Z" fill="url(#paint4_linear_7467_176)"/>
<path id="Vector_6" d="M199.083 805.267C215.172 803.494 228.82 803.673 241.899 814.105L233.034 825.172C249.675 829.517 260.412 845.857 259.241 861.481C251.237 861.058 245.495 861.172 239.833 862.36L263.844 881.825L244.274 883.192L244.34 931.968L279.299 931.431L279.331 589.918H199.083V805.251V805.267Z" fill="url(#paint5_linear_7467_176)"/>
<path id="Vector_7" d="M632.274 672.415V932L706.975 931.854L706.893 672.204L632.274 672.415Z" fill="url(#paint6_linear_7467_176)"/>
<path id="Vector_8" d="M706.926 662.471L706.942 472.64L632.241 472.673L632.323 662.552L706.926 662.471Z" fill="url(#paint7_linear_7467_176)"/>
<path id="Vector_9" d="M706.877 462.436V339.023L591.637 339.088L591.523 449.562L610.345 450.376L618.267 460.401C624.855 460.58 629.589 460.792 634.648 462.647L706.877 462.436Z" fill="url(#paint8_linear_7467_176)"/>
<path id="Vector_10" d="M179.351 810.931L179.432 643.364H88.8375L88.9677 802.728C120.917 789.627 149.646 794.314 179.367 810.931H179.351Z" fill="url(#paint9_linear_7467_176)"/>
<path id="Vector_11" d="M118.022 819.459C98.3869 821.379 80.1509 826.945 65.3311 840.844L65.3962 931.854L183.174 931.658L183.125 836.938C163.62 822.437 141.301 818.01 118.006 819.459H118.022ZM110.018 927.231L110.051 826.734L139.072 826.913L139.202 926.971C129.36 929.136 119.746 928.826 110.018 927.215V927.231Z" fill="url(#paint10_linear_7467_176)"/>
<path id="Vector_12" d="M381.15 343.336L289.873 416.443L381.118 477.767L381.15 343.336Z" fill="url(#paint11_linear_7467_176)"/>
<path id="Vector_13" d="M381.183 740.558L289.19 800.971L381.329 863.108L381.183 740.558Z" fill="url(#paint12_linear_7467_176)"/>
<path id="Vector_14" d="M381.264 605.964L381.459 483.821L289.076 544.396L381.264 605.964Z" fill="url(#paint13_linear_7467_176)"/>
<path id="Vector_15" d="M289.32 672.626L381.264 734.422L381.329 612.197L289.32 672.626Z" fill="url(#paint14_linear_7467_176)"/>
<path id="Vector_16" d="M377.751 480.859L286.685 419.633L286.929 540.441L377.751 480.859Z" fill="url(#paint15_linear_7467_176)"/>
<path id="Vector_17" d="M286.717 676.549L286.619 797.146L377.604 737.531L286.717 676.549Z" fill="url(#paint16_linear_7467_176)"/>
<path id="Vector_18" d="M287.254 925.132L377.702 865.94L286.912 805.007L287.254 925.132Z" fill="url(#paint17_linear_7467_176)"/>
<path id="Vector_19" d="M287.026 668.688L377.555 609.252L286.717 548.091L287.026 668.688Z" fill="url(#paint18_linear_7467_176)"/>
<path id="Vector_20" d="M0.000246669 875.608L10.802 877.089L10.9972 931.838L61.0039 931.577L61.3129 866.38L35.4799 850.024L0.000246669 875.608Z" fill="url(#paint19_linear_7467_176)"/>
<path id="Vector_21" d="M213.626 850.024L188.02 866.185L187.988 931.821L237.913 931.626L238.255 877.235L249.057 875.673L213.626 850.024Z" fill="url(#paint20_linear_7467_176)"/>
<path id="Vector_22" d="M387.95 344.475L387.836 477.376L441.422 416.182L387.95 344.475Z" fill="url(#paint21_linear_7467_176)"/>
<path id="Vector_23" d="M443.162 676.874L389.772 737.775L443.195 796.283L443.162 676.874Z" fill="url(#paint22_linear_7467_176)"/>
<path id="Vector_24" d="M389.935 609.17L425.577 649.37L443.488 668.818L443.276 548.595L389.935 609.17Z" fill="url(#paint23_linear_7467_176)"/>
<path id="Vector_25" d="M394.246 486.197L443.163 539.221L443.423 419.812L394.084 475.684C390.928 478.76 390.83 483.431 394.246 486.197Z" fill="url(#paint24_linear_7467_176)"/>
<path id="Vector_26" d="M389.887 866.2L443.342 924.627L443.326 805.202L389.887 866.2Z" fill="url(#paint25_linear_7467_176)"/>
<path id="Vector_27" d="M387.836 734.308L441.829 672.203L388.145 613.239L387.836 734.308Z" fill="url(#paint26_linear_7467_176)"/>
<path id="Vector_28" d="M387.836 484.44L387.755 605.916L441.812 544.169L387.836 484.44Z" fill="url(#paint27_linear_7467_176)"/>
<path id="Vector_29" d="M387.934 861.985L441.714 800.743L387.934 741.453V861.985Z" fill="url(#paint28_linear_7467_176)"/>
<path id="Vector_30" d="M286.636 931.398L381.428 931.772L381.281 868.902L286.636 931.398Z" fill="url(#paint29_linear_7467_176)"/>
<path id="Vector_31" d="M147.612 815.716C189.908 824.667 197.912 850.023 203.215 852.269C204.549 852.839 207.656 849.047 206.859 847.305C201.474 835.539 187.923 823.023 175.706 815.618C139.251 793.533 94.905 796.495 62.7439 824.504C55.7488 830.591 48.0868 840.486 44.9634 848.542C44.4753 849.796 48.3958 853.555 49.1442 852.513C56.123 842.7 59.4416 833.651 75.4977 825.969C97.4427 815.472 122.658 810.443 147.58 815.716H147.612Z" fill="url(#paint30_linear_7467_176)"/>
<path id="Vector_32" d="M387.69 931.984L443.227 930.975L387.934 869.325L387.69 931.984Z" fill="url(#paint31_linear_7467_176)"/>
<path id="Vector_33" d="M196.431 822.991C202.06 829.924 205.801 834.806 210.063 841.853C211.397 844.05 213.984 844.392 216.733 845.889L233.18 854.873C238.353 857.705 245.722 855.654 251.042 855.524C249.789 830.298 215.757 821.217 196.431 822.991Z" fill="url(#paint32_linear_7467_176)"/>
<path id="Vector_34" d="M35.0408 845.759C36.3747 844.962 40.2952 844.229 41.3038 842.651C44.4272 837.768 50.1209 829.598 55.0825 822.714C35.0571 822.6 12.2824 829.989 2.13139 846.947L18.5942 855.54L35.0408 845.759Z" fill="url(#paint33_linear_7467_176)"/>
<path id="Vector_35" d="M166.369 639.084C168.093 637.635 167.703 630.084 165.702 630.068L103.283 630.019C101.412 630.751 101.006 637.359 102.454 639.035L166.353 639.084H166.369Z" fill="url(#paint34_linear_7467_176)"/>
<path id="Vector_36" d="M27.4438 822.568C39.5632 819.508 49.3889 818.971 62.8747 817.294C49.5678 808.099 32.1452 808.538 17.911 815.309C20.6765 818.466 24.7922 821.835 27.4276 822.568H27.4438Z" fill="url(#paint35_linear_7467_176)"/>
<path id="Vector_37" d="M188.412 817.164C199.311 818.206 208.616 818.141 218.361 819.98C224.737 821.184 230.09 821.64 232.367 814.446C217.742 808.652 201.426 808.099 188.412 817.164Z" fill="url(#paint36_linear_7467_176)"/>
</g>
<defs>
<linearGradient id="paint0_linear_7467_176" x1="690.521" y1="381.551" x2="849.808" y2="390.23" gradientUnits="userSpaceOnUse">
<stop stop-color="#0B0515"/>
<stop offset="1" stop-color="#1C0A2B"/>
</linearGradient>
<linearGradient id="paint1_linear_7467_176" x1="420.625" y1="659.033" x2="612.06" y2="684.689" gradientUnits="userSpaceOnUse">
<stop stop-color="#0B0515"/>
<stop offset="1" stop-color="#1C0A2B"/>
</linearGradient>
<linearGradient id="paint2_linear_7467_176" x1="1027.1" y1="630.17" x2="1185.46" y2="646.034" gradientUnits="userSpaceOnUse">
<stop stop-color="#0B0515"/>
<stop offset="1" stop-color="#1C0A2B"/>
</linearGradient>
<linearGradient id="paint3_linear_7467_176" x1="833.132" y1="782.133" x2="962.981" y2="803.874" gradientUnits="userSpaceOnUse">
<stop stop-color="#0B0515"/>
<stop offset="1" stop-color="#1C0A2B"/>
</linearGradient>
<linearGradient id="paint4_linear_7467_176" x1="957.972" y1="745.648" x2="1054.06" y2="755.22" gradientUnits="userSpaceOnUse">
<stop stop-color="#0B0515"/>
<stop offset="1" stop-color="#1C0A2B"/>
</linearGradient>
<linearGradient id="paint5_linear_7467_176" x1="180.879" y1="729.948" x2="278.537" y2="738.885" gradientUnits="userSpaceOnUse">
<stop stop-color="#0B0515"/>
<stop offset="1" stop-color="#1C0A2B"/>
</linearGradient>
<linearGradient id="paint6_linear_7467_176" x1="615.329" y1="778.561" x2="705.858" y2="788.714" gradientUnits="userSpaceOnUse">
<stop stop-color="#0B0515"/>
<stop offset="1" stop-color="#1C0A2B"/>
</linearGradient>
<linearGradient id="paint7_linear_7467_176" x1="615.296" y1="550.387" x2="704.856" y2="564.128" gradientUnits="userSpaceOnUse">
<stop stop-color="#0B0515"/>
<stop offset="1" stop-color="#1C0A2B"/>
</linearGradient>
<linearGradient id="paint8_linear_7467_176" x1="565.356" y1="389.633" x2="690.353" y2="435.126" gradientUnits="userSpaceOnUse">
<stop stop-color="#0B0515"/>
<stop offset="1" stop-color="#1C0A2B"/>
</linearGradient>
<linearGradient id="paint9_linear_7467_176" x1="68.287" y1="711.964" x2="174.725" y2="734.409" gradientUnits="userSpaceOnUse">
<stop stop-color="#0B0515"/>
<stop offset="1" stop-color="#1C0A2B"/>
</linearGradient>
<linearGradient id="paint10_linear_7467_176" x1="38.5996" y1="865.318" x2="162.571" y2="915.899" gradientUnits="userSpaceOnUse">
<stop stop-color="#0B0515"/>
<stop offset="1" stop-color="#1C0A2B"/>
</linearGradient>
<linearGradient id="paint11_linear_7467_176" x1="269.167" y1="398.37" x2="373.835" y2="426.09" gradientUnits="userSpaceOnUse">
<stop stop-color="#0B0515"/>
<stop offset="1" stop-color="#1C0A2B"/>
</linearGradient>
<linearGradient id="paint12_linear_7467_176" x1="268.289" y1="790.728" x2="372.402" y2="821.26" gradientUnits="userSpaceOnUse">
<stop stop-color="#0B0515"/>
<stop offset="1" stop-color="#1C0A2B"/>
</linearGradient>
<linearGradient id="paint13_linear_7467_176" x1="268.119" y1="533.825" x2="372.41" y2="564.592" gradientUnits="userSpaceOnUse">
<stop stop-color="#0B0515"/>
<stop offset="1" stop-color="#1C0A2B"/>
</linearGradient>
<linearGradient id="paint14_linear_7467_176" x1="268.448" y1="662.235" x2="372.394" y2="692.755" gradientUnits="userSpaceOnUse">
<stop stop-color="#0B0515"/>
<stop offset="1" stop-color="#1C0A2B"/>
</linearGradient>
<linearGradient id="paint15_linear_7467_176" x1="266.027" y1="469.09" x2="368.886" y2="499.332" gradientUnits="userSpaceOnUse">
<stop stop-color="#0B0515"/>
<stop offset="1" stop-color="#1C0A2B"/>
</linearGradient>
<linearGradient id="paint16_linear_7467_176" x1="265.98" y1="725.92" x2="368.733" y2="756.156" gradientUnits="userSpaceOnUse">
<stop stop-color="#0B0515"/>
<stop offset="1" stop-color="#1C0A2B"/>
</linearGradient>
<linearGradient id="paint17_linear_7467_176" x1="266.317" y1="854.184" x2="368.82" y2="884.401" gradientUnits="userSpaceOnUse">
<stop stop-color="#0B0515"/>
<stop offset="1" stop-color="#1C0A2B"/>
</linearGradient>
<linearGradient id="paint18_linear_7467_176" x1="266.111" y1="597.462" x2="368.724" y2="627.609" gradientUnits="userSpaceOnUse">
<stop stop-color="#0B0515"/>
<stop offset="1" stop-color="#1C0A2B"/>
</linearGradient>
<linearGradient id="paint19_linear_7467_176" x1="-13.908" y1="883.517" x2="55.4082" y2="903.779" gradientUnits="userSpaceOnUse">
<stop stop-color="#0B0515"/>
<stop offset="1" stop-color="#1C0A2B"/>
</linearGradient>
<linearGradient id="paint20_linear_7467_176" x1="174.135" y1="883.511" x2="243.216" y2="903.627" gradientUnits="userSpaceOnUse">
<stop stop-color="#0B0515"/>
<stop offset="1" stop-color="#1C0A2B"/>
</linearGradient>
<linearGradient id="paint21_linear_7467_176" x1="375.681" y1="398.883" x2="439.85" y2="408.975" gradientUnits="userSpaceOnUse">
<stop stop-color="#0B0515"/>
<stop offset="1" stop-color="#1C0A2B"/>
</linearGradient>
<linearGradient id="paint22_linear_7467_176" x1="377.654" y1="725.759" x2="441.273" y2="736.861" gradientUnits="userSpaceOnUse">
<stop stop-color="#0B0515"/>
<stop offset="1" stop-color="#1C0A2B"/>
</linearGradient>
<linearGradient id="paint23_linear_7467_176" x1="377.787" y1="597.813" x2="441.578" y2="608.896" gradientUnits="userSpaceOnUse">
<stop stop-color="#0B0515"/>
<stop offset="1" stop-color="#1C0A2B"/>
</linearGradient>
<linearGradient id="paint24_linear_7467_176" x1="379.968" y1="468.696" x2="441.677" y2="479.122" gradientUnits="userSpaceOnUse">
<stop stop-color="#0B0515"/>
<stop offset="1" stop-color="#1C0A2B"/>
</linearGradient>
<linearGradient id="paint25_linear_7467_176" x1="377.761" y1="854.093" x2="441.417" y2="865.206" gradientUnits="userSpaceOnUse">
<stop stop-color="#0B0515"/>
<stop offset="1" stop-color="#1C0A2B"/>
</linearGradient>
<linearGradient id="paint26_linear_7467_176" x1="375.589" y1="662.803" x2="439.898" y2="673.989" gradientUnits="userSpaceOnUse">
<stop stop-color="#0B0515"/>
<stop offset="1" stop-color="#1C0A2B"/>
</linearGradient>
<linearGradient id="paint27_linear_7467_176" x1="375.493" y1="534.17" x2="439.888" y2="545.348" gradientUnits="userSpaceOnUse">
<stop stop-color="#0B0515"/>
<stop offset="1" stop-color="#1C0A2B"/>
</linearGradient>
<linearGradient id="paint28_linear_7467_176" x1="375.734" y1="790.798" x2="439.79" y2="801.945" gradientUnits="userSpaceOnUse">
<stop stop-color="#0B0515"/>
<stop offset="1" stop-color="#1C0A2B"/>
</linearGradient>
<linearGradient id="paint29_linear_7467_176" x1="265.133" y1="894.64" x2="351.564" y2="945.468" gradientUnits="userSpaceOnUse">
<stop stop-color="#0B0515"/>
<stop offset="1" stop-color="#1C0A2B"/>
</linearGradient>
<linearGradient id="paint30_linear_7467_176" x1="8.15825" y1="822.17" x2="87.8334" y2="919.625" gradientUnits="userSpaceOnUse">
<stop stop-color="#0B0515"/>
<stop offset="1" stop-color="#1C0A2B"/>
</linearGradient>
<linearGradient id="paint31_linear_7467_176" x1="375.091" y1="894.977" x2="435.967" y2="916.023" gradientUnits="userSpaceOnUse">
<stop stop-color="#0B0515"/>
<stop offset="1" stop-color="#1C0A2B"/>
</linearGradient>
<linearGradient id="paint32_linear_7467_176" x1="184.043" y1="836.526" x2="231.836" y2="866.835" gradientUnits="userSpaceOnUse">
<stop stop-color="#0B0515"/>
<stop offset="1" stop-color="#1C0A2B"/>
</linearGradient>
<linearGradient id="paint33_linear_7467_176" x1="-9.88008" y1="836.152" x2="36.6718" y2="865.439" gradientUnits="userSpaceOnUse">
<stop stop-color="#0B0515"/>
<stop offset="1" stop-color="#1C0A2B"/>
</linearGradient>
<linearGradient id="paint34_linear_7467_176" x1="86.6369" y1="633.73" x2="95.5848" y2="659.093" gradientUnits="userSpaceOnUse">
<stop stop-color="#0B0515"/>
<stop offset="1" stop-color="#1C0A2B"/>
</linearGradient>
<linearGradient id="paint35_linear_7467_176" x1="7.71139" y1="815.322" x2="25.8381" y2="841.237" gradientUnits="userSpaceOnUse">
<stop stop-color="#0B0515"/>
<stop offset="1" stop-color="#1C0A2B"/>
</linearGradient>
<linearGradient id="paint36_linear_7467_176" x1="178.441" y1="814.492" x2="193.106" y2="838.491" gradientUnits="userSpaceOnUse">
<stop stop-color="#0B0515"/>
<stop offset="1" stop-color="#1C0A2B"/>
</linearGradient>
<clipPath id="clip0_7467_176">
<rect width="1187" height="932" fill="white"/>
</clipPath>
</defs>
</svg>
