<svg preserveAspectRatio="none" width="100%" height="100%" overflow="visible" style="display: block;" viewBox="0 0 498 671" fill="none" xmlns="http://www.w3.org/2000/svg">
<g id="Palms" clip-path="url(#clip0_9541_162)">
<path id="Vector" d="M421.076 394.397C442.942 393.626 469.521 399.365 498 407.668C477.192 374.938 449.913 359.837 413.369 370.006C417.061 366.849 420.861 363.729 424.75 360.644L419.57 352.143L433.263 353.99C443.784 345.938 454.878 338.083 466.51 330.389C437.385 323.179 411.864 329.94 391.629 357.147C391.916 324.076 372.362 304.348 341.535 292.188C352.844 314.427 362.397 335.034 367.29 351.318C345.765 323.412 315.153 319.646 277.838 333.724C289.971 338.352 301.926 343.158 313.307 348.449L326.695 344.503L323.057 353.183C331.265 357.362 339.115 361.864 346.392 366.867C311.927 358.456 284.128 373.539 261.098 405.534L317.877 393.697C300.044 407.094 291.315 426.571 286.53 448.684C297.75 440.058 308.808 432.041 319.651 424.921L323.863 412.69L327.448 419.953C341.123 411.488 354.403 404.655 367.111 400.19C311.013 469.022 271.583 545.746 248.928 630.414C237.601 629.571 226.005 629.141 214.212 629.141C210.556 629.141 206.935 629.195 203.315 629.266C201.057 621.555 198.87 613.825 196.809 606.041L171 601.988L192.472 589.111C189.282 576.073 186.378 562.909 183.743 549.655L159.781 544.347L180.697 533.658C178.008 518.79 175.66 503.797 173.689 488.66L151.895 481.397L171.413 469.937C167.506 434.767 165.48 398.862 165.391 362.186L151.142 354.564L165.444 346.799C165.659 328.775 166.341 310.589 167.488 292.206L155.981 284.172L168.42 278.522C171.359 239.013 176.431 198.678 183.726 157.465C215.377 196.329 242.602 239.802 266.493 286.718C280.759 236.896 270.704 193.19 228.747 157.465C244.806 163.813 260.883 171.328 276.977 179.757L283.161 157.644L293.126 188.527C309.686 197.853 326.283 208.129 342.897 219.338C329.24 163.688 298.879 125.416 234.662 122.403C264.593 112.503 307.231 106.656 353.364 101.922C301.711 63.0576 251.581 56.5115 203.727 97.3662C212.384 83.8257 221.363 70.6259 230.665 57.7669L210.699 48.5486L242.189 42.2715C252.585 28.6413 263.392 15.4057 274.665 2.7081C230.629 8.24985 194.873 25.9691 175.517 67.7923C164.136 29.1614 127.932 9.43353 78.2326 0C106.228 32.4614 130.459 64.3668 150.085 95.5728C105.045 51.167 54.5746 51.3105 0 85.099C19.5895 89.206 38.3546 93.5641 56.0443 98.2271L84.8998 83.0007L77.3544 104.145C90.5455 108.037 103.02 112.126 114.616 116.484C57.1913 118.475 18.4783 148.515 0 208.865C39.9138 186.196 79.2542 166.952 117.788 152.425C73.2501 183.649 68.1779 230.386 78.2146 283.042C87.8571 265.287 97.5174 248.034 107.214 231.839L100.188 200.848L117.447 215.231C132.144 192.078 146.984 171.884 162.039 156.747C122.52 314.75 117.25 474.438 139.456 635.131C108.594 640.278 54.2699 658.015 40.3978 670.946H378.169C364.673 660.508 335.119 642.305 285.688 634.611C295.957 555.377 324.311 478.509 380.678 405.319C389.711 432.364 395.626 464.808 400.088 499.726C420 472.394 425.521 443.519 407.114 412.116C416.936 420.097 426.345 428.598 435.432 437.457L440.88 428.867L443.515 445.528C452.064 454.28 460.327 463.391 468.302 472.806C471.69 436.901 458.48 409.444 421.058 394.325L421.076 394.397Z" fill="url(#paint0_linear_9541_162)"/>
<path id="Vector_2" d="M431.453 272.353C464.445 272.353 491.189 245.59 491.189 212.577C491.189 179.564 464.445 152.802 431.453 152.802C398.462 152.802 371.717 179.564 371.717 212.577C371.717 245.59 398.462 272.353 431.453 272.353Z" fill="url(#paint1_linear_9541_162)"/>
</g>
<defs>
<linearGradient id="paint0_linear_9541_162" x1="182.028" y1="736.791" x2="294.706" y2="357.307" gradientUnits="userSpaceOnUse">
<stop stop-color="#0B0515"/>
<stop offset="1" stop-color="#1C0A2B"/>
</linearGradient>
<linearGradient id="paint1_linear_9541_162" x1="384.863" y1="250.08" x2="519.81" y2="167.553" gradientUnits="userSpaceOnUse">
<stop stop-color="#1C0A2B"/>
<stop offset="1" stop-color="#0B0515"/>
</linearGradient>
<clipPath id="clip0_9541_162">
<rect width="498" height="671" fill="white"/>
</clipPath>
</defs>
</svg>
