<svg preserveAspectRatio="none" width="100%" height="100%" overflow="visible" style="display: block;" viewBox="0 0 1187 932" fill="none" xmlns="http://www.w3.org/2000/svg">
<g id="Miami Skyline" clip-path="url(#clip0_miami)">
<!-- Panorama Tower (tall left) -->
<path d="M80 380H120V932H80V380Z" fill="url(#mg1)"/>
<path d="M90 340L100 300L110 340H90Z" fill="url(#mg1)"/>
<!-- Southeast Financial Center -->
<path d="M150 280H200V932H150V280Z" fill="url(#mg2)"/>
<path d="M160 280H190V250H160V280Z" fill="url(#mg2)"/>
<path d="M168 250H182V230H168V250Z" fill="url(#mg2)"/>
<!-- Four Seasons tower -->
<path d="M220 320H270V932H220V320Z" fill="url(#mg1)"/>
<path d="M230 320H260V290H230V320Z" fill="url(#mg1)"/>
<!-- Low Art Deco building 1 -->
<path d="M290 580H350V932H290V580Z" fill="url(#mg3)"/>
<path d="M295 580H345V560H295V580Z" fill="url(#mg3)"/>
<path d="M310 560H330V540L320 520L310 540V560Z" fill="url(#mg3)"/>
<!-- Art Deco building 2 with stepped top -->
<path d="M365 520H420V932H365V520Z" fill="url(#mg2)"/>
<path d="M370 520H415V500H370V520Z" fill="url(#mg2)"/>
<path d="M378 500H407V480H378V500Z" fill="url(#mg2)"/>
<path d="M386 480H399V460H386V480Z" fill="url(#mg2)"/>
<!-- Palm tree 1 -->
<path d="M440 650Q442 600 445 550L448 650H440Z" fill="url(#mg4)"/>
<path d="M445 550Q420 530 400 510Q425 525 445 530Q435 505 430 480Q440 510 448 530Q445 500 448 470Q450 505 452 530Q460 505 470 480Q462 510 455 530Q470 520 490 510Q465 530 445 550Z" fill="url(#mg4)"/>
<!-- One Thousand Museum -->
<path d="M500 240H545V932H500V240Z" fill="url(#mg1)"/>
<path d="M505 240H540V220H505V240Z" fill="url(#mg1)"/>
<path d="M515 220H530V200H515V220Z" fill="url(#mg1)"/>
<!-- Brickell Flatiron -->
<path d="M560 190H610V932H560V190Z" fill="url(#mg2)"/>
<path d="M570 190H600V170H570V190Z" fill="url(#mg2)"/>
<path d="M578 170H592V150L585 120L578 150V170Z" fill="url(#mg2)"/>
<!-- Art Deco hotel (iconic Miami Beach style) -->
<path d="M635 490H710V932H635V490Z" fill="url(#mg3)"/>
<path d="M640 490H705V470H640V490Z" fill="url(#mg3)"/>
<path d="M650 470H695V450H650V470Z" fill="url(#mg3)"/>
<path d="M660 450H685V435H660V450Z" fill="url(#mg3)"/>
<path d="M667 435H678V410L672.5 390L667 410V435Z" fill="url(#mg3)"/>
<!-- Columns on Art Deco hotel -->
<path d="M648 530H652V490H648V530Z" fill="url(#mg3)"/>
<path d="M662 530H666V490H662V530Z" fill="url(#mg3)"/>
<path d="M676 530H680V490H676V530Z" fill="url(#mg3)"/>
<path d="M690 530H694V490H690V530Z" fill="url(#mg3)"/>
<!-- Palm tree 2 -->
<path d="M730 620Q732 570 735 520L738 620H730Z" fill="url(#mg4)"/>
<path d="M735 520Q710 500 690 480Q715 495 735 500Q725 475 720 450Q730 480 738 500Q735 470 738 440Q740 475 742 500Q750 475 760 450Q752 480 745 500Q760 490 780 480Q755 500 735 520Z" fill="url(#mg4)"/>
<!-- 900 Biscayne Bay -->
<path d="M780 310H830V932H780V310Z" fill="url(#mg1)"/>
<path d="M790 310H820V285H790V310Z" fill="url(#mg1)"/>
<path d="M798 285H812V265H798V285Z" fill="url(#mg1)"/>
<!-- Icon Brickell (twin towers) -->
<path d="M850 200H895V932H850V200Z" fill="url(#mg2)"/>
<path d="M860 200H885V180H860V200Z" fill="url(#mg2)"/>
<path d="M910 220H955V932H910V220Z" fill="url(#mg2)"/>
<path d="M920 220H945V200H920V220Z" fill="url(#mg2)"/>
<!-- Connecting base between twin towers -->
<path d="M895 600H910V932H895V600Z" fill="url(#mg2)"/>
<!-- Low waterfront building -->
<path d="M970 620H1030V932H970V620Z" fill="url(#mg3)"/>
<path d="M975 620H1025V600H975V620Z" fill="url(#mg3)"/>
<!-- Palm tree 3 -->
<path d="M1045 600Q1047 550 1050 500L1053 600H1045Z" fill="url(#mg4)"/>
<path d="M1050 500Q1025 480 1005 460Q1030 475 1050 480Q1040 455 1035 430Q1045 460 1053 480Q1050 450 1053 420Q1055 455 1057 480Q1065 455 1075 430Q1067 460 1060 480Q1075 470 1095 460Q1070 480 1050 500Z" fill="url(#mg4)"/>
<!-- Right side condo tower -->
<path d="M1080 350H1130V932H1080V350Z" fill="url(#mg1)"/>
<path d="M1090 350H1120V330H1090V350Z" fill="url(#mg1)"/>
<path d="M1098 330H1112V310H1098V330Z" fill="url(#mg1)"/>
<!-- Far right low building -->
<path d="M1145 550H1187V932H1145V550Z" fill="url(#mg2)"/>
<path d="M1150 550H1182V530H1150V550Z" fill="url(#mg2)"/>
<!-- Water reflection line -->
<path d="M0 900Q200 885 400 890Q600 895 800 888Q1000 882 1187 895V932H0V900Z" fill="url(#mg5)" opacity="0.3"/>
</g>
<defs>
<linearGradient id="mg1" x1="0" y1="0" x2="0" y2="932" gradientUnits="userSpaceOnUse">
<stop stop-color="#1C0A2B"/>
<stop offset="1" stop-color="#0B0515"/>
</linearGradient>
<linearGradient id="mg2" x1="0" y1="0" x2="0" y2="932" gradientUnits="userSpaceOnUse">
<stop stop-color="#0B0515"/>
<stop offset="1" stop-color="#1C0A2B"/>
</linearGradient>
<linearGradient id="mg3" x1="0" y1="200" x2="0" y2="932" gradientUnits="userSpaceOnUse">
<stop stop-color="#180825"/>
<stop offset="1" stop-color="#0B0515"/>
</linearGradient>
<linearGradient id="mg4" x1="0" y1="400" x2="0" y2="700" gradientUnits="userSpaceOnUse">
<stop stop-color="#1C0A2B"/>
<stop offset="1" stop-color="#0B0515"/>
</linearGradient>
<linearGradient id="mg5" x1="0" y1="880" x2="0" y2="932" gradientUnits="userSpaceOnUse">
<stop stop-color="#1C0A2B"/>
<stop offset="1" stop-color="#0B0515"/>
</linearGradient>
<clipPath id="clip0_miami">
<rect width="1187" height="932" fill="white"/>
</clipPath>
</defs>
</svg>
