<svg preserveAspectRatio="none" width="100%" height="100%" overflow="visible" style="display: block;" viewBox="0 0 202 880" fill="none" xmlns="http://www.w3.org/2000/svg">
<g id="Freedom Tower" clip-path="url(#clip0_9541_166)">
<path id="Vector" d="M100.994 429.655H0V447.505L8.42582 491.587V880H193.563V491.587L201.988 447.505V429.655H100.994ZM60.9571 863.628H44.0708V841.887H60.9571V863.628ZM60.9571 816.66H44.0708V794.919H60.9571V816.66ZM60.9571 769.703H44.0708V747.962H60.9571V769.703ZM60.9571 722.746H44.0708V701.005H60.9571V722.746ZM60.9571 675.789H44.0708V654.048H60.9571V675.789ZM60.9571 628.821H44.0708V607.08H60.9571V628.821ZM60.9571 581.864H44.0708V560.123H60.9571V581.864ZM60.9571 534.907H44.0708V513.166H60.9571V534.907ZM60.9571 487.95H44.0708V466.209H60.9571V487.95ZM109.443 863.628H92.5568V841.887H109.443V863.628ZM109.443 816.66H92.5568V794.919H109.443V816.66ZM109.443 769.703H92.5568V747.962H109.443V769.703ZM109.443 722.746H92.5568V701.005H109.443V722.746ZM109.443 675.789H92.5568V654.048H109.443V675.789ZM109.443 628.821H92.5568V607.08H109.443V628.821ZM109.443 581.864H92.5568V560.123H109.443V581.864ZM109.443 534.907H92.5568V513.166H109.443V534.907ZM109.443 487.95H92.5568V466.209H109.443V487.95ZM157.929 863.628H141.043V841.887H157.929V863.628ZM157.929 816.66H141.043V794.919H157.929V816.66ZM157.929 769.703H141.043V747.962H157.929V769.703ZM157.929 722.746H141.043V701.005H157.929V722.746ZM157.929 675.789H141.043V654.048H157.929V675.789ZM157.929 628.821H141.043V607.08H157.929V628.821ZM157.929 581.864H141.043V560.123H157.929V581.864ZM157.929 534.907H141.043V513.166H157.929V534.907ZM157.929 487.95H141.043V466.209H157.929V487.95Z" fill="url(#paint0_linear_9541_166)"/>
<path id="Vector_2" d="M142.395 193.912H125.867L126.78 261.282H116.401L117.28 193.912H84.6974L85.6105 261.282H75.2313L76.1097 193.912H59.6048V261.282H54.3922V288.692H147.608V261.282H142.395V193.912ZM100.994 280.044C97.9313 280.044 95.4579 277.562 95.4579 274.514C95.4579 271.466 97.9429 268.983 100.994 268.983C104.046 268.983 106.531 271.466 106.531 274.514C106.531 277.562 104.046 280.044 100.994 280.044ZM100.994 217.616C97.9313 217.616 95.4579 215.133 95.4579 212.085C95.4579 209.037 97.9429 206.555 100.994 206.555C104.046 206.555 106.531 209.037 106.531 212.085C106.531 215.133 104.046 217.616 100.994 217.616ZM145.1 169.054V148.075H142.395V145.189C144.915 144.808 146.787 143.492 146.787 141.921C146.787 140.351 144.915 139.035 142.395 138.654L141.875 132.038H139.968L139.448 138.654C136.928 139.035 135.056 140.351 135.056 141.921C135.056 143.492 136.928 144.808 139.448 145.189V148.075H136.743V152.186H131.022V107.33C131.022 95.1492 123.324 84.8041 112.529 80.7862V73.7548H110.807V48.5271H107.86V73.7548H104.126V48.5271H101.179V73.7548H97.4459V48.5271H94.4986V73.7548H92.7764V80.7862C81.9928 84.7926 74.2836 95.1492 74.2836 107.33V152.186H65.2798V148.075H62.5753V145.189C65.0949 144.808 66.9673 143.492 66.9673 141.921C66.9673 140.351 65.0949 139.035 62.5753 138.654L62.0667 132.038H60.125L59.6164 138.654C57.0968 139.035 55.2243 140.351 55.2243 141.921C55.2243 143.492 57.0968 144.808 59.6164 145.189V148.075H56.9118V169.054H54.4037V175.901H59.6164V188.428H142.407V175.901H147.619V169.054H145.111H145.1ZM106.531 138.654H98.7404V128.193H106.531V138.654ZM112.529 47.9383C112.529 42.9967 108.877 38.9325 104.126 38.2167V0H101.179V38.2052C96.4288 38.921 92.7764 42.9851 92.7764 47.9267V48.5156H112.541V47.9267L112.529 47.9383Z" fill="url(#paint1_linear_9541_166)"/>
<path id="Vector_3" d="M184.859 374.985H182.432V355.115H179.485V374.985H177.058C177.058 374.985 176.41 383.333 170.735 387.478V319.669H174.885V292.802H170.747V287.48L165.546 258.119L160.345 287.48V292.802H41.6552V287.48L36.4541 258.119L31.253 287.48V292.802H27.1152V319.669H31.2645V387.478C25.5895 383.333 24.9423 374.985 24.9423 374.985H22.5151V355.115H19.5678V374.985H17.1406C17.1406 374.985 16.0079 389.753 3.42118 389.753V392.466H5.94084V429.655H16.4124V406.944C16.4124 404.393 18.4813 402.326 21.0356 402.326C23.59 402.326 25.6589 404.393 25.6589 406.944V429.655H45.0648V408.237H59.3621V429.655H93.8513V408.237H108.137V429.655H142.626V408.237H156.924V429.655H176.33V406.944C176.33 404.393 178.398 402.326 180.953 402.326C183.507 402.326 185.576 404.393 185.576 406.944V429.655H196.048V392.466H198.567V389.753C185.981 389.753 184.848 374.985 184.848 374.985H184.859ZM157.756 298.09H160.345V314.37H157.756V298.09ZM153.491 298.09H155.802V314.37H153.491V298.09ZM149.191 298.09H151.549V314.37H149.191V298.09ZM144.926 298.09H147.284V314.37H144.926V298.09ZM140.384 298.09H143.019V314.37H140.384V298.09ZM125.047 298.09H127.636V314.37H125.047V298.09ZM120.782 298.09H123.093V314.37H120.782V298.09ZM116.482 298.09H118.84V314.37H116.482V298.09ZM112.217 298.09H114.575V314.37H112.217V298.09ZM107.675 298.09H110.31V314.37H107.675V298.09ZM91.7247 298.09H94.3137V314.37H91.7247V298.09ZM87.4713 298.09H89.7829V314.37H87.4713V298.09ZM83.1601 298.09H85.518V314.37H83.1601V298.09ZM78.8952 298.09H81.2531V314.37H78.8952V298.09ZM74.3529 298.09H76.9882V314.37H74.3529V298.09ZM59.0269 298.09H61.616V314.37H59.0269V298.09ZM54.762 298.09H57.0736V314.37H54.762V298.09ZM50.4624 298.09H52.8203V314.37H50.4624V298.09ZM46.1975 298.09H48.5554V314.37H46.1975V298.09ZM44.2904 298.09V314.37H41.6552V298.09H44.2904ZM59.3621 371.741H45.0648V350.324H59.3621V371.741ZM109.293 371.741H92.7187V358.602C92.7187 354.03 96.4288 350.324 101.006 350.324C105.583 350.324 109.293 354.03 109.293 358.602V371.741ZM156.924 371.741H142.626V350.324H156.924V371.741Z" fill="url(#paint2_linear_9541_166)"/>
</g>
<defs>
<linearGradient id="paint0_linear_9541_166" x1="-178.09" y1="730.854" x2="-35.6928" y2="391.047" gradientUnits="userSpaceOnUse">
<stop stop-color="#0B0515"/>
<stop offset="1" stop-color="#1C0A2B"/>
</linearGradient>
<linearGradient id="paint1_linear_9541_166" x1="81.9052" y1="333.915" x2="205.455" y2="239.403" gradientUnits="userSpaceOnUse">
<stop stop-color="#0B0515"/>
<stop offset="1" stop-color="#1C0A2B"/>
</linearGradient>
<linearGradient id="paint2_linear_9541_166" x1="61.0123" y1="456.526" x2="110.629" y2="322.813" gradientUnits="userSpaceOnUse">
<stop stop-color="#0B0515"/>
<stop offset="1" stop-color="#1C0A2B"/>
</linearGradient>
<clipPath id="clip0_9541_166">
<rect width="202" height="880" fill="white"/>
</clipPath>
</defs>
</svg>
