<svg preserveAspectRatio="none" width="100%" height="100%" overflow="visible" style="display: block;" viewBox="0 0 417 505" fill="none" xmlns="http://www.w3.org/2000/svg">
<g id="Lifeguard Tower" clip-path="url(#clip0_9541_159)">
<path id="Vector" d="M353.988 477.534V352.551H389.325V255.792C389.325 250.367 384.947 245.977 379.535 245.977C374.124 245.977 369.745 250.367 369.745 255.792V271.094H299.641V221.973L326.052 132.85H360.572V105.77H101.88V0H90.9639V11.5616C67.9762 2.64309 44.9732 30.9751 21.9855 14.8229V58.7662C44.9732 74.9184 67.9762 46.5864 90.9639 55.5049V105.754H56.4439V132.835H90.9639L117.374 221.958V271.079H47.255V255.777C47.255 250.352 42.8764 245.962 37.4648 245.962C32.0532 245.962 27.6746 250.352 27.6746 255.777V352.536H63.0118V477.518H0V504.985H417V477.518H353.988V477.534ZM220.426 154.087H273.585V221.973H220.426V154.087ZM143.43 154.087H196.59V221.973H143.43V154.087ZM150.306 256.302H189.714V305.655H150.306V256.302ZM66.1724 322.055H47.2704V289.225H66.1724V322.055ZM84.2572 289.241H117.374V322.07H84.2572V289.241ZM90.9639 381.254L179.384 415.027L90.9639 448.8V381.239V381.254ZM326.036 477.534H90.9639V471.073L208.508 426.171L326.052 471.073V477.534H326.036ZM326.036 448.815L237.616 415.042L326.036 381.269V448.831V448.815ZM326.036 359.012L208.492 403.913L90.9485 359.012V352.551H326.021V359.012H326.036ZM332.758 322.055H299.641V289.225H332.758V322.055ZM350.843 289.241H369.745V322.07H350.843V289.241Z" fill="url(#paint0_linear_9541_159)"/>
</g>
<defs>
<linearGradient id="paint0_linear_9541_159" x1="247.885" y1="584.668" x2="172.585" y2="231.863" gradientUnits="userSpaceOnUse">
<stop stop-color="#0B0515"/>
<stop offset="1" stop-color="#1C0A2B"/>
</linearGradient>
<clipPath id="clip0_9541_159">
<rect width="417" height="505" fill="white"/>
</clipPath>
</defs>
</svg>
