<svg preserveAspectRatio="none" width="100%" height="100%" overflow="visible" style="display: block;" viewBox="0 0 1200 600" fill="none" xmlns="http://www.w3.org/2000/svg">
<g id="Palm Trees" clip-path="url(#clip0_palms)">
<!-- Palm tree 1 (far left, leaning right) -->
<path d="M60 580Q70 450 85 320Q88 380 90 580H60Z" fill="url(#pg1)"/>
<path d="M85 320Q55 295 30 270Q60 285 85 295Q72 260 65 225Q78 265 88 295Q85 255 88 215Q90 260 93 295Q102 265 115 230Q107 268 98 295Q115 282 140 270Q112 295 85 320Z" fill="url(#pg1)"/>
<!-- Additional fronds for tree 1 -->
<path d="M85 320Q50 310 20 295Q55 305 80 312Q60 280 50 250Q68 282 82 308Q78 275 80 245Q83 278 86 308Q95 278 108 250Q100 282 92 308Q110 295 135 285Q108 305 85 320Z" fill="url(#pg2)" opacity="0.7"/>

<!-- Palm tree 2 (left quarter, tall) -->
<path d="M230 580Q238 420 250 250Q253 350 256 580H230Z" fill="url(#pg1)"/>
<path d="M250 250Q215 225 185 195Q220 215 250 225Q235 185 228 145Q242 190 253 225Q250 180 253 140Q255 185 258 225Q268 190 282 150Q273 192 263 225Q282 210 310 195Q280 220 250 250Z" fill="url(#pg1)"/>
<path d="M250 250Q210 240 175 225Q215 235 245 242Q222 205 210 170Q230 207 247 238Q243 200 245 165Q248 203 251 238Q262 205 277 170Q268 208 257 238Q278 222 305 210Q275 235 250 250Z" fill="url(#pg2)" opacity="0.7"/>

<!-- Palm tree 3 (left center, medium) -->
<path d="M380 580Q386 470 395 350Q398 430 400 580H380Z" fill="url(#pg1)"/>
<path d="M395 350Q365 330 340 310Q370 322 395 330Q382 298 376 268Q388 302 398 330Q395 295 398 260Q400 298 403 330Q412 298 425 265Q417 302 408 330Q425 318 450 308Q422 330 395 350Z" fill="url(#pg1)"/>
<path d="M395 350Q360 342 330 328Q365 337 390 343Q370 310 360 280Q375 312 392 340Q388 305 390 275Q393 308 396 340Q405 310 418 278Q410 312 402 340Q420 326 445 315Q418 338 395 350Z" fill="url(#pg2)" opacity="0.7"/>

<!-- Palm tree 4 (center, tallest) -->
<path d="M550 580Q560 400 575 200Q578 320 582 580H550Z" fill="url(#pg1)"/>
<path d="M575 200Q540 172 510 140Q545 160 575 172Q560 130 552 88Q567 135 578 172Q575 125 578 80Q580 130 583 172Q593 130 608 88Q598 135 588 172Q608 155 638 140Q607 168 575 200Z" fill="url(#pg1)"/>
<path d="M575 200Q535 190 500 175Q540 185 570 192Q548 152 537 118Q555 155 572 188Q568 148 570 115Q573 152 576 188Q587 152 602 118Q593 158 582 188Q603 172 630 160Q600 185 575 200Z" fill="url(#pg2)" opacity="0.7"/>
<!-- Extra frond layer -->
<path d="M575 200Q545 198 518 190Q548 195 570 198Q555 170 548 148Q560 172 573 195Q570 162 572 138Q574 165 577 195Q585 168 596 145Q590 172 582 195Q598 182 620 172Q595 192 575 200Z" fill="url(#pg3)" opacity="0.5"/>

<!-- Palm tree 5 (right center) -->
<path d="M720 580Q726 460 735 330Q738 410 740 580H720Z" fill="url(#pg1)"/>
<path d="M735 330Q705 308 680 288Q710 302 735 312Q722 278 715 248Q728 282 738 312Q735 275 738 240Q740 278 743 312Q752 278 765 245Q757 282 748 312Q765 298 790 288Q762 310 735 330Z" fill="url(#pg1)"/>
<path d="M735 330Q700 322 670 308Q705 317 730 323Q710 290 700 260Q715 292 732 320Q728 285 730 255Q733 288 736 320Q745 290 758 258Q750 292 742 320Q760 306 785 295Q758 318 735 330Z" fill="url(#pg2)" opacity="0.7"/>

<!-- Palm tree 6 (right, leaning left slightly) -->
<path d="M900 580Q906 440 915 290Q918 380 920 580H900Z" fill="url(#pg1)"/>
<path d="M915 290Q885 268 860 248Q890 262 915 272Q902 238 895 208Q908 242 918 272Q915 235 918 200Q920 238 923 272Q932 238 945 205Q937 242 928 272Q945 258 970 248Q942 270 915 290Z" fill="url(#pg1)"/>
<path d="M915 290Q880 282 850 268Q885 277 910 283Q890 250 880 220Q895 252 912 280Q908 245 910 215Q913 248 916 280Q925 250 938 218Q930 252 922 280Q940 266 965 255Q938 278 915 290Z" fill="url(#pg2)" opacity="0.7"/>

<!-- Palm tree 7 (far right) -->
<path d="M1080 580Q1088 460 1098 330Q1101 420 1104 580H1080Z" fill="url(#pg1)"/>
<path d="M1098 330Q1068 310 1045 290Q1073 302 1098 312Q1085 280 1078 250Q1090 282 1100 312Q1098 278 1100 245Q1102 280 1105 312Q1114 280 1128 248Q1120 282 1110 312Q1128 300 1155 290Q1125 312 1098 330Z" fill="url(#pg1)"/>
<path d="M1098 330Q1065 320 1035 308Q1068 315 1093 322Q1075 290 1065 262Q1080 292 1095 318Q1092 285 1093 255Q1096 288 1098 318Q1108 288 1120 258Q1113 290 1105 318Q1122 305 1148 295Q1120 315 1098 330Z" fill="url(#pg2)" opacity="0.7"/>

<!-- Ground shadow/reflection -->
<path d="M0 570Q300 558 600 565Q900 572 1200 560V600H0V570Z" fill="url(#pg4)" opacity="0.2"/>
</g>
<defs>
<linearGradient id="pg1" x1="0" y1="0" x2="0" y2="600" gradientUnits="userSpaceOnUse">
<stop stop-color="#1C0A2B"/>
<stop offset="1" stop-color="#0B0515"/>
</linearGradient>
<linearGradient id="pg2" x1="0" y1="0" x2="0" y2="600" gradientUnits="userSpaceOnUse">
<stop stop-color="#0B0515"/>
<stop offset="1" stop-color="#1C0A2B"/>
</linearGradient>
<linearGradient id="pg3" x1="0" y1="100" x2="0" y2="400" gradientUnits="userSpaceOnUse">
<stop stop-color="#180825"/>
<stop offset="1" stop-color="#0B0515"/>
</linearGradient>
<linearGradient id="pg4" x1="0" y1="550" x2="0" y2="600" gradientUnits="userSpaceOnUse">
<stop stop-color="#1C0A2B"/>
<stop offset="1" stop-color="#0B0515"/>
</linearGradient>
<clipPath id="clip0_palms">
<rect width="1200" height="600" fill="white"/>
</clipPath>
</defs>
</svg>
