<svg preserveAspectRatio="none" width="100%" height="100%" overflow="visible" style="display: block;" viewBox="0 0 1957 1275" fill="none" xmlns="http://www.w3.org/2000/svg">
<g id="Pattern Bgr" clip-path="url(#clip0_7475_5561)">
<path id="Vector" d="M96.2493 1242.02H177.133L185.986 1222.05H266.87L275.722 1202.07H356.606L365.459 1182.09H446.343L455.195 1162.11H535.852L544.705 1142.14H625.589L634.442 1122.16H715.325L724.178 1102.18H805.062L813.915 1082.22H894.798L903.651 1062.25H984.535L993.388 1042.27H1074.27L1083.12 1022.31H1164.01L1172.86 1002.33H1253.74L1262.6 982.356H1343.48L1352.33 962.399H1433.22L1442.07 942.422H1522.73L1531.58 922.444H1612.46L1621.32 902.467H1702.2L1711.05 882.489H1791.94L1800.79 862.532H1881.67L1890.53 842.555H1971.27L1980.12 822.577H1892.96L1884.11 842.555H1803.22L1794.37 862.532H1713.49L1704.63 882.489H1623.75L1614.9 902.467H1534.01L1525.16 922.444H1444.28L1435.42 942.422H1354.77L1345.91 962.399H1265.03L1256.18 982.356H1175.29L1166.44 1002.33H1085.56L1076.71 1022.31H995.821L986.969 1042.27H906.085L897.232 1062.25H816.348L807.496 1082.22H726.612L717.759 1102.18H636.875L628.023 1122.16H547.139L538.286 1142.14H457.402L448.55 1162.11H367.893L359.04 1182.09H278.156L269.304 1202.07H188.42L179.567 1222.05H98.6833L89.8308 1242.02H8.9468L0.0940612 1262H87.2523L96.1049 1242.02H96.2493ZM96.2412 1137.01H177.125L185.978 1117.03H266.862L275.714 1097.06H356.598L365.451 1077.08H446.335L455.187 1057.12H535.844L544.697 1037.15H625.581L634.433 1017.17H715.317L724.17 997.21H805.054L813.906 977.233H894.79L903.643 957.256H984.527L993.379 937.298H1074.26L1083.12 917.321H1164L1172.85 897.343H1253.74L1262.59 877.366H1343.47L1352.33 857.389H1433.21L1442.06 837.431H1522.72L1531.57 817.454H1612.46L1621.31 797.476H1702.19L1711.04 777.519H1791.93L1800.78 757.542H1881.67L1890.52 737.564H1971.26L1980.11 717.587H1892.95L1884.1 737.564H1803.22L1794.36 757.542H1713.48L1704.63 777.519H1623.74L1614.89 797.476H1534.01L1525.15 817.454H1444.27L1435.42 837.431H1354.76L1345.91 857.389H1265.02L1256.17 877.366H1175.29L1166.43 897.343H1085.55L1076.7 917.321H995.813L986.961 937.298H906.077L897.224 957.256H816.34L807.488 977.233H726.604L717.751 997.21H636.867L628.015 1017.17H547.131L538.278 1037.15H457.394L448.542 1057.12H367.885L359.032 1077.08H278.148L269.296 1097.06H188.412L179.559 1117.03H98.6753L89.8227 1137.01H8.93875L0.0860183 1156.99H87.2443L96.0968 1137.01H96.2412ZM1899.5 790.169H1818.62L1809.76 810.126H1728.88L1720.03 830.104H1639.14L1630.29 850.081H1549.41L1540.55 870.038H1459.67L1450.82 890.016H1370.16L1361.31 909.993H1280.42L1271.57 929.971H1190.69L1181.83 949.948H1100.95L1092.1 969.905H1011.21L1002.36 989.883H921.478L912.625 1009.86H831.741L822.888 1029.82H742.005L733.152 1049.8H652.268L643.415 1069.77H562.531L553.679 1089.73H472.795L463.942 1109.71H383.285L374.433 1129.68H293.549L284.696 1149.66H203.812L194.96 1169.64H114.076L105.223 1189.62H24.3392L15.4866 1209.59H102.645L111.498 1189.62H192.381L201.234 1169.64H282.118L290.971 1149.66H371.854L380.707 1129.68H461.591L470.444 1109.71H551.101L559.953 1089.73H640.837L649.689 1069.77H730.574L739.426 1049.8H820.31L829.163 1029.82H910.047L918.899 1009.86H999.783L1008.64 989.883H1089.52L1098.37 969.905H1179.26L1188.11 949.948H1268.99L1277.85 929.971H1358.73L1367.58 909.993H1448.47L1457.32 890.016H1537.98L1546.83 870.038H1627.71L1636.56 850.081H1717.45L1726.3 830.104H1807.18L1816.04 810.126H1896.92L1905.77 790.169H1986.66L1995.51 770.191H1908.35L1899.5 790.169ZM1899.49 685.158H1818.61L1809.76 705.136H1728.87L1720.02 725.113H1639.13L1630.28 745.09H1549.4L1540.55 765.068H1459.66L1450.81 785.025H1370.15L1361.3 805.003H1280.42L1271.56 824.98H1190.68L1181.83 844.938H1100.94L1092.09 864.915H1011.21L1002.35 884.892H921.469L912.617 904.87H831.733L822.88 924.847H741.996L733.144 944.805H652.26L643.407 964.782H562.523L553.671 984.759H472.787L463.934 1004.72H383.277L374.425 1024.69H293.541L284.688 1044.67H203.804L194.952 1064.63H114.068L105.215 1084.61H24.3311L15.4786 1104.58H102.637L111.49 1084.61H192.373L201.226 1064.63H282.11L290.963 1044.67H371.846L380.699 1024.69H461.583L470.436 1004.72H551.093L559.945 984.759H640.829L649.681 964.782H730.566L739.418 944.805H820.302L829.155 924.847H910.039L918.891 904.87H999.775L1008.63 884.892H1089.51L1098.36 864.915H1179.25L1188.1 844.938H1268.98L1277.84 824.98H1358.72L1367.57 805.003H1448.46L1457.31 785.025H1537.97L1546.82 765.068H1627.7L1636.56 745.09H1717.44L1726.29 725.113H1807.18L1816.03 705.136H1896.91L1905.77 685.158H1986.65L1995.5 665.201H1908.34L1899.49 685.158ZM96.2332 1032H177.117L185.97 1012.02H266.854L275.706 992.047H356.59L365.443 972.09H446.327L455.179 952.112H535.836L544.689 932.135H625.573L634.425 912.177H715.309L724.162 892.2H805.046L813.898 872.223H894.782L903.635 852.245H984.519L993.371 832.268H1074.26L1083.11 812.311H1163.99L1172.84 792.333H1253.73L1262.58 772.356H1343.47L1352.32 752.398H1433.2L1442.05 732.421H1522.71L1531.56 712.443H1612.45L1621.3 692.466H1702.18L1711.04 672.489H1791.92L1800.77 652.531H1881.66L1890.51 632.554H1971.25L1980.1 612.577H1892.94L1884.09 632.554H1803.21L1794.35 652.531H1713.47L1704.62 672.489H1623.73L1614.88 692.466H1534L1525.14 712.443H1444.26L1435.41 732.421H1354.75L1345.9 752.398H1265.01L1256.16 772.356H1175.28L1166.43 792.333H1085.54L1076.69 812.311H995.805L986.953 832.268H906.069L897.216 852.245H816.332L807.48 872.223H726.596L717.743 892.2H636.859L628.007 912.177H547.123L538.27 932.135H457.386L448.534 952.112H367.877L359.024 972.09H278.14L269.288 992.047H188.404L179.551 1012.02H98.6672L89.8147 1032H8.93071L0.0779739 1051.96H87.2362L96.0888 1032H96.2332ZM96.2252 926.992H177.109L185.962 907.014H266.846L275.698 887.037H356.582L365.435 867.06H446.319L455.171 847.102H535.828L544.681 827.125H625.565L634.417 807.147H715.301L724.154 787.19H805.038L813.89 767.213H894.774L903.627 747.235H984.511L993.363 727.278H1074.25L1083.1 707.3H1163.98L1172.84 687.323H1253.72L1262.57 667.346H1343.46L1352.31 647.368H1433.19L1442.05 627.411H1522.7L1531.56 607.433H1612.44L1621.29 587.456H1702.18L1711.03 567.498H1791.91L1800.77 547.521H1881.65L1890.5 527.544H1971.24L1980.09 507.586H1892.94L1884.08 527.544H1803.2L1794.35 547.521H1713.46L1704.61 567.498H1623.73L1614.87 587.456H1533.99L1525.14 607.433H1444.25L1435.4 627.411H1354.74L1345.89 647.368H1265.01L1256.15 667.346H1175.27L1166.42 687.323H1085.53L1076.68 707.3H995.797L986.945 727.278H906.061L897.208 747.235H816.324L807.472 767.213H726.588L717.735 787.19H636.851L627.998 807.147H547.115L538.262 827.125H457.378L448.526 847.102H367.869L359.016 867.06H278.132L269.28 887.037H188.395L179.543 907.014H98.6592L89.8066 926.992H8.92267L0.0699326 946.969H87.2282L96.0807 926.992H96.2252ZM1899.48 580.148H1818.6L1809.75 600.106H1728.86L1720.01 620.083H1639.13L1630.27 640.06H1549.39L1540.54 660.018H1459.65L1450.8 679.995H1370.14L1361.29 699.973H1280.41L1271.55 719.95H1190.67L1181.82 739.927H1100.93L1092.08 759.885H1011.2L1002.35 779.862H921.461L912.609 799.839H831.725L822.872 819.797H741.988L733.136 839.775H652.252L643.399 859.752H562.515L553.663 879.729H472.779L463.926 899.687H383.269L374.417 919.664H293.533L284.68 939.641H203.796L194.944 959.619H114.06L105.207 979.576H24.3231L15.4705 999.554H102.629L111.482 979.576H192.365L201.218 959.619H282.102L290.955 939.641H371.838L380.691 919.664H461.575L470.428 899.687H551.084L559.937 879.729H640.821L649.673 859.752H730.557L739.41 839.775H820.294L829.147 819.797H910.031L918.883 799.839H999.767L1008.62 779.862H1089.5L1098.36 759.885H1179.24L1188.09 739.927H1268.98L1277.83 719.95H1358.71L1367.57 699.973H1448.45L1457.3 679.995H1537.96L1546.81 660.018H1627.7L1636.55 640.06H1717.43L1726.28 620.083H1807.17L1816.02 600.106H1896.91L1905.76 580.148H1986.64L1995.49 560.171H1908.34L1899.48 580.148ZM1899.48 475.138H1818.59L1809.74 495.115H1728.86L1720 515.073H1639.12L1630.27 535.05H1549.38L1540.53 555.027H1459.65L1450.79 574.985H1370.14L1361.28 594.962H1280.4L1271.55 614.94H1190.66L1181.81 634.897H1100.93L1092.07 654.874H1011.19L1002.34 674.852H921.453L912.601 694.829H831.717L822.864 714.807H741.98L733.128 734.764H652.244L643.391 754.742H562.507L553.655 774.719H472.771L463.918 794.676H383.261L374.409 814.654H293.525L284.672 834.631H203.788L194.936 854.589H114.052L105.199 874.566H24.315L15.4625 894.543H102.621L111.474 874.566H192.357L201.21 854.589H282.094L290.947 834.631H371.83L380.683 814.654H461.567L470.419 794.676H551.076L559.929 774.719H640.813L649.665 754.742H730.549L739.402 734.764H820.286L829.138 714.807H910.023L918.875 694.829H999.759L1008.61 674.852H1089.5L1098.35 654.874H1179.23L1188.08 634.897H1268.97L1277.82 614.94H1358.71L1367.56 594.962H1448.44L1457.29 574.985H1537.95L1546.8 555.027H1627.69L1636.54 535.05H1717.42L1726.28 515.073H1807.16L1816.01 495.115H1896.9L1905.75 475.138H1986.63L1995.49 455.16H1908.33L1899.48 475.138ZM96.2171 821.962H177.101L185.954 801.984H266.838L275.69 782.007H356.574L365.427 762.049H446.311L455.163 742.072H535.82L544.673 722.095H625.557L634.409 702.137H715.293L724.146 682.16H805.03L813.882 662.182H894.766L903.619 642.205H984.503L993.355 622.228H1074.24L1083.09 602.27H1163.98L1172.83 582.293H1253.71L1262.56 562.315H1343.45L1352.3 542.358H1433.19L1442.04 522.381H1522.69L1531.55 502.403H1612.43L1621.28 482.445H1702.17L1711.02 462.468H1791.9L1800.76 442.491H1881.64L1890.49 422.513H1971.23L1980.09 402.536H1892.93L1884.07 422.513H1803.19L1794.34 442.491H1713.45L1704.6 462.468H1623.72L1614.87 482.445H1533.98L1525.13 502.403H1444.24L1435.39 522.381H1354.74L1345.88 542.358H1265L1256.15 562.315H1175.26L1166.41 582.293H1085.53L1076.67 602.27H995.789L986.937 622.228H906.053L897.2 642.205H816.316L807.464 662.182H726.58L717.727 682.16H636.843L627.99 702.137H547.107L538.254 722.095H457.37L448.518 742.072H367.861L359.008 762.049H278.124L269.272 782.007H188.387L179.535 801.984H98.6511L89.7986 821.962H8.91462L0.0618867 841.919H87.2202L96.0727 821.962H96.2171ZM96.2091 716.951H177.093L185.946 696.974H266.83L275.682 677.016H356.566L365.419 657.039H446.303L455.155 637.062H535.812L544.665 617.084H625.549L634.401 597.107H715.285L724.138 577.149H805.022L813.874 557.172H894.758L903.611 537.195H984.495L993.347 517.237H1074.23L1083.08 497.26H1163.97L1172.82 477.282H1253.7L1262.56 457.305H1343.44L1352.29 437.328H1433.18L1442.03 417.37H1522.69L1531.54 397.393H1612.42L1621.28 377.416H1702.16L1711.01 357.458H1791.9L1800.75 337.48H1881.63L1890.49 317.503H1971.23L1980.08 297.546H1892.92L1884.07 317.503H1803.18L1794.33 337.48H1713.45L1704.59 357.458H1623.71L1614.86 377.416H1533.97L1525.12 397.393H1444.24L1435.38 417.37H1354.73L1345.87 437.328H1264.99L1256.14 457.305H1175.25L1166.4 477.282H1085.52L1076.67 497.26H995.781L986.929 517.237H906.045L897.192 537.195H816.308L807.455 557.172H726.572L717.719 577.149H636.835L627.982 597.107H547.099L538.246 617.084H457.362L448.51 637.062H367.853L359 657.039H278.116L269.264 677.016H188.379L179.527 696.974H98.6431L89.7905 716.951H8.90658L0.0538454 736.929H87.2121L96.0647 716.951H96.2091ZM1899.47 370.107H1818.58L1809.73 390.065H1728.85L1719.99 410.042H1639.11L1630.26 430.02H1549.37L1540.52 449.997H1459.64L1450.78 469.955H1370.13L1361.28 489.932H1280.39L1271.54 509.909H1190.65L1181.8 529.887H1100.92L1092.07 549.844H1011.18L1002.33 569.822H921.445L912.593 589.799H831.709L822.856 609.757H741.972L733.12 629.734H652.236L643.383 649.711H562.499L553.647 669.689H472.763L463.91 689.666H383.253L374.401 709.624H293.517L284.664 729.601H203.78L194.928 749.578H114.044L105.191 769.536H24.307L15.4545 789.513H102.613L111.465 769.536H192.349L201.202 749.578H282.086L290.938 729.601H371.822L380.675 709.624H461.559L470.411 689.666H551.068L559.921 669.689H640.805L649.657 649.711H730.541L739.394 629.734H820.278L829.13 609.757H910.014L918.867 589.799H999.751L1008.6 569.822H1089.49L1098.34 549.844H1179.22L1188.08 529.887H1268.96L1277.81 509.909H1358.7L1367.55 489.932H1448.43L1457.29 469.955H1537.94L1546.8 449.997H1627.68L1636.53 430.02H1717.42L1726.27 410.042H1807.15L1816.01 390.065H1896.89L1905.74 370.107H1986.63L1995.48 350.13H1908.32L1899.47 370.107ZM1899.46 265.097H1818.58L1809.72 285.075H1728.84L1719.99 305.032H1639.1L1630.25 325.009H1549.37L1540.51 344.987H1459.63L1450.78 364.944H1370.12L1361.27 384.922H1280.38L1271.53 404.899H1190.65L1181.79 424.857H1100.91L1092.06 444.834H1011.17L1002.32 464.811H921.437L912.585 484.789H831.701L822.848 504.766H741.964L733.112 524.724H652.228L643.375 544.701H562.491L553.639 564.678H472.755L463.902 584.636H383.245L374.392 604.613H293.509L284.656 624.591H203.772L194.92 644.568H114.036L105.183 664.545H24.2989L15.4464 684.503H102.605L111.457 664.545H192.341L201.194 644.568H282.078L290.93 624.591H371.814L380.667 604.613H461.551L470.403 584.636H551.06L559.913 564.678H640.797L649.649 544.701H730.533L739.386 524.724H820.27L829.122 504.766H910.006L918.859 484.789H999.743L1008.6 464.811H1089.48L1098.33 444.834H1179.22L1188.07 424.857H1268.95L1277.81 404.899H1358.69L1367.54 384.922H1448.43L1457.28 364.944H1537.94L1546.79 344.987H1627.67L1636.52 325.009H1717.41L1726.26 305.032H1807.14L1816 285.075H1896.88L1905.73 265.097H1986.62L1995.47 245.12H1908.31L1899.46 265.097ZM96.201 611.941H177.085L185.938 591.964H266.821L275.674 571.986H356.558L365.411 552.029H446.295L455.147 532.051H535.804L544.657 512.074H625.541L634.393 492.117H715.277L724.13 472.139H805.014L813.866 452.162H894.75L903.603 432.184H984.487L993.339 412.207H1074.22L1083.08 392.249H1163.96L1172.81 372.272H1253.7L1262.55 352.295H1343.43L1352.29 332.337H1433.17L1442.02 312.36H1522.68L1531.53 292.382H1612.42L1621.27 272.425H1702.15L1711 252.448H1791.89L1800.74 232.47H1881.62L1890.48 212.493H1971.22L1980.07 192.515H1892.91L1884.06 212.493H1803.17L1794.32 232.47H1713.44L1704.59 252.448H1623.7L1614.85 272.425H1533.97L1525.11 292.382H1444.23L1435.38 312.36H1354.72L1345.87 332.337H1264.98L1256.13 352.295H1175.25L1166.39 372.272H1085.51L1076.66 392.249H995.773L986.921 412.207H906.037L897.184 432.184H816.3L807.447 452.162H726.564L717.711 472.139H636.827L627.974 492.117H547.09L538.238 512.074H457.354L448.501 532.051H367.845L358.992 552.029H278.108L269.255 571.986H188.371L179.519 591.964H98.635L89.7825 611.941H8.89854L0.0458025 631.918H87.2041L96.0566 611.941H96.201ZM96.193 506.931H177.077L185.929 486.953H266.813L275.666 466.996H356.55L365.403 447.018H446.287L455.139 427.041H535.796L544.649 407.064H625.533L634.385 387.086H715.269L724.122 367.129H805.006L813.858 347.151H894.742L903.595 327.174H984.479L993.331 307.216H1074.22L1083.07 287.239H1163.95L1172.8 267.262H1253.69L1262.54 247.304H1343.42L1352.28 227.327H1433.16L1442.01 207.349H1522.67L1531.52 187.372H1612.41L1621.26 167.395H1702.14L1711 147.437H1791.88L1800.73 127.46H1881.62L1890.47 107.483H1971.21L1980.06 87.5252H1892.9L1884.05 107.483H1803.17L1794.31 127.46H1713.43L1704.58 147.437H1623.69L1614.84 167.395H1533.96L1525.1 187.372H1444.22L1435.37 207.349H1354.71L1345.86 227.327H1264.97L1256.12 247.304H1175.24L1166.39 267.262H1085.5L1076.65 287.239H995.765L986.913 307.216H906.029L897.176 327.174H816.292L807.439 347.151H726.556L717.703 367.129H636.819L627.966 387.086H547.082L538.23 407.064H457.346L448.493 427.041H367.836L358.984 447.018H278.1L269.247 466.996H188.363L179.511 486.953H98.627L89.7745 506.931H8.8905L0.0377597 526.908H87.196L96.0486 506.931H96.193ZM1899.45 160.087H1818.57L1809.71 180.044H1728.83L1719.98 200.022H1639.09L1630.24 219.999H1549.36L1540.51 239.977H1459.62L1450.77 259.954H1370.11L1361.26 279.911H1280.38L1271.52 299.889H1190.64L1181.79 319.866H1100.9L1092.05 339.824H1011.17L1002.31 359.801H921.429L912.577 379.779H831.693L822.84 399.736H741.956L733.104 419.713H652.22L643.367 439.691H562.483L553.631 459.668H472.747L463.894 479.646H383.237L374.384 499.603H293.501L284.648 519.58H203.764L194.912 539.558H114.028L105.175 559.515H24.2909L15.4384 579.493H102.597L111.449 559.515H192.333L201.186 539.558H282.07L290.922 519.58H371.806L380.659 499.603H461.543L470.395 479.646H551.052L559.905 459.668H640.789L649.641 439.691H730.525L739.378 419.713H820.262L829.114 399.736H909.998L918.851 379.779H999.735L1008.59 359.801H1089.47L1098.32 339.824H1179.21L1188.06 319.866H1268.94L1277.8 299.889H1358.68L1367.53 279.911H1448.42L1457.27 259.954H1537.93L1546.78 239.977H1627.66L1636.52 219.999H1717.4L1726.25 200.022H1807.14L1815.99 180.044H1896.87L1905.73 160.087H1986.61L1995.46 140.11H1908.3L1899.45 160.087ZM111.586 454.426H192.47L201.322 434.448H282.206L291.059 414.471H371.943L380.795 394.493H461.679L470.532 374.516H551.189L560.041 354.559H640.925L649.778 334.581H730.662L739.514 314.604H820.398L829.251 294.646H910.135L918.987 274.669H999.871L1008.72 254.692H1089.61L1098.46 234.734H1179.34L1188.2 214.757H1269.08L1277.93 194.779H1358.82L1367.67 174.802H1448.55L1457.41 154.824H1538.06L1546.92 134.867H1627.8L1636.65 114.89H1717.54L1726.39 94.9123H1807.27L1816.13 74.9548H1897.01L1905.86 54.9774H1986.6L1995.45 35H1908.3L1899.44 54.9774H1818.56L1809.71 74.9548H1728.82L1719.97 94.9123H1639.09L1630.23 114.89H1549.35L1540.5 134.867H1459.61L1450.76 154.824H1370.1L1361.25 174.802H1280.37L1271.51 194.779H1190.63L1181.78 214.757H1100.89L1092.04 234.734H1011.16L1002.31 254.692H921.421L912.569 274.669H831.685L822.832 294.646H741.948L733.096 314.604H652.212L643.359 334.581H562.475L553.623 354.559H472.739L463.886 374.516H383.229L374.376 394.493H293.493L284.64 414.471H203.756L194.904 434.448H114.02L105.167 454.426H24.2829L15.4303 474.383H102.589L111.441 454.426H111.586Z" fill="url(#paint0_linear_7475_5561)"/>
</g>
<defs>
<linearGradient id="paint0_linear_7475_5561" x1="1053.5" y1="230" x2="1237.44" y2="1065.51" gradientUnits="userSpaceOnUse">
<stop/>
<stop offset="0.45" stop-color="#171618"/>
<stop offset="1"/>
</linearGradient>
<clipPath id="clip0_7475_5561">
<rect width="1957" height="1275" fill="white"/>
</clipPath>
</defs>
</svg>
