<svg preserveAspectRatio="none" width="100%" height="100%" overflow="visible" style="display: block;" viewBox="0 0 433 190.914" fill="none" xmlns="http://www.w3.org/2000/svg">
<g id="Layer_1" clip-path="url(#clip0_7467_5518)">
<path id="Vector" d="M410.976 146.917H349.435C337.272 146.917 327.412 156.764 327.412 168.911C327.412 181.058 337.272 190.906 349.435 190.906H410.976C423.14 190.906 433 181.058 433 168.911C433 156.764 423.14 146.917 410.976 146.917Z" fill="url(#paint0_linear_7467_5518)"/>
<path id="Vector_2" d="M227.078 132.188C227.078 124.052 233.679 117.451 241.832 117.451H366.984C379.143 117.451 389.008 107.605 389.008 95.4531C389.008 83.3008 379.151 73.4549 366.984 73.4549H361.642C353.496 73.4549 346.887 66.8618 346.887 58.7178C346.887 50.5818 353.488 43.9808 361.642 43.9808H402.249C414.408 43.9808 424.273 34.1349 424.273 21.9826C424.273 9.83821 414.416 -0.0156517 402.249 -0.0156517H179.718C167.559 -0.0156517 157.694 9.83026 157.694 21.9826C157.694 34.1269 167.552 43.9808 179.718 43.9808H311.009C319.154 43.9808 325.763 50.5739 325.763 58.7178C325.763 66.8538 319.162 73.4549 311.009 73.4549H22.0238C9.86534 73.4549 0 83.3008 0 95.4531C0 107.605 9.85738 117.451 22.0238 117.451H191.192C199.337 117.451 205.946 124.044 205.946 132.188C205.946 140.324 199.345 146.925 191.192 146.925H171.78C159.621 146.925 149.756 156.771 149.756 168.924C149.756 181.068 159.613 190.922 171.78 190.922H280.609C292.767 190.922 302.633 181.076 302.633 168.924C302.633 156.779 292.775 146.925 280.609 146.925H241.84C233.695 146.925 227.086 140.332 227.086 132.188H227.078Z" fill="url(#paint1_linear_7467_5518)"/>
</g>
<defs>
<linearGradient id="paint0_linear_7467_5518" x1="303.46" y1="164.925" x2="372.507" y2="229.571" gradientUnits="userSpaceOnUse">
<stop stop-color="#0B0515"/>
<stop offset="1" stop-color="#1C0A2B"/>
</linearGradient>
<linearGradient id="paint1_linear_7467_5518" x1="-96.2425" y1="78.1515" x2="201.067" y2="335.829" gradientUnits="userSpaceOnUse">
<stop stop-color="#0B0515"/>
<stop offset="1" stop-color="#1C0A2B"/>
</linearGradient>
<clipPath id="clip0_7467_5518">
<rect width="433" height="190.914" fill="white"/>
</clipPath>
</defs>
</svg>
