<svg preserveAspectRatio="none" width="100%" height="100%" overflow="visible" style="display: block;" viewBox="0 0 359 116.04" fill="none" xmlns="http://www.w3.org/2000/svg">
<g id="Layer_1" clip-path="url(#clip0_7467_5522)">
<path id="Vector" d="M36.3183 21.7339C36.3183 33.7403 45.9792 43.468 57.9032 43.468H81.1347C89.1179 43.468 95.5949 49.9819 95.5949 58.028C95.5949 66.0663 89.1257 72.5881 81.1347 72.5881H21.5849C9.66094 72.5802 -6.5131e-07 82.3079 -6.5131e-07 94.3063C-6.5131e-07 106.305 9.66094 116.04 21.5849 116.04H152.624C164.54 116.04 174.209 106.313 174.209 94.3063C174.209 82.3079 164.548 72.5723 152.624 72.5723H130.766C122.783 72.5723 116.306 66.0584 116.306 58.0123C116.306 49.974 122.775 43.4522 130.766 43.4522H337.415C349.331 43.4522 359 33.7246 359 21.7182C359 9.71188 349.339 -0.0157729 337.415 -0.0157729H57.9032C45.987 -0.0157729 36.3183 9.71188 36.3183 21.7182V21.7339Z" fill="url(#paint0_linear_7467_5522)"/>
<path id="Vector_2" d="M281.572 72.5804H221.257C209.336 72.5804 199.672 82.3092 199.672 94.3104C199.672 106.312 209.336 116.04 221.257 116.04H281.572C293.493 116.04 303.157 106.312 303.157 94.3104C303.157 82.3092 293.493 72.5804 281.572 72.5804Z" fill="url(#paint1_linear_7467_5522)"/>
</g>
<defs>
<linearGradient id="paint0_linear_7467_5522" x1="-81.4358" y1="47.496" x2="97.9573" y2="263.94" gradientUnits="userSpaceOnUse">
<stop stop-color="#0B0515"/>
<stop offset="1" stop-color="#1C0A2B"/>
</linearGradient>
<linearGradient id="paint1_linear_7467_5522" x1="176.198" y1="90.3723" x2="244.377" y2="153.694" gradientUnits="userSpaceOnUse">
<stop stop-color="#0B0515"/>
<stop offset="1" stop-color="#1C0A2B"/>
</linearGradient>
<clipPath id="clip0_7467_5522">
<rect width="359" height="116.04" fill="white"/>
</clipPath>
</defs>
</svg>
