<svg viewBox="0 0 488.149 276" fill="none" xmlns="http://www.w3.org/2000/svg">
  <!-- Solana mark + text: top-right area -->
  <svg x="283.2" y="29.2" width="204.8" height="29.5" viewBox="0 0 204.801 29.5487" overflow="visible">
    <g id="SolanaMark">
      <path d="M35.475 23.3003L29.5841 29.1481C29.3248 29.4018 28.9648 29.5487 28.5903 29.5487H0.676998C0.302517 29.5487 5.08868e-05 29.2549 5.08868e-05 28.9078C5.08868e-05 28.7476 0.0720666 28.6007 0.187292 28.4806L6.06377 22.6328C6.32303 22.3791 6.68311 22.2322 7.05759 22.2322H34.9709C35.3454 22.2322 35.6622 22.4992 35.6622 22.8464C35.6622 23.0066 35.6046 23.1668 35.475 23.287M29.5841 11.4979C29.3248 11.2442 28.9648 11.0974 28.5903 11.0974H0.676998C0.302517 11.1107 5.08868e-05 11.3911 5.08868e-05 11.7382C5.08868e-05 11.8984 0.0720666 12.0453 0.187292 12.1655L6.06377 18.0266C6.32303 18.2803 6.68311 18.4271 7.05759 18.4271H34.9709C35.3454 18.4271 35.6478 18.1334 35.6478 17.7863C35.6478 17.6261 35.5758 17.4792 35.4606 17.3591L29.5841 11.4979ZM0.676998 7.30564H28.5759C28.9504 7.30564 29.3104 7.15878 29.5697 6.9051L35.475 1.0573C35.7342 0.803628 35.7198 0.403093 35.4462 0.162772C35.4174 0.13607 35.3886 0.109368 35.3454 0.0960166C35.2301 0.0292608 35.1005 -0.0107926 34.9709 0.00255855H7.05759C6.68311 0.00255855 6.32303 0.149421 6.06377 0.403093L0.187292 6.2509C-0.0719648 6.50457 -0.0575617 6.9051 0.230501 7.14542C0.360129 7.25223 0.518564 7.31899 0.691402 7.31899" fill="white"/>
      <path d="M66.897 13.0357H52.6434V8.56297H70.5944V4.09023H52.5884C50.0043 4.09023 47.9013 6.07083 47.8876 8.53673V13.0751C47.8876 15.541 50.0043 17.5347 52.5884 17.5216H66.8557V21.9943H48.2174V26.467H66.8832C69.4673 26.467 71.5703 24.4864 71.584 22.0205V17.4822C71.584 15.0163 69.4673 13.0226 66.8832 13.0357M94.4833 4.07711H80.1884C77.6044 4.064 75.4876 6.04459 75.4739 8.5105V22.0074C75.4739 24.4733 77.5906 26.467 80.1747 26.4539C80.1747 26.4539 80.1747 26.4539 80.1884 26.4539H94.4833C97.0674 26.4539 99.1841 24.4733 99.1979 22.0074V8.52362C99.1979 6.71354 98.0433 5.08709 96.2839 4.40503C95.7204 4.18204 95.1018 4.07711 94.4833 4.07711ZM94.4421 21.9812H80.2159V8.54985H94.4421V21.9812ZM144.584 4.07711H130.633C128.049 4.07711 125.946 6.05771 125.918 8.52362V26.467H130.674V19.1087H144.557V26.467H149.312V8.52362C149.312 6.71354 148.144 5.07397 146.371 4.40503C145.794 4.18204 145.189 4.07711 144.57 4.07711H144.584ZM144.543 14.6359H130.66V8.56297H144.543V14.6359ZM200.1 4.07711H186.149C183.565 4.064 181.462 6.05771 181.435 8.52362V26.467H186.19V19.1087H200.045V26.467H204.801V8.52362C204.801 7.34313 204.293 6.20199 203.413 5.37565C202.533 4.53619 201.337 4.07711 200.1 4.09023M200.045 14.649H186.163V8.57608H200.045V14.649ZM172.459 22.0074H170.562L163.758 5.97901C163.291 4.85099 162.136 4.10335 160.858 4.10335H156.638C154.92 4.10335 153.505 5.415 153.505 7.06768V26.4933H158.26V8.54985H160.157L166.947 24.5783C167.428 25.7063 168.583 26.4408 169.861 26.4408H174.081C175.799 26.4408 177.215 25.1292 177.215 23.4765V4.07711H172.445V21.9812L172.459 22.0074ZM108.16 4.07711H103.404V22.0205C103.404 24.4864 105.521 26.4802 108.105 26.467C108.105 26.467 108.118 26.467 108.132 26.467H122.4V21.9943H108.173V4.07711H108.16Z" fill="white"/>
    </g>
  </svg>
  <!-- Accelerate text: full width below -->
  <svg x="0" y="59.1" width="488.149" height="187.75" viewBox="0 0 488.149 187.75" overflow="visible">
    <g id="Accelerate">
      <g id="GradientPaths">
        <path d="M121.106 151.159H101.513C102.312 152.686 103.377 154.127 104.733 155.48C105.978 156.723 107.553 157.649 109.449 158.282H89.8559C90.655 159.81 91.7204 161.25 93.0757 162.604C94.3213 163.846 95.8959 164.772 97.7918 165.406H78.1989C78.998 166.933 80.0634 168.374 81.4187 169.727C82.6643 170.97 84.2389 171.896 86.1348 172.529H66.5498C67.3489 174.057 68.4143 175.497 69.7696 176.851C71.0152 178.093 72.5898 179.019 74.4856 179.653H54.8928C55.6919 181.18 56.7573 182.621 58.1126 183.974C59.3582 185.217 60.9328 186.143 62.8286 186.776C64.7636 187.417 67.0355 187.734 69.6521 187.734H70.4355C73.1539 187.734 75.5197 187.409 77.5174 186.776C79.4446 186.167 81.0505 185.264 82.3275 184.061C83.5339 182.922 84.5131 181.711 85.2887 180.444C86.7067 180.286 88.0071 180.033 89.1744 179.661C91.1015 179.051 92.7075 178.149 93.9844 176.946C95.1909 175.806 96.1701 174.595 96.9457 173.329C98.1365 173.202 99.2332 172.988 100.252 172.711C100.447 172.656 100.651 172.608 100.839 172.545C102.766 171.935 104.372 171.033 105.649 169.83C106.856 168.69 107.835 167.479 108.611 166.213C109.801 166.078 110.898 165.873 111.916 165.596C112.112 165.54 112.316 165.493 112.504 165.429C113.546 165.097 114.494 164.677 115.34 164.171C116.061 163.743 116.727 163.261 117.306 162.714C118.513 161.575 119.492 160.364 120.267 159.097C121.458 158.971 122.555 158.757 123.573 158.48C123.769 158.425 123.973 158.377 124.161 158.314C125.203 157.981 126.151 157.562 126.989 157.055C127.71 156.628 128.376 156.145 128.955 155.599C130.162 154.459 131.141 153.248 131.917 151.982C132.136 151.562 132.191 151.19 132.191 151.19H121.067C121.067 151.19 121.09 151.198 121.098 151.206L121.106 151.159Z" fill="url(#paint0_linear)"/>
        <path d="M57.8619 6.49591C54.2896 55.0308 50.2472 109.684 46.6436 158.29V13.6194H46.2206C43.134 55.4977 38.0811 123.765 35.0023 165.421V20.735H34.5793C32.3152 51.4848 25.6407 141.661 23.361 172.529V27.8506H22.9379L11.7118 179.637V34.9741H11.2888L0 186.768H15.2293L15.8012 179.653H26.8863C27.0273 177.911 27.3171 174.294 27.4582 172.537H38.5433C38.6843 170.796 38.9741 167.179 39.1151 165.414H50.2002C50.3413 163.672 50.6311 160.055 50.7721 158.298H61.8572C61.9982 156.557 62.2881 152.924 62.4291 151.167H58.3006V6.49591H57.8619Z" fill="url(#paint1_linear)"/>
        <path d="M73.9764 151.159L74.4856 158.29H62.3273L62.8365 165.406H50.6781L51.1873 172.529H39.029L39.5382 179.645H27.3798L27.889 186.76H43.275L42.7501 179.645H54.9241L54.3993 172.521H66.5733C66.4558 170.899 66.1738 167.06 66.0484 165.406H78.2224C78.1049 163.783 77.8229 159.944 77.6976 158.29H89.8716C89.7541 156.667 89.3467 151.167 89.3467 151.167H73.9764V151.159Z" fill="url(#paint2_linear)"/>
        <path d="M363.325 151.159L362.596 158.282H351.676L350.947 165.406H340.019L339.29 172.521H328.37L327.641 179.637H316.713L315.984 186.76H331.214L331.942 179.637H342.87L343.027 178.085L343.599 172.521H354.52L354.684 170.97L355.248 165.406H366.177L366.333 163.846L366.905 158.282H377.826L377.982 156.731L378.554 151.159H363.325Z" fill="url(#paint3_linear)"/>
        <path d="M389.788 151.159L390.29 156.501L390.462 158.282H378.123L378.805 165.398H366.474L367.156 172.513H354.817L355.499 179.637H343.168L343.85 186.752H359.236L358.507 179.637H370.893L370.164 172.513L370.172 172.529H382.558L381.829 165.406H394.207L393.478 158.29H405.864L405.135 151.159H389.788Z" fill="url(#paint4_linear)"/>
        <path d="M167.648 151.174H148.055C148.854 152.702 149.919 154.143 151.274 155.496C152.52 156.739 154.095 157.665 155.991 158.298H136.398C137.197 159.826 138.262 161.266 139.617 162.62C140.863 163.862 142.438 164.788 144.334 165.421H124.741C125.54 166.949 126.605 168.39 127.96 169.743C129.206 170.986 130.781 171.912 132.677 172.545H113.092C113.891 174.073 114.956 175.513 116.311 176.867C117.557 178.109 119.132 179.035 121.027 179.668H101.435C102.234 181.196 103.299 182.637 104.654 183.99C105.9 185.233 107.475 186.159 109.37 186.792C111.305 187.433 113.577 187.75 116.194 187.75H116.977C119.696 187.75 122.061 187.425 124.059 186.792C125.986 186.183 127.592 185.28 128.869 184.077C130.076 182.937 131.055 181.726 131.83 180.46C133.248 180.302 134.549 180.048 135.716 179.676C137.643 179.067 139.249 178.165 140.526 176.962C141.733 175.822 142.712 174.611 143.487 173.344C144.678 173.218 145.775 173.004 146.793 172.727C146.989 172.672 147.193 172.624 147.381 172.561C149.308 171.951 150.914 171.049 152.191 169.846C153.397 168.706 154.377 167.495 155.152 166.229C156.343 166.094 157.44 165.888 158.458 165.611C158.654 165.556 158.858 165.509 159.046 165.445C160.088 165.113 161.036 164.693 161.882 164.187C162.602 163.759 163.268 163.276 163.848 162.73C165.054 161.591 166.034 160.38 166.809 159.113C168 158.987 169.097 158.773 170.115 158.496C170.311 158.44 170.515 158.393 170.703 158.33C171.745 157.997 172.693 157.578 173.531 157.071C174.252 156.644 174.917 156.161 175.497 155.615C176.704 154.475 177.683 153.264 178.458 151.998C178.678 151.578 178.733 151.206 178.733 151.206H167.608C167.608 151.206 167.632 151.214 167.64 151.222L167.648 151.174Z" fill="url(#paint5_linear)"/>
        <path d="M193.421 151.159V158.29H181.772V165.406H170.123V172.521H158.474V179.645H146.817V186.76H175.544V179.645H187.193V172.521H198.85V165.406H210.499V158.29H222.149V151.159H193.414H193.421Z" fill="url(#paint6_linear)"/>
        <path d="M234.652 151.159V158.29H222.995V165.406H211.346V172.521H199.689V179.645H188.039V186.76H216.539V179.645H228.189V172.521H239.846V165.406H251.495V158.29H263.144V151.159H234.644H234.652Z" fill="url(#paint7_linear)"/>
        <path d="M274.033 151.159V158.29H262.384V165.406H250.735V172.521H239.086V179.645H227.429V186.76H256.156V179.645H267.813V172.521H279.462V165.406H291.119V158.29H302.768V151.159H274.033Z" fill="url(#paint8_linear)"/>
        <path d="M418.688 151.159V158.29H407.039V165.406H395.382V172.529H383.733V179.645H372.076V186.768H387.305V179.645H398.962V172.529H410.611V165.406H422.268V158.29H433.917V151.159H418.688Z" fill="url(#paint9_linear)"/>
        <path d="M451.176 151.159V158.29H439.518V165.406H427.869V172.529H416.22V179.645H404.563V186.768H433.298V179.645H444.955V172.529H456.604V165.406H468.261V158.29H479.911V151.159H451.176Z" fill="url(#paint10_linear)"/>
        <path d="M339.408 163.751C339.384 162.509 339.369 160.688 339.345 158.29H351.096L350.994 151.159H335.319V158.29H330.297V151.159H315.232V158.298H303.583V165.414H291.926V172.529H280.277V179.645H268.628V186.76H283.7V179.645H288.722V186.76H304.5C304.468 185.89 304.437 183.507 304.398 179.645H316.149C316.117 178.758 316.086 176.384 316.047 172.513H327.798C327.767 171.643 327.735 169.26 327.696 165.398H339.447C339.439 165.065 339.424 164.503 339.416 163.736L339.408 163.751ZM300.355 179.645H295.334V172.521H300.355V179.645ZM312.012 172.529H306.991V165.414H312.012V172.529ZM323.662 165.406H318.64V158.29H323.662V165.406Z" fill="url(#paint11_linear)"/>
      </g>
      <g id="WhitePaths">
        <path d="M220.213 134.779V92.3462H233.872V76.7463H220.213V34.3135L233.872 35.7245V20.5976L205.136 17.0582V151.167H233.872V134.779H220.213Z" fill="white"/>
        <path d="M261.526 134.779V24.1212L245.579 22.1584V151.167H274.087V134.779H261.526Z" fill="white"/>
        <path d="M298.646 98.2425H312.305V82.7135H298.646V44.9237L312.305 46.2559V30.8057L283.561 27.2427V151.175H312.305V134.787H298.646V98.2425Z" fill="white"/>
        <path d="M442.143 64.2285L451.719 65.1902V47.9743L417.326 43.694V61.706L426.909 62.7387V151.167H442.143V64.2285Z" fill="white"/>
        <path d="M488.149 134.779H474.483V110.027H488.149V94.8135H474.483V67.6338L488.149 69.0133V52.6172L459.406 49.0542V151.167H488.149V134.779Z" fill="white"/>
        <path d="M192.896 69.3996V37.9869C192.896 31.9487 192.653 26.1234 191.211 22.7732C187.858 14.9851 181.205 13.4164 175.147 13.4164C165.446 13.4164 161.504 16.869 158.707 24.0108C157.304 27.5896 157.398 36.0083 157.398 40.7537V124.839C157.398 129.584 157.312 138.011 158.707 141.582C161.504 148.723 165.446 152.176 175.147 152.176C181.197 152.176 187.858 150.607 191.211 142.819C192.653 139.477 192.896 133.644 192.896 127.606V88.8857L178.054 92.827V128.615C178.054 128.615 178.047 133.636 177.326 134.834C176.949 135.465 175.868 135.756 175.147 135.756C174.489 135.756 173.549 135.449 173.204 134.81C172.334 133.242 172.561 128.749 172.561 128.749V36.836C172.561 36.836 172.334 32.3428 173.204 30.7742C173.556 30.1436 174.489 29.8283 175.147 29.8283C175.868 29.8283 176.949 30.1278 177.326 30.7505C178.047 31.9487 178.054 36.97 178.054 36.97V73.3409L192.896 69.3996Z" fill="white"/>
        <path d="M145.558 66.1361V32.0748C145.558 26.0367 145.315 20.2113 143.873 16.8612C140.519 9.07302 133.866 7.50436 127.809 7.50436C118.107 7.50436 114.166 10.957 111.368 18.0987C109.965 21.6775 110.06 30.0963 110.06 34.8417V124.839C110.06 129.584 109.973 138.011 111.368 141.582C114.166 148.723 118.107 152.176 127.809 152.176C133.858 152.176 140.519 150.607 143.873 142.819C145.315 139.477 145.558 133.644 145.558 127.606V86.2213L130.716 90.1627V128.622C130.716 128.622 130.708 133.644 129.987 134.842C129.611 135.473 128.529 135.764 127.809 135.764C127.15 135.764 126.21 135.457 125.865 134.818C124.995 133.25 125.223 128.757 125.223 128.757V30.9239C125.223 30.9239 124.995 26.4308 125.865 24.8621C126.218 24.2315 127.15 23.9162 127.809 23.9162C128.529 23.9162 129.611 24.2157 129.987 24.8385C130.708 26.0367 130.716 31.058 130.716 31.058V70.0775L145.558 66.1361Z" fill="white"/>
        <path d="M69.5227 0C65.9416 48.3921 61.9059 102.704 58.3013 151.167H73.5192C74.3263 141.164 75.4626 126.928 76.2619 116.948H83.722C84.1608 123.105 85.728 145.129 86.159 151.167H101.549C98.1093 104.785 93.9561 49.0227 90.5238 2.6013L69.5149 0H69.5227ZM76.5832 100.544C77.2101 90.8091 79.4904 41.069 79.5688 32.0827H80.1957C80.3759 46.0273 82.6954 86.0952 83.3458 100.544H76.5832Z" fill="white"/>
        <path d="M361.289 134.322C361.289 133.762 361.289 133.187 361.281 132.595C361.218 123.649 361.156 116.593 361.109 111.407C361.101 110.311 361.093 109.286 361.077 108.348C361.077 107.166 360.944 106.054 360.709 104.99C360.552 104.281 360.356 103.595 360.098 102.941C359.737 102.034 359.298 101.238 358.805 100.528C358.405 99.953 357.958 99.4406 357.473 98.9992C357.175 98.7312 356.869 98.5105 356.556 98.3134C355.709 97.7853 354.816 97.5251 353.86 97.5251V96.8866C354.894 96.8866 355.874 96.5713 356.806 95.9565C357.237 95.6648 357.653 95.3259 358.068 94.9002C358.46 94.4903 358.828 94.0489 359.165 93.5917C359.471 93.1896 359.753 92.7561 360.019 92.3147C360.207 91.9993 360.403 91.6683 360.576 91.3214C360.787 90.9115 360.983 90.4859 361.163 90.0444C361.947 88.1368 362.339 86.379 362.339 84.7945V53.1927C362.339 43.7649 358.468 36.434 343.791 34.6131L325.587 32.3586V151.175H340.656V103.823H342.85C343.015 103.823 343.164 103.839 343.312 103.855C344.041 103.965 344.574 104.336 344.927 104.99C344.982 105.1 345.036 105.211 345.083 105.329C345.123 105.432 345.146 105.51 345.185 105.613C345.507 106.488 345.679 107.197 345.679 107.725V151.175H361.461C361.453 150.844 361.438 150.284 361.43 149.535C361.391 146.95 361.336 141.881 361.281 134.337L361.289 134.322ZM346.549 86.1346C346.549 86.7731 346.353 87.3801 345.961 87.9634C345.569 88.5467 344.77 88.8384 343.563 88.8384H340.656V52.1443H343.485C344.747 52.1443 345.569 52.4596 345.953 53.0981C346.345 53.7366 346.541 54.3751 346.541 55.0057V86.1267L346.549 86.1346Z" fill="white"/>
        <path d="M408.839 100.111L402.883 42.212L382.251 39.6501L371.695 142.417L371.617 143.206L370.802 151.151H385.503L387.854 128.228H397.045L399.24 151.151H414.066L408.831 100.095L408.839 100.111ZM389.35 113.046L392.015 67.3816L392.093 63.4796H392.72L392.79 67.3343L395.557 113.046H389.342H389.35Z" fill="white"/>
      </g>
    </g>
  </svg>
  <defs>
    <linearGradient id="paint0_linear" x1="45.9174" y1="182.258" x2="137.566" y2="24.5578" gradientUnits="userSpaceOnUse">
      <stop stop-color="#9945FF"/>
      <stop offset="1" stop-color="#19FB9B"/>
    </linearGradient>
    <linearGradient id="paint1_linear" x1="45.9174" y1="182.258" x2="137.566" y2="24.5578" gradientUnits="userSpaceOnUse">
      <stop stop-color="#9945FF"/>
      <stop offset="1" stop-color="#19FB9B"/>
    </linearGradient>
    <linearGradient id="paint2_linear" x1="45.9174" y1="182.258" x2="137.566" y2="24.5578" gradientUnits="userSpaceOnUse">
      <stop stop-color="#9945FF"/>
      <stop offset="1" stop-color="#19FB9B"/>
    </linearGradient>
    <linearGradient id="paint3_linear" x1="45.9174" y1="182.258" x2="137.566" y2="24.5578" gradientUnits="userSpaceOnUse">
      <stop stop-color="#9945FF"/>
      <stop offset="1" stop-color="#19FB9B"/>
    </linearGradient>
    <linearGradient id="paint4_linear" x1="45.9174" y1="182.258" x2="137.566" y2="24.5578" gradientUnits="userSpaceOnUse">
      <stop stop-color="#9945FF"/>
      <stop offset="1" stop-color="#19FB9B"/>
    </linearGradient>
    <linearGradient id="paint5_linear" x1="45.9174" y1="182.258" x2="137.566" y2="24.5578" gradientUnits="userSpaceOnUse">
      <stop stop-color="#9945FF"/>
      <stop offset="1" stop-color="#19FB9B"/>
    </linearGradient>
    <linearGradient id="paint6_linear" x1="45.9174" y1="182.258" x2="137.566" y2="24.5578" gradientUnits="userSpaceOnUse">
      <stop stop-color="#9945FF"/>
      <stop offset="1" stop-color="#19FB9B"/>
    </linearGradient>
    <linearGradient id="paint7_linear" x1="45.9174" y1="182.258" x2="137.566" y2="24.5578" gradientUnits="userSpaceOnUse">
      <stop stop-color="#9945FF"/>
      <stop offset="1" stop-color="#19FB9B"/>
    </linearGradient>
    <linearGradient id="paint8_linear" x1="45.9174" y1="182.258" x2="137.566" y2="24.5578" gradientUnits="userSpaceOnUse">
      <stop stop-color="#9945FF"/>
      <stop offset="1" stop-color="#19FB9B"/>
    </linearGradient>
    <linearGradient id="paint9_linear" x1="45.9174" y1="182.258" x2="137.566" y2="24.5578" gradientUnits="userSpaceOnUse">
      <stop stop-color="#9945FF"/>
      <stop offset="1" stop-color="#19FB9B"/>
    </linearGradient>
    <linearGradient id="paint10_linear" x1="45.9174" y1="182.258" x2="137.566" y2="24.5578" gradientUnits="userSpaceOnUse">
      <stop stop-color="#9945FF"/>
      <stop offset="1" stop-color="#19FB9B"/>
    </linearGradient>
    <linearGradient id="paint11_linear" x1="45.9174" y1="182.258" x2="137.566" y2="24.5578" gradientUnits="userSpaceOnUse">
      <stop stop-color="#9945FF"/>
      <stop offset="1" stop-color="#19FB9B"/>
    </linearGradient>
  </defs>
</svg>
