<svg preserveAspectRatio="none" width="100%" height="100%" overflow="visible" style="display: block;" viewBox="0 0 120 99" fill="none" xmlns="http://www.w3.org/2000/svg">
<path id="Mark" d="M119.37 78.0655L99.5477 97.658C98.6753 98.508 97.4637 99 96.2036 99H2.27787C1.01777 99 0 98.0159 0 96.8529C0 96.3161 0.242326 95.824 0.630048 95.4215L20.4039 75.8289C21.2763 74.979 22.4879 74.487 23.748 74.487H117.674C118.934 74.487 120 75.3816 120 76.5447C120 77.0814 119.806 77.6182 119.37 78.0208M99.5477 38.5226C98.6753 37.6727 97.4637 37.1807 96.2036 37.1807H2.27787C1.01777 37.2254 0 38.1648 0 39.3278C0 39.8646 0.242326 40.3566 0.630048 40.7592L20.4039 60.3965C21.2763 61.2464 22.4879 61.7384 23.748 61.7384H117.674C118.934 61.7384 119.952 60.7543 119.952 59.5913C119.952 59.0545 119.709 58.5625 119.321 58.1599L99.5477 38.5226ZM2.27787 24.4769H96.1551C97.4152 24.4769 98.6268 23.9848 99.4992 23.1349L119.37 3.54238C120.242 2.69248 120.194 1.35052 119.273 0.545352C119.176 0.455888 119.079 0.366425 118.934 0.321693C118.546 0.0980342 118.11 -0.0361611 117.674 0.00857069H23.748C22.4879 0.00857069 21.2763 0.50062 20.4039 1.35052L0.630048 20.943C-0.242326 21.7929 -0.193861 23.1349 0.775444 23.9401C1.21163 24.2979 1.74475 24.5216 2.32633 24.5216" fill="url(#paint0_linear_9538_153)"/>
<defs>
<linearGradient id="paint0_linear_9538_153" x1="10.1292" y1="101.371" x2="99.8282" y2="-8.25607" gradientUnits="userSpaceOnUse">
<stop offset="0.08" stop-color="#9945FF"/>
<stop offset="0.3" stop-color="#8752F3"/>
<stop offset="0.5" stop-color="#5497D5"/>
<stop offset="0.6" stop-color="#43B4CA"/>
<stop offset="0.72" stop-color="#28E0B9"/>
<stop offset="0.97" stop-color="#19FB9B"/>
</linearGradient>
</defs>
</svg>
