<svg width="1915" height="402" viewBox="0 0 1915 402" fill="none" xmlns="http://www.w3.org/2000/svg">
<path d="M630.258 333.979H591.407V115.357H508.761V80.3912H712.903V115.357H630.258V333.979ZM780.083 228.377V333.979H744.412V80.3912H780.083V176.811C792.445 156.68 811.517 143.259 837.3 143.259C875.797 143.259 901.227 167.982 901.227 212.836V333.979H865.555V224.845C865.555 192.705 851.427 174.692 824.938 174.692C800.568 174.692 780.083 195.177 780.083 228.377ZM1025.59 337.511C971.555 337.511 935.177 298.308 935.177 239.325C935.177 183.875 972.968 143.259 1024.53 143.259C1080.34 143.259 1117.42 188.466 1111.06 249.215H971.555C974.38 287.359 993.453 309.61 1024.89 309.61C1051.38 309.61 1069.74 295.129 1075.75 270.759H1111.06C1101.88 312.435 1069.74 337.511 1025.59 337.511ZM1023.83 170.101C995.218 170.101 975.793 190.586 971.908 225.551H1073.27C1071.51 190.939 1052.79 170.101 1023.83 170.101ZM1340.41 339.277C1267.3 339.277 1210.79 283.827 1210.79 206.832C1210.79 131.957 1264.48 75.0934 1338.29 75.0934C1403.63 75.0934 1447.78 115.004 1463.32 167.628H1418.11C1408.58 135.135 1380.68 110.059 1337.23 110.059C1287.08 110.059 1251.06 147.85 1251.06 207.539C1251.06 263.695 1285.31 306.078 1341.82 306.078C1388.8 306.078 1418.47 277.116 1425.53 233.674H1337.94V202.594H1466.5C1467.91 283.827 1418.11 339.277 1340.41 339.277ZM1539.92 238.266V333.979H1504.25V146.79H1537.45V186.347C1550.51 160.565 1578.77 144.318 1609.5 144.318V181.403C1569.23 179.284 1539.92 196.943 1539.92 238.266ZM1681.17 103.348C1681.17 116.769 1670.57 127.012 1655.39 127.012C1640.2 127.012 1629.25 116.769 1629.25 103.348C1629.25 89.5741 1640.2 79.6849 1655.39 79.6849C1670.57 79.6849 1681.17 89.5741 1681.17 103.348ZM1673.4 333.979H1637.73V146.79H1673.4V333.979ZM1709.5 240.385C1709.5 183.522 1741.99 143.259 1792.5 143.259C1817.57 143.259 1839.47 155.973 1852.54 178.93V80.3912H1888.21V333.979H1855.01V300.427C1841.59 324.09 1818.99 337.511 1792.5 337.511C1741.99 337.511 1709.5 296.542 1709.5 240.385ZM1746.58 240.385C1746.58 282.061 1768.48 305.725 1799.56 305.725C1829.93 305.725 1852.54 281.001 1852.54 239.679C1852.54 197.649 1829.23 174.692 1799.56 174.692C1768.48 174.692 1746.58 198.002 1746.58 240.385Z" fill="white"/>
<path d="M0 401.955H71.7924C71.7924 277.456 160.08 201 299.107 201H372.222V0H299.107C299.107 124.5 210.382 201 71.7924 201H0V402V401.955Z" fill="#F8FF91"/>
</svg>
