<svg width="18" height="12" viewBox="0 0 18 12" fill="none" xmlns="http://www.w3.org/2000/svg">
<path d="M17.5091 4C17.6455 4 17.7614 3.95513 17.8568 3.86538C17.9523 3.77564 18 3.66667 18 3.53846V1.07692C18 0.78205 17.8875 0.528847 17.6625 0.317308C17.4375 0.105768 17.1682 0 16.8545 0H1.14545C0.831817 0 0.562501 0.105768 0.3375 0.317308C0.112499 0.528847 0 0.78205 0 1.07692V3.53846C0 3.66667 0.0477268 3.77564 0.143182 3.86538C0.238637 3.95513 0.354545 4 0.490909 4C1.07728 4 1.57841 4.19551 1.99432 4.58654C2.41023 4.97757 2.61818 5.44872 2.61818 6C2.61818 6.55129 2.41023 7.02243 1.99432 7.41346C1.57841 7.80449 1.07728 8 0.490909 8C0.354545 8 0.238637 8.04487 0.143182 8.13462C0.0477268 8.22436 0 8.33333 0 8.46154V10.9231C0 11.218 0.112499 11.4712 0.3375 11.6827C0.562501 11.8942 0.831817 12 1.14545 12H16.8545C17.1682 12 17.4375 11.8942 17.6625 11.6827C17.8875 11.4712 18 11.218 18 10.9231V8.46154C18 8.33333 17.9523 8.22436 17.8568 8.13462C17.7614 8.04487 17.6455 8 17.5091 8C16.9227 8 16.4216 7.80449 16.0057 7.41346C15.5898 7.02243 15.3818 6.55129 15.3818 6C15.3818 5.44872 15.5898 4.97757 16.0057 4.58654C16.4216 4.19551 16.9227 4 17.5091 4ZM0.981818 10.9231V8.88462C1.73182 8.76923 2.35568 8.44231 2.85341 7.90385C3.35114 7.36538 3.6 6.73077 3.6 6C3.6 5.26923 3.35114 4.63462 2.85341 4.09615C2.35568 3.55769 1.73864 3.23077 1.00227 3.11538H0.981818V1.07692C0.981818 1.03846 0.998863 1.00321 1.03295 0.971154C1.06705 0.939102 1.10455 0.923077 1.14545 0.923077H5.89091V11.0769H1.14545C1.10455 11.0769 1.06705 11.0609 1.03295 11.0288C0.998863 10.9968 0.981818 10.9615 0.981818 10.9231ZM17.0182 8.88462V10.9231C17.0182 10.9615 17.0011 10.9968 16.967 11.0288C16.933 11.0609 16.8955 11.0769 16.8545 11.0769H6.87273V0.923077H16.8545C16.8955 0.923077 16.933 0.939102 16.967 0.971154C17.0011 1.00321 17.0182 1.03846 17.0182 1.07692V3.11538C16.2682 3.23077 15.6443 3.55769 15.1466 4.09615C14.6489 4.63462 14.4 5.26923 14.4 6C14.4 6.73077 14.6489 7.36538 15.1466 7.90385C15.6443 8.44231 16.2614 8.76923 16.9977 8.88462H17.0182Z" fill="black"/>
</svg>
