<svg preserveAspectRatio="none" width="100%" height="100%" overflow="visible" style="display: block;" viewBox="0 0 1920 526" fill="none" xmlns="http://www.w3.org/2000/svg">
<g id="Footer Element" clip-path="url(#clip0_7467_5513)">
<g id="Ellipse 18" filter="url(#filter0_f_7467_5513)">
<ellipse cx="394.489" cy="64.6805" rx="394.489" ry="64.6805" transform="matrix(-0.984899 -0.173131 0.173443 -0.984844 792.584 509.496)" fill="var(--fill-0, #893AE9)"/>
</g>
<g id="Vector">
<path d="M1825.02 461.589C1861.45 478.873 1897.02 497.989 1931.75 518.478C1915.02 507.472 1897.56 496.586 1880.29 486.503C1766.54 420.374 1641.08 374.714 1511.94 349.774C1412.51 330.744 1310.6 323.28 1209.54 330.344C1189.93 331.754 1170.33 333.697 1150.83 336.33C1333.18 309.061 1538.48 333.915 1708.84 388.178C1789.82 413.993 1868.14 447.989 1942.43 489.755C1858.6 437.011 1766.69 396.802 1671.7 368.322C1530.71 326.595 1382.03 309.194 1235.32 320.431C1219.15 321.702 1202.99 323.362 1186.88 325.446C1348.39 301.771 1529.68 319.481 1675.03 355.432C1693.99 360.244 1713.81 365.55 1732.49 371.176C1808.62 393.876 1882.63 423.862 1953.13 461.025C1946.33 457.129 1941.35 454.034 1933.71 449.827C1925.5 445.161 1915.75 439.973 1907.42 435.572C1890.38 426.659 1871.12 417.366 1853.57 409.465C1687.02 335.105 1502.87 301.563 1320.8 306.916C1301.13 307.575 1281.45 308.727 1261.82 310.419C1262.88 310.308 1263.93 310.197 1264.99 310.088C1281.84 308.463 1299.73 307.136 1316.64 306.232C1479.12 297.926 1643.32 318.112 1798.67 366.605C1855.29 384.309 1910.45 406.278 1963.82 432.299C1909.65 402.319 1852.3 377.978 1793.55 358.332C1645.02 309.366 1487.1 289.04 1331 297.235C1327.49 297.418 1323.98 297.635 1320.46 297.857C1322.72 297.672 1324.98 297.498 1327.22 297.331C1544.63 281.955 1774.64 315.153 1974.51 403.573C1886.6 359.002 1791.5 328.982 1694.95 309.708C1587.6 288.653 1477.52 280.26 1368.25 286.306C1421.35 282.442 1474.68 281.679 1527.87 283.673C1615.58 286.971 1703.08 297.631 1788.92 315.984C1855.77 330.363 1921.59 349.57 1985.19 374.85C1949.62 358.494 1912.84 344.729 1875.49 332.786C1723.98 285.317 1558.24 266.08 1398.31 275.71C1543.56 264.196 1692.92 275.764 1826.86 301.417C1884.1 312.653 1940.61 327.297 1995.89 346.12C1959.74 331.614 1922.57 319.636 1884.95 309.339C1734.12 269.014 1576.34 254.882 1420.65 265.434C1319.44 272.922 1217.56 290.902 1123.04 328.444C1116.53 330.826 1110.06 333.305 1103.63 335.886C1097.52 338.127 1091.45 340.465 1085.41 342.903C1079.91 344.911 1074.45 347.001 1069.01 349.185C1062.64 351.466 1056.31 353.871 1050.05 356.426C1044.2 358.514 1038.41 360.724 1032.68 363.078C1026.58 365.212 1020.55 367.503 1014.61 370C1009.39 371.842 1004.22 373.829 999.112 375.957C993.149 377.957 987.261 380.18 981.496 382.681C975.921 384.485 970.43 386.522 965.103 388.947C960.274 390.424 955.519 392.125 950.93 394.226C953.342 393.266 955.785 392.393 958.261 391.633L961.988 390.526L965.745 389.525C980.828 385.747 996.204 383.281 1011.62 381.319C1052.75 376.238 1094.26 374.778 1135.68 375.563C1309.13 379.159 1480.87 421.347 1639.07 491.768C1678.96 509.543 1718.97 529.66 1757.08 550.963C1802.35 576.196 1846.27 603.98 1889 633.364C1856 608.134 1821.7 584.572 1786.48 562.429C1609.93 452.329 1406.44 383.102 1198.19 371.109C1125.54 367.423 1051.83 368.929 980.619 384.783C975.834 385.956 971.03 387.179 966.294 388.591C994.502 378.201 1024.63 374.308 1054.34 370.703C1087.55 367.132 1121 365.618 1154.4 365.67C1367.84 366.454 1579.47 424.893 1767.36 525.117C1785.16 534.583 1803.86 545.1 1821.22 555.289C1841 566.963 1860.99 579.385 1880.33 591.881C1884.91 594.95 1894.76 601.356 1899.69 604.64C1821.02 546.351 1735.23 497.082 1645.05 458.394C1497.74 395.468 1338.01 359.79 1177.6 359.141C1146.61 359.012 1115.51 360.419 1084.68 363.387C1053.85 366.558 1023.06 371.069 993.126 379.187C991.626 379.612 990.129 380.043 988.63 380.481C1023.36 368.79 1060.31 364.013 1096.62 360.153C1132.14 356.713 1167.93 355.5 1203.62 355.857C1394.96 358.363 1585 405.877 1756.97 489.235C1782.02 501.406 1807.34 514.722 1831.63 528.307C1848.87 538.106 1867.51 548.972 1884.42 559.542C1887.72 561.542 1894.19 565.554 1897.43 567.677L1910.39 575.905C1743.69 456.428 1545.83 380.248 1341.98 356.453C1268.09 347.89 1193.15 346.015 1119.06 353.039C1090.99 355.774 1062.96 359.826 1035.45 366.008C1028.9 367.512 1022.35 369.113 1015.85 370.887C1036.21 364.769 1057.17 360.58 1078.12 357.035C1128.14 348.939 1178.89 345.851 1229.51 345.78C1442.33 346.348 1654.42 401.237 1841.93 501.503C1849.63 505.549 1857.64 510.09 1865.32 514.269C1874.17 519.298 1886.37 526.205 1894.99 531.414C1902.8 535.958 1913.17 542.341 1921.08 547.173C1719.74 408.598 1473.85 335.039 1229.44 338.445C1188.69 339.106 1147.9 342.173 1107.59 348.194C1092.24 350.661 1076.84 353.393 1061.59 356.783C1078.4 352.796 1095.41 349.63 1112.42 346.907C1349.57 312.321 1609.31 359.28 1825.04 461.563L1825.02 461.589ZM1187.73 383.124C1125 378.127 1061.71 377.9 999.236 385.753C983.651 387.815 968.094 390.309 952.846 394.158C947.783 395.467 942.699 396.868 937.92 399.006C947.703 395.412 958.165 393.805 968.438 392.129C999.411 387.434 1030.76 385.616 1062.06 385.087C1119.26 384.122 1177 388.224 1233.67 395.966C1383.54 416.531 1529.22 464.259 1664.17 532.188C1696.41 548.511 1729.17 566.434 1760.2 584.994C1800.63 609.015 1839.88 634.931 1878.31 662.124C1845.4 636.272 1811.21 612.025 1776.09 589.153C1600.24 475.195 1397.2 400.376 1187.73 383.132L1187.73 383.124ZM1177.2 395.675C1098.5 387.788 1018.31 385.891 940.214 399.801C935.077 400.887 929.811 401.844 924.901 403.757C926.137 403.298 927.414 402.967 928.695 402.675L930.62 402.245L932.558 401.864C971.466 395.204 1011.15 394.152 1050.55 394.387C1218.81 396.617 1385.5 436.765 1540.02 502.367C1656.29 551.8 1765.63 616.443 1867.61 690.847C1812.18 646.295 1753.19 605.714 1691.85 569.625C1534.62 477.574 1358.78 415.031 1177.19 395.686L1177.2 395.675ZM1369.32 453.414C1227.5 409.758 1059.19 385.014 911.894 408.513C975.074 400.751 1039.15 402.734 1102.43 408.413C1213.09 418.922 1322.3 444.797 1426.73 482.634C1541.29 524.106 1650.5 580.174 1752.49 646.674C1788.1 669.759 1822.83 694.217 1856.93 719.567C1768.55 647.121 1672.05 584.132 1569.52 533.457C1505.09 501.642 1438 474.623 1369.32 453.42L1369.32 453.414Z" fill="var(--fill-0, #E81E25)"/>
<path d="M1825.02 461.589C1861.45 478.873 1897.02 497.989 1931.75 518.478C1915.02 507.472 1897.56 496.586 1880.29 486.503C1766.54 420.374 1641.08 374.714 1511.94 349.774C1412.51 330.744 1310.6 323.28 1209.54 330.344C1189.93 331.754 1170.33 333.697 1150.83 336.33C1333.18 309.061 1538.48 333.915 1708.84 388.178C1789.82 413.993 1868.14 447.989 1942.43 489.755C1858.6 437.011 1766.69 396.802 1671.7 368.322C1530.71 326.595 1382.03 309.194 1235.32 320.431C1219.15 321.702 1202.99 323.362 1186.88 325.446C1348.39 301.771 1529.68 319.481 1675.03 355.432C1693.99 360.244 1713.81 365.55 1732.49 371.176C1808.62 393.876 1882.63 423.862 1953.13 461.025C1946.33 457.129 1941.35 454.034 1933.71 449.827C1925.5 445.161 1915.75 439.973 1907.42 435.572C1890.38 426.659 1871.12 417.366 1853.57 409.465C1687.02 335.105 1502.87 301.563 1320.8 306.916C1301.13 307.575 1281.45 308.727 1261.82 310.419C1262.88 310.308 1263.93 310.197 1264.99 310.088C1281.84 308.463 1299.73 307.136 1316.64 306.232C1479.12 297.926 1643.32 318.112 1798.67 366.605C1855.29 384.309 1910.45 406.278 1963.82 432.299C1909.65 402.319 1852.3 377.978 1793.55 358.332C1645.02 309.366 1487.1 289.04 1331 297.235C1327.49 297.418 1323.98 297.635 1320.46 297.857C1322.72 297.672 1324.98 297.498 1327.22 297.331C1544.63 281.955 1774.64 315.153 1974.51 403.573C1886.6 359.002 1791.5 328.982 1694.95 309.708C1587.6 288.653 1477.52 280.26 1368.25 286.306C1421.35 282.442 1474.68 281.679 1527.87 283.673C1615.58 286.971 1703.08 297.631 1788.92 315.984C1855.77 330.363 1921.59 349.57 1985.19 374.85C1949.62 358.494 1912.84 344.729 1875.49 332.786C1723.98 285.317 1558.24 266.08 1398.31 275.71C1543.56 264.196 1692.92 275.764 1826.86 301.417C1884.1 312.653 1940.61 327.297 1995.89 346.12C1959.74 331.614 1922.57 319.636 1884.95 309.339C1734.12 269.014 1576.34 254.882 1420.65 265.434C1319.44 272.922 1217.56 290.902 1123.04 328.444C1116.53 330.826 1110.06 333.305 1103.63 335.886C1097.52 338.127 1091.45 340.465 1085.41 342.903C1079.91 344.911 1074.45 347.001 1069.01 349.185C1062.64 351.466 1056.31 353.871 1050.05 356.426C1044.2 358.514 1038.41 360.724 1032.68 363.078C1026.58 365.212 1020.55 367.503 1014.61 370C1009.39 371.842 1004.22 373.829 999.112 375.957C993.149 377.957 987.261 380.18 981.496 382.681C975.921 384.485 970.43 386.522 965.103 388.947C960.274 390.424 955.519 392.125 950.93 394.226C953.342 393.266 955.785 392.393 958.261 391.633L961.988 390.526L965.745 389.525C980.828 385.747 996.204 383.281 1011.62 381.319C1052.75 376.238 1094.26 374.778 1135.68 375.563C1309.13 379.159 1480.87 421.347 1639.07 491.768C1678.96 509.543 1718.97 529.66 1757.08 550.963C1802.35 576.196 1846.27 603.98 1889 633.364C1856 608.134 1821.7 584.572 1786.48 562.429C1609.93 452.329 1406.44 383.102 1198.19 371.109C1125.54 367.423 1051.83 368.929 980.619 384.783C975.834 385.956 971.03 387.179 966.294 388.591C994.502 378.201 1024.63 374.308 1054.34 370.703C1087.55 367.132 1121 365.618 1154.4 365.67C1367.84 366.454 1579.47 424.893 1767.36 525.117C1785.16 534.583 1803.86 545.1 1821.22 555.289C1841 566.963 1860.99 579.385 1880.33 591.881C1884.91 594.95 1894.76 601.356 1899.69 604.64C1821.02 546.351 1735.23 497.082 1645.05 458.394C1497.74 395.468 1338.01 359.79 1177.6 359.141C1146.61 359.012 1115.51 360.419 1084.68 363.387C1053.85 366.558 1023.06 371.069 993.126 379.187C991.626 379.612 990.129 380.043 988.63 380.481C1023.36 368.79 1060.31 364.013 1096.62 360.153C1132.14 356.713 1167.93 355.5 1203.62 355.857C1394.96 358.363 1585 405.877 1756.97 489.235C1782.02 501.406 1807.34 514.722 1831.63 528.307C1848.87 538.106 1867.51 548.972 1884.42 559.542C1887.72 561.542 1894.19 565.554 1897.43 567.677L1910.39 575.905C1743.69 456.428 1545.83 380.248 1341.98 356.453C1268.09 347.89 1193.15 346.015 1119.06 353.039C1090.99 355.774 1062.96 359.826 1035.45 366.008C1028.9 367.512 1022.35 369.113 1015.85 370.887C1036.21 364.769 1057.17 360.58 1078.12 357.035C1128.14 348.939 1178.89 345.851 1229.51 345.78C1442.33 346.348 1654.42 401.237 1841.93 501.503C1849.63 505.549 1857.64 510.09 1865.32 514.269C1874.17 519.298 1886.37 526.205 1894.99 531.414C1902.8 535.958 1913.17 542.341 1921.08 547.173C1719.74 408.598 1473.85 335.039 1229.44 338.445C1188.69 339.106 1147.9 342.173 1107.59 348.194C1092.24 350.661 1076.84 353.393 1061.59 356.783C1078.4 352.796 1095.41 349.63 1112.42 346.907C1349.57 312.321 1609.31 359.28 1825.04 461.563L1825.02 461.589ZM1187.73 383.124C1125 378.127 1061.71 377.9 999.236 385.753C983.651 387.815 968.094 390.309 952.846 394.158C947.783 395.467 942.699 396.868 937.92 399.006C947.703 395.412 958.165 393.805 968.438 392.129C999.411 387.434 1030.76 385.616 1062.06 385.087C1119.26 384.122 1177 388.224 1233.67 395.966C1383.54 416.531 1529.22 464.259 1664.17 532.188C1696.41 548.511 1729.17 566.434 1760.2 584.994C1800.63 609.015 1839.88 634.931 1878.31 662.124C1845.4 636.272 1811.21 612.025 1776.09 589.153C1600.24 475.195 1397.2 400.376 1187.73 383.132L1187.73 383.124ZM1177.2 395.675C1098.5 387.788 1018.31 385.891 940.214 399.801C935.077 400.887 929.811 401.844 924.901 403.757C926.137 403.298 927.414 402.967 928.695 402.675L930.62 402.245L932.558 401.864C971.466 395.204 1011.15 394.152 1050.55 394.387C1218.81 396.617 1385.5 436.765 1540.02 502.367C1656.29 551.8 1765.63 616.443 1867.61 690.847C1812.18 646.295 1753.19 605.714 1691.85 569.625C1534.62 477.574 1358.78 415.031 1177.19 395.686L1177.2 395.675ZM1369.32 453.414C1227.5 409.758 1059.19 385.014 911.894 408.513C975.074 400.751 1039.15 402.734 1102.43 408.413C1213.09 418.922 1322.3 444.797 1426.73 482.634C1541.29 524.106 1650.5 580.174 1752.49 646.674C1788.1 669.759 1822.83 694.217 1856.93 719.567C1768.55 647.121 1672.05 584.132 1569.52 533.457C1505.09 501.642 1438 474.623 1369.32 453.42L1369.32 453.414Z" fill="url(#paint0_linear_7467_5513)"/>
</g>
<path id="Vector_2" d="M-51.9217 67.8617C493.435 502.836 1069.43 351.359 1069.43 351.359C614.201 621.415 -51.9217 592.453 -51.9217 592.453L-51.9217 67.8617Z" fill="url(#paint1_linear_7467_5513)"/>
</g>
<defs>
<filter id="filter0_f_7467_5513" x="-273.426" y="-15.8961" width="1377.39" height="786.788" filterUnits="userSpaceOnUse" color-interpolation-filters="sRGB">
<feFlood flood-opacity="0" result="BackgroundImageFix"/>
<feBlend mode="normal" in="SourceGraphic" in2="BackgroundImageFix" result="shape"/>
<feGaussianBlur stdDeviation="150" result="effect1_foregroundBlur_7467_5513"/>
</filter>
<linearGradient id="paint0_linear_7467_5513" x1="932.27" y1="353.995" x2="1788.67" y2="407.537" gradientUnits="userSpaceOnUse">
<stop/>
<stop offset="0.343267" stop-color="#9945FF"/>
<stop offset="0.670265" stop-color="#19FB9B"/>
<stop offset="1" stop-color="#9945FF"/>
</linearGradient>
<linearGradient id="paint1_linear_7467_5513" x1="79" y1="410" x2="1038.52" y2="373.468" gradientUnits="userSpaceOnUse">
<stop stop-color="#6A00B5"/>
<stop offset="0.5" stop-color="#9945FF"/>
<stop offset="1" stop-color="#19FB9B"/>
</linearGradient>
<clipPath id="clip0_7467_5513">
<rect width="1920" height="526" fill="white"/>
</clipPath>
</defs>
</svg>
