<svg preserveAspectRatio="none" width="100%" height="100%" overflow="visible" style="display: block;" viewBox="0 0 2219 978" fill="none" xmlns="http://www.w3.org/2000/svg">
<defs>
<filter id="f1" x="-300%" y="-300%" width="700%" height="700%" filterUnits="objectBoundingBox" color-interpolation-filters="sRGB">
<feFlood flood-opacity="0" result="BackgroundImageFix"/>
<feBlend mode="normal" in="SourceGraphic" in2="BackgroundImageFix" result="shape"/>
<feGaussianBlur stdDeviation="150" result="effect1_foregroundBlur"/>
</filter>
<linearGradient id="waveGrad" x1="69.21" y1="359.29" x2="826.59" y2="140.89" gradientUnits="userSpaceOnUse">
<stop stop-color="#000000"/>
<stop offset="0.524" stop-color="#9945FF"/>
<stop offset="0.731" stop-color="#19FB9B"/>
<stop offset="1" stop-color="#000000"/>
</linearGradient>
<linearGradient id="triGrad" x1="242.02" y1="399.76" x2="1128.39" y2="31.07" gradientUnits="userSpaceOnUse">
<stop stop-color="#000000"/>
<stop offset="0.389" stop-color="#9945FF"/>
<stop offset="0.635" stop-color="#19FB9B"/>
<stop offset="1" stop-color="#6A00B5"/>
</linearGradient>
</defs>
<!-- Ellipse glow (behind everything) -->
<g transform="translate(638.75, 546.44) rotate(-170.03)">
<ellipse cx="0" cy="0" rx="394.489" ry="64.681" fill="#893AE9" filter="url(#f1)"/>
</g>
<!-- Triangular gradient fill -->
<g transform="translate(646.41, 488.98) rotate(20.37) translate(-574.908, -308.190)">
<path d="M0 124.602C662.812 342.517 1149.82 0 1149.82 0C817.35 411.638 182.947 616.38 182.947 616.38L0 124.602Z" fill="url(#triGrad)"/>
</g>
<!-- Wave lines -->
<g transform="translate(1677.33, 426.10) rotate(20.37) translate(-497.096, -218.071)">
<path d="M874.309 168.019C914.483 171.539 954.485 177.076 994.181 184.193C974.664 179.7 954.503 175.572 934.797 172.135C805.131 149.739 671.619 150.612 541.893 172.188C442.063 188.963 343.946 217.444 251.701 259.245C233.814 267.394 216.123 276.039 198.762 285.296C360.155 196.252 561.233 148.082 739.822 139.644C824.724 135.652 909.981 140.258 994.175 153.548C897.21 133.288 797.044 127.592 698.088 133.96C551.397 143.925 405.988 179.37 272.406 240.977C257.691 247.8 243.124 254.982 228.758 262.541C371.869 184.122 547.948 137.616 696.718 120.716C716.158 118.629 736.591 116.701 756.054 115.474C835.328 110.25 915.144 112.597 994.181 122.892C986.449 121.607 980.701 120.439 972.077 119.154C962.755 117.638 951.804 116.17 942.465 114.943C923.385 112.52 902.09 110.515 882.886 109.218C700.859 97.4895 516.575 130.151 347.804 198.551C329.598 206.016 311.558 213.947 293.748 222.368C294.699 221.896 295.65 221.424 296.607 220.953C311.829 213.564 328.133 206.093 343.663 199.359C493.047 135.01 653.98 96.7701 816.49 88.1493C875.726 85.0359 935.087 86.4275 994.181 92.2415C932.954 82.9956 870.717 80.1417 808.805 82.176C652.527 87.9783 497.43 123.9 353.982 185.927C350.763 187.318 347.544 188.745 344.324 190.178C346.38 189.217 348.436 188.268 350.479 187.33C548.881 97.23 776.02 48.2824 994.181 61.591C896.247 50.411 796.648 55.376 699.435 70.9194C591.489 88.5502 485.386 119.006 385.089 162.712C433.504 140.605 483.224 121.324 533.765 104.677C617.12 77.2347 702.843 56.7676 789.695 44.0899C857.367 34.2956 925.747 29.3897 994.175 30.9464C955.129 27.9981 915.859 27.8978 876.695 29.7022C718.143 37.9456 556.094 77.6121 409.562 142.315C541.68 80.9554 685.701 39.803 820.176 17.225C877.741 7.83168 935.807 1.88791 994.181 0.289928C955.242 -0.724287 916.231 0.985727 877.38 4.42934C721.953 19.1355 569.154 60.8126 426.923 124.903C334.672 167.158 245.463 219.478 169.965 287.578C164.696 292.077 159.497 296.653 154.37 301.311C149.426 305.539 144.552 309.844 139.744 314.231C135.29 318.028 130.895 321.891 126.565 325.829C121.385 330.187 116.293 334.645 111.313 339.221C106.564 343.213 101.909 347.299 97.3548 351.503C92.3869 355.625 87.5372 359.871 82.8351 364.281C78.5879 367.825 74.4353 371.487 70.3889 375.261C65.4978 379.211 60.7545 383.345 56.2237 387.697C51.628 391.329 47.1917 395.15 43.045 399.278C39.0341 402.344 35.1708 405.593 31.6029 409.16C33.5286 407.421 35.5134 405.752 37.5691 404.178L40.6762 401.843L43.8483 399.596C56.6667 390.804 70.2176 383.139 83.9811 375.933C120.759 356.851 159.155 341.031 198.242 327.351C362.063 270.337 537.734 250.099 710.558 261.044C754.141 263.821 798.656 268.75 841.802 275.455C893.028 283.35 943.882 294.106 994.175 306.778C954.45 294.613 914.087 284.465 873.357 275.968C669.498 234.214 454.639 240.158 255.281 301.412C185.908 323.247 117.35 350.318 56.1351 389.973C52.0592 392.738 47.9833 395.557 44.0374 398.529C66.8506 378.97 93.7337 364.83 120.321 351.108C150.194 336.202 181.023 323.135 212.336 311.56C412.658 237.988 631.374 219.101 842.422 247.646C862.406 250.323 883.6 253.673 903.425 257.181C926.037 261.238 949.098 265.926 971.581 270.909C976.95 272.188 988.416 274.765 994.181 276.127C900.117 248.873 802.531 232.551 704.527 227.675C544.516 219.968 382.372 242.127 231.806 297.361C202.72 308.028 174.058 320.175 146.2 333.69C118.414 347.393 91.1287 362.341 65.9054 380.373C64.6472 381.293 63.3949 382.219 62.1426 383.15C90.6147 360.101 123.582 342.759 156.26 326.502C188.354 310.911 221.475 297.313 255.045 285.225C435.246 220.964 629.932 199.347 820.17 217.627C847.892 220.316 876.27 223.983 903.767 228.264C923.343 231.448 944.603 235.146 964.138 239.167C967.93 239.892 975.391 241.402 979.171 242.263L994.187 245.465C796.288 191.493 584.282 188.958 384.93 237.616C312.692 255.312 241.807 279.641 174.814 312.02C149.461 324.355 124.604 337.912 100.976 353.284C95.3581 356.975 89.7819 360.755 84.306 364.682C101.259 351.857 119.435 340.636 137.842 330.016C181.897 305.014 228.38 284.453 275.802 266.763C475.456 193.209 693.374 170.831 904.08 199.548C912.705 200.662 921.796 202.131 930.449 203.375C940.497 205.008 954.338 207.237 964.238 209.118C973.146 210.657 985.084 213.033 994.187 214.808C757.159 154.993 501.057 171.633 273.179 259.911C235.214 274.718 198.053 291.794 162.374 311.471C148.853 319.125 135.367 327.05 122.259 335.535C136.619 325.947 151.464 317.055 166.456 308.582C376.648 193.604 636.46 147.204 874.314 167.989L874.309 168.019ZM249.663 316.318C189.127 333.471 129.737 355.289 73.9213 384.4C60.0338 391.759 46.3234 399.513 33.3751 408.429C29.0865 411.419 24.8098 414.503 21.0765 418.17C28.992 411.395 38.2366 406.247 47.2804 401.1C74.6716 385.916 103.421 373.297 132.573 361.905C185.837 341.09 241.387 324.833 297.203 312.362C444.828 279.47 598.01 273.497 748.18 290.196C784.084 294.277 821.044 299.672 856.593 306.27C902.863 314.714 948.685 325.346 994.193 337.458C954.332 324.68 913.827 313.853 872.938 304.637C668.381 259.027 451.999 259.569 249.669 316.324L249.663 316.318ZM244.17 331.75C167.667 351.751 91.8435 377.891 23.5043 418.117C19.0681 420.924 14.4664 423.654 10.5323 427.157C11.5306 426.296 12.6116 425.541 13.7103 424.822L15.3643 423.748L17.0479 422.717C51.1908 402.928 88.0157 388.127 125.03 374.63C283.499 318.146 453.724 297.756 621.42 305.463C747.637 311.324 872.655 333.861 994.181 368.108C926.687 345.642 857.249 328.135 787.173 315.658C607.716 284.099 421.105 286.682 244.17 331.761V331.75ZM444.367 318.995C296.229 327.439 129.856 362.837 0 436.143C56.5072 406.872 117.256 386.423 178.542 369.718C285.915 341.049 397.293 327.286 508.364 326.401C630.192 325.399 752.103 339.94 870.882 366.775C912.303 376.021 953.381 386.859 994.181 398.753C886.087 361.604 773.681 336.148 659.911 324.338C588.429 316.943 516.132 314.968 444.367 319.001V318.995Z" fill="url(#waveGrad)"/>
</g>
</svg>