<svg xmlns="http://www.w3.org/2000/svg" fill="none" viewBox="0 0 705 96">
  <svg x="0" y="0" width="96" height="96" viewBox="0 0 46.719 46.641">
    <path fill="#f51c2b" d="M22.734 45.066c0 .946-.83 1.653-1.744 1.568C9.223 45.451 0 35.49 0 23.394 0 11.296 9.193 1.335 20.99.152a1.587 1.587 0 0 1 1.744 1.567v8.016c0 .768-.56 1.451-1.33 1.567-5.825.915-10.29 5.972-10.29 12.066s4.465 11.145 10.29 12.066c.77.115 1.33.799 1.33 1.567z"/>
    <path fill="#be202c" d="M46.591 25.607c-1.037 10.999-9.73 19.813-20.697 20.99-.945.092-1.775-.622-1.775-1.567v-8.04c0-.769.561-1.421 1.3-1.568 5.142-.884 9.192-5.026 9.96-10.199.116-.768.8-1.33 1.568-1.33h8.016c.982-.03 1.72.8 1.628 1.714z"/>
    <path fill="#ffffff" d="M22.759 12.865v9.4c0 .884.707 1.598 1.598 1.598h9.522c.945 0 1.684-.83 1.568-1.775-.677-5.68-4.642-10.083-10.913-10.79a1.582 1.582 0 0 0-1.775 1.567Z"/>
    <path fill="#999" d="M33.94 1.66c0 .59.323 1.122.83 1.42a23.627 23.627 0 0 1 8.869 8.87c.293.5.83.83 1.421.83h.03c.885 0 1.63-.739 1.63-1.63V1.63C46.72.744 45.98 0 45.09 0h-9.527c-.885.03-1.623.744-1.623 1.66Z"/>
  </svg>
  <svg x="126" y="0" width="579" height="96" viewBox="0 0 579 96" fill="none">
    <g fill="#ffffff" clip-path="url(#anoma-wordmark-dark-clip)">
      <path d="M55.117 95.497h-6.671C22.215 95.497.454 74.423.583 48.161.713 22.42 21.632 1.474 47.345 1.344c26.231-.13 47.28 21.658 47.28 47.92V89.92c0 3.047-2.461 5.576-5.57 5.576h-12.63a5.573 5.573 0 0 1-5.57-5.576V49.004c0-12.58-10.233-23.603-22.862-23.862-13.213-.26-24.029 10.57-23.77 23.798.259 12.58 11.27 22.89 23.834 22.89h6.995a5.573 5.573 0 0 1 5.57 5.576V90.05c.065 2.918-2.461 5.447-5.505 5.447ZM538.992 95.501h-6.671c-26.231 0-47.992-21.074-47.863-47.336.13-25.743 21.049-46.687 46.762-46.817 26.231-.13 47.28 21.658 47.28 47.92v40.657c0 3.047-2.461 5.576-5.57 5.576H560.3a5.573 5.573 0 0 1-5.57-5.576V49.008c0-12.58-10.233-23.603-22.862-23.862-13.213-.26-24.029 10.57-23.77 23.797.259 12.58 11.27 22.89 23.834 22.89h6.995a5.573 5.573 0 0 1 5.57 5.577v12.644c.065 2.918-2.461 5.447-5.505 5.447ZM193.201 95.494h-12.565a5.573 5.573 0 0 1-5.57-5.576V48.936c0-13.033-10.686-24.056-23.704-23.862-12.695.195-22.928 10.57-22.928 23.344v41.5c0 3.047-2.461 5.576-5.57 5.576h-12.629a5.572 5.572 0 0 1-5.57-5.576V49.196c0-25.743 20.336-47.336 46.114-47.855 26.36-.518 47.928 20.815 47.928 47.077v41.565c.064 3.047-2.397 5.511-5.506 5.511ZM427.661.5c-13.989 0-26.554 6.16-35.168 15.887C383.879 6.66 371.314.5 357.324.5c-25.842 0-47.021 21.917-47.021 47.79v40.786c0 3.048 2.461 5.577 5.57 5.577h12.63a5.573 5.573 0 0 0 5.57-5.577v-40.98c0-13.034 10.686-24.058 23.705-23.863 12.694.194 22.927 10.57 22.927 23.343v41.565c0 3.048 2.461 5.577 5.57 5.577h12.63a5.573 5.573 0 0 0 5.57-5.577V48.16c0-13.033 10.686-24.057 23.705-23.862 12.694.194 22.927 10.57 22.927 23.343v41.565c0 3.048 2.461 5.577 5.57 5.577h12.63a5.573 5.573 0 0 0 5.57-5.577V48.419C474.618 22.417 453.503.5 427.661.5ZM254.922 95.497c-25.907 0-47.021-21.14-47.021-47.077 0-25.937 21.114-47.076 47.021-47.076s47.021 21.139 47.021 47.076c0 25.938-21.05 47.077-47.021 47.077Zm0-70.42c-12.824 0-23.316 10.44-23.316 23.343 0 12.904 10.427 23.344 23.316 23.344 12.824 0 23.316-10.44 23.316-23.344 0-12.904-10.428-23.344-23.316-23.344Z"/>
    </g>
    <defs>
      <clipPath id="anoma-wordmark-dark-clip"><path fill="#fff" d="M578.5.5v95H.5V.5z"/></clipPath>
    </defs>
  </svg>
</svg>
