<svg xmlns="http://www.w3.org/2000/svg" fill="none" viewBox="0 0 46.719 46.641"><path fill="#f51c2b" d="M22.734 45.066c0 .946-.83 1.653-1.744 1.568C9.223 45.451 0 35.49 0 23.394 0 11.296 9.193 1.335 20.99.152a1.587 1.587 0 0 1 1.744 1.567v8.016c0 .768-.56 1.451-1.33 1.567-5.825.915-10.29 5.972-10.29 12.066s4.465 11.145 10.29 12.066c.77.115 1.33.799 1.33 1.567z"/><path fill="#be202c" d="M46.591 25.607c-1.037 10.999-9.73 19.813-20.697 20.99-.945.092-1.775-.622-1.775-1.567v-8.04c0-.769.561-1.421 1.3-1.568 5.142-.884 9.192-5.026 9.96-10.199.116-.768.8-1.33 1.568-1.33h8.016c.982-.03 1.72.8 1.628 1.714z"/><path fill="#202020" d="M22.759 12.865v9.4c0 .884.707 1.598 1.598 1.598h9.522c.945 0 1.684-.83 1.568-1.775-.677-5.68-4.642-10.083-10.913-10.79a1.582 1.582 0 0 0-1.775 1.567Z"/><path fill="#999" d="M33.94 1.66c0 .59.323 1.122.83 1.42a23.627 23.627 0 0 1 8.869 8.87c.293.5.83.83 1.421.83h.03c.885 0 1.63-.739 1.63-1.63V1.63C46.72.744 45.98 0 45.09 0h-9.527c-.885.03-1.623.744-1.623 1.66Z"/></svg>
