<svg xmlns="http://www.w3.org/2000/svg" fill="none" viewBox="0 0 579 96"><g fill="#fff" clip-path="url(#a)"><path d="M55.117 95.497h-6.671C22.215 95.497.454 74.423.583 48.161.713 22.42 21.632 1.474 47.345 1.344c26.231-.13 47.28 21.658 47.28 47.92V89.92c0 3.047-2.461 5.576-5.57 5.576h-12.63a5.573 5.573 0 0 1-5.57-5.576V49.004c0-12.58-10.233-23.603-22.862-23.862-13.213-.26-24.029 10.57-23.77 23.798.259 12.58 11.27 22.89 23.834 22.89h6.995a5.573 5.573 0 0 1 5.57 5.576V90.05c.065 2.918-2.461 5.447-5.505 5.447ZM538.992 95.501h-6.671c-26.231 0-47.992-21.074-47.863-47.336.13-25.743 21.049-46.687 46.762-46.817 26.231-.13 47.28 21.658 47.28 47.92v40.657c0 3.047-2.461 5.576-5.57 5.576H560.3a5.573 5.573 0 0 1-5.57-5.576V49.008c0-12.58-10.233-23.603-22.862-23.862-13.213-.26-24.029 10.57-23.77 23.797.259 12.58 11.27 22.89 23.834 22.89h6.995a5.573 5.573 0 0 1 5.57 5.577v12.644c.065 2.918-2.461 5.447-5.505 5.447ZM193.201 95.494h-12.565a5.573 5.573 0 0 1-5.57-5.576V48.936c0-13.033-10.686-24.056-23.704-23.862-12.695.195-22.928 10.57-22.928 23.344v41.5c0 3.047-2.461 5.576-5.57 5.576h-12.629a5.572 5.572 0 0 1-5.57-5.576V49.196c0-25.743 20.336-47.336 46.114-47.855 26.36-.518 47.928 20.815 47.928 47.077v41.565c.064 3.047-2.397 5.511-5.506 5.511ZM427.661.5c-13.989 0-26.554 6.16-35.168 15.887C383.879 6.66 371.314.5 357.324.5c-25.842 0-47.021 21.917-47.021 47.79v40.786c0 3.048 2.461 5.577 5.57 5.577h12.63a5.573 5.573 0 0 0 5.57-5.577v-40.98c0-13.034 10.686-24.058 23.705-23.863 12.694.194 22.927 10.57 22.927 23.343v41.565c0 3.048 2.461 5.577 5.57 5.577h12.63a5.573 5.573 0 0 0 5.57-5.577V48.16c0-13.033 10.686-24.057 23.705-23.862 12.694.194 22.927 10.57 22.927 23.343v41.565c0 3.048 2.461 5.577 5.57 5.577h12.63a5.573 5.573 0 0 0 5.57-5.577V48.419C474.618 22.417 453.503.5 427.661.5ZM254.922 95.497c-25.907 0-47.021-21.14-47.021-47.077 0-25.937 21.114-47.076 47.021-47.076s47.021 21.139 47.021 47.076c0 25.938-21.05 47.077-47.021 47.077Zm0-70.42c-12.824 0-23.316 10.44-23.316 23.343 0 12.904 10.427 23.344 23.316 23.344 12.824 0 23.316-10.44 23.316-23.344 0-12.904-10.428-23.344-23.316-23.344Z"/></g><defs><clipPath id="a"><path fill="#fff" d="M578.5.5v95H.5V.5z"/></clipPath></defs></svg>
