<svg preserveAspectRatio="none" width="100%" height="100%" overflow="visible" style="display: block;" viewBox="0 0 198.823 55.8253" fill="none" xmlns="http://www.w3.org/2000/svg">
<g id="Group">
<path id="Vector" d="M29.0516 1.78234C28.9943 1.87347 28.9422 1.96789 28.8961 2.06512C28.4817 2.82578 27.9581 3.52156 27.3416 4.13027C26.7888 4.65349 26.1865 5.12186 25.5433 5.52875L25.3521 5.63907L25.2385 6.00892C25.1764 6.21401 25.0522 6.61028 24.9634 6.88375C24.777 7.46334 24.7691 7.51464 24.8796 7.48047C25.2169 7.37173 25.9831 7.16965 26.2023 7.11843C26.4776 7.06401 27.1441 6.97232 27.6122 6.93191L27.8764 6.9055L27.968 6.61028C28.1437 6.03376 28.4731 4.80467 28.6163 4.2033C28.8432 3.24455 29.1028 1.78234 29.0516 1.78234ZM34.1517 16.2336C34.0273 15.8793 33.9056 15.5374 33.8733 15.4799C33.7228 15.3073 33.5543 15.1511 33.3713 15.0138C33.1224 14.8164 32.653 14.4326 32.3235 14.1607C31.481 13.4537 31.1188 13.2532 30.6496 13.219C30.4872 13.2045 30.3239 13.2302 30.1739 13.2936C30.0172 13.353 29.867 13.4285 29.7262 13.5189C29.535 13.651 29.3482 13.8297 29.3482 13.8965C29.4009 14.038 29.461 14.1764 29.5287 14.3114C29.7582 14.8365 29.9487 15.3777 30.0991 15.9306C30.2095 16.319 30.3852 16.4542 31.2324 16.807C32.0795 17.1598 32.21 17.2047 32.4992 17.2607C32.8744 17.3209 33.2564 17.3245 33.6324 17.2716C33.8613 17.2087 34.0777 17.1072 34.2726 16.9717L34.3722 16.8908L34.1517 16.2336ZM34.1517 16.2336C34.0273 15.8793 33.9056 15.5374 33.8733 15.4799C33.7228 15.3073 33.5543 15.1511 33.3713 15.0138C33.1224 14.8164 32.653 14.4326 32.3235 14.1607C31.481 13.4537 31.1188 13.2532 30.6496 13.219C30.4872 13.2045 30.3239 13.2302 30.1739 13.2936C30.0172 13.353 29.867 13.4285 29.7262 13.5189C29.535 13.651 29.3482 13.8297 29.3482 13.8965C29.4009 14.038 29.461 14.1764 29.5287 14.3114C29.7582 14.8365 29.9487 15.3777 30.0991 15.9306C30.2095 16.319 30.3852 16.4542 31.2324 16.807C32.0795 17.1598 32.21 17.2047 32.4992 17.2607C32.8744 17.3209 33.2564 17.3245 33.6324 17.2716C33.8613 17.2087 34.0777 17.1072 34.2726 16.9717L34.3722 16.8908L34.1517 16.2336ZM34.1517 16.2336C34.0273 15.8793 33.9056 15.5374 33.8733 15.4799C33.7228 15.3073 33.5543 15.1511 33.3713 15.0138C33.1224 14.8164 32.653 14.4326 32.3235 14.1607C31.481 13.4537 31.1188 13.2532 30.6496 13.219C30.4872 13.2045 30.3239 13.2302 30.1739 13.2936C30.0172 13.353 29.867 13.4285 29.7262 13.5189C29.535 13.651 29.3482 13.8297 29.3482 13.8965C29.4009 14.038 29.461 14.1764 29.5287 14.3114C29.7582 14.8365 29.9487 15.3777 30.0991 15.9306C30.2095 16.319 30.3852 16.4542 31.2324 16.807C32.0795 17.1598 32.21 17.2047 32.4992 17.2607C32.8744 17.3209 33.2564 17.3245 33.6324 17.2716C33.8613 17.2087 34.0777 17.1072 34.2726 16.9717L34.3722 16.8908L34.1517 16.2336ZM34.1517 16.2336C34.0273 15.8793 33.9056 15.5374 33.8733 15.4799C33.7228 15.3073 33.5543 15.1511 33.3713 15.0138C33.1224 14.8164 32.653 14.4326 32.3235 14.1607C31.481 13.4537 31.1188 13.2532 30.6496 13.219C30.4872 13.2045 30.3239 13.2302 30.1739 13.2936C30.0172 13.353 29.867 13.4285 29.7262 13.5189C29.535 13.651 29.3482 13.8297 29.3482 13.8965C29.4009 14.038 29.461 14.1764 29.5287 14.3114C29.7582 14.8365 29.9487 15.3777 30.0991 15.9306C30.2095 16.319 30.3852 16.4542 31.2324 16.807C32.0795 17.1598 32.21 17.2047 32.4992 17.2607C32.8744 17.3209 33.2564 17.3245 33.6324 17.2716C33.8613 17.2087 34.0777 17.1072 34.2726 16.9717L34.3722 16.8908L34.1517 16.2336ZM34.1517 16.2336C34.0273 15.8793 33.9056 15.5374 33.8733 15.4799C33.7228 15.3073 33.5543 15.1511 33.3713 15.0138C33.1224 14.8164 32.653 14.4326 32.3235 14.1607C31.481 13.4537 31.1188 13.2532 30.6496 13.219C30.4872 13.2045 30.3239 13.2302 30.1739 13.2936C30.0172 13.353 29.867 13.4285 29.7262 13.5189C29.535 13.651 29.3482 13.8297 29.3482 13.8965C29.4009 14.038 29.461 14.1764 29.5287 14.3114C29.7582 14.8365 29.9487 15.3777 30.0991 15.9306C30.2095 16.319 30.3852 16.4542 31.2324 16.807C32.0795 17.1598 32.21 17.2047 32.4992 17.2607C32.8744 17.3209 33.2564 17.3245 33.6324 17.2716C33.8613 17.2087 34.0777 17.1072 34.2726 16.9717L34.3722 16.8908L34.1517 16.2336ZM34.1517 16.2336C34.0273 15.8793 33.9056 15.5374 33.8733 15.4799C33.7228 15.3073 33.5543 15.1511 33.3713 15.0138C33.1224 14.8164 32.653 14.4326 32.3235 14.1607C31.481 13.4537 31.1188 13.2532 30.6496 13.219C30.4872 13.2045 30.3239 13.2302 30.1739 13.2936C30.0172 13.353 29.867 13.4285 29.7262 13.5189C29.535 13.651 29.3482 13.8297 29.3482 13.8965C29.4009 14.038 29.461 14.1764 29.5287 14.3114C29.7582 14.8365 29.9487 15.3777 30.0991 15.9306C30.2095 16.319 30.3852 16.4542 31.2324 16.807C32.0795 17.1598 32.21 17.2047 32.4992 17.2607C32.8744 17.3209 33.2564 17.3245 33.6324 17.2716C33.8613 17.2087 34.0777 17.1072 34.2726 16.9717L34.3722 16.8908L34.1517 16.2336ZM34.1517 16.2336C34.0273 15.8793 33.9056 15.5374 33.8733 15.4799C33.7228 15.3073 33.5543 15.1511 33.3713 15.0138C33.1224 14.8164 32.653 14.4326 32.3235 14.1607C31.481 13.4537 31.1188 13.2532 30.6496 13.219C30.4872 13.2045 30.3239 13.2302 30.1739 13.2936C30.0172 13.353 29.867 13.4285 29.7262 13.5189C29.535 13.651 29.3482 13.8297 29.3482 13.8965C29.4009 14.038 29.461 14.1764 29.5287 14.3114C29.7582 14.8365 29.9487 15.3777 30.0991 15.9306C30.2095 16.319 30.3852 16.4542 31.2324 16.807C32.0795 17.1598 32.21 17.2047 32.4992 17.2607C32.8744 17.3209 33.2564 17.3245 33.6324 17.2716C33.8613 17.2087 34.0777 17.1072 34.2726 16.9717L34.3722 16.8908L34.1517 16.2336ZM34.1517 16.2336C34.0273 15.8793 33.9056 15.5374 33.8733 15.4799C33.7228 15.3073 33.5543 15.1511 33.3713 15.0138C33.1224 14.8164 32.653 14.4326 32.3235 14.1607C31.481 13.4537 31.1188 13.2532 30.6496 13.219C30.4872 13.2045 30.3239 13.2302 30.1739 13.2936C30.0172 13.353 29.867 13.4285 29.7262 13.5189C29.535 13.651 29.3482 13.8297 29.3482 13.8965C29.4009 14.038 29.461 14.1764 29.5287 14.3114C29.7582 14.8365 29.9487 15.3777 30.0991 15.9306C30.2095 16.319 30.3852 16.4542 31.2324 16.807C32.0795 17.1598 32.21 17.2047 32.4992 17.2607C32.8744 17.3209 33.2564 17.3245 33.6324 17.2716C33.8613 17.2087 34.0777 17.1072 34.2726 16.9717L34.3722 16.8908L34.1517 16.2336ZM34.1517 16.2336C34.0273 15.8793 33.9056 15.5374 33.8733 15.4799C33.7228 15.3073 33.5543 15.1511 33.3713 15.0138C33.1224 14.8164 32.653 14.4326 32.3235 14.1607C31.481 13.4537 31.1188 13.2532 30.6496 13.219C30.4872 13.2045 30.3239 13.2302 30.1739 13.2936C30.0172 13.353 29.867 13.4285 29.7262 13.5189C29.535 13.651 29.3482 13.8297 29.3482 13.8965C29.4009 14.038 29.461 14.1764 29.5287 14.3114C29.7582 14.8365 29.9487 15.3777 30.0991 15.9306C30.2095 16.319 30.3852 16.4542 31.2324 16.807C32.0795 17.1598 32.21 17.2047 32.4992 17.2607C32.8744 17.3209 33.2564 17.3245 33.6324 17.2716C33.8613 17.2087 34.0777 17.1072 34.2726 16.9717L34.3722 16.8908L34.1517 16.2336ZM34.1517 16.2336C34.0273 15.8793 33.9056 15.5374 33.8733 15.4799C33.7228 15.3073 33.5543 15.1511 33.3713 15.0138C33.1224 14.8164 32.653 14.4326 32.3235 14.1607C31.481 13.4537 31.1188 13.2532 30.6496 13.219C30.4872 13.2045 30.3239 13.2302 30.1739 13.2936C30.0172 13.353 29.867 13.4285 29.7262 13.5189C29.535 13.651 29.3482 13.8297 29.3482 13.8965C29.4009 14.038 29.461 14.1764 29.5287 14.3114C29.7582 14.8365 29.9487 15.3777 30.0991 15.9306C30.2095 16.319 30.3852 16.4542 31.2324 16.807C32.0795 17.1598 32.21 17.2047 32.4992 17.2607C32.8744 17.3209 33.2564 17.3245 33.6324 17.2716C33.8613 17.2087 34.0777 17.1072 34.2726 16.9717L34.3722 16.8908L34.1517 16.2336ZM34.1517 16.2336C34.0273 15.8793 33.9056 15.5374 33.8733 15.4799C33.7228 15.3073 33.5543 15.1511 33.3713 15.0138C33.1224 14.8164 32.653 14.4326 32.3235 14.1607C31.481 13.4537 31.1188 13.2532 30.6496 13.219C30.4872 13.2045 30.3239 13.2302 30.1739 13.2936C30.0172 13.353 29.867 13.4285 29.7262 13.5189C29.535 13.651 29.3482 13.8297 29.3482 13.8965C29.4009 14.038 29.461 14.1764 29.5287 14.3114C29.7582 14.8365 29.9487 15.3777 30.0991 15.9306C30.2095 16.319 30.3852 16.4542 31.2324 16.807C32.0795 17.1598 32.21 17.2047 32.4992 17.2607C32.8744 17.3209 33.2564 17.3245 33.6324 17.2716C33.8613 17.2087 34.0777 17.1072 34.2726 16.9717L34.3722 16.8908L34.1517 16.2336ZM34.1517 16.2336C34.0273 15.8793 33.9056 15.5374 33.8733 15.4799C33.7228 15.3073 33.5543 15.1511 33.3713 15.0138C33.1224 14.8164 32.653 14.4326 32.3235 14.1607C31.481 13.4537 31.1188 13.2532 30.6496 13.219C30.4872 13.2045 30.3239 13.2302 30.1739 13.2936C30.0172 13.353 29.867 13.4285 29.7262 13.5189C29.535 13.651 29.3482 13.8297 29.3482 13.8965C29.4009 14.038 29.461 14.1764 29.5287 14.3114C29.7582 14.8365 29.9487 15.3777 30.0991 15.9306C30.2095 16.319 30.3852 16.4542 31.2324 16.807C32.0795 17.1598 32.21 17.2047 32.4992 17.2607C32.8744 17.3209 33.2564 17.3245 33.6324 17.2716C33.8613 17.2087 34.0777 17.1072 34.2726 16.9717L34.3722 16.8908L34.1517 16.2336ZM34.1517 16.2336C34.0273 15.8793 33.9056 15.5374 33.8733 15.4799C33.7228 15.3073 33.5543 15.1511 33.3713 15.0138C33.1224 14.8164 32.653 14.4326 32.3235 14.1607C31.481 13.4537 31.1188 13.2532 30.6496 13.219C30.4872 13.2045 30.3239 13.2302 30.1739 13.2936C30.0172 13.353 29.867 13.4285 29.7262 13.5189C29.535 13.651 29.3482 13.8297 29.3482 13.8965C29.4009 14.038 29.461 14.1764 29.5287 14.3114C29.7582 14.8365 29.9487 15.3777 30.0991 15.9306C30.2095 16.319 30.3852 16.4542 31.2324 16.807C32.0795 17.1598 32.21 17.2047 32.4992 17.2607C32.8744 17.3209 33.2564 17.3245 33.6324 17.2716C33.8613 17.2087 34.0777 17.1072 34.2726 16.9717L34.3722 16.8908L34.1517 16.2336ZM34.1517 16.2336C34.0273 15.8793 33.9056 15.5374 33.8733 15.4799C33.7228 15.3073 33.5543 15.1511 33.3713 15.0138C33.1224 14.8164 32.653 14.4326 32.3235 14.1607C31.481 13.4537 31.1188 13.2532 30.6496 13.219C30.4872 13.2045 30.3239 13.2302 30.1739 13.2936C30.0172 13.353 29.867 13.4285 29.7262 13.5189C29.535 13.651 29.3482 13.8297 29.3482 13.8965C29.4009 14.038 29.461 14.1764 29.5287 14.3114C29.7582 14.8365 29.9487 15.3777 30.0991 15.9306C30.2095 16.319 30.3852 16.4542 31.2324 16.807C32.0795 17.1598 32.21 17.2047 32.4992 17.2607C32.8744 17.3209 33.2564 17.3245 33.6324 17.2716C33.8613 17.2087 34.0777 17.1072 34.2726 16.9717L34.3722 16.8908L34.1517 16.2336ZM34.1517 16.2336C34.0273 15.8793 33.9056 15.5374 33.8733 15.4799C33.7228 15.3073 33.5543 15.1511 33.3713 15.0138C33.1224 14.8164 32.653 14.4326 32.3235 14.1607C31.481 13.4537 31.1188 13.2532 30.6496 13.219C30.4872 13.2045 30.3239 13.2302 30.1739 13.2936C30.0172 13.353 29.867 13.4285 29.7262 13.5189C29.535 13.651 29.3482 13.8297 29.3482 13.8965C29.4009 14.038 29.461 14.1764 29.5287 14.3114C29.7582 14.8365 29.9487 15.3777 30.0991 15.9306C30.2095 16.319 30.3852 16.4542 31.2324 16.807C32.0795 17.1598 32.21 17.2047 32.4992 17.2607C32.8744 17.3209 33.2564 17.3245 33.6324 17.2716C33.8613 17.2087 34.0777 17.1072 34.2726 16.9717L34.3722 16.8908L34.1517 16.2336ZM34.1517 16.2336C34.0273 15.8793 33.9056 15.5374 33.8733 15.4799C33.7228 15.3073 33.5543 15.1511 33.3713 15.0138C33.1224 14.8164 32.653 14.4326 32.3235 14.1607C31.481 13.4537 31.1188 13.2532 30.6496 13.219C30.4872 13.2045 30.3239 13.2302 30.1739 13.2936C30.0172 13.353 29.867 13.4285 29.7262 13.5189C29.535 13.651 29.3482 13.8297 29.3482 13.8965C29.4009 14.038 29.461 14.1764 29.5287 14.3114C29.7582 14.8365 29.9487 15.3777 30.0991 15.9306C30.2095 16.319 30.3852 16.4542 31.2324 16.807C32.0795 17.1598 32.21 17.2047 32.4992 17.2607C32.8744 17.3209 33.2564 17.3245 33.6324 17.2716C33.8613 17.2087 34.0777 17.1072 34.2726 16.9717L34.3722 16.8908L34.1517 16.2336ZM34.1517 16.2336C34.0273 15.8793 33.9056 15.5374 33.8733 15.4799C33.7228 15.3073 33.5543 15.1511 33.3713 15.0138C33.1224 14.8164 32.653 14.4326 32.3235 14.1607C31.481 13.4537 31.1188 13.2532 30.6496 13.219C30.4872 13.2045 30.3239 13.2302 30.1739 13.2936C30.0172 13.353 29.867 13.4285 29.7262 13.5189C29.535 13.651 29.3482 13.8297 29.3482 13.8965C29.4009 14.038 29.461 14.1764 29.5287 14.3114C29.7582 14.8365 29.9487 15.3777 30.0991 15.9306C30.2095 16.319 30.3852 16.4542 31.2324 16.807C32.0795 17.1598 32.21 17.2047 32.4992 17.2607C32.8744 17.3209 33.2564 17.3245 33.6324 17.2716C33.8613 17.2087 34.0777 17.1072 34.2726 16.9717L34.3722 16.8908L34.1517 16.2336ZM34.1517 16.2336C34.0273 15.8793 33.9056 15.5374 33.8733 15.4799C33.7228 15.3073 33.5543 15.1511 33.3713 15.0138C33.1224 14.8164 32.653 14.4326 32.3235 14.1607C31.481 13.4537 31.1188 13.2532 30.6496 13.219C30.4872 13.2045 30.3239 13.2302 30.1739 13.2936C30.0172 13.353 29.867 13.4285 29.7262 13.5189C29.535 13.651 29.3482 13.8297 29.3482 13.8965C29.4009 14.038 29.461 14.1764 29.5287 14.3114C29.7582 14.8365 29.9487 15.3777 30.0991 15.9306C30.2095 16.319 30.3852 16.4542 31.2324 16.807C32.0795 17.1598 32.21 17.2047 32.4992 17.2607C32.8744 17.3209 33.2564 17.3245 33.6324 17.2716C33.8613 17.2087 34.0777 17.1072 34.2726 16.9717L34.3722 16.8908L34.1517 16.2336ZM34.1517 16.2336C34.0273 15.8793 33.9056 15.5374 33.8733 15.4799C33.7228 15.3073 33.5543 15.1511 33.3713 15.0138C33.1224 14.8164 32.653 14.4326 32.3235 14.1607C31.481 13.4537 31.1188 13.2532 30.6496 13.219C30.4872 13.2045 30.3239 13.2302 30.1739 13.2936C30.0172 13.353 29.867 13.4285 29.7262 13.5189C29.535 13.651 29.3482 13.8297 29.3482 13.8965C29.4009 14.038 29.461 14.1764 29.5287 14.3114C29.7582 14.8365 29.9487 15.3777 30.0991 15.9306C30.2095 16.319 30.3852 16.4542 31.2324 16.807C32.0795 17.1598 32.21 17.2047 32.4992 17.2607C32.8744 17.3209 33.2564 17.3245 33.6324 17.2716C33.8613 17.2087 34.0777 17.1072 34.2726 16.9717L34.3722 16.8908L34.1517 16.2336ZM34.1517 16.2336C34.0273 15.8793 33.9056 15.5374 33.8733 15.4799C33.7228 15.3073 33.5543 15.1511 33.3713 15.0138C33.1224 14.8164 32.653 14.4326 32.3235 14.1607C31.481 13.4537 31.1188 13.2532 30.6496 13.219C30.4872 13.2045 30.3239 13.2302 30.1739 13.2936C30.0172 13.353 29.867 13.4285 29.7262 13.5189C29.535 13.651 29.3482 13.8297 29.3482 13.8965C29.4009 14.038 29.461 14.1764 29.5287 14.3114C29.7582 14.8365 29.9487 15.3777 30.0991 15.9306C30.2095 16.319 30.3852 16.4542 31.2324 16.807C32.0795 17.1598 32.21 17.2047 32.4992 17.2607C32.8744 17.3209 33.2564 17.3245 33.6324 17.2716C33.8613 17.2087 34.0777 17.1072 34.2726 16.9717L34.3722 16.8908L34.1517 16.2336ZM34.1517 16.2336C34.0273 15.8793 33.9056 15.5374 33.8733 15.4799C33.7228 15.3073 33.5543 15.1511 33.3713 15.0138C33.1224 14.8164 32.653 14.4326 32.3235 14.1607C31.481 13.4537 31.1188 13.2532 30.6496 13.219C30.4872 13.2045 30.3239 13.2302 30.1739 13.2936C30.0172 13.353 29.867 13.4285 29.7262 13.5189C29.535 13.651 29.3482 13.8297 29.3482 13.8965C29.4009 14.038 29.461 14.1764 29.5287 14.3114C29.7582 14.8365 29.9487 15.3777 30.0991 15.9306C30.2095 16.319 30.3852 16.4542 31.2324 16.807C32.0795 17.1598 32.21 17.2047 32.4992 17.2607C32.8744 17.3209 33.2564 17.3245 33.6324 17.2716C33.8613 17.2087 34.0777 17.1072 34.2726 16.9717L34.3722 16.8908L34.1517 16.2336ZM34.1517 16.2336C34.0273 15.8793 33.9056 15.5374 33.8733 15.4799C33.7228 15.3073 33.5543 15.1511 33.3713 15.0138C33.1224 14.8164 32.653 14.4326 32.3235 14.1607C31.481 13.4537 31.1188 13.2532 30.6496 13.219C30.4872 13.2045 30.3239 13.2302 30.1739 13.2936C30.0172 13.353 29.867 13.4285 29.7262 13.5189C29.535 13.651 29.3482 13.8297 29.3482 13.8965C29.4009 14.038 29.461 14.1764 29.5287 14.3114C29.7582 14.8365 29.9487 15.3777 30.0991 15.9306C30.2095 16.319 30.3852 16.4542 31.2324 16.807C32.0795 17.1598 32.21 17.2047 32.4992 17.2607C32.8744 17.3209 33.2564 17.3245 33.6324 17.2716C33.8613 17.2087 34.0777 17.1072 34.2726 16.9717L34.3722 16.8908L34.1517 16.2336ZM34.1517 16.2336C34.0273 15.8793 33.9056 15.5374 33.8733 15.4799C33.7228 15.3073 33.5543 15.1511 33.3713 15.0138C33.1224 14.8164 32.653 14.4326 32.3235 14.1607C31.481 13.4537 31.1188 13.2532 30.6496 13.219C30.4872 13.2045 30.3239 13.2302 30.1739 13.2936C30.0172 13.353 29.867 13.4285 29.7262 13.5189C29.535 13.651 29.3482 13.8297 29.3482 13.8965C29.4009 14.038 29.461 14.1764 29.5287 14.3114C29.7582 14.8365 29.9487 15.3777 30.0991 15.9306C30.2095 16.319 30.3852 16.4542 31.2324 16.807C32.0795 17.1598 32.21 17.2047 32.4992 17.2607C32.8744 17.3209 33.2564 17.3245 33.6324 17.2716C33.8613 17.2087 34.0777 17.1072 34.2726 16.9717L34.3722 16.8908L34.1517 16.2336ZM34.1517 16.2336C34.0273 15.8793 33.9056 15.5374 33.8733 15.4799C33.7228 15.3073 33.5543 15.1511 33.3713 15.0138C33.1224 14.8164 32.653 14.4326 32.3235 14.1607C31.481 13.4537 31.1188 13.2532 30.6496 13.219C30.4872 13.2045 30.3239 13.2302 30.1739 13.2936C30.0172 13.353 29.867 13.4285 29.7262 13.5189C29.535 13.651 29.3482 13.8297 29.3482 13.8965C29.4009 14.038 29.461 14.1764 29.5287 14.3114C29.7582 14.8365 29.9487 15.3777 30.0991 15.9306C30.2095 16.319 30.3852 16.4542 31.2324 16.807C32.0795 17.1598 32.21 17.2047 32.4992 17.2607C32.8744 17.3209 33.2564 17.3245 33.6324 17.2716C33.8613 17.2087 34.0777 17.1072 34.2726 16.9717L34.3722 16.8908L34.1517 16.2336ZM34.1517 16.2336C34.0273 15.8793 33.9056 15.5374 33.8733 15.4799C33.7228 15.3073 33.5543 15.1511 33.3713 15.0138C33.1224 14.8164 32.653 14.4326 32.3235 14.1607C31.481 13.4537 31.1188 13.2532 30.6496 13.219C30.4872 13.2045 30.3239 13.2302 30.1739 13.2936C30.0172 13.353 29.867 13.4285 29.7262 13.5189C29.535 13.651 29.3482 13.8297 29.3482 13.8965C29.4009 14.038 29.461 14.1764 29.5287 14.3114C29.7582 14.8365 29.9487 15.3777 30.0991 15.9306C30.2095 16.319 30.3852 16.4542 31.2324 16.807C32.0795 17.1598 32.21 17.2047 32.4992 17.2607C32.8744 17.3209 33.2564 17.3245 33.6324 17.2716C33.8613 17.2087 34.0777 17.1072 34.2726 16.9717L34.3722 16.8908L34.1517 16.2336ZM34.1517 16.2336C34.0273 15.8793 33.9056 15.5374 33.8733 15.4799C33.7228 15.3073 33.5543 15.1511 33.3713 15.0138C33.1224 14.8164 32.653 14.4326 32.3235 14.1607C31.481 13.4537 31.1188 13.2532 30.6496 13.219C30.4872 13.2045 30.3239 13.2302 30.1739 13.2936C30.0172 13.353 29.867 13.4285 29.7262 13.5189C29.535 13.651 29.3482 13.8297 29.3482 13.8965C29.4009 14.038 29.461 14.1764 29.5287 14.3114C29.7582 14.8365 29.9487 15.3777 30.0991 15.9306C30.2095 16.319 30.3852 16.4542 31.2324 16.807C32.0795 17.1598 32.21 17.2047 32.4992 17.2607C32.8744 17.3209 33.2564 17.3245 33.6324 17.2716C33.8613 17.2087 34.0777 17.1072 34.2726 16.9717L34.3722 16.8908L34.1517 16.2336ZM34.1517 16.2336C34.0273 15.8793 33.9056 15.5374 33.8733 15.4799C33.7228 15.3073 33.5543 15.1511 33.3713 15.0138C33.1224 14.8164 32.653 14.4326 32.3235 14.1607C31.481 13.4537 31.1188 13.2532 30.6496 13.219C30.4872 13.2045 30.3239 13.2302 30.1739 13.2936C30.0172 13.353 29.867 13.4285 29.7262 13.5189C29.535 13.651 29.3482 13.8297 29.3482 13.8965C29.4009 14.038 29.461 14.1764 29.5287 14.3114C29.7582 14.8365 29.9487 15.3777 30.0991 15.9306C30.2095 16.319 30.3852 16.4542 31.2324 16.807C32.0795 17.1598 32.21 17.2047 32.4992 17.2607C32.8744 17.3209 33.2564 17.3245 33.6324 17.2716C33.8613 17.2087 34.0777 17.1072 34.2726 16.9717L34.3722 16.8908L34.1517 16.2336ZM34.1517 16.2336C34.0273 15.8793 33.9056 15.5374 33.8733 15.4799C33.7228 15.3073 33.5543 15.1511 33.3713 15.0138C33.1224 14.8164 32.653 14.4326 32.3235 14.1607C31.481 13.4537 31.1188 13.2532 30.6496 13.219C30.4872 13.2045 30.3239 13.2302 30.1739 13.2936C30.0172 13.353 29.867 13.4285 29.7262 13.5189C29.535 13.651 29.3482 13.8297 29.3482 13.8965C29.4009 14.038 29.461 14.1764 29.5287 14.3114C29.7582 14.8365 29.9487 15.3777 30.0991 15.9306C30.2095 16.319 30.3852 16.4542 31.2324 16.807C32.0795 17.1598 32.21 17.2047 32.4992 17.2607C32.8744 17.3209 33.2564 17.3245 33.6324 17.2716C33.8613 17.2087 34.0777 17.1072 34.2726 16.9717L34.3722 16.8908L34.1517 16.2336ZM34.1517 16.2336C34.0273 15.8793 33.9056 15.5374 33.8733 15.4799C33.7228 15.3073 33.5543 15.1511 33.3713 15.0138C33.1224 14.8164 32.653 14.4326 32.3235 14.1607C31.481 13.4537 31.1188 13.2532 30.6496 13.219C30.4872 13.2045 30.3239 13.2302 30.1739 13.2936C30.0172 13.353 29.867 13.4285 29.7262 13.5189C29.535 13.651 29.3482 13.8297 29.3482 13.8965C29.4009 14.038 29.461 14.1764 29.5287 14.3114C29.7582 14.8365 29.9487 15.3777 30.0991 15.9306C30.2095 16.319 30.3852 16.4542 31.2324 16.807C32.0795 17.1598 32.21 17.2047 32.4992 17.2607C32.8744 17.3209 33.2564 17.3245 33.6324 17.2716C33.8613 17.2087 34.0777 17.1072 34.2726 16.9717L34.3722 16.8908L34.1517 16.2336ZM34.1517 16.2336C34.0273 15.8793 33.9056 15.5374 33.8733 15.4799C33.7228 15.3073 33.5543 15.1511 33.3713 15.0138C33.1224 14.8164 32.653 14.4326 32.3235 14.1607C31.481 13.4537 31.1188 13.2532 30.6496 13.219C30.4872 13.2045 30.3239 13.2302 30.1739 13.2936C30.0172 13.353 29.867 13.4285 29.7262 13.5189C29.535 13.651 29.3482 13.8297 29.3482 13.8965C29.4009 14.038 29.461 14.1764 29.5287 14.3114C29.7582 14.8365 29.9487 15.3777 30.0991 15.9306C30.2095 16.319 30.3852 16.4542 31.2324 16.807C32.0795 17.1598 32.21 17.2047 32.4992 17.2607C32.8744 17.3209 33.2564 17.3245 33.6324 17.2716C33.8613 17.2087 34.0777 17.1072 34.2726 16.9717L34.3722 16.8908L34.1517 16.2336ZM34.1517 16.2336C34.0273 15.8793 33.9056 15.5374 33.8733 15.4799C33.7228 15.3073 33.5543 15.1511 33.3713 15.0138C33.1224 14.8164 32.653 14.4326 32.3235 14.1607C31.481 13.4537 31.1188 13.2532 30.6496 13.219C30.4872 13.2045 30.3239 13.2302 30.1739 13.2936C30.0172 13.353 29.867 13.4285 29.7262 13.5189C29.535 13.651 29.3482 13.8297 29.3482 13.8965C29.4009 14.038 29.461 14.1764 29.5287 14.3114C29.7582 14.8365 29.9487 15.3777 30.0991 15.9306C30.2095 16.319 30.3852 16.4542 31.2324 16.807C32.0795 17.1598 32.21 17.2047 32.4992 17.2607C32.8744 17.3209 33.2564 17.3245 33.6324 17.2716C33.8613 17.2087 34.0777 17.1072 34.2726 16.9717L34.3722 16.8908L34.1517 16.2336ZM34.1517 16.2336C34.0273 15.8793 33.9056 15.5374 33.8733 15.4799C33.7228 15.3073 33.5543 15.1511 33.3713 15.0138C33.1224 14.8164 32.653 14.4326 32.3235 14.1607C31.481 13.4537 31.1188 13.2532 30.6496 13.219C30.4872 13.2045 30.3239 13.2302 30.1739 13.2936C30.0172 13.353 29.867 13.4285 29.7262 13.5189C29.535 13.651 29.3482 13.8297 29.3482 13.8965C29.4009 14.038 29.461 14.1764 29.5287 14.3114C29.7582 14.8365 29.9487 15.3777 30.0991 15.9306C30.2095 16.319 30.3852 16.4542 31.2324 16.807C32.0795 17.1598 32.21 17.2047 32.4992 17.2607C32.8744 17.3209 33.2564 17.3245 33.6324 17.2716C33.8613 17.2087 34.0777 17.1072 34.2726 16.9717L34.3722 16.8908L34.1517 16.2336ZM34.1517 16.2336C34.0273 15.8793 33.9056 15.5374 33.8733 15.4799C33.7228 15.3073 33.5543 15.1511 33.3713 15.0138C33.1224 14.8164 32.653 14.4326 32.3235 14.1607C31.481 13.4537 31.1188 13.2532 30.6496 13.219C30.4872 13.2045 30.3239 13.2302 30.1739 13.2936C30.0172 13.353 29.867 13.4285 29.7262 13.5189C29.535 13.651 29.3482 13.8297 29.3482 13.8965C29.4009 14.038 29.461 14.1764 29.5287 14.3114C29.7582 14.8365 29.9487 15.3777 30.0991 15.9306C30.2095 16.319 30.3852 16.4542 31.2324 16.807C32.0795 17.1598 32.21 17.2047 32.4992 17.2607C32.8744 17.3209 33.2564 17.3245 33.6324 17.2716C33.8613 17.2087 34.0777 17.1072 34.2726 16.9717L34.3722 16.8908L34.1517 16.2336ZM34.1517 16.2336C34.0273 15.8793 33.9056 15.5374 33.8733 15.4799C33.7228 15.3073 33.5543 15.1511 33.3713 15.0138C33.1224 14.8164 32.653 14.4326 32.3235 14.1607C31.481 13.4537 31.1188 13.2532 30.6496 13.219C30.4872 13.2045 30.3239 13.2302 30.1739 13.2936C30.0172 13.353 29.867 13.4285 29.7262 13.5189C29.535 13.651 29.3482 13.8297 29.3482 13.8965C29.4009 14.038 29.461 14.1764 29.5287 14.3114C29.7582 14.8365 29.9487 15.3777 30.0991 15.9306C30.2095 16.319 30.3852 16.4542 31.2324 16.807C32.0795 17.1598 32.21 17.2047 32.4992 17.2607C32.8744 17.3209 33.2564 17.3245 33.6324 17.2716C33.8613 17.2087 34.0777 17.1072 34.2726 16.9717L34.3722 16.8908L34.1517 16.2336ZM44.9406 25.6487C44.6512 25.1648 44.3271 24.7026 43.9705 24.2658C43.6705 23.885 42.9231 22.9821 42.1177 22.028C41.8349 21.6953 41.4959 21.3008 41.3762 21.1516C41.2564 21.0025 41.0982 20.8207 41.0359 20.7507C40.9738 20.6809 40.8043 20.4835 40.6579 20.3124L39.988 19.5246C38.771 18.092 37.5231 16.5863 37.1296 16.086C36.6633 15.4924 36.6508 15.452 36.1036 13.6836C35.9916 13.3091 35.8739 12.9424 35.844 12.8709C35.8184 12.8133 35.7824 12.7608 35.7385 12.7156C35.5332 12.4747 35.0406 12.0645 34.2321 11.4631C33.766 11.1104 33.3448 10.7872 33.2998 10.7437C32.8629 10.3894 32.3968 10.0273 31.9209 9.68079C31.5961 9.44305 31.2679 9.21461 30.9431 8.99553C30.2072 8.48158 29.4268 8.03386 28.6116 7.65761C28.5431 7.62813 28.4748 7.60013 28.4097 7.57682C28.1391 7.45601 27.8463 7.39307 27.55 7.39187H27.4879L27.4116 7.40279H27.3526C27.2406 7.41676 27.1272 7.43227 27.0138 7.45094C26.9002 7.46956 26.8132 7.48047 26.7121 7.4991C26.6111 7.51776 26.5255 7.53021 26.4323 7.54882C26.3731 7.55816 26.314 7.57059 26.2552 7.58305H26.2209C26.1058 7.60477 25.9909 7.62966 25.8775 7.6545L25.6957 7.6949L25.5634 7.72596L25.4236 7.76014C25.2681 7.79748 25.1283 7.83475 24.9852 7.87362L24.6556 7.96992L24.4848 8.02276C24.3675 8.06761 24.2453 8.09895 24.1209 8.116C24.1741 7.87123 24.2405 7.62953 24.3199 7.39187C25.0522 4.96315 25.2978 3.7247 25.3521 2.10865C25.3785 1.18096 25.2696 0.0404015 25.15 0C25.1235 0 25.0443 0.0839105 24.9682 0.203561C24.8919 0.32321 24.6851 0.651082 24.5128 0.932337C24.0091 1.69908 23.4626 2.43679 22.8758 3.14198C22.0038 4.15046 20.5817 5.38426 19.5993 5.98097C18.9138 6.39585 18.4272 6.58695 17.1122 6.92258V6.93508C16.8118 7.01898 16.5008 7.10752 16.1796 7.20076L16.1907 8.66609L16.2217 11.8097L14.5678 9.13693L13.8573 7.99017C12.9589 8.34344 12.0845 8.75513 11.2398 9.22241L11.5336 10.9534L12.0605 14.0519L9.99937 11.6776L9.06674 10.6038C8.25343 11.194 7.48552 11.8443 6.76938 12.5493L7.44088 14.0519L8.72165 16.9236L6.13514 15.1365L5.09993 14.4202C4.46323 15.2287 3.88704 16.0831 3.37614 16.9763L4.22172 18.0642L6.14608 20.5502L3.2098 19.4253L2.30825 19.0802C1.84816 20.1202 1.46071 21.1909 1.14867 22.2846L2.22588 23.0615L4.77042 24.9107L1.63522 24.6526L0.592232 24.5671C0.402589 25.5211 0.259575 26.4877 0.163206 27.4588L1.57304 28.1814L4.37096 29.6158L1.23885 29.8566L0.0108859 29.9452C-0.0124348 30.8885 0.00155364 31.8314 0.0544012 32.7686L1.74402 33.3541L4.71447 34.3862L1.63988 35.0483L0.286011 35.3389C0.421234 36.4266 0.606215 37.5141 0.834695 38.5582L1.98652 38.6234L5.12481 38.8008L2.35024 40.2817L1.39428 40.7931C1.79554 42.2175 2.29361 43.613 2.88495 44.9695C2.88495 44.9695 18.0619 43.5091 34.1528 55.8253C35.276 52.6069 35.6345 49.1713 35.2005 45.7903C34.9095 43.5147 34.2591 41.2997 33.2732 39.2282C31.5945 35.0981 30.3822 34.0224 30.1413 33.8407L30.0975 33.8101C30.0975 33.8689 30.0975 35.3883 28.3878 34.0863C25.2912 31.6712 22.901 28.4681 21.4677 24.8127C20.9446 23.4832 20.6442 22.0767 20.5784 20.6499V20.6374L20.5694 20.6C21.0166 21.5569 21.5612 22.4651 22.195 23.3102C22.6738 23.9078 23.2162 24.451 23.8131 24.9308C24.9494 25.7713 26.2801 26.3291 27.895 26.6649C28.1501 26.7145 28.537 26.7969 28.7653 26.8451C29.2179 26.9431 29.9808 27.0751 30.7863 27.1917C31.0724 27.2322 31.5059 27.3159 31.75 27.3765C33.3292 27.7652 35.6359 28.7643 36.1629 29.2988C36.3182 29.4541 36.4256 29.6919 36.7845 30.6429C37.0956 31.4556 37.2167 31.7524 37.3226 31.8629C37.3285 31.8698 37.3355 31.8766 37.3427 31.8828C37.4982 32.0274 39.786 32.3274 41.0031 32.3722C41.6456 32.4211 42.2896 32.2961 42.8668 32.0103C43.1384 31.8958 43.3821 31.7249 43.5819 31.5086C43.7427 31.3541 43.8825 31.1789 43.9968 30.9878C44.1653 30.5573 44.3083 30.1172 44.4259 29.6702C44.6683 28.8122 44.8176 28.3431 45.048 27.6983C45.0819 27.6005 45.1193 27.4977 45.1583 27.3875C45.3616 26.8204 45.329 26.3495 44.9406 25.6533V25.6487ZM16.503 14.0519C12.0325 19.6101 11.5025 26.0557 19.7671 33.2053C17.2845 32.847 14.8554 32.1846 12.5346 31.2334C12.7973 31.5534 17.9641 37.7161 26.2396 40.4016H26.2489C26.3328 40.4309 26.4169 40.4571 26.4975 40.4806C27.6074 40.8084 28.3364 40.6004 28.3801 39.6089C28.4731 39.7408 31.6753 44.3499 31.1359 48.9182C28.6701 46.2231 25.8459 43.8792 22.7424 41.9521C23.4335 42.9586 23.8994 44.1027 24.1086 45.3055C23.2785 44.6666 16.7065 39.7536 8.98278 38.0285C5.65489 20.8907 16.503 14.0519 16.503 14.0519ZM43.9347 26.9291C43.747 27.5181 43.2076 28.9926 43.1578 29.0469C43.1399 29.0665 43.1173 29.0812 43.0926 29.0896C43.0674 29.0981 43.0405 29.1 43.0148 29.0952C42.9821 29.0881 42.9524 29.0723 42.928 29.0499C42.903 29.0277 42.8849 28.9993 42.8747 28.9679C42.8528 28.9102 42.7503 28.5218 42.6446 28.0976L42.4535 27.3299L42.5481 27.0533C42.5716 26.985 42.5919 26.9258 42.6072 26.8748C42.6072 26.8575 42.6184 26.842 42.623 26.8265C42.6494 26.7702 42.6639 26.7089 42.6663 26.647C42.6688 26.5846 42.6588 26.5228 42.637 26.4645C42.6375 26.4582 42.6375 26.452 42.637 26.4457C42.5744 26.2996 42.5064 26.2189 41.3342 24.9154C40.899 24.4305 40.091 23.5168 39.5201 22.8826C38.9497 22.2487 38.3 21.5121 38.0562 21.2511C37.8121 20.9902 37.3784 20.5114 37.0986 20.2007C36.3742 19.3988 35.3064 18.3361 35.0559 18.1714C34.9345 18.0722 34.7922 18.0021 34.6397 17.9662C34.5389 17.9634 34.4389 17.9835 34.3475 18.0251C33.9325 18.1831 33.4899 18.2539 33.0465 18.2335C32.4663 18.246 31.889 18.1503 31.3441 17.9507C30.4939 17.6664 29.4106 17.1489 29.0872 16.8753C28.879 16.6951 28.7266 16.3439 28.4656 15.4551C28.3618 15.0755 28.2371 14.7021 28.0923 14.3363C28.0131 14.1467 27.9368 13.9478 27.9245 13.8965C27.8593 13.5376 28.6597 12.9005 29.4232 12.7047L29.6717 12.6409V12.3846C29.6717 11.7335 29.4602 11.2425 28.9644 10.7297C28.7918 10.5525 28.6955 10.4546 28.7174 10.4391C28.739 10.4235 28.9565 10.5245 29.4339 10.7623C30.8375 11.4841 32.1882 12.3051 33.4754 13.219C33.7828 13.4316 34.0741 13.6663 34.3475 13.9214C34.5529 14.1169 34.7194 14.3494 34.8384 14.6066L34.8481 14.6268C34.9304 14.7978 35.0189 15.0122 35.1305 15.2981C35.1432 15.3323 35.1572 15.3665 35.1712 15.4038C35.3002 15.762 35.4491 16.1127 35.6171 16.4542C35.7768 16.7215 36.3064 17.3793 37.206 18.4277L37.991 19.3461L38.0111 19.3709L38.6109 20.0734C38.9871 20.513 39.797 21.4469 40.4127 22.1416C42.326 24.3077 43.3953 25.5446 43.6984 25.9376C43.8295 26.0933 43.9216 26.2784 43.9659 26.4769C43.993 26.6279 43.982 26.7832 43.9347 26.9291ZM33.8809 15.4846C33.7304 15.312 33.5624 15.1557 33.3791 15.0184C33.1304 14.8211 32.6608 14.4372 32.3314 14.1653C31.4889 13.4584 31.1265 13.2579 30.6573 13.2237C30.4951 13.2092 30.3317 13.2348 30.1816 13.2983C30.0224 13.3556 29.8697 13.4296 29.7262 13.5189C29.535 13.651 29.3482 13.8297 29.3482 13.8965C29.4009 14.038 29.461 14.1764 29.5287 14.3114C29.7582 14.8365 29.9487 15.3777 30.0991 15.9306C30.2095 16.319 30.3852 16.4542 31.2324 16.807C32.0795 17.1598 32.21 17.2047 32.4992 17.2607C32.8744 17.3209 33.2564 17.3245 33.6324 17.2716C33.8613 17.2087 34.0777 17.1072 34.2726 16.9717L34.3722 16.8908L34.1517 16.2382C34.0273 15.884 33.9056 15.539 33.8809 15.4846ZM34.1591 16.2382C34.0351 15.884 33.9135 15.5421 33.8809 15.4846C33.7304 15.312 33.5624 15.1557 33.3791 15.0184C33.1304 14.8211 32.6608 14.4372 32.3314 14.1653C31.4889 13.4584 31.1265 13.2579 30.6573 13.2237C30.4951 13.2092 30.3317 13.2348 30.1816 13.2983C30.0224 13.3556 29.8697 13.4296 29.7262 13.5189C29.535 13.651 29.3482 13.8297 29.3482 13.8965C29.4009 14.038 29.461 14.1764 29.5287 14.3114C29.7582 14.8365 29.9487 15.3777 30.0991 15.9306C30.2095 16.319 30.3852 16.4542 31.2324 16.807C32.0795 17.1598 32.21 17.2047 32.4992 17.2607C32.8744 17.3209 33.2564 17.3245 33.6324 17.2716C33.8613 17.2087 34.0777 17.1072 34.2726 16.9717L34.3722 16.8908L34.1591 16.2382ZM34.1591 16.2382C34.0351 15.884 33.9135 15.5421 33.8809 15.4846C33.7304 15.312 33.5624 15.1557 33.3791 15.0184C33.1304 14.8211 32.6608 14.4372 32.3314 14.1653C31.4889 13.4584 31.1265 13.2579 30.6573 13.2237C30.4951 13.2092 30.3317 13.2348 30.1816 13.2983C30.0224 13.3556 29.8697 13.4296 29.7262 13.5189C29.535 13.651 29.3482 13.8297 29.3482 13.8965C29.4009 14.038 29.461 14.1764 29.5287 14.3114C29.7582 14.8365 29.9487 15.3777 30.0991 15.9306C30.2095 16.319 30.3852 16.4542 31.2324 16.807C32.0795 17.1598 32.21 17.2047 32.4992 17.2607C32.8744 17.3209 33.2564 17.3245 33.6324 17.2716C33.8613 17.2087 34.0777 17.1072 34.2726 16.9717L34.3722 16.8908L34.1591 16.2382ZM34.1591 16.2382C34.0351 15.884 33.9135 15.5421 33.8809 15.4846C33.7304 15.312 33.5624 15.1557 33.3791 15.0184C33.1304 14.8211 32.6608 14.4372 32.3314 14.1653C31.4889 13.4584 31.1265 13.2579 30.6573 13.2237C30.4951 13.2092 30.3317 13.2348 30.1816 13.2983C30.0224 13.3556 29.8697 13.4296 29.7262 13.5189C29.535 13.651 29.3482 13.8297 29.3482 13.8965C29.4009 14.038 29.461 14.1764 29.5287 14.3114C29.7582 14.8365 29.9487 15.3777 30.0991 15.9306C30.2095 16.319 30.3852 16.4542 31.2324 16.807C32.0795 17.1598 32.21 17.2047 32.4992 17.2607C32.8744 17.3209 33.2564 17.3245 33.6324 17.2716C33.8613 17.2087 34.0777 17.1072 34.2726 16.9717L34.3722 16.8908L34.1591 16.2382ZM34.1591 16.2382C34.0351 15.884 33.9135 15.5421 33.8809 15.4846C33.7304 15.312 33.5624 15.1557 33.3791 15.0184C33.1304 14.8211 32.6608 14.4372 32.3314 14.1653C31.4889 13.4584 31.1265 13.2579 30.6573 13.2237C30.4951 13.2092 30.3317 13.2348 30.1816 13.2983C30.0224 13.3556 29.8697 13.4296 29.7262 13.5189C29.535 13.651 29.3482 13.8297 29.3482 13.8965C29.4009 14.038 29.461 14.1764 29.5287 14.3114C29.7582 14.8365 29.9487 15.3777 30.0991 15.9306C30.2095 16.319 30.3852 16.4542 31.2324 16.807C32.0795 17.1598 32.21 17.2047 32.4992 17.2607C32.8744 17.3209 33.2564 17.3245 33.6324 17.2716C33.8613 17.2087 34.0777 17.1072 34.2726 16.9717L34.3722 16.8908L34.1591 16.2382ZM34.1517 16.2382C34.0273 15.884 33.9056 15.5421 33.8733 15.4846C33.7228 15.312 33.5543 15.1557 33.3713 15.0184C33.1224 14.8211 32.653 14.4372 32.3235 14.1653C31.481 13.4584 31.1188 13.2579 30.6496 13.2237C30.4872 13.2092 30.3239 13.2348 30.1739 13.2983C30.0174 13.3561 29.8674 13.4301 29.7262 13.5189C29.535 13.651 29.3482 13.8297 29.3482 13.8965C29.4009 14.038 29.461 14.1764 29.5287 14.3114C29.7582 14.8365 29.9487 15.3777 30.0991 15.9306C30.2095 16.319 30.3852 16.4542 31.2324 16.807C32.0795 17.1598 32.21 17.2047 32.4992 17.2607C32.8744 17.3209 33.2564 17.3245 33.6324 17.2716C33.8613 17.2087 34.0777 17.1072 34.2726 16.9717L34.3722 16.8908L34.1517 16.2382ZM34.1517 16.2382C34.0273 15.884 33.9056 15.5421 33.8733 15.4846C33.7228 15.312 33.5543 15.1557 33.3713 15.0184C33.1224 14.8211 32.653 14.4372 32.3235 14.1653C31.481 13.4584 31.1188 13.2579 30.6496 13.2237C30.4872 13.2092 30.3239 13.2348 30.1739 13.2983C30.0174 13.3561 29.8674 13.4301 29.7262 13.5189C29.535 13.651 29.3482 13.8297 29.3482 13.8965C29.4009 14.038 29.461 14.1764 29.5287 14.3114C29.7582 14.8365 29.9487 15.3777 30.0991 15.9306C30.2095 16.319 30.3852 16.4542 31.2324 16.807C32.0795 17.1598 32.21 17.2047 32.4992 17.2607C32.8744 17.3209 33.2564 17.3245 33.6324 17.2716C33.8613 17.2087 34.0777 17.1072 34.2726 16.9717L34.3722 16.8908L34.1517 16.2382ZM34.1517 16.2382C34.0273 15.884 33.9056 15.5421 33.8733 15.4846C33.7228 15.312 33.5543 15.1557 33.3713 15.0184C33.1224 14.8211 32.653 14.4372 32.3235 14.1653C31.481 13.4584 31.1188 13.2579 30.6496 13.2237C30.4872 13.2092 30.3239 13.2348 30.1739 13.2983C30.0174 13.3561 29.8674 13.4301 29.7262 13.5189C29.535 13.651 29.3482 13.8297 29.3482 13.8965C29.4009 14.038 29.461 14.1764 29.5287 14.3114C29.7582 14.8365 29.9487 15.3777 30.0991 15.9306C30.2095 16.319 30.3852 16.4542 31.2324 16.807C32.0795 17.1598 32.21 17.2047 32.4992 17.2607C32.8744 17.3209 33.2564 17.3245 33.6324 17.2716C33.8613 17.2087 34.0777 17.1072 34.2726 16.9717L34.3722 16.8908L34.1517 16.2382ZM34.1517 16.2382C34.0273 15.884 33.9056 15.5421 33.8733 15.4846C33.7228 15.312 33.5543 15.1557 33.3713 15.0184C33.1224 14.8211 32.653 14.4372 32.3235 14.1653C31.481 13.4584 31.1188 13.2579 30.6496 13.2237C30.4872 13.2092 30.3239 13.2348 30.1739 13.2983C30.0174 13.3561 29.8674 13.4301 29.7262 13.5189C29.535 13.651 29.3482 13.8297 29.3482 13.8965C29.4009 14.038 29.461 14.1764 29.5287 14.3114C29.7582 14.8365 29.9487 15.3777 30.0991 15.9306C30.2095 16.319 30.3852 16.4542 31.2324 16.807C32.0795 17.1598 32.21 17.2047 32.4992 17.2607C32.8744 17.3209 33.2564 17.3245 33.6324 17.2716C33.8613 17.2087 34.0777 17.1072 34.2726 16.9717L34.3722 16.8908L34.1517 16.2382ZM34.1517 16.2382C34.0273 15.884 33.9056 15.5421 33.8733 15.4846C33.7228 15.312 33.5543 15.1557 33.3713 15.0184C33.1224 14.8211 32.653 14.4372 32.3235 14.1653C31.481 13.4584 31.1188 13.2579 30.6496 13.2237C30.4872 13.2092 30.3239 13.2348 30.1739 13.2983C30.0174 13.3561 29.8674 13.4301 29.7262 13.5189C29.535 13.651 29.3482 13.8297 29.3482 13.8965C29.4009 14.038 29.461 14.1764 29.5287 14.3114C29.7582 14.8365 29.9487 15.3777 30.0991 15.9306C30.2095 16.319 30.3852 16.4542 31.2324 16.807C32.0795 17.1598 32.21 17.2047 32.4992 17.2607C32.8744 17.3209 33.2564 17.3245 33.6324 17.2716C33.8613 17.2087 34.0777 17.1072 34.2726 16.9717L34.3722 16.8908L34.1517 16.2382ZM34.1517 16.2382C34.0273 15.884 33.9056 15.5421 33.8733 15.4846C33.7228 15.312 33.5543 15.1557 33.3713 15.0184C33.1224 14.8211 32.653 14.4372 32.3235 14.1653C31.481 13.4584 31.1188 13.2579 30.6496 13.2237C30.4872 13.2092 30.3239 13.2348 30.1739 13.2983C30.0174 13.3561 29.8674 13.4301 29.7262 13.5189C29.535 13.651 29.3482 13.8297 29.3482 13.8965C29.4009 14.038 29.461 14.1764 29.5287 14.3114C29.7582 14.8365 29.9487 15.3777 30.0991 15.9306C30.2095 16.319 30.3852 16.4542 31.2324 16.807C32.0795 17.1598 32.21 17.2047 32.4992 17.2607C32.8744 17.3209 33.2564 17.3245 33.6324 17.2716C33.8613 17.2087 34.0777 17.1072 34.2726 16.9717L34.3722 16.8908L34.1517 16.2382ZM34.1517 16.2382C34.0273 15.884 33.9056 15.5421 33.8733 15.4846C33.7228 15.312 33.5543 15.1557 33.3713 15.0184C33.1224 14.8211 32.653 14.4372 32.3235 14.1653C31.481 13.4584 31.1188 13.2579 30.6496 13.2237C30.4872 13.2092 30.3239 13.2348 30.1739 13.2983C30.0174 13.3561 29.8674 13.4301 29.7262 13.5189C29.535 13.651 29.3482 13.8297 29.3482 13.8965C29.4009 14.038 29.461 14.1764 29.5287 14.3114C29.7582 14.8365 29.9487 15.3777 30.0991 15.9306C30.2095 16.319 30.3852 16.4542 31.2324 16.807C32.0795 17.1598 32.21 17.2047 32.4992 17.2607C32.8744 17.3209 33.2564 17.3245 33.6324 17.2716C33.8613 17.2087 34.0777 17.1072 34.2726 16.9717L34.3722 16.8908L34.1517 16.2382ZM34.1517 16.2382C34.0273 15.884 33.9056 15.5421 33.8733 15.4846C33.7228 15.312 33.5543 15.1557 33.3713 15.0184C33.1224 14.8211 32.653 14.4372 32.3235 14.1653C31.481 13.4584 31.1188 13.2579 30.6496 13.2237C30.4872 13.2092 30.3239 13.2348 30.1739 13.2983C30.0174 13.3561 29.8674 13.4301 29.7262 13.5189C29.535 13.651 29.3482 13.8297 29.3482 13.8965C29.4009 14.038 29.461 14.1764 29.5287 14.3114C29.7582 14.8365 29.9487 15.3777 30.0991 15.9306C30.2095 16.319 30.3852 16.4542 31.2324 16.807C32.0795 17.1598 32.21 17.2047 32.4992 17.2607C32.8744 17.3209 33.2564 17.3245 33.6324 17.2716C33.8613 17.2087 34.0777 17.1072 34.2726 16.9717L34.3722 16.8908L34.1517 16.2382ZM34.1517 16.2382C34.0273 15.884 33.9056 15.5421 33.8733 15.4846C33.7228 15.312 33.5543 15.1557 33.3713 15.0184C33.1224 14.8211 32.653 14.4372 32.3235 14.1653C31.481 13.4584 31.1188 13.2579 30.6496 13.2237C30.4872 13.2092 30.3239 13.2348 30.1739 13.2983C30.0174 13.3561 29.8674 13.4301 29.7262 13.5189C29.535 13.651 29.3482 13.8297 29.3482 13.8965C29.4009 14.038 29.461 14.1764 29.5287 14.3114C29.7582 14.8365 29.9487 15.3777 30.0991 15.9306C30.2095 16.319 30.3852 16.4542 31.2324 16.807C32.0795 17.1598 32.21 17.2047 32.4992 17.2607C32.8744 17.3209 33.2564 17.3245 33.6324 17.2716C33.8613 17.2087 34.0777 17.1072 34.2726 16.9717L34.3722 16.8908L34.1517 16.2382ZM34.1517 16.2382C34.0273 15.884 33.9056 15.5421 33.8733 15.4846C33.7228 15.312 33.5543 15.1557 33.3713 15.0184C33.1224 14.8211 32.653 14.4372 32.3235 14.1653C31.481 13.4584 31.1188 13.2579 30.6496 13.2237C30.4872 13.2092 30.3239 13.2348 30.1739 13.2983C30.0174 13.3561 29.8674 13.4301 29.7262 13.5189C29.535 13.651 29.3482 13.8297 29.3482 13.8965C29.4009 14.038 29.461 14.1764 29.5287 14.3114C29.7582 14.8365 29.9487 15.3777 30.0991 15.9306C30.2095 16.319 30.3852 16.4542 31.2324 16.807C32.0795 17.1598 32.21 17.2047 32.4992 17.2607C32.8744 17.3209 33.2564 17.3245 33.6324 17.2716C33.8613 17.2087 34.0777 17.1072 34.2726 16.9717L34.3722 16.8908L34.1517 16.2382ZM34.1517 16.2382C34.0273 15.884 33.9056 15.5421 33.8733 15.4846C33.7228 15.312 33.5543 15.1557 33.3713 15.0184C33.1224 14.8211 32.653 14.4372 32.3235 14.1653C31.481 13.4584 31.1188 13.2579 30.6496 13.2237C30.4872 13.2092 30.3239 13.2348 30.1739 13.2983C30.0174 13.3561 29.8674 13.4301 29.7262 13.5189C29.535 13.651 29.3482 13.8297 29.3482 13.8965C29.4009 14.038 29.461 14.1764 29.5287 14.3114C29.7582 14.8365 29.9487 15.3777 30.0991 15.9306C30.2095 16.319 30.3852 16.4542 31.2324 16.807C32.0795 17.1598 32.21 17.2047 32.4992 17.2607C32.8744 17.3209 33.2564 17.3245 33.6324 17.2716C33.8613 17.2087 34.0777 17.1072 34.2726 16.9717L34.3722 16.8908L34.1517 16.2382ZM34.1517 16.2382C34.0273 15.884 33.9056 15.5421 33.8733 15.4846C33.7228 15.312 33.5543 15.1557 33.3713 15.0184C33.1224 14.8211 32.653 14.4372 32.3235 14.1653C31.481 13.4584 31.1188 13.2579 30.6496 13.2237C30.4872 13.2092 30.3239 13.2348 30.1739 13.2983C30.0174 13.3561 29.8674 13.4301 29.7262 13.5189C29.535 13.651 29.3482 13.8297 29.3482 13.8965C29.4009 14.038 29.461 14.1764 29.5287 14.3114C29.7582 14.8365 29.9487 15.3777 30.0991 15.9306C30.2095 16.319 30.3852 16.4542 31.2324 16.807C32.0795 17.1598 32.21 17.2047 32.4992 17.2607C32.8744 17.3209 33.2564 17.3245 33.6324 17.2716C33.8613 17.2087 34.0777 17.1072 34.2726 16.9717L34.3722 16.8908L34.1517 16.2382ZM34.1517 16.2382C34.0273 15.884 33.9056 15.5421 33.8733 15.4846C33.7228 15.312 33.5543 15.1557 33.3713 15.0184C33.1224 14.8211 32.653 14.4372 32.3235 14.1653C31.481 13.4584 31.1188 13.2579 30.6496 13.2237C30.4872 13.2092 30.3239 13.2348 30.1739 13.2983C30.0174 13.3561 29.8674 13.4301 29.7262 13.5189C29.535 13.651 29.3482 13.8297 29.3482 13.8965C29.4009 14.038 29.461 14.1764 29.5287 14.3114C29.7582 14.8365 29.9487 15.3777 30.0991 15.9306C30.2095 16.319 30.3852 16.4542 31.2324 16.807C32.0795 17.1598 32.21 17.2047 32.4992 17.2607C32.8744 17.3209 33.2564 17.3245 33.6324 17.2716C33.8613 17.2087 34.0777 17.1072 34.2726 16.9717L34.3722 16.8908L34.1517 16.2382ZM42.4535 27.3299L42.5481 27.0533C42.5716 26.985 42.5919 26.9258 42.6072 26.8748L42.4535 27.3299ZM34.1517 16.2382C34.0273 15.884 33.9056 15.5421 33.8733 15.4846C33.7228 15.312 33.5543 15.1557 33.3713 15.0184C33.1224 14.8211 32.653 14.4372 32.3235 14.1653C31.481 13.4584 31.1188 13.2579 30.6496 13.2237C30.4872 13.2092 30.3239 13.2348 30.1739 13.2983C30.0174 13.3561 29.8674 13.4301 29.7262 13.5189C29.535 13.651 29.3482 13.8297 29.3482 13.8965C29.4009 14.038 29.461 14.1764 29.5287 14.3114C29.7582 14.8365 29.9487 15.3777 30.0991 15.9306C30.2095 16.319 30.3852 16.4542 31.2324 16.807C32.0795 17.1598 32.21 17.2047 32.4992 17.2607C32.8744 17.3209 33.2564 17.3245 33.6324 17.2716C33.8613 17.2087 34.0777 17.1072 34.2726 16.9717L34.3722 16.8908L34.1517 16.2382ZM34.1517 16.2382C34.0273 15.884 33.9056 15.5421 33.8733 15.4846C33.7228 15.312 33.5543 15.1557 33.3713 15.0184C33.1224 14.8211 32.653 14.4372 32.3235 14.1653C31.481 13.4584 31.1188 13.2579 30.6496 13.2237C30.4872 13.2092 30.3239 13.2348 30.1739 13.2983C30.0174 13.3561 29.8674 13.4301 29.7262 13.5189C29.535 13.651 29.3482 13.8297 29.3482 13.8965C29.4009 14.038 29.461 14.1764 29.5287 14.3114C29.7582 14.8365 29.9487 15.3777 30.0991 15.9306C30.2095 16.319 30.3852 16.4542 31.2324 16.807C32.0795 17.1598 32.21 17.2047 32.4992 17.2607C32.8744 17.3209 33.2564 17.3245 33.6324 17.2716C33.8613 17.2087 34.0777 17.1072 34.2726 16.9717L34.3722 16.8908L34.1517 16.2382ZM34.1517 16.2382C34.0273 15.884 33.9056 15.5421 33.8733 15.4846C33.7228 15.312 33.5543 15.1557 33.3713 15.0184C33.1224 14.8211 32.653 14.4372 32.3235 14.1653C31.481 13.4584 31.1188 13.2579 30.6496 13.2237C30.4872 13.2092 30.3239 13.2348 30.1739 13.2983C30.0174 13.3561 29.8674 13.4301 29.7262 13.5189C29.535 13.651 29.3482 13.8297 29.3482 13.8965C29.4009 14.038 29.461 14.1764 29.5287 14.3114C29.7582 14.8365 29.9487 15.3777 30.0991 15.9306C30.2095 16.319 30.3852 16.4542 31.2324 16.807C32.0795 17.1598 32.21 17.2047 32.4992 17.2607C32.8744 17.3209 33.2564 17.3245 33.6324 17.2716C33.8613 17.2087 34.0777 17.1072 34.2726 16.9717L34.3722 16.8908L34.1517 16.2382ZM34.1517 16.2382C34.0273 15.884 33.9056 15.5421 33.8733 15.4846C33.7228 15.312 33.5543 15.1557 33.3713 15.0184C33.1224 14.8211 32.653 14.4372 32.3235 14.1653C31.481 13.4584 31.1188 13.2579 30.6496 13.2237C30.4872 13.2092 30.3239 13.2348 30.1739 13.2983C30.0174 13.3561 29.8674 13.4301 29.7262 13.5189C29.535 13.651 29.3482 13.8297 29.3482 13.8965C29.4009 14.038 29.461 14.1764 29.5287 14.3114C29.7582 14.8365 29.9487 15.3777 30.0991 15.9306C30.2095 16.319 30.3852 16.4542 31.2324 16.807C32.0795 17.1598 32.21 17.2047 32.4992 17.2607C32.8744 17.3209 33.2564 17.3245 33.6324 17.2716C33.8613 17.2087 34.0777 17.1072 34.2726 16.9717L34.3722 16.8908L34.1517 16.2382ZM34.1517 16.2382C34.0273 15.884 33.9056 15.5421 33.8733 15.4846C33.7228 15.312 33.5543 15.1557 33.3713 15.0184C33.1224 14.8211 32.653 14.4372 32.3235 14.1653C31.481 13.4584 31.1188 13.2579 30.6496 13.2237C30.4872 13.2092 30.3239 13.2348 30.1739 13.2983C30.0174 13.3561 29.8674 13.4301 29.7262 13.5189C29.535 13.651 29.3482 13.8297 29.3482 13.8965C29.4009 14.038 29.461 14.1764 29.5287 14.3114C29.7582 14.8365 29.9487 15.3777 30.0991 15.9306C30.2095 16.319 30.3852 16.4542 31.2324 16.807C32.0795 17.1598 32.21 17.2047 32.4992 17.2607C32.8744 17.3209 33.2564 17.3245 33.6324 17.2716C33.8613 17.2087 34.0777 17.1072 34.2726 16.9717L34.3722 16.8908L34.1517 16.2382ZM34.1517 16.2382C34.0273 15.884 33.9056 15.5421 33.8733 15.4846C33.7228 15.312 33.5543 15.1557 33.3713 15.0184C33.1224 14.8211 32.653 14.4372 32.3235 14.1653C31.481 13.4584 31.1188 13.2579 30.6496 13.2237C30.4872 13.2092 30.3239 13.2348 30.1739 13.2983C30.0174 13.3561 29.8674 13.4301 29.7262 13.5189C29.535 13.651 29.3482 13.8297 29.3482 13.8965C29.4009 14.038 29.461 14.1764 29.5287 14.3114C29.7582 14.8365 29.9487 15.3777 30.0991 15.9306C30.2095 16.319 30.3852 16.4542 31.2324 16.807C32.0795 17.1598 32.21 17.2047 32.4992 17.2607C32.8744 17.3209 33.2564 17.3245 33.6324 17.2716C33.8613 17.2087 34.0777 17.1072 34.2726 16.9717L34.3722 16.8908L34.1517 16.2382ZM34.1517 16.2382C34.0273 15.884 33.9056 15.5421 33.8733 15.4846C33.7228 15.312 33.5543 15.1557 33.3713 15.0184C33.1224 14.8211 32.653 14.4372 32.3235 14.1653C31.481 13.4584 31.1188 13.2579 30.6496 13.2237C30.4872 13.2092 30.3239 13.2348 30.1739 13.2983C30.0174 13.3561 29.8674 13.4301 29.7262 13.5189C29.535 13.651 29.3482 13.8297 29.3482 13.8965C29.4009 14.038 29.461 14.1764 29.5287 14.3114C29.7582 14.8365 29.9487 15.3777 30.0991 15.9306C30.2095 16.319 30.3852 16.4542 31.2324 16.807C32.0795 17.1598 32.21 17.2047 32.4992 17.2607C32.8744 17.3209 33.2564 17.3245 33.6324 17.2716C33.8613 17.2087 34.0777 17.1072 34.2726 16.9717L34.3722 16.8908L34.1517 16.2382ZM34.1517 16.2382C34.0273 15.884 33.9056 15.5421 33.8733 15.4846C33.7228 15.312 33.5543 15.1557 33.3713 15.0184C33.1224 14.8211 32.653 14.4372 32.3235 14.1653C31.481 13.4584 31.1188 13.2579 30.6496 13.2237C30.4872 13.2092 30.3239 13.2348 30.1739 13.2983C30.0174 13.3561 29.8674 13.4301 29.7262 13.5189C29.535 13.651 29.3482 13.8297 29.3482 13.8965C29.4009 14.038 29.461 14.1764 29.5287 14.3114C29.7582 14.8365 29.9487 15.3777 30.0991 15.9306C30.2095 16.319 30.3852 16.4542 31.2324 16.807C32.0795 17.1598 32.21 17.2047 32.4992 17.2607C32.8744 17.3209 33.2564 17.3245 33.6324 17.2716C33.8613 17.2087 34.0777 17.1072 34.2726 16.9717L34.3722 16.8908L34.1517 16.2382ZM34.1517 16.2382C34.0273 15.884 33.9056 15.5421 33.8733 15.4846C33.7228 15.312 33.5543 15.1557 33.3713 15.0184C33.1224 14.8211 32.653 14.4372 32.3235 14.1653C31.481 13.4584 31.1188 13.2579 30.6496 13.2237C30.4872 13.2092 30.3239 13.2348 30.1739 13.2983C30.0174 13.3561 29.8674 13.4301 29.7262 13.5189C29.535 13.651 29.3482 13.8297 29.3482 13.8965C29.4009 14.038 29.461 14.1764 29.5287 14.3114C29.7582 14.8365 29.9487 15.3777 30.0991 15.9306C30.2095 16.319 30.3852 16.4542 31.2324 16.807C32.0795 17.1598 32.21 17.2047 32.4992 17.2607C32.8744 17.3209 33.2564 17.3245 33.6324 17.2716C33.8613 17.2087 34.0777 17.1072 34.2726 16.9717L34.3722 16.8908L34.1517 16.2382ZM34.1517 16.2382C34.0273 15.884 33.9056 15.5421 33.8733 15.4846C33.7228 15.312 33.5543 15.1557 33.3713 15.0184C33.1224 14.8211 32.653 14.4372 32.3235 14.1653C31.481 13.4584 31.1188 13.2579 30.6496 13.2237C30.4872 13.2092 30.3239 13.2348 30.1739 13.2983C30.0174 13.3561 29.8674 13.4301 29.7262 13.5189C29.535 13.651 29.3482 13.8297 29.3482 13.8965C29.4009 14.038 29.461 14.1764 29.5287 14.3114C29.7582 14.8365 29.9487 15.3777 30.0991 15.9306C30.2095 16.319 30.3852 16.4542 31.2324 16.807C32.0795 17.1598 32.21 17.2047 32.4992 17.2607C32.8744 17.3209 33.2564 17.3245 33.6324 17.2716C33.8613 17.2087 34.0777 17.1072 34.2726 16.9717L34.3722 16.8908L34.1517 16.2382ZM34.1517 16.2382C34.0273 15.884 33.9056 15.5421 33.8733 15.4846C33.7228 15.312 33.5543 15.1557 33.3713 15.0184C33.1224 14.8211 32.653 14.4372 32.3235 14.1653C31.481 13.4584 31.1188 13.2579 30.6496 13.2237C30.4872 13.2092 30.3239 13.2348 30.1739 13.2983C30.0174 13.3561 29.8674 13.4301 29.7262 13.5189C29.535 13.651 29.3482 13.8297 29.3482 13.8965C29.4009 14.038 29.461 14.1764 29.5287 14.3114C29.7582 14.8365 29.9487 15.3777 30.0991 15.9306C30.2095 16.319 30.3852 16.4542 31.2324 16.807C32.0795 17.1598 32.21 17.2047 32.4992 17.2607C32.8744 17.3209 33.2564 17.3245 33.6324 17.2716C33.8613 17.2087 34.0777 17.1072 34.2726 16.9717L34.3722 16.8908L34.1517 16.2382ZM34.1517 16.2382C34.0273 15.884 33.9056 15.5421 33.8733 15.4846C33.7228 15.312 33.5543 15.1557 33.3713 15.0184C33.1224 14.8211 32.653 14.4372 32.3235 14.1653C31.481 13.4584 31.1188 13.2579 30.6496 13.2237C30.4872 13.2092 30.3239 13.2348 30.1739 13.2983C30.0174 13.3561 29.8674 13.4301 29.7262 13.5189C29.535 13.651 29.3482 13.8297 29.3482 13.8965C29.4009 14.038 29.461 14.1764 29.5287 14.3114C29.7582 14.8365 29.9487 15.3777 30.0991 15.9306C30.2095 16.319 30.3852 16.4542 31.2324 16.807C32.0795 17.1598 32.21 17.2047 32.4992 17.2607C32.8744 17.3209 33.2564 17.3245 33.6324 17.2716C33.8613 17.2087 34.0777 17.1072 34.2726 16.9717L34.3722 16.8908L34.1517 16.2382ZM34.1517 16.2382C34.0273 15.884 33.9056 15.5421 33.8733 15.4846C33.7228 15.312 33.5543 15.1557 33.3713 15.0184C33.1224 14.8211 32.653 14.4372 32.3235 14.1653C31.481 13.4584 31.1188 13.2579 30.6496 13.2237C30.4872 13.2092 30.3239 13.2348 30.1739 13.2983C30.0174 13.3561 29.8674 13.4301 29.7262 13.5189C29.535 13.651 29.3482 13.8297 29.3482 13.8965C29.4009 14.038 29.461 14.1764 29.5287 14.3114C29.7582 14.8365 29.9487 15.3777 30.0991 15.9306C30.2095 16.319 30.3852 16.4542 31.2324 16.807C32.0795 17.1598 32.21 17.2047 32.4992 17.2607C32.8744 17.3209 33.2564 17.3245 33.6324 17.2716C33.8613 17.2087 34.0777 17.1072 34.2726 16.9717L34.3722 16.8908L34.1517 16.2382ZM34.1517 16.2382C34.0273 15.884 33.9056 15.5421 33.8733 15.4846C33.7228 15.312 33.5543 15.1557 33.3713 15.0184C33.1224 14.8211 32.653 14.4372 32.3235 14.1653C31.481 13.4584 31.1188 13.2579 30.6496 13.2237C30.4872 13.2092 30.3239 13.2348 30.1739 13.2983C30.0174 13.3561 29.8674 13.4301 29.7262 13.5189C29.535 13.651 29.3482 13.8297 29.3482 13.8965C29.4009 14.038 29.461 14.1764 29.5287 14.3114C29.7582 14.8365 29.9487 15.3777 30.0991 15.9306C30.2095 16.319 30.3852 16.4542 31.2324 16.807C32.0795 17.1598 32.21 17.2047 32.4992 17.2607C32.8744 17.3209 33.2564 17.3245 33.6324 17.2716C33.8613 17.2087 34.0777 17.1072 34.2726 16.9717L34.3722 16.8908L34.1517 16.2382ZM34.1517 16.2382C34.0273 15.884 33.9056 15.5421 33.8733 15.4846C33.7228 15.312 33.5543 15.1557 33.3713 15.0184C33.1224 14.8211 32.653 14.4372 32.3235 14.1653C31.481 13.4584 31.1188 13.2579 30.6496 13.2237C30.4872 13.2092 30.3239 13.2348 30.1739 13.2983C30.0174 13.3561 29.8674 13.4301 29.7262 13.5189C29.535 13.651 29.3482 13.8297 29.3482 13.8965C29.4009 14.038 29.461 14.1764 29.5287 14.3114C29.7582 14.8365 29.9487 15.3777 30.0991 15.9306C30.2095 16.319 30.3852 16.4542 31.2324 16.807C32.0795 17.1598 32.21 17.2047 32.4992 17.2607C32.8744 17.3209 33.2564 17.3245 33.6324 17.2716C33.8613 17.2087 34.0777 17.1072 34.2726 16.9717L34.3722 16.8908L34.1517 16.2382Z" fill="var(--fill-0, white)"/>
<path id="Vector_2" fill-rule="evenodd" clip-rule="evenodd" d="M174.811 38.3688V20.7456C174.811 20.1914 174.796 19.6365 174.76 19.0827C174.73 18.61 174.699 18.1358 174.646 17.6672L174.425 15.9033H175.746L193.358 34.6812V19.4255C193.319 19.0244 193.169 18.6833 192.887 18.3928C192.604 18.1044 192.266 17.9782 191.865 17.9782H190.616V16.4111L198.823 16.4493V18.0131H197.577C197.188 18.0131 196.87 18.1609 196.597 18.4293C196.325 18.707 196.165 19.0284 196.145 19.4179V36.9828C196.145 37.516 196.162 38.0498 196.195 38.5818C196.226 39.0713 196.259 39.5631 196.312 40.0528C196.356 40.5444 196.417 41.0357 196.498 41.5221L196.564 41.9118H195.244L177.631 23.1004V38.3897C177.672 38.7908 177.828 39.1383 178.11 39.4295C178.387 39.7163 178.711 39.8544 179.108 39.8544H180.34V41.4198H172.12V39.8544H173.35C173.752 39.8544 174.076 39.7135 174.358 39.4279C174.646 39.1344 174.791 38.7779 174.811 38.3688ZM152.657 30.8212H159.225L156.008 22.3032L152.657 30.8212ZM165.861 37.6311L166.012 37.9593C166.261 38.5027 166.615 39.0324 167.137 39.3462C167.524 39.58 167.964 39.7555 168.424 39.7555H169.336V41.321H160.445V39.7555H161.368C161.59 39.7555 161.784 39.6952 161.954 39.556C162.13 39.4063 162.176 39.19 162.176 38.9673C162.176 38.7926 162.144 38.6196 162.09 38.4531L160.057 33.0811H151.798L149.65 38.5167C149.616 38.6626 149.584 38.8278 149.584 38.9672C149.584 39.206 149.64 39.4153 149.825 39.57C150.007 39.7169 150.203 39.79 150.437 39.79H151.36V41.3559H143.286V39.79H144.215C144.675 39.79 145.113 39.6151 145.501 39.3814C145.9 39.1386 146.204 38.7799 146.438 38.3802L154.287 19.8181C154.501 19.3374 154.708 18.8526 154.908 18.3692C155.062 17.9766 155.204 17.5775 155.333 17.1748C155.416 16.9043 155.509 16.557 155.509 16.2722V15.9379H156.828L165.861 37.6311ZM136.333 19.5497C136.311 19.1221 136.152 18.7693 135.856 18.4628C135.558 18.1607 135.204 18.0131 134.779 18.0131H133.711V16.4476H142.422V18.0131H141.353C140.926 18.0131 140.571 18.1635 140.269 18.4656C139.962 18.7723 139.79 19.1267 139.747 19.5576V40.9236C139.747 41.9256 139.577 42.902 139.209 43.837C138.857 44.7103 138.365 45.509 137.717 46.1941C137.075 46.8676 136.322 47.3955 135.47 47.7677C134.588 48.1617 133.648 48.3398 132.684 48.3398H132.35V47.0076L132.57 46.9277C133.114 46.7293 133.603 46.42 134.036 46.0385C134.501 45.6168 134.903 45.1361 135.228 44.5983C135.572 44.0281 135.835 43.4167 136.029 42.7795C136.229 42.1434 136.333 41.4855 136.333 40.8188V19.5497ZM109.561 28.9102C109.561 30.4068 109.743 31.9115 110.204 33.338C110.603 34.5692 111.196 35.7159 112.038 36.7005C112.831 37.621 113.778 38.3416 114.878 38.855C116.035 39.3931 117.267 39.6227 118.539 39.6227C119.819 39.6227 121.071 39.3959 122.236 38.855C123.333 38.3454 124.275 37.6283 125.056 36.7028C125.889 35.7152 126.479 34.5641 126.887 33.3407C127.363 31.9188 127.546 30.4061 127.546 28.9102C127.546 27.4129 127.359 25.9101 126.886 24.4851C126.48 23.2593 125.89 22.1071 125.056 21.1175C124.275 20.1924 123.333 19.4757 122.236 18.9658C121.071 18.4249 119.819 18.1981 118.539 18.1981C117.267 18.1981 116.035 18.4282 114.878 18.9655C113.778 19.4793 112.831 20.1999 112.039 21.1198C111.196 22.1048 110.602 23.2518 110.204 24.4829C109.743 25.9101 109.561 27.4137 109.561 28.9102ZM105.705 28.9102C105.705 27.0981 105.981 25.3014 106.655 23.6136C107.265 22.0731 108.135 20.6842 109.297 19.504C110.448 18.3345 111.819 17.4607 113.342 16.858C115.004 16.21 116.762 15.9385 118.539 15.9385C120.314 15.9385 122.072 16.2115 123.731 16.8587C125.258 17.4627 126.627 18.3373 127.787 19.5039C128.95 20.6842 129.825 22.0728 130.435 23.6138C131.109 25.3019 131.385 27.0983 131.385 28.9106C131.385 30.7235 131.108 32.5198 130.435 34.2072C129.828 35.748 128.954 37.1378 127.786 38.3133C126.624 39.4743 125.256 40.3481 123.732 40.9507C122.075 41.6097 120.316 41.8826 118.539 41.8826C116.76 41.8826 115 41.6107 113.342 40.9507C111.82 40.3492 110.451 39.4768 109.298 38.3125C108.13 37.1384 107.262 35.7472 106.655 34.208C105.981 32.5194 105.705 30.7233 105.705 28.9102ZM88.7823 28.258H90.3989C90.621 28.258 90.8433 28.244 91.0644 28.2246L91.0792 28.2231H91.094C91.5278 28.2231 91.9627 28.1773 92.3897 28.101C92.8605 28.0167 93.3081 27.8639 93.7367 27.6496C94.1977 27.4246 94.5983 27.107 94.9461 26.7333C95.3566 26.2871 95.6234 25.7077 95.802 25.1327C95.928 24.6439 95.9576 24.0896 95.9576 23.5868V23.2707C95.9209 22.114 95.6732 20.8999 94.9361 19.9758C94.286 19.1554 93.4269 18.7681 92.3935 18.707C92.0075 18.6843 91.6214 18.6672 91.2343 18.6553C90.8772 18.6443 90.5197 18.638 90.1623 18.638C89.8763 18.638 89.5894 18.6425 89.3031 18.6553C89.1299 18.6632 88.9561 18.6693 88.7828 18.6716L88.7823 28.258ZM94.9567 30.4356C95.1304 30.606 95.2955 30.7857 95.4506 30.9735C95.7446 31.3164 96.0301 31.6643 96.3132 32.0159L96.3223 32.0275L96.3303 32.0393C96.8396 32.7984 97.369 33.5429 97.9122 34.2768C98.3707 34.8902 98.8324 35.5013 99.3024 36.1057C99.6757 36.5854 100.072 37.0841 100.499 37.5179L100.504 37.5232L100.51 37.5296C101.09 38.1804 101.741 38.7857 102.47 39.2669C103.191 39.7439 104.087 39.889 104.937 39.889H105.27V41.4546H102.784C102.022 41.4546 101.245 41.372 100.515 41.1444C99.8995 40.9527 99.2996 40.6996 98.7479 40.3662C98.2605 40.0768 97.8033 39.7354 97.3933 39.3381C97.0491 38.9939 96.7169 38.6315 96.4166 38.2486L96.4025 38.2303L96.3909 38.2108C96.318 38.0852 96.1895 37.9322 96.0989 37.8136C95.8988 37.5415 95.7069 37.2588 95.5165 36.9782C95.2798 36.6236 95.0344 36.2742 94.792 35.9257C94.5195 35.5406 94.2488 35.1551 93.9739 34.7738C93.4437 34.0566 92.9214 33.3357 92.4136 32.6044C92.0532 32.0961 91.6944 31.5836 91.3239 31.0829C91.1479 30.8442 90.9532 30.6189 90.7379 30.415C90.5465 30.2333 90.3331 30.0902 90.0983 29.9775C89.8439 29.8616 89.2224 29.8331 88.7828 29.8257V38.3324C88.8243 38.7521 88.981 39.1118 89.2682 39.4183C89.5604 39.7205 89.906 39.8541 90.3245 39.8541H91.3694V41.4195H82.78V39.8541H83.8252C84.2452 39.8541 84.5898 39.7191 84.8805 39.4135C85.1717 39.1075 85.3263 38.7402 85.3673 38.3209V19.523C85.3253 19.1004 85.1654 18.7339 84.8787 18.4224C84.5903 18.12 84.2457 17.9784 83.8252 17.9784H82.78V16.4085L92.5535 16.5283C94.4995 16.5283 96.3952 16.9994 97.8448 18.3668C99.2786 19.7198 99.7959 21.5304 99.7959 23.4593C99.7959 24.2991 99.6561 25.1217 99.3779 25.9136C99.1078 26.6888 98.7301 27.4203 98.2356 28.0755C97.7532 28.7203 97.1746 29.2764 96.5031 29.7217C96.0192 30.0403 95.5037 30.2809 94.9567 30.4356ZM77.1961 18.7079H71.3463V38.3266C71.3874 38.7498 71.5554 39.1072 71.857 39.4091C72.1648 39.7214 72.5386 39.8538 72.9744 39.8538H74.0545V41.4193H65.3085V39.8538H66.3886C66.8043 39.8538 67.1547 39.7102 67.4549 39.42C67.7575 39.1317 67.9098 38.7855 67.9303 38.3693V18.7079H62.1321C61.7617 18.7278 61.453 18.8576 61.1905 19.1246C60.9303 19.3845 60.8133 19.69 60.8133 20.0575V21.2829H59.2148V15.4287L59.6866 15.6443C59.928 15.7546 60.2062 15.8353 60.464 15.9043C60.8263 16.005 61.1961 16.082 61.5665 16.1454C61.9722 16.2152 62.3813 16.2656 62.7908 16.3107C63.1627 16.3515 63.5377 16.3782 63.9119 16.3782H75.4053C75.7847 16.3782 76.1646 16.3515 76.5398 16.3161C76.9484 16.2722 77.3536 16.2154 77.7578 16.1511C78.1259 16.0885 78.4933 16.0159 78.8552 15.9152C79.0937 15.8512 79.3663 15.7728 79.5896 15.665L80.0679 15.4337V21.2829H78.5044V20.0575C78.5044 19.69 78.3869 19.3845 78.1264 19.1231C77.8661 18.8591 77.5641 18.7278 77.1961 18.7079Z" fill="var(--fill-0, white)"/>
</g>
</svg>
