<svg xmlns="http://www.w3.org/2000/svg" width="152" height="40" viewBox="0 0 152 40" fill="none">
<path fill-rule="evenodd" clip-rule="evenodd" d="M50.6912 8.63721H56.0125L61.6078 21.2553H58.6079L54.2237 11.3711H53.4348V21.2553H50.6912V8.63721Z" fill="white"/>
<path d="M106.646 8.63721H103.902V21.2553H106.646V8.63721Z" fill="white"/>
<path fill-rule="evenodd" clip-rule="evenodd" d="M103.902 21.2553H100.903L96.5208 11.3711H94.7169V21.2553H91.9733V8.63721H98.3097L103.902 21.2553Z" fill="white"/>
<path fill-rule="evenodd" clip-rule="evenodd" d="M67.2005 8.63721L61.6078 21.2553L64.6051 21.2553L68.9893 11.3711H69.7783V21.2553H72.5219V8.63721H67.2005Z" fill="white"/>
<path d="M84.7927 8.63721H79.7728L74.1776 21.2553H77.1774L79.0015 17.1444H85.564L87.3855 21.2553H90.3854L84.7902 8.63721H84.7927ZM80.2125 14.4105L81.5591 11.3736H83.0038L84.3505 14.4105H80.2125Z" fill="white"/>
<path fill-rule="evenodd" clip-rule="evenodd" d="M108.171 11.3711V8.63721H123.721V11.3711H117.316V21.2553H114.573V11.3711H108.171Z" fill="white"/>
<path fill-rule="evenodd" clip-rule="evenodd" d="M127.987 8.63721H125.243V21.2553H137.185V18.5214H127.987V8.63721Z" fill="white"/>
<path fill-rule="evenodd" clip-rule="evenodd" d="M151.667 8.63721V11.3711H141.453V13.3965H150.307V16.1305H141.453V18.5214H151.667V21.2553H138.71V8.63721H151.667Z" fill="white"/>
<path d="M50.4902 31.4279V23.3588H52.4097L55.2212 28.5813V23.3588H57.0151V31.4279H55.0956L52.2841 26.2054V31.4279H50.4902Z" fill="white"/>
<path d="M58.5879 23.3588H63.5399V24.8585H60.4622V26.6911H63.5399V28.1557H60.4622V29.9308H63.5399V31.4304H58.5879V23.3588Z" fill="white"/>
<path d="M66.4317 31.4279V25.0187H64.2107V23.3588H70.527V25.0187H68.2935V31.4279H66.4317Z" fill="white"/>
<path d="M73.8636 31.4279L71.0069 23.3588H72.9742L74.6625 28.719L76.2705 23.3588H77.7277L79.3357 28.719L81.0241 23.3588H82.9913L80.1347 31.4279H78.6071L76.9991 26.3556L75.3911 31.4279H73.8636Z" fill="white"/>
<path d="M90.0915 30.419C89.3051 31.2451 88.2549 31.6582 86.9434 31.6582C85.6319 31.6582 84.5842 31.2451 83.7978 30.419C83.0114 29.5928 82.617 28.5838 82.617 27.3921C82.617 26.2004 83.0114 25.1914 83.7978 24.3653C84.5842 23.5391 85.6344 23.126 86.9434 23.126C88.2524 23.126 89.3026 23.5391 90.0915 24.3653C90.8779 25.1914 91.2724 26.2004 91.2724 27.3921C91.2724 28.5838 90.8779 29.5928 90.0915 30.419ZM86.9434 29.9858C87.6846 29.9858 88.2649 29.738 88.6845 29.2423C89.1041 28.7466 89.3151 28.1307 89.3151 27.3921C89.3151 26.6535 89.1041 26.0377 88.6845 25.5419C88.2649 25.0462 87.6846 24.7984 86.9434 24.7984C86.2022 24.7984 85.6118 25.0462 85.1897 25.5419C84.7701 26.0377 84.5641 26.6535 84.5716 27.3921C84.5641 28.1307 84.7701 28.7466 85.1897 29.2423C85.6093 29.738 86.1947 29.9858 86.9434 29.9858Z" fill="white"/>
<path d="M98.7092 26.273C98.7092 26.8563 98.5735 27.3771 98.3047 27.8352C98.0334 28.2934 97.664 28.6364 97.1942 28.8667L98.6162 31.4254H96.4882L95.2144 29.1897H94.232V31.4254H92.3577V23.3563H95.8048C96.6465 23.3563 97.3399 23.6317 97.8876 24.18C98.4354 24.7308 98.7092 25.4268 98.7092 26.273ZM94.232 27.6675H95.5159C95.8928 27.6675 96.2043 27.5373 96.448 27.2744C96.6917 27.0141 96.8123 26.6786 96.8123 26.2705C96.8123 25.8624 96.6917 25.5294 96.448 25.2666C96.2043 25.0062 95.8953 24.8735 95.5159 24.8735H94.232V27.6675Z" fill="white"/>
<path d="M106.646 23.3563L103.465 27.3571L106.646 31.4279H104.412L101.752 27.8653V31.4279H99.8775V23.3588H101.752V26.944L104.425 23.3588H106.646V23.3563Z" fill="white"/>
<path fill-rule="evenodd" clip-rule="evenodd" d="M22.1422 6.85485L23.1723 0.237842C22.1523 0.0801152 21.1096 0 20.0695 0H20.0544V13.5019H20.0695C20.6398 13.5019 21.2051 13.5745 21.7503 13.7197L23.5015 7.14026C23.0543 7.02259 22.5995 6.92746 22.1397 6.85736L22.1422 6.85485Z" fill="white"/>
<path fill-rule="evenodd" clip-rule="evenodd" d="M16.8033 14.3732L13.4316 8.58484C13.0346 8.81517 12.6477 9.06553 12.2758 9.33342L8.24838 3.83551C9.09508 3.21963 9.99705 2.66633 10.9292 2.19065L13.9944 8.15172C14.6174 7.83376 15.2631 7.56588 15.9264 7.35057L13.8386 0.983914C14.8335 0.66095 15.8661 0.413094 16.9013 0.247856L17.9741 6.97002C17.5193 7.04262 17.0696 7.14026 16.6249 7.25793L18.3685 13.7222C17.8208 13.8699 17.2932 14.0878 16.8008 14.3732H16.8033Z" fill="white"/>
<path fill-rule="evenodd" clip-rule="evenodd" d="M8.26094 14.0252L2.17327 10.9382C1.69591 11.8696 1.2914 12.8485 0.969806 13.8424L7.46952 15.9354C7.68308 15.282 7.9494 14.6385 8.26094 14.0252Z" fill="white"/>
<path fill-rule="evenodd" clip-rule="evenodd" d="M31.5237 13.3792L25.7175 16.7416C26.0039 17.2323 26.2225 17.758 26.3707 18.3038L32.8553 16.5613C32.9759 17.0044 33.0739 17.4526 33.1443 17.9057L39.8902 16.8342C39.7244 15.8002 39.4756 14.7737 39.1515 13.7798L32.7624 15.8603C32.5463 15.1993 32.2775 14.5559 31.9584 13.9375L37.938 10.8806C37.4607 9.95431 36.9054 9.05552 36.2873 8.2118L30.7725 12.2276C31.0439 12.5981 31.2926 12.9837 31.5263 13.3792H31.5237Z" fill="white"/>
<path fill-rule="evenodd" clip-rule="evenodd" d="M29.1545 2.16311C28.2174 1.68993 27.2375 1.28685 26.2401 0.963886L24.1422 7.4407C24.7979 7.651 25.4436 7.91638 26.0592 8.22933L29.1545 2.16061V2.16311Z" fill="white"/>
<path fill-rule="evenodd" clip-rule="evenodd" d="M26.73 8.46467L23.3206 14.3631C23.8155 14.6461 24.2703 14.9941 24.6748 15.3971L34.2397 5.83339C33.4985 5.09733 32.692 4.41385 31.8453 3.80046L27.9008 9.22076C27.5239 8.95037 27.1345 8.6975 26.7325 8.46467H26.73Z" fill="white"/>
<path fill-rule="evenodd" clip-rule="evenodd" d="M14.4165 16.7591L8.49963 13.3567C8.73077 12.9561 8.98704 12.5681 9.25839 12.1925L3.82144 8.25937C4.43699 7.41566 5.12289 6.612 5.86406 5.87344L15.4566 15.4071C15.0521 15.8102 14.7029 16.2659 14.419 16.7566L14.4165 16.7591Z" fill="white"/>
<path fill-rule="evenodd" clip-rule="evenodd" d="M7.16551 16.5738L13.7657 18.3238C13.62 18.8671 13.5471 19.4304 13.5471 20.0013H0C0 18.9623 0.0803985 17.9183 0.241195 16.8993L6.88161 17.9308C6.95447 17.4726 7.04743 17.022 7.16803 16.5738H7.16551Z" fill="white"/>
<path fill-rule="evenodd" clip-rule="evenodd" d="M31.8805 25.9748L37.9682 29.0618C38.443 28.1304 38.8501 27.1515 39.1716 26.1576L32.6719 24.0646C32.4584 24.718 32.1921 25.3615 31.8805 25.9748Z" fill="white"/>
<path fill-rule="evenodd" clip-rule="evenodd" d="M23.3382 25.6268L26.7099 31.4152C27.1068 31.1848 27.4938 30.9345 27.8656 30.6666L31.8931 36.1645C31.0464 36.7804 30.1444 37.3337 29.2123 37.8093L26.1471 31.8483C25.524 32.1662 24.8808 32.4341 24.215 32.6494L26.3004 39.0161C25.3054 39.339 24.2728 39.5869 23.2377 39.7521L22.1649 33.03C22.6196 32.9574 23.0693 32.8597 23.514 32.7421L21.7704 26.2778C22.3181 26.1301 22.8457 25.9122 23.3382 25.6268Z" fill="white"/>
<path fill-rule="evenodd" clip-rule="evenodd" d="M8.61771 26.6208L14.424 23.2584C14.1376 22.7677 13.919 22.242 13.7708 21.6962L7.28611 23.4387C7.16551 22.9956 7.06753 22.5474 6.99718 22.0943L0.251245 23.1658C0.417067 24.1998 0.6658 25.2263 0.989906 26.2202L7.37907 24.1397C7.59514 24.8007 7.86398 25.4441 8.18306 26.0625L2.20342 29.1194C2.68079 30.0482 3.23604 30.9445 3.8541 31.7882L9.36893 27.7724C9.09759 27.4019 8.84886 27.0163 8.6152 26.6208H8.61771Z" fill="white"/>
<path fill-rule="evenodd" clip-rule="evenodd" d="M10.987 37.8394C11.9241 38.3126 12.904 38.7156 13.9014 39.0386L15.9993 32.5618C15.3435 32.3515 14.6978 32.0861 14.0823 31.7732L10.987 37.8394Z" fill="white"/>
<path fill-rule="evenodd" clip-rule="evenodd" d="M13.4115 31.5353L16.8209 25.6394C16.3259 25.3564 15.8712 25.0084 15.4667 24.6054L5.90175 34.1691C6.64292 34.9052 7.44942 35.5887 8.29612 36.202L12.2407 30.7817C12.6175 31.0521 13.007 31.305 13.409 31.5378L13.4115 31.5353Z" fill="white"/>
<path fill-rule="evenodd" clip-rule="evenodd" d="M25.725 23.2409L31.6418 26.6433C31.4107 27.0439 31.1544 27.4319 30.8831 27.8075L36.32 31.7406C35.7045 32.5843 35.0186 33.388 34.2774 34.1266L24.6848 24.5929C25.0893 24.1898 25.4386 23.7341 25.7225 23.2434L25.725 23.2409Z" fill="white"/>
<path fill-rule="evenodd" clip-rule="evenodd" d="M18.3911 26.2828L16.64 32.8622C17.0872 32.9799 17.5419 33.075 18.0017 33.1451L16.9691 39.7622C17.9892 39.9199 19.0318 40 20.072 40H20.0871V26.4981H20.072C19.5017 26.4981 18.9363 26.4255 18.3911 26.2803V26.2828Z" fill="white"/>
<path fill-rule="evenodd" clip-rule="evenodd" d="M26.3757 21.6762C26.5214 21.1329 26.5943 20.5696 26.5943 19.9987H40.144C40.144 21.0377 40.0636 22.0817 39.9028 23.1007L33.2624 22.0692C33.1895 22.5274 33.0965 22.978 32.9759 23.4262L26.3757 21.6762Z" fill="white"/>
</svg>