<svg width="25" height="24" viewBox="0 0 25 24" fill="none" xmlns="http://www.w3.org/2000/svg">
  <path fill-rule="evenodd" clip-rule="evenodd" d="M24.0253 20.8018C23.792 21.3944 23.2537 22.2287 22.4903 22.8165C22.0495 23.156 21.5233 23.4805 20.8006 23.6946C20.0301 23.9229 19.0811 24.0001 17.8999 24.0001H7.09998C5.91891 24.0001 4.9699 23.9229 4.19934 23.6946C3.47656 23.4805 2.95046 23.156 2.50962 22.8165C1.74631 22.2287 1.2079 21.3945 0.974602 20.8018C0.504769 19.6078 0.5 18.2531 0.5 17.4V6.59998C0.5 5.74691 0.504769 4.39216 0.974697 3.19822C1.20799 2.60564 1.74631 1.77127 2.50971 1.18355C2.95046 0.844097 3.47666 0.51962 4.19934 0.305496C4.9699 0.0771609 5.91891 0 7.09998 0H17.9C19.0811 0 20.0301 0.0771609 20.8007 0.305496C21.5234 0.51962 22.0495 0.844192 22.4904 1.18355C23.2537 1.77136 23.7921 2.60564 24.0254 3.19822C24.4952 4.39216 24.5 5.74691 24.5 6.59998V17.3999C24.5 18.2531 24.4952 19.6078 24.0253 20.8018Z" fill="url(#paint0_linear_17_971)"/>
  <path d="M14.2397 13.7948C13.8797 13.4149 13.2471 13.1713 12.5003 13.1713C11.7535 13.1713 11.1209 13.4149 10.7609 13.7948C10.5729 13.9931 10.4735 14.1963 10.4422 14.4859C10.3817 15.0467 10.4157 15.5294 10.4814 16.3014C10.544 17.037 10.6628 18.0178 10.8179 19.0168C10.9283 19.7278 11.0179 20.1115 11.0996 20.3864C11.232 20.8317 11.7267 21.2211 12.5003 21.2211C13.2739 21.2211 13.7686 20.8316 13.901 20.3864C13.9827 20.1116 14.0724 19.7279 14.1827 19.0168C14.3379 18.0178 14.4566 17.0371 14.5192 16.3014C14.5848 15.5294 14.6189 15.0466 14.5583 14.4859C14.5271 14.1963 14.4277 13.9932 14.2397 13.7948ZM10.5381 10.4114C10.5381 11.4963 11.4175 12.3756 12.5023 12.3756C13.587 12.3756 14.4664 11.4963 14.4664 10.4114C14.4664 9.32669 13.587 8.44721 12.5023 8.44721C11.4175 8.44721 10.5381 9.32669 10.5381 10.4114ZM12.4779 2.65995C7.8841 2.67301 4.1201 6.39972 4.06316 10.9931C4.01709 14.7141 6.39229 17.8971 9.70907 19.0637C9.78966 19.0921 9.8714 19.0253 9.85862 18.9408C9.81522 18.652 9.77421 18.3616 9.73644 18.0761C9.72309 17.9752 9.6588 17.8882 9.56552 17.8475C6.94405 16.7022 5.11337 14.0729 5.14274 11.0275C5.18128 7.03065 8.44483 3.77234 12.4417 3.74001C16.5275 3.70701 19.862 7.02121 19.862 11.0996C19.862 14.1146 18.0394 16.7115 15.4382 17.8477C15.3451 17.8884 15.2812 17.9757 15.2679 18.0764C15.2302 18.3618 15.1892 18.652 15.1458 18.9407C15.1331 19.0251 15.2148 19.092 15.2953 19.0636C18.5804 17.9081 20.9418 14.7747 20.9418 11.0996C20.942 6.43787 17.1427 2.64678 12.4779 2.65995ZM12.3255 6.53201C14.9295 6.4311 17.0802 8.52036 17.0802 11.1024C17.0802 12.4156 16.5238 13.6012 15.6345 14.4361C15.5592 14.5069 15.5186 14.6074 15.5245 14.7106C15.5422 15.0248 15.5357 15.3299 15.5148 15.6746C15.5092 15.7664 15.6122 15.8251 15.6881 15.7732C17.1794 14.7542 18.1601 13.0408 18.1601 11.1023C18.1601 7.91061 15.5016 5.32805 12.2827 5.45281C9.29122 5.56869 6.89112 8.03517 6.85287 11.0286C6.82769 12.9975 7.81448 14.7416 9.32479 15.7735C9.40061 15.8253 9.50334 15.7664 9.4978 15.6748C9.47682 15.3299 9.47043 15.0247 9.48808 14.7106C9.4938 14.6075 9.45336 14.5071 9.37801 14.4363C8.46104 13.5754 7.89793 12.3416 7.93379 10.9797C7.99693 8.58274 9.92939 6.62482 12.3255 6.53201Z" fill="white"/>
  <defs>
    <linearGradient id="paint0_linear_17_971" x1="12.5" y1="4.78957e-07" x2="12.5" y2="24" gradientUnits="userSpaceOnUse">
      <stop stop-color="#F452FF"/>
      <stop offset="1" stop-color="#832BC1"/>
    </linearGradient>
  </defs>
</svg>
