<svg width="26" height="20" viewBox="0 0 26 20" fill="none" xmlns="http://www.w3.org/2000/svg">
  <path d="M25.4567 3.72312C25.1577 2.601 24.2768 1.71739 23.158 1.4175C21.1305 0.872488 13 0.872488 13 0.872488C13 0.872488 4.86958 0.872488 2.84196 1.4175C1.72333 1.71739 0.842276 2.601 0.543301 3.72312C0 5.75686 0 10.0001 0 10.0001C0 10.0001 0 14.2434 0.543301 16.2773C0.842276 17.3993 1.72333 18.2829 2.84196 18.5829C4.86958 19.1278 13 19.1278 13 19.1278C13 19.1278 21.1305 19.1278 23.158 18.5829C24.2768 18.2829 25.1577 17.3993 25.4567 16.2773C26 14.2434 26 10.0001 26 10.0001C26 10.0001 26 5.75686 25.4567 3.72312Z" fill="#ED1D24"/>
  <path d="M10.3403 13.8527L17.1358 10.0003L10.3403 6.14752V13.8527Z" fill="white"/>
</svg>
