<svg width="187" height="40" viewBox="0 0 187 40" fill="none" xmlns="http://www.w3.org/2000/svg">
<g clip-path="url(#clip0_582_13034)">
<path d="M26.1898 16.0094V27.1691L13.8136 34.3358L1.43245 27.1691V12.8359L13.8186 5.65922L23.3299 11.1716L24.7673 10.342L13.8186 4L0 12.0013V27.9988L13.8186 36L27.6372 27.9988V15.1798L26.1898 16.0094Z" fill="url(#paint0_linear_582_13034)" style=""/>
<path d="M10.3537 27.179H8.28516V20.2123H15.187C15.8381 20.2073 16.4641 19.9424 16.9249 19.4727C17.3857 19.0079 17.6412 18.3782 17.6462 17.7235C17.6512 17.3986 17.5861 17.0788 17.4608 16.7789C17.3356 16.4791 17.1503 16.2092 16.9199 15.9843C16.6945 15.7544 16.4241 15.5695 16.1286 15.4445C15.8331 15.3196 15.5125 15.2546 15.187 15.2596H8.28516V13.1406H15.192C16.399 13.1456 17.561 13.6354 18.4125 14.49C19.2689 15.3496 19.7498 16.509 19.7598 17.7235C19.7648 18.653 19.4843 19.5576 18.9534 20.3173C18.4626 21.0419 17.7714 21.6117 16.965 21.9515C16.1636 22.2064 15.3322 22.3313 14.4958 22.3263H10.3537V27.179Z" fill="url(#paint1_linear_582_13034)" style=""/>
<path d="M19.709 27.0045H17.2948L15.4316 23.7461C16.1679 23.7011 16.8941 23.5512 17.5903 23.3013L19.709 27.0045Z" fill="url(#paint2_linear_582_13034)" style=""/>
<path d="M24.748 13.6901L26.1755 14.4847L27.6029 13.6901V12.0059L26.1755 11.1763L24.748 12.0059V13.6901Z" fill="url(#paint3_linear_582_13034)" style=""/>
<path fill-rule="evenodd" clip-rule="evenodd" d="M50.3806 26.6723L47.8162 22.2299H44.0676V26.6723H41.8594V13.3274H48.5107C49.321 13.3185 50.1224 13.5406 50.8169 13.9582C51.5114 14.3758 52.0813 14.9711 52.4642 15.6907C52.847 16.4104 53.0162 17.2189 52.9717 18.0274C52.9272 18.8359 52.6601 19.6267 52.197 20.293C51.7162 21.0038 51.0395 21.5547 50.247 21.8834L52.9717 26.6723H50.3806ZM48.5018 15.593H44.0676V20.0265H48.5107C48.8046 20.0265 49.0895 19.9643 49.3566 19.8488C49.6238 19.7333 49.8642 19.5645 50.0601 19.3512C50.3628 19.0403 50.5765 18.6494 50.6566 18.214C50.7368 17.7875 50.6922 17.3433 50.532 16.9346C50.3628 16.5348 50.0868 16.1883 49.7217 15.9395C49.3566 15.6907 48.9381 15.5575 48.5018 15.5575V15.593ZM72.1512 13.3274L65.482 26.6723H67.9573L72.1423 18.3117L76.3183 26.6723H78.7936L72.1512 13.3274ZM100.217 13.3274H97.3943L93.6012 18.2495L89.8258 13.3274H86.9943L92.5505 20.4441V26.6723H94.7587V20.3375L100.217 13.3274ZM111.534 13.3274H115.959C117.722 13.3363 119.405 14.0471 120.643 15.2998C121.89 16.5437 122.593 18.2407 122.602 19.9998C122.593 21.7679 121.89 23.456 120.643 24.7087C119.396 25.9615 117.713 26.6634 115.95 26.6723H111.525V13.3274H111.534ZM115.959 24.4067C117.135 24.4067 118.257 23.9358 119.085 23.1006C119.913 22.2654 120.385 21.1371 120.385 19.9643C120.367 18.7915 119.904 17.6632 119.076 16.8369C118.248 16.0106 117.126 15.5308 115.959 15.5219H113.724V24.4067H115.959ZM137.374 13.3274H135.166V26.6723H137.374V13.3274ZM161.005 21.1015C161.014 21.839 160.881 22.5675 160.596 23.2428C160.32 23.918 159.901 24.531 159.367 25.0375C158.592 25.8193 157.604 26.3435 156.526 26.5568C155.449 26.77 154.336 26.6634 153.321 26.2369C152.306 25.8193 151.442 25.0997 150.837 24.1845C150.231 23.2694 149.911 22.1944 149.911 21.0927V13.3274H152.119V21.0927C152.119 21.9811 152.466 22.8252 153.098 23.4471C153.722 24.069 154.568 24.4244 155.449 24.4244C156.331 24.4244 157.176 24.069 157.8 23.4471C158.423 22.8252 158.77 21.9722 158.77 21.0927V13.3274H160.996V21.1015H161.005ZM175.759 26.6723V18.6938L180.211 23.145L184.646 18.6938V26.6723H186.89V13.3274L180.211 19.9998L173.56 13.3274V26.6723H175.759Z" fill="white" style="fill:white;fill-opacity:1;"/>
</g>
<defs>
<linearGradient id="paint0_linear_582_13034" x1="28.4751" y1="14.1845" x2="-0.849252" y2="25.8743" gradientUnits="userSpaceOnUse">
<stop stop-color="#C200FB" style="stop-color:#C200FB;stop-color:color(display-p3 0.7608 0.0000 0.9843);stop-opacity:1;"/>
<stop offset="0.4897" stop-color="#3772FF" style="stop-color:#3772FF;stop-color:color(display-p3 0.2157 0.4471 1.0000);stop-opacity:1;"/>
<stop offset="0.4898" stop-color="#3773FE" style="stop-color:#3773FE;stop-color:color(display-p3 0.2157 0.4510 0.9961);stop-opacity:1;"/>
<stop offset="1" stop-color="#5AC4BE" style="stop-color:#5AC4BE;stop-color:color(display-p3 0.3529 0.7686 0.7451);stop-opacity:1;"/>
</linearGradient>
<linearGradient id="paint1_linear_582_13034" x1="27.9162" y1="12.7798" x2="-1.40814" y2="24.4697" gradientUnits="userSpaceOnUse">
<stop stop-color="#C200FB" style="stop-color:#C200FB;stop-color:color(display-p3 0.7608 0.0000 0.9843);stop-opacity:1;"/>
<stop offset="0.4897" stop-color="#3772FF" style="stop-color:#3772FF;stop-color:color(display-p3 0.2157 0.4471 1.0000);stop-opacity:1;"/>
<stop offset="0.4898" stop-color="#3773FE" style="stop-color:#3773FE;stop-color:color(display-p3 0.2157 0.4510 0.9961);stop-opacity:1;"/>
<stop offset="1" stop-color="#5AC4BE" style="stop-color:#5AC4BE;stop-color:color(display-p3 0.3529 0.7686 0.7451);stop-opacity:1;"/>
</linearGradient>
<linearGradient id="paint2_linear_582_13034" x1="30.8372" y1="20.1099" x2="1.51293" y2="31.7997" gradientUnits="userSpaceOnUse">
<stop stop-color="#C200FB" style="stop-color:#C200FB;stop-color:color(display-p3 0.7608 0.0000 0.9843);stop-opacity:1;"/>
<stop offset="0.4897" stop-color="#3772FF" style="stop-color:#3772FF;stop-color:color(display-p3 0.2157 0.4471 1.0000);stop-opacity:1;"/>
<stop offset="0.4898" stop-color="#3773FE" style="stop-color:#3773FE;stop-color:color(display-p3 0.2157 0.4510 0.9961);stop-opacity:1;"/>
<stop offset="1" stop-color="#5AC4BE" style="stop-color:#5AC4BE;stop-color:color(display-p3 0.3529 0.7686 0.7451);stop-opacity:1;"/>
</linearGradient>
<linearGradient id="paint3_linear_582_13034" x1="27.6949" y1="12.231" x2="-1.62929" y2="23.9208" gradientUnits="userSpaceOnUse">
<stop stop-color="#C200FB" style="stop-color:#C200FB;stop-color:color(display-p3 0.7608 0.0000 0.9843);stop-opacity:1;"/>
<stop offset="0.4897" stop-color="#3772FF" style="stop-color:#3772FF;stop-color:color(display-p3 0.2157 0.4471 1.0000);stop-opacity:1;"/>
<stop offset="0.4898" stop-color="#3773FE" style="stop-color:#3773FE;stop-color:color(display-p3 0.2157 0.4510 0.9961);stop-opacity:1;"/>
<stop offset="1" stop-color="#5AC4BE" style="stop-color:#5AC4BE;stop-color:color(display-p3 0.3529 0.7686 0.7451);stop-opacity:1;"/>
</linearGradient>
<clipPath id="clip0_582_13034">
<rect width="187" height="32" fill="white" style="fill:white;fill-opacity:1;" transform="translate(0 4)"/>
</clipPath>
</defs>
</svg>
