<svg width="1305" height="237" viewBox="0 0 1305 237" fill="none" xmlns="http://www.w3.org/2000/svg">
<g clip-path="url(#clip0_3283_96)">
<path d="M139.677 50.0944C139.677 21.0793 115.161 0 82.4619 0H-0.580078V184.542H31.0566V113.084H87.7406C101.451 113.084 105.419 117.052 105.419 130.763V184.542H137.056V122.862C137.056 105.468 129.155 96.7524 109.103 96.7524C129.155 90.1629 139.677 73.5474 139.677 50.0944ZM74.5616 85.1676H31.0566V28.2003H74.5616C96.4557 28.2003 108.041 37.4114 108.041 55.6211C108.041 73.8308 96.4557 85.1676 74.5616 85.1676Z" fill="#FAFAFA"/>
<path d="M224.072 50.0974C186.377 50.0974 159.487 78.5811 159.487 118.65C159.487 158.718 186.377 187.202 224.072 187.202C261.766 187.202 288.939 158.718 288.939 118.65C288.939 78.5811 262.05 50.0974 224.072 50.0974ZM225.382 162.402H223.009C203.488 162.402 189.778 146.318 189.778 118.65C189.778 90.9807 203.488 74.8966 223.009 74.8966H225.382C244.903 74.8966 258.33 90.9807 258.33 118.65C258.33 146.318 244.867 162.402 225.382 162.402Z" fill="#FAFAFA"/>
<path d="M364.577 74.8966H366.419C381.192 74.8966 390.155 84.1078 392.246 97.8182H422.572C419.95 66.7129 398.056 50.0974 365.64 50.0974C327.661 50.0974 302.366 78.0497 302.366 118.65C302.366 159.249 327.661 187.202 365.64 187.202C398.056 187.202 419.95 170.586 422.572 139.481H392.246C390.12 153.191 381.157 162.402 366.419 162.402H364.577C342.435 162.402 332.657 142.103 332.657 118.65C332.657 95.1966 342.399 74.8966 364.577 74.8966Z" fill="#FAFAFA"/>
<path d="M563.634 52.7161H525.408L473.188 105.468V0H442.897V184.542H473.188V143.162L489.803 126.547L529.872 184.542H566.256L511.166 105.184L563.634 52.7161Z" fill="#FAFAFA"/>
<path d="M677.53 98.5976C677.53 69.5825 656.699 50.0974 622.972 50.0974C591.335 50.0974 569.973 68.0237 567.882 92.5395H598.208C599.271 82.5135 608.766 74.8612 622.193 74.8612H623.787C638.56 74.8612 647.771 84.6038 647.771 99.377V103.061L613.23 105.967C589.245 107.809 565.261 119.146 565.261 148.409C565.261 171.33 584.25 187.166 608.518 187.166C627.223 187.166 641.997 177.955 648.87 166.335C649.118 170.303 649.401 179.514 650.464 184.509H678.947C677.637 175.298 677.637 163.43 677.637 155.494V98.5622L677.53 98.5976ZM647.736 133.387C647.736 150.003 631.404 162.402 615.568 162.402H613.725C602.92 162.402 595.02 155.813 595.02 146.566C595.02 135.23 605.825 129.42 617.445 128.392L647.771 125.77V133.423L647.736 133.387Z" fill="#FAFAFA"/>
<path d="M830.981 153.186L804.907 52.7141H772.739L747.939 153.718L720.518 52.7141H689.661L730.013 184.54H764.023L789.071 87.7873L814.649 184.54H848.376L887.417 52.7141H857.375L830.981 153.186Z" fill="#FAFAFA"/>
<path d="M1003.68 98.5976C1003.68 69.5825 982.845 50.0974 949.082 50.0974C917.446 50.0974 896.083 68.0237 893.993 92.5395H924.319C925.381 82.5135 934.876 74.8612 948.303 74.8612H949.897C964.671 74.8612 973.882 84.6038 973.882 99.377V103.061L939.34 105.967C915.355 107.809 891.371 119.146 891.371 148.409C891.371 171.33 910.36 187.166 934.628 187.166C953.334 187.166 968.107 177.955 974.98 166.335C975.228 170.303 975.511 179.514 976.574 184.509H1005.06C1003.75 175.298 1003.75 163.43 1003.75 155.494V98.5622L1003.68 98.5976ZM973.882 133.387C973.882 150.003 957.55 162.402 941.714 162.402H939.871C929.066 162.402 921.166 155.813 921.166 146.566C921.166 135.23 931.971 129.42 943.591 128.392L973.917 125.77V133.423L973.882 133.387Z" fill="#FAFAFA"/>
<path d="M1121.56 52.7141L1084.92 140.255L1047.23 52.7141H1013.75L1070.43 177.95V196.656C1070.43 206.682 1067.81 209.304 1057.5 209.304H1021.65V235.945H1067.78C1088.32 235.945 1099.17 225.14 1099.17 204.308V176.639L1154.54 52.7141H1121.59H1121.56Z" fill="#FAFAFA"/>
<path d="M1247.25 100.91H1201.27L1142.65 185.86H1177.59L1223.57 119.343L1268.79 185.86H1305L1247.25 100.91Z" fill="#24BD40"/>
<path d="M1200.53 84.9503L1246.51 84.9503L1305.12 -1.67934e-05L1270.19 -1.37395e-05L1224.21 66.5174L1178.99 -5.76671e-06L1142.78 -2.60112e-06L1200.53 84.9503Z" fill="#24BD40"/>
</g>
<defs>
<clipPath id="clip0_3283_96">
<rect width="1305" height="236.062" fill="white"/>
</clipPath>
</defs>
</svg>
