<svg width="1305" height="237" viewBox="0 0 1305 237" fill="none" xmlns="http://www.w3.org/2000/svg">
<g clip-path="url(#clip0_960_149)">
<path d="M139.678 50.0944C139.678 21.0793 115.162 0 82.4624 0H-0.57959V184.542H31.0571V113.084H87.7411C101.452 113.084 105.419 117.052 105.419 130.763V184.542H137.056V122.862C137.056 105.468 129.156 96.7524 109.104 96.7524C129.156 90.1629 139.678 73.5474 139.678 50.0944ZM74.5621 85.1676H31.0571V28.2003H74.5621C96.4562 28.2003 108.041 37.4114 108.041 55.6211C108.041 73.8308 96.4562 85.1676 74.5621 85.1676Z" fill="#142215"/>
<path d="M224.071 50.0977C186.376 50.0977 159.487 78.5813 159.487 118.65C159.487 158.718 186.376 187.202 224.071 187.202C261.766 187.202 288.939 158.718 288.939 118.65C288.939 78.5813 262.049 50.0977 224.071 50.0977ZM225.382 162.403H223.008C203.488 162.403 189.777 146.319 189.777 118.65C189.777 90.981 203.488 74.8969 223.008 74.8969H225.382C244.902 74.8969 258.329 90.981 258.329 118.65C258.329 146.319 244.867 162.403 225.382 162.403Z" fill="#142215"/>
<path d="M364.577 74.8969H366.42C381.193 74.8969 390.156 84.108 392.246 97.8185H422.572C419.95 66.7131 398.056 50.0977 365.64 50.0977C327.662 50.0977 302.367 78.0499 302.367 118.65C302.367 159.25 327.662 187.202 365.64 187.202C398.056 187.202 419.95 170.586 422.572 139.481H392.246C390.121 153.192 381.157 162.403 366.42 162.403H364.577C342.435 162.403 332.657 142.103 332.657 118.65C332.657 95.1968 342.4 74.8969 364.577 74.8969Z" fill="#142215"/>
<path d="M563.634 52.7161H525.408L473.188 105.468V0H442.897V184.542H473.188V143.162L489.803 126.547L529.872 184.542H566.256L511.166 105.184L563.634 52.7161Z" fill="#142215"/>
<path d="M677.53 98.5979C677.53 69.5828 656.699 50.0977 622.972 50.0977C591.335 50.0977 569.973 68.024 567.882 92.5398H598.208C599.271 82.5138 608.766 74.8614 622.193 74.8614H623.787C638.56 74.8614 647.771 84.604 647.771 99.3773V103.062L613.23 105.967C589.245 107.809 565.261 119.146 565.261 148.409C565.261 171.33 584.25 187.167 608.518 187.167C627.223 187.167 641.997 177.955 648.87 166.335C649.118 170.303 649.401 179.514 650.464 184.509H678.947C677.637 175.298 677.637 163.43 677.637 155.494V98.5624L677.53 98.5979ZM647.736 133.388C647.736 150.003 631.404 162.403 615.568 162.403H613.725C602.92 162.403 595.02 155.813 595.02 146.567C595.02 135.23 605.825 129.42 617.445 128.392L647.771 125.771V133.423L647.736 133.388Z" fill="#142215"/>
<path d="M830.981 153.186L804.907 52.7139H772.739L747.939 153.718L720.518 52.7139H689.661L730.013 184.539H764.023L789.071 87.7871L814.649 184.539H848.376L887.417 52.7139H857.375L830.981 153.186Z" fill="#142215"/>
<path d="M1003.68 98.5979C1003.68 69.5828 982.845 50.0977 949.082 50.0977C917.446 50.0977 896.083 68.024 893.993 92.5398H924.319C925.381 82.5138 934.876 74.8614 948.303 74.8614H949.897C964.671 74.8614 973.882 84.604 973.882 99.3773V103.062L939.34 105.967C915.355 107.809 891.371 119.146 891.371 148.409C891.371 171.33 910.36 187.167 934.628 187.167C953.334 187.167 968.107 177.955 974.98 166.335C975.228 170.303 975.511 179.514 976.574 184.509H1005.06C1003.75 175.298 1003.75 163.43 1003.75 155.494V98.5624L1003.68 98.5979ZM973.882 133.388C973.882 150.003 957.55 162.403 941.714 162.403H939.871C929.066 162.403 921.166 155.813 921.166 146.567C921.166 135.23 931.971 129.42 943.591 128.392L973.917 125.771V133.423L973.882 133.388Z" fill="#142215"/>
<path d="M1121.56 52.7139L1084.92 140.255L1047.23 52.7139H1013.75L1070.43 177.95V196.656C1070.43 206.682 1067.81 209.303 1057.5 209.303H1021.65V235.945H1067.78C1088.32 235.945 1099.17 225.139 1099.17 204.308V176.639L1154.54 52.7139H1121.59H1121.56Z" fill="#142215"/>
<path d="M1247.25 100.91H1201.27L1142.65 185.86H1177.59L1223.57 119.343L1268.79 185.86H1305L1247.25 100.91Z" fill="#24BD40"/>
<path d="M1200.53 84.9502L1246.51 84.9502L1305.12 -0.000138864L1270.19 -0.00013581L1224.21 66.5173L1178.99 -0.000127837L1142.78 -0.000124671L1200.53 84.9502Z" fill="#24BD40"/>
</g>
<defs>
<clipPath id="clip0_960_149">
<rect width="1305" height="236.062" fill="white"/>
</clipPath>
</defs>
</svg>
