<svg width="804" height="131" viewBox="0 0 804 131" fill="none" xmlns="http://www.w3.org/2000/svg">
<path d="M70.4423 14.2501C63.5425 9.45815 55.286 7.0658 45.673 7.0658C36.0599 7.0658 27.8035 9.45815 20.9037 14.2501C14.0038 18.9326 8.78887 25.4385 5.28791 33.7315C1.75048 42.0244 0 51.528 0 62.2132C0 72.8984 1.75048 82.4094 5.25144 90.6585C8.7524 98.9514 13.9747 105.487 20.8672 110.279C27.767 114.961 36.0234 117.317 45.6365 117.317C55.2495 117.317 63.506 114.961 70.4058 110.279C77.3056 105.487 82.5206 98.9514 86.0215 90.6585C89.5225 82.3656 91.273 72.8984 91.273 62.2132C91.273 51.528 89.5225 42.0171 86.0215 33.7679C82.5206 25.475 77.2983 18.9691 70.4058 14.2865L70.4423 14.2501ZM24.0181 62.2132C24.0181 51.6374 25.805 43.1986 29.4154 36.9115C33.1351 30.6243 38.5325 27.4735 45.6438 27.4735C52.7551 27.4735 55.2933 29.224 58.6557 32.7614L26.1697 79.6524C24.7401 74.6854 24.0253 68.8943 24.0253 62.2497V62.2132H24.0181ZM61.719 87.515C58.1087 93.8021 52.7478 96.953 45.6365 96.953C38.5252 96.953 35.9505 95.2025 32.5225 91.6651L65.0449 44.7376C66.511 49.7046 67.2622 55.5322 67.2622 62.1768C67.2622 72.7526 65.4023 81.1914 61.719 87.4785V87.515Z" fill="black"/>
<path d="M178.083 35.9954H151.067L140.236 55.6153C139.018 57.7232 138.449 59.7946 138.449 61.9024C138.449 64.0103 138.237 63.5435 137.843 64.1562C137.559 64.7616 136.946 65.0533 136.056 65.0533C135.167 65.0533 134.518 64.7689 134.094 64.1562C133.81 63.5508 133.628 62.7996 133.628 61.9024C133.628 59.7946 133.022 57.7232 131.841 55.6153L121.01 35.9954H93.9939L119.835 73.7328L91.6016 115.081H118.617L131.841 91.7044C132.84 90.0925 133.453 88.0211 133.628 85.4172C133.737 84.418 133.912 83.6668 134.233 83.1635C134.518 82.5581 135.13 82.2664 136.02 82.2664C137.413 82.2664 138.237 83.1635 138.412 84.9505V85.4172C138.624 88.0284 139.2 90.0998 140.199 91.7044L153.423 115.081H180.438L152.205 73.7328L178.046 35.9954H178.083Z" fill="black"/>
<path d="M232.807 1.61922C232.807 0.736684 233.631 0 234.623 0C235.615 0 236.439 0.72939 236.439 1.61922V129.361C236.439 130.243 235.615 130.98 234.623 130.98C233.631 130.98 232.807 130.25 232.807 129.361V1.61922Z" fill="black"/>
<path d="M720.943 39.1482C716.463 39.1482 712.842 40.2106 709.858 42.65H709.11V18.3613H697.486V92.716H708.893L709.11 61.1093C709.11 55.3849 714.122 50.7089 719.664 50.7089C725.529 50.7089 730.218 55.3779 730.218 61.1093V92.716H741.625V61.1093C741.625 49.0174 731.819 39.1552 720.943 39.1552V39.1482ZM776.384 82.9516C767.214 82.9516 759.644 75.7384 759.644 66.5122C759.644 57.286 767.214 49.968 776.384 49.968C785.555 49.968 792.908 57.1812 792.908 66.5122C792.908 75.8432 785.659 82.9516 776.384 82.9516ZM776.384 38.9315C761.14 38.9315 748.664 51.3449 748.664 66.5122C748.664 81.6795 760.602 93.9881 775.532 93.9881C782.248 93.9881 788.861 91.6535 793.655 86.67H794.403V92.716H804V66.5192C804 51.3519 791.524 38.9385 776.384 38.9385V38.9315ZM563.476 82.9516C554.306 82.9516 546.736 75.7384 546.736 66.5122C546.736 57.286 554.306 49.968 563.476 49.968C572.646 49.968 579.999 57.1812 579.999 66.5122C579.999 75.8432 572.751 82.9516 563.476 82.9516ZM616.674 51.2331H627.333V39.6724H616.674V22.4921H605.05V39.6794H596.628V51.2401H605.05V71.6076C605.05 81.6795 612.724 93.9881 627.333 93.9881V82.4274C616.883 82.4274 616.674 71.8242 616.674 71.8242V51.2471V51.2331ZM505.694 39.1412C499.298 39.1412 493.322 41.8951 489.597 46.6759H488.961C485.228 41.9021 479.259 39.1412 472.969 39.1412C460.814 39.1412 450.791 49.0104 450.791 61.0953V92.702H462.303V61.0953C462.303 55.3709 466.993 50.6949 472.962 50.6949C478.931 50.6949 483.621 55.3639 483.621 61.0953V92.702H495.133V61.0953C495.133 55.3709 499.823 50.6949 505.687 50.6949C511.551 50.6949 516.458 55.3639 516.458 61.0953V92.702H527.865V61.0953C527.865 49.0034 517.946 39.1412 505.687 39.1412H505.694ZM563.476 38.9245C548.232 38.9245 535.756 51.3379 535.756 66.5052C535.756 81.6725 547.694 93.9811 562.624 93.9811C569.34 93.9811 575.946 91.6466 580.852 86.6631H581.6V92.709H591.092V66.5122C591.092 51.1353 578.616 38.9315 563.476 38.9315V38.9245ZM662.63 82.4134C653.676 82.4134 646.316 75.4099 646.316 66.5052C646.316 57.6006 653.669 50.4922 662.63 50.4922C669.025 50.4922 674.568 54.2036 677.238 59.5087H689.281C686.296 47.6265 675.421 38.9315 662.63 38.9315C647.169 38.9315 634.804 51.3449 634.804 66.5122C634.804 81.6795 647.176 93.9881 662.63 93.9881C675.421 93.9881 686.296 84.9716 689.281 73.0963H677.238C674.575 78.7159 669.032 82.4344 662.63 82.4344V82.4134Z" fill="black"/>
<path d="M366.518 23.6516C366.309 24.071 365.805 24.2458 365.379 24.057C359.012 21.1774 351.274 20.1988 346.186 20.1988C327.894 20.1988 309.596 29.0755 309.596 43.6627C309.596 51.484 315.495 58.103 324.113 58.103C333.64 58.103 340.741 51.1834 346.486 44.8649C351.624 39.1544 357.677 32.8359 366.288 32.8359C375.661 32.8359 382.461 39.7555 382.461 49.0796C382.461 63.8205 364.624 80.3647 339.979 80.3647C315.334 80.3647 297.504 67.2733 297.504 49.0796C297.504 32.081 317.759 16.739 339.986 16.739C351.33 16.739 359.864 19.1014 366.155 22.4984C366.567 22.722 366.735 23.2323 366.518 23.6516ZM339.986 10.8748C309.596 10.8748 284.804 35.5408 284.804 65.7776C284.804 96.0143 309.596 120.981 339.986 120.981C370.377 120.981 395.469 96.3148 395.469 65.7776C395.469 35.2403 370.67 10.8748 339.986 10.8748Z" fill="black"/>
</svg>
