<svg viewBox="0 0 48 48" fill="currentColor" xmlns="http://www.w3.org/2000/svg"><path fill-rule="evenodd" clip-rule="evenodd" d="M24 0C10.747 0 0 11.017 0 24.607c0 10.873 6.877 20.097 16.413 23.35 1.2.228 1.64-.533 1.64-1.183 0-.587-.023-2.525-.033-4.581-6.677 1.488-8.086-2.904-8.086-2.904-1.092-2.844-2.665-3.6-2.665-3.6-2.177-1.528.165-1.496.165-1.496 2.41.173 3.679 2.535 3.679 2.535 2.14 3.762 5.614 2.675 6.984 2.046.215-1.59.837-2.676 1.523-3.29-5.33-.623-10.934-2.733-10.934-12.162 0-2.686.937-4.882 2.473-6.605-.25-.62-1.071-3.123.232-6.512 0 0 2.016-.661 6.602 2.522 1.914-.545 3.968-.818 6.007-.828 2.04.01 4.095.283 6.013.828 4.58-3.183 6.593-2.522 6.593-2.522 1.306 3.39.484 5.892.235 6.512 1.54 1.723 2.47 3.919 2.47 6.605 0 9.452-5.614 11.533-10.959 12.142.861.764 1.628 2.261 1.628 4.557 0 3.292-.027 5.942-.027 6.753 0 .655.432 1.422 1.648 1.18C41.132 44.697 48 35.476 48 24.607 48 11.017 37.255 0 24 0Z"/><path fill-rule="evenodd" clip-rule="evenodd" d="M9.09 35.331c-.053.123-.24.159-.411.075-.174-.08-.272-.247-.216-.37.052-.126.24-.16.414-.077.174.081.273.25.213.372ZM10.062 36.443c-.114.108-.338.058-.49-.114-.157-.172-.186-.401-.07-.511.118-.11.335-.058.492.113.157.174.188.402.068.512ZM11.008 37.86c-.146.105-.387.007-.536-.212-.147-.22-.147-.482.004-.587.149-.105.385-.01.536.207.147.222.147.485-.004.592ZM12.305 39.23c-.132.148-.412.108-.617-.095-.21-.198-.268-.48-.136-.629.133-.149.415-.107.621.094.209.198.272.482.132.63ZM14.093 40.024c-.058.193-.328.28-.6.199-.27-.085-.448-.31-.394-.505.057-.194.328-.286.602-.198.27.084.449.308.392.504ZM16.058 40.172c.006.203-.224.37-.51.374-.287.007-.519-.157-.522-.357 0-.205.226-.371.512-.376.286-.006.52.157.52.359ZM17.885 39.853c.034.198-.164.401-.447.455-.279.052-.537-.07-.572-.266-.035-.203.167-.407.445-.46.284-.05.538.07.574.27Z"/></svg>