<svg xmlns="http://www.w3.org/2000/svg" width="210" height="35" fill="none"><g clip-path="url(#xk4n9p2w)"><path fill="#fff" d="M67.245 3.493H55.6V6.37h8.55a3.126 3.126 0 0 1 2.19.895 3.026 3.026 0 0 1 .906 2.164v2.513a3.013 3.013 0 0 1-.902 2.167 3.085 3.085 0 0 1-2.194.891H52.687v-2.877h11.647V9.248h-8.55a3.126 3.126 0 0 1-2.19-.896 3.053 3.053 0 0 1-.907-2.164V3.675a3.012 3.012 0 0 1 .903-2.167 3.112 3.112 0 0 1 2.194-.891h11.461v2.877-.001ZM81.363.616c1.722 0 3.117 1.358 3.117 3.06v8.265c0 1.702-1.395 3.06-3.117 3.06h-8.96a3.113 3.113 0 0 1-2.194-.892 3.04 3.04 0 0 1-.902-2.168V3.675a3.011 3.011 0 0 1 .902-2.168 3.084 3.084 0 0 1 2.194-.891h8.96Zm.184 2.877h-9.329v8.63h9.33v-8.63Zm8.117 8.53h11.359v3.1H88.536c-.532-.002-1.043-.211-1.42-.583a1.978 1.978 0 0 1-.59-1.403V.494h3.138v11.528ZM115.717.615c1.394 0 2.522 1.094 2.522 2.472V15h-2.933v-4.72h-9.329V15h-2.912V3.088A2.463 2.463 0 0 1 104.607.8c.305-.124.631-.186.96-.184h10.15Zm-.411 2.877h-9.329v3.91h9.329v-3.91Zm17.22-2.877h2.933v12.52c0 1.034-.862 1.864-1.908 1.864h-2.255a1.823 1.823 0 0 1-1.681-.992l-5.659-10.515h-.759V15h-2.912V2.5c0-1.053.841-1.884 1.887-1.884h2.379c.697 0 1.353.365 1.681.993l5.658 10.514h.636V.617Zm17.63 0c1.395 0 2.522 1.094 2.522 2.472V15h-2.932v-4.72h-9.329V15h-2.912V3.088A2.463 2.463 0 0 1 139.047.8c.305-.124.631-.186.96-.184h10.149Zm-.41 2.877h-9.329v3.91h9.329v-3.91Zm-82.788 18.75H55.6v2.877h11.36v2.877h-11.36v5.753h-2.911V19.366h14.27v2.877Zm14.105-2.877c1.722 0 3.116 1.358 3.116 3.06v8.265c0 1.702-1.394 3.06-3.116 3.06h-8.96a3.112 3.112 0 0 1-2.195-.892 3.011 3.011 0 0 1-.902-2.168v-8.266a3.011 3.011 0 0 1 .902-2.168 3.112 3.112 0 0 1 2.194-.892h8.96Zm.184 2.877h-9.33v8.63h9.33v-8.63Zm17.22-2.877h2.932v9.563c-.021 2.674-2.194 4.821-4.9 4.821h-5.393a4.916 4.916 0 0 1-1.87-.363 4.868 4.868 0 0 1-1.585-1.045 4.804 4.804 0 0 1-1.057-1.566 4.76 4.76 0 0 1-.368-1.848v-9.562h2.912v8.975c0 .672.27 1.316.75 1.79a2.58 2.58 0 0 0 1.813.742h4.203a2.58 2.58 0 0 0 1.812-.741c.48-.475.75-1.12.75-1.791v-8.975Zm17.22 0h2.932v12.52c0 1.034-.861 1.864-1.907 1.864h-2.255a1.825 1.825 0 0 1-1.682-.992l-5.659-10.515h-.758V33.75h-2.912v-12.5c0-1.053.841-1.884 1.886-1.884h2.379c.697 0 1.353.365 1.681.993l5.659 10.514h.636V19.367Zm15.251 0c2.707 0 4.88 2.168 4.901 4.822v4.74c-.021 2.675-2.194 4.822-4.901 4.822h-10.272V19.366h10.272Zm1.969 5.43a2.553 2.553 0 0 0-2.563-2.553h-6.766v8.63h6.766a2.58 2.58 0 0 0 1.812-.742 2.52 2.52 0 0 0 .751-1.79v-3.546Zm17.63-5.43c1.394 0 2.522 1.094 2.522 2.472V33.75h-2.932v-4.72h-9.329v4.72h-2.912V21.838a2.432 2.432 0 0 1 .728-1.753 2.483 2.483 0 0 1 1.773-.719h10.15Zm-.41 2.877h-9.329v3.91h9.329v-3.91Zm4.979-2.877h14.557v2.877h-5.823V33.75h-2.911V22.243h-5.823v-2.877Zm19.531 14.384h-2.912V19.366h2.912V33.75Zm14.11-14.384c1.722 0 3.116 1.358 3.116 3.06v8.265c0 1.702-1.394 3.06-3.116 3.06h-8.96a3.11 3.11 0 0 1-2.194-.892 3.01 3.01 0 0 1-.902-2.168v-8.266a3.01 3.01 0 0 1 .902-2.168 3.11 3.11 0 0 1 2.194-.892h8.96Zm.184 2.877h-9.329v8.63h9.329v-8.63Zm17.22-2.877h2.932v12.52c0 1.034-.861 1.864-1.906 1.864h-2.256a1.822 1.822 0 0 1-1.681-.992l-5.659-10.515h-.759V33.75h-2.911v-12.5c0-1.053.84-1.884 1.886-1.884h2.378c.697 0 1.354.365 1.681.993l5.66 10.514h.635V19.367Z"/><mask id="ym7vn3kl" width="38" height="35" x="0" y="0" maskUnits="userSpaceOnUse" style="mask-type:luminance"><path fill="#fff" d="M0 .934h37.594v33.28H0V.935Z"/></mask><g mask="url(#ym7vn3kl)"><path fill="url(#rt8wq5hz)" d="m37.4 27.173-6.205 6.588a1.44 1.44 0 0 1-1.055.454H.722a.728.728 0 0 1-.552-.253.708.708 0 0 1 .025-.947l6.21-6.588a1.439 1.439 0 0 1 1.052-.453h29.418a.725.725 0 0 1 .66.429.707.707 0 0 1-.135.77Zm-6.205-13.266a1.44 1.44 0 0 0-1.055-.454H.722a.73.73 0 0 0-.553.253.709.709 0 0 0 .025.947l6.211 6.588a1.44 1.44 0 0 0 1.051.454h29.418a.726.726 0 0 0 .551-.254.707.707 0 0 0-.025-.946l-6.205-6.588ZM.721 9.174H30.14a1.453 1.453 0 0 0 1.054-.454L37.4 2.133a.71.71 0 0 0-.527-1.2H7.457a1.454 1.454 0 0 0-1.051.453L.196 7.974a.71.71 0 0 0 .525 1.2Z"/></g></g><defs><linearGradient id="rt8wq5hz" x1="3.174" x2="33.674" y1="35.008" y2=".274" gradientUnits="userSpaceOnUse"><stop offset=".08" stop-color="#9945FF"/><stop offset=".3" stop-color="#8752F3"/><stop offset=".5" stop-color="#5497D5"/><stop offset=".6" stop-color="#43B4CA"/><stop offset=".72" stop-color="#28E0B9"/><stop offset=".97" stop-color="#19FB9B"/></linearGradient><clipPath id="xk4n9p2w"><path fill="#fff" d="M0 0h210v35H0z"/></clipPath></defs></svg>