<svg height="20" fill="currentColor" viewBox="0 0 20 20" width="20" xml:space="preserve" xmlns="http://www.w3.org/2000/svg"><path fill-rule="evenodd" clip-rule="evenodd" d="M16.6337 2.90098C16.6337 4.04282 15.708 4.96846 14.5662 4.96846C13.5883 4.96846 12.769 4.28961 12.5539 3.37748C11.3544 3.54223 10.4276 4.57369 10.4276 5.81768L10.4275 5.82548C12.2767 5.89411 13.9672 6.41499 15.3066 7.24371C15.7984 6.86598 16.4141 6.64145 17.0822 6.64145C18.6936 6.64145 20 7.94781 20 9.55929C20 10.7214 19.3206 11.7249 18.3373 12.1941C18.2458 15.5851 14.5521 18.3129 10.0089 18.3129C5.46956 18.3129 1.77825 15.5897 1.68081 12.2027C0.687757 11.7372 0 10.7286 0 9.55929C0 7.94781 1.30636 6.64145 2.91785 6.64145C3.58954 6.64145 4.20823 6.86841 4.70139 7.24984C6.02803 6.42642 7.70059 5.90546 9.53121 5.82783L9.531 5.81884C9.531 4.08424 10.853 2.652 12.5422 2.477C12.7378 1.53853 13.5697 0.833496 14.5662 0.833496C15.708 0.833496 16.6337 1.75914 16.6337 2.90098ZM5.97607 12.9006C6.79403 12.9006 7.49631 12.5188 7.5449 11.4682V11.4694C7.59349 10.4189 6.96989 9.54191 6.15192 9.54191C5.33395 9.54191 4.63168 10.2291 4.58309 11.2797C4.5345 12.3302 5.1581 12.9006 5.97607 12.9006ZM14.0371 12.9006C13.2192 12.9006 12.5169 12.5188 12.4683 11.4682V11.4694C12.4197 10.4189 13.0433 9.54191 13.8613 9.54191C14.6793 9.54191 15.3815 10.2291 15.4301 11.2797C15.4787 12.3302 14.8551 12.9006 14.0371 12.9006ZM10.0057 13.7174C8.99218 13.7174 8.02034 13.7672 7.12254 13.8586C6.96866 13.8736 6.87148 14.0333 6.93164 14.1756C7.43492 15.3776 8.62195 16.2222 10.0057 16.2222C11.3894 16.2222 12.5776 15.3776 13.0797 14.1756C13.1399 14.0333 13.0415 13.8736 12.8888 13.8586C11.9899 13.7672 11.0192 13.7174 10.0057 13.7174Z" fill="curentColor" /></svg>