<svg width="788" height="68" viewBox="0 0 788 68" fill="none" xmlns="http://www.w3.org/2000/svg">
<g opacity="0.1" filter="url(#filter0_di_5004_3898)">
<mask id="path-1-inside-1_5004_3898" fill="white">
<path d="M111.581 64.1105H25.5267V84.276H88.7093C94.7613 84.2783 100.571 86.5304 104.893 90.5492C107.016 92.5284 108.701 94.8893 109.851 97.4936C111 100.098 111.591 102.894 111.588 105.717V123.331C111.606 126.157 111.025 128.958 109.88 131.567C108.735 134.177 107.049 136.541 104.922 138.52C102.786 140.521 100.254 142.103 97.4716 143.174C94.6895 144.246 91.7119 144.787 88.7093 144.765H4.00037V124.6H90.0689V104.448H26.8865C20.8334 104.444 15.0232 102.19 10.7029 98.1682C8.58527 96.1849 6.90269 93.8234 5.75231 91.2201C4.60192 88.6167 4.00649 85.8231 4.00037 83.0003V65.3861C3.98316 62.5595 4.56498 59.7584 5.71129 57.1492C6.8576 54.5399 8.54501 52.1758 10.6733 50.1972C14.9935 46.1625 20.8237 43.9167 26.8865 43.952H111.581V64.1105ZM215.909 43.945C228.634 43.945 238.943 53.4635 238.943 65.3932V123.324C238.943 135.254 228.634 144.772 215.909 144.772H149.697C143.635 144.798 137.807 142.551 133.484 138.52C131.366 136.533 129.686 134.166 128.542 131.557C127.397 128.949 126.812 126.15 126.818 123.324V65.3861C126.795 62.5582 127.373 59.7549 128.518 57.1439C129.664 54.5329 131.353 52.1678 133.484 50.1902C135.618 48.1861 138.15 46.6025 140.932 45.5306C143.715 44.4587 146.694 43.9198 149.697 43.945H215.909ZM217.269 64.1105H148.33V124.6H217.276L217.269 64.1105ZM277.252 123.899H361.192V145.628H268.916C264.989 145.621 261.222 144.154 258.423 141.541C257.048 140.256 255.955 138.725 255.207 137.037C254.458 135.35 254.07 133.538 254.063 131.707V43.0898H277.252V123.899ZM469.777 43.938C480.079 43.938 488.414 51.606 488.414 61.2647V144.765H466.74V111.682H397.801V144.765H376.282V61.2717C376.273 57.8245 377.355 54.4539 379.386 51.5953C381.417 48.7366 384.305 46.5211 387.677 45.2347C389.931 44.3655 392.34 43.9309 394.771 43.945L469.777 43.938ZM466.74 64.1035H397.801V91.5095H466.74V64.1035ZM593.992 43.938H615.666V131.693C615.666 138.941 609.296 144.758 601.566 144.758H584.902C582.349 144.838 579.825 144.226 577.625 142.995C575.426 141.764 573.641 139.964 572.48 137.805L530.661 64.1035H525.053V144.765H503.534V57.1503C503.534 49.7696 509.748 43.945 517.478 43.945H535.058C540.209 43.945 545.057 46.5033 547.481 50.9051L589.292 124.6H593.992V43.952V43.938ZM724.273 43.938C734.582 43.938 742.91 51.606 742.91 61.2647V144.765H721.243V111.682H652.304V144.765H630.785V61.2717C630.777 57.8245 631.858 54.4539 633.889 51.5953C635.921 48.7366 638.808 46.5211 642.18 45.2347C644.434 44.3655 646.843 43.9309 649.275 43.945L724.273 43.938ZM721.243 64.1035H652.304V91.5095H721.243V64.1035Z"/>
</mask>
<path d="M111.581 64.1105H25.5267V84.276H88.7093C94.7613 84.2783 100.571 86.5304 104.893 90.5492C107.016 92.5284 108.701 94.8893 109.851 97.4936C111 100.098 111.591 102.894 111.588 105.717V123.331C111.606 126.157 111.025 128.958 109.88 131.567C108.735 134.177 107.049 136.541 104.922 138.52C102.786 140.521 100.254 142.103 97.4716 143.174C94.6895 144.246 91.7119 144.787 88.7093 144.765H4.00037V124.6H90.0689V104.448H26.8865C20.8334 104.444 15.0232 102.19 10.7029 98.1682C8.58527 96.1849 6.90269 93.8234 5.75231 91.2201C4.60192 88.6167 4.00649 85.8231 4.00037 83.0003V65.3861C3.98316 62.5595 4.56498 59.7584 5.71129 57.1492C6.8576 54.5399 8.54501 52.1758 10.6733 50.1972C14.9935 46.1625 20.8237 43.9167 26.8865 43.952H111.581V64.1105ZM215.909 43.945C228.634 43.945 238.943 53.4635 238.943 65.3932V123.324C238.943 135.254 228.634 144.772 215.909 144.772H149.697C143.635 144.798 137.807 142.551 133.484 138.52C131.366 136.533 129.686 134.166 128.542 131.557C127.397 128.949 126.812 126.15 126.818 123.324V65.3861C126.795 62.5582 127.373 59.7549 128.518 57.1439C129.664 54.5329 131.353 52.1678 133.484 50.1902C135.618 48.1861 138.15 46.6025 140.932 45.5306C143.715 44.4587 146.694 43.9198 149.697 43.945H215.909ZM217.269 64.1105H148.33V124.6H217.276L217.269 64.1105ZM277.252 123.899H361.192V145.628H268.916C264.989 145.621 261.222 144.154 258.423 141.541C257.048 140.256 255.955 138.725 255.207 137.037C254.458 135.35 254.07 133.538 254.063 131.707V43.0898H277.252V123.899ZM469.777 43.938C480.079 43.938 488.414 51.606 488.414 61.2647V144.765H466.74V111.682H397.801V144.765H376.282V61.2717C376.273 57.8245 377.355 54.4539 379.386 51.5953C381.417 48.7366 384.305 46.5211 387.677 45.2347C389.931 44.3655 392.34 43.9309 394.771 43.945L469.777 43.938ZM466.74 64.1035H397.801V91.5095H466.74V64.1035ZM593.992 43.938H615.666V131.693C615.666 138.941 609.296 144.758 601.566 144.758H584.902C582.349 144.838 579.825 144.226 577.625 142.995C575.426 141.764 573.641 139.964 572.48 137.805L530.661 64.1035H525.053V144.765H503.534V57.1503C503.534 49.7696 509.748 43.945 517.478 43.945H535.058C540.209 43.945 545.057 46.5033 547.481 50.9051L589.292 124.6H593.992V43.952V43.938ZM724.273 43.938C734.582 43.938 742.91 51.606 742.91 61.2647V144.765H721.243V111.682H652.304V144.765H630.785V61.2717C630.777 57.8245 631.858 54.4539 633.889 51.5953C635.921 48.7366 638.808 46.5211 642.18 45.2347C644.434 44.3655 646.843 43.9309 649.275 43.945L724.273 43.938ZM721.243 64.1035H652.304V91.5095H721.243V64.1035Z" stroke="url(#paint0_linear_5004_3898)" style="" stroke-width="0.797959" shape-rendering="crispEdges" mask="url(#path-1-inside-1_5004_3898)"/>
</g>
<g opacity="0.2" filter="url(#filter1_di_5004_3898)">
<mask id="path-2-inside-2_5004_3898" fill="white">
<path d="M116.37 59.3224H30.3158V79.4879H93.4983C99.5504 79.4902 105.36 81.7424 109.682 85.7611C111.805 87.7403 113.49 90.1012 114.64 92.7056C115.79 95.31 116.38 98.1056 116.377 100.929V118.543C116.395 121.369 115.815 124.17 114.67 126.779C113.524 129.389 111.838 131.753 109.711 133.732C107.575 135.733 105.043 137.315 102.261 138.386C99.4786 139.458 96.501 139.999 93.4983 139.977H8.78943V119.812H94.858V99.6604H31.6755C25.6224 99.6562 19.8123 97.4015 15.492 93.3801C13.3743 91.3968 11.6918 89.0353 10.5414 86.432C9.39098 83.8286 8.79555 81.035 8.78943 78.2122V60.5981C8.77222 57.7714 9.35404 54.9703 10.5004 52.3611C11.6467 49.7519 13.3341 47.3877 15.4624 45.4091C19.7825 41.3744 25.6128 39.1286 31.6755 39.1639H116.37V59.3224ZM220.698 39.1569C233.423 39.1569 243.732 48.6754 243.732 60.6051V118.536C243.732 130.466 233.423 139.984 220.698 139.984H154.486C148.424 140.01 142.596 137.763 138.273 133.732C136.155 131.745 134.475 129.378 133.331 126.769C132.186 124.16 131.601 121.362 131.607 118.536V60.5981C131.584 57.7702 132.162 54.9668 133.307 52.3558C134.453 49.7448 136.142 47.3797 138.273 45.4021C140.407 43.398 142.939 41.8144 145.721 40.7425C148.504 39.6707 151.483 39.1318 154.486 39.1569H220.698ZM222.058 59.3224H153.119V119.812H222.065L222.058 59.3224ZM282.041 119.111H365.981V140.84H273.705C269.778 140.833 266.011 139.365 263.212 136.753C261.837 135.468 260.744 133.937 259.996 132.249C259.247 130.562 258.859 128.75 258.852 126.919V38.3018H282.041V119.111ZM474.566 39.1499C484.868 39.1499 493.203 46.8179 493.203 56.4766V139.977H471.529V106.894H402.59V139.977H381.071V56.4837C381.063 53.0364 382.144 49.6659 384.175 46.8072C386.206 43.9485 389.094 41.733 392.466 40.4466C394.72 39.5774 397.129 39.1429 399.56 39.1569L474.566 39.1499ZM471.529 59.3154H402.59V86.7214H471.529V59.3154ZM598.781 39.1499H620.455V126.905C620.455 134.153 614.085 139.97 606.355 139.97H589.691C587.138 140.05 584.614 139.438 582.414 138.207C580.215 136.976 578.43 135.175 577.269 133.017L535.451 59.3154H529.842V139.977H508.323V52.3622C508.323 44.9815 514.537 39.1569 522.267 39.1569H539.847C544.998 39.1569 549.846 41.7152 552.27 46.117L594.081 119.812H598.781V39.1639V39.1499ZM729.062 39.1499C739.371 39.1499 747.699 46.8179 747.699 56.4766V139.977H726.033V106.894H657.094V139.977H635.574V56.4837C635.566 53.0364 636.647 49.6659 638.678 46.8072C640.71 43.9485 643.598 41.733 646.969 40.4466C649.223 39.5774 651.632 39.1429 654.064 39.1569L729.062 39.1499ZM726.033 59.3154H657.094V86.7214H726.033V59.3154Z"/>
</mask>
<path d="M116.37 59.3224H30.3158V79.4879H93.4983C99.5504 79.4902 105.36 81.7424 109.682 85.7611C111.805 87.7403 113.49 90.1012 114.64 92.7056C115.79 95.31 116.38 98.1056 116.377 100.929V118.543C116.395 121.369 115.815 124.17 114.67 126.779C113.524 129.389 111.838 131.753 109.711 133.732C107.575 135.733 105.043 137.315 102.261 138.386C99.4786 139.458 96.501 139.999 93.4983 139.977H8.78943V119.812H94.858V99.6604H31.6755C25.6224 99.6562 19.8123 97.4015 15.492 93.3801C13.3743 91.3968 11.6918 89.0353 10.5414 86.432C9.39098 83.8286 8.79555 81.035 8.78943 78.2122V60.5981C8.77222 57.7714 9.35404 54.9703 10.5004 52.3611C11.6467 49.7519 13.3341 47.3877 15.4624 45.4091C19.7825 41.3744 25.6128 39.1286 31.6755 39.1639H116.37V59.3224ZM220.698 39.1569C233.423 39.1569 243.732 48.6754 243.732 60.6051V118.536C243.732 130.466 233.423 139.984 220.698 139.984H154.486C148.424 140.01 142.596 137.763 138.273 133.732C136.155 131.745 134.475 129.378 133.331 126.769C132.186 124.16 131.601 121.362 131.607 118.536V60.5981C131.584 57.7702 132.162 54.9668 133.307 52.3558C134.453 49.7448 136.142 47.3797 138.273 45.4021C140.407 43.398 142.939 41.8144 145.721 40.7425C148.504 39.6707 151.483 39.1318 154.486 39.1569H220.698ZM222.058 59.3224H153.119V119.812H222.065L222.058 59.3224ZM282.041 119.111H365.981V140.84H273.705C269.778 140.833 266.011 139.365 263.212 136.753C261.837 135.468 260.744 133.937 259.996 132.249C259.247 130.562 258.859 128.75 258.852 126.919V38.3018H282.041V119.111ZM474.566 39.1499C484.868 39.1499 493.203 46.8179 493.203 56.4766V139.977H471.529V106.894H402.59V139.977H381.071V56.4837C381.063 53.0364 382.144 49.6659 384.175 46.8072C386.206 43.9485 389.094 41.733 392.466 40.4466C394.72 39.5774 397.129 39.1429 399.56 39.1569L474.566 39.1499ZM471.529 59.3154H402.59V86.7214H471.529V59.3154ZM598.781 39.1499H620.455V126.905C620.455 134.153 614.085 139.97 606.355 139.97H589.691C587.138 140.05 584.614 139.438 582.414 138.207C580.215 136.976 578.43 135.175 577.269 133.017L535.451 59.3154H529.842V139.977H508.323V52.3622C508.323 44.9815 514.537 39.1569 522.267 39.1569H539.847C544.998 39.1569 549.846 41.7152 552.27 46.117L594.081 119.812H598.781V39.1639V39.1499ZM729.062 39.1499C739.371 39.1499 747.699 46.8179 747.699 56.4766V139.977H726.033V106.894H657.094V139.977H635.574V56.4837C635.566 53.0364 636.647 49.6659 638.678 46.8072C640.71 43.9485 643.598 41.733 646.969 40.4466C649.223 39.5774 651.632 39.1429 654.064 39.1569L729.062 39.1499ZM726.033 59.3154H657.094V86.7214H726.033V59.3154Z" stroke="url(#paint1_linear_5004_3898)" style="" stroke-width="0.797959" shape-rendering="crispEdges" mask="url(#path-2-inside-2_5004_3898)"/>
</g>
<g opacity="0.3" filter="url(#filter2_di_5004_3898)">
<mask id="path-3-inside-3_5004_3898" fill="white">
<path d="M121.155 54.5343H35.101V74.6998H98.2835C104.336 74.7021 110.146 76.9543 114.467 80.973C116.59 82.9522 118.275 85.3131 119.425 87.9175C120.575 90.5219 121.165 93.3175 121.162 96.141V113.755C121.18 116.581 120.6 119.382 119.455 121.991C118.31 124.6 116.624 126.965 114.497 128.944C112.36 130.945 109.828 132.527 107.046 133.598C104.264 134.67 101.286 135.211 98.2835 135.189H13.5746V115.024H99.6432V94.8723H36.4607C30.4076 94.8681 24.5974 92.6134 20.2771 88.5921C18.1595 86.6087 16.4769 84.2472 15.3265 81.6439C14.1761 79.0405 13.5807 76.2469 13.5746 73.4241V55.81C13.5574 52.9833 14.1392 50.1822 15.2855 47.573C16.4318 44.9638 18.1192 42.5997 20.2475 40.621C24.5677 36.5863 30.398 34.3405 36.4607 34.3758H121.155V54.5343ZM225.483 34.3688C238.209 34.3688 248.517 43.8873 248.517 55.817V113.748C248.517 125.678 238.209 135.196 225.483 135.196H159.271C153.209 135.222 147.382 132.975 143.058 128.944C140.94 126.957 139.26 124.59 138.116 121.981C136.972 119.372 136.386 116.574 136.392 113.748V55.81C136.369 52.9821 136.947 50.1787 138.093 47.5677C139.238 44.9567 140.927 42.5916 143.058 40.614C145.192 38.6099 147.724 37.0263 150.507 35.9544C153.289 34.8826 156.268 34.3437 159.271 34.3688H225.483ZM226.843 54.5343H157.904V115.024H226.851L226.843 54.5343ZM286.826 114.323H370.766V136.051H278.49C274.563 136.045 270.796 134.577 267.997 131.965C266.622 130.68 265.529 129.149 264.781 127.461C264.033 125.774 263.644 123.962 263.637 122.131V33.5137H286.826V114.323ZM479.351 34.3618C489.653 34.3618 497.988 42.0299 497.988 51.6886V135.189H476.314V102.106H407.375V135.189H385.856V51.6956C385.848 48.2483 386.929 44.8778 388.96 42.0191C390.991 39.1605 393.879 36.9449 397.251 35.6585C399.505 34.7893 401.914 34.3548 404.345 34.3688L479.351 34.3618ZM476.314 54.5273H407.375V81.9333H476.314V54.5273ZM603.566 34.3618H625.24V122.117C625.24 129.365 618.87 135.182 611.14 135.182H594.477C591.924 135.262 589.399 134.65 587.2 133.419C585 132.187 583.215 130.387 582.054 128.229L540.236 54.5273H534.627V135.189H513.108V47.5742C513.108 40.1935 519.323 34.3688 527.052 34.3688H544.633C549.783 34.3688 554.631 36.9272 557.055 41.3289L598.866 115.024H603.566V34.3758V34.3618ZM733.848 34.3618C744.156 34.3618 752.484 42.0299 752.484 51.6886V135.189H730.818V102.106H661.879V135.189H640.36V51.6956C640.351 48.2483 641.432 44.8778 643.464 42.0191C645.495 39.1605 648.383 36.9449 651.755 35.6585C654.008 34.7893 656.418 34.3548 658.849 34.3688L733.848 34.3618ZM730.818 54.5273H661.879V81.9333H730.818V54.5273Z"/>
</mask>
<path d="M121.155 54.5343H35.101V74.6998H98.2835C104.336 74.7021 110.146 76.9543 114.467 80.973C116.59 82.9522 118.275 85.3131 119.425 87.9175C120.575 90.5219 121.165 93.3175 121.162 96.141V113.755C121.18 116.581 120.6 119.382 119.455 121.991C118.31 124.6 116.624 126.965 114.497 128.944C112.36 130.945 109.828 132.527 107.046 133.598C104.264 134.67 101.286 135.211 98.2835 135.189H13.5746V115.024H99.6432V94.8723H36.4607C30.4076 94.8681 24.5974 92.6134 20.2771 88.5921C18.1595 86.6087 16.4769 84.2472 15.3265 81.6439C14.1761 79.0405 13.5807 76.2469 13.5746 73.4241V55.81C13.5574 52.9833 14.1392 50.1822 15.2855 47.573C16.4318 44.9638 18.1192 42.5997 20.2475 40.621C24.5677 36.5863 30.398 34.3405 36.4607 34.3758H121.155V54.5343ZM225.483 34.3688C238.209 34.3688 248.517 43.8873 248.517 55.817V113.748C248.517 125.678 238.209 135.196 225.483 135.196H159.271C153.209 135.222 147.382 132.975 143.058 128.944C140.94 126.957 139.26 124.59 138.116 121.981C136.972 119.372 136.386 116.574 136.392 113.748V55.81C136.369 52.9821 136.947 50.1787 138.093 47.5677C139.238 44.9567 140.927 42.5916 143.058 40.614C145.192 38.6099 147.724 37.0263 150.507 35.9544C153.289 34.8826 156.268 34.3437 159.271 34.3688H225.483ZM226.843 54.5343H157.904V115.024H226.851L226.843 54.5343ZM286.826 114.323H370.766V136.051H278.49C274.563 136.045 270.796 134.577 267.997 131.965C266.622 130.68 265.529 129.149 264.781 127.461C264.033 125.774 263.644 123.962 263.637 122.131V33.5137H286.826V114.323ZM479.351 34.3618C489.653 34.3618 497.988 42.0299 497.988 51.6886V135.189H476.314V102.106H407.375V135.189H385.856V51.6956C385.848 48.2483 386.929 44.8778 388.96 42.0191C390.991 39.1605 393.879 36.9449 397.251 35.6585C399.505 34.7893 401.914 34.3548 404.345 34.3688L479.351 34.3618ZM476.314 54.5273H407.375V81.9333H476.314V54.5273ZM603.566 34.3618H625.24V122.117C625.24 129.365 618.87 135.182 611.14 135.182H594.477C591.924 135.262 589.399 134.65 587.2 133.419C585 132.187 583.215 130.387 582.054 128.229L540.236 54.5273H534.627V135.189H513.108V47.5742C513.108 40.1935 519.323 34.3688 527.052 34.3688H544.633C549.783 34.3688 554.631 36.9272 557.055 41.3289L598.866 115.024H603.566V34.3758V34.3618ZM733.848 34.3618C744.156 34.3618 752.484 42.0299 752.484 51.6886V135.189H730.818V102.106H661.879V135.189H640.36V51.6956C640.351 48.2483 641.432 44.8778 643.464 42.0191C645.495 39.1605 648.383 36.9449 651.755 35.6585C654.008 34.7893 656.418 34.3548 658.849 34.3688L733.848 34.3618ZM730.818 54.5273H661.879V81.9333H730.818V54.5273Z" stroke="url(#paint2_linear_5004_3898)" style="" stroke-width="0.797959" shape-rendering="crispEdges" mask="url(#path-3-inside-3_5004_3898)"/>
</g>
<g opacity="0.4" filter="url(#filter3_di_5004_3898)">
<mask id="path-4-inside-4_5004_3898" fill="white">
<path d="M125.944 49.7472H39.89V69.9127H103.073C109.125 69.915 114.935 72.1672 119.256 76.1859C121.379 78.1651 123.065 80.526 124.214 83.1304C125.364 85.7348 125.954 88.5304 125.951 91.3539V108.968C125.969 111.794 125.389 114.595 124.244 117.204C123.099 119.813 121.413 122.178 119.286 124.157C117.149 126.158 114.617 127.74 111.835 128.811C109.053 129.883 106.075 130.423 103.073 130.402H18.3637V110.237H104.432V90.0852H41.2498C35.1967 90.081 29.3865 87.8263 25.0662 83.805C22.9485 81.8216 21.266 79.4601 20.1156 76.8568C18.9652 74.2534 18.3698 71.4598 18.3637 68.637V51.0229C18.3464 48.1962 18.9283 45.3951 20.0746 42.7859C21.2209 40.1767 22.9083 37.8125 25.0366 35.8339C29.3568 31.7992 35.187 29.5534 41.2498 29.5887H125.944V49.7472ZM230.273 29.5817C242.998 29.5817 253.306 39.1002 253.306 51.0299V108.961C253.306 120.891 242.998 130.409 230.273 130.409H164.06C157.998 130.435 152.171 128.188 147.847 124.157C145.729 122.17 144.049 119.803 142.905 117.194C141.761 114.585 141.175 111.787 141.182 108.961V51.0229C141.158 48.195 141.736 45.3916 142.882 42.7806C144.027 40.1696 145.716 37.8045 147.847 35.8269C149.981 33.8228 152.513 32.2392 155.296 31.1673C158.078 30.0955 161.057 29.5566 164.06 29.5817H230.273ZM231.632 49.7472H162.693V110.237H231.64L231.632 49.7472ZM291.615 109.536H375.555V131.264H283.279C279.352 131.257 275.585 129.79 272.786 127.178C271.411 125.893 270.318 124.362 269.57 122.674C268.822 120.986 268.433 119.175 268.426 117.344V28.7266H291.615V109.536ZM484.141 29.5747C494.442 29.5747 502.777 37.2428 502.777 46.9014V130.402H481.103V97.3187H412.164V130.402H390.645V46.9085C390.637 43.4612 391.718 40.0907 393.749 37.232C395.78 34.3733 398.668 32.1578 402.04 30.8714C404.294 30.0022 406.703 29.5677 409.134 29.5817L484.141 29.5747ZM481.103 49.7402H412.164V77.1462H481.103V49.7402ZM608.355 29.5747H630.029V117.33C630.029 124.578 623.659 130.395 615.93 130.395H599.266C596.713 130.475 594.189 129.863 591.989 128.632C589.789 127.4 588.004 125.6 586.844 123.442L545.025 49.7402H539.416V130.402H517.897V42.787C517.897 35.4063 524.112 29.5817 531.841 29.5817H549.422C554.572 29.5817 559.42 32.14 561.844 36.5418L603.655 110.237H608.355V29.5887V29.5747ZM738.637 29.5747C748.945 29.5747 757.273 37.2428 757.273 46.9014V130.402H735.607V97.3187H666.668V130.402H645.149V46.9085C645.14 43.4612 646.221 40.0907 648.253 37.232C650.284 34.3733 653.172 32.1578 656.544 30.8714C658.798 30.0022 661.207 29.5677 663.638 29.5817L738.637 29.5747ZM735.607 49.7402H666.668V77.1462H735.607V49.7402Z"/>
</mask>
<path d="M125.944 49.7472H39.89V69.9127H103.073C109.125 69.915 114.935 72.1672 119.256 76.1859C121.379 78.1651 123.065 80.526 124.214 83.1304C125.364 85.7348 125.954 88.5304 125.951 91.3539V108.968C125.969 111.794 125.389 114.595 124.244 117.204C123.099 119.813 121.413 122.178 119.286 124.157C117.149 126.158 114.617 127.74 111.835 128.811C109.053 129.883 106.075 130.423 103.073 130.402H18.3637V110.237H104.432V90.0852H41.2498C35.1967 90.081 29.3865 87.8263 25.0662 83.805C22.9485 81.8216 21.266 79.4601 20.1156 76.8568C18.9652 74.2534 18.3698 71.4598 18.3637 68.637V51.0229C18.3464 48.1962 18.9283 45.3951 20.0746 42.7859C21.2209 40.1767 22.9083 37.8125 25.0366 35.8339C29.3568 31.7992 35.187 29.5534 41.2498 29.5887H125.944V49.7472ZM230.273 29.5817C242.998 29.5817 253.306 39.1002 253.306 51.0299V108.961C253.306 120.891 242.998 130.409 230.273 130.409H164.06C157.998 130.435 152.171 128.188 147.847 124.157C145.729 122.17 144.049 119.803 142.905 117.194C141.761 114.585 141.175 111.787 141.182 108.961V51.0229C141.158 48.195 141.736 45.3916 142.882 42.7806C144.027 40.1696 145.716 37.8045 147.847 35.8269C149.981 33.8228 152.513 32.2392 155.296 31.1673C158.078 30.0955 161.057 29.5566 164.06 29.5817H230.273ZM231.632 49.7472H162.693V110.237H231.64L231.632 49.7472ZM291.615 109.536H375.555V131.264H283.279C279.352 131.257 275.585 129.79 272.786 127.178C271.411 125.893 270.318 124.362 269.57 122.674C268.822 120.986 268.433 119.175 268.426 117.344V28.7266H291.615V109.536ZM484.141 29.5747C494.442 29.5747 502.777 37.2428 502.777 46.9014V130.402H481.103V97.3187H412.164V130.402H390.645V46.9085C390.637 43.4612 391.718 40.0907 393.749 37.232C395.78 34.3733 398.668 32.1578 402.04 30.8714C404.294 30.0022 406.703 29.5677 409.134 29.5817L484.141 29.5747ZM481.103 49.7402H412.164V77.1462H481.103V49.7402ZM608.355 29.5747H630.029V117.33C630.029 124.578 623.659 130.395 615.93 130.395H599.266C596.713 130.475 594.189 129.863 591.989 128.632C589.789 127.4 588.004 125.6 586.844 123.442L545.025 49.7402H539.416V130.402H517.897V42.787C517.897 35.4063 524.112 29.5817 531.841 29.5817H549.422C554.572 29.5817 559.42 32.14 561.844 36.5418L603.655 110.237H608.355V29.5887V29.5747ZM738.637 29.5747C748.945 29.5747 757.273 37.2428 757.273 46.9014V130.402H735.607V97.3187H666.668V130.402H645.149V46.9085C645.14 43.4612 646.221 40.0907 648.253 37.232C650.284 34.3733 653.172 32.1578 656.544 30.8714C658.798 30.0022 661.207 29.5677 663.638 29.5817L738.637 29.5747ZM735.607 49.7402H666.668V77.1462H735.607V49.7402Z" stroke="url(#paint3_linear_5004_3898)" style="" stroke-width="0.797959" shape-rendering="crispEdges" mask="url(#path-4-inside-4_5004_3898)"/>
</g>
<g opacity="0.5" filter="url(#filter4_di_5004_3898)">
<mask id="path-5-inside-5_5004_3898" fill="white">
<path d="M130.733 44.9591H44.6791V65.1246H107.862C113.914 65.1269 119.724 67.3791 124.045 71.3978C126.168 73.377 127.854 75.7379 129.003 78.3423C130.153 80.9467 130.743 83.7423 130.74 86.5658V104.18C130.758 107.006 130.178 109.807 129.033 112.416C127.888 115.025 126.202 117.39 124.075 119.369C121.938 121.37 119.406 122.951 116.624 124.023C113.842 125.095 110.864 125.635 107.862 125.614H23.1527V105.449H109.221V85.2971H46.0388C39.9857 85.2929 34.1756 83.0382 29.8552 79.0169C27.7376 77.0335 26.055 74.672 24.9046 72.0687C23.7543 69.4654 23.1588 66.6717 23.1527 63.8489V46.2348C23.1355 43.4081 23.7173 40.607 24.8636 37.9978C26.0099 35.3886 27.6974 33.0245 29.8257 31.0458C34.1458 27.0111 39.9761 24.7653 46.0388 24.8006H130.733V44.9591ZM235.062 24.7936C247.787 24.7936 258.096 34.3121 258.096 46.2418V104.173C258.096 116.103 247.787 125.621 235.062 125.621H168.849C162.787 125.647 156.96 123.4 152.636 119.369C150.518 117.382 148.838 115.015 147.694 112.406C146.55 109.797 145.964 106.999 145.971 104.173V46.2348C145.947 43.4069 146.525 40.6035 147.671 37.9925C148.816 35.3815 150.505 33.0164 152.636 31.0388C154.771 29.0347 157.302 27.4511 160.085 26.3792C162.867 25.3074 165.846 24.7685 168.849 24.7936H235.062ZM236.421 44.9591H167.482V105.449H236.429L236.421 44.9591ZM296.404 104.748H380.344V126.476H288.068C284.142 126.469 280.374 125.002 277.575 122.39C276.2 121.105 275.107 119.574 274.359 117.886C273.611 116.198 273.222 114.387 273.215 112.556V23.9385H296.404V104.748ZM488.93 24.7866C499.231 24.7866 507.567 32.4547 507.567 42.1134V125.614H485.892V92.5306H416.953V125.614H395.434V42.1204C395.426 38.6731 396.507 35.3026 398.538 32.4439C400.569 29.5853 403.457 27.3697 406.829 26.0833C409.083 25.2142 411.492 24.7796 413.923 24.7936L488.93 24.7866ZM485.892 44.9521H416.953V72.3581H485.892V44.9521ZM613.144 24.7866H634.818V112.542C634.818 119.789 628.448 125.607 620.719 125.607H604.055C601.502 125.687 598.978 125.075 596.778 123.844C594.578 122.612 592.793 120.812 591.633 118.654L549.814 44.9521H544.205V125.614H522.686V37.999C522.686 30.6183 528.901 24.7936 536.63 24.7936H554.211C559.361 24.7936 564.209 27.352 566.633 31.7537L608.444 105.449H613.144V24.8006V24.7866ZM743.426 24.7866C753.734 24.7866 762.063 32.4547 762.063 42.1134V125.614H740.396V92.5306H671.457V125.614H649.938V42.1204C649.929 38.6731 651.01 35.3026 653.042 32.4439C655.073 29.5853 657.961 27.3697 661.333 26.0833C663.587 25.2142 665.996 24.7796 668.427 24.7936L743.426 24.7866ZM740.396 44.9521H671.457V72.3581H740.396V44.9521Z"/>
</mask>
<path d="M130.733 44.9591H44.6791V65.1246H107.862C113.914 65.1269 119.724 67.3791 124.045 71.3978C126.168 73.377 127.854 75.7379 129.003 78.3423C130.153 80.9467 130.743 83.7423 130.74 86.5658V104.18C130.758 107.006 130.178 109.807 129.033 112.416C127.888 115.025 126.202 117.39 124.075 119.369C121.938 121.37 119.406 122.951 116.624 124.023C113.842 125.095 110.864 125.635 107.862 125.614H23.1527V105.449H109.221V85.2971H46.0388C39.9857 85.2929 34.1756 83.0382 29.8552 79.0169C27.7376 77.0335 26.055 74.672 24.9046 72.0687C23.7543 69.4654 23.1588 66.6717 23.1527 63.8489V46.2348C23.1355 43.4081 23.7173 40.607 24.8636 37.9978C26.0099 35.3886 27.6974 33.0245 29.8257 31.0458C34.1458 27.0111 39.9761 24.7653 46.0388 24.8006H130.733V44.9591ZM235.062 24.7936C247.787 24.7936 258.096 34.3121 258.096 46.2418V104.173C258.096 116.103 247.787 125.621 235.062 125.621H168.849C162.787 125.647 156.96 123.4 152.636 119.369C150.518 117.382 148.838 115.015 147.694 112.406C146.55 109.797 145.964 106.999 145.971 104.173V46.2348C145.947 43.4069 146.525 40.6035 147.671 37.9925C148.816 35.3815 150.505 33.0164 152.636 31.0388C154.771 29.0347 157.302 27.4511 160.085 26.3792C162.867 25.3074 165.846 24.7685 168.849 24.7936H235.062ZM236.421 44.9591H167.482V105.449H236.429L236.421 44.9591ZM296.404 104.748H380.344V126.476H288.068C284.142 126.469 280.374 125.002 277.575 122.39C276.2 121.105 275.107 119.574 274.359 117.886C273.611 116.198 273.222 114.387 273.215 112.556V23.9385H296.404V104.748ZM488.93 24.7866C499.231 24.7866 507.567 32.4547 507.567 42.1134V125.614H485.892V92.5306H416.953V125.614H395.434V42.1204C395.426 38.6731 396.507 35.3026 398.538 32.4439C400.569 29.5853 403.457 27.3697 406.829 26.0833C409.083 25.2142 411.492 24.7796 413.923 24.7936L488.93 24.7866ZM485.892 44.9521H416.953V72.3581H485.892V44.9521ZM613.144 24.7866H634.818V112.542C634.818 119.789 628.448 125.607 620.719 125.607H604.055C601.502 125.687 598.978 125.075 596.778 123.844C594.578 122.612 592.793 120.812 591.633 118.654L549.814 44.9521H544.205V125.614H522.686V37.999C522.686 30.6183 528.901 24.7936 536.63 24.7936H554.211C559.361 24.7936 564.209 27.352 566.633 31.7537L608.444 105.449H613.144V24.8006V24.7866ZM743.426 24.7866C753.734 24.7866 762.063 32.4547 762.063 42.1134V125.614H740.396V92.5306H671.457V125.614H649.938V42.1204C649.929 38.6731 651.01 35.3026 653.042 32.4439C655.073 29.5853 657.961 27.3697 661.333 26.0833C663.587 25.2142 665.996 24.7796 668.427 24.7936L743.426 24.7866ZM740.396 44.9521H671.457V72.3581H740.396V44.9521Z" stroke="url(#paint4_linear_5004_3898)" style="" stroke-width="0.797959" shape-rendering="crispEdges" mask="url(#path-5-inside-5_5004_3898)"/>
</g>
<g opacity="0.6" filter="url(#filter5_di_5004_3898)">
<mask id="path-6-inside-6_5004_3898" fill="white">
<path d="M135.518 40.171H49.4642V60.3365H112.647C118.699 60.3388 124.509 62.591 128.83 66.6098C130.953 68.589 132.639 70.9498 133.788 73.5542C134.938 76.1586 135.529 78.9543 135.525 81.7777V99.3918C135.544 102.218 134.963 105.019 133.818 107.628C132.673 110.237 130.987 112.602 128.86 114.581C126.723 116.582 124.191 118.163 121.409 119.235C118.627 120.307 115.649 120.847 112.647 120.826H27.9379V100.661H114.006V80.509H50.824C44.7709 80.5048 38.9607 78.2501 34.6404 74.2288C32.5228 72.2454 30.8402 69.884 29.6898 67.2806C28.5394 64.6773 27.944 61.8836 27.9379 59.0608V41.4467C27.9207 38.62 28.5025 35.8189 29.6488 33.2097C30.7951 30.6005 32.4825 28.2364 34.6108 26.2577C38.931 22.223 44.7612 19.9773 50.824 20.0125H135.518V40.171ZM239.847 20.0055C252.572 20.0055 262.881 29.524 262.881 41.4537V99.3848C262.881 111.315 252.572 120.833 239.847 120.833H173.634C167.572 120.859 161.745 118.612 157.421 114.581C155.304 112.594 153.624 110.227 152.479 107.618C151.335 105.009 150.749 102.21 150.756 99.3848V41.4467C150.732 38.6188 151.311 35.8155 152.456 33.2044C153.601 30.5934 155.29 28.2283 157.421 26.2507C159.556 24.2466 162.087 22.663 164.87 21.5911C167.652 20.5193 170.631 19.9804 173.634 20.0055H239.847ZM241.206 40.171H172.267V100.661H241.214L241.206 40.171ZM301.189 99.9596H385.13V121.688H292.854C288.927 121.681 285.159 120.214 282.36 117.602C280.985 116.316 279.892 114.786 279.144 113.098C278.396 111.41 278.007 109.599 278 107.768V19.1504H301.189V99.9596ZM493.715 19.9985C504.016 19.9985 512.352 27.6666 512.352 37.3253V120.826H490.678V87.7425H421.738V120.826H400.219V37.3323C400.211 33.885 401.292 30.5145 403.323 27.6558C405.355 24.7972 408.243 22.5816 411.614 21.2952C413.868 20.4261 416.277 19.9915 418.709 20.0055L493.715 19.9985ZM490.678 40.164H421.738V67.57H490.678V40.164ZM617.929 19.9985H639.603V107.754C639.603 115.001 633.233 120.819 625.504 120.819H608.84C606.287 120.899 603.763 120.287 601.563 119.056C599.363 117.824 597.578 116.024 596.418 113.866L554.599 40.164H548.99V120.826H527.471V33.2109C527.471 25.8302 533.686 20.0055 541.416 20.0055H558.996C564.147 20.0055 568.994 22.5639 571.418 26.9657L613.229 100.661H617.929V20.0125V19.9985ZM748.211 19.9985C758.52 19.9985 766.848 27.6666 766.848 37.3253V120.826H745.181V87.7425H676.242V120.826H654.723V37.3323C654.714 33.885 655.796 30.5145 657.827 27.6558C659.858 24.7972 662.746 22.5816 666.118 21.2952C668.372 20.4261 670.781 19.9915 673.212 20.0055L748.211 19.9985ZM745.181 40.164H676.242V67.57H745.181V40.164Z"/>
</mask>
<path d="M135.518 40.171H49.4642V60.3365H112.647C118.699 60.3388 124.509 62.591 128.83 66.6098C130.953 68.589 132.639 70.9498 133.788 73.5542C134.938 76.1586 135.529 78.9543 135.525 81.7777V99.3918C135.544 102.218 134.963 105.019 133.818 107.628C132.673 110.237 130.987 112.602 128.86 114.581C126.723 116.582 124.191 118.163 121.409 119.235C118.627 120.307 115.649 120.847 112.647 120.826H27.9379V100.661H114.006V80.509H50.824C44.7709 80.5048 38.9607 78.2501 34.6404 74.2288C32.5228 72.2454 30.8402 69.884 29.6898 67.2806C28.5394 64.6773 27.944 61.8836 27.9379 59.0608V41.4467C27.9207 38.62 28.5025 35.8189 29.6488 33.2097C30.7951 30.6005 32.4825 28.2364 34.6108 26.2577C38.931 22.223 44.7612 19.9773 50.824 20.0125H135.518V40.171ZM239.847 20.0055C252.572 20.0055 262.881 29.524 262.881 41.4537V99.3848C262.881 111.315 252.572 120.833 239.847 120.833H173.634C167.572 120.859 161.745 118.612 157.421 114.581C155.304 112.594 153.624 110.227 152.479 107.618C151.335 105.009 150.749 102.21 150.756 99.3848V41.4467C150.732 38.6188 151.311 35.8155 152.456 33.2044C153.601 30.5934 155.29 28.2283 157.421 26.2507C159.556 24.2466 162.087 22.663 164.87 21.5911C167.652 20.5193 170.631 19.9804 173.634 20.0055H239.847ZM241.206 40.171H172.267V100.661H241.214L241.206 40.171ZM301.189 99.9596H385.13V121.688H292.854C288.927 121.681 285.159 120.214 282.36 117.602C280.985 116.316 279.892 114.786 279.144 113.098C278.396 111.41 278.007 109.599 278 107.768V19.1504H301.189V99.9596ZM493.715 19.9985C504.016 19.9985 512.352 27.6666 512.352 37.3253V120.826H490.678V87.7425H421.738V120.826H400.219V37.3323C400.211 33.885 401.292 30.5145 403.323 27.6558C405.355 24.7972 408.243 22.5816 411.614 21.2952C413.868 20.4261 416.277 19.9915 418.709 20.0055L493.715 19.9985ZM490.678 40.164H421.738V67.57H490.678V40.164ZM617.929 19.9985H639.603V107.754C639.603 115.001 633.233 120.819 625.504 120.819H608.84C606.287 120.899 603.763 120.287 601.563 119.056C599.363 117.824 597.578 116.024 596.418 113.866L554.599 40.164H548.99V120.826H527.471V33.2109C527.471 25.8302 533.686 20.0055 541.416 20.0055H558.996C564.147 20.0055 568.994 22.5639 571.418 26.9657L613.229 100.661H617.929V20.0125V19.9985ZM748.211 19.9985C758.52 19.9985 766.848 27.6666 766.848 37.3253V120.826H745.181V87.7425H676.242V120.826H654.723V37.3323C654.714 33.885 655.796 30.5145 657.827 27.6558C659.858 24.7972 662.746 22.5816 666.118 21.2952C668.372 20.4261 670.781 19.9915 673.212 20.0055L748.211 19.9985ZM745.181 40.164H676.242V67.57H745.181V40.164Z" stroke="url(#paint5_linear_5004_3898)" style="" stroke-width="0.797959" shape-rendering="crispEdges" mask="url(#path-6-inside-6_5004_3898)"/>
</g>
<g opacity="0.7" filter="url(#filter6_di_5004_3898)">
<mask id="path-7-inside-7_5004_3898" fill="white">
<path d="M140.307 35.3839H54.2533V55.5494H117.436C123.488 55.5517 129.298 57.8039 133.619 61.8227C135.742 63.8019 137.428 66.1627 138.577 68.7671C139.727 71.3715 140.318 74.1671 140.315 76.9906V94.6047C140.333 97.4309 139.752 100.232 138.607 102.841C137.462 105.45 135.776 107.814 133.649 109.794C131.512 111.795 128.98 113.376 126.198 114.448C123.416 115.52 120.438 116.06 117.436 116.039H32.7269V95.8734H118.796V75.7219H55.613C49.5599 75.7177 43.7498 73.463 39.4295 69.4417C37.3118 67.4583 35.6293 65.0968 34.4789 62.4935C33.3285 59.8902 32.7331 57.0965 32.7269 54.2737V36.6596C32.7097 33.8329 33.2915 31.0318 34.4379 28.4226C35.5842 25.8134 37.2716 23.4493 39.3999 21.4706C43.72 17.4359 49.5503 15.1901 55.613 15.2254H140.307V35.3839ZM244.636 15.2184C257.361 15.2184 267.67 24.7369 267.67 36.6666V94.5977C267.67 106.527 257.361 116.046 244.636 116.046H178.424C172.361 116.072 166.534 113.824 162.21 109.794C160.093 107.806 158.413 105.44 157.268 102.831C156.124 100.222 155.538 97.4233 155.545 94.5977V36.6596C155.521 33.8317 156.1 31.0284 157.245 28.4173C158.39 25.8063 160.079 23.4412 162.21 21.4636C164.345 19.4595 166.876 17.8759 169.659 16.804C172.442 15.7322 175.42 15.1933 178.424 15.2184H244.636ZM245.995 35.3839H177.056V95.8734H246.003L245.995 35.3839ZM305.978 95.1725H389.919V116.901H297.643C293.716 116.894 289.948 115.427 287.149 112.815C285.774 111.529 284.681 109.999 283.933 108.311C283.185 106.623 282.796 104.812 282.789 102.981V14.3633H305.978V95.1725ZM498.504 15.2114C508.805 15.2114 517.141 22.8795 517.141 32.5382V116.039H495.467V82.9554H426.527V116.039H405.008V32.5452C405 29.0979 406.081 25.7274 408.112 22.8687C410.144 20.0101 413.032 17.7945 416.404 16.5081C418.657 15.639 421.066 15.2044 423.498 15.2184L498.504 15.2114ZM495.467 35.3769H426.527V62.7829H495.467V35.3769ZM622.718 15.2114H644.393V102.967C644.393 110.214 638.023 116.032 630.293 116.032H613.629C611.076 116.111 608.552 115.5 606.352 114.268C604.152 113.037 602.367 111.237 601.207 109.079L559.388 35.3769H553.779V116.039H532.26V28.4238C532.26 21.0431 538.475 15.2184 546.205 15.2184H563.785C568.936 15.2184 573.783 17.7768 576.207 22.1786L618.018 95.8734H622.718V15.2254V15.2114ZM753 15.2114C763.309 15.2114 771.637 22.8795 771.637 32.5382V116.039H749.97V82.9554H681.031V116.039H659.512V32.5452C659.504 29.0979 660.585 25.7274 662.616 22.8687C664.647 20.0101 667.535 17.7945 670.907 16.5081C673.161 15.639 675.57 15.2044 678.001 15.2184L753 15.2114ZM749.97 35.3769H681.031V62.7829H749.97V35.3769Z"/>
</mask>
<path d="M140.307 35.3839H54.2533V55.5494H117.436C123.488 55.5517 129.298 57.8039 133.619 61.8227C135.742 63.8019 137.428 66.1627 138.577 68.7671C139.727 71.3715 140.318 74.1671 140.315 76.9906V94.6047C140.333 97.4309 139.752 100.232 138.607 102.841C137.462 105.45 135.776 107.814 133.649 109.794C131.512 111.795 128.98 113.376 126.198 114.448C123.416 115.52 120.438 116.06 117.436 116.039H32.7269V95.8734H118.796V75.7219H55.613C49.5599 75.7177 43.7498 73.463 39.4295 69.4417C37.3118 67.4583 35.6293 65.0968 34.4789 62.4935C33.3285 59.8902 32.7331 57.0965 32.7269 54.2737V36.6596C32.7097 33.8329 33.2915 31.0318 34.4379 28.4226C35.5842 25.8134 37.2716 23.4493 39.3999 21.4706C43.72 17.4359 49.5503 15.1901 55.613 15.2254H140.307V35.3839ZM244.636 15.2184C257.361 15.2184 267.67 24.7369 267.67 36.6666V94.5977C267.67 106.527 257.361 116.046 244.636 116.046H178.424C172.361 116.072 166.534 113.824 162.21 109.794C160.093 107.806 158.413 105.44 157.268 102.831C156.124 100.222 155.538 97.4233 155.545 94.5977V36.6596C155.521 33.8317 156.1 31.0284 157.245 28.4173C158.39 25.8063 160.079 23.4412 162.21 21.4636C164.345 19.4595 166.876 17.8759 169.659 16.804C172.442 15.7322 175.42 15.1933 178.424 15.2184H244.636ZM245.995 35.3839H177.056V95.8734H246.003L245.995 35.3839ZM305.978 95.1725H389.919V116.901H297.643C293.716 116.894 289.948 115.427 287.149 112.815C285.774 111.529 284.681 109.999 283.933 108.311C283.185 106.623 282.796 104.812 282.789 102.981V14.3633H305.978V95.1725ZM498.504 15.2114C508.805 15.2114 517.141 22.8795 517.141 32.5382V116.039H495.467V82.9554H426.527V116.039H405.008V32.5452C405 29.0979 406.081 25.7274 408.112 22.8687C410.144 20.0101 413.032 17.7945 416.404 16.5081C418.657 15.639 421.066 15.2044 423.498 15.2184L498.504 15.2114ZM495.467 35.3769H426.527V62.7829H495.467V35.3769ZM622.718 15.2114H644.393V102.967C644.393 110.214 638.023 116.032 630.293 116.032H613.629C611.076 116.111 608.552 115.5 606.352 114.268C604.152 113.037 602.367 111.237 601.207 109.079L559.388 35.3769H553.779V116.039H532.26V28.4238C532.26 21.0431 538.475 15.2184 546.205 15.2184H563.785C568.936 15.2184 573.783 17.7768 576.207 22.1786L618.018 95.8734H622.718V15.2254V15.2114ZM753 15.2114C763.309 15.2114 771.637 22.8795 771.637 32.5382V116.039H749.97V82.9554H681.031V116.039H659.512V32.5452C659.504 29.0979 660.585 25.7274 662.616 22.8687C664.647 20.0101 667.535 17.7945 670.907 16.5081C673.161 15.639 675.57 15.2044 678.001 15.2184L753 15.2114ZM749.97 35.3769H681.031V62.7829H749.97V35.3769Z" stroke="url(#paint6_linear_5004_3898)" style="" stroke-width="0.797959" shape-rendering="crispEdges" mask="url(#path-7-inside-7_5004_3898)"/>
</g>
<g opacity="0.8" filter="url(#filter7_di_5004_3898)">
<mask id="path-8-inside-8_5004_3898" fill="white">
<path d="M145.096 30.5958H59.0424V50.7613H122.225C128.277 50.7637 134.087 53.0158 138.408 57.0346C140.531 59.0138 142.217 61.3746 143.366 63.979C144.516 66.5834 145.107 69.3791 145.104 72.2025V89.8167C145.122 92.6428 144.541 95.4436 143.396 98.0528C142.251 100.662 140.565 103.026 138.438 105.006C136.301 107.007 133.769 108.588 130.987 109.66C128.205 110.731 125.228 111.272 122.225 111.251H37.516V91.0853H123.585V70.9338H60.4021C54.349 70.9296 48.5388 68.6749 44.2185 64.6536C42.1009 62.6702 40.4183 60.3088 39.2679 57.7054C38.1175 55.1021 37.5221 52.3084 37.516 49.4856V31.8715C37.4988 29.0448 38.0806 26.2437 39.2269 23.6345C40.3732 21.0253 42.0606 18.6612 44.189 16.6825C48.5091 12.6478 54.3394 10.4021 60.4021 10.4373H145.096V30.5958ZM249.425 10.4303C262.15 10.4303 272.459 19.9488 272.459 31.8785V89.8096C272.459 101.739 262.15 111.258 249.425 111.258H183.213C177.15 111.284 171.323 109.036 166.999 105.006C164.882 103.018 163.202 100.652 162.057 98.0427C160.913 95.4339 160.327 92.6352 160.334 89.8096V31.8715C160.31 29.0436 160.889 26.2403 162.034 23.6292C163.179 21.0182 164.868 18.6531 166.999 16.6755C169.134 14.6714 171.665 13.0878 174.448 12.016C177.231 10.9441 180.209 10.4052 183.213 10.4303H249.425ZM250.785 30.5958H181.845V91.0853H250.792L250.785 30.5958ZM310.767 90.3844H394.708V112.113H302.432C298.505 112.106 294.737 110.639 291.938 108.027C290.563 106.741 289.471 105.211 288.722 103.523C287.974 101.835 287.585 100.024 287.578 98.1926V9.5752H310.767V90.3844ZM503.293 10.4233C513.594 10.4233 521.93 18.0914 521.93 27.7501V111.251H500.256V78.1673H431.316V111.251H409.798V27.7571C409.789 24.3098 410.87 20.9393 412.901 18.0806C414.933 15.222 417.821 13.0064 421.193 11.72C423.446 10.8509 425.855 10.4163 428.287 10.4303L503.293 10.4233ZM500.256 30.5888H431.316V57.9948H500.256V30.5888ZM627.507 10.4233H649.182V98.1786C649.182 105.426 642.812 111.244 635.082 111.244H618.418C615.865 111.323 613.341 110.712 611.141 109.48C608.941 108.249 607.157 106.449 605.996 104.291L564.177 30.5888H558.568V111.251H537.049V23.6357C537.049 16.255 543.264 10.4303 550.994 10.4303H568.574C573.725 10.4303 578.572 12.9887 580.996 17.3905L622.807 91.0853H627.507V10.4373V10.4233ZM757.789 10.4233C768.098 10.4233 776.426 18.0914 776.426 27.7501V111.251H754.759V78.1673H685.82V111.251H664.301V27.7571C664.293 24.3098 665.374 20.9393 667.405 18.0806C669.436 15.222 672.324 13.0064 675.696 11.72C677.95 10.8509 680.359 10.4163 682.79 10.4303L757.789 10.4233ZM754.759 30.5888H685.82V57.9948H754.759V30.5888Z"/>
</mask>
<path d="M145.096 30.5958H59.0424V50.7613H122.225C128.277 50.7637 134.087 53.0158 138.408 57.0346C140.531 59.0138 142.217 61.3746 143.366 63.979C144.516 66.5834 145.107 69.3791 145.104 72.2025V89.8167C145.122 92.6428 144.541 95.4436 143.396 98.0528C142.251 100.662 140.565 103.026 138.438 105.006C136.301 107.007 133.769 108.588 130.987 109.66C128.205 110.731 125.228 111.272 122.225 111.251H37.516V91.0853H123.585V70.9338H60.4021C54.349 70.9296 48.5388 68.6749 44.2185 64.6536C42.1009 62.6702 40.4183 60.3088 39.2679 57.7054C38.1175 55.1021 37.5221 52.3084 37.516 49.4856V31.8715C37.4988 29.0448 38.0806 26.2437 39.2269 23.6345C40.3732 21.0253 42.0606 18.6612 44.189 16.6825C48.5091 12.6478 54.3394 10.4021 60.4021 10.4373H145.096V30.5958ZM249.425 10.4303C262.15 10.4303 272.459 19.9488 272.459 31.8785V89.8096C272.459 101.739 262.15 111.258 249.425 111.258H183.213C177.15 111.284 171.323 109.036 166.999 105.006C164.882 103.018 163.202 100.652 162.057 98.0427C160.913 95.4339 160.327 92.6352 160.334 89.8096V31.8715C160.31 29.0436 160.889 26.2403 162.034 23.6292C163.179 21.0182 164.868 18.6531 166.999 16.6755C169.134 14.6714 171.665 13.0878 174.448 12.016C177.231 10.9441 180.209 10.4052 183.213 10.4303H249.425ZM250.785 30.5958H181.845V91.0853H250.792L250.785 30.5958ZM310.767 90.3844H394.708V112.113H302.432C298.505 112.106 294.737 110.639 291.938 108.027C290.563 106.741 289.471 105.211 288.722 103.523C287.974 101.835 287.585 100.024 287.578 98.1926V9.5752H310.767V90.3844ZM503.293 10.4233C513.594 10.4233 521.93 18.0914 521.93 27.7501V111.251H500.256V78.1673H431.316V111.251H409.798V27.7571C409.789 24.3098 410.87 20.9393 412.901 18.0806C414.933 15.222 417.821 13.0064 421.193 11.72C423.446 10.8509 425.855 10.4163 428.287 10.4303L503.293 10.4233ZM500.256 30.5888H431.316V57.9948H500.256V30.5888ZM627.507 10.4233H649.182V98.1786C649.182 105.426 642.812 111.244 635.082 111.244H618.418C615.865 111.323 613.341 110.712 611.141 109.48C608.941 108.249 607.157 106.449 605.996 104.291L564.177 30.5888H558.568V111.251H537.049V23.6357C537.049 16.255 543.264 10.4303 550.994 10.4303H568.574C573.725 10.4303 578.572 12.9887 580.996 17.3905L622.807 91.0853H627.507V10.4373V10.4233ZM757.789 10.4233C768.098 10.4233 776.426 18.0914 776.426 27.7501V111.251H754.759V78.1673H685.82V111.251H664.301V27.7571C664.293 24.3098 665.374 20.9393 667.405 18.0806C669.436 15.222 672.324 13.0064 675.696 11.72C677.95 10.8509 680.359 10.4163 682.79 10.4303L757.789 10.4233ZM754.759 30.5888H685.82V57.9948H754.759V30.5888Z" stroke="url(#paint7_linear_5004_3898)" style="" stroke-width="0.797959" shape-rendering="crispEdges" mask="url(#path-8-inside-8_5004_3898)"/>
</g>
<g opacity="0.9" filter="url(#filter8_di_5004_3898)">
<mask id="path-9-inside-9_5004_3898" fill="white">
<path d="M149.881 25.8077H63.8275V45.9732H127.01C133.062 45.9756 138.872 48.2277 143.194 52.2465C145.316 54.2257 147.002 56.5865 148.152 59.1909C149.301 61.7953 149.892 64.591 149.889 67.4144V85.0286C149.907 87.8547 149.326 90.6555 148.181 93.2647C147.036 95.8739 145.35 98.2383 143.223 100.218C141.086 102.218 138.554 103.8 135.772 104.872C132.99 105.943 130.013 106.484 127.01 106.463H42.3012V86.2972H128.37V66.1457H65.1873C59.1342 66.1415 53.324 63.8868 49.0037 59.8655C46.886 57.8822 45.2035 55.5207 44.0531 52.9173C42.9027 50.314 42.3073 47.5203 42.3012 44.6976V27.0834C42.2839 24.2568 42.8658 21.4557 44.0121 18.8464C45.1584 16.2372 46.8458 13.8731 48.9741 11.8945C53.2943 7.85975 59.1245 5.61398 65.1873 5.64924H149.881V25.8077ZM254.21 5.64223C266.935 5.64223 277.244 15.1607 277.244 27.0904V85.0216C277.244 96.9512 266.935 106.47 254.21 106.47H187.998C181.936 106.495 176.108 104.248 171.785 100.218C169.667 98.2303 167.987 95.8634 166.843 93.2546C165.698 90.6458 165.112 87.8471 165.119 85.0216V27.0834C165.096 24.2555 165.674 21.4522 166.819 18.8412C167.965 16.2301 169.653 13.8651 171.785 11.8874C173.919 9.88334 176.45 8.29972 179.233 7.22787C182.016 6.15601 184.995 5.61711 187.998 5.64223H254.21ZM255.57 25.8077H186.631V86.2972H255.577L255.57 25.8077ZM315.552 85.5963H399.493V107.325H307.217C303.29 107.318 299.522 105.851 296.723 103.238C295.349 101.953 294.256 100.423 293.507 98.7348C292.759 97.047 292.37 95.2355 292.363 93.4046V4.78711H315.552V85.5963ZM508.078 5.63522C518.379 5.63522 526.715 13.3033 526.715 22.962V106.463H505.041V73.3792H436.102V106.463H414.583V22.969C414.574 19.5217 415.655 16.1512 417.687 13.2925C419.718 10.4339 422.606 8.21834 425.978 6.93193C428.232 6.06279 430.641 5.62821 433.072 5.64223L508.078 5.63522ZM505.041 25.8007H436.102V53.2067H505.041V25.8007ZM632.293 5.63522H653.967V93.3905C653.967 100.638 647.597 106.456 639.867 106.456H623.203C620.65 106.535 618.126 105.924 615.926 104.692C613.726 103.461 611.942 101.661 610.781 99.5026L568.962 25.8007H563.353V106.463H541.834V18.8476C541.834 11.4669 548.049 5.64223 555.779 5.64223H573.359C578.51 5.64223 583.358 8.20059 585.781 12.6024L627.593 86.2972H632.293V5.64924V5.63522ZM762.574 5.63522C772.883 5.63522 781.211 13.3033 781.211 22.962V106.463H759.544V73.3792H690.605V106.463H669.086V22.969C669.078 19.5217 670.159 16.1512 672.19 13.2925C674.221 10.4339 677.109 8.21834 680.481 6.93193C682.735 6.06279 685.144 5.62821 687.575 5.64223L762.574 5.63522ZM759.544 25.8007H690.605V53.2067H759.544V25.8007Z"/>
</mask>
<path d="M149.881 25.8077H63.8275V45.9732H127.01C133.062 45.9756 138.872 48.2277 143.194 52.2465C145.316 54.2257 147.002 56.5865 148.152 59.1909C149.301 61.7953 149.892 64.591 149.889 67.4144V85.0286C149.907 87.8547 149.326 90.6555 148.181 93.2647C147.036 95.8739 145.35 98.2383 143.223 100.218C141.086 102.218 138.554 103.8 135.772 104.872C132.99 105.943 130.013 106.484 127.01 106.463H42.3012V86.2972H128.37V66.1457H65.1873C59.1342 66.1415 53.324 63.8868 49.0037 59.8655C46.886 57.8822 45.2035 55.5207 44.0531 52.9173C42.9027 50.314 42.3073 47.5203 42.3012 44.6976V27.0834C42.2839 24.2568 42.8658 21.4557 44.0121 18.8464C45.1584 16.2372 46.8458 13.8731 48.9741 11.8945C53.2943 7.85975 59.1245 5.61398 65.1873 5.64924H149.881V25.8077ZM254.21 5.64223C266.935 5.64223 277.244 15.1607 277.244 27.0904V85.0216C277.244 96.9512 266.935 106.47 254.21 106.47H187.998C181.936 106.495 176.108 104.248 171.785 100.218C169.667 98.2303 167.987 95.8634 166.843 93.2546C165.698 90.6458 165.112 87.8471 165.119 85.0216V27.0834C165.096 24.2555 165.674 21.4522 166.819 18.8412C167.965 16.2301 169.653 13.8651 171.785 11.8874C173.919 9.88334 176.45 8.29972 179.233 7.22787C182.016 6.15601 184.995 5.61711 187.998 5.64223H254.21ZM255.57 25.8077H186.631V86.2972H255.577L255.57 25.8077ZM315.552 85.5963H399.493V107.325H307.217C303.29 107.318 299.522 105.851 296.723 103.238C295.349 101.953 294.256 100.423 293.507 98.7348C292.759 97.047 292.37 95.2355 292.363 93.4046V4.78711H315.552V85.5963ZM508.078 5.63522C518.379 5.63522 526.715 13.3033 526.715 22.962V106.463H505.041V73.3792H436.102V106.463H414.583V22.969C414.574 19.5217 415.655 16.1512 417.687 13.2925C419.718 10.4339 422.606 8.21834 425.978 6.93193C428.232 6.06279 430.641 5.62821 433.072 5.64223L508.078 5.63522ZM505.041 25.8007H436.102V53.2067H505.041V25.8007ZM632.293 5.63522H653.967V93.3905C653.967 100.638 647.597 106.456 639.867 106.456H623.203C620.65 106.535 618.126 105.924 615.926 104.692C613.726 103.461 611.942 101.661 610.781 99.5026L568.962 25.8007H563.353V106.463H541.834V18.8476C541.834 11.4669 548.049 5.64223 555.779 5.64223H573.359C578.51 5.64223 583.358 8.20059 585.781 12.6024L627.593 86.2972H632.293V5.64924V5.63522ZM762.574 5.63522C772.883 5.63522 781.211 13.3033 781.211 22.962V106.463H759.544V73.3792H690.605V106.463H669.086V22.969C669.078 19.5217 670.159 16.1512 672.19 13.2925C674.221 10.4339 677.109 8.21834 680.481 6.93193C682.735 6.06279 685.144 5.62821 687.575 5.64223L762.574 5.63522ZM759.544 25.8007H690.605V53.2067H759.544V25.8007Z" stroke="url(#paint8_linear_5004_3898)" style="" stroke-width="0.797959" shape-rendering="crispEdges" mask="url(#path-9-inside-9_5004_3898)"/>
</g>
<g filter="url(#filter9_di_5004_3898)">
<mask id="path-10-inside-10_5004_3898" fill="white">
<path d="M154.67 21.0206H68.6166V41.1861H131.799C137.851 41.1885 143.661 43.4406 147.983 47.4594C150.106 49.4386 151.791 51.7994 152.941 54.4038C154.09 57.0082 154.681 59.8039 154.678 62.6273V80.2415C154.696 83.0676 154.115 85.8684 152.97 88.4776C151.825 91.0868 150.139 93.4512 148.012 95.4304C145.875 97.4314 143.343 99.013 140.561 100.085C137.779 101.156 134.802 101.697 131.799 101.676H47.0902V81.5101H133.159V61.3586H69.9763C63.9232 61.3544 58.1131 59.0997 53.7927 55.0784C51.6751 53.0951 49.9925 50.7336 48.8421 48.1302C47.6918 45.5269 47.0963 42.7332 47.0902 39.9105V22.2963C47.073 19.4697 47.6548 16.6685 48.8011 14.0593C49.9474 11.4501 51.6349 9.08598 53.7632 7.10734C58.0833 3.07264 63.9136 0.826867 69.9763 0.862133H154.67V21.0206ZM258.999 0.855124C271.724 0.855124 282.033 10.3736 282.033 22.3033V80.2344C282.033 92.1641 271.724 101.683 258.999 101.683H192.787C186.725 101.708 180.897 99.4612 176.574 95.4304C174.456 93.4432 172.776 91.0763 171.632 88.4675C170.487 85.8587 169.901 83.06 169.908 80.2344V22.2963C169.885 19.4684 170.463 16.6651 171.608 14.054C172.754 11.443 174.442 9.07795 176.574 7.10033C178.708 5.09623 181.24 3.51261 184.022 2.44076C186.805 1.3689 189.784 0.830005 192.787 0.855124H258.999ZM260.359 21.0206H191.42V81.5101H260.366L260.359 21.0206ZM320.342 80.8092H404.282V102.538H312.006C308.079 102.531 304.312 101.064 301.512 98.4514C300.138 97.166 299.045 95.6354 298.296 93.9476C297.548 92.2599 297.159 90.4484 297.152 88.6175V0H320.342V80.8092ZM512.867 0.848115C523.168 0.848115 531.504 8.51619 531.504 18.1749V101.676H509.83V68.5921H440.891V101.676H419.372V18.1819C419.363 14.7346 420.444 11.3641 422.476 8.50544C424.507 5.64678 427.395 3.43123 430.767 2.14482C433.021 1.27568 435.43 0.841105 437.861 0.855124L512.867 0.848115ZM509.83 21.0136H440.891V48.4196H509.83V21.0136ZM637.082 0.848115H658.756V88.6034C658.756 95.851 652.386 101.669 644.656 101.669H627.992C625.439 101.748 622.915 101.136 620.715 99.9051C618.515 98.6738 616.731 96.8737 615.57 94.7155L573.751 21.0136H568.142V101.676H546.624V14.0605C546.624 6.67978 552.838 0.855124 560.568 0.855124H578.148C583.299 0.855124 588.147 3.41349 590.57 7.81527L632.382 81.5101H637.082V0.862133V0.848115ZM767.363 0.848115C777.672 0.848115 786 8.51619 786 18.1749V101.676H764.333V68.5921H695.394V101.676H673.875V18.1819C673.867 14.7346 674.948 11.3641 676.979 8.50544C679.01 5.64678 681.898 3.43123 685.27 2.14482C687.524 1.27568 689.933 0.841105 692.364 0.855124L767.363 0.848115ZM764.333 21.0136H695.394V48.4196H764.333V21.0136Z"/>
</mask>
<path d="M154.67 21.0206H68.6166V41.1861H131.799C137.851 41.1885 143.661 43.4406 147.983 47.4594C150.106 49.4386 151.791 51.7994 152.941 54.4038C154.09 57.0082 154.681 59.8039 154.678 62.6273V80.2415C154.696 83.0676 154.115 85.8684 152.97 88.4776C151.825 91.0868 150.139 93.4512 148.012 95.4304C145.875 97.4314 143.343 99.013 140.561 100.085C137.779 101.156 134.802 101.697 131.799 101.676H47.0902V81.5101H133.159V61.3586H69.9763C63.9232 61.3544 58.1131 59.0997 53.7927 55.0784C51.6751 53.0951 49.9925 50.7336 48.8421 48.1302C47.6918 45.5269 47.0963 42.7332 47.0902 39.9105V22.2963C47.073 19.4697 47.6548 16.6685 48.8011 14.0593C49.9474 11.4501 51.6349 9.08598 53.7632 7.10734C58.0833 3.07264 63.9136 0.826867 69.9763 0.862133H154.67V21.0206ZM258.999 0.855124C271.724 0.855124 282.033 10.3736 282.033 22.3033V80.2344C282.033 92.1641 271.724 101.683 258.999 101.683H192.787C186.725 101.708 180.897 99.4612 176.574 95.4304C174.456 93.4432 172.776 91.0763 171.632 88.4675C170.487 85.8587 169.901 83.06 169.908 80.2344V22.2963C169.885 19.4684 170.463 16.6651 171.608 14.054C172.754 11.443 174.442 9.07795 176.574 7.10033C178.708 5.09623 181.24 3.51261 184.022 2.44076C186.805 1.3689 189.784 0.830005 192.787 0.855124H258.999ZM260.359 21.0206H191.42V81.5101H260.366L260.359 21.0206ZM320.342 80.8092H404.282V102.538H312.006C308.079 102.531 304.312 101.064 301.512 98.4514C300.138 97.166 299.045 95.6354 298.296 93.9476C297.548 92.2599 297.159 90.4484 297.152 88.6175V0H320.342V80.8092ZM512.867 0.848115C523.168 0.848115 531.504 8.51619 531.504 18.1749V101.676H509.83V68.5921H440.891V101.676H419.372V18.1819C419.363 14.7346 420.444 11.3641 422.476 8.50544C424.507 5.64678 427.395 3.43123 430.767 2.14482C433.021 1.27568 435.43 0.841105 437.861 0.855124L512.867 0.848115ZM509.83 21.0136H440.891V48.4196H509.83V21.0136ZM637.082 0.848115H658.756V88.6034C658.756 95.851 652.386 101.669 644.656 101.669H627.992C625.439 101.748 622.915 101.136 620.715 99.9051C618.515 98.6738 616.731 96.8737 615.57 94.7155L573.751 21.0136H568.142V101.676H546.624V14.0605C546.624 6.67978 552.838 0.855124 560.568 0.855124H578.148C583.299 0.855124 588.147 3.41349 590.57 7.81527L632.382 81.5101H637.082V0.862133V0.848115ZM767.363 0.848115C777.672 0.848115 786 8.51619 786 18.1749V101.676H764.333V68.5921H695.394V101.676H673.875V18.1819C673.867 14.7346 674.948 11.3641 676.979 8.50544C679.01 5.64678 681.898 3.43123 685.27 2.14482C687.524 1.27568 689.933 0.841105 692.364 0.855124L767.363 0.848115ZM764.333 21.0136H695.394V48.4196H764.333V21.0136Z" stroke="url(#paint9_linear_5004_3898)" style="" stroke-width="0.797959" shape-rendering="crispEdges" mask="url(#path-10-inside-10_5004_3898)"/>
</g>
<defs>
<filter id="filter0_di_5004_3898" x="2.89331" y="43.0898" width="741.124" height="104.751" filterUnits="userSpaceOnUse" color-interpolation-filters="sRGB">
<feFlood flood-opacity="0" result="BackgroundImageFix"/>
<feColorMatrix in="SourceAlpha" type="matrix" values="0 0 0 0 0 0 0 0 0 0 0 0 0 0 0 0 0 0 127 0" result="hardAlpha"/>
<feOffset dy="1.10669"/>
<feGaussianBlur stdDeviation="0.553347"/>
<feComposite in2="hardAlpha" operator="out"/>
<feColorMatrix type="matrix" values="0 0 0 0 0 0 0 0 0 0 0 0 0 0 0 0 0 0 0.37 0"/>
<feBlend mode="normal" in2="BackgroundImageFix" result="effect1_dropShadow_5004_3898"/>
<feBlend mode="normal" in="SourceGraphic" in2="effect1_dropShadow_5004_3898" result="shape"/>
<feColorMatrix in="SourceAlpha" type="matrix" values="0 0 0 0 0 0 0 0 0 0 0 0 0 0 0 0 0 0 127 0" result="hardAlpha"/>
<feOffset dx="-0.553347" dy="1.10669"/>
<feGaussianBlur stdDeviation="0.276673"/>
<feComposite in2="hardAlpha" operator="arithmetic" k2="-1" k3="1"/>
<feColorMatrix type="matrix" values="0 0 0 0 0.139548 0 0 0 0 0.139548 0 0 0 0 0.184085 0 0 0 1 0"/>
<feBlend mode="normal" in2="shape" result="effect2_innerShadow_5004_3898"/>
</filter>
<filter id="filter1_di_5004_3898" x="7.68237" y="38.3018" width="741.124" height="104.751" filterUnits="userSpaceOnUse" color-interpolation-filters="sRGB">
<feFlood flood-opacity="0" result="BackgroundImageFix"/>
<feColorMatrix in="SourceAlpha" type="matrix" values="0 0 0 0 0 0 0 0 0 0 0 0 0 0 0 0 0 0 127 0" result="hardAlpha"/>
<feOffset dy="1.10669"/>
<feGaussianBlur stdDeviation="0.553347"/>
<feComposite in2="hardAlpha" operator="out"/>
<feColorMatrix type="matrix" values="0 0 0 0 0 0 0 0 0 0 0 0 0 0 0 0 0 0 0.37 0"/>
<feBlend mode="normal" in2="BackgroundImageFix" result="effect1_dropShadow_5004_3898"/>
<feBlend mode="normal" in="SourceGraphic" in2="effect1_dropShadow_5004_3898" result="shape"/>
<feColorMatrix in="SourceAlpha" type="matrix" values="0 0 0 0 0 0 0 0 0 0 0 0 0 0 0 0 0 0 127 0" result="hardAlpha"/>
<feOffset dx="-0.553347" dy="1.10669"/>
<feGaussianBlur stdDeviation="0.276673"/>
<feComposite in2="hardAlpha" operator="arithmetic" k2="-1" k3="1"/>
<feColorMatrix type="matrix" values="0 0 0 0 0.139548 0 0 0 0 0.139548 0 0 0 0 0.184085 0 0 0 1 0"/>
<feBlend mode="normal" in2="shape" result="effect2_innerShadow_5004_3898"/>
</filter>
<filter id="filter2_di_5004_3898" x="12.4675" y="33.5137" width="741.124" height="104.751" filterUnits="userSpaceOnUse" color-interpolation-filters="sRGB">
<feFlood flood-opacity="0" result="BackgroundImageFix"/>
<feColorMatrix in="SourceAlpha" type="matrix" values="0 0 0 0 0 0 0 0 0 0 0 0 0 0 0 0 0 0 127 0" result="hardAlpha"/>
<feOffset dy="1.10669"/>
<feGaussianBlur stdDeviation="0.553347"/>
<feComposite in2="hardAlpha" operator="out"/>
<feColorMatrix type="matrix" values="0 0 0 0 0 0 0 0 0 0 0 0 0 0 0 0 0 0 0.37 0"/>
<feBlend mode="normal" in2="BackgroundImageFix" result="effect1_dropShadow_5004_3898"/>
<feBlend mode="normal" in="SourceGraphic" in2="effect1_dropShadow_5004_3898" result="shape"/>
<feColorMatrix in="SourceAlpha" type="matrix" values="0 0 0 0 0 0 0 0 0 0 0 0 0 0 0 0 0 0 127 0" result="hardAlpha"/>
<feOffset dx="-0.553347" dy="1.10669"/>
<feGaussianBlur stdDeviation="0.276673"/>
<feComposite in2="hardAlpha" operator="arithmetic" k2="-1" k3="1"/>
<feColorMatrix type="matrix" values="0 0 0 0 0.139548 0 0 0 0 0.139548 0 0 0 0 0.184085 0 0 0 1 0"/>
<feBlend mode="normal" in2="shape" result="effect2_innerShadow_5004_3898"/>
</filter>
<filter id="filter3_di_5004_3898" x="17.2566" y="28.7266" width="741.124" height="104.751" filterUnits="userSpaceOnUse" color-interpolation-filters="sRGB">
<feFlood flood-opacity="0" result="BackgroundImageFix"/>
<feColorMatrix in="SourceAlpha" type="matrix" values="0 0 0 0 0 0 0 0 0 0 0 0 0 0 0 0 0 0 127 0" result="hardAlpha"/>
<feOffset dy="1.10669"/>
<feGaussianBlur stdDeviation="0.553347"/>
<feComposite in2="hardAlpha" operator="out"/>
<feColorMatrix type="matrix" values="0 0 0 0 0 0 0 0 0 0 0 0 0 0 0 0 0 0 0.37 0"/>
<feBlend mode="normal" in2="BackgroundImageFix" result="effect1_dropShadow_5004_3898"/>
<feBlend mode="normal" in="SourceGraphic" in2="effect1_dropShadow_5004_3898" result="shape"/>
<feColorMatrix in="SourceAlpha" type="matrix" values="0 0 0 0 0 0 0 0 0 0 0 0 0 0 0 0 0 0 127 0" result="hardAlpha"/>
<feOffset dx="-0.553347" dy="1.10669"/>
<feGaussianBlur stdDeviation="0.276673"/>
<feComposite in2="hardAlpha" operator="arithmetic" k2="-1" k3="1"/>
<feColorMatrix type="matrix" values="0 0 0 0 0.139548 0 0 0 0 0.139548 0 0 0 0 0.184085 0 0 0 1 0"/>
<feBlend mode="normal" in2="shape" result="effect2_innerShadow_5004_3898"/>
</filter>
<filter id="filter4_di_5004_3898" x="22.0457" y="23.9385" width="741.124" height="104.751" filterUnits="userSpaceOnUse" color-interpolation-filters="sRGB">
<feFlood flood-opacity="0" result="BackgroundImageFix"/>
<feColorMatrix in="SourceAlpha" type="matrix" values="0 0 0 0 0 0 0 0 0 0 0 0 0 0 0 0 0 0 127 0" result="hardAlpha"/>
<feOffset dy="1.10669"/>
<feGaussianBlur stdDeviation="0.553347"/>
<feComposite in2="hardAlpha" operator="out"/>
<feColorMatrix type="matrix" values="0 0 0 0 0 0 0 0 0 0 0 0 0 0 0 0 0 0 0.37 0"/>
<feBlend mode="normal" in2="BackgroundImageFix" result="effect1_dropShadow_5004_3898"/>
<feBlend mode="normal" in="SourceGraphic" in2="effect1_dropShadow_5004_3898" result="shape"/>
<feColorMatrix in="SourceAlpha" type="matrix" values="0 0 0 0 0 0 0 0 0 0 0 0 0 0 0 0 0 0 127 0" result="hardAlpha"/>
<feOffset dx="-0.553347" dy="1.10669"/>
<feGaussianBlur stdDeviation="0.276673"/>
<feComposite in2="hardAlpha" operator="arithmetic" k2="-1" k3="1"/>
<feColorMatrix type="matrix" values="0 0 0 0 0.139548 0 0 0 0 0.139548 0 0 0 0 0.184085 0 0 0 1 0"/>
<feBlend mode="normal" in2="shape" result="effect2_innerShadow_5004_3898"/>
</filter>
<filter id="filter5_di_5004_3898" x="26.8308" y="19.1504" width="741.124" height="104.751" filterUnits="userSpaceOnUse" color-interpolation-filters="sRGB">
<feFlood flood-opacity="0" result="BackgroundImageFix"/>
<feColorMatrix in="SourceAlpha" type="matrix" values="0 0 0 0 0 0 0 0 0 0 0 0 0 0 0 0 0 0 127 0" result="hardAlpha"/>
<feOffset dy="1.10669"/>
<feGaussianBlur stdDeviation="0.553347"/>
<feComposite in2="hardAlpha" operator="out"/>
<feColorMatrix type="matrix" values="0 0 0 0 0 0 0 0 0 0 0 0 0 0 0 0 0 0 0.37 0"/>
<feBlend mode="normal" in2="BackgroundImageFix" result="effect1_dropShadow_5004_3898"/>
<feBlend mode="normal" in="SourceGraphic" in2="effect1_dropShadow_5004_3898" result="shape"/>
<feColorMatrix in="SourceAlpha" type="matrix" values="0 0 0 0 0 0 0 0 0 0 0 0 0 0 0 0 0 0 127 0" result="hardAlpha"/>
<feOffset dx="-0.553347" dy="1.10669"/>
<feGaussianBlur stdDeviation="0.276673"/>
<feComposite in2="hardAlpha" operator="arithmetic" k2="-1" k3="1"/>
<feColorMatrix type="matrix" values="0 0 0 0 0.139548 0 0 0 0 0.139548 0 0 0 0 0.184085 0 0 0 1 0"/>
<feBlend mode="normal" in2="shape" result="effect2_innerShadow_5004_3898"/>
</filter>
<filter id="filter6_di_5004_3898" x="31.6199" y="14.3633" width="741.124" height="104.751" filterUnits="userSpaceOnUse" color-interpolation-filters="sRGB">
<feFlood flood-opacity="0" result="BackgroundImageFix"/>
<feColorMatrix in="SourceAlpha" type="matrix" values="0 0 0 0 0 0 0 0 0 0 0 0 0 0 0 0 0 0 127 0" result="hardAlpha"/>
<feOffset dy="1.10669"/>
<feGaussianBlur stdDeviation="0.553347"/>
<feComposite in2="hardAlpha" operator="out"/>
<feColorMatrix type="matrix" values="0 0 0 0 0 0 0 0 0 0 0 0 0 0 0 0 0 0 0.37 0"/>
<feBlend mode="normal" in2="BackgroundImageFix" result="effect1_dropShadow_5004_3898"/>
<feBlend mode="normal" in="SourceGraphic" in2="effect1_dropShadow_5004_3898" result="shape"/>
<feColorMatrix in="SourceAlpha" type="matrix" values="0 0 0 0 0 0 0 0 0 0 0 0 0 0 0 0 0 0 127 0" result="hardAlpha"/>
<feOffset dx="-0.553347" dy="1.10669"/>
<feGaussianBlur stdDeviation="0.276673"/>
<feComposite in2="hardAlpha" operator="arithmetic" k2="-1" k3="1"/>
<feColorMatrix type="matrix" values="0 0 0 0 0.139548 0 0 0 0 0.139548 0 0 0 0 0.184085 0 0 0 1 0"/>
<feBlend mode="normal" in2="shape" result="effect2_innerShadow_5004_3898"/>
</filter>
<filter id="filter7_di_5004_3898" x="36.4089" y="9.5752" width="741.124" height="104.751" filterUnits="userSpaceOnUse" color-interpolation-filters="sRGB">
<feFlood flood-opacity="0" result="BackgroundImageFix"/>
<feColorMatrix in="SourceAlpha" type="matrix" values="0 0 0 0 0 0 0 0 0 0 0 0 0 0 0 0 0 0 127 0" result="hardAlpha"/>
<feOffset dy="1.10669"/>
<feGaussianBlur stdDeviation="0.553347"/>
<feComposite in2="hardAlpha" operator="out"/>
<feColorMatrix type="matrix" values="0 0 0 0 0 0 0 0 0 0 0 0 0 0 0 0 0 0 0.37 0"/>
<feBlend mode="normal" in2="BackgroundImageFix" result="effect1_dropShadow_5004_3898"/>
<feBlend mode="normal" in="SourceGraphic" in2="effect1_dropShadow_5004_3898" result="shape"/>
<feColorMatrix in="SourceAlpha" type="matrix" values="0 0 0 0 0 0 0 0 0 0 0 0 0 0 0 0 0 0 127 0" result="hardAlpha"/>
<feOffset dx="-0.553347" dy="1.10669"/>
<feGaussianBlur stdDeviation="0.276673"/>
<feComposite in2="hardAlpha" operator="arithmetic" k2="-1" k3="1"/>
<feColorMatrix type="matrix" values="0 0 0 0 0.139548 0 0 0 0 0.139548 0 0 0 0 0.184085 0 0 0 1 0"/>
<feBlend mode="normal" in2="shape" result="effect2_innerShadow_5004_3898"/>
</filter>
<filter id="filter8_di_5004_3898" x="41.1941" y="4.78711" width="741.124" height="104.751" filterUnits="userSpaceOnUse" color-interpolation-filters="sRGB">
<feFlood flood-opacity="0" result="BackgroundImageFix"/>
<feColorMatrix in="SourceAlpha" type="matrix" values="0 0 0 0 0 0 0 0 0 0 0 0 0 0 0 0 0 0 127 0" result="hardAlpha"/>
<feOffset dy="1.10669"/>
<feGaussianBlur stdDeviation="0.553347"/>
<feComposite in2="hardAlpha" operator="out"/>
<feColorMatrix type="matrix" values="0 0 0 0 0 0 0 0 0 0 0 0 0 0 0 0 0 0 0.37 0"/>
<feBlend mode="normal" in2="BackgroundImageFix" result="effect1_dropShadow_5004_3898"/>
<feBlend mode="normal" in="SourceGraphic" in2="effect1_dropShadow_5004_3898" result="shape"/>
<feColorMatrix in="SourceAlpha" type="matrix" values="0 0 0 0 0 0 0 0 0 0 0 0 0 0 0 0 0 0 127 0" result="hardAlpha"/>
<feOffset dx="-0.553347" dy="1.10669"/>
<feGaussianBlur stdDeviation="0.276673"/>
<feComposite in2="hardAlpha" operator="arithmetic" k2="-1" k3="1"/>
<feColorMatrix type="matrix" values="0 0 0 0 0.139548 0 0 0 0 0.139548 0 0 0 0 0.184085 0 0 0 1 0"/>
<feBlend mode="normal" in2="shape" result="effect2_innerShadow_5004_3898"/>
</filter>
<filter id="filter9_di_5004_3898" x="45.9832" y="0" width="741.124" height="104.751" filterUnits="userSpaceOnUse" color-interpolation-filters="sRGB">
<feFlood flood-opacity="0" result="BackgroundImageFix"/>
<feColorMatrix in="SourceAlpha" type="matrix" values="0 0 0 0 0 0 0 0 0 0 0 0 0 0 0 0 0 0 127 0" result="hardAlpha"/>
<feOffset dy="1.10669"/>
<feGaussianBlur stdDeviation="0.553347"/>
<feComposite in2="hardAlpha" operator="out"/>
<feColorMatrix type="matrix" values="0 0 0 0 0 0 0 0 0 0 0 0 0 0 0 0 0 0 0.37 0"/>
<feBlend mode="normal" in2="BackgroundImageFix" result="effect1_dropShadow_5004_3898"/>
<feBlend mode="normal" in="SourceGraphic" in2="effect1_dropShadow_5004_3898" result="shape"/>
<feColorMatrix in="SourceAlpha" type="matrix" values="0 0 0 0 0 0 0 0 0 0 0 0 0 0 0 0 0 0 127 0" result="hardAlpha"/>
<feOffset dx="-0.553347" dy="1.10669"/>
<feGaussianBlur stdDeviation="0.276673"/>
<feComposite in2="hardAlpha" operator="arithmetic" k2="-1" k3="1"/>
<feColorMatrix type="matrix" values="0 0 0 0 0.139548 0 0 0 0 0.139548 0 0 0 0 0.184085 0 0 0 1 0"/>
<feBlend mode="normal" in2="shape" result="effect2_innerShadow_5004_3898"/>
</filter>
<linearGradient id="paint0_linear_5004_3898" x1="66.3589" y1="148.074" x2="91.9563" y2="-37.9135" gradientUnits="userSpaceOnUse">
<stop offset="0.08" stop-color="#9945FF" style="stop-color:#9945FF;stop-color:color(display-p3 0.6000 0.2706 1.0000);stop-opacity:1;"/>
<stop offset="0.3" stop-color="#8752F3" style="stop-color:#8752F3;stop-color:color(display-p3 0.5294 0.3216 0.9529);stop-opacity:1;"/>
<stop offset="0.5" stop-color="#5497D5" style="stop-color:#5497D5;stop-color:color(display-p3 0.3294 0.5922 0.8353);stop-opacity:1;"/>
<stop offset="0.6" stop-color="#43B4CA" style="stop-color:#43B4CA;stop-color:color(display-p3 0.2627 0.7059 0.7922);stop-opacity:1;"/>
<stop offset="0.72" stop-color="#28E0B9" style="stop-color:#28E0B9;stop-color:color(display-p3 0.1569 0.8784 0.7255);stop-opacity:1;"/>
<stop offset="0.97" stop-color="#14F195" style="stop-color:#14F195;stop-color:color(display-p3 0.0784 0.9451 0.5843);stop-opacity:1;"/>
</linearGradient>
<linearGradient id="paint1_linear_5004_3898" x1="71.1479" y1="143.285" x2="96.7453" y2="-42.7016" gradientUnits="userSpaceOnUse">
<stop offset="0.08" stop-color="#9945FF" style="stop-color:#9945FF;stop-color:color(display-p3 0.6000 0.2706 1.0000);stop-opacity:1;"/>
<stop offset="0.3" stop-color="#8752F3" style="stop-color:#8752F3;stop-color:color(display-p3 0.5294 0.3216 0.9529);stop-opacity:1;"/>
<stop offset="0.5" stop-color="#5497D5" style="stop-color:#5497D5;stop-color:color(display-p3 0.3294 0.5922 0.8353);stop-opacity:1;"/>
<stop offset="0.6" stop-color="#43B4CA" style="stop-color:#43B4CA;stop-color:color(display-p3 0.2627 0.7059 0.7922);stop-opacity:1;"/>
<stop offset="0.72" stop-color="#28E0B9" style="stop-color:#28E0B9;stop-color:color(display-p3 0.1569 0.8784 0.7255);stop-opacity:1;"/>
<stop offset="0.97" stop-color="#14F195" style="stop-color:#14F195;stop-color:color(display-p3 0.0784 0.9451 0.5843);stop-opacity:1;"/>
</linearGradient>
<linearGradient id="paint2_linear_5004_3898" x1="75.9331" y1="138.497" x2="101.53" y2="-47.4897" gradientUnits="userSpaceOnUse">
<stop offset="0.08" stop-color="#9945FF" style="stop-color:#9945FF;stop-color:color(display-p3 0.6000 0.2706 1.0000);stop-opacity:1;"/>
<stop offset="0.3" stop-color="#8752F3" style="stop-color:#8752F3;stop-color:color(display-p3 0.5294 0.3216 0.9529);stop-opacity:1;"/>
<stop offset="0.5" stop-color="#5497D5" style="stop-color:#5497D5;stop-color:color(display-p3 0.3294 0.5922 0.8353);stop-opacity:1;"/>
<stop offset="0.6" stop-color="#43B4CA" style="stop-color:#43B4CA;stop-color:color(display-p3 0.2627 0.7059 0.7922);stop-opacity:1;"/>
<stop offset="0.72" stop-color="#28E0B9" style="stop-color:#28E0B9;stop-color:color(display-p3 0.1569 0.8784 0.7255);stop-opacity:1;"/>
<stop offset="0.97" stop-color="#14F195" style="stop-color:#14F195;stop-color:color(display-p3 0.0784 0.9451 0.5843);stop-opacity:1;"/>
</linearGradient>
<linearGradient id="paint3_linear_5004_3898" x1="80.7221" y1="133.71" x2="106.32" y2="-52.2768" gradientUnits="userSpaceOnUse">
<stop offset="0.08" stop-color="#9945FF" style="stop-color:#9945FF;stop-color:color(display-p3 0.6000 0.2706 1.0000);stop-opacity:1;"/>
<stop offset="0.3" stop-color="#8752F3" style="stop-color:#8752F3;stop-color:color(display-p3 0.5294 0.3216 0.9529);stop-opacity:1;"/>
<stop offset="0.5" stop-color="#5497D5" style="stop-color:#5497D5;stop-color:color(display-p3 0.3294 0.5922 0.8353);stop-opacity:1;"/>
<stop offset="0.6" stop-color="#43B4CA" style="stop-color:#43B4CA;stop-color:color(display-p3 0.2627 0.7059 0.7922);stop-opacity:1;"/>
<stop offset="0.72" stop-color="#28E0B9" style="stop-color:#28E0B9;stop-color:color(display-p3 0.1569 0.8784 0.7255);stop-opacity:1;"/>
<stop offset="0.97" stop-color="#14F195" style="stop-color:#14F195;stop-color:color(display-p3 0.0784 0.9451 0.5843);stop-opacity:1;"/>
</linearGradient>
<linearGradient id="paint4_linear_5004_3898" x1="85.5112" y1="128.922" x2="111.109" y2="-57.0649" gradientUnits="userSpaceOnUse">
<stop offset="0.08" stop-color="#9945FF" style="stop-color:#9945FF;stop-color:color(display-p3 0.6000 0.2706 1.0000);stop-opacity:1;"/>
<stop offset="0.3" stop-color="#8752F3" style="stop-color:#8752F3;stop-color:color(display-p3 0.5294 0.3216 0.9529);stop-opacity:1;"/>
<stop offset="0.5" stop-color="#5497D5" style="stop-color:#5497D5;stop-color:color(display-p3 0.3294 0.5922 0.8353);stop-opacity:1;"/>
<stop offset="0.6" stop-color="#43B4CA" style="stop-color:#43B4CA;stop-color:color(display-p3 0.2627 0.7059 0.7922);stop-opacity:1;"/>
<stop offset="0.72" stop-color="#28E0B9" style="stop-color:#28E0B9;stop-color:color(display-p3 0.1569 0.8784 0.7255);stop-opacity:1;"/>
<stop offset="0.97" stop-color="#14F195" style="stop-color:#14F195;stop-color:color(display-p3 0.0784 0.9451 0.5843);stop-opacity:1;"/>
</linearGradient>
<linearGradient id="paint5_linear_5004_3898" x1="90.2964" y1="124.134" x2="115.894" y2="-61.8529" gradientUnits="userSpaceOnUse">
<stop offset="0.08" stop-color="#9945FF" style="stop-color:#9945FF;stop-color:color(display-p3 0.6000 0.2706 1.0000);stop-opacity:1;"/>
<stop offset="0.3" stop-color="#8752F3" style="stop-color:#8752F3;stop-color:color(display-p3 0.5294 0.3216 0.9529);stop-opacity:1;"/>
<stop offset="0.5" stop-color="#5497D5" style="stop-color:#5497D5;stop-color:color(display-p3 0.3294 0.5922 0.8353);stop-opacity:1;"/>
<stop offset="0.6" stop-color="#43B4CA" style="stop-color:#43B4CA;stop-color:color(display-p3 0.2627 0.7059 0.7922);stop-opacity:1;"/>
<stop offset="0.72" stop-color="#28E0B9" style="stop-color:#28E0B9;stop-color:color(display-p3 0.1569 0.8784 0.7255);stop-opacity:1;"/>
<stop offset="0.97" stop-color="#14F195" style="stop-color:#14F195;stop-color:color(display-p3 0.0784 0.9451 0.5843);stop-opacity:1;"/>
</linearGradient>
<linearGradient id="paint6_linear_5004_3898" x1="95.0854" y1="119.347" x2="120.683" y2="-66.6401" gradientUnits="userSpaceOnUse">
<stop offset="0.08" stop-color="#9945FF" style="stop-color:#9945FF;stop-color:color(display-p3 0.6000 0.2706 1.0000);stop-opacity:1;"/>
<stop offset="0.3" stop-color="#8752F3" style="stop-color:#8752F3;stop-color:color(display-p3 0.5294 0.3216 0.9529);stop-opacity:1;"/>
<stop offset="0.5" stop-color="#5497D5" style="stop-color:#5497D5;stop-color:color(display-p3 0.3294 0.5922 0.8353);stop-opacity:1;"/>
<stop offset="0.6" stop-color="#43B4CA" style="stop-color:#43B4CA;stop-color:color(display-p3 0.2627 0.7059 0.7922);stop-opacity:1;"/>
<stop offset="0.72" stop-color="#28E0B9" style="stop-color:#28E0B9;stop-color:color(display-p3 0.1569 0.8784 0.7255);stop-opacity:1;"/>
<stop offset="0.97" stop-color="#14F195" style="stop-color:#14F195;stop-color:color(display-p3 0.0784 0.9451 0.5843);stop-opacity:1;"/>
</linearGradient>
<linearGradient id="paint7_linear_5004_3898" x1="99.8745" y1="114.559" x2="125.472" y2="-71.4281" gradientUnits="userSpaceOnUse">
<stop offset="0.08" stop-color="#9945FF" style="stop-color:#9945FF;stop-color:color(display-p3 0.6000 0.2706 1.0000);stop-opacity:1;"/>
<stop offset="0.3" stop-color="#8752F3" style="stop-color:#8752F3;stop-color:color(display-p3 0.5294 0.3216 0.9529);stop-opacity:1;"/>
<stop offset="0.5" stop-color="#5497D5" style="stop-color:#5497D5;stop-color:color(display-p3 0.3294 0.5922 0.8353);stop-opacity:1;"/>
<stop offset="0.6" stop-color="#43B4CA" style="stop-color:#43B4CA;stop-color:color(display-p3 0.2627 0.7059 0.7922);stop-opacity:1;"/>
<stop offset="0.72" stop-color="#28E0B9" style="stop-color:#28E0B9;stop-color:color(display-p3 0.1569 0.8784 0.7255);stop-opacity:1;"/>
<stop offset="0.97" stop-color="#14F195" style="stop-color:#14F195;stop-color:color(display-p3 0.0784 0.9451 0.5843);stop-opacity:1;"/>
</linearGradient>
<linearGradient id="paint8_linear_5004_3898" x1="104.66" y1="109.771" x2="130.257" y2="-76.2162" gradientUnits="userSpaceOnUse">
<stop offset="0.08" stop-color="#9945FF" style="stop-color:#9945FF;stop-color:color(display-p3 0.6000 0.2706 1.0000);stop-opacity:1;"/>
<stop offset="0.3" stop-color="#8752F3" style="stop-color:#8752F3;stop-color:color(display-p3 0.5294 0.3216 0.9529);stop-opacity:1;"/>
<stop offset="0.5" stop-color="#5497D5" style="stop-color:#5497D5;stop-color:color(display-p3 0.3294 0.5922 0.8353);stop-opacity:1;"/>
<stop offset="0.6" stop-color="#43B4CA" style="stop-color:#43B4CA;stop-color:color(display-p3 0.2627 0.7059 0.7922);stop-opacity:1;"/>
<stop offset="0.72" stop-color="#28E0B9" style="stop-color:#28E0B9;stop-color:color(display-p3 0.1569 0.8784 0.7255);stop-opacity:1;"/>
<stop offset="0.97" stop-color="#14F195" style="stop-color:#14F195;stop-color:color(display-p3 0.0784 0.9451 0.5843);stop-opacity:1;"/>
</linearGradient>
<linearGradient id="paint9_linear_5004_3898" x1="109.449" y1="104.984" x2="135.046" y2="-81.0033" gradientUnits="userSpaceOnUse">
<stop offset="0.08" stop-color="#9945FF" style="stop-color:#9945FF;stop-color:color(display-p3 0.6000 0.2706 1.0000);stop-opacity:1;"/>
<stop offset="0.3" stop-color="#8752F3" style="stop-color:#8752F3;stop-color:color(display-p3 0.5294 0.3216 0.9529);stop-opacity:1;"/>
<stop offset="0.5" stop-color="#5497D5" style="stop-color:#5497D5;stop-color:color(display-p3 0.3294 0.5922 0.8353);stop-opacity:1;"/>
<stop offset="0.6" stop-color="#43B4CA" style="stop-color:#43B4CA;stop-color:color(display-p3 0.2627 0.7059 0.7922);stop-opacity:1;"/>
<stop offset="0.72" stop-color="#28E0B9" style="stop-color:#28E0B9;stop-color:color(display-p3 0.1569 0.8784 0.7255);stop-opacity:1;"/>
<stop offset="0.97" stop-color="#14F195" style="stop-color:#14F195;stop-color:color(display-p3 0.0784 0.9451 0.5843);stop-opacity:1;"/>
</linearGradient>
</defs>
</svg>
