<svg xmlns="http://www.w3.org/2000/svg" width="1920" height="172" fill="none" viewBox="0 0 1920 172"><g filter="url(#a)" opacity=".1"><mask id="c" fill="#fff"><path d="M226.639 160.936H10.955v50.543h158.36c15.169.005 29.731 5.65 40.562 15.723 5.321 4.961 9.546 10.878 12.427 17.405a50.9 50.9 0 0 1 4.354 20.612v44.148a50.5 50.5 0 0 1-4.28 20.643c-2.87 6.539-7.096 12.465-12.427 17.426-5.355 5.015-11.701 8.979-18.674 11.665a60 60 0 0 1-21.962 3.988H-42.999v-50.543h215.722v-50.507H14.363c-15.172-.011-29.734-5.662-40.563-15.741-5.308-4.971-9.525-10.89-12.408-17.415a51.2 51.2 0 0 1-4.391-20.602v-44.148a50.5 50.5 0 0 1 4.288-20.645c2.873-6.54 7.103-12.465 12.437-17.424 10.828-10.113 25.44-15.742 40.637-15.653h212.276zm261.489-50.543c31.894 0 57.732 23.857 57.732 53.758v145.198c0 29.901-25.838 53.758-57.732 53.758H322.174c-15.194.064-29.8-5.568-40.637-15.671-5.308-4.981-9.518-10.913-12.386-17.452a51 51 0 0 1-4.32-20.635V164.133a50.35 50.35 0 0 1 4.261-20.658c2.871-6.544 7.104-12.472 12.445-17.429 5.35-5.023 11.695-8.992 18.669-11.678a59.8 59.8 0 0 1 21.968-3.975zm3.408 50.543H318.747v151.61h172.807zm150.34 149.854h210.388v54.46h-231.28c-9.842-.017-19.285-3.695-26.301-10.242-3.445-3.222-6.185-7.058-8.06-11.288a33.25 33.25 0 0 1-2.868-13.36V108.25h58.121zm482.544-200.414c25.82 0 46.71 19.219 46.71 43.427v209.286h-54.32v-82.92H944.02v82.92h-53.935V153.821c-.021-8.64 2.689-17.088 7.78-24.253s12.329-12.718 20.781-15.942a48.6 48.6 0 0 1 17.78-3.233zm-7.61 50.542H944.02v68.691h172.79zm318.94-50.542h54.33v219.949c0 18.165-15.97 32.747-35.34 32.747h-41.77c-6.4.199-12.73-1.334-18.24-4.42-5.51-3.087-9.99-7.598-12.89-13.008l-104.82-184.726h-14.06v202.171h-53.93V143.491c0-18.499 15.57-33.098 34.95-33.098h44.06c12.91 0 25.06 6.413 31.14 17.445l104.79 184.708h11.78v-202.17m326.54 0c25.84 0 46.71 19.219 46.71 43.427v209.286h-54.31v-82.92h-172.78v82.92h-53.94V153.821c-.02-8.64 2.69-17.088 7.78-24.253s12.33-12.718 20.78-15.942a48.7 48.7 0 0 1 17.78-3.233zm-7.6 50.542h-172.78v68.691h172.78z"/></mask><path stroke="url(#b)" stroke-width="2" d="M226.639 160.936H10.955v50.543h158.36c15.169.005 29.731 5.65 40.562 15.723 5.321 4.961 9.546 10.878 12.427 17.405a50.9 50.9 0 0 1 4.354 20.612v44.148a50.5 50.5 0 0 1-4.28 20.643c-2.87 6.539-7.096 12.465-12.427 17.426-5.355 5.015-11.701 8.979-18.674 11.665a60 60 0 0 1-21.962 3.988H-42.999v-50.543h215.722v-50.507H14.363c-15.172-.011-29.734-5.662-40.563-15.741-5.308-4.971-9.525-10.89-12.408-17.415a51.2 51.2 0 0 1-4.391-20.602v-44.148a50.5 50.5 0 0 1 4.288-20.645c2.873-6.54 7.103-12.465 12.437-17.424 10.828-10.113 25.44-15.742 40.637-15.653h212.276zm261.489-50.543c31.894 0 57.732 23.857 57.732 53.758v145.198c0 29.901-25.838 53.758-57.732 53.758H322.174c-15.194.064-29.8-5.568-40.637-15.671-5.308-4.981-9.518-10.913-12.386-17.452a51 51 0 0 1-4.32-20.635V164.133a50.35 50.35 0 0 1 4.261-20.658c2.871-6.544 7.104-12.472 12.445-17.429 5.35-5.023 11.695-8.992 18.669-11.678a59.8 59.8 0 0 1 21.968-3.975zm3.408 50.543H318.747v151.61h172.807zm150.34 149.854h210.388v54.46h-231.28c-9.842-.017-19.285-3.695-26.301-10.242-3.445-3.222-6.185-7.058-8.06-11.288a33.25 33.25 0 0 1-2.868-13.36V108.25h58.121zm482.544-200.414c25.82 0 46.71 19.219 46.71 43.427v209.286h-54.32v-82.92H944.02v82.92h-53.935V153.821c-.021-8.64 2.689-17.088 7.78-24.253s12.329-12.718 20.781-15.942a48.6 48.6 0 0 1 17.78-3.233zm-7.61 50.542H944.02v68.691h172.79zm318.94-50.542h54.33v219.949c0 18.165-15.97 32.747-35.34 32.747h-41.77c-6.4.199-12.73-1.334-18.24-4.42-5.51-3.087-9.99-7.598-12.89-13.008l-104.82-184.726h-14.06v202.171h-53.93V143.491c0-18.499 15.57-33.098 34.95-33.098h44.06c12.91 0 25.06 6.413 31.14 17.445l104.79 184.708h11.78v-202.17Zm326.54 0c25.84 0 46.71 19.219 46.71 43.427v209.286h-54.31v-82.92h-172.78v82.92h-53.94V153.821c-.02-8.64 2.69-17.088 7.78-24.253s12.33-12.718 20.78-15.942a48.7 48.7 0 0 1 17.78-3.233zm-7.6 50.542h-172.78v68.691h172.78z" mask="url(#c)" shape-rendering="crispEdges"/></g><g filter="url(#d)" opacity=".2"><mask id="f" fill="#fff"><path d="M238.639 148.936H22.955v50.543h158.36c15.169.005 29.731 5.65 40.562 15.723 5.321 4.961 9.546 10.878 12.427 17.405a50.9 50.9 0 0 1 4.354 20.612v44.148a50.5 50.5 0 0 1-4.28 20.643c-2.87 6.539-7.096 12.465-12.427 17.426-5.355 5.015-11.701 8.979-18.674 11.665a60 60 0 0 1-21.962 3.988H-30.999v-50.543h215.722v-50.507H26.363c-15.172-.011-29.734-5.662-40.563-15.741-5.308-4.971-9.525-10.89-12.408-17.415a51.2 51.2 0 0 1-4.391-20.602v-44.148a50.5 50.5 0 0 1 4.288-20.645c2.873-6.54 7.103-12.465 12.437-17.424 10.828-10.113 25.44-15.741 40.637-15.653h212.276zm261.489-50.543c31.894 0 57.732 23.857 57.732 53.758v145.198c0 29.901-25.838 53.758-57.732 53.758H334.174c-15.194.064-29.8-5.568-40.637-15.671-5.308-4.981-9.518-10.913-12.386-17.452a51 51 0 0 1-4.32-20.635V152.133a50.35 50.35 0 0 1 4.261-20.658c2.871-6.544 7.104-12.472 12.445-17.429 5.35-5.023 11.695-8.992 18.669-11.678a59.8 59.8 0 0 1 21.968-3.975zm3.408 50.543H330.747v151.61h172.807zm150.34 149.854h210.388v54.46h-231.28c-9.842-.017-19.285-3.695-26.301-10.242-3.445-3.222-6.185-7.058-8.06-11.288a33.25 33.25 0 0 1-2.868-13.36V96.25h58.121zM1136.42 98.376c25.82 0 46.71 19.219 46.71 43.427v209.286h-54.32v-82.92H956.02v82.92h-53.935V141.821c-.021-8.64 2.689-17.088 7.78-24.253s12.329-12.718 20.781-15.942a48.6 48.6 0 0 1 17.78-3.233zm-7.61 50.542H956.02v68.691h172.79zm318.94-50.542h54.33v219.949c0 18.165-15.97 32.747-35.34 32.747h-41.77c-6.4.199-12.73-1.334-18.24-4.42-5.51-3.087-9.99-7.598-12.89-13.008l-104.82-184.726h-14.06v202.171h-53.93V131.491c0-18.499 15.57-33.098 34.95-33.098h44.06c12.91 0 25.06 6.413 31.14 17.445l104.79 184.708h11.78V98.376m326.54 0c25.84 0 46.71 19.219 46.71 43.427v209.286h-54.31v-82.92h-172.78v82.92h-53.94V141.821c-.02-8.64 2.69-17.088 7.78-24.253s12.33-12.718 20.78-15.942a48.7 48.7 0 0 1 17.78-3.233zm-7.6 50.542h-172.78v68.691h172.78z"/></mask><path stroke="url(#e)" stroke-width="2" d="M238.639 148.936H22.955v50.543h158.36c15.169.005 29.731 5.65 40.562 15.723 5.321 4.961 9.546 10.878 12.427 17.405a50.9 50.9 0 0 1 4.354 20.612v44.148a50.5 50.5 0 0 1-4.28 20.643c-2.87 6.539-7.096 12.465-12.427 17.426-5.355 5.015-11.701 8.979-18.674 11.665a60 60 0 0 1-21.962 3.988H-30.999v-50.543h215.722v-50.507H26.363c-15.172-.011-29.734-5.662-40.563-15.741-5.308-4.971-9.525-10.89-12.408-17.415a51.2 51.2 0 0 1-4.391-20.602v-44.148a50.5 50.5 0 0 1 4.288-20.645c2.873-6.54 7.103-12.465 12.437-17.424 10.828-10.113 25.44-15.741 40.637-15.653h212.276zm261.489-50.543c31.894 0 57.732 23.857 57.732 53.758v145.198c0 29.901-25.838 53.758-57.732 53.758H334.174c-15.194.064-29.8-5.568-40.637-15.671-5.308-4.981-9.518-10.913-12.386-17.452a51 51 0 0 1-4.32-20.635V152.133a50.35 50.35 0 0 1 4.261-20.658c2.871-6.544 7.104-12.472 12.445-17.429 5.35-5.023 11.695-8.992 18.669-11.678a59.8 59.8 0 0 1 21.968-3.975zm3.408 50.543H330.747v151.61h172.807zm150.34 149.854h210.388v54.46h-231.28c-9.842-.017-19.285-3.695-26.301-10.242-3.445-3.222-6.185-7.058-8.06-11.288a33.25 33.25 0 0 1-2.868-13.36V96.25h58.121zM1136.42 98.376c25.82 0 46.71 19.219 46.71 43.427v209.286h-54.32v-82.92H956.02v82.92h-53.935V141.821c-.021-8.64 2.689-17.088 7.78-24.253s12.329-12.718 20.781-15.942a48.6 48.6 0 0 1 17.78-3.233zm-7.61 50.542H956.02v68.691h172.79zm318.94-50.542h54.33v219.949c0 18.165-15.97 32.747-35.34 32.747h-41.77c-6.4.199-12.73-1.334-18.24-4.42-5.51-3.087-9.99-7.598-12.89-13.008l-104.82-184.726h-14.06v202.171h-53.93V131.491c0-18.499 15.57-33.098 34.95-33.098h44.06c12.91 0 25.06 6.413 31.14 17.445l104.79 184.708h11.78V98.376Zm326.54 0c25.84 0 46.71 19.219 46.71 43.427v209.286h-54.31v-82.92h-172.78v82.92h-53.94V141.821c-.02-8.64 2.69-17.088 7.78-24.253s12.33-12.718 20.78-15.942a48.7 48.7 0 0 1 17.78-3.233zm-7.6 50.542h-172.78v68.691h172.78z" mask="url(#f)" shape-rendering="crispEdges"/></g><g filter="url(#g)" opacity=".3"><mask id="i" fill="#fff"><path d="M250.639 136.936H34.955v50.543h158.36c15.169.005 29.731 5.65 40.562 15.723 5.321 4.961 9.546 10.878 12.427 17.405a50.9 50.9 0 0 1 4.354 20.612v44.148a50.5 50.5 0 0 1-4.28 20.643c-2.87 6.539-7.096 12.465-12.427 17.426-5.355 5.015-11.701 8.979-18.674 11.665a60 60 0 0 1-21.962 3.988H-18.999v-50.543h215.722v-50.507H38.363c-15.172-.011-29.734-5.662-40.563-15.741-5.308-4.971-9.525-10.89-12.408-17.415a51.2 51.2 0 0 1-4.391-20.602v-44.148a50.5 50.5 0 0 1 4.288-20.645c2.873-6.54 7.103-12.465 12.437-17.424 10.828-10.113 25.44-15.741 40.637-15.653h212.276zm261.489-50.543c31.894 0 57.732 23.857 57.732 53.758v145.198c0 29.901-25.838 53.758-57.732 53.758H346.174c-15.194.064-29.8-5.568-40.637-15.671-5.308-4.981-9.518-10.913-12.386-17.452a51 51 0 0 1-4.32-20.635V140.133a50.35 50.35 0 0 1 4.261-20.658c2.871-6.544 7.104-12.472 12.445-17.429 5.35-5.023 11.695-8.992 18.669-11.678a59.8 59.8 0 0 1 21.968-3.975zm3.408 50.543H342.747v151.61h172.807zm150.34 149.854h210.388v54.46h-231.28c-9.842-.017-19.285-3.695-26.301-10.242-3.445-3.222-6.185-7.058-8.06-11.288a33.25 33.25 0 0 1-2.868-13.36V84.25h58.121zM1148.42 86.376c25.82 0 46.71 19.219 46.71 43.427v209.286h-54.32v-82.92H968.02v82.92h-53.935V129.821c-.021-8.64 2.689-17.088 7.78-24.253s12.329-12.718 20.781-15.942a48.7 48.7 0 0 1 17.78-3.233zm-7.61 50.542H968.02v68.691h172.79zm318.94-50.542h54.33v219.949c0 18.165-15.97 32.747-35.34 32.747h-41.77c-6.4.199-12.73-1.334-18.24-4.42-5.51-3.087-9.99-7.598-12.89-13.008l-104.82-184.726h-14.06v202.171h-53.93V119.491c0-18.499 15.57-33.098 34.95-33.098h44.06c12.91 0 25.06 6.412 31.14 17.445l104.79 184.708h11.78V86.376m326.54 0c25.84 0 46.71 19.219 46.71 43.427v209.286h-54.31v-82.92h-172.78v82.92h-53.94V129.821c-.02-8.64 2.69-17.088 7.78-24.253s12.33-12.718 20.78-15.942a48.7 48.7 0 0 1 17.78-3.233zm-7.6 50.542h-172.78v68.691h172.78z"/></mask><path stroke="url(#h)" stroke-width="2" d="M250.639 136.936H34.955v50.543h158.36c15.169.005 29.731 5.65 40.562 15.723 5.321 4.961 9.546 10.878 12.427 17.405a50.9 50.9 0 0 1 4.354 20.612v44.148a50.5 50.5 0 0 1-4.28 20.643c-2.87 6.539-7.096 12.465-12.427 17.426-5.355 5.015-11.701 8.979-18.674 11.665a60 60 0 0 1-21.962 3.988H-18.999v-50.543h215.722v-50.507H38.363c-15.172-.011-29.734-5.662-40.563-15.741-5.308-4.971-9.525-10.89-12.408-17.415a51.2 51.2 0 0 1-4.391-20.602v-44.148a50.5 50.5 0 0 1 4.288-20.645c2.873-6.54 7.103-12.465 12.437-17.424 10.828-10.113 25.44-15.741 40.637-15.653h212.276zm261.489-50.543c31.894 0 57.732 23.857 57.732 53.758v145.198c0 29.901-25.838 53.758-57.732 53.758H346.174c-15.194.064-29.8-5.568-40.637-15.671-5.308-4.981-9.518-10.913-12.386-17.452a51 51 0 0 1-4.32-20.635V140.133a50.35 50.35 0 0 1 4.261-20.658c2.871-6.544 7.104-12.472 12.445-17.429 5.35-5.023 11.695-8.992 18.669-11.678a59.8 59.8 0 0 1 21.968-3.975zm3.408 50.543H342.747v151.61h172.807zm150.34 149.854h210.388v54.46h-231.28c-9.842-.017-19.285-3.695-26.301-10.242-3.445-3.222-6.185-7.058-8.06-11.288a33.25 33.25 0 0 1-2.868-13.36V84.25h58.121zM1148.42 86.376c25.82 0 46.71 19.219 46.71 43.427v209.286h-54.32v-82.92H968.02v82.92h-53.935V129.821c-.021-8.64 2.689-17.088 7.78-24.253s12.329-12.718 20.781-15.942a48.7 48.7 0 0 1 17.78-3.233zm-7.61 50.542H968.02v68.691h172.79zm318.94-50.542h54.33v219.949c0 18.165-15.97 32.747-35.34 32.747h-41.77c-6.4.199-12.73-1.334-18.24-4.42-5.51-3.087-9.99-7.598-12.89-13.008l-104.82-184.726h-14.06v202.171h-53.93V119.491c0-18.499 15.57-33.098 34.95-33.098h44.06c12.91 0 25.06 6.412 31.14 17.445l104.79 184.708h11.78V86.376Zm326.54 0c25.84 0 46.71 19.219 46.71 43.427v209.286h-54.31v-82.92h-172.78v82.92h-53.94V129.821c-.02-8.64 2.69-17.088 7.78-24.253s12.33-12.718 20.78-15.942a48.7 48.7 0 0 1 17.78-3.233zm-7.6 50.542h-172.78v68.691h172.78z" mask="url(#i)" shape-rendering="crispEdges"/></g><g filter="url(#j)" opacity=".4"><mask id="l" fill="#fff"><path d="M262.639 124.936H46.955v50.543h158.36c15.169.005 29.731 5.65 40.562 15.723 5.321 4.961 9.546 10.878 12.427 17.405a50.9 50.9 0 0 1 4.354 20.612v44.148a50.5 50.5 0 0 1-4.28 20.643c-2.87 6.539-7.096 12.465-12.427 17.426-5.355 5.015-11.701 8.979-18.674 11.665a60 60 0 0 1-21.962 3.988H-6.999v-50.543h215.722v-50.507H50.363c-15.172-.011-29.734-5.662-40.563-15.741-5.308-4.971-9.525-10.89-12.408-17.415a51.2 51.2 0 0 1-4.391-20.602v-44.148a50.5 50.5 0 0 1 4.288-20.645c2.873-6.54 7.103-12.465 12.437-17.424C20.554 79.95 35.166 74.323 50.363 74.41h212.276zm261.489-50.543c31.894 0 57.732 23.857 57.732 53.758v145.198c0 29.901-25.838 53.758-57.732 53.758H358.174c-15.194.064-29.8-5.568-40.637-15.671-5.308-4.981-9.518-10.913-12.386-17.452a51 51 0 0 1-4.32-20.635V128.133a50.35 50.35 0 0 1 4.261-20.658c2.871-6.544 7.104-12.472 12.445-17.429 5.35-5.023 11.695-8.992 18.669-11.678a59.8 59.8 0 0 1 21.968-3.975zm3.408 50.543H354.747v151.61h172.807zm150.34 149.854h210.388v54.46h-231.28c-9.842-.017-19.285-3.695-26.301-10.242-3.445-3.222-6.185-7.058-8.06-11.288a33.25 33.25 0 0 1-2.868-13.36V72.25h58.121zM1160.42 74.376c25.82 0 46.71 19.219 46.71 43.427v209.286h-54.32v-82.92H980.02v82.92h-53.935V117.821c-.021-8.64 2.689-17.088 7.78-24.253s12.329-12.718 20.781-15.942a48.7 48.7 0 0 1 17.78-3.233zm-7.61 50.542H980.02v68.691h172.79zm318.94-50.542h54.33v219.949c0 18.165-15.97 32.747-35.34 32.747h-41.77c-6.4.199-12.73-1.334-18.24-4.42-5.51-3.087-9.99-7.598-12.89-13.008l-104.82-184.726h-14.06v202.171h-53.93V107.491c0-18.499 15.57-33.098 34.95-33.098h44.06c12.91 0 25.06 6.412 31.14 17.445l104.79 184.708h11.78V74.376m326.54 0c25.84 0 46.71 19.219 46.71 43.427v209.286h-54.31v-82.92h-172.78v82.92h-53.94V117.821c-.02-8.64 2.69-17.088 7.78-24.253s12.33-12.718 20.78-15.942a48.7 48.7 0 0 1 17.78-3.233zm-7.6 50.542h-172.78v68.691h172.78z"/></mask><path stroke="url(#k)" stroke-width="2" d="M262.639 124.936H46.955v50.543h158.36c15.169.005 29.731 5.65 40.562 15.723 5.321 4.961 9.546 10.878 12.427 17.405a50.9 50.9 0 0 1 4.354 20.612v44.148a50.5 50.5 0 0 1-4.28 20.643c-2.87 6.539-7.096 12.465-12.427 17.426-5.355 5.015-11.701 8.979-18.674 11.665a60 60 0 0 1-21.962 3.988H-6.999v-50.543h215.722v-50.507H50.363c-15.172-.011-29.734-5.662-40.563-15.741-5.308-4.971-9.525-10.89-12.408-17.415a51.2 51.2 0 0 1-4.391-20.602v-44.148a50.5 50.5 0 0 1 4.288-20.645c2.873-6.54 7.103-12.465 12.437-17.424C20.554 79.95 35.166 74.323 50.363 74.41h212.276zm261.489-50.543c31.894 0 57.732 23.857 57.732 53.758v145.198c0 29.901-25.838 53.758-57.732 53.758H358.174c-15.194.064-29.8-5.568-40.637-15.671-5.308-4.981-9.518-10.913-12.386-17.452a51 51 0 0 1-4.32-20.635V128.133a50.35 50.35 0 0 1 4.261-20.658c2.871-6.544 7.104-12.472 12.445-17.429 5.35-5.023 11.695-8.992 18.669-11.678a59.8 59.8 0 0 1 21.968-3.975zm3.408 50.543H354.747v151.61h172.807zm150.34 149.854h210.388v54.46h-231.28c-9.842-.017-19.285-3.695-26.301-10.242-3.445-3.222-6.185-7.058-8.06-11.288a33.25 33.25 0 0 1-2.868-13.36V72.25h58.121zM1160.42 74.376c25.82 0 46.71 19.219 46.71 43.427v209.286h-54.32v-82.92H980.02v82.92h-53.935V117.821c-.021-8.64 2.689-17.088 7.78-24.253s12.329-12.718 20.781-15.942a48.7 48.7 0 0 1 17.78-3.233zm-7.61 50.542H980.02v68.691h172.79zm318.94-50.542h54.33v219.949c0 18.165-15.97 32.747-35.34 32.747h-41.77c-6.4.199-12.73-1.334-18.24-4.42-5.51-3.087-9.99-7.598-12.89-13.008l-104.82-184.726h-14.06v202.171h-53.93V107.491c0-18.499 15.57-33.098 34.95-33.098h44.06c12.91 0 25.06 6.412 31.14 17.445l104.79 184.708h11.78V74.376Zm326.54 0c25.84 0 46.71 19.219 46.71 43.427v209.286h-54.31v-82.92h-172.78v82.92h-53.94V117.821c-.02-8.64 2.69-17.088 7.78-24.253s12.33-12.718 20.78-15.942a48.7 48.7 0 0 1 17.78-3.233zm-7.6 50.542h-172.78v68.691h172.78z" mask="url(#l)" shape-rendering="crispEdges"/></g><g filter="url(#m)" opacity=".5"><mask id="o" fill="#fff"><path d="M274.639 112.936H58.955v50.543h158.36c15.169.005 29.731 5.65 40.562 15.723 5.321 4.961 9.546 10.878 12.427 17.405a50.9 50.9 0 0 1 4.354 20.612v44.148a50.5 50.5 0 0 1-4.28 20.643c-2.87 6.539-7.096 12.465-12.427 17.426-5.355 5.015-11.701 8.979-18.674 11.665a60 60 0 0 1-21.962 3.988H5.001v-50.543h215.722v-50.507H62.363c-15.172-.011-29.734-5.662-40.563-15.741-5.308-4.971-9.525-10.89-12.408-17.415a51.2 51.2 0 0 1-4.391-20.602v-44.148a50.5 50.5 0 0 1 4.288-20.645c2.873-6.54 7.103-12.465 12.437-17.424C32.554 67.95 47.166 62.323 62.363 62.41h212.276zm261.489-50.543c31.894 0 57.732 23.857 57.732 53.758v145.198c0 29.901-25.838 53.758-57.732 53.758H370.174c-15.194.064-29.8-5.568-40.637-15.671-5.308-4.981-9.518-10.913-12.386-17.452a51 51 0 0 1-4.32-20.635V116.133a50.35 50.35 0 0 1 4.261-20.658c2.871-6.544 7.104-12.472 12.445-17.429 5.35-5.023 11.695-8.992 18.669-11.678a59.8 59.8 0 0 1 21.968-3.975zm3.408 50.543H366.747v151.61h172.807zm150.34 149.854h210.388v54.46h-231.28c-9.842-.017-19.285-3.695-26.301-10.242-3.445-3.222-6.185-7.058-8.06-11.288a33.25 33.25 0 0 1-2.868-13.36V60.25h58.121zM1172.42 62.376c25.82 0 46.71 19.219 46.71 43.427v209.286h-54.32v-82.92H992.02v82.92h-53.935V105.821c-.021-8.64 2.689-17.088 7.78-24.253s12.329-12.718 20.781-15.942a48.7 48.7 0 0 1 17.78-3.233zm-7.61 50.542H992.02v68.691h172.79zm318.94-50.542h54.33v219.949c0 18.165-15.97 32.747-35.34 32.747h-41.77c-6.4.199-12.73-1.334-18.24-4.42-5.51-3.087-9.99-7.598-12.89-13.008l-104.82-184.726h-14.06v202.171h-53.93V95.491c0-18.499 15.57-33.098 34.95-33.098h44.06c12.91 0 25.06 6.412 31.14 17.445l104.79 184.708h11.78V62.376m326.54 0c25.84 0 46.71 19.219 46.71 43.427v209.286h-54.31v-82.92h-172.78v82.92h-53.94V105.821c-.02-8.64 2.69-17.088 7.78-24.253s12.33-12.718 20.78-15.942a48.7 48.7 0 0 1 17.78-3.233zm-7.6 50.542h-172.78v68.691h172.78z"/></mask><path stroke="url(#n)" stroke-width="2" d="M274.639 112.936H58.955v50.543h158.36c15.169.005 29.731 5.65 40.562 15.723 5.321 4.961 9.546 10.878 12.427 17.405a50.9 50.9 0 0 1 4.354 20.612v44.148a50.5 50.5 0 0 1-4.28 20.643c-2.87 6.539-7.096 12.465-12.427 17.426-5.355 5.015-11.701 8.979-18.674 11.665a60 60 0 0 1-21.962 3.988H5.001v-50.543h215.722v-50.507H62.363c-15.172-.011-29.734-5.662-40.563-15.741-5.308-4.971-9.525-10.89-12.408-17.415a51.2 51.2 0 0 1-4.391-20.602v-44.148a50.5 50.5 0 0 1 4.288-20.645c2.873-6.54 7.103-12.465 12.437-17.424C32.554 67.95 47.166 62.323 62.363 62.41h212.276zm261.489-50.543c31.894 0 57.732 23.857 57.732 53.758v145.198c0 29.901-25.838 53.758-57.732 53.758H370.174c-15.194.064-29.8-5.568-40.637-15.671-5.308-4.981-9.518-10.913-12.386-17.452a51 51 0 0 1-4.32-20.635V116.133a50.35 50.35 0 0 1 4.261-20.658c2.871-6.544 7.104-12.472 12.445-17.429 5.35-5.023 11.695-8.992 18.669-11.678a59.8 59.8 0 0 1 21.968-3.975zm3.408 50.543H366.747v151.61h172.807zm150.34 149.854h210.388v54.46h-231.28c-9.842-.017-19.285-3.695-26.301-10.242-3.445-3.222-6.185-7.058-8.06-11.288a33.25 33.25 0 0 1-2.868-13.36V60.25h58.121zM1172.42 62.376c25.82 0 46.71 19.219 46.71 43.427v209.286h-54.32v-82.92H992.02v82.92h-53.935V105.821c-.021-8.64 2.689-17.088 7.78-24.253s12.329-12.718 20.781-15.942a48.7 48.7 0 0 1 17.78-3.233zm-7.61 50.542H992.02v68.691h172.79zm318.94-50.542h54.33v219.949c0 18.165-15.97 32.747-35.34 32.747h-41.77c-6.4.199-12.73-1.334-18.24-4.42-5.51-3.087-9.99-7.598-12.89-13.008l-104.82-184.726h-14.06v202.171h-53.93V95.491c0-18.499 15.57-33.098 34.95-33.098h44.06c12.91 0 25.06 6.412 31.14 17.445l104.79 184.708h11.78V62.376Zm326.54 0c25.84 0 46.71 19.219 46.71 43.427v209.286h-54.31v-82.92h-172.78v82.92h-53.94V105.821c-.02-8.64 2.69-17.088 7.78-24.253s12.33-12.718 20.78-15.942a48.7 48.7 0 0 1 17.78-3.233zm-7.6 50.542h-172.78v68.691h172.78z" mask="url(#o)" shape-rendering="crispEdges"/></g><g filter="url(#p)" opacity=".6"><mask id="r" fill="#fff"><path d="M286.639 100.936H70.955v50.543h158.36c15.169.005 29.731 5.65 40.562 15.723 5.321 4.961 9.546 10.878 12.427 17.405a50.9 50.9 0 0 1 4.354 20.612v44.148a50.5 50.5 0 0 1-4.28 20.643c-2.87 6.539-7.096 12.465-12.427 17.426-5.355 5.015-11.701 8.979-18.674 11.665a60 60 0 0 1-21.962 3.988H17.001v-50.543h215.722v-50.507H74.363c-15.172-.011-29.734-5.662-40.563-15.741-5.307-4.971-9.525-10.89-12.408-17.415a51.2 51.2 0 0 1-4.391-20.602v-44.148a50.5 50.5 0 0 1 4.288-20.645c2.873-6.54 7.103-12.465 12.437-17.424C44.554 55.95 59.166 50.323 74.363 50.41h212.276zm261.489-50.543c31.894 0 57.732 23.857 57.732 53.758v145.198c0 29.901-25.838 53.758-57.732 53.758H382.174c-15.194.064-29.8-5.568-40.637-15.671-5.308-4.981-9.518-10.913-12.386-17.452a51 51 0 0 1-4.32-20.635V104.133a50.35 50.35 0 0 1 4.261-20.658c2.871-6.544 7.104-12.472 12.445-17.429 5.35-5.023 11.695-8.992 18.669-11.679a59.8 59.8 0 0 1 21.968-3.974zm3.408 50.543H378.747v151.61h172.807zm150.34 149.854h210.388v54.46h-231.28c-9.842-.017-19.285-3.695-26.301-10.242-3.445-3.222-6.185-7.058-8.06-11.288a33.25 33.25 0 0 1-2.868-13.36V48.25h58.121zM1184.42 50.376c25.82 0 46.71 19.219 46.71 43.427V303.09h-54.32v-82.92h-172.79v82.92h-53.935V93.821c-.021-8.64 2.689-17.088 7.78-24.253s12.329-12.718 20.781-15.942a48.7 48.7 0 0 1 17.78-3.233zm-7.61 50.542h-172.79v68.691h172.79zm318.94-50.542h54.33v219.949c0 18.165-15.97 32.747-35.34 32.747h-41.77c-6.4.199-12.73-1.334-18.24-4.42-5.51-3.087-9.99-7.598-12.89-13.008l-104.82-184.726h-14.06v202.171h-53.93V83.491c0-18.499 15.57-33.098 34.95-33.098h44.06c12.91 0 25.06 6.413 31.14 17.445l104.79 184.708h11.78V50.376m326.54 0c25.84 0 46.71 19.219 46.71 43.427V303.09h-54.31v-82.92h-172.78v82.92h-53.94V93.821c-.02-8.64 2.69-17.088 7.78-24.253s12.33-12.718 20.78-15.942a48.7 48.7 0 0 1 17.78-3.233zm-7.6 50.542h-172.78v68.691h172.78z"/></mask><path stroke="url(#q)" stroke-width="2" d="M286.639 100.936H70.955v50.543h158.36c15.169.005 29.731 5.65 40.562 15.723 5.321 4.961 9.546 10.878 12.427 17.405a50.9 50.9 0 0 1 4.354 20.612v44.148a50.5 50.5 0 0 1-4.28 20.643c-2.87 6.539-7.096 12.465-12.427 17.426-5.355 5.015-11.701 8.979-18.674 11.665a60 60 0 0 1-21.962 3.988H17.001v-50.543h215.722v-50.507H74.363c-15.172-.011-29.734-5.662-40.563-15.741-5.307-4.971-9.525-10.89-12.408-17.415a51.2 51.2 0 0 1-4.391-20.602v-44.148a50.5 50.5 0 0 1 4.288-20.645c2.873-6.54 7.103-12.465 12.437-17.424C44.554 55.95 59.166 50.323 74.363 50.41h212.276zm261.489-50.543c31.894 0 57.732 23.857 57.732 53.758v145.198c0 29.901-25.838 53.758-57.732 53.758H382.174c-15.194.064-29.8-5.568-40.637-15.671-5.308-4.981-9.518-10.913-12.386-17.452a51 51 0 0 1-4.32-20.635V104.133a50.35 50.35 0 0 1 4.261-20.658c2.871-6.544 7.104-12.472 12.445-17.429 5.35-5.023 11.695-8.992 18.669-11.679a59.8 59.8 0 0 1 21.968-3.974zm3.408 50.543H378.747v151.61h172.807zm150.34 149.854h210.388v54.46h-231.28c-9.842-.017-19.285-3.695-26.301-10.242-3.445-3.222-6.185-7.058-8.06-11.288a33.25 33.25 0 0 1-2.868-13.36V48.25h58.121zM1184.42 50.376c25.82 0 46.71 19.219 46.71 43.427V303.09h-54.32v-82.92h-172.79v82.92h-53.935V93.821c-.021-8.64 2.689-17.088 7.78-24.253s12.329-12.718 20.781-15.942a48.7 48.7 0 0 1 17.78-3.233zm-7.61 50.542h-172.79v68.691h172.79zm318.94-50.542h54.33v219.949c0 18.165-15.97 32.747-35.34 32.747h-41.77c-6.4.199-12.73-1.334-18.24-4.42-5.51-3.087-9.99-7.598-12.89-13.008l-104.82-184.726h-14.06v202.171h-53.93V83.491c0-18.499 15.57-33.098 34.95-33.098h44.06c12.91 0 25.06 6.413 31.14 17.445l104.79 184.708h11.78V50.376Zm326.54 0c25.84 0 46.71 19.219 46.71 43.427V303.09h-54.31v-82.92h-172.78v82.92h-53.94V93.821c-.02-8.64 2.69-17.088 7.78-24.253s12.33-12.718 20.78-15.942a48.7 48.7 0 0 1 17.78-3.233zm-7.6 50.542h-172.78v68.691h172.78z" mask="url(#r)" shape-rendering="crispEdges"/></g><g filter="url(#s)" opacity=".7"><mask id="u" fill="#fff"><path d="M298.639 88.936H82.955v50.543h158.36c15.169.005 29.731 5.65 40.562 15.723 5.321 4.961 9.546 10.878 12.427 17.405a50.9 50.9 0 0 1 4.354 20.612v44.148a50.5 50.5 0 0 1-4.28 20.643c-2.87 6.539-7.096 12.465-12.427 17.426-5.355 5.015-11.701 8.979-18.674 11.665a60 60 0 0 1-21.962 3.988H29.001v-50.543h215.722v-50.507H86.363c-15.172-.011-29.734-5.662-40.563-15.741-5.307-4.971-9.525-10.89-12.408-17.415a51.2 51.2 0 0 1-4.391-20.602V92.133a50.5 50.5 0 0 1 4.288-20.645c2.873-6.54 7.103-12.465 12.437-17.424C56.554 43.95 71.166 38.322 86.363 38.41h212.276zm261.489-50.543c31.894 0 57.732 23.857 57.732 53.758v145.198c0 29.901-25.838 53.758-57.732 53.758H394.174c-15.194.064-29.8-5.568-40.637-15.671-5.308-4.981-9.518-10.913-12.386-17.452a51 51 0 0 1-4.32-20.635V92.133a50.35 50.35 0 0 1 4.261-20.658c2.871-6.544 7.104-12.472 12.445-17.429 5.35-5.023 11.695-8.992 18.669-11.678a59.8 59.8 0 0 1 21.968-3.975zm3.408 50.543H390.747v151.61h172.807zm150.34 149.854h210.388v54.46h-231.28c-9.842-.017-19.285-3.695-26.301-10.242-3.445-3.222-6.185-7.058-8.06-11.288a33.25 33.25 0 0 1-2.868-13.36V36.25h58.121zM1196.42 38.376c25.82 0 46.71 19.219 46.71 43.427V291.09h-54.32v-82.92h-172.79v82.92h-53.935V81.821c-.021-8.64 2.689-17.088 7.78-24.253s12.329-12.718 20.781-15.942a48.6 48.6 0 0 1 17.784-3.233zm-7.61 50.542h-172.79v68.691h172.79zm318.94-50.542h54.33v219.949c0 18.165-15.97 32.747-35.34 32.747h-41.77c-6.4.199-12.73-1.334-18.24-4.42-5.51-3.087-9.99-7.598-12.89-13.008L1349.02 88.918h-14.06V291.09h-53.93V71.491c0-18.499 15.57-33.098 34.95-33.098h44.06c12.91 0 25.06 6.413 31.14 17.445l104.79 184.708h11.78V38.376m326.54 0c25.84 0 46.71 19.219 46.71 43.427V291.09h-54.31v-82.92h-172.78v82.92h-53.94V81.821c-.02-8.64 2.69-17.088 7.78-24.253s12.33-12.718 20.78-15.942a48.7 48.7 0 0 1 17.78-3.233zm-7.6 50.542h-172.78v68.691h172.78z"/></mask><path stroke="url(#t)" stroke-width="2" d="M298.639 88.936H82.955v50.543h158.36c15.169.005 29.731 5.65 40.562 15.723 5.321 4.961 9.546 10.878 12.427 17.405a50.9 50.9 0 0 1 4.354 20.612v44.148a50.5 50.5 0 0 1-4.28 20.643c-2.87 6.539-7.096 12.465-12.427 17.426-5.355 5.015-11.701 8.979-18.674 11.665a60 60 0 0 1-21.962 3.988H29.001v-50.543h215.722v-50.507H86.363c-15.172-.011-29.734-5.662-40.563-15.741-5.307-4.971-9.525-10.89-12.408-17.415a51.2 51.2 0 0 1-4.391-20.602V92.133a50.5 50.5 0 0 1 4.288-20.645c2.873-6.54 7.103-12.465 12.437-17.424C56.554 43.95 71.166 38.322 86.363 38.41h212.276zm261.489-50.543c31.894 0 57.732 23.857 57.732 53.758v145.198c0 29.901-25.838 53.758-57.732 53.758H394.174c-15.194.064-29.8-5.568-40.637-15.671-5.308-4.981-9.518-10.913-12.386-17.452a51 51 0 0 1-4.32-20.635V92.133a50.35 50.35 0 0 1 4.261-20.658c2.871-6.544 7.104-12.472 12.445-17.429 5.35-5.023 11.695-8.992 18.669-11.678a59.8 59.8 0 0 1 21.968-3.975zm3.408 50.543H390.747v151.61h172.807zm150.34 149.854h210.388v54.46h-231.28c-9.842-.017-19.285-3.695-26.301-10.242-3.445-3.222-6.185-7.058-8.06-11.288a33.25 33.25 0 0 1-2.868-13.36V36.25h58.121zM1196.42 38.376c25.82 0 46.71 19.219 46.71 43.427V291.09h-54.32v-82.92h-172.79v82.92h-53.935V81.821c-.021-8.64 2.689-17.088 7.78-24.253s12.329-12.718 20.781-15.942a48.6 48.6 0 0 1 17.784-3.233zm-7.61 50.542h-172.79v68.691h172.79zm318.94-50.542h54.33v219.949c0 18.165-15.97 32.747-35.34 32.747h-41.77c-6.4.199-12.73-1.334-18.24-4.42-5.51-3.087-9.99-7.598-12.89-13.008L1349.02 88.918h-14.06V291.09h-53.93V71.491c0-18.499 15.57-33.098 34.95-33.098h44.06c12.91 0 25.06 6.413 31.14 17.445l104.79 184.708h11.78V38.376Zm326.54 0c25.84 0 46.71 19.219 46.71 43.427V291.09h-54.31v-82.92h-172.78v82.92h-53.94V81.821c-.02-8.64 2.69-17.088 7.78-24.253s12.33-12.718 20.78-15.942a48.7 48.7 0 0 1 17.78-3.233zm-7.6 50.542h-172.78v68.691h172.78z" mask="url(#u)" shape-rendering="crispEdges"/></g><g filter="url(#v)" opacity=".8"><mask id="x" fill="#fff"><path d="M310.639 76.936H94.955v50.543h158.36c15.169.005 29.731 5.65 40.562 15.723 5.321 4.961 9.546 10.878 12.427 17.405a50.9 50.9 0 0 1 4.354 20.612v44.148a50.5 50.5 0 0 1-4.28 20.643c-2.87 6.539-7.096 12.465-12.427 17.426-5.355 5.015-11.701 8.979-18.674 11.665a60 60 0 0 1-21.962 3.988H41.001v-50.543h215.722v-50.507H98.363c-15.172-.011-29.734-5.662-40.563-15.741-5.307-4.971-9.525-10.89-12.408-17.415a51.2 51.2 0 0 1-4.391-20.602V80.133a50.5 50.5 0 0 1 4.288-20.645c2.873-6.54 7.103-12.465 12.437-17.424C68.554 31.95 83.166 26.323 98.363 26.41h212.276zm261.489-50.543c31.894 0 57.732 23.857 57.732 53.758v145.198c0 29.901-25.838 53.758-57.732 53.758H406.174c-15.194.064-29.8-5.568-40.637-15.671-5.308-4.981-9.518-10.913-12.386-17.452a51 51 0 0 1-4.32-20.635V80.133a50.35 50.35 0 0 1 4.261-20.658c2.871-6.544 7.104-12.472 12.445-17.429 5.35-5.023 11.695-8.992 18.669-11.678a59.8 59.8 0 0 1 21.968-3.975zm3.408 50.543H402.747v151.61h172.807zm150.34 149.854h210.388v54.46h-231.28c-9.842-.017-19.285-3.695-26.301-10.242-3.445-3.222-6.185-7.058-8.06-11.288a33.25 33.25 0 0 1-2.868-13.36V24.25h58.121zM1208.42 26.376c25.82 0 46.71 19.219 46.71 43.427V279.09h-54.32v-82.92h-172.79v82.92h-53.935V69.821c-.021-8.64 2.689-17.088 7.78-24.253s12.329-12.718 20.785-15.942c5.64-2.179 11.68-3.268 17.78-3.233zm-7.61 50.542h-172.79v68.691h172.79zm318.94-50.542h54.33v219.949c0 18.165-15.97 32.747-35.34 32.747h-41.77c-6.4.199-12.73-1.334-18.24-4.42-5.51-3.087-9.99-7.598-12.89-13.008L1361.02 76.918h-14.06V279.09h-53.93V59.491c0-18.499 15.57-33.098 34.95-33.098h44.06c12.91 0 25.06 6.413 31.14 17.445l104.79 184.708h11.78V26.376m326.54 0c25.84 0 46.71 19.219 46.71 43.427V279.09h-54.31v-82.92h-172.78v82.92h-53.94V69.821c-.02-8.64 2.69-17.088 7.78-24.253s12.33-12.718 20.78-15.942a48.7 48.7 0 0 1 17.78-3.233zm-7.6 50.542h-172.78v68.691h172.78z"/></mask><path stroke="url(#w)" stroke-width="2" d="M310.639 76.936H94.955v50.543h158.36c15.169.005 29.731 5.65 40.562 15.723 5.321 4.961 9.546 10.878 12.427 17.405a50.9 50.9 0 0 1 4.354 20.612v44.148a50.5 50.5 0 0 1-4.28 20.643c-2.87 6.539-7.096 12.465-12.427 17.426-5.355 5.015-11.701 8.979-18.674 11.665a60 60 0 0 1-21.962 3.988H41.001v-50.543h215.722v-50.507H98.363c-15.172-.011-29.734-5.662-40.563-15.741-5.307-4.971-9.525-10.89-12.408-17.415a51.2 51.2 0 0 1-4.391-20.602V80.133a50.5 50.5 0 0 1 4.288-20.645c2.873-6.54 7.103-12.465 12.437-17.424C68.554 31.95 83.166 26.323 98.363 26.41h212.276zm261.489-50.543c31.894 0 57.732 23.857 57.732 53.758v145.198c0 29.901-25.838 53.758-57.732 53.758H406.174c-15.194.064-29.8-5.568-40.637-15.671-5.308-4.981-9.518-10.913-12.386-17.452a51 51 0 0 1-4.32-20.635V80.133a50.35 50.35 0 0 1 4.261-20.658c2.871-6.544 7.104-12.472 12.445-17.429 5.35-5.023 11.695-8.992 18.669-11.678a59.8 59.8 0 0 1 21.968-3.975zm3.408 50.543H402.747v151.61h172.807zm150.34 149.854h210.388v54.46h-231.28c-9.842-.017-19.285-3.695-26.301-10.242-3.445-3.222-6.185-7.058-8.06-11.288a33.25 33.25 0 0 1-2.868-13.36V24.25h58.121zM1208.42 26.376c25.82 0 46.71 19.219 46.71 43.427V279.09h-54.32v-82.92h-172.79v82.92h-53.935V69.821c-.021-8.64 2.689-17.088 7.78-24.253s12.329-12.718 20.785-15.942c5.64-2.179 11.68-3.268 17.78-3.233zm-7.61 50.542h-172.79v68.691h172.79zm318.94-50.542h54.33v219.949c0 18.165-15.97 32.747-35.34 32.747h-41.77c-6.4.199-12.73-1.334-18.24-4.42-5.51-3.087-9.99-7.598-12.89-13.008L1361.02 76.918h-14.06V279.09h-53.93V59.491c0-18.499 15.57-33.098 34.95-33.098h44.06c12.91 0 25.06 6.413 31.14 17.445l104.79 184.708h11.78V26.376Zm326.54 0c25.84 0 46.71 19.219 46.71 43.427V279.09h-54.31v-82.92h-172.78v82.92h-53.94V69.821c-.02-8.64 2.69-17.088 7.78-24.253s12.33-12.718 20.78-15.942a48.7 48.7 0 0 1 17.78-3.233zm-7.6 50.542h-172.78v68.691h172.78z" mask="url(#x)" shape-rendering="crispEdges"/></g><g filter="url(#y)" opacity=".9"><mask id="A" fill="#fff"><path d="M322.639 64.936H106.954v50.543h158.361c15.169.005 29.731 5.65 40.562 15.723 5.321 4.961 9.546 10.878 12.427 17.405a50.9 50.9 0 0 1 4.354 20.612v44.148a50.5 50.5 0 0 1-4.28 20.643c-2.87 6.539-7.096 12.465-12.427 17.426-5.355 5.015-11.701 8.979-18.674 11.665a60 60 0 0 1-21.962 3.988H53.001v-50.543h215.722v-50.507h-158.36c-15.172-.011-29.734-5.662-40.563-15.741-5.307-4.971-9.525-10.89-12.408-17.415a51.2 51.2 0 0 1-4.391-20.602V68.133a50.5 50.5 0 0 1 4.288-20.645c2.873-6.54 7.103-12.465 12.437-17.424 10.828-10.113 25.44-15.741 40.637-15.653h212.276zm261.489-50.543c31.894 0 57.732 23.857 57.732 53.758v145.198c0 29.901-25.838 53.758-57.732 53.758H418.174c-15.194.064-29.8-5.568-40.637-15.671-5.308-4.981-9.518-10.913-12.386-17.452a51 51 0 0 1-4.32-20.635V68.133a50.35 50.35 0 0 1 4.261-20.658c2.871-6.544 7.104-12.472 12.445-17.429 5.35-5.023 11.695-8.992 18.669-11.678a59.8 59.8 0 0 1 21.968-3.975zm3.408 50.543H414.747v151.61h172.807zm150.34 149.854h210.388v54.46h-231.28c-9.842-.017-19.285-3.695-26.301-10.242-3.445-3.222-6.185-7.058-8.06-11.288a33.25 33.25 0 0 1-2.868-13.36V12.25h58.121zM1220.42 14.376c25.82 0 46.71 19.219 46.71 43.427V267.09h-54.32v-82.92h-172.79v82.92h-53.935V57.821c-.021-8.64 2.689-17.088 7.78-24.253s12.325-12.718 20.785-15.942c5.64-2.179 11.68-3.268 17.78-3.233zm-7.61 50.542h-172.79v68.691h172.79zm318.94-50.542h54.33v219.949c0 18.165-15.97 32.747-35.34 32.747h-41.77c-6.4.199-12.73-1.334-18.24-4.42-5.51-3.087-9.99-7.598-12.89-13.008L1373.02 64.918h-14.06V267.09h-53.93V47.491c0-18.499 15.57-33.098 34.95-33.098h44.06c12.91 0 25.06 6.412 31.14 17.445l104.79 184.708h11.78V14.376m326.54 0c25.84 0 46.71 19.219 46.71 43.427V267.09h-54.31v-82.92h-172.78v82.92h-53.94V57.821c-.02-8.64 2.69-17.088 7.78-24.253s12.33-12.718 20.78-15.942a48.7 48.7 0 0 1 17.78-3.233zm-7.6 50.542h-172.78v68.691h172.78z"/></mask><path stroke="url(#z)" stroke-width="2" d="M322.639 64.936H106.954v50.543h158.361c15.169.005 29.731 5.65 40.562 15.723 5.321 4.961 9.546 10.878 12.427 17.405a50.9 50.9 0 0 1 4.354 20.612v44.148a50.5 50.5 0 0 1-4.28 20.643c-2.87 6.539-7.096 12.465-12.427 17.426-5.355 5.015-11.701 8.979-18.674 11.665a60 60 0 0 1-21.962 3.988H53.001v-50.543h215.722v-50.507h-158.36c-15.172-.011-29.734-5.662-40.563-15.741-5.307-4.971-9.525-10.89-12.408-17.415a51.2 51.2 0 0 1-4.391-20.602V68.133a50.5 50.5 0 0 1 4.288-20.645c2.873-6.54 7.103-12.465 12.437-17.424 10.828-10.113 25.44-15.741 40.637-15.653h212.276zm261.489-50.543c31.894 0 57.732 23.857 57.732 53.758v145.198c0 29.901-25.838 53.758-57.732 53.758H418.174c-15.194.064-29.8-5.568-40.637-15.671-5.308-4.981-9.518-10.913-12.386-17.452a51 51 0 0 1-4.32-20.635V68.133a50.35 50.35 0 0 1 4.261-20.658c2.871-6.544 7.104-12.472 12.445-17.429 5.35-5.023 11.695-8.992 18.669-11.678a59.8 59.8 0 0 1 21.968-3.975zm3.408 50.543H414.747v151.61h172.807zm150.34 149.854h210.388v54.46h-231.28c-9.842-.017-19.285-3.695-26.301-10.242-3.445-3.222-6.185-7.058-8.06-11.288a33.25 33.25 0 0 1-2.868-13.36V12.25h58.121zM1220.42 14.376c25.82 0 46.71 19.219 46.71 43.427V267.09h-54.32v-82.92h-172.79v82.92h-53.935V57.821c-.021-8.64 2.689-17.088 7.78-24.253s12.325-12.718 20.785-15.942c5.64-2.179 11.68-3.268 17.78-3.233zm-7.61 50.542h-172.79v68.691h172.79zm318.94-50.542h54.33v219.949c0 18.165-15.97 32.747-35.34 32.747h-41.77c-6.4.199-12.73-1.334-18.24-4.42-5.51-3.087-9.99-7.598-12.89-13.008L1373.02 64.918h-14.06V267.09h-53.93V47.491c0-18.499 15.57-33.098 34.95-33.098h44.06c12.91 0 25.06 6.412 31.14 17.445l104.79 184.708h11.78V14.376Zm326.54 0c25.84 0 46.71 19.219 46.71 43.427V267.09h-54.31v-82.92h-172.78v82.92h-53.94V57.821c-.02-8.64 2.69-17.088 7.78-24.253s12.33-12.718 20.78-15.942a48.7 48.7 0 0 1 17.78-3.233zm-7.6 50.542h-172.78v68.691h172.78z" mask="url(#A)" shape-rendering="crispEdges"/></g><g filter="url(#B)"><mask id="D" fill="#fff"><path d="M334.639 52.936H118.954v50.543h158.361c15.169.005 29.731 5.65 40.562 15.723 5.321 4.961 9.546 10.878 12.427 17.405a50.9 50.9 0 0 1 4.354 20.612v44.148a50.5 50.5 0 0 1-4.28 20.643c-2.87 6.539-7.096 12.465-12.427 17.426-5.355 5.015-11.701 8.979-18.674 11.665a60 60 0 0 1-21.962 3.988H65.001v-50.543h215.722v-50.507h-158.36c-15.172-.011-29.734-5.662-40.563-15.741-5.307-4.971-9.525-10.89-12.408-17.415a51.2 51.2 0 0 1-4.391-20.602V56.133a50.5 50.5 0 0 1 4.288-20.645c2.873-6.54 7.103-12.465 12.437-17.424C92.554 7.95 107.167 2.322 122.363 2.41h212.276zM596.128 2.393c31.894 0 57.732 23.857 57.732 53.758v145.198c0 29.901-25.838 53.758-57.732 53.758H430.174c-15.194.064-29.8-5.568-40.637-15.671-5.308-4.981-9.518-10.913-12.386-17.452a51 51 0 0 1-4.32-20.635V56.133a50.35 50.35 0 0 1 4.261-20.658c2.871-6.544 7.104-12.472 12.445-17.429 5.35-5.023 11.695-8.992 18.669-11.678a59.8 59.8 0 0 1 21.968-3.975zm3.408 50.543H426.747v151.61h172.807zm150.34 149.854h210.388v54.46h-231.28c-9.842-.017-19.285-3.695-26.301-10.242-3.445-3.222-6.185-7.058-8.06-11.288a33.25 33.25 0 0 1-2.868-13.36V.25h58.121zM1232.42 2.376c25.82 0 46.71 19.219 46.71 43.427V255.09h-54.32v-82.92h-172.79v82.92h-53.935V45.821c-.021-8.64 2.685-17.088 7.775-24.253 5.1-7.165 12.33-12.718 20.79-15.942 5.64-2.179 11.68-3.268 17.78-3.233zm-7.61 50.542h-172.79v68.691h172.79zm318.94-50.542h54.33v219.949c0 18.165-15.97 32.747-35.34 32.747h-41.77c-6.4.199-12.73-1.334-18.24-4.42-5.51-3.087-9.99-7.598-12.89-13.008L1385.02 52.918h-14.06V255.09h-53.93V35.491c0-18.499 15.57-33.098 34.95-33.098h44.06c12.91 0 25.06 6.413 31.14 17.445l104.79 184.708h11.78V2.376m326.54 0c25.84 0 46.71 19.219 46.71 43.427V255.09h-54.31v-82.92h-172.78v82.92h-53.94V45.821c-.02-8.64 2.69-17.088 7.78-24.253s12.33-12.718 20.78-15.942a48.7 48.7 0 0 1 17.78-3.233zm-7.6 50.542h-172.78v68.691h172.78z"/></mask><path stroke="url(#C)" stroke-width="2" d="M334.639 52.936H118.954v50.543h158.361c15.169.005 29.731 5.65 40.562 15.723 5.321 4.961 9.546 10.878 12.427 17.405a50.9 50.9 0 0 1 4.354 20.612v44.148a50.5 50.5 0 0 1-4.28 20.643c-2.87 6.539-7.096 12.465-12.427 17.426-5.355 5.015-11.701 8.979-18.674 11.665a60 60 0 0 1-21.962 3.988H65.001v-50.543h215.722v-50.507h-158.36c-15.172-.011-29.734-5.662-40.563-15.741-5.307-4.971-9.525-10.89-12.408-17.415a51.2 51.2 0 0 1-4.391-20.602V56.133a50.5 50.5 0 0 1 4.288-20.645c2.873-6.54 7.103-12.465 12.437-17.424C92.554 7.95 107.167 2.322 122.363 2.41h212.276zM596.128 2.393c31.894 0 57.732 23.857 57.732 53.758v145.198c0 29.901-25.838 53.758-57.732 53.758H430.174c-15.194.064-29.8-5.568-40.637-15.671-5.308-4.981-9.518-10.913-12.386-17.452a51 51 0 0 1-4.32-20.635V56.133a50.35 50.35 0 0 1 4.261-20.658c2.871-6.544 7.104-12.472 12.445-17.429 5.35-5.023 11.695-8.992 18.669-11.678a59.8 59.8 0 0 1 21.968-3.975zm3.408 50.543H426.747v151.61h172.807zm150.34 149.854h210.388v54.46h-231.28c-9.842-.017-19.285-3.695-26.301-10.242-3.445-3.222-6.185-7.058-8.06-11.288a33.25 33.25 0 0 1-2.868-13.36V.25h58.121zM1232.42 2.376c25.82 0 46.71 19.219 46.71 43.427V255.09h-54.32v-82.92h-172.79v82.92h-53.935V45.821c-.021-8.64 2.685-17.088 7.775-24.253 5.1-7.165 12.33-12.718 20.79-15.942 5.64-2.179 11.68-3.268 17.78-3.233zm-7.61 50.542h-172.79v68.691h172.79zm318.94-50.542h54.33v219.949c0 18.165-15.97 32.747-35.34 32.747h-41.77c-6.4.199-12.73-1.334-18.24-4.42-5.51-3.087-9.99-7.598-12.89-13.008L1385.02 52.918h-14.06V255.09h-53.93V35.491c0-18.499 15.57-33.098 34.95-33.098h44.06c12.91 0 25.06 6.413 31.14 17.445l104.79 184.708h11.78V2.376Zm326.54 0c25.84 0 46.71 19.219 46.71 43.427V255.09h-54.31v-82.92h-172.78v82.92h-53.94V45.821c-.02-8.64 2.69-17.088 7.78-24.253s12.33-12.718 20.78-15.942a48.7 48.7 0 0 1 17.78-3.233zm-7.6 50.542h-172.78v68.691h172.78z" mask="url(#D)" shape-rendering="crispEdges"/></g><defs><linearGradient id="b" x1="113.296" x2="177.453" y1="371.38" y2="-94.776" gradientUnits="userSpaceOnUse"><stop offset=".08" stop-color="#9945ff" style="stop-color:#9945ff;stop-color:color(display-p3 .6 .2706 1);stop-opacity:1"/><stop offset=".3" stop-color="#8752f3" style="stop-color:#8752f3;stop-color:color(display-p3 .5294 .3216 .9529);stop-opacity:1"/><stop offset=".5" stop-color="#5497d5" style="stop-color:#5497d5;stop-color:color(display-p3 .3294 .5922 .8353);stop-opacity:1"/><stop offset=".6" stop-color="#43b4ca" style="stop-color:#43b4ca;stop-color:color(display-p3 .2627 .7059 .7922);stop-opacity:1"/><stop offset=".72" stop-color="#28e0b9" style="stop-color:#28e0b9;stop-color:color(display-p3 .1569 .8784 .7255);stop-opacity:1"/><stop offset=".97" stop-color="#14f195" style="stop-color:#14f195;stop-color:color(display-p3 .0784 .9451 .5843);stop-opacity:1"/></linearGradient><linearGradient id="e" x1="125.296" x2="189.453" y1="359.38" y2="-106.776" gradientUnits="userSpaceOnUse"><stop offset=".08" stop-color="#9945ff" style="stop-color:#9945ff;stop-color:color(display-p3 .6 .2706 1);stop-opacity:1"/><stop offset=".3" stop-color="#8752f3" style="stop-color:#8752f3;stop-color:color(display-p3 .5294 .3216 .9529);stop-opacity:1"/><stop offset=".5" stop-color="#5497d5" style="stop-color:#5497d5;stop-color:color(display-p3 .3294 .5922 .8353);stop-opacity:1"/><stop offset=".6" stop-color="#43b4ca" style="stop-color:#43b4ca;stop-color:color(display-p3 .2627 .7059 .7922);stop-opacity:1"/><stop offset=".72" stop-color="#28e0b9" style="stop-color:#28e0b9;stop-color:color(display-p3 .1569 .8784 .7255);stop-opacity:1"/><stop offset=".97" stop-color="#14f195" style="stop-color:#14f195;stop-color:color(display-p3 .0784 .9451 .5843);stop-opacity:1"/></linearGradient><linearGradient id="h" x1="137.296" x2="201.453" y1="347.38" y2="-118.776" gradientUnits="userSpaceOnUse"><stop offset=".08" stop-color="#9945ff" style="stop-color:#9945ff;stop-color:color(display-p3 .6 .2706 1);stop-opacity:1"/><stop offset=".3" stop-color="#8752f3" style="stop-color:#8752f3;stop-color:color(display-p3 .5294 .3216 .9529);stop-opacity:1"/><stop offset=".5" stop-color="#5497d5" style="stop-color:#5497d5;stop-color:color(display-p3 .3294 .5922 .8353);stop-opacity:1"/><stop offset=".6" stop-color="#43b4ca" style="stop-color:#43b4ca;stop-color:color(display-p3 .2627 .7059 .7922);stop-opacity:1"/><stop offset=".72" stop-color="#28e0b9" style="stop-color:#28e0b9;stop-color:color(display-p3 .1569 .8784 .7255);stop-opacity:1"/><stop offset=".97" stop-color="#14f195" style="stop-color:#14f195;stop-color:color(display-p3 .0784 .9451 .5843);stop-opacity:1"/></linearGradient><linearGradient id="k" x1="149.296" x2="213.453" y1="335.38" y2="-130.776" gradientUnits="userSpaceOnUse"><stop offset=".08" stop-color="#9945ff" style="stop-color:#9945ff;stop-color:color(display-p3 .6 .2706 1);stop-opacity:1"/><stop offset=".3" stop-color="#8752f3" style="stop-color:#8752f3;stop-color:color(display-p3 .5294 .3216 .9529);stop-opacity:1"/><stop offset=".5" stop-color="#5497d5" style="stop-color:#5497d5;stop-color:color(display-p3 .3294 .5922 .8353);stop-opacity:1"/><stop offset=".6" stop-color="#43b4ca" style="stop-color:#43b4ca;stop-color:color(display-p3 .2627 .7059 .7922);stop-opacity:1"/><stop offset=".72" stop-color="#28e0b9" style="stop-color:#28e0b9;stop-color:color(display-p3 .1569 .8784 .7255);stop-opacity:1"/><stop offset=".97" stop-color="#14f195" style="stop-color:#14f195;stop-color:color(display-p3 .0784 .9451 .5843);stop-opacity:1"/></linearGradient><linearGradient id="n" x1="161.296" x2="225.453" y1="323.38" y2="-142.776" gradientUnits="userSpaceOnUse"><stop offset=".08" stop-color="#9945ff" style="stop-color:#9945ff;stop-color:color(display-p3 .6 .2706 1);stop-opacity:1"/><stop offset=".3" stop-color="#8752f3" style="stop-color:#8752f3;stop-color:color(display-p3 .5294 .3216 .9529);stop-opacity:1"/><stop offset=".5" stop-color="#5497d5" style="stop-color:#5497d5;stop-color:color(display-p3 .3294 .5922 .8353);stop-opacity:1"/><stop offset=".6" stop-color="#43b4ca" style="stop-color:#43b4ca;stop-color:color(display-p3 .2627 .7059 .7922);stop-opacity:1"/><stop offset=".72" stop-color="#28e0b9" style="stop-color:#28e0b9;stop-color:color(display-p3 .1569 .8784 .7255);stop-opacity:1"/><stop offset=".97" stop-color="#14f195" style="stop-color:#14f195;stop-color:color(display-p3 .0784 .9451 .5843);stop-opacity:1"/></linearGradient><linearGradient id="q" x1="173.296" x2="237.453" y1="311.38" y2="-154.776" gradientUnits="userSpaceOnUse"><stop offset=".08" stop-color="#9945ff" style="stop-color:#9945ff;stop-color:color(display-p3 .6 .2706 1);stop-opacity:1"/><stop offset=".3" stop-color="#8752f3" style="stop-color:#8752f3;stop-color:color(display-p3 .5294 .3216 .9529);stop-opacity:1"/><stop offset=".5" stop-color="#5497d5" style="stop-color:#5497d5;stop-color:color(display-p3 .3294 .5922 .8353);stop-opacity:1"/><stop offset=".6" stop-color="#43b4ca" style="stop-color:#43b4ca;stop-color:color(display-p3 .2627 .7059 .7922);stop-opacity:1"/><stop offset=".72" stop-color="#28e0b9" style="stop-color:#28e0b9;stop-color:color(display-p3 .1569 .8784 .7255);stop-opacity:1"/><stop offset=".97" stop-color="#14f195" style="stop-color:#14f195;stop-color:color(display-p3 .0784 .9451 .5843);stop-opacity:1"/></linearGradient><linearGradient id="t" x1="185.296" x2="249.453" y1="299.38" y2="-166.776" gradientUnits="userSpaceOnUse"><stop offset=".08" stop-color="#9945ff" style="stop-color:#9945ff;stop-color:color(display-p3 .6 .2706 1);stop-opacity:1"/><stop offset=".3" stop-color="#8752f3" style="stop-color:#8752f3;stop-color:color(display-p3 .5294 .3216 .9529);stop-opacity:1"/><stop offset=".5" stop-color="#5497d5" style="stop-color:#5497d5;stop-color:color(display-p3 .3294 .5922 .8353);stop-opacity:1"/><stop offset=".6" stop-color="#43b4ca" style="stop-color:#43b4ca;stop-color:color(display-p3 .2627 .7059 .7922);stop-opacity:1"/><stop offset=".72" stop-color="#28e0b9" style="stop-color:#28e0b9;stop-color:color(display-p3 .1569 .8784 .7255);stop-opacity:1"/><stop offset=".97" stop-color="#14f195" style="stop-color:#14f195;stop-color:color(display-p3 .0784 .9451 .5843);stop-opacity:1"/></linearGradient><linearGradient id="w" x1="197.296" x2="261.453" y1="287.38" y2="-178.776" gradientUnits="userSpaceOnUse"><stop offset=".08" stop-color="#9945ff" style="stop-color:#9945ff;stop-color:color(display-p3 .6 .2706 1);stop-opacity:1"/><stop offset=".3" stop-color="#8752f3" style="stop-color:#8752f3;stop-color:color(display-p3 .5294 .3216 .9529);stop-opacity:1"/><stop offset=".5" stop-color="#5497d5" style="stop-color:#5497d5;stop-color:color(display-p3 .3294 .5922 .8353);stop-opacity:1"/><stop offset=".6" stop-color="#43b4ca" style="stop-color:#43b4ca;stop-color:color(display-p3 .2627 .7059 .7922);stop-opacity:1"/><stop offset=".72" stop-color="#28e0b9" style="stop-color:#28e0b9;stop-color:color(display-p3 .1569 .8784 .7255);stop-opacity:1"/><stop offset=".97" stop-color="#14f195" style="stop-color:#14f195;stop-color:color(display-p3 .0784 .9451 .5843);stop-opacity:1"/></linearGradient><linearGradient id="z" x1="209.296" x2="273.453" y1="275.38" y2="-190.776" gradientUnits="userSpaceOnUse"><stop offset=".08" stop-color="#9945ff" style="stop-color:#9945ff;stop-color:color(display-p3 .6 .2706 1);stop-opacity:1"/><stop offset=".3" stop-color="#8752f3" style="stop-color:#8752f3;stop-color:color(display-p3 .5294 .3216 .9529);stop-opacity:1"/><stop offset=".5" stop-color="#5497d5" style="stop-color:#5497d5;stop-color:color(display-p3 .3294 .5922 .8353);stop-opacity:1"/><stop offset=".6" stop-color="#43b4ca" style="stop-color:#43b4ca;stop-color:color(display-p3 .2627 .7059 .7922);stop-opacity:1"/><stop offset=".72" stop-color="#28e0b9" style="stop-color:#28e0b9;stop-color:color(display-p3 .1569 .8784 .7255);stop-opacity:1"/><stop offset=".97" stop-color="#14f195" style="stop-color:#14f195;stop-color:color(display-p3 .0784 .9451 .5843);stop-opacity:1"/></linearGradient><linearGradient id="C" x1="221.296" x2="285.453" y1="263.38" y2="-202.776" gradientUnits="userSpaceOnUse"><stop offset=".08" stop-color="#9945ff" style="stop-color:#9945ff;stop-color:color(display-p3 .6 .2706 1);stop-opacity:1"/><stop offset=".3" stop-color="#8752f3" style="stop-color:#8752f3;stop-color:color(display-p3 .5294 .3216 .9529);stop-opacity:1"/><stop offset=".5" stop-color="#5497d5" style="stop-color:#5497d5;stop-color:color(display-p3 .3294 .5922 .8353);stop-opacity:1"/><stop offset=".6" stop-color="#43b4ca" style="stop-color:#43b4ca;stop-color:color(display-p3 .2627 .7059 .7922);stop-opacity:1"/><stop offset=".72" stop-color="#28e0b9" style="stop-color:#28e0b9;stop-color:color(display-p3 .1569 .8784 .7255);stop-opacity:1"/><stop offset=".97" stop-color="#14f195" style="stop-color:#14f195;stop-color:color(display-p3 .0784 .9451 .5843);stop-opacity:1"/></linearGradient><filter id="a" width="1857.55" height="262.548" x="-45.774" y="108.25" color-interpolation-filters="sRGB" filterUnits="userSpaceOnUse"><feFlood flood-opacity="0" result="BackgroundImageFix"/><feColorMatrix in="SourceAlpha" result="hardAlpha" values="0 0 0 0 0 0 0 0 0 0 0 0 0 0 0 0 0 0 127 0"/><feOffset dy="2.774"/><feGaussianBlur stdDeviation="1.387"/><feComposite in2="hardAlpha" operator="out"/><feColorMatrix values="0 0 0 0 0 0 0 0 0 0 0 0 0 0 0 0 0 0 0.37 0"/><feBlend in2="BackgroundImageFix" result="effect1_dropShadow_382_5418"/><feBlend in="SourceGraphic" in2="effect1_dropShadow_382_5418" result="shape"/><feColorMatrix in="SourceAlpha" result="hardAlpha" values="0 0 0 0 0 0 0 0 0 0 0 0 0 0 0 0 0 0 127 0"/><feOffset dx="-1.387" dy="2.774"/><feGaussianBlur stdDeviation=".693"/><feComposite in2="hardAlpha" k2="-1" k3="1" operator="arithmetic"/><feColorMatrix values="0 0 0 0 0.139548 0 0 0 0 0.139548 0 0 0 0 0.184085 0 0 0 1 0"/><feBlend in2="shape" result="effect2_innerShadow_382_5418"/></filter><filter id="d" width="1857.55" height="262.548" x="-33.774" y="96.25" color-interpolation-filters="sRGB" filterUnits="userSpaceOnUse"><feFlood flood-opacity="0" result="BackgroundImageFix"/><feColorMatrix in="SourceAlpha" result="hardAlpha" values="0 0 0 0 0 0 0 0 0 0 0 0 0 0 0 0 0 0 127 0"/><feOffset dy="2.774"/><feGaussianBlur stdDeviation="1.387"/><feComposite in2="hardAlpha" operator="out"/><feColorMatrix values="0 0 0 0 0 0 0 0 0 0 0 0 0 0 0 0 0 0 0.37 0"/><feBlend in2="BackgroundImageFix" result="effect1_dropShadow_382_5418"/><feBlend in="SourceGraphic" in2="effect1_dropShadow_382_5418" result="shape"/><feColorMatrix in="SourceAlpha" result="hardAlpha" values="0 0 0 0 0 0 0 0 0 0 0 0 0 0 0 0 0 0 127 0"/><feOffset dx="-1.387" dy="2.774"/><feGaussianBlur stdDeviation=".693"/><feComposite in2="hardAlpha" k2="-1" k3="1" operator="arithmetic"/><feColorMatrix values="0 0 0 0 0.139548 0 0 0 0 0.139548 0 0 0 0 0.184085 0 0 0 1 0"/><feBlend in2="shape" result="effect2_innerShadow_382_5418"/></filter><filter id="g" width="1857.55" height="262.548" x="-21.774" y="84.25" color-interpolation-filters="sRGB" filterUnits="userSpaceOnUse"><feFlood flood-opacity="0" result="BackgroundImageFix"/><feColorMatrix in="SourceAlpha" result="hardAlpha" values="0 0 0 0 0 0 0 0 0 0 0 0 0 0 0 0 0 0 127 0"/><feOffset dy="2.774"/><feGaussianBlur stdDeviation="1.387"/><feComposite in2="hardAlpha" operator="out"/><feColorMatrix values="0 0 0 0 0 0 0 0 0 0 0 0 0 0 0 0 0 0 0.37 0"/><feBlend in2="BackgroundImageFix" result="effect1_dropShadow_382_5418"/><feBlend in="SourceGraphic" in2="effect1_dropShadow_382_5418" result="shape"/><feColorMatrix in="SourceAlpha" result="hardAlpha" values="0 0 0 0 0 0 0 0 0 0 0 0 0 0 0 0 0 0 127 0"/><feOffset dx="-1.387" dy="2.774"/><feGaussianBlur stdDeviation=".693"/><feComposite in2="hardAlpha" k2="-1" k3="1" operator="arithmetic"/><feColorMatrix values="0 0 0 0 0.139548 0 0 0 0 0.139548 0 0 0 0 0.184085 0 0 0 1 0"/><feBlend in2="shape" result="effect2_innerShadow_382_5418"/></filter><filter id="j" width="1857.55" height="262.548" x="-9.774" y="72.25" color-interpolation-filters="sRGB" filterUnits="userSpaceOnUse"><feFlood flood-opacity="0" result="BackgroundImageFix"/><feColorMatrix in="SourceAlpha" result="hardAlpha" values="0 0 0 0 0 0 0 0 0 0 0 0 0 0 0 0 0 0 127 0"/><feOffset dy="2.774"/><feGaussianBlur stdDeviation="1.387"/><feComposite in2="hardAlpha" operator="out"/><feColorMatrix values="0 0 0 0 0 0 0 0 0 0 0 0 0 0 0 0 0 0 0.37 0"/><feBlend in2="BackgroundImageFix" result="effect1_dropShadow_382_5418"/><feBlend in="SourceGraphic" in2="effect1_dropShadow_382_5418" result="shape"/><feColorMatrix in="SourceAlpha" result="hardAlpha" values="0 0 0 0 0 0 0 0 0 0 0 0 0 0 0 0 0 0 127 0"/><feOffset dx="-1.387" dy="2.774"/><feGaussianBlur stdDeviation=".693"/><feComposite in2="hardAlpha" k2="-1" k3="1" operator="arithmetic"/><feColorMatrix values="0 0 0 0 0.139548 0 0 0 0 0.139548 0 0 0 0 0.184085 0 0 0 1 0"/><feBlend in2="shape" result="effect2_innerShadow_382_5418"/></filter><filter id="m" width="1857.55" height="262.548" x="2.226" y="60.25" color-interpolation-filters="sRGB" filterUnits="userSpaceOnUse"><feFlood flood-opacity="0" result="BackgroundImageFix"/><feColorMatrix in="SourceAlpha" result="hardAlpha" values="0 0 0 0 0 0 0 0 0 0 0 0 0 0 0 0 0 0 127 0"/><feOffset dy="2.774"/><feGaussianBlur stdDeviation="1.387"/><feComposite in2="hardAlpha" operator="out"/><feColorMatrix values="0 0 0 0 0 0 0 0 0 0 0 0 0 0 0 0 0 0 0.37 0"/><feBlend in2="BackgroundImageFix" result="effect1_dropShadow_382_5418"/><feBlend in="SourceGraphic" in2="effect1_dropShadow_382_5418" result="shape"/><feColorMatrix in="SourceAlpha" result="hardAlpha" values="0 0 0 0 0 0 0 0 0 0 0 0 0 0 0 0 0 0 127 0"/><feOffset dx="-1.387" dy="2.774"/><feGaussianBlur stdDeviation=".693"/><feComposite in2="hardAlpha" k2="-1" k3="1" operator="arithmetic"/><feColorMatrix values="0 0 0 0 0.139548 0 0 0 0 0.139548 0 0 0 0 0.184085 0 0 0 1 0"/><feBlend in2="shape" result="effect2_innerShadow_382_5418"/></filter><filter id="p" width="1857.55" height="262.548" x="14.226" y="48.25" color-interpolation-filters="sRGB" filterUnits="userSpaceOnUse"><feFlood flood-opacity="0" result="BackgroundImageFix"/><feColorMatrix in="SourceAlpha" result="hardAlpha" values="0 0 0 0 0 0 0 0 0 0 0 0 0 0 0 0 0 0 127 0"/><feOffset dy="2.774"/><feGaussianBlur stdDeviation="1.387"/><feComposite in2="hardAlpha" operator="out"/><feColorMatrix values="0 0 0 0 0 0 0 0 0 0 0 0 0 0 0 0 0 0 0.37 0"/><feBlend in2="BackgroundImageFix" result="effect1_dropShadow_382_5418"/><feBlend in="SourceGraphic" in2="effect1_dropShadow_382_5418" result="shape"/><feColorMatrix in="SourceAlpha" result="hardAlpha" values="0 0 0 0 0 0 0 0 0 0 0 0 0 0 0 0 0 0 127 0"/><feOffset dx="-1.387" dy="2.774"/><feGaussianBlur stdDeviation=".693"/><feComposite in2="hardAlpha" k2="-1" k3="1" operator="arithmetic"/><feColorMatrix values="0 0 0 0 0.139548 0 0 0 0 0.139548 0 0 0 0 0.184085 0 0 0 1 0"/><feBlend in2="shape" result="effect2_innerShadow_382_5418"/></filter><filter id="s" width="1857.55" height="262.548" x="26.226" y="36.25" color-interpolation-filters="sRGB" filterUnits="userSpaceOnUse"><feFlood flood-opacity="0" result="BackgroundImageFix"/><feColorMatrix in="SourceAlpha" result="hardAlpha" values="0 0 0 0 0 0 0 0 0 0 0 0 0 0 0 0 0 0 127 0"/><feOffset dy="2.774"/><feGaussianBlur stdDeviation="1.387"/><feComposite in2="hardAlpha" operator="out"/><feColorMatrix values="0 0 0 0 0 0 0 0 0 0 0 0 0 0 0 0 0 0 0.37 0"/><feBlend in2="BackgroundImageFix" result="effect1_dropShadow_382_5418"/><feBlend in="SourceGraphic" in2="effect1_dropShadow_382_5418" result="shape"/><feColorMatrix in="SourceAlpha" result="hardAlpha" values="0 0 0 0 0 0 0 0 0 0 0 0 0 0 0 0 0 0 127 0"/><feOffset dx="-1.387" dy="2.774"/><feGaussianBlur stdDeviation=".693"/><feComposite in2="hardAlpha" k2="-1" k3="1" operator="arithmetic"/><feColorMatrix values="0 0 0 0 0.139548 0 0 0 0 0.139548 0 0 0 0 0.184085 0 0 0 1 0"/><feBlend in2="shape" result="effect2_innerShadow_382_5418"/></filter><filter id="v" width="1857.55" height="262.548" x="38.226" y="24.25" color-interpolation-filters="sRGB" filterUnits="userSpaceOnUse"><feFlood flood-opacity="0" result="BackgroundImageFix"/><feColorMatrix in="SourceAlpha" result="hardAlpha" values="0 0 0 0 0 0 0 0 0 0 0 0 0 0 0 0 0 0 127 0"/><feOffset dy="2.774"/><feGaussianBlur stdDeviation="1.387"/><feComposite in2="hardAlpha" operator="out"/><feColorMatrix values="0 0 0 0 0 0 0 0 0 0 0 0 0 0 0 0 0 0 0.37 0"/><feBlend in2="BackgroundImageFix" result="effect1_dropShadow_382_5418"/><feBlend in="SourceGraphic" in2="effect1_dropShadow_382_5418" result="shape"/><feColorMatrix in="SourceAlpha" result="hardAlpha" values="0 0 0 0 0 0 0 0 0 0 0 0 0 0 0 0 0 0 127 0"/><feOffset dx="-1.387" dy="2.774"/><feGaussianBlur stdDeviation=".693"/><feComposite in2="hardAlpha" k2="-1" k3="1" operator="arithmetic"/><feColorMatrix values="0 0 0 0 0.139548 0 0 0 0 0.139548 0 0 0 0 0.184085 0 0 0 1 0"/><feBlend in2="shape" result="effect2_innerShadow_382_5418"/></filter><filter id="y" width="1857.55" height="262.548" x="50.226" y="12.25" color-interpolation-filters="sRGB" filterUnits="userSpaceOnUse"><feFlood flood-opacity="0" result="BackgroundImageFix"/><feColorMatrix in="SourceAlpha" result="hardAlpha" values="0 0 0 0 0 0 0 0 0 0 0 0 0 0 0 0 0 0 127 0"/><feOffset dy="2.774"/><feGaussianBlur stdDeviation="1.387"/><feComposite in2="hardAlpha" operator="out"/><feColorMatrix values="0 0 0 0 0 0 0 0 0 0 0 0 0 0 0 0 0 0 0.37 0"/><feBlend in2="BackgroundImageFix" result="effect1_dropShadow_382_5418"/><feBlend in="SourceGraphic" in2="effect1_dropShadow_382_5418" result="shape"/><feColorMatrix in="SourceAlpha" result="hardAlpha" values="0 0 0 0 0 0 0 0 0 0 0 0 0 0 0 0 0 0 127 0"/><feOffset dx="-1.387" dy="2.774"/><feGaussianBlur stdDeviation=".693"/><feComposite in2="hardAlpha" k2="-1" k3="1" operator="arithmetic"/><feColorMatrix values="0 0 0 0 0.139548 0 0 0 0 0.139548 0 0 0 0 0.184085 0 0 0 1 0"/><feBlend in2="shape" result="effect2_innerShadow_382_5418"/></filter><filter id="B" width="1857.55" height="262.548" x="62.226" y=".25" color-interpolation-filters="sRGB" filterUnits="userSpaceOnUse"><feFlood flood-opacity="0" result="BackgroundImageFix"/><feColorMatrix in="SourceAlpha" result="hardAlpha" values="0 0 0 0 0 0 0 0 0 0 0 0 0 0 0 0 0 0 127 0"/><feOffset dy="2.774"/><feGaussianBlur stdDeviation="1.387"/><feComposite in2="hardAlpha" operator="out"/><feColorMatrix values="0 0 0 0 0 0 0 0 0 0 0 0 0 0 0 0 0 0 0.37 0"/><feBlend in2="BackgroundImageFix" result="effect1_dropShadow_382_5418"/><feBlend in="SourceGraphic" in2="effect1_dropShadow_382_5418" result="shape"/><feColorMatrix in="SourceAlpha" result="hardAlpha" values="0 0 0 0 0 0 0 0 0 0 0 0 0 0 0 0 0 0 127 0"/><feOffset dx="-1.387" dy="2.774"/><feGaussianBlur stdDeviation=".693"/><feComposite in2="hardAlpha" k2="-1" k3="1" operator="arithmetic"/><feColorMatrix values="0 0 0 0 0.139548 0 0 0 0 0.139548 0 0 0 0 0.184085 0 0 0 1 0"/><feBlend in2="shape" result="effect2_innerShadow_382_5418"/></filter></defs></svg>