<svg height="20" width="20" viewBox="0 0 20 20" xmlns="http://www.w3.org/2000/svg" fill="currentColor"><path d="M1.31748 8.89962C6.46345 6.66537 9.89405 5.19227 11.6094 4.4806C16.5127 2.44838 17.5302 2.09543 18.1949 2.08361C18.341 2.08114 18.6664 2.11715 18.8788 2.2884C19.0553 2.43271 19.105 2.62788 19.1298 2.76477C19.1518 2.90166 19.1822 3.21366 19.1574 3.4572C18.8926 6.23903 17.7427 12.9896 17.158 16.1054C16.9126 17.4238 16.4244 17.8658 15.9528 17.909C14.927 18.003 14.1492 17.2339 13.1564 16.5854C11.6038 15.5702 10.7269 14.9385 9.21842 13.9481C7.47552 12.8035 8.60617 12.1743 9.59896 11.1462C9.85819 10.8771 14.3754 6.78275 14.4608 6.41138C14.4719 6.36492 14.483 6.19175 14.3782 6.10048C14.2761 6.00895 14.1244 6.04028 14.0141 6.06502C13.8569 6.10021 11.3776 7.73522 6.56812 10.9698C5.8649 11.4519 5.22787 11.6869 4.65426 11.6746C4.02549 11.6611 2.81216 11.3194 1.91037 11.0275C0.807272 10.6693 -0.0724949 10.4799 0.0047222 9.87161C0.0433308 9.55495 0.481884 9.23086 1.31748 8.89962Z" fill="currentColor" /></svg>