<svg width="213" height="40" viewBox="0 0 213 40" fill="none" xmlns="http://www.w3.org/2000/svg">
<path fill-rule="evenodd" clip-rule="evenodd" d="M8.35733 3.61772C16.8948 -2.48259 28.5416 -0.668318 34.9348 7.55523C33.7808 9.02797 32.5154 10.2794 31.1258 11.2849C30.1313 12.004 29.0651 12.6049 27.9219 13.0797C27.8841 13.0962 27.8463 13.1122 27.808 13.1267C27.1814 13.3656 26.2997 13.3821 25.9023 12.7211C23.1487 8.1241 18.1396 8.27583 14.1378 12.0426C10.2743 15.6801 8.78567 21.177 11.8008 25.5717C14.8154 29.9654 20.3564 30.3595 25.0559 27.9564C29.8016 25.5307 31.4031 20.9702 28.5941 16.8249C28.2609 16.3301 28.6014 15.904 29.0612 15.6846C29.0881 15.6721 29.1161 15.6616 29.1436 15.6496C30.4159 15.1047 31.6106 14.4212 32.7337 13.6095C34.1356 12.5959 35.4118 11.3911 36.5727 10.012C41.6044 18.895 39.2261 30.3856 30.8359 36.3817C21.9711 42.7169 9.75325 40.5175 3.54544 31.4702C-2.66188 22.4229 -0.507402 9.95289 8.35733 3.61772" fill="white"/>
<path fill-rule="evenodd" clip-rule="evenodd" d="M204.252 24.2817C205.706 25.1081 207.164 25.5251 208.629 25.5251C209.848 25.5251 210.562 25.0781 210.775 24.1929C210.844 23.8906 210.88 23.5213 210.88 23.086C210.88 22.6508 210.83 22.3109 210.732 22.0674C210.634 21.8274 210.468 21.6468 210.234 21.5292C210.003 21.411 209.697 21.3222 209.31 21.2628C208.928 21.208 208.437 21.1269 207.845 21.0198C207.254 20.9164 206.713 20.7987 206.219 20.6688C205.724 20.5405 205.306 20.3517 204.96 20.1082C204.226 19.5812 203.876 18.6949 203.906 17.448V17.1787C203.906 15.8648 204.328 14.9314 205.172 14.3784C205.991 13.8321 207.341 13.6444 209.22 13.8174C210.505 13.9396 211.525 14.1639 212.287 14.4961L211.789 16.1311C210.945 15.7618 209.927 15.4965 208.744 15.3301C208.38 15.2784 208.036 15.2525 207.715 15.2525C207.395 15.2525 207.102 15.2784 206.843 15.3301C206.583 15.3778 206.363 15.4742 206.186 15.6106C205.85 15.8907 205.674 16.4152 205.659 17.1787C205.638 18.0796 205.883 18.6508 206.399 18.8984C206.893 19.1343 207.477 19.3006 208.152 19.3889C208.831 19.4777 209.382 19.5583 209.812 19.6253C210.241 19.6948 210.634 19.7876 210.984 19.9018C211.337 20.0164 211.641 20.2006 211.893 20.4512C212.424 20.9645 212.68 21.8538 212.666 23.1231C212.63 25.3363 211.728 26.5985 209.959 26.9084C209.426 27.0008 208.888 27.0489 208.354 27.0489C207.817 27.0489 207.326 27.0119 206.878 26.9455C206.431 26.8755 206.006 26.7796 205.594 26.6578C204.818 26.4367 204.118 26.1374 203.491 25.7721L204.252 24.2817ZM199.716 15.5331C198.813 15.5331 197.894 15.9947 196.959 16.9164V26.8309H195.202V13.9686H196.746L196.916 15.6771C197.248 15.1491 197.605 14.7402 197.987 14.4444C198.373 14.1456 198.687 13.9686 198.936 13.9027C199.286 13.8027 199.621 13.751 199.939 13.751C200.256 13.751 200.653 13.8174 201.134 13.9468L200.974 15.666C200.613 15.5767 200.195 15.5331 199.716 15.5331V15.5331ZM188.976 19.5667V18.5298C188.976 17.397 188.759 16.5925 188.33 16.1085C187.85 15.5662 187.023 15.2969 185.847 15.2969C184.437 15.2969 183.474 15.6109 182.961 16.2384C182.467 16.836 182.222 17.9464 182.222 19.5667H188.976ZM190.644 26.1481C189.187 26.7497 187.575 27.049 185.814 27.049C184.792 27.049 183.923 26.9384 183.212 26.7238C182.079 26.3926 181.325 25.7062 180.95 24.6688C180.607 23.6953 180.434 22.2562 180.434 20.3447V19.7948C180.434 17.5105 180.9 15.9054 181.827 14.9837C182.668 14.1604 184.067 13.751 186.027 13.751C187.935 13.751 189.237 14.2344 189.938 15.2008C190.273 15.6695 190.497 16.2336 190.609 16.9017C190.716 17.5698 190.771 18.205 190.771 18.8102C190.771 19.7542 190.75 20.4847 190.706 21.0052C189.713 21.0493 188.823 21.0676 188.033 21.0676H186.333C184.555 21.0676 183.187 20.9905 182.231 20.8317C182.231 22.4885 182.433 23.6471 182.844 24.2995C183.342 25.1005 184.342 25.5028 185.836 25.5028C187.329 25.5028 188.758 25.204 190.125 24.6024L190.644 26.1481ZM166.689 13.969H168.583L171.881 24.4632L172.198 25.5326L172.494 24.4632L175.644 13.969H177.556L173.306 26.8313H171.004L166.689 13.969ZM163.671 15.5331C162.769 15.5331 161.849 15.9947 160.915 16.9164V26.8309H159.157V13.9686H160.702L160.871 15.6771C161.204 15.1491 161.561 14.7402 161.943 14.4444C162.329 14.1456 162.643 13.9686 162.892 13.9027C163.242 13.8027 163.577 13.751 163.895 13.751C164.212 13.751 164.609 13.8174 165.089 13.9468L164.93 15.666C164.57 15.5767 164.151 15.5331 163.671 15.5331V15.5331ZM152.932 19.5667V18.5298C152.932 17.397 152.715 16.5925 152.286 16.1085C151.806 15.5662 150.979 15.2969 149.803 15.2969C148.393 15.2969 147.429 15.6109 146.917 16.2384C146.423 16.836 146.177 17.9464 146.177 19.5667H152.932ZM154.585 26.1481C153.128 26.7497 151.515 27.049 149.754 27.049C148.733 27.049 147.864 26.9384 147.153 26.7238C146.02 26.3926 145.266 25.7062 144.891 24.6688C144.548 23.6953 144.374 22.2562 144.374 20.3447V19.7948C144.374 17.5105 144.84 15.9054 145.767 14.9837C146.609 14.1604 148.008 13.751 149.968 13.751C151.876 13.751 153.178 14.2344 153.878 15.2008C154.213 15.6695 154.438 16.2336 154.549 16.9017C154.657 17.5698 154.712 18.205 154.712 18.8102C154.712 19.7542 154.69 20.4847 154.647 21.0052C153.654 21.0493 152.763 21.0676 151.973 21.0676H150.274C148.495 21.0676 147.128 20.9905 146.172 20.8317C146.172 22.4885 146.373 23.6471 146.785 24.2995C147.283 25.1005 148.282 25.5028 149.776 25.5028C151.269 25.5028 152.698 25.204 154.066 24.6024L154.585 26.1481ZM132.14 24.2817C133.595 25.1081 135.051 25.5251 136.516 25.5251C137.736 25.5251 138.451 25.0781 138.663 24.1929C138.732 23.8906 138.768 23.5213 138.768 23.086C138.768 22.6508 138.717 22.3109 138.62 22.0674C138.522 21.8274 138.357 21.6468 138.122 21.5292C137.892 21.411 137.585 21.3222 137.199 21.2628C136.816 21.208 136.325 21.1269 135.734 21.0198C135.142 20.9164 134.6 20.7987 134.106 20.6688C133.612 20.5405 133.193 20.3517 132.847 20.1082C132.115 19.5812 131.765 18.6949 131.794 17.448V17.1787C131.794 15.8648 132.216 14.9314 133.06 14.3784C133.879 13.8321 135.228 13.6444 137.108 13.8174C138.393 13.9396 139.413 14.1639 140.175 14.4961L139.677 16.1311C138.833 15.7618 137.815 15.4965 136.632 15.3301C136.268 15.2784 135.925 15.2525 135.604 15.2525C135.283 15.2525 134.99 15.2784 134.73 15.3301C134.471 15.3778 134.251 15.4742 134.074 15.6106C133.738 15.8907 133.561 16.4152 133.547 17.1787C133.525 18.0796 133.771 18.6508 134.286 18.8984C134.781 19.1343 135.366 19.3006 136.04 19.3889C136.718 19.4777 137.271 19.5583 137.7 19.6253C138.129 19.6948 138.522 19.7876 138.873 19.9018C139.226 20.0164 139.529 20.2006 139.781 20.4512C140.312 20.9645 140.568 21.8538 140.554 23.1231C140.517 25.3363 139.616 26.5985 137.848 26.9084C137.314 27.0008 136.776 27.0489 136.242 27.0489C135.705 27.0489 135.214 27.0119 134.767 26.9455C134.32 26.8755 133.893 26.7796 133.482 26.6578C132.707 26.4367 132.007 26.1374 131.379 25.7721L132.14 24.2817ZM113.831 29.946C114.347 30.1307 114.766 30.2265 115.094 30.2265C115.423 30.2265 115.639 30.2154 115.74 30.2007C115.841 30.1814 115.946 30.1418 116.051 30.086C116.3 29.9496 116.484 29.7243 116.602 29.4144C116.898 28.6803 117.154 27.8722 117.375 26.9941L112.521 13.969H114.477L117.754 23.4477L118.251 25.1126L118.706 23.437L121.599 13.969H123.44L118.136 29.879C117.746 31.1188 116.852 31.7393 115.448 31.7393C114.561 31.7393 113.864 31.6099 113.355 31.3512L113.831 29.946ZM109.604 15.5331C108.702 15.5331 107.783 15.9947 106.848 16.9164V26.8309H105.091V13.9686H106.635L106.805 15.6771C107.137 15.1491 107.494 14.7402 107.877 14.4444C108.263 14.1456 108.576 13.9686 108.825 13.9027C109.175 13.8027 109.511 13.751 109.828 13.751C110.145 13.751 110.542 13.8174 111.022 13.9468L110.863 15.666C110.503 15.5767 110.084 15.5331 109.604 15.5331V15.5331ZM100.575 15.5331C99.6719 15.5331 98.7523 15.9947 97.8183 16.9164V26.8309H96.0604V13.9686H97.605L97.7741 15.6771C98.1069 15.1491 98.4641 14.7402 98.846 14.4444C99.2319 14.1456 99.5459 13.9686 99.7949 13.9027C100.145 13.8027 100.48 13.751 100.798 13.751C101.115 13.751 101.513 13.8174 101.992 13.9468L101.834 15.666C101.472 15.5767 101.054 15.5331 100.575 15.5331V15.5331ZM89.842 19.5667V18.5298C89.842 17.397 89.6262 16.5925 89.1971 16.1085C88.7165 15.5662 87.8901 15.2969 86.7141 15.2969C85.3039 15.2969 84.3401 15.6109 83.8277 16.2384C83.3337 16.836 83.0881 17.9464 83.0881 19.5667H89.842ZM91.4874 26.1481C90.0301 26.7497 88.4176 27.049 86.6567 27.049C85.6354 27.049 84.7659 26.9384 84.0551 26.7238C82.9221 26.3926 82.1682 25.7062 81.7937 24.6688C81.451 23.6953 81.2773 22.2562 81.2773 20.3447V19.7948C81.2773 17.5105 81.7426 15.9054 82.6697 14.9837C83.5109 14.1604 84.9102 13.751 86.87 13.751C88.7787 13.751 90.0802 14.2344 90.7806 15.2008C91.1159 15.6695 91.3396 16.2336 91.4512 16.9017C91.5593 17.5698 91.6139 18.205 91.6139 18.8102C91.6139 19.7542 91.5926 20.4847 91.5489 21.0052C90.5569 21.0493 89.6655 21.0676 88.8759 21.0676H87.176C85.3978 21.0676 84.0298 20.9905 83.0739 20.8317C83.0739 22.4885 83.2758 23.6471 83.6875 24.2995C84.185 25.1005 85.1845 25.5028 86.6785 25.5028C88.1715 25.5028 89.6011 25.204 90.9686 24.6024L91.4874 26.1481ZM73.175 15.4267C71.7713 15.4267 70.379 15.8401 69.001 16.67V26.831H67.2436V8.43373L68.9579 8.26074V15.2968C69.6826 14.6622 70.628 14.2051 71.7901 13.9246C72.2554 13.81 72.804 13.7511 73.4384 13.7511C74.0733 13.7511 74.6289 13.8252 75.1085 13.9728C75.5887 14.1199 75.9676 14.3558 76.2494 14.6815C76.7578 15.2638 77.0108 16.3266 77.0108 17.8688V26.831H75.2355V18.1934C75.2355 17.1565 75.1383 16.4889 74.9394 16.1901C74.741 15.8908 74.5064 15.6884 74.236 15.5844C73.9652 15.4779 73.612 15.4267 73.175 15.4267V15.4267ZM63.3256 26.2592C62.3474 26.7832 61.0052 27.049 59.2989 27.049C58.292 27.049 57.5524 26.9678 57.0802 26.8085C55.8754 26.3926 55.0847 25.6803 54.7132 24.68C54.4493 23.9825 54.298 23.2261 54.2583 22.4215C54.2152 21.6139 54.1934 20.9311 54.1934 20.3777C54.1934 19.8247 54.2082 19.2819 54.2365 18.7508C54.2658 18.2227 54.3342 17.7098 54.4424 17.2228C54.5505 16.7323 54.7167 16.2752 54.9443 15.8542C55.1675 15.4336 55.4741 15.0613 55.8645 14.7468C56.7012 14.0832 57.9061 13.751 59.4794 13.751C60.6337 13.751 61.6981 13.9245 62.6723 14.2709C62.9322 14.3557 63.1267 14.4409 63.2641 14.5185L62.7333 16.12C61.3812 15.5843 60.2736 15.319 59.4105 15.319C58.5449 15.319 57.9135 15.4184 57.5058 15.6219C57.102 15.8248 56.7875 16.1312 56.5604 16.5405C56.1814 17.2452 55.9904 18.5443 55.9904 20.4335C55.9904 21.1898 56.0157 21.8797 56.0663 22.5032C56.1135 23.1261 56.236 23.6613 56.4344 24.1083C56.8491 25.03 57.7077 25.4916 59.0062 25.4916C60.3093 25.4916 61.5722 25.2598 62.7988 24.7982L63.3256 26.2592Z" fill="white"/>
</svg>
