<svg width="213" height="40" viewBox="0 0 213 40" fill="none" xmlns="http://www.w3.org/2000/svg">
<path fill-rule="evenodd" clip-rule="evenodd" d="M8.35733 3.61772C16.8948 -2.48259 28.5416 -0.668318 34.9348 7.55523C33.7808 9.02797 32.5154 10.2794 31.1259 11.2849C30.1313 12.004 29.0651 12.6049 27.9219 13.0797C27.8841 13.0962 27.8463 13.1122 27.808 13.1267C27.1814 13.3656 26.2997 13.3821 25.9023 12.7211C23.1487 8.12409 18.1396 8.27583 14.1378 12.0426C10.2743 15.6801 8.78567 21.177 11.8008 25.5717C14.8154 29.9654 20.3564 30.3595 25.0559 27.9564C29.8016 25.5307 31.4031 20.9702 28.5941 16.8249C28.2609 16.3301 28.6014 15.904 29.0612 15.6846C29.0881 15.6721 29.1161 15.6616 29.1436 15.6496C30.4159 15.1047 31.6106 14.4212 32.7337 13.6095C34.1356 12.5959 35.4118 11.3911 36.5727 10.012C41.6044 18.895 39.2261 30.3856 30.8359 36.3817C21.9711 42.7169 9.75325 40.5175 3.54544 31.4702C-2.66188 22.4229 -0.507402 9.95289 8.35733 3.61772Z" fill="#FF0000"/>
<path fill-rule="evenodd" clip-rule="evenodd" d="M204.252 24.2817C205.706 25.1081 207.163 25.5251 208.628 25.5251C209.847 25.5251 210.562 25.0781 210.774 24.1929C210.843 23.8906 210.88 23.5213 210.88 23.086C210.88 22.6508 210.829 22.3109 210.731 22.0674C210.634 21.8274 210.468 21.6468 210.233 21.5292C210.003 21.411 209.696 21.3222 209.31 21.2628C208.927 21.208 208.437 21.1269 207.845 21.0198C207.253 20.9164 206.712 20.7987 206.218 20.6688C205.723 20.5405 205.305 20.3517 204.959 20.1082C204.226 19.5812 203.876 18.6949 203.905 17.448V17.1787C203.905 15.8648 204.328 14.9314 205.171 14.3784C205.991 13.8321 207.34 13.6444 209.219 13.8174C210.504 13.9396 211.525 14.1639 212.287 14.4961L211.788 16.1311C210.944 15.7618 209.927 15.4965 208.743 15.3301C208.379 15.2784 208.036 15.2525 207.715 15.2525C207.394 15.2525 207.102 15.2784 206.843 15.3301C206.582 15.3778 206.362 15.4742 206.186 15.6106C205.85 15.8907 205.673 16.4152 205.659 17.1787C205.637 18.0796 205.882 18.6508 206.399 18.8984C206.893 19.1343 207.477 19.3006 208.152 19.3889C208.83 19.4777 209.382 19.5583 209.811 19.6253C210.24 19.6948 210.634 19.7876 210.984 19.9018C211.337 20.0164 211.641 20.2006 211.893 20.4512C212.423 20.9645 212.68 21.8538 212.665 23.1231C212.629 25.3363 211.727 26.5985 209.959 26.9084C209.425 27.0008 208.888 27.0489 208.354 27.0489C207.816 27.0489 207.326 27.0119 206.878 26.9455C206.431 26.8755 206.005 26.7796 205.594 26.6578C204.818 26.4367 204.118 26.1374 203.49 25.7721L204.252 24.2817ZM199.715 15.5331C198.813 15.5331 197.893 15.9947 196.958 16.9164V26.8309H195.201V13.9686H196.746L196.915 15.6771C197.247 15.1491 197.604 14.7402 197.986 14.4444C198.372 14.1456 198.687 13.9686 198.936 13.9027C199.286 13.8027 199.621 13.751 199.938 13.751C200.256 13.751 200.653 13.8174 201.133 13.9468L200.974 15.666C200.613 15.5767 200.195 15.5331 199.715 15.5331ZM188.975 19.5667V18.5298C188.975 17.397 188.758 16.5925 188.329 16.1085C187.849 15.5662 187.023 15.2969 185.847 15.2969C184.437 15.2969 183.473 15.6109 182.96 16.2384C182.466 16.836 182.221 17.9464 182.221 19.5667H188.975ZM190.644 26.1481C189.187 26.7497 187.574 27.049 185.813 27.049C184.792 27.049 183.923 26.9384 183.212 26.7238C182.079 26.3926 181.325 25.7062 180.95 24.6688C180.607 23.6953 180.434 22.2562 180.434 20.3447V19.7948C180.434 17.5105 180.899 15.9054 181.826 14.9837C182.667 14.1604 184.067 13.751 186.026 13.751C187.935 13.751 189.237 14.2344 189.937 15.2008C190.272 15.6695 190.497 16.2336 190.608 16.9017C190.716 17.5698 190.771 18.205 190.771 18.8102C190.771 19.7542 190.749 20.4847 190.705 21.0052C189.713 21.0493 188.822 21.0676 188.032 21.0676H186.333C184.554 21.0676 183.187 20.9905 182.231 20.8317C182.231 22.4885 182.433 23.6471 182.844 24.2995C183.342 25.1005 184.341 25.5028 185.835 25.5028C187.329 25.5028 188.757 25.204 190.125 24.6024L190.644 26.1481ZM166.689 13.969H168.583L171.881 24.4632L172.198 25.5326L172.494 24.4632L175.643 13.969H177.556L173.305 26.8313H171.004L166.689 13.969ZM163.671 15.5331C162.768 15.5331 161.848 15.9947 160.914 16.9164V26.8309H159.157V13.9686H160.702L160.871 15.6771C161.203 15.1491 161.56 14.7402 161.942 14.4444C162.329 14.1456 162.642 13.9686 162.891 13.9027C163.241 13.8027 163.577 13.751 163.894 13.751C164.212 13.751 164.609 13.8174 165.088 13.9468L164.93 15.666C164.569 15.5767 164.15 15.5331 163.671 15.5331ZM152.931 19.5667V18.5298C152.931 17.397 152.714 16.5925 152.285 16.1085C151.805 15.5662 150.979 15.2969 149.803 15.2969C148.393 15.2969 147.428 15.6109 146.917 16.2384C146.422 16.836 146.177 17.9464 146.177 19.5667H152.931ZM154.585 26.1481C153.127 26.7497 151.514 27.049 149.754 27.049C148.732 27.049 147.863 26.9384 147.153 26.7238C146.019 26.3926 145.265 25.7062 144.89 24.6688C144.548 23.6953 144.374 22.2562 144.374 20.3447V19.7948C144.374 17.5105 144.84 15.9054 145.767 14.9837C146.608 14.1604 148.007 13.751 149.967 13.751C151.875 13.751 153.177 14.2344 153.878 15.2008C154.213 15.6695 154.437 16.2336 154.548 16.9017C154.656 17.5698 154.712 18.205 154.712 18.8102C154.712 19.7542 154.689 20.4847 154.646 21.0052C153.653 21.0493 152.763 21.0676 151.972 21.0676H150.273C148.494 21.0676 147.127 20.9905 146.171 20.8317C146.171 22.4885 146.373 23.6471 146.785 24.2995C147.282 25.1005 148.282 25.5028 149.776 25.5028C151.269 25.5028 152.698 25.204 154.065 24.6024L154.585 26.1481ZM132.14 24.2817C133.594 25.1081 135.051 25.5251 136.516 25.5251C137.736 25.5251 138.45 25.0781 138.662 24.1929C138.731 23.8906 138.767 23.5213 138.767 23.086C138.767 22.6508 138.716 22.3109 138.62 22.0674C138.522 21.8274 138.356 21.6468 138.122 21.5292C137.891 21.411 137.584 21.3222 137.198 21.2628C136.815 21.208 136.325 21.1269 135.733 21.0198C135.142 20.9164 134.6 20.7987 134.106 20.6688C133.611 20.5405 133.193 20.3517 132.847 20.1082C132.114 19.5812 131.764 18.6949 131.793 17.448V17.1787C131.793 15.8648 132.216 14.9314 133.06 14.3784C133.879 13.8321 135.228 13.6444 137.108 13.8174C138.393 13.9396 139.413 14.1639 140.174 14.4961L139.677 16.1311C138.833 15.7618 137.815 15.4965 136.632 15.3301C136.267 15.2784 135.924 15.2525 135.603 15.2525C135.282 15.2525 134.99 15.2784 134.73 15.3301C134.471 15.3778 134.25 15.4742 134.074 15.6106C133.738 15.8907 133.561 16.4152 133.546 17.1787C133.525 18.0796 133.771 18.6508 134.286 18.8984C134.781 19.1343 135.365 19.3006 136.039 19.3889C136.718 19.4777 137.27 19.5583 137.7 19.6253C138.129 19.6948 138.522 19.7876 138.872 19.9018C139.225 20.0164 139.528 20.2006 139.781 20.4512C140.312 20.9645 140.568 21.8538 140.553 23.1231C140.517 25.3363 139.615 26.5985 137.847 26.9084C137.313 27.0008 136.776 27.0489 136.242 27.0489C135.704 27.0489 135.214 27.0119 134.766 26.9455C134.319 26.8755 133.893 26.7796 133.482 26.6578C132.706 26.4367 132.007 26.1374 131.378 25.7721L132.14 24.2817ZM113.831 29.946C114.347 30.1307 114.765 30.2265 115.093 30.2265C115.422 30.2265 115.638 30.2154 115.74 30.2007C115.84 30.1814 115.946 30.1418 116.05 30.086C116.299 29.9496 116.483 29.7243 116.602 29.4144C116.898 28.6803 117.154 27.8722 117.374 26.9941L112.521 13.969H114.477L117.753 23.4477L118.251 25.1126L118.705 23.437L121.599 13.969H123.439L118.135 29.879C117.746 31.1188 116.851 31.7393 115.447 31.7393C114.56 31.7393 113.863 31.6099 113.355 31.3512L113.831 29.946ZM109.604 15.5331C108.702 15.5331 107.782 15.9947 106.847 16.9164V26.8309H105.09V13.9686H106.635L106.804 15.6771C107.136 15.1491 107.493 14.7402 107.876 14.4444C108.262 14.1456 108.576 13.9686 108.825 13.9027C109.175 13.8027 109.51 13.751 109.827 13.751C110.145 13.751 110.542 13.8174 111.022 13.9468L110.863 15.666C110.502 15.5767 110.084 15.5331 109.604 15.5331ZM100.574 15.5331C99.6714 15.5331 98.7518 15.9947 97.8178 16.9164V26.8309H96.0599V13.9686H97.6045L97.7736 15.6771C98.1065 15.1491 98.4636 14.7402 98.8455 14.4444C99.2314 14.1456 99.5454 13.9686 99.7944 13.9027C100.144 13.8027 100.48 13.751 100.798 13.751C101.115 13.751 101.512 13.8174 101.991 13.9468L101.833 15.666C101.472 15.5767 101.054 15.5331 100.574 15.5331ZM89.8415 19.5667V18.5298C89.8415 17.397 89.6257 16.5925 89.1966 16.1085C88.716 15.5662 87.8896 15.2969 86.7136 15.2969C85.3034 15.2969 84.3396 15.6109 83.8272 16.2384C83.3332 16.836 83.0877 17.9464 83.0877 19.5667H89.8415ZM91.4869 26.1481C90.0296 26.7497 88.4171 27.049 86.6562 27.049C85.6349 27.049 84.7654 26.9384 84.0546 26.7238C82.9217 26.3926 82.1677 25.7062 81.7932 24.6688C81.4505 23.6953 81.2769 22.2562 81.2769 20.3447V19.7948C81.2769 17.5105 81.7421 15.9054 82.6692 14.9837C83.5104 14.1604 84.9097 13.751 86.8695 13.751C88.7782 13.751 90.0797 14.2344 90.7801 15.2008C91.1154 15.6695 91.3391 16.2336 91.4507 16.9017C91.5589 17.5698 91.6134 18.205 91.6134 18.8102C91.6134 19.7542 91.5921 20.4847 91.5484 21.0052C90.5564 21.0493 89.6651 21.0676 88.8754 21.0676H87.1755C85.3973 21.0676 84.0293 20.9905 83.0734 20.8317C83.0734 22.4885 83.2753 23.6471 83.687 24.2995C84.1845 25.1005 85.184 25.5028 86.678 25.5028C88.171 25.5028 89.6006 25.204 90.9681 24.6024L91.4869 26.1481ZM73.1745 15.4267C71.7708 15.4267 70.3785 15.8401 69.0005 16.67V26.831H67.2431V8.43373L68.9574 8.26074V15.2968C69.6821 14.6622 70.6275 14.2051 71.7897 13.9246C72.2549 13.81 72.8035 13.7511 73.4379 13.7511C74.0728 13.7511 74.6284 13.8252 75.108 13.9728C75.5882 14.1199 75.9671 14.3558 76.2489 14.6815C76.7573 15.2638 77.0103 16.3266 77.0103 17.8688V26.831H75.235V18.1934C75.235 17.1565 75.1378 16.4889 74.9389 16.1901C74.7405 15.8908 74.5059 15.6884 74.2355 15.5844C73.9647 15.4779 73.6115 15.4267 73.1745 15.4267ZM63.3251 26.2592C62.3469 26.7832 61.0047 27.049 59.2984 27.049C58.2915 27.049 57.5519 26.9678 57.0797 26.8085C55.8749 26.3926 55.0842 25.6803 54.7127 24.68C54.4488 23.9825 54.2975 23.2261 54.2578 22.4215C54.2147 21.6139 54.1929 20.9311 54.1929 20.3777C54.1929 19.8247 54.2078 19.2819 54.236 18.7508C54.2653 18.2227 54.3337 17.7098 54.4419 17.2228C54.55 16.7323 54.7162 16.2752 54.9438 15.8542C55.1671 15.4336 55.4736 15.0613 55.864 14.7468C56.7007 14.0832 57.9056 13.751 59.479 13.751C60.6332 13.751 61.6977 13.9245 62.6718 14.2709C62.9318 14.3557 63.1262 14.4409 63.2636 14.5185L62.7329 16.12C61.3807 15.5843 60.2731 15.319 59.41 15.319C58.5445 15.319 57.913 15.4184 57.5053 15.6219C57.1015 15.8248 56.7871 16.1312 56.5599 16.5405C56.1809 17.2452 55.99 18.5443 55.99 20.4335C55.99 21.1898 56.0152 21.8797 56.0658 22.5032C56.113 23.1261 56.2355 23.6613 56.4339 24.1083C56.8486 25.03 57.7072 25.4916 59.0058 25.4916C60.3088 25.4916 61.5717 25.2598 62.7983 24.7982L63.3251 26.2592Z" fill="#3F3F3F"/>
</svg>
