<svg width="315" height="321" viewBox="0 0 315 321" fill="none" xmlns="http://www.w3.org/2000/svg">
<path fill-rule="evenodd" clip-rule="evenodd" d="M67.1695 29.0291C135.787 -19.9206 229.394 -5.36269 280.778 60.6243C271.503 72.4418 261.333 82.4833 250.165 90.5519C242.171 96.322 233.602 101.144 224.413 104.953C224.11 105.086 223.806 105.214 223.499 105.331C218.463 107.247 211.376 107.38 208.182 102.076C186.051 65.1889 145.791 66.4065 113.628 96.6314C82.5769 125.82 70.6122 169.927 94.8451 205.191C119.074 240.447 163.608 243.609 201.379 224.326C239.521 204.862 252.393 168.268 229.816 135.005C227.138 131.035 229.875 127.616 233.57 125.856C233.787 125.755 234.012 125.671 234.233 125.575C244.458 121.203 254.061 115.718 263.088 109.204C274.354 101.072 284.611 91.4037 293.942 80.3376C334.383 151.617 315.268 243.818 247.834 291.932C176.586 342.766 78.3888 325.119 28.4954 252.522C-21.3941 179.925 -4.07809 79.8634 67.1695 29.0291Z" fill="white"/>
</svg>
