<svg width="800" height="800" viewBox="0 0 800 800" fill="none" xmlns="http://www.w3.org/2000/svg">
<g clip-path="url(#clip0_3_9)">
<path d="M400 0C620.914 0 800 179.086 800 400C800 620.914 620.914 800 400 800C179.086 800 0 620.914 0 400C0 179.086 179.086 0 400 0ZM390.377 200C365.066 200 361.408 205.755 346.574 228.538C331.152 252.225 178.006 536.792 178 544.688C178 556.268 180.935 567.121 191.506 582.578C202.244 598.278 220.723 606.905 234.196 593.063C237.786 589.376 255.281 560.404 278.059 522.681C312.986 464.836 360.184 386.419 388.869 347.054C392.508 341.695 396.492 341.013 399.724 341.013C402.955 341.013 408.339 341.695 411.979 347.054C440.665 386.419 488.014 464.836 522.942 522.681C545.72 560.403 563.214 589.376 566.804 593.063C580.278 606.905 598.757 598.278 609.495 582.578C620.066 567.121 623 556.268 623 544.688C622.994 536.792 469.85 252.226 454.426 228.538C439.593 205.755 434.761 200 409.375 200H390.377Z" fill="#F4F4F4"/>
</g>
<defs>
<clipPath id="clip0_3_9">
<rect width="800" height="800" rx="400" fill="white"/>
</clipPath>
</defs>
</svg>
