<svg width="800" height="800" viewBox="0 0 800 800" fill="none" xmlns="http://www.w3.org/2000/svg">
<g clip-path="url(#clip0_3_2)">
<path d="M373.803 0.215283C372.082 0.371663 366.608 0.918992 361.681 1.30994C248.055 11.5528 141.623 72.8537 74.2131 167.072C36.6764 219.46 12.6686 278.884 3.59726 341.827C0.391007 363.798 0 370.288 0 400.078C0 429.869 0.391007 436.358 3.59726 458.33C25.3372 608.533 132.239 734.731 277.224 781.489C303.187 789.855 330.557 795.563 361.681 799.003C373.803 800.332 426.197 800.332 438.319 799.003C492.043 793.061 537.556 779.768 582.444 756.859C589.326 753.34 590.655 752.402 589.717 751.62C589.091 751.151 559.765 711.821 524.575 664.282L460.606 577.882L380.45 459.268C336.344 394.058 300.059 340.732 299.746 340.732C299.433 340.654 299.12 393.354 298.964 457.704C298.729 570.376 298.651 574.911 297.243 577.569C295.21 581.401 293.646 582.964 290.362 584.685C287.859 585.936 285.67 586.17 273.861 586.17H260.332L256.735 583.903C254.389 582.417 252.669 580.462 251.496 578.195L249.853 574.676L250.01 417.906L250.244 261.057L252.669 258.007C253.92 256.365 256.579 254.254 258.456 253.238C261.662 251.674 262.913 251.518 276.442 251.518C292.395 251.518 295.054 252.143 299.198 256.678C300.371 257.929 343.773 323.296 395.699 402.033C447.625 480.77 518.631 588.281 553.509 641.06L616.852 736.999L620.059 734.887C648.446 716.435 678.475 690.163 702.248 662.796C752.845 604.701 785.455 533.861 796.403 458.33C799.609 436.358 800 429.869 800 400.078C800 370.288 799.609 363.798 796.403 341.827C774.663 191.624 667.761 65.4256 522.776 18.6681C497.204 10.38 469.99 4.67211 439.492 1.23175C431.984 0.449853 380.293 -0.410236 373.803 0.215283ZM537.556 242.135C541.31 244.011 544.36 247.608 545.455 251.361C546.08 253.394 546.237 296.868 546.08 394.84L545.846 535.425L521.056 497.425L496.188 459.424V357.23C496.188 291.16 496.5 254.02 496.97 252.221C498.221 247.843 500.958 244.402 504.712 242.369C507.918 240.727 509.091 240.571 521.369 240.571C532.942 240.571 534.976 240.727 537.556 242.135Z" fill="#F4F4F4"/>
</g>
<defs>
<clipPath id="clip0_3_2">
<rect width="800" height="800" fill="white"/>
</clipPath>
</defs>
</svg>
