 <svg
  width="15"
  height="15"
  viewBox="0 0 15 15"
  fill="none"
  xmlns="http://www.w3.org/2000/svg"
>
  <path
    d="M13.8705 12.9418C13.9315 13.0028 13.9799 13.0752 14.0129 13.1549C14.0459 13.2345 14.0629 13.3199 14.0629 13.4061C14.0629 13.4924 14.0459 13.5777 14.0129 13.6574C13.9799 13.7371 13.9315 13.8095 13.8705 13.8704C13.8096 13.9314 13.7372 13.9798 13.6575 14.0128C13.5779 14.0458 13.4925 14.0627 13.4062 14.0627C13.32 14.0627 13.2346 14.0458 13.155 14.0128C13.0753 13.9798 13.0029 13.9314 12.942 13.8704L7.5 8.42765L2.05805 13.8704C1.93491 13.9936 1.76789 14.0627 1.59375 14.0627C1.4196 14.0627 1.25259 13.9936 1.12945 13.8704C1.00631 13.7473 0.937134 13.5803 0.937134 13.4061C0.937134 13.232 1.00631 13.065 1.12945 12.9418L6.57223 7.49988L1.12945 2.05792C1.00631 1.93478 0.937134 1.76777 0.937134 1.59363C0.937134 1.41948 1.00631 1.25247 1.12945 1.12933C1.25259 1.00619 1.4196 0.937012 1.59375 0.937012C1.76789 0.937012 1.93491 1.00619 2.05805 1.12933L7.5 6.5721L12.942 1.12933C13.0651 1.00619 13.2321 0.937012 13.4062 0.937012C13.5804 0.937012 13.7474 1.00619 13.8705 1.12933C13.9937 1.25247 14.0629 1.41948 14.0629 1.59363C14.0629 1.76777 13.9937 1.93478 13.8705 2.05792L8.42777 7.49988L13.8705 12.9418Z"
    fill="white"
  />
</svg>
