<svg width="840" height="693" viewBox="0 0 840 693" fill="none" xmlns="http://www.w3.org/2000/svg">
<g filter="url(#filter0_f_138_528)">
<path d="M384.669 -245.331L473.116 -146.792C508.599 -107.26 521.697 -52.472 507.93 -1.16611L455.683 193.554C443.346 239.53 410.825 277.432 367.257 296.609L239.672 352.768C182.734 377.831 116.37 366.928 70.4436 324.966L6.84302 266.857C-14.86 247.027 -41.6924 233.686 -70.6021 228.352L-225.521 199.764C-318.414 182.623 -375.273 87.9574 -346.767 -2.09961L-341.743 -17.9724C-321.075 -83.268 -260.482 -127.645 -191.994 -127.645H-26.291C17.6544 -127.645 59.59 -146.054 89.3341 -178.404L152.152 -246.724C214.888 -314.955 322.756 -314.308 384.669 -245.331Z" fill="url(#paint0_linear_138_528)"/>
<path d="M384.669 -245.331L473.116 -146.792C508.599 -107.26 521.697 -52.472 507.93 -1.16611L455.683 193.554C443.346 239.53 410.825 277.432 367.257 296.609L239.672 352.768C182.734 377.831 116.37 366.928 70.4436 324.966L6.84302 266.857C-14.86 247.027 -41.6924 233.686 -70.6021 228.352L-225.521 199.764C-318.414 182.623 -375.273 87.9574 -346.767 -2.09961L-341.743 -17.9724C-321.075 -83.268 -260.482 -127.645 -191.994 -127.645H-26.291C17.6544 -127.645 59.59 -146.054 89.3341 -178.404L152.152 -246.724C214.888 -314.955 322.756 -314.308 384.669 -245.331Z" stroke="black" stroke-width="0.826695"/>
</g>
<defs>
<filter id="filter0_f_138_528" x="-680.286" y="-623.615" width="1519.72" height="1315.83" filterUnits="userSpaceOnUse" color-interpolation-filters="sRGB">
<feFlood flood-opacity="0" result="BackgroundImageFix"/>
<feBlend mode="normal" in="SourceGraphic" in2="BackgroundImageFix" result="shape"/>
<feGaussianBlur stdDeviation="162.859" result="effect1_foregroundBlur_138_528"/>
</filter>
<linearGradient id="paint0_linear_138_528" x1="451.477" y1="412.32" x2="-244.254" y2="-437.545" gradientUnits="userSpaceOnUse">
<stop offset="0.08" stop-color="#9945FF"/>
<stop offset="0.3" stop-color="#8752F3"/>
<stop offset="0.5" stop-color="#5497D5"/>
<stop offset="0.6" stop-color="#43B4CA"/>
<stop offset="0.72" stop-color="#28E0B9"/>
<stop offset="0.97" stop-color="#14F195"/>
</linearGradient>
</defs>
</svg>
