<svg width="1735" height="576" viewBox="0 0 1735 576" fill="none" xmlns="http://www.w3.org/2000/svg">
<g clip-path="url(#clip0_6002_4881)">
<g filter="url(#filter0_f_6002_4881)">
<path d="M384.669 -301.331L473.116 -202.792C508.599 -163.26 521.697 -108.472 507.93 -57.1661L455.683 137.554C443.346 183.53 410.825 221.432 367.257 240.609L239.672 296.768C182.734 321.831 116.37 310.928 70.4436 268.966L6.84302 210.857C-14.86 191.027 -41.6924 177.686 -70.6021 172.352L-225.521 143.764C-318.414 126.623 -375.273 31.9574 -346.767 -58.0996L-341.743 -73.9724C-321.075 -139.268 -260.482 -183.645 -191.994 -183.645H-26.291C17.6544 -183.645 59.59 -202.054 89.3341 -234.404L152.152 -302.724C214.888 -370.955 322.756 -370.308 384.669 -301.331Z" fill="url(#paint0_linear_6002_4881)"/>
<path d="M384.669 -301.331L473.116 -202.792C508.599 -163.26 521.697 -108.472 507.93 -57.1661L455.683 137.554C443.346 183.53 410.825 221.432 367.257 240.609L239.672 296.768C182.734 321.831 116.37 310.928 70.4436 268.966L6.84302 210.857C-14.86 191.027 -41.6924 177.686 -70.6021 172.352L-225.521 143.764C-318.414 126.623 -375.273 31.9574 -346.767 -58.0996L-341.743 -73.9724C-321.075 -139.268 -260.482 -183.645 -191.994 -183.645H-26.291C17.6544 -183.645 59.59 -202.054 89.3341 -234.404L152.152 -302.724C214.888 -370.955 322.756 -370.308 384.669 -301.331Z" stroke="black" stroke-width="0.826695"/>
</g>
<path d="M584.458 268.944C576.97 268.944 570.454 267.36 564.91 264.192C559.366 261.024 555.082 256.416 552.058 250.368C549.106 244.32 547.63 237.084 547.63 228.66C547.63 220.74 549.25 213.828 552.49 207.924C555.73 201.948 560.194 197.376 565.882 194.208C571.642 191.04 578.086 189.456 585.214 189.456C591.334 189.456 596.806 190.608 601.63 192.912C606.526 195.144 610.45 198.42 613.402 202.74C616.426 206.988 618.262 212.064 618.91 217.968H604.222C603.502 212.928 601.486 208.932 598.174 205.98C594.934 202.956 590.614 201.444 585.214 201.444C580.75 201.444 576.754 202.56 573.226 204.792C569.77 206.952 567.07 210.084 565.126 214.188C563.182 218.292 562.21 223.116 562.21 228.66C562.21 234.42 563.182 239.46 565.126 243.78C567.07 248.028 569.734 251.304 573.118 253.608C576.574 255.84 580.498 256.956 584.89 256.956C590.362 256.956 594.898 255.372 598.498 252.204C602.098 248.964 604.294 244.788 605.086 239.676H619.234C618.586 245.508 616.786 250.656 613.834 255.12C610.954 259.512 606.994 262.932 601.954 265.38C596.914 267.756 591.082 268.944 584.458 268.944ZM650.613 268.944C645.357 268.944 640.677 267.828 636.573 265.596C632.469 263.292 629.265 260.052 626.961 255.876C624.729 251.628 623.613 246.624 623.613 240.864C623.613 235.176 624.765 230.208 627.069 225.96C629.373 221.712 632.541 218.436 636.573 216.132C640.677 213.756 645.357 212.568 650.613 212.568C655.869 212.568 660.549 213.72 664.653 216.024C668.757 218.328 671.961 221.64 674.265 225.96C676.569 230.208 677.721 235.176 677.721 240.864C677.721 246.624 676.569 251.628 674.265 255.876C671.961 260.052 668.757 263.292 664.653 265.596C660.549 267.828 655.869 268.944 650.613 268.944ZM650.613 258.576C653.349 258.576 655.725 257.892 657.741 256.524C659.829 255.084 661.449 253.032 662.601 250.368C663.753 247.704 664.329 244.536 664.329 240.864C664.329 235.248 663.069 230.892 660.549 227.796C658.029 224.628 654.717 223.044 650.613 223.044C647.949 223.044 645.573 223.764 643.485 225.204C641.469 226.572 639.885 228.588 638.733 231.252C637.581 233.916 637.005 237.12 637.005 240.864C637.005 246.408 638.229 250.764 640.677 253.932C643.125 257.028 646.437 258.576 650.613 258.576ZM685.965 214.296H699.141V216.672C699.141 218.328 698.997 220.056 698.709 221.856C700.293 218.976 702.381 216.708 704.973 215.052C707.637 213.396 710.949 212.568 714.909 212.568C718.725 212.568 722.037 213.432 724.845 215.16C727.653 216.888 729.777 219.336 731.217 222.504C732.729 225.672 733.485 229.416 733.485 233.736V267H720.309V235.68C720.309 231.792 719.409 228.732 717.609 226.5C715.881 224.196 713.469 223.044 710.373 223.044C708.285 223.044 706.377 223.62 704.649 224.772C702.921 225.924 701.553 227.508 700.545 229.524C699.609 231.468 699.141 233.664 699.141 236.112V267H685.965V214.296ZM767.039 267.972C761.351 267.972 757.067 266.532 754.187 263.652C751.307 260.772 749.867 256.416 749.867 250.584V224.772H737.879V214.296H749.867V195.288H763.043V214.296H776.003V224.772H763.043V248.64C763.043 251.52 763.655 253.716 764.879 255.228C766.103 256.668 768.083 257.388 770.819 257.388C772.187 257.388 773.519 257.28 774.815 257.064V267C774.095 267.216 772.979 267.432 771.467 267.648C770.027 267.864 768.551 267.972 767.039 267.972ZM782.684 214.296H795.86V218.292C795.86 220.236 795.716 222.072 795.428 223.8C797.012 220.416 799.064 217.716 801.584 215.7C804.104 213.612 807.2 212.568 810.872 212.568C811.88 212.568 812.816 212.676 813.68 212.892V225.636C812.528 225.348 811.268 225.204 809.9 225.204C807.092 225.204 804.644 225.744 802.556 226.824C800.468 227.832 798.812 229.488 797.588 231.792C796.436 234.096 795.86 237.12 795.86 240.864V267H782.684V214.296ZM819.653 214.296H832.829V267H819.653V214.296ZM819.653 256.524H832.829V267H819.653V256.524ZM819.653 214.296H826.241V224.772H819.653V214.296ZM819.437 192.48H833.153V206.304H819.437V192.48ZM873.771 268.944C869.595 268.944 866.103 268.116 863.295 266.46C860.487 264.804 858.327 262.572 856.815 259.764C857.103 261.564 857.247 263.256 857.247 264.84V267H844.071V191.4H857.247V216.672C857.247 217.824 857.103 219.552 856.815 221.856C858.615 218.904 860.883 216.636 863.619 215.052C866.355 213.396 869.667 212.568 873.555 212.568C877.875 212.568 881.835 213.72 885.435 216.024C889.107 218.328 892.023 221.64 894.183 225.96C896.343 230.208 897.423 235.176 897.423 240.864C897.423 246.624 896.415 251.628 894.399 255.876C892.383 260.124 889.575 263.364 885.975 265.596C882.375 267.828 878.307 268.944 873.771 268.944ZM870.207 258.576C872.871 258.576 875.247 257.82 877.335 256.308C879.423 254.796 881.043 252.708 882.195 250.044C883.419 247.38 884.031 244.32 884.031 240.864C884.031 237.408 883.419 234.348 882.195 231.684C881.043 228.948 879.423 226.824 877.335 225.312C875.247 223.8 872.871 223.044 870.207 223.044C867.543 223.044 865.167 223.8 863.079 225.312C861.063 226.824 859.443 228.948 858.219 231.684C857.067 234.348 856.491 237.408 856.491 240.864C856.491 244.32 857.067 247.38 858.219 250.044C859.443 252.708 861.063 254.796 863.079 256.308C865.167 257.82 867.543 258.576 870.207 258.576ZM923.763 268.944C920.163 268.944 916.923 268.152 914.043 266.568C911.235 264.912 909.003 262.5 907.347 259.332C905.691 256.164 904.863 252.312 904.863 247.776V214.296H918.147V245.724C918.147 249.54 918.975 252.6 920.631 254.904C922.287 257.208 924.663 258.36 927.759 258.36C929.991 258.36 931.971 257.856 933.699 256.848C935.427 255.768 936.759 254.256 937.695 252.312C938.703 250.368 939.207 248.136 939.207 245.616V214.296H952.383V267H939.315V264.84C939.315 263.544 939.423 262.248 939.639 260.952L939.855 259.764C938.343 262.572 936.291 264.804 933.699 266.46C931.179 268.116 927.867 268.944 923.763 268.944ZM986.899 267.972C981.211 267.972 976.927 266.532 974.047 263.652C971.167 260.772 969.727 256.416 969.727 250.584V224.772H957.739V214.296H969.727V195.288H982.903V214.296H995.863V224.772H982.903V248.64C982.903 251.52 983.515 253.716 984.739 255.228C985.963 256.668 987.943 257.388 990.679 257.388C992.047 257.388 993.379 257.28 994.675 257.064V267C993.955 267.216 992.839 267.432 991.327 267.648C989.887 267.864 988.411 267.972 986.899 267.972ZM1025.78 268.944C1020.52 268.944 1015.84 267.828 1011.74 265.596C1007.71 263.364 1004.54 260.124 1002.24 255.876C1000 251.628 998.887 246.516 998.887 240.54C998.887 235.068 1000 230.208 1002.24 225.96C1004.54 221.712 1007.71 218.436 1011.74 216.132C1015.77 213.756 1020.31 212.568 1025.35 212.568C1030.6 212.568 1035.14 213.756 1038.96 216.132C1042.77 218.436 1045.69 221.748 1047.7 226.068C1049.72 230.316 1050.73 235.284 1050.73 240.972V243.888H1012.39C1012.39 246.624 1012.96 249.108 1014.12 251.34C1015.27 253.572 1016.85 255.336 1018.87 256.632C1020.88 257.928 1023.19 258.576 1025.78 258.576C1028.73 258.576 1031.22 257.82 1033.23 256.308C1035.32 254.724 1036.58 252.564 1037.01 249.828H1050.4C1050.04 253.428 1048.78 256.704 1046.62 259.656C1044.54 262.536 1041.69 264.804 1038.09 266.46C1034.49 268.116 1030.39 268.944 1025.78 268.944ZM1037.23 234.384C1037.08 230.784 1035.93 227.904 1033.77 225.744C1031.61 223.512 1028.77 222.396 1025.24 222.396C1021.71 222.396 1018.76 223.512 1016.38 225.744C1014.01 227.976 1012.64 230.856 1012.28 234.384H1037.23Z" fill="black"/>
<path d="M1100.65 267.972C1094.97 267.972 1090.68 266.532 1087.8 263.652C1084.92 260.772 1083.48 256.416 1083.48 250.584V224.772H1071.49V214.296H1083.48V195.288H1096.66V214.296H1109.62V224.772H1096.66V248.64C1096.66 251.52 1097.27 253.716 1098.49 255.228C1099.72 256.668 1101.7 257.388 1104.43 257.388C1105.8 257.388 1107.13 257.28 1108.43 257.064V267C1107.71 267.216 1106.59 267.432 1105.08 267.648C1103.64 267.864 1102.17 267.972 1100.65 267.972ZM1139.64 268.944C1134.39 268.944 1129.71 267.828 1125.6 265.596C1121.5 263.292 1118.29 260.052 1115.99 255.876C1113.76 251.628 1112.64 246.624 1112.64 240.864C1112.64 235.176 1113.79 230.208 1116.1 225.96C1118.4 221.712 1121.57 218.436 1125.6 216.132C1129.71 213.756 1134.39 212.568 1139.64 212.568C1144.9 212.568 1149.58 213.72 1153.68 216.024C1157.79 218.328 1160.99 221.64 1163.29 225.96C1165.6 230.208 1166.75 235.176 1166.75 240.864C1166.75 246.624 1165.6 251.628 1163.29 255.876C1160.99 260.052 1157.79 263.292 1153.68 265.596C1149.58 267.828 1144.9 268.944 1139.64 268.944ZM1139.64 258.576C1142.38 258.576 1144.75 257.892 1146.77 256.524C1148.86 255.084 1150.48 253.032 1151.63 250.368C1152.78 247.704 1153.36 244.536 1153.36 240.864C1153.36 235.248 1152.1 230.892 1149.58 227.796C1147.06 224.628 1143.75 223.044 1139.64 223.044C1136.98 223.044 1134.6 223.764 1132.51 225.204C1130.5 226.572 1128.91 228.588 1127.76 231.252C1126.61 233.916 1126.03 237.12 1126.03 240.864C1126.03 246.408 1127.26 250.764 1129.71 253.932C1132.15 257.028 1135.47 258.576 1139.64 258.576ZM601.976 375.972C596.288 375.972 592.004 374.532 589.124 371.652C586.244 368.772 584.804 364.416 584.804 358.584V332.772H572.816V322.296H584.804V303.288H597.98V322.296H610.94V332.772H597.98V356.64C597.98 359.52 598.592 361.716 599.816 363.228C601.04 364.668 603.02 365.388 605.756 365.388C607.124 365.388 608.456 365.28 609.752 365.064V375C609.032 375.216 607.916 375.432 606.404 375.648C604.964 375.864 603.488 375.972 601.976 375.972ZM617.621 299.4H630.797V324.672C630.797 325.536 630.761 326.22 630.689 326.724C630.689 327.228 630.653 327.732 630.581 328.236C630.509 328.74 630.437 329.28 630.365 329.856C631.949 326.976 634.037 324.708 636.629 323.052C639.293 321.396 642.605 320.568 646.565 320.568C650.381 320.568 653.693 321.432 656.501 323.16C659.309 324.888 661.433 327.336 662.873 330.504C664.385 333.672 665.141 337.416 665.141 341.736V375H651.965V343.68C651.965 339.792 651.065 336.732 649.265 334.5C647.537 332.196 645.125 331.044 642.029 331.044C639.941 331.044 638.033 331.62 636.305 332.772C634.577 333.924 633.209 335.508 632.201 337.524C631.265 339.468 630.797 341.664 630.797 344.112V375H617.621V299.4ZM675.895 322.296H689.071V375H675.895V322.296ZM675.895 364.524H689.071V375H675.895V364.524ZM675.895 322.296H682.483V332.772H675.895V322.296ZM675.679 300.48H689.395V314.304H675.679V300.48ZM721.373 376.944C716.477 376.944 712.193 376.152 708.521 374.568C704.849 372.912 701.969 370.572 699.881 367.548C697.865 364.524 696.713 360.96 696.425 356.856H709.817C709.961 360.024 711.005 362.544 712.949 364.416C714.893 366.216 717.593 367.116 721.049 367.116C724.001 367.116 726.341 366.504 728.069 365.28C729.869 363.984 730.769 362.328 730.769 360.312C730.769 358.584 730.049 357.252 728.609 356.316C727.241 355.38 725.081 354.624 722.129 354.048L715.757 352.752C710.141 351.672 705.857 349.8 702.905 347.136C699.953 344.472 698.477 340.98 698.477 336.66C698.477 333.636 699.377 330.9 701.177 328.452C702.977 326.004 705.497 324.096 708.737 322.728C712.049 321.288 715.829 320.568 720.077 320.568C724.757 320.568 728.825 321.324 732.281 322.836C735.737 324.348 738.437 326.508 740.381 329.316C742.325 332.052 743.333 335.256 743.405 338.928H730.229C730.013 336.336 729.005 334.284 727.205 332.772C725.405 331.188 723.029 330.396 720.077 330.396C717.557 330.396 715.469 330.9 713.813 331.908C712.229 332.916 711.437 334.32 711.437 336.12C711.437 337.704 712.049 338.964 713.273 339.9C714.569 340.764 716.873 341.52 720.185 342.168L726.557 343.464C732.029 344.544 736.241 346.38 739.193 348.972C742.217 351.564 743.729 355.092 743.729 359.556C743.729 362.868 742.793 365.856 740.921 368.52C739.121 371.184 736.529 373.272 733.145 374.784C729.761 376.224 725.837 376.944 721.373 376.944ZM764.411 299.4H780.179L791.735 348.864C792.887 353.688 793.859 358.188 794.651 362.364C795.011 360.564 795.335 358.8 795.623 357.072C795.911 355.704 796.199 354.336 796.487 352.968C796.847 351.6 797.171 350.232 797.459 348.864L809.987 299.4H830.399L841.955 348.864C843.323 354.48 844.331 358.98 844.979 362.364C845.771 357.468 846.671 352.968 847.679 348.864L859.667 299.4H874.571L854.699 375H835.043L822.515 321.216C822.443 320.712 822.335 320.208 822.191 319.704C821.903 318.552 821.579 317.22 821.219 315.708C820.931 314.196 820.643 312.54 820.355 310.74C819.851 313.188 819.311 315.672 818.735 318.192C818.735 318.192 818.483 319.2 817.979 321.216L803.939 375H784.283L764.411 299.4ZM900.584 376.944C895.328 376.944 890.648 375.828 886.544 373.596C882.512 371.364 879.344 368.124 877.04 363.876C874.808 359.628 873.692 354.516 873.692 348.54C873.692 343.068 874.808 338.208 877.04 333.96C879.344 329.712 882.512 326.436 886.544 324.132C890.576 321.756 895.112 320.568 900.152 320.568C905.408 320.568 909.944 321.756 913.76 324.132C917.576 326.436 920.492 329.748 922.508 334.068C924.524 338.316 925.532 343.284 925.532 348.972V351.888H887.192C887.192 354.624 887.768 357.108 888.92 359.34C890.072 361.572 891.656 363.336 893.672 364.632C895.688 365.928 897.992 366.576 900.584 366.576C903.536 366.576 906.02 365.82 908.036 364.308C910.124 362.724 911.384 360.564 911.816 357.828H925.208C924.848 361.428 923.588 364.704 921.428 367.656C919.34 370.536 916.496 372.804 912.896 374.46C909.296 376.116 905.192 376.944 900.584 376.944ZM912.032 342.384C911.888 338.784 910.736 335.904 908.576 333.744C906.416 331.512 903.572 330.396 900.044 330.396C896.516 330.396 893.564 331.512 891.188 333.744C888.812 335.976 887.444 338.856 887.084 342.384H912.032ZM963.635 376.944C959.459 376.944 955.967 376.116 953.159 374.46C950.351 372.804 948.191 370.572 946.679 367.764C946.967 369.564 947.111 371.256 947.111 372.84V375H933.935V299.4H947.111V324.672C947.111 325.824 946.967 327.552 946.679 329.856C948.479 326.904 950.747 324.636 953.483 323.052C956.219 321.396 959.531 320.568 963.419 320.568C967.739 320.568 971.699 321.72 975.299 324.024C978.971 326.328 981.887 329.64 984.047 333.96C986.207 338.208 987.287 343.176 987.287 348.864C987.287 354.624 986.279 359.628 984.263 363.876C982.247 368.124 979.439 371.364 975.839 373.596C972.239 375.828 968.171 376.944 963.635 376.944ZM960.071 366.576C962.735 366.576 965.111 365.82 967.199 364.308C969.287 362.796 970.907 360.708 972.059 358.044C973.283 355.38 973.895 352.32 973.895 348.864C973.895 345.408 973.283 342.348 972.059 339.684C970.907 336.948 969.287 334.824 967.199 333.312C965.111 331.8 962.735 331.044 960.071 331.044C957.407 331.044 955.031 331.8 952.943 333.312C950.927 334.824 949.307 336.948 948.083 339.684C946.931 342.348 946.355 345.408 946.355 348.864C946.355 352.32 946.931 355.38 948.083 358.044C949.307 360.708 950.927 362.796 952.943 364.308C955.031 365.82 957.407 366.576 960.071 366.576ZM1016.33 376.944C1011.43 376.944 1007.15 376.152 1003.47 374.568C999.803 372.912 996.923 370.572 994.835 367.548C992.819 364.524 991.667 360.96 991.379 356.856H1004.77C1004.91 360.024 1005.96 362.544 1007.9 364.416C1009.85 366.216 1012.55 367.116 1016 367.116C1018.95 367.116 1021.29 366.504 1023.02 365.28C1024.82 363.984 1025.72 362.328 1025.72 360.312C1025.72 358.584 1025 357.252 1023.56 356.316C1022.19 355.38 1020.03 354.624 1017.08 354.048L1010.71 352.752C1005.09 351.672 1000.81 349.8 997.859 347.136C994.907 344.472 993.431 340.98 993.431 336.66C993.431 333.636 994.331 330.9 996.131 328.452C997.931 326.004 1000.45 324.096 1003.69 322.728C1007 321.288 1010.78 320.568 1015.03 320.568C1019.71 320.568 1023.78 321.324 1027.23 322.836C1030.69 324.348 1033.39 326.508 1035.33 329.316C1037.28 332.052 1038.29 335.256 1038.36 338.928H1025.18C1024.97 336.336 1023.96 334.284 1022.16 332.772C1020.36 331.188 1017.98 330.396 1015.03 330.396C1012.51 330.396 1010.42 330.9 1008.77 331.908C1007.18 332.916 1006.39 334.32 1006.39 336.12C1006.39 337.704 1007 338.964 1008.23 339.9C1009.52 340.764 1011.83 341.52 1015.14 342.168L1021.51 343.464C1026.98 344.544 1031.19 346.38 1034.15 348.972C1037.17 351.564 1038.68 355.092 1038.68 359.556C1038.68 362.868 1037.75 365.856 1035.87 368.52C1034.07 371.184 1031.48 373.272 1028.1 374.784C1024.71 376.224 1020.79 376.944 1016.33 376.944ZM1047.11 322.296H1060.28V375H1047.11V322.296ZM1047.11 364.524H1060.28V375H1047.11V364.524ZM1047.11 322.296H1053.69V332.772H1047.11V322.296ZM1046.89 300.48H1060.61V314.304H1046.89V300.48ZM1094.85 375.972C1089.16 375.972 1084.88 374.532 1082 371.652C1079.12 368.772 1077.68 364.416 1077.68 358.584V332.772H1065.69V322.296H1077.68V303.288H1090.86V322.296H1103.82V332.772H1090.86V356.64C1090.86 359.52 1091.47 361.716 1092.69 363.228C1093.92 364.668 1095.9 365.388 1098.63 365.388C1100 365.388 1101.33 365.28 1102.63 365.064V375C1101.91 375.216 1100.79 375.432 1099.28 375.648C1097.84 375.864 1096.36 375.972 1094.85 375.972ZM1133.73 376.944C1128.48 376.944 1123.8 375.828 1119.69 373.596C1115.66 371.364 1112.49 368.124 1110.19 363.876C1107.96 359.628 1106.84 354.516 1106.84 348.54C1106.84 343.068 1107.96 338.208 1110.19 333.96C1112.49 329.712 1115.66 326.436 1119.69 324.132C1123.72 321.756 1128.26 320.568 1133.3 320.568C1138.56 320.568 1143.09 321.756 1146.91 324.132C1150.72 326.436 1153.64 329.748 1155.66 334.068C1157.67 338.316 1158.68 343.284 1158.68 348.972V351.888H1120.34C1120.34 354.624 1120.92 357.108 1122.07 359.34C1123.22 361.572 1124.8 363.336 1126.82 364.632C1128.84 365.928 1131.14 366.576 1133.73 366.576C1136.68 366.576 1139.17 365.82 1141.18 364.308C1143.27 362.724 1144.53 360.564 1144.96 357.828H1158.36C1158 361.428 1156.74 364.704 1154.58 367.656C1152.49 370.536 1149.64 372.804 1146.04 374.46C1142.44 376.116 1138.34 376.944 1133.73 376.944ZM1145.18 342.384C1145.04 338.784 1143.88 335.904 1141.72 333.744C1139.56 331.512 1136.72 330.396 1133.19 330.396C1129.66 330.396 1126.71 331.512 1124.34 333.744C1121.96 335.976 1120.59 338.856 1120.23 342.384H1145.18Z" fill="white"/>
<rect x="534.25" y="176" width="530" height="116" fill="#64A8F2" fill-opacity="0.2"/>
<rect x="534.25" y="176" width="530" height="116" stroke="#64A8F2" stroke-width="2"/>
<path d="M584.648 268.944C577.16 268.944 570.644 267.36 565.1 264.192C559.556 261.024 555.272 256.416 552.248 250.368C549.296 244.32 547.82 237.084 547.82 228.66C547.82 220.74 549.44 213.828 552.68 207.924C555.92 201.948 560.384 197.376 566.072 194.208C571.832 191.04 578.276 189.456 585.404 189.456C591.524 189.456 596.996 190.608 601.82 192.912C606.716 195.144 610.64 198.42 613.592 202.74C616.616 206.988 618.452 212.064 619.1 217.968H604.412C603.692 212.928 601.676 208.932 598.364 205.98C595.124 202.956 590.804 201.444 585.404 201.444C580.94 201.444 576.944 202.56 573.416 204.792C569.96 206.952 567.26 210.084 565.316 214.188C563.372 218.292 562.4 223.116 562.4 228.66C562.4 234.42 563.372 239.46 565.316 243.78C567.26 248.028 569.924 251.304 573.308 253.608C576.764 255.84 580.688 256.956 585.08 256.956C590.552 256.956 595.088 255.372 598.688 252.204C602.288 248.964 604.484 244.788 605.276 239.676H619.424C618.776 245.508 616.976 250.656 614.024 255.12C611.144 259.512 607.184 262.932 602.144 265.38C597.104 267.756 591.272 268.944 584.648 268.944ZM650.802 268.944C645.546 268.944 640.866 267.828 636.762 265.596C632.658 263.292 629.454 260.052 627.15 255.876C624.918 251.628 623.802 246.624 623.802 240.864C623.802 235.176 624.954 230.208 627.258 225.96C629.562 221.712 632.73 218.436 636.762 216.132C640.866 213.756 645.546 212.568 650.802 212.568C656.058 212.568 660.738 213.72 664.842 216.024C668.946 218.328 672.15 221.64 674.454 225.96C676.758 230.208 677.91 235.176 677.91 240.864C677.91 246.624 676.758 251.628 674.454 255.876C672.15 260.052 668.946 263.292 664.842 265.596C660.738 267.828 656.058 268.944 650.802 268.944ZM650.802 258.576C653.538 258.576 655.914 257.892 657.93 256.524C660.018 255.084 661.638 253.032 662.79 250.368C663.942 247.704 664.518 244.536 664.518 240.864C664.518 235.248 663.258 230.892 660.738 227.796C658.218 224.628 654.906 223.044 650.802 223.044C648.138 223.044 645.762 223.764 643.674 225.204C641.658 226.572 640.074 228.588 638.922 231.252C637.77 233.916 637.194 237.12 637.194 240.864C637.194 246.408 638.418 250.764 640.866 253.932C643.314 257.028 646.626 258.576 650.802 258.576ZM686.155 214.296H699.331V216.672C699.331 218.328 699.187 220.056 698.899 221.856C700.483 218.976 702.571 216.708 705.163 215.052C707.827 213.396 711.139 212.568 715.099 212.568C718.915 212.568 722.227 213.432 725.035 215.16C727.843 216.888 729.967 219.336 731.407 222.504C732.919 225.672 733.675 229.416 733.675 233.736V267H720.499V235.68C720.499 231.792 719.599 228.732 717.799 226.5C716.071 224.196 713.659 223.044 710.563 223.044C708.475 223.044 706.567 223.62 704.839 224.772C703.111 225.924 701.743 227.508 700.735 229.524C699.799 231.468 699.331 233.664 699.331 236.112V267H686.155V214.296ZM767.229 267.972C761.541 267.972 757.257 266.532 754.377 263.652C751.497 260.772 750.057 256.416 750.057 250.584V224.772H738.069V214.296H750.057V195.288H763.233V214.296H776.193V224.772H763.233V248.64C763.233 251.52 763.845 253.716 765.069 255.228C766.293 256.668 768.273 257.388 771.009 257.388C772.377 257.388 773.709 257.28 775.005 257.064V267C774.285 267.216 773.169 267.432 771.657 267.648C770.217 267.864 768.741 267.972 767.229 267.972ZM782.874 214.296H796.05V218.292C796.05 220.236 795.906 222.072 795.618 223.8C797.202 220.416 799.254 217.716 801.774 215.7C804.294 213.612 807.39 212.568 811.062 212.568C812.07 212.568 813.006 212.676 813.87 212.892V225.636C812.718 225.348 811.458 225.204 810.09 225.204C807.282 225.204 804.834 225.744 802.746 226.824C800.658 227.832 799.002 229.488 797.778 231.792C796.626 234.096 796.05 237.12 796.05 240.864V267H782.874V214.296ZM819.843 214.296H833.019V267H819.843V214.296ZM819.843 256.524H833.019V267H819.843V256.524ZM819.843 214.296H826.431V224.772H819.843V214.296ZM819.627 192.48H833.343V206.304H819.627V192.48ZM873.961 268.944C869.785 268.944 866.293 268.116 863.485 266.46C860.677 264.804 858.517 262.572 857.005 259.764C857.293 261.564 857.437 263.256 857.437 264.84V267H844.261V191.4H857.437V216.672C857.437 217.824 857.293 219.552 857.005 221.856C858.805 218.904 861.073 216.636 863.809 215.052C866.545 213.396 869.857 212.568 873.745 212.568C878.065 212.568 882.025 213.72 885.625 216.024C889.297 218.328 892.213 221.64 894.373 225.96C896.533 230.208 897.613 235.176 897.613 240.864C897.613 246.624 896.605 251.628 894.589 255.876C892.573 260.124 889.765 263.364 886.165 265.596C882.565 267.828 878.497 268.944 873.961 268.944ZM870.397 258.576C873.061 258.576 875.437 257.82 877.525 256.308C879.613 254.796 881.233 252.708 882.385 250.044C883.609 247.38 884.221 244.32 884.221 240.864C884.221 237.408 883.609 234.348 882.385 231.684C881.233 228.948 879.613 226.824 877.525 225.312C875.437 223.8 873.061 223.044 870.397 223.044C867.733 223.044 865.357 223.8 863.269 225.312C861.253 226.824 859.633 228.948 858.409 231.684C857.257 234.348 856.681 237.408 856.681 240.864C856.681 244.32 857.257 247.38 858.409 250.044C859.633 252.708 861.253 254.796 863.269 256.308C865.357 257.82 867.733 258.576 870.397 258.576ZM923.953 268.944C920.353 268.944 917.113 268.152 914.233 266.568C911.425 264.912 909.193 262.5 907.537 259.332C905.881 256.164 905.053 252.312 905.053 247.776V214.296H918.337V245.724C918.337 249.54 919.165 252.6 920.821 254.904C922.477 257.208 924.853 258.36 927.949 258.36C930.181 258.36 932.161 257.856 933.889 256.848C935.617 255.768 936.949 254.256 937.885 252.312C938.893 250.368 939.397 248.136 939.397 245.616V214.296H952.573V267H939.505V264.84C939.505 263.544 939.613 262.248 939.829 260.952L940.045 259.764C938.533 262.572 936.481 264.804 933.889 266.46C931.369 268.116 928.057 268.944 923.953 268.944ZM987.089 267.972C981.401 267.972 977.117 266.532 974.237 263.652C971.357 260.772 969.917 256.416 969.917 250.584V224.772H957.929V214.296H969.917V195.288H983.093V214.296H996.053V224.772H983.093V248.64C983.093 251.52 983.705 253.716 984.929 255.228C986.153 256.668 988.133 257.388 990.869 257.388C992.237 257.388 993.569 257.28 994.865 257.064V267C994.145 267.216 993.029 267.432 991.517 267.648C990.077 267.864 988.601 267.972 987.089 267.972ZM1025.97 268.944C1020.71 268.944 1016.03 267.828 1011.93 265.596C1007.9 263.364 1004.73 260.124 1002.42 255.876C1000.19 251.628 999.077 246.516 999.077 240.54C999.077 235.068 1000.19 230.208 1002.42 225.96C1004.73 221.712 1007.9 218.436 1011.93 216.132C1015.96 213.756 1020.5 212.568 1025.54 212.568C1030.79 212.568 1035.33 213.756 1039.15 216.132C1042.96 218.436 1045.88 221.748 1047.89 226.068C1049.91 230.316 1050.92 235.284 1050.92 240.972V243.888H1012.58C1012.58 246.624 1013.15 249.108 1014.31 251.34C1015.46 253.572 1017.04 255.336 1019.06 256.632C1021.07 257.928 1023.38 258.576 1025.97 258.576C1028.92 258.576 1031.4 257.82 1033.42 256.308C1035.51 254.724 1036.77 252.564 1037.2 249.828H1050.59C1050.23 253.428 1048.97 256.704 1046.81 259.656C1044.73 262.536 1041.88 264.804 1038.28 266.46C1034.68 268.116 1030.58 268.944 1025.97 268.944ZM1037.42 234.384C1037.27 230.784 1036.12 227.904 1033.96 225.744C1031.8 223.512 1028.96 222.396 1025.43 222.396C1021.9 222.396 1018.95 223.512 1016.57 225.744C1014.2 227.976 1012.83 230.856 1012.47 234.384H1037.42Z" fill="white"/>
<rect x="530" y="172" width="9" height="9" fill="white" stroke="#64A8F2" stroke-width="2"/>
<rect x="530" y="288" width="9" height="9" fill="white" stroke="#64A8F2" stroke-width="2"/>
<rect x="1059" y="172" width="9" height="9" fill="white" stroke="#64A8F2" stroke-width="2"/>
<rect x="1059" y="288" width="9" height="9" fill="white" stroke="#64A8F2" stroke-width="2"/>
</g>
<g filter="url(#filter1_d_6002_4881)">
<path d="M1176.92 447.947L1173.01 428.041L1190.95 437.866L1182.11 440.429L1176.92 447.947Z" fill="black"/>
<path d="M1176.92 447.947L1173.01 428.041L1190.95 437.866L1182.11 440.429L1176.92 447.947Z" stroke="white" stroke-width="0.829956"/>
</g>
<g filter="url(#filter2_d_6002_4881)">
<path d="M1188 449.66C1188 448.743 1188.74 448 1189.66 448H1251.08C1262.08 448 1271 456.918 1271 467.919V473.081C1271 484.082 1262.08 493 1251.08 493H1207.92C1196.92 493 1188 484.082 1188 473.081V449.66Z" fill="#FF754A" shape-rendering="crispEdges"/>
<path d="M1189.66 448.83H1251.08C1261.62 448.83 1270.17 457.376 1270.17 467.919V473.081C1270.17 483.624 1261.62 492.17 1251.08 492.17H1207.92C1197.38 492.17 1188.83 483.624 1188.83 473.081V449.66C1188.83 449.202 1189.2 448.83 1189.66 448.83Z" stroke="#D2532C" stroke-width="1.65991" shape-rendering="crispEdges"/>
<path d="M1207.93 479.055C1206.63 479.055 1205.55 478.804 1204.69 478.303C1203.82 477.784 1203.18 477.075 1202.77 476.176C1202.35 475.259 1202.15 474.178 1202.15 472.933H1205.05C1205.07 474.109 1205.29 475.026 1205.73 475.683C1206.17 476.323 1206.92 476.643 1207.96 476.643C1209.05 476.643 1209.81 476.314 1210.26 475.657C1210.73 475 1210.96 474.057 1210.96 472.83V460.482H1213.87V473.193C1213.87 474.403 1213.63 475.45 1213.14 476.331C1212.66 477.213 1211.97 477.888 1211.07 478.355C1210.17 478.822 1209.12 479.055 1207.93 479.055ZM1222.48 479.055C1221.26 479.055 1220.16 478.787 1219.19 478.251C1218.24 477.698 1217.49 476.919 1216.96 475.916C1216.44 474.896 1216.18 473.712 1216.18 472.363C1216.18 471.048 1216.45 469.881 1216.98 468.861C1217.52 467.84 1218.26 467.054 1219.22 466.5C1220.17 465.93 1221.26 465.644 1222.48 465.644C1223.69 465.644 1224.78 465.93 1225.73 466.5C1226.69 467.054 1227.45 467.84 1227.98 468.861C1228.54 469.881 1228.81 471.048 1228.81 472.363C1228.81 473.712 1228.54 474.896 1227.98 475.916C1227.45 476.919 1226.69 477.698 1225.73 478.251C1224.78 478.787 1223.69 479.055 1222.48 479.055ZM1222.48 476.954C1223.21 476.954 1223.84 476.772 1224.38 476.409C1224.91 476.029 1225.33 475.493 1225.62 474.801C1225.92 474.109 1226.06 473.296 1226.06 472.363C1226.06 470.945 1225.74 469.829 1225.08 469.016C1224.42 468.186 1223.56 467.771 1222.48 467.771C1221.77 467.771 1221.15 467.962 1220.62 468.342C1220.08 468.705 1219.67 469.233 1219.37 469.924C1219.08 470.616 1218.93 471.429 1218.93 472.363C1218.93 473.781 1219.25 474.905 1219.89 475.735C1220.53 476.548 1221.39 476.954 1222.48 476.954ZM1236.61 479.055C1235.38 479.055 1234.28 478.787 1233.31 478.251C1232.36 477.698 1231.62 476.919 1231.08 475.916C1230.56 474.896 1230.3 473.712 1230.3 472.363C1230.3 471.048 1230.57 469.881 1231.11 468.861C1231.64 467.84 1232.39 467.054 1233.34 466.5C1234.29 465.93 1235.38 465.644 1236.61 465.644C1237.82 465.644 1238.9 465.93 1239.85 466.5C1240.82 467.054 1241.57 467.84 1242.11 468.861C1242.66 469.881 1242.94 471.048 1242.94 472.363C1242.94 473.712 1242.66 474.896 1242.11 475.916C1241.57 476.919 1240.82 477.698 1239.85 478.251C1238.9 478.787 1237.82 479.055 1236.61 479.055ZM1236.61 476.954C1237.33 476.954 1237.96 476.772 1238.5 476.409C1239.04 476.029 1239.45 475.493 1239.75 474.801C1240.04 474.109 1240.19 473.296 1240.19 472.363C1240.19 470.945 1239.86 469.829 1239.2 469.016C1238.54 468.186 1237.68 467.771 1236.61 467.771C1235.9 467.771 1235.28 467.962 1234.74 468.342C1234.2 468.705 1233.79 469.233 1233.49 469.924C1233.2 470.616 1233.05 471.429 1233.05 472.363C1233.05 473.781 1233.37 474.905 1234.01 475.735C1234.65 476.548 1235.52 476.954 1236.61 476.954ZM1245.18 466.059H1247.85V466.786C1247.85 467.114 1247.83 467.46 1247.8 467.823C1248.18 467.183 1248.7 466.665 1249.36 466.267C1250.03 465.852 1250.81 465.644 1251.69 465.644C1252.62 465.644 1253.43 465.852 1254.1 466.267C1254.79 466.665 1255.32 467.244 1255.68 468.005C1256.05 468.766 1256.23 469.665 1256.23 470.702V478.64H1253.53V471.066C1253.53 469.993 1253.32 469.181 1252.88 468.627C1252.47 468.057 1251.83 467.771 1250.96 467.771C1250.36 467.771 1249.81 467.927 1249.33 468.238C1248.86 468.532 1248.5 468.939 1248.24 469.457C1248 469.976 1247.88 470.547 1247.88 471.169V478.64H1245.18V466.059Z" fill="white"/>
</g>
<g filter="url(#filter3_d_6002_4881)">
<path d="M515.494 206.947L519.4 187.041L501.467 196.866L510.301 199.429L515.494 206.947Z" fill="black"/>
<path d="M515.494 206.947L519.4 187.041L501.467 196.866L510.301 199.429L515.494 206.947Z" stroke="white" stroke-width="0.829956"/>
</g>
<g filter="url(#filter4_d_6002_4881)">
<path d="M504 208.66C504 207.743 503.257 207 502.34 207H437.919C426.918 207 418 215.918 418 226.919V232.081C418 243.082 426.918 252 437.919 252H484.081C495.082 252 504 243.082 504 232.081V208.66Z" fill="#9945FF" shape-rendering="crispEdges"/>
<path d="M502.34 207.83H437.919C427.376 207.83 418.83 216.376 418.83 226.919V232.081C418.83 242.624 427.376 251.17 437.919 251.17H484.081C494.624 251.17 503.17 242.624 503.17 232.081V208.66C503.17 208.202 502.798 207.83 502.34 207.83Z" stroke="#772CD3" stroke-width="1.65991" shape-rendering="crispEdges"/>
<path d="M440.183 219.482H443.555L450.922 237.64H447.731L442.414 223.581C442.362 223.39 442.301 223.209 442.232 223.036C442.111 222.725 441.973 222.327 441.817 221.843C441.748 222.067 441.679 222.266 441.61 222.439C441.54 222.595 441.471 222.777 441.402 222.984L441.169 223.581L435.877 237.64H432.816L440.183 219.482ZM437.459 230.04H446.149V232.452H437.459V230.04ZM452.173 219.482H454.871V230.221C455.165 229.858 455.476 229.512 455.805 229.184L459.774 225.059H463.224L454.871 233.412V237.64H452.173V219.482ZM455.779 231.881L457.673 230.169L463.769 237.64H460.241L455.779 231.881ZM464.777 225.059H467.474V237.64H464.777V225.059ZM464.777 235.461H467.474V237.64H464.777V235.461ZM464.777 225.059H466.125V227.238H464.777V225.059ZM464.647 219.923H467.578V222.906H464.647V219.923ZM470.489 225.059H473.187V225.811C473.187 226.296 473.17 226.771 473.135 227.238C473.481 226.46 473.974 225.837 474.614 225.371C475.271 224.886 476.049 224.644 476.948 224.644C477.191 224.644 477.398 224.661 477.571 224.696V227.316C477.312 227.264 477.044 227.238 476.767 227.238C476.023 227.238 475.383 227.377 474.847 227.653C474.311 227.93 473.896 228.362 473.602 228.95C473.326 229.538 473.187 230.282 473.187 231.181V237.64H470.489V225.059ZM482.57 238.055C481.809 238.055 481.091 237.9 480.417 237.588C479.76 237.277 479.232 236.827 478.834 236.239C478.437 235.651 478.238 234.968 478.238 234.19C478.238 232.962 478.644 232.037 479.457 231.415C480.287 230.775 481.394 230.351 482.777 230.143L485.034 229.832C485.518 229.763 485.856 229.633 486.046 229.443C486.253 229.253 486.357 228.985 486.357 228.639C486.357 228.051 486.141 227.584 485.709 227.238C485.293 226.875 484.74 226.693 484.048 226.693C483.218 226.693 482.561 226.91 482.077 227.342C481.61 227.757 481.351 228.328 481.299 229.054H478.575C478.627 228.241 478.869 227.498 479.301 226.823C479.751 226.149 480.365 225.621 481.143 225.241C481.921 224.843 482.829 224.644 483.867 224.644C485.008 224.644 485.959 224.852 486.72 225.267C487.498 225.665 488.078 226.252 488.458 227.031C488.839 227.792 489.029 228.717 489.029 229.806V237.64H486.487V237.069C486.487 236.706 486.513 236.326 486.565 235.928C486.219 236.603 485.709 237.13 485.034 237.51C484.36 237.874 483.538 238.055 482.57 238.055ZM483.14 236.032C483.746 236.032 484.299 235.902 484.801 235.643C485.302 235.366 485.691 234.986 485.968 234.501C486.262 234.017 486.409 233.464 486.409 232.841V231.207C486.305 231.328 486.141 231.432 485.916 231.518C485.691 231.605 485.38 231.683 484.982 231.752L483.53 232.037C482.734 232.193 482.112 232.435 481.662 232.763C481.212 233.092 480.987 233.55 480.987 234.138C480.987 234.709 481.195 235.167 481.61 235.513C482.025 235.859 482.535 236.032 483.14 236.032Z" fill="white"/>
</g>
<defs>
<filter id="filter0_f_6002_4881" x="-680.286" y="-679.615" width="1519.72" height="1315.83" filterUnits="userSpaceOnUse" color-interpolation-filters="sRGB">
<feFlood flood-opacity="0" result="BackgroundImageFix"/>
<feBlend mode="normal" in="SourceGraphic" in2="BackgroundImageFix" result="shape"/>
<feGaussianBlur stdDeviation="162.859" result="effect1_foregroundBlur_6002_4881"/>
</filter>
<filter id="filter1_d_6002_4881" x="1170.77" y="426.422" width="22.9087" height="25.0645" filterUnits="userSpaceOnUse" color-interpolation-filters="sRGB">
<feFlood flood-opacity="0" result="BackgroundImageFix"/>
<feColorMatrix in="SourceAlpha" type="matrix" values="0 0 0 0 0 0 0 0 0 0 0 0 0 0 0 0 0 0 127 0" result="hardAlpha"/>
<feOffset dy="0.829956"/>
<feGaussianBlur stdDeviation="0.829956"/>
<feComposite in2="hardAlpha" operator="out"/>
<feColorMatrix type="matrix" values="0 0 0 0 0 0 0 0 0 0 0 0 0 0 0 0 0 0 0.25 0"/>
<feBlend mode="normal" in2="BackgroundImageFix" result="effect1_dropShadow_6002_4881"/>
<feBlend mode="normal" in="SourceGraphic" in2="effect1_dropShadow_6002_4881" result="shape"/>
</filter>
<filter id="filter2_d_6002_4881" x="1183.02" y="443.02" width="99.5991" height="61.5991" filterUnits="userSpaceOnUse" color-interpolation-filters="sRGB">
<feFlood flood-opacity="0" result="BackgroundImageFix"/>
<feColorMatrix in="SourceAlpha" type="matrix" values="0 0 0 0 0 0 0 0 0 0 0 0 0 0 0 0 0 0 127 0" result="hardAlpha"/>
<feOffset dx="3.31982" dy="3.31982"/>
<feGaussianBlur stdDeviation="4.14978"/>
<feComposite in2="hardAlpha" operator="out"/>
<feColorMatrix type="matrix" values="0 0 0 0 1 0 0 0 0 0.458824 0 0 0 0 0.290196 0 0 0 0.2 0"/>
<feBlend mode="normal" in2="BackgroundImageFix" result="effect1_dropShadow_6002_4881"/>
<feBlend mode="normal" in="SourceGraphic" in2="effect1_dropShadow_6002_4881" result="shape"/>
</filter>
<filter id="filter3_d_6002_4881" x="498.731" y="185.422" width="22.9087" height="25.0645" filterUnits="userSpaceOnUse" color-interpolation-filters="sRGB">
<feFlood flood-opacity="0" result="BackgroundImageFix"/>
<feColorMatrix in="SourceAlpha" type="matrix" values="0 0 0 0 0 0 0 0 0 0 0 0 0 0 0 0 0 0 127 0" result="hardAlpha"/>
<feOffset dy="0.829956"/>
<feGaussianBlur stdDeviation="0.829956"/>
<feComposite in2="hardAlpha" operator="out"/>
<feColorMatrix type="matrix" values="0 0 0 0 0 0 0 0 0 0 0 0 0 0 0 0 0 0 0.25 0"/>
<feBlend mode="normal" in2="BackgroundImageFix" result="effect1_dropShadow_6002_4881"/>
<feBlend mode="normal" in="SourceGraphic" in2="effect1_dropShadow_6002_4881" result="shape"/>
</filter>
<filter id="filter4_d_6002_4881" x="413.02" y="202.02" width="102.599" height="61.5991" filterUnits="userSpaceOnUse" color-interpolation-filters="sRGB">
<feFlood flood-opacity="0" result="BackgroundImageFix"/>
<feColorMatrix in="SourceAlpha" type="matrix" values="0 0 0 0 0 0 0 0 0 0 0 0 0 0 0 0 0 0 127 0" result="hardAlpha"/>
<feOffset dx="3.31982" dy="3.31982"/>
<feGaussianBlur stdDeviation="4.14978"/>
<feComposite in2="hardAlpha" operator="out"/>
<feColorMatrix type="matrix" values="0 0 0 0 0.6 0 0 0 0 0.270588 0 0 0 0 1 0 0 0 0.16 0"/>
<feBlend mode="normal" in2="BackgroundImageFix" result="effect1_dropShadow_6002_4881"/>
<feBlend mode="normal" in="SourceGraphic" in2="effect1_dropShadow_6002_4881" result="shape"/>
</filter>
<linearGradient id="paint0_linear_6002_4881" x1="451.477" y1="356.32" x2="-244.254" y2="-493.545" gradientUnits="userSpaceOnUse">
<stop offset="0.08" stop-color="#9945FF"/>
<stop offset="0.3" stop-color="#8752F3"/>
<stop offset="0.5" stop-color="#5497D5"/>
<stop offset="0.6" stop-color="#43B4CA"/>
<stop offset="0.72" stop-color="#28E0B9"/>
<stop offset="0.97" stop-color="#14F195"/>
</linearGradient>
<clipPath id="clip0_6002_4881">
<rect width="1734.5" height="576" fill="white"/>
</clipPath>
</defs>
</svg>
