<svg width="391" height="456" viewBox="0 0 391 456" fill="none" xmlns="http://www.w3.org/2000/svg">
<g clip-path="url(#clip0_6002_4841)">
<g filter="url(#filter0_f_6002_4841)">
<path d="M190.596 -209.127L247.103 -146.172C269.772 -120.915 278.141 -85.9124 269.345 -53.134L235.965 71.2692C228.084 100.643 207.307 124.857 179.471 137.11L97.9596 172.989C61.5831 189.001 19.1843 182.035 -10.1573 155.226L-50.7906 118.101C-64.6563 105.432 -81.799 96.9092 -100.269 93.5009L-199.244 75.237C-258.591 64.2856 -294.918 3.80539 -276.706 -53.7305L-273.496 -63.8712C-260.292 -105.587 -221.58 -133.939 -177.824 -133.939H-71.9594C-43.8834 -133.939 -17.0914 -145.701 1.91159 -166.368L42.0451 -210.017C82.1256 -253.608 151.041 -253.195 190.596 -209.127Z" fill="url(#paint0_linear_6002_4841)"/>
<path d="M190.596 -209.127L247.103 -146.172C269.772 -120.915 278.141 -85.9124 269.345 -53.134L235.965 71.2692C228.084 100.643 207.307 124.857 179.471 137.11L97.9596 172.989C61.5831 189.001 19.1843 182.035 -10.1573 155.226L-50.7906 118.101C-64.6563 105.432 -81.799 96.9092 -100.269 93.5009L-199.244 75.237C-258.591 64.2856 -294.918 3.80539 -276.706 -53.7305L-273.496 -63.8712C-260.292 -105.587 -221.58 -133.939 -177.824 -133.939H-71.9594C-43.8834 -133.939 -17.0914 -145.701 1.91159 -166.368L42.0451 -210.017C82.1256 -253.608 151.041 -253.195 190.596 -209.127Z" stroke="black" stroke-width="0.528161"/>
</g>
<path d="M69.5648 219.864C66.2368 219.864 63.3408 219.16 60.8768 217.752C58.4128 216.344 56.5088 214.296 55.1648 211.608C53.8528 208.92 53.1968 205.704 53.1968 201.96C53.1968 198.44 53.9168 195.368 55.3568 192.744C56.7968 190.088 58.7808 188.056 61.3088 186.648C63.8688 185.24 66.7328 184.536 69.9008 184.536C72.6208 184.536 75.0528 185.048 77.1968 186.072C79.3728 187.064 81.1168 188.52 82.4288 190.44C83.7728 192.328 84.5888 194.584 84.8768 197.208H78.3488C78.0288 194.968 77.1328 193.192 75.6608 191.88C74.2208 190.536 72.3008 189.864 69.9008 189.864C67.9168 189.864 66.1408 190.36 64.5728 191.352C63.0368 192.312 61.8368 193.704 60.9728 195.528C60.1088 197.352 59.6768 199.496 59.6768 201.96C59.6768 204.52 60.1088 206.76 60.9728 208.68C61.8368 210.568 63.0208 212.024 64.5248 213.048C66.0608 214.04 67.8048 214.536 69.7568 214.536C72.1888 214.536 74.2048 213.832 75.8048 212.424C77.4048 210.984 78.3808 209.128 78.7328 206.856H85.0208C84.7328 209.448 83.9328 211.736 82.6208 213.72C81.3408 215.672 79.5808 217.192 77.3408 218.28C75.1008 219.336 72.5088 219.864 69.5648 219.864ZM98.9667 219.864C96.6307 219.864 94.5507 219.368 92.7267 218.376C90.9027 217.352 89.4787 215.912 88.4547 214.056C87.4627 212.168 86.9667 209.944 86.9667 207.384C86.9667 204.856 87.4787 202.648 88.5027 200.76C89.5267 198.872 90.9347 197.416 92.7267 196.392C94.5507 195.336 96.6307 194.808 98.9667 194.808C101.303 194.808 103.383 195.32 105.207 196.344C107.031 197.368 108.455 198.84 109.479 200.76C110.503 202.648 111.015 204.856 111.015 207.384C111.015 209.944 110.503 212.168 109.479 214.056C108.455 215.912 107.031 217.352 105.207 218.376C103.383 219.368 101.303 219.864 98.9667 219.864ZM98.9667 215.256C100.183 215.256 101.239 214.952 102.135 214.344C103.063 213.704 103.783 212.792 104.295 211.608C104.807 210.424 105.063 209.016 105.063 207.384C105.063 204.888 104.503 202.952 103.383 201.576C102.263 200.168 100.791 199.464 98.9667 199.464C97.7827 199.464 96.7267 199.784 95.7987 200.424C94.9027 201.032 94.1987 201.928 93.6867 203.112C93.1747 204.296 92.9187 205.72 92.9187 207.384C92.9187 209.848 93.4627 211.784 94.5507 213.192C95.6387 214.568 97.1107 215.256 98.9667 215.256ZM114.679 195.576H120.535V196.632C120.535 197.368 120.471 198.136 120.343 198.936C121.047 197.656 121.975 196.648 123.127 195.912C124.311 195.176 125.783 194.808 127.543 194.808C129.239 194.808 130.711 195.192 131.959 195.96C133.207 196.728 134.151 197.816 134.791 199.224C135.463 200.632 135.799 202.296 135.799 204.216V219H129.943V205.08C129.943 203.352 129.543 201.992 128.743 201C127.975 199.976 126.903 199.464 125.527 199.464C124.599 199.464 123.751 199.72 122.983 200.232C122.215 200.744 121.607 201.448 121.159 202.344C120.743 203.208 120.535 204.184 120.535 205.272V219H114.679V195.576ZM150.712 219.432C148.184 219.432 146.28 218.792 145 217.512C143.72 216.232 143.08 214.296 143.08 211.704V200.232H137.752V195.576H143.08V187.128H148.936V195.576H154.696V200.232H148.936V210.84C148.936 212.12 149.208 213.096 149.752 213.768C150.296 214.408 151.176 214.728 152.392 214.728C153 214.728 153.592 214.68 154.168 214.584V219C153.848 219.096 153.352 219.192 152.68 219.288C152.04 219.384 151.384 219.432 150.712 219.432ZM157.665 195.576H163.521V197.352C163.521 198.216 163.457 199.032 163.329 199.8C164.033 198.296 164.945 197.096 166.065 196.2C167.185 195.272 168.561 194.808 170.193 194.808C170.641 194.808 171.057 194.856 171.441 194.952V200.616C170.929 200.488 170.369 200.424 169.761 200.424C168.513 200.424 167.425 200.664 166.497 201.144C165.569 201.592 164.833 202.328 164.289 203.352C163.777 204.376 163.521 205.72 163.521 207.384V219H157.665V195.576ZM174.096 195.576H179.952V219H174.096V195.576ZM174.096 214.344H179.952V219H174.096V214.344ZM174.096 195.576H177.024V200.232H174.096V195.576ZM174 185.88H180.096V192.024H174V185.88ZM198.148 219.864C196.292 219.864 194.74 219.496 193.492 218.76C192.244 218.024 191.284 217.032 190.612 215.784C190.74 216.584 190.804 217.336 190.804 218.04V219H184.948V185.4H190.804V196.632C190.804 197.144 190.74 197.912 190.612 198.936C191.412 197.624 192.42 196.616 193.636 195.912C194.852 195.176 196.324 194.808 198.052 194.808C199.972 194.808 201.732 195.32 203.332 196.344C204.964 197.368 206.26 198.84 207.22 200.76C208.18 202.648 208.66 204.856 208.66 207.384C208.66 209.944 208.212 212.168 207.316 214.056C206.42 215.944 205.172 217.384 203.572 218.376C201.972 219.368 200.164 219.864 198.148 219.864ZM196.564 215.256C197.748 215.256 198.804 214.92 199.732 214.248C200.66 213.576 201.38 212.648 201.892 211.464C202.436 210.28 202.708 208.92 202.708 207.384C202.708 205.848 202.436 204.488 201.892 203.304C201.38 202.088 200.66 201.144 199.732 200.472C198.804 199.8 197.748 199.464 196.564 199.464C195.38 199.464 194.324 199.8 193.396 200.472C192.5 201.144 191.78 202.088 191.236 203.304C190.724 204.488 190.468 205.848 190.468 207.384C190.468 208.92 190.724 210.28 191.236 211.464C191.78 212.648 192.5 213.576 193.396 214.248C194.324 214.92 195.38 215.256 196.564 215.256ZM220.367 219.864C218.767 219.864 217.327 219.512 216.047 218.808C214.799 218.072 213.807 217 213.071 215.592C212.335 214.184 211.967 212.472 211.967 210.456V195.576H217.871V209.544C217.871 211.24 218.239 212.6 218.975 213.624C219.711 214.648 220.767 215.16 222.143 215.16C223.135 215.16 224.015 214.936 224.783 214.488C225.551 214.008 226.143 213.336 226.559 212.472C227.007 211.608 227.231 210.616 227.231 209.496V195.576H233.087V219H227.279V218.04C227.279 217.464 227.327 216.888 227.423 216.312L227.519 215.784C226.847 217.032 225.935 218.024 224.783 218.76C223.663 219.496 222.191 219.864 220.367 219.864ZM248.427 219.432C245.899 219.432 243.995 218.792 242.715 217.512C241.435 216.232 240.795 214.296 240.795 211.704V200.232H235.467V195.576H240.795V187.128H246.651V195.576H252.411V200.232H246.651V210.84C246.651 212.12 246.923 213.096 247.467 213.768C248.011 214.408 248.891 214.728 250.107 214.728C250.715 214.728 251.307 214.68 251.883 214.584V219C251.563 219.096 251.067 219.192 250.395 219.288C249.755 219.384 249.099 219.432 248.427 219.432ZM265.707 219.864C263.371 219.864 261.291 219.368 259.467 218.376C257.675 217.384 256.267 215.944 255.243 214.056C254.251 212.168 253.755 209.896 253.755 207.24C253.755 204.808 254.251 202.648 255.243 200.76C256.267 198.872 257.675 197.416 259.467 196.392C261.259 195.336 263.275 194.808 265.515 194.808C267.851 194.808 269.867 195.336 271.563 196.392C273.259 197.416 274.555 198.888 275.451 200.808C276.347 202.696 276.795 204.904 276.795 207.432V208.728H259.755C259.755 209.944 260.011 211.048 260.523 212.04C261.035 213.032 261.739 213.816 262.635 214.392C263.531 214.968 264.555 215.256 265.707 215.256C267.019 215.256 268.123 214.92 269.019 214.248C269.947 213.544 270.507 212.584 270.699 211.368H276.651C276.491 212.968 275.931 214.424 274.971 215.736C274.043 217.016 272.779 218.024 271.179 218.76C269.579 219.496 267.755 219.864 265.707 219.864ZM270.795 204.504C270.731 202.904 270.219 201.624 269.259 200.664C268.299 199.672 267.035 199.176 265.467 199.176C263.899 199.176 262.587 199.672 261.531 200.664C260.475 201.656 259.867 202.936 259.707 204.504H270.795Z" fill="black"/>
<path d="M298.985 219.432C296.457 219.432 294.553 218.792 293.273 217.512C291.993 216.232 291.353 214.296 291.353 211.704V200.232H286.025V195.576H291.353V187.128H297.209V195.576H302.969V200.232H297.209V210.84C297.209 212.12 297.481 213.096 298.025 213.768C298.569 214.408 299.449 214.728 300.665 214.728C301.273 214.728 301.865 214.68 302.441 214.584V219C302.121 219.096 301.625 219.192 300.953 219.288C300.313 219.384 299.657 219.432 298.985 219.432ZM316.313 219.864C313.977 219.864 311.897 219.368 310.073 218.376C308.249 217.352 306.825 215.912 305.801 214.056C304.809 212.168 304.313 209.944 304.313 207.384C304.313 204.856 304.825 202.648 305.849 200.76C306.873 198.872 308.281 197.416 310.073 196.392C311.897 195.336 313.977 194.808 316.313 194.808C318.649 194.808 320.729 195.32 322.553 196.344C324.377 197.368 325.801 198.84 326.825 200.76C327.849 202.648 328.361 204.856 328.361 207.384C328.361 209.944 327.849 212.168 326.825 214.056C325.801 215.912 324.377 217.352 322.553 218.376C320.729 219.368 318.649 219.864 316.313 219.864ZM316.313 215.256C317.529 215.256 318.585 214.952 319.481 214.344C320.409 213.704 321.129 212.792 321.641 211.608C322.153 210.424 322.409 209.016 322.409 207.384C322.409 204.888 321.849 202.952 320.729 201.576C319.609 200.168 318.137 199.464 316.313 199.464C315.129 199.464 314.073 199.784 313.145 200.424C312.249 201.032 311.545 201.928 311.033 203.112C310.521 204.296 310.265 205.72 310.265 207.384C310.265 209.848 310.809 211.784 311.897 213.192C312.985 214.568 314.457 215.256 316.313 215.256ZM77.3506 267.432C74.8226 267.432 72.9186 266.792 71.6386 265.512C70.3586 264.232 69.7186 262.296 69.7186 259.704V248.232H64.3906V243.576H69.7186V235.128H75.5746V243.576H81.3346V248.232H75.5746V258.84C75.5746 260.12 75.8466 261.096 76.3906 261.768C76.9346 262.408 77.8146 262.728 79.0306 262.728C79.6386 262.728 80.2306 262.68 80.8066 262.584V267C80.4866 267.096 79.9906 267.192 79.3186 267.288C78.6786 267.384 78.0226 267.432 77.3506 267.432ZM84.3038 233.4H90.1598V244.632C90.1598 245.016 90.1438 245.32 90.1118 245.544C90.1118 245.768 90.0958 245.992 90.0638 246.216C90.0318 246.44 89.9998 246.68 89.9678 246.936C90.6718 245.656 91.5998 244.648 92.7518 243.912C93.9358 243.176 95.4078 242.808 97.1678 242.808C98.8638 242.808 100.336 243.192 101.584 243.96C102.832 244.728 103.776 245.816 104.416 247.224C105.088 248.632 105.424 250.296 105.424 252.216V267H99.5678V253.08C99.5678 251.352 99.1678 249.992 98.3678 249C97.5998 247.976 96.5278 247.464 95.1518 247.464C94.2238 247.464 93.3758 247.72 92.6078 248.232C91.8398 248.744 91.2318 249.448 90.7838 250.344C90.3678 251.208 90.1598 252.184 90.1598 253.272V267H84.3038V233.4ZM110.203 243.576H116.059V267H110.203V243.576ZM110.203 262.344H116.059V267H110.203V262.344ZM110.203 243.576H113.131V248.232H110.203V243.576ZM110.107 233.88H116.203V240.024H110.107V233.88ZM130.416 267.864C128.24 267.864 126.336 267.512 124.704 266.808C123.072 266.072 121.792 265.032 120.864 263.688C119.968 262.344 119.456 260.76 119.328 258.936H125.28C125.344 260.344 125.808 261.464 126.672 262.296C127.536 263.096 128.736 263.496 130.272 263.496C131.584 263.496 132.624 263.224 133.392 262.68C134.192 262.104 134.592 261.368 134.592 260.472C134.592 259.704 134.272 259.112 133.632 258.696C133.024 258.28 132.064 257.944 130.752 257.688L127.92 257.112C125.424 256.632 123.52 255.8 122.208 254.616C120.896 253.432 120.24 251.88 120.24 249.96C120.24 248.616 120.64 247.4 121.44 246.312C122.24 245.224 123.36 244.376 124.8 243.768C126.272 243.128 127.952 242.808 129.84 242.808C131.92 242.808 133.728 243.144 135.264 243.816C136.8 244.488 138 245.448 138.864 246.696C139.728 247.912 140.176 249.336 140.208 250.968H134.352C134.256 249.816 133.808 248.904 133.008 248.232C132.208 247.528 131.152 247.176 129.84 247.176C128.72 247.176 127.792 247.4 127.056 247.848C126.352 248.296 126 248.92 126 249.72C126 250.424 126.272 250.984 126.816 251.4C127.392 251.784 128.416 252.12 129.888 252.408L132.72 252.984C135.152 253.464 137.024 254.28 138.336 255.432C139.68 256.584 140.352 258.152 140.352 260.136C140.352 261.608 139.936 262.936 139.104 264.12C138.304 265.304 137.152 266.232 135.648 266.904C134.144 267.544 132.4 267.864 130.416 267.864ZM149.544 233.4H156.552L161.688 255.384C162.2 257.528 162.632 259.528 162.984 261.384C163.144 260.584 163.288 259.8 163.416 259.032C163.544 258.424 163.672 257.816 163.8 257.208C163.96 256.6 164.104 255.992 164.232 255.384L169.8 233.4H178.872L184.008 255.384C184.616 257.88 185.064 259.88 185.352 261.384C185.704 259.208 186.104 257.208 186.552 255.384L191.88 233.4H198.504L189.672 267H180.936L175.368 243.096C175.336 242.872 175.288 242.648 175.224 242.424C175.096 241.912 174.952 241.32 174.792 240.648C174.664 239.976 174.536 239.24 174.408 238.44C174.184 239.528 173.944 240.632 173.688 241.752C173.688 241.752 173.576 242.2 173.352 243.096L167.112 267H158.376L149.544 233.4ZM210.065 267.864C207.729 267.864 205.649 267.368 203.825 266.376C202.033 265.384 200.625 263.944 199.601 262.056C198.609 260.168 198.113 257.896 198.113 255.24C198.113 252.808 198.609 250.648 199.601 248.76C200.625 246.872 202.033 245.416 203.825 244.392C205.617 243.336 207.633 242.808 209.873 242.808C212.209 242.808 214.225 243.336 215.921 244.392C217.617 245.416 218.913 246.888 219.809 248.808C220.705 250.696 221.153 252.904 221.153 255.432V256.728H204.113C204.113 257.944 204.369 259.048 204.881 260.04C205.393 261.032 206.097 261.816 206.993 262.392C207.889 262.968 208.913 263.256 210.065 263.256C211.377 263.256 212.481 262.92 213.377 262.248C214.305 261.544 214.865 260.584 215.057 259.368H221.009C220.849 260.968 220.289 262.424 219.329 263.736C218.401 265.016 217.137 266.024 215.537 266.76C213.937 267.496 212.113 267.864 210.065 267.864ZM215.153 252.504C215.089 250.904 214.577 249.624 213.617 248.664C212.657 247.672 211.393 247.176 209.825 247.176C208.257 247.176 206.945 247.672 205.889 248.664C204.833 249.656 204.225 250.936 204.065 252.504H215.153ZM238.088 267.864C236.232 267.864 234.68 267.496 233.432 266.76C232.184 266.024 231.224 265.032 230.552 263.784C230.68 264.584 230.744 265.336 230.744 266.04V267H224.888V233.4H230.744V244.632C230.744 245.144 230.68 245.912 230.552 246.936C231.352 245.624 232.36 244.616 233.576 243.912C234.792 243.176 236.264 242.808 237.992 242.808C239.912 242.808 241.672 243.32 243.272 244.344C244.904 245.368 246.2 246.84 247.16 248.76C248.12 250.648 248.6 252.856 248.6 255.384C248.6 257.944 248.152 260.168 247.256 262.056C246.36 263.944 245.112 265.384 243.512 266.376C241.912 267.368 240.104 267.864 238.088 267.864ZM236.504 263.256C237.688 263.256 238.744 262.92 239.672 262.248C240.6 261.576 241.32 260.648 241.832 259.464C242.376 258.28 242.648 256.92 242.648 255.384C242.648 253.848 242.376 252.488 241.832 251.304C241.32 250.088 240.6 249.144 239.672 248.472C238.744 247.8 237.688 247.464 236.504 247.464C235.32 247.464 234.264 247.8 233.336 248.472C232.44 249.144 231.72 250.088 231.176 251.304C230.664 252.488 230.408 253.848 230.408 255.384C230.408 256.92 230.664 258.28 231.176 259.464C231.72 260.648 232.44 261.576 233.336 262.248C234.264 262.92 235.32 263.256 236.504 263.256ZM261.506 267.864C259.33 267.864 257.426 267.512 255.794 266.808C254.162 266.072 252.882 265.032 251.954 263.688C251.058 262.344 250.546 260.76 250.418 258.936H256.37C256.434 260.344 256.898 261.464 257.762 262.296C258.626 263.096 259.826 263.496 261.362 263.496C262.674 263.496 263.714 263.224 264.482 262.68C265.282 262.104 265.682 261.368 265.682 260.472C265.682 259.704 265.362 259.112 264.722 258.696C264.114 258.28 263.154 257.944 261.842 257.688L259.01 257.112C256.514 256.632 254.61 255.8 253.298 254.616C251.986 253.432 251.33 251.88 251.33 249.96C251.33 248.616 251.73 247.4 252.53 246.312C253.33 245.224 254.45 244.376 255.89 243.768C257.362 243.128 259.042 242.808 260.93 242.808C263.01 242.808 264.818 243.144 266.354 243.816C267.89 244.488 269.09 245.448 269.954 246.696C270.818 247.912 271.266 249.336 271.298 250.968H265.442C265.346 249.816 264.898 248.904 264.098 248.232C263.298 247.528 262.242 247.176 260.93 247.176C259.81 247.176 258.882 247.4 258.146 247.848C257.442 248.296 257.09 248.92 257.09 249.72C257.09 250.424 257.362 250.984 257.906 251.4C258.482 251.784 259.506 252.12 260.978 252.408L263.81 252.984C266.242 253.464 268.114 254.28 269.426 255.432C270.77 256.584 271.442 258.152 271.442 260.136C271.442 261.608 271.026 262.936 270.194 264.12C269.394 265.304 268.242 266.232 266.738 266.904C265.234 267.544 263.49 267.864 261.506 267.864ZM275.186 243.576H281.042V267H275.186V243.576ZM275.186 262.344H281.042V267H275.186V262.344ZM275.186 243.576H278.114V248.232H275.186V243.576ZM275.09 233.88H281.186V240.024H275.09V233.88ZM296.407 267.432C293.879 267.432 291.975 266.792 290.695 265.512C289.415 264.232 288.775 262.296 288.775 259.704V248.232H283.447V243.576H288.775V235.128H294.631V243.576H300.391V248.232H294.631V258.84C294.631 260.12 294.903 261.096 295.447 261.768C295.991 262.408 296.871 262.728 298.087 262.728C298.695 262.728 299.287 262.68 299.863 262.584V267C299.543 267.096 299.047 267.192 298.375 267.288C297.735 267.384 297.079 267.432 296.407 267.432ZM313.687 267.864C311.351 267.864 309.271 267.368 307.447 266.376C305.655 265.384 304.247 263.944 303.223 262.056C302.231 260.168 301.735 257.896 301.735 255.24C301.735 252.808 302.231 250.648 303.223 248.76C304.247 246.872 305.655 245.416 307.447 244.392C309.239 243.336 311.255 242.808 313.495 242.808C315.831 242.808 317.847 243.336 319.543 244.392C321.239 245.416 322.535 246.888 323.431 248.808C324.327 250.696 324.775 252.904 324.775 255.432V256.728H307.735C307.735 257.944 307.991 259.048 308.503 260.04C309.015 261.032 309.719 261.816 310.615 262.392C311.511 262.968 312.535 263.256 313.687 263.256C314.999 263.256 316.103 262.92 316.999 262.248C317.927 261.544 318.487 260.584 318.679 259.368H324.631C324.471 260.968 323.911 262.424 322.951 263.736C322.023 265.016 320.759 266.024 319.159 266.76C317.559 267.496 315.735 267.864 313.687 267.864ZM318.775 252.504C318.711 250.904 318.199 249.624 317.239 248.664C316.279 247.672 315.015 247.176 313.447 247.176C311.879 247.176 310.567 247.672 309.511 248.664C308.455 249.656 307.847 250.936 307.687 252.504H318.775Z" fill="white"/>
<rect x="47.5" y="175.5" width="235" height="57" fill="#64A8F2" fill-opacity="0.2"/>
<rect x="47.5" y="175.5" width="235" height="57" stroke="#64A8F2"/>
<path d="M69.6214 219.864C66.2934 219.864 63.3974 219.16 60.9334 217.752C58.4694 216.344 56.5654 214.296 55.2214 211.608C53.9094 208.92 53.2534 205.704 53.2534 201.96C53.2534 198.44 53.9734 195.368 55.4134 192.744C56.8534 190.088 58.8374 188.056 61.3654 186.648C63.9254 185.24 66.7894 184.536 69.9574 184.536C72.6774 184.536 75.1094 185.048 77.2534 186.072C79.4294 187.064 81.1734 188.52 82.4854 190.44C83.8294 192.328 84.6454 194.584 84.9334 197.208H78.4054C78.0854 194.968 77.1894 193.192 75.7174 191.88C74.2774 190.536 72.3574 189.864 69.9574 189.864C67.9734 189.864 66.1974 190.36 64.6294 191.352C63.0934 192.312 61.8934 193.704 61.0294 195.528C60.1654 197.352 59.7334 199.496 59.7334 201.96C59.7334 204.52 60.1654 206.76 61.0294 208.68C61.8934 210.568 63.0774 212.024 64.5814 213.048C66.1174 214.04 67.8614 214.536 69.8134 214.536C72.2454 214.536 74.2614 213.832 75.8614 212.424C77.4614 210.984 78.4374 209.128 78.7894 206.856H85.0774C84.7894 209.448 83.9894 211.736 82.6774 213.72C81.3974 215.672 79.6374 217.192 77.3974 218.28C75.1574 219.336 72.5654 219.864 69.6214 219.864ZM99.0233 219.864C96.6873 219.864 94.6073 219.368 92.7833 218.376C90.9593 217.352 89.5353 215.912 88.5113 214.056C87.5193 212.168 87.0233 209.944 87.0233 207.384C87.0233 204.856 87.5353 202.648 88.5593 200.76C89.5833 198.872 90.9913 197.416 92.7833 196.392C94.6073 195.336 96.6873 194.808 99.0233 194.808C101.359 194.808 103.439 195.32 105.263 196.344C107.087 197.368 108.511 198.84 109.535 200.76C110.559 202.648 111.071 204.856 111.071 207.384C111.071 209.944 110.559 212.168 109.535 214.056C108.511 215.912 107.087 217.352 105.263 218.376C103.439 219.368 101.359 219.864 99.0233 219.864ZM99.0233 215.256C100.239 215.256 101.295 214.952 102.191 214.344C103.119 213.704 103.839 212.792 104.351 211.608C104.863 210.424 105.119 209.016 105.119 207.384C105.119 204.888 104.559 202.952 103.439 201.576C102.319 200.168 100.847 199.464 99.0233 199.464C97.8393 199.464 96.7833 199.784 95.8553 200.424C94.9593 201.032 94.2553 201.928 93.7433 203.112C93.2313 204.296 92.9753 205.72 92.9753 207.384C92.9753 209.848 93.5193 211.784 94.6073 213.192C95.6953 214.568 97.1673 215.256 99.0233 215.256ZM114.735 195.576H120.591V196.632C120.591 197.368 120.527 198.136 120.399 198.936C121.103 197.656 122.031 196.648 123.183 195.912C124.367 195.176 125.839 194.808 127.599 194.808C129.295 194.808 130.767 195.192 132.015 195.96C133.263 196.728 134.207 197.816 134.847 199.224C135.519 200.632 135.855 202.296 135.855 204.216V219H129.999V205.08C129.999 203.352 129.599 201.992 128.799 201C128.031 199.976 126.959 199.464 125.583 199.464C124.655 199.464 123.807 199.72 123.039 200.232C122.271 200.744 121.663 201.448 121.215 202.344C120.799 203.208 120.591 204.184 120.591 205.272V219H114.735V195.576ZM150.768 219.432C148.24 219.432 146.336 218.792 145.056 217.512C143.776 216.232 143.136 214.296 143.136 211.704V200.232H137.808V195.576H143.136V187.128H148.992V195.576H154.752V200.232H148.992V210.84C148.992 212.12 149.264 213.096 149.808 213.768C150.352 214.408 151.232 214.728 152.448 214.728C153.056 214.728 153.648 214.68 154.224 214.584V219C153.904 219.096 153.408 219.192 152.736 219.288C152.096 219.384 151.44 219.432 150.768 219.432ZM157.722 195.576H163.578V197.352C163.578 198.216 163.514 199.032 163.386 199.8C164.09 198.296 165.002 197.096 166.122 196.2C167.242 195.272 168.618 194.808 170.25 194.808C170.698 194.808 171.114 194.856 171.498 194.952V200.616C170.986 200.488 170.426 200.424 169.818 200.424C168.57 200.424 167.482 200.664 166.554 201.144C165.626 201.592 164.89 202.328 164.346 203.352C163.834 204.376 163.578 205.72 163.578 207.384V219H157.722V195.576ZM174.152 195.576H180.008V219H174.152V195.576ZM174.152 214.344H180.008V219H174.152V214.344ZM174.152 195.576H177.08V200.232H174.152V195.576ZM174.056 185.88H180.152V192.024H174.056V185.88ZM198.205 219.864C196.349 219.864 194.797 219.496 193.549 218.76C192.301 218.024 191.341 217.032 190.669 215.784C190.797 216.584 190.861 217.336 190.861 218.04V219H185.005V185.4H190.861V196.632C190.861 197.144 190.797 197.912 190.669 198.936C191.469 197.624 192.477 196.616 193.693 195.912C194.909 195.176 196.381 194.808 198.109 194.808C200.029 194.808 201.789 195.32 203.389 196.344C205.021 197.368 206.317 198.84 207.277 200.76C208.237 202.648 208.717 204.856 208.717 207.384C208.717 209.944 208.269 212.168 207.373 214.056C206.477 215.944 205.229 217.384 203.629 218.376C202.029 219.368 200.221 219.864 198.205 219.864ZM196.621 215.256C197.805 215.256 198.861 214.92 199.789 214.248C200.717 213.576 201.437 212.648 201.949 211.464C202.493 210.28 202.765 208.92 202.765 207.384C202.765 205.848 202.493 204.488 201.949 203.304C201.437 202.088 200.717 201.144 199.789 200.472C198.861 199.8 197.805 199.464 196.621 199.464C195.437 199.464 194.381 199.8 193.453 200.472C192.557 201.144 191.837 202.088 191.293 203.304C190.781 204.488 190.525 205.848 190.525 207.384C190.525 208.92 190.781 210.28 191.293 211.464C191.837 212.648 192.557 213.576 193.453 214.248C194.381 214.92 195.437 215.256 196.621 215.256ZM220.424 219.864C218.824 219.864 217.384 219.512 216.104 218.808C214.856 218.072 213.864 217 213.128 215.592C212.392 214.184 212.024 212.472 212.024 210.456V195.576H217.928V209.544C217.928 211.24 218.296 212.6 219.032 213.624C219.768 214.648 220.824 215.16 222.2 215.16C223.192 215.16 224.072 214.936 224.84 214.488C225.608 214.008 226.2 213.336 226.616 212.472C227.064 211.608 227.288 210.616 227.288 209.496V195.576H233.144V219H227.336V218.04C227.336 217.464 227.384 216.888 227.48 216.312L227.576 215.784C226.904 217.032 225.992 218.024 224.84 218.76C223.72 219.496 222.248 219.864 220.424 219.864ZM248.484 219.432C245.956 219.432 244.052 218.792 242.772 217.512C241.492 216.232 240.852 214.296 240.852 211.704V200.232H235.524V195.576H240.852V187.128H246.708V195.576H252.468V200.232H246.708V210.84C246.708 212.12 246.98 213.096 247.524 213.768C248.068 214.408 248.948 214.728 250.164 214.728C250.772 214.728 251.364 214.68 251.94 214.584V219C251.62 219.096 251.124 219.192 250.452 219.288C249.812 219.384 249.156 219.432 248.484 219.432ZM265.764 219.864C263.428 219.864 261.348 219.368 259.524 218.376C257.732 217.384 256.324 215.944 255.3 214.056C254.308 212.168 253.812 209.896 253.812 207.24C253.812 204.808 254.308 202.648 255.3 200.76C256.324 198.872 257.732 197.416 259.524 196.392C261.316 195.336 263.332 194.808 265.572 194.808C267.908 194.808 269.924 195.336 271.62 196.392C273.316 197.416 274.612 198.888 275.508 200.808C276.404 202.696 276.852 204.904 276.852 207.432V208.728H259.812C259.812 209.944 260.068 211.048 260.58 212.04C261.092 213.032 261.796 213.816 262.692 214.392C263.588 214.968 264.612 215.256 265.764 215.256C267.076 215.256 268.18 214.92 269.076 214.248C270.004 213.544 270.564 212.584 270.756 211.368H276.708C276.548 212.968 275.988 214.424 275.028 215.736C274.1 217.016 272.836 218.024 271.236 218.76C269.636 219.496 267.812 219.864 265.764 219.864ZM270.852 204.504C270.788 202.904 270.276 201.624 269.316 200.664C268.356 199.672 267.092 199.176 265.524 199.176C263.956 199.176 262.644 199.672 261.588 200.664C260.532 201.656 259.924 202.936 259.764 204.504H270.852Z" fill="white"/>
<rect x="47.5" y="175.5" width="4" height="4" fill="white" stroke="#64A8F2"/>
<rect x="47.5" y="228.5" width="4" height="4" fill="white" stroke="#64A8F2"/>
<rect x="278.5" y="175.5" width="4" height="4" fill="white" stroke="#64A8F2"/>
<rect x="278.5" y="228.5" width="4" height="4" fill="white" stroke="#64A8F2"/>
<g filter="url(#filter1_d_6002_4841)">
<path d="M120.779 147.76L123.004 159.101L112.787 153.503L117.819 152.043L120.779 147.76Z" fill="black"/>
<path d="M120.779 147.76L123.004 159.101L112.787 153.503L117.819 152.043L120.779 147.76Z" stroke="white" stroke-width="0.47286"/>
</g>
<g filter="url(#filter2_d_6002_4841)">
<path d="M114 148.054C114 148.577 113.577 149 113.054 149H75.3486C69.081 149 64 143.919 64 137.651V134.349C64 128.081 69.081 123 75.3486 123H102.651C108.919 123 114 128.081 114 134.349V148.054Z" fill="#9945FF" shape-rendering="crispEdges"/>
<path d="M113.054 148.527H75.3486C69.3421 148.527 64.4729 143.658 64.4729 137.651V134.349C64.4729 128.342 69.3421 123.473 75.3486 123.473H102.651C108.658 123.473 113.527 128.342 113.527 134.349V148.054C113.527 148.315 113.315 148.527 113.054 148.527Z" stroke="#772CD3" stroke-width="0.945721" shape-rendering="crispEdges"/>
<path d="M77.6318 129.732H79.5531L83.7504 140.078H81.9326L78.9028 132.067C78.8733 131.959 78.8388 131.856 78.7994 131.757C78.7304 131.58 78.6516 131.353 78.5629 131.077C78.5235 131.205 78.4841 131.319 78.4447 131.417C78.4053 131.506 78.3659 131.609 78.3265 131.727L78.1934 132.067L75.1785 140.078H73.4346L77.6318 129.732ZM76.08 135.747H81.031V137.122H76.08V135.747ZM84.4634 129.732H86.0004V135.851C86.1679 135.644 86.3452 135.447 86.5324 135.26L88.7936 132.91H90.7593L86.0004 137.669V140.078H84.4634V129.732ZM86.5176 136.797L87.5965 135.821L91.0696 140.078H89.0597L86.5176 136.797ZM91.6439 132.91H93.1809V140.078H91.6439V132.91ZM91.6439 138.836H93.1809V140.078H91.6439V138.836ZM91.6439 132.91H92.4124V134.151H91.6439V132.91ZM91.57 129.984H93.2401V131.683H91.57V129.984ZM94.8988 132.91H96.4358V133.338C96.4358 133.614 96.426 133.885 96.4063 134.151C96.6033 133.708 96.8841 133.353 97.2487 133.087C97.6231 132.811 98.0664 132.673 98.5788 132.673C98.7167 132.673 98.8349 132.683 98.9335 132.703V134.196C98.7857 134.166 98.633 134.151 98.4753 134.151C98.0517 134.151 97.6871 134.23 97.3817 134.388C97.0762 134.545 96.8398 134.792 96.6723 135.127C96.5146 135.462 96.4358 135.885 96.4358 136.398V140.078H94.8988V132.91ZM101.781 140.314C101.348 140.314 100.939 140.225 100.555 140.048C100.18 139.871 99.8799 139.615 99.6533 139.28C99.4267 138.945 99.3133 138.555 99.3133 138.112C99.3133 137.412 99.5449 136.885 100.008 136.531C100.481 136.166 101.111 135.925 101.9 135.806L103.185 135.629C103.461 135.59 103.653 135.516 103.762 135.407C103.88 135.299 103.939 135.146 103.939 134.949C103.939 134.614 103.816 134.348 103.57 134.151C103.333 133.944 103.018 133.841 102.624 133.841C102.151 133.841 101.777 133.964 101.501 134.21C101.235 134.447 101.087 134.772 101.057 135.186H99.5055C99.535 134.723 99.673 134.299 99.9193 133.915C100.175 133.53 100.525 133.23 100.969 133.013C101.412 132.787 101.929 132.673 102.52 132.673C103.171 132.673 103.713 132.792 104.146 133.028C104.589 133.255 104.92 133.59 105.136 134.033C105.353 134.467 105.461 134.994 105.461 135.614V140.078H104.013V139.752C104.013 139.546 104.028 139.329 104.057 139.102C103.86 139.486 103.57 139.787 103.185 140.004C102.801 140.211 102.333 140.314 101.781 140.314ZM102.107 139.161C102.451 139.161 102.767 139.087 103.052 138.94C103.338 138.782 103.56 138.565 103.718 138.289C103.885 138.013 103.969 137.698 103.969 137.344V136.412C103.91 136.481 103.816 136.541 103.688 136.59C103.56 136.639 103.383 136.683 103.156 136.723L102.328 136.885C101.875 136.974 101.52 137.112 101.264 137.299C101.008 137.486 100.88 137.747 100.88 138.082C100.88 138.408 100.998 138.669 101.235 138.866C101.471 139.063 101.762 139.161 102.107 139.161Z" fill="white"/>
</g>
<g filter="url(#filter3_d_6002_4841)">
<path d="M266.221 296.213L263.996 284.871L274.213 290.47L269.181 291.93L266.221 296.213Z" fill="black"/>
<path d="M266.221 296.213L263.996 284.871L274.213 290.47L269.181 291.93L266.221 296.213Z" stroke="white" stroke-width="0.47286"/>
</g>
<g filter="url(#filter4_d_6002_4841)">
<path d="M273 296.946C273 296.423 273.423 296 273.946 296H309.651C315.919 296 321 301.081 321 307.349V310.651C321 316.919 315.919 322 309.651 322H284.349C278.081 322 273 316.919 273 310.651V296.946Z" fill="#FF754A" shape-rendering="crispEdges"/>
<path d="M273.946 296.473H309.651C315.658 296.473 320.527 301.342 320.527 307.349V310.651C320.527 316.658 315.658 321.527 309.651 321.527H284.349C278.342 321.527 273.473 316.658 273.473 310.651V296.946C273.473 296.685 273.685 296.473 273.946 296.473Z" stroke="#D2532C" stroke-width="0.945721" shape-rendering="crispEdges"/>
<path d="M284.113 314.159C283.374 314.159 282.759 314.016 282.266 313.73C281.773 313.435 281.409 313.031 281.172 312.518C280.936 311.996 280.818 311.38 280.818 310.671H282.473C282.483 311.341 282.611 311.863 282.857 312.238C283.113 312.602 283.537 312.784 284.128 312.784C284.749 312.784 285.187 312.597 285.444 312.223C285.71 311.848 285.843 311.311 285.843 310.612V303.577H287.498V310.819C287.498 311.508 287.36 312.105 287.084 312.607C286.808 313.11 286.414 313.494 285.902 313.76C285.389 314.026 284.793 314.159 284.113 314.159ZM292.405 314.159C291.706 314.159 291.08 314.006 290.528 313.701C289.987 313.385 289.563 312.942 289.257 312.371C288.962 311.789 288.814 311.114 288.814 310.346C288.814 309.597 288.967 308.932 289.272 308.351C289.578 307.769 290.001 307.321 290.543 307.006C291.085 306.681 291.706 306.518 292.405 306.518C293.095 306.518 293.711 306.681 294.253 307.006C294.805 307.321 295.233 307.769 295.539 308.351C295.854 308.932 296.011 309.597 296.011 310.346C296.011 311.114 295.854 311.789 295.539 312.371C295.233 312.942 294.805 313.385 294.253 313.701C293.711 314.006 293.095 314.159 292.405 314.159ZM292.405 312.962C292.819 312.962 293.179 312.858 293.484 312.651C293.79 312.435 294.026 312.129 294.194 311.735C294.361 311.341 294.445 310.878 294.445 310.346C294.445 309.538 294.258 308.902 293.883 308.439C293.509 307.966 293.016 307.73 292.405 307.73C292.001 307.73 291.647 307.838 291.341 308.055C291.036 308.262 290.799 308.562 290.632 308.957C290.464 309.351 290.381 309.814 290.381 310.346C290.381 311.154 290.563 311.794 290.927 312.267C291.292 312.73 291.785 312.962 292.405 312.962ZM300.452 314.159C299.752 314.159 299.127 314.006 298.575 313.701C298.033 313.385 297.609 312.942 297.304 312.371C297.008 311.789 296.861 311.114 296.861 310.346C296.861 309.597 297.013 308.932 297.319 308.351C297.624 307.769 298.048 307.321 298.59 307.006C299.132 306.681 299.752 306.518 300.452 306.518C301.142 306.518 301.757 306.681 302.299 307.006C302.851 307.321 303.28 307.769 303.585 308.351C303.9 308.932 304.058 309.597 304.058 310.346C304.058 311.114 303.9 311.789 303.585 312.371C303.28 312.942 302.851 313.385 302.299 313.701C301.757 314.006 301.142 314.159 300.452 314.159ZM300.452 312.962C300.866 312.962 301.225 312.858 301.531 312.651C301.836 312.435 302.073 312.129 302.24 311.735C302.408 311.341 302.491 310.878 302.491 310.346C302.491 309.538 302.304 308.902 301.93 308.439C301.555 307.966 301.063 307.73 300.452 307.73C300.048 307.73 299.693 307.838 299.388 308.055C299.082 308.262 298.846 308.562 298.678 308.957C298.511 309.351 298.427 309.814 298.427 310.346C298.427 311.154 298.609 311.794 298.974 312.267C299.339 312.73 299.831 312.962 300.452 312.962ZM305.336 306.755H306.858V307.168C306.858 307.356 306.848 307.553 306.828 307.759C307.045 307.395 307.341 307.099 307.715 306.873C308.099 306.636 308.543 306.518 309.045 306.518C309.577 306.518 310.035 306.636 310.42 306.873C310.814 307.099 311.114 307.429 311.321 307.863C311.528 308.296 311.632 308.809 311.632 309.4V313.922H310.095V309.607C310.095 308.996 309.971 308.533 309.725 308.218C309.489 307.892 309.124 307.73 308.631 307.73C308.287 307.73 307.976 307.819 307.7 307.996C307.434 308.163 307.227 308.395 307.08 308.691C306.942 308.986 306.873 309.311 306.873 309.666V313.922H305.336V306.755Z" fill="white"/>
</g>
</g>
<defs>
<filter id="filter0_f_6002_4841" x="-489.785" y="-450.806" width="970.92" height="840.66" filterUnits="userSpaceOnUse" color-interpolation-filters="sRGB">
<feFlood flood-opacity="0" result="BackgroundImageFix"/>
<feBlend mode="normal" in="SourceGraphic" in2="BackgroundImageFix" result="shape"/>
<feGaussianBlur stdDeviation="104.048" result="effect1_foregroundBlur_6002_4841"/>
</filter>
<filter id="filter1_d_6002_4841" x="111.228" y="146.689" width="13.0516" height="14.2806" filterUnits="userSpaceOnUse" color-interpolation-filters="sRGB">
<feFlood flood-opacity="0" result="BackgroundImageFix"/>
<feColorMatrix in="SourceAlpha" type="matrix" values="0 0 0 0 0 0 0 0 0 0 0 0 0 0 0 0 0 0 127 0" result="hardAlpha"/>
<feOffset dy="0.47286"/>
<feGaussianBlur stdDeviation="0.47286"/>
<feComposite in2="hardAlpha" operator="out"/>
<feColorMatrix type="matrix" values="0 0 0 0 0 0 0 0 0 0 0 0 0 0 0 0 0 0 0.25 0"/>
<feBlend mode="normal" in2="BackgroundImageFix" result="effect1_dropShadow_6002_4841"/>
<feBlend mode="normal" in="SourceGraphic" in2="effect1_dropShadow_6002_4841" result="shape"/>
</filter>
<filter id="filter2_d_6002_4841" x="61.1628" y="120.163" width="59.4572" height="35.4572" filterUnits="userSpaceOnUse" color-interpolation-filters="sRGB">
<feFlood flood-opacity="0" result="BackgroundImageFix"/>
<feColorMatrix in="SourceAlpha" type="matrix" values="0 0 0 0 0 0 0 0 0 0 0 0 0 0 0 0 0 0 127 0" result="hardAlpha"/>
<feOffset dx="1.89144" dy="1.89144"/>
<feGaussianBlur stdDeviation="2.3643"/>
<feComposite in2="hardAlpha" operator="out"/>
<feColorMatrix type="matrix" values="0 0 0 0 0.6 0 0 0 0 0.270588 0 0 0 0 1 0 0 0 0.16 0"/>
<feBlend mode="normal" in2="BackgroundImageFix" result="effect1_dropShadow_6002_4841"/>
<feBlend mode="normal" in="SourceGraphic" in2="effect1_dropShadow_6002_4841" result="shape"/>
</filter>
<filter id="filter3_d_6002_4841" x="262.72" y="283.949" width="13.0516" height="14.2806" filterUnits="userSpaceOnUse" color-interpolation-filters="sRGB">
<feFlood flood-opacity="0" result="BackgroundImageFix"/>
<feColorMatrix in="SourceAlpha" type="matrix" values="0 0 0 0 0 0 0 0 0 0 0 0 0 0 0 0 0 0 127 0" result="hardAlpha"/>
<feOffset dy="0.47286"/>
<feGaussianBlur stdDeviation="0.47286"/>
<feComposite in2="hardAlpha" operator="out"/>
<feColorMatrix type="matrix" values="0 0 0 0 0 0 0 0 0 0 0 0 0 0 0 0 0 0 0.25 0"/>
<feBlend mode="normal" in2="BackgroundImageFix" result="effect1_dropShadow_6002_4841"/>
<feBlend mode="normal" in="SourceGraphic" in2="effect1_dropShadow_6002_4841" result="shape"/>
</filter>
<filter id="filter4_d_6002_4841" x="270.163" y="293.163" width="57.4572" height="35.4572" filterUnits="userSpaceOnUse" color-interpolation-filters="sRGB">
<feFlood flood-opacity="0" result="BackgroundImageFix"/>
<feColorMatrix in="SourceAlpha" type="matrix" values="0 0 0 0 0 0 0 0 0 0 0 0 0 0 0 0 0 0 127 0" result="hardAlpha"/>
<feOffset dx="1.89144" dy="1.89144"/>
<feGaussianBlur stdDeviation="2.3643"/>
<feComposite in2="hardAlpha" operator="out"/>
<feColorMatrix type="matrix" values="0 0 0 0 1 0 0 0 0 0.458824 0 0 0 0 0.290196 0 0 0 0.2 0"/>
<feBlend mode="normal" in2="BackgroundImageFix" result="effect1_dropShadow_6002_4841"/>
<feBlend mode="normal" in="SourceGraphic" in2="effect1_dropShadow_6002_4841" result="shape"/>
</filter>
<linearGradient id="paint0_linear_6002_4841" x1="233.278" y1="211.035" x2="-211.212" y2="-331.929" gradientUnits="userSpaceOnUse">
<stop offset="0.08" stop-color="#9945FF"/>
<stop offset="0.3" stop-color="#8752F3"/>
<stop offset="0.5" stop-color="#5497D5"/>
<stop offset="0.6" stop-color="#43B4CA"/>
<stop offset="0.72" stop-color="#28E0B9"/>
<stop offset="0.97" stop-color="#14F195"/>
</linearGradient>
<clipPath id="clip0_6002_4841">
<rect width="390.5" height="456" fill="white"/>
</clipPath>
</defs>
</svg>
