<svg width="1078" height="903" viewBox="0 0 1078 903" fill="none" xmlns="http://www.w3.org/2000/svg">
<g clip-path="url(#clip0_6214_3484)">
<g filter="url(#filter0_f_6214_3484)">
<path d="M384.669 -301.331L473.116 -202.792C508.599 -163.26 521.697 -108.472 507.93 -57.1661L455.683 137.554C443.346 183.53 410.825 221.432 367.257 240.609L239.672 296.768C182.734 321.831 116.37 310.928 70.4436 268.966L6.84302 210.857C-14.86 191.027 -41.6924 177.686 -70.6021 172.352L-225.521 143.764C-318.414 126.623 -375.273 31.9574 -346.767 -58.0996L-341.743 -73.9724C-321.075 -139.268 -260.482 -183.645 -191.994 -183.645H-26.291C17.6544 -183.645 59.59 -202.054 89.3341 -234.404L152.152 -302.724C214.888 -370.955 322.756 -370.308 384.669 -301.331Z" fill="url(#paint0_linear_6214_3484)"/>
<path d="M384.669 -301.331L473.116 -202.792C508.599 -163.26 521.697 -108.472 507.93 -57.1661L455.683 137.554C443.346 183.53 410.825 221.432 367.257 240.609L239.672 296.768C182.734 321.831 116.37 310.928 70.4436 268.966L6.84302 210.857C-14.86 191.027 -41.6924 177.686 -70.6021 172.352L-225.521 143.764C-318.414 126.623 -375.273 31.9574 -346.767 -58.0996L-341.743 -73.9724C-321.075 -139.268 -260.482 -183.645 -191.994 -183.645H-26.291C17.6544 -183.645 59.59 -202.054 89.3341 -234.404L152.152 -302.724C214.888 -370.955 322.756 -370.308 384.669 -301.331Z" stroke="black" stroke-width="0.826695"/>
</g>
</g>
<defs>
<filter id="filter0_f_6214_3484" x="-680.286" y="-679.615" width="1519.72" height="1315.83" filterUnits="userSpaceOnUse" color-interpolation-filters="sRGB">
<feFlood flood-opacity="0" result="BackgroundImageFix"/>
<feBlend mode="normal" in="SourceGraphic" in2="BackgroundImageFix" result="shape"/>
<feGaussianBlur stdDeviation="162.859" result="effect1_foregroundBlur_6214_3484"/>
</filter>
<linearGradient id="paint0_linear_6214_3484" x1="451.477" y1="356.32" x2="-244.254" y2="-493.545" gradientUnits="userSpaceOnUse">
<stop offset="0.08" stop-color="#9945FF"/>
<stop offset="0.3" stop-color="#8752F3"/>
<stop offset="0.5" stop-color="#5497D5"/>
<stop offset="0.6" stop-color="#43B4CA"/>
<stop offset="0.72" stop-color="#28E0B9"/>
<stop offset="0.97" stop-color="#14F195"/>
</linearGradient>
<clipPath id="clip0_6214_3484">
<rect width="1078" height="903" fill="white"/>
</clipPath>
</defs>
</svg>
