<svg width="53" height="53" viewBox="0 0 53 53" fill="none" xmlns="http://www.w3.org/2000/svg">
<g clip-path="url(#clip0_7_509)">
<path d="M53.2114 29.7272C53.2114 31.5968 51.6831 33.1251 49.8135 33.1251C47.9439 33.1251 46.4156 31.5968 46.4156 29.7272C46.4156 27.8576 47.9439 26.3293 49.8135 26.3293C51.6831 26.3293 53.2114 27.8413 53.2114 29.7272Z" fill="#EF382E"/>
<path d="M32.9787 19.6799L37.5959 12.9736V6.1698H22.899L18.2249 12.9655H29.3126L23.6143 21.265L27.0122 27.1585C28.0201 26.5813 29.1907 26.2399 30.4588 26.2399C34.2549 26.2399 37.3439 29.3126 37.3439 33.125C37.3439 36.9374 34.2549 40.0101 30.4588 40.0101C26.6626 40.0101 23.5737 36.9212 23.5737 33.125H16.7779C16.7779 40.6848 22.9071 46.814 30.4507 46.814C38.0105 46.814 44.1396 40.6848 44.1396 33.125C44.1234 26.435 39.3111 20.8667 32.9787 19.6799ZM13.5427 6.1698C11.0471 6.1698 8.72227 6.83636 6.69819 8.00692V6.1698H-0.11377V33.125H6.69819V19.8262C6.69819 16.0382 9.75464 12.9818 13.5427 12.9818L15.8269 12.9655L20.501 6.1698H13.5427Z" fill="white"/>
</g>
<defs>
<clipPath id="clip0_7_509">
<rect width="53" height="53" fill="white"/>
</clipPath>
</defs>
</svg>
