<svg width="386" height="105" viewBox="0 0 386 105" fill="none" xmlns="http://www.w3.org/2000/svg">
<g clip-path="url(#clip0_166_145)">
<path d="M209.659 82.2661H186.56V88.0406H203.518C206.934 88.0406 209.659 90.805 209.659 94.1811V99.2241C209.659 102.639 206.934 105.364 203.518 105.364H180.786V99.5898H203.884V93.8154H186.926C183.511 93.8154 180.786 91.0507 180.786 87.6749V82.6318C180.786 79.2167 183.511 76.4913 186.926 76.4913H209.659V82.2661Z" fill="#09054C"/>
<path d="M170.918 76.4913H176.734V101.623C176.734 103.697 175.025 105.364 172.951 105.364H168.477C167.053 105.406 165.794 104.633 165.143 103.371L153.92 82.2661H152.415V105.364H146.641V80.2748C146.641 78.1612 148.308 76.494 150.382 76.494H155.099C156.481 76.494 157.782 77.2257 158.433 78.4878L169.655 99.5924H170.915V76.494L170.918 76.4913Z" fill="#09054C"/>
<path d="M314.026 76.4913H319.843V95.686C319.799 101.053 315.492 105.364 310.121 105.364H299.426C294.061 105.364 289.748 101.053 289.748 95.686V76.4913H295.524V94.5078C295.524 97.3138 297.8 99.5925 300.606 99.5925H308.941C311.747 99.5925 314.026 97.3138 314.026 94.5078V76.4913Z" fill="#09054C"/>
<path d="M142.592 105.364H136.818V76.4915H142.592V105.364Z" fill="#09054C"/>
<path d="M252.589 105.364H246.815V76.4913H252.589V105.364Z" fill="#09054C"/>
<path d="M356.996 105.364H385.461V99.4383H362.961V93.8911H385.461V87.9648H362.961V82.4176H385.461V76.4913H356.996V105.364Z" fill="#09054C"/>
<path d="M213.71 82.4176H225.257V105.364H231.219V82.4176H242.766V76.4913H213.71V82.4176Z" fill="#09054C"/>
<path d="M323.89 82.4176H335.436V105.364H341.399V82.4176H352.945V76.4913H323.89V82.4176Z" fill="#09054C"/>
<path d="M256.64 82.4176H268.187V105.364H274.149V82.4176H285.697V76.4913H256.64V82.4176Z" fill="#09054C"/>
<path d="M165.691 6.22955H142.592V12.0041H159.55C162.965 12.0041 165.691 14.7686 165.691 18.1445V23.1875C165.691 26.6026 162.965 29.3279 159.55 29.3279H136.818V23.5533H159.916V17.7787H142.958C139.543 17.7787 136.818 15.0142 136.818 11.6383V6.59537C136.818 3.18025 139.543 0.454956 142.958 0.454956H165.691V6.22955Z" fill="#09054C"/>
<path d="M193.652 0.454956C197.067 0.454956 199.834 3.18025 199.834 6.59537V23.1875C199.834 26.6026 197.07 29.3279 193.652 29.3279H175.882C172.467 29.3279 169.741 26.6026 169.741 23.1875V6.59537C169.741 3.18025 172.467 0.454956 175.882 0.454956H193.652ZM194.018 6.22955H175.516V23.5533H194.018V6.22955Z" fill="#09054C"/>
<path d="M261.3 0.454956C264.064 0.454956 266.301 2.64982 266.301 5.41693V29.3279H260.485V19.8534H241.982V29.3279H236.208V5.41693C236.208 2.65244 238.403 0.454956 241.17 0.454956H261.3ZM260.487 6.22955H241.985V14.0788H260.487V6.22955Z" fill="#09054C"/>
<path d="M294.626 0.454956H300.443V25.5862C300.443 27.6609 298.735 29.3279 296.66 29.3279H292.187C290.762 29.3697 289.503 28.5963 288.853 27.3342L277.629 6.22955H276.124V29.3279H270.35V4.23586C270.35 2.12201 272.017 0.454956 274.091 0.454956H278.808C280.193 0.454956 281.494 1.18658 282.145 2.44863L293.367 23.5533H294.626V0.454956Z" fill="#09054C"/>
<path d="M329.585 0.454956C332.35 0.454956 334.586 2.64982 334.586 5.41693V29.3279H328.772V19.8534H310.27V29.3279H304.494V5.41693C304.494 2.65244 306.691 0.454956 309.457 0.454956H329.585ZM328.772 6.22955H310.27V14.0788H328.772V6.22955Z" fill="#09054C"/>
<path d="M232.159 23.5533V29.3279H207.804C205.64 29.3279 203.884 27.572 203.884 25.4085V0.454956H209.659V23.5533H232.159Z" fill="#09054C"/>
<path d="M193.654 38.4728C197.069 38.4728 199.836 41.1981 199.836 44.613V61.2052C199.836 64.6204 197.071 67.3458 193.654 67.3458H175.883C172.468 67.3458 169.743 64.6204 169.743 61.2052V44.613C169.743 41.1981 172.468 38.4728 175.883 38.4728H193.654ZM194.02 44.2473H175.517V61.571H194.02V44.2473Z" fill="#09054C"/>
<path d="M241.985 67.3458H236.21V38.4728H241.985V67.3458Z" fill="#09054C"/>
<path d="M232.161 61.571V67.3458H207.806C205.642 67.3458 203.886 65.5897 203.886 63.4262V38.4728H209.661V61.571H232.161Z" fill="#09054C"/>
<path d="M159.549 38.4729H136.817V67.3459H142.591V55.7966H159.549C162.965 55.7966 165.69 53.0322 165.69 49.6561V44.6157C165.69 41.1983 162.965 38.4729 159.549 38.4729ZM159.915 50.0195H142.957C142.834 50.0195 142.712 50.0195 142.591 50.0297V44.2474H159.915V50.0195Z" fill="#09054C"/>
<path d="M256.845 44.2473C254.052 44.2473 251.784 46.5259 251.784 49.3713V56.4889C251.784 59.2953 254.052 61.571 256.845 61.571H273.607V67.3458H255.672C250.328 67.3458 246.035 63.0342 246.035 57.6674V48.1511C246.035 42.8234 250.328 38.4728 255.672 38.4728H273.607V44.2473H256.845Z" fill="#09054C"/>
<path d="M307.953 38.4728H301.285L292.805 53.1574L284.327 38.4728H277.658L289.917 59.7079V67.3458H295.693V59.7079L307.953 38.4728Z" fill="#09054C"/>
<path d="M116.861 83.1714L97.4711 103.939C97.049 104.391 96.5406 104.749 95.9717 104.995C95.4054 105.241 94.792 105.369 94.176 105.366H2.25242C1.81466 105.366 1.38477 105.238 1.01778 104.998C0.650803 104.757 0.36246 104.415 0.186833 104.013C0.0112059 103.61 -0.0412201 103.166 0.0321762 102.735C0.105572 102.304 0.304791 101.901 0.603618 101.582L20.0091 80.8143C20.4285 80.365 20.937 80.0045 21.5032 79.7588C22.0694 79.5131 22.6776 79.3852 23.2936 79.3852H115.212C115.65 79.3852 116.08 79.5131 116.447 79.7536C116.814 79.994 117.102 80.3364 117.278 80.7362C117.453 81.1384 117.506 81.5828 117.432 82.0139C117.359 82.4449 117.16 82.8447 116.861 83.1661V83.1714ZM97.4685 41.3532C97.0463 40.9012 96.5379 40.5433 95.969 40.2977C95.4027 40.052 94.7894 39.9241 94.1734 39.9241H2.25242C1.81466 39.9241 1.38477 40.052 1.01778 40.2924C0.650803 40.5328 0.36246 40.8753 0.186833 41.2748C0.0112059 41.6773 -0.0412201 42.1214 0.0321762 42.5527C0.105572 42.9837 0.304791 43.3835 0.603618 43.705L20.0091 64.473C20.4285 64.9224 20.937 65.2829 21.5032 65.5286C22.0694 65.7742 22.6776 65.9022 23.2936 65.9022H115.212C115.65 65.9022 116.08 65.7742 116.447 65.5338C116.814 65.2934 117.102 64.951 117.278 64.5488C117.453 64.1463 117.506 63.7022 117.432 63.2709C117.359 62.8399 117.16 62.4374 116.861 62.1186L97.4711 41.3506L97.4685 41.3532ZM2.25242 26.4358H94.176C94.7946 26.4358 95.4054 26.3104 95.9717 26.0648C96.5379 25.8191 97.049 25.4585 97.4711 25.0091L116.861 4.23856C117.16 3.91715 117.359 3.51737 117.432 3.08623C117.506 2.65508 117.453 2.21088 117.278 1.80848C117.102 1.40608 116.814 1.06378 116.447 0.823387C116.08 0.582992 115.65 0.454956 115.212 0.454956H23.2962C22.6802 0.454956 22.0694 0.582992 21.5058 0.828612C20.9396 1.07423 20.4337 1.43221 20.0117 1.88426L0.611482 22.6548C0.312655 22.9736 0.113436 23.376 0.0400402 23.8071C-0.0333561 24.2383 0.0190698 24.6825 0.192075 25.0823C0.365083 25.4847 0.653423 25.827 1.02041 26.0674C1.38739 26.3078 1.81466 26.4332 2.25242 26.4358Z" fill="url(#paint0_linear_166_145)"/>
</g>
<defs>
<linearGradient id="paint0_linear_166_145" x1="1.83492" y1="116.994" x2="113.625" y2="-10.3495" gradientUnits="userSpaceOnUse">
<stop stop-color="#01535B"/>
<stop offset="0.836538" stop-color="#0ACB7B"/>
</linearGradient>
<clipPath id="clip0_166_145">
<rect width="385.196" height="104.911" fill="white"/>
</clipPath>
</defs>
</svg>
