<svg width="619" height="165" viewBox="0 0 619 165" fill="none" xmlns="http://www.w3.org/2000/svg">
<path d="M182.038 129.848L151.834 162.298C151.176 163.005 150.384 163.564 149.498 163.948C148.616 164.332 147.661 164.532 146.701 164.528H3.50866C2.82675 164.528 2.1571 164.328 1.58544 163.952C1.01378 163.576 0.564616 163.042 0.291036 162.413C0.0174557 161.784 -0.0642099 161.09 0.050122 160.416C0.164454 159.743 0.474783 159.114 0.940278 158.616L31.1688 126.165C31.8221 125.463 32.6143 124.899 33.4963 124.516C34.3783 124.132 35.3256 123.932 36.2852 123.932H179.47C180.151 123.932 180.821 124.132 181.393 124.507C181.964 124.883 182.414 125.418 182.687 126.043C182.961 126.671 183.042 127.365 182.928 128.039C182.814 128.713 182.503 129.337 182.038 129.84V129.848ZM151.83 64.5056C151.172 63.7993 150.38 63.2399 149.494 62.8561C148.612 62.4724 147.657 62.2723 146.697 62.2723H3.50866C2.82675 62.2723 2.1571 62.4723 1.58544 62.848C1.01378 63.2236 0.564616 63.7585 0.291036 64.3831C0.0174557 65.0119 -0.0642099 65.706 0.050122 66.3797C0.164454 67.0533 0.474783 67.678 0.940278 68.1802L31.1688 100.631C31.8221 101.333 32.6143 101.897 33.4963 102.28C34.3783 102.664 35.3256 102.864 36.2852 102.864H179.47C180.151 102.864 180.821 102.664 181.393 102.288C181.964 101.913 182.414 101.378 182.687 100.749C182.961 100.12 183.042 99.4264 182.928 98.7527C182.814 98.079 182.503 97.4503 182.038 96.9522L151.834 64.5015L151.83 64.5056ZM3.50866 41.1965H146.701C147.665 41.1965 148.616 41.0006 149.498 40.6168C150.38 40.233 151.176 39.6695 151.834 38.9673L182.038 6.51258C182.503 6.01038 182.814 5.38571 182.928 4.71203C183.042 4.03836 182.961 3.34427 182.687 2.71551C182.414 2.08675 181.964 1.55189 181.393 1.17627C180.821 0.800646 180.151 0.600586 179.47 0.600586H36.2893C35.3297 0.600586 34.3783 0.800646 33.5004 1.18444C32.6184 1.56823 31.8303 2.12758 31.1729 2.83391L0.952527 35.2886C0.487033 35.7867 0.176704 36.4155 0.0623719 37.0892C-0.0519601 37.7628 0.0297056 38.4569 0.299202 39.0816C0.568699 39.7104 1.01786 40.2452 1.58952 40.6208C2.16118 40.9965 2.82675 41.1965 3.50866 41.2006V41.1965Z" fill="black"/>
<path d="M343.767 128.44H307.671V137.463H334.172C339.508 137.463 343.767 141.782 343.767 147.058V154.937C343.767 160.274 339.508 164.532 334.172 164.532H298.647V155.509H334.743V146.486H308.243C302.906 146.486 298.647 142.166 298.647 136.891V129.011C298.647 123.675 302.906 119.417 308.243 119.417H343.767V128.44Z" fill="black"/>
<path d="M283.224 119.417H292.313V158.686C292.313 161.927 289.643 164.532 286.401 164.532H279.41C277.185 164.598 275.217 163.389 274.2 161.417L256.662 128.44H254.31V164.532H245.286V125.328C245.286 122.025 247.891 119.421 251.133 119.421H258.504C260.664 119.421 262.697 120.564 263.714 122.536L281.252 155.513H283.22V119.421L283.224 119.417Z" fill="black"/>
<path d="M506.862 119.417H515.951V149.409C515.886 157.795 509.152 164.532 500.761 164.532H484.048C475.661 164.532 468.924 157.795 468.924 149.409V119.417H477.948V147.568C477.948 151.953 481.504 155.513 485.89 155.513H498.916C503.301 155.513 506.862 151.953 506.862 147.568V119.417Z" fill="black"/>
<path d="M238.962 164.532H229.938V119.417H238.962V164.532Z" fill="black"/>
<path d="M410.856 164.532H401.832V119.417H410.856V164.532Z" fill="black"/>
<path d="M574.011 164.532H618.494V155.272H583.333V146.604H618.494V137.344H583.333V128.676H618.494V119.417H574.011V164.532Z" fill="black"/>
<path d="M350.096 128.676H368.14V164.532H377.458V128.676H395.502V119.417H350.096V128.676Z" fill="black"/>
<path d="M522.275 128.676H540.319V164.532H549.637V128.676H567.681V119.417H522.275V128.676Z" fill="black"/>
<path d="M417.184 128.676H435.228V164.532H444.546V128.676H462.59V119.417H417.184V128.676Z" fill="black"/>
<path d="M275.058 9.6286H238.962V18.6517H265.462C270.799 18.6517 275.058 22.9714 275.058 28.2465V36.1264C275.058 41.4627 270.799 45.7211 265.462 45.7211H229.938V36.698H266.034V27.6749H239.533C234.196 27.6749 229.938 23.3552 229.938 18.0801V10.2002C229.938 4.8639 234.196 0.605469 239.533 0.605469H275.058V9.6286Z" fill="black"/>
<path d="M318.752 0.60498C324.089 0.60498 328.413 4.86341 328.413 10.1997V36.1259C328.413 41.4622 324.093 45.7207 318.752 45.7207H290.982C285.645 45.7207 281.386 41.4622 281.386 36.1259V10.1997C281.386 4.86341 285.645 0.60498 290.982 0.60498H318.752ZM319.324 9.62812H290.41V36.6975H319.324V9.62812Z" fill="black"/>
<path d="M424.465 0.60498C428.785 0.60498 432.28 4.03459 432.28 8.35834V45.7207H423.191V30.9162H394.277V45.7207H385.253V8.35834C385.253 4.03867 388.683 0.60498 393.007 0.60498H424.465ZM423.195 9.62812H394.281V21.893H423.195V9.62812Z" fill="black"/>
<path d="M476.547 0.60498H485.636V39.874C485.636 43.1158 482.966 45.7207 479.723 45.7207H472.733C470.507 45.786 468.539 44.5775 467.523 42.6054L449.985 9.62812H447.633V45.7207H438.609V6.51289C438.609 3.20985 441.214 0.60498 444.456 0.60498H451.826C453.991 0.60498 456.024 1.74818 457.041 3.72021L474.579 36.6975H476.547V0.60498Z" fill="black"/>
<path d="M531.177 0.60498C535.497 0.60498 538.993 4.03459 538.993 8.35834V45.7207H529.907V30.9162H500.989V45.7207H491.965V8.35834C491.965 4.03867 495.399 0.60498 499.719 0.60498H531.177ZM529.907 9.62812H500.989V21.893H529.907V9.62812Z" fill="black"/>
<path d="M378.928 36.6975V45.7207H340.868C337.487 45.7207 334.743 42.977 334.743 39.5964V0.60498H343.767V36.6975H378.928Z" fill="black"/>
<path d="M318.753 60.0112C324.09 60.0112 328.414 64.2697 328.414 69.606V95.5322C328.414 100.868 324.094 105.127 318.753 105.127H290.982C285.646 105.127 281.387 100.868 281.387 95.5322V69.606C281.387 64.2697 285.646 60.0112 290.982 60.0112H318.753ZM319.325 69.0344H290.411V96.1038H319.325V69.0344Z" fill="black"/>
<path d="M394.281 105.127H385.257V60.0112H394.281V105.127Z" fill="black"/>
<path d="M378.928 96.1038V105.127H340.868C337.487 105.127 334.743 102.383 334.743 99.0026V60.0112H343.767V96.1038H378.928Z" fill="black"/>
<path d="M265.459 60.0117H229.934V105.127H238.958V87.0811H265.459C270.795 87.0811 275.054 82.7615 275.054 77.4864V69.6105C275.054 64.2701 270.795 60.0158 265.459 60.0158V60.0117ZM266.03 78.0539H239.53C239.338 78.0539 239.146 78.0539 238.958 78.0702V69.0349H266.03V78.0539Z" fill="black"/>
<path d="M417.502 69.0344C413.137 69.0344 409.593 72.5946 409.593 77.0409V88.1626C409.593 92.5476 413.137 96.1038 417.502 96.1038H443.697V105.127H415.669C407.319 105.127 400.61 98.3902 400.61 90.004V75.1342C400.61 66.8092 407.319 60.0112 415.669 60.0112H443.697V69.0344H417.502Z" fill="black"/>
<path d="M497.368 60.0112H486.947L473.697 82.9569L460.451 60.0112H450.026L469.185 93.1927V105.127H478.209V93.1927L497.368 60.0112Z" fill="black"/>
</svg>
