<svg width="619" height="165" viewBox="0 0 619 165" fill="none" xmlns="http://www.w3.org/2000/svg">
<path d="M182.533 129.914L152.329 162.364C151.671 163.071 150.879 163.63 149.993 164.014C149.111 164.398 148.155 164.598 147.196 164.594H4.00329C3.32138 164.594 2.65172 164.394 2.08007 164.018C1.50841 163.642 1.05924 163.107 0.785665 162.479C0.512085 161.85 0.430419 161.156 0.544751 160.482C0.659083 159.809 0.969412 159.18 1.43491 158.682L31.6635 126.231C32.3168 125.529 33.1089 124.965 33.9909 124.582C34.8729 124.198 35.8202 123.998 36.7798 123.998H179.964C180.646 123.998 181.316 124.198 181.887 124.573C182.459 124.949 182.908 125.484 183.182 126.109C183.455 126.737 183.537 127.431 183.423 128.105C183.308 128.779 182.998 129.403 182.533 129.906V129.914ZM152.324 64.5715C151.667 63.8652 150.875 63.3058 149.989 62.9221C149.107 62.5383 148.151 62.3382 147.192 62.3382H4.00329C3.32138 62.3382 2.65172 62.5383 2.08007 62.9139C1.50841 63.2895 1.05924 63.8244 0.785665 64.4491C0.512085 65.0778 0.430419 65.7719 0.544751 66.4456C0.659083 67.1192 0.969412 67.7439 1.43491 68.2461L31.6635 100.697C32.3168 101.399 33.1089 101.962 33.9909 102.346C34.8729 102.73 35.8202 102.93 36.7798 102.93H179.964C180.646 102.93 181.316 102.73 181.887 102.354C182.459 101.979 182.908 101.444 183.182 100.815C183.455 100.186 183.537 99.4923 183.423 98.8186C183.308 98.145 182.998 97.5162 182.533 97.0181L152.329 64.5675L152.324 64.5715ZM4.00329 41.2625H147.196C148.16 41.2625 149.111 41.0665 149.993 40.6827C150.875 40.2989 151.671 39.7355 152.329 39.0332L182.533 6.5785C182.998 6.0763 183.308 5.45162 183.423 4.77795C183.537 4.10428 183.455 3.41019 183.182 2.78143C182.908 2.15267 182.459 1.61781 181.887 1.24219C181.316 0.866564 180.646 0.666504 179.964 0.666504H36.7839C35.8243 0.666504 34.8729 0.866564 33.995 1.25035C33.113 1.63414 32.3249 2.1935 31.6675 2.89983L1.44716 35.3545C0.981662 35.8526 0.671333 36.4814 0.557001 37.1551C0.442669 37.8288 0.524334 38.5228 0.793831 39.1475C1.06333 39.7763 1.51249 40.3111 2.08415 40.6868C2.65581 41.0624 3.32138 41.2625 4.00329 41.2665V41.2625Z" fill="url(#paint0_linear_58_8404)"/>
<path d="M344.262 128.506H308.166V137.529H334.666C340.003 137.529 344.262 141.848 344.262 147.123V155.003C344.262 160.34 340.003 164.598 334.666 164.598H299.142V155.575H335.238V146.552H308.737C303.4 146.552 299.142 142.232 299.142 136.957V129.077C299.142 123.741 303.4 119.482 308.737 119.482H344.262V128.506Z" fill="white"/>
<path d="M283.718 119.482H292.807V158.751C292.807 161.993 290.137 164.598 286.895 164.598H279.904C277.679 164.663 275.711 163.455 274.694 161.483L257.156 128.506H254.804V164.598H245.78V125.394C245.78 122.091 248.385 119.487 251.628 119.487H258.998C261.158 119.487 263.191 120.63 264.208 122.602L281.746 155.579H283.714V119.487L283.718 119.482Z" fill="white"/>
<path d="M507.356 119.482H516.445V149.475C516.38 157.861 509.646 164.598 501.255 164.598H484.542C476.155 164.598 469.418 157.861 469.418 149.475V119.482H478.442V147.634C478.442 152.019 481.999 155.579 486.384 155.579H499.41C503.795 155.579 507.356 152.019 507.356 147.634V119.482Z" fill="white"/>
<path d="M239.456 164.598H230.432V119.482H239.456V164.598Z" fill="white"/>
<path d="M411.35 164.598H402.326V119.482H411.35V164.598Z" fill="white"/>
<path d="M574.506 164.598H618.989V155.338H583.828V146.67H618.989V137.41H583.828V128.742H618.989V119.482H574.506V164.598Z" fill="white"/>
<path d="M350.591 128.742H368.635V164.598H377.953V128.742H395.997V119.482H350.591V128.742Z" fill="white"/>
<path d="M522.77 128.742H540.814V164.598H550.132V128.742H568.176V119.482H522.77V128.742Z" fill="white"/>
<path d="M417.679 128.742H435.723V164.598H445.041V128.742H463.085V119.482H417.679V128.742Z" fill="white"/>
<path d="M275.552 9.69452H239.456V18.7177H265.957C271.294 18.7177 275.552 23.0373 275.552 28.3124V36.1923C275.552 41.5286 271.294 45.7871 265.957 45.7871H230.432V36.7639H266.528V27.7408H240.028C234.691 27.7408 230.432 23.4211 230.432 18.1461V10.2661C230.432 4.92982 234.691 0.671387 240.028 0.671387H275.552V9.69452Z" fill="white"/>
<path d="M319.247 0.670898C324.584 0.670898 328.908 4.92933 328.908 10.2656V36.1918C328.908 41.5281 324.588 45.7866 319.247 45.7866H291.477C286.14 45.7866 281.881 41.5281 281.881 36.1918V10.2656C281.881 4.92933 286.14 0.670898 291.477 0.670898H319.247ZM319.819 9.69403H290.905V36.7634H319.819V9.69403Z" fill="white"/>
<path d="M424.959 0.670898C429.279 0.670898 432.774 4.10051 432.774 8.42426V45.7866H423.685V30.9821H394.771V45.7866H385.747V8.42426C385.747 4.10459 389.177 0.670898 393.501 0.670898H424.959ZM423.689 9.69403H394.775V21.959H423.689V9.69403Z" fill="white"/>
<path d="M477.041 0.670898H486.131V39.9399C486.131 43.1817 483.46 45.7866 480.218 45.7866H473.227C471.002 45.8519 469.034 44.6434 468.017 42.6713L450.48 9.69403H448.128V45.7866H439.104V6.57881C439.104 3.27577 441.709 0.670898 444.951 0.670898H452.321C454.485 0.670898 456.519 1.8141 457.535 3.78613L475.073 36.7634H477.041V0.670898Z" fill="white"/>
<path d="M531.672 0.670898C535.992 0.670898 539.487 4.10051 539.487 8.42426V45.7866H530.402V30.9821H501.484V45.7866H492.46V8.42426C492.46 4.10459 495.894 0.670898 500.214 0.670898H531.672ZM530.402 9.69403H501.484V21.959H530.402V9.69403Z" fill="white"/>
<path d="M379.423 36.7634V45.7866H341.362C337.981 45.7866 335.237 43.0429 335.237 39.6623V0.670898H344.261V36.7634H379.423Z" fill="white"/>
<path d="M319.247 60.0771C324.584 60.0771 328.908 64.3356 328.908 69.6719V95.5981C328.908 100.934 324.588 105.193 319.247 105.193H291.477C286.14 105.193 281.881 100.934 281.881 95.5981V69.6719C281.881 64.3356 286.14 60.0771 291.477 60.0771H319.247ZM319.819 69.1003H290.905V96.1697H319.819V69.1003Z" fill="white"/>
<path d="M394.776 105.193H385.752V60.0771H394.776V105.193Z" fill="white"/>
<path d="M379.423 96.1697V105.193H341.363C337.982 105.193 335.238 102.449 335.238 99.0685V60.0771H344.262V96.1697H379.423Z" fill="white"/>
<path d="M265.953 60.0776H230.429V105.193H239.453V87.147H265.953C271.29 87.147 275.549 82.8274 275.549 77.5523V69.6765C275.549 64.3361 271.29 60.0817 265.953 60.0817V60.0776ZM266.525 78.1198H240.024C239.833 78.1198 239.641 78.1198 239.453 78.1362V69.1008H266.525V78.1198Z" fill="white"/>
<path d="M417.997 69.1003C413.632 69.1003 410.088 72.6605 410.088 77.1068V88.2285C410.088 92.6135 413.632 96.1697 417.997 96.1697H444.191V105.193H416.164C407.813 105.193 401.104 98.4561 401.104 90.0699V75.2001C401.104 66.8751 407.813 60.0771 416.164 60.0771H444.191V69.1003H417.997Z" fill="white"/>
<path d="M497.863 60.0771H487.443L474.192 83.0229L460.946 60.0771H450.521L469.68 93.2586V105.193H478.704V93.2586L497.863 60.0771Z" fill="white"/>
<defs>
<linearGradient id="paint0_linear_58_8404" x1="3.35294" y1="182.762" x2="178.097" y2="-15.6826" gradientUnits="userSpaceOnUse">
<stop stop-color="#005F6A"/>
<stop offset="0.15" stop-color="#037A72"/>
<stop offset="0.3" stop-color="#07957A"/>
<stop offset="0.45" stop-color="#0AAE81"/>
<stop offset="0.6" stop-color="#0EC688"/>
<stop offset="0.745" stop-color="#11DB8E"/>
<stop offset="0.9" stop-color="#14F195"/>
</linearGradient>
</defs>
</svg>
