<svg width="619" height="165" viewBox="0 0 619 165" fill="none" xmlns="http://www.w3.org/2000/svg">
<path d="M182.038 129.914L151.834 162.364C151.176 163.071 150.384 163.63 149.498 164.014C148.616 164.398 147.661 164.598 146.701 164.594H3.50866C2.82675 164.594 2.1571 164.394 1.58544 164.018C1.01378 163.642 0.564616 163.107 0.291036 162.479C0.0174557 161.85 -0.0642099 161.156 0.050122 160.482C0.164454 159.809 0.474783 159.18 0.940278 158.682L31.1688 126.231C31.8221 125.529 32.6143 124.965 33.4963 124.582C34.3783 124.198 35.3256 123.998 36.2852 123.998H179.47C180.151 123.998 180.821 124.198 181.393 124.573C181.964 124.949 182.414 125.484 182.687 126.109C182.961 126.737 183.042 127.431 182.928 128.105C182.814 128.779 182.503 129.403 182.038 129.906V129.914ZM151.83 64.5715C151.172 63.8652 150.38 63.3058 149.494 62.9221C148.612 62.5383 147.657 62.3382 146.697 62.3382H3.50866C2.82675 62.3382 2.1571 62.5383 1.58544 62.9139C1.01378 63.2895 0.564616 63.8244 0.291036 64.4491C0.0174557 65.0778 -0.0642099 65.7719 0.050122 66.4456C0.164454 67.1192 0.474783 67.7439 0.940278 68.2461L31.1688 100.697C31.8221 101.399 32.6143 101.962 33.4963 102.346C34.3783 102.73 35.3256 102.93 36.2852 102.93H179.47C180.151 102.93 180.821 102.73 181.393 102.354C181.964 101.979 182.414 101.444 182.687 100.815C182.961 100.186 183.042 99.4923 182.928 98.8186C182.814 98.145 182.503 97.5162 182.038 97.0181L151.834 64.5675L151.83 64.5715ZM3.50866 41.2625H146.701C147.665 41.2625 148.616 41.0665 149.498 40.6827C150.38 40.2989 151.176 39.7355 151.834 39.0332L182.038 6.5785C182.503 6.0763 182.814 5.45162 182.928 4.77795C183.042 4.10428 182.961 3.41019 182.687 2.78143C182.414 2.15267 181.964 1.61781 181.393 1.24219C180.821 0.866564 180.151 0.666504 179.47 0.666504H36.2893C35.3297 0.666504 34.3783 0.866564 33.5004 1.25035C32.6184 1.63414 31.8303 2.1935 31.1729 2.89983L0.952527 35.3545C0.487033 35.8526 0.176704 36.4814 0.0623719 37.1551C-0.0519601 37.8288 0.0297056 38.5228 0.299202 39.1475C0.568699 39.7763 1.01786 40.3111 1.58952 40.6868C2.16118 41.0624 2.82675 41.2625 3.50866 41.2665V41.2625Z" fill="url(#paint0_linear_58_8376)"/>
<path d="M343.767 128.506H307.671V137.529H334.172C339.508 137.529 343.767 141.848 343.767 147.123V155.003C343.767 160.34 339.508 164.598 334.172 164.598H298.647V155.575H334.743V146.552H308.243C302.906 146.552 298.647 142.232 298.647 136.957V129.077C298.647 123.741 302.906 119.482 308.243 119.482H343.767V128.506Z" fill="black"/>
<path d="M283.224 119.482H292.313V158.751C292.313 161.993 289.643 164.598 286.401 164.598H279.41C277.185 164.663 275.217 163.455 274.2 161.483L256.662 128.506H254.31V164.598H245.286V125.394C245.286 122.091 247.891 119.487 251.133 119.487H258.504C260.664 119.487 262.697 120.63 263.714 122.602L281.252 155.579H283.22V119.487L283.224 119.482Z" fill="black"/>
<path d="M506.861 119.482H515.95V149.475C515.885 157.861 509.152 164.598 500.761 164.598H484.048C475.661 164.598 468.923 157.861 468.923 149.475V119.482H477.947V147.634C477.947 152.019 481.504 155.579 485.889 155.579H498.915C503.3 155.579 506.861 152.019 506.861 147.634V119.482Z" fill="black"/>
<path d="M238.962 164.598H229.938V119.482H238.962V164.598Z" fill="black"/>
<path d="M410.856 164.598H401.832V119.482H410.856V164.598Z" fill="black"/>
<path d="M574.011 164.598H618.494V155.338H583.333V146.67H618.494V137.41H583.333V128.742H618.494V119.482H574.011V164.598Z" fill="black"/>
<path d="M350.096 128.742H368.14V164.598H377.458V128.742H395.502V119.482H350.096V128.742Z" fill="black"/>
<path d="M522.275 128.742H540.319V164.598H549.637V128.742H567.681V119.482H522.275V128.742Z" fill="black"/>
<path d="M417.184 128.742H435.228V164.598H444.546V128.742H462.59V119.482H417.184V128.742Z" fill="black"/>
<path d="M275.058 9.69452H238.962V18.7177H265.462C270.799 18.7177 275.058 23.0373 275.058 28.3124V36.1923C275.058 41.5286 270.799 45.7871 265.462 45.7871H229.938V36.7639H266.034V27.7408H239.533C234.196 27.7408 229.938 23.4211 229.938 18.1461V10.2661C229.938 4.92982 234.196 0.671387 239.533 0.671387H275.058V9.69452Z" fill="black"/>
<path d="M318.752 0.670898C324.089 0.670898 328.413 4.92933 328.413 10.2656V36.1918C328.413 41.5281 324.093 45.7866 318.752 45.7866H290.982C285.645 45.7866 281.386 41.5281 281.386 36.1918V10.2656C281.386 4.92933 285.645 0.670898 290.982 0.670898H318.752ZM319.324 9.69403H290.41V36.7634H319.324V9.69403Z" fill="black"/>
<path d="M424.465 0.670898C428.785 0.670898 432.28 4.10051 432.28 8.42426V45.7866H423.191V30.9821H394.277V45.7866H385.253V8.42426C385.253 4.10459 388.683 0.670898 393.007 0.670898H424.465ZM423.195 9.69403H394.281V21.959H423.195V9.69403Z" fill="black"/>
<path d="M476.547 0.670898H485.637V39.9399C485.637 43.1817 482.966 45.7866 479.724 45.7866H472.733C470.508 45.8519 468.54 44.6434 467.523 42.6713L449.985 9.69403H447.633V45.7866H438.609V6.57881C438.609 3.27577 441.214 0.670898 444.457 0.670898H451.827C453.991 0.670898 456.025 1.8141 457.041 3.78613L474.579 36.7634H476.547V0.670898Z" fill="black"/>
<path d="M531.177 0.670898C535.497 0.670898 538.993 4.10051 538.993 8.42426V45.7866H529.907V30.9821H500.989V45.7866H491.965V8.42426C491.965 4.10459 495.399 0.670898 499.719 0.670898H531.177ZM529.907 9.69403H500.989V21.959H529.907V9.69403Z" fill="black"/>
<path d="M378.928 36.7634V45.7866H340.868C337.487 45.7866 334.743 43.0429 334.743 39.6623V0.670898H343.767V36.7634H378.928Z" fill="black"/>
<path d="M318.753 60.0771C324.09 60.0771 328.414 64.3356 328.414 69.6719V95.5981C328.414 100.934 324.094 105.193 318.753 105.193H290.982C285.646 105.193 281.387 100.934 281.387 95.5981V69.6719C281.387 64.3356 285.646 60.0771 290.982 60.0771H318.753ZM319.325 69.1003H290.411V96.1697H319.325V69.1003Z" fill="black"/>
<path d="M394.281 105.193H385.257V60.0771H394.281V105.193Z" fill="black"/>
<path d="M378.928 96.1697V105.193H340.868C337.487 105.193 334.743 102.449 334.743 99.0685V60.0771H343.767V96.1697H378.928Z" fill="black"/>
<path d="M265.459 60.0776H229.934V105.193H238.958V87.147H265.459C270.795 87.147 275.054 82.8274 275.054 77.5523V69.6765C275.054 64.3361 270.795 60.0817 265.459 60.0817V60.0776ZM266.03 78.1198H239.53C239.338 78.1198 239.146 78.1198 238.958 78.1362V69.1008H266.03V78.1198Z" fill="black"/>
<path d="M417.502 69.1003C413.137 69.1003 409.593 72.6605 409.593 77.1068V88.2285C409.593 92.6135 413.137 96.1697 417.502 96.1697H443.697V105.193H415.669C407.319 105.193 400.61 98.4561 400.61 90.0699V75.2001C400.61 66.8751 407.319 60.0771 415.669 60.0771H443.697V69.1003H417.502Z" fill="black"/>
<path d="M497.368 60.0771H486.948L473.698 83.0229L460.451 60.0771H450.027L469.186 93.2586V105.193H478.21V93.2586L497.368 60.0771Z" fill="black"/>
<defs>
<linearGradient id="paint0_linear_58_8376" x1="2.85831" y1="182.762" x2="177.603" y2="-15.6826" gradientUnits="userSpaceOnUse">
<stop stop-color="#005F6A"/>
<stop offset="0.15" stop-color="#037A72"/>
<stop offset="0.3" stop-color="#07957A"/>
<stop offset="0.45" stop-color="#0AAE81"/>
<stop offset="0.6" stop-color="#0EC688"/>
<stop offset="0.745" stop-color="#11DB8E"/>
<stop offset="0.9" stop-color="#14F195"/>
</linearGradient>
</defs>
</svg>
