<svg width="1094" height="500" viewBox="0 0 1094 500" fill="none" xmlns="http://www.w3.org/2000/svg">
<rect width="1093.25" height="500" fill="black"/>
<path d="M419.863 295.914L389.652 328.364C388.994 329.071 388.202 329.63 387.316 330.014C386.434 330.398 385.478 330.598 384.518 330.594H241.292C240.61 330.594 239.94 330.394 239.369 330.018C238.797 329.642 238.347 329.107 238.074 328.479C237.8 327.85 237.718 327.156 237.833 326.482C237.947 325.809 238.258 325.18 238.723 324.682L268.959 292.231C269.612 291.529 270.405 290.965 271.287 290.582C272.169 290.198 273.117 289.998 274.076 289.998H417.294C417.976 289.998 418.646 290.198 419.218 290.573C419.789 290.949 420.239 291.484 420.512 292.109C420.786 292.737 420.868 293.431 420.753 294.105C420.639 294.779 420.329 295.403 419.863 295.906V295.914ZM389.648 230.572C388.99 229.865 388.198 229.306 387.312 228.922C386.429 228.538 385.474 228.338 384.514 228.338H241.292C240.61 228.338 239.94 228.538 239.369 228.914C238.797 229.29 238.347 229.824 238.074 230.449C237.8 231.078 237.718 231.772 237.833 232.446C237.947 233.119 238.258 233.744 238.723 234.246L268.959 266.697C269.612 267.399 270.405 267.962 271.287 268.346C272.169 268.73 273.117 268.93 274.076 268.93H417.294C417.976 268.93 418.646 268.73 419.218 268.354C419.789 267.979 420.239 267.444 420.512 266.815C420.786 266.186 420.868 265.492 420.753 264.819C420.639 264.145 420.329 263.516 419.863 263.018L389.652 230.567L389.648 230.572ZM241.292 207.262H384.518C385.482 207.262 386.434 207.066 387.316 206.683C388.198 206.299 388.994 205.735 389.652 205.033L419.863 172.578C420.329 172.076 420.639 171.452 420.753 170.778C420.868 170.104 420.786 169.41 420.512 168.781C420.239 168.153 419.789 167.618 419.218 167.242C418.646 166.867 417.976 166.667 417.294 166.667H274.08C273.121 166.667 272.169 166.867 271.291 167.25C270.409 167.634 269.62 168.193 268.963 168.9L238.735 201.355C238.27 201.853 237.959 202.481 237.845 203.155C237.731 203.829 237.812 204.523 238.082 205.148C238.352 205.776 238.801 206.311 239.373 206.687C239.944 207.062 240.61 207.262 241.292 207.267V207.262Z" fill="url(#paint0_linear_58_8249)"/>
<path d="M581.63 294.506H545.525V303.529H572.032C577.37 303.529 581.63 307.848 581.63 313.123V321.003C581.63 326.34 577.37 330.598 572.032 330.598H536.499V321.575H572.604V312.552H546.097C540.759 312.552 536.499 308.232 536.499 302.957V295.077C536.499 289.741 540.759 285.482 546.097 285.482H581.63V294.506Z" fill="white"/>
<path d="M521.073 285.482H530.164V324.751C530.164 327.993 527.493 330.598 524.25 330.598H517.258C515.032 330.663 513.063 329.455 512.046 327.483L494.505 294.506H492.152V330.598H483.126V291.394C483.126 288.091 485.732 285.487 488.975 285.487H496.347C498.507 285.487 500.541 286.63 501.558 288.602L519.1 321.579H521.068V285.487L521.073 285.482Z" fill="white"/>
<path d="M744.762 285.482H753.853V315.475C753.788 323.861 747.053 330.598 738.66 330.598H721.943C713.554 330.598 706.815 323.861 706.815 315.475V285.482H715.842V313.634C715.842 318.019 719.399 321.579 723.785 321.579H736.814C741.201 321.579 744.762 318.019 744.762 313.634V285.482Z" fill="white"/>
<path d="M476.8 330.598H467.774V285.482H476.8V330.598Z" fill="white"/>
<path d="M648.734 330.598H639.708V285.482H648.734V330.598Z" fill="white"/>
<path d="M811.928 330.598H856.421V321.338H821.252V312.67H856.421V303.41H821.252V294.742H856.421V285.482H811.928V330.598Z" fill="white"/>
<path d="M587.96 294.742H606.008V330.598H615.328V294.742H633.377V285.482H587.96V294.742Z" fill="white"/>
<path d="M760.18 294.742H778.228V330.598H787.548V294.742H805.596V285.482H760.18V294.742Z" fill="white"/>
<path d="M655.064 294.742H673.112V330.598H682.432V294.742H700.481V285.482H655.064V294.742Z" fill="white"/>
<path d="M512.905 175.695H476.8V184.718H503.307C508.645 184.718 512.905 189.037 512.905 194.312V202.192C512.905 207.529 508.645 211.787 503.307 211.787H467.774V202.764H503.879V193.741H477.372C472.034 193.741 467.774 189.421 467.774 184.146V176.266C467.774 170.93 472.034 166.671 477.372 166.671H512.905V175.695Z" fill="white"/>
<path d="M556.609 166.671C561.947 166.671 566.272 170.929 566.272 176.266V202.192C566.272 207.528 561.951 211.787 556.609 211.787H528.832C523.494 211.787 519.234 207.528 519.234 202.192V176.266C519.234 170.929 523.494 166.671 528.832 166.671H556.609ZM557.181 175.694H528.261V202.763H557.181V175.694Z" fill="white"/>
<path d="M662.346 166.671C666.667 166.671 670.164 170.101 670.164 174.424V211.787H661.072V196.982H632.152V211.787H623.125V174.424C623.125 170.105 626.556 166.671 630.881 166.671H662.346ZM661.076 175.694H632.156V187.959H661.076V175.694Z" fill="white"/>
<path d="M714.441 166.671H723.532V205.94C723.532 209.182 720.861 211.787 717.618 211.787H710.626C708.4 211.852 706.432 210.643 705.415 208.671L687.873 175.694H685.52V211.787H676.494V172.579C676.494 169.276 679.1 166.671 682.343 166.671H689.715C691.879 166.671 693.913 167.814 694.93 169.786L712.472 202.763H714.441V166.671Z" fill="white"/>
<path d="M769.084 166.671C773.405 166.671 776.901 170.101 776.901 174.424V211.787H767.813V196.982H738.889V211.787H729.863V174.424C729.863 170.105 733.298 166.671 737.619 166.671H769.084ZM767.813 175.694H738.889V187.959H767.813V175.694Z" fill="white"/>
<path d="M616.799 202.763V211.787H578.73C575.348 211.787 572.604 209.043 572.604 205.662V166.671H581.63V202.763H616.799Z" fill="white"/>
<path d="M556.61 226.077C561.948 226.077 566.273 230.336 566.273 235.672V261.598C566.273 266.934 561.952 271.193 556.61 271.193H528.833C523.495 271.193 519.235 266.934 519.235 261.598V235.672C519.235 230.336 523.495 226.077 528.833 226.077H556.61ZM557.181 235.1H528.261V262.17H557.181V235.1Z" fill="white"/>
<path d="M632.156 271.193H623.13V226.077H632.156V271.193Z" fill="white"/>
<path d="M616.799 262.17V271.193H578.73C575.349 271.193 572.604 268.449 572.604 265.069V226.077H581.63V262.17H616.799Z" fill="white"/>
<path d="M503.303 226.078H467.771V271.193H476.797V253.147H503.303C508.641 253.147 512.901 248.827 512.901 243.552V235.676C512.901 230.336 508.641 226.082 503.303 226.082V226.078ZM503.875 244.12H477.368C477.176 244.12 476.985 244.12 476.797 244.136V235.101H503.875V244.12Z" fill="white"/>
<path d="M655.383 235.1C651.017 235.1 647.472 238.661 647.472 243.107V254.229C647.472 258.614 651.017 262.17 655.383 262.17H681.583V271.193H653.549C645.197 271.193 638.486 264.456 638.486 256.07V241.2C638.486 232.875 645.197 226.077 653.549 226.077H681.583V235.1H655.383Z" fill="white"/>
<path d="M735.267 226.077H724.844L711.59 249.023L698.341 226.077H687.914L707.077 259.259V271.193H716.103V259.259L735.267 226.077Z" fill="white"/>
<defs>
<linearGradient id="paint0_linear_58_8249" x1="240.642" y1="348.762" x2="415.381" y2="150.277" gradientUnits="userSpaceOnUse">
<stop stop-color="#005F6A"/>
<stop offset="0.15" stop-color="#037A72"/>
<stop offset="0.3" stop-color="#07957A"/>
<stop offset="0.45" stop-color="#0AAE81"/>
<stop offset="0.6" stop-color="#0EC688"/>
<stop offset="0.745" stop-color="#11DB8E"/>
<stop offset="0.9" stop-color="#14F195"/>
</linearGradient>
</defs>
</svg>
