<svg width="619" height="165" viewBox="0 0 619 165" fill="none" xmlns="http://www.w3.org/2000/svg">
<path d="M182.533 129.848L152.329 162.298C151.671 163.005 150.879 163.564 149.993 163.948C149.111 164.332 148.155 164.532 147.196 164.528H4.00329C3.32138 164.528 2.65172 164.328 2.08007 163.952C1.50841 163.576 1.05924 163.042 0.785665 162.413C0.512085 161.784 0.430419 161.09 0.544751 160.416C0.659083 159.743 0.969412 159.114 1.43491 158.616L31.6635 126.165C32.3168 125.463 33.1089 124.899 33.9909 124.516C34.8729 124.132 35.8202 123.932 36.7798 123.932H179.964C180.646 123.932 181.316 124.132 181.887 124.507C182.459 124.883 182.908 125.418 183.182 126.043C183.455 126.671 183.537 127.365 183.423 128.039C183.308 128.713 182.998 129.337 182.533 129.84V129.848ZM152.324 64.5056C151.667 63.7993 150.875 63.2399 149.989 62.8561C149.107 62.4724 148.151 62.2723 147.192 62.2723H4.00329C3.32138 62.2723 2.65172 62.4723 2.08007 62.848C1.50841 63.2236 1.05924 63.7585 0.785665 64.3831C0.512085 65.0119 0.430419 65.706 0.544751 66.3797C0.659083 67.0533 0.969412 67.678 1.43491 68.1802L31.6635 100.631C32.3168 101.333 33.1089 101.897 33.9909 102.28C34.8729 102.664 35.8202 102.864 36.7798 102.864H179.964C180.646 102.864 181.316 102.664 181.887 102.288C182.459 101.913 182.908 101.378 183.182 100.749C183.455 100.12 183.537 99.4264 183.423 98.7527C183.308 98.079 182.998 97.4503 182.533 96.9522L152.329 64.5015L152.324 64.5056ZM4.00329 41.1965H147.196C148.16 41.1965 149.111 41.0006 149.993 40.6168C150.875 40.233 151.671 39.6695 152.329 38.9673L182.533 6.51258C182.998 6.01038 183.308 5.38571 183.423 4.71203C183.537 4.03836 183.455 3.34427 183.182 2.71551C182.908 2.08675 182.459 1.55189 181.887 1.17627C181.316 0.800646 180.646 0.600586 179.964 0.600586H36.7839C35.8243 0.600586 34.8729 0.800646 33.995 1.18444C33.113 1.56823 32.3249 2.12758 31.6675 2.83391L1.44716 35.2886C0.981662 35.7867 0.671333 36.4155 0.557001 37.0892C0.442669 37.7628 0.524334 38.4569 0.793831 39.0816C1.06333 39.7104 1.51249 40.2452 2.08415 40.6208C2.65581 40.9965 3.32138 41.1965 4.00329 41.2006V41.1965Z" fill="white"/>
<path d="M344.262 128.44H308.166V137.463H334.666C340.003 137.463 344.262 141.782 344.262 147.058V154.937C344.262 160.274 340.003 164.532 334.666 164.532H299.142V155.509H335.238V146.486H308.737C303.4 146.486 299.142 142.166 299.142 136.891V129.011C299.142 123.675 303.4 119.417 308.737 119.417H344.262V128.44Z" fill="white"/>
<path d="M283.718 119.417H292.807V158.686C292.807 161.927 290.137 164.532 286.895 164.532H279.904C277.679 164.598 275.711 163.389 274.694 161.417L257.156 128.44H254.804V164.532H245.78V125.328C245.78 122.025 248.385 119.421 251.628 119.421H258.998C261.158 119.421 263.191 120.564 264.208 122.536L281.746 155.513H283.714V119.421L283.718 119.417Z" fill="white"/>
<path d="M507.356 119.417H516.445V149.409C516.38 157.795 509.646 164.532 501.255 164.532H484.542C476.155 164.532 469.418 157.795 469.418 149.409V119.417H478.442V147.568C478.442 151.953 481.999 155.513 486.384 155.513H499.41C503.795 155.513 507.356 151.953 507.356 147.568V119.417Z" fill="white"/>
<path d="M239.456 164.532H230.432V119.417H239.456V164.532Z" fill="white"/>
<path d="M411.35 164.532H402.326V119.417H411.35V164.532Z" fill="white"/>
<path d="M574.506 164.532H618.989V155.272H583.828V146.604H618.989V137.344H583.828V128.676H618.989V119.417H574.506V164.532Z" fill="white"/>
<path d="M350.591 128.676H368.635V164.532H377.953V128.676H395.997V119.417H350.591V128.676Z" fill="white"/>
<path d="M522.771 128.676H540.815V164.532H550.133V128.676H568.177V119.417H522.771V128.676Z" fill="white"/>
<path d="M417.679 128.676H435.723V164.532H445.041V128.676H463.085V119.417H417.679V128.676Z" fill="white"/>
<path d="M275.552 9.6286H239.456V18.6517H265.957C271.294 18.6517 275.552 22.9714 275.552 28.2465V36.1264C275.552 41.4627 271.294 45.7211 265.957 45.7211H230.432V36.698H266.528V27.6749H240.028C234.691 27.6749 230.432 23.3552 230.432 18.0801V10.2002C230.432 4.8639 234.691 0.605469 240.028 0.605469H275.552V9.6286Z" fill="white"/>
<path d="M319.247 0.60498C324.584 0.60498 328.908 4.86341 328.908 10.1997V36.1259C328.908 41.4622 324.588 45.7207 319.247 45.7207H291.477C286.14 45.7207 281.881 41.4622 281.881 36.1259V10.1997C281.881 4.86341 286.14 0.60498 291.477 0.60498H319.247ZM319.819 9.62812H290.905V36.6975H319.819V9.62812Z" fill="white"/>
<path d="M424.96 0.60498C429.28 0.60498 432.775 4.03459 432.775 8.35834V45.7207H423.686V30.9162H394.772V45.7207H385.748V8.35834C385.748 4.03867 389.178 0.60498 393.502 0.60498H424.96ZM423.69 9.62812H394.776V21.893H423.69V9.62812Z" fill="white"/>
<path d="M477.041 0.60498H486.131V39.874C486.131 43.1158 483.46 45.7207 480.218 45.7207H473.227C471.002 45.786 469.034 44.5775 468.017 42.6054L450.48 9.62812H448.128V45.7207H439.104V6.51289C439.104 3.20985 441.709 0.60498 444.951 0.60498H452.321C454.485 0.60498 456.519 1.74818 457.535 3.72021L475.073 36.6975H477.041V0.60498Z" fill="white"/>
<path d="M531.672 0.60498C535.992 0.60498 539.487 4.03459 539.487 8.35834V45.7207H530.402V30.9162H501.484V45.7207H492.46V8.35834C492.46 4.03867 495.894 0.60498 500.214 0.60498H531.672ZM530.402 9.62812H501.484V21.893H530.402V9.62812Z" fill="white"/>
<path d="M379.423 36.6975V45.7207H341.363C337.982 45.7207 335.238 42.977 335.238 39.5964V0.60498H344.262V36.6975H379.423Z" fill="white"/>
<path d="M319.248 60.0112C324.585 60.0112 328.909 64.2697 328.909 69.606V95.5322C328.909 100.868 324.589 105.127 319.248 105.127H291.478C286.141 105.127 281.882 100.868 281.882 95.5322V69.606C281.882 64.2697 286.141 60.0112 291.478 60.0112H319.248ZM319.82 69.0344H290.906V96.1038H319.82V69.0344Z" fill="white"/>
<path d="M394.776 105.127H385.752V60.0112H394.776V105.127Z" fill="white"/>
<path d="M379.423 96.1038V105.127H341.363C337.982 105.127 335.238 102.383 335.238 99.0026V60.0112H344.262V96.1038H379.423Z" fill="white"/>
<path d="M265.953 60.0117H230.429V105.127H239.453V87.0811H265.953C271.29 87.0811 275.549 82.7615 275.549 77.4864V69.6105C275.549 64.2701 271.29 60.0158 265.953 60.0158V60.0117ZM266.525 78.0539H240.024C239.833 78.0539 239.641 78.0539 239.453 78.0702V69.0349H266.525V78.0539Z" fill="white"/>
<path d="M417.997 69.0344C413.632 69.0344 410.088 72.5946 410.088 77.0409V88.1626C410.088 92.5476 413.632 96.1038 417.997 96.1038H444.191V105.127H416.164C407.813 105.127 401.104 98.3902 401.104 90.004V75.1342C401.104 66.8092 407.813 60.0112 416.164 60.0112H444.191V69.0344H417.997Z" fill="white"/>
<path d="M497.863 60.0112H487.443L474.192 82.9569L460.946 60.0112H450.521L469.68 93.1927V105.127H478.704V93.1927L497.863 60.0112Z" fill="white"/>
</svg>
