<svg width="428" height="134" viewBox="0 0 428 134" fill="none" xmlns="http://www.w3.org/2000/svg">
<path d="M427.092 113.988H408.418V20.666H427.092V113.988Z" fill="black"/>
<path d="M295.616 39.3305H220.921V57.995H275.756C286.807 57.995 295.616 66.932 295.616 77.8452V94.1491C295.616 105.194 286.807 113.999 275.756 113.999H202.247V95.3349H276.942V76.6704H222.107C211.057 76.6704 202.247 67.7334 202.247 56.8202V40.5162C202.247 29.4713 211.057 20.666 222.107 20.666H295.616V39.3305Z" fill="black"/>
<path d="M378.836 20.666H305.327V113.988H324.001V76.6594H378.836C389.875 76.6594 398.696 67.7224 398.696 56.8092V40.5162C398.696 29.4713 389.886 20.666 378.836 20.666ZM380.022 57.995H325.187C324.791 57.995 324.396 57.995 324.001 58.0279V39.3415H380.022V57.995Z" fill="black"/>
<path d="M148.124 105.792L123.547 132.186C123.012 132.761 122.367 133.216 121.646 133.528C120.928 133.84 120.151 134.003 119.37 133.999H2.85498C2.30012 133.999 1.75522 133.837 1.29006 133.531C0.824906 133.226 0.459425 132.791 0.236814 132.279C0.0142036 131.768 -0.0522473 131.203 0.0407841 130.655C0.133815 130.107 0.386329 129.596 0.7651 129.191L25.3619 102.796C25.8935 102.225 26.5381 101.767 27.2558 101.455C27.9735 101.143 28.7443 100.98 29.5251 100.98H146.034C146.588 100.98 147.133 101.143 147.599 101.448C148.064 101.754 148.429 102.189 148.652 102.697C148.874 103.208 148.941 103.773 148.848 104.321C148.755 104.869 148.502 105.377 148.124 105.785V105.792ZM123.543 52.6444C123.008 52.0699 122.364 51.6149 121.643 51.3028C120.925 50.9906 120.148 50.8279 119.367 50.8279H2.85498C2.30012 50.8279 1.75522 50.9906 1.29006 51.2961C0.824906 51.6017 0.459425 52.0367 0.236814 52.5448C0.0142036 53.0562 -0.0522473 53.6208 0.0407841 54.1687C0.133815 54.7166 0.386329 55.2247 0.7651 55.6332L25.3619 82.0275C25.8935 82.5987 26.5381 83.057 27.2558 83.3692C27.9735 83.6814 28.7443 83.8441 29.5251 83.8441H146.034C146.588 83.8441 147.133 83.6814 147.599 83.3758C148.064 83.0703 148.429 82.6353 148.652 82.1239C148.874 81.6124 148.941 81.0479 148.848 80.4999C148.755 79.952 148.502 79.4406 148.124 79.0354L123.547 52.6411L123.543 52.6444ZM2.85498 33.6855H119.37C120.154 33.6855 120.928 33.5261 121.646 33.214C122.364 32.9018 123.012 32.4435 123.547 31.8723L148.124 5.47465C148.502 5.06618 148.755 4.55809 148.848 4.01014C148.941 3.4622 148.874 2.89765 148.652 2.38623C148.429 1.87482 148.064 1.43978 147.599 1.13426C147.133 0.828739 146.588 0.666016 146.034 0.666016H29.5284C28.7476 0.666016 27.9735 0.828739 27.2591 1.1409C26.5414 1.45306 25.9002 1.90802 25.3653 2.48254L0.775068 28.8802C0.396297 29.2854 0.143783 29.7968 0.0507517 30.3447C-0.0422797 30.8927 0.0241713 31.4572 0.24346 31.9653C0.462748 32.4767 0.828228 32.9118 1.29339 33.2173C1.75854 33.5228 2.30012 33.6855 2.85498 33.6888V33.6855Z" fill="black"/>
</svg>
