<svg width="667" height="500" viewBox="0 0 667 500" fill="none" xmlns="http://www.w3.org/2000/svg">
<rect width="666.667" height="500" fill="#005F6A"/>
<path d="M546.879 296.655H528.214V203.333H546.879V296.655Z" fill="white"/>
<path d="M415.469 221.997H340.811V240.662H395.618C406.663 240.662 415.469 249.599 415.469 260.512V276.816C415.469 287.861 406.663 296.666 395.618 296.666H322.146V278.002H396.804V259.337H341.996C330.951 259.337 322.146 250.4 322.146 239.487V223.183C322.146 212.138 330.951 203.333 341.996 203.333H415.469V221.997Z" fill="white"/>
<path d="M498.647 203.333H425.174V296.655H443.839V259.326H498.647C509.681 259.326 518.497 250.389 518.497 239.476V223.183C518.497 212.138 509.692 203.333 498.647 203.333ZM499.832 240.662H445.025C444.629 240.662 444.234 240.662 443.839 240.695V222.008H499.832V240.662Z" fill="white"/>
<path d="M268.049 288.459L243.485 314.853C242.95 315.428 242.306 315.883 241.585 316.195C240.868 316.507 240.091 316.67 239.31 316.666H122.854C122.299 316.666 121.754 316.504 121.289 316.198C120.824 315.893 120.459 315.458 120.237 314.946C120.014 314.435 119.948 313.87 120.041 313.322C120.134 312.774 120.386 312.263 120.765 311.858L145.349 285.463C145.881 284.892 146.525 284.434 147.242 284.122C147.959 283.81 148.73 283.647 149.51 283.647H265.961C266.515 283.647 267.06 283.81 267.525 284.115C267.99 284.421 268.355 284.856 268.577 285.364C268.8 285.875 268.866 286.44 268.773 286.988C268.68 287.536 268.428 288.044 268.049 288.452V288.459ZM243.482 235.311C242.947 234.737 242.303 234.282 241.582 233.97C240.865 233.658 240.088 233.495 239.307 233.495H122.854C122.299 233.495 121.754 233.658 121.289 233.963C120.824 234.269 120.459 234.704 120.237 235.212C120.014 235.723 119.948 236.288 120.041 236.836C120.134 237.384 120.386 237.892 120.765 238.3L145.349 264.695C145.881 265.266 146.525 265.724 147.242 266.036C147.959 266.348 148.73 266.511 149.51 266.511H265.961C266.515 266.511 267.06 266.348 267.525 266.043C267.99 265.737 268.355 265.302 268.577 264.791C268.8 264.279 268.866 263.715 268.773 263.167C268.68 262.619 268.428 262.108 268.049 261.702L243.485 235.308L243.482 235.311ZM122.854 216.353H239.31C240.094 216.353 240.868 216.193 241.585 215.881C242.303 215.569 242.95 215.111 243.485 214.539L268.049 188.142C268.428 187.733 268.68 187.225 268.773 186.677C268.866 186.129 268.8 185.565 268.577 185.053C268.355 184.542 267.99 184.107 267.525 183.801C267.06 183.496 266.515 183.333 265.961 183.333H149.514C148.733 183.333 147.959 183.496 147.245 183.808C146.528 184.12 145.887 184.575 145.353 185.15L120.775 211.547C120.396 211.952 120.144 212.464 120.051 213.012C119.958 213.56 120.024 214.124 120.243 214.632C120.463 215.144 120.828 215.579 121.293 215.884C121.758 216.19 122.299 216.353 122.854 216.356V216.353Z" fill="white"/>
</svg>
