<svg width="428" height="134" viewBox="0 0 428 134" fill="none" xmlns="http://www.w3.org/2000/svg">
<path d="M427.093 113.655H408.419V20.333H427.093V113.655Z" fill="black"/>
<path d="M295.617 38.9975H220.921V57.662H275.757C286.807 57.662 295.617 66.5989 295.617 77.5122V93.8161C295.617 104.861 286.807 113.666 275.757 113.666H202.248V95.0019H276.943V76.3374H222.108C211.057 76.3374 202.248 67.4004 202.248 56.4872V40.1832C202.248 29.1382 211.057 20.333 222.108 20.333H295.617V38.9975Z" fill="black"/>
<path d="M378.836 20.333H305.327V113.655H324.001V76.3264H378.836C389.876 76.3264 398.696 67.3894 398.696 56.4762V40.1832C398.696 29.1382 389.887 20.333 378.836 20.333ZM380.023 57.6619H325.187C324.792 57.6619 324.396 57.6619 324.001 57.6949V39.0085H380.023V57.6619Z" fill="black"/>
<path d="M148.123 105.459L123.547 131.853C123.012 132.428 122.367 132.883 121.646 133.195C120.928 133.507 120.151 133.67 119.37 133.666H2.85498C2.30012 133.666 1.75522 133.504 1.29006 133.198C0.824906 132.893 0.459425 132.458 0.236814 131.946C0.0142036 131.435 -0.0522473 130.87 0.040784 130.322C0.133815 129.774 0.386329 129.263 0.7651 128.858L25.3619 102.463C25.8935 101.892 26.5381 101.434 27.2558 101.122C27.9735 100.81 28.7443 100.647 29.5251 100.647H146.034C146.588 100.647 147.133 100.81 147.599 101.115C148.064 101.421 148.429 101.856 148.652 102.364C148.874 102.875 148.941 103.44 148.848 103.988C148.755 104.536 148.502 105.044 148.123 105.452V105.459ZM123.543 52.3114C123.008 51.7369 122.364 51.2819 121.643 50.9698C120.925 50.6576 120.148 50.4949 119.367 50.4949H2.85498C2.30012 50.4949 1.75522 50.6576 1.29006 50.9631C0.824906 51.2686 0.459425 51.7037 0.236814 52.2118C0.0142036 52.7232 -0.0522473 53.2877 0.040784 53.8357C0.133815 54.3836 0.386329 54.8917 0.7651 55.3002L25.3619 81.6945C25.8935 82.2657 26.5381 82.724 27.2558 83.0362C27.9735 83.3483 28.7443 83.5111 29.5251 83.5111H146.034C146.588 83.5111 147.133 83.3483 147.599 83.0428C148.064 82.7373 148.429 82.3023 148.652 81.7908C148.874 81.2794 148.941 80.7149 148.848 80.1669C148.755 79.619 148.502 79.1076 148.123 78.7024L123.547 52.3081L123.543 52.3114ZM2.85498 33.3525H119.37C120.154 33.3525 120.928 33.1931 121.646 32.8809C122.364 32.5688 123.012 32.1105 123.547 31.5393L148.123 5.14164C148.502 4.73317 148.755 4.22508 148.848 3.67713C148.941 3.12919 148.874 2.56464 148.652 2.05322C148.429 1.54181 148.064 1.10677 147.599 0.801252C147.133 0.495731 146.588 0.333008 146.034 0.333008H29.5284C28.7476 0.333008 27.9735 0.495731 27.2591 0.807893C26.5414 1.12006 25.9002 1.57502 25.3653 2.14953L0.775067 28.5472C0.396297 28.9523 0.143783 29.4638 0.0507517 30.0117C-0.0422797 30.5597 0.0241713 31.1242 0.24346 31.6323C0.462748 32.1437 0.828228 32.5787 1.29339 32.8843C1.75854 33.1898 2.30012 33.3525 2.85498 33.3558V33.3525Z" fill="url(#paint0_linear_58_8488)"/>
<defs>
<linearGradient id="paint0_linear_58_8488" x1="2.32579" y1="148.444" x2="144.45" y2="-13.0214" gradientUnits="userSpaceOnUse">
<stop stop-color="#005F6A"/>
<stop offset="0.15" stop-color="#037A72"/>
<stop offset="0.3" stop-color="#07957A"/>
<stop offset="0.45" stop-color="#0AAE81"/>
<stop offset="0.6" stop-color="#0EC688"/>
<stop offset="0.745" stop-color="#11DB8E"/>
<stop offset="0.9" stop-color="#14F195"/>
</linearGradient>
</defs>
</svg>
