<svg width="428" height="134" viewBox="0 0 428 134" fill="none" xmlns="http://www.w3.org/2000/svg">
<path d="M427.184 113.988H408.51V20.666H427.184V113.988Z" fill="white"/>
<path d="M295.709 39.3305H221.013V57.995H275.848C286.899 57.995 295.709 66.932 295.709 77.8452V94.1491C295.709 105.194 286.899 113.999 275.848 113.999H202.339V95.3349H277.035V76.6704H222.2C211.149 76.6704 202.339 67.7334 202.339 56.8202V40.5162C202.339 29.4713 211.149 20.666 222.2 20.666H295.709V39.3305Z" fill="white"/>
<path d="M378.929 20.666H305.42V113.988H324.094V76.6594H378.929C389.968 76.6594 398.789 67.7224 398.789 56.8092V40.5162C398.789 29.4713 389.979 20.666 378.929 20.666ZM380.115 57.995H325.28C324.885 57.995 324.489 57.995 324.094 58.0279V39.3415H380.115V57.995Z" fill="white"/>
<path d="M148.216 105.792L123.639 132.186C123.104 132.761 122.459 133.216 121.738 133.528C121.021 133.84 120.243 134.003 119.462 133.999H2.94727C2.3924 133.999 1.8475 133.837 1.38235 133.531C0.917191 133.226 0.55171 132.791 0.3291 132.279C0.106489 131.768 0.0400378 131.203 0.133069 130.655C0.226101 130.107 0.478614 129.596 0.857385 129.191L25.4542 102.796C25.9858 102.225 26.6304 101.767 27.3481 101.455C28.0657 101.143 28.8366 100.98 29.6174 100.98H146.126C146.681 100.98 147.226 101.143 147.691 101.448C148.156 101.754 148.521 102.189 148.744 102.697C148.967 103.208 149.033 103.773 148.94 104.321C148.847 104.869 148.595 105.377 148.216 105.785V105.792ZM123.636 52.6444C123.101 52.0699 122.456 51.6149 121.735 51.3028C121.017 50.9906 120.24 50.8279 119.459 50.8279H2.94727C2.3924 50.8279 1.8475 50.9906 1.38235 51.2961C0.917191 51.6017 0.55171 52.0367 0.3291 52.5448C0.106489 53.0562 0.0400378 53.6208 0.133069 54.1687C0.226101 54.7166 0.478614 55.2247 0.857385 55.6332L25.4542 82.0275C25.9858 82.5987 26.6304 83.057 27.3481 83.3692C28.0657 83.6814 28.8366 83.8441 29.6174 83.8441H146.126C146.681 83.8441 147.226 83.6814 147.691 83.3758C148.156 83.0703 148.521 82.6353 148.744 82.1239C148.967 81.6124 149.033 81.0479 148.94 80.4999C148.847 79.952 148.595 79.4406 148.216 79.0354L123.639 52.6411L123.636 52.6444ZM2.94727 33.6855H119.462C120.247 33.6855 121.021 33.5261 121.738 33.214C122.456 32.9018 123.104 32.4435 123.639 31.8723L148.216 5.47465C148.595 5.06618 148.847 4.55809 148.94 4.01014C149.033 3.4622 148.967 2.89765 148.744 2.38623C148.521 1.87482 148.156 1.43978 147.691 1.13426C147.226 0.828739 146.681 0.666016 146.126 0.666016H29.6207C28.8399 0.666016 28.0657 0.828739 27.3514 1.1409C26.6337 1.45306 25.9925 1.90802 25.4575 2.48254L0.867353 28.8802C0.488582 29.2854 0.236068 29.7968 0.143037 30.3447C0.0500055 30.8927 0.116456 31.4572 0.335745 31.9653C0.555033 32.4767 0.920514 32.9118 1.38567 33.2173C1.85083 33.5228 2.3924 33.6855 2.94727 33.6888V33.6855Z" fill="white"/>
</svg>
