<svg width="428" height="134" viewBox="0 0 428 134" fill="none" xmlns="http://www.w3.org/2000/svg">
<path d="M427.186 113.655H408.512V20.333H427.186V113.655Z" fill="white"/>
<path d="M295.709 38.9975H221.014V57.662H275.849C286.899 57.662 295.709 66.5989 295.709 77.5122V93.8161C295.709 104.861 286.899 113.666 275.849 113.666H202.34V95.0019H277.035V76.3374H222.2C211.15 76.3374 202.34 67.4004 202.34 56.4872V40.1832C202.34 29.1382 211.15 20.333 222.2 20.333H295.709V38.9975Z" fill="white"/>
<path d="M378.929 20.333H305.42V113.655H324.094V76.3264H378.929C389.968 76.3264 398.789 67.3894 398.789 56.4762V40.1832C398.789 29.1382 389.979 20.333 378.929 20.333ZM380.115 57.6619H325.28C324.885 57.6619 324.489 57.6619 324.094 57.6949V39.0085H380.115V57.6619Z" fill="white"/>
<path d="M148.216 105.459L123.639 131.853C123.104 132.428 122.46 132.883 121.739 133.195C121.021 133.507 120.244 133.67 119.463 133.666H2.94776C2.39289 133.666 1.84799 133.504 1.38284 133.198C0.917679 132.893 0.552199 132.458 0.329588 131.946C0.106977 131.435 0.0405261 130.87 0.133557 130.322C0.226589 129.774 0.479103 129.263 0.857873 128.858L25.4547 102.463C25.9863 101.892 26.6309 101.434 27.3486 101.122C28.0662 100.81 28.8371 100.647 29.6179 100.647H146.126C146.681 100.647 147.226 100.81 147.691 101.115C148.156 101.421 148.522 101.856 148.745 102.364C148.967 102.875 149.034 103.44 148.941 103.988C148.848 104.536 148.595 105.044 148.216 105.452V105.459ZM123.636 52.3114C123.101 51.7369 122.457 51.2819 121.736 50.9698C121.018 50.6576 120.24 50.4949 119.46 50.4949H2.94776C2.39289 50.4949 1.84799 50.6576 1.38284 50.9631C0.917679 51.2686 0.552199 51.7037 0.329588 52.2118C0.106977 52.7232 0.0405261 53.2877 0.133557 53.8357C0.226589 54.3836 0.479103 54.8917 0.857873 55.3002L25.4547 81.6945C25.9863 82.2657 26.6309 82.724 27.3486 83.0362C28.0662 83.3483 28.8371 83.5111 29.6179 83.5111H146.126C146.681 83.5111 147.226 83.3483 147.691 83.0428C148.156 82.7373 148.522 82.3023 148.745 81.7908C148.967 81.2794 149.034 80.7149 148.941 80.1669C148.848 79.619 148.595 79.1076 148.216 78.7024L123.639 52.3081L123.636 52.3114ZM2.94776 33.3525H119.463C120.247 33.3525 121.021 33.1931 121.739 32.8809C122.457 32.5688 123.104 32.1105 123.639 31.5393L148.216 5.14164C148.595 4.73317 148.848 4.22508 148.941 3.67713C149.034 3.12919 148.967 2.56464 148.745 2.05322C148.522 1.54181 148.156 1.10677 147.691 0.801252C147.226 0.495731 146.681 0.333008 146.126 0.333008H29.6212C28.8404 0.333008 28.0662 0.495731 27.3519 0.807893C26.6342 1.12006 25.993 1.57502 25.458 2.14953L0.867841 28.5472C0.48907 28.9523 0.236557 29.4638 0.143525 30.0117C0.0504938 30.5597 0.116945 31.1242 0.336233 31.6323C0.555521 32.1437 0.921002 32.5787 1.38616 32.8843C1.85132 33.1898 2.39289 33.3525 2.94776 33.3558V33.3525Z" fill="url(#paint0_linear_58_8495)"/>
<defs>
<linearGradient id="paint0_linear_58_8495" x1="2.41856" y1="148.444" x2="144.543" y2="-13.0214" gradientUnits="userSpaceOnUse">
<stop stop-color="#005F6A"/>
<stop offset="0.15" stop-color="#037A72"/>
<stop offset="0.3" stop-color="#07957A"/>
<stop offset="0.45" stop-color="#0AAE81"/>
<stop offset="0.6" stop-color="#0EC688"/>
<stop offset="0.745" stop-color="#11DB8E"/>
<stop offset="0.9" stop-color="#14F195"/>
</linearGradient>
</defs>
</svg>
