<svg width="224" height="200" viewBox="0 0 224 200" fill="none" xmlns="http://www.w3.org/2000/svg">
<path d="M222.454 157.689L185.608 197.28C184.806 198.142 183.839 198.824 182.758 199.293C181.682 199.761 180.517 200.005 179.346 200H4.66118C3.8293 200 3.01236 199.756 2.31498 199.298C1.6176 198.839 1.06965 198.187 0.735902 197.42C0.402154 196.652 0.302528 195.806 0.442005 194.984C0.581482 194.162 0.960062 193.395 1.52793 192.787L38.4046 153.195C39.2016 152.339 40.168 151.651 41.244 151.183C42.3199 150.715 43.4756 150.471 44.6462 150.471H219.321C220.153 150.471 220.97 150.715 221.667 151.173C222.365 151.631 222.913 152.284 223.246 153.046C223.58 153.813 223.68 154.66 223.54 155.482C223.401 156.304 223.022 157.066 222.454 157.679V157.689ZM185.603 77.9676C184.801 77.1058 183.834 76.4234 182.753 75.9551C181.677 75.4869 180.512 75.2428 179.341 75.2428H4.66118C3.8293 75.2428 3.01236 75.4869 2.31498 75.9452C1.6176 76.4035 1.06965 77.056 0.735902 77.8182C0.402154 78.5853 0.302528 79.4321 0.442005 80.254C0.581482 81.0759 0.960062 81.8381 1.52793 82.4508L38.4046 122.042C39.2016 122.899 40.168 123.587 41.244 124.055C42.3199 124.523 43.4756 124.767 44.6462 124.767H219.321C220.153 124.767 220.97 124.523 221.667 124.065C222.365 123.606 222.913 122.954 223.246 122.187C223.58 121.42 223.68 120.573 223.54 119.751C223.401 118.929 223.022 118.162 222.454 117.554L185.608 77.9626L185.603 77.9676ZM4.66118 49.5292H179.346C180.522 49.5292 181.682 49.2901 182.758 48.8219C183.834 48.3537 184.806 47.6662 185.608 46.8094L222.454 7.21295C223.022 6.60025 223.401 5.83811 223.54 5.01619C223.68 4.19427 223.58 3.34745 223.246 2.58032C222.913 1.8132 222.365 1.16065 221.667 0.702366C220.97 0.244085 220.153 0 219.321 0H44.6512C43.4806 0 42.3199 0.244085 41.249 0.712328C40.173 1.18057 39.2116 1.86301 38.4096 2.72478L1.54288 42.3213C0.975006 42.929 0.596426 43.6961 0.456949 44.518C0.317472 45.34 0.417098 46.1868 0.745865 46.9489C1.07463 47.716 1.62258 48.3686 2.31996 48.8269C3.01735 49.2852 3.8293 49.5293 4.66118 49.5342V49.5292Z" fill="white"/>
</svg>
