<svg width="500" height="500" viewBox="0 0 500 500" fill="none" xmlns="http://www.w3.org/2000/svg">
<rect width="500" height="500" fill="#14F195"/>
<path d="M362.074 307.689L325.227 347.28C324.425 348.142 323.458 348.824 322.377 349.293C321.301 349.761 320.136 350.005 318.965 350H144.28C143.448 350 142.632 349.756 141.934 349.298C141.237 348.839 140.689 348.187 140.355 347.42C140.021 346.652 139.922 345.806 140.061 344.984C140.201 344.162 140.579 343.395 141.147 342.787L178.024 303.195C178.821 302.339 179.787 301.651 180.863 301.183C181.939 300.715 183.095 300.471 184.265 300.471H358.94C359.772 300.471 360.589 300.715 361.286 301.173C361.984 301.631 362.532 302.284 362.866 303.046C363.199 303.813 363.299 304.66 363.159 305.482C363.02 306.304 362.641 307.066 362.074 307.679V307.689ZM325.222 227.968C324.42 227.106 323.453 226.423 322.372 225.955C321.296 225.487 320.131 225.243 318.96 225.243H144.28C143.448 225.243 142.632 225.487 141.934 225.945C141.237 226.403 140.689 227.056 140.355 227.818C140.021 228.585 139.922 229.432 140.061 230.254C140.201 231.076 140.579 231.838 141.147 232.451L178.024 272.042C178.821 272.899 179.787 273.587 180.863 274.055C181.939 274.523 183.095 274.767 184.265 274.767H358.94C359.772 274.767 360.589 274.523 361.286 274.065C361.984 273.606 362.532 272.954 362.866 272.187C363.199 271.42 363.299 270.573 363.159 269.751C363.02 268.929 362.641 268.162 362.074 267.554L325.227 227.963L325.222 227.968ZM144.28 199.529H318.965C320.141 199.529 321.301 199.29 322.377 198.822C323.453 198.354 324.425 197.666 325.227 196.809L362.074 157.213C362.641 156.6 363.02 155.838 363.159 155.016C363.299 154.194 363.199 153.347 362.866 152.58C362.532 151.813 361.984 151.161 361.286 150.702C360.589 150.244 359.772 150 358.94 150H184.27C183.1 150 181.939 150.244 180.868 150.712C179.792 151.181 178.831 151.863 178.029 152.725L141.162 192.321C140.594 192.929 140.216 193.696 140.076 194.518C139.937 195.34 140.036 196.187 140.365 196.949C140.694 197.716 141.242 198.369 141.939 198.827C142.636 199.285 143.448 199.529 144.28 199.534V199.529Z" fill="black"/>
</svg>
