<svg width="225" height="200" viewBox="0 0 225 200" fill="none" xmlns="http://www.w3.org/2000/svg">
<path d="M223.013 157.689L186.166 197.28C185.364 198.142 184.398 198.824 183.317 199.293C182.241 199.761 181.075 200.005 179.905 200H5.21978C4.3879 200 3.57096 199.756 2.87357 199.298C2.17619 198.839 1.62824 198.187 1.2945 197.42C0.960748 196.652 0.861122 195.806 1.0006 194.984C1.14008 194.162 1.51866 193.395 2.08653 192.787L38.9632 153.195C39.7602 152.339 40.7266 151.651 41.8026 151.183C42.8785 150.715 44.0342 150.471 45.2048 150.471H219.88C220.712 150.471 221.529 150.715 222.226 151.173C222.923 151.631 223.471 152.284 223.805 153.046C224.139 153.813 224.238 154.66 224.099 155.482C223.959 156.304 223.581 157.066 223.013 157.679V157.689ZM186.161 77.9676C185.359 77.1058 184.393 76.4234 183.312 75.9551C182.236 75.4869 181.07 75.2428 179.9 75.2428H5.21978C4.3879 75.2428 3.57096 75.4869 2.87357 75.9452C2.17619 76.4035 1.62824 77.056 1.2945 77.8182C0.960748 78.5853 0.861122 79.4321 1.0006 80.254C1.14008 81.0759 1.51866 81.8381 2.08653 82.4508L38.9632 122.042C39.7602 122.899 40.7266 123.587 41.8026 124.055C42.8785 124.523 44.0342 124.767 45.2048 124.767H219.88C220.712 124.767 221.529 124.523 222.226 124.065C222.923 123.606 223.471 122.954 223.805 122.187C224.139 121.42 224.238 120.573 224.099 119.751C223.959 118.929 223.581 118.162 223.013 117.554L186.166 77.9626L186.161 77.9676ZM5.21978 49.5292H179.905C181.08 49.5292 182.241 49.2901 183.317 48.8219C184.393 48.3537 185.364 47.6662 186.166 46.8094L223.013 7.21295C223.581 6.60025 223.959 5.83811 224.099 5.01619C224.238 4.19427 224.139 3.34745 223.805 2.58032C223.471 1.8132 222.923 1.16065 222.226 0.702366C221.529 0.244085 220.712 0 219.88 0H45.2098C44.0392 0 42.8785 0.244085 41.8076 0.712328C40.7316 1.18057 39.7702 1.86301 38.9682 2.72478L2.10147 42.3213C1.5336 42.929 1.15502 43.6961 1.01554 44.518C0.876065 45.34 0.975692 46.1868 1.30446 46.9489C1.63323 47.716 2.18117 48.3686 2.87856 48.8269C3.57594 49.2852 4.3879 49.5292 5.21978 49.5342V49.5292Z" fill="url(#paint0_linear_58_8516)"/>
<defs>
<linearGradient id="paint0_linear_58_8516" x1="4.42639" y1="222.167" x2="217.627" y2="-19.9253" gradientUnits="userSpaceOnUse">
<stop stop-color="#005F6A"/>
<stop offset="0.15" stop-color="#037A72"/>
<stop offset="0.3" stop-color="#07957A"/>
<stop offset="0.45" stop-color="#0AAE81"/>
<stop offset="0.6" stop-color="#0EC688"/>
<stop offset="0.745" stop-color="#11DB8E"/>
<stop offset="0.9" stop-color="#14F195"/>
</linearGradient>
</defs>
</svg>
