<svg width="224" height="200" viewBox="0 0 224 200" fill="none" xmlns="http://www.w3.org/2000/svg">
<path d="M222.234 157.689L185.387 197.28C184.585 198.142 183.618 198.824 182.538 199.293C181.462 199.761 180.296 200.005 179.125 200H4.44048C3.6086 200 2.79166 199.756 2.09428 199.298C1.39689 198.839 0.848948 198.187 0.515199 197.42C0.181451 196.652 0.0818247 195.806 0.221302 194.984C0.360778 194.162 0.739359 193.395 1.30723 192.787L38.1839 153.195C38.9809 152.339 39.9473 151.651 41.0233 151.183C42.0992 150.715 43.2549 150.471 44.4255 150.471H219.1C219.932 150.471 220.749 150.715 221.447 151.173C222.144 151.631 222.692 152.284 223.026 153.046C223.359 153.813 223.459 154.66 223.32 155.482C223.18 156.304 222.802 157.066 222.234 157.679V157.689ZM185.382 77.9676C184.58 77.1058 183.613 76.4234 182.533 75.9551C181.457 75.4869 180.291 75.2428 179.12 75.2428H4.44048C3.6086 75.2428 2.79166 75.4869 2.09428 75.9452C1.39689 76.4035 0.848948 77.056 0.515199 77.8182C0.181451 78.5853 0.0818247 79.4321 0.221302 80.254C0.360778 81.0759 0.739359 81.8381 1.30723 82.4508L38.1839 122.042C38.9809 122.899 39.9473 123.587 41.0233 124.055C42.0992 124.523 43.2549 124.767 44.4255 124.767H219.1C219.932 124.767 220.749 124.523 221.447 124.065C222.144 123.606 222.692 122.954 223.026 122.187C223.359 121.42 223.459 120.573 223.32 119.751C223.18 118.929 222.802 118.162 222.234 117.554L185.387 77.9626L185.382 77.9676ZM4.44048 49.5292H179.125C180.301 49.5292 181.462 49.2901 182.538 48.8219C183.613 48.3537 184.585 47.6662 185.387 46.8094L222.234 7.21295C222.802 6.60025 223.18 5.83811 223.32 5.01619C223.459 4.19427 223.359 3.34745 223.026 2.58032C222.692 1.8132 222.144 1.16065 221.447 0.702366C220.749 0.244085 219.932 0 219.1 0H44.4305C43.2599 0 42.0992 0.244085 41.0283 0.712328C39.9523 1.18057 38.9909 1.86301 38.1889 2.72478L1.32217 42.3213C0.754303 42.929 0.375722 43.6961 0.236246 44.518C0.0967686 45.34 0.196395 46.1868 0.525162 46.9489C0.853929 47.716 1.40187 48.3686 2.09926 48.8269C2.79664 49.2852 3.6086 49.5293 4.44048 49.5342V49.5292Z" fill="black"/>
</svg>
