<svg xmlns="http://www.w3.org/2000/svg" width="226" height="49" fill="none" viewBox="0 0 226 49"><path fill="#fff" d="M48.849 37.49q-1.467 0-2.69-.205-1.184-.202-1.998-.856-.776-.652-1.101-1.916-.327-1.304 0-3.506l2.527-18.1h4.73l-2.732 19.446q-.122.855.082 1.386.204.489.611.652t.938.163.978-.163q.489-.163.816-.652.366-.531.448-1.386l2.731-19.446h4.73l-2.528 18.1q-.285 2.16-.979 3.465-.651 1.305-1.63 1.957-.98.652-2.242.856a17 17 0 0 1-2.691.204M58.887 37l3.424-24.093h4.118L69.364 27.5l2.08-14.594H75.6L72.177 37h-4.118l-3.057-13.616L63.045 37zm23.203.49q-2.04 0-3.506-.49-1.468-.449-2.12-1.916-.653-1.509-.245-4.444l1.794-12.637q.326-2.16 1.345-3.343 1.02-1.183 2.65-1.631 1.631-.49 3.628-.49 2.039 0 3.425.49 1.427.489 2.079 1.671.693 1.183.367 3.303l-.693 4.973h-4.73l.694-5.177q.163-.98-.04-1.468-.164-.53-.572-.693a2.6 2.6 0 0 0-.978-.163q-.57 0-1.02.163-.447.164-.774.693-.285.489-.448 1.468l-2.039 14.594q-.121.938.041 1.468.164.489.57.693.409.163.98.163.57 0 1.018-.163.45-.204.775-.693.367-.53.449-1.468l.693-4.77h4.729l-.449 2.977q-.407 2.976-1.427 4.484-1.02 1.467-2.568 1.916-1.55.49-3.628.49m9.76-.49 3.425-24.093h4.688l-2.935 20.832h5.463L102.002 37zm10.634 0 7.705-24.093h6.808L117.813 37h-5.3l-.082-4.444h-3.506L107.58 37zm6.808-6.808h3.384l.204-13.086zM120.077 37l3.425-24.093h4.729L124.806 37zm8.202 0 3.424-24.093h5.911l1.101 15.573 5.544-15.573h5.871L146.705 37h-4.158l2.528-18.02L139.082 37h-3.221l-.897-18.02L132.437 37zm21.896 0 3.424-24.093h11.089l-.489 3.343h-6.156l-.897 6.44h5.218l-.53 3.71h-5.218l-1.019 7.339h6.156L161.264 37zm13.655 0 3.425-24.093h8.439q1.711 0 2.731.489 1.06.49 1.468 1.508.448.978.203 2.487l-2.038 14.432q-.245 1.997-1.141 3.139a4.46 4.46 0 0 1-2.202 1.59q-1.346.447-3.098.448zm5.3-2.446h2.079q.816 0 1.345-.49.53-.488.734-1.834l1.998-14.309q.204-1.345-.204-1.834-.407-.49-1.223-.49h-2.079z"/><path fill="url(#a)" d="M187.849 37.285q-2.447 0-3.995-.611-1.55-.612-2.12-2.16-.572-1.55-.204-4.363l.204-1.427h4.933l-.245 1.835q-.204 1.508-.082 2.323.123.776.53 1.101.449.285 1.06.286.897 0 1.509-.653.652-.693.937-2.65.246-1.508-.163-2.242-.366-.774-1.304-1.223a48 48 0 0 0-2.487-1.182q-1.345-.612-2.161-1.468-.774-.855-1.06-2.16-.245-1.305 0-3.18.327-2.364 1.183-3.832a4.93 4.93 0 0 1 2.405-2.12q1.59-.693 4.117-.693 3.303 0 4.811 1.427 1.55 1.385 1.141 4.199l-.407 2.894h-4.729l.244-1.467q.245-1.835-.081-2.569-.327-.734-1.427-.734t-1.631.653q-.488.652-.734 2.12-.162 1.223.204 1.956.367.735 1.101 1.183a19 19 0 0 0 1.916.856q1.713.693 2.731 1.427 1.06.693 1.387 1.956.367 1.224.04 3.547-.366 2.61-1.467 4.158-1.101 1.509-2.691 2.161t-3.465.652m15.843.204q-2.039 0-3.506-.489-1.467-.449-2.12-1.916-.652-1.509-.244-4.444l1.793-12.637q.327-2.16 1.346-3.343t2.649-1.631q1.631-.49 3.629-.49 2.038 0 3.506.49 1.508.489 2.201 1.671.734 1.183.449 3.303L211.601 30.6q-.408 2.976-1.509 4.484-1.1 1.467-2.731 1.916-1.59.49-3.669.49m.408-2.772q.57 0 1.1-.163.531-.204.897-.693.408-.53.53-1.468l2.039-14.594q.163-.98-.123-1.468-.244-.53-.734-.693a3 3 0 0 0-1.019-.163q-.57 0-1.1.163-.531.164-.897.693-.368.489-.53 1.468l-2.039 14.594q-.121.938.123 1.468.245.489.693.693a3.3 3.3 0 0 0 1.06.163M213.851 37l3.425-24.093h4.688l-2.935 20.832h5.463l-.49 3.261z"/><rect width="34" height="34" y="7" fill="url(#b)" rx="17"/><path fill="#000" d="M23.082 31.67H7l4.124-4.123h16.082zm4.124-5.774H11.124L7 21.774h16.082zm-4.124-5.772H7L11.124 16h16.082z"/><defs><linearGradient id="a" x1="203.5" x2="203.5" y1="0" y2="49" gradientUnits="userSpaceOnUse"><stop stop-color="#3bd9b1"/><stop offset="1" stop-color="#00ff84"/></linearGradient><linearGradient id="b" x1="17" x2="17" y1="7" y2="41" gradientUnits="userSpaceOnUse"><stop stop-color="#3bd9b1"/><stop offset="1" stop-color="#00ff84"/></linearGradient></defs></svg>