<svg preserveAspectRatio="none" width="100%" height="100%" overflow="visible" style="display: block;" viewBox="0 0 148.718 36" fill="none" xmlns="http://www.w3.org/2000/svg">
<g id="LHwhite_new 1">
<g id="Group">
<path id="Vector" fill-rule="evenodd" clip-rule="evenodd" d="M7.10791 8.91256L4.89432 17.1844V20.9126L5.70985 24.7572L6.29238 26.7961L9.205 28.2524L15.3798 28.9514C15.3798 28.9514 21.3215 25.5728 21.5545 25.4562C21.7293 25.3397 27.438 20.6213 27.438 20.6213L28.8943 16.4271V11.0679L26.9137 8.03877L24.7584 6.58246H13.7487L7.10791 8.91256Z" fill="var(--fill-0, black)"/>
<path id="Vector_2" fill-rule="evenodd" clip-rule="evenodd" d="M17.2427 3.26172C25.3981 3.26172 31.9806 9.84424 31.9806 17.9996C31.9806 26.1549 25.3981 32.7374 17.2427 32.7374C9.08741 32.7374 2.50488 26.1549 2.50488 17.9996C2.50488 9.84424 9.14566 3.26172 17.2427 3.26172ZM18.0583 10.7763H16.8932V11.9413H15.7282V22.4268H16.8932V23.5918H18.0583V22.4268H19.2233V11.9413H18.0583V10.7763ZM20.2136 16.6015H19.8059V17.7666H21.5534V20.0967H22.136V17.7666H23.301V16.6015H21.5534V14.2714H22.136V16.6015H20.2136ZM24.1165 9.61123H23.8835V20.0967H25.0486V21.2617H25.6311V20.0967H26.7961V9.61123H25.6311V8.44618H25.0486V9.61123H24.1165ZM7.57284 16.019V26.5044H8.73789V27.6695H9.32042V26.5044H10.4855V16.019H9.32042V14.854H8.73789V16.019H7.57284ZM11.8835 23.0093H11.6505V25.9219H12.8156V27.087H13.3981V25.9219H14.5631V23.0093H13.3981V21.8442H12.8156V23.0093H11.8835Z" fill="var(--fill-0, white)"/>
</g>
<path id="Vector_3" fill-rule="evenodd" clip-rule="evenodd" d="M37.9812 23.1261C37.9812 24.0581 38.389 24.4659 39.321 24.4659H45.321C46.2531 24.4659 46.6609 24.0581 46.6609 23.1261V20.6212H43.7482V21.3202C43.7482 21.5533 43.6317 21.728 43.3405 21.728H41.6511C41.4181 21.728 41.2434 21.6115 41.2434 21.3202V12.8154C41.2434 11.8834 40.8356 11.4756 39.9036 11.4756H36.8162V14.2134H37.5735C37.8065 14.2134 37.9812 14.33 37.9812 14.6212V23.1261ZM48.5249 14.0387H51.1463V11.4756H48.5249V14.0387ZM48.2919 23.1261C48.2919 24.0581 48.6997 24.4659 49.6317 24.4659H52.5443V21.7863H51.8453C51.6123 21.7863 51.4376 21.6698 51.4376 21.3785V16.427C51.4376 15.495 51.0298 15.0872 50.0977 15.0872H47.1851V17.7086H47.8842C48.1172 17.7086 48.2919 17.8251 48.2919 18.1164V23.1261ZM53.3016 22.9513C53.3016 22.9513 54.7579 24.6406 57.4375 24.6406C60.1172 24.6406 61.2822 23.4756 61.2822 21.6115C61.2822 18.4659 56.5638 18.5824 56.5638 17.6503C56.5638 16.7183 56.9715 17.2426 57.3793 17.2426C57.7871 17.2426 58.2531 17.4173 58.2531 17.6503V18.1164H60.9909V17.0096C60.9909 15.3202 58.8939 14.9125 57.3793 14.9125C55.8647 14.9125 53.5346 15.7863 53.5346 17.7668C53.5346 20.796 58.1948 21.029 58.1948 21.8445C58.1948 22.6601 57.9618 22.3105 57.4958 22.3105C56.0395 22.3105 54.7579 20.9707 54.7579 20.9707L53.3016 22.9513ZM63.2045 20.9707C63.2045 24.1164 66.0589 24.5241 67.5735 24.5241C69.088 24.5241 68.4473 24.5241 68.4473 24.5241V21.7863H68.0395C67.457 21.7863 66.3502 21.6698 66.3502 20.563V17.5338H68.3308V15.0872H66.3502V12.5824H63.321V15.0872H62.0395V17.5338H63.2628V21.029H63.2045V20.9707ZM70.7191 14.0387H73.3405V11.4756H70.7191V14.0387ZM70.4861 23.1261C70.4861 24.0581 70.8939 24.4659 71.8259 24.4659H74.7385V21.7863H73.9812C73.7482 21.7863 73.5735 21.6698 73.5735 21.3785V16.427C73.5735 15.495 73.1657 15.0872 72.2337 15.0872H69.321V17.7086H70.0201C70.2531 17.7086 70.4278 17.8251 70.4278 18.1164V23.1261H70.4861ZM76.5443 24.4076H79.69V20.2717C79.69 19.8057 79.7482 19.3979 79.8647 19.0484C80.156 18.2329 80.7385 17.7086 81.7288 17.7086C82.7191 17.7086 82.7774 18.0581 82.7774 18.9319V23.0678C82.7774 23.9999 83.1851 24.4076 84.1172 24.4076H87.0298V21.7863H86.3308C86.0977 21.7863 85.923 21.6698 85.923 21.3785V18.3494C85.923 15.728 84.4667 14.8542 82.5443 14.8542C80.622 14.8542 80.0395 15.728 79.5735 16.4853H79.5152V16.1358C79.5152 15.495 79.0492 15.0872 78.2337 15.0872H75.4376V17.7086H76.1366C76.3696 17.7086 76.5443 17.8251 76.5443 18.1164V24.4076ZM87.6706 19.4562C87.6706 21.8445 89.0686 24.1746 91.8647 24.1746C94.6608 24.1746 93.6706 23.8834 94.1948 23.3008H94.2531V23.7668C94.2531 25.1649 93.2045 25.5727 92.0977 25.5727C90.991 25.5727 89.4764 24.9902 89.4764 24.9902L88.5443 27.4368C89.4764 27.9028 90.8162 28.2523 92.0977 28.2523C94.6609 28.2523 97.3405 27.029 97.3405 23.5921V18.1164C97.3405 17.8834 97.5152 17.7668 97.7482 17.7668H98.389V15.1455H95.5346C94.8356 15.1455 94.5443 15.6115 94.5443 15.9028H94.4861C94.4861 15.9028 93.6706 14.796 91.8065 14.796C89.0686 14.8542 87.6706 17.0678 87.6706 19.3979M92.622 21.5533C91.3987 21.5533 90.8162 20.5047 90.8162 19.3397C90.8162 18.1746 91.3987 17.4756 92.5055 17.4756C93.6123 17.4756 94.3113 17.8251 94.3113 19.5144C94.3113 21.2037 93.4376 21.5533 92.622 21.5533ZM100.078 24.4076H102.933V21.4368H100.078V24.4076ZM105.612 24.4076H108.874V19.3397H113.243V24.4076H116.506V14.6212C116.506 14.3882 116.622 14.2134 116.913 14.2134H117.671V11.4756H114.583C113.651 11.4756 113.243 11.8834 113.243 12.8154V16.6601H108.874V12.8154C108.874 11.8834 108.467 11.4756 107.535 11.4756H104.447V14.2134H105.205C105.438 14.2134 105.612 14.33 105.612 14.6212V24.4076ZM118.486 19.7474C118.486 22.2523 120.292 24.6406 123.612 24.6406C126.933 24.6406 127.573 23.1843 127.573 23.1843L126.35 21.0872C126.35 21.0872 125.185 22.0775 123.845 22.0775C122.506 22.0775 121.923 21.5533 121.69 20.3882H127.573C127.573 20.3882 127.632 19.7474 127.632 19.4562C127.632 16.8931 126.059 14.9707 123.321 14.9707C120.35 14.9125 118.486 17.0096 118.486 19.7474ZM121.806 18.4076C121.981 17.7086 122.447 17.1843 123.379 17.1843C124.311 17.1843 124.486 17.8251 124.486 18.4076H121.806ZM129.612 23.1261C129.612 24.0581 130.02 24.4659 130.952 24.4659H133.865V21.7863H133.166C132.933 21.7863 132.758 21.6698 132.758 21.3785V12.8154C132.758 11.8834 132.35 11.4756 131.418 11.4756H128.506V14.0969H129.205C129.438 14.0969 129.612 14.2134 129.612 14.5047V23.1261ZM135.671 28.0775H138.816V24.6989C138.816 24.2329 138.758 23.8834 138.758 23.8834H138.816C138.816 23.8834 139.69 24.6989 141.205 24.6989C143.709 24.6989 145.573 22.7766 145.573 19.8057C145.573 16.8348 143.884 14.9125 141.379 14.9125C138.874 14.9125 138.583 16.1358 138.583 16.1358H138.525V15.961C138.525 15.5533 138.234 15.1455 137.302 15.1455H134.564V17.7086H135.263C135.496 17.7086 135.671 17.8251 135.671 18.1164V28.0775ZM138.7 19.8057C138.7 18.1746 139.573 17.5338 140.506 17.5338C141.438 17.5338 142.311 18.4659 142.311 19.8057C142.311 21.1455 141.438 22.0193 140.506 22.0193C139.282 22.0775 138.7 20.9707 138.7 19.8057Z" fill="var(--fill-0, white)"/>
</g>
</svg>
