<svg viewBox="0 0 500 350" xmlns="http://www.w3.org/2000/svg">
  <rect width="500" height="350" fill="white"/>
  
  <!-- Title -->
  <text x="250" y="25" text-anchor="middle" font-family="Arial, sans-serif" font-size="20" font-weight="bold">Uniswap v3</text>
  <text x="250" y="45" text-anchor="middle" font-family="Arial, sans-serif" font-size="14">(Concentrated Liquidity)</text>
  
  <!-- Y-axis -->
  <line x1="60" y1="60" x2="60" y2="280" stroke="black" stroke-width="2"/>
  <text x="25" y="170" text-anchor="middle" font-family="Arial, sans-serif" font-size="14" transform="rotate(-90, 25, 170)">Liquidity</text>
  
  <!-- X-axis -->
  <line x1="60" y1="280" x2="460" y2="280" stroke="black" stroke-width="2"/>
  <text x="450" y="300" text-anchor="middle" font-family="Arial, sans-serif" font-size="12">Price</text>
  
  <!-- Bell curve bars (blue, varying heights) -->
  <g fill="#87CEEB" stroke="#4A90D9" stroke-width="1">
    <rect x="70" y="265" width="20" height="15"/>
    <rect x="90" y="258" width="20" height="22"/>
    <rect x="110" y="248" width="20" height="32"/>
    <rect x="130" y="235" width="20" height="45"/>
    <rect x="150" y="218" width="20" height="62"/>
    <rect x="170" y="198" width="20" height="82"/>
    <rect x="190" y="175" width="20" height="105"/>
    <rect x="210" y="148" width="20" height="132"/>
    <!-- Active liquidity (green) - peak area -->
    <rect x="230" y="118" width="20" height="162" fill="#90EE90" stroke="#228B22"/>
    <rect x="250" y="100" width="20" height="180" fill="#90EE90" stroke="#228B22"/>
    <rect x="270" y="108" width="20" height="172" fill="#90EE90" stroke="#228B22"/>
    <rect x="290" y="128" width="20" height="152" fill="#90EE90" stroke="#228B22"/>
    <!-- Continue blue bars (descending) -->
    <rect x="310" y="155" width="20" height="125"/>
    <rect x="330" y="180" width="20" height="100"/>
    <rect x="350" y="202" width="20" height="78"/>
    <rect x="370" y="222" width="20" height="58"/>
    <rect x="390" y="240" width="20" height="40"/>
    <rect x="410" y="252" width="20" height="28"/>
    <rect x="430" y="262" width="20" height="18"/>
  </g>
  
  <!-- Bell curve line -->
  <path d="M 80 265 Q 120 260 160 240 Q 200 200 240 130 Q 260 100 280 110 Q 320 140 360 200 Q 400 250 440 268" 
        fill="none" stroke="#333" stroke-width="2"/>
  
  <!-- Price range markers -->
  <line x1="230" y1="280" x2="230" y2="295" stroke="#228B22" stroke-width="1" stroke-dasharray="4,2"/>
  <text x="230" y="310" text-anchor="middle" font-family="Arial, sans-serif" font-size="12">pa</text>
  
  <line x1="310" y1="280" x2="310" y2="295" stroke="#228B22" stroke-width="1" stroke-dasharray="4,2"/>
  <text x="310" y="310" text-anchor="middle" font-family="Arial, sans-serif" font-size="12">pb</text>
  
  <!-- Dot on curve -->
  <circle cx="290" cy="128" r="4" fill="#4A90D9"/>
  
  <!-- Label for curve -->
  <text x="380" y="95" font-family="Arial, sans-serif" font-size="11" font-style="italic">Frequency Distribution Curve</text>
  <text x="435" y="110" font-family="Arial, sans-serif" font-size="13" font-style="italic">L̂(p)</text>
  <path d="M 355 100 Q 330 115 295 125" fill="none" stroke="black" stroke-width="1"/>
</svg>