<svg width="68" height="32" viewBox="0 0 68 32" fill="none" xmlns="http://www.w3.org/2000/svg">
<path d="M1.68573 30.0289C0.751471 30.0289 0 29.457 0 28.5276C0 27.5778 0.751471 27.1285 1.6248 26.9957L2.67077 26.8322C3.0465 26.771 3.16836 26.6382 3.16836 26.342C3.16836 25.8008 2.752 25.4842 2.18332 25.4842C1.43186 25.4842 1.04596 25.8824 1.02565 26.4953H0.152325C0.18279 25.5965 0.883486 24.7897 2.11224 24.7897C3.33084 24.7897 4.02138 25.5148 4.02138 26.6484V29.8757H3.18866V29.6306V29.2119C2.94495 29.7225 2.41689 30.0289 1.68573 30.0289ZM1.80759 29.3447C2.58953 29.3447 3.16836 28.8136 3.16836 28.017V27.2918C3.10743 27.3838 2.92463 27.4552 2.63014 27.5063L1.91929 27.6391C1.34046 27.7514 0.903798 28.0068 0.903798 28.5276C0.903798 29.0382 1.30999 29.3447 1.80759 29.3447Z" fill="white"/>
<path d="M32.262 30.0289C30.9317 30.0289 29.835 29.1506 29.835 27.4042C29.835 25.8519 30.9114 24.7897 32.3026 24.7897C33.4603 24.7897 34.3336 25.4943 34.4352 26.6076H33.5314C33.4501 25.9642 33.0134 25.4842 32.2823 25.4842C31.3481 25.4842 30.7387 26.3115 30.7387 27.4042C30.7387 28.5787 31.3582 29.3447 32.3026 29.3447C33.0236 29.3447 33.511 28.9259 33.6025 28.2212H34.4656C34.3743 29.2935 33.6025 30.0289 32.262 30.0289ZM37.27 30.0289C35.8584 30.0289 34.8632 28.9769 34.8632 27.4042C34.8632 25.8722 35.8584 24.7897 37.27 24.7897C38.6714 24.7897 39.6767 25.8722 39.6767 27.4042C39.6767 28.9769 38.6714 30.0289 37.27 30.0289ZM37.27 29.3447C38.2042 29.3447 38.7729 28.5582 38.7729 27.4042C38.7729 26.2501 38.1839 25.4842 37.27 25.4842C36.356 25.4842 35.7671 26.2501 35.7671 27.4042C35.7671 28.5582 36.3357 29.3447 37.27 29.3447ZM40.4543 29.8757V24.9531H41.3276V25.3412V25.6169C41.6221 25.1369 42.1197 24.7897 42.7595 24.7897C43.3993 24.7897 43.9476 25.1063 44.232 25.7599C44.567 25.188 45.1255 24.7897 45.8263 24.7897C46.8114 24.7897 47.5425 25.4127 47.5425 26.7607V29.8757H46.6692V26.9344C46.6692 26.005 46.3949 25.4842 45.6435 25.4842C44.8717 25.4842 44.435 26.1582 44.435 26.9447V29.8757H43.5617V26.965C43.5617 26.0254 43.2774 25.4842 42.5564 25.4842C41.7947 25.4842 41.3276 26.1685 41.3276 26.9855V29.8757H40.4543ZM48.5767 32V24.9531H49.45V25.3105V25.6271C49.7242 25.188 50.3335 24.7897 51.0647 24.7897C52.4762 24.7897 53.3191 25.9029 53.3191 27.4042C53.3191 28.9668 52.3949 30.0289 51.0444 30.0289C50.3437 30.0289 49.7648 29.6919 49.45 29.1914V29.6V32H48.5767ZM50.9123 29.3447C51.8162 29.3447 52.4051 28.548 52.4051 27.4042C52.4051 26.2705 51.8162 25.4842 50.9123 25.4842C50.0289 25.4842 49.3992 26.2297 49.3992 27.4042C49.3992 28.5582 50.0187 29.3447 50.9123 29.3447ZM55.492 30.0289C54.5578 30.0289 53.8063 29.457 53.8063 28.5276C53.8063 27.5778 54.5578 27.1285 55.4311 26.9957L56.4771 26.8322C56.8529 26.771 56.9747 26.6382 56.9747 26.342C56.9747 25.8008 56.5583 25.4842 55.9897 25.4842C55.2382 25.4842 54.8524 25.8824 54.832 26.4953H53.9587C53.9891 25.5965 54.6898 24.7897 55.9186 24.7897C57.1372 24.7897 57.8277 25.5148 57.8277 26.6484V29.8757H56.9951V29.6306V29.2119C56.7513 29.7225 56.2233 30.0289 55.492 30.0289ZM55.614 29.3447C56.3959 29.3447 56.9747 28.8136 56.9747 28.017V27.2918C56.9138 27.3838 56.731 27.4552 56.4365 27.5063L55.7257 27.6391C55.1468 27.7514 54.7102 28.0068 54.7102 28.5276C54.7102 29.0382 55.1163 29.3447 55.614 29.3447ZM58.8614 29.8757V24.9531H59.7246V25.2902V25.6169C59.9886 25.188 60.5776 24.7897 61.2377 24.7897C62.3649 24.7897 63.0453 25.5046 63.0453 26.771V29.8757H62.1719V26.8833C62.1719 25.9539 61.8673 25.4842 61.0955 25.4842C60.2424 25.4842 59.7348 26.1378 59.7348 26.914V29.8757H58.8614ZM64.4458 32L65.3395 29.7021L63.3796 24.9531H64.3443L65.5629 28.0986L65.7965 28.7012L66.0097 28.0986L67.0861 24.9531H68L65.3699 32H64.4458Z" fill="white"/>
<path fill-rule="evenodd" clip-rule="evenodd" d="M27.4647 27.3878C27.4647 25.9288 26.7424 24.7776 25.3615 24.7776C23.975 24.7776 23.1361 25.9288 23.1361 27.3764C23.1361 29.0919 24.1265 29.9582 25.548 29.9582C26.2413 29.9582 26.7656 29.8043 27.1618 29.5878V28.4479C26.7656 28.6416 26.3112 28.7613 25.7344 28.7613C25.1693 28.7613 24.6683 28.5676 24.6042 27.895H27.453C27.453 27.8209 27.4647 27.5246 27.4647 27.3878ZM24.5867 26.8464C24.5867 26.2024 24.9887 25.9345 25.3558 25.9345C25.7111 25.9345 26.0898 26.2024 26.0898 26.8464H24.5867Z" fill="white"/>
<path fill-rule="evenodd" clip-rule="evenodd" d="M20.8875 24.7776C20.3165 24.7776 19.9495 25.0397 19.7456 25.2221L19.6699 24.8687H18.3882V31.5141L19.8447 31.212L19.8504 29.5992C20.0602 29.7473 20.369 29.9582 20.8816 29.9582C21.9244 29.9582 22.8741 29.1375 22.8741 27.3308C22.8683 25.678 21.907 24.7776 20.8875 24.7776ZM20.5379 28.7044C20.1942 28.7044 19.9902 28.5847 19.8504 28.4364L19.8447 26.3221C19.9961 26.1568 20.2058 26.0428 20.5379 26.0428C21.0681 26.0428 21.4351 26.6241 21.4351 27.3707C21.4351 28.1344 21.0739 28.7044 20.5379 28.7044Z" fill="white"/>
<path fill-rule="evenodd" clip-rule="evenodd" d="M16.3843 24.4411L17.8465 24.1333V22.9764L16.3843 23.2784V24.4411Z" fill="white"/>
<path d="M17.8465 24.8727H16.3843V29.8595H17.8465V24.8727Z" fill="white"/>
<path fill-rule="evenodd" clip-rule="evenodd" d="M14.8168 25.2926L14.7236 24.8709H13.4652V29.8578H14.9217V26.4781C15.2654 26.0393 15.848 26.1191 16.0286 26.1817V24.8709C15.8422 24.8025 15.1605 24.6771 14.8168 25.2926Z" fill="white"/>
<path fill-rule="evenodd" clip-rule="evenodd" d="M11.9028 23.6374L10.4812 23.9338L10.4755 28.4989C10.4755 29.3425 11.1221 29.9637 11.9843 29.9637C12.4621 29.9637 12.8116 29.8782 13.0039 29.7756V28.6186C12.8174 28.6927 11.8969 28.9549 11.8969 28.1114V26.0881H13.0039V24.8742H11.8969L11.9028 23.6374Z" fill="white"/>
<path fill-rule="evenodd" clip-rule="evenodd" d="M7.96528 26.3221C7.96528 26.0998 8.15171 26.0143 8.46048 26.0143C8.90326 26.0143 9.46251 26.1453 9.9053 26.379V25.0397C9.42173 24.8517 8.94403 24.7776 8.46048 24.7776C7.27782 24.7776 6.49133 25.3817 6.49133 26.3904C6.49133 27.9635 8.70517 27.7127 8.70517 28.3909C8.70517 28.6531 8.47213 28.7386 8.14588 28.7386C7.66233 28.7386 7.04479 28.5448 6.55541 28.2826V29.6391C7.09722 29.867 7.64485 29.9639 8.14588 29.9639C9.35769 29.9639 10.1908 29.3768 10.1908 28.3567C10.1849 26.6583 7.96528 26.9603 7.96528 26.3221Z" fill="white"/>
<path d="M64.1562 15.1517C63.339 15.1517 62.6282 14.9829 62.0237 14.6451C61.4192 14.2961 60.9491 13.7952 60.6132 13.1422C60.2774 12.4892 60.1095 11.6956 60.1095 10.7611C60.1095 9.92806 60.2774 9.18504 60.6132 8.53208C60.9603 7.86786 61.436 7.35 62.0405 6.97849C62.645 6.60697 63.3222 6.42122 64.0722 6.42122C64.8782 6.42122 65.5666 6.60135 66.1375 6.9616C66.7196 7.32185 67.1618 7.83409 67.4641 8.49831C67.7663 9.15127 67.9174 9.91681 67.9174 10.7949V11.1664H61.8726C61.8726 11.6956 61.9733 12.1571 62.1748 12.5512C62.3763 12.9452 62.645 13.2492 62.9808 13.4631C63.3278 13.677 63.7196 13.7839 64.1562 13.7839C64.6711 13.7839 65.1021 13.6601 65.4491 13.4124C65.8073 13.1647 66.0256 12.7876 66.104 12.281H67.8503C67.7943 12.8213 67.6152 13.3111 67.3129 13.7501C67.0107 14.1779 66.5853 14.5213 66.0368 14.7802C65.4995 15.0279 64.8726 15.1517 64.1562 15.1517ZM66.104 9.9168C66.0928 9.26384 65.9081 8.74035 65.5499 8.34632C65.1916 7.9523 64.6991 7.75528 64.0722 7.75528C63.4677 7.75528 62.964 7.96356 62.561 8.3801C62.1692 8.78538 61.9453 9.29762 61.8894 9.9168H66.104Z" fill="white"/>
<path d="M55.2403 18.6473C54.4903 18.6473 53.8411 18.5179 53.2925 18.2589C52.744 18 52.3187 17.6397 52.0164 17.1782C51.7254 16.7166 51.5798 16.1762 51.5798 15.557H53.3261C53.3373 16.0861 53.5108 16.5027 53.8467 16.8067C54.1937 17.1106 54.6694 17.2626 55.2739 17.2626C55.9456 17.2626 56.4829 17.0768 56.8859 16.7053C57.2889 16.3338 57.4904 15.7822 57.4904 15.0504V14.1048C57.4904 13.8233 57.5016 13.5644 57.5239 13.328C57.2777 13.7445 56.9306 14.0766 56.4829 14.3243C56.0351 14.572 55.5146 14.6958 54.9213 14.6958C54.1937 14.6958 53.55 14.5326 52.9903 14.2061C52.4418 13.8683 52.0108 13.3899 51.6974 12.7707C51.3951 12.1402 51.244 11.4085 51.244 10.5754C51.244 9.75357 51.4063 9.02743 51.731 8.39699C52.0668 7.76654 52.509 7.28245 53.0575 6.94471C53.6172 6.59572 54.2273 6.42122 54.8877 6.42122C55.537 6.42122 56.0743 6.55068 56.4997 6.80962C56.9251 7.06855 57.2665 7.41192 57.5239 7.83972C57.5016 7.59204 57.4904 7.34437 57.4904 7.09669V6.69141H59.2199V14.5438C59.2199 15.906 58.8728 16.9305 58.1788 17.6172C57.496 18.304 56.5165 18.6473 55.2403 18.6473ZM55.3075 13.3111C55.7553 13.3111 56.1527 13.1985 56.4997 12.9733C56.8467 12.7369 57.1154 12.4104 57.3057 11.9939C57.496 11.5773 57.5911 11.1045 57.5911 10.5754C57.5911 10.0463 57.4904 9.57344 57.2889 9.1569C57.0986 8.72909 56.8299 8.39699 56.4829 8.16057C56.1471 7.92415 55.7553 7.80594 55.3075 7.80594C54.8597 7.80594 54.4623 7.92415 54.1153 8.16057C53.7683 8.38573 53.4996 8.71221 53.3093 9.14001C53.119 9.55655 53.0239 10.035 53.0239 10.5754C53.0239 11.1045 53.119 11.5773 53.3093 11.9939C53.4996 12.4104 53.7683 12.7369 54.1153 12.9733C54.4623 13.1985 54.8597 13.3111 55.3075 13.3111Z" fill="white"/>
<path d="M46.0402 15.1519C45.3126 15.1519 44.6689 14.9887 44.1092 14.6622C43.5495 14.3245 43.1074 13.8291 42.7827 13.1761C42.4581 12.5119 42.2958 11.7239 42.2958 10.812C42.2958 9.9226 42.4581 9.15144 42.7827 8.49848C43.1185 7.83426 43.5719 7.32202 44.1428 6.96177C44.7137 6.60152 45.3574 6.42139 46.0738 6.42139C46.6783 6.42139 47.1988 6.55648 47.6354 6.82667C48.072 7.09687 48.4078 7.4346 48.6429 7.83989C48.6205 7.61473 48.6093 7.36705 48.6093 7.09686V3.0609H50.3388V14.8817H48.6093V14.4764C48.6093 14.195 48.6205 13.9529 48.6429 13.7503C48.4302 14.1443 48.0943 14.4764 47.6354 14.7466C47.1876 15.0168 46.6559 15.1519 46.0402 15.1519ZM46.3928 13.7841C46.8406 13.7841 47.238 13.6602 47.585 13.4126C47.9432 13.1649 48.2175 12.8159 48.4078 12.3656C48.6093 11.904 48.71 11.3805 48.71 10.7951C48.71 9.89446 48.4973 9.17395 48.072 8.63357C47.6466 8.08193 47.0869 7.80611 46.3928 7.80611C45.9563 7.80611 45.5589 7.93558 45.2007 8.19451C44.8536 8.44219 44.5794 8.79118 44.3779 9.2415C44.1764 9.69182 44.0756 10.2097 44.0756 10.7951C44.0756 11.3918 44.1708 11.9153 44.3611 12.3656C44.5626 12.8159 44.8368 13.1649 45.1839 13.4126C45.5421 13.6602 45.9451 13.7841 46.3928 13.7841Z" fill="white"/>
<path d="M39.6727 6.69155H41.4022V14.8817H39.6727V6.69155ZM39.6727 13.4632H41.4022V14.8817H39.6727V13.4632ZM39.6727 6.69155H40.5291V8.11005H39.6727V6.69155ZM39.5887 3.34795H41.4862V5.28994H39.5887V3.34795Z" fill="white"/>
<path d="M34.5127 6.69141H36.2422V7.18113C36.2422 7.49635 36.231 7.80594 36.2086 8.10991C36.4437 7.6033 36.7683 7.19802 37.1825 6.89405C37.5967 6.57883 38.0948 6.42122 38.6769 6.42122C38.8336 6.42122 38.968 6.43248 39.0799 6.45499V8.16057C38.912 8.1268 38.7385 8.10991 38.5594 8.10991C38.078 8.10991 37.6638 8.19997 37.3168 8.3801C36.981 8.56023 36.7179 8.84167 36.5276 9.22444C36.3373 9.60721 36.2422 10.0913 36.2422 10.6767V14.8816H34.5127V6.69141Z" fill="white"/>
<path d="M24.6033 3.0609H29.372C30.5474 3.0609 31.4877 3.30857 32.1929 3.80392C32.8981 4.28801 33.2508 5.03103 33.2508 6.03299C33.2508 6.68595 33.0493 7.23759 32.6463 7.68791C32.2433 8.13822 31.7339 8.45344 31.1183 8.63357C31.8795 8.83621 32.4784 9.18521 32.9149 9.68056C33.3515 10.1759 33.5698 10.7895 33.5698 11.5212C33.5698 12.3431 33.3627 13.0016 32.9485 13.497C32.5343 13.9923 31.9858 14.347 31.303 14.5609C30.6313 14.7748 29.8757 14.8817 29.0362 14.8817H24.6033V3.0609ZM29.2041 13.2944C30.0436 13.2944 30.6593 13.1367 31.0511 12.8215C31.4541 12.5063 31.6556 12.0335 31.6556 11.403C31.6556 10.7726 31.4597 10.2997 31.0679 9.98452C30.6873 9.65804 30.0548 9.4948 29.1705 9.4948H26.4503V13.2944H29.2041ZM29.1369 7.94121C29.6183 7.94121 30.0212 7.87366 30.3459 7.73857C30.6817 7.60347 30.928 7.41209 31.0847 7.16441C31.2526 6.90548 31.3366 6.59589 31.3366 6.23563C31.3366 5.72903 31.163 5.335 30.816 5.05355C30.4802 4.7721 29.9429 4.63138 29.2041 4.63138H26.4503V7.94121H29.1369Z" fill="white"/>
<path d="M8.97279 17.9456C9.29021 17.9456 9.60379 17.9291 9.9127 17.897L9.63217 15.232C9.41549 15.2546 9.19554 15.2662 8.97288 15.2662C8.75121 15.2662 8.5322 15.2547 8.31644 15.2323L8.03241 17.8969C8.34148 17.9291 8.65521 17.9456 8.97279 17.9456Z" fill="white"/>
<path d="M5.81967 14.4204C6.19867 14.6403 6.60272 14.8217 7.0265 14.9594L6.199 17.5087C5.59579 17.3128 5.02059 17.0547 4.48098 16.7421L5.81967 14.4204Z" fill="white"/>
<path d="M3.87714 12.6665C4.1361 13.0232 4.4316 13.3516 4.75813 13.6463L2.96291 15.6357C2.49794 15.216 2.07711 14.7484 1.70823 14.2406L3.87714 12.6665Z" fill="white"/>
<path d="M2.81367 10.2701C2.90519 10.707 3.04201 11.1271 3.21899 11.5255L0.76946 12.6138C0.517472 12.0469 0.322521 11.4491 0.191895 10.8275L2.81367 10.2701Z" fill="white"/>
<path d="M2.67988 8.96949H0C0 8.94858 7.18848e-05 8.92769 0.00021542 8.90681C0.0034696 8.45509 0.0401037 8.0113 0.107774 7.5778C0.55882 4.6936 2.3888 2.2602 4.89976 0.97556C6.12208 0.351782 7.50636 0 8.97279 0C10.4436 0 11.8317 0.353869 13.0567 0.98111C15.5273 2.24936 17.3367 4.63055 17.8183 7.45824C17.9018 7.94954 17.9454 8.45444 17.9456 8.96949H15.2659C15.2639 5.49564 12.4472 2.68015 8.97288 2.68015C5.49858 2.68015 2.68186 5.49564 2.67988 8.96949Z" fill="white"/>
<path d="M14.7273 11.5243C14.9037 11.1271 15.0401 10.7082 15.1315 10.2728L17.7537 10.8273C17.6229 11.4499 17.4275 12.0487 17.175 12.6164L14.7273 11.5243Z" fill="white"/>
<path d="M13.1884 13.6456C13.5154 13.3504 13.8112 13.0214 14.0704 12.6641L16.238 14.2397C15.8687 14.7482 15.4473 15.2165 14.9817 15.6366L13.1884 13.6456Z" fill="white"/>
<path d="M10.9209 14.9588C11.3443 14.8212 11.7479 14.6398 12.1265 14.4202L13.4651 16.7418C12.9265 17.0539 12.3523 17.3117 11.7503 17.5075L10.9209 14.9588Z" fill="white"/>
</svg>
