<svg width="320" height="134" viewBox="0 0 320 134" fill="none" xmlns="http://www.w3.org/2000/svg">
<g clip-path="url(#clip0_7408_14281)">
<path d="M71.611 104.702C69.0555 104.702 67 103.165 67 100.668C67 98.1151 69.0555 96.9076 71.4443 96.5507L74.3053 96.1113C75.3331 95.9468 75.6664 95.5899 75.6664 94.7939C75.6664 93.3394 74.5275 92.4885 72.972 92.4885C70.9166 92.4885 69.861 93.5587 69.8055 95.2059H67.4167C67.5 92.7903 69.4166 90.6221 72.7776 90.6221C76.1108 90.6221 77.9997 92.5708 77.9997 95.6173V104.291H75.7219V103.632V102.507C75.0553 103.879 73.6109 104.702 71.611 104.702ZM71.9443 102.864C74.0831 102.864 75.6664 101.436 75.6664 99.2954V97.3465C75.4997 97.5937 74.9997 97.7856 74.1942 97.9229L72.2498 98.2798C70.6666 98.5816 69.4722 99.268 69.4722 100.668C69.4722 102.04 70.5832 102.864 71.9443 102.864Z" fill="#B3B2BC"/>
<path d="M155.246 104.702C151.607 104.702 148.607 102.342 148.607 97.6485C148.607 93.4767 151.552 90.6221 155.357 90.6221C158.524 90.6221 160.912 92.5157 161.19 95.5077H158.718C158.496 93.7785 157.301 92.4885 155.302 92.4885C152.746 92.4885 151.079 94.7119 151.079 97.6485C151.079 100.805 152.774 102.864 155.357 102.864C157.329 102.864 158.662 101.738 158.913 99.8442H161.273C161.024 102.726 158.913 104.702 155.246 104.702ZM168.944 104.702C165.083 104.702 162.361 101.875 162.361 97.6485C162.361 93.5313 165.083 90.6221 168.944 90.6221C172.778 90.6221 175.527 93.5313 175.527 97.6485C175.527 101.875 172.778 104.702 168.944 104.702ZM168.944 102.864C171.5 102.864 173.055 100.75 173.055 97.6485C173.055 94.5469 171.444 92.4885 168.944 92.4885C166.444 92.4885 164.833 94.5469 164.833 97.6485C164.833 100.75 166.389 102.864 168.944 102.864ZM177.654 104.291V91.0612H180.043V92.1042V92.8452C180.849 91.5552 182.21 90.6221 183.96 90.6221C185.71 90.6221 187.21 91.4729 187.987 93.2295C188.904 91.6925 190.431 90.6221 192.348 90.6221C195.043 90.6221 197.043 92.2964 197.043 95.9191V104.291H194.654V96.386C194.654 93.8882 193.904 92.4885 191.848 92.4885C189.737 92.4885 188.543 94.2999 188.543 96.4136V104.291H186.154V96.4682C186.154 93.943 185.376 92.4885 183.404 92.4885C181.321 92.4885 180.043 94.3276 180.043 96.5233V104.291H177.654ZM199.871 110V91.0612H202.26V92.0217V92.8726C203.01 91.6925 204.677 90.6221 206.677 90.6221C210.538 90.6221 212.843 93.6138 212.843 97.6485C212.843 101.848 210.315 104.702 206.621 104.702C204.705 104.702 203.121 103.797 202.26 102.452V103.55V110H199.871ZM206.26 102.864C208.732 102.864 210.343 100.723 210.343 97.6485C210.343 94.6017 208.732 92.4885 206.26 92.4885C203.844 92.4885 202.121 94.4921 202.121 97.6485C202.121 100.75 203.816 102.864 206.26 102.864ZM218.787 104.702C216.232 104.702 214.176 103.165 214.176 100.668C214.176 98.1151 216.232 96.9076 218.62 96.5507L221.481 96.1113C222.509 95.9468 222.842 95.5899 222.842 94.7939C222.842 93.3394 221.704 92.4885 220.148 92.4885C218.093 92.4885 217.037 93.5587 216.982 95.2059H214.593C214.676 92.7903 216.593 90.6221 219.954 90.6221C223.287 90.6221 225.176 92.5708 225.176 95.6173V104.291H222.898V103.632V102.507C222.231 103.879 220.787 104.702 218.787 104.702ZM219.121 102.864C221.259 102.864 222.842 101.436 222.842 99.2954V97.3465C222.676 97.5937 222.176 97.7856 221.37 97.9229L219.426 98.2798C217.843 98.5816 216.648 99.268 216.648 100.668C216.648 102.04 217.759 102.864 219.121 102.864ZM228.003 104.291V91.0612H230.364V91.9672V92.8452C231.086 91.6925 232.697 90.6221 234.503 90.6221C237.586 90.6221 239.447 92.5434 239.447 95.9468V104.291H237.058V96.2486C237.058 93.7509 236.225 92.4885 234.114 92.4885C231.781 92.4885 230.392 94.2451 230.392 96.3311V104.291H228.003ZM243.278 110L245.723 103.824L240.362 91.0612H243.001L246.334 99.5147L246.973 101.134L247.556 99.5147L250.5 91.0612H253L245.806 110H243.278Z" fill="#B3B2BC"/>
<path fill-rule="evenodd" clip-rule="evenodd" d="M142.124 97.6048C142.124 93.6837 140.148 90.5898 136.371 90.5898C132.579 90.5898 130.284 93.6837 130.284 97.5741C130.284 102.185 132.993 104.513 136.881 104.513C138.778 104.513 140.212 104.099 141.295 103.517V100.454C140.212 100.974 138.969 101.296 137.391 101.296C135.845 101.296 134.475 100.775 134.3 98.9679H142.092C142.092 98.7687 142.124 97.9724 142.124 97.6048ZM134.252 96.1497C134.252 94.419 135.351 93.699 136.355 93.699C137.327 93.699 138.363 94.419 138.363 96.1497H134.252Z" fill="#B3B2BC"/>
<path fill-rule="evenodd" clip-rule="evenodd" d="M124.133 90.5898C122.572 90.5898 121.568 91.2942 121.01 91.7844L120.803 90.8347H117.297V108.694L121.281 107.882L121.297 103.548C121.871 103.946 122.715 104.513 124.117 104.513C126.97 104.513 129.567 102.307 129.567 97.4516C129.552 93.0097 126.922 90.5898 124.133 90.5898ZM123.177 101.143C122.237 101.143 121.679 100.821 121.297 100.423L121.281 94.7407C121.695 94.2964 122.269 93.9901 123.177 93.9901C124.627 93.9901 125.631 95.5523 125.631 97.5588C125.631 99.6112 124.643 101.143 123.177 101.143Z" fill="#B3B2BC"/>
<path fill-rule="evenodd" clip-rule="evenodd" d="M111.816 89.6854L115.815 88.8582V85.749L111.816 86.5606V89.6854Z" fill="#B3B2BC"/>
<path d="M115.815 90.8452H111.816V104.247H115.815V90.8452Z" fill="#B3B2BC"/>
<path fill-rule="evenodd" clip-rule="evenodd" d="M107.528 91.9738L107.273 90.8405H103.831V104.243H107.815V95.1598C108.755 93.9806 110.349 94.195 110.843 94.3633V90.8405C110.333 90.6567 108.468 90.3197 107.528 91.9738Z" fill="#B3B2BC"/>
<path fill-rule="evenodd" clip-rule="evenodd" d="M99.5576 87.5254L95.6692 88.322L95.6536 100.591C95.6536 102.858 97.4222 104.527 99.7806 104.527C101.087 104.527 102.043 104.298 102.569 104.022V100.912C102.059 101.112 99.5415 101.816 99.5415 99.5493V94.1116H102.569V90.8493H99.5415L99.5576 87.5254Z" fill="#B3B2BC"/>
<path fill-rule="evenodd" clip-rule="evenodd" d="M88.7873 94.7407C88.7873 94.1433 89.2972 93.9135 90.1418 93.9135C91.353 93.9135 92.8827 94.2655 94.0938 94.8936V91.2942C92.7711 90.789 91.4645 90.5898 90.1418 90.5898C86.9069 90.5898 84.7556 92.2134 84.7556 94.9242C84.7556 99.152 90.8111 98.4779 90.8111 100.301C90.8111 101.005 90.1737 101.235 89.2813 101.235C87.9586 101.235 86.2695 100.714 84.9309 100.01V103.655C86.4129 104.268 87.9108 104.528 89.2813 104.528C92.596 104.528 94.8748 102.95 94.8748 100.209C94.8586 95.6442 88.7873 96.4559 88.7873 94.7407Z" fill="#B3B2BC"/>
<path d="M242.486 64.72C240.251 64.72 238.307 64.2663 236.653 63.3585C235 62.4206 233.714 61.0744 232.795 59.3195C231.876 57.5645 231.417 55.4317 231.417 52.9203C231.417 50.6815 231.876 48.6846 232.795 46.9298C233.744 45.1447 235.046 43.7529 236.699 42.7545C238.353 41.756 240.205 41.2568 242.256 41.2568C244.461 41.2568 246.344 41.7409 247.906 42.7091C249.498 43.6773 250.707 45.0539 251.534 46.839C252.361 48.5938 252.774 50.6512 252.774 53.0111V54.0095H236.24C236.24 55.4317 236.515 56.672 237.066 57.7312C237.618 58.79 238.353 59.607 239.271 60.1819C240.22 60.7567 241.292 61.044 242.486 61.044C243.895 61.044 245.073 60.7113 246.023 60.0456C247.002 59.3799 247.599 58.3665 247.814 57.005H252.591C252.437 58.4571 251.948 59.7734 251.121 60.9532C250.294 62.1029 249.13 63.0258 247.63 63.7216C246.16 64.3873 244.446 64.72 242.486 64.72ZM247.814 50.6512C247.783 48.8964 247.278 47.4895 246.298 46.4305C245.318 45.3716 243.971 44.8421 242.256 44.8421C240.603 44.8421 239.225 45.4019 238.123 46.5213C237.051 47.6105 236.439 48.9872 236.286 50.6512H247.814Z" fill="#B3B2BC"/>
<path d="M218.099 74.1144C216.047 74.1144 214.271 73.7667 212.771 73.0706C211.27 72.3748 210.107 71.4065 209.28 70.1662C208.484 68.9257 208.086 67.4733 208.086 65.8092H212.863C212.893 67.2312 213.368 68.3508 214.287 69.1678C215.236 69.9845 216.537 70.393 218.19 70.393C220.028 70.393 221.497 69.8937 222.6 68.8953C223.702 67.8969 224.253 66.4145 224.253 64.4478V61.9065C224.253 61.1499 224.284 60.4541 224.345 59.8188C223.671 60.9382 222.722 61.8307 221.497 62.4964C220.273 63.1621 218.849 63.4948 217.226 63.4948C215.236 63.4948 213.475 63.0562 211.944 62.1787C210.444 61.2709 209.265 59.9852 208.408 58.3211C207.581 56.6266 207.167 54.6602 207.167 52.4212C207.167 50.2125 207.611 48.261 208.5 46.5667C209.418 44.8724 210.628 43.5714 212.128 42.6637C213.659 41.7258 215.328 41.2568 217.134 41.2568C218.91 41.2568 220.38 41.6048 221.543 42.3007C222.707 42.9965 223.641 43.9193 224.345 45.0691C224.284 44.4034 224.253 43.7378 224.253 43.0722V41.983H228.984V63.0863C228.984 66.7472 228.034 69.5005 226.136 71.346C224.269 73.1918 221.589 74.1144 218.099 74.1144ZM218.282 59.7734C219.507 59.7734 220.594 59.4708 221.543 58.8656C222.493 58.2302 223.227 57.3528 223.748 56.2334C224.269 55.1138 224.529 53.8432 224.529 52.4212C224.529 50.9992 224.253 49.7284 223.702 48.609C223.182 47.4592 222.447 46.5667 221.497 45.9313C220.579 45.296 219.507 44.9783 218.282 44.9783C217.057 44.9783 215.97 45.296 215.021 45.9313C214.072 46.5365 213.337 47.4139 212.817 48.5636C212.296 49.683 212.036 50.9689 212.036 52.4212C212.036 53.8432 212.296 55.1138 212.817 56.2334C213.337 57.3528 214.072 58.2302 215.021 58.8656C215.97 59.4708 217.057 59.7734 218.282 59.7734Z" fill="#B3B2BC"/>
<path d="M192.933 64.7206C190.943 64.7206 189.183 64.282 187.652 63.4046C186.121 62.497 184.911 61.1656 184.023 59.4107C183.135 57.6256 182.691 55.5079 182.691 53.0572C182.691 50.6669 183.135 48.5944 184.023 46.8396C184.942 45.0545 186.182 43.6778 187.743 42.7097C189.305 41.7415 191.066 41.2574 193.025 41.2574C194.679 41.2574 196.103 41.6204 197.297 42.3466C198.491 43.0727 199.41 43.9804 200.053 45.0696C199.991 44.4645 199.961 43.7989 199.961 43.0727V32.2261H204.691V63.9945H199.961V62.9052C199.961 62.149 199.991 61.4983 200.053 60.9538C199.471 62.0127 198.552 62.9052 197.297 63.6314C196.072 64.3576 194.618 64.7206 192.933 64.7206ZM193.898 61.0447C195.123 61.0447 196.21 60.7117 197.159 60.0463C198.139 59.3806 198.889 58.4426 199.41 57.2325C199.961 55.9919 200.236 54.585 200.236 53.0117C200.236 50.5913 199.654 48.6549 198.491 47.2026C197.327 45.7201 195.796 44.9788 193.898 44.9788C192.704 44.9788 191.617 45.3268 190.637 46.0227C189.688 46.6883 188.938 47.6262 188.387 48.8364C187.835 50.0467 187.56 51.4385 187.56 53.0117C187.56 54.6154 187.82 56.0223 188.341 57.2325C188.892 58.4426 189.642 59.3806 190.591 60.0463C191.571 60.7117 192.673 61.0447 193.898 61.0447Z" fill="#B3B2BC"/>
<path d="M175.516 41.9835H180.247V63.9945H175.516V41.9835ZM175.516 60.1823H180.247V63.9945H175.516V60.1823ZM175.516 41.9835H177.859V45.7957H175.516V41.9835ZM175.287 32.9976H180.477V38.2167H175.287V32.9976Z" fill="#B3B2BC"/>
<path d="M161.402 41.983H166.133V43.2991C166.133 44.1462 166.102 44.9783 166.041 45.7952C166.684 44.4337 167.572 43.3445 168.705 42.5276C169.838 41.6804 171.2 41.2568 172.793 41.2568C173.221 41.2568 173.589 41.2871 173.895 41.3476V45.9313C173.436 45.8406 172.961 45.7952 172.471 45.7952C171.154 45.7952 170.022 46.0372 169.072 46.5213C168.154 47.0054 167.434 47.7618 166.914 48.7905C166.393 49.8192 166.133 51.1202 166.133 52.6934V63.9941H161.402V41.983Z" fill="#B3B2BC"/>
<path d="M134.297 32.2261H147.341C150.556 32.2261 153.128 32.8917 155.057 34.2229C156.986 35.5239 157.951 37.5208 157.951 40.2136C157.951 41.9684 157.4 43.4509 156.297 44.6612C155.195 45.8714 153.802 46.7185 152.118 47.2026C154.2 47.7472 155.838 48.6852 157.032 50.0164C158.226 51.3476 158.823 52.9967 158.823 54.9631C158.823 57.172 158.257 58.9417 157.124 60.2731C155.991 61.6042 154.491 62.5575 152.623 63.1323C150.786 63.7072 148.719 63.9945 146.423 63.9945H134.297V32.2261ZM146.882 59.7286C149.178 59.7286 150.862 59.3048 151.934 58.4577C153.036 57.6106 153.587 56.3399 153.587 54.6455C153.587 52.9513 153.052 51.6803 151.98 50.8333C150.939 49.9559 149.209 49.5172 146.79 49.5172H139.349V59.7286H146.882ZM146.698 45.3419C148.015 45.3419 149.117 45.1604 150.005 44.7973C150.924 44.4342 151.597 43.9199 152.026 43.2543C152.485 42.5584 152.715 41.7264 152.715 40.7582C152.715 39.3967 152.24 38.3377 151.291 37.5813C150.372 36.8249 148.903 36.4467 146.882 36.4467H139.349V45.3419H146.698Z" fill="#B3B2BC"/>
<path d="M91.5432 72.2288C92.4114 72.2288 93.2691 72.1845 94.1141 72.0982L93.3468 64.936C92.7541 64.9968 92.1525 65.0279 91.5434 65.0279C90.9371 65.0279 90.338 64.997 89.7479 64.9368L88.9709 72.098C89.8163 72.1845 90.6745 72.2288 91.5432 72.2288Z" fill="#B3B2BC"/>
<path d="M82.9185 62.7549C83.9552 63.3459 85.0604 63.8334 86.2196 64.2034L83.9561 71.0547C82.3062 70.5282 80.7328 69.8346 79.2568 68.9945L82.9185 62.7549Z" fill="#B3B2BC"/>
<path d="M77.6052 58.041C78.3135 58.9996 79.1218 59.8822 80.015 60.6742L75.1045 66.0207C73.8327 64.8928 72.6816 63.6361 71.6726 62.2714L77.6052 58.041Z" fill="#B3B2BC"/>
<path d="M74.6962 51.6011C74.9466 52.7752 75.3208 53.9043 75.8049 54.975L69.1047 57.8998C68.4155 56.3762 67.8822 54.7696 67.5249 53.0991L74.6962 51.6011Z" fill="#B3B2BC"/>
<path d="M74.3303 48.1055H67C67 48.0493 67.0002 47.9932 67.0006 47.937C67.0095 46.7231 67.1097 45.5304 67.2948 44.3653C68.5285 36.614 73.5341 30.0743 80.4023 26.6218C83.7457 24.9454 87.5321 24 91.5432 24C95.5663 24 99.3632 24.951 102.714 26.6367C109.472 30.0452 114.421 36.4446 115.738 44.044C115.967 45.3644 116.086 46.7213 116.086 48.1055H108.757C108.751 38.7695 101.047 31.2029 91.5435 31.2029C82.0402 31.2029 74.3357 38.7695 74.3303 48.1055Z" fill="#B3B2BC"/>
<path d="M107.283 54.9713C107.766 53.9038 108.139 52.778 108.389 51.6079L115.562 53.0981C115.204 54.7714 114.669 56.3806 113.979 57.9063L107.283 54.9713Z" fill="#B3B2BC"/>
<path d="M103.074 60.6725C103.969 59.8791 104.778 58.9949 105.487 58.0347L111.416 62.2691C110.406 63.6357 109.253 64.8942 107.979 66.0233L103.074 60.6725Z" fill="#B3B2BC"/>
<path d="M96.8718 64.2019C98.0299 63.8321 99.1339 63.3446 100.169 62.7544L103.831 68.9937C102.358 69.8325 100.787 70.5253 99.1405 71.0515L96.8718 64.2019Z" fill="#B3B2BC"/>
</g>
<defs>
<clipPath id="clip0_7408_14281">
<rect width="186" height="86" fill="white" transform="translate(67 24)"/>
</clipPath>
</defs>
</svg>
