<svg width="145" height="22" viewBox="0 0 145 22" fill="none" xmlns="http://www.w3.org/2000/svg">
<g clip-path="url(#clip0_633_2990)">
<path d="M22.4532 7.45539C25.2389 8.76212 27.3916 10.6241 28.9114 13.0397C30.4177 15.4377 31.1776 18.2176 31.1892 21.3793H40.4754C40.4657 17.2455 39.4769 13.6125 37.5069 10.4788C35.5273 7.33103 32.7224 4.90498 29.0923 3.20236C25.4601 1.49974 21.2528 0.648438 16.4683 0.648438H0.550781V5.49529H12.7669C16.4375 5.49529 19.6676 6.14866 22.4532 7.45539Z" fill="url(#paint0_linear_633_2990)"/>
<path d="M12.4437 13.8308C13.9558 14.5403 15.1255 15.5509 15.9508 16.863C16.7665 18.1626 17.1781 19.6691 17.1859 21.3805H24.1866C24.1769 18.9439 23.5921 16.8016 22.4302 14.9519C21.2585 13.0881 19.5983 11.6517 17.4475 10.6445C15.2967 9.63735 12.8054 9.13281 9.97355 9.13281H0.550781V12.7676H7.18403C9.17708 12.7676 10.9316 13.1232 12.4437 13.8325V13.8308Z" fill="url(#paint1_linear_633_2990)"/>
<path d="M10.1852 21.3804C10.1794 20.3942 9.94087 19.5236 9.46951 18.7739C8.9924 18.0136 8.31525 17.4286 7.43796 17.017C6.56072 16.6054 5.54688 16.4004 4.39068 16.4004H0.550781V21.3786H10.1852V21.3804Z" fill="url(#paint2_linear_633_2990)"/>
<path d="M63.4067 3.01164C65.0977 3.80515 66.4059 4.93497 67.3274 6.40286C68.2489 7.87074 68.7106 9.57163 68.7106 11.509C68.7106 13.4463 68.2489 15.1401 67.3274 16.5871C66.4059 18.0357 65.0977 19.1567 63.4067 19.9502C61.7137 20.7437 59.7533 21.1396 57.5256 21.1396H50.1094V1.82227H57.5256C59.7553 1.82227 61.7156 2.21989 63.4067 3.01164ZM62.541 16.1859C63.7568 15.0788 64.3647 13.5199 64.3647 11.509C64.3647 9.49808 63.7568 7.92508 62.541 6.78998C61.3251 5.6549 59.6014 5.08737 57.3737 5.08737H54.3648V17.8465H57.3737C59.6033 17.8465 61.3251 17.293 62.541 16.1859Z" fill="url(#paint3_linear_633_2990)"/>
<path d="M71.0274 9.28514C71.7065 8.08526 72.628 7.16386 73.7936 6.5175C74.9595 5.87114 76.26 5.54883 77.699 5.54883C78.9554 5.54883 80.0536 5.78005 80.9965 6.24074C81.9393 6.70318 82.693 7.28298 83.2605 7.98538V5.79931H87.5472V21.1334H83.2605V18.8912C82.7129 19.6112 81.9585 20.2067 80.9965 20.6762C80.0345 21.1474 78.9245 21.3821 77.6681 21.3821C76.2505 21.3821 74.958 21.0493 73.7921 20.3854C72.6261 19.7215 71.7046 18.7844 71.0255 17.5758C70.3464 16.3671 70.0078 14.978 70.0078 13.4103C70.0078 11.8426 70.3464 10.4868 71.0255 9.2869L71.0274 9.28514ZM82.6548 11.0421C82.2492 10.3694 81.7023 9.85267 81.0141 9.49179C80.3252 9.13275 79.5847 8.95228 78.7957 8.95228C78.0067 8.95228 77.2758 9.12747 76.6067 9.47779C75.9369 9.82817 75.3945 10.3396 74.9808 11.014C74.5649 11.6884 74.3574 12.4854 74.3574 13.4085C74.3574 14.3316 74.5649 15.1392 74.9808 15.8311C75.3967 16.523 75.9428 17.0538 76.6222 17.4234C77.3008 17.793 78.0243 17.9769 78.7957 17.9769C79.5671 17.9769 80.3252 17.7964 81.0141 17.4374C81.7023 17.0783 82.2507 16.5616 82.6548 15.8871C83.0588 15.2145 83.2627 14.407 83.2627 13.4646C83.2627 12.5222 83.0588 11.7164 82.6548 11.0421Z" fill="url(#paint4_linear_633_2990)"/>
<path d="M95.8402 6.23975C96.8022 5.77906 97.9026 5.54784 99.1376 5.54784C100.577 5.54784 101.879 5.87015 103.043 6.51651C104.209 7.16287 105.13 8.08078 105.81 9.2701C106.488 10.4595 106.827 11.8398 106.827 13.4076C106.827 14.9753 106.487 16.3644 105.81 17.573C105.13 18.7817 104.209 19.7188 103.043 20.3827C101.877 21.0466 100.575 21.3793 99.1376 21.3793C97.8812 21.3793 96.7808 21.1534 95.8402 20.7014C94.898 20.2496 94.1436 19.6628 93.5761 18.9445V21.1307H89.3203V0.648438H93.5761V8.03869C94.1222 7.30125 94.8782 6.70043 95.8402 6.23975ZM101.86 11.0148C101.444 10.3422 100.898 9.8289 100.219 9.47859C99.5402 9.12827 98.8049 8.95308 98.0144 8.95308C97.2239 8.95308 96.5195 9.13348 95.8402 9.49259C95.1615 9.85171 94.6147 10.3737 94.1995 11.0568C93.7837 11.74 93.5761 12.5422 93.5761 13.4654C93.5761 14.3885 93.7837 15.1907 94.1995 15.8739C94.6147 16.557 95.1615 17.0773 95.8402 17.4381C96.5195 17.7972 97.2431 17.9776 98.0144 17.9776C98.7858 17.9776 99.538 17.7937 100.219 17.4241C100.898 17.0545 101.444 16.529 101.86 15.8459C102.275 15.1627 102.484 14.3517 102.484 13.4111C102.484 12.4704 102.275 11.6909 101.86 11.0165V11.0148Z" fill="url(#paint5_linear_633_2990)"/>
<path d="M115.004 6.23975C115.966 5.77906 117.067 5.54784 118.302 5.54784C119.741 5.54784 121.043 5.87015 122.207 6.51651C123.373 7.16287 124.295 8.08078 124.973 9.2701C125.653 10.4595 125.991 11.8398 125.991 13.4076C125.991 14.9753 125.65 16.3644 124.973 17.573C124.295 18.7817 123.373 19.7188 122.207 20.3827C121.041 21.0466 119.739 21.3793 118.302 21.3793C117.045 21.3793 115.945 21.1534 115.004 20.7014C114.061 20.2496 113.308 19.6628 112.74 18.9445V21.1307H108.484V0.648438H112.74V8.03869C113.286 7.30125 114.042 6.70043 115.004 6.23975ZM121.024 11.0148C120.608 10.3422 120.062 9.8289 119.383 9.47859C118.704 9.12827 117.969 8.95308 117.178 8.95308C116.387 8.95308 115.684 9.13348 115.004 9.49259C114.326 9.85171 113.779 10.3737 113.364 11.0568C112.948 11.74 112.74 12.5422 112.74 13.4654C112.74 14.3885 112.948 15.1907 113.364 15.8739C113.779 16.557 114.326 17.0773 115.004 17.4381C115.684 17.7972 116.407 17.9776 117.178 17.9776C117.95 17.9776 118.702 17.7937 119.383 17.4241C120.062 17.0545 120.608 16.529 121.024 15.8459C121.439 15.1627 121.647 14.3517 121.647 13.4111C121.647 12.4704 121.439 11.6909 121.024 11.0165V11.0148Z" fill="url(#paint6_linear_633_2990)"/>
<path d="M128.312 9.28514C128.992 8.08526 129.913 7.16386 131.079 6.5175C132.245 5.87114 133.546 5.54883 134.985 5.54883C136.24 5.54883 137.341 5.78005 138.282 6.24074C139.224 6.70318 139.979 7.28298 140.546 7.98538V5.79931H144.832V21.1334H140.546V18.8912C140 19.6112 139.243 20.2067 138.282 20.6762C137.32 21.1474 136.21 21.3821 134.954 21.3821C133.536 21.3821 132.243 21.0493 131.077 20.3854C129.911 19.7215 128.99 18.7844 128.311 17.5758C127.632 16.3671 127.293 14.978 127.293 13.4103C127.293 11.8426 127.632 10.4868 128.311 9.2869L128.312 9.28514ZM139.94 11.0421C139.534 10.3694 138.988 9.85267 138.299 9.49179C137.61 9.13275 136.87 8.95228 136.081 8.95228C135.292 8.95228 134.561 9.12747 133.892 9.47779C133.223 9.82817 132.679 10.3396 132.266 11.014C131.851 11.6884 131.643 12.4854 131.643 13.4085C131.643 14.3316 131.851 15.1392 132.266 15.8311C132.682 16.523 133.228 17.0538 133.907 17.4234C134.586 17.793 135.309 17.9769 136.081 17.9769C136.853 17.9769 137.61 17.7964 138.299 17.4374C138.988 17.0783 139.534 16.5616 139.94 15.8871C140.346 15.2145 140.548 14.407 140.548 13.4646C140.548 12.5222 140.346 11.7164 139.94 11.0421Z" fill="url(#paint7_linear_633_2990)"/>
</g>
<defs>
<linearGradient id="paint0_linear_633_2990" x1="42.5169" y1="25.9862" x2="42.5169" y2="-18.6428" gradientUnits="userSpaceOnUse">
<stop stop-color="#FFEE02"/>
<stop offset="1" stop-color="#FFC102"/>
</linearGradient>
<linearGradient id="paint1_linear_633_2990" x1="25.3952" y1="24.1022" x2="25.3952" y2="-2.26425" gradientUnits="userSpaceOnUse">
<stop stop-color="#FFEE02"/>
<stop offset="1" stop-color="#FFC102"/>
</linearGradient>
<linearGradient id="paint2_linear_633_2990" x1="10.6779" y1="22.487" x2="10.6779" y2="11.7662" gradientUnits="userSpaceOnUse">
<stop stop-color="#FFEE02"/>
<stop offset="1" stop-color="#FFC102"/>
</linearGradient>
<linearGradient id="paint3_linear_633_2990" x1="69.6618" y1="25.4324" x2="69.6618" y2="-16.1536" gradientUnits="userSpaceOnUse">
<stop stop-color="#FFEE02"/>
<stop offset="1" stop-color="#FFC102"/>
</linearGradient>
<linearGradient id="paint4_linear_633_2990" x1="88.4437" y1="24.9006" x2="88.4437" y2="-9.18489" gradientUnits="userSpaceOnUse">
<stop stop-color="#FFEE02"/>
<stop offset="1" stop-color="#FFC102"/>
</linearGradient>
<linearGradient id="paint5_linear_633_2990" x1="107.723" y1="25.9862" x2="107.723" y2="-18.6428" gradientUnits="userSpaceOnUse">
<stop stop-color="#FFEE02"/>
<stop offset="1" stop-color="#FFC102"/>
</linearGradient>
<linearGradient id="paint6_linear_633_2990" x1="126.886" y1="25.9862" x2="126.886" y2="-18.6428" gradientUnits="userSpaceOnUse">
<stop stop-color="#FFEE02"/>
<stop offset="1" stop-color="#FFC102"/>
</linearGradient>
<linearGradient id="paint7_linear_633_2990" x1="145.729" y1="24.9006" x2="145.729" y2="-9.18489" gradientUnits="userSpaceOnUse">
<stop stop-color="#FFEE02"/>
<stop offset="1" stop-color="#FFC102"/>
</linearGradient>
<clipPath id="clip0_633_2990">
<rect width="145" height="22" fill="white"/>
</clipPath>
</defs>
</svg>
