<svg width="108" height="108" viewBox="0 0 108 108" fill="none" xmlns="http://www.w3.org/2000/svg">
<path fill-rule="evenodd" clip-rule="evenodd" d="M4.97951 5.06626L0 10.0847V25.2994V40.5146L4.98659 45.4866L9.97274 50.459H25.1733H40.3734L45.4162 45.4861L50.459 40.5133V37.7402V34.9672H46.918H43.3771V39.1721V43.3771H25.2295H7.08197V25.2295V7.08197H25.2295H43.3771V11.2869V15.4918H46.918H50.459V12.7467V10.0015L45.4583 5.00075L40.4575 0L25.2083 0.023902L9.95902 0.0482464L4.97951 5.06626ZM57.541 20.2172V40.434L62.5059 45.4468L67.4708 50.459H82.7634H98.0556L103.028 45.4724L108 40.4863V20.2429V0H104.459H100.918V21.6885V43.3771H82.7705H64.623V21.6885V0H61.082H57.541V20.2172ZM0 82.7705V108H20.2288H40.4575L45.4583 102.999L50.459 97.9985V92.7224V87.4459L48.1503 85.108L45.8416 82.7705L48.1503 80.433L50.459 78.0951V72.8305V67.566L45.4941 62.5532L40.5292 57.541H20.2646H0V82.7705ZM62.5205 62.5453L57.541 67.5354V82.767V97.9985L62.5417 102.999L67.5425 108H87.7712H108V104.459V100.918H86.3115H64.623V93.6148V86.3115H86.3115H108V82.7705V79.2295H86.3115H64.623V71.9262V64.623H86.3115H108V61.082V57.541L87.75 57.5481L67.5 57.5547L62.5205 62.5453ZM43.3771 71.9262V79.2295H25.2295H7.08197V71.9262V64.623H25.2295H43.3771V71.9262ZM43.3771 93.6148V100.918H25.2295H7.08197V93.6148V86.3115H25.2295H43.3771V93.6148Z" fill="white"/>
</svg>
