<svg width="565" height="200" viewBox="0 0 565 200" fill="none" xmlns="http://www.w3.org/2000/svg">
<g clip-path="url(#clip0_113_2788)">
<path d="M90.2588 195.455V114.316C90.2588 95.8159 80.5877 90.0182 65.4056 90.0182C59.4822 90.15 53.6682 91.6364 48.4077 94.3659C43.1456 97.0975 38.5809 100.996 35.0642 105.761V195.455H0V11.3636H35.0619V79.5364C40.9335 72.9213 48.1645 67.6456 56.2631 64.0682C64.3556 60.4943 73.1258 58.7043 81.9751 58.8205C111.218 58.8205 125.302 74.8341 125.302 100.789V195.455H90.2588ZM215.921 197.727C175.316 197.727 145.806 169.689 145.806 126.125C145.806 82.5636 174.558 54.5455 215.921 54.5455C256.275 54.5455 284.776 81.8341 284.776 123.12C284.815 127.647 284.477 132.17 283.767 136.641H181.62C183.386 157.17 197.511 168.686 215.247 168.686C230.381 168.686 238.703 161.175 243.244 151.995H281.329C273.761 177.45 250.559 197.727 215.921 197.727ZM181.873 113.127H248.288C247.784 94.8545 233.156 83.3364 214.996 83.3364C198.099 83.3364 184.73 94.1023 181.957 113.127H181.873ZM303.004 11.3636H337.177V195.455H303.004V11.3636ZM359.96 20.4455C359.96 8.975 369.036 0 381.644 0C394.252 0 403.246 8.89318 403.246 20.4455C403.246 31.9977 393.917 40.8909 381.562 40.8909C369.205 40.8909 359.96 31.8318 359.96 20.4455ZM363.742 57.3455H399.043V195.455H363.742V57.3455Z" fill="white"/>
<path d="M533.401 122.727C532.775 112.209 528.145 102.326 520.458 95.0996C512.771 87.8731 502.607 83.8485 492.044 83.8485C481.482 83.8485 471.318 87.8731 463.631 95.0996C455.944 102.326 451.314 112.209 450.688 122.727H419.194C419.193 113.176 421.078 103.719 424.741 94.8947C428.405 86.0706 433.775 78.0529 440.544 71.2993C447.314 64.5458 455.351 59.1888 464.197 55.5342C473.042 51.8796 482.523 49.9991 492.097 50C501.671 49.9994 511.151 51.8801 519.996 55.5348C528.842 59.1895 536.879 64.5465 543.649 71.3C550.418 78.0535 555.788 86.0711 559.452 94.895C563.115 103.719 565.001 113.176 565 122.727H533.401ZM493.63 200C479.961 199.999 466.574 196.121 455.03 188.818C443.456 181.493 434.192 171.054 428.307 158.705L456.634 145.455C459.934 152.273 465.053 158.052 471.429 162.159C477.788 166.254 485.161 168.51 492.728 168.677C500.294 168.842 507.759 166.91 514.291 163.098C520.841 159.274 526.206 153.722 529.797 147.052L558.165 160.327C552.084 172.232 542.839 182.238 531.44 189.252C520.071 196.245 506.986 199.965 493.63 200Z" fill="white"/>
</g>
<defs>
<clipPath id="clip0_113_2788">
<rect width="565" height="200" fill="white"/>
</clipPath>
</defs>
</svg>
