<svg width="1222" height="214" viewBox="0 0 1222 214" fill="none" xmlns="http://www.w3.org/2000/svg">
<mask id="mask0_113_2776" style="mask-type:luminance" maskUnits="userSpaceOnUse" x="0" y="0" width="1222" height="214">
<path d="M1221.47 0H0V214H1221.47V0Z" fill="white"/>
</mask>
<g mask="url(#mask0_113_2776)">
<path d="M509.202 7.29621C518.007 11.8923 525.233 18.9967 529.962 27.7015C534.997 36.7137 537.511 47.5965 537.511 60.35V143.246H508.551V64.6858C508.551 52.1026 505.392 42.467 499.069 35.7786C492.747 29.0902 484.119 25.7233 473.185 25.6779C462.249 25.6779 453.579 29.0392 447.179 35.7614C440.775 42.484 437.571 52.1196 437.559 64.6689V143.229H408.617V64.6689C408.617 52.0857 405.454 42.4498 399.132 35.7614C392.812 29.0731 384.175 25.712 373.23 25.6779C362.297 25.6779 353.627 29.0392 347.227 35.7614C340.824 42.484 337.616 52.1196 337.607 64.6689V143.229H308.387V2.688H337.607V18.7572C342.505 12.8526 348.741 8.19011 355.805 5.15366C363.232 1.90562 371.269 0.254282 379.383 0.307453C389.904 0.127382 400.303 2.5833 409.623 7.44931C418.404 12.1069 425.557 19.3125 430.126 28.1096C434.537 19.4677 441.519 12.3897 450.118 7.84037C459.039 2.85584 469.105 0.260284 479.334 0.307453C489.715 0.166595 499.971 2.56654 509.202 7.29621Z" fill="white"/>
<path d="M572.231 34.8428C577.765 24.3374 586.11 15.5577 596.341 9.47211C606.52 3.42587 618.179 0.289967 630.032 0.408866C640.106 0.188678 650.077 2.42452 659.079 6.92145C666.808 10.8063 673.587 16.3325 678.933 23.1096V2.70441H708.407V143.245H678.933V122.33C673.542 129.32 666.617 134.991 658.687 138.909C649.632 143.45 639.604 145.725 629.471 145.541C617.701 145.646 606.146 142.42 596.15 136.24C585.958 129.886 577.688 120.893 572.231 110.223C566.211 98.506 563.177 85.4957 563.397 72.3374C563.147 59.3006 566.184 46.4091 572.231 34.8428ZM672.954 47.5959C669.302 40.8241 663.851 35.1781 657.201 31.2717C650.827 27.5621 643.567 25.6241 636.185 25.6603C628.817 25.6238 621.568 27.5181 615.168 31.1527C608.527 34.9551 603.07 40.5179 599.415 47.2218C595.227 54.9228 593.149 63.5841 593.385 72.3374C593.182 81.2118 595.258 89.9906 599.415 97.8435C603.046 104.772 608.544 110.56 615.288 114.56C621.607 118.31 628.829 120.29 636.185 120.289C643.567 120.326 650.827 118.387 657.201 114.678C663.875 110.749 669.329 105.058 672.954 98.2349C677.115 90.4257 679.19 81.6841 678.987 72.8474C679.202 64.0529 677.124 55.3529 672.954 47.5959Z" fill="white"/>
<path d="M831.36 6.97261C839.152 10.7606 845.949 16.3032 851.214 23.1608V2.75555H880.688V145.592C880.906 157.617 878.084 169.504 872.487 180.162C867.063 190.208 858.833 198.477 848.79 203.968C838.435 209.749 826.086 212.64 811.745 212.64C792.611 212.64 776.719 208.18 764.075 199.258C758.015 195.155 752.941 189.767 749.216 183.482C745.496 177.196 743.217 170.168 742.548 162.903H771.594C773.935 170.376 779.007 176.704 785.81 180.638C793.659 185.318 802.684 187.677 811.832 187.44C823.622 187.44 833.149 183.869 840.415 176.727C847.684 169.585 851.309 159.212 851.3 145.609V122.143C845.919 129.132 839.044 134.841 831.172 138.858C822.284 143.484 812.375 145.822 802.349 145.66C790.46 145.779 778.783 142.555 768.656 136.359C758.376 130.048 750.038 121.048 744.546 110.342C738.525 98.6254 735.491 85.6147 735.712 72.4564C735.461 59.4197 738.498 46.5283 744.546 34.9618C750.08 24.4566 758.424 15.6769 768.656 9.59124C778.837 3.54501 790.493 0.409087 802.349 0.527982C812.399 0.330909 822.35 2.54119 831.36 6.97261ZM845.182 47.647C841.529 40.8751 836.082 35.2291 829.431 31.3229C823.063 27.6042 815.813 25.6545 808.43 25.6774C801.062 25.641 793.814 27.5351 787.417 31.1699C780.769 34.9761 775.313 40.5378 771.645 47.2389C767.47 54.9444 765.397 63.6037 765.63 72.3545C765.43 81.2266 767.5 90.0039 771.645 97.8612C775.289 104.787 780.787 110.573 787.536 114.576C793.853 118.328 801.074 120.307 808.43 120.307C815.815 120.343 823.072 118.405 829.445 114.695C836.121 110.766 841.574 105.075 845.199 98.2518C849.36 90.4426 851.435 81.7012 851.232 72.8645C851.444 64.0629 849.36 55.3564 845.182 47.5962V47.647Z" fill="white"/>
<path d="M1017.67 7.29747C1026.45 11.8743 1033.64 18.9867 1038.31 27.7027C1043.26 36.715 1045.74 47.5978 1045.74 60.351V143.247H1016.69V64.6871C1016.69 52.1039 1013.53 42.4681 1007.2 35.7797C1000.89 29.0914 992.282 25.7245 981.409 25.6791C970.473 25.6791 961.803 29.0404 955.381 35.7627C948.968 42.4853 945.774 52.121 945.783 64.6702V143.23H916.562V2.68925H945.783V18.7584C950.707 12.8319 956.987 8.16708 964.096 5.15491C971.579 1.91483 979.661 0.264264 987.813 0.308701C998.187 0.165057 1008.44 2.56524 1017.67 7.29747Z" fill="white"/>
<path d="M1084.04 34.8433C1089.58 24.3429 1097.91 15.5643 1108.13 9.47273C1118.32 3.42838 1129.98 0.29274 1141.85 0.409494C1151.92 0.184459 1161.89 2.42057 1170.89 6.92208C1178.62 10.8021 1185.41 16.3288 1190.76 23.1103V2.70504H1220.2V143.246H1190.73V122.33C1185.34 129.32 1178.41 134.991 1170.48 138.91C1161.43 143.45 1151.4 145.726 1141.26 145.541C1129.49 145.646 1117.94 142.421 1107.94 136.24C1097.75 129.886 1089.48 120.893 1084.02 110.223C1078 98.5096 1074.96 85.4971 1075.19 72.3379C1074.93 59.2991 1077.98 46.4056 1084.04 34.8433ZM1184.76 47.5966C1181.11 40.8246 1175.66 35.1786 1169.01 31.2725C1162.64 27.5627 1155.38 25.6247 1147.99 25.6609C1140.63 25.6222 1133.38 27.5165 1126.98 31.1533C1120.33 34.9599 1114.87 40.5212 1111.21 47.2223C1107.03 54.9281 1104.96 63.5871 1105.2 72.3379C1104.99 81.21 1107.06 89.987 1111.21 97.8444C1114.86 104.77 1120.35 110.556 1127.09 114.56C1133.42 118.311 1140.63 120.291 1147.99 120.29C1155.38 120.327 1162.64 118.388 1169.01 114.679C1175.69 110.749 1181.14 105.059 1184.76 98.2358C1188.93 90.4257 1191 81.6846 1190.8 72.8479C1191.01 64.0537 1188.93 55.3534 1184.76 47.5966Z" fill="white"/>
<path d="M204.374 1.16651L120.873 41.3158C117.643 42.8664 114.096 43.672 110.5 43.6707C106.905 43.672 103.357 42.8664 100.128 41.3158L16.6259 1.16651C14.8692 0.323307 12.9253 -0.0738796 10.9718 0.0113447C9.01996 0.094695 7.12066 0.658193 5.44852 1.6501C3.7898 2.63301 2.41477 4.01613 1.45418 5.66791C0.502137 7.30691 0.000981391 9.16098 0 11.0477V133.499C0.00288916 135.1 0.331453 136.684 0.966388 138.158C1.60132 139.632 2.52983 140.966 3.69742 142.084C6.08543 144.368 9.28943 145.645 12.6238 145.639H208.377C211.711 145.645 214.915 144.368 217.303 142.084C218.47 140.966 219.399 139.632 220.034 138.158C220.669 136.684 220.997 135.1 221 133.499V11.0478C220.999 9.16098 220.498 7.30691 219.546 5.66791C218.585 4.01619 217.211 2.63304 215.552 1.65006C213.879 0.658124 211.98 0.0946201 210.029 0.0112989C208.074 -0.0738507 206.131 0.323345 204.374 1.16651Z" fill="white"/>
</g>
</svg>
