<svg width="928" height="143" viewBox="0 0 928 143" fill="none" xmlns="http://www.w3.org/2000/svg">
<g clip-path="url(#clip0_110_2743)">
<path d="M743.423 117.887H758.453V142.021H743.423V117.887ZM751.482 96.1399C737.122 96.1399 706.83 73.2929 706.83 73.2929V90.0899C706.83 90.0899 733.912 111.133 751.482 111.133C769.151 111.133 795.221 90.1669 795.221 90.1669V73.1169C795.221 73.1169 765.809 96.1399 751.482 96.1399ZM327.78 114.51L391.409 142.021V126.258L348.484 109.164L391.409 92.1689V76.4169L327.78 103.642V114.51ZM462.373 76.4169H445.418L404.065 142.01H421.646L453.862 91.8829L486.078 142.01H503.66L462.373 76.4169ZM670.865 76.4169H653.91L612.546 142.032H630.127L662.355 91.8829L694.582 142.032H712.163L670.865 76.4169ZM606.301 76.4169L578.867 124.201L566.861 102.817L582.287 76.4169H564.925L558.405 87.7689L552.039 76.4169H533.996L549.565 103.169L537.481 124.201L510.664 76.4169H492.621L530.818 142.021H543.947L558.097 117.81L572.204 142.021H585.322L623.662 76.4169H606.301ZM105.214 142.021H187.161V76.4169H105.214V142.021ZM172.164 91.4429L172.142 126.984H120.255V91.3769L172.164 91.4429ZM209.966 141.977H286.427V126.951H225.007V91.3989H286.427V76.3839H209.966V141.977ZM305.998 76.4169V142.021H321.04L321.018 76.4169H305.998ZM57.0764 117.612C57.0764 117.612 57.8131 131.318 70.2377 141.999H90.8758C90.8758 141.999 75.5484 132.902 72.4918 117.612H81.7937V76.4169H0V142.021H15.0305V117.612H57.0764ZM15.0305 91.4429L66.9281 91.4319V104.236H15.0305V91.4429Z" fill="white"/>
<path d="M927.384 0L879.742 32.593V43.945L927.384 76.417V57.266L898.874 38.159L927.384 19.151V0ZM825.282 19.151L853.804 38.159L825.282 57.266V76.417L872.936 43.945V32.593L825.282 0V19.151Z" fill="white"/>
</g>
<defs>
<clipPath id="clip0_110_2743">
<rect width="928" height="143" fill="white"/>
</clipPath>
</defs>
</svg>
