<svg width="1149" height="106" viewBox="0 0 1149 106" fill="none" xmlns="http://www.w3.org/2000/svg">
<path d="M164.486 17.451H178.704V76.3373H214.754V89.1014H164.486V17.451Z" fill="white"/>
<path d="M253.03 17.451H278.552L302.399 89.1014H287.731L281.798 71.2983H249.445L243.513 89.1014H229.184L253.03 17.451ZM277.659 58.9899L268.48 31.4472H262.659L253.48 58.9899H277.659Z" fill="white"/>
<path d="M319.708 17.451H344.115L369.865 73.3127H371.658V17.451H385.654V89.1014H361.247L335.386 33.2399H333.704V89.1014H319.708V17.451Z" fill="white"/>
<path d="M426.729 17.45H452.253L476.099 89.1001H461.431L455.499 71.2969H423.144L417.211 89.1001H402.883L426.729 17.45ZM451.357 58.9886L442.179 31.4461H436.358L427.179 58.9886H451.357Z" fill="white"/>
<path d="M0.00616028 67.0463H14.5568C15.3391 73.3176 18.5979 78.0178 29.9513 78.0178H31.7994C42.6169 78.0178 45.6233 74.2106 45.6233 69.0608C45.6233 64.3606 41.8715 61.003 36.6105 60.4425L21.3824 58.1446C6.1726 56.0625 1.90353 46.2369 1.90353 37.4338C1.90353 23.4377 10.8852 15.7743 29.4461 15.7743C48.007 15.7743 56.8717 23.7211 57.5434 39.3928H43.1035C42.1117 32.8013 39.5244 28.5322 29.5016 28.5322H28.2695C19.3741 28.5322 15.2837 31.7787 15.2837 37.0396C15.2837 42.3005 19.2016 45.436 24.1298 45.9966L39.9679 48.2944C54.3091 50.0747 59.114 58.7178 59.114 68.8943C59.114 83.0015 51.2784 90.7819 29.6679 90.7819C9.96117 90.7819 0.338816 82.7242 0 67.0463H0.00616028Z" fill="white"/>
<path d="M83.0207 25.8032C89.6002 19.0824 98.483 15.7743 109.763 15.7743C121.042 15.7743 129.925 19.1809 136.4 25.9018C142.979 32.6227 146.219 41.746 146.219 53.3767C146.219 65.0072 142.979 74.1369 136.504 80.8515C130.03 87.4677 121.147 90.7819 109.763 90.7819C98.3784 90.7819 89.4951 87.4739 83.0207 80.8515C76.5463 74.1307 73.3063 65.0072 73.3063 53.3767C73.3063 41.746 76.5463 32.518 83.0207 25.8032ZM88.6515 58.1755C88.6515 70.755 96.9553 78.0549 109.757 78.0549C122.557 78.0549 130.763 70.373 130.763 58.1755V48.2821C130.763 35.7028 122.557 28.5014 109.757 28.5014C96.9553 28.5014 88.6515 36.2819 88.6515 48.2821V58.1755Z" fill="white"/>
<g clip-path="url(#clip0_113_2844)">
<path d="M964.093 76.562H978.2V29.9904H964.093V17.4542H1006.52V29.9904H992.307V76.562H1006.52V89.0983H964.093V76.562Z" fill="white"/>
<path d="M1026.93 17.451H1041.14V76.3373H1077.19V89.1014H1026.93V17.451Z" fill="white"/>
<path d="M1095.3 17.451H1147.8V29.5437H1109.41V46.4475H1145.01V58.3124H1109.41V77.0086H1148.36V89.1014H1095.3V17.451Z" fill="white"/>
<path d="M756.347 17.451L743.694 72.4192H742.77H741.852L729.199 17.451H702.888V89.1014H716.878L716.201 33.129H719.466L732.341 89.1014H742.77H753.206L766.081 33.129H769.345L768.668 89.1014H782.658V17.451H756.347Z" fill="white"/>
<path d="M934.833 50.5872V50.1437C941.548 47.2299 944.905 41.6302 944.905 35.0263C944.905 24.7264 937.297 17.451 923.19 17.451H890.165V89.1014H924.866C940.205 89.1014 948.041 79.8057 948.041 68.5012C948.041 59.883 943.23 53.6119 934.833 50.5872ZM904.272 28.6443H923.788C927.725 28.6443 930.915 31.8353 930.915 35.7717V39.0983C930.915 43.0347 927.725 46.2196 923.788 46.2196H904.272V28.6443ZM933.934 70.1031C933.934 74.4831 930.386 78.0372 926.006 78.0372H904.272V57.0802H926.006C930.386 57.0802 933.934 60.6347 933.934 65.0147V70.1031Z" fill="white"/>
<path d="M808.7 25.8032C815.279 19.0824 824.163 15.7743 835.442 15.7743C846.722 15.7743 855.605 19.1809 862.079 25.9018C868.658 32.6227 871.899 41.746 871.899 53.3767C871.899 65.0072 868.658 74.1369 862.184 80.8515C855.709 87.4677 846.826 90.7819 835.442 90.7819C824.058 90.7819 815.175 87.4739 808.7 80.8515C802.226 74.1307 798.985 65.0072 798.985 53.3767C798.985 41.746 802.226 32.518 808.7 25.8032ZM814.337 58.1755C814.337 70.755 822.641 78.0549 835.442 78.0549C848.243 78.0549 856.449 70.373 856.449 58.1755V48.2821C856.449 35.7028 848.243 28.5014 835.442 28.5014C822.641 28.5014 814.337 36.2819 814.337 48.2821V58.1755Z" fill="white"/>
</g>
<g clip-path="url(#clip1_113_2844)">
<path d="M525.592 106C523.792 106 522.861 103.595 524.114 102.166L543.906 80.7515C544.709 79.9066 545.737 79.4839 546.829 79.4839H647.202C649.001 79.4839 649.933 81.8888 648.68 83.3184L628.888 104.733C628.085 105.578 627.057 106 625.964 106H525.592Z" fill="white"/>
<path d="M525.592 26.5163C523.792 26.5163 522.861 24.1116 524.114 22.6818L543.906 1.26732C544.709 0.42244 545.737 0 546.829 0H647.202C649.001 0 649.933 2.40466 648.68 3.83446L628.888 25.2489C628.085 26.0938 627.057 26.5163 625.964 26.5163H525.592Z" fill="white"/>
<path d="M625.868 39.5144C626.993 39.5144 627.989 39.9369 628.792 40.7817L648.68 62.1964C649.933 63.6583 648.969 66.0305 647.17 66.0305H546.444C545.319 66.0305 544.323 65.6082 543.52 64.7633L523.632 43.3489C522.379 41.8866 523.343 39.5144 525.142 39.5144H625.868Z" fill="white"/>
</g>
<defs>
<clipPath id="clip0_113_2844">
<rect width="446.083" height="79.5" fill="white" transform="translate(702.25 13.25)"/>
</clipPath>
<clipPath id="clip1_113_2844">
<rect width="128.083" height="106" fill="white" transform="translate(521.167)"/>
</clipPath>
</defs>
</svg>
