<svg width="83" height="98" viewBox="0 0 83 98" fill="none" xmlns="http://www.w3.org/2000/svg">
<path d="M61 85.9668H60.9951L60.9971 85.9707L42.7539 97.3711L42.751 97.3662L42.749 97.3701L25.0801 86.3291L30.71 82.7773L42.752 90.2969L55 82.6436V69.9668L61 66.208V85.9668ZM57.8496 10.4639L52.2002 14.0068L41.1064 7.07617L28 15.2666V34.7646C31.6075 31.228 36.5489 29.0469 42 29.0469C45.6948 29.0469 49.1551 30.0499 52.125 31.7969H52.126L52.1406 31.8057C52.4387 31.9814 52.7316 32.165 53.0195 32.3555L82.9961 51.0869H83V51.0889L83.0039 51.0918L83 51.0977V72.2266H82.9922L67.0029 82.2178L67 75.1465L77 68.8955V54.4141L61.5361 44.751C61.8391 46.1349 62 47.5721 62 49.0469C62 56.3356 58.1004 62.7125 52.2744 66.208L20.874 85.8271L0.00683594 72.7871H0V53.0469L6 56.7852V69.457L20.876 78.7529L37.2988 68.4893C28.5217 66.3745 22 58.4732 22 49.0469V11.9473L21.9971 11.9434L41.0996 0.00195312L41.1006 0.00390625L41.1035 0L57.8496 10.4639ZM42 36.0469C34.8203 36.0469 29 41.8672 29 49.0469C29 56.2266 34.8203 62.0469 42 62.0469C49.1797 62.0469 55 56.2266 55 49.0469C55 41.8672 49.1797 36.0469 42 36.0469ZM16.9385 21.5518L6 28.377V43.8076L8.35254 45.2773L17 39.877L16.999 46.9502L8.34863 52.3477L8.34668 52.3506L0.00292969 47.1367H0V25.0469L17 14.4268L16.9385 21.5518ZM63.2559 13L63.2578 12.999L83.0029 25.3369L83 25.3408V43.0469L77 39.3066V28.6611L63.2529 20.0703L52.54 26.7666L46.8789 23.2285L63.2539 12.9961L63.2559 13Z" fill="#F76918"/>
</svg>
