<svg width="2193" height="512" viewBox="0 0 2193 512" fill="none" xmlns="http://www.w3.org/2000/svg">
<g clip-path="url(#clip0_301_411)">
<path d="M489.611 322.088C489.612 355.908 509.373 378.003 539.451 378.003C572.849 378.003 594.933 354.039 594.933 315.998V188.674H641.001V413.271H599.609C599.609 413.271 596.532 394.643 595.265 388.493C595.204 388.131 595.144 387.769 594.45 387.106C593.786 386.504 592.911 386.474 592.911 386.474C592.894 386.474 592.27 386.476 591.765 386.714L591.795 386.685C591.433 386.865 591.161 387.076 590.92 387.407C574.568 407.905 553.148 417.942 525.845 417.942C475.523 417.942 443.543 383.639 443.543 328.658V188.644H489.611V322.088ZM2017.99 183.942C2080.98 183.942 2122.37 227.65 2122.37 294.356H2122.4C2122.4 299.541 2121.95 307.047 2121.47 314.101H1960.79C1957.65 314.101 1955.3 316.904 1955.84 319.979C1962.2 356.482 1986.55 378.938 2023.63 378.938C2053.74 378.938 2071.6 364.349 2078.66 343.219H2120.99C2113.99 385.962 2077.6 417.22 2024.02 417.913C1961.27 418.727 1909.98 367.514 1908.47 304.816C1906.78 234.161 1951.4 183.942 2017.99 183.942ZM1885.63 413.242H1847.56L1843.64 389.761C1843.09 387.47 1841.53 385.902 1839.23 385.54C1837.54 385.269 1835.82 386.052 1834.65 387.318L1834.47 387.529C1819.35 407.514 1796.51 417.914 1767.61 417.914C1708.36 417.914 1666.03 369.534 1666.03 300.929C1666.03 232.323 1708.36 183.942 1771.83 183.942C1798.44 183.942 1819.23 192.443 1835.07 211.614C1835.08 211.63 1836.14 213.028 1837.91 212.398C1839.59 211.765 1839.56 210.017 1839.56 210.017V93.2725H1885.63V413.242ZM859.393 183.942C918.162 183.942 952.978 215.442 961.908 270.875H918.646C910.168 239.858 890.89 223.882 860.328 223.882C820.837 223.882 795.434 251.131 795.434 300.928C795.434 350.724 821.289 377.973 859.393 377.974C890.889 377.974 910.168 361.998 918.646 330.98H961.908C952.495 387.378 914.874 417.913 858.458 417.913C793.564 417.913 749.365 370.92 749.365 300.928C749.365 230.936 794.499 183.943 859.393 183.942ZM1529.88 183.942C1596.16 183.942 1643.2 232.804 1643.2 300.928C1643.2 369.051 1596.16 417.913 1529.88 417.913C1463.6 417.913 1416.56 369.051 1416.56 300.928C1416.56 232.804 1463.57 183.943 1529.88 183.942ZM1035.25 276.091C1035.25 277.869 1037.85 279.135 1039.45 277.537L1131.16 188.646H1181.48V193.348C1181.48 193.348 1116.92 255.171 1096.13 276.271C1095.65 276.784 1094.66 277.779 1094.69 278.743C1094.69 279.974 1095.79 281.443 1095.8 281.456L1187.12 408.539V413.242H1135.87L1062.89 310.785L1062.56 310.303C1062.55 310.291 1061.94 309.277 1060.68 309.188C1059.43 309.098 1058.7 309.929 1058.69 309.941L1057.91 310.694L1040.86 327.424C1037.27 330.951 1035.25 335.774 1035.25 340.808V413.272H989.184V93.2725H1035.25V276.091ZM720.861 413.24H674.763V188.644H720.861V413.24ZM1318.72 183.668C1342.62 183.668 1361.11 191.476 1374.18 207.09H1374.24C1387.27 222.704 1393.82 243.291 1393.82 268.883V413.148H1349.62V282.387C1349.62 262.161 1346.27 246.909 1339.6 236.63C1332.93 226.351 1321.95 221.227 1306.66 221.227C1290.55 221.227 1277.75 226.592 1268.31 237.263C1258.84 247.933 1254.13 262.975 1254.13 282.387V413.148H1209.93V188.732H1250.36L1251.05 213.269L1251.21 216.464C1251.3 218.845 1254.37 219.689 1255.67 217.7L1258.29 213.661V213.751C1261.95 208.054 1266.32 203.141 1271.42 199.071C1284.33 188.793 1300.11 183.668 1318.72 183.668ZM1775.58 223.913C1736.54 223.913 1713.03 252.579 1713.03 300.959C1713.03 349.339 1736.54 378.005 1775.58 378.005C1816.03 378.005 1839.53 349.338 1839.53 300.959C1839.53 252.579 1814.61 223.913 1775.58 223.913ZM1529.88 223.912C1489.42 223.912 1463.57 253.995 1463.57 300.958C1463.57 347.921 1489.42 378.004 1529.88 378.004C1570.34 378.004 1596.19 347.921 1596.19 300.958C1596.19 253.995 1570.34 223.912 1529.88 223.912ZM2018.02 222.978C1987.1 222.978 1965.71 242.028 1957.77 273.166C1956.96 276.301 1959.34 279.346 1962.57 279.346H2072.32C2075.52 279.346 2078.02 276.512 2077.54 273.347C2072.99 242.902 2048.94 222.978 2018.02 222.978ZM697.807 90.7979C712.686 90.798 724.748 102.85 724.748 117.716C724.748 132.582 712.686 144.634 697.807 144.634C682.927 144.634 670.865 132.582 670.865 117.716C670.865 102.85 682.927 90.7979 697.807 90.7979Z" fill="white"/>
<path d="M256.999 94.0098C344.569 94.9356 415.272 166.211 415.272 254C415.272 294.813 399.991 332.056 374.838 360.321C372.232 363.25 372.863 367.885 376.258 369.845L444.273 409.113V414H253.557L253.546 413.989C165.976 413.063 95.2725 341.789 95.2725 254C95.2725 213.187 110.555 175.944 135.707 147.679C138.313 144.75 137.681 140.114 134.286 138.154L66.2734 98.8867V94H256.989L256.999 94.0098ZM255.272 140C192.312 140 141.272 191.04 141.272 254C141.272 316.96 192.312 368 255.272 368C318.233 368 369.272 316.96 369.272 254C369.272 191.04 318.233 140 255.272 140Z" fill="white"/>
</g>
<defs>
<clipPath id="clip0_301_411">
<rect width="2053" height="372" fill="white" transform="translate(69.8181 69.8181)"/>
</clipPath>
</defs>
</svg>
