<svg xmlns="http://www.w3.org/2000/svg" width="550" height="262" fill="none" viewBox="0 0 615 294"><path fill="#fff" d="M607.646 282.735v6.187h-5.699v4.641h-7.329v-4.641h-20.111v-6.187l20.111-17.666h7.329v17.666h5.699Zm-25.241 0h12.213v-10.339l-12.213 10.339ZM560.775 273.617c0 11.031-20.274 8.141-22.066 13.799h21.659v6.147H528.45v-3.704c0-11.846 24.997-9.2 24.997-15.672 0-2.361-1.506-3.378-7.817-3.378-6.31 0-9.2.936-9.2 5.454h-7.329c0-9.484 6.677-11.601 16.122-11.601 9.812 0 15.552 1.873 15.552 8.955ZM497.822 293.97c-11.318 0-16.691-5.211-16.691-14.695 0-9.443 5.373-14.613 16.691-14.613 11.278 0 16.692 5.211 16.692 14.613 0 9.444-5.414 14.695-16.692 14.695Zm0-6.147c6.433 0 9.364-3.215 9.364-8.548 0-5.291-2.931-8.466-9.364-8.466-6.432 0-9.363 3.134-9.363 8.466 0 5.373 2.931 8.548 9.363 8.548ZM466.892 273.617c0 11.031-20.275 8.141-22.066 13.799h21.658v6.147h-31.918v-3.704c0-11.846 24.997-9.2 24.997-15.672 0-2.361-1.506-3.378-7.816-3.378-6.311 0-9.201.936-9.201 5.454h-7.328c0-9.484 6.677-11.601 16.122-11.601 9.811 0 15.552 1.873 15.552 8.955ZM557.23 246.447V166.59h-46.157v-10.354h103.306v10.354h-46.157v79.857H557.23ZM478.735 246.447l-79.795-76.906v76.906h-10.966v-90.211h12.798l79.795 76.906v-76.906h10.967v90.211h-12.799ZM362.731 156.236h-10.967v90.211h10.967v-90.211ZM275.252 248.915c-11.501 0-21.501-1.933-29.694-5.724-8.244-3.943-14.58-9.591-18.855-16.791-4.274-7.174-6.437-15.646-6.437-25.16 0-9.515 2.163-17.961 6.437-25.059 4.301-7.123 10.636-12.695 18.855-16.536 8.193-3.893 18.193-5.852 29.694-5.852 11.501 0 21.374 1.985 29.593 5.852 8.295 3.841 14.681 9.464 18.982 16.663 4.274 7.098 6.437 15.468 6.437 24.932 0 9.464-2.163 17.986-6.437 25.16-4.301 7.124-10.687 12.746-18.982 16.664-8.194 3.892-18.168 5.851-29.593 5.851Zm0-84.793c-9.211 0-17.226 1.527-23.765 4.529-6.463 2.951-11.45 7.225-14.86 12.72-3.333 5.495-5.013 12.186-5.013 19.843 0 7.658 1.705 14.527 5.038 20.124 3.385 5.469 8.397 9.743 14.835 12.694 6.539 3.002 14.554 4.529 23.765 4.529s17.099-1.527 23.639-4.529c6.437-3.027 11.399-7.352 14.707-12.822 3.435-5.596 5.165-12.313 5.165-19.996 0-7.683-1.73-14.348-5.14-19.843-3.333-5.495-8.269-9.769-14.732-12.72-6.463-3.002-14.428-4.529-23.639-4.529ZM108.537 156.236h61.907c7.074 0 13.384 1.272 18.702 3.765 5.42 2.544 9.695 6.258 12.672 11.092 2.977 4.732 4.478 10.379 4.478 16.816 0 6.436-1.501 12.11-4.478 16.918-2.977 4.732-7.226 8.471-12.646 11.092-5.344 2.518-11.654 3.765-18.728 3.765h-50.94v26.789h-10.967v-90.237Zm59.923 52.941c7.888 0 14.376-1.704 19.287-5.088 4.835-3.358 7.201-8.65 7.201-16.206 0-7.555-2.341-12.796-7.201-16.078-4.936-3.485-11.425-5.215-19.287-5.215h-48.956v42.587h48.956Z"/><path fill="#fff" fill-rule="evenodd" d="M236.301 72.394h66.676V55.371H214.87v83.33h89.189l15.608-17.737h42.817v17.737h21.475v-83.33h-32.766l-61.203 66.307h-53.689v-16.904h56.99V89.299h-56.99V72.394Zm126.183 32.618h-31.567l31.041-33.808h.526v33.808Z" clip-rule="evenodd"/><path fill="#fff" d="M207.851 85.965c0 13.571-6.906 23.571-18.098 27.975l15.359 24.761h-25.241l-13.454-22.261h-34.529v22.261h-21.431v-83.33h65.485c18.931 0 31.909 12.024 31.909 30.594Zm-75.963-12.618v25.118h38.1c6.43 0 16.431-.89 16.431-12.5 0-11.728-10.001-12.618-16.431-12.618h-38.1ZM91.56 93.465c7.144 4.405 11.787 11.309 11.787 20.952 0 14.047-8.215 24.284-27.146 24.284H0v-83.33h73.343c18.931 0 24.766 9.643 24.766 21.904 0 5.833-2.382 11.547-6.549 16.19ZM21.431 70.847v17.261h44.292c5.715 0 10.954-1.78 10.954-8.69 0-6.791-5.239-8.571-11.073-8.571H21.432Zm49.531 51.307c5.715 0 10.954-1.78 10.954-8.809 0-7.029-5.239-8.809-10.954-8.809h-49.53v17.618h49.53ZM413.95 55.371h-21.433v83.331h21.433V97.085l54.706 41.616h32.595l-56.009-41.665 56.009-41.665h-32.595L413.95 96.988V55.371ZM45.9 31.754l-7.435 7.96a1.75 1.75 0 0 1-1.265.559H1.955a.868.868 0 0 1-.632-1.455l7.435-7.97a1.752 1.752 0 0 1 1.264-.56h35.245a.867.867 0 0 1 .633 1.466Zm-7.435-16.053a1.734 1.734 0 0 0-1.265-.56H1.955a.863.863 0 0 0-.632 1.45l7.435 7.981a1.734 1.734 0 0 0 1.264.56h35.245a.861.861 0 0 0 .633-1.45l-7.435-7.981ZM1.955 9.973H37.2a1.752 1.752 0 0 0 1.264-.56L45.9 1.455A.867.867 0 0 0 45.267 0H10.022a1.751 1.751 0 0 0-1.264.56L1.323 8.518a.867.867 0 0 0 .632 1.454ZM88.636 17.004H69.794V10.74h23.749V4.475H69.75a6.222 6.222 0 0 0-6.221 6.22v6.354a6.22 6.22 0 0 0 6.22 6.22h18.843v6.264H63.976v6.265h24.66a6.222 6.222 0 0 0 6.222-6.22v-6.354a6.22 6.22 0 0 0-6.222-6.22ZM125.1 4.475h-18.893a6.222 6.222 0 0 0-6.22 6.22v18.883a6.222 6.222 0 0 0 6.22 6.22H125.1a6.223 6.223 0 0 0 4.397-1.822 6.217 6.217 0 0 0 1.818-4.398V10.695a6.208 6.208 0 0 0-3.835-5.747 6.222 6.222 0 0 0-2.38-.473Zm-.051 25.058h-18.797V10.74h18.797v18.794ZM191.299 4.475h-18.461a6.224 6.224 0 0 0-5.748 3.84 6.23 6.23 0 0 0-.473 2.38v25.103h6.266V25.506h18.349v10.292h6.266V10.695a6.219 6.219 0 0 0-6.199-6.22Zm-.044 14.766h-18.35V10.74h18.35v8.502ZM264.665 4.475h-18.462a6.22 6.22 0 0 0-6.199 6.22v25.103h6.266V25.506h18.35v10.292h6.266V10.695a6.213 6.213 0 0 0-1.822-4.398 6.225 6.225 0 0 0-4.399-1.822Zm-.045 14.766h-18.35V10.74h18.35v8.502ZM228.161 29.534h-2.506L216.704 7.08a4.16 4.16 0 0 0-3.883-2.606h-5.594a4.148 4.148 0 0 0-4.146 4.145v27.178h6.266V10.74h2.506l8.985 22.453a4.143 4.143 0 0 0 3.866 2.606h5.594a4.142 4.142 0 0 0 3.83-2.559 4.15 4.15 0 0 0 .316-1.586V4.475h-6.266l-.017 25.059ZM143.158 4.475h-6.266v25.103a6.222 6.222 0 0 0 6.221 6.22h18.842v-6.265h-18.797V4.475Z"/></svg>