<svg width="32" height="33" viewBox="0 0 32 33" fill="none" xmlns="http://www.w3.org/2000/svg">
<path fill-rule="evenodd" clip-rule="evenodd" d="M2 26.5V6.5H30V26.5H2ZM4.66667 23.8333H8C8 21.9924 6.50762 20.5 4.66667 20.5V23.8333ZM27.3333 23.8333V20.5C25.4924 20.5 24 21.9924 24 23.8333H27.3333ZM27.3333 12.5C25.4924 12.5 24 11.0076 24 9.16667H27.3333V12.5ZM4.66667 9.16667H8C8 11.0076 6.50762 12.5 4.66667 12.5V9.16667ZM16 13.1667C14.1591 13.1667 12.6667 14.6591 12.6667 16.5C12.6667 18.3409 14.1591 19.8333 16 19.8333C17.8409 19.8333 19.3333 18.3409 19.3333 16.5C19.3333 14.6591 17.8409 13.1667 16 13.1667Z" fill="white" style="fill:white;fill-opacity:1;"/>
</svg>
