<svg data-v-f23bd86e="" xmlns="http://www.w3.org/2000/svg" fill-rule="evenodd" stroke-linejoin="round" stroke-miterlimit="2" clip-rule="evenodd" viewBox="0 0 366 222" class=""><path data-v-f23bd86e="" fill="#fff" fill-rule="nonzero" d="M229.456 100.275c10.96-9.234 13.791-28.6 11.547-31.394-2.231-2.772-21.39-5.165-33.084 3.116-1.8 1.272-1.491 3.025.506 2.784 6.588-.794 21.244-2.565 23.856.806 2.619 3.372-2.903 17.269-5.368 23.475-.75 1.879.853 2.635 2.543 1.213zm133.26-93.45C359.466 1.828 354.369 0 349.162 0c-8.021 0-12.571 3.775-15.824 11.7h-.219V2.844c-.213-.9-1.05-1.572-2.063-1.625l-10.778.003c-1.172 0-2.131.831-2.231 1.894l.019 57.937c0 1.113.922 2.006 2.084 2.081h11.572c1.241 0 2.244-.931 2.265-2.084V29.862c0-3.903.216-7.434 1.847-10.971 1.297-2.8 3.897-4.629 6.719-4.629 8.025 0 7.263 9.266 7.263 15.6v31.447c.125.991.996 1.76 2.072 1.825h11.64c1.15 0 2.097-.797 2.228-1.825V24.866c0-5.607 0-13.407-3.04-18.041zM247.584 178.556l-11.525-4.409c-4.628-1.766-7.731-3.378-9.303-4.85-1.572-1.472-2.365-3.478-2.365-6.028 0-6.363 4.722-9.55 14.184-9.55a55.24 55.24 0 0115.95 2.353c1.572.49 2.709.731 3.4.731 1.278 0 1.919-.881 1.919-2.644v-3.968c0-1.272-.247-2.225-.741-2.863-.491-.634-1.328-1.153-2.509-1.544-6.11-2.253-12.356-3.381-18.763-3.381-8.075 0-14.594 1.956-19.575 5.875-4.972 3.922-7.456 9.069-7.456 15.435 0 9.693 5.469 16.556 16.4 20.575l12.553 4.699c4.041 1.469 6.816 2.938 8.347 4.41 1.522 1.469 2.291 3.381 2.291 5.728 0 3.534-1.253 6.228-3.769 8.084-2.513 1.863-6.181 2.791-11.003 2.791-6.997 0-13.738-1.025-20.241-3.081-1.775-.588-3-.882-3.691-.882-1.184 0-1.778.882-1.778 2.644v4.116c0 1.275.232 2.206.666 2.79.447.585 1.256 1.132 2.441 1.619 6.597 2.744 14.034 4.113 22.303 4.113 8.665 0 15.609-2.057 20.831-6.169 5.222-4.119 7.831-9.65 7.831-16.613 0-4.893-1.278-8.884-3.84-11.975-2.563-3.087-6.747-5.753-12.557-8.006zM209.369 62.953c12.615-6.644 27.75-5.994 39.156-.075 1.4.731 2.731-.672 2.731-1.869v-8.747c-.112-1.181-.509-2.381-1.965-3.196-6.475-3.607-14.013-4.663-21.141-4.5l19.197-27.16c1.781-2.44 2.784-3.978 2.794-5.156V5.219c0-1.21-.954-2.063-2.135-2.063l-37.065.003c-1.141-.003-2.088.825-2.097 2.072v8.194c.009 1.231.959 2.069 2.14 2.069h19.372l-22.247 31.618c-1.353 2.025-1.378 4.297-1.378 5.632v8.306c0 1.206 1.35 2.581 2.638 1.903zm73.487-11.544c-8.797 0-8.693-14.825-8.693-21.759 0-6.931.521-18.05 8.796-18.05 3.56 0 6.072 1.556 7.332 5.5 1.462 4.544 1.672 10.281 1.672 15.066 0 7.29-.413 19.243-9.107 19.243zm0-51.409c-16.234 0-25.234 13.75-25.234 31.447 0 17.575 8.9 31.687 25.234 31.687 15.707 0 25.65-13.756 25.65-31.09 0-17.935-9.003-32.044-25.65-32.044zm1.788 115.337c-2.982 0-5.31.866-7.003 2.604-1.694 1.731-2.544 4.028-2.544 6.868 0 2.838.85 5.128 2.544 6.86 1.693 1.74 4.021 2.606 7.003 2.606 2.968 0 5.303-.866 7-2.606 1.693-1.732 2.537-4.022 2.537-6.86 0-2.84-.844-5.137-2.537-6.868-1.697-1.738-4.032-2.604-7-2.604zm4.75 30.222h-9.481c-2.138 0-3.21 1-3.21 2.988v69.775c0 2 1.072 2.997 3.21 2.997h9.481c2.14 0 3.212-.997 3.212-2.997v-69.775c0-1.988-1.072-2.988-3.212-2.988zM30.913 46.834c-1.779 3.079-4.61 4.975-7.757 4.975-4.29 0-6.809-3.2-6.809-7.937 0-9.325 8.559-11.019 16.662-11.019v2.372c0 4.266.104 7.819-2.096 11.609zm2.096-22.746c-6.497.712-14.987 1.184-21.062 3.79C4.922 30.841 0 36.884 0 45.769c0 11.372 7.334 17.059 16.769 17.059 7.962 0 12.315-1.837 18.468-7.953 2.029 2.875 2.697 4.269 6.422 7.291.835.44 1.907.393 2.647-.254l.025.022a461.21 461.21 0 018.591-7.265c.916-.732.75-1.913.034-2.91-2.043-2.765-4.228-5.015-4.228-10.147V24.566c0-7.232.522-13.866-4.922-18.841C39.509 1.697 32.381.275 26.931.275 16.269.275 4.372 4.163 1.878 17.031c-.262 1.369.756 2.088 1.675 2.291l10.86 1.15c1.012-.053 1.749-1.028 1.94-2.016.934-4.431 4.738-6.575 9.006-6.575 2.307 0 4.925.832 6.291 2.847 1.569 2.253 1.359 5.331 1.359 7.938v1.422zm60.175 118.315c-9.834 0-19.671 3.438-29.506 10.303-3.278-6.865-9.534-10.303-18.775-10.303-9.041 0-18.331 3.191-27.869 9.578l-.89-4.64c-.197-1.069-.572-1.794-1.119-2.185-.55-.384-1.322-.575-2.309-.575H6.159c-1.984 0-2.978.966-2.978 2.9v67.772c0 1.941.994 2.913 2.978 2.913h8.791c1.988 0 2.981-.972 2.981-2.913V160.4c6.953-4.256 14.203-6.388 21.757-6.388 4.071 0 7.049 1.16 8.94 3.482 1.888 2.328 2.831 5.906 2.831 10.74v47.019c0 1.941.991 2.913 2.982 2.913h8.79c1.988 0 2.985-.972 2.985-2.913v-52.531c0-.775-.05-1.497-.15-2.175 7.35-4.356 14.653-6.535 21.903-6.535 4.072 0 7.05 1.16 8.94 3.482 1.888 2.328 2.832 5.906 2.832 10.74v47.019c0 1.941.993 2.913 2.984 2.913h8.791c1.981 0 2.981-.972 2.981-2.913v-51.081c0-6.966-1.844-12.335-5.513-16.113-3.681-3.768-8.94-5.656-15.8-5.656zm101.054 3.156h-8.71c-1.972 0-2.953.972-2.953 2.903v54.282c-7.181 4.64-14.312 6.968-21.397 6.968-4.528 0-7.822-1.234-9.89-3.706-2.063-2.465-3.097-6.312-3.097-11.534v-46.01c0-1.931-.985-2.903-2.954-2.903h-8.706c-1.969 0-2.953.972-2.953 2.903v50.654c0 7.062 1.866 12.534 5.606 16.4 3.741 3.868 9.103 5.803 16.088 5.803 9.644 0 19.044-3.338 28.191-10.016l1.034 5.084c.194 1.063.566 1.791 1.109 2.182.535.381 1.3.581 2.288.581h6.344c1.968 0 2.95-.972 2.95-2.916v-67.772c0-1.931-.982-2.903-2.95-2.903zm169.546 61.144c-.406 0-1.165.147-2.275.444-4.862 1.397-9.415 2.09-13.671 2.09-8.2 0-14.201-2.115-17.991-6.346-3.8-4.225-5.697-10.863-5.697-19.913v-1.934c0-9.253 1.869-15.988 5.616-20.216 3.75-4.231 9.872-6.347 18.375-6.347 4.25 0 8.453.6 12.609 1.794 1.106.3 1.922.447 2.428.447 1.313 0 1.972-.994 1.972-2.985v-4.031c0-1.39-.231-2.381-.687-2.978-.457-.597-1.235-1.094-2.351-1.491-5.265-1.887-10.628-2.834-16.093-2.834-11.95 0-21.185 3.456-27.719 10.369-6.522 6.915-9.794 16.684-9.794 29.312 0 12.732 3.163 22.45 9.494 29.166 6.325 6.712 15.462 10.069 27.409 10.069 6.579 0 12.344-1.047 17.313-3.135 1.212-.493 2.028-1.047 2.428-1.64.406-.594.606-1.538.606-2.838v-4.022c0-1.99-.656-2.981-1.972-2.981zM62.456 63.134h11.335c1.206 0 2.184-.931 2.184-2.084l.003-30.7c0-6.706-.316-15.966 7.828-15.966 8.038 0 6.982 9.503 6.982 15.966l.012 30.703c0 1.113.894 2.006 2.034 2.081h11.319c1.206 0 2.181-.931 2.181-2.084v-30.7c0-3.294-.103-8.169 1.06-11.091 1.168-2.925 4.025-4.756 6.775-4.756 3.275 0 5.815 1.097 6.659 5 .531 2.316.319 8.409.319 10.847l.003 30.703c0 1.113.897 2.006 2.034 2.081H134.5c1.209 0 2.191-.931 2.191-2.084l.006-36.55c0-6.219.74-13.284-2.856-18.159C130.669 1.95 125.484 0 120.722 0c-6.663 0-12.9 3.416-15.653 10.725C101.897 3.416 97.45 0 90.363 0 83.384 0 78.2 3.416 75.453 10.725h-.215V3.166c-.069-1.06-.954-1.891-2.057-1.947l-10.556.003c-1.206 0-2.187.928-2.187 2.087l-.01 57.916c.091 1.034.95 1.841 2.028 1.909zm117.419-27.909c0 4.266.097 7.819-2.1 11.609-1.784 3.079-4.612 4.975-7.756 4.975-4.297 0-6.813-3.2-6.813-7.937 0-9.325 8.556-11.019 16.669-11.019v2.372zm0-11.137c-6.503.712-14.994 1.184-21.072 3.79-7.019 2.963-11.947 9.006-11.947 17.891 0 11.372 7.338 17.059 16.769 17.059 7.969 0 12.322-1.837 18.475-7.953 2.031 2.875 2.694 4.269 6.416 7.291.837.44 1.909.393 2.65-.254l.025.022a461.15 461.15 0 018.59-7.265c.916-.732.753-1.913.038-2.91-2.047-2.765-4.232-5.015-4.232-10.147V24.566c0-7.232.525-13.866-4.921-18.841-4.3-4.028-11.422-5.45-16.878-5.45-10.66 0-22.551 3.888-25.05 16.756-.26 1.369.756 2.088 1.674 2.291l10.86 1.15c1.009-.053 1.75-1.028 1.944-2.016.934-4.431 4.731-6.575 9-6.575 2.309 0 4.925.832 6.293 2.847 1.572 2.253 1.366 5.331 1.366 7.938v1.422z"></path><path data-v-f23bd86e="" fill="#fff" fill-rule="nonzero" d="M51.738 72.547c25.034 21.728 58.121 34.778 94.865 34.778 26.219 0 56.663-7.916 77.666-22.809 3.472-2.469.5-6.163-3.056-4.716-23.541 9.597-49.125 14.237-72.404 14.237-34.503 0-67.906-9.096-94.921-24.203-2.366-1.318-4.119 1.01-2.15 2.713z"></path></svg>