<svg data-v-f23bd86e="" viewBox="0 0 36 36" xmlns="http://www.w3.org/2000/svg" class=""><defs data-v-f23bd86e=""><linearGradient data-v-f23bd86e="" x1="50%" y1="0%" x2="50%" y2="100%" id="apple"><stop data-v-f23bd86e="" stop-color="#F452FF" offset="0%"></stop><stop data-v-f23bd86e="" stop-color="#832BC1" offset="100%"></stop></linearGradient></defs><g data-v-f23bd86e="" fill="none" fill-rule="evenodd"><path data-v-f23bd86e="" d="M35.288 31.203c-.35.889-1.158 2.14-2.303 3.022-.66.509-1.45.996-2.534 1.317-1.156.342-2.58.458-4.351.458H9.9c-1.772 0-3.195-.116-4.35-.458-1.085-.321-1.874-.808-2.535-1.317-1.145-.882-1.953-2.133-2.303-3.022C.007 29.412 0 27.38 0 26.1V9.9c0-1.28.007-3.312.712-5.103.35-.889 1.157-2.14 2.303-3.022.66-.509 1.45-.996 2.534-1.317C6.705.116 8.13 0 9.9 0h16.2c1.772 0 3.195.116 4.35.458 1.085.321 1.874.808 2.535 1.317 1.145.882 1.953 2.133 2.303 3.022C35.993 6.588 36 8.62 36 9.9v16.2c0 1.28-.007 3.312-.712 5.103z" fill="#832BC1"></path><path data-v-f23bd86e="" d="M35.288 31.203c-.35.889-1.158 2.14-2.303 3.022-.66.509-1.45.996-2.534 1.317-1.156.342-2.58.458-4.351.458H9.9c-1.772 0-3.195-.116-4.35-.458-1.085-.321-1.874-.808-2.535-1.317-1.145-.882-1.953-2.133-2.303-3.022C.007 29.412 0 27.38 0 26.1V9.9c0-1.28.007-3.312.712-5.103.35-.889 1.157-2.14 2.303-3.022.66-.509 1.45-.996 2.534-1.317C6.705.116 8.13 0 9.9 0h16.2c1.772 0 3.195.116 4.35.458 1.085.321 1.874.808 2.535 1.317 1.145.882 1.953 2.133 2.303 3.022C35.993 6.588 36 8.62 36 9.9v16.2c0 1.28-.007 3.312-.712 5.103z" fill="url(#apple)"></path><path data-v-f23bd86e="" d="M35.288 31.203c-.35.889-1.158 2.14-2.303 3.022-.66.509-1.45.996-2.534 1.317-1.156.342-2.58.458-4.351.458H9.9c-1.772 0-3.195-.116-4.35-.458-1.085-.321-1.874-.808-2.535-1.317-1.145-.882-1.953-2.133-2.303-3.022C.007 29.412 0 27.38 0 26.1V9.9c0-1.28.007-3.312.712-5.103.35-.889 1.157-2.14 2.303-3.022.66-.509 1.45-.996 2.534-1.317C6.705.116 8.13 0 9.9 0h16.2c1.772 0 3.195.116 4.35.458 1.085.321 1.874.808 2.535 1.317 1.145.882 1.953 2.133 2.303 3.022C35.993 6.588 36 8.62 36 9.9v16.2c0 1.28-.007 3.312-.712 5.103z"></path><path data-v-f23bd86e="" d="M20.82 20.31c-.553-.574-1.526-.942-2.674-.942s-2.121.368-2.675.941c-.289.3-.442.607-.49 1.044-.093.846-.04 1.575.06 2.74a61.98 61.98 0 00.518 4.1c.17 1.074.307 1.653.433 2.068.203.672.964 1.26 2.154 1.26s1.95-.588 2.154-1.26c.125-.415.263-.994.433-2.068a61.98 61.98 0 00.517-4.1c.101-1.165.154-1.894.06-2.74a1.653 1.653 0 00-.49-1.044zm-5.691-5.11c0 1.638 1.353 2.966 3.02 2.966 1.669 0 3.021-1.328 3.021-2.966 0-1.638-1.352-2.965-3.02-2.965s-3.02 1.327-3.02 2.965zm2.983-11.703c-7.064.02-12.852 5.647-12.94 12.582-.07 5.618 3.582 10.423 8.683 12.184.124.043.25-.058.23-.185a71.44 71.44 0 01-.188-1.306.44.44 0 00-.263-.345c-4.031-1.729-6.846-5.698-6.8-10.297.056-6.033 5.076-10.952 11.221-11 6.283-.05 11.41 4.954 11.41 11.111 0 4.552-2.802 8.473-6.802 10.189a.439.439 0 00-.262.345c-.058.43-.12.87-.188 1.305-.02.127.106.228.23.186 5.052-1.745 8.683-6.476 8.683-12.024 0-7.039-5.842-12.763-13.016-12.743zm-.234 5.846c4.004-.152 7.311 3.002 7.311 6.9a6.83 6.83 0 01-2.223 5.033.523.523 0 00-.169.415c.027.474.017.935-.015 1.455-.008.14.15.228.267.15 2.293-1.539 3.801-4.126 3.801-7.053 0-4.818-4.088-8.718-9.038-8.53-4.6.176-8.29 3.9-8.35 8.42-.038 2.972 1.48 5.605 3.802 7.163a.17.17 0 00.265-.15c-.032-.52-.042-.98-.015-1.455a.523.523 0 00-.168-.414 6.827 6.827 0 01-2.221-5.219c.097-3.619 3.068-6.575 6.753-6.715z" fill="#FFF" fill-rule="nonzero"></path></g></svg>