<svg data-v-f23bd86e="" viewBox="0 0 25 25" xmlns="http://www.w3.org/2000/svg" class=""><g data-v-f23bd86e="" fill="none" fill-rule="evenodd"><path data-v-f23bd86e="" fill="#FAB908" d="M11 8v9h3V8z"></path><path data-v-f23bd86e="" d="M1.547 9.984a1.547 1.547 0 11-.001 3.095 1.547 1.547 0 010-3.095" fill="#0066D9"></path><path data-v-f23bd86e="" d="M1.547 11.672a1.547 1.547 0 11-.001 3.095 1.547 1.547 0 010-3.095" fill="#0066D9"></path><path data-v-f23bd86e="" fill="#0066D9" d="M0 13.219h3.094V11.53H0z"></path><path data-v-f23bd86e="" d="M23.203 11.672a1.547 1.547 0 11-.001 3.095 1.547 1.547 0 01.001-3.095" fill="#4285F4"></path><path data-v-f23bd86e="" d="M23.203 9.984a1.547 1.547 0 11-.001 3.095 1.547 1.547 0 01.001-3.095" fill="#4285F4"></path><path data-v-f23bd86e="" fill="#4285F4" d="M21.656 13.219h3.094V11.53h-3.094z"></path><path data-v-f23bd86e="" d="M6.89 15.047a1.547 1.547 0 110 3.093 1.547 1.547 0 010-3.093" fill="#EA4335"></path><path data-v-f23bd86e="" d="M6.89 16.734a1.547 1.547 0 110 3.094 1.547 1.547 0 010-3.094" fill="#EA4335"></path><path data-v-f23bd86e="" fill="#EA4335" d="M5.344 18.281h3.093v-1.687H5.345zM6.89 4.922a1.547 1.547 0 110 3.095 1.547 1.547 0 010-3.095m0 5.484a1.547 1.547 0 110 3.095 1.547 1.547 0 010-3.095"></path><path data-v-f23bd86e="" fill="#EA4335" d="M5.344 11.988h3.093v-5.52H5.345z"></path><path data-v-f23bd86e="" d="M17.86 6.61a1.547 1.547 0 11-.002 3.094 1.547 1.547 0 01.001-3.095" fill="#34A853"></path><path data-v-f23bd86e="" d="M17.86 4.922a1.547 1.547 0 11-.002 3.095 1.547 1.547 0 01.001-3.095" fill="#34A853"></path><path data-v-f23bd86e="" fill="#34A853" d="M16.313 8.156h3.093V6.47h-3.093z"></path><path data-v-f23bd86e="" d="M12.375 1.688a1.547 1.547 0 11-.001 3.094 1.547 1.547 0 01.001-3.095" fill="#FAB908"></path><path data-v-f23bd86e="" d="M12.375 0a1.547 1.547 0 11-.001 3.095A1.547 1.547 0 0112.375 0" fill="#FAB908"></path><path data-v-f23bd86e="" fill="#FAB908" d="M10.828 3.234h3.094V1.547h-3.094zm1.547 18.422a1.547 1.547 0 110 3.094 1.547 1.547 0 010-3.094"></path><path data-v-f23bd86e="" d="M12.375 19.969a1.547 1.547 0 110 3.093 1.547 1.547 0 010-3.093" fill="#FAB908"></path><path data-v-f23bd86e="" fill="#FAB908" d="M10.828 23.203h3.094v-1.687h-3.094z"></path><path data-v-f23bd86e="" d="M17.86 16.734a1.547 1.547 0 110 3.094 1.547 1.547 0 010-3.094m0-5.484a1.547 1.547 0 11-.002 3.095 1.547 1.547 0 01.001-3.095" fill="#34A853"></path><path data-v-f23bd86e="" fill="#34A853" d="M16.313 18.281h3.093v-5.484h-3.093z"></path><path data-v-f23bd86e="" d="M12.375 6.328a1.547 1.547 0 11-.001 3.095 1.547 1.547 0 01.001-3.095m0 9a1.547 1.547 0 110 3.094 1.547 1.547 0 010-3.094" fill="#FAB908"></path></g></svg>