<svg width="86" height="32" viewBox="0 0 86 32" fill="none" xmlns="http://www.w3.org/2000/svg">
<path d="M77.1131 22.0064L72.1482 11.1582H68.0273L75.12 25.7955L74.9924 26.2363C74.8147 26.8222 74.4398 27.3281 73.9314 27.6678C73.4231 28.0075 72.8128 28.1598 72.2049 28.0988C71.4933 28.0922 70.7951 27.9038 70.1764 27.5514L69.5168 30.6864C70.4687 31.0796 71.4874 31.2848 72.517 31.2907C75.3541 31.2907 77.0705 30.2457 78.4891 27.1675L86.0003 11.1582H82.0213L77.1131 22.0064Z" fill="white"/>
<path d="M42.0227 5.99023H30.1211V25.9307H34.0221V18.6014H42.0227C46.3705 18.6014 49.2289 16.4048 49.2289 12.2958C49.2289 8.18689 46.3705 5.99023 42.0227 5.99023ZM41.8099 15.111H34.0079V9.42384H41.8099C44.0654 9.42384 45.3562 10.4546 45.3562 12.2674C45.3562 14.0802 44.0654 15.111 41.8099 15.111Z" fill="white"/>
<path d="M65.5403 22.1488V16.1417C65.5403 12.5873 62.9941 10.7461 58.6249 10.7461C55.0786 10.7461 51.9719 12.4025 51.0995 14.9474L54.3055 16.0849C54.7807 14.8124 56.4333 13.874 58.4902 13.874C60.9301 13.874 61.9585 14.8692 61.9585 16.0849V16.4759L56.1567 17.1157C52.816 17.4711 50.6172 18.9711 50.6172 21.6512C50.6172 24.5871 53.1352 26.1653 56.4758 26.1653C58.6291 26.2326 60.7261 25.4692 62.3344 24.0326C62.916 25.4544 63.5118 26.407 67.4767 25.9023V22.9308C65.8879 23.3146 65.5403 22.9308 65.5403 22.1488ZM61.994 20.2436C61.994 22.1772 59.2916 23.2009 57.0291 23.2009C55.3055 23.2009 54.27 22.6464 54.27 21.5445C54.27 20.4426 55.1211 20.0445 56.7666 19.8526L62.0082 19.2412L61.994 20.2436Z" fill="white"/>
<path d="M22.7439 21.2528C22.7714 21.3359 22.7714 21.4257 22.7439 21.5087C22.7279 21.5916 22.6885 21.6681 22.6304 21.7291L18.8783 25.6746C18.7956 25.7597 18.6968 25.8274 18.5875 25.8736C18.478 25.9217 18.3595 25.946 18.24 25.9447H0.444308C0.361894 25.9454 0.280888 25.9233 0.210248 25.8807C0.139655 25.8326 0.0833028 25.7663 0.0471156 25.6888C0.0221236 25.6102 0.0221236 25.5257 0.0471156 25.4471C0.0618237 25.3653 0.0986193 25.289 0.153506 25.2267L3.91265 21.2813C3.99533 21.1961 4.09422 21.1284 4.20346 21.0822C4.31277 21.0335 4.43137 21.0092 4.551 21.0111H22.3183C22.404 21.0095 22.4882 21.0343 22.5594 21.0822C22.6393 21.1152 22.7047 21.1757 22.7439 21.2528ZM18.8854 13.76C18.8009 13.6771 18.7025 13.6097 18.5946 13.561C18.484 13.5162 18.3663 13.4922 18.2471 13.4899H0.444308C0.360864 13.4911 0.27943 13.5157 0.209231 13.561C0.139032 13.6062 0.0828724 13.6702 0.0471156 13.7458C0.0225831 13.8245 0.0225831 13.9088 0.0471156 13.9875C0.0590607 14.0702 0.0962206 14.1472 0.153506 14.2079L3.91265 18.1604C3.99717 18.2434 4.09561 18.3108 4.20346 18.3595C4.31383 18.4048 4.43173 18.4289 4.551 18.4306H22.3183C22.404 18.4322 22.4882 18.4074 22.5594 18.3595C22.6311 18.3176 22.6861 18.2524 22.7155 18.1747C22.7518 18.099 22.7639 18.0139 22.7499 17.9312C22.7359 17.8484 22.6966 17.772 22.6375 17.7126L18.8854 13.76ZM0.210248 10.8453C0.280888 10.8879 0.361894 10.91 0.444308 10.9093H18.2471C18.3666 10.9106 18.4851 10.8863 18.5946 10.8382C18.7038 10.792 18.8027 10.7244 18.8854 10.6392L22.6375 6.6937C22.6956 6.63264 22.7349 6.55615 22.7509 6.47332C22.7755 6.39463 22.7755 6.31031 22.7509 6.23162C22.7216 6.1539 22.6665 6.08865 22.5949 6.04678C22.5237 5.99888 22.4395 5.97406 22.3538 5.97569H4.52263C4.403 5.97378 4.2844 5.99804 4.17509 6.04678C4.06585 6.09298 3.96696 6.16066 3.88428 6.24583L0.132229 10.2055C0.0727337 10.2656 0.0331119 10.3425 0.0187441 10.4259C-0.00624803 10.5045 -0.00624803 10.589 0.0187441 10.6676C0.0647789 10.7436 0.131116 10.8052 0.210248 10.8453Z" fill="url(#paint0_linear_811_306)"/>
<defs>
<linearGradient id="paint0_linear_811_306" x1="1.922" y1="26.4207" x2="20.1989" y2="5.4097" gradientUnits="userSpaceOnUse">
<stop offset="0.08" stop-color="#9945FF"/>
<stop offset="0.3" stop-color="#8752F3"/>
<stop offset="0.5" stop-color="#5497D5"/>
<stop offset="0.6" stop-color="#43B4CA"/>
<stop offset="0.72" stop-color="#28E0B9"/>
<stop offset="0.97" stop-color="#19FB9B"/>
</linearGradient>
</defs>
</svg>
