<svg width="18" height="15" viewBox="0 0 18 15" fill="white" xmlns="http://www.w3.org/2000/svg">
<path d="M17.334 1.66733C16.696 1.95067 16.0107 2.14133 15.2913 2.22733C16.026 1.78733 16.5893 1.09067 16.8547 0.26C16.168 0.667334 15.4067 0.963333 14.596 1.12333C13.9473 0.432 13.0233 0 12.0007 0C10.0367 0 8.44467 1.59267 8.44467 3.556C8.44467 3.83467 8.47667 4.10667 8.53667 4.366C5.58133 4.218 2.96133 2.802 1.20667 0.65C0.901333 1.17533 0.726 1.786 0.726 2.43867C0.726 3.672 1.35333 4.76067 2.30733 5.398C1.72467 5.37933 1.176 5.21933 0.696667 4.95333C0.696667 4.96867 0.696667 4.98267 0.696667 4.998C0.696667 6.72133 1.922 8.15867 3.54933 8.48467C3.25133 8.566 2.93667 8.60933 2.612 8.60933C2.38333 8.60933 2.16 8.58667 1.94333 8.546C2.396 9.95867 3.70933 10.9873 5.26533 11.016C4.04867 11.97 2.51533 12.5387 0.848667 12.5387C0.562 12.5387 0.278667 12.522 0 12.4887C1.574 13.4973 3.44267 14.086 5.45133 14.086C11.9927 14.086 15.5687 8.66733 15.5687 3.968C15.5687 3.814 15.5653 3.66067 15.5587 3.508C16.254 3.006 16.8573 2.38 17.334 1.66733Z" />
</svg>