<svg width="16" height="16" viewBox="0 0 16 16" fill="none" xmlns="http://www.w3.org/2000/svg"><g clip-path="url(#build-cases)" fill="#FFD512"><path d="M7.48 7.085 1.051 4.29l-.279.642.279-.642a.307.307 0 0 1-.185-.284.287.287 0 0 1 .176-.26l.01-.005L7.48.942a1.3 1.3 0 0 1 1.04 0h.002l6.426 2.787.01.004a.287.287 0 0 1 .175.265v.008a.313.313 0 0 1-.183.287L8.521 7.085a1.3 1.3 0 0 1-1.04 0ZM.773 4.933 7.2 7.727.167 4a1.007 1.007 0 0 0 .606.933Z" fill-opacity=".3" stroke="#FFD512" stroke-width="1.4"/><path d="m15.227 7.1-.827-.36a.667.667 0 1 0-.533 1.22L14 8l-5.733 2.507a.667.667 0 0 1-.534 0L2 8l.127-.053a.667.667 0 1 0-.534-1.22l-.826.36a.993.993 0 0 0 0 1.833l6.426 2.793a2 2 0 0 0 1.6 0L15.22 8.92a1.007 1.007 0 0 0 .613-.92.986.986 0 0 0-.606-.9Z"/><path d="m15.227 11.067-.827-.36a.666.666 0 1 0-.533 1.22L14 12l-5.733 2.473a.667.667 0 0 1-.534 0L2 12l.127-.06a.667.667 0 1 0-.534-1.22l-.826.36a1.007 1.007 0 0 0-.435 1.469c.108.162.261.29.441.364l6.427 2.8a2 2 0 0 0 1.6 0l6.427-2.8a.986.986 0 0 0 .606-.913 1.007 1.007 0 0 0-.606-.933Z"/></g><defs><clipPath id="build-cases"><rect width="16" height="16" fill="#fff"/></clipPath></defs></svg>