<svg preserveAspectRatio="none" width="100%" height="100%" overflow="visible" style="display: block;" viewBox="0 0 138.909 24" fill="none" xmlns="http://www.w3.org/2000/svg">
<g id="app-logo (1) 1" clip-path="url(#clip0_0_84)">
<path id="Vector" d="M134.886 13.4932C134.87 12.5961 134.546 11.878 133.914 11.3365C133.282 10.7974 132.509 10.5256 131.597 10.5256C130.733 10.5256 130.006 10.7883 129.415 11.3116C128.826 11.8349 128.464 12.5621 128.33 13.4932H134.886ZM138.501 14.49C138.501 14.9884 138.467 15.4369 138.402 15.8356H128.307C128.391 16.8324 128.74 17.6139 129.354 18.178C129.968 18.7421 130.724 19.0253 131.621 19.0253C132.917 19.0253 133.839 18.468 134.387 17.3557H138.152C137.754 18.6855 136.988 19.7774 135.86 20.6337C134.73 21.4901 133.343 21.9182 131.696 21.9182C130.366 21.9182 129.175 21.6237 128.119 21.0325C127.064 20.4435 126.241 19.6075 125.652 18.5269C125.063 17.4463 124.766 16.2003 124.766 14.7867C124.766 13.3731 125.056 12.1023 125.638 11.0216C126.221 9.94105 127.034 9.10963 128.08 8.52971C129.127 7.94752 130.332 7.65756 131.696 7.65756C133.06 7.65756 134.186 7.94069 135.224 8.50483C136.261 9.06891 137.067 9.87087 137.64 10.9107C138.213 11.9505 138.501 13.1421 138.501 14.4877V14.49ZM120.58 10.0272C121.028 9.29545 121.615 8.72229 122.338 8.30774C123.06 7.89312 123.887 7.68476 124.818 7.68476V11.3501H123.896C122.8 11.3501 121.973 11.6084 121.416 12.1227C120.858 12.6369 120.58 13.5363 120.58 14.8139V21.6939H117.088V7.88411H120.58V10.0272ZM111.658 14.789C111.658 13.9418 111.493 13.2146 111.16 12.6075C110.827 12.0003 110.378 11.5359 109.814 11.212C109.25 10.888 108.643 10.7249 107.995 10.7249C107.347 10.7249 106.749 10.8835 106.201 11.1984C105.653 11.5133 105.209 11.9754 104.866 12.5825C104.527 13.1896 104.354 13.9077 104.354 14.7392C104.354 15.5706 104.525 16.2978 104.866 16.9208C105.207 17.5437 105.655 18.0217 106.213 18.3547C106.77 18.6877 107.363 18.8531 107.995 18.8531C108.627 18.8531 109.25 18.69 109.814 18.3661C110.378 18.0421 110.827 17.5777 111.16 16.9706C111.493 16.3635 111.658 15.6363 111.658 14.789ZM100.789 14.7392C100.789 13.3437 101.068 12.1045 101.625 11.024C102.182 9.94331 102.938 9.11196 103.893 8.53196C104.848 7.94978 105.916 7.65981 107.096 7.65981C108.127 7.65981 109.028 7.86825 109.801 8.2828C110.573 8.69734 111.192 9.22294 111.658 9.85269V7.88411H115.174V21.6939H111.658V19.6755C111.21 20.3234 110.592 20.8603 109.801 21.2839C109.013 21.7075 108.101 21.9205 107.071 21.9205C105.906 21.9205 104.848 21.6214 103.893 21.0234C102.936 20.4253 102.18 19.5826 101.625 18.4929C101.068 17.4056 100.789 16.155 100.789 14.7414V14.7392ZM99.7443 3.24683V21.6939H96.2534V3.24683H99.7443ZM95.2839 4.29571V7.11159H88.0301V11.5744H93.5894V14.3405H88.0301V21.6939H84.5392V4.29344H95.2839V4.29571Z" fill="url(#paint0_linear_0_84)"/>
<path id="Vector_2" d="M79.0596 10.7499V17.4306C79.0596 17.895 79.173 18.2326 79.397 18.441C79.6218 18.6494 80 18.7536 80.5323 18.7536H82.1519V21.6941H79.9592C77.0189 21.6941 75.5461 20.2646 75.5461 17.4057V10.7499H73.901V7.88427H75.5461V4.47029H79.0618V7.88427H82.1519V10.7499H79.0618H79.0596ZM73.0538 7.88195V21.6918H69.563V7.88195H73.0538ZM71.3323 6.2373C70.7184 6.2373 70.2064 6.04248 69.7986 5.65056C69.3909 5.26091 69.187 4.77385 69.187 4.19165C69.187 3.60944 69.3909 3.12464 69.7986 2.73273C70.2064 2.34309 70.7161 2.146 71.3323 2.146C71.9485 2.146 72.4582 2.34082 72.8661 2.73273C73.2741 3.12238 73.4778 3.60944 73.4778 4.19165C73.4778 4.77385 73.2741 5.25865 72.8661 5.65056C72.4582 6.04021 71.9485 6.2373 71.3323 6.2373ZM64.9529 14.7371C64.9529 13.9057 64.783 13.1875 64.4409 12.5804C64.1011 11.9733 63.6525 11.5134 63.0952 11.1963C62.538 10.8814 61.9354 10.7227 61.2874 10.7227C60.6395 10.7227 60.0618 10.8859 59.5045 11.2098C58.9473 11.5338 58.4987 12.0027 58.1589 12.6189C57.8191 13.2329 57.6469 13.9577 57.6469 14.7869C57.6469 15.6161 57.8168 16.3409 58.1589 16.9549C58.4987 17.5688 58.9473 18.04 59.5045 18.364C60.0618 18.6879 60.6554 18.851 61.2874 18.851C61.9195 18.851 62.538 18.6857 63.0952 18.3526C63.6525 18.0196 64.1011 17.5462 64.4409 16.9322C64.7807 16.3183 64.9529 15.5866 64.9529 14.7393V14.7371ZM57.6492 9.90042C58.0978 9.23671 58.7162 8.69525 59.5069 8.28071C60.2952 7.86609 61.1968 7.65773 62.2117 7.65773C63.392 7.65773 64.4591 7.94769 65.4151 8.52987C66.3711 9.11205 67.1277 9.93896 67.6827 11.0105C68.24 12.082 68.5186 13.3257 68.5186 14.7371C68.5186 16.1484 68.24 17.4011 67.6827 18.4886C67.1254 19.5782 66.3688 20.4209 65.4151 21.019C64.4591 21.6171 63.392 21.9161 62.2117 21.9161C61.181 21.9161 60.2794 21.7122 59.5069 21.3044C58.7343 20.8966 58.1159 20.3689 57.6492 19.7209V21.6895H54.1582V3.24245H57.6492V9.89816V9.90042ZM49.0768 10.025C49.5254 9.29329 50.1122 8.7202 50.8348 8.30558C51.5575 7.89104 52.3844 7.6826 53.3154 7.6826V11.3481H52.3934C51.297 11.3481 50.4701 11.6063 49.9127 12.1205C49.3555 12.6347 49.0768 13.5342 49.0768 14.8118V21.6918H45.5858V7.88195H49.0768V10.025ZM35.5908 18.7513C36.6374 18.7513 37.5594 18.5134 38.3569 18.04C39.1543 17.5665 39.7773 16.8892 40.2258 16.008C40.6744 15.1267 40.8987 14.105 40.8987 12.9429C40.8987 11.7807 40.6744 10.7613 40.2258 9.88914C39.7773 9.01693 39.1543 8.34864 38.3569 7.88195C37.5594 7.41758 36.6374 7.18424 35.5908 7.18424C34.5442 7.18424 33.6176 7.41758 32.8111 7.88195C32.0047 8.34638 31.3771 9.01693 30.9286 9.88914C30.48 10.7613 30.2557 11.7785 30.2557 12.9429C30.2557 14.1073 30.48 15.129 30.9286 16.008C31.3771 16.8892 32.0047 17.5665 32.8111 18.04C33.6176 18.5134 34.5442 18.7513 35.5908 18.7513ZM35.5908 21.8662C33.962 21.8662 32.4668 21.4834 31.103 20.72C29.7392 19.9565 28.6609 18.8963 27.8612 17.5416C27.0637 16.1869 26.665 14.6532 26.665 12.9429C26.665 11.2325 27.0637 9.72376 27.8612 8.369C28.6586 7.01433 29.7392 5.95413 31.103 5.19069C32.4668 4.42725 33.962 4.0444 35.5908 4.0444C37.2197 4.0444 38.7352 4.42725 40.0899 5.19069C41.4447 5.95413 42.5162 7.01433 43.3045 8.369C44.0929 9.72376 44.4893 11.2483 44.4893 12.9429C44.4893 14.6374 44.0952 16.1869 43.3045 17.5416C42.5162 18.8963 41.4401 19.9565 40.0763 20.72C38.7125 21.4834 37.2174 21.8662 35.5885 21.8662H35.5908Z" fill="var(--fill-0, white)"/>
<g id="Vector_3">
<path d="M3.91421 7.22221C3.91421 7.22221 3.93407 6.45665 7.05813 6.66513V7.25199C7.05813 7.25199 3.92414 6.9012 3.91421 7.92709V7.22221Z" fill="url(#paint1_linear_0_84)"/>
<path d="M3.91421 7.22221C3.91421 7.22221 3.93407 6.45665 7.05813 6.66513V7.25199C7.05813 7.25199 3.92414 6.9012 3.91421 7.92709V7.22221Z" fill="url(#paint2_linear_0_84)"/>
</g>
<path id="Vector_4" d="M3.91421 16.5093C3.91421 16.5093 3.93407 15.7438 7.05813 15.9522V16.5391C7.05813 16.5391 3.92414 16.1883 3.91421 17.2142V16.5093Z" fill="url(#paint3_linear_0_84)"/>
<path id="Vector_5" d="M2.32339 11.8658C2.32339 11.8658 2.34325 11.1002 5.46731 11.3087V11.8955C5.46731 11.8955 2.33332 11.5448 2.32339 12.5707V11.8658Z" fill="url(#paint4_linear_0_84)"/>
<path id="Vector_6" d="M20.1061 16.9831C19.9242 17.6085 19.3461 18.0674 18.6621 18.0674C17.8326 18.0674 17.1575 17.3923 17.1575 16.5628C17.1575 15.7332 17.8326 15.0581 18.6621 15.0581C19.3461 15.0581 19.9242 15.517 20.1061 16.1425H22.6235C22.8893 15.3261 23.046 14.4624 23.0802 13.5667H22.8C22.618 14.1922 22.0399 14.6511 21.356 14.6511C20.5264 14.6511 19.8513 13.976 19.8513 13.1464C19.8513 12.3169 20.5264 11.6418 21.356 11.6418C22.0399 11.6418 22.618 12.1007 22.8 12.7272H23.078C23.0338 11.8381 22.8639 10.9821 22.5915 10.1735H20.1072C19.9253 10.799 19.3472 11.2578 18.6632 11.2578C17.8337 11.2578 17.1586 10.5828 17.1586 9.75319C17.1586 8.92366 17.8337 8.2486 18.6632 8.2486C19.3472 8.2486 19.9253 8.70744 20.1072 9.33297H22.2617C20.8254 6.13058 17.6661 3.86919 13.9629 3.73462L14.0158 3.75889L11.1554 5.06608L9.84925 7.92868L8.58947 5.16756C5.91328 6.8432 4.13394 9.8161 4.13394 13.206C4.13394 18.4402 8.37769 22.684 13.612 22.684C17.505 22.684 20.8485 20.3365 22.3069 16.9797H20.1072L20.1061 16.9831Z" fill="var(--fill-0, #707070)"/>
<path id="Vector_7" d="M1.05078 9.54236C1.05078 9.54236 1.10043 8.99414 4.1947 8.99414V9.54236C2.68231 9.54236 1.04968 9.75967 1.05078 10.2473V9.54236Z" fill="var(--fill-0, white)"/>
<path id="Vector_8" d="M4.41231 9.54206H4.19058L4.13101 8.99268H5.38416V9.54206H4.41231Z" fill="var(--fill-0, white)"/>
<path id="Vector_9" d="M1.05078 14.1875C1.05078 14.1875 1.10043 13.6392 4.1947 13.6392V14.1875C2.68231 14.1875 1.04968 14.4048 1.05078 14.8923V14.1875Z" fill="var(--fill-0, white)"/>
<path id="Vector_10" d="M5.38597 14.1875H4.19238L4.13281 13.6392H5.38597V14.1875Z" fill="var(--fill-0, #952A6E)"/>
<path id="Vector_11" d="M8.58942 5.17383C5.91326 6.84836 4.13281 9.82125 4.13281 13.2111C4.13281 17.3765 6.82114 20.912 10.5563 22.1828C13.5778 20.3372 15.5943 17.0103 15.5943 13.2111C15.5943 9.83121 13.9981 6.82519 11.5194 4.90356L11.1542 5.07013L9.84811 7.93274L8.58942 5.17383Z" fill="var(--fill-0, #A1A1A1)"/>
<path id="Vector_12" d="M17.9961 9.75745C17.9961 10.1248 18.295 10.4226 18.6613 10.4226C19.0275 10.4226 19.3264 10.1236 19.3264 9.75745C19.3264 9.39119 19.0275 9.09229 18.6613 9.09229C18.295 9.09229 17.9961 9.39119 17.9961 9.75745Z" fill="var(--fill-0, white)"/>
<path id="Vector_13" d="M17.9961 16.5647C17.9961 16.9319 18.295 17.2298 18.6613 17.2298C19.0275 17.2298 19.3264 16.9308 19.3264 16.5647C19.3264 16.1984 19.0275 15.8994 18.6613 15.8994C18.295 15.8994 17.9961 16.1984 17.9961 16.5647Z" fill="var(--fill-0, white)"/>
<path id="Vector_14" d="M20.6914 13.1493C20.6914 13.5166 20.9904 13.8145 21.3566 13.8145C21.7228 13.8145 22.0218 13.5155 22.0218 13.1493C22.0218 12.7831 21.7228 12.4841 21.3566 12.4841C20.9904 12.4841 20.6914 12.7831 20.6914 13.1493Z" fill="var(--fill-0, white)"/>
<g id="Vector_15">
<path fill-rule="evenodd" clip-rule="evenodd" d="M15.2202 9.17108C14.8529 9.17108 14.555 8.87209 14.555 8.50584C14.555 8.13966 14.854 7.84068 15.2202 7.84068C15.5865 7.84068 15.8854 8.13966 15.8854 8.50584C15.8854 8.87209 15.5865 9.17108 15.2202 9.17108ZM15.2202 7.00122C14.5363 7.00122 13.9582 7.46009 13.7762 8.08562H5.99034C4.62357 8.05689 3.91425 7.61348 3.91425 7.22074V8.08562C3.91425 8.08562 3.88005 8.83129 5.84473 8.92504H13.7762C13.9582 9.55049 14.5363 10.0105 15.2202 10.0105C16.0498 10.0105 16.7249 9.33544 16.7249 8.50584C16.7249 7.67631 16.0498 7.00122 15.2202 7.00122Z" fill="url(#paint5_linear_0_84)"/>
<path fill-rule="evenodd" clip-rule="evenodd" d="M15.2202 9.17108C14.8529 9.17108 14.555 8.87209 14.555 8.50584C14.555 8.13966 14.854 7.84068 15.2202 7.84068C15.5865 7.84068 15.8854 8.13966 15.8854 8.50584C15.8854 8.87209 15.5865 9.17108 15.2202 9.17108ZM15.2202 7.00122C14.5363 7.00122 13.9582 7.46009 13.7762 8.08562H5.99034C4.62357 8.05689 3.91425 7.61348 3.91425 7.22074V8.08562C3.91425 8.08562 3.88005 8.83129 5.84473 8.92504H13.7762C13.9582 9.55049 14.5363 10.0105 15.2202 10.0105C16.0498 10.0105 16.7249 9.33544 16.7249 8.50584C16.7249 7.67631 16.0498 7.00122 15.2202 7.00122Z" fill="url(#paint6_linear_0_84)"/>
</g>
<path id="Vector_16" fill-rule="evenodd" clip-rule="evenodd" d="M15.2202 18.4578C14.8529 18.4578 14.5551 18.1589 14.5551 17.7926C14.5551 17.4264 14.854 17.1274 15.2202 17.1274C15.5865 17.1274 15.8854 17.4264 15.8854 17.7926C15.8854 18.1589 15.5865 18.4578 15.2202 18.4578ZM15.2202 16.288C14.5363 16.288 13.9583 16.7469 13.7762 17.3724H5.99034C4.62357 17.3437 3.91425 16.9002 3.91425 16.5075V17.3724C3.91425 17.3724 3.88005 18.1081 5.84473 18.2019V18.2118H13.7762C13.9583 18.8373 14.5363 19.2962 15.2202 19.2962C16.0498 19.2962 16.7249 18.6211 16.7249 17.7915C16.7249 16.962 16.0498 16.2869 15.2202 16.2869V16.288Z" fill="url(#paint7_linear_0_84)"/>
<path id="Vector_17" fill-rule="evenodd" clip-rule="evenodd" d="M16.8119 13.8146C16.4446 13.8146 16.1468 13.5157 16.1468 13.1494C16.1468 12.7832 16.4457 12.4843 16.8119 12.4843C17.1782 12.4843 17.4771 12.7832 17.4771 13.1494C17.4771 13.5157 17.1782 13.8146 16.8119 13.8146ZM16.8119 11.6448C16.128 11.6448 15.55 12.1037 15.3679 12.7302H4.68082C3.12872 12.7611 2.32343 12.2835 2.32343 11.8654V12.7302C2.32343 12.7302 2.28703 13.5245 4.49108 13.5675V13.5697H15.3679C15.55 14.1952 16.128 14.6541 16.8119 14.6541C17.6415 14.6541 18.3166 13.979 18.3166 13.1494C18.3166 12.3199 17.6415 11.6448 16.8119 11.6448Z" fill="var(--fill-0, #F7F7F7)"/>
<path id="Vector_18" d="M12.3551 11.4947C11.9878 11.4947 11.6899 11.1957 11.6899 10.8295C11.6899 10.4633 11.9889 10.1643 12.3551 10.1643C12.7213 10.1643 13.0203 10.4633 13.0203 10.8295C13.0203 11.1957 12.7213 11.4947 12.3551 11.4947ZM12.3551 9.32482C11.6711 9.32482 11.0931 9.78373 10.9111 10.4092H3.45176C1.89965 10.4401 1.04914 9.96024 1.04914 9.54213V10.407C1.04914 10.407 0.988472 11.1979 3.20134 11.2442V11.2487H10.91C11.092 11.8741 11.6701 12.333 12.354 12.333C13.1836 12.333 13.8587 11.6579 13.8587 10.8284C13.8587 9.99886 13.1836 9.32373 12.354 9.32373L12.3551 9.32482Z" fill="var(--fill-0, white)"/>
<path id="Vector_19" d="M12.3551 16.1371C11.9877 16.1371 11.6899 15.8381 11.6899 15.4719C11.6899 15.1057 11.9888 14.8067 12.3551 14.8067C12.7213 14.8067 13.0203 15.1057 13.0203 15.4719C13.0203 15.8381 12.7213 16.1371 12.3551 16.1371ZM12.3551 13.9673C11.6712 13.9673 11.0931 14.4262 10.9111 15.0527H3.10758C1.775 15.0119 1.04914 14.574 1.04914 14.189V15.0538C1.04914 15.0538 0.988463 15.847 3.21348 15.8911V15.8933H3.36902C3.38226 15.8933 3.39329 15.8933 3.40653 15.8933H10.91C11.092 16.5188 11.6701 16.9788 12.354 16.9788C13.1835 16.9788 13.8587 16.3036 13.8587 15.4741C13.8587 14.6446 13.1835 13.9695 12.354 13.9695L12.3551 13.9673Z" fill="var(--fill-0, white)"/>
<path id="Vector_20" fill-rule="evenodd" clip-rule="evenodd" d="M8.89732 2.81108L6.8146 3.76307L8.89732 4.71506L9.84932 6.79885L10.8002 4.71506L12.8829 3.76307L10.8002 2.81108L9.84932 0.727295L8.89732 2.81108Z" fill="var(--fill-0, white)"/>
<path id="Vector_21" fill-rule="evenodd" clip-rule="evenodd" d="M22.2174 20.6022L20.8009 21.2497L22.2174 21.8972L22.8649 23.3147L23.5113 21.8972L24.9278 21.2497L23.5113 20.6022L22.8649 19.1858L22.2174 20.6022Z" fill="var(--fill-0, white)"/>
<path id="Vector_22" d="M17.9973 2.45348C17.9973 2.73367 17.7701 2.96092 17.4898 2.96092C17.2097 2.96092 16.9824 2.73367 16.9824 2.45348C16.9824 2.17329 17.2097 1.94604 17.4898 1.94604C17.7701 1.94604 17.9973 2.17329 17.9973 2.45348Z" fill="var(--fill-0, white)"/>
<path id="Vector_23" d="M9.02042 23.0805C9.02042 23.5879 8.60893 23.9994 8.10151 23.9994C7.59409 23.9994 7.18262 23.5879 7.18262 23.0805C7.18262 22.573 7.59409 22.1616 8.10151 22.1616C8.60893 22.1616 9.02042 22.573 9.02042 23.0805Z" fill="var(--fill-0, white)"/>
<path id="Vector_24" d="M25.3241 16.5656C25.3241 16.9925 24.9777 17.34 24.5508 17.34C24.1239 17.34 23.7775 16.9936 23.7775 16.5656C23.7775 16.1376 24.1239 15.7912 24.5508 15.7912C24.9777 15.7912 25.3241 16.1376 25.3241 16.5656Z" fill="var(--fill-0, white)"/>
<path id="Vector_25" d="M0.998535 12.2406C0.998535 12.4955 0.792252 12.7017 0.537428 12.7017C0.282606 12.7017 0.0763206 12.4955 0.0763206 12.2406C0.0763206 11.9858 0.282606 11.7795 0.537428 11.7795C0.792252 11.7795 0.998535 11.9858 0.998535 12.2406Z" fill="var(--fill-0, white)"/>
</g>
<defs>
<linearGradient id="paint0_linear_0_84" x1="138.306" y1="21.9205" x2="84.5392" y2="22.1651" gradientUnits="userSpaceOnUse">
<stop stop-color="#A5A5A5"/>
<stop offset="0.64" stop-color="white"/>
</linearGradient>
<linearGradient id="paint1_linear_0_84" x1="-6.89315" y1="7.27843" x2="-6.78284" y2="7.27843" gradientUnits="userSpaceOnUse">
<stop stop-color="#061713"/>
<stop offset="0.18" stop-color="#0F2722"/>
<stop offset="0.54" stop-color="#28524C"/>
<stop offset="1" stop-color="#4E9289"/>
</linearGradient>
<linearGradient id="paint2_linear_0_84" x1="7.29014" y1="7.27859" x2="4.05879" y2="7.27859" gradientUnits="userSpaceOnUse">
<stop/>
<stop offset="0.18"/>
<stop offset="0.54" stop-color="#343434"/>
<stop offset="1" stop-color="#525252"/>
</linearGradient>
<linearGradient id="paint3_linear_0_84" x1="7.29014" y1="16.5657" x2="4.05879" y2="16.5657" gradientUnits="userSpaceOnUse">
<stop/>
<stop offset="0.18"/>
<stop offset="0.54" stop-color="#343434"/>
<stop offset="1" stop-color="#525252"/>
</linearGradient>
<linearGradient id="paint4_linear_0_84" x1="5.69932" y1="11.9222" x2="2.46797" y2="11.9222" gradientUnits="userSpaceOnUse">
<stop/>
<stop offset="0.18"/>
<stop offset="0.54" stop-color="#343434"/>
<stop offset="1" stop-color="#525252"/>
</linearGradient>
<linearGradient id="paint5_linear_0_84" x1="17.3901" y1="8.50584" x2="5.81053" y2="8.50584" gradientUnits="userSpaceOnUse">
<stop stop-color="#061713"/>
<stop offset="0.18" stop-color="#0F2722"/>
<stop offset="0.54" stop-color="#28524C"/>
<stop offset="1" stop-color="#4E9289"/>
</linearGradient>
<linearGradient id="paint6_linear_0_84" x1="17.6702" y1="8.50695" x2="4.50333" y2="8.50695" gradientUnits="userSpaceOnUse">
<stop/>
<stop offset="0.18"/>
<stop offset="0.54" stop-color="#343434"/>
<stop offset="1" stop-color="#525252"/>
</linearGradient>
<linearGradient id="paint7_linear_0_84" x1="17.6703" y1="17.7926" x2="4.50333" y2="17.7926" gradientUnits="userSpaceOnUse">
<stop/>
<stop offset="0.18"/>
<stop offset="0.54" stop-color="#343434"/>
<stop offset="1" stop-color="#525252"/>
</linearGradient>
<clipPath id="clip0_0_84">
<rect width="138.909" height="24" fill="white"/>
</clipPath>
</defs>
</svg>
