<svg width="113" height="20" viewBox="0 0 113 20" fill="none" xmlns="http://www.w3.org/2000/svg">
<g clip-path="url(#clip0_0_236)">
<path d="M21.9606 15.2367L18.3637 19.062C18.2855 19.1451 18.1909 19.2114 18.0858 19.2567C17.9807 19.302 17.8673 19.3254 17.7527 19.3254H0.696138C0.614755 19.3254 0.535142 19.3018 0.467086 19.2576C0.399031 19.2133 0.3455 19.1504 0.313061 19.0764C0.280622 19.0024 0.270691 18.9206 0.284492 18.8411C0.298294 18.7616 0.335221 18.6878 0.390743 18.6288L3.9877 14.8035C4.06587 14.7204 4.16045 14.6541 4.26557 14.6088C4.37069 14.5635 4.48409 14.5401 4.59872 14.5401H21.6552C21.7366 14.5401 21.8162 14.5637 21.8843 14.6079C21.9523 14.6521 22.0059 14.7151 22.0383 14.7891C22.0708 14.8631 22.0807 14.9449 22.0669 15.0244C22.0531 15.1039 22.0162 15.1777 21.9606 15.2367ZM18.3637 7.53346C18.2855 7.45034 18.1909 7.38406 18.0858 7.33874C17.9807 7.29342 17.8673 7.27003 17.7527 7.27003H0.696138C0.614755 7.27003 0.535142 7.29361 0.467086 7.33785C0.399031 7.3821 0.3455 7.4451 0.313061 7.51909C0.280622 7.59309 0.270691 7.67487 0.284492 7.75438C0.298294 7.8339 0.335221 7.90768 0.390743 7.96667L3.9877 11.792C4.06587 11.8751 4.16045 11.9414 4.26557 11.9867C4.37069 12.032 4.48409 12.0554 4.59872 12.0554H21.6552C21.7365 12.0553 21.8159 12.0316 21.8839 11.9874C21.9518 11.9432 22.0052 11.8803 22.0376 11.8065C22.07 11.7326 22.08 11.651 22.0663 11.5716C22.0527 11.4922 22.0159 11.4185 21.9606 11.3594L18.3637 7.53346ZM0.6973 4.78534H17.7538C17.8685 4.78534 17.9818 4.76195 18.087 4.71663C18.1921 4.67131 18.2867 4.60504 18.3648 4.52192L21.9618 0.696639C22.0173 0.637648 22.0542 0.563852 22.068 0.484337C22.0818 0.404823 22.0719 0.323046 22.0395 0.249049C22.007 0.175052 21.9535 0.112068 21.8855 0.067823C21.8174 0.023578 21.7378 2.72476e-06 21.6564 0H4.59988C4.48525 1.71441e-06 4.37185 0.0233889 4.26673 0.0687076C4.16162 0.114026 4.06703 0.180311 3.98886 0.263428L0.391904 4.0887C0.33645 4.14762 0.299544 4.22131 0.285703 4.30072C0.271863 4.38013 0.281693 4.46182 0.313989 4.53577C0.346285 4.60972 0.399638 4.67272 0.467518 4.71705C0.535399 4.76138 0.614853 4.78511 0.696138 4.78534H0.6973Z" fill="black"/>
</g>
<g clip-path="url(#clip1_0_236)">
<path d="M30.3455 4.54705H34.7225V5.99684H28.7198V7.54569H34.6507C35.0802 7.54523 35.492 7.3744 35.7958 7.0707C36.0995 6.76699 36.2704 6.3552 36.2709 5.92567V4.61844C36.2704 4.18889 36.0995 3.77708 35.7958 3.47334C35.4921 3.16959 35.0803 2.99872 34.6507 2.9982H30.2734V1.54841H36.2703V0H30.3444C29.9149 0.00046505 29.5031 0.171289 29.1993 0.474995C28.8956 0.778702 28.7247 1.19049 28.7242 1.62002V2.92725C28.7248 3.35692 28.8959 3.76878 29.1998 4.07246C29.5038 4.37614 29.9158 4.54682 30.3455 4.54705Z" fill="black"/>
<path d="M43.877 0H39.264C38.8345 0.000465158 38.4227 0.171296 38.119 0.475009C37.8153 0.778722 37.6445 1.19051 37.644 1.62002V5.92545C37.6445 6.35496 37.8153 6.76675 38.119 7.07046C38.4227 7.37418 38.8345 7.54501 39.264 7.54547H43.877C44.3065 7.54501 44.7183 7.37418 45.0221 7.07048C45.3258 6.76677 45.4967 6.35498 45.4972 5.92545V1.62002C45.4967 1.19049 45.3258 0.778702 45.0221 0.474995C44.7183 0.171289 44.3065 0.00046505 43.877 0ZM43.9484 1.54885V5.99684H39.1922V1.54841L43.9484 1.54885Z" fill="black"/>
<path d="M47.8964 7.54613H54.2838V5.99684H48.4407V0H46.8921V6.54117C46.8924 6.8075 46.9983 7.06284 47.1865 7.25123C47.3748 7.43961 47.6301 7.54566 47.8964 7.54613Z" fill="black"/>
<path d="M62.197 0H56.969C56.621 0.000407057 56.2873 0.138849 56.0413 0.384949C55.7952 0.631049 55.6568 0.964705 55.6565 1.31271V7.54613H57.2051V5.08589H61.9613V7.54613H63.5102V1.31271C63.5098 0.964609 63.3712 0.630884 63.1251 0.384778C62.8789 0.138672 62.5451 0.000290673 62.197 0ZM61.9609 1.54885V3.53704H57.2047V1.54885H61.9609Z" fill="black"/>
<path d="M71.1868 5.99684H70.8988L67.9931 0.532905C67.9076 0.371832 67.7799 0.237101 67.6236 0.143203C67.4673 0.0493056 67.2884 -0.000204871 67.1061 6.3717e-07H65.8874C65.6209 0.000349482 65.3654 0.10637 65.177 0.294809C64.9887 0.483249 64.8827 0.738722 64.8824 1.00519V7.54613H66.431V1.54929H66.7805L69.6849 7.01323C69.7703 7.17445 69.8981 7.30931 70.0545 7.40329C70.2109 7.49728 70.3899 7.54681 70.5724 7.54657H71.7309C71.9973 7.54628 72.2528 7.44031 72.4412 7.25191C72.6297 7.06352 72.7357 6.80807 72.7361 6.54161V6.3717e-07H71.1872L71.1868 5.99684Z" fill="black"/>
<path d="M80.776 0H75.548C75.2 0.000407057 74.8663 0.138849 74.6203 0.384949C74.3742 0.631049 74.2358 0.964705 74.2355 1.31271V7.54613H75.7843V5.08589H80.5403V7.54613H82.0891V1.31271C82.0888 0.964591 81.9503 0.630833 81.7041 0.384714C81.4579 0.138596 81.1241 0.000232605 80.776 0ZM80.5396 1.54885V3.53704H75.7828V1.54885H80.5396Z" fill="black"/>
<path d="M28.7197 19.3249H30.2684V16.3263H36.1119V14.7774H30.2684V13.3277H36.1119V11.7788H28.7197V19.3249Z" fill="black"/>
<path d="M43.7131 11.7788H39.1002C38.6705 11.7792 38.2584 11.95 37.9546 12.2539C37.6507 12.5577 37.4798 12.9698 37.4795 13.3995V17.7049C37.48 18.1345 37.6508 18.5463 37.9546 18.85C38.2584 19.1537 38.6702 19.3245 39.0998 19.3249H43.7127C44.1422 19.3245 44.554 19.1536 44.8577 18.8499C45.1614 18.5462 45.3323 18.1344 45.3327 17.7049V13.3995C45.3324 12.97 45.1617 12.5581 44.858 12.2543C44.5544 11.9504 44.1427 11.7794 43.7131 11.7788ZM43.7843 13.3277V17.7761H39.0281V13.3277H43.7843Z" fill="black"/>
<path d="M53.0102 16.4748C53.0098 16.8199 52.8725 17.1507 52.6285 17.3947C52.3844 17.6387 52.0536 17.776 51.7085 17.7763H49.5549C49.2099 17.7757 48.8792 17.6384 48.6354 17.3944C48.3915 17.1505 48.2543 16.8198 48.2538 16.4748V11.7788H46.7054V16.7823C46.7061 17.4563 46.9742 18.1025 47.4507 18.5792C47.9272 19.0558 48.5733 19.324 49.2473 19.3249H52.0151C52.6894 19.3244 53.336 19.0564 53.8129 18.5797C54.2898 18.103 54.5582 17.4566 54.5591 16.7823V11.7788H53.0102V16.4748Z" fill="black"/>
<path d="M62.2361 17.7761H61.9481L59.0424 12.3119C58.9569 12.1508 58.8291 12.016 58.6728 11.9221C58.5164 11.8281 58.3374 11.7786 58.1549 11.7788H56.9356C56.6691 11.7792 56.4137 11.8852 56.2253 12.0736C56.0369 12.2621 55.9309 12.5175 55.9306 12.784V19.3249H57.479V13.3281H57.8285L60.7331 18.792C60.8185 18.9533 60.9463 19.0882 61.1027 19.1821C61.2591 19.2761 61.4381 19.3256 61.6206 19.3254H62.7789C63.0454 19.3251 63.3009 19.2192 63.4894 19.0308C63.6779 18.8424 63.7839 18.5869 63.7843 18.3204V11.7788H62.2354L62.2361 17.7761Z" fill="black"/>
<path d="M70.4669 11.7788H65.1563V19.3249H70.4669C71.1412 19.3244 71.7878 19.0564 72.2647 18.5797C72.7416 18.103 73.01 17.4566 73.0108 16.7823V14.3221C73.0101 13.6477 72.7419 13.0011 72.2649 12.5243C71.788 12.0474 71.1413 11.7793 70.4669 11.7788ZM66.7049 13.3277H70.1596C70.5047 13.3281 70.8355 13.4653 71.0794 13.7093C71.3234 13.9533 71.4607 14.2841 71.4611 14.6292V16.4748C71.4607 16.8199 71.3234 17.1507 71.0794 17.3947C70.8355 17.6386 70.5047 17.7759 70.1596 17.7763H66.7049V13.3277Z" fill="black"/>
<path d="M80.9241 11.7788H75.6949C75.3469 11.7792 75.0133 11.9177 74.7672 12.1638C74.5212 12.4099 74.3828 12.7435 74.3824 13.0915V19.3249H75.9311V16.8647H80.6873V19.3249H82.2361V13.092C82.2358 12.744 82.0975 12.4103 81.8515 12.1641C81.6056 11.918 81.272 11.7794 80.9241 11.7788ZM80.6879 13.3277V15.3158H75.9317V13.3277H80.6879Z" fill="black"/>
<path d="M83.609 13.3277H86.6076V19.3249H88.1565V13.3277H91.1549V11.7788H83.609V13.3277Z" fill="black"/>
<path d="M94.1529 11.7788H92.6043V19.3249H94.1529V11.7788Z" fill="black"/>
<path d="M101.924 11.7788H97.3112C96.8815 11.7792 96.4695 11.95 96.1656 12.2539C95.8617 12.5577 95.6909 12.9698 95.6905 13.3995V17.7049C95.691 18.1345 95.8619 18.5463 96.1656 18.85C96.4694 19.1537 96.8812 19.3245 97.3108 19.3249H101.924C102.353 19.3245 102.765 19.1536 103.069 18.8499C103.372 18.5462 103.543 18.1344 103.544 17.7049V13.3995C103.543 12.97 103.373 12.5581 103.069 12.2543C102.765 11.9504 102.354 11.7794 101.924 11.7788ZM101.995 13.3277V17.7761H97.2392V13.3277H101.995Z" fill="black"/>
<path d="M111.221 11.7788V17.7756H110.933L108.028 12.3122C107.942 12.1509 107.814 12.016 107.658 11.9221C107.502 11.8281 107.323 11.7785 107.14 11.7788H105.921C105.654 11.7792 105.399 11.8852 105.21 12.0736C105.022 12.2621 104.916 12.5175 104.916 12.784V19.3249H106.464V13.3281H106.814L109.718 18.792C109.804 18.9532 109.932 19.088 110.088 19.182C110.244 19.276 110.423 19.3256 110.606 19.3254H111.764C112.031 19.3251 112.286 19.2191 112.475 19.0307C112.663 18.8423 112.769 18.5869 112.769 18.3204V11.7788H111.221Z" fill="black"/>
</g>
<defs>
<clipPath id="clip0_0_236">
<rect width="22.2779" height="19.3254" fill="white"/>
</clipPath>
<clipPath id="clip1_0_236">
<rect width="84.2803" height="19.3254" fill="white" transform="translate(28.7197)"/>
</clipPath>
</defs>
</svg>
