<svg xmlns="http://www.w3.org/2000/svg" viewBox="0 0 1200 630" role="img" aria-label="Breakpoint 2026">
  <defs>
    <linearGradient id="bg" x1="0%" x2="100%" y1="0%" y2="100%">
      <stop offset="0%" stop-color="#12091b" />
      <stop offset="45%" stop-color="#2c1247" />
      <stop offset="100%" stop-color="#0d2234" />
    </linearGradient>
    <radialGradient id="orb" cx="30%" cy="25%" r="55%">
      <stop offset="0%" stop-color="#c9ff7c" stop-opacity="0.85" />
      <stop offset="40%" stop-color="#59b8fe" stop-opacity="0.24" />
      <stop offset="100%" stop-color="#ab66fd" stop-opacity="0" />
    </radialGradient>
  </defs>
  <rect width="1200" height="630" fill="url(#bg)" />
  <rect width="1200" height="630" fill="url(#orb)" />
  <g fill="none" stroke="rgba(231,210,249,0.16)">
    <path d="M0 84h1200M0 168h1200M0 252h1200M0 336h1200M0 420h1200M0 504h1200" />
    <path d="M84 0v630M168 0v630M252 0v630M336 0v630M420 0v630M504 0v630M588 0v630M672 0v630M756 0v630M840 0v630M924 0v630M1008 0v630M1092 0v630" />
  </g>
  <text x="84" y="168" fill="#c9ff7c" font-family="monospace" font-size="24" letter-spacing="6">SOLANA FLAGSHIP EVENT</text>
  <text x="84" y="330" fill="#ffffff" font-family="serif" font-size="128">Breakpoint 2026</text>
  <text x="84" y="410" fill="#e7d2f9" font-family="sans-serif" font-size="34">November 15-17 at Olympia London</text>
</svg>
