<svg width="1733" height="650" viewBox="0 0 1733 650" fill="none" xmlns="http://www.w3.org/2000/svg">
<rect x="10" y="10" width="110" height="110" rx="20" fill="#111114"/>
<rect x="130" y="10" width="110" height="110" rx="20" fill="#111114"/>
<rect x="250" y="10" width="110" height="110" rx="20" fill="#111114"/>
<rect x="370" y="10" width="110" height="110" rx="20" fill="#111114"/>
<rect x="490" y="10" width="110" height="110" rx="20" fill="#111114"/>
<rect x="610" y="10" width="110" height="110" rx="20" fill="#111114"/>
<rect x="730" y="10" width="110" height="110" rx="20" fill="#111114"/>
<rect x="850" y="10" width="110" height="110" rx="20" fill="#111114"/>
<rect x="970" y="10" width="110" height="110" rx="20" fill="#111114"/>
<rect x="1090" y="10" width="110" height="110" rx="20" fill="#111114"/>
<rect x="1210" y="10" width="110" height="110" rx="20" fill="#111114"/>
<rect x="1330" y="10" width="110" height="110" rx="20" fill="#111114"/>
<rect x="1450" y="10" width="110" height="110" rx="20" fill="#111114"/>
<rect x="1570" y="10" width="153" height="110" rx="20" fill="#111114"/>
<path d="M173.588 127.281C172.087 124.747 168.815 123.91 166.281 125.412C163.747 126.913 162.91 130.185 164.412 132.719C165.913 135.253 169.185 136.09 171.719 134.588C174.253 133.087 175.09 129.815 173.588 127.281ZM277 66L276.49 65.1397L168.49 129.14L169 130L169.51 130.86L277.51 66.8603L277 66Z" fill="#D45CFF"/>
<path d="M374 67L384 71.7735V60.2265L374 65V67ZM375 66V65L277 65V66V67L375 67V66Z" fill="#D45CFF"/>
<path d="M416.508 63.6016H413.086C413.023 63.1589 412.896 62.7656 412.703 62.4219C412.51 62.0729 412.263 61.776 411.961 61.5312C411.659 61.2865 411.31 61.099 410.914 60.9687C410.523 60.8385 410.099 60.7734 409.641 60.7734C408.813 60.7734 408.091 60.9792 407.477 61.3906C406.862 61.7969 406.385 62.3906 406.047 63.1719C405.708 63.9479 405.539 64.8906 405.539 66C405.539 67.1406 405.708 68.099 406.047 68.875C406.391 69.651 406.87 70.237 407.484 70.6328C408.099 71.0286 408.81 71.2266 409.617 71.2266C410.07 71.2266 410.49 71.1667 410.875 71.0469C411.266 70.9271 411.612 70.7526 411.914 70.5234C412.216 70.2891 412.466 70.0052 412.664 69.6719C412.867 69.3385 413.008 68.9583 413.086 68.5312L416.508 68.5469C416.419 69.2812 416.198 69.9896 415.844 70.6719C415.495 71.349 415.023 71.9557 414.43 72.4922C413.841 73.0234 413.138 73.4453 412.32 73.7578C411.508 74.0651 410.589 74.2187 409.563 74.2187C408.135 74.2187 406.859 73.8958 405.734 73.25C404.615 72.6042 403.729 71.6693 403.078 70.4453C402.432 69.2214 402.109 67.7396 402.109 66C402.109 64.2552 402.438 62.7708 403.094 61.5469C403.75 60.3229 404.641 59.3906 405.766 58.75C406.891 58.1042 408.156 57.7812 409.563 57.7812C410.49 57.7812 411.349 57.9115 412.141 58.1719C412.938 58.4323 413.643 58.8125 414.258 59.3125C414.872 59.8073 415.372 60.4141 415.758 61.1328C416.148 61.8516 416.398 62.6745 416.508 63.6016ZM418.934 74V58H425.246C426.454 58 427.486 58.2161 428.34 58.6484C429.199 59.0755 429.853 59.6823 430.301 60.4688C430.754 61.25 430.98 62.1693 430.98 63.2266C430.98 64.2891 430.751 65.2031 430.293 65.9687C429.835 66.7292 429.171 67.3125 428.301 67.7187C427.436 68.125 426.389 68.3281 425.16 68.3281H420.934V65.6094H424.613C425.259 65.6094 425.796 65.5208 426.223 65.3438C426.65 65.1667 426.967 64.901 427.176 64.5469C427.389 64.1927 427.496 63.7526 427.496 63.2266C427.496 62.6953 427.389 62.2474 427.176 61.8828C426.967 61.5182 426.647 61.2422 426.215 61.0547C425.788 60.862 425.249 60.7656 424.598 60.7656H422.316V74H418.934ZM427.574 66.7188L431.551 74H427.816L423.926 66.7188H427.574ZM433.371 74V58H444.152V60.7891H436.754V64.6016H443.598V67.3906H436.754V71.2109H444.184V74H433.371ZM449.6 74H445.975L451.498 58H455.857L461.373 74H457.748L453.74 61.6562H453.615L449.6 74ZM449.373 67.7109H457.936V70.3516H449.373V67.7109ZM460.734 60.7891V58H473.875V60.7891H468.977V74H465.633V60.7891H460.734ZM476.039 74V58H486.82V60.7891H479.422V64.6016H486.266V67.3906H479.422V71.2109H486.852V74H476.039ZM494.602 74V58H501.008C502.185 58 503.167 58.1745 503.953 58.5234C504.74 58.8724 505.331 59.3568 505.727 59.9766C506.122 60.5911 506.32 61.2995 506.32 62.1016C506.32 62.7266 506.195 63.276 505.945 63.75C505.695 64.2187 505.352 64.6042 504.914 64.9062C504.482 65.2031 503.987 65.4141 503.43 65.5391V65.6953C504.039 65.7214 504.609 65.8932 505.141 66.2109C505.677 66.5286 506.112 66.974 506.445 67.5469C506.779 68.1146 506.945 68.7917 506.945 69.5781C506.945 70.4271 506.734 71.1849 506.312 71.8516C505.896 72.513 505.279 73.0365 504.461 73.4219C503.643 73.8073 502.635 74 501.437 74H494.602ZM497.984 71.2344H500.742C501.685 71.2344 502.372 71.0547 502.805 70.6953C503.237 70.3307 503.453 69.8464 503.453 69.2422C503.453 68.7995 503.346 68.4089 503.133 68.0703C502.919 67.7318 502.615 67.4661 502.219 67.2734C501.828 67.0807 501.362 66.9844 500.82 66.9844H497.984V71.2344ZM497.984 64.6953H500.492C500.956 64.6953 501.367 64.6146 501.727 64.4531C502.091 64.2865 502.378 64.0521 502.586 63.75C502.799 63.4479 502.906 63.0859 502.906 62.6641C502.906 62.0859 502.701 61.6198 502.289 61.2656C501.883 60.9115 501.305 60.7344 500.555 60.7344H497.984V64.6953ZM509.146 74V58H512.529V71.2109H519.389V74H509.146ZM535.709 66C535.709 67.7448 535.378 69.2292 534.717 70.4531C534.061 71.6771 533.165 72.612 532.029 73.2578C530.899 73.8984 529.628 74.2187 528.217 74.2187C526.795 74.2187 525.519 73.8958 524.389 73.25C523.258 72.6042 522.365 71.6693 521.709 70.4453C521.053 69.2214 520.725 67.7396 520.725 66C520.725 64.2552 521.053 62.7708 521.709 61.5469C522.365 60.3229 523.258 59.3906 524.389 58.75C525.519 58.1042 526.795 57.7812 528.217 57.7812C529.628 57.7812 530.899 58.1042 532.029 58.75C533.165 59.3906 534.061 60.3229 534.717 61.5469C535.378 62.7708 535.709 64.2552 535.709 66ZM532.279 66C532.279 64.8698 532.11 63.9167 531.771 63.1406C531.438 62.3646 530.967 61.776 530.357 61.375C529.748 60.974 529.035 60.7734 528.217 60.7734C527.399 60.7734 526.686 60.974 526.076 61.375C525.467 61.776 524.993 62.3646 524.654 63.1406C524.321 63.9167 524.154 64.8698 524.154 66C524.154 67.1302 524.321 68.0833 524.654 68.8594C524.993 69.6354 525.467 70.224 526.076 70.625C526.686 71.026 527.399 71.2266 528.217 71.2266C529.035 71.2266 529.748 71.026 530.357 70.625C530.967 70.224 531.438 69.6354 531.771 68.8594C532.11 68.0833 532.279 67.1302 532.279 66ZM552.332 63.6016H548.91C548.848 63.1589 548.72 62.7656 548.527 62.4219C548.335 62.0729 548.087 61.776 547.785 61.5312C547.483 61.2865 547.134 61.099 546.738 60.9687C546.348 60.8385 545.923 60.7734 545.465 60.7734C544.637 60.7734 543.915 60.9792 543.301 61.3906C542.686 61.7969 542.21 62.3906 541.871 63.1719C541.533 63.9479 541.363 64.8906 541.363 66C541.363 67.1406 541.533 68.099 541.871 68.875C542.215 69.651 542.694 70.237 543.309 70.6328C543.923 71.0286 544.634 71.2266 545.441 71.2266C545.895 71.2266 546.314 71.1667 546.699 71.0469C547.09 70.9271 547.436 70.7526 547.738 70.5234C548.04 70.2891 548.29 70.0052 548.488 69.6719C548.691 69.3385 548.832 68.9583 548.91 68.5312L552.332 68.5469C552.243 69.2812 552.022 69.9896 551.668 70.6719C551.319 71.349 550.848 71.9557 550.254 72.4922C549.665 73.0234 548.962 73.4453 548.145 73.7578C547.332 74.0651 546.413 74.2187 545.387 74.2187C543.96 74.2187 542.684 73.8958 541.559 73.25C540.439 72.6042 539.553 71.6693 538.902 70.4453C538.257 69.2214 537.934 67.7396 537.934 66C537.934 64.2552 538.262 62.7708 538.918 61.5469C539.574 60.3229 540.465 59.3906 541.59 58.75C542.715 58.1042 543.98 57.7812 545.387 57.7812C546.314 57.7812 547.173 57.9115 547.965 58.1719C548.762 58.4323 549.467 58.8125 550.082 59.3125C550.697 59.8073 551.197 60.4141 551.582 61.1328C551.973 61.8516 552.223 62.6745 552.332 63.6016ZM554.758 74V58H558.141V65.0547H558.352L564.109 58H568.164L562.227 65.1641L568.234 74H564.188L559.805 67.4219L558.141 69.4531V74H554.758Z" fill="#D45CFF"/>
<rect width="110" height="110" rx="20" transform="matrix(-1 0 0 1 1723 140)" fill="#111114"/>
<rect width="110" height="110" rx="20" transform="matrix(-1 0 0 1 1603 140)" fill="#111114"/>
<rect width="110" height="110" rx="20" transform="matrix(-1 0 0 1 1483 140)" fill="#111114"/>
<rect width="110" height="110" rx="20" transform="matrix(-1 0 0 1 1363 140)" fill="#111114"/>
<rect width="110" height="110" rx="20" transform="matrix(-1 0 0 1 1243 140)" fill="#111114"/>
<rect width="110" height="110" rx="20" transform="matrix(-1 0 0 1 1123 140)" fill="#111114"/>
<rect width="110" height="110" rx="20" transform="matrix(-1 0 0 1 1003 140)" fill="#111114"/>
<rect width="110" height="110" rx="20" transform="matrix(-1 0 0 1 883 140)" fill="#111114"/>
<rect width="110" height="110" rx="20" transform="matrix(-1 0 0 1 763 140)" fill="#111114"/>
<rect width="110" height="110" rx="20" transform="matrix(-1 0 0 1 643 140)" fill="#111114"/>
<rect width="110" height="110" rx="20" transform="matrix(-1 0 0 1 523 140)" fill="#111114"/>
<rect width="110" height="110" rx="20" transform="matrix(-1 0 0 1 403 140)" fill="#111114"/>
<rect width="110" height="110" rx="20" transform="matrix(-1 0 0 1 283 140)" fill="#111114"/>
<rect width="153" height="110" rx="20" transform="matrix(-1 0 0 1 163 140)" fill="#D45CFF"/>
<path d="M28.4929 209.588V206.545H42.8281V209.588H37.4844V224H33.8366V209.588H28.4929ZM46.0646 224H42.1101L48.1357 206.545H52.8913L58.9084 224H54.9538L50.5817 210.534H50.4453L46.0646 224ZM45.8175 217.139H55.1584V220.02H45.8175V217.139ZM61.0092 224V206.545H67.9979C69.282 206.545 70.353 206.736 71.2109 207.116C72.0689 207.497 72.7138 208.026 73.1456 208.702C73.5774 209.372 73.7933 210.145 73.7933 211.02C73.7933 211.702 73.657 212.301 73.3842 212.818C73.1115 213.33 72.7365 213.75 72.2592 214.08C71.7876 214.403 71.2479 214.634 70.6399 214.77V214.94C71.3047 214.969 71.9268 215.156 72.5064 215.503C73.0916 215.849 73.5661 216.335 73.9297 216.96C74.2933 217.58 74.4751 218.318 74.4751 219.176C74.4751 220.102 74.245 220.929 73.7848 221.656C73.3303 222.378 72.657 222.949 71.7649 223.369C70.8729 223.79 69.7734 224 68.4666 224H61.0092ZM64.6996 220.983H67.7081C68.7365 220.983 69.4865 220.787 69.9581 220.395C70.4297 219.997 70.6655 219.469 70.6655 218.81C70.6655 218.327 70.549 217.901 70.3161 217.531C70.0831 217.162 69.7507 216.872 69.3189 216.662C68.8928 216.452 68.3842 216.347 67.7933 216.347H64.6996V220.983ZM64.6996 213.849H67.4354C67.9411 213.849 68.3899 213.761 68.782 213.585C69.1797 213.403 69.4922 213.148 69.7195 212.818C69.9524 212.489 70.0689 212.094 70.0689 211.634C70.0689 211.003 69.8445 210.494 69.3956 210.108C68.9524 209.722 68.3217 209.528 67.5036 209.528H64.6996V213.849Z" fill="#111114"/>
<path d="M692.588 264.281C691.087 261.747 687.815 260.91 685.281 262.412C682.747 263.913 681.91 267.185 683.412 269.719C684.913 272.253 688.185 273.09 690.719 271.588C693.253 270.087 694.09 266.815 692.588 264.281ZM796 203L795.49 202.14L687.49 266.14L688 267L688.51 267.86L796.51 203.86L796 203Z" fill="#D45CFF"/>
<path d="M1052.59 264.281C1051.09 261.747 1047.82 260.91 1045.28 262.412C1042.75 263.913 1041.91 267.185 1043.41 269.719C1044.91 272.253 1048.18 273.09 1050.72 271.588C1053.25 270.087 1054.09 266.815 1052.59 264.281ZM1156 203L1155.49 202.14L1047.49 266.14L1048 267L1048.51 267.86L1156.51 203.86L1156 203Z" fill="#D45CFF"/>
<path d="M1220 204L1230 208.774V197.226L1220 202V204ZM1221 203V202L796 202V203V204L1221 204V203Z" fill="#D45CFF"/>
<path d="M1244.39 211V195H1250.8C1251.97 195 1252.96 195.174 1253.74 195.523C1254.53 195.872 1255.12 196.357 1255.52 196.977C1255.91 197.591 1256.11 198.299 1256.11 199.102C1256.11 199.727 1255.98 200.276 1255.73 200.75C1255.48 201.219 1255.14 201.604 1254.7 201.906C1254.27 202.203 1253.78 202.414 1253.22 202.539V202.695C1253.83 202.721 1254.4 202.893 1254.93 203.211C1255.47 203.529 1255.9 203.974 1256.23 204.547C1256.57 205.115 1256.73 205.792 1256.73 206.578C1256.73 207.427 1256.52 208.185 1256.1 208.852C1255.68 209.513 1255.07 210.036 1254.25 210.422C1253.43 210.807 1252.42 211 1251.23 211H1244.39ZM1247.77 208.234H1250.53C1251.47 208.234 1252.16 208.055 1252.59 207.695C1253.03 207.331 1253.24 206.846 1253.24 206.242C1253.24 205.799 1253.14 205.409 1252.92 205.07C1252.71 204.732 1252.4 204.466 1252.01 204.273C1251.62 204.081 1251.15 203.984 1250.61 203.984H1247.77V208.234ZM1247.77 201.695H1250.28C1250.74 201.695 1251.16 201.615 1251.52 201.453C1251.88 201.286 1252.17 201.052 1252.38 200.75C1252.59 200.448 1252.7 200.086 1252.7 199.664C1252.7 199.086 1252.49 198.62 1252.08 198.266C1251.67 197.911 1251.09 197.734 1250.34 197.734H1247.77V201.695ZM1258.94 211V195H1265.25C1266.46 195 1267.49 195.216 1268.34 195.648C1269.2 196.076 1269.85 196.682 1270.3 197.469C1270.76 198.25 1270.98 199.169 1270.98 200.227C1270.98 201.289 1270.75 202.203 1270.29 202.969C1269.84 203.729 1269.17 204.312 1268.3 204.719C1267.44 205.125 1266.39 205.328 1265.16 205.328H1260.94V202.609H1264.62C1265.26 202.609 1265.8 202.521 1266.22 202.344C1266.65 202.167 1266.97 201.901 1267.18 201.547C1267.39 201.193 1267.5 200.753 1267.5 200.227C1267.5 199.695 1267.39 199.247 1267.18 198.883C1266.97 198.518 1266.65 198.242 1266.22 198.055C1265.79 197.862 1265.25 197.766 1264.6 197.766H1262.32V211H1258.94ZM1267.58 203.719L1271.55 211H1267.82L1263.93 203.719H1267.58ZM1273.37 211V195H1284.15V197.789H1276.76V201.602H1283.6V204.391H1276.76V208.211H1284.19V211H1273.37ZM1289.6 211H1285.98L1291.5 195H1295.86L1301.38 211H1297.75L1293.74 198.656H1293.62L1289.6 211ZM1289.38 204.711H1297.94V207.352H1289.38V204.711ZM1303.3 211V195H1306.68V202.055H1306.89L1312.65 195H1316.71L1310.77 202.164L1316.78 211H1312.73L1308.35 204.422L1306.68 206.453V211H1303.3ZM1332.24 199.602C1332.18 198.971 1331.91 198.482 1331.44 198.133C1330.96 197.784 1330.32 197.609 1329.51 197.609C1328.95 197.609 1328.49 197.687 1328.11 197.844C1327.73 197.995 1327.44 198.206 1327.23 198.477C1327.03 198.747 1326.94 199.055 1326.94 199.398C1326.93 199.685 1326.99 199.935 1327.12 200.148C1327.25 200.362 1327.44 200.547 1327.67 200.703C1327.9 200.854 1328.18 200.987 1328.48 201.102C1328.79 201.211 1329.12 201.305 1329.47 201.383L1330.9 201.727C1331.6 201.883 1332.24 202.091 1332.83 202.352C1333.41 202.612 1333.91 202.932 1334.34 203.312C1334.77 203.693 1335.1 204.141 1335.33 204.656C1335.57 205.172 1335.7 205.763 1335.7 206.43C1335.7 207.409 1335.45 208.258 1334.95 208.977C1334.46 209.69 1333.75 210.245 1332.83 210.641C1331.9 211.031 1330.79 211.227 1329.49 211.227C1328.2 211.227 1327.07 211.029 1326.12 210.633C1325.16 210.237 1324.42 209.651 1323.88 208.875C1323.35 208.094 1323.07 207.128 1323.04 205.977H1326.32C1326.35 206.513 1326.51 206.961 1326.78 207.32C1327.06 207.674 1327.42 207.943 1327.88 208.125C1328.34 208.302 1328.87 208.391 1329.45 208.391C1330.02 208.391 1330.52 208.307 1330.94 208.141C1331.37 207.974 1331.7 207.742 1331.94 207.445C1332.17 207.148 1332.29 206.807 1332.29 206.422C1332.29 206.062 1332.18 205.76 1331.97 205.516C1331.76 205.271 1331.45 205.062 1331.04 204.891C1330.64 204.719 1330.15 204.562 1329.57 204.422L1327.83 203.984C1326.48 203.656 1325.41 203.143 1324.63 202.445C1323.85 201.747 1323.46 200.807 1323.47 199.625C1323.46 198.656 1323.72 197.81 1324.24 197.086C1324.77 196.362 1325.49 195.797 1326.4 195.391C1327.32 194.984 1328.36 194.781 1329.53 194.781C1330.72 194.781 1331.75 194.984 1332.64 195.391C1333.53 195.797 1334.22 196.362 1334.72 197.086C1335.21 197.81 1335.47 198.648 1335.48 199.602H1332.24ZM1352.68 203C1352.68 204.745 1352.35 206.229 1351.69 207.453C1351.03 208.677 1350.14 209.612 1349 210.258C1347.87 210.898 1346.6 211.219 1345.19 211.219C1343.77 211.219 1342.49 210.896 1341.36 210.25C1340.23 209.604 1339.34 208.669 1338.68 207.445C1338.02 206.221 1337.7 204.74 1337.7 203C1337.7 201.255 1338.02 199.771 1338.68 198.547C1339.34 197.323 1340.23 196.391 1341.36 195.75C1342.49 195.104 1343.77 194.781 1345.19 194.781C1346.6 194.781 1347.87 195.104 1349 195.75C1350.14 196.391 1351.03 197.323 1351.69 198.547C1352.35 199.771 1352.68 201.255 1352.68 203ZM1349.25 203C1349.25 201.87 1349.08 200.917 1348.74 200.141C1348.41 199.365 1347.94 198.776 1347.33 198.375C1346.72 197.974 1346.01 197.773 1345.19 197.773C1344.37 197.773 1343.66 197.974 1343.05 198.375C1342.44 198.776 1341.96 199.365 1341.63 200.141C1341.29 200.917 1341.13 201.87 1341.13 203C1341.13 204.13 1341.29 205.083 1341.63 205.859C1341.96 206.635 1342.44 207.224 1343.05 207.625C1343.66 208.026 1344.37 208.227 1345.19 208.227C1346.01 208.227 1346.72 208.026 1347.33 207.625C1347.94 207.224 1348.41 206.635 1348.74 205.859C1349.08 205.083 1349.25 204.13 1349.25 203ZM1355.19 211V195H1358.57V208.211H1365.43V211H1355.19ZM1370.83 211H1367.21L1372.73 195H1377.09L1382.61 211H1378.98L1374.97 198.656H1374.85L1370.83 211ZM1370.61 204.711H1379.17V207.352H1370.61V204.711ZM1397.92 195V211H1394.99L1388.03 200.93H1387.92V211H1384.53V195H1387.5L1394.41 205.062H1394.55V195H1397.92ZM1403.47 211H1399.84L1405.37 195H1409.73L1415.24 211H1411.62L1407.61 198.656H1407.48L1403.47 211ZM1403.24 204.711H1411.8V207.352H1403.24V204.711ZM1422.26 211V195H1428.57C1429.78 195 1430.81 195.216 1431.67 195.648C1432.53 196.076 1433.18 196.682 1433.63 197.469C1434.08 198.25 1434.31 199.169 1434.31 200.227C1434.31 201.289 1434.08 202.203 1433.62 202.969C1433.16 203.729 1432.5 204.312 1431.63 204.719C1430.76 205.125 1429.72 205.328 1428.49 205.328H1424.26V202.609H1427.94C1428.59 202.609 1429.12 202.521 1429.55 202.344C1429.98 202.167 1430.29 201.901 1430.5 201.547C1430.72 201.193 1430.82 200.753 1430.82 200.227C1430.82 199.695 1430.72 199.247 1430.5 198.883C1430.29 198.518 1429.97 198.242 1429.54 198.055C1429.11 197.862 1428.57 197.766 1427.92 197.766H1425.64V211H1422.26ZM1430.9 203.719L1434.88 211H1431.14L1427.25 203.719H1430.9ZM1436.7 211V195H1447.48V197.789H1440.08V201.602H1446.92V204.391H1440.08V208.211H1447.51V211H1436.7ZM1453.06 195L1456.93 207.156H1457.07L1460.95 195H1464.7L1459.18 211H1454.82L1449.3 195H1453.06ZM1470.01 195V211H1466.62V195H1470.01ZM1475.68 195L1479.55 207.156H1479.7L1483.57 195H1487.32L1481.81 211H1477.45L1471.92 195H1475.68ZM1489.88 211H1486.25L1491.78 195H1496.14L1501.65 211H1498.03L1494.02 198.656H1493.89L1489.88 211ZM1489.65 204.711H1498.21V207.352H1489.65V204.711ZM1503.58 211V195H1506.96V208.211H1513.82V211H1503.58Z" fill="#D45CFF"/>
<rect width="191" height="110" rx="20" transform="matrix(-1 0 0 1 1722 270)" fill="#111114"/>
<rect width="110" height="110" rx="20" transform="matrix(-1 0 0 1 1521 270)" fill="#111114"/>
<rect width="110" height="110" rx="20" transform="matrix(-1 0 0 1 1401 270)" fill="#111114"/>
<rect width="110" height="110" rx="20" transform="matrix(-1 0 0 1 1281 270)" fill="#111114"/>
<rect width="110" height="110" rx="20" transform="matrix(-1 0 0 1 1161 270)" fill="#111114"/>
<rect width="110" height="110" rx="20" transform="matrix(-1 0 0 1 1041 270)" fill="#D45CFF"/>
<rect width="110" height="110" rx="20" transform="matrix(-1 0 0 1 921 270)" fill="#111114"/>
<rect width="110" height="110" rx="20" transform="matrix(-1 0 0 1 801 270)" fill="#111114"/>
<rect width="110" height="110" rx="20" transform="matrix(-1 0 0 1 681 270)" fill="#D45CFF"/>
<rect width="110" height="110" rx="20" transform="matrix(-1 0 0 1 561 270)" fill="#111114"/>
<rect width="110" height="110" rx="20" transform="matrix(-1 0 0 1 441 270)" fill="#111114"/>
<rect width="110" height="110" rx="20" transform="matrix(-1 0 0 1 321 270)" fill="#111114"/>
<rect width="191" height="110" rx="20" transform="matrix(-1 0 0 1 201 270)" fill="#111114"/>
<path d="M617.246 343V316.818H634.581V321.382H622.782V327.621H633.431V332.185H622.782V343H617.246Z" fill="#111114"/>
<path d="M988.993 315.818H994.464V334.074C994.464 335.761 994.085 337.227 993.327 338.472C992.577 339.716 991.533 340.675 990.195 341.348C988.857 342.021 987.301 342.358 985.528 342.358C983.952 342.358 982.52 342.081 981.233 341.527C979.955 340.964 978.94 340.112 978.19 338.97C977.44 337.82 977.07 336.375 977.078 334.636H982.588C982.605 335.327 982.746 335.919 983.01 336.413C983.283 336.899 983.653 337.274 984.122 337.538C984.599 337.794 985.162 337.922 985.81 337.922C986.491 337.922 987.067 337.777 987.536 337.487C988.013 337.189 988.375 336.754 988.622 336.183C988.869 335.612 988.993 334.909 988.993 334.074V315.818Z" fill="#111114"/>
<rect width="251" height="110" rx="20" transform="matrix(-1 0 0 1 1722 400)" fill="#111114"/>
<rect width="110" height="110" rx="20" transform="matrix(-1 0 0 1 1461 400)" fill="#111114"/>
<rect width="110" height="110" rx="20" transform="matrix(-1 0 0 1 1341 400)" fill="#111114"/>
<rect width="110" height="110" rx="20" transform="matrix(-1 0 0 1 1221 400)" fill="#111114"/>
<rect width="110" height="110" rx="20" transform="matrix(-1 0 0 1 1101 400)" fill="#111114"/>
<rect width="110" height="110" rx="20" transform="matrix(-1 0 0 1 981 400)" fill="#111114"/>
<rect width="110" height="110" rx="20" transform="matrix(-1 0 0 1 861 400)" fill="#111114"/>
<rect width="110" height="110" rx="20" transform="matrix(-1 0 0 1 741 400)" fill="#111114"/>
<rect width="110" height="110" rx="20" transform="matrix(-1 0 0 1 621 400)" fill="#111114"/>
<rect width="110" height="110" rx="20" transform="matrix(-1 0 0 1 501 400)" fill="#111114"/>
<rect width="110" height="110" rx="20" transform="matrix(-1 0 0 1 381 400)" fill="#111114"/>
<rect width="251" height="110" rx="20" transform="matrix(-1 0 0 1 261 400)" fill="#111114"/>
<path d="M861.739 511.793C859.967 514.146 860.439 517.49 862.793 519.261C865.146 521.033 868.49 520.561 870.261 518.207C872.033 515.854 871.561 512.51 869.207 510.739C866.854 508.967 863.51 509.439 861.739 511.793ZM769 442L768.399 442.799L865.399 515.799L866 515L866.601 514.201L769.601 441.201L769 442Z" fill="#D45CFF"/>
<path d="M1537.74 511.793C1535.97 514.146 1536.44 517.49 1538.79 519.261C1541.15 521.033 1544.49 520.561 1546.26 518.207C1548.03 515.854 1547.56 512.51 1545.21 510.739C1542.85 508.967 1539.51 509.439 1537.74 511.793ZM1445 442L1444.4 442.799L1541.4 515.799L1542 515L1542.6 514.201L1445.6 441.201L1445 442Z" fill="#D45CFF"/>
<path d="M561 441L551 436.226L551 447.774L561 443L561 441ZM560 442L560 443L769 443L769 442L769 441L560 441L560 442Z" fill="#D45CFF"/>
<path d="M1344 441L1334 436.226L1334 447.774L1344 443L1344 441ZM1343 442L1343 443L1445 443L1445 442L1445 441L1343 441L1343 442Z" fill="#D45CFF"/>
<path d="M277.391 450V434H283.703C284.917 434 285.951 434.232 286.805 434.695C287.659 435.154 288.31 435.792 288.758 436.609C289.211 437.422 289.438 438.359 289.438 439.422C289.438 440.484 289.208 441.422 288.75 442.234C288.292 443.047 287.628 443.68 286.758 444.133C285.893 444.586 284.846 444.812 283.617 444.812H279.594V442.102H283.07C283.721 442.102 284.258 441.99 284.68 441.766C285.107 441.536 285.424 441.221 285.633 440.82C285.846 440.414 285.953 439.948 285.953 439.422C285.953 438.891 285.846 438.427 285.633 438.031C285.424 437.63 285.107 437.32 284.68 437.102C284.253 436.878 283.711 436.766 283.055 436.766H280.773V450H277.391ZM292.545 450H288.92L294.443 434H298.803L304.318 450H300.693L296.686 437.656H296.561L292.545 450ZM292.318 443.711H300.881V446.352H292.318V443.711ZM316.127 434H319.51V444.391C319.51 445.557 319.231 446.578 318.674 447.453C318.122 448.328 317.348 449.01 316.354 449.5C315.359 449.984 314.2 450.227 312.877 450.227C311.549 450.227 310.387 449.984 309.393 449.5C308.398 449.01 307.624 448.328 307.072 447.453C306.52 446.578 306.244 445.557 306.244 444.391V434H309.627V444.102C309.627 444.711 309.76 445.253 310.025 445.727C310.296 446.201 310.676 446.573 311.166 446.844C311.656 447.115 312.226 447.25 312.877 447.25C313.533 447.25 314.104 447.115 314.588 446.844C315.077 446.573 315.455 446.201 315.721 445.727C315.992 445.253 316.127 444.711 316.127 444.102V434ZM330.973 438.602C330.91 437.971 330.642 437.482 330.168 437.133C329.694 436.784 329.051 436.609 328.238 436.609C327.686 436.609 327.22 436.687 326.84 436.844C326.46 436.995 326.168 437.206 325.965 437.477C325.767 437.747 325.668 438.055 325.668 438.398C325.658 438.685 325.717 438.935 325.848 439.148C325.983 439.362 326.168 439.547 326.402 439.703C326.637 439.854 326.908 439.987 327.215 440.102C327.522 440.211 327.85 440.305 328.199 440.383L329.637 440.727C330.335 440.883 330.975 441.091 331.559 441.352C332.142 441.612 332.647 441.932 333.074 442.312C333.501 442.693 333.832 443.141 334.066 443.656C334.306 444.172 334.428 444.763 334.434 445.43C334.428 446.409 334.178 447.258 333.684 447.977C333.194 448.69 332.486 449.245 331.559 449.641C330.637 450.031 329.525 450.227 328.223 450.227C326.931 450.227 325.806 450.029 324.848 449.633C323.895 449.237 323.15 448.651 322.613 447.875C322.082 447.094 321.803 446.128 321.777 444.977H325.051C325.087 445.513 325.241 445.961 325.512 446.32C325.788 446.674 326.155 446.943 326.613 447.125C327.077 447.302 327.6 447.391 328.184 447.391C328.757 447.391 329.254 447.307 329.676 447.141C330.103 446.974 330.434 446.742 330.668 446.445C330.902 446.148 331.02 445.807 331.02 445.422C331.02 445.062 330.913 444.76 330.699 444.516C330.491 444.271 330.184 444.062 329.777 443.891C329.376 443.719 328.884 443.562 328.301 443.422L326.559 442.984C325.21 442.656 324.145 442.143 323.363 441.445C322.582 440.747 322.194 439.807 322.199 438.625C322.194 437.656 322.452 436.81 322.973 436.086C323.499 435.362 324.22 434.797 325.137 434.391C326.053 433.984 327.095 433.781 328.262 433.781C329.449 433.781 330.486 433.984 331.371 434.391C332.262 434.797 332.954 435.362 333.449 436.086C333.944 436.81 334.199 437.648 334.215 438.602H330.973ZM336.709 450V434H347.49V436.789H340.092V440.602H346.936V443.391H340.092V447.211H347.521V450H336.709ZM362.178 433.25L357.021 452.406H354.154L359.311 433.25H362.178ZM368.936 450V434H375.248C376.456 434 377.488 434.216 378.342 434.648C379.201 435.076 379.855 435.682 380.303 436.469C380.756 437.25 380.982 438.169 380.982 439.227C380.982 440.289 380.753 441.203 380.295 441.969C379.837 442.729 379.173 443.312 378.303 443.719C377.438 444.125 376.391 444.328 375.162 444.328H370.936V441.609H374.615C375.261 441.609 375.798 441.521 376.225 441.344C376.652 441.167 376.969 440.901 377.178 440.547C377.391 440.193 377.498 439.753 377.498 439.227C377.498 438.695 377.391 438.247 377.178 437.883C376.969 437.518 376.649 437.242 376.217 437.055C375.79 436.862 375.251 436.766 374.6 436.766H372.318V450H368.936ZM377.576 442.719L381.553 450H377.818L373.928 442.719H377.576ZM383.373 450V434H394.154V436.789H386.756V440.602H393.6V443.391H386.756V447.211H394.186V450H383.373ZM405.523 438.602C405.461 437.971 405.193 437.482 404.719 437.133C404.245 436.784 403.602 436.609 402.789 436.609C402.237 436.609 401.771 436.687 401.391 436.844C401.01 436.995 400.719 437.206 400.516 437.477C400.318 437.747 400.219 438.055 400.219 438.398C400.208 438.685 400.268 438.935 400.398 439.148C400.534 439.362 400.719 439.547 400.953 439.703C401.188 439.854 401.458 439.987 401.766 440.102C402.073 440.211 402.401 440.305 402.75 440.383L404.188 440.727C404.885 440.883 405.526 441.091 406.109 441.352C406.693 441.612 407.198 441.932 407.625 442.312C408.052 442.693 408.383 443.141 408.617 443.656C408.857 444.172 408.979 444.763 408.984 445.43C408.979 446.409 408.729 447.258 408.234 447.977C407.745 448.69 407.036 449.245 406.109 449.641C405.188 450.031 404.076 450.227 402.773 450.227C401.482 450.227 400.357 450.029 399.398 449.633C398.445 449.237 397.701 448.651 397.164 447.875C396.633 447.094 396.354 446.128 396.328 444.977H399.602C399.638 445.513 399.792 445.961 400.063 446.32C400.339 446.674 400.706 446.943 401.164 447.125C401.628 447.302 402.151 447.391 402.734 447.391C403.307 447.391 403.805 447.307 404.227 447.141C404.654 446.974 404.984 446.742 405.219 446.445C405.453 446.148 405.57 445.807 405.57 445.422C405.57 445.062 405.464 444.76 405.25 444.516C405.042 444.271 404.734 444.062 404.328 443.891C403.927 443.719 403.435 443.562 402.852 443.422L401.109 442.984C399.76 442.656 398.695 442.143 397.914 441.445C397.133 440.747 396.745 439.807 396.75 438.625C396.745 437.656 397.003 436.81 397.523 436.086C398.049 435.362 398.771 434.797 399.688 434.391C400.604 433.984 401.646 433.781 402.813 433.781C404 433.781 405.036 433.984 405.922 434.391C406.813 434.797 407.505 435.362 408 436.086C408.495 436.81 408.75 437.648 408.766 438.602H405.523ZM421.143 434H424.525V444.391C424.525 445.557 424.247 446.578 423.689 447.453C423.137 448.328 422.364 449.01 421.369 449.5C420.374 449.984 419.215 450.227 417.893 450.227C416.564 450.227 415.403 449.984 414.408 449.5C413.413 449.01 412.64 448.328 412.088 447.453C411.536 446.578 411.26 445.557 411.26 444.391V434H414.643V444.102C414.643 444.711 414.775 445.253 415.041 445.727C415.312 446.201 415.692 446.573 416.182 446.844C416.671 447.115 417.242 447.25 417.893 447.25C418.549 447.25 419.119 447.115 419.604 446.844C420.093 446.573 420.471 446.201 420.736 445.727C421.007 445.253 421.143 444.711 421.143 444.102V434ZM427.309 434H431.48L435.887 444.75H436.074L440.48 434H444.652V450H441.371V439.586H441.238L437.098 449.922H434.863L430.723 439.547H430.59V450H427.309V434ZM447.439 450V434H458.221V436.789H450.822V440.602H457.666V443.391H450.822V447.211H458.252V450H447.439ZM480.119 439.602H476.697C476.635 439.159 476.507 438.766 476.314 438.422C476.122 438.073 475.874 437.776 475.572 437.531C475.27 437.286 474.921 437.099 474.525 436.969C474.135 436.839 473.71 436.773 473.252 436.773C472.424 436.773 471.702 436.979 471.088 437.391C470.473 437.797 469.997 438.391 469.658 439.172C469.32 439.948 469.15 440.891 469.15 442C469.15 443.141 469.32 444.099 469.658 444.875C470.002 445.651 470.481 446.237 471.096 446.633C471.71 447.029 472.421 447.227 473.229 447.227C473.682 447.227 474.101 447.167 474.486 447.047C474.877 446.927 475.223 446.753 475.525 446.523C475.827 446.289 476.077 446.005 476.275 445.672C476.479 445.339 476.619 444.958 476.697 444.531L480.119 444.547C480.031 445.281 479.809 445.99 479.455 446.672C479.106 447.349 478.635 447.956 478.041 448.492C477.452 449.023 476.749 449.445 475.932 449.758C475.119 450.065 474.2 450.219 473.174 450.219C471.747 450.219 470.471 449.896 469.346 449.25C468.226 448.604 467.34 447.669 466.689 446.445C466.044 445.221 465.721 443.74 465.721 442C465.721 440.255 466.049 438.771 466.705 437.547C467.361 436.323 468.252 435.391 469.377 434.75C470.502 434.104 471.768 433.781 473.174 433.781C474.101 433.781 474.96 433.911 475.752 434.172C476.549 434.432 477.255 434.812 477.869 435.312C478.484 435.807 478.984 436.414 479.369 437.133C479.76 437.852 480.01 438.674 480.119 439.602ZM482.545 450V434H485.928V447.211H492.787V450H482.545ZM509.107 442C509.107 443.745 508.777 445.229 508.115 446.453C507.459 447.677 506.563 448.612 505.428 449.258C504.298 449.898 503.027 450.219 501.615 450.219C500.193 450.219 498.917 449.896 497.787 449.25C496.657 448.604 495.764 447.669 495.107 446.445C494.451 445.221 494.123 443.74 494.123 442C494.123 440.255 494.451 438.771 495.107 437.547C495.764 436.323 496.657 435.391 497.787 434.75C498.917 434.104 500.193 433.781 501.615 433.781C503.027 433.781 504.298 434.104 505.428 434.75C506.563 435.391 507.459 436.323 508.115 437.547C508.777 438.771 509.107 440.255 509.107 442ZM505.678 442C505.678 440.87 505.508 439.917 505.17 439.141C504.837 438.365 504.365 437.776 503.756 437.375C503.146 436.974 502.433 436.773 501.615 436.773C500.798 436.773 500.084 436.974 499.475 437.375C498.865 437.776 498.391 438.365 498.053 439.141C497.719 439.917 497.553 440.87 497.553 442C497.553 443.13 497.719 444.083 498.053 444.859C498.391 445.635 498.865 446.224 499.475 446.625C500.084 447.026 500.798 447.227 501.615 447.227C502.433 447.227 503.146 447.026 503.756 446.625C504.365 446.224 504.837 445.635 505.17 444.859C505.508 444.083 505.678 443.13 505.678 442ZM525.73 439.602H522.309C522.246 439.159 522.118 438.766 521.926 438.422C521.733 438.073 521.486 437.776 521.184 437.531C520.882 437.286 520.533 437.099 520.137 436.969C519.746 436.839 519.322 436.773 518.863 436.773C518.035 436.773 517.314 436.979 516.699 437.391C516.085 437.797 515.608 438.391 515.27 439.172C514.931 439.948 514.762 440.891 514.762 442C514.762 443.141 514.931 444.099 515.27 444.875C515.613 445.651 516.092 446.237 516.707 446.633C517.322 447.029 518.033 447.227 518.84 447.227C519.293 447.227 519.712 447.167 520.098 447.047C520.488 446.927 520.835 446.753 521.137 446.523C521.439 446.289 521.689 446.005 521.887 445.672C522.09 445.339 522.23 444.958 522.309 444.531L525.73 444.547C525.642 445.281 525.421 445.99 525.066 446.672C524.717 447.349 524.246 447.956 523.652 448.492C523.064 449.023 522.361 449.445 521.543 449.758C520.73 450.065 519.811 450.219 518.785 450.219C517.358 450.219 516.082 449.896 514.957 449.25C513.837 448.604 512.952 447.669 512.301 446.445C511.655 445.221 511.332 443.74 511.332 442C511.332 440.255 511.66 438.771 512.316 437.547C512.973 436.323 513.863 435.391 514.988 434.75C516.113 434.104 517.379 433.781 518.785 433.781C519.712 433.781 520.572 433.911 521.363 434.172C522.16 434.432 522.866 434.812 523.48 435.312C524.095 435.807 524.595 436.414 524.98 437.133C525.371 437.852 525.621 438.674 525.73 439.602ZM528.156 450V434H531.539V441.055H531.75L537.508 434H541.563L535.625 441.164L541.633 450H537.586L533.203 443.422L531.539 445.453V450H528.156Z" fill="#D45CFF"/>
<path d="M1176.07 438.602C1176.01 437.971 1175.74 437.482 1175.27 437.133C1174.79 436.784 1174.15 436.609 1173.34 436.609C1172.78 436.609 1172.32 436.687 1171.94 436.844C1171.56 436.995 1171.27 437.206 1171.06 437.477C1170.86 437.747 1170.77 438.055 1170.77 438.398C1170.76 438.685 1170.82 438.935 1170.95 439.148C1171.08 439.362 1171.27 439.547 1171.5 439.703C1171.73 439.854 1172.01 439.987 1172.31 440.102C1172.62 440.211 1172.95 440.305 1173.3 440.383L1174.73 440.727C1175.43 440.883 1176.07 441.091 1176.66 441.352C1177.24 441.612 1177.74 441.932 1178.17 442.312C1178.6 442.693 1178.93 443.141 1179.16 443.656C1179.4 444.172 1179.53 444.763 1179.53 445.43C1179.53 446.409 1179.28 447.258 1178.78 447.977C1178.29 448.69 1177.58 449.245 1176.66 449.641C1175.73 450.031 1174.62 450.227 1173.32 450.227C1172.03 450.227 1170.9 450.029 1169.95 449.633C1168.99 449.237 1168.25 448.651 1167.71 447.875C1167.18 447.094 1166.9 446.128 1166.87 444.977H1170.15C1170.18 445.513 1170.34 445.961 1170.61 446.32C1170.89 446.674 1171.25 446.943 1171.71 447.125C1172.17 447.302 1172.7 447.391 1173.28 447.391C1173.85 447.391 1174.35 447.307 1174.77 447.141C1175.2 446.974 1175.53 446.742 1175.77 446.445C1176 446.148 1176.12 445.807 1176.12 445.422C1176.12 445.062 1176.01 444.76 1175.8 444.516C1175.59 444.271 1175.28 444.062 1174.88 443.891C1174.47 443.719 1173.98 443.562 1173.4 443.422L1171.66 442.984C1170.31 442.656 1169.24 442.143 1168.46 441.445C1167.68 440.747 1167.29 439.807 1167.3 438.625C1167.29 437.656 1167.55 436.81 1168.07 436.086C1168.6 435.362 1169.32 434.797 1170.23 434.391C1171.15 433.984 1172.19 433.781 1173.36 433.781C1174.55 433.781 1175.58 433.984 1176.47 434.391C1177.36 434.797 1178.05 435.362 1178.55 436.086C1179.04 436.81 1179.3 437.648 1179.31 438.602H1176.07ZM1195.92 439.602H1192.5C1192.44 439.159 1192.31 438.766 1192.12 438.422C1191.93 438.073 1191.68 437.776 1191.38 437.531C1191.07 437.286 1190.73 437.099 1190.33 436.969C1189.94 436.839 1189.51 436.773 1189.06 436.773C1188.23 436.773 1187.51 436.979 1186.89 437.391C1186.28 437.797 1185.8 438.391 1185.46 439.172C1185.12 439.948 1184.96 440.891 1184.96 442C1184.96 443.141 1185.12 444.099 1185.46 444.875C1185.81 445.651 1186.29 446.237 1186.9 446.633C1187.51 447.029 1188.23 447.227 1189.03 447.227C1189.49 447.227 1189.91 447.167 1190.29 447.047C1190.68 446.927 1191.03 446.753 1191.33 446.523C1191.63 446.289 1191.88 446.005 1192.08 445.672C1192.28 445.339 1192.42 444.958 1192.5 444.531L1195.92 444.547C1195.84 445.281 1195.61 445.99 1195.26 446.672C1194.91 447.349 1194.44 447.956 1193.85 448.492C1193.26 449.023 1192.55 449.445 1191.74 449.758C1190.92 450.065 1190 450.219 1188.98 450.219C1187.55 450.219 1186.28 449.896 1185.15 449.25C1184.03 448.604 1183.15 447.669 1182.49 446.445C1181.85 445.221 1181.53 443.74 1181.53 442C1181.53 440.255 1181.85 438.771 1182.51 437.547C1183.17 436.323 1184.06 435.391 1185.18 434.75C1186.31 434.104 1187.57 433.781 1188.98 433.781C1189.91 433.781 1190.76 433.911 1191.56 434.172C1192.35 434.432 1193.06 434.812 1193.67 435.312C1194.29 435.807 1194.79 436.414 1195.17 437.133C1195.56 437.852 1195.81 438.674 1195.92 439.602ZM1198.35 450V434H1204.66C1205.87 434 1206.9 434.216 1207.76 434.648C1208.62 435.076 1209.27 435.682 1209.72 436.469C1210.17 437.25 1210.4 438.169 1210.4 439.227C1210.4 440.289 1210.17 441.203 1209.71 441.969C1209.25 442.729 1208.59 443.312 1207.72 443.719C1206.85 444.125 1205.81 444.328 1204.58 444.328H1200.35V441.609H1204.03C1204.68 441.609 1205.21 441.521 1205.64 441.344C1206.07 441.167 1206.38 440.901 1206.59 440.547C1206.81 440.193 1206.91 439.753 1206.91 439.227C1206.91 438.695 1206.81 438.247 1206.59 437.883C1206.38 437.518 1206.06 437.242 1205.63 437.055C1205.2 436.862 1204.66 436.766 1204.01 436.766H1201.73V450H1198.35ZM1206.99 442.719L1210.97 450H1207.23L1203.34 442.719H1206.99ZM1227.49 442C1227.49 443.745 1227.16 445.229 1226.5 446.453C1225.84 447.677 1224.95 448.612 1223.81 449.258C1222.68 449.898 1221.41 450.219 1220 450.219C1218.58 450.219 1217.3 449.896 1216.17 449.25C1215.04 448.604 1214.15 447.669 1213.49 446.445C1212.83 445.221 1212.51 443.74 1212.51 442C1212.51 440.255 1212.83 438.771 1213.49 437.547C1214.15 436.323 1215.04 435.391 1216.17 434.75C1217.3 434.104 1218.58 433.781 1220 433.781C1221.41 433.781 1222.68 434.104 1223.81 434.75C1224.95 435.391 1225.84 436.323 1226.5 437.547C1227.16 438.771 1227.49 440.255 1227.49 442ZM1224.06 442C1224.06 440.87 1223.89 439.917 1223.55 439.141C1223.22 438.365 1222.75 437.776 1222.14 437.375C1221.53 436.974 1220.82 436.773 1220 436.773C1219.18 436.773 1218.47 436.974 1217.86 437.375C1217.25 437.776 1216.77 438.365 1216.44 439.141C1216.1 439.917 1215.94 440.87 1215.94 442C1215.94 443.13 1216.1 444.083 1216.44 444.859C1216.77 445.635 1217.25 446.224 1217.86 446.625C1218.47 447.026 1219.18 447.227 1220 447.227C1220.82 447.227 1221.53 447.026 1222.14 446.625C1222.75 446.224 1223.22 445.635 1223.55 444.859C1223.89 444.083 1224.06 443.13 1224.06 442ZM1230 450V434H1233.38V447.211H1240.24V450H1230ZM1242.48 450V434H1245.86V447.211H1252.72V450H1242.48ZM1260.05 450V434H1263.44V447.211H1270.29V450H1260.05ZM1286.62 442C1286.62 443.745 1286.28 445.229 1285.62 446.453C1284.97 447.677 1284.07 448.612 1282.94 449.258C1281.81 449.898 1280.53 450.219 1279.12 450.219C1277.7 450.219 1276.43 449.896 1275.29 449.25C1274.16 448.604 1273.27 447.669 1272.62 446.445C1271.96 445.221 1271.63 443.74 1271.63 442C1271.63 440.255 1271.96 438.771 1272.62 437.547C1273.27 436.323 1274.16 435.391 1275.29 434.75C1276.43 434.104 1277.7 433.781 1279.12 433.781C1280.53 433.781 1281.81 434.104 1282.94 434.75C1284.07 435.391 1284.97 436.323 1285.62 437.547C1286.28 438.771 1286.62 440.255 1286.62 442ZM1283.19 442C1283.19 440.87 1283.02 439.917 1282.68 439.141C1282.34 438.365 1281.87 437.776 1281.26 437.375C1280.65 436.974 1279.94 436.773 1279.12 436.773C1278.31 436.773 1277.59 436.974 1276.98 437.375C1276.37 437.776 1275.9 438.365 1275.56 439.141C1275.23 439.917 1275.06 440.87 1275.06 442C1275.06 443.13 1275.23 444.083 1275.56 444.859C1275.9 445.635 1276.37 446.224 1276.98 446.625C1277.59 447.026 1278.31 447.227 1279.12 447.227C1279.94 447.227 1280.65 447.026 1281.26 446.625C1281.87 446.224 1282.34 445.635 1282.68 444.859C1283.02 444.083 1283.19 443.13 1283.19 442ZM1299.73 439.172C1299.62 438.792 1299.47 438.456 1299.27 438.164C1299.07 437.867 1298.83 437.617 1298.54 437.414C1298.26 437.206 1297.94 437.047 1297.57 436.938C1297.21 436.828 1296.82 436.773 1296.38 436.773C1295.56 436.773 1294.84 436.977 1294.22 437.383C1293.61 437.789 1293.13 438.38 1292.79 439.156C1292.44 439.927 1292.27 440.87 1292.27 441.984C1292.27 443.099 1292.44 444.047 1292.78 444.828C1293.12 445.609 1293.6 446.206 1294.21 446.617C1294.83 447.023 1295.57 447.227 1296.41 447.227C1297.18 447.227 1297.83 447.091 1298.37 446.82C1298.92 446.544 1299.33 446.156 1299.62 445.656C1299.91 445.156 1300.06 444.565 1300.06 443.883L1300.75 443.984H1296.62V441.437H1303.32V443.453C1303.32 444.859 1303.02 446.068 1302.43 447.078C1301.83 448.083 1301.01 448.859 1299.97 449.406C1298.93 449.948 1297.74 450.219 1296.39 450.219C1294.89 450.219 1293.58 449.888 1292.44 449.227C1291.31 448.56 1290.42 447.615 1289.79 446.391C1289.15 445.161 1288.84 443.703 1288.84 442.016C1288.84 440.719 1289.03 439.562 1289.4 438.547C1289.78 437.526 1290.31 436.661 1291 435.953C1291.68 435.245 1292.47 434.706 1293.38 434.336C1294.29 433.966 1295.27 433.781 1296.32 433.781C1297.23 433.781 1298.07 433.914 1298.86 434.18C1299.64 434.44 1300.33 434.81 1300.93 435.289C1301.54 435.768 1302.04 436.339 1302.43 437C1302.81 437.656 1303.06 438.38 1303.17 439.172H1299.73ZM1314.54 438.602C1314.47 437.971 1314.21 437.482 1313.73 437.133C1313.26 436.784 1312.62 436.609 1311.8 436.609C1311.25 436.609 1310.78 436.687 1310.4 436.844C1310.02 436.995 1309.73 437.206 1309.53 437.477C1309.33 437.747 1309.23 438.055 1309.23 438.398C1309.22 438.685 1309.28 438.935 1309.41 439.148C1309.55 439.362 1309.73 439.547 1309.97 439.703C1310.2 439.854 1310.47 439.987 1310.78 440.102C1311.09 440.211 1311.41 440.305 1311.76 440.383L1313.2 440.727C1313.9 440.883 1314.54 441.091 1315.12 441.352C1315.71 441.612 1316.21 441.932 1316.64 442.312C1317.07 442.693 1317.4 443.141 1317.63 443.656C1317.87 444.172 1317.99 444.763 1318 445.43C1317.99 446.409 1317.74 447.258 1317.25 447.977C1316.76 448.69 1316.05 449.245 1315.12 449.641C1314.2 450.031 1313.09 450.227 1311.79 450.227C1310.5 450.227 1309.37 450.029 1308.41 449.633C1307.46 449.237 1306.71 448.651 1306.18 447.875C1305.65 447.094 1305.37 446.128 1305.34 444.977H1308.62C1308.65 445.513 1308.81 445.961 1309.08 446.32C1309.35 446.674 1309.72 446.943 1310.18 447.125C1310.64 447.302 1311.16 447.391 1311.75 447.391C1312.32 447.391 1312.82 447.307 1313.24 447.141C1313.67 446.974 1314 446.742 1314.23 446.445C1314.47 446.148 1314.58 445.807 1314.58 445.422C1314.58 445.062 1314.48 444.76 1314.26 444.516C1314.06 444.271 1313.75 444.062 1313.34 443.891C1312.94 443.719 1312.45 443.562 1311.87 443.422L1310.12 442.984C1308.77 442.656 1307.71 442.143 1306.93 441.445C1306.15 440.747 1305.76 439.807 1305.76 438.625C1305.76 437.656 1306.02 436.81 1306.54 436.086C1307.06 435.362 1307.78 434.797 1308.7 434.391C1309.62 433.984 1310.66 433.781 1311.83 433.781C1313.01 433.781 1314.05 433.984 1314.94 434.391C1315.83 434.797 1316.52 435.362 1317.01 436.086C1317.51 436.81 1317.76 437.648 1317.78 438.602H1314.54Z" fill="#D45CFF"/>
<rect width="110" height="53.5" rx="20" transform="matrix(-1 0 0 1 1722 586.5)" fill="#111114"/>
<path d="M1492 583.5H1602V550C1602 538.954 1593.05 530 1582 530H1512C1500.95 530 1492 538.954 1492 550V583.5Z" fill="#D45CFF"/>
<path d="M1602 586.5H1492V620C1492 631.046 1500.95 640 1512 640H1582C1593.05 640 1602 631.046 1602 620V586.5Z" fill="#D45CFF"/>
<rect width="110" height="53.5" rx="20" transform="matrix(-1 0 0 1 1482 586.5)" fill="#111114"/>
<rect width="110" height="110" rx="20" transform="matrix(-1 0 0 1 1362 530)" fill="#111114"/>
<rect width="131" height="110" rx="20" transform="matrix(-1 0 0 1 1242 530)" fill="#111114"/>
<rect width="590" height="110" rx="20" transform="matrix(-1 0 0 1 1101 530)" fill="#D45CFF"/>
<rect width="131" height="110" rx="20" transform="matrix(-1 0 0 1 501 530)" fill="#111114"/>
<rect width="110" height="110" rx="20" transform="matrix(-1 0 0 1 360 530)" fill="#111114"/>
<rect width="110" height="110" rx="20" transform="matrix(-1 0 0 1 240 530)" fill="#111114"/>
<rect width="110" height="110" rx="20" transform="matrix(-1 0 0 1 120 530)" fill="#111114"/>
</svg>
