<svg width="71" height="30" viewBox="0 0 71 30" fill="none" xmlns="http://www.w3.org/2000/svg">
<g clip-path="url(#clip0_1714_6290)">
<path fill-rule="evenodd" clip-rule="evenodd" d="M70.574 17.136H61.0364C61.2612 19.452 62.9297 20.196 64.823 20.196C66.7637 20.196 68.3257 19.752 69.6155 19.056V23.04C67.9787 23.9951 66.1057 24.4532 64.2195 24.36C59.4744 24.36 56.1374 21.36 56.1374 15.384C56.1374 10.356 58.9655 6.36 63.5924 6.36C68.231 6.36 70.645 10.296 70.645 15.36C70.645 15.84 70.5977 16.872 70.574 17.136ZM63.5687 10.392C62.3499 10.392 61.0009 11.268 61.0009 13.488H66.03C66.03 11.268 64.7639 10.392 63.5687 10.392ZM48.4575 24.36C46.7535 24.36 45.7122 23.64 45.0258 23.112L45.0022 28.668L40.1268 29.712V6.684H44.5762L44.6708 7.908C45.7028 6.91534 47.0706 6.36137 48.493 6.36C51.9247 6.36 55.1434 9.47999 55.1434 15.24C55.1434 21.516 51.9484 24.36 48.4575 24.36ZM47.3334 10.74C46.2092 10.74 45.511 11.148 45.0022 11.712L45.0258 19.056C45.4992 19.584 46.1855 19.992 47.3334 19.992C49.132 19.992 50.339 18.012 50.339 15.348C50.339 12.768 49.1084 10.74 47.3334 10.74ZM33.4173 6.684H38.3045V24.012H33.4173V6.684ZM33.4173 1.044L38.3045 0V4.032L33.4173 5.088V1.056V1.044ZM28.3053 12.264V24.012H23.43V6.684H27.8083L27.9503 8.14799C29.1337 6.024 31.5832 6.456 32.234 6.684V11.232C31.6187 11.028 29.5242 10.716 28.3053 12.264ZM18.1878 17.928C18.1878 20.844 21.2645 19.944 21.8798 19.68V23.712C21.229 24.072 20.0575 24.36 18.46 24.36C17.7942 24.3797 17.1314 24.2618 16.5119 24.0136C15.8924 23.7653 15.3292 23.3918 14.8566 22.9159C14.3839 22.4399 14.0117 21.8715 13.7625 21.245C13.5133 20.6186 13.3924 19.9473 13.4072 19.272L13.419 3.468L18.176 2.436V6.684H21.8917V10.92H18.1878V17.94V17.928ZM12.3777 18.768C12.3777 22.332 9.64417 24.36 5.59717 24.36C3.78113 24.3586 1.98474 23.9787 0.3195 23.244V18.528C1.9525 19.428 3.98783 20.1 5.59717 20.1C6.68584 20.1 7.40767 19.812 7.40767 18.9C7.40767 16.524 0 17.412 0 11.94C0 8.448 2.698 6.36 6.65034 6.36C8.25967 6.36 9.869 6.6 11.4902 7.26V11.916C9.99202 11.1164 8.33108 10.681 6.6385 10.644C5.62084 10.644 4.9345 10.944 4.9345 11.724C4.9345 13.944 12.3777 12.888 12.3777 18.78V18.768Z" fill="white" style="fill:white;fill-opacity:1;"/>
</g>
<defs>
<clipPath id="clip0_1714_6290">
<rect width="71" height="30" fill="white" style="fill:white;fill-opacity:1;"/>
</clipPath>
</defs>
</svg>
