<svg xmlns="http://www.w3.org/2000/svg" fill-rule="evenodd" stroke-linejoin="round" stroke-miterlimit="2" clip-rule="evenodd" viewBox="0 0 560 400"><path fill-rule="nonzero" d="M102.68 185.01c-10.355-8.42-21.263-12.33-35.134-14.305-12.467-1.776-20.004-4.262-30.963-11.923L30 168.726c9.8 7.354 19 11.01 31.413 13.189 8.795 1.523 15.683 1.622 24.829 6.544-1.809 2.386-3.467 5.835-4.421 8.167-4.575-2.739-11.308-4.818-20.308-4.922v11.824c4.375.199 8.295.71 13.57 3.042 6.434 2.838 10.959 7.05 10.959 7.05 5.125-18.21 16.637-28.61 16.637-28.61zm54.078-2.842c13.371-1.926 22.971-6.088 32.771-13.442l-6.583-9.944c-10.958 7.661-18.496 10.147-30.963 11.923-13.87 1.976-25.279 6.188-35.633 14.608-16.083 12.836-23.625 31.657-23.625 50.626v5.939h32.92v-5.939c-.15-17.446 12.918-25.92 12.918-25.92 4.675-3.196 11.662-6.749 19.504-6.442v-11.819c-8.796-.103-17.892 2.74-26.488 8.724-9.45 7.1-15.379 17.753-16.937 29.523h-9.704c5.329-42.915 44.383-46.77 51.82-47.837zm105.35 16.08c6.884-4.004 10.355-9.839 10.355-17.45 0-5.78-2.413-11.06-6.788-14.761-4.625-3.905-11.108-5.985-18.746-5.985h-30.308v82.332h32.167c8.546 0 15.733-2.233 20.708-6.544 4.975-4.263 7.638-10.247 7.638-17.401 0-10.803-7.738-18.007-15.025-20.19zm-34.129-28.103h19.955c8.945 0 13.72 4.312 13.72 12.43s-4.725 12.429-13.72 12.429h-19.955zm23.825 61.636H227.98v-26.734h23.825c9.196 0 14.525 4.872 14.525 13.342 0 8.524-5.329 13.392-14.525 13.392zm75.742-8.827c-4.875 7.204-11.058 11.16-17.287 11.16-7.542 0-11.713-4.259-11.713-11.97v-38.706h-10.504v40.582c0 5.935 1.708 10.857 4.975 14.206 3.317 3.448 8.296 5.274 14.325 5.274 8.796 0 16.337-4.565 20.204-8.623v7.507H338v-58.897h-10.454zm24.38 19.43h10.253V156.5h-10.254zm96.1-35.001c-9.8-2.64-15.13-4.922-15.13-9.387 0-3.146 3.067-6.545 9.75-6.545 6.584 0 10.804 3.449 11.609 9.487v.104h10.354v-.154c-1.004-11.873-9.046-18.67-21.963-18.67-5.529 0-10.604 1.676-14.275 4.718-3.567 2.942-5.529 6.951-5.529 11.213 0 8.877 5.13 13.948 17.192 16.995 11.258 2.892 16.633 5.224 16.633 10.45 0 3.954-3.617 8.216-11.608 8.216-8.192 0-12.667-3.092-14.375-9.993v-.1h-9.9v.15c1.154 12.275 10.15 19.584 24.075 19.584 6.433 0 11.962-1.88 16.033-5.478 3.92-3.453 6.03-8.321 6.03-13.65 0-8.37-5.48-13.288-18.897-16.94zm62.02-25.062c-8.696 0-16.737 4.262-20.908 8.624V156.55h-10.454v85.834h10.454v-40.176c4.475-6.341 11.558-10.45 17.992-10.45 7.791 0 12.416 4.462 12.416 11.969v38.657H530v-40.583c0-12.022-7.641-19.48-19.954-19.48zM405.804 160.51c-3.92 0-7.087 3.195-7.087 7.15 0 3.96 3.167 7.155 7.087 7.155s7.088-3.196 7.088-7.155c.05-3.955-3.167-7.15-7.088-7.15zM376.1 242.384h10.254V156.5H376.1zm24.48 0h10.454v-58.897h-10.455z"/></svg>