<svg width="152" height="84" viewBox="0 0 152 84" fill="none" xmlns="http://www.w3.org/2000/svg">
<path d="M13.4925 69.2951C13.0702 69.2951 12.8257 68.962 12.8257 68.6288V35.4918C12.7368 34.0703 12.9146 28.9399 16.893 24.7866C18.1376 23.454 21.6271 20.4779 26.9612 20.3891C32.1176 20.3002 35.6959 23.0542 36.9406 24.2092C38.2741 25.4529 41.3413 28.851 41.5191 34.2702C41.6747 39.7561 38.6075 43.3318 37.3629 44.6422C33.6956 48.3735 29.2283 48.7955 27.4724 48.8843C27.139 48.8843 26.8057 48.5511 26.8057 48.218C26.8057 47.796 27.0501 47.5517 27.4724 47.5517C29.0505 47.5517 33.1178 47.0631 36.4516 43.7316C37.3629 42.821 40.3633 39.4229 40.2744 34.3368C40.1855 29.3618 37.1184 26.1192 36.1182 25.2752C35.207 24.4535 32.0509 21.8771 27.3168 21.8771C27.2279 21.8771 27.1613 21.8771 27.0724 21.8771C22.2494 21.966 19.0933 24.6978 17.9376 25.8749C14.2704 29.5395 14.2037 34.1814 14.2037 35.514V68.6511C14.1592 69.0286 13.8925 69.2951 13.4925 69.2951Z" fill="#8246FA"/>
<path d="M27.0281 39.5563C24.361 39.5563 22.2051 37.402 22.2051 34.7368C22.2051 32.0716 24.361 29.9172 27.0281 29.9172C29.6951 29.9172 31.851 32.0716 31.851 34.7368C31.851 37.402 29.6951 39.5563 27.0281 39.5563ZM27.0281 31.161C25.1166 31.161 23.5386 32.7379 23.5386 34.6479C23.5386 36.558 25.1166 38.1349 27.0281 38.1349C28.9395 38.1349 30.5175 36.558 30.5175 34.6479C30.5175 32.7379 28.9395 31.161 27.0281 31.161Z" fill="#8246FA"/>
<path d="M17.9832 57.6574C17.5609 57.6574 17.3164 57.3243 17.3164 56.9911V35.4698C17.3164 35.0478 17.6498 34.8035 17.9832 34.8035C18.3166 34.8035 18.6499 35.1366 18.6499 35.4698V56.9911C18.6277 57.3243 18.3166 57.6574 17.9832 57.6574Z" fill="#8246FA"/>
<path d="M22.784 64.3869C22.3617 64.3869 22.1172 64.0537 22.1172 63.7206V52.2603C22.1172 51.8383 22.4506 51.594 22.784 51.594C23.1173 51.594 23.4507 51.9271 23.4507 52.2603V63.7206C23.5396 64.0537 23.2062 64.3869 22.784 64.3869Z" fill="#8246FA"/>
<path d="M9.15896 58.9899C8.73667 58.9899 8.49219 58.6567 8.49219 58.3236V43.7095C8.49219 43.2875 8.82557 43.0432 9.15896 43.0432C9.49234 43.0432 9.82573 43.3764 9.82573 43.7095V58.3236C9.82573 58.7456 9.58125 58.9899 9.15896 58.9899Z" fill="#8246FA"/>
<path d="M27.0278 44.3757C21.627 44.3757 17.293 39.9782 17.293 34.6478C17.293 29.3397 21.6048 24.9199 27.0278 24.9199C32.4509 24.9199 36.7627 29.3175 36.7627 34.6478C36.7627 39.9782 32.362 44.3757 27.0278 44.3757ZM27.0278 26.2747C22.3827 26.2747 18.6265 30.006 18.6265 34.67C18.6265 39.3341 22.3604 43.0654 27.0278 43.0654C31.6952 43.0654 35.4291 39.3341 35.4291 34.67C35.4291 30.006 31.6063 26.2747 27.0278 26.2747Z" fill="#8246FA"/>
<path d="M96.7726 33.7373H93.9499C93.7943 33.7373 93.7054 33.8261 93.6165 33.8928L88.5491 40.4669C88.2157 40.8889 87.9712 41.2887 87.7267 41.6218C87.5711 41.2887 87.2377 40.8667 86.9044 40.4669L81.748 33.915C81.6591 33.8261 81.5924 33.7595 81.4146 33.7595H78.6808C78.5253 33.7595 78.3475 33.8484 78.3475 34.0038C78.2586 34.1593 78.2586 34.337 78.4364 34.4258L86.1709 44.5535V53.6151C86.1709 53.8594 86.3265 54.0371 86.5932 54.0371H88.9936C89.2381 54.0371 89.4159 53.8816 89.4159 53.6151V44.4647L97.1504 34.337C97.2393 34.1815 97.2393 34.0038 97.2393 33.915C97.106 33.915 96.9282 33.7373 96.7726 33.7373Z" fill="white"/>
<path d="M119.221 33.7373H102.352C102.107 33.7373 101.93 33.8928 101.93 34.1593V36.2248C101.93 36.4691 102.085 36.6468 102.352 36.6468H109.175V53.5929C109.175 53.8372 109.331 54.0149 109.598 54.0149H111.998C112.242 54.0149 112.42 53.8594 112.42 53.5929V36.7356H119.244C119.488 36.7356 119.666 36.5802 119.666 36.3136V34.2481C119.621 33.9816 119.466 33.7373 119.221 33.7373Z" fill="white"/>
<path d="M64.4345 33.7373H56.4555C56.211 33.7373 56.0332 33.8928 56.0332 34.1593V53.5929C56.0332 53.8372 56.1888 54.0149 56.4555 54.0149H58.8559C59.1003 54.0149 59.2782 53.8594 59.2782 53.5929V50.2614V49.1065V46.197V45.7084V36.5802H64.679C67.6795 36.5802 69.8354 38.5791 69.8354 41.3997C69.8354 44.2204 67.6795 46.2192 64.5901 46.2192H63.7677C63.7677 46.2192 63.5233 46.2192 63.4344 46.3747C63.3455 46.4636 63.3455 46.619 63.3455 46.619C63.3455 47.2853 63.3455 48.0404 63.3455 48.6845C63.3455 48.6845 63.3455 48.84 63.4344 49.0177C63.5233 49.1065 63.6788 49.1065 63.7677 49.1065C63.9233 49.1065 64.19 49.1065 64.3456 49.1065C64.7679 49.1065 68.9241 49.3508 71.4134 46.197C72.9914 44.1981 73.0803 41.8883 73.0803 41.3775C73.2359 36.8911 69.6798 33.7373 64.4345 33.7373Z" fill="white"/>
<path d="M129.511 41.7995V34.1593C129.511 33.915 129.355 33.7373 129.088 33.7373H126.688C126.443 33.7373 126.266 33.8928 126.266 34.1593V53.5929C126.266 53.8372 126.421 54.0149 126.688 54.0149H129.088C129.333 54.0149 129.511 53.8594 129.511 53.5929V44.709" fill="white"/>
<path d="M142.824 33.7373H140.424C140.179 33.7373 140.001 33.8928 140.001 34.1593V41.7995H133.445C133.289 41.7995 133.111 41.9549 133.111 42.1326V44.3758C133.111 44.5313 133.267 44.709 133.445 44.709H140.001V53.6817C140.001 53.9261 140.157 54.1037 140.424 54.1037H142.824C143.068 54.1037 143.246 53.9483 143.246 53.6817V34.1593C143.224 33.9816 143.068 33.7373 142.824 33.7373Z" fill="white"/>
</svg>
