<svg width="66" height="66" viewBox="0 0 66 66" fill="none" xmlns="http://www.w3.org/2000/svg">
<rect width="66" height="66" rx="16" fill="black"/>
<g clip-path="url(#clip0_4_346)">
<path d="M14.25 18C14.25 18.4925 14.347 18.9801 14.5355 19.4351C14.7239 19.89 15.0001 20.3034 15.3483 20.6516C15.6966 20.9999 16.11 21.2761 16.5649 21.4645C17.0199 21.653 17.5075 21.75 18 21.75C18.4925 21.75 18.9801 21.653 19.4351 21.4645C19.89 21.2761 20.3034 20.9999 20.6516 20.6516C20.9999 20.3034 21.2761 19.89 21.4645 19.4351C21.653 18.9801 21.75 18.4925 21.75 18C21.75 17.5075 21.653 17.0199 21.4645 16.5649C21.2761 16.11 20.9999 15.6966 20.6516 15.3483C20.3034 15.0001 19.89 14.7239 19.4351 14.5355C18.9801 14.347 18.4925 14.25 18 14.25C17.5075 14.25 17.0199 14.347 16.5649 14.5355C16.11 14.7239 15.6966 15.0001 15.3483 15.3483C15.0001 15.6966 14.7239 16.11 14.5355 16.5649C14.347 17.0199 14.25 17.5075 14.25 18V18Z" stroke="#9945FF" stroke-width="2" stroke-linecap="round" stroke-linejoin="round"/>
<path d="M21.0367 20.2017L24.25 22.5317" stroke="#9945FF" stroke-width="2" stroke-linecap="round" stroke-linejoin="round"/>
<path d="M14.25 48C14.25 48.4925 14.347 48.9801 14.5355 49.4351C14.7239 49.89 15.0001 50.3034 15.3483 50.6516C15.6966 50.9999 16.11 51.2761 16.5649 51.4645C17.0199 51.653 17.5075 51.75 18 51.75C18.4925 51.75 18.9801 51.653 19.4351 51.4645C19.89 51.2761 20.3034 50.9999 20.6516 50.6516C20.9999 50.3034 21.2761 49.89 21.4645 49.4351C21.653 48.9801 21.75 48.4925 21.75 48C21.75 47.5075 21.653 47.0199 21.4645 46.5649C21.2761 46.11 20.9999 45.6966 20.6516 45.3483C20.3034 45.0001 19.89 44.7239 19.4351 44.5355C18.9801 44.347 18.4925 44.25 18 44.25C17.5075 44.25 17.0199 44.347 16.5649 44.5355C16.11 44.7239 15.6966 45.0001 15.3483 45.3483C15.0001 45.6966 14.7239 46.11 14.5355 46.5649C14.347 47.0199 14.25 47.5075 14.25 48Z" fill="#9945FF" fill-opacity="0.3" stroke="#9945FF" stroke-width="2" stroke-linecap="round" stroke-linejoin="round"/>
<path d="M21.0367 45.7983L24.25 43.4667" stroke="#9945FF" stroke-width="2" stroke-linecap="round" stroke-linejoin="round"/>
<path d="M44.25 18C44.25 18.9946 44.6451 19.9484 45.3483 20.6516C46.0516 21.3549 47.0054 21.75 48 21.75C48.9946 21.75 49.9484 21.3549 50.6516 20.6516C51.3549 19.9484 51.75 18.9946 51.75 18C51.75 17.0054 51.3549 16.0516 50.6516 15.3483C49.9484 14.6451 48.9946 14.25 48 14.25C47.0054 14.25 46.0516 14.6451 45.3483 15.3483C44.6451 16.0516 44.25 17.0054 44.25 18Z" fill="#9945FF" fill-opacity="0.3" stroke="#9945FF" stroke-width="2" stroke-linecap="round" stroke-linejoin="round"/>
<path d="M44.9633 20.2017L41.75 22.5317" stroke="#9945FF" stroke-width="2" stroke-linecap="round" stroke-linejoin="round"/>
<path d="M44.25 48C44.25 48.9946 44.6451 49.9484 45.3483 50.6516C46.0516 51.3549 47.0054 51.75 48 51.75C48.9946 51.75 49.9484 51.3549 50.6516 50.6516C51.3549 49.9484 51.75 48.9946 51.75 48C51.75 47.0054 51.3549 46.0516 50.6516 45.3483C49.9484 44.6451 48.9946 44.25 48 44.25C47.0054 44.25 46.0516 44.6451 45.3483 45.3483C44.6451 46.0516 44.25 47.0054 44.25 48V48Z" stroke="#9945FF" stroke-width="2" stroke-linecap="round" stroke-linejoin="round"/>
<path d="M44.9633 45.7983L41.75 43.4667" stroke="#9945FF" stroke-width="2" stroke-linecap="round" stroke-linejoin="round"/>
<path d="M29.25 36.75C29.25 37.4917 29.4699 38.2167 29.882 38.8334C30.294 39.4501 30.8797 39.9307 31.5649 40.2146C32.2502 40.4984 33.0042 40.5726 33.7316 40.4279C34.459 40.2833 35.1272 39.9261 35.6517 39.4017C36.1761 38.8772 36.5333 38.209 36.6779 37.4816C36.8226 36.7542 36.7484 36.0002 36.4645 35.3149C36.1807 34.6297 35.7001 34.044 35.0834 33.632C34.4667 33.2199 33.7417 33 33 33C32.2583 33 31.5333 32.7801 30.9166 32.368C30.2999 31.956 29.8193 31.3703 29.5355 30.6851C29.2516 29.9998 29.1774 29.2458 29.3221 28.5184C29.4668 27.791 29.8239 27.1228 30.3484 26.5984C30.8728 26.0739 31.541 25.7168 32.2684 25.5721C32.9958 25.4274 33.7498 25.5016 34.4351 25.7855C35.1203 26.0693 35.706 26.5499 36.118 27.1666C36.5301 27.7833 36.75 28.5083 36.75 29.25" stroke="#9945FF" stroke-width="2" stroke-linecap="round" stroke-linejoin="round"/>
<path d="M33 23V25.5" stroke="#9945FF" stroke-width="2" stroke-linecap="round" stroke-linejoin="round"/>
<path d="M33 40.5V43" stroke="#9945FF" stroke-width="2" stroke-linecap="round" stroke-linejoin="round"/>
</g>
<defs>
<clipPath id="clip0_4_346">
<rect width="40" height="40" fill="white" transform="translate(13 13)"/>
</clipPath>
</defs>
</svg>
