<svg width="66" height="66" viewBox="0 0 66 66" fill="none" xmlns="http://www.w3.org/2000/svg">
<rect width="66" height="66" rx="16" fill="black"/>
<path d="M50.5 15.6117L46.9033 16.0117C44.0823 16.3252 41.452 17.5896 39.445 19.5967L23.1 35.9417L30.1667 43.0117L46.515 26.6667C48.5228 24.6602 49.7872 22.0296 50.1 19.2084L50.5 15.6117Z" fill="#9945FF" fill-opacity="0.3" stroke="#9945FF" stroke-width="2" stroke-linecap="round" stroke-linejoin="round"/>
<path d="M23.1 35.9416L17.0633 33.9283C16.8612 33.8612 16.6796 33.7434 16.5358 33.5863C16.392 33.4291 16.2908 33.2378 16.2419 33.0304C16.1929 32.8231 16.1978 32.6067 16.2562 32.4019C16.3145 32.197 16.4242 32.0104 16.575 31.86L16.9617 31.4733C18.2748 30.16 19.9276 29.2382 21.7351 28.8114C23.5425 28.3846 25.4331 28.4695 27.195 29.0566L29.2867 29.7533L23.1 35.9416Z" stroke="#9945FF" stroke-width="2" stroke-linecap="round" stroke-linejoin="round"/>
<path d="M23.1 35.9416L17.0633 33.9283C16.8612 33.8612 16.6796 33.7434 16.5358 33.5863C16.392 33.4291 16.2908 33.2378 16.2419 33.0304C16.1929 32.8231 16.1978 32.6067 16.2562 32.4019C16.3145 32.197 16.4242 32.0104 16.575 31.86L16.9617 31.4733C18.2748 30.16 19.9276 29.2382 21.7351 28.8114C23.5425 28.3846 25.4331 28.4695 27.195 29.0566L29.2867 29.7533L23.1 35.9416Z" stroke="#9945FF" stroke-width="2" stroke-linecap="round" stroke-linejoin="round"/>
<path d="M30.1667 43.0116L32.18 49.0483C32.2471 49.2505 32.3649 49.4321 32.522 49.5759C32.6792 49.7197 32.8705 49.8208 33.0779 49.8698C33.2852 49.9187 33.5016 49.9138 33.7064 49.8555C33.9113 49.7972 34.0979 49.6874 34.2483 49.5366L34.6367 49.15C35.9497 47.8367 36.8711 46.1838 37.2977 44.3763C37.7242 42.5689 37.639 40.6784 37.0517 38.9166L36.3583 36.8333L30.1667 43.0116Z" stroke="#9945FF" stroke-width="2" stroke-linecap="round" stroke-linejoin="round"/>
<path d="M30.1667 43.0116L32.18 49.0483C32.2471 49.2505 32.3649 49.4321 32.522 49.5759C32.6792 49.7197 32.8705 49.8208 33.0779 49.8698C33.2852 49.9187 33.5016 49.9138 33.7064 49.8555C33.9113 49.7972 34.0979 49.6874 34.2483 49.5366L34.6367 49.15C35.9497 47.8367 36.8711 46.1838 37.2977 44.3763C37.7242 42.5689 37.639 40.6784 37.0517 38.9166L36.3583 36.8333L30.1667 43.0116Z" stroke="#9945FF" stroke-width="2" stroke-linecap="round" stroke-linejoin="round"/>
<path d="M25.965 43.8967C25.9656 44.3892 25.8689 44.877 25.6804 45.3321C25.492 45.7872 25.2154 46.2005 24.8667 46.5483C23.4033 48.0117 16.0333 50.0833 16.0333 50.0833C16.0333 50.0833 18.105 42.7083 19.5683 41.25C20.2111 40.6056 21.0667 40.2175 21.975 40.1583" stroke="#9945FF" stroke-width="2" stroke-linecap="round" stroke-linejoin="round"/>
</svg>
