<svg width="50" height="20" viewBox="0 0 50 20" fill="none" xmlns="http://www.w3.org/2000/svg">
<g clip-path="url(#clip0_315_250)">
<path d="M10 1.6665V3.33317M10 16.6665V18.3332M3.33335 9.99984H1.66669M5.26178 5.2616L4.08327 4.08309M14.7383 5.2616L15.9168 4.08309M5.26178 14.7415L4.08327 15.92M14.7383 14.7415L15.9168 15.92M18.3334 9.99984H16.6667M14.1667 9.99984C14.1667 12.301 12.3012 14.1665 10 14.1665C7.69883 14.1665 5.83335 12.301 5.83335 9.99984C5.83335 7.69865 7.69883 5.83317 10 5.83317C12.3012 5.83317 14.1667 7.69865 14.1667 9.99984Z" stroke="#1D1A23" stroke-width="1.5" stroke-linecap="round" stroke-linejoin="round"/>
</g>
<g clip-path="url(#clip1_315_250)">
<path d="M48.5 12.8832C47.515 13.3286 46.4215 13.5766 45.2701 13.5766C40.9365 13.5766 37.4234 10.0635 37.4234 5.7299C37.4234 4.57851 37.6714 3.48505 38.1168 2.5C35.3943 3.73122 33.5 6.47102 33.5 9.65327C33.5 13.9869 37.0131 17.5 41.3467 17.5C44.529 17.5 47.2688 15.6057 48.5 12.8832Z" stroke="#D0D0DC" stroke-width="1.5" stroke-linecap="round" stroke-linejoin="round"/>
</g>
<defs>
<clipPath id="clip0_315_250">
<rect width="20" height="20" fill="white"/>
</clipPath>
<clipPath id="clip1_315_250">
<rect width="18" height="18" fill="white" transform="translate(32 1)"/>
</clipPath>
</defs>
</svg>
