<svg width="239" height="153" viewBox="0 0 239 153" fill="none" xmlns="http://www.w3.org/2000/svg">
<g clip-path="url(#clip0_3101_11645)">
<rect width="340" height="153" transform="translate(0.5)" fill="url(#paint0_linear_3101_11645)"/>
<g style="mix-blend-mode:color-dodge" opacity="0.34">
<rect width="340" height="153" transform="translate(0.5)" fill="url(#paint1_linear_3101_11645)"/>
</g>
<rect width="340" height="153" transform="translate(0.5)" fill="url(#paint2_linear_3101_11645)"/>
<g style="mix-blend-mode:hard-light" opacity="0.34">
<rect width="340" height="153" transform="translate(0.5)" fill="url(#paint3_linear_3101_11645)"/>
</g>
<rect width="339.643" height="153" transform="translate(0.857422)" fill="url(#paint4_linear_3101_11645)"/>
<g style="mix-blend-mode:color-dodge" opacity="0.34">
<rect width="339.643" height="153" transform="translate(0.857422)" fill="url(#paint5_linear_3101_11645)"/>
</g>
<g style="mix-blend-mode:hard-light" clip-path="url(#clip1_3101_11645)">
<path d="M126.362 68.1112V74.071H126.415C127.382 72.7768 128.764 72.1294 130.56 72.1294C131.361 72.1294 132.119 72.2626 132.833 72.5284C133.547 72.7942 134.182 73.195 134.736 73.7314C135.289 74.2672 135.723 74.9368 136.036 75.7408C136.349 76.5442 136.505 77.4724 136.505 78.5248C136.505 79.711 136.292 80.8132 135.862 81.8314C135.432 82.8502 134.764 83.6656 133.858 84.2794C132.951 84.8926 131.826 85.2004 130.482 85.2004C128.541 85.2004 127.159 84.571 126.335 83.3134H126.283V84.8746H122.598V68.1112H126.362ZM112.22 71.7794C119.382 71.7794 118.77 79.6094 118.77 79.6094H108.965C109.362 81.1676 110.679 82.1918 112.496 82.1918C114.683 82.1918 115.862 80.8466 115.862 80.8466L117.944 83.0114C116.872 84.0944 115.433 85.0838 112.464 85.0838C107.872 85.0838 105.424 81.9908 105.424 78.7124C105.424 75.434 107.261 71.7794 112.22 71.7794ZM201.404 71.7737C204.485 71.7737 206.444 72.9695 206.444 72.9695L205.178 75.7325C201.077 73.5677 199.22 75.0935 199.22 75.8561C199.22 76.6193 199.955 76.6811 202.811 77.2175C205.668 77.7539 206.995 78.9695 206.995 80.9285C206.995 82.8875 205.341 85.0529 201.302 85.0529C197.26 85.0529 195.424 83.7329 195.424 83.7329L196.649 80.9903C199.812 83.0321 203.403 82.3715 203.403 81.1559C203.403 80.2433 202.209 80.05 200.924 79.8971L200.37 79.8322C200.125 79.8026 199.882 79.7711 199.648 79.7327C198.016 79.4645 195.588 78.5783 195.588 76.0211C195.588 73.4645 198.323 71.7737 201.404 71.7737ZM183.363 67.2379V77.3623L188.719 72.1243H193.096L187.788 77.3155L193.617 85.0531H189.27L185.284 79.7635L183.363 81.6421V85.0531H179.781V67.2379H183.363ZM170.527 71.6918C173.067 71.6918 175.291 72.9788 176.521 74.9078L173.493 76.7198C172.926 75.623 171.809 74.8772 170.527 74.8772C168.667 74.8772 167.159 76.442 167.159 78.3722C167.159 80.3018 168.667 81.8672 170.527 81.8672C171.75 81.8672 172.818 81.1874 173.408 80.1734L176.449 81.9434C175.207 83.8118 173.02 85.0532 170.527 85.0532C166.655 85.0532 163.517 82.0616 163.517 78.3722C163.517 74.6822 166.655 71.6918 170.527 71.6918ZM153.883 71.6912C157.753 71.6912 160.893 74.6828 160.893 78.3716C160.893 82.0616 157.753 85.0526 153.883 85.0526C150.01 85.0526 146.873 82.0616 146.873 78.3716C146.873 74.6828 150.01 71.6912 153.883 71.6912ZM90.239 72.0626V84.9296H86.3514V72.0626H90.239ZM82.8606 68.1653V71.3819H74.1674V75.6503H81.85V78.8363H74.1674V84.9293H70.2793V68.1653H82.8606ZM98.5355 73.6705C98.5355 73.6705 99.9131 71.4745 102.76 71.8153V75.4027C102.76 75.4027 99.6679 74.5987 98.5355 77.8465V84.9289H94.8318V72.0625H98.3727L98.5355 73.5781V73.6705ZM143.168 67.1756V84.836H139.25V67.1756H143.168ZM129.428 74.9566C127.279 74.9566 126.205 76.2874 126.205 78.9502C126.205 79.9594 126.481 80.806 127.035 81.49C127.588 82.1734 128.422 82.5154 129.538 82.5154C130.282 82.5154 130.886 82.318 131.35 81.9232C131.814 81.5278 132.143 81.0448 132.337 80.473C132.532 79.9018 132.63 79.3312 132.63 78.7618C132.63 77.6674 132.375 76.7608 131.865 76.039C131.356 75.3172 130.543 74.9566 129.428 74.9566ZM153.883 74.8772C152.022 74.8772 150.515 76.4414 150.515 78.3716C150.515 80.3024 152.022 81.8672 153.883 81.8672C155.742 81.8672 157.249 80.3024 157.249 78.3716C157.249 76.4414 155.742 74.8772 153.883 74.8772ZM112.281 74.5832C110.387 74.5832 109.334 75.7718 108.978 77.3204H115.326C115.295 76.9178 114.668 74.5832 112.281 74.5832ZM88.2953 66C89.5565 66 90.5803 66.9558 90.5803 68.1342C90.5803 69.3126 89.5565 70.2684 88.2953 70.2684C87.0334 70.2684 86.0096 69.3126 86.0096 68.1342C86.0096 66.9558 87.0334 66 88.2953 66Z" fill="#14223D"/>
<path d="M57.2872 63C57.8728 63 58.3475 63.4835 58.3475 64.08V88.92C58.3475 89.5165 57.8728 90 57.2872 90H32.5602C31.9747 90 31.5 89.5165 31.5 88.92V64.08C31.5 63.4835 31.9747 63 32.5602 63H57.2872ZM44.9237 70.5L37.466 82.5H52.3813L44.9237 70.5Z" fill="#14223D"/>
</g>
</g>
<defs>
<linearGradient id="paint0_linear_3101_11645" x1="170" y1="0" x2="170" y2="153" gradientUnits="userSpaceOnUse">
<stop stop-color="#FF5114"/>
<stop offset="1" stop-color="#0A1A65"/>
</linearGradient>
<linearGradient id="paint1_linear_3101_11645" x1="0" y1="76.5" x2="340" y2="76.5" gradientUnits="userSpaceOnUse">
<stop stop-color="#504D61"/>
<stop offset="0.496118" stop-color="white"/>
<stop offset="1" stop-color="#504D61"/>
</linearGradient>
<linearGradient id="paint2_linear_3101_11645" x1="170" y1="153" x2="170" y2="0" gradientUnits="userSpaceOnUse">
<stop stop-color="#4E3542"/>
<stop offset="1" stop-color="#342A25"/>
</linearGradient>
<linearGradient id="paint3_linear_3101_11645" x1="0" y1="76.5" x2="340" y2="76.5" gradientUnits="userSpaceOnUse">
<stop stop-color="#504D61"/>
<stop offset="0.496118" stop-color="white"/>
<stop offset="1" stop-color="#504D61"/>
</linearGradient>
<linearGradient id="paint4_linear_3101_11645" x1="169.821" y1="0" x2="169.821" y2="153" gradientUnits="userSpaceOnUse">
<stop stop-color="#6EBAD2"/>
<stop offset="1" stop-color="#1C4ED3"/>
</linearGradient>
<linearGradient id="paint5_linear_3101_11645" x1="0" y1="76.5" x2="339.643" y2="76.5" gradientUnits="userSpaceOnUse">
<stop stop-color="#504D61"/>
<stop offset="0.496118" stop-color="white"/>
<stop offset="1" stop-color="#504D61"/>
</linearGradient>
<clipPath id="clip0_3101_11645">
<rect x="0.5" width="238" height="153" rx="16" fill="white"/>
</clipPath>
<clipPath id="clip1_3101_11645">
<rect width="176" height="27" fill="white" transform="translate(31.5 63)"/>
</clipPath>
</defs>
</svg>
