<svg aria-hidden="true" focusable="false" width="16" height="17" viewBox="0 0 16 17" fill="none" xmlns="http://www.w3.org/2000/svg">
<path d="M8 2.3418C6.71442 2.3418 5.45772 2.72302 4.3888 3.43724C3.31988 4.15147 2.48676 5.16663 1.99479 6.35435C1.50282 7.54207 1.37409 8.84901 1.6249 10.1099C1.8757 11.3708 2.49477 12.5289 3.40381 13.438C4.31285 14.347 5.47104 14.9661 6.73192 15.2169C7.99279 15.4677 9.29973 15.339 10.4874 14.847C11.6752 14.355 12.6903 13.5219 13.4046 12.453C14.1188 11.3841 14.5 10.1274 14.5 8.8418C14.498 7.1185 13.8126 5.46635 12.594 4.2478C11.3754 3.02924 9.7233 2.34378 8 2.3418ZM13.5 8.8418C13.5004 9.34902 13.4304 9.85385 13.2919 10.3418H10.885C11.0383 9.34767 11.0383 8.33592 10.885 7.3418H13.2919C13.4304 7.82974 13.5004 8.33457 13.5 8.8418ZM6.375 11.3418H9.625C9.30482 12.3909 8.74899 13.3529 8 14.1543C7.2513 13.3527 6.69551 12.3908 6.375 11.3418ZM6.13125 10.3418C5.95959 9.34916 5.95959 8.33443 6.13125 7.3418H9.87375C10.0454 8.33443 10.0454 9.34916 9.87375 10.3418H6.13125ZM2.5 8.8418C2.49957 8.33457 2.56961 7.82974 2.70813 7.3418H5.115C4.96167 8.33592 4.96167 9.34767 5.115 10.3418H2.70813C2.56961 9.85385 2.49957 9.34902 2.5 8.8418ZM9.625 6.3418H6.375C6.69518 5.29268 7.25102 4.33066 8 3.5293C8.74871 4.33087 9.3045 5.29282 9.625 6.3418ZM12.8956 6.3418H10.6694C10.3888 5.31236 9.91588 4.34534 9.27563 3.4918C10.0492 3.67763 10.7734 4.02853 11.3987 4.52046C12.024 5.01238 12.5355 5.63369 12.8981 6.3418H12.8956ZM6.72438 3.4918C6.08413 4.34534 5.61122 5.31236 5.33063 6.3418H3.10188C3.46455 5.63369 3.97605 5.01238 4.60131 4.52046C5.22657 4.02853 5.95081 3.67763 6.72438 3.4918ZM3.10188 11.3418H5.33063C5.61122 12.3712 6.08413 13.3383 6.72438 14.1918C5.95081 14.006 5.22657 13.6551 4.60131 13.1631C3.97605 12.6712 3.46455 12.0499 3.10188 11.3418ZM9.27563 14.1918C9.91588 13.3383 10.3888 12.3712 10.6694 11.3418H12.8981C12.5355 12.0499 12.024 12.6712 11.3987 13.1631C10.7734 13.6551 10.0492 14.006 9.27563 14.1918Z" fill="currentColor"/>
</svg>
