<svg width="136" height="136" viewBox="0 0 136 136" fill="none" xmlns="http://www.w3.org/2000/svg">
<path d="M71.9448 71.4371H64.143C51.8399 71.4371 41.8306 63.7351 41.8306 54.2685V26H45.3257V54.2685C45.3257 61.8084 53.7667 67.942 64.143 67.942H71.9448C82.321 67.942 90.7629 61.8084 90.7629 54.2685V26H94.258V54.2685C94.258 63.7351 84.2487 71.4371 71.9448 71.4371Z" fill="#FFDB20"/>
<path d="M97.7533 29.4781H38.3355C37.3798 29.4781 36.605 28.7033 36.605 27.7476C36.605 26.7919 37.3798 26.0171 38.3355 26.0171H97.7533C98.709 26.0171 99.4838 26.7919 99.4838 27.7476C99.4838 28.7033 98.709 29.4781 97.7533 29.4781Z" fill="#FFDB20"/>
<path d="M64.5493 103.044H61.0541V85.87L57.3892 79.2603L61.1625 69.0461L64.4409 70.2578L61.2239 78.9667L64.5493 84.9655V103.044Z" fill="#FFDB20"/>
<path d="M76.7823 102.974H73.2871V84.9945L76.6159 78.5247L73.4066 70.2869L76.6628 69.0171L80.4438 78.7227L76.7823 85.841V102.974Z" fill="#FFDB20"/>
<path d="M91.0338 110.155H46.8032V99.3233H91.0338V110.155ZM50.8394 106.117H86.9976V103.361H50.8394V106.117Z" fill="#FFDB20"/>
<path d="M42.8014 56.1304C30.7962 51.1181 25.4801 46.6467 26.0688 42.0559C26.9247 35.3847 40.57 33.1252 43.2963 32.7395L43.8621 36.7364C38.2925 37.5265 30.402 39.9943 30.0726 42.5696C29.9941 43.184 30.3132 46.5426 44.3562 52.4066L42.8014 56.1304Z" fill="#FFDB20"/>
<path d="M93.246 56.1475L91.7749 52.3895C105.693 46.9437 106.083 43.6175 106.02 43.0065C105.749 40.3851 97.8061 37.6767 92.176 36.7278L92.8441 32.748C95.5918 33.2088 109.335 35.8472 110.035 42.5884C110.51 47.1724 105.175 51.4816 93.246 56.1475Z" fill="#FFDB20"/>
<path d="M77.0223 59.873L68.9184 55.6116L60.8145 59.873L62.3624 50.8484L55.8047 44.4571L64.866 43.1413L68.9184 34.9308L72.9699 43.1413L82.0312 44.4571L75.4744 50.8484L77.0223 59.873ZM63.3172 46.8976L66.117 49.6265L65.4565 53.4835L68.9184 51.6625L72.3803 53.4835L71.7181 49.6265L74.5187 46.8976L70.6489 46.3361L68.9184 42.829L67.187 46.3361L63.3172 46.8976Z" fill="#FFDB20"/>
</svg>
