<svg width="239" height="153" viewBox="0 0 239 153" fill="none" xmlns="http://www.w3.org/2000/svg">
<g clip-path="url(#clip0_3101_11587)">
<rect width="340" height="153" transform="translate(0.5)" fill="url(#paint0_linear_3101_11587)"/>
<g style="mix-blend-mode:color-dodge" opacity="0.34">
<rect width="340" height="153" transform="translate(0.5)" fill="url(#paint1_linear_3101_11587)"/>
</g>
<rect width="238" height="153" transform="translate(0.5)" fill="url(#paint2_linear_3101_11587)"/>
<g style="mix-blend-mode:hard-light" opacity="0.34">
<rect width="238" height="153" transform="translate(0.5)" fill="url(#paint3_linear_3101_11587)"/>
</g>
<g style="mix-blend-mode:overlay" clip-path="url(#clip1_3101_11587)">
<path d="M75.948 98.4118V80.1556C75.948 75.9931 73.757 74.6887 70.3175 74.6887C68.9756 74.7183 67.6585 75.0528 66.4667 75.6669C65.2746 76.2815 64.2404 77.1586 63.4437 78.2309V98.4118H55.5V56.9914H63.4432V72.3303C64.7734 70.8419 66.4116 69.6548 68.2463 68.8499C70.0797 68.0458 72.0666 67.643 74.0714 67.6692C80.6964 67.6692 83.8871 71.2722 83.8871 77.112V98.4118H75.948ZM104.417 98.9232C95.2177 98.9232 88.5323 92.6145 88.5323 82.8127C88.5323 73.0114 95.0458 66.7073 104.417 66.7073C113.559 66.7073 120.016 72.8472 120.016 82.1367C120.024 83.1552 119.948 84.1728 119.787 85.1788H96.6458C97.0458 89.7979 100.246 92.389 104.264 92.389C107.693 92.389 109.578 90.6989 110.607 88.6335H119.235C117.52 94.3608 112.264 98.9232 104.417 98.9232ZM96.7031 79.8882H111.749C111.635 75.7768 108.321 73.1853 104.207 73.1853C100.379 73.1853 97.3503 75.6076 96.7222 79.8882H96.7031ZM124.145 56.9914H131.887V98.4118H124.145V56.9914ZM137.048 59.0348C137.048 56.4539 139.105 54.4346 141.961 54.4346C144.817 54.4346 146.855 56.4355 146.855 59.0348C146.855 61.6341 144.741 63.635 141.942 63.635C139.143 63.635 137.048 61.5967 137.048 59.0348ZM137.905 67.3373H145.903V98.4118H137.905V67.3373Z" fill="white"/>
<path d="M176.341 82.0482C176.199 79.6815 175.151 77.458 173.409 75.832C171.668 74.206 169.365 73.3005 166.972 73.3005C164.579 73.3005 162.277 74.206 160.535 75.832C158.794 77.458 157.745 79.6815 157.603 82.0482H150.468C150.468 79.8992 150.895 77.7713 151.725 75.7859C152.555 73.8005 153.771 71.9965 155.305 70.4769C156.838 68.9574 158.659 67.752 160.663 66.9298C162.667 66.1075 164.815 65.6844 166.984 65.6846C169.153 65.6844 171.301 66.1076 173.305 66.9299C175.308 67.7522 177.129 68.9575 178.663 70.4771C180.197 71.9966 181.413 73.8006 182.243 75.786C183.073 77.7713 183.5 79.8993 183.5 82.0482H176.341ZM167.331 99.4346C164.235 99.4344 161.202 98.5618 158.586 96.9187C155.964 95.2705 153.866 92.9217 152.532 90.1431L158.95 87.1618C159.697 88.696 160.857 89.9964 162.302 90.9204C163.742 91.8417 165.413 92.3493 167.127 92.387C168.841 92.4239 170.532 91.9894 172.012 91.1316C173.496 90.2711 174.711 89.0219 175.525 87.5213L181.952 90.5082C180.574 93.1867 178.479 95.4381 175.897 97.0163C173.321 98.5897 170.357 99.4266 167.331 99.4346Z" fill="#F76C1B"/>
</g>
</g>
<defs>
<linearGradient id="paint0_linear_3101_11587" x1="170" y1="0" x2="170" y2="153" gradientUnits="userSpaceOnUse">
<stop stop-color="#FF5114"/>
<stop offset="1" stop-color="#0A1A65"/>
</linearGradient>
<linearGradient id="paint1_linear_3101_11587" x1="0" y1="76.5" x2="340" y2="76.5" gradientUnits="userSpaceOnUse">
<stop stop-color="#504D61"/>
<stop offset="0.496118" stop-color="white"/>
<stop offset="1" stop-color="#504D61"/>
</linearGradient>
<linearGradient id="paint2_linear_3101_11587" x1="119" y1="153" x2="119" y2="0" gradientUnits="userSpaceOnUse">
<stop stop-color="#4E3542"/>
<stop offset="1" stop-color="#342A25"/>
</linearGradient>
<linearGradient id="paint3_linear_3101_11587" x1="0" y1="76.5" x2="238" y2="76.5" gradientUnits="userSpaceOnUse">
<stop stop-color="#504D61"/>
<stop offset="0.496118" stop-color="white"/>
<stop offset="1" stop-color="#504D61"/>
</linearGradient>
<clipPath id="clip0_3101_11587">
<rect x="0.5" width="238" height="153" rx="16" fill="white"/>
</clipPath>
<clipPath id="clip1_3101_11587">
<rect width="128" height="45" fill="white" transform="translate(55.5 54.4346)"/>
</clipPath>
</defs>
</svg>
