<svg width="238" height="153" viewBox="0 0 238 153" fill="none" xmlns="http://www.w3.org/2000/svg">
<g clip-path="url(#clip0_3892_12767)">
<rect width="340" height="153" fill="url(#paint0_linear_3892_12767)"/>
<g style="mix-blend-mode:hard-light" opacity="0.34">
<rect width="340" height="153" fill="url(#paint1_linear_3892_12767)"/>
</g>
<g style="mix-blend-mode:overlay" opacity="0.9" clip-path="url(#clip1_3892_12767)" filter="url(#filter0_i_3892_12767)">
<path d="M58.3072 55.2406H45.7929C44.9364 55.2406 44.2082 55.8629 44.0745 56.7086L39.0131 88.7987C38.9125 89.4316 39.403 90.0027 40.0452 90.0027H46.0197C46.8761 90.0027 47.6043 89.3806 47.7379 88.5334L49.103 79.8783C49.2348 79.0308 49.9648 78.4086 50.8194 78.4086H54.7811C63.0246 78.4086 67.7822 74.4195 69.0248 66.5146C69.5847 63.0561 69.0485 60.3388 67.429 58.4358C65.6504 56.3459 62.4957 55.2406 58.3072 55.2406ZM59.7511 66.9611C59.0667 71.4516 55.6356 71.4516 52.3181 71.4516H50.4297L51.7545 63.0654C51.8332 62.5584 52.2723 62.1851 52.7847 62.1851H53.6502C55.91 62.1851 58.0419 62.1851 59.1434 63.4732C59.8004 64.2419 60.0017 65.3837 59.7511 66.9611Z" fill="black"/>
<path d="M95.7145 66.8165H89.722C89.2115 66.8165 88.7705 67.1899 88.6915 67.6968L88.4266 69.3729L88.0073 68.7653C86.71 66.8823 83.8168 66.253 80.9293 66.253C74.3072 66.253 68.651 71.2686 67.5495 78.3044C66.9768 81.8141 67.7911 85.1701 69.7819 87.5103C71.6081 89.6622 74.2211 90.5588 77.3302 90.5588C82.6661 90.5588 85.625 87.1281 85.625 87.1281L85.3577 88.7932C85.2569 89.43 85.7475 90.0009 86.3863 90.0009H91.784C92.6423 90.0009 93.3669 89.3787 93.5025 88.5316L96.7412 68.0206C96.8439 67.3892 96.3552 66.8165 95.7145 66.8165ZM87.3614 78.4801C86.7833 81.9037 84.0658 84.2022 80.6002 84.2022C78.86 84.2022 77.4692 83.6439 76.5761 82.5863C75.6905 81.5359 75.3538 80.0409 75.6357 78.3757C76.1754 74.9814 78.9387 72.6081 82.3511 72.6081C84.0532 72.6081 85.4364 73.1735 86.3477 74.2401C87.261 75.3179 87.6229 76.8222 87.3614 78.4801Z" fill="black"/>
<path d="M127.631 66.8164H121.609C121.034 66.8164 120.494 67.1019 120.169 67.5796L111.863 79.814L108.342 68.0571C108.121 67.3214 107.442 66.8164 106.673 66.8164H100.756C100.036 66.8164 99.5371 67.5191 99.7657 68.1961L106.399 87.6622L100.163 96.4657C99.6722 97.1591 100.166 98.1128 101.014 98.1128H107.029C107.599 98.1128 108.134 97.8345 108.458 97.3661L128.487 68.4543C128.967 67.7624 128.474 66.8164 127.631 66.8164Z" fill="black"/>
<path d="M147.569 55.2406H135.052C134.198 55.2406 133.469 55.8629 133.336 56.7086L128.274 88.7987C128.174 89.4316 128.664 90.0027 129.303 90.0027H135.726C136.322 90.0027 136.833 89.5674 136.926 88.9744L138.362 79.8783C138.494 79.0308 139.225 78.4086 140.079 78.4086H144.039C152.284 78.4086 157.04 74.4195 158.284 66.5146C158.846 63.0561 158.306 60.3388 156.687 58.4358C154.91 56.3459 151.757 55.2406 147.569 55.2406ZM149.012 66.9611C148.33 71.4516 144.899 71.4516 141.579 71.4516H139.693L141.02 63.0654C141.098 62.5584 141.534 62.1851 142.048 62.1851H142.913C145.172 62.1851 147.305 62.1851 148.407 63.4732C149.064 64.2419 149.263 65.3837 149.012 66.9611Z" fill="white"/>
<path d="M184.974 66.8165H178.985C178.471 66.8165 178.034 67.1899 177.957 67.6968L177.691 69.3729L177.271 68.7653C175.973 66.8823 173.082 66.253 170.195 66.253C163.572 66.253 157.918 71.2686 156.816 78.3044C156.246 81.8141 157.056 85.1701 159.047 87.5103C160.877 89.6622 163.486 90.5588 166.595 90.5588C171.931 90.5588 174.89 87.1281 174.89 87.1281L174.623 88.7932C174.522 89.43 175.012 90.0009 175.655 90.0009H181.051C181.906 90.0009 182.634 89.3787 182.768 88.5316L186.008 68.0206C186.107 67.3892 185.617 66.8165 184.974 66.8165ZM176.621 78.4801C176.046 81.9037 173.325 84.2022 169.86 84.2022C168.123 84.2022 166.729 83.6439 165.836 82.5863C164.95 81.5359 164.617 80.0409 164.895 78.3757C165.439 74.9814 168.198 72.6081 171.611 72.6081C173.313 72.6081 174.696 73.1735 175.607 74.2401C176.524 75.3179 176.886 76.8222 176.621 78.4801Z" fill="white"/>
<path d="M192.039 56.121L186.903 88.7987C186.802 89.4316 187.292 90.0027 187.931 90.0027H193.095C193.953 90.0027 194.682 89.3806 194.813 88.5334L199.878 56.4451C199.979 55.8117 199.489 55.239 198.85 55.239H193.067C192.557 55.2406 192.118 55.6143 192.039 56.121Z" fill="white"/>
</g>
</g>
<defs>
<filter id="filter0_i_3892_12767" x="39" y="55.2378" width="160.892" height="42.8745" filterUnits="userSpaceOnUse" color-interpolation-filters="sRGB">
<feFlood flood-opacity="0" result="BackgroundImageFix"/>
<feBlend mode="normal" in="SourceGraphic" in2="BackgroundImageFix" result="shape"/>
<feColorMatrix in="SourceAlpha" type="matrix" values="0 0 0 0 0 0 0 0 0 0 0 0 0 0 0 0 0 0 127 0" result="hardAlpha"/>
<feOffset dy="1"/>
<feComposite in2="hardAlpha" operator="arithmetic" k2="-1" k3="1"/>
<feColorMatrix type="matrix" values="0 0 0 0 0.0588235 0 0 0 0 0.0392157 0 0 0 0 0.0862745 0 0 0 1 0"/>
<feBlend mode="normal" in2="shape" result="effect1_innerShadow_3892_12767"/>
</filter>
<linearGradient id="paint0_linear_3892_12767" x1="340" y1="76.5" x2="0" y2="76.5" gradientUnits="userSpaceOnUse">
<stop stop-color="#002B8A"/>
<stop offset="1" stop-color="#009AE0"/>
</linearGradient>
<linearGradient id="paint1_linear_3892_12767" x1="0" y1="76.5" x2="340" y2="76.5" gradientUnits="userSpaceOnUse">
<stop stop-color="#504D61"/>
<stop offset="0.496118" stop-color="white"/>
<stop offset="1" stop-color="#504D61"/>
</linearGradient>
<clipPath id="clip0_3892_12767">
<rect width="238" height="153" rx="16" fill="white"/>
</clipPath>
<clipPath id="clip1_3892_12767">
<rect width="160.892" height="42.8745" fill="white" transform="translate(39 55.2378)"/>
</clipPath>
</defs>
</svg>
