<svg width="239" height="153" viewBox="0 0 239 153" fill="none" xmlns="http://www.w3.org/2000/svg">
<g clip-path="url(#clip0_3101_11538)">
<rect width="340" height="153" transform="translate(0.5)" fill="url(#paint0_linear_3101_11538)"/>
<g style="mix-blend-mode:color-dodge" opacity="0.34">
<rect width="340" height="153" transform="translate(0.5)" fill="url(#paint1_linear_3101_11538)"/>
</g>
<g style="mix-blend-mode:color">
<path fill-rule="evenodd" clip-rule="evenodd" d="M119 101.123C132.359 101.123 143.188 90.2935 143.188 76.9346C143.188 63.5758 132.359 52.7463 119 52.7463C105.641 52.7463 94.8117 63.5758 94.8117 76.9346C94.8117 90.2935 105.641 101.123 119 101.123ZM119 114.435C139.711 114.435 156.5 97.6453 156.5 76.9346C156.5 56.2239 139.711 39.4346 119 39.4346C98.2894 39.4346 81.5 56.2239 81.5 76.9346C81.5 97.6453 98.2894 114.435 119 114.435Z" fill="#F74E02"/>
<path fill-rule="evenodd" clip-rule="evenodd" d="M106.606 89.7594C113.12 89.7594 118.401 84.4788 118.401 77.9648C118.401 71.4508 113.12 66.1702 106.606 66.1702C100.092 66.1702 94.8117 71.4508 94.8117 77.9648C94.8117 84.4788 100.092 89.7594 106.606 89.7594ZM106.606 103.071C120.472 103.071 131.713 91.8306 131.713 77.9648C131.713 64.099 120.472 52.8585 106.606 52.8585C92.7405 52.8585 81.5 64.099 81.5 77.9648C81.5 91.8306 92.7405 103.071 106.606 103.071Z" fill="#F74E02"/>
</g>
</g>
<defs>
<linearGradient id="paint0_linear_3101_11538" x1="170" y1="0" x2="170" y2="153" gradientUnits="userSpaceOnUse">
<stop stop-color="#FF5114"/>
<stop offset="1" stop-color="#0A1A65"/>
</linearGradient>
<linearGradient id="paint1_linear_3101_11538" x1="0" y1="76.5" x2="340" y2="76.5" gradientUnits="userSpaceOnUse">
<stop stop-color="#504D61"/>
<stop offset="0.496118" stop-color="white"/>
<stop offset="1" stop-color="#504D61"/>
</linearGradient>
<clipPath id="clip0_3101_11538">
<rect x="0.5" width="238" height="153" rx="16" fill="white"/>
</clipPath>
</defs>
</svg>
