<svg width="24" height="24" viewBox="0 0 24 24" fill="none" xmlns="http://www.w3.org/2000/svg">
<mask id="mask0_1086_437" style="mask-type:luminance" maskUnits="userSpaceOnUse" x="0" y="0" width="24" height="24">
<path d="M24 0H0V24H24V0Z" fill="white"/>
</mask>
<g mask="url(#mask0_1086_437)">
<path d="M11.9986 1.99609V3.99649M11.9986 19.9961V21.9965M3.99942 11.9945H1.99902M6.31302 6.30889L4.89942 4.89649M17.6854 6.31009L19.099 4.89649M6.31302 17.6861L4.89942 19.0997M17.6854 17.6861L19.099 19.0997M21.9994 11.9957H19.999M16.999 11.9957C17.0093 12.6588 16.8876 13.3173 16.6409 13.9329C16.3943 14.5485 16.0276 15.1089 15.5623 15.5815C15.097 16.054 14.5424 16.4293 13.9307 16.6855C13.319 16.9416 12.6624 17.0736 11.9992 17.0736C11.336 17.0736 10.6795 16.9416 10.0678 16.6855C9.45607 16.4293 8.90142 16.054 8.43613 15.5815C7.97083 15.1089 7.60419 14.5485 7.35754 13.9329C7.11088 13.3173 6.98915 12.6588 6.99942 11.9957C7.01976 10.6831 7.55547 9.43111 8.4909 8.51006C9.42633 7.589 10.6865 7.07275 11.9992 7.07275C13.312 7.07275 14.5721 7.589 15.5075 8.51006C16.443 9.43111 16.9787 10.6831 16.999 11.9957Z" stroke="#D0D0DC" stroke-width="1.5" stroke-linecap="round" stroke-linejoin="round"/>
</g>
</svg>
