<svg width="238" height="153" viewBox="0 0 238 153" fill="none" xmlns="http://www.w3.org/2000/svg">
<g clip-path="url(#clip0_3892_12754)">
<path d="M0 0H340V153H0V0Z" fill="#1434CB"/>
<path d="M0 0H340V153H0V0Z" fill="black" fill-opacity="0.2"/>
<g style="mix-blend-mode:color-dodge" opacity="0.34">
<rect width="238" height="153" fill="url(#paint0_linear_3892_12754)"/>
</g>
<g style="mix-blend-mode:overlay" opacity="0.9" clip-path="url(#clip1_3892_12754)" filter="url(#filter0_i_3892_12754)">
<path d="M138.62 56.0647C129.512 56.0647 121.372 60.8091 121.372 69.5727C121.372 79.6239 135.808 80.3181 135.808 85.3683C135.808 87.4947 133.383 89.3978 129.241 89.3978C123.363 89.3978 118.97 86.7386 118.97 86.7386L117.09 95.5834C117.09 95.5834 122.151 97.8298 128.87 97.8298C138.828 97.8298 146.665 92.8532 146.665 83.9386C146.665 73.3171 132.168 72.6435 132.168 67.9572C132.168 66.2915 134.159 64.467 138.288 64.467C142.949 64.467 146.749 66.4011 146.749 66.4011L148.59 57.8595C148.59 57.8595 144.452 56.0647 138.618 56.0647H138.62ZM55.2851 56.7098L55.0642 57.9988C55.0642 57.9988 58.896 58.7033 62.3477 60.1097C66.792 61.7213 67.1079 62.6606 67.8565 65.5741L76.0119 97.164H86.9447L103.787 56.7098H92.8799L82.0574 84.2148L77.6414 60.8994C77.2369 58.2311 75.1849 56.7085 72.6745 56.7085H55.2864L55.2851 56.7098ZM108.174 56.7098L99.6176 97.164H110.019L114.281 76.9369L118.544 56.7098H108.174ZM166.184 56.7098C163.677 56.7098 162.348 58.0595 161.373 60.4168L146.134 97.164H157.042L159.151 91.0391H172.439L173.722 97.164H183.347L174.951 56.7098H166.184ZM167.603 67.6398L170.837 82.82H162.175L167.605 67.6398H167.603Z" fill="black"/>
</g>
</g>
<defs>
<filter id="filter0_i_3892_12754" x="55" y="56.0002" width="128.411" height="41.8928" filterUnits="userSpaceOnUse" color-interpolation-filters="sRGB">
<feFlood flood-opacity="0" result="BackgroundImageFix"/>
<feBlend mode="normal" in="SourceGraphic" in2="BackgroundImageFix" result="shape"/>
<feColorMatrix in="SourceAlpha" type="matrix" values="0 0 0 0 0 0 0 0 0 0 0 0 0 0 0 0 0 0 127 0" result="hardAlpha"/>
<feOffset dy="0.910715"/>
<feComposite in2="hardAlpha" operator="arithmetic" k2="-1" k3="1"/>
<feColorMatrix type="matrix" values="0 0 0 0 0.0588235 0 0 0 0 0.0392157 0 0 0 0 0.0862745 0 0 0 1 0"/>
<feBlend mode="normal" in2="shape" result="effect1_innerShadow_3892_12754"/>
</filter>
<linearGradient id="paint0_linear_3892_12754" x1="0" y1="76.5" x2="238" y2="76.5" gradientUnits="userSpaceOnUse">
<stop stop-color="#504D61"/>
<stop offset="0.496118" stop-color="white"/>
<stop offset="1" stop-color="#504D61"/>
</linearGradient>
<clipPath id="clip0_3892_12754">
<rect width="238" height="153" rx="16" fill="white"/>
</clipPath>
<clipPath id="clip1_3892_12754">
<rect width="128.411" height="41.8929" fill="white" transform="translate(55 56.0002)"/>
</clipPath>
</defs>
</svg>
