<svg width="239" height="153" viewBox="0 0 239 153" fill="none" xmlns="http://www.w3.org/2000/svg">
<g clip-path="url(#clip0_3101_11572)">
<rect width="340" height="153" transform="translate(0.5)" fill="#FF1F3E"/>
<g style="mix-blend-mode:color-dodge" opacity="0.34">
<rect width="238" height="153" transform="translate(0.5)" fill="url(#paint0_linear_3101_11572)"/>
</g>
<path d="M74.4903 65.3463C68.1606 65.3463 63.204 70.4992 63.204 77.0787C63.204 83.6583 68.1606 88.6511 74.4903 88.6511C80.8199 88.6511 85.7766 83.5664 85.7766 77.0787C85.7766 70.5911 80.8199 65.3463 74.4903 65.3463ZM74.4903 83.9234C71.1312 83.9234 68.6007 80.9821 68.6007 77.0814C68.6007 73.1806 71.1338 70.0792 74.4903 70.0792C77.8467 70.0792 80.4208 73.0888 80.4208 77.0814C80.4208 81.074 77.8705 83.9234 74.4903 83.9234ZM113.179 56H108.964C108.616 56 108.333 56.2809 108.333 56.6261V87.3543C108.333 87.6995 108.616 87.9804 108.964 87.9804H113.179C113.527 87.9804 113.809 87.6995 113.809 87.3543V56.6261C113.809 56.2809 113.527 56 113.179 56ZM104.047 65.9159C103.05 65.7125 101.404 65.3489 98.9129 65.3489C94.5628 65.3489 90.1928 66.6864 90.1928 73.5166V87.3569C90.1928 87.7021 90.4756 87.983 90.8231 87.983H95.0424C95.39 87.983 95.6728 87.7021 95.6728 87.3569V73.6374C95.6728 72.6386 95.8485 70.1474 99.6146 70.1474C101.179 70.1474 102.697 70.4008 103.012 70.4493C103.345 70.5018 103.64 70.3719 103.728 70.0477L104.641 66.6601C104.748 66.2729 104.508 66.0104 104.047 65.9186V65.9159ZM60.7223 66.0196H56.2215C55.9427 66.0196 55.6982 66.206 55.6269 66.4738L51.3428 81.5071L47.4182 68.1328C47.0733 66.8924 45.9223 66.0209 44.6207 66.0209H43.2319C41.9303 66.0209 40.7793 66.8898 40.4344 68.1328L36.5098 81.5071L32.2257 66.4738C32.1543 66.2073 31.9099 66.0196 31.6311 66.0196H27.1303C26.7087 66.0196 26.3995 66.4278 26.5303 66.8347L32.6723 85.9434C33.0648 87.1627 34.192 87.9804 35.4791 87.9804H37.2921C38.5884 87.9804 39.7486 87.1181 40.1186 85.8843L43.9296 73.0914L47.7406 85.8843C48.1093 87.1181 49.2695 87.9804 50.5671 87.9804H52.3801C53.6672 87.9804 54.7944 87.1627 55.1868 85.9434L61.3288 66.8347C61.4597 66.4265 61.1478 66.0196 60.7289 66.0196H60.7223ZM211.497 66.0196H207.196C207.196 66.0196 206.691 66.0196 206.523 66.4383L200.622 81.9271L194.715 66.4094C194.625 66.1666 194.358 66.017 194.097 66.017H189.794C189.205 66.017 189.015 66.4961 189.155 66.8701L197.789 88.3846L194.299 97.1377C194.127 97.5721 194.316 97.9948 194.884 97.9948H199.135C199.394 97.9948 199.626 97.8412 199.721 97.5997L212.076 66.9239C212.299 66.3924 211.928 66.0117 211.499 66.0117L211.497 66.0196ZM137.945 56H133.73C133.382 56 133.1 56.2809 133.1 56.6261V65.8398C132.282 65.6679 130.833 65.3463 128.473 65.3463C120.084 65.3463 118.33 72.8446 118.33 76.9423C118.33 86.0011 123.813 88.6537 128.938 88.6537C133.311 88.6537 136.286 87.6194 137.714 86.9947C138.576 86.6259 138.576 86.1271 138.576 85.6888V56.6261C138.576 56.2809 138.293 56 137.945 56ZM133.101 83.4391C133.101 83.4391 131.433 83.9287 129.554 83.9287C125.145 83.9287 124.081 80.8286 124.081 77.1509C124.081 75.8398 123.943 70.1225 129.345 70.1225C131.186 70.1225 133.1 70.6252 133.1 70.6252V83.4404L133.101 83.4391ZM177.682 65.3463C173.942 65.3463 171.84 65.8333 169.801 66.4029C169.257 66.5564 169.028 66.9292 169.183 67.5395L169.813 70.0792C169.893 70.4454 170.234 70.9441 170.841 70.7906C172.152 70.469 174.162 69.8337 177.108 69.8337C180.055 69.8337 180.819 70.9231 180.819 73.5363H177.177C169.43 73.5363 167.274 77.5972 167.274 80.9218C167.274 85.1152 169.329 88.6524 176.618 88.6524C182.109 88.6524 184.844 87.2756 185.457 86.9566C185.954 86.6994 186.254 86.5012 186.254 85.6428V72.9746C186.254 67.2481 182.843 65.3476 177.682 65.3476V65.3463ZM180.777 83.7659C180.777 83.7659 179.091 84.3237 176.797 84.3237C173.637 84.3237 172.733 82.7527 172.733 81.1226C172.733 79.0462 174.11 77.7061 177.127 77.7061H180.774V83.7659H180.777ZM153.331 65.3463C148.958 65.3463 145.984 66.3806 144.555 67.0053C143.693 67.3741 143.693 67.8729 143.693 68.3112V97.3713C143.693 97.7165 143.976 97.9974 144.324 97.9974H148.539C148.887 97.9974 149.169 97.7165 149.169 97.3713V88.1576C149.987 88.3295 151.436 88.6511 153.796 88.6511C162.186 88.6511 163.939 81.1528 163.939 77.0551C163.939 67.9963 158.456 65.3437 153.331 65.3437V65.3463ZM152.925 83.8762C151.084 83.8762 149.169 83.3735 149.169 83.3735V70.5583C149.169 70.5583 150.837 70.0687 152.716 70.0687C157.126 70.0687 158.19 73.1688 158.19 76.8464C158.19 78.1576 158.327 83.8762 152.925 83.8762Z" fill="black"/>
<path d="M74.4903 65.3463C68.1606 65.3463 63.204 70.4992 63.204 77.0787C63.204 83.6583 68.1606 88.6511 74.4903 88.6511C80.8199 88.6511 85.7766 83.5664 85.7766 77.0787C85.7766 70.5911 80.8199 65.3463 74.4903 65.3463ZM74.4903 83.9234C71.1312 83.9234 68.6007 80.9821 68.6007 77.0814C68.6007 73.1806 71.1338 70.0792 74.4903 70.0792C77.8467 70.0792 80.4208 73.0888 80.4208 77.0814C80.4208 81.074 77.8705 83.9234 74.4903 83.9234ZM113.179 56H108.964C108.616 56 108.333 56.2809 108.333 56.6261V87.3543C108.333 87.6995 108.616 87.9804 108.964 87.9804H113.179C113.527 87.9804 113.809 87.6995 113.809 87.3543V56.6261C113.809 56.2809 113.527 56 113.179 56ZM104.047 65.9159C103.05 65.7125 101.404 65.3489 98.9129 65.3489C94.5628 65.3489 90.1928 66.6864 90.1928 73.5166V87.3569C90.1928 87.7021 90.4756 87.983 90.8231 87.983H95.0424C95.39 87.983 95.6728 87.7021 95.6728 87.3569V73.6374C95.6728 72.6386 95.8485 70.1474 99.6146 70.1474C101.179 70.1474 102.697 70.4008 103.012 70.4493C103.345 70.5018 103.64 70.3719 103.728 70.0477L104.641 66.6601C104.748 66.2729 104.508 66.0104 104.047 65.9186V65.9159ZM60.7223 66.0196H56.2215C55.9427 66.0196 55.6982 66.206 55.6269 66.4738L51.3428 81.5071L47.4182 68.1328C47.0733 66.8924 45.9223 66.0209 44.6207 66.0209H43.2319C41.9303 66.0209 40.7793 66.8898 40.4344 68.1328L36.5098 81.5071L32.2257 66.4738C32.1543 66.2073 31.9099 66.0196 31.6311 66.0196H27.1303C26.7087 66.0196 26.3995 66.4278 26.5303 66.8347L32.6723 85.9434C33.0648 87.1627 34.192 87.9804 35.4791 87.9804H37.2921C38.5884 87.9804 39.7486 87.1181 40.1186 85.8843L43.9296 73.0914L47.7406 85.8843C48.1093 87.1181 49.2695 87.9804 50.5671 87.9804H52.3801C53.6672 87.9804 54.7944 87.1627 55.1868 85.9434L61.3288 66.8347C61.4597 66.4265 61.1478 66.0196 60.7289 66.0196H60.7223ZM211.497 66.0196H207.196C207.196 66.0196 206.691 66.0196 206.523 66.4383L200.622 81.9271L194.715 66.4094C194.625 66.1666 194.358 66.017 194.097 66.017H189.794C189.205 66.017 189.015 66.4961 189.155 66.8701L197.789 88.3846L194.299 97.1377C194.127 97.5721 194.316 97.9948 194.884 97.9948H199.135C199.394 97.9948 199.626 97.8412 199.721 97.5997L212.076 66.9239C212.299 66.3924 211.928 66.0117 211.499 66.0117L211.497 66.0196ZM137.945 56H133.73C133.382 56 133.1 56.2809 133.1 56.6261V65.8398C132.282 65.6679 130.833 65.3463 128.473 65.3463C120.084 65.3463 118.33 72.8446 118.33 76.9423C118.33 86.0011 123.813 88.6537 128.938 88.6537C133.311 88.6537 136.286 87.6194 137.714 86.9947C138.576 86.6259 138.576 86.1271 138.576 85.6888V56.6261C138.576 56.2809 138.293 56 137.945 56ZM133.101 83.4391C133.101 83.4391 131.433 83.9287 129.554 83.9287C125.145 83.9287 124.081 80.8286 124.081 77.1509C124.081 75.8398 123.943 70.1225 129.345 70.1225C131.186 70.1225 133.1 70.6252 133.1 70.6252V83.4404L133.101 83.4391ZM177.682 65.3463C173.942 65.3463 171.84 65.8333 169.801 66.4029C169.257 66.5564 169.028 66.9292 169.183 67.5395L169.813 70.0792C169.893 70.4454 170.234 70.9441 170.841 70.7906C172.152 70.469 174.162 69.8337 177.108 69.8337C180.055 69.8337 180.819 70.9231 180.819 73.5363H177.177C169.43 73.5363 167.274 77.5972 167.274 80.9218C167.274 85.1152 169.329 88.6524 176.618 88.6524C182.109 88.6524 184.844 87.2756 185.457 86.9566C185.954 86.6994 186.254 86.5012 186.254 85.6428V72.9746C186.254 67.2481 182.843 65.3476 177.682 65.3476V65.3463ZM180.777 83.7659C180.777 83.7659 179.091 84.3237 176.797 84.3237C173.637 84.3237 172.733 82.7527 172.733 81.1226C172.733 79.0462 174.11 77.7061 177.127 77.7061H180.774V83.7659H180.777ZM153.331 65.3463C148.958 65.3463 145.984 66.3806 144.555 67.0053C143.693 67.3741 143.693 67.8729 143.693 68.3112V97.3713C143.693 97.7165 143.976 97.9974 144.324 97.9974H148.539C148.887 97.9974 149.169 97.7165 149.169 97.3713V88.1576C149.987 88.3295 151.436 88.6511 153.796 88.6511C162.186 88.6511 163.939 81.1528 163.939 77.0551C163.939 67.9963 158.456 65.3437 153.331 65.3437V65.3463ZM152.925 83.8762C151.084 83.8762 149.169 83.3735 149.169 83.3735V70.5583C149.169 70.5583 150.837 70.0687 152.716 70.0687C157.126 70.0687 158.19 73.1688 158.19 76.8464C158.19 78.1576 158.327 83.8762 152.925 83.8762Z" fill="black"/>
<path d="M74.4903 65.3463C68.1606 65.3463 63.204 70.4992 63.204 77.0787C63.204 83.6583 68.1606 88.6511 74.4903 88.6511C80.8199 88.6511 85.7766 83.5664 85.7766 77.0787C85.7766 70.5911 80.8199 65.3463 74.4903 65.3463ZM74.4903 83.9234C71.1312 83.9234 68.6007 80.9821 68.6007 77.0814C68.6007 73.1806 71.1338 70.0792 74.4903 70.0792C77.8467 70.0792 80.4208 73.0888 80.4208 77.0814C80.4208 81.074 77.8705 83.9234 74.4903 83.9234ZM113.179 56H108.964C108.616 56 108.333 56.2809 108.333 56.6261V87.3543C108.333 87.6995 108.616 87.9804 108.964 87.9804H113.179C113.527 87.9804 113.809 87.6995 113.809 87.3543V56.6261C113.809 56.2809 113.527 56 113.179 56ZM104.047 65.9159C103.05 65.7125 101.404 65.3489 98.9129 65.3489C94.5628 65.3489 90.1928 66.6864 90.1928 73.5166V87.3569C90.1928 87.7021 90.4756 87.983 90.8231 87.983H95.0424C95.39 87.983 95.6728 87.7021 95.6728 87.3569V73.6374C95.6728 72.6386 95.8485 70.1474 99.6146 70.1474C101.179 70.1474 102.697 70.4008 103.012 70.4493C103.345 70.5018 103.64 70.3719 103.728 70.0477L104.641 66.6601C104.748 66.2729 104.508 66.0104 104.047 65.9186V65.9159ZM60.7223 66.0196H56.2215C55.9427 66.0196 55.6982 66.206 55.6269 66.4738L51.3428 81.5071L47.4182 68.1328C47.0733 66.8924 45.9223 66.0209 44.6207 66.0209H43.2319C41.9303 66.0209 40.7793 66.8898 40.4344 68.1328L36.5098 81.5071L32.2257 66.4738C32.1543 66.2073 31.9099 66.0196 31.6311 66.0196H27.1303C26.7087 66.0196 26.3995 66.4278 26.5303 66.8347L32.6723 85.9434C33.0648 87.1627 34.192 87.9804 35.4791 87.9804H37.2921C38.5884 87.9804 39.7486 87.1181 40.1186 85.8843L43.9296 73.0914L47.7406 85.8843C48.1093 87.1181 49.2695 87.9804 50.5671 87.9804H52.3801C53.6672 87.9804 54.7944 87.1627 55.1868 85.9434L61.3288 66.8347C61.4597 66.4265 61.1478 66.0196 60.7289 66.0196H60.7223ZM211.497 66.0196H207.196C207.196 66.0196 206.691 66.0196 206.523 66.4383L200.622 81.9271L194.715 66.4094C194.625 66.1666 194.358 66.017 194.097 66.017H189.794C189.205 66.017 189.015 66.4961 189.155 66.8701L197.789 88.3846L194.299 97.1377C194.127 97.5721 194.316 97.9948 194.884 97.9948H199.135C199.394 97.9948 199.626 97.8412 199.721 97.5997L212.076 66.9239C212.299 66.3924 211.928 66.0117 211.499 66.0117L211.497 66.0196ZM137.945 56H133.73C133.382 56 133.1 56.2809 133.1 56.6261V65.8398C132.282 65.6679 130.833 65.3463 128.473 65.3463C120.084 65.3463 118.33 72.8446 118.33 76.9423C118.33 86.0011 123.813 88.6537 128.938 88.6537C133.311 88.6537 136.286 87.6194 137.714 86.9947C138.576 86.6259 138.576 86.1271 138.576 85.6888V56.6261C138.576 56.2809 138.293 56 137.945 56ZM133.101 83.4391C133.101 83.4391 131.433 83.9287 129.554 83.9287C125.145 83.9287 124.081 80.8286 124.081 77.1509C124.081 75.8398 123.943 70.1225 129.345 70.1225C131.186 70.1225 133.1 70.6252 133.1 70.6252V83.4404L133.101 83.4391ZM177.682 65.3463C173.942 65.3463 171.84 65.8333 169.801 66.4029C169.257 66.5564 169.028 66.9292 169.183 67.5395L169.813 70.0792C169.893 70.4454 170.234 70.9441 170.841 70.7906C172.152 70.469 174.162 69.8337 177.108 69.8337C180.055 69.8337 180.819 70.9231 180.819 73.5363H177.177C169.43 73.5363 167.274 77.5972 167.274 80.9218C167.274 85.1152 169.329 88.6524 176.618 88.6524C182.109 88.6524 184.844 87.2756 185.457 86.9566C185.954 86.6994 186.254 86.5012 186.254 85.6428V72.9746C186.254 67.2481 182.843 65.3476 177.682 65.3476V65.3463ZM180.777 83.7659C180.777 83.7659 179.091 84.3237 176.797 84.3237C173.637 84.3237 172.733 82.7527 172.733 81.1226C172.733 79.0462 174.11 77.7061 177.127 77.7061H180.774V83.7659H180.777ZM153.331 65.3463C148.958 65.3463 145.984 66.3806 144.555 67.0053C143.693 67.3741 143.693 67.8729 143.693 68.3112V97.3713C143.693 97.7165 143.976 97.9974 144.324 97.9974H148.539C148.887 97.9974 149.169 97.7165 149.169 97.3713V88.1576C149.987 88.3295 151.436 88.6511 153.796 88.6511C162.186 88.6511 163.939 81.1528 163.939 77.0551C163.939 67.9963 158.456 65.3437 153.331 65.3437V65.3463ZM152.925 83.8762C151.084 83.8762 149.169 83.3735 149.169 83.3735V70.5583C149.169 70.5583 150.837 70.0687 152.716 70.0687C157.126 70.0687 158.19 73.1688 158.19 76.8464C158.19 78.1576 158.327 83.8762 152.925 83.8762Z" fill="black"/>
</g>
<defs>
<linearGradient id="paint0_linear_3101_11572" x1="0" y1="76.5" x2="238" y2="76.5" gradientUnits="userSpaceOnUse">
<stop stop-color="#504D61"/>
<stop offset="0.496118" stop-color="white"/>
<stop offset="1" stop-color="#504D61"/>
</linearGradient>
<clipPath id="clip0_3101_11572">
<rect x="0.5" width="238" height="153" rx="16" fill="white"/>
</clipPath>
</defs>
</svg>
