<svg width="817" height="335" viewBox="0 0 817 335" fill="none" xmlns="http://www.w3.org/2000/svg">
<path d="M217.345 177.879C217.345 219.411 203.147 254.253 174.751 282.322C146.356 310.472 111.759 324.507 70.9613 324.507H10.2539V264.289H70.9613C95.1138 264.289 115.431 256.048 131.913 239.484C148.396 223.001 156.637 202.439 156.637 177.961L156.148 10.1992H217.345V177.879Z" fill="white"/>
<path d="M260.997 13.0562H321.704L320.725 72.295H260.507L260.997 13.0562ZM260.997 96.2842H321.704V324.427H260.507L260.997 96.2842Z" fill="white"/>
<path d="M427.628 75.2234H531.907V135.931H426.649V219.975C426.649 232.459 430.565 242.903 438.48 251.389C446.395 259.875 456.268 264.2 468.099 264.2H531.336V324.418H468.67C439.948 324.418 415.715 314.218 395.968 293.738C376.222 273.257 366.349 248.37 366.349 218.914V11.0074H426.567L427.546 75.1417L427.628 75.2234Z" fill="white"/>
<path d="M770.503 288.683C746.35 312.591 716.813 324.504 681.89 324.504C646.967 324.504 617.021 312.509 593.031 288.438C569.042 264.367 557.047 234.911 557.047 199.906C557.047 164.902 569.124 135.364 593.276 111.13C617.428 86.896 646.967 74.8197 681.89 74.8197C716.813 74.8197 746.35 86.896 770.503 111.13C794.655 135.364 806.731 164.902 806.731 199.906C806.731 234.911 794.655 264.857 770.503 288.683ZM726.686 153.478C714.773 141.484 699.841 135.527 681.89 135.527C663.939 135.527 648.762 141.728 636.359 154.212C623.956 166.697 617.755 181.874 617.755 199.906C617.755 217.939 623.956 233.197 636.359 245.6C648.762 258.084 663.939 264.286 681.89 264.286C699.841 264.286 715.426 258.166 727.665 245.845C739.904 233.524 746.024 218.266 746.024 199.906C746.024 182.527 738.599 165.473 726.686 153.478Z" fill="white"/>
</svg>
