<svg width="817" height="336" viewBox="0 0 817 336" fill="none" xmlns="http://www.w3.org/2000/svg">
<path d="M217.345 178.484C217.345 220.016 203.147 254.858 174.751 282.927C146.356 311.077 111.759 325.112 70.9613 325.112H10.2539V264.894H70.9613C95.1138 264.894 115.431 256.653 131.913 240.089C148.396 223.606 156.637 203.044 156.637 178.566L156.148 10.8042H217.345V178.484Z" fill="black"/>
<path d="M260.997 13.6612H321.704L320.725 72.9H260.507L260.997 13.6612ZM260.997 96.8892H321.704V325.032H260.507L260.997 96.8892Z" fill="black"/>
<path d="M427.628 75.8284H531.907V136.536H426.649V220.58C426.649 233.064 430.565 243.508 438.48 251.994C446.395 260.48 456.268 264.805 468.099 264.805H531.336V325.023H468.67C439.948 325.023 415.715 314.823 395.968 294.343C376.222 273.862 366.349 248.975 366.349 219.519V11.6124H426.567L427.546 75.7467L427.628 75.8284Z" fill="black"/>
<path d="M770.503 289.288C746.35 313.196 716.813 325.109 681.89 325.109C646.967 325.109 617.021 313.114 593.031 289.043C569.042 264.972 557.047 235.516 557.047 200.511C557.047 165.507 569.124 135.969 593.276 111.735C617.428 87.501 646.967 75.4246 681.89 75.4246C716.813 75.4246 746.35 87.501 770.503 111.735C794.655 135.969 806.731 165.507 806.731 200.511C806.731 235.516 794.655 265.462 770.503 289.288ZM726.686 154.083C714.773 142.089 699.841 136.132 681.89 136.132C663.939 136.132 648.762 142.333 636.359 154.817C623.956 167.302 617.755 182.479 617.755 200.511C617.755 218.544 623.956 233.802 636.359 246.205C648.762 258.689 663.939 264.891 681.89 264.891C699.841 264.891 715.426 258.771 727.665 246.45C739.904 234.129 746.024 218.871 746.024 200.511C746.024 183.131 738.599 166.078 726.686 154.083Z" fill="black"/>
</svg>
