<svg width="817" height="336" viewBox="0 0 817 336" fill="none" xmlns="http://www.w3.org/2000/svg">
<path d="M217.345 178.478C217.345 220.01 203.147 254.852 174.751 282.921C146.356 311.071 111.759 325.106 70.9613 325.106H10.2539V264.888H70.9613C95.1138 264.888 115.431 256.647 131.913 240.083C148.396 223.6 156.637 203.038 156.637 178.56L156.148 10.7983H217.345V178.478Z" fill="#3A7861"/>
<path d="M260.997 13.6554H321.704L320.725 72.8941H260.507L260.997 13.6554ZM260.997 96.8834H321.704V325.026H260.507L260.997 96.8834Z" fill="#3A7861"/>
<path d="M427.628 75.8225H531.907V136.53H426.649V220.574C426.649 233.058 430.565 243.503 438.48 251.989C446.395 260.474 456.268 264.799 468.099 264.799H531.336V325.017H468.67C439.948 325.017 415.715 314.817 395.968 294.337C376.222 273.856 366.349 248.97 366.349 219.513V11.6065H426.567L427.546 75.7408L427.628 75.8225Z" fill="#3A7861"/>
<path d="M770.503 289.282C746.35 313.19 716.813 325.103 681.89 325.103C646.967 325.103 617.021 313.108 593.031 289.037C569.042 264.966 557.047 235.51 557.047 200.506C557.047 165.501 569.124 135.963 593.276 111.729C617.428 87.4951 646.967 75.4188 681.89 75.4188C716.813 75.4188 746.35 87.4951 770.503 111.729C794.655 135.963 806.731 165.501 806.731 200.506C806.731 235.51 794.655 265.456 770.503 289.282ZM726.686 154.077C714.773 142.083 699.841 136.126 681.89 136.126C663.939 136.126 648.762 142.327 636.359 154.812C623.956 167.296 617.755 182.473 617.755 200.506C617.755 218.538 623.956 233.797 636.359 246.199C648.762 258.683 663.939 264.885 681.89 264.885C699.841 264.885 715.426 258.765 727.665 246.444C739.904 234.123 746.024 218.865 746.024 200.506C746.024 183.126 738.599 166.072 726.686 154.077Z" fill="#3A7861"/>
</svg>
