<svg width="167" height="66" viewBox="0 0 167 66" fill="none" xmlns="http://www.w3.org/2000/svg">
<path fill-rule="evenodd" clip-rule="evenodd" d="M30.6689 19.176C30.6689 40.8507 30.7718 39.5446 28.7369 43.693C27.829 45.5435 27.2853 46.283 25.5748 47.9942C23.2516 50.318 21.3009 51.5625 18.4968 52.5104C16.5901 53.1548 16.576 53.1558 8.29373 53.2351L0 53.3147V59.6572V66L8.65174 65.8858C16.2006 65.7861 17.5772 65.7099 19.4515 65.2879C25.4067 63.9467 30.1679 61.3206 34.4905 56.9931C38.8612 52.617 41.3708 48.0298 42.7611 41.8751C43.2759 39.5962 43.2888 39.1274 43.3749 19.7734L43.463 0H37.0659H30.6689V19.176ZM74.7582 23.8356L74.8305 47.4322L75.4582 49.7189C76.5074 53.5408 78.1826 56.5078 80.8941 59.3468C83.6834 62.2673 86.9501 64.2172 90.8134 65.2678C92.5573 65.7422 93.4416 65.7964 101.016 65.8925L109.31 65.9974V59.6419V53.2865H101.801C94.791 53.2865 94.2042 53.2535 92.9712 52.7916C91.1241 52.0999 89.232 50.3044 88.2534 48.3151L87.472 46.7265L87.4028 36.5058L87.3334 26.2848H98.3219H109.31V19.9526V13.6203H98.3315H87.3527V6.92964V0.238953H81.0192H74.6856L74.7582 23.8356ZM52.6632 2.68822C52.5789 3.77235 52.5092 6.51434 52.5085 8.78152L52.5071 12.9035H58.8239H65.1408L65.2083 6.80992L65.2759 0.71662H59.0461L52.8164 0.716859L52.6632 2.68822ZM136.638 13.8688C126.612 15.4292 118.25 22.9897 115.578 32.9093C115.002 35.0475 114.949 35.6305 114.949 39.7857C114.949 43.9611 115.001 44.5177 115.591 46.7153C116.852 51.4153 119.163 55.2691 122.815 58.7645C127.429 63.1811 132.567 65.3923 139.275 65.8492C150.01 66.5807 159.888 60.8582 164.467 51.2554C165.849 48.3574 166.503 45.9387 166.861 42.4003C168.187 29.3057 159.899 17.4718 147.195 14.3181C144.929 13.7558 138.989 13.5032 136.638 13.8688ZM52.6656 26.5835C52.5787 31.2161 52.5076 41.969 52.5076 50.4788L52.5071 65.951H58.8294H65.152L65.2138 42.0557L65.2759 18.1604H59.0495H52.8231L52.6656 26.5835ZM145.468 26.9804C151.664 29.1998 155.48 36.1937 154.086 42.7726C153.043 47.695 149.271 51.6774 144.465 52.9307C142.714 53.3873 139.154 53.3873 137.402 52.9307C132.861 51.7465 128.987 47.868 127.804 43.3215C127.34 41.5362 127.351 38.0846 127.827 36.2358C128.995 31.7012 132.954 27.7783 137.538 26.6139C139.413 26.1379 143.665 26.3343 145.468 26.9804Z" fill="white"/>
</svg>
