<svg width="1933" height="233" viewBox="0 0 1933 233" fill="none" xmlns="http://www.w3.org/2000/svg">
<path fill-rule="evenodd" clip-rule="evenodd" d="M198.808 34.1236C176.826 12.111 147.565 0 116.476 0V10.038C144.893 10.038 171.618 21.1124 191.717 41.2154C211.816 61.3187 222.888 88.05 222.888 116.473C222.888 144.895 211.816 171.627 191.717 191.73C171.618 211.833 144.893 222.907 116.476 222.907C88.0586 222.907 61.3332 211.833 41.234 191.73C21.1349 171.627 10.0629 144.895 10.0629 116.473C10.0629 96.2605 15.6534 76.8938 26.262 59.9821C29.7264 61.7823 33.6252 62.8189 37.7708 62.8189C51.5704 62.8189 62.8058 51.5809 62.8058 37.7786C62.8058 23.9765 51.5704 12.7383 37.7708 12.7383C23.9713 12.7383 12.7359 23.9765 12.7359 37.7786C12.7359 43.7795 14.8632 49.3168 18.4074 53.6266C6.35403 72.3659 0 93.9691 0 116.5C0 147.623 12.1079 176.864 34.1165 198.877C56.1251 220.889 85.3589 233 116.476 233C147.592 233 176.826 220.889 198.835 198.877C220.843 176.864 232.951 147.623 232.951 116.5C232.951 85.3769 220.843 56.136 198.835 34.1236H198.808ZM37.7708 22.7763C46.0331 22.7763 52.7696 29.5137 52.7696 37.7786C52.7696 46.0435 46.0331 52.7809 37.7708 52.7809C29.5073 52.7809 22.7709 46.0435 22.7709 37.7786C22.7709 29.5137 29.5073 22.7763 37.7708 22.7763Z" fill="white"/>
<path d="M116.476 172.227C147.238 172.227 172.192 147.268 172.192 116.5C172.192 85.7315 147.238 60.7732 116.476 60.7732C85.7135 60.7732 60.7608 85.7315 60.7608 116.5C60.7608 147.268 85.7135 172.227 116.476 172.227Z" fill="white"/>
<path fill-rule="evenodd" clip-rule="evenodd" d="M1889.74 60.5364H1868.72V110.85H1880.88V93.1045H1888.09C1890.01 93.1045 1891.38 93.5916 1892.21 94.5659C1893.17 95.5401 1893.79 97.2103 1894.06 99.5763L1895.3 110.85H1907.25L1905.81 97.2799C1905.53 94.7747 1904.98 92.7565 1904.16 91.2256C1903.33 89.5554 1902.03 88.1635 1900.24 87.0502C1902.3 86.2151 1903.95 84.8234 1905.19 82.8747C1906.42 80.7871 1907.04 78.3513 1907.04 75.5678C1907.04 70.9749 1905.53 67.3562 1902.51 64.7119C1899.49 61.9283 1895.23 60.5364 1889.74 60.5364ZM1893.44 80.9959C1892.35 81.97 1890.77 82.4572 1888.71 82.4572H1880.88V71.3925H1888.71C1890.77 71.3925 1892.35 71.8795 1893.44 72.8538C1894.54 73.8281 1895.09 75.1504 1895.09 76.8205C1895.09 78.6297 1894.54 80.0216 1893.44 80.9959Z" fill="white"/>
<path fill-rule="evenodd" clip-rule="evenodd" d="M1863.16 127.134C1870.17 131.031 1878.13 132.979 1887.06 132.979C1895.85 132.979 1903.75 131.031 1910.75 127.134C1917.75 123.098 1923.18 117.53 1927.03 110.432C1931.01 103.334 1933 95.2617 1933 86.2151C1933 77.3076 1931.01 69.3049 1927.03 62.2067C1923.18 55.1085 1917.75 49.6109 1910.75 45.7139C1903.75 41.6776 1895.85 39.6596 1887.06 39.6596C1878.13 39.6596 1870.17 41.6776 1863.16 45.7139C1856.29 49.6109 1850.87 55.1085 1846.89 62.2067C1842.9 69.3049 1840.91 77.3076 1840.91 86.2151C1840.91 95.2617 1842.9 103.334 1846.89 110.432C1850.87 117.53 1856.29 123.098 1863.16 127.134ZM1904.98 117.322C1899.76 120.384 1893.79 121.915 1887.06 121.915C1880.33 121.915 1874.35 120.384 1869.14 117.322C1863.92 114.26 1859.8 110.015 1856.77 104.587C1853.89 99.1588 1852.45 93.0349 1852.45 86.2151C1852.45 79.5344 1853.89 73.5497 1856.77 68.261C1859.8 62.833 1863.92 58.588 1869.14 55.526C1874.35 52.4641 1880.33 50.933 1887.06 50.933C1893.65 50.933 1899.56 52.4641 1904.78 55.526C1910.13 58.4488 1914.25 62.6242 1917.14 68.0522C1920.16 73.3409 1921.67 79.3952 1921.67 86.2151C1921.67 93.0349 1920.23 99.1588 1917.34 104.587C1914.46 110.015 1910.34 114.26 1904.98 117.322Z" fill="white"/>
<path fill-rule="evenodd" clip-rule="evenodd" d="M714.425 195.819C704.673 195.819 696.158 193.523 688.879 188.93C681.738 184.337 676.244 177.934 672.398 169.723C668.553 161.511 666.629 152.117 666.629 141.539C666.629 130.961 668.553 121.567 672.398 113.355C676.244 105.144 681.805 98.7415 689.085 94.1485C696.365 89.5557 704.948 87.2591 714.836 87.2591C721.292 87.2591 727.266 88.5814 732.76 91.2258C738.391 93.8701 742.855 97.3496 746.152 101.664V43.8352H771.284V194.149H746.152V180.996C742.992 185.45 738.528 189.069 732.76 191.852C727.129 194.497 721.017 195.819 714.425 195.819ZM719.575 173.69C725.207 173.69 730.082 172.367 734.202 169.723C738.46 167.079 741.757 163.321 744.091 158.449C746.426 153.578 747.593 147.941 747.593 141.539C747.593 131.797 745.053 124.003 739.971 118.157C734.889 112.311 728.159 109.389 719.781 109.389C714.15 109.389 709.206 110.711 704.948 113.355C700.827 116 697.6 119.758 695.265 124.629C692.931 129.5 691.763 135.137 691.763 141.539C691.763 151.282 694.304 159.076 699.385 164.921C704.467 170.767 711.198 173.69 719.575 173.69Z" fill="white"/>
<path fill-rule="evenodd" clip-rule="evenodd" d="M815.065 188.095C823.03 193.244 832.508 195.819 843.495 195.819C856.405 195.819 867.256 192.479 876.046 185.798C884.972 179.118 890.398 170.21 892.321 159.076H867.598C866.363 164.086 863.616 167.914 859.359 170.558C855.237 173.202 849.951 174.525 843.495 174.525C837.727 174.525 832.645 173.133 828.251 170.349C823.992 167.566 820.696 163.669 818.361 158.658C816.769 155.149 815.722 151.252 815.215 146.967H891.497C891.771 144.184 891.908 141.191 891.908 137.99C891.908 129.222 890.054 121.01 886.346 113.355C882.638 105.701 877.006 99.4374 869.453 94.5661C861.899 89.6949 852.628 87.2593 841.641 87.2593C830.79 87.2593 821.52 89.7645 813.829 94.7749C806.275 99.7854 800.506 106.396 796.524 114.608C792.678 122.819 790.756 131.657 790.756 141.122C790.756 150.586 792.815 159.493 796.935 167.844C801.194 176.195 807.237 182.945 815.065 188.095ZM815.846 129.431C816.353 126.798 817.054 124.362 817.949 122.124C820.009 116.974 823.03 113.147 827.014 110.641C831.134 107.997 836.009 106.675 841.641 106.675C849.058 106.675 854.963 108.762 859.359 112.938C863.754 117.113 866.157 122.611 866.568 129.431H815.846Z" fill="white"/>
<path d="M912.215 88.9292H937.555V107.51C940.028 100.829 943.393 96.097 947.65 93.3134C951.908 90.3906 957.402 88.9292 964.131 88.9292H976.286V110.432H960.01C952.183 110.432 946.482 113.494 942.911 119.618C939.34 125.603 937.555 133.884 937.555 144.462V194.149H912.215V88.9292Z" fill="white"/>
<path d="M1756.69 159.243V194.149H1731.35V43.835H1756.69V127.527L1796.45 88.9292H1828.59L1786.31 130.269L1832.09 194.149H1801.6L1769.12 147.082L1756.69 159.243Z" fill="white"/>
<path d="M1652.08 88.929H1677.42V107.509C1679.89 100.829 1683.26 96.0968 1687.51 93.3133C1691.77 90.3905 1697.26 88.929 1703.99 88.929H1716.15V110.432H1699.87C1692.05 110.432 1686.35 113.494 1682.78 119.618C1679.2 125.603 1677.42 133.884 1677.42 144.462V194.149H1652.08V88.929Z" fill="white"/>
<path fill-rule="evenodd" clip-rule="evenodd" d="M1550.35 188.721C1558.59 193.453 1567.93 195.819 1578.37 195.819C1588.67 195.819 1597.94 193.453 1606.18 188.721C1614.42 183.989 1620.88 177.517 1625.55 169.305C1630.21 161.094 1632.55 151.838 1632.55 141.539C1632.55 131.24 1630.21 121.984 1625.55 113.773C1620.88 105.561 1614.42 99.0893 1606.18 94.3571C1597.94 89.6251 1588.67 87.2591 1578.37 87.2591C1567.93 87.2591 1558.59 89.6251 1550.35 94.3571C1542.11 99.0893 1535.65 105.561 1530.98 113.773C1526.31 121.984 1523.98 131.24 1523.98 141.539C1523.98 151.838 1526.31 161.094 1530.98 169.305C1535.65 177.517 1542.11 183.989 1550.35 188.721ZM1593.2 169.723C1588.94 172.367 1584 173.689 1578.37 173.689C1572.74 173.689 1567.72 172.367 1563.33 169.723C1558.93 166.939 1555.5 163.112 1553.03 158.241C1550.69 153.369 1549.53 147.802 1549.53 141.539C1549.53 135.276 1550.69 129.709 1553.03 124.838C1555.5 119.966 1558.93 116.208 1563.33 113.564C1567.72 110.78 1572.74 109.389 1578.37 109.389C1583.86 109.389 1588.81 110.78 1593.2 113.564C1597.6 116.208 1600.96 119.966 1603.29 124.838C1605.77 129.709 1607 135.276 1607 141.539C1607 147.802 1605.77 153.369 1603.29 158.241C1600.96 163.112 1597.6 166.939 1593.2 169.723Z" fill="white"/>
<path d="M1364.34 88.929H1389.68L1408.63 159.284L1429.23 88.929H1452.31L1472.7 159.284L1491.86 88.929H1517L1484.03 194.149H1461.58L1440.77 123.376L1419.76 194.149H1397.51L1364.34 88.929Z" fill="white"/>
<path d="M1320.36 189.765C1325.99 192.687 1332.58 194.149 1340.14 194.149H1356.82V172.645H1343.02C1338.22 172.645 1334.51 171.254 1331.9 168.47C1329.29 165.686 1327.98 161.65 1327.98 156.361V110.432H1356.82V88.929H1327.98V57.1961H1302.64V88.929H1282.25V110.432H1302.64V157.405C1302.64 165.06 1304.15 171.671 1307.18 177.238C1310.33 182.666 1314.73 186.842 1320.36 189.765Z" fill="white"/>
<path fill-rule="evenodd" clip-rule="evenodd" d="M1226.05 195.819C1215.06 195.819 1205.59 193.244 1197.62 188.094C1189.79 182.945 1183.75 176.195 1179.49 167.844C1175.37 159.493 1173.31 150.586 1173.31 141.122C1173.31 131.657 1175.23 122.819 1179.08 114.608C1183.06 106.396 1188.83 99.7853 1196.39 94.7747C1204.08 89.7643 1213.35 87.2591 1224.2 87.2591C1235.18 87.2591 1244.45 89.6947 1252.01 94.5659C1259.56 99.4373 1265.19 105.7 1268.9 113.355C1272.61 121.01 1274.46 129.222 1274.46 137.99C1274.46 141.191 1274.33 144.183 1274.05 146.967H1197.77C1198.28 151.252 1199.33 155.149 1200.92 158.658C1203.25 163.669 1206.55 167.566 1210.81 170.349C1215.2 173.133 1220.28 174.525 1226.05 174.525C1232.51 174.525 1237.79 173.202 1241.91 170.558C1246.17 167.914 1248.92 164.086 1250.16 159.076H1274.88C1272.95 170.21 1267.53 179.117 1258.6 185.798C1249.81 192.479 1238.96 195.819 1226.05 195.819ZM1249.12 129.43H1198.4C1198.91 126.797 1199.61 124.362 1200.51 122.124C1202.56 116.974 1205.59 113.146 1209.57 110.641C1213.69 107.997 1218.57 106.675 1224.2 106.675C1231.61 106.675 1237.52 108.762 1241.91 112.938C1246.31 117.113 1248.71 122.611 1249.12 129.43Z" fill="white"/>
<path d="M1064.14 48.0106H1034.89V194.149H1061.88V91.2258L1124.5 194.149H1153.76V48.0106H1126.77V151.143L1064.14 48.0106Z" fill="white"/>
<path d="M577.029 88.9293H551.689V194.149H577.029V136.738C577.029 131.588 578.058 126.995 580.119 122.959C582.179 118.923 584.994 115.791 588.565 113.564C592.274 111.198 596.394 110.015 600.926 110.015C607.382 110.015 612.601 112.312 616.584 116.904C620.704 121.358 622.764 127.204 622.764 134.441V194.149H647.898V129.013C647.898 120.801 646.318 113.564 643.16 107.301C640 100.899 635.468 95.9579 629.562 92.4784C623.657 88.9989 616.927 87.2593 609.373 87.2593C601.957 87.2593 595.365 88.8597 589.596 92.0609C583.965 95.1228 579.775 99.507 577.029 105.213V88.9293Z" fill="white"/>
<path fill-rule="evenodd" clip-rule="evenodd" d="M482.968 195.819C471.981 195.819 462.505 193.244 454.539 188.095C446.71 182.945 440.667 176.195 436.41 167.844C432.288 159.493 430.229 150.586 430.229 141.122C430.229 131.657 432.152 122.819 435.997 114.608C439.981 106.396 445.749 99.7854 453.302 94.7749C460.993 89.7645 470.265 87.2593 481.114 87.2593C492.102 87.2593 501.373 89.6949 508.926 94.5661C516.481 99.4374 522.111 105.701 525.82 113.355C529.528 121.01 531.383 129.222 531.383 137.99C531.383 141.191 531.245 144.184 530.97 146.967H454.688C455.195 151.252 456.244 155.149 457.835 158.658C460.169 163.669 463.466 167.566 467.724 170.349C472.119 173.133 477.2 174.525 482.968 174.525C489.424 174.525 494.712 173.202 498.832 170.558C503.089 167.914 505.836 164.086 507.072 159.076H531.794C529.871 170.21 524.447 179.118 515.519 185.798C506.729 192.479 495.879 195.819 482.968 195.819ZM457.422 122.124C456.527 124.362 455.826 126.798 455.321 129.431H506.043C505.63 122.611 503.227 117.113 498.832 112.938C494.437 108.762 488.531 106.675 481.114 106.675C475.484 106.675 470.607 107.997 466.487 110.641C462.505 113.147 459.483 116.974 457.422 122.124Z" fill="white"/>
<path fill-rule="evenodd" clip-rule="evenodd" d="M366.218 48.0107H307.297V194.149H334.491V139.243H365.599C370.956 139.243 375.351 141.052 378.784 144.671C382.355 148.15 384.347 152.674 384.76 158.241L388.261 194.149H415.455L411.953 155.109C410.991 144.114 406.871 135.207 399.592 128.387C397.897 126.799 396.087 125.396 394.16 124.177C399.367 121.329 403.65 117.652 407.009 113.147C411.815 106.744 414.22 98.9503 414.22 89.7645C414.22 81.1354 412.297 73.6892 408.451 67.4261C404.606 61.1631 399.043 56.3615 391.763 53.0211C384.622 49.6808 376.106 48.0107 366.218 48.0107ZM377.549 112.52C374.253 114.469 370.063 115.443 364.981 115.443H334.491V71.184H364.981C372.535 71.184 378.167 73.2718 381.875 77.4471C385.72 81.4833 387.643 86.7025 387.643 93.1048C387.643 97.141 386.819 100.899 385.171 104.378C383.523 107.719 380.982 110.433 377.549 112.52Z" fill="white"/>
</svg>
