<svg width="20" height="20" viewBox="0 0 20 20" fill="none" xmlns="http://www.w3.org/2000/svg">
<path d="M11.043 12.0833C11.3881 12.0833 11.668 11.8035 11.668 11.4583C11.668 11.1131 11.3881 10.8333 11.043 10.8333H9.16797V12.0833H11.043Z" fill="white" style="fill:white;fill-opacity:1;"/>
<path d="M9.16797 9.16666V7.91666H11.043C11.3881 7.91666 11.668 8.19648 11.668 8.54166C11.668 8.88683 11.3881 9.16666 11.043 9.16666H9.16797Z" fill="white" style="fill:white;fill-opacity:1;"/>
<path fill-rule="evenodd" clip-rule="evenodd" d="M1.66797 9.99999C1.66797 5.39762 5.39893 1.66666 10.0013 1.66666C14.6037 1.66666 18.3346 5.39762 18.3346 9.99999C18.3346 14.6024 14.6037 18.3333 10.0013 18.3333C5.39893 18.3333 1.66797 14.6024 1.66797 9.99999ZM6.2513 6.24999V7.91666H7.5013V12.0833H6.2513V13.75H9.16797V15H10.8346V13.75H11.043C12.3086 13.75 13.3346 12.724 13.3346 11.4583C13.3346 10.9043 13.138 10.3962 12.8108 9.99999C13.138 9.60377 13.3346 9.09567 13.3346 8.54166C13.3346 7.276 12.3086 6.24999 11.043 6.24999H10.8346V4.99999H9.16797V6.24999H6.2513Z" fill="white" style="fill:white;fill-opacity:1;"/>
</svg>
