<svg width="20" height="20" viewBox="0 0 20 20" fill="none" xmlns="http://www.w3.org/2000/svg">
<path fill-rule="evenodd" clip-rule="evenodd" d="M10.0013 1.66666C14.6037 1.66666 18.3346 5.39762 18.3346 9.99999C18.3346 14.6024 14.6037 18.3333 10.0013 18.3333C5.39893 18.3333 1.66797 14.6024 1.66797 9.99999C1.66797 5.39762 5.39893 1.66666 10.0013 1.66666ZM9.16797 4.99999V5.93098C8.73963 6.00539 8.31673 6.16061 7.95866 6.42333C7.43727 6.80593 7.08475 7.39749 7.08464 8.14778C7.08464 9.05561 7.50609 9.68144 8.09538 10.0887C8.61485 10.4477 9.27299 10.6393 9.76123 10.7861C10.3188 10.9538 10.7039 11.0759 10.9681 11.2541C11.1606 11.3839 11.2512 11.5116 11.2513 11.7879C11.2513 11.9513 11.19 12.0689 11.0348 12.1794C10.854 12.3079 10.5527 12.4113 10.1689 12.43C9.34133 12.4703 8.66115 12.1227 8.45508 11.7106L6.96419 12.456C7.40602 13.3397 8.28481 13.8179 9.16797 14.0047V15H10.8346V14.0202C11.2491 13.9366 11.6551 13.7834 12.0016 13.5368C12.5364 13.1561 12.918 12.5598 12.918 11.7879C12.9179 10.8843 12.4874 10.2689 11.8991 9.87222C11.3821 9.52373 10.7254 9.33579 10.2414 9.19026C9.68799 9.02387 9.30437 8.89832 9.04264 8.71744C8.85081 8.58482 8.7513 8.44671 8.7513 8.14778C8.75139 7.97123 8.81557 7.86187 8.94499 7.76692C9.10112 7.65245 9.36872 7.55762 9.71973 7.54475C10.4683 7.51741 11.1216 7.85425 11.3392 8.28938L12.8301 7.54394C12.418 6.71976 11.6409 6.23565 10.8346 6.01724V4.99999H9.16797Z" fill="white" style="fill:white;fill-opacity:1;"/>
</svg>
