<svg width="20" height="20" viewBox="0 0 20 20" fill="none" xmlns="http://www.w3.org/2000/svg">
<path d="M5.0013 11.6667C5.0013 7.81793 7.90032 4.6463 11.6338 4.2163C10.5776 3.15612 9.11607 2.5 7.5013 2.5C4.27964 2.5 1.66797 5.11167 1.66797 8.33333C1.66797 10.7721 3.16458 12.8614 5.28948 13.7327C5.10181 13.0764 5.0013 12.3833 5.0013 11.6667Z" fill="white" style="fill:white;fill-opacity:1;"/>
<path fill-rule="evenodd" clip-rule="evenodd" d="M12.5013 17.5C15.723 17.5 18.3346 14.8883 18.3346 11.6667C18.3346 8.44501 15.723 5.83333 12.5013 5.83333C9.27964 5.83333 6.66797 8.44501 6.66797 11.6667C6.66797 14.8883 9.27964 17.5 12.5013 17.5ZM13.3346 9.16667H11.668V10.8333H10.0013V12.5H11.668V14.1667H13.3346V12.5H15.0013V10.8333H13.3346V9.16667Z" fill="white" style="fill:white;fill-opacity:1;"/>
</svg>
