<svg width="20" height="20" viewBox="0 0 20 20" fill="none" xmlns="http://www.w3.org/2000/svg">
<path d="M18.3346 11.6667C18.3346 14.8883 15.723 17.5 12.5013 17.5C9.27964 17.5 6.66797 14.8883 6.66797 11.6667C6.66797 8.44501 9.27964 5.83333 12.5013 5.83333C15.723 5.83333 18.3346 8.44501 18.3346 11.6667Z" fill="white" style="fill:white;fill-opacity:1;"/>
<path d="M11.9852 4.60185C8.31414 4.86618 5.41797 7.92821 5.41797 11.6667C5.41797 12.4502 5.54519 13.204 5.78009 13.9086C3.39859 13.1742 1.66797 10.9559 1.66797 8.33333C1.66797 5.11167 4.27964 2.5 7.5013 2.5C9.30371 2.5 10.9152 3.31746 11.9852 4.60185Z" fill="white" style="fill:white;fill-opacity:1;"/>
</svg>
