<svg width="20" height="20" viewBox="0 0 20 20" fill="none" xmlns="http://www.w3.org/2000/svg">
<path fill-rule="evenodd" clip-rule="evenodd" d="M10.0013 2.91666V17.0833C10.5486 17.0833 11.0813 17.0213 11.593 16.9038V3.0962C11.0813 2.97873 10.5486 2.91666 10.0013 2.91666ZM12.843 3.50971V16.4903C13.3943 16.2485 13.909 15.9386 14.3763 15.5711V4.42889C13.909 4.06141 13.3943 3.75146 12.843 3.50971ZM15.6263 5.6944V14.3056C16.541 13.1124 17.0846 11.6197 17.0846 10C17.0846 8.38033 16.541 6.88764 15.6263 5.6944ZM1.66797 10C1.66797 5.39762 5.39893 1.66666 10.0013 1.66666C14.6037 1.66666 18.3346 5.39762 18.3346 10C18.3346 14.6024 14.6037 18.3333 10.0013 18.3333C5.39893 18.3333 1.66797 14.6024 1.66797 10Z" fill="white" style="fill:white;fill-opacity:1;"/>
</svg>
