<svg width="20" height="20" viewBox="0 0 20 20" fill="none" xmlns="http://www.w3.org/2000/svg">
<path d="M10.0001 7.29166C8.68565 7.29166 7.57429 6.42214 7.20982 5.22692C5.72564 5.96653 4.5763 7.27915 4.05211 8.87397L3.85695 9.46772L2.66945 9.07741L2.86461 8.48366C3.54833 6.40347 5.11557 4.72588 7.12298 3.89359C7.35246 2.51183 8.55325 1.45833 10.0001 1.45833C11.6109 1.45833 12.9168 2.76416 12.9168 4.37499C12.9168 5.98583 11.6109 7.29166 10.0001 7.29166Z" fill="white" style="fill:white;fill-opacity:1;"/>
<path d="M15.6553 5.90053L15.2447 5.42932L14.3023 6.25053L14.7129 6.72173C15.6706 7.82087 16.25 9.25635 16.25 10.8287C16.25 11.053 16.2382 11.2744 16.2153 11.4924C15.0604 11.3136 13.8622 11.844 13.2428 12.9169C12.4374 14.3117 12.9154 16.0953 14.3102 16.9006C15.705 17.7059 17.4886 17.228 18.2939 15.8331C19.062 14.5028 18.6628 12.8189 17.4141 11.9673C17.4707 11.5957 17.5 11.2154 17.5 10.8287C17.5 8.9431 16.8038 7.21857 15.6553 5.90053Z" fill="white" style="fill:white;fill-opacity:1;"/>
<path d="M6.75094 12.9169C7.34252 13.9415 7.24163 15.1759 6.59347 16.0782C7.57257 16.7142 8.74026 17.0833 9.9954 17.0833C10.397 17.0833 10.7892 17.0456 11.1688 16.9735L11.7828 16.8571L12.0158 18.0852L11.4018 18.2016C10.9457 18.2881 10.4755 18.3333 9.9954 18.3333C8.36676 18.3333 6.85801 17.8139 5.62769 16.932C4.24143 17.693 2.49439 17.2094 1.69979 15.8331C0.894479 14.4383 1.37239 12.6547 2.76722 11.8494C4.16206 11.0441 5.94563 11.522 6.75094 12.9169Z" fill="white" style="fill:white;fill-opacity:1;"/>
</svg>
