<svg width="20" height="20" viewBox="0 0 20 20" fill="none" xmlns="http://www.w3.org/2000/svg">
<path fill-rule="evenodd" clip-rule="evenodd" d="M0.832031 4.16666V15.8333H19.1654V4.16666H0.832031Z" fill="white" style="fill:white;fill-opacity:1;"/>
<path fill-rule="evenodd" clip-rule="evenodd" d="M7.5013 7.5V9.16667H9.16797V10.8333H7.5013V12.5H5.83464V10.8333H4.16797V9.16667H5.83464V7.5H7.5013Z" fill="black" style="fill:black;fill-opacity:1;"/>
<path fill-rule="evenodd" clip-rule="evenodd" d="M14.7917 9.79168C14.2164 9.79168 13.75 9.32531 13.75 8.75001C13.75 8.17471 14.2164 7.70834 14.7917 7.70834C15.367 7.70834 15.8333 8.17471 15.8333 8.75001C15.8333 9.32531 15.367 9.79168 14.7917 9.79168Z" fill="black" style="fill:black;fill-opacity:1;"/>
<path fill-rule="evenodd" clip-rule="evenodd" d="M12.2917 12.2917C11.7164 12.2917 11.25 11.8253 11.25 11.25C11.25 10.6747 11.7164 10.2083 12.2917 10.2083C12.867 10.2083 13.3333 10.6747 13.3333 11.25C13.3333 11.8253 12.867 12.2917 12.2917 12.2917Z" fill="black" style="fill:black;fill-opacity:1;"/>
</svg>
