<svg width="20" height="20" viewBox="0 0 20 20" fill="none" xmlns="http://www.w3.org/2000/svg">
<path d="M3.33236 5.83333C3.33236 3.99238 4.82474 2.5 6.66569 2.5C8.50664 2.5 9.99902 3.99238 9.99902 5.83333C9.99902 7.67428 8.50664 9.16667 6.66569 9.16667C4.82474 9.16667 3.33236 7.67428 3.33236 5.83333Z" fill="white" style="fill:white;fill-opacity:1;"/>
<path d="M11.249 6.25C11.249 4.63917 12.5549 3.33333 14.1657 3.33333C15.7765 3.33333 17.0824 4.63917 17.0824 6.25C17.0824 7.86083 15.7765 9.16667 14.1657 9.16667C12.5549 9.16667 11.249 7.86083 11.249 6.25Z" fill="white" style="fill:white;fill-opacity:1;"/>
<path d="M6.66586 10C4.87235 10 3.45647 10.7853 2.47262 12.0527C1.50313 13.3016 0.968399 14.9939 0.834188 16.8294L0.785156 17.5H12.5466L12.4975 16.8294C12.3633 14.9939 11.8286 13.3016 10.8591 12.0527C9.87525 10.7853 8.45937 10 6.66586 10Z" fill="white" style="fill:white;fill-opacity:1;"/>
<path d="M13.7387 16.6667C13.5836 14.6894 12.9953 12.7662 11.8464 11.2862C11.7217 11.1256 11.591 10.971 11.4543 10.823C12.2037 10.2994 13.1127 10 14.1658 10C15.7648 10 17.0317 10.6904 17.9122 11.8076C18.7786 12.9068 19.2534 14.3918 19.3724 15.9954L19.4223 16.6667H13.7387Z" fill="white" style="fill:white;fill-opacity:1;"/>
</svg>
