<svg width="20" height="20" viewBox="0 0 20 20" fill="none" xmlns="http://www.w3.org/2000/svg">
<path d="M15.4167 0.833344L14.1667 3.33334L11.6667 4.58334L14.1667 5.83334L15.4167 8.33334L16.6667 5.83334L19.1667 4.58334L16.6667 3.33334L15.4167 0.833344Z" fill="white" style="fill:white;fill-opacity:1;"/>
<path fill-rule="evenodd" clip-rule="evenodd" d="M2.5 2.50001V17.5H17.5V10H15.8333V15.8333H14.0833C13.6973 13.9315 12.0158 12.5 10 12.5C7.9842 12.5 6.30274 13.9315 5.91668 15.8333H4.16667V4.16668H10V2.50001H2.5Z" fill="white" style="fill:white;fill-opacity:1;"/>
<path d="M10 6.25001C8.61929 6.25001 7.5 7.3693 7.5 8.75001C7.5 10.1307 8.61929 11.25 10 11.25C11.3807 11.25 12.5 10.1307 12.5 8.75001C12.5 7.3693 11.3807 6.25001 10 6.25001Z" fill="white" style="fill:white;fill-opacity:1;"/>
</svg>
