<svg width="20" height="20" viewBox="0 0 15 15" fill="none" xmlns="http://www.w3.org/2000/svg">
<path d="M12.5547 1C10.4106 1 7.5336 2.471 5.6016 5H4C2.8427 5 2.1794 5.8638 1.7227 6.7773L1.1113 8H2.5547H4L5.5 9.5L7 11V12.4453V13.8887L8.2227 13.2773C9.1362 12.8206 10 12.1573 10 11V9.3984C12.529 7.4664 14 4.5894 14 2.4453V1H12.5547ZM10 4C10.5523 4 11 4.4477 11 5C11 5.5523 10.5523 6 10 6C9.4477 6 9 5.5523 9 5C9 4.4477 9.4477 4 10 4ZM3.5 10L3 10.5C2.2778 11.2222 2 13 2 13C2 13 3.698 12.802 4.5 12L5 11.5L3.5 10Z" fill="currentColor"/>
</svg>
