<svg width="20" height="20" viewBox="0 0 20 20" fill="none" xmlns="http://www.w3.org/2000/svg">
<path d="M2.91797 9.99999C2.91797 6.08797 6.08929 2.91666 10.0013 2.91666C13.9133 2.91666 17.0846 6.08797 17.0846 9.99999C17.0846 10.8189 16.9459 11.604 16.6913 12.334L16.4854 12.9241L17.6657 13.3359L17.8715 12.7457C18.1717 11.8852 18.3346 10.9609 18.3346 9.99999C18.3346 5.39762 14.6037 1.66666 10.0013 1.66666C5.39893 1.66666 1.66797 5.39762 1.66797 9.99999C1.66797 10.9609 1.83087 11.8852 2.13109 12.7457L2.33695 13.3359L3.5172 12.9241L3.31133 12.334C3.05666 11.604 2.91797 10.8189 2.91797 9.99999Z" fill="white" style="fill:white;fill-opacity:1;"/>
<path d="M10.0013 7.03642L4.0242 17.9039L10.0013 15.4889L15.9784 17.9039L10.0013 7.03642Z" fill="white" style="fill:white;fill-opacity:1;"/>
</svg>
