<svg width="20" height="20" viewBox="0 0 20 20" fill="none" xmlns="http://www.w3.org/2000/svg">
<path fill-rule="evenodd" clip-rule="evenodd" d="M2.5 4.13249L10 1.63249L17.5 4.13249V9.92658C17.5 12.2077 16.5137 13.8913 15.1177 15.216C13.7452 16.5183 11.9504 17.4975 10.2967 18.3896L10 18.5497L9.70325 18.3896C8.04963 17.4975 6.25484 16.5183 4.8823 15.216C3.48626 13.8913 2.5 12.2077 2.5 9.92658V4.13249ZM11.875 8.54167C11.875 9.35806 11.3532 10.0526 10.625 10.31V12.9167H9.375V10.31C8.64675 10.0526 8.125 9.35806 8.125 8.54167C8.125 7.50614 8.96447 6.66667 10 6.66667C11.0355 6.66667 11.875 7.50614 11.875 8.54167Z" fill="white" style="fill:white;fill-opacity:1;"/>
</svg>
