<svg width="20" height="20" viewBox="0 0 20 20" fill="none" xmlns="http://www.w3.org/2000/svg">
<g clip-path="url(#clip0_1898_6066)">
<path d="M0.832031 6.04168C2.34717 6.04168 3.29547 6.37685 3.87533 6.95671C4.45519 7.53657 4.79036 8.48487 4.79036 10H6.04036C6.04036 8.48487 6.37554 7.53657 6.9554 6.95671C7.53526 6.37685 8.48356 6.04168 9.9987 6.04168V4.79168C8.48356 4.79168 7.53526 4.45651 6.9554 3.87664C6.37554 3.29678 6.04036 2.34848 6.04036 0.833344H4.79036C4.79036 2.34848 4.45519 3.29678 3.87533 3.87664C3.29547 4.45651 2.34717 4.79168 0.832031 4.79168V6.04168Z" fill="white" style="fill:white;fill-opacity:1;"/>
<path d="M5.83203 13.125C8.07055 13.125 9.53968 13.6193 10.4595 14.5392C11.3794 15.459 11.8737 16.9282 11.8737 19.1667H13.1237C13.1237 16.9282 13.618 15.459 14.5379 14.5392C15.4577 13.6193 16.9268 13.125 19.1654 13.125V11.875C16.9268 11.875 15.4577 11.3807 14.5379 10.4608C13.618 9.541 13.1237 8.07186 13.1237 5.83334H11.8737C11.8737 8.07186 11.3794 9.541 10.4595 10.4608C9.53968 11.3807 8.07055 11.875 5.83203 11.875V13.125Z" fill="white" style="fill:white;fill-opacity:1;"/>
</g>
<defs>
<clipPath id="clip0_1898_6066">
<rect width="20" height="20" fill="white" style="fill:white;fill-opacity:1;"/>
</clipPath>
</defs>
</svg>
