<svg width="20" height="20" viewBox="0 0 20 20" fill="none" xmlns="http://www.w3.org/2000/svg">
<path fill-rule="evenodd" clip-rule="evenodd" d="M3.22079 2.5H16.7776L18.1186 6.77438C18.4621 7.86952 18.1736 8.97486 17.4992 9.75493V17.5H2.49919V9.75493C1.82482 8.97486 1.53623 7.86952 1.87981 6.77438L3.22079 2.5ZM8.47164 3.75L8.04405 7.38467C7.90637 8.55502 8.8208 9.58333 9.99922 9.58333C11.1739 9.58333 12.0863 8.56149 11.9557 7.39573L11.5268 3.75H8.47164ZM13.1974 7.25264C13.1969 7.24797 13.1964 7.24329 13.1958 7.23861L12.7854 3.75H15.8597L16.9259 7.14856C17.3046 8.35561 16.403 9.58333 15.138 9.58333C14.1878 9.58333 13.388 8.87212 13.2769 7.92843L13.1974 7.25264ZM7.21302 3.75L6.72144 7.92842C6.61041 8.87212 5.81062 9.58333 4.86042 9.58333C3.59537 9.58333 2.69381 8.35561 3.07249 7.14856L4.1387 3.75H7.21302Z" fill="white" style="fill:white;fill-opacity:1;"/>
</svg>
