<svg width="66" height="66" viewBox="0 0 66 66" fill="none" xmlns="http://www.w3.org/2000/svg">
<rect width="66" height="66" rx="16" fill="black"/>
<g clip-path="url(#clip0_4_318)">
<path d="M40.725 36.3C46.814 36.3 51.75 31.364 51.75 25.275C51.75 19.1861 46.814 14.25 40.725 14.25C34.636 14.25 29.7 19.1861 29.7 25.275C29.7 31.364 34.636 36.3 40.725 36.3Z" fill="#9945FF" fill-opacity="0.3" stroke="#9945FF" stroke-width="2" stroke-linecap="round" stroke-linejoin="round"/>
<path d="M37.9683 22.5182L35.2117 25.2749L37.9683 28.0316" stroke="#9945FF" stroke-width="2" stroke-linecap="round" stroke-linejoin="round"/>
<path d="M43.4817 22.5182L46.2367 25.2749L43.4817 28.0316" stroke="#9945FF" stroke-width="2" stroke-linecap="round" stroke-linejoin="round"/>
<path d="M32.5833 50.0833C32.5833 50.5253 32.4077 50.9493 32.0952 51.2618C31.7827 51.5743 31.3587 51.75 30.9167 51.75H15.9167C15.4746 51.75 15.0507 51.5743 14.7381 51.2618C14.4256 50.9493 14.25 50.5253 14.25 50.0833V45.9167C14.25 43.4855 15.2158 41.154 16.9348 39.4348C18.6539 37.7158 20.9855 36.75 23.4167 36.75C25.8478 36.75 28.1794 37.7158 29.8985 39.4348C31.6175 41.154 32.5833 43.4855 32.5833 45.9167V50.0833Z" stroke="#9945FF" stroke-width="2" stroke-linecap="round" stroke-linejoin="round"/>
<path d="M20.0833 44.4583C19.7381 44.4583 19.4583 44.1785 19.4583 43.8333C19.4583 43.4881 19.7381 43.2083 20.0833 43.2083" stroke="#9945FF" stroke-width="2"/>
<path d="M20.0833 44.4583C20.4285 44.4583 20.7083 44.1785 20.7083 43.8333C20.7083 43.4881 20.4285 43.2083 20.0833 43.2083" stroke="#9945FF" stroke-width="2"/>
<path d="M26.75 44.4583C26.4048 44.4583 26.125 44.1785 26.125 43.8333C26.125 43.4881 26.4048 43.2083 26.75 43.2083" stroke="#9945FF" stroke-width="2"/>
<path d="M26.75 44.4583C27.0952 44.4583 27.375 44.1785 27.375 43.8333C27.375 43.4881 27.0952 43.2083 26.75 43.2083" stroke="#9945FF" stroke-width="2"/>
<path d="M23.4167 36.75V33.4167" stroke="#9945FF" stroke-width="2" stroke-linecap="round" stroke-linejoin="round"/>
<path d="M23.4167 33.4167C24.7974 33.4167 25.9167 32.2974 25.9167 30.9167C25.9167 29.536 24.7974 28.4167 23.4167 28.4167C22.036 28.4167 20.9167 29.536 20.9167 30.9167C20.9167 32.2974 22.036 33.4167 23.4167 33.4167Z" stroke="#9945FF" stroke-width="2" stroke-linecap="round" stroke-linejoin="round"/>
</g>
<defs>
<clipPath id="clip0_4_318">
<rect width="40" height="40" fill="white" transform="translate(13 13)"/>
</clipPath>
</defs>
</svg>
