<svg width="32" height="33" viewBox="0 0 32 33" fill="none" xmlns="http://www.w3.org/2000/svg">
<path d="M8.66699 19.1667C8.66699 13.1851 13.3009 8.28589 19.1746 7.86296C17.4625 5.80793 14.8842 4.5 12.0003 4.5C6.84567 4.5 2.66699 8.67868 2.66699 13.8333C2.66699 18.0294 5.43599 21.5787 9.24639 22.7537C8.87054 21.6264 8.66699 20.4203 8.66699 19.1667Z" fill="white" style="fill:white;fill-opacity:1;"/>
<path fill-rule="evenodd" clip-rule="evenodd" d="M20.0003 28.5C25.155 28.5 29.3337 24.3213 29.3337 19.1667C29.3337 14.012 25.155 9.83333 20.0003 9.83333C14.8457 9.83333 10.667 14.012 10.667 19.1667C10.667 24.3213 14.8457 28.5 20.0003 28.5ZM21.0003 15.1667H19.0003V18.1667H16.0003V20.1667H19.0003V23.1667H21.0003V20.1667H24.0003V18.1667H21.0003V15.1667Z" fill="white" style="fill:white;fill-opacity:1;"/>
</svg>
