<svg width="32" height="33" viewBox="0 0 32 33" fill="none" xmlns="http://www.w3.org/2000/svg">
<path fill-rule="evenodd" clip-rule="evenodd" d="M26.6666 3.16669H5.33331V30.4977L9.6874 27.512L12.8889 30.2561L16 27.5895L19.1111 30.2561L22.3126 27.512L26.6666 30.4977V3.16669ZM20.3905 8.89054L9.72384 19.5572L11.6095 21.4428L22.2761 10.7762L20.3905 8.89054ZM13.6666 11.1667C13.6666 12.0872 12.9205 12.8334 12 12.8334C11.0795 12.8334 10.3333 12.0872 10.3333 11.1667C10.3333 10.2462 11.0795 9.50002 12 9.50002C12.9205 9.50002 13.6666 10.2462 13.6666 11.1667ZM20 20.8334C20.9205 20.8334 21.6666 20.0872 21.6666 19.1667C21.6666 18.2462 20.9205 17.5 20 17.5C19.0795 17.5 18.3333 18.2462 18.3333 19.1667C18.3333 20.0872 19.0795 20.8334 20 20.8334Z" fill="white" style="fill:white;fill-opacity:1;"/>
</svg>
