<svg preserveAspectRatio="none" width="100%" height="100%" overflow="visible" style="display: block;" viewBox="0 0 181.818 32" fill="none" xmlns="http://www.w3.org/2000/svg">
<g id="Altitude Logo dark 2" clip-path="url(#clip0_0_73)">
<path id="Vector" d="M93.7282 10.7415H97.6076V14.1287H93.7282V25.7474C93.7282 27.8545 94.6734 28.4847 96.4654 28.4847C96.9183 28.4847 97.2925 28.4454 97.6076 28.406V31.6947C97.1153 31.7736 96.3078 31.872 95.4414 31.872C91.3453 31.872 89.3762 30.1389 89.376 26.0036V14.1287H86.4023V10.7415H89.376V5.3457H93.7282V10.7415Z" fill="var(--fill-0, white)"/>
<path id="Vector_2" d="M113.894 10.7415H117.774V14.1287H113.894V25.7474C113.894 27.8545 114.839 28.4847 116.631 28.4847C117.084 28.4847 117.459 28.4454 117.774 28.406V31.6947C117.281 31.7736 116.474 31.872 115.607 31.872C111.511 31.872 109.542 30.1389 109.542 26.0036V14.1287H106.568V10.7415H109.542V5.3457H113.894V10.7415Z" fill="var(--fill-0, white)"/>
<path id="Vector_3" d="M124.65 23.3446C124.65 26.4759 126.107 28.2086 129.061 28.2086C132.054 28.2086 133.984 26.0623 133.984 22.8326V10.7412H138.258V31.4583H133.984V28.3466H133.886C132.803 30.4341 130.696 31.8717 127.545 31.8717C122.996 31.8717 120.396 28.9374 120.396 24.1717V10.7412H124.65V23.3446Z" fill="var(--fill-0, white)"/>
<path id="Vector_4" fill-rule="evenodd" clip-rule="evenodd" d="M160.254 31.458H155.98V27.9526H155.902C154.661 30.3747 152.377 31.8715 149.403 31.8715C144.125 31.8715 140.738 27.6966 140.738 21.0995V21.0797C140.738 14.4826 144.165 10.3472 149.364 10.3471C152.298 10.3471 154.661 11.8241 155.902 14.266H155.98V3.04102H160.254V31.458ZM150.526 13.9902C147.178 13.9902 145.09 16.7079 145.09 21.0797V21.0995C145.09 25.5106 147.158 28.2084 150.526 28.2084C153.735 28.2084 156 25.4122 156 21.0995V21.0797C156 16.7867 153.716 13.9903 150.526 13.9902Z" fill="var(--fill-0, white)"/>
<path id="Vector_5" fill-rule="evenodd" clip-rule="evenodd" d="M172.444 10.3477C178.253 10.3477 181.817 14.5225 181.817 20.7455V22.1831H167.146C167.225 26.102 169.371 28.3864 172.759 28.3864C175.279 28.3864 176.953 27.0865 177.485 25.5309L177.544 25.3733H181.581L181.542 25.5898C180.872 28.8785 177.682 31.872 172.66 31.872C166.575 31.872 162.893 27.7167 162.893 21.1785V21.1591C162.893 14.6801 166.634 10.3477 172.444 10.3477ZM172.463 13.8333C169.706 13.8333 167.579 15.7041 167.205 19.1702H177.603C177.249 15.586 175.24 13.8333 172.463 13.8333Z" fill="var(--fill-0, white)"/>
<path id="Vector_6" d="M36.298 31.4584H26.6184L14.5192 2.85938L3.44318 29.0384H12.2798L13.3093 31.4584H0L13.3093 0H22.9887L36.298 31.4584Z" fill="var(--fill-0, white)"/>
<path id="Vector_7" fill-rule="evenodd" clip-rule="evenodd" d="M78.367 31.458H73.7392L71.1397 23.7777H60.1903L57.5712 31.458H52.9434L63.2821 3.04102H68.0479L78.367 31.458ZM61.3719 20.2329H69.9383L65.7043 7.74771H65.6257L61.3719 20.2329Z" fill="var(--fill-0, white)"/>
<path id="Vector_8" d="M84.6093 31.458H80.3555V3.04102H84.6093V31.458Z" fill="var(--fill-0, white)"/>
<path id="Vector_9" d="M104.756 31.4583H100.502V10.7412H104.756V31.4583Z" fill="var(--fill-0, white)"/>
<path id="Vector_10" d="M102.63 2.64746C104.028 2.6475 105.111 3.75032 105.111 5.10912C105.111 6.44817 104.028 7.55084 102.63 7.55088C101.251 7.55088 100.149 6.44819 100.148 5.10912C100.148 3.7503 101.251 2.64746 102.63 2.64746Z" fill="var(--fill-0, white)"/>
</g>
<defs>
<clipPath id="clip0_0_73">
<rect width="181.818" height="32" fill="white"/>
</clipPath>
</defs>
</svg>
