<svg width="290" height="60" viewBox="0 0 290 60" fill="none" xmlns="http://www.w3.org/2000/svg">
<path fill-rule="evenodd" clip-rule="evenodd" d="M53.1722 51.4466H41.9217C41.2897 51.4466 40.7187 51.0693 40.4714 50.4873L26.3778 17.2227C26.2202 16.8505 25.6915 16.8505 25.534 17.2227L13.2211 46.2812C13.094 46.5824 13.316 46.9174 13.643 46.9174H22.5434C23.1754 46.9174 23.7464 47.2947 23.9938 47.875L24.8833 49.9645C25.1832 50.6666 24.6665 51.4466 23.9023 51.4466H8.23802C7.35187 51.4466 6.75377 50.5448 7.09941 49.7327L23.5262 10.9593C23.7735 10.3773 24.3445 10 24.9765 10H36.1779C36.8099 10 37.3809 10.3773 37.6282 10.9593L54.155 49.9679C54.4515 50.6683 53.9364 51.4466 53.1722 51.4466Z" fill="black" style="fill:black;fill-opacity:1;"/>
<path d="M262.498 51.8366C259.524 51.8366 256.94 51.2231 254.746 49.9962C252.553 48.7321 250.861 46.9475 249.671 44.6423C248.519 42.3 247.942 39.5859 247.942 36.5C247.942 33.5257 248.537 30.9045 249.727 28.6366C250.917 26.3686 252.59 24.6026 254.746 23.3385C256.903 22.0744 259.356 21.4423 262.108 21.4423C264.896 21.4423 267.35 22.0186 269.469 23.1712C271.626 24.3237 273.299 25.9596 274.488 28.0789C275.715 30.1609 276.329 32.559 276.329 35.2731V35.4404C276.329 35.7378 276.31 36.0353 276.273 36.3327C276.273 36.593 276.254 36.8904 276.217 37.225C276.217 37.4481 276.199 37.6712 276.161 37.8942C276.161 38.1173 276.143 38.3218 276.106 38.5077H250.285V33.9904H270.417C270.306 31.6109 269.506 29.7148 268.019 28.3019C266.532 26.8891 264.599 26.1827 262.219 26.1827C260.62 26.1827 259.226 26.4987 258.036 27.1308C256.847 27.7628 255.88 28.6737 255.136 29.8635C254.43 31.016 253.984 32.4103 253.798 34.0462V38.5077C253.91 40.218 254.319 41.7237 255.025 43.025C255.769 44.3263 256.791 45.3116 258.092 45.9808C259.394 46.65 260.881 46.9846 262.554 46.9846C264.45 46.9846 266.03 46.5757 267.294 45.7577C268.595 44.9398 269.488 43.7872 269.971 42.3H275.883C275.399 44.2705 274.544 45.9808 273.317 47.4308C272.128 48.8436 270.603 49.9404 268.744 50.7212C266.922 51.4648 264.84 51.8366 262.498 51.8366Z" fill="black" style="fill:black;fill-opacity:1;"/>
<path d="M228.109 51.8365C225.395 51.8365 223.015 51.2045 220.971 49.9404C218.963 48.6391 217.401 46.8359 216.286 44.5308C215.208 42.2256 214.669 39.5859 214.669 36.6115C214.669 33.6372 215.189 30.9974 216.23 28.6923C217.308 26.3872 218.87 24.6026 220.915 23.3384C222.997 22.0743 225.432 21.4423 228.221 21.4423C229.968 21.4423 231.697 21.8513 233.407 22.6692C235.117 23.45 236.437 24.5654 237.367 26.0154H237.311V11.6827H243.055V51H237.478V47.0404C236.549 48.5647 235.229 49.7545 233.519 50.6096C231.808 51.4276 230.005 51.8365 228.109 51.8365ZM229.057 46.5942C230.73 46.5942 232.217 46.2038 233.519 45.4231C234.82 44.6051 235.842 43.4526 236.586 41.9654C237.329 40.441 237.701 38.6564 237.701 36.6115C237.701 34.5667 237.329 32.8006 236.586 31.3134C235.842 29.8263 234.82 28.6923 233.519 27.9115C232.217 27.0936 230.73 26.6846 229.057 26.6846C227.235 26.6846 225.692 27.0936 224.428 27.9115C223.164 28.6923 222.197 29.8263 221.528 31.3134C220.859 32.7635 220.524 34.5295 220.524 36.6115C220.524 38.7308 220.859 40.534 221.528 42.0211C222.197 43.4711 223.164 44.6051 224.428 45.4231C225.692 46.2038 227.235 46.5942 229.057 46.5942Z" fill="black" style="fill:black;fill-opacity:1;"/>
<path d="M195.334 51.8366C192.248 51.8366 189.757 50.8699 187.861 48.9366C185.965 47.0032 185.017 44.0289 185.017 40.0135V22.2789H190.761V39.0654C190.761 41.5193 191.3 43.3782 192.378 44.6423C193.456 45.8693 194.999 46.4827 197.007 46.4827C199.201 46.4827 200.911 45.7949 202.138 44.4193C203.365 43.0064 203.978 41.1289 203.978 38.7866V22.2789H209.722V51H204.146V47.4308C203.365 48.8064 202.194 49.8846 200.632 50.6654C199.108 51.4462 197.342 51.8366 195.334 51.8366Z" fill="black" style="fill:black;fill-opacity:1;"/>
<path d="M175.764 51.5577C173.533 51.5577 171.786 51 170.522 49.8846C169.257 48.7692 168.625 47.1333 168.625 44.9769V27.3538H163.773V22.6134H166.116C167.194 22.6134 167.919 22.4089 168.291 22C168.7 21.591 168.904 20.866 168.904 19.825V15.475H174.37V22.2788H180.002V27.3538H174.37V42.8019C174.37 43.9545 174.593 44.791 175.039 45.3115C175.485 45.7948 176.229 46.0365 177.27 46.0365C178.05 46.0365 178.961 45.925 180.002 45.7019V50.9442C179.259 51.1673 178.552 51.316 177.883 51.3904C177.251 51.5019 176.545 51.5577 175.764 51.5577Z" fill="black" style="fill:black;fill-opacity:1;"/>
<path d="M154.361 22.2789H160.105V51H154.361V22.2789ZM153.971 11.5712H160.44V18.2077H153.971V11.5712Z" fill="black" style="fill:black;fill-opacity:1;"/>
<path d="M144.394 51.5577C142.163 51.5577 140.415 51 139.151 49.8846C137.887 48.7692 137.255 47.1333 137.255 44.9769V27.3538H132.403V22.6134H134.746C135.824 22.6134 136.549 22.4089 136.921 22C137.33 21.591 137.534 20.866 137.534 19.825V15.475H142.999V22.2788H148.632V27.3538H142.999V42.8019C142.999 43.9545 143.222 44.791 143.669 45.3115C144.115 45.7948 144.858 46.0365 145.899 46.0365C146.68 46.0365 147.591 45.925 148.632 45.7019V50.9442C147.889 51.1673 147.182 51.316 146.513 51.3904C145.881 51.5019 145.174 51.5577 144.394 51.5577Z" fill="black" style="fill:black;fill-opacity:1;"/>
<path d="M122.936 11.6827H128.681V51H122.936V11.6827Z" fill="black" style="fill:black;fill-opacity:1;"/>
<path d="M97.466 11.6827H103.935L119.383 51H112.97L103.935 27.2981C103.675 26.4801 103.47 25.8852 103.322 25.5134C103.173 25.1417 102.95 24.584 102.653 23.8404C102.206 22.6506 101.872 21.7583 101.649 21.1634C101.463 20.5686 101.147 19.6763 100.701 18.4865C100.254 19.7506 99.9013 20.6801 99.641 21.275C99.4179 21.8699 99.0833 22.7808 98.6372 24.0077C98.4141 24.6769 98.0051 25.7737 97.4102 27.2981L88.3756 51H81.9622L97.466 11.6827ZM90.6622 34.9384H110.739V40.3481H90.6622V34.9384Z" fill="black" style="fill:black;fill-opacity:1;"/>
</svg>
