<svg width="612" height="612" viewBox="0 0 612 612" fill="none" xmlns="http://www.w3.org/2000/svg">
<rect width="612" height="612" fill="white" style="fill:white;fill-opacity:1;"/>
<path fill-rule="evenodd" clip-rule="evenodd" d="M267.067 424.612C266.986 424.633 266.904 424.65 266.82 424.661C266.814 424.662 266.808 424.662 266.802 424.663C266.892 424.652 266.981 424.634 267.067 424.612Z" fill="black" style="fill:black;fill-opacity:1;"/>
<path fill-rule="evenodd" clip-rule="evenodd" d="M347.564 189.672C346.109 186.234 342.738 184 339.005 184H272.899C269.165 184 265.795 186.234 264.34 189.672L167.386 418.835C165.352 423.643 168.882 428.969 174.103 428.97H266.561C271.071 428.97 274.118 424.364 272.352 420.213L267.094 407.855C265.635 404.426 262.269 402.2 258.542 402.2H206.011C204.073 402.2 202.763 400.223 203.518 398.438L276.184 226.689C277.116 224.487 280.237 224.487 281.169 226.689L364.349 423.298C365.803 426.736 369.174 428.97 372.907 428.97H439.309C443.814 428.97 446.86 424.374 445.105 420.225L347.564 189.672ZM267.067 424.612C266.986 424.633 266.904 424.65 266.82 424.661C266.814 424.662 266.808 424.662 266.802 424.663C266.892 424.652 266.981 424.634 267.067 424.612Z" fill="black" style="fill:black;fill-opacity:1;"/>
</svg>
