<svg width="20" height="20" viewBox="0 0 20 20" fill="none" xmlns="http://www.w3.org/2000/svg">
<path fill-rule="evenodd" clip-rule="evenodd" d="M1.66797 5.41666C1.66797 4.26712 2.59846 3.33333 3.7501 3.33333H16.668V5.83333H18.3346V16.6667H4.16797C2.78726 16.6667 1.66797 15.5474 1.66797 14.1667V5.41666ZM3.33464 5.41666C3.33464 5.64678 3.52118 5.83333 3.7513 5.83333H15.0013V4.99999H3.7501C3.52103 4.99999 3.33464 5.1855 3.33464 5.41666ZM12.5013 11.25C12.5013 10.5596 13.0609 9.99999 13.7513 9.99999C14.4417 9.99999 15.0013 10.5596 15.0013 11.25C15.0013 11.9404 14.4417 12.5 13.7513 12.5C13.0609 12.5 12.5013 11.9404 12.5013 11.25Z" fill="currentColor"/>
</svg>
