<svg xmlns="http://www.w3.org/2000/svg" width="646" height="96" viewBox="0 0 646 96" fill="none"><mask id="a" width="646" height="96" x="0" y="0" maskUnits="userSpaceOnUse" style="mask-type:luminance"><path fill="#fff" d="M0 0h646v96H0V0Z"/></mask><g mask="url(#a)"><path fill="url(#b)" d="m108.53 75.69-17.72 19a4.099 4.099 0 0 1-3 1.31h-84a2.06 2.06 0 0 1-1.51-3.46l17.7-19a4.101 4.101 0 0 1 3-1.31h84a2.05 2.05 0 0 1 1.53 3.46ZM90.81 37.42a4.14 4.14 0 0 0-3-1.31h-84a2.06 2.06 0 0 0-1.51 3.46L20 58.58a4.139 4.139 0 0 0 3 1.31h84a2.06 2.06 0 0 0 1.5-3.46L90.81 37.42Zm-87-13.65h84a4.097 4.097 0 0 0 3-1.31l17.72-19a2.057 2.057 0 0 0 .546-1.66 2.056 2.056 0 0 0-.933-1.48A2.05 2.05 0 0 0 107 0H23a4.1 4.1 0 0 0-3 1.31l-17.7 19a2.06 2.06 0 0 0 1.51 3.46Z"/><path fill="currentColor" d="M210.94 40.601H166v-14.8h56.62v-14.8h-56.77a14.77 14.77 0 0 0-13.696 9.044A14.76 14.76 0 0 0 151 25.69v15a14.77 14.77 0 0 0 14.85 14.71h45v14.8h-58.78v14.8h58.87a14.769 14.769 0 0 0 14.85-14.69v-15a14.77 14.77 0 0 0-14.85-14.71Zm87.06-29.6h-45.11A14.774 14.774 0 0 0 238 25.691v44.62a14.766 14.766 0 0 0 14.89 14.69H298a14.77 14.77 0 0 0 13.696-9.043 14.76 14.76 0 0 0 1.154-5.647v-44.62a14.76 14.76 0 0 0-4.383-10.42A14.769 14.769 0 0 0 298 11.001Zm-.11 59.2H253v-44.4h44.87l.02 44.4ZM456 11.001h-44a14.77 14.77 0 0 0-13.696 9.044 14.76 14.76 0 0 0-1.154 5.646v59.31h15v-24.31h43.8v24.31h15v-59.31a14.769 14.769 0 0 0-9.26-13.626A14.77 14.77 0 0 0 456 11Zm-.11 34.89h-43.8v-20.09h43.8v20.09Zm175.26-34.89h-44a14.77 14.77 0 0 0-13.696 9.044 14.76 14.76 0 0 0-1.154 5.646v59.31h15v-24.31H631v24.31h15v-59.31a14.76 14.76 0 0 0-4.383-10.42 14.772 14.772 0 0 0-10.467-4.27Zm-.15 34.89h-43.8v-20.09H631v20.09Zm-87 24.31h-6l-21.45-53a9.888 9.888 0 0 0-9.16-6.2h-13.31a9.843 9.843 0 0 0-9.131 6.035 9.858 9.858 0 0 0-.769 3.765v64.2h15v-59.2h6l21.44 53a9.914 9.914 0 0 0 9.2 6.16h13.31a9.844 9.844 0 0 0 6.98-2.85 9.856 9.856 0 0 0 2.92-6.95v-64.16H544v59.2Zm-202.9-59.2h-15v59.31a14.762 14.762 0 0 0 9.226 13.61c1.802.73 3.73 1.097 5.674 1.08h45v-14.8h-44.9v-59.2Z"/></g><defs><linearGradient id="b" x1="10.81" x2="98.89" y1="98.29" y2="-1.01" gradientUnits="userSpaceOnUse"><stop offset=".08" stop-color="#9945FF"/><stop offset=".3" stop-color="#8752F3"/><stop offset=".5" stop-color="#5497D5"/><stop offset=".6" stop-color="#43B4CA"/><stop offset=".72" stop-color="#28E0B9"/><stop offset=".97" stop-color="#19FB9B"/></linearGradient></defs></svg>