<svg width="162" height="24" fill="none" xmlns="http://www.w3.org/2000/svg"><g clip-path="url(#a)"><g clip-path="url(#b)"><path d="m27.28 18.923-4.43 4.744a1.043 1.043 0 0 1-.753.333h-21a.518.518 0 0 1-.377-.867l4.43-4.75a1.044 1.044 0 0 1 .753-.333h21a.516.516 0 0 1 .377.873Zm-4.43-9.566a1.033 1.033 0 0 0-.753-.334h-21a.513.513 0 0 0-.377.864l4.43 4.756a1.032 1.032 0 0 0 .753.334h21a.513.513 0 0 0 .377-.864l-4.43-4.756ZM1.097 5.943h21a1.043 1.043 0 0 0 .753-.333L27.28.867A.517.517 0 0 0 26.903 0h-21a1.043 1.043 0 0 0-.753.333L.72 5.077a.517.517 0 0 0 .377.866Z" fill="url(#c)"/><path d="M52.743 10.133H41.517V6.4h14.15V2.666H41.49a3.707 3.707 0 0 0-3.707 3.707v3.787a3.706 3.706 0 0 0 3.707 3.707h11.227V17.6H38.05v3.733h14.693a3.707 3.707 0 0 0 3.707-3.706V13.84a3.706 3.706 0 0 0-3.707-3.707ZM74.47 2.667H63.213a3.707 3.707 0 0 0-3.706 3.706v11.253a3.706 3.706 0 0 0 3.706 3.707H74.47a3.703 3.703 0 0 0 3.703-3.706V6.373a3.703 3.703 0 0 0-3.703-3.707ZM74.44 17.6h-11.2V6.4h11.2v11.2ZM113.913 2.667h-11a3.708 3.708 0 0 0-3.706 3.706v14.96h3.733V15.2h10.933v6.133h3.734V6.373a3.708 3.708 0 0 0-3.694-3.707Zm-.026 8.8h-10.934V6.4h10.934v5.066ZM157.627 2.667h-11a3.709 3.709 0 0 0-3.694 3.706v14.96h3.734V15.2H157.6v6.133h3.733V6.373a3.712 3.712 0 0 0-2.288-3.424 3.708 3.708 0 0 0-1.418-.282Zm-.027 8.8h-10.933V6.4H157.6v5.066ZM135.877 17.6h-1.494L129.05 4.22a2.473 2.473 0 0 0-2.313-1.553h-3.334a2.468 2.468 0 0 0-2.47 2.47v16.196h3.734V6.4h1.493l5.353 13.38a2.47 2.47 0 0 0 2.304 1.553h3.333a2.468 2.468 0 0 0 2.47-2.47V2.667h-3.733l-.01 14.933ZM85.23 2.667h-3.733v14.96a3.706 3.706 0 0 0 3.706 3.706H96.43V17.6h-11.2V2.666Z" fill="#1D1A23"/></g></g><defs><clipPath id="a"><path fill="#fff" d="M0 0h161.333v24H0z"/></clipPath><clipPath id="b"><path fill="#fff" d="M0 0h161.333v24H0z"/></clipPath><linearGradient id="c" x1="2.847" y1="24.573" x2="24.87" y2="-.253" gradientUnits="userSpaceOnUse"><stop offset=".08" stop-color="#9945FF"/><stop offset=".3" stop-color="#8752F3"/><stop offset=".5" stop-color="#5497D5"/><stop offset=".6" stop-color="#43B4CA"/><stop offset=".72" stop-color="#28E0B9"/><stop offset=".97" stop-color="#19FB9B"/></linearGradient></defs></svg>