<svg width="245" height="58" viewBox="0 0 245 58" fill="none" xmlns="http://www.w3.org/2000/svg">
<g clip-path="url(#clip0_68_181)">
<path d="M110.09 45.9989L109.931 48.1583H106.222L106.063 50.3177H102.353L102.195 52.477H98.4851L98.3264 54.6328H94.6168L94.458 56.7921H99.1491L99.3007 54.6328H103.014L103.165 52.4734H106.879C106.915 51.9807 106.994 50.8176 107.03 50.314H110.743C110.779 49.8213 110.859 48.6583 110.895 48.1583H114.608C114.644 47.6655 114.76 45.9989 114.76 45.9989H110.072H110.09Z" fill="url(#paint0_linear_68_181)"/>
<path d="M132.56 45.9989H126.585C126.827 46.4627 127.155 46.9011 127.566 47.3069C127.945 47.6837 128.425 47.9663 129.002 48.1547H123.027C123.269 48.6184 123.597 49.0568 124.008 49.4626C124.387 49.8394 124.867 50.122 125.444 50.3104H119.469C119.711 50.7742 120.039 51.2126 120.45 51.6183C120.829 51.9951 121.309 52.2777 121.886 52.4662H115.914C116.156 52.9299 116.484 53.3683 116.896 53.7741C117.275 54.1509 117.755 54.4335 118.332 54.6219H112.356C112.598 55.0857 112.926 55.524 113.338 55.9298C113.717 56.3066 114.197 56.5892 114.774 56.7776C115.366 56.9733 116.059 57.0675 116.856 57.0675H117.098C117.928 57.0675 118.646 56.9697 119.259 56.7776C119.848 56.5929 120.338 56.3175 120.725 55.9552C121.093 55.611 121.392 55.2415 121.627 54.8574C122.06 54.8103 122.453 54.7342 122.81 54.6183C123.398 54.4335 123.889 54.1618 124.275 53.7958C124.643 53.4516 124.943 53.0857 125.177 52.698C125.542 52.6582 125.877 52.5966 126.184 52.5096C126.246 52.4951 126.303 52.4806 126.365 52.4589C126.953 52.2741 127.444 51.9988 127.83 51.6365C128.198 51.2923 128.497 50.9227 128.732 50.5387C129.093 50.4988 129.432 50.4372 129.739 50.3503C129.8 50.3358 129.858 50.3213 129.919 50.2995C130.237 50.1981 130.525 50.0713 130.781 49.9191C131.002 49.7887 131.204 49.6438 131.381 49.4771C131.749 49.1329 132.048 48.767 132.283 48.3793C132.643 48.3394 132.983 48.2778 133.289 48.1909C133.351 48.1764 133.409 48.1619 133.47 48.1402C133.787 48.0387 134.076 47.9119 134.332 47.7597C134.552 47.6293 134.754 47.4844 134.931 47.3177C135.299 46.9735 135.599 46.6076 135.833 46.2199C135.898 46.0931 135.916 45.9772 135.916 45.9772H132.524C132.524 45.9772 132.532 45.9772 132.535 45.9808L132.56 45.9989Z" fill="url(#paint1_linear_68_181)"/>
<path d="M118.184 45.9989L118.339 48.1583H114.63L114.785 50.3177H111.075L111.23 52.477H107.521L107.676 54.6328H103.966L104.122 56.7921H108.813L108.654 54.6328H112.367L112.208 52.4734H115.922C115.885 51.9807 115.799 50.8176 115.763 50.314H119.476C119.44 49.8213 119.353 48.6583 119.317 48.1583H123.03C122.994 47.6655 122.872 45.9989 122.872 45.9989H118.184Z" fill="url(#paint2_linear_68_181)"/>
<path d="M206.427 45.9989L206.203 48.1583H202.873L202.649 50.3177H199.318L199.095 52.4734H195.764L195.544 54.6328H192.21L191.989 56.7885H196.634L196.857 54.6328H200.188L200.235 54.1618L200.408 52.4734H203.742L203.789 52.0024L203.963 50.3177H207.297L207.344 49.8466L207.517 48.1583H210.848L210.898 47.6873L211.071 45.9989H206.427Z" fill="url(#paint3_linear_68_181)"/>
<path d="M214.496 45.9989L214.651 47.6184L214.702 48.1583H210.938L211.147 50.314H207.387L207.593 52.4734H203.833L204.038 54.6291H200.278L200.488 56.7885H205.179L204.955 54.6291H208.733L208.509 52.4734L208.513 52.477H212.291L212.067 50.3177H215.845L215.622 48.1619H219.396L219.176 45.9989H214.496Z" fill="url(#paint4_linear_68_181)"/>
<path d="M146.749 46.0062H140.774C141.015 46.4699 141.344 46.9083 141.755 47.3141C142.134 47.6909 142.614 47.9735 143.191 48.1619H137.216C137.457 48.6257 137.786 49.0641 138.197 49.4698C138.576 49.8466 139.056 50.1293 139.633 50.3177H133.657C133.899 50.7814 134.228 51.2198 134.639 51.6256C135.018 52.0024 135.498 52.285 136.075 52.4734H130.103C130.345 52.9372 130.673 53.3756 131.085 53.7813C131.464 54.1581 131.943 54.4407 132.521 54.6291H126.545C126.787 55.0929 127.115 55.5313 127.527 55.9371C127.905 56.3139 128.385 56.5965 128.963 56.7849C129.555 56.9805 130.247 57.0747 131.045 57.0747H131.287C132.117 57.0747 132.835 56.9769 133.448 56.7849C134.036 56.6001 134.527 56.3248 134.913 55.9625C135.281 55.6183 135.581 55.2487 135.815 54.8646C136.248 54.8175 136.642 54.7415 136.999 54.6255C137.587 54.4407 138.078 54.169 138.464 53.8031C138.832 53.4589 139.132 53.093 139.366 52.7053C139.731 52.6654 140.066 52.6038 140.373 52.5169C140.434 52.5024 140.492 52.4879 140.553 52.4662C141.142 52.2814 141.632 52.006 142.018 51.6437C142.387 51.2995 142.686 50.93 142.921 50.5459C143.281 50.5061 143.621 50.4445 143.927 50.3575C143.989 50.343 144.046 50.3285 144.108 50.3068C144.425 50.2053 144.714 50.0785 144.97 49.9264C145.19 49.7959 145.392 49.651 145.569 49.4843C145.937 49.1401 146.237 48.7742 146.471 48.3865C146.832 48.3467 147.171 48.2851 147.478 48.1981C147.54 48.1836 147.597 48.1692 147.659 48.1474C147.976 48.046 148.265 47.9192 148.521 47.767C148.741 47.6366 148.943 47.4916 149.12 47.325C149.488 46.9808 149.788 46.6148 150.022 46.2272C150.087 46.1004 150.105 45.9844 150.105 45.9844H146.713C146.713 45.9844 146.72 45.9844 146.724 45.988L146.749 46.0062Z" fill="url(#paint5_linear_68_181)"/>
<path d="M154.612 45.9989V48.1583H151.058V50.3177H147.503V52.4734H143.949V54.6328H140.395V56.7921H149.156V54.6328H152.711V52.4734H156.265V50.3177H159.819V48.1583H163.374V45.9989H154.612Z" fill="url(#paint6_linear_68_181)"/>
<path d="M167.184 45.9989V48.1583H163.63V50.314H160.076V52.4734H156.521V54.6328H152.967V56.7885H161.656V54.6328H165.211V52.4734H168.765V50.314H172.319V48.1583H175.874V45.9989H167.184Z" fill="url(#paint7_linear_68_181)"/>
<path d="M179.197 45.9989V48.1583H175.643V50.3177H172.088V52.4734H168.534V54.6328H164.98V56.7921H173.741V54.6328H177.295V52.4734H180.85V50.3177H184.404V48.1583H187.959V45.9989H179.197Z" fill="url(#paint8_linear_68_181)"/>
<path d="M223.308 45.9989V48.1619H219.757V50.3177H216.203V52.477H212.648V54.6328H209.094V56.7921H213.738V54.6328H217.292V52.477H220.847V50.3177H224.401V48.1619H227.956V45.9989H223.308Z" fill="url(#paint9_linear_68_181)"/>
<path d="M233.217 45.9989V48.1619H229.662V50.3177H226.108V52.477H222.557V54.6328H219.003V56.7921H227.764V54.6328H231.319V52.477H234.873V50.3177H238.428V48.1619H241.982V45.9989H233.217Z" fill="url(#paint10_linear_68_181)"/>
<path d="M199.131 49.814C199.123 49.4372 199.12 48.8865 199.113 48.1583H202.696L202.667 45.9989H197.886V48.1583H196.356V45.9989H191.762V48.1619H188.208V50.3213H184.653V52.477H181.099V54.6364H177.544V56.7958H182.142V54.6364H183.675V56.7958H188.486C188.478 56.5313 188.467 55.8103 188.457 54.6364H192.04C192.033 54.3683 192.022 53.6473 192.011 52.477H195.594C195.587 52.2125 195.576 51.4915 195.565 50.3213H199.149C199.149 50.2198 199.142 50.0495 199.138 49.8177L199.131 49.814ZM187.223 54.6328H185.689V52.4734H187.223V54.6328ZM190.777 52.477H189.243V50.3213H190.777V52.477ZM194.331 50.3177H192.801V48.1583H194.331V50.3177Z" fill="url(#paint11_linear_68_181)"/>
<path d="M108.824 0L110.108 4.94554L114.456 2.44922L110.902 8.00344L112.187 12.949L108.708 11.4345L105.157 16.9851L106.557 10.4961L103.079 8.98167L107.423 6.48898L108.824 0Z" fill="url(#paint12_linear_68_181)"/>
<path d="M107.618 15.5721L108.903 20.5176L113.248 18.0213L109.697 23.5719L110.981 28.5174L107.499 27.003L103.948 32.5572L105.349 26.0682L101.87 24.5538L106.215 22.0575L107.618 15.5721Z" fill="url(#paint13_linear_68_181)"/>
<path d="M106.453 31.1188L107.737 36.0644L112.082 33.5681L108.531 39.1223L109.816 44.0678L106.337 42.5534L102.783 48.104L104.183 41.615L100.704 40.1005L105.049 37.6078L106.453 31.1188Z" fill="url(#paint14_linear_68_181)"/>
<path d="M97.4459 6.53246L98.7305 11.478L103.079 8.98167L99.5244 14.5323L100.809 19.4778L97.3304 17.9633L93.7796 23.5139L95.1797 17.0286L91.7011 15.5141L96.0457 13.0178L97.4459 6.53246Z" fill="url(#paint15_linear_68_181)"/>
<path d="M96.237 22.1009L97.5252 27.0465L101.87 24.5538L98.3191 30.1044L99.6038 35.0499L96.1215 33.5354L92.5707 39.086L93.9708 32.6007L90.4922 31.0862L94.8369 28.5899L96.237 22.1009Z" fill="url(#paint16_linear_68_181)"/>
<path d="M95.0751 37.6513L96.3597 42.5968L100.704 40.1005L97.1536 45.6511L98.4382 50.5966L94.956 49.0822L91.4052 54.6328L92.8053 48.1474L89.3267 46.633L93.6713 44.1367L95.0751 37.6513Z" fill="url(#paint17_linear_68_181)"/>
<path d="M162.76 41.0135V28.1008H166.925V23.3545H162.76V10.4418L166.925 10.8693V6.26434L158.163 5.18828V45.9989H166.925V41.0135H162.76Z" fill="white"/>
<path d="M175.358 41.0135V7.3404L170.497 6.74259V45.9989H179.186V41.0135H175.358Z" fill="white"/>
<path d="M186.674 29.8942H190.838V25.1697H186.674V13.67L190.838 14.0757V9.37296L182.077 8.28965V46.0025H190.838V41.0172H186.674V29.8942Z" fill="white"/>
<path d="M230.424 19.5466L233.343 19.8401V14.5975L222.857 13.2968V18.7785L225.78 19.0901V45.9989H230.424V19.5466Z" fill="white"/>
<path d="M244.45 41.0135H240.282V33.4811H244.45V28.8508H240.282V20.5828L244.45 21.0031V16.0141L235.685 14.9272V45.9989H244.45V41.0135Z" fill="white"/>
<path d="M154.435 21.1191V11.5613C154.435 9.7244 154.36 7.94908 153.923 6.93099C152.898 4.56148 150.87 4.08323 149.026 4.08323C146.067 4.08323 144.866 5.13393 144.014 7.30779C143.588 8.39472 143.613 10.9599 143.613 12.4019V37.9882C143.613 39.4339 143.588 41.9954 144.014 43.0823C144.866 45.2562 146.071 46.3069 149.026 46.3069C150.87 46.3069 152.902 45.8323 153.923 43.4591C154.363 42.441 154.435 40.6657 154.435 38.8288V27.0465L149.91 28.2457V39.1368C149.91 39.1368 149.91 40.6657 149.687 41.028C149.571 41.2201 149.243 41.3106 149.023 41.3106C148.821 41.3106 148.535 41.2164 148.431 41.0244C148.164 40.5462 148.236 39.1802 148.236 39.1802V11.2099C148.236 11.2099 148.167 9.84397 148.431 9.36572C148.539 9.17369 148.824 9.07949 149.023 9.07949C149.243 9.07949 149.571 9.17007 149.687 9.36209C149.907 9.72803 149.91 11.2534 149.91 11.2534V22.3183L154.435 21.1191Z" fill="white"/>
<path d="M140.001 20.1263V9.76063C140.001 7.92372 139.925 6.1484 139.489 5.13031C138.464 2.7608 136.436 2.28255 134.592 2.28255C131.633 2.28255 130.431 3.33325 129.58 5.50711C129.154 6.59404 129.179 9.1592 129.179 10.6012V37.9882C129.179 39.4339 129.154 41.9954 129.58 43.0823C130.431 45.2562 131.637 46.3069 134.592 46.3069C136.436 46.3069 138.468 45.8323 139.489 43.4591C139.929 42.441 140.001 40.6657 140.001 38.8288V26.2349L135.476 27.4341V39.1368C135.476 39.1368 135.476 40.6657 135.252 41.028C135.137 41.22 134.809 41.3106 134.588 41.3106C134.386 41.3106 134.101 41.2164 133.997 41.0244C133.73 40.5461 133.802 39.1802 133.802 39.1802V9.40919C133.802 9.40919 133.733 8.04328 133.997 7.56503C134.105 7.37301 134.39 7.27881 134.588 7.27881C134.809 7.27881 135.137 7.36938 135.252 7.56141C135.473 7.92734 135.476 9.45267 135.476 9.45267V21.3256L140.001 20.1263Z" fill="white"/>
<path d="M116.82 -8.48784e-06C115.73 14.7243 114.5 31.2529 113.399 45.9989H118.04C118.285 42.9555 118.632 38.6223 118.877 35.5861H121.15C121.284 37.4593 121.76 44.162 121.894 45.9989H126.588C125.538 31.8869 124.272 14.9163 123.225 0.789828L116.82 -0.00363159V-8.48784e-06ZM118.974 30.5971C119.166 27.6334 119.862 12.4961 119.884 9.76426H120.075C120.129 14.0069 120.836 26.2023 121.035 30.5971H118.974Z" fill="white"/>
<path d="M205.774 40.8759C205.774 40.7056 205.774 40.5317 205.774 40.3505C205.756 37.6259 205.738 35.481 205.723 33.905C205.723 33.5717 205.716 33.2601 205.716 32.9739C205.716 32.6152 205.677 32.2746 205.604 31.9521C205.558 31.7348 205.496 31.5282 205.417 31.329C205.305 31.0536 205.175 30.8109 205.023 30.5971C204.901 30.4232 204.764 30.2674 204.616 30.1297C204.525 30.05 204.432 29.9812 204.338 29.9196C204.082 29.7602 203.807 29.6805 203.515 29.6805V29.4848C203.833 29.4848 204.129 29.387 204.414 29.2022C204.543 29.1153 204.673 29.0102 204.796 28.8798C204.915 28.7566 205.027 28.6225 205.132 28.4812C205.226 28.358 205.312 28.2276 205.392 28.0935C205.449 27.9957 205.507 27.8979 205.561 27.7928C205.626 27.666 205.684 27.5392 205.742 27.4052C205.98 26.8255 206.099 26.2892 206.099 25.8074V16.1916C206.099 13.3221 204.919 11.0903 200.444 10.536L194.894 9.84759V46.0025H199.488V31.5935H200.159C200.21 31.5935 200.253 31.5971 200.3 31.6043C200.524 31.6369 200.686 31.7529 200.791 31.9485C200.809 31.9811 200.823 32.0137 200.838 32.0536C200.848 32.0826 200.856 32.1079 200.866 32.1405C200.964 32.405 201.014 32.6224 201.014 32.7818V46.0025H205.825C205.825 45.9011 205.817 45.7308 205.814 45.5026C205.799 44.7163 205.785 43.1729 205.77 40.8759H205.774ZM201.281 26.2095C201.281 26.4052 201.22 26.59 201.101 26.7675C200.982 26.945 200.74 27.032 200.372 27.032H199.484V15.8656H200.347C200.729 15.8656 200.982 15.9634 201.101 16.1554C201.22 16.3511 201.281 16.5431 201.281 16.7351V26.2095Z" fill="white"/>
<path d="M220.269 30.4667L219.519 23.1661L219.295 21.0104L218.458 12.8475L212.168 12.0686L208.946 43.3432L208.921 43.5823L208.672 45.9989H213.153L213.872 39.0244H216.675L217.347 45.9989H221.868L220.269 30.463V30.4667ZM214.326 34.4014L215.138 20.5031L215.163 19.3148H215.355L215.376 20.4886L216.217 34.3977H214.323L214.326 34.4014Z" fill="white"/>
</g>
<path d="M52.4484 42.2406L43.7445 51.6408C43.5563 51.845 43.3283 52.0079 43.0748 52.1194C42.8213 52.2309 42.5476 52.2886 42.271 52.2889H1.01128C0.814489 52.2888 0.622004 52.2309 0.45739 52.1222C0.292777 52.0136 0.16318 51.859 0.0844677 51.6774C0.00575545 51.4957 -0.0186556 51.2948 0.0142236 51.0994C0.0471028 50.904 0.135845 50.7225 0.269585 50.5771L8.9636 41.1769C9.15185 40.9727 9.37985 40.8098 9.63337 40.6983C9.8869 40.5868 10.1605 40.5291 10.4372 40.5288H51.6969C51.8955 40.5247 52.0908 40.5798 52.2584 40.6872C52.426 40.7947 52.5582 40.9496 52.6386 41.1326C52.7189 41.3156 52.7437 41.5184 52.7099 41.7156C52.676 41.9127 52.5851 42.0954 52.4484 42.2406ZM43.7445 23.3067C43.5556 23.1035 43.3274 22.9412 43.0741 22.8297C42.8207 22.7183 42.5474 22.6601 42.271 22.6586H1.01128C0.814489 22.6587 0.622004 22.7166 0.45739 22.8252C0.292777 22.9339 0.16318 23.0885 0.0844677 23.2701C0.00575545 23.4518 -0.0186556 23.6526 0.0142236 23.8481C0.0471028 24.0435 0.135845 24.225 0.269585 24.3704L8.9636 33.7755C9.15257 33.9788 9.38072 34.1411 9.63408 34.2525C9.88744 34.3639 10.1607 34.4222 10.4372 34.4236H51.6969C51.8932 34.4226 52.0851 34.364 52.2489 34.255C52.4128 34.146 52.5417 33.9913 52.6198 33.8099C52.6979 33.6284 52.7219 33.4279 52.6888 33.233C52.6558 33.038 52.5671 32.8569 52.4337 32.7118L43.7445 23.3067ZM1.01128 16.5535H42.271C42.5476 16.5532 42.8213 16.4956 43.0748 16.384C43.3283 16.2725 43.5563 16.1096 43.7445 15.9053L52.4484 6.50519C52.5504 6.39655 52.6273 6.26655 52.6737 6.12448C52.7201 5.98241 52.7347 5.83178 52.7165 5.68336C52.6983 5.53494 52.6479 5.39239 52.5686 5.26591C52.4894 5.13943 52.3835 5.03213 52.2583 4.9517C52.0907 4.84431 51.8954 4.78923 51.6969 4.79338H10.4372C10.1605 4.79367 9.8869 4.85137 9.63337 4.96288C9.37985 5.07439 9.15185 5.23731 8.9636 5.44149L0.269585 14.8416C0.135845 14.987 0.0471028 15.1686 0.0142236 15.364C-0.0186556 15.5594 0.00575545 15.7603 0.0844677 15.9419C0.16318 16.1236 0.292777 16.2782 0.45739 16.3868C0.622004 16.4954 0.814489 16.5533 1.01128 16.5535Z" fill="white"/>
<path d="M71.4614 0L71.4614 52.2889" stroke="white" stroke-opacity="0.18" stroke-width="0.423963"/>
<defs>
<linearGradient id="paint0_linear_68_181" x1="94.458" y1="51.526" x2="241.982" y2="51.526" gradientUnits="userSpaceOnUse">
<stop stop-color="#990134"/>
<stop offset="0.33" stop-color="#FF0156"/>
<stop offset="0.815" stop-color="white"/>
</linearGradient>
<linearGradient id="paint1_linear_68_181" x1="94.458" y1="51.526" x2="241.982" y2="51.526" gradientUnits="userSpaceOnUse">
<stop stop-color="#990134"/>
<stop offset="0.33" stop-color="#FF0156"/>
<stop offset="0.815" stop-color="white"/>
</linearGradient>
<linearGradient id="paint2_linear_68_181" x1="94.458" y1="51.526" x2="241.982" y2="51.526" gradientUnits="userSpaceOnUse">
<stop stop-color="#990134"/>
<stop offset="0.33" stop-color="#FF0156"/>
<stop offset="0.815" stop-color="white"/>
</linearGradient>
<linearGradient id="paint3_linear_68_181" x1="94.458" y1="51.526" x2="241.982" y2="51.526" gradientUnits="userSpaceOnUse">
<stop stop-color="#990134"/>
<stop offset="0.33" stop-color="#FF0156"/>
<stop offset="0.815" stop-color="white"/>
</linearGradient>
<linearGradient id="paint4_linear_68_181" x1="94.458" y1="51.526" x2="241.982" y2="51.526" gradientUnits="userSpaceOnUse">
<stop stop-color="#990134"/>
<stop offset="0.33" stop-color="#FF0156"/>
<stop offset="0.815" stop-color="white"/>
</linearGradient>
<linearGradient id="paint5_linear_68_181" x1="94.458" y1="51.526" x2="241.982" y2="51.526" gradientUnits="userSpaceOnUse">
<stop stop-color="#990134"/>
<stop offset="0.33" stop-color="#FF0156"/>
<stop offset="0.815" stop-color="white"/>
</linearGradient>
<linearGradient id="paint6_linear_68_181" x1="94.458" y1="51.526" x2="241.982" y2="51.526" gradientUnits="userSpaceOnUse">
<stop stop-color="#990134"/>
<stop offset="0.33" stop-color="#FF0156"/>
<stop offset="0.815" stop-color="white"/>
</linearGradient>
<linearGradient id="paint7_linear_68_181" x1="94.458" y1="51.526" x2="241.982" y2="51.526" gradientUnits="userSpaceOnUse">
<stop stop-color="#990134"/>
<stop offset="0.33" stop-color="#FF0156"/>
<stop offset="0.815" stop-color="white"/>
</linearGradient>
<linearGradient id="paint8_linear_68_181" x1="94.458" y1="51.526" x2="241.982" y2="51.526" gradientUnits="userSpaceOnUse">
<stop stop-color="#990134"/>
<stop offset="0.33" stop-color="#FF0156"/>
<stop offset="0.815" stop-color="white"/>
</linearGradient>
<linearGradient id="paint9_linear_68_181" x1="94.458" y1="51.526" x2="241.982" y2="51.526" gradientUnits="userSpaceOnUse">
<stop stop-color="#990134"/>
<stop offset="0.33" stop-color="#FF0156"/>
<stop offset="0.815" stop-color="white"/>
</linearGradient>
<linearGradient id="paint10_linear_68_181" x1="94.458" y1="51.526" x2="241.982" y2="51.526" gradientUnits="userSpaceOnUse">
<stop stop-color="#990134"/>
<stop offset="0.33" stop-color="#FF0156"/>
<stop offset="0.815" stop-color="white"/>
</linearGradient>
<linearGradient id="paint11_linear_68_181" x1="94.458" y1="51.526" x2="241.982" y2="51.526" gradientUnits="userSpaceOnUse">
<stop stop-color="#990134"/>
<stop offset="0.33" stop-color="#FF0156"/>
<stop offset="0.815" stop-color="white"/>
</linearGradient>
<linearGradient id="paint12_linear_68_181" x1="93.8073" y1="2.01648" x2="105.947" y2="44.9582" gradientUnits="userSpaceOnUse">
<stop stop-color="#04DCF1"/>
<stop offset="1" stop-color="#0260E8"/>
</linearGradient>
<linearGradient id="paint13_linear_68_181" x1="93.8073" y1="2.01648" x2="105.947" y2="44.9582" gradientUnits="userSpaceOnUse">
<stop stop-color="#04DCF1"/>
<stop offset="1" stop-color="#0260E8"/>
</linearGradient>
<linearGradient id="paint14_linear_68_181" x1="93.8073" y1="2.01648" x2="105.947" y2="44.9582" gradientUnits="userSpaceOnUse">
<stop stop-color="#04DCF1"/>
<stop offset="1" stop-color="#0260E8"/>
</linearGradient>
<linearGradient id="paint15_linear_68_181" x1="93.8073" y1="2.01648" x2="105.947" y2="44.9582" gradientUnits="userSpaceOnUse">
<stop stop-color="#04DCF1"/>
<stop offset="1" stop-color="#0260E8"/>
</linearGradient>
<linearGradient id="paint16_linear_68_181" x1="93.8073" y1="2.01648" x2="105.947" y2="44.9582" gradientUnits="userSpaceOnUse">
<stop stop-color="#04DCF1"/>
<stop offset="1" stop-color="#0260E8"/>
</linearGradient>
<linearGradient id="paint17_linear_68_181" x1="93.8073" y1="2.01648" x2="105.947" y2="44.9582" gradientUnits="userSpaceOnUse">
<stop stop-color="#04DCF1"/>
<stop offset="1" stop-color="#0260E8"/>
</linearGradient>
<clipPath id="clip0_68_181">
<rect width="155.124" height="57.082" fill="white" transform="translate(89.3267)"/>
</clipPath>
</defs>
</svg>
