<svg width="20" height="21" viewBox="0 0 20 21" fill="none" xmlns="http://www.w3.org/2000/svg">
<path d="M12.1572 9.19552L19.2335 0.969727H17.5565L11.4124 8.1119L6.5048 0.969727H0.844482L8.2656 11.7701L0.844482 20.396H2.52151L9.01018 12.8536L14.1927 20.396H19.853L12.1568 9.19552H12.1572ZM9.86038 11.8651L9.10837 10.7897L3.1257 2.23213H5.7015L10.5294 9.13846L11.2812 10.2139L17.5573 19.1909H14.9818L9.86038 11.8656V11.8651Z" fill="white"/>
<path d="M12.1067 9.2299L19.7377 20.3352H14.2247L9.06021 12.8192L9.01557 12.7542L8.96416 12.814L2.49366 20.3352H0.976793L8.31162 11.8097L8.34211 11.7743L8.31564 11.7357L0.959852 1.03043H6.47286L11.3623 8.14628L11.407 8.21125L11.4584 8.15149L17.5844 1.03043H19.1012L12.1294 9.13481H12.0414L12.1067 9.2299ZM3.1257 2.17142H3.00919L3.07594 2.26691L9.05861 10.8245L9.10837 10.7897L9.05862 10.8245L9.79967 11.8842V11.8847L9.81062 11.9003L14.932 19.2257L14.9501 19.2516H14.9818H17.5573H17.6738L17.607 19.1561L11.331 10.1791L10.5791 9.10367L5.75125 2.19735L5.73313 2.17142H5.7015H3.1257Z" stroke="white" stroke-opacity="0.08" stroke-width="0.121414"/>
</svg>
