<svg preserveAspectRatio="none" overflow="visible" style="display: block;" width="40.1463" height="30.3383" viewBox="0 0 40.1463 30.3383" fill="none" xmlns="http://www.w3.org/2000/svg">
<g id="Group 3413">
<path id="Vector" d="M38.6599 3.99752L17.7129 3.99752L17.0003 1.52736C16.7409 0.628088 15.906 8.98779e-06 14.97 8.98779e-06L4.66523 8.98779e-06C3.70915 8.98779e-06 2.89978 0.638481 2.63996 1.51132H2.11312C0.947999 1.51132 7.33487e-05 2.45922 7.33487e-05 3.62436L7.33487e-05 28.8519C7.33487e-05 29.6715 0.666876 30.3383 1.48647 30.3383H38.6599C39.4795 30.3383 40.1463 29.6715 40.1463 28.8519V5.48391C40.1463 4.66432 39.4795 3.99752 38.6599 3.99752ZM39.9717 28.0388V28.8519C39.9717 29.5752 39.3832 30.1636 38.6599 30.1636H1.48647C0.763185 30.1636 0.174758 29.5752 0.174758 28.8519L0.174758 3.62436C0.174758 2.55556 1.04431 1.68601 2.11312 1.68601L12.4179 1.68601C13.2765 1.68601 14.0424 2.26217 14.2803 3.08709L15.0111 5.62039C15.0219 5.65777 15.0561 5.68351 15.095 5.68351H38.6599C39.3832 5.68351 39.9717 6.27194 39.9717 6.99522V28.0388V28.0388Z" fill="#F6F2F2"/>
<path id="Vector_2" d="M39.9662 6.99341C39.9662 6.27013 39.3778 5.68171 38.6545 5.68171L15.0896 5.68171C15.0507 5.68171 15.0165 5.65597 15.0057 5.61859L14.2749 3.08529C14.0369 2.26037 13.2711 1.6842 12.4125 1.6842L2.10769 1.6842C1.03888 1.6842 0.169329 2.55375 0.169329 3.62256L0.169329 28.8501C0.169329 29.5734 0.757756 30.1618 1.48104 30.1618H38.6545C39.3778 30.1618 39.9662 29.5734 39.9662 28.8501V6.99341Z" fill="#00EF90"/>
</g>
</svg>
