<svg preserveAspectRatio="none" width="100%" height="100%" overflow="visible" style="display: block;" viewBox="0 0 117.728 39" fill="none" xmlns="http://www.w3.org/2000/svg">
<g id="Ryder Logo_SVG 1">
<path id="Vector" d="M0.0383263 2.78979H22.3461C28.5063 2.78979 33.5001 7.78359 33.5001 13.9437C33.5001 20.1038 28.5063 25.0976 22.3461 25.0976V13.9437H11.1922H0.0383265L0.0383263 2.78979Z" fill="var(--fill-0, white)"/>
<path id="Vector_2" d="M11.1934 25.0977C8.11334 25.0977 5.61645 22.6009 5.61645 19.5208C5.61645 16.4407 8.11334 13.9438 11.1934 13.9438C14.2735 13.9438 16.7703 16.4407 16.7703 19.5208C16.7703 22.6009 14.2735 25.0977 11.1934 25.0977Z" fill="var(--fill-0, white)"/>
<path id="Vector_3" d="M11.1916 25.0972C11.1916 31.2573 16.1854 36.2511 22.3455 36.2511H33.4995V25.0972H22.3455H11.1916Z" fill="var(--fill-0, white)"/>
<path id="Vector_4" d="M11.1922 25.0972V36.2511H0.0383265L0.0383263 25.0972H11.1922Z" fill="var(--fill-0, white)"/>
<path id="Vector_5" d="M54.1337 28.5944L49.9779 21.3736H47.7182V28.5944H44.7571V10.5423H50.9909C52.3761 10.5423 53.5451 10.7848 54.4972 11.2696C55.467 11.7545 56.1856 12.4038 56.6531 13.2177C57.1383 14.0315 57.3806 14.9407 57.3806 15.945C57.3806 17.1225 57.0343 18.1961 56.3416 19.1658C55.6662 20.1182 54.6184 20.7675 53.1988 21.1138L57.6661 28.5944H54.1337ZM47.7182 19.0099H50.9909C52.099 19.0099 52.9304 18.7329 53.4842 18.1787C54.0557 17.6246 54.3417 16.88 54.3417 15.945C54.3417 15.0099 54.0646 14.2826 53.5102 13.7632C52.9564 13.2264 52.1166 12.9579 50.9909 12.9579H47.7182V19.0099ZM73.9868 14.2826L65.2076 35.3217H62.1428L65.0516 28.3607L59.4154 14.2826H62.7137L66.7401 25.1918L70.9219 14.2826H73.9868ZM75.1693 21.3736C75.1693 19.9363 75.4636 18.6636 76.0528 17.5554C76.6586 16.4471 77.4724 15.59 78.4942 14.9839C79.5331 14.3605 80.6844 14.0489 81.9485 14.0489C82.8835 14.0489 83.8013 14.2566 84.7019 14.6722C85.6197 15.0705 86.3467 15.6073 86.8838 16.2827V9.37354H89.8707V28.5944H86.8838V26.4385C86.3987 27.1312 85.7237 27.7026 84.8579 28.1528C84.0093 28.6031 83.0306 28.8282 81.9225 28.8282C80.6761 28.8282 79.5331 28.5165 78.4942 27.8931C77.4724 27.2524 76.6586 26.3693 76.0528 25.2437C75.4636 24.1009 75.1693 22.8108 75.1693 21.3736ZM86.8838 21.4255C86.8838 20.4385 86.6758 19.5813 86.2604 18.8541C85.862 18.1268 85.3337 17.5727 84.6759 17.1917C84.0181 16.8108 83.3078 16.6203 82.546 16.6203C81.7842 16.6203 81.0744 16.8108 80.4161 17.1917C79.7583 17.5554 79.2211 18.1009 78.8056 18.8281C78.4073 19.5381 78.2082 20.3866 78.2082 21.3736C78.2082 22.3606 78.4073 23.2264 78.8056 23.971C79.2211 24.7156 79.7583 25.287 80.4161 25.6853C81.0916 26.0663 81.8014 26.2567 82.546 26.2567C83.3078 26.2567 84.0181 26.0663 84.6759 25.6853C85.3337 25.3044 85.862 24.7502 86.2604 24.023C86.6758 23.2783 86.8838 22.4125 86.8838 21.4255ZM106.812 21.0879C106.812 21.6247 106.777 22.1095 106.708 22.5424H95.7732C95.8596 23.6853 96.2839 24.603 97.0457 25.2957C97.8075 25.9883 98.7424 26.3346 99.8511 26.3346C101.444 26.3346 102.57 25.668 103.227 24.3347H106.422C105.99 25.6507 105.201 26.7329 104.059 27.5814C102.933 28.4126 101.531 28.8282 99.8511 28.8282C98.483 28.8282 97.2537 28.5251 96.1627 27.9191C95.0889 27.2957 94.2403 26.4299 93.6173 25.3217C93.011 24.1961 92.7078 22.8974 92.7078 21.4255C92.7078 19.9537 93.0022 18.6636 93.5913 17.5554C94.1971 16.4298 95.0369 15.564 96.1107 14.958C97.2017 14.3519 98.4481 14.0489 99.8511 14.0489C101.202 14.0489 102.405 14.3432 103.461 14.932C104.518 15.5207 105.34 16.3519 105.929 17.4255C106.517 18.4818 106.812 19.7026 106.812 21.0879ZM103.721 20.1528C103.704 19.0619 103.314 18.1874 102.552 17.5294C101.79 16.8714 100.846 16.5424 99.7211 16.5424C98.6993 16.5424 97.8252 16.8714 97.0977 17.5294C96.3702 18.1701 95.9376 19.0445 95.7987 20.1528H103.721ZM112.622 16.3606C113.055 15.6333 113.626 15.0705 114.336 14.6722C115.064 14.2566 115.921 14.0489 116.908 14.0489V17.1138H116.155C114.995 17.1138 114.111 17.4082 113.505 17.997C112.917 18.5857 112.622 19.6073 112.622 21.0619V28.5944H109.661V14.2826H112.622V16.3606Z" fill="var(--fill-0, white)"/>
</g>
</svg>
