<?xml version="1.0" encoding="UTF-8" standalone="no"?>
<svg
   width="1119"
   height="150"
   viewBox="0 0 1118.91 150"
   version="1.1"
   id="svg5"
   xmlns="http://www.w3.org/2000/svg"
   xmlns:svg="http://www.w3.org/2000/svg">
  <defs
     id="defs1">
    <clipPath
       id="clip-0">
      <path
         clip-rule="nonzero"
         d="M 220 6 L 1118.910156 6 L 1118.910156 140 L 220 140 Z M 220 6 "
         id="path1" />
    </clipPath>
  </defs>
  <path
     fill-rule="evenodd"
     fill="#FFFFFF"
     fill-opacity="1"
     d="M 45.203125 0 C 20.238281 0 0 20.148438 0 45 L 135 45 C 159.851562 45 180 24.851562 180 0 L 45.203125 0 "
     id="path2" />
  <path
     fill-rule="evenodd"
     fill="#FFFFFF"
     fill-opacity="1"
     d="M 45.203125 105 C 20.238281 105 0 125.148438 0 150 L 45 150 C 69.851562 150 90 129.851562 90 105 L 45.203125 105 "
     id="path3" />
  <path
     fill-rule="evenodd"
     fill="#FFFFFF"
     fill-opacity="1"
     d="M 136.3125 52.5 L 0 52.5 C 0 76.941406 19.554688 97.5 43.683594 97.5 L 180 97.5 C 180 73.0625 160.441406 52.5 136.3125 52.5 "
     id="path4" />
  <g
     clip-path="url(#clip-0)"
     id="g5">
    <path
       fill-rule="nonzero"
       fill="#FFFFFF"
       fill-opacity="1"
       d="M 1009.128906 138 L 982.460938 43.636719 L 1005.128906 43.636719 L 1021.71875 109.984375 L 1022.578125 109.984375 L 1039.539062 43.636719 L 1061.960938 43.636719 L 1078.921875 109.617188 L 1079.839844 109.617188 L 1096.179688 43.636719 L 1118.910156 43.636719 L 1092.191406 138 L 1069.03125 138 L 1051.328125 74.230469 L 1050.039062 74.230469 L 1032.351562 138 Z M 933.574219 122.027344 C 938.570312 122.027344 942.746094 120.65625 946.105469 117.910156 C 949.464844 115.125 951.960938 111.398438 953.601562 106.730469 C 955.28125 102.0625 956.121094 96.859375 956.121094 91.125 C 956.121094 85.351562 955.28125 80.128906 953.601562 75.460938 C 951.960938 70.75 949.464844 67.003906 946.105469 64.21875 C 942.746094 61.433594 938.570312 60.039062 933.574219 60.039062 C 928.453125 60.039062 924.195312 61.433594 920.796875 64.21875 C 917.4375 67.003906 914.917969 70.75 913.238281 75.460938 C 911.601562 80.128906 910.78125 85.351562 910.78125 91.125 C 910.78125 96.859375 911.601562 102.0625 913.238281 106.730469 C 914.917969 111.398438 917.4375 115.125 920.796875 117.910156 C 924.195312 120.65625 928.453125 122.027344 933.574219 122.027344 Z M 933.449219 139.84375 C 924.234375 139.84375 916.246094 137.816406 909.492188 133.761719 C 902.734375 129.707031 897.488281 124.035156 893.761719 116.742188 C 890.078125 109.453125 888.234375 100.933594 888.234375 91.1875 C 888.234375 81.441406 890.078125 72.898438 893.761719 65.570312 C 897.488281 58.238281 902.734375 52.542969 909.492188 48.488281 C 916.246094 44.433594 924.234375 42.40625 933.449219 42.40625 C 942.664062 42.40625 950.652344 44.433594 957.410156 48.488281 C 964.167969 52.542969 969.390625 58.238281 973.074219 65.570312 C 976.804688 72.898438 978.664062 81.441406 978.664062 91.1875 C 978.664062 100.933594 976.804688 109.453125 973.074219 116.742188 C 969.390625 124.035156 964.167969 129.707031 957.410156 133.761719 C 950.652344 137.816406 942.664062 139.84375 933.449219 139.84375 Z M 874.609375 12.183594 L 874.609375 138 L 852.371094 138 L 852.371094 12.183594 Z M 798.308594 138 L 798.308594 34.730469 C 798.308594 28.378906 799.617188 23.097656 802.238281 18.878906 C 804.902344 14.660156 808.464844 11.507812 812.929688 9.417969 C 817.390625 7.328125 822.347656 6.285156 827.796875 6.285156 C 831.644531 6.285156 835.066406 6.589844 838.054688 7.207031 C 841.046875 7.820312 843.257812 8.371094 844.691406 8.863281 L 840.265625 26.066406 C 839.324219 25.777344 838.136719 25.492188 836.703125 25.207031 C 835.269531 24.878906 833.671875 24.714844 831.910156 24.714844 C 827.773438 24.714844 824.847656 25.71875 823.125 27.726562 C 821.445312 29.691406 820.609375 32.515625 820.609375 36.203125 L 820.609375 138 Z M 840.144531 43.636719 L 840.144531 60.839844 L 784.359375 60.839844 L 784.359375 43.636719 Z M 642.277344 138 L 642.277344 43.636719 L 663.53125 43.636719 L 663.53125 59.671875 L 664.640625 59.671875 C 666.605469 54.265625 669.859375 50.046875 674.40625 47.015625 C 678.953125 43.945312 684.378906 42.40625 690.6875 42.40625 C 697.078125 42.40625 702.460938 43.964844 706.84375 47.078125 C 711.269531 50.148438 714.382812 54.347656 716.183594 59.671875 L 717.164062 59.671875 C 719.253906 54.429688 722.777344 50.25 727.734375 47.136719 C 732.730469 43.984375 738.648438 42.40625 745.488281 42.40625 C 754.171875 42.40625 761.253906 45.152344 766.742188 50.640625 C 772.230469 56.128906 774.976562 64.136719 774.976562 74.660156 L 774.976562 138 L 752.675781 138 L 752.675781 78.101562 C 752.675781 72.246094 751.117188 67.964844 748.007812 65.261719 C 744.894531 62.519531 741.085938 61.144531 736.578125 61.144531 C 731.214844 61.144531 727.015625 62.824219 723.984375 66.183594 C 720.996094 69.5 719.5 73.820312 719.5 79.144531 L 719.5 138 L 697.691406 138 L 697.691406 77.179688 C 697.691406 72.304688 696.21875 68.414062 693.269531 65.507812 C 690.359375 62.597656 686.550781 61.144531 681.839844 61.144531 C 678.644531 61.144531 675.738281 61.964844 673.117188 63.601562 C 670.496094 65.199219 668.40625 67.472656 666.851562 70.421875 C 665.292969 73.332031 664.515625 76.730469 664.515625 80.621094 L 664.515625 138 Z M 581.054688 123.5625 C 585.519531 123.5625 589.390625 122.683594 592.667969 120.921875 C 595.945312 119.117188 598.464844 116.742188 600.222656 113.792969 C 602.027344 110.847656 602.925781 107.632812 602.925781 104.148438 L 602.925781 93.03125 C 602.230469 93.601562 601.042969 94.136719 599.363281 94.628906 C 597.726562 95.117188 595.882812 95.546875 593.835938 95.917969 C 591.785156 96.285156 589.757812 96.613281 587.753906 96.898438 C 585.746094 97.1875 584.003906 97.433594 582.53125 97.636719 C 579.214844 98.089844 576.242188 98.824219 573.621094 99.847656 C 571 100.871094 568.933594 102.304688 567.417969 104.148438 C 565.902344 105.953125 565.144531 108.285156 565.144531 111.152344 C 565.144531 115.25 566.640625 118.339844 569.628906 120.429688 C 572.617188 122.519531 576.429688 123.5625 581.054688 123.5625 Z M 575.28125 139.902344 C 569.300781 139.902344 563.914062 138.839844 559.125 136.710938 C 554.371094 134.539062 550.605469 131.34375 547.820312 127.125 C 545.074219 122.90625 543.703125 117.707031 543.703125 111.523438 C 543.703125 106.195312 544.6875 101.792969 546.652344 98.3125 C 548.617188 94.832031 551.300781 92.046875 554.699219 89.957031 C 558.101562 87.871094 561.929688 86.292969 566.1875 85.226562 C 570.488281 84.121094 574.933594 83.324219 579.519531 82.832031 C 585.050781 82.257812 589.535156 81.746094 592.972656 81.296875 C 596.414062 80.804688 598.914062 80.066406 600.46875 79.085938 C 602.066406 78.058594 602.863281 76.484375 602.863281 74.355469 L 602.863281 73.984375 C 602.863281 69.355469 601.492188 65.773438 598.75 63.234375 C 596.003906 60.695312 592.054688 59.425781 586.890625 59.425781 C 581.445312 59.425781 577.125 60.613281 573.929688 62.988281 C 570.777344 65.363281 568.644531 68.167969 567.539062 71.40625 L 546.773438 68.457031 C 548.414062 62.722656 551.117188 57.929688 554.886719 54.082031 C 558.652344 50.191406 563.261719 47.28125 568.707031 45.355469 C 574.15625 43.390625 580.175781 42.40625 586.769531 42.40625 C 591.316406 42.40625 595.839844 42.941406 600.347656 44.003906 C 604.851562 45.070312 608.96875 46.832031 612.695312 49.289062 C 616.421875 51.707031 619.410156 55.003906 621.664062 59.179688 C 623.957031 63.355469 625.105469 68.578125 625.105469 74.84375 L 625.105469 138 L 603.726562 138 L 603.726562 125.035156 L 602.988281 125.035156 C 601.636719 127.65625 599.730469 130.117188 597.273438 132.410156 C 594.859375 134.660156 591.808594 136.484375 588.121094 137.878906 C 584.476562 139.230469 580.195312 139.902344 575.28125 139.902344 Z M 492.542969 139.84375 C 483.082031 139.84375 474.910156 137.878906 468.03125 133.945312 C 461.191406 129.972656 455.929688 124.363281 452.242188 117.113281 C 448.554688 109.820312 446.714844 101.242188 446.714844 91.371094 C 446.714844 81.664062 448.554688 73.144531 452.242188 65.816406 C 455.96875 58.441406 461.171875 52.707031 467.847656 48.613281 C 474.523438 44.476562 482.363281 42.40625 491.375 42.40625 C 497.191406 42.40625 502.679688 43.351562 507.839844 45.234375 C 513.042969 47.078125 517.628906 49.945312 521.601562 53.835938 C 525.613281 57.726562 528.769531 62.679688 531.0625 68.703125 C 533.355469 74.679688 534.503906 81.808594 534.503906 90.082031 L 534.503906 96.898438 L 457.15625 96.898438 L 457.15625 81.910156 L 513.183594 81.910156 C 513.144531 77.652344 512.222656 73.863281 510.421875 70.542969 C 508.617188 67.1875 506.097656 64.542969 502.863281 62.621094 C 499.667969 60.695312 495.941406 59.730469 491.683594 59.730469 C 487.136719 59.730469 483.144531 60.839844 479.703125 63.050781 C 476.261719 65.21875 473.578125 68.085938 471.65625 71.652344 C 469.769531 75.171875 468.808594 79.042969 468.769531 83.261719 L 468.769531 96.347656 C 468.769531 101.835938 469.769531 106.542969 471.777344 110.476562 C 473.785156 114.367188 476.589844 117.359375 480.195312 119.445312 C 483.800781 121.496094 488.015625 122.519531 492.851562 122.519531 C 496.085938 122.519531 499.015625 122.066406 501.636719 121.167969 C 504.257812 120.226562 506.527344 118.851562 508.453125 117.050781 C 510.378906 115.25 511.832031 113.015625 512.816406 110.355469 L 533.582031 112.6875 C 532.269531 118.175781 529.773438 122.96875 526.085938 127.066406 C 522.441406 131.117188 517.773438 134.273438 512.078125 136.527344 C 506.386719 138.738281 499.875 139.84375 492.542969 139.84375 Z M 391.25 138 L 391.25 43.636719 L 412.816406 43.636719 L 412.816406 59.363281 L 413.796875 59.363281 C 415.519531 53.917969 418.46875 49.71875 422.644531 46.769531 C 426.863281 43.78125 431.675781 42.285156 437.082031 42.285156 C 438.308594 42.285156 439.683594 42.347656 441.199219 42.46875 C 442.753906 42.550781 444.042969 42.695312 445.066406 42.898438 L 445.066406 63.355469 C 444.125 63.03125 442.632812 62.742188 440.582031 62.496094 C 438.574219 62.210938 436.632812 62.066406 434.746094 62.066406 C 430.691406 62.066406 427.046875 62.949219 423.8125 64.707031 C 420.617188 66.429688 418.097656 68.824219 416.253906 71.898438 C 414.410156 74.96875 413.492188 78.511719 413.492188 82.523438 L 413.492188 138 Z M 336.988281 21.027344 L 359.226562 21.027344 L 359.226562 109.617188 C 359.226562 112.605469 359.679688 114.902344 360.578125 116.496094 C 361.519531 118.054688 362.75 119.117188 364.265625 119.691406 C 365.78125 120.265625 367.460938 120.554688 369.300781 120.554688 C 370.695312 120.554688 371.964844 120.449219 373.109375 120.246094 C 374.300781 120.039062 375.199219 119.855469 375.816406 119.691406 L 379.5625 137.078125 C 378.375 137.488281 376.675781 137.9375 374.464844 138.429688 C 372.292969 138.921875 369.628906 139.207031 366.476562 139.289062 C 360.90625 139.453125 355.890625 138.613281 351.425781 136.769531 C 346.960938 134.886719 343.417969 131.980469 340.796875 128.046875 C 338.21875 124.117188 336.945312 119.203125 336.988281 113.304688 Z M 377.84375 43.636719 L 377.84375 60.839844 L 323.59375 60.839844 L 323.59375 43.636719 Z M 292.921875 46.769531 C 292.347656 41.402344 289.933594 37.226562 285.671875 34.238281 C 281.453125 31.246094 275.96875 29.753906 269.210938 29.753906 C 264.457031 29.753906 260.382812 30.46875 256.984375 31.902344 C 253.585938 33.335938 250.984375 35.28125 249.179688 37.738281 C 247.378906 40.195312 246.457031 43.003906 246.417969 46.15625 C 246.417969 48.777344 247.011719 51.050781 248.199219 52.972656 C 249.425781 54.898438 251.085938 56.539062 253.175781 57.890625 C 255.261719 59.199219 257.578125 60.304688 260.117188 61.207031 C 262.65625 62.109375 265.214844 62.867188 267.796875 63.480469 L 279.589844 66.429688 C 284.34375 67.535156 288.910156 69.03125 293.289062 70.914062 C 297.714844 72.796875 301.667969 75.171875 305.148438 78.039062 C 308.671875 80.90625 311.453125 84.367188 313.503906 88.421875 C 315.550781 92.476562 316.574219 97.226562 316.574219 102.675781 C 316.574219 110.046875 314.691406 116.539062 310.921875 122.148438 C 307.15625 127.71875 301.707031 132.082031 294.582031 135.234375 C 287.496094 138.347656 278.914062 139.902344 268.839844 139.902344 C 259.050781 139.902344 250.554688 138.390625 243.34375 135.359375 C 236.175781 132.328125 230.566406 127.902344 226.511719 122.089844 C 222.496094 116.273438 220.328125 109.1875 220 100.832031 L 242.421875 100.832031 C 242.75 105.214844 244.101562 108.859375 246.476562 111.765625 C 248.851562 114.675781 251.945312 116.847656 255.753906 118.277344 C 259.605469 119.714844 263.90625 120.429688 268.65625 120.429688 C 273.613281 120.429688 277.953125 119.691406 281.679688 118.21875 C 285.449219 116.703125 288.398438 114.613281 290.527344 111.953125 C 292.65625 109.25 293.742188 106.09375 293.78125 102.492188 C 293.742188 99.214844 292.777344 96.511719 290.894531 94.382812 C 289.011719 92.210938 286.371094 90.410156 282.96875 88.976562 C 279.613281 87.5 275.679688 86.191406 271.175781 85.042969 L 256.859375 81.355469 C 246.496094 78.695312 238.308594 74.660156 232.285156 69.253906 C 226.308594 63.808594 223.316406 56.578125 223.316406 47.566406 C 223.316406 40.15625 225.324219 33.664062 229.339844 28.09375 C 233.390625 22.523438 238.902344 18.203125 245.863281 15.132812 C 252.824219 12.019531 260.710938 10.460938 269.515625 10.460938 C 278.445312 10.460938 286.265625 12.019531 292.984375 15.132812 C 299.742188 18.203125 305.046875 22.480469 308.894531 27.972656 C 312.746094 33.417969 314.730469 39.683594 314.855469 46.769531 L 292.921875 46.769531 "
       id="path5" />
  </g>
</svg>
