<svg width="437" height="120" viewBox="0 0 437 120" fill="none">
<g clip-path="url(#streamflow_logo_clip0_1360_29325)">
<path fill-rule="evenodd" clip-rule="evenodd" d="M149.984 73.4412L144.605 64.1488H136.729V73.4412H132.096V45.5394H146.046C147.747 45.5259 149.419 45.9794 150.879 46.8503C152.34 47.7215 153.534 48.9768 154.33 50.4794C155.127 51.9819 155.495 53.6743 155.396 55.3721C155.297 57.0699 154.734 58.7081 153.768 60.1077C152.76 61.5924 151.336 62.7474 149.676 63.4284L155.416 73.4412H149.984ZM146.046 50.2754H136.729V59.5415H146.046C146.655 59.5412 147.258 59.4154 147.816 59.1717C148.374 58.9284 148.875 58.5721 149.29 58.1259C149.931 57.4746 150.367 56.6492 150.542 55.7521C150.718 54.855 150.626 53.9259 150.278 53.0808C149.929 52.2357 149.34 51.5117 148.583 50.999C147.826 50.4866 146.935 50.2081 146.021 50.1983L146.046 50.2754ZM195.647 45.5394L181.67 73.4412H186.87L195.647 55.9637L204.399 73.4412H209.598L195.647 45.5394ZM254.539 45.5394H248.619L240.665 55.835L232.738 45.5394H226.792L238.452 60.4168V73.4412H243.085V60.1852L254.539 45.5394ZM278.271 45.5394H287.563C291.254 45.5663 294.787 47.0448 297.398 49.6554C300.008 52.2655 301.487 55.7986 301.514 59.4903C301.493 63.1841 300.017 66.7204 297.405 69.3324C294.793 71.9444 291.256 73.4208 287.563 73.4412H278.271V45.5394ZM287.563 68.7048C290.025 68.6983 292.384 67.7168 294.126 65.9757C295.867 64.2346 296.848 61.8754 296.855 59.4128C296.828 56.9568 295.84 54.6088 294.103 52.8721C292.367 51.1354 290.019 50.1477 287.563 50.1208H282.878V68.7048H287.563ZM332.479 45.5394H327.846V73.4412H332.479V45.5394ZM382.054 61.7808C382.08 63.3157 381.789 64.8394 381.2 66.2568C380.611 67.6739 379.738 68.9546 378.629 70.0175C377.003 71.6437 374.934 72.7506 372.68 73.1983C370.422 73.6455 368.087 73.4135 365.963 72.5314C363.84 71.6492 362.027 70.1564 360.754 68.2426C359.48 66.3288 358.804 64.0797 358.81 61.7808V45.5394H363.443V61.7808C363.443 63.631 364.178 65.4052 365.487 66.7135C366.792 68.0215 368.567 68.7564 370.418 68.7564C372.269 68.7564 374.043 68.0215 375.352 66.7135C376.658 65.4052 377.392 63.631 377.392 61.7808V45.5394H382.054V61.7808ZM413.018 73.4412V56.7619L422.36 66.0794L431.654 56.7619V73.4412H436.363V45.5394L422.36 59.4903L408.411 45.5394V73.4412H413.018Z" fill="white"/>
<path d="M97.6818 44.6582V86.1505L51.5305 112.791L5.35385 86.1505V32.8437L51.5305 6.17749L87 26.6663L92.3538 23.5775L51.5305 0L0 29.755V89.2393L51.5305 118.994L103.061 89.2393V41.5695L97.6818 44.6582Z" fill="url(#streamflow_logo_paint0_linear_1360_29325)"/>
<path d="M38.6086 86.1822H30.8867V60.288H56.6265C59.0617 60.2611 61.3883 59.2764 63.1032 57.5469C64.8181 55.8178 65.7832 53.4829 65.7897 51.0473C65.8036 49.8433 65.5712 48.6487 65.1065 47.5378C64.6414 46.4265 63.9545 45.4225 63.0868 44.5869C62.2476 43.7244 61.2428 43.0404 60.1326 42.576C59.0225 42.1113 57.8297 41.876 56.6265 41.884H30.8867V34.0078H56.6519C61.1628 34.0348 65.4814 35.8388 68.6712 39.0284C71.8606 42.2182 73.6646 46.5367 73.6916 51.0473C73.7192 54.5004 72.6665 57.8753 70.6803 60.6996C68.8523 63.4022 66.2763 65.5131 63.2672 66.7742C60.2876 67.7193 57.1781 68.1884 54.0523 68.1644H38.6086V86.1822Z" fill="url(#streamflow_logo_paint1_linear_1360_29325)"/>
<path d="M73.5152 85.5284H64.5061L57.5566 73.4051C60.3061 73.2367 63.0181 72.6822 65.613 71.7578L73.5152 85.5284Z" fill="url(#streamflow_logo_paint2_linear_1360_29325)"/>
<path d="M92.3027 36.031L97.6307 38.9912L102.959 36.031V29.7763L97.6307 26.6875L92.3027 29.7763V36.031Z" fill="url(#streamflow_logo_paint3_linear_1360_29325)"/>
</g>
<defs>
<linearGradient id="streamflow_logo_paint0_linear_1360_29325" x1="102.97" y1="29.7877" x2="-6.30313" y2="73.4858" gradientUnits="userSpaceOnUse">
<stop stop-color="#C200FB"/>
<stop offset="0.489658" stop-color="#3772FF"/>
<stop offset="0.489758" stop-color="#3773FE"/>
<stop offset="1" stop-color="#5AC4BE"/>
</linearGradient>
<linearGradient id="streamflow_logo_paint1_linear_1360_29325" x1="102.969" y1="29.7935" x2="-6.30394" y2="73.4916" gradientUnits="userSpaceOnUse">
<stop stop-color="#C200FB"/>
<stop offset="0.489658" stop-color="#3772FF"/>
<stop offset="0.489758" stop-color="#3773FE"/>
<stop offset="1" stop-color="#5AC4BE"/>
</linearGradient>
<linearGradient id="streamflow_logo_paint2_linear_1360_29325" x1="102.973" y1="29.7833" x2="-6.30031" y2="73.4815" gradientUnits="userSpaceOnUse">
<stop stop-color="#C200FB"/>
<stop offset="0.489658" stop-color="#3772FF"/>
<stop offset="0.489758" stop-color="#3773FE"/>
<stop offset="1" stop-color="#5AC4BE"/>
</linearGradient>
<linearGradient id="streamflow_logo_paint3_linear_1360_29325" x1="102.971" y1="29.7832" x2="-6.30258" y2="73.4814" gradientUnits="userSpaceOnUse">
<stop stop-color="#C200FB"/>
<stop offset="0.489658" stop-color="#3772FF"/>
<stop offset="0.489758" stop-color="#3773FE"/>
<stop offset="1" stop-color="#5AC4BE"/>
</linearGradient>
<clipPath id="streamflow_logo_clip0_1360_29325">
<rect width="436.364" height="120" fill="white"/>
</clipPath>
</defs>
</svg>
