<svg preserveAspectRatio="none" width="100%" height="100%" overflow="visible" style="display: block;" viewBox="0 0 137.143 48" fill="none" xmlns="http://www.w3.org/2000/svg">
<g id="ic_logo 1">
<path id="Vector" d="M41.9189 38.1163C40.5495 39.3434 38.9935 40.356 37.2818 41.1537L37.1572 41.0002L29.2831 33.0231L21.3468 41.0923L21.2224 41.2457C19.5106 40.4787 17.9544 39.4663 16.5539 38.239L16.6784 38.1163L27.1668 27.4394C28.5051 28.2063 30.1234 28.145 31.3995 27.4087L41.8257 37.9935L41.9189 38.1163Z" fill="var(--fill-0, white)"/>
<path id="Vector_2" d="M27.0606 20.382C26.5936 20.6581 26.158 21.057 25.8157 21.5173C25.162 22.4377 24.9441 23.4809 25.0998 24.4933L10.939 28.9728L10.7522 29.034C10.3476 27.4693 10.0986 25.8126 10.0986 24.0944C10.0986 23.941 10.0986 23.757 10.0986 23.6036L10.2854 23.5422L21.1473 20.1366L17.4124 9.52103L17.3502 9.33695C18.782 8.20177 20.4315 7.25067 22.1744 6.57568L22.2366 6.75976L27.0606 20.382Z" fill="var(--fill-0, white)"/>
<path id="Vector_3" d="M48.3554 24.0961C48.3554 25.8144 48.1063 27.5017 47.6707 29.0972L47.4841 29.0359L33.323 24.5871C33.5721 23.0837 32.9497 21.4884 31.6113 20.5678C31.6113 20.5678 31.5803 20.5678 31.5803 20.5371L36.4665 6.85353L36.5287 6.66943C38.2717 7.3751 39.8899 8.3262 41.3217 9.49207L41.2595 9.67617L37.4935 20.2304L48.1686 23.5747L48.3554 23.6359C48.3554 23.7893 48.3554 23.9427 48.3554 24.0961Z" fill="var(--fill-0, white)"/>
<path id="Vector_4" d="M30.954 25.1081C30.2693 26.0592 28.9622 26.274 27.9974 25.5989C27.0326 24.924 26.8147 23.6353 27.4682 22.6843C28.153 21.7332 29.4602 21.5184 30.425 22.1935C31.3898 22.8684 31.6387 24.157 30.954 25.1081Z" fill="var(--fill-0, white)"/>
<path id="Vector_5" d="M30.954 25.1081C30.2693 26.0592 28.9622 26.274 27.9974 25.5989C27.0326 24.924 26.8147 23.6353 27.4682 22.6843C28.153 21.7332 29.4602 21.5184 30.425 22.1935C31.3898 22.8684 31.6387 24.157 30.954 25.1081Z" fill="var(--fill-0, white)"/>
<path id="Vector_6" d="M118.638 25.2505C119.509 26.2937 119.914 27.5821 119.914 29.0242C119.914 30.4356 119.541 31.6935 118.794 32.7367C118.016 33.8105 116.957 34.6081 115.526 35.2217C114.126 35.774 112.445 36.0809 110.546 36.0809H92.7438C92.2459 36.0809 91.779 36.0502 91.3125 36.0193C92.6815 34.7616 93.8023 33.3195 94.6113 31.7549H110.235C111.604 31.7549 112.631 31.4787 113.347 30.8957C114.032 30.3435 114.374 29.5765 114.374 28.5641C114.374 27.5515 114.032 26.7845 113.316 26.2323C112.6 25.6493 111.574 25.3733 110.204 25.3733H96.5718C96.6033 25.0971 96.634 24.8209 96.634 24.5448C96.634 24.33 96.6655 24.1153 96.6655 23.9005C96.6655 23.6857 96.6655 23.4709 96.634 23.2561C96.6033 22.9801 96.6033 22.704 96.5718 22.4278H110.204C111.574 22.4278 112.6 22.1518 113.316 21.5688C114.032 21.0164 114.374 20.2495 114.374 19.237C114.374 18.2552 114.032 17.4883 113.347 16.9053C112.631 16.3223 111.604 16.0462 110.235 16.0462H94.6113C93.7708 14.4815 92.6508 13.0395 91.3125 11.7816C91.779 11.7509 92.2775 11.7202 92.7438 11.7202H110.546C112.445 11.7202 114.126 11.9964 115.526 12.5793C116.926 13.1622 118.016 13.9599 118.794 15.0645C119.541 16.1076 119.914 17.3655 119.914 18.7769C119.914 20.2188 119.509 21.5074 118.638 22.5505C118.265 23.0722 117.767 23.5016 117.238 23.8699C117.798 24.2993 118.265 24.7596 118.638 25.2505Z" fill="var(--fill-0, white)"/>
<path id="Vector_7" d="M88.7365 19.3791C88.0522 17.9065 87.0559 16.6179 85.8113 15.5747C84.5352 14.4702 82.9791 13.6111 81.1428 12.9975C79.3376 12.3839 77.2836 12.0771 75.0116 12.0771H58.2053V36.1002H75.0116C77.2836 36.1002 79.3376 35.7933 81.1428 35.1798C82.9479 34.5661 84.5352 33.7071 85.8113 32.6332C87.0559 31.5287 88.0522 30.2708 88.7365 28.8289C89.4211 27.3561 89.7637 25.7915 89.7637 24.104C89.7331 22.4164 89.3904 20.8518 88.7365 19.3791ZM82.9479 27.9085C82.232 29.0435 81.205 29.9027 79.8356 30.5163C78.4663 31.13 76.7856 31.4673 74.7937 31.4673H63.714V16.7099H74.7937C76.7856 16.7099 78.4663 17.0167 79.8356 17.661C81.205 18.2745 82.232 19.1337 82.9479 20.2383C83.664 21.3428 84.006 22.6312 84.006 24.0733C84.006 25.5153 83.664 26.7733 82.9479 27.9085Z" fill="var(--fill-0, white)"/>
</g>
</svg>
